<svg version="1.1" xmlns="http://www.w3.org/2000/svg" xmlns:xlink="http://www.w3.org/1999/xlink" x="0px" y="0px" viewBox="0 0 512 512" enable-background="new 0 0 512 512" xml:space="preserve"><rect fill="#2787F5" width="512" height="512"/><path fill="#FFFFFF" d="M165.6,180h-28c-8,0-9.6,3.8-9.6,7.9c0,7.4,9.5,44.2,44.2,92.8C195.4,314,228,332,257.6,332c17.8,0,20-4,20-10.9V296c0-8,1.7-9.6,7.3-9.6c4.2,0,11.3,2.1,27.9,18.1c19,19,22.1,27.5,32.8,27.5h28c8,0,12-4,9.7-11.9c-2.5-7.9-11.6-19.3-23.6-32.8c-6.5-7.7-16.3-16-19.3-20.2c-4.2-5.3-3-7.7,0-12.5c0,0,34.1-48.1,37.7-64.4c1.8-5.9,0-10.3-8.5-10.3h-28c-7.1,0-10.4,3.8-12.2,7.9c0,0-14.2,34.7-34.4,57.3c-6.5,6.5-9.5,8.6-13.1,8.6c-1.8,0-4.4-2.1-4.4-8v-55.5c0-7.1-2.1-10.3-8-10.3h-44c-4.4,0-7.1,3.3-7.1,6.4c0,6.7,10.1,8.3,11.1,27.3V255c0,9-1.6,10.7-5.2,10.7c-9.5,0-32.6-34.9-46.3-74.8C175.5,183.1,172.8,180,165.6,180z"/></svg>
