<svg version="1.1" xmlns="http://www.w3.org/2000/svg" xmlns:xlink="http://www.w3.org/1999/xlink" x="0px" y="0px" viewBox="0 0 512 512" enable-background="new 0 0 512 512" xml:space="preserve"><linearGradient id="XMLID_2_" gradientUnits="userSpaceOnUse" x1="-62.2304" y1="65.2811" x2="-62.4804" y2="65.8644" gradientTransform="matrix(512 0 0 512 32193 -33343)"><stop offset="0" style="stop-color:#0088CC"/><stop offset="1" style="stop-color:#0088CC"/></linearGradient><rect id="XMLID_4_" fill="url(#XMLID_2_)" width="512" height="512"/><path id="Path-3" fill="#FFFFFF" d="M98,237.6c85.9-37.4,143.2-62.1,171.8-74c81.8-34,98.8-39.9,109.9-40.1c2.4,0,7.9,0.6,11.4,3.4c3,2.4,3.8,5.7,4.2,8c0.4,2.3,0.9,7.5,0.5,11.6c-4.4,46.6-23.6,159.7-33.4,211.8c-4.1,22.1-12.3,29.5-20.1,30.2c-17.1,1.6-30.1-11.3-46.7-22.2c-25.9-17-40.6-27.6-65.8-44.2c-29.1-19.2-10.2-29.7,6.3-46.9c4.3-4.5,79.7-73.1,81.2-79.3c0.2-0.8,0.4-3.7-1.4-5.2c-1.7-1.5-4.3-1-6.1-0.6c-2.6,0.6-44,28-124.3,82.2c-11.8,8.1-22.4,12-32,11.8c-10.5-0.2-30.8-5.9-45.8-10.8c-18.5-6-33.1-9.2-31.8-19.4C76.7,248.5,84,243.1,98,237.6z"/></svg>
