<svg version="1.1" xmlns="http://www.w3.org/2000/svg" xmlns:xlink="http://www.w3.org/1999/xlink" x="0px" y="0px" viewBox="0 0 512 512" enable-background="new 0 0 512 512" xml:space="preserve"><rect fill="#7360F2" width="512" height="512"/><path fill="#FFFFFF" d="M379.9,128.2c-8.4-7.3-42.3-30.7-117.7-31c0,0-89-5.1-132.4,32.7c-24.2,22.9-32.6,56.4-33.5,98c-0.9,41.6-2.1,119.4,77.1,140.6h0.1l-0.1,32.2c0,0-0.5,13,8.6,15.7c11,3.2,17.4-6.7,27.8-17.4c5.7-5.9,13.7-14.5,19.6-21.1c54.1,4.3,95.8-5.6,100.5-7c10.9-3.4,72.8-10.9,82.9-88.8C423.1,201.9,407.7,151.1,379.9,128.2z M389.1,276.4c-8.5,65-58.7,69.1-67.9,71.9c-3.9,1.2-40.5,9.8-86.5,7c0,0-34.3,39.2-45,49.4c-1.7,1.6-3.6,2.2-4.9,1.9c-1.8-0.4-2.3-2.5-2.3-5.5c0-4.3,0.3-53.6,0.3-53.6s0,0,0,0c-67-17.6-63.1-83.9-62.3-118.6c0.8-34.7,7.6-63.2,28.1-82.3c36.7-31.5,112.3-26.8,112.3-26.8c63.8,0.3,94.4,18.5,101.5,24.6C385.8,163.6,397.8,209.3,389.1,276.4L389.1,276.4z"/><path fill="#FFFFFF" d="M293.2,230.1c-2.3,0-4.1-1.7-4.3-3.8c-0.7-13.7-7.5-20.5-21.5-21.2c-2.3-0.2-4.1-2.1-3.9-4.4c0.2-2.1,2.1-3.8,4.4-3.7c18.4,1,28.6,10.9,29.5,28.9c0.1,2.2-1.7,4.1-4.1,4.2c0,0,0,0,0,0H293.2z"/><path fill="#FFFFFF" d="M315.1,237.1H315c-2.4-0.1-4.2-1.9-4.2-4.1c0.3-13.8-3.8-25-12.7-34.2s-21-14.2-37.2-15.3c-2.4-0.2-4.1-2.1-4-4.3c0.2-2.2,2.2-3.9,4.6-3.7c18.2,1.3,32.6,7.3,42.9,17.9c10.3,10.6,15.4,24.1,15,39.9C319.3,235.3,317.4,237.1,315.1,237.1z"/><path fill="#FFFFFF" d="M337.5,245.4c-2.3,0-4.2-1.8-4.3-4c-0.2-24.7-7.7-43.6-23-57.8c-15.1-13.9-34.1-21.1-56.6-21.2c-2.4,0-4.3-1.8-4.3-4.1c0-2.2,1.9-4,4.3-4h0c24.8,0.2,45.8,8.1,62.5,23.5c16.7,15.4,25.3,36.9,25.6,63.5C341.8,243.5,339.9,245.4,337.5,245.4L337.5,245.4z"/><path fill="#FFFFFF" d="M268.5,280.3c0,0,6,0.5,9.2-3.3l6.3-7.5c3-3.7,10.4-6.1,17.5-2.3c5.4,2.9,10.6,6.1,15.7,9.5c4.8,3.3,14.5,11,14.6,11c4.6,3.7,5.7,9.2,2.6,14.9c0,0,0,0.1,0,0.1c-3.5,5.7-7.9,10.9-13.1,15.3c-0.1,0-0.1,0.1-0.1,0.1c-4.5,3.6-9,5.6-13.3,6.1c-0.6,0.1-1.3,0.1-1.9,0.1c-1.9,0-3.8-0.3-5.7-0.8l-0.1-0.2c-6.7-1.8-17.9-6.3-36.6-16.1c-10.8-5.6-21.1-12-30.7-19.3c-4.8-3.6-9.5-7.5-13.8-11.6l-0.5-0.4l-0.5-0.4l0,0l-0.5-0.4c-0.2-0.1-0.3-0.3-0.5-0.4c-4.3-4.1-8.4-8.5-12.3-13.1c-7.6-9.2-14.4-18.9-20.3-29.2c-10.3-17.7-15-28.3-16.9-34.7l-0.2-0.1c-0.6-1.7-0.9-3.5-0.9-5.4c0-0.6,0-1.2,0.1-1.8c0.5-4.1,2.7-8.3,6.4-12.6c0-0.1,0.1-0.1,0.1-0.1c4.6-4.9,10.1-9.1,16.1-12.4c0,0,0.1,0,0.1,0c6.1-3,11.8-2,15.8,2.4c0,0,8.2,9.3,11.6,13.8c3.6,4.8,6.9,9.7,10,14.9c4,6.8,1.5,13.8-2.4,16.6l-7.9,6c-4,3.1-3.5,8.8-3.5,8.8S224.7,269.7,268.5,280.3z"/></svg>