<svg version="1.1" xmlns="http://www.w3.org/2000/svg" xmlns:xlink="http://www.w3.org/1999/xlink" x="0px" y="0px" viewBox="0 0 512 512" enable-background="new 0 0 512 512" xml:space="preserve"><rect fill="#25D366" width="512" height="512"/><path fill-rule="evenodd" clip-rule="evenodd" fill="#FFFFFF" d="M357.3,153.9c-26.9-27-62.6-41.8-100.7-41.9c-78.5,0-142.4,64-142.4,142.7c0,25.2,6.5,49.7,19,71.3L113,400l75.5-19.8c20.8,11.4,44.2,17.4,68.1,17.4h0.1c0,0,0,0,0,0c78.5,0,142.4-64,142.4-142.7C399,216.7,384.2,180.8,357.3,153.9z M256.6,373.4L256.6,373.4c-21.3,0-42.1-5.7-60.3-16.5l-4.3-2.6l-44.8,11.8l12-43.8l-2.8-4.5c-11.8-18.9-18.1-40.7-18.1-63.1c0-65.4,53.1-118.6,118.4-118.6c31.6,0,61.3,12.4,83.7,34.8c22.3,22.4,34.6,52.2,34.6,83.9C374.9,320.2,321.8,373.4,256.6,373.4z M321.5,284.6c-3.6-1.8-21.1-10.4-24.3-11.6c-3.3-1.2-5.6-1.8-8,1.8c-2.4,3.6-9.2,11.6-11.3,14c-2.1,2.4-4.2,2.7-7.7,0.9c-3.6-1.8-15-5.5-28.6-17.7c-10.6-9.5-17.7-21.1-19.8-24.7c-2.1-3.6-0.2-5.5,1.6-7.3c1.6-1.6,3.6-4.2,5.3-6.2c1.8-2.1,2.4-3.6,3.6-5.9c1.2-2.4,0.6-4.5-0.3-6.2c-0.9-1.8-8-19.3-11-26.5c-2.9-7-5.8-6-8-6.1c-2.1-0.1-4.4-0.1-6.8-0.1c-2.4,0-6.2,0.9-9.5,4.5c-3.3,3.6-12.5,12.2-12.5,29.7c0,17.6,12.7,34.5,14.5,36.9c1.8,2.4,25.1,38.4,60.8,53.8c8.5,3.7,15.1,5.9,20.3,7.5c8.5,2.7,16.3,2.3,22.4,1.4c6.8-1,21.1-8.6,24-17c3-8.3,3-15.5,2.1-17C327.5,287.3,325.1,286.4,321.5,284.6z"/></svg>
