<svg version="1.1" xmlns="http://www.w3.org/2000/svg" x="0px" y="0px" viewBox="0 0 96 96" enable-background="new 0 0 96 96"><rect fill="#F03B4C" width="96" height="96"/><path id="XMLID_1_" fill="#191919" d="M68.9,61.7c0,0.3-0.1,0.6-0.4,0.9l-0.3,0.3c-2.1,1.9-4.2,4-6.9,5.4c-1.5,0.8-2.8,1.2-4.1,1.2c-0.7,0-1.4-0.2-2-0.4c-2.9-1-4.2-3.3-3.6-6.3c0.4-2.4,1.5-4.7,2.4-6.9v-0.4c0.7-1.6,1.4-3,2-4.5c0.5-1,1-2.1,1.4-3.2c0.1-0.2,0.1-0.3-0.1-0.8c-0.1,0.1-0.3,0.3-0.4,0.4c-0.4,0.4-0.8,0.8-1.2,1.2c-1.1,1-2.2,2.2-3.3,3.2c-1.8,1.7-3.6,3.6-5.4,5.4c-1.3,1.3-2.8,2.9-4.8,3.7c-1.2,0.5-2.2,0.7-3.3,0.4c-1.8-0.5-2.8-2.1-2.7-4.2c0-1.9,0.8-3.8,1.5-5.5c0.8-1.8,1.6-3.4,2.4-5.1c0.5-0.8,0.8-1.6,1.2-2.4c0.5-0.7,0.8-1.6,1.2-2.4c1.1-2.2,2.1-4.5,3.2-6.9c0.3-0.6,0.5-1.4,0.7-2.1c0.1-0.3,0.2-0.5,0.3-0.9c0.1-0.1,0.1-0.2,0.1-0.3l-0.1,0.1c-0.2,0.2-0.4,0.5-0.6,0.7c-1.4,1.9-2.8,3.8-4.3,5.9c-0.4,0.5-0.8,1.1-1.2,1.7c-1.2,1.6-2.3,3.1-3.5,4.6c-0.6,0.7-1.4,1.5-2.5,2.1c-0.8,0.5-1.8,0.7-2.7,0.3c-1-0.4-1.7-1.3-2.1-2.3c-0.6-1.7,0-3.2,0.6-4.4c0.6-1,1.2-2.1,1.8-3.3c0.4-0.9,1-1.9,1.5-2.8s1-2,0.9-3.2c-0.2-0.9-0.5-1.4-1.1-1.9c-0.3-0.3-0.8-0.3-1.4,0c-1,0.5-1.8,1.2-2.7,2.4c-0.5,0.6-1.1,0.8-1.7,0.5c-0.3-0.2-0.6-0.4-0.7-0.8c0-0.3,0-0.6,0.1-0.5c1.2-1.9,2.6-3.1,4.3-3.7c1.8-0.7,3.7-0.1,5,1.9c0.9,1.4,1.1,2.8,0.6,4.4c-0.5,1.5-1.1,2.9-1.7,4.1c-0.4,0.8-0.9,1.7-1.3,2.5s-0.8,1.6-1.2,2.4c-0.3,0.6-0.3,1.3-0.4,1.9c0,0.1,0.1,0.4,0.2,0.5c0.1,0,0.3-0.1,0.3,0c0.2-0.2,0.5-0.4,0.6-0.6c0.6-0.7,1.3-1.4,1.8-2.1c1.1-1.5,2.2-3,3.1-4.4c0.8-1.2,1.7-2.4,2.5-3.6c1-1.4,2-2.7,3.1-3.9c0.8-1,1.6-1.5,2.7-1.7c0.8-0.1,1.7,0.1,2.3,0.6c0.7,0.5,1.2,1.5,1.3,2.4c0.1,1.3-0.1,2.5-0.5,3.7c-0.9,2.3-1.8,4.8-2.9,7.3c-0.8,1.8-1.7,3.7-2.5,5.5c-0.8,1.7-1.7,3.5-2.5,5.4c-0.5,0.9-0.8,2.1-1.1,3c-0.1,0.3-0.2,0.6-0.3,1c-0.1,0.1-0.1,0.3-0.1,0.5c0,0,0-0.1,0.1-0.1c0.4-0.1,0.7-0.3,0.9-0.5c1.8-1.5,3.5-3.1,5-4.7c2.2-2.6,4.9-5.3,7.7-8.2c1.1-1,2.2-1.7,3.1-2.4c1.2-0.4,2.3-0.4,3.3,0.1c1,0.5,1.6,1.4,1.9,2.6c0.3,1,0.1,2.1-0.1,3c-0.4,2-1.3,4-2.1,5.9C60,54,59.8,54.5,59.6,55c-0.9,2.2-1.7,4.3-2.6,6.8c-0.2,0.4-0.2,0.8-0.3,1.2c0,0.2,0,0.4-0.1,0.6c-0.1,0.1,0,0.1,0,0.2s0,0.1,0.1,0.1c0.6-0.1,1.1-0.1,1.5-0.2c1.4-0.6,2.6-1.7,3.8-2.7c0.7-0.5,1.2-1,1.9-1.7c0.2-0.2,0.5-0.5,0.7-0.7c0.8-0.8,1.5-0.8,2.3,0c0.6,0.6,1.2,1,1.7,1.6C68.9,60.6,69.1,60.9,68.9,61.7z"/></svg>
