<svg version="1.1" xmlns="http://www.w3.org/2000/svg" xmlns:xlink="http://www.w3.org/1999/xlink" x="0px" y="0px" viewBox="0 0 512 512" enable-background="new 0 0 512 512"><linearGradient id="XMLID_6_" gradientUnits="userSpaceOnUse" x1="0.6466" y1="511.8419" x2="0.3966" y2="511.2586" gradientTransform="matrix(512 0 0 -512 0 262144)"><stop offset="0" style="stop-color:#0088CC"/><stop offset="1" style="stop-color:#0088CC"/></linearGradient><rect id="XMLID_4_" fill="url(#XMLID_6_)" width="512" height="512"/><path id="XMLID_3_" fill="#C8DAEA" d="M209.067,373.333c-8.294,0-6.884-3.132-9.745-11.028l-24.389-80.266l187.733-111.373"/><path id="XMLID_2_" fill="#A9C9DD" d="M209.067,373.333c6.4,0,9.228-2.927,12.8-6.4L256,333.743l-42.577-25.675"/><linearGradient id="XMLID_7_" gradientUnits="userSpaceOnUse" x1="0.6094" y1="511.5367" x2="0.8009" y2="511.1712" gradientTransform="matrix(278.3838 0 0 -233.4922 104.3611 119702.0078)"><stop offset="0" style="stop-color:#EFF7FC"/><stop offset="1" style="stop-color:#FFFFFF"/></linearGradient><path id="XMLID_1_" fill="url(#XMLID_7_)" d="M213.419,308.075l103.168,76.222c11.773,6.496,20.27,3.133,23.202-10.93l41.995-197.894c4.299-17.238-6.571-25.056-17.833-19.943l-246.592,95.085c-16.832,6.751-16.734,16.142-3.068,20.326l63.281,19.751l146.502-92.427c6.916-4.194,13.264-1.939,8.054,2.685"/></svg>
