<?xml version="1.0" encoding="utf-8"?>
<!-- Generator: Adobe Illustrator 19.0.0, SVG Export Plug-In . SVG Version: 6.00 Build 0)  -->
<svg version="1.1" id="Layer_1" xmlns="http://www.w3.org/2000/svg" xmlns:xlink="http://www.w3.org/1999/xlink" x="0px" y="0px"
	 viewBox="0 0 512 512" enable-background="new 0 0 512 512" xml:space="preserve">
<rect id="XMLID_229_" fill="#FFFFFF" width="512" height="512"/>
<g id="elements">
	<path fill="#363636" d="M0,0h24.4v24.4H0V0z M24.4,0h24.4v24.4H24.4V0z M48.8,0h24.4v24.4H48.8V0z M73.1,0h24.4v24.4H73.1V0z
		 M97.5,0h24.4v24.4H97.5V0z M121.9,0h24.4v24.4h-24.4V0z M146.3,0h24.4v24.4h-24.4V0z M243.8,0h24.4v24.4h-24.4V0z M268.2,0h24.4
		v24.4h-24.4V0z M292.6,0H317v24.4h-24.4V0z M341.3,0h24.4v24.4h-24.4V0z M365.7,0h24.4v24.4h-24.4V0z M390.1,0h24.4v24.4h-24.4V0z
		 M414.5,0h24.4v24.4h-24.4V0z M438.9,0h24.4v24.4h-24.4V0z M463.2,0h24.4v24.4h-24.4V0z M487.6,0H512v24.4h-24.4V0z M0,24.4h24.4
		v24.4H0V24.4z M146.3,24.4h24.4v24.4h-24.4V24.4z M195,24.4h24.4v24.4H195V24.4z M219.4,24.4h24.4v24.4h-24.4V24.4z M243.8,24.4
		h24.4v24.4h-24.4V24.4z M292.6,24.4H317v24.4h-24.4V24.4z M341.3,24.4h24.4v24.4h-24.4V24.4z M487.6,24.4H512v24.4h-24.4V24.4z
		 M0,48.8h24.4v24.4H0V48.8z M48.8,48.8h24.4v24.4H48.8V48.8z M73.1,48.8h24.4v24.4H73.1V48.8z M97.5,48.8h24.4v24.4H97.5V48.8z
		 M146.3,48.8h24.4v24.4h-24.4V48.8z M243.8,48.8h24.4v24.4h-24.4V48.8z M268.2,48.8h24.4v24.4h-24.4V48.8z M292.6,48.8H317v24.4
		h-24.4V48.8z M341.3,48.8h24.4v24.4h-24.4V48.8z M390.1,48.8h24.4v24.4h-24.4V48.8z M414.5,48.8h24.4v24.4h-24.4V48.8z M438.9,48.8
		h24.4v24.4h-24.4V48.8z M487.6,48.8H512v24.4h-24.4V48.8z M0,73.1h24.4v24.4H0V73.1z M48.8,73.1h24.4v24.4H48.8V73.1z M73.1,73.1
		h24.4v24.4H73.1V73.1z M97.5,73.1h24.4v24.4H97.5V73.1z M146.3,73.1h24.4v24.4h-24.4V73.1z M195,73.1h24.4v24.4H195V73.1z
		 M219.4,73.1h24.4v24.4h-24.4V73.1z M292.6,73.1H317v24.4h-24.4V73.1z M341.3,73.1h24.4v24.4h-24.4V73.1z M390.1,73.1h24.4v24.4
		h-24.4V73.1z M414.5,73.1h24.4v24.4h-24.4V73.1z M438.9,73.1h24.4v24.4h-24.4V73.1z M487.6,73.1H512v24.4h-24.4V73.1z M0,97.5h24.4
		v24.4H0V97.5z M48.8,97.5h24.4v24.4H48.8V97.5z M73.1,97.5h24.4v24.4H73.1V97.5z M97.5,97.5h24.4v24.4H97.5V97.5z M146.3,97.5h24.4
		v24.4h-24.4V97.5z M219.4,97.5h24.4v24.4h-24.4V97.5z M292.6,97.5H317v24.4h-24.4V97.5z M341.3,97.5h24.4v24.4h-24.4V97.5z
		 M390.1,97.5h24.4v24.4h-24.4V97.5z M414.5,97.5h24.4v24.4h-24.4V97.5z M438.9,97.5h24.4v24.4h-24.4V97.5z M487.6,97.5H512v24.4
		h-24.4V97.5z M0,121.9h24.4v24.4H0V121.9z M146.3,121.9h24.4v24.4h-24.4V121.9z M195,121.9h24.4v24.4H195V121.9z M268.2,121.9h24.4
		v24.4h-24.4V121.9z M341.3,121.9h24.4v24.4h-24.4V121.9z M487.6,121.9H512v24.4h-24.4V121.9z M0,146.3h24.4v24.4H0V146.3z
		 M24.4,146.3h24.4v24.4H24.4V146.3z M48.8,146.3h24.4v24.4H48.8V146.3z M73.1,146.3h24.4v24.4H73.1V146.3z M97.5,146.3h24.4v24.4
		H97.5V146.3z M121.9,146.3h24.4v24.4h-24.4V146.3z M146.3,146.3h24.4v24.4h-24.4V146.3z M195,146.3h24.4v24.4H195V146.3z
		 M243.8,146.3h24.4v24.4h-24.4V146.3z M292.6,146.3H317v24.4h-24.4V146.3z M341.3,146.3h24.4v24.4h-24.4V146.3z M365.7,146.3h24.4
		v24.4h-24.4V146.3z M390.1,146.3h24.4v24.4h-24.4V146.3z M414.5,146.3h24.4v24.4h-24.4V146.3z M438.9,146.3h24.4v24.4h-24.4V146.3z
		 M463.2,146.3h24.4v24.4h-24.4V146.3z M487.6,146.3H512v24.4h-24.4V146.3z M219.4,170.7h24.4V195h-24.4V170.7z M0,195h24.4v24.4H0
		V195z M24.4,195h24.4v24.4H24.4V195z M48.8,195h24.4v24.4H48.8V195z M73.1,195h24.4v24.4H73.1V195z M97.5,195h24.4v24.4H97.5V195z
		 M146.3,195h24.4v24.4h-24.4V195z M170.7,195H195v24.4h-24.4V195z M195,195h24.4v24.4H195V195z M268.2,195h24.4v24.4h-24.4V195z
		 M317,195h24.4v24.4H317V195z M365.7,195h24.4v24.4h-24.4V195z M414.5,195h24.4v24.4h-24.4V195z M463.2,195h24.4v24.4h-24.4V195z
		 M170.7,219.4H195v24.4h-24.4V219.4z M195,219.4h24.4v24.4H195V219.4z M219.4,219.4h24.4v24.4h-24.4V219.4z M243.8,219.4h24.4v24.4
		h-24.4V219.4z M292.6,219.4H317v24.4h-24.4V219.4z M317,219.4h24.4v24.4H317V219.4z M341.3,219.4h24.4v24.4h-24.4V219.4z
		 M365.7,219.4h24.4v24.4h-24.4V219.4z M390.1,219.4h24.4v24.4h-24.4V219.4z M414.5,219.4h24.4v24.4h-24.4V219.4z M438.9,219.4h24.4
		v24.4h-24.4V219.4z M487.6,219.4H512v24.4h-24.4V219.4z M0,243.8h24.4v24.4H0V243.8z M48.8,243.8h24.4v24.4H48.8V243.8z
		 M97.5,243.8h24.4v24.4H97.5V243.8z M121.9,243.8h24.4v24.4h-24.4V243.8z M146.3,243.8h24.4v24.4h-24.4V243.8z M170.7,243.8H195
		v24.4h-24.4V243.8z M219.4,243.8h24.4v24.4h-24.4V243.8z M292.6,243.8H317v24.4h-24.4V243.8z M317,243.8h24.4v24.4H317V243.8z
		 M341.3,243.8h24.4v24.4h-24.4V243.8z M365.7,243.8h24.4v24.4h-24.4V243.8z M414.5,243.8h24.4v24.4h-24.4V243.8z M438.9,243.8h24.4
		v24.4h-24.4V243.8z M463.2,243.8h24.4v24.4h-24.4V243.8z M24.4,268.2h24.4v24.4H24.4V268.2z M48.8,268.2h24.4v24.4H48.8V268.2z
		 M97.5,268.2h24.4v24.4H97.5V268.2z M195,268.2h24.4v24.4H195V268.2z M292.6,268.2H317v24.4h-24.4V268.2z M365.7,268.2h24.4v24.4
		h-24.4V268.2z M414.5,268.2h24.4v24.4h-24.4V268.2z M438.9,268.2h24.4v24.4h-24.4V268.2z M24.4,292.6h24.4V317H24.4V292.6z
		 M48.8,292.6h24.4V317H48.8V292.6z M73.1,292.6h24.4V317H73.1V292.6z M97.5,292.6h24.4V317H97.5V292.6z M121.9,292.6h24.4V317
		h-24.4V292.6z M146.3,292.6h24.4V317h-24.4V292.6z M292.6,292.6H317V317h-24.4V292.6z M317,292.6h24.4V317H317V292.6z M365.7,292.6
		h24.4V317h-24.4V292.6z M463.2,292.6h24.4V317h-24.4V292.6z M195,317h24.4v24.4H195V317z M219.4,317h24.4v24.4h-24.4V317z
		 M243.8,317h24.4v24.4h-24.4V317z M341.3,317h24.4v24.4h-24.4V317z M414.5,317h24.4v24.4h-24.4V317z M463.2,317h24.4v24.4h-24.4
		V317z M487.6,317H512v24.4h-24.4V317z M0,341.3h24.4v24.4H0V341.3z M24.4,341.3h24.4v24.4H24.4V341.3z M48.8,341.3h24.4v24.4H48.8
		V341.3z M73.1,341.3h24.4v24.4H73.1V341.3z M97.5,341.3h24.4v24.4H97.5V341.3z M121.9,341.3h24.4v24.4h-24.4V341.3z M146.3,341.3
		h24.4v24.4h-24.4V341.3z M195,341.3h24.4v24.4H195V341.3z M292.6,341.3H317v24.4h-24.4V341.3z M365.7,341.3h24.4v24.4h-24.4V341.3z
		 M438.9,341.3h24.4v24.4h-24.4V341.3z M463.2,341.3h24.4v24.4h-24.4V341.3z M0,365.7h24.4v24.4H0V365.7z M146.3,365.7h24.4v24.4
		h-24.4V365.7z M219.4,365.7h24.4v24.4h-24.4V365.7z M268.2,365.7h24.4v24.4h-24.4V365.7z M341.3,365.7h24.4v24.4h-24.4V365.7z
		 M365.7,365.7h24.4v24.4h-24.4V365.7z M438.9,365.7h24.4v24.4h-24.4V365.7z M463.2,365.7h24.4v24.4h-24.4V365.7z M487.6,365.7H512
		v24.4h-24.4V365.7z M0,390.1h24.4v24.4H0V390.1z M48.8,390.1h24.4v24.4H48.8V390.1z M73.1,390.1h24.4v24.4H73.1V390.1z M97.5,390.1
		h24.4v24.4H97.5V390.1z M146.3,390.1h24.4v24.4h-24.4V390.1z M195,390.1h24.4v24.4H195V390.1z M219.4,390.1h24.4v24.4h-24.4V390.1z
		 M268.2,390.1h24.4v24.4h-24.4V390.1z M292.6,390.1H317v24.4h-24.4V390.1z M317,390.1h24.4v24.4H317V390.1z M0,414.5h24.4v24.4H0
		V414.5z M48.8,414.5h24.4v24.4H48.8V414.5z M73.1,414.5h24.4v24.4H73.1V414.5z M97.5,414.5h24.4v24.4H97.5V414.5z M146.3,414.5
		h24.4v24.4h-24.4V414.5z M195,414.5h24.4v24.4H195V414.5z M219.4,414.5h24.4v24.4h-24.4V414.5z M292.6,414.5H317v24.4h-24.4V414.5z
		 M317,414.5h24.4v24.4H317V414.5z M365.7,414.5h24.4v24.4h-24.4V414.5z M390.1,414.5h24.4v24.4h-24.4V414.5z M438.9,414.5h24.4
		v24.4h-24.4V414.5z M0,438.9h24.4v24.4H0V438.9z M48.8,438.9h24.4v24.4H48.8V438.9z M73.1,438.9h24.4v24.4H73.1V438.9z M97.5,438.9
		h24.4v24.4H97.5V438.9z M146.3,438.9h24.4v24.4h-24.4V438.9z M195,438.9h24.4v24.4H195V438.9z M268.2,438.9h24.4v24.4h-24.4V438.9z
		 M292.6,438.9H317v24.4h-24.4V438.9z M317,438.9h24.4v24.4H317V438.9z M341.3,438.9h24.4v24.4h-24.4V438.9z M390.1,438.9h24.4v24.4
		h-24.4V438.9z M438.9,438.9h24.4v24.4h-24.4V438.9z M0,463.2h24.4v24.4H0V463.2z M146.3,463.2h24.4v24.4h-24.4V463.2z M195,463.2
		h24.4v24.4H195V463.2z M219.4,463.2h24.4v24.4h-24.4V463.2z M243.8,463.2h24.4v24.4h-24.4V463.2z M292.6,463.2H317v24.4h-24.4
		V463.2z M341.3,463.2h24.4v24.4h-24.4V463.2z M390.1,463.2h24.4v24.4h-24.4V463.2z M438.9,463.2h24.4v24.4h-24.4V463.2z M0,487.6
		h24.4V512H0V487.6z M24.4,487.6h24.4V512H24.4V487.6z M48.8,487.6h24.4V512H48.8V487.6z M73.1,487.6h24.4V512H73.1V487.6z
		 M97.5,487.6h24.4V512H97.5V487.6z M121.9,487.6h24.4V512h-24.4V487.6z M146.3,487.6h24.4V512h-24.4V487.6z M195,487.6h24.4V512
		H195V487.6z M268.2,487.6h24.4V512h-24.4V487.6z M341.3,487.6h24.4V512h-24.4V487.6z M414.5,487.6h24.4V512h-24.4V487.6z
		 M438.9,487.6h24.4V512h-24.4V487.6z M463.2,487.6h24.4V512h-24.4V487.6z"/>
</g>
</svg>
