<svg version="1.1" xmlns="http://www.w3.org/2000/svg" xmlns:xlink="http://www.w3.org/1999/xlink" x="0px" y="0px" viewBox="0 0 512 512" enable-background="new 0 0 512 512"><defs><linearGradient id="b" x1="0.6667" y1="0.1667" x2="0.4167" y2="0.75"><stop stop-color="#37aee2" offset="0"/><stop stop-color="#1e96c8" offset="1"/></linearGradient><linearGradient id="w" x1="0.6597" y1="0.4369" x2="0.8512" y2="0.8024"><stop stop-color="#eff7fc" offset="0"/><stop stop-color="#fff" offset="1"/></linearGradient></defs><rect id="XMLID_4_" fill="url(#b)" width="512" height="512"/><path id="XMLID_3_" fill="#C8DAEA" d="M209.067,373.333c-8.294,0-6.884-3.132-9.745-11.028l-24.389-80.266l187.733-111.373"/><path id="XMLID_2_" fill="#A9C9DD" d="M209.067,373.333c6.4,0,9.228-2.927,12.8-6.4L256,333.743l-42.577-25.675"/><path id="XMLID_1_" fill="url(#w)" d="M213.419,308.075l103.168,76.222c11.773,6.496,20.27,3.133,23.202-10.93l41.995-197.894c4.299-17.238-6.571-25.056-17.833-19.943l-246.592,95.085c-16.832,6.751-16.734,16.142-3.068,20.326l63.281,19.751l146.502-92.427c6.916-4.194,13.264-1.939,8.054,2.685"/></svg>
