<svg version="1.1" xmlns="http://www.w3.org/2000/svg" x="0px" y="0px" viewBox="0 0 960 504" enable-background="new 0 0 960 504"><rect fill="#45668E" width="960" height="504"/><path fill="#FEFEFE" d="M451.2,264.6c24.4,0,56.6-5.4,55.8,24.2c-0.6,27.6-32.3,23.8-55.9,23.8L451.2,264.6L451.2,264.6z M451.2,191.3c18.9,0,44.3-3.9,43.8,19.8c-0.4,23.6-23.3,20.7-43.8,20.7V191.3L451.2,191.3z M517.5,242.4c0.8-1.3,3.3-2.1,4.8-3c12.3-7.3,19.9-18.9,21.3-34.1c2-21.4-7.8-34.2-21.2-41.4c-15.6-8.3-36.4-7.9-55.8-7.9h-63.6v192c24.9,0.2,49.8,0,74.7,0c24.9,0,39.9-2,58.9-15.9c12.8-9.4,23.4-29.8,18.9-53.8c-2.8-15.2-12.8-25.8-24.9-31.2C528.8,246.2,518.1,242.7,517.5,242.4L517.5,242.4z"/></svg>
