<svg version="1.1" xmlns="http://www.w3.org/2000/svg" x="0px" y="0px" viewBox="0 0 960 504" enable-background="new 0 0 960 504"><rect fill="#1AB7EA" width="960" height="504"/><g><path fill="#FFFFFF" d="M592.7,123.8c30.9,0.8,46,18.1,46.3,52.5c0,2.3,0,4.6-0.2,7c-1.3,29.1-22.8,68.6-64.7,118.4c-43,52.2-79.8,78.4-109.8,78.8c-18.6,0-34.2-16.1-46.7-48l-13-43.8l-13.2-44.1c-9.6-31.8-19.7-47.7-30.6-47.7c-2.4,0-10.7,4.7-24.9,13.8l-15-17.8l23.4-19.4l23.1-19.2c20.7-16.7,36.3-25.5,47.1-26.9c1.4-0.1,2.9-0.1,4.4-0.1c22.1,0,35.9,15.8,41.3,47.7c3,18,5.6,32.8,7.6,44.3c2,11.4,3.6,19.2,5,23.8c7.2,30,15.3,45,23.7,45.3c6.5,0,16.5-9.8,30-29.4c13.2-20,20.3-35.1,21.3-44.7c0.1-1.9,0.4-3.8,0.4-5.5c0-13.2-7.2-19.6-21.6-19.6c-7.2,0-15,1.6-23.4,4.6c15-46,43.7-69.1,86.1-69.3C590.6,123.8,591.4,123.8,592.7,123.8z"/></g></svg>