<svg version="1.1" xmlns="http://www.w3.org/2000/svg" x="0px" y="0px" viewBox="0 0 960 504" enable-background="new 0 0 960 504"><rect fill="#52796F" width="960" height="504"/><g><path d="M362.1,42v420h235.7V42H362.1z M461.7,54.4h36.8v2.1h-36.8V54.4z M478.9,443.6l-7.8,1.8v-7.9l7.8-1.5V443.6z M478.9,433.9l-7.8,1.5v-7.5l7.8-1.8V433.9z M488.7,441.4l-7.8,1.8v-7.7l7.8-1.5V441.4z M488.7,432.2l-7.8,1.5v-7.8l7.8-1.8V432.2z M580.5,403.1H379.3V67.4h201.5L580.5,403.1L580.5,403.1z"/><rect x="379" y="66.9" fill="#F1F1F1" width="202.2" height="336.2"/><rect x="390.4" y="188.3" fill="#E74856" width="179.3" height="94"/><path fill="#FFFFFF" d="M478.2,242c-1.1,0.4-2.3,0.8-3.8,0.8c-1.4,0-2.4-0.3-3.4-0.9c-1.1-0.6-1.8-1.3-2.4-2.5c-0.6-1-0.9-2.3-0.9-3.6c0-1.5,0.3-2.7,0.9-3.9c0.6-1.2,1.4-2.1,2.6-2.7c1-0.6,2.3-0.9,3.8-0.9c1.2,0,2.3,0.1,3.1,0.6v1.4c-1.1-0.5-2.1-0.8-3.3-0.8c-1.2,0-2.3,0.3-3,0.8c-0.8,0.4-1.5,1.3-1.9,2.3c-0.4,0.9-0.8,2.1-0.8,3.3s0.1,2.3,0.6,3c0.4,0.9,1,1.7,1.8,2.1c0.9,0.4,1.8,0.8,2.9,0.8c1.4,0,2.6-0.3,3.6-0.9L478.2,242L478.2,242z"/><path fill="#FFFFFF" d="M483.8,233.4v9h-1.3v-9h-3v-1.1h7.3v1.1H483.8z"/><path fill="#FFFFFF" d="M494.3,242.4v-1.8l0,0c-0.3,0.6-0.8,1.2-1.3,1.5c-0.6,0.5-1.2,0.5-2,0.5c-0.9,0-1.8-0.3-2.3-0.8c-0.6-0.5-0.9-1.2-0.9-2.1c0-1.8,1.2-2.8,3.4-3.3l3-0.4c0-1.9-0.8-2.8-2.3-2.8c-1.2,0-2.3,0.5-3.3,1.3v-1.3c0.4-0.3,0.9-0.5,1.5-0.8c0.6-0.2,1.2-0.3,1.8-0.3c1.2,0,1.9,0.3,2.6,0.9c0.6,0.6,0.9,1.7,0.9,2.9v6.6L494.3,242.4L494.3,242.4z M489.4,239.7c0,0.6,0.1,1,0.6,1.3c0.4,0.3,0.9,0.5,1.5,0.5c0.9,0,1.6-0.3,2.3-0.9c0.6-0.6,0.9-1.5,0.9-2.4v-1l-2.7,0.4c-0.9,0.2-1.7,0.4-2.1,0.8C489.4,238.5,489.4,239,489.4,239.7z"/><path fill="#FFFFFF" d="M501.8,233.4v9h-1.3v-9h-3v-1.1h7.3v1.1H501.8z"/><path fill="#FFFFFF" d="M513.8,239.3c0,0.9-0.3,1.7-0.9,2.3s-1.3,0.9-2.3,0.9h-4.2v-10.1h1.3v4.1h2.8c1.1,0,1.8,0.3,2.4,0.8C513.8,237.6,513.8,238.3,513.8,239.3z M512.7,239.3c0-0.6-0.1-1-0.6-1.3c-0.4-0.3-0.9-0.4-1.6-0.4h-2.6v3.9h2.6c0.8,0,1.2-0.1,1.6-0.4C512.3,240.5,512.7,240,512.7,239.3z"/><path fill="#FFFFFF" d="M523.2,242.4v-8.3l-0.3,0.4l-5.5,7.8h-1.2v-10.1h1.2v8.3c0-0.1,0.1-0.4,0.4-0.8l5.4-7.5h1.2v10.1H523.2L523.2,242.4z"/><path fill="#FFFFFF" d="M459.8,245.3c-0.3-0.5-2.4-4.3,0-6.6c0.2-0.2,0.3-0.4,0.2-0.9c-0.2-0.3-0.5-0.5-0.8-0.5h-23.1c-0.4,0-0.8,0.3-0.8,0.8v7.7c0,0.4,0.3,0.8,0.8,0.8h23.1l0,0c0.4,0,0.8-0.5,0.8-0.8C460.2,245.5,460.2,245.4,459.8,245.3z M436.5,245.1v-6.4h21.6c-0.4,0.9-0.6,1.8-0.6,2.7h-16.3c-0.3,0-0.5,0.3-0.5,0.4c0,0.3,0.3,0.5,0.5,0.5h16.3c0.2,1,0.4,2,0.9,2.7L436.5,245.1L436.5,245.1z"/><path fill="#FFFFFF" d="M439.5,235.3h7.2c0.1,0,0.3-0.2,0.3-0.3v-3.1h1.3v3.1c0,0.2,0.2,0.3,0.3,0.3h7.2c0.2,0,0.3-0.2,0.3-0.3v-4.5v-0.1l-3.5-6c0-0.2-0.1-0.2-0.3-0.2c-0.2,0-0.3,0.2-0.3,0.3l-0.1,1.1c0,0,0,0.1,0,0.3l2.4,4.3h-13.5l2.4-4.3c0,0,0-0.2,0-0.3l-0.3-1.1c0-0.2-0.1-0.3-0.3-0.3s-0.3,0-0.3,0.2l-3.4,6v0.1v4.5C439.2,235.3,439.2,235.3,439.5,235.3z M449.7,231.5h5.4v2.8h-5.4V231.5z M440.7,231.5h5.4v2.8h-5.4V231.5z"/><path fill="#363636" d="M448.9,133.2c-0.8,0.4-1.5,0.6-2.7,0.6c-0.9,0-1.7-0.1-2.3-0.6c-0.6-0.5-1.2-0.9-1.5-1.7c-0.4-0.8-0.6-1.5-0.6-2.4s0.1-1.8,0.6-2.7c0.4-0.8,0.9-1.3,1.8-1.8c0.8-0.5,1.5-0.6,2.6-0.6c0.9,0,1.7,0.2,2.3,0.5v1.2c-0.8-0.4-1.3-0.6-2.3-0.6c-0.8,0-1.3,0.2-1.9,0.5c-0.6,0.3-0.9,0.8-1.4,1.4c-0.3,0.6-0.4,1.4-0.4,2.1s0.1,1.3,0.4,1.9c0.3,0.6,0.8,1.1,1.2,1.4c0.4,0.3,1,0.4,1.8,0.4c0.9,0,1.8-0.1,2.4-0.6L448.9,133.2L448.9,133.2z"/><path fill="#363636" d="M456.8,130.2c0,1-0.3,1.9-0.9,2.5c-0.6,0.6-1.3,0.9-2.4,0.9s-1.8-0.3-2.4-0.9c-0.6-0.6-0.9-1.5-0.9-2.5c0-1.1,0.3-2,0.9-2.7c0.6-0.6,1.5-0.9,2.5-0.9c1.1,0,1.8,0.3,2.4,0.9C456.4,128.3,456.8,129.1,456.8,130.2z M455.7,130.2c0-0.9-0.1-1.5-0.6-2c-0.4-0.5-0.9-0.8-1.6-0.8s-1.2,0.3-1.6,0.8c-0.5,0.5-0.6,1-0.6,2c0,0.9,0.1,1.3,0.6,1.8c0.4,0.5,0.9,0.8,1.6,0.8s1.2-0.1,1.6-0.6C455.7,131.7,455.7,131.1,455.7,130.2z"/><path fill="#363636" d="M464.3,136h-0.8v-2.4h-4.9v2.4h-1.1v-3.4h0.6c1.2-1.6,1.8-3.6,1.8-5.9h3.4v5.9h1.1L464.3,136L464.3,136z M462,132.6v-4.8h-1.5c-0.2,1.8-0.6,3.5-1.5,4.8H462z"/><path fill="#363636" d="M471,130.5h-4.8c0,0.8,0.1,1.4,0.6,1.8c0.4,0.5,0.9,0.6,1.6,0.6s1.5-0.3,2.1-0.8v1.1c-0.6,0.4-1.4,0.6-2.4,0.6c-0.9,0-1.8-0.3-2.3-0.9s-0.9-1.5-0.9-2.5c0-0.6,0.2-1.4,0.5-1.8c0.3-0.6,0.6-0.9,1-1.3c0.5-0.3,1.1-0.5,1.7-0.5c0.9,0,1.5,0.3,2.1,0.9c0.5,0.6,0.8,1.4,0.8,2.4L471,130.5L471,130.5z M469.9,129.6c0-0.6-0.1-1.1-0.4-1.5c-0.3-0.3-0.8-0.5-1.2-0.5s-0.9,0.2-1.4,0.5c-0.4,0.3-0.6,0.9-0.6,1.4L469.9,129.6L469.9,129.6z"/><path fill="#363636" d="M478.9,130c0,1.2-0.3,2.1-0.9,2.7c-0.6,0.6-1.4,1-2.3,1c-0.9,0-1.5-0.4-2-1.2l0,0v4.1h-1.3v-9.8h1.1v1.2l0,0c0.4-0.9,1.4-1.4,2.3-1.4s1.5,0.3,1.9,0.9C478.5,128.1,478.9,129,478.9,130z M477.8,130c0-0.8-0.2-1.3-0.4-1.8c-0.3-0.5-0.9-0.6-1.4-0.6c-0.6,0-1,0.2-1.5,0.6c-0.4,0.5-0.6,0.9-0.6,1.6v0.9c0,0.6,0.2,1.1,0.6,1.4c0.5,0.5,0.9,0.6,1.4,0.6c0.6,0,1.2-0.3,1.5-0.8C477.4,131.5,477.8,131,477.8,130z"/><path fill="#363636" d="M489,133.6h-1.5l-3-3.3l0,0v3.3h-1.1v-3.3l0,0l-3,3.3h-1.4l3.3-3.4l-3.2-3.3h1.3l2.9,3.1l0,0v-3.1h1.1v3.1l0,0l2.8-3.1h1.4l-3.1,3.3L489,133.6z"/><path fill="#363636" d="M495,133.6h-1.1v-1l0,0c-0.4,0.9-1.2,1.2-2.1,1.2c-0.6,0-1.2-0.1-1.5-0.4c-0.4-0.3-0.6-0.9-0.6-1.4c0-1.4,0.8-2,2.3-2.3l1.9-0.3c0-1.2-0.4-1.8-1.4-1.8c-0.9,0-1.5,0.3-2.3,0.9v-1.1c0.2-0.1,0.5-0.3,1.1-0.5c0.4-0.2,0.9-0.2,1.3-0.2c1.7,0,2.4,0.9,2.4,2.6L495,133.6L495,133.6z M493.9,130.2l-1.6,0.3c-0.6,0-0.9,0.1-1.2,0.5c-0.3,0.3-0.3,0.4-0.3,0.9c0,0.3,0.1,0.6,0.4,0.9c0.3,0.1,0.6,0.3,0.9,0.3c0.4,0,0.9-0.1,1.3-0.6c0.3-0.5,0.5-0.9,0.5-1.4L493.9,130.2L493.9,130.2z"/><path fill="#363636" d="M502.5,133.6h-1.1v-3H498v3h-1.1v-6.8h1.1v2.7h3.4v-2.7h1.1V133.6z"/><path fill="#363636" d="M510.4,133.6h-0.9v-5.4c0,0.1-0.3,0.5-0.5,0.8l-3,4.5h-1v-6.8h0.9v5.3l0.4-0.6l3.2-4.6h1L510.4,133.6L510.4,133.6z"/><path fill="#363636" d="M517.9,130.5h-4.8c0,0.8,0.2,1.4,0.6,1.8c0.5,0.5,0.9,0.6,1.7,0.6s1.5-0.3,2.1-0.8v1.1c-0.6,0.4-1.3,0.6-2.4,0.6c-0.9,0-1.8-0.3-2.3-0.9c-0.5-0.6-0.9-1.5-0.9-2.5c0-0.6,0.2-1.4,0.4-1.8c0.3-0.6,0.6-0.9,1.1-1.3c0.4-0.3,1-0.5,1.7-0.5c0.9,0,1.5,0.3,2.1,0.9c0.4,0.6,0.8,1.4,0.8,2.4V130.5L517.9,130.5z M516.8,129.6c0-0.6-0.2-1.1-0.4-1.5c-0.3-0.3-0.8-0.5-1.2-0.5s-0.9,0.2-1.3,0.5c-0.5,0.3-0.6,0.9-0.6,1.4L516.8,129.6L516.8,129.6z"/><rect x="390.4" y="297.2" fill="#744DA9" width="179.3" height="94.1"/><path fill="#FFFFFF" d="M474,338.3v12.9h-1.3v-12.9h-4.1V337h9.5v1.2H474z"/><path fill="#FFFFFF" d="M478.9,346.3c0,1.2,0.3,2.3,0.9,3c0.6,0.8,1.5,1.1,2.6,1.1c1.2,0,2.3-0.5,3.1-1.2v1.2c-0.9,0.8-2.1,1-3.4,1s-2.6-0.5-3.3-1.4s-1.2-2.3-1.2-3.9c0-0.9,0.2-1.8,0.6-2.7c0.5-0.9,0.9-1.5,1.7-1.9c0.8-0.5,1.5-0.8,2.4-0.8c1.3,0,2.3,0.4,3,1.3c0.8,0.9,1,2.1,1,3.6v0.6L478.9,346.3L478.9,346.3z M484.9,345.2c0-1.1-0.3-1.8-0.8-2.4c-0.4-0.6-1.2-0.9-1.9-0.9c-0.9,0-1.7,0.3-2.1,0.9c-0.6,0.6-0.9,1.3-1.1,2.4H484.9L484.9,345.2z"/><path fill="#FFFFFF" d="M495.4,350.7c-0.8,0.5-1.6,0.8-2.7,0.8c-0.9,0-1.8-0.2-2.4-0.6c-0.8-0.4-1.3-1-1.6-1.8c-0.4-0.8-0.6-1.6-0.6-2.5c0-1.1,0.2-2,0.6-2.9s1.1-1.5,1.8-2c0.8-0.4,1.7-0.8,2.7-0.8c0.9,0,1.6,0.2,2.3,0.5v1.4c-0.8-0.5-1.5-0.8-2.4-0.8c-0.8,0-1.4,0.1-2,0.4c-0.6,0.5-1,0.9-1.3,1.5c-0.3,0.6-0.4,1.4-0.4,2.3c0,1.2,0.3,2.3,0.9,3c0.6,0.8,1.5,1.2,2.6,1.2c0.9,0,1.8-0.3,2.5-0.9L495.4,350.7L495.4,350.7z"/><path fill="#FFFFFF" d="M500.7,342.2v9h-1.2v-9h-3v-1.1h7.3v1.1H500.7L500.7,342.2z"/><path fill="#FFFFFF" d="M512.7,348c0,0.9-0.3,1.7-0.9,2.3c-0.6,0.6-1.4,0.9-2.3,0.9h-4v-10.1h1.3v4.1h2.9c1.1,0,1.8,0.3,2.4,0.8C512.7,346.3,512.7,347.1,512.7,348z M511.5,348c0-0.6-0.2-1-0.6-1.3c-0.5-0.3-0.9-0.5-1.7-0.5h-2.6v3.9h2.6c0.8,0,1.2-0.1,1.7-0.4C511.2,349.2,511.5,348.8,511.5,348z M514.9,351.2v-10.1h1.4v10.1H514.9z"/><path fill="#FFFFFF" d="M455.7,347.5c-1.5,1.2-2.7,2.7-4.1,4c-0.4-0.6-1.1-1.2-1.3-1.9c-0.5-0.9-1.8,0.4-1.4,1.2c0.4,1.1,1.2,1.8,1.9,2.6c0.3,0.3,0.9,0,1.1-0.3c1.4-1.6,2.7-3.1,4.4-4.5C457.2,348.2,456.8,346.8,455.7,347.5z"/><path fill="#FFFFFF" d="M460.2,333.6h-3.9c-0.3-0.3-0.6-0.4-1.1-0.4h-1.5v-0.3c0-0.4-0.8-1-1.3-1s-1.3,0.5-1.3,1v0.3h-1.5c-0.5,0-0.9,0.1-1.1,0.4h-3.9c-0.4,0-0.8,0.3-0.8,0.8v21.5c0,0.5,0.3,0.8,0.8,0.8h15.6c0.4,0,0.8-0.3,0.8-0.8v-21.5C460.9,333.9,460.5,333.6,460.2,333.6z M459.4,355h-13.9v-20h2.1l0,0h0.8c0.2,0.6,0.8,1.1,1.4,1.1h2.9h2.8c0.6,0,1.2-0.5,1.3-1.1h0.8l0,0h2.1L459.4,355L459.4,355z"/><rect x="446.7" y="337.7" fill="#FFFFFF" width="11.4" height="1.2"/><rect x="446.7" y="340" fill="#FFFFFF" width="11.4" height="1.2"/><rect x="446.7" y="342.6" fill="#FFFFFF" width="11.4" height="1.2"/><rect x="446.7" y="345.2" fill="#FFFFFF" width="11.4" height="1.2"/><rect x="390.4" y="152.1" fill="#FFFFFF" width="179.3" height="19.2"/><path fill="#363636" d="M418.5,162.8c0,0.6-0.2,1-0.6,1.4c-0.5,0.3-0.9,0.4-1.5,0.4h-1.8v-6.3h3.3v0.8h-2.4v1.9h1.2c0.6,0,1.1,0.1,1.5,0.5C418.2,161.9,418.5,162.3,418.5,162.8z M417.8,162.8c0-0.8-0.4-1.2-1.3-1.2h-0.9v2.3h1.1c0.4,0,0.8-0.1,1.1-0.3C417.4,163.5,417.8,163.2,417.8,162.8z"/><path fill="#363636" d="M423,163.2c0,0.4-0.2,0.8-0.4,1s-0.6,0.5-1.1,0.5h-1.9v-4.5h0.8v1.8h1.2c0.4,0,0.9,0.1,1.1,0.5C422.7,162.6,423,162.8,423,163.2z M422.3,163.2c0-0.5-0.3-0.8-0.9-0.8h-1v1.5h1C421.9,164.1,422.3,163.8,422.3,163.2z M424.5,164.7h-0.8v-4.5h0.8V164.7z"/><path fill="#363636" d="M429,164.5c-0.3,0.2-0.8,0.3-1.2,0.3s-0.8,0-1.1-0.3c-0.3-0.3-0.6-0.4-0.8-0.8c-0.2-0.3-0.3-0.8-0.3-1.2c0-0.8,0.1-1.4,0.6-1.8c0.4-0.4,0.9-0.8,1.6-0.8c0.4,0,0.8,0,1.1,0.3v0.8c-0.3-0.3-0.8-0.3-1.1-0.3c-0.4,0-0.9,0.2-1.2,0.5c-0.3,0.3-0.4,0.8-0.4,1.4c0,0.4,0.1,0.9,0.4,1.2c0.3,0.3,0.6,0.5,1.1,0.5s0.8-0.2,1.1-0.5L429,164.5L429,164.5z"/><path fill="#363636" d="M432.8,160.8h-1.3v3.9h-0.8v-3.9h-1.4v-0.6h3.4V160.8L432.8,160.8z"/><path fill="#363636" d="M437.7,162.3c0,0.8-0.1,1.4-0.6,1.8c-0.4,0.4-0.9,0.8-1.5,0.8c-0.6,0-1-0.3-1.3-0.8l0,0v2.7h-0.8v-6.6h0.8v0.8l0,0c0.4-0.6,0.9-0.9,1.5-0.9s1.1,0.2,1.3,0.6C437.7,161,437.7,161.5,437.7,162.3z M436.9,162.3c0-0.4-0.1-0.9-0.3-1.2s-0.4-0.4-0.9-0.4c-0.4,0-0.8,0.1-1,0.4c-0.3,0.3-0.5,0.6-0.5,1.1v0.6c0,0.5,0.2,0.8,0.5,0.9c0.3,0.3,0.6,0.4,0.9,0.4c0.4,0,0.8-0.1,1.1-0.4C436.9,163.4,436.9,162.9,436.9,162.3z"/><path fill="#363636" d="M442.2,163.2c0,0.4-0.1,0.8-0.4,1s-0.6,0.5-1.1,0.5h-1.9v-4.5h0.8v1.8h1.2c0.4,0,0.9,0.1,1.1,0.5C442.2,162.6,442.2,162.8,442.2,163.2z M441.4,163.2c0-0.5-0.3-0.8-0.9-0.8h-1v1.5h1.1C441.4,164.1,441.4,163.8,441.4,163.2z M443.7,164.7h-0.8v-4.5h0.8V164.7z"/><path fill="#363636" d="M448.9,164.7h-0.4v-3.6c0,0.1-0.2,0.3-0.3,0.4l-2.1,3h-0.6v-4.5h0.6v3.5l0.3-0.5l2.1-3h0.8v4.7H448.9z M448.9,158c0,0.1,0,0.4-0.1,0.4c0,0.1-0.2,0.3-0.3,0.4c-0.1,0.2-0.3,0.2-0.4,0.3c-0.2,0-0.5,0.1-0.6,0.1s-0.4,0-0.6,0c-0.1,0-0.3-0.1-0.4-0.3c-0.1-0.2-0.3-0.3-0.3-0.5c0-0.1-0.1-0.3-0.1-0.6h0.8c0,0.1,0,0.1,0,0.3s0,0.1,0.1,0.3c0,0,0.2,0.2,0.3,0.2c0.1,0,0.3,0,0.4,0s0.3,0,0.3,0s0.1-0.2,0.3-0.2c0,0,0.2-0.1,0.2-0.3s0-0.1,0-0.3H448.9z"/><path fill="#363636" d="M456.4,164.7h-0.8v-3.9h-2.3v3.9h-0.8v-4.5h3.8V164.7L456.4,164.7z"/><path fill="#363636" d="M461.3,162.6h-3.2c0,0.4,0.2,0.9,0.5,1.2s0.6,0.5,1,0.5s0.9-0.2,1.4-0.5v0.6c-0.4,0.3-0.9,0.4-1.5,0.4s-1.2-0.1-1.5-0.6c-0.3-0.5-0.4-0.9-0.4-1.8c0-0.4,0-0.9,0.3-1.2c0.1-0.5,0.4-0.6,0.8-0.9c0.3-0.3,0.6-0.3,1.1-0.3c0.6,0,1.1,0.1,1.3,0.6c0.3,0.4,0.5,0.9,0.5,1.6L461.3,162.6L461.3,162.6z M460.5,162c0-0.5-0.2-0.8-0.3-0.9s-0.4-0.3-0.9-0.3c-0.3,0-0.6,0.2-0.9,0.5s-0.4,0.6-0.4,0.9L460.5,162L460.5,162z"/><path fill="#363636" d="M466.5,162.3c0,0.8-0.2,1.4-0.6,1.8c-0.5,0.4-0.9,0.8-1.5,0.8c-0.6,0-1.1-0.3-1.4-0.8l0,0v2.7h-0.8v-6.6h0.8v0.8l0,0c0.4-0.6,0.9-0.9,1.5-0.9s1.1,0.2,1.4,0.6C466.2,161,466.5,161.5,466.5,162.3z M465.8,162.3c0-0.4-0.2-0.9-0.3-1.2s-0.4-0.4-0.9-0.4c-0.5,0-0.8,0.1-1.1,0.4c-0.3,0.3-0.4,0.6-0.4,1.1v0.6c0,0.5,0.1,0.8,0.4,0.9c0.3,0.1,0.6,0.4,0.9,0.4c0.4,0,0.8-0.1,1.1-0.4C465.8,163.4,465.8,162.9,465.8,162.3z"/><path fill="#363636" d="M471.4,162.6H468c0,0.4,0.2,0.9,0.4,1.2c0.3,0.3,0.6,0.5,1.1,0.5c0.4,0,0.9-0.2,1.3-0.5v0.6c-0.4,0.3-0.9,0.4-1.5,0.4c-0.6,0-1.2-0.1-1.5-0.6c-0.3-0.5-0.4-0.9-0.4-1.8c0-0.4,0-0.9,0.3-1.2c0.2-0.5,0.5-0.6,0.8-0.9c0.3-0.3,0.6-0.3,1.1-0.3c0.6,0,1,0.1,1.3,0.6c0.3,0.4,0.4,0.9,0.4,1.6L471.4,162.6L471.4,162.6z M470.7,162c0-0.5-0.1-0.8-0.3-0.9s-0.4-0.3-0.9-0.3c-0.3,0-0.6,0.2-0.9,0.5s-0.4,0.6-0.4,0.9L470.7,162L470.7,162z"/><path fill="#363636" d="M475.5,160.2l-1.5,2.3l1.5,2.3h-0.9l-0.9-1.5l-0.1-0.3l0,0l-1.1,1.8h-0.8l1.5-2.3l-1.5-2.3h0.9c0.6,1,0.9,1.8,1.1,1.8l0,0l1.2-1.8H475.5z"/><path fill="#363636" d="M480.4,162.5c0,0.8-0.1,1.3-0.6,1.8c-0.4,0.5-0.9,0.6-1.6,0.6c-0.6,0-1.2-0.1-1.6-0.6c-0.5-0.5-0.6-0.9-0.6-1.6s0.1-1.4,0.6-1.8c0.4-0.4,0.9-0.6,1.6-0.6c0.6,0,1.2,0.1,1.5,0.6S480.4,161.7,480.4,162.5z M479.7,162.5c0-0.6-0.1-1.1-0.4-1.4c-0.3-0.3-0.6-0.5-1.1-0.5c-0.4,0-0.9,0.1-1.1,0.5c-0.3,0.3-0.4,0.8-0.4,1.4c0,0.4,0.1,0.9,0.4,1.3c0.3,0.3,0.6,0.5,1.1,0.5s0.9-0.2,1.1-0.5C479.7,163.4,479.7,163,479.7,162.5z"/><path fill="#363636" d="M485.3,166.2h-0.8v-1.7h-3.3v1.7h-0.6V164h0.5c0.8-1.1,1.2-2.4,1.2-3.9h2.3v3.9h0.6L485.3,166.2L485.3,166.2z M483.8,164.1v-3.3h-1.1c0,1.2-0.4,2.3-1.1,3.3H483.8z"/><path fill="#363636" d="M492,164.7h-1.1l-1.9-2.1l0,0v2.1h-0.8v-4.5h0.8v2.1l0,0l1.8-2.1h0.9l-2.1,2.3L492,164.7z"/><path fill="#363636" d="M498,164.5c-0.3,0.2-0.8,0.3-1.2,0.3s-0.8,0-1.1-0.3c-0.3-0.3-0.6-0.4-0.8-0.8c-0.2-0.3-0.3-0.8-0.3-1.2c0-0.8,0.1-1.4,0.6-1.8c0.4-0.4,0.9-0.8,1.6-0.8c0.4,0,0.8,0,1.1,0.3v0.8c-0.3-0.3-0.8-0.3-1.1-0.3c-0.4,0-0.9,0.2-1.2,0.5c-0.3,0.3-0.4,0.8-0.4,1.4c0,0.4,0.1,0.9,0.4,1.2c0.3,0.3,0.6,0.5,1.1,0.5s0.8-0.2,1.1-0.5L498,164.5L498,164.5z"/><path fill="#363636" d="M501.8,160.8h-1.3v3.9h-0.8v-3.9h-1.4v-0.6h3.4V160.8L501.8,160.8z"/><path fill="#363636" d="M506.7,162.3c0,0.8-0.1,1.4-0.6,1.8c-0.4,0.4-0.9,0.8-1.5,0.8c-0.6,0-1-0.3-1.3-0.8l0,0v2.7h-0.8v-6.6h0.8v0.8l0,0c0.4-0.6,0.9-0.9,1.5-0.9s1.1,0.2,1.3,0.6C506.7,161,506.7,161.5,506.7,162.3z M505.9,162.3c0-0.4-0.1-0.9-0.3-1.2s-0.4-0.4-0.9-0.4c-0.4,0-0.8,0.1-1,0.4c-0.3,0.3-0.5,0.6-0.5,1.1v0.6c0,0.5,0.2,0.8,0.5,0.9c0.3,0.3,0.6,0.4,0.9,0.4c0.4,0,0.8-0.1,1.1-0.4C505.9,163.4,505.9,162.9,505.9,162.3z"/><path fill="#363636" d="M511.2,164.7h-0.8V164l0,0c-0.3,0.4-0.8,0.9-1.4,0.9c-0.4,0-0.8-0.1-1-0.5c-0.3-0.3-0.5-0.6-0.5-0.9c0-0.9,0.5-1.4,1.5-1.5l1.4-0.1c0-0.8-0.3-1.2-0.9-1.2c-0.5,0-1.1,0.1-1.5,0.6v-0.8c0.1-0.1,0.4-0.1,0.8-0.3c0.3,0,0.6-0.2,0.9-0.2c1.1,0,1.6,0.6,1.6,1.7L511.2,164.7L511.2,164.7z M510.4,162.5l-1.1,0.1c-0.4,0-0.6,0.1-0.8,0.3s-0.2,0.3-0.2,0.6s0,0.5,0.3,0.5c0.1,0.1,0.4,0.1,0.6,0.1c0.4,0,0.6-0.1,0.9-0.5c0.3-0.3,0.3-0.6,0.3-0.9L510.4,162.5L510.4,162.5z"/><path fill="#363636" d="M516,164.7h-0.8v-2.1H513v2.1h-0.8v-4.5h0.8v1.8h2.3v-1.8h0.8V164.7z"/><path fill="#363636" d="M521.3,164.7h-0.8v-3.6c0,0.1-0.2,0.3-0.3,0.4l-2.1,3h-0.6v-4.5h0.6v3.5l0.3-0.5l2.1-3h0.8V164.7z"/><path fill="#363636" d="M526.9,166.2h-0.4v-1.7h-3.8v-4.5h0.8v3.9h2.3v-3.9h0.8v3.9h0.6v2.3H526.9z"/><path fill="#363636" d="M531.4,164.7h-0.8V164l0,0c-0.3,0.4-0.8,0.9-1.3,0.9c-0.4,0-0.8-0.1-1-0.5c-0.3-0.3-0.5-0.6-0.5-0.9c0-0.9,0.5-1.4,1.5-1.5l1.3-0.1c0-0.8-0.3-1.2-0.9-1.2c-0.5,0-1.1,0.1-1.5,0.6v-0.8c0.1-0.1,0.4-0.1,0.8-0.3c0.3-0.2,0.6-0.2,0.9-0.2c1.1,0,1.7,0.6,1.7,1.7L531.4,164.7L531.4,164.7z M530.7,162.5l-1,0.1c-0.5,0-0.6,0.1-0.8,0.3s-0.2,0.3-0.2,0.6s0,0.5,0.3,0.5c0.1,0.1,0.4,0.1,0.6,0.1c0.5,0,0.6-0.1,0.9-0.5c0.3-0.3,0.3-0.6,0.3-0.9L530.7,162.5L530.7,162.5z"/><path fill="#363636" d="M537.4,164.7h-0.8V161l-0.3,0.9l-1.2,2.9h-0.6l-1.2-2.9c0-0.1-0.2-0.5-0.3-0.9v3.8h-0.6v-4.5h0.9l1.2,3c0,0.1,0.2,0.4,0.3,0.9l0.3-0.9l1.2-3h0.9L537.4,164.7L537.4,164.7z"/><path fill="#363636" d="M539.7,164.3c0,0.1,0,0.3-0.1,0.3c0,0-0.2,0.2-0.3,0.2c-0.1,0-0.3,0-0.3-0.2c0,0-0.2-0.1-0.2-0.3s0-0.3,0.2-0.3c0-0.2,0.2-0.2,0.3-0.2c0.2,0,0.3,0,0.3,0.2C539.7,164.1,539.7,164.1,539.7,164.3z M541.9,164.3c0,0.1,0,0.3-0.1,0.3c0,0-0.2,0.2-0.3,0.2c-0.1,0-0.3,0-0.3-0.2c0,0-0.2-0.1-0.2-0.3s0-0.3,0.2-0.3c0-0.2,0.2-0.2,0.3-0.2c0.2,0,0.3,0,0.3,0.2C541.9,164.1,541.9,164.1,541.9,164.3z M544.2,164.3c0,0.1,0,0.3-0.1,0.3c0,0-0.2,0.2-0.3,0.2c-0.1,0-0.3,0-0.3-0.2c0,0-0.2-0.1-0.2-0.3s0-0.3,0.2-0.3c0-0.2,0.2-0.2,0.3-0.2c0.2,0,0.3,0,0.3,0.2C544,164.1,544.2,164.1,544.2,164.3z"/><path fill="#565656" d="M558.4,160.6l0.3-0.3l1.9,1.9l2-1.9l0.3,0.3l-2.3,2.3L558.4,160.6z"/><path fill="#848484" d="M397.2,158.9v-2h1.9v2H397.2z M397.2,161.4v-1.9h1.9v1.9H397.2z M397.2,164v-2h1.9v2H397.2z M397.2,166.5v-2h1.9v2H397.2z M397.9,157.5v0.6h0.6v-0.6H397.9z M397.9,160.2v0.6h0.6v-0.6H397.9z M397.9,162.8v0.6h0.6v-0.6H397.9z M397.9,165.3v0.6h0.6v-0.6H397.9z M400.5,157.5h7.1v0.6h-7.1V157.5z M400.5,160.8v-0.6h5.7v0.6H400.5z M405,162.8v0.6h-4.5v-0.6H405z M400.5,165.9v-0.6h5.7v0.6H400.5z"/><rect x="409.9" y="66.9" fill="#E3E3E3" width="30.8" height="30.8"/><path fill="#848484" d="M420,81.4c0.2,0,0.3,0,0.3,0c0.1,0,0.1,0.2,0.3,0.2c0,0,0.2,0.1,0.2,0.3s0,0.2,0,0.3c0,0.2,0,0.3,0,0.3s-0.2,0.1-0.2,0.3c0,0-0.2,0.1-0.3,0.1s-0.1,0-0.3,0s-0.3,0-0.3,0c-0.1,0-0.1-0.1-0.3-0.1s-0.2-0.2-0.2-0.3c0,0,0-0.1,0-0.3c0-0.2,0-0.3,0-0.3c0-0.1,0.2-0.1,0.2-0.3c0,0,0.2-0.2,0.3-0.2H420z M424.9,81.4c0.1,0,0.3,0,0.3,0c0.2,0,0.2,0.2,0.3,0.2s0.1,0.1,0.1,0.3s0,0.2,0,0.3c0,0.2,0,0.3,0,0.3c0,0.1-0.1,0.1-0.1,0.3c0,0-0.1,0.1-0.3,0.1s-0.2,0-0.3,0s-0.3,0-0.3,0c-0.2,0-0.2-0.1-0.3-0.1c0,0-0.1-0.2-0.1-0.3c0-0.1,0-0.1,0-0.3c0-0.2,0-0.3,0-0.3c0-0.1,0.1-0.1,0.1-0.3c0,0,0.1-0.2,0.3-0.2C424.9,81.4,424.9,81.4,424.9,81.4z M430.2,81.4c0.1,0,0.3,0,0.3,0c0.2,0,0.2,0.2,0.3,0.2c0,0,0.1,0.1,0.1,0.3s0,0.2,0,0.3c0,0.2,0,0.3,0,0.3c0,0.1-0.1,0.1-0.1,0.3c0,0-0.1,0.1-0.3,0.1s-0.2,0-0.3,0s-0.3,0-0.3,0c-0.2,0-0.2-0.1-0.3-0.1c0,0-0.1-0.2-0.1-0.3c0-0.1,0-0.1,0-0.3c0-0.2,0-0.3,0-0.3c0-0.1,0.1-0.1,0.1-0.3c0,0,0.1-0.2,0.3-0.2C430.2,81.4,430.2,81.4,430.2,81.4z"/><rect x="379" y="66.9" fill="#E3E3E3" width="30.8" height="30.8"/><path fill="#848484" d="M387.4,79.4v-0.9h13.6v0.9H387.4z M387.4,82.8v-0.9h13.6v0.9H387.4z M387.4,86.3v-0.9h13.6v0.9H387.4z"/></g></svg>