<svg version="1.1" xmlns="http://www.w3.org/2000/svg" x="0px" y="0px" viewBox="0 0 640 360" enable-background="new 0 0 640 360"><rect id="XMLID_1_" fill="#1AB7EA" width="640" height="360"/><path id="XMLID_2_" fill="#FFFFFF" d="M387.9,148.3c-0.6,13.2-9.8,31.4-27.7,54.5C341.6,227,326,239,313.2,239c-7.9,0-14.6-7.3-20.1-22c-2.5-8.9-6.1-22.4-11-40.4c-4-14.6-8.4-22-13.1-22c-1,0-4.5,2.1-10.6,6.4l-6.4-8.2c1.3-1.2,4.3-3.9,9-8.1c4.7-4.2,8.3-7.4,10.9-9.7c8.7-7.7,15.4-11.8,20.1-12.2c5.3-0.5,9.6,1,12.8,4.7c3.2,3.6,5.5,9.3,6.8,17.1c2.5,16,4.3,26.4,5.5,31.3c3.1,13.9,6.4,20.9,10,20.9c2.8,0,7.1-4.5,12.9-13.5c5.6-9,8.7-15.9,9.1-20.6c0.7-7.8-2.3-11.6-9.1-11.6c-3.2,0-6.5,0.7-10.1,2.2c6.7-22,19.5-32.6,38.3-32C382.2,121.5,388.8,130.6,387.9,148.3z"/></svg>
