<svg version="1.1" xmlns="http://www.w3.org/2000/svg" x="0px" y="0px" viewBox="0 0 960 504" enable-background="new 0 0 960 504"><rect fill="#1CAFF6" width="480" height="252"/><g><path fill="#FFFFFF" d="M177.3,121.8c0,0.2,0,0.2,0,0.3c0,2.9-0.1,4.6-0.4,5.4c-0.4,1.2-1.1,2.1-2.1,2.7c-0.9,0.6-1.9,0.9-3.3,0.9c-1.4,0-2.4-0.3-3.3-0.9c-0.9-0.6-1.5-1.5-1.9-2.7c-0.5-1-0.6-2.8-0.6-5.5c0-0.2,0-0.3,0-0.6v-14.8h-7.9v13c0,0.9,0,1.8,0,2.5c0.1,3.6,0.4,6.1,0.9,7.8c0.9,2.7,2.4,4.8,4.5,6.4c2.1,1.5,4.9,2.3,8.3,2.3c3.1,0,5.7-0.6,7.8-1.9c2.1-1.4,3.6-3.2,4.6-5.7c0.8-1.6,1.2-4.6,1.2-8.9c0-0.8,0-1.5,0-2.4v-13.2h-7.8L177.3,121.8C177.1,121.8,177.3,121.8,177.3,121.8z M154,96h-7.8v12.1c-0.1,0-0.3-0.1-0.5-0.1c-2.5-1.5-5.4-2.3-8.3-2.3c-4,0-7.6,1.4-10.8,4.2c-3.6,3.3-5.4,7.3-5.4,12.2l0,0l0,0c0,4.5,1.6,8.4,4.8,11.5s7.1,4.8,11.4,4.8c3,0,5.9-0.8,8.4-2.1c2.5-1.5,4.5-3.4,6-6c1.3-2.3,1.9-4.6,2.1-7.2l0,0c0-0.3,0-0.8,0-1s0-0.8,0-1V96z M143.7,128.7c-1.7,1.6-3.6,2.5-6.2,2.5c-2.4,0-4.5-0.9-6-2.5c-1.6-1.7-2.4-3.9-2.4-6.6l0,0l0,0c0-2.6,0.8-4.8,2.4-6.5c1.7-1.6,3.6-2.5,6-2.5c2.6,0,4.5,0.9,6.2,2.5c1.6,1.7,2.4,3.9,2.4,6.5l0,0C146.1,124.8,145.4,127,143.7,128.7z M218.4,114c-1.5-2.5-3.4-4.5-6-6s-5.4-2.3-8.3-2.3c-4.1,0-7.7,1.4-10.8,4.2c-3.6,3.3-5.4,7.2-5.4,12.2l0,0c0,4.5,1.6,8.4,4.8,11.5c3.1,3.1,7,4.8,11.4,4.8c3,0,5.9-0.8,8.4-2.1c2.5-1.5,4.5-3.4,6-6c1.5-2.5,2.3-5.3,2.3-8.3C220.5,119.3,219.9,116.5,218.4,114z M210.3,128.7c-1.6,1.6-3.6,2.5-6.1,2.5c-2.6,0-4.5-0.9-6-2.5c-1.7-1.7-2.4-3.9-2.4-6.6l0,0c0-2.6,0.8-4.8,2.4-6.5c1.6-1.6,3.6-2.5,6-2.5c2.5,0,4.5,0.9,6.1,2.5c1.7,1.7,2.4,3.9,2.4,6.5l0,0C212.7,124.8,211.8,127,210.3,128.7z"/><path fill="#FFFFFF" d="M247.8,138h8v-30.1h-8V138z M234.3,129.9c-0.9-0.6-1.6-1.5-1.9-2.7c-0.3-0.9-0.4-2.7-0.4-5.4V96h-7.8v23.3c0,0.9,0,1.6,0,2.4c0.2,4.2,0.4,7.1,1.2,8.9c1.1,2.4,2.6,4.4,4.7,5.7c2.1,1.3,4.6,1.9,7.8,1.9h6v-7.4h-6.2C236.3,130.8,235.2,130.5,234.3,129.9z M286.7,113.7c-1.1-2.4-2.6-4.3-4.7-5.7c-2.1-1.4-4.7-2-7.8-2c-3.5,0-6.2,0.8-8.3,2.3c-2.1,1.5-3.6,3.6-4.5,6.5c-0.5,1.5-0.8,4.2-0.9,7.8c0,0.8,0,1.7,0,2.5V138h8v-15c0-0.1,0-0.3,0-0.6c0-2.5,0.2-4.5,0.6-5.5c0.5-1.2,1.1-2,2-2.7c0.9-0.6,2-0.9,3.3-0.9c1.4,0,2.4,0.3,3.3,0.9c0.9,0.6,1.6,1.5,2.1,2.7c0.3,0.9,0.5,2.7,0.5,5.4c0,0.1,0,0.1,0,0.3V138h7.8v-13.2c0-0.9,0-1.7,0-2.4C287.8,118.4,287.4,115.4,286.7,113.7z M251.5,96.6c-2.3,0-4.2,1.9-4.2,4.2s1.8,4.2,4.2,4.2c2.3,0,4.2-1.8,4.2-4.2S253.8,96.6,251.5,96.6z M356.4,114.3c-1.5-2.5-3.5-4.5-6-6c-2.6-1.5-5.3-2.1-8.4-2.1c-4.5,0-8.3,1.6-11.4,4.8c-3.1,3.2-4.8,7.1-4.8,11.6l0,0c0,4.8,1.8,8.9,5.4,12.1c3.1,2.9,6.8,4.2,10.8,4.2c3,0,5.7-0.8,8.3-2.3s4.7-3.5,6-6c1.5-2.6,2.3-5.3,2.3-8.1C358.7,119.5,357.9,116.9,356.4,114.3z M350.7,122.5c0,2.7-0.8,4.8-2.4,6.5c-1.6,1.6-3.6,2.5-6.1,2.5c-2.4,0-4.5-0.9-6-2.5c-1.7-1.6-2.4-3.9-2.4-6.5l0,0c0-2.7,0.8-5,2.4-6.6c1.6-1.7,3.6-2.6,6-2.6c2.4,0,4.5,0.9,6.1,2.6C350,117.6,350.7,119.9,350.7,122.5C350.7,122.4,350.7,122.4,350.7,122.5z M323.1,121.2c-0.1-2.5-0.9-4.8-2.1-7c-1.5-2.5-3.5-4.5-5.8-6c-2.6-1.5-5.3-2.1-8.3-2.1c-4.5,0-8.3,1.5-11.4,4.8c-3.2,3.1-4.7,7-4.7,11.5l0,0l0,0c0,4.8,1.8,8.9,5.3,12c3.2,2.9,6.6,4.2,10.7,4.2c2.8,0,5.7-0.8,8.3-2.3c0.2-0.1,0.3-0.1,0.5-0.3v3.6c0,2.7-0.9,4.8-2.4,6.4c-1.6,1.7-3.6,2.6-6,2.6c-2.4,0-4.3-0.8-6-2.4l-5.1,5.4l0.1,0.1c3.2,2.9,6.8,4.2,10.7,4.2c2.8,0,5.7-0.8,8.3-2.3c2.5-1.5,4.5-3.5,6-6c1.5-2.6,2.1-5.3,2.1-8.1v-16.4c0-0.3,0-0.6,0-1l0,0C323.3,122,323.3,121.5,323.1,121.2L323.1,121.2z M315.5,122.3L315.5,122.3c0,2.7-0.8,4.8-2.4,6.5c-1.6,1.6-3.6,2.5-6,2.5c-2.4,0-4.3-0.9-6-2.5c-1.6-1.7-2.4-3.8-2.4-6.5l0,0l0,0c0-2.7,0.8-4.8,2.4-6.6c1.7-1.6,3.6-2.5,6-2.5c2.4,0,4.5,0.9,6,2.5C314.5,117.5,315.5,119.5,315.5,122.3L315.5,122.3z"/></g><rect x="480" fill="#081F2D" width="480" height="252"/><g><path fill="#FEFEFE" d="M753.2,94.6c-1.3,0-1.2-0.1-2.3-0.6l-3.5-0.8c-1.3-0.2-4.8-0.6-5.5-1.2c-1.3-0.8-3.8-0.8-5.4-1.4c-1.7-0.6-3.6-1-5.4-1.3c-1.3-0.2-3-0.8-4-1.2c-6-1.2-3-0.2-7.4-0.2c-3.4,0-7.8-0.8-9.3-4.2c-1-2,0.2-3.2,1.7-4.7c0.4-0.4,1.3-1.2,1.9-1.3c1.7-0.6,4.1-1.2,5.6-1.2c2.8,0,5.8,0.6,7.9,2l1.8,1.6c0.4,0.2,0.8,0.2,1.3,0.5l3.8,1.2c0.8,0.1,1.8,0.4,2.5,0.8l2.6,0.8c1.1,0.4,1.8,0.4,2.6,0.8l7.8,2.6c1.7,0.6,3.6,1,5,1.6c0.6,0.1,0.8,0.1,1.3,0.4c0.6,0.2,0.2,0.2,1.2,0.6c1.2,0.4,3.2,1.1,4.3,0.6l3.2-1.8c2.4-1.2,8.3-3.5,6-7.1c-1-1.7-2.3-1.9-4-2.9l-24-13.3c-1.8-0.8-11.1-5.9-12.6-7.1c-1.2-0.8-4.9-3-6-3.2c-3-1-7.3-1-10.2,0.5l-5.4,3c-0.5,0.1-0.8,0.5-1.2,0.6L696,65.2c-0.2,0-0.5,0.2-0.5,0.2c-0.6,0.4-0.6,0.1-1.2,0.6c-1.2,0.6-2.3,1.2-3.5,1.8l-0.8,0.4c0,0,0,0-0.1,0l-2.4,1.4c-0.8,0.4-1.3,0.8-2.3,1.2l-8,4.3c-0.8,0.5-1.8,0.6-2.4,1.2l-0.5,0.4c-0.8,0.6-2.4,1.2-3.5,1.8c-3,1.8-5.3,3.8-1.8,7c0.8,0.8,3.5,1.8,4.3,2.4c2.3,1.2,4.2,2.6,6.6,3.6c0.6,0.5,1.6,0.8,2.4,1.2c0.6,0.1,0.5,0.1,1.1,0.6l7.2,3.8c0.8,0.8,5.9,3.2,7.1,4l13.2,7.4c2.3,1.2,1.7,1.2,4.7,2.3c1.8,0.6,4.2,0.6,6.5,0.4c2.8-0.4,1.6-0.4,2.4-0.8c0.6-0.1,0.6,0,1.2-0.4l14.1-7.8c2.4-1.2,5.3-3.1,7.8-4.2c1.2-0.5,0.1-0.2,0.8-0.8l3.1-1.8C752.7,95.4,752.8,95.3,753.2,94.6L753.2,94.6z"/><path fill="#FEFEFE" d="M687.4,105.6c-1.8-0.6-1-0.8-1.9-0.6c0,0.8,0.4,1.8,0.6,2.9c0.2,1.3,0,0.1,0.6,1.2l1.1,2.6c0.4,0.6,0.2,0.4,0.6,1c1.3,2.4,2.4,4.1,5,5.9c3.1,2.4,5.3,2.9,6,3.5l0.4,0.2c0.2,0.1,0.2,0.1,0.5,0.4l3.8,1.8c0.4,0.1,0.8,0.1,1.2,0.6l7.1,3.8c3,1.6,7,4.6,10.2,3.4c1.1-0.4,1.7-0.6,2.6-1.1l11.5-6c0.6-0.5,0.8-0.2,1.4-0.6l6-3c1-0.6,2.8-2.6,3.1-3.6c0.5-1.4,1.7-7.6,1.7-9c-0.8,0-2,0.5-2.4,0.8l-8.7,4.4c-1.4,0.8-4.1,1.6-4.2,1.8l-1.8,1.1c-0.5,0.1-0.6,0.4-1.1,0.4c-0.8,0.5-1.2,0.6-1.9,0.8c-0.5,0.2-0.6,0.5-1.1,0.5c-0.4,0.1-0.6,0.4-0.8,0.6l-6,2.8c-1.2,0.2-4-1.6-4.9-2.3l-3-1.3c-1.1-0.5-1.2-0.5-1.8-1l-5.5-2.9c-0.6-0.4-3.2-1.3-4.1-1.8c-1.2-0.8-2.5-1.2-4-1.8l-6.8-3.4c-0.5-0.2-0.5-0.2-0.8-0.5C688.9,106.2,687.9,105.8,687.4,105.6L687.4,105.6z"/><path fill="#FEFEFE" d="M675.2,168.6c1,0.4,1.3,1.2,1.8,1.9c1.8,3.5,1.1,2.6-6,2.6c-6,0-6.8-0.8-6.8,1.2c0,3.8-0.4,3.2,3.5,3.2c1.7,0,9.3-0.2,9.8,0.1c0.8,0.6-0.8,4.4-2.8,4.9c-2,1.7-5,2-8,1.2c-3.5-0.8-0.8,0-3.8-1.2c-0.2,0-0.5-0.1-0.6-0.1l-2.3-1.4c-0.5,0,0,0-0.5,0c-0.4,0.5-0.2,5-0.2,5.4c0.5,1,1.2,0.4,2.4,1.2c1.2,0.8,0.6,0,2.6,0.8c2.5,1.2,7.9,0.8,10.5-0.1c0.4-0.2,0.6-0.2,1.2-0.5c0.5-0.1,0,0,0.6-0.1c0.5-0.1,0,0,0.5-0.1c0.6-0.2,0.5-0.2,1-0.5c2.3-1.3,1.1-0.4,2.3-1.6c1.4-1.6,2.4-2.9,3.2-4.9c0.2-0.6,0.5-1.4,0.6-2c0.6-2.9,0.2-7-1-9.3c-1.7-3-3.8-5.4-7.2-6.6c-1-0.5-0.8-0.6-1.9-0.6c-1.3-0.1-3.4-0.6-4.9-0.5c-2.4,0.2-6.8,1.1-8.7,2.3v5c1.7,0.1,3-1.8,7.7-2.3c2.3-0.1,2.4,0.1,3.4,0.5C674.4,167.4,673.5,167.7,675.2,168.6L675.2,168.6z"/><path fill="#FEFEFE" d="M721.3,176.4c1.7-1.4,2.6-1.8,5-1.2c0.8,0.1,1,0.4,1.3,0.8c1.3,1.3,2,4.9,0.6,6.8c-0.8,1-0.6,1.3-2.4,1.9c-1.4,0.5-2.6,0-3.8-0.4c-1.2-0.5-0.8-1.8-0.8-3.5C721.3,179.4,721.3,177.8,721.3,176.4L721.3,176.4z M721.7,188.1c1.7,0.1,1.3,1.4,5.3,1.2c1.3,0,3.8-0.6,4.8-1.3c2.6-2,3.8-5,3.6-8.6c0-2.9-0.8-4.9-2.6-6.6c-1.8-1.8-3.8-2.4-6.8-2.4c-2.6,0-3.2,1.6-4.3,1.6c-0.2-0.1-0.2-0.4-0.2-0.6l-0.2-0.5c0,0,0,0,0-0.1c-0.6,0-4.7-0.1-4.9,0.1c-0.5,0.5-0.2,21-0.2,24.6c0,3-0.8,2.4,3.8,2.4c1.1,0,1.3,0.2,1.8-0.2C721.8,197.1,721.7,189.8,721.7,188.1L721.7,188.1z"/><path fill="#FEFEFE" d="M618.2,188.7c0.8,0.1,15.9,0.1,17.4,0v-4.2c-2.9-0.1-6.5,0-9.3,0c-2.3,0-2.4,0-2.4-2.3c0-1.6,0-3.1,0-4.8l11-0.5v-4.2c-2-0.4-8.3,0.5-10.8-0.1v-5.9c2.6-0.4,9.8,0.2,11.4-0.1v-4.2c-1.3-0.2-15.9-0.2-17.4,0C618.2,165.6,617.8,188,618.2,188.7L618.2,188.7z"/><path fill="#FEFEFE" d="M808.4,177.3c0-1.3,0.1-1.9,1.4-2.3c3.4-0.8,6,0.6,6,4.2c0,2.9-0.1,4-2.3,5c-2.1,0.9-3.4,0.6-5.3-0.6L808.4,177.3L808.4,177.3z M808.4,188c1.2,0,5,3.1,9.6,0.1c0.4-0.1,1.2-1.1,1.8-1.4c0.1-0.1,0.1-0.1,0.4-0.5c1.2-1.2,1.9-4.3,1.9-6.4c0-5.6-3.4-9.6-9.1-9.6c-3.5,0-3.5,1.4-4.7,1.7c-0.4-0.5-0.4-0.6-0.6-1.2h-5.3v27.2c1.2,0,4.4,0.4,5.3-0.2L808.4,188L808.4,188z"/><path fill="#FEFEFE" d="M754.5,94.4c-0.2,1.3,0.6,1.6,1.3,4c0.5,1.4,0.8,2.4,1.1,4.1c0.8,7.3,0.4,12.1-0.5,19.3c-0.1,1.3-1,3.2,0.6,4c0.6,0.5,1.2,0.6,1.9,0.8c4.9,0.6,4.2-2.4,4.8-8.3c0.4-3.1,0.4-6.6,0.4-9.9c0-4.1-0.4-10.4-1.3-14.1c-0.2-0.6-0.5-1.2-0.6-1.9c-0.2-0.8-0.5-1.1-0.8-1.7c-1.2,0-2.6,1.1-3.6,1.7L754.5,94.4L754.5,94.4z"/><path fill="#FEFEFE" d="M640.7,188.7c1,0.4,5.5,0.1,6.6,0c0.4-5-0.4-18.6,0.2-21.6c1.8-0.1,9.6,0.1,10.3-0.1c0.4-0.6,0.2-3.6,0.2-4.7c-0.8-0.1-16.3-0.1-17.1,0L640.7,188.7L640.7,188.7z"/><path fill="#FEFEFE" d="M793.8,178.2c-1.4,0.1-3.6,0-5.3,0c-1.1,0-3,0.1-0.6-2.9c0.5-0.6,0.8-0.8,1.7-1.1c0.8-0.1,1.8-0.1,2.4,0.2C793.1,174.9,793.9,176.7,793.8,178.2L793.8,178.2z M798.9,183.8c-1,0.1-4,2.5-8,1.8c-0.6-0.1-0.8-0.4-1.2-0.6c-1.4-0.6-1.6-0.5-2.3-2c-0.4-0.8-1.1-0.6-0.6-1.6c0.1-0.6,0.1-0.4,1.2-0.4h9.8c1.2,0,2.3,0.4,1.9-1.1c-0.1-1.9-0.4-3.4-1.4-4.9c-1.8-3.5-4.4-4.7-8.3-4.7c-1.2,0-2.3,0.2-3.1,0.5c-1.6,0.4-4.2,2.5-4.9,4.3s-1.1,3-0.8,5.6c0.1,2.6,1.3,5.6,3.6,7.1l0.2,0.1c1.8,1.2,4.8,1.4,7,1.2c2,0,3.6-0.6,5.3-1.2c0.6-0.1,1.6-0.6,1.8-1.4v-2.9C798.9,183.9,798.9,183.9,798.9,183.8L798.9,183.8L798.9,183.8z"/><path fill="#FEFEFE" d="M743.6,178.2c-0.2-1.1,0.4-2.3,1-2.9c2.5-2.4,6.2-0.1,6,2.9H743.6L743.6,178.2z M754.7,183.8c-0.2,1,0,0.1-0.8,0.8c-1.2,0.8,0,0.1-1.3,0.6c-0.8,0.1-0.2,0.1-0.8,0.4c-1.1,0.5-3.2,0.2-4.4,0.2c-1.2,0-1-0.2-1.8-0.6c-0.6-0.1-0.5,0-0.8-0.5l-0.5-0.4c-0.4-0.5-0.6-0.8-1-1.4c-0.2-0.4-0.5-0.8-0.2-1.4c0.2-0.6,0.2-0.1,0.2-0.4c0.6-0.5,10.2,0,12.6-0.1c0.2-0.6-0.2-1.8,0-2.9c-0.4-3.1-3.4-6.6-6.2-7.2c-1.3-0.1-2.5-0.4-4-0.1c-2.4,0.1-4.7,1.2-6,2.9c-1.7,1.8-2.3,4-2.3,6.6c0,1.3,0.1,2.8,0.6,3.8c0.6,1.2,0.6,1.6,1.7,2.8c3.1,3.8,9.8,3.5,13.8,1.8c1.7-0.6,2.3-1.1,2.3-2.3c0-0.5,0-2,0-2.3C755.7,183.3,755.1,183.1,754.7,183.8L754.7,183.8z"/><path fill="#FEFEFE" d="M764.4,188.7c0.2-0.8,0-4.2,0-5.4s-0.2-1.8,0.8-1.9h5.8c1.4,0.1,0.1,4.4,0.8,7.6h4.9v-15.9c0-2,0.8-1.4-4.9-1.6c-0.4,1.8,0.1,5.5-0.4,6.8c-0.8,0.1-6,0.1-6.8,0c-0.8-1.4,0-4.8-0.5-6.8h-5c0,5.3-0.1,12.6,0,17.4C760.7,188.9,763.7,188.9,764.4,188.7L764.4,188.7z"/><path fill="#FEFEFE" d="M703.2,188.7h4.8v-12.9c0-1.2,0-0.6,0.6-1.3h5.3c0-0.6,0-1.2,0-1.7c0-0.6,0.2-1.3-0.4-1.3c-0.2,0-0.2,0-0.5,0h-15v3.1c6.5,0.4,5.6-2,5.6,7.2C703.2,183.3,702.9,187,703.2,188.7L703.2,188.7z"/></g><rect y="252" fill="#7A4420" width="480" height="252"/><rect x="480" y="252" fill="#BF2E1A" width="480" height="252"/><g><g><path fill="#FFFFFF" d="M651.4,368.3c0,0,0.3-4.8-6.1-5.1h-6.2v11.1h5.3C644.4,374.3,651.4,374.3,651.4,368.3z"/><path fill="#FFFFFF" d="M647.3,381.2h-8.1V393h8.1c0,0,8.1,0.4,8.1-6.2C655.3,386.8,655.7,381.2,647.3,381.2z"/><path fill="#FFFFFF" d="M614.7,348v60h63.6v-60H614.7z M663.4,387.4c0,12.1-14.5,12.1-14.5,12.1h-17.4v-43h15.2c13.7,1.2,12.8,11.5,12.8,11.5c0,6.3-5.6,8.7-5.6,8.7C663.6,379,663.4,387.4,663.4,387.4z"/></g><g><path fill="#FFFFFF" d="M724.9,368.3c0,0,0.3-4.8-6.1-5.1h-6.2v11.1h5.3C717.9,374.3,724.9,374.3,724.9,368.3z"/><path fill="#FFFFFF" d="M720.8,381.2h-8.1V393h8.1c0,0,8.1,0.4,8.1-6.2C728.8,386.8,729,381.2,720.8,381.2z"/><path fill="#FFFFFF" d="M688.2,348v60h63.6v-60H688.2z M736.7,387.4c0,12.1-14.6,12.1-14.6,12.1h-17.4v-43H720c13.7,1.2,12.8,11.5,12.8,11.5c0,6.3-5.6,8.7-5.6,8.7C737.1,379,736.7,387.4,736.7,387.4z"/></g><path fill="#FFFFFF" d="M761.7,348v60h63.6v-60H761.7z M812.7,396.2c0,0-13,7.8-28.2,1.8c0,0-12.8-4.6-13.2-19.9c0,0-0.6-15.8,16.5-20.9c0,0,4.5-1.8,12.8-0.9c0,0,4.9,0.4,12,3.4v8c0,0-7.8-4.8-16.4-5c0,0-16-0.3-16.8,15.3c0,0-0.6,14.4,16.5,15.3c0,0,7.2,0.9,17-5.4L812.7,396.2L812.7,396.2z"/></g><g><path fill="#CCCCCC" d="M230.8,369.2c1.1-0.3,15.6-0.2,17.1,0c1.2,0.1,2.1,0.9,2.7,1.6c0.4,0.5,1.2,2.3,1.2,3.1c0,2.1,0.3,2.3-0.8,3.8s-0.9,1.1-2.3,2.1c-0.3,2.3,2.3,4.5,2.4,6.4c-0.8,0.3-2.3,0.3-3.2,0.3c-1.2,0-1.5,0-1.9-0.8c-0.2-0.3-0.2-0.1-0.2-0.4l-2.1-4.8c-1.4-0.2-8.4-0.3-9,0.1c-0.3,0.5,0,3.3-0.2,4.5c0,0.4,0,1.1-0.3,1.2c-0.5,0.1-3.3,0.1-3.8,0c-0.5-0.8-0.2-7.2-0.2-8.5C230.7,375.9,230.4,370.3,230.8,369.2L230.8,369.2z M257.3,386.4c-0.3-2-0.3-16.2,0.2-17.6c1-0.1,14.5-0.1,16.6,0c1.2,0,2.4,0.3,3.3,0.9c1.7,1.2,1.2,1.3,1.7,2.4c0.4,1.1,0.4,2.1,0,3.3c-0.9,2.3-1.4,1.5-2,2.1c0.1,0.8,0.8,0.8,1.2,1c0.4,0.3,0.1,0,0.3,0.8c0.9,2.6,1,2,0.3,3.9c-0.1,0.4-0.3,1-0.8,1.5c-0.3,0.8-0.8,0.4-1.2,0.9c-1.2,0.8-1.5,0.8-3.3,0.9C272,386.6,258.6,386.8,257.3,386.4L257.3,386.4z M204.5,369.2c4.9-0.2,13-0.2,18.3,0c1.7,0,2.4-0.2,2.4,0.4c0.2,0.8,0.2,2.3-0.2,2.9c-0.8,0.9-15.3-0.3-16.5,0.3l-0.2,2.8c1.5,0.3,5.6,0.2,7.3,0.2c2.4,0,4.8,0,7.2,0c0.1,0.8,0.4,2.8-0.2,3.3c-0.9,0.5-12.9-0.3-14.3,0.3c-0.1,0.5-0.1,1.1-0.1,1.7l0.1,1c0.2,0.2,0,0.2,0.2,0.3c1,0.5,15.6-0.3,16.6,0.3c0.3,0.3,0.2,0.1,0.3,0.8c0,0.1,0,0.7,0,1c0,0.8,0,1.2-0.2,1.9c-1.7,0.3-20.7,0.3-21.5,0c-0.4-0.9-0.1-7-0.1-8.5C204.3,375.9,204.2,370.2,204.5,369.2L204.5,369.2z M300,380c-3.9-0.5-8.1-0.3-11.8-0.9c-2.3-0.3-3.2-1-4.1-2.3c-1.2-1.3-0.9-3.6,0.2-4.8c1.2-1.7,4.5-3.2,6.4-3.2c2-0.1,2-0.3,2.6-0.4c2.3-0.2,4.6,0.8,5.5,0.8c1.6,0,3.6,0.8,4.8,1.3c0,0.9-0.1,1.1-0.4,1.7c-0.3,0.8-0.3,0.9-0.5,1.5c-1.2,0.1-3.9-1.4-8.1-1.4c-2.8,0-3.8,0-6,1c-0.8,0.3-0.9,0.8-0.8,1.5c0.9,0.9,4.1,0.8,5.9,0.9c2.3,0.3,6.9,0,8.5,1c2.5,1.5,3.5,4.7,2,6.8c-2,2.4-3.9,2.7-6.8,3.3c-0.9,0.2-0.8,0.3-1.4,0.3c-0.4,0-1,0.1-1.3,0.1c-2.1,0.1-4.1-0.1-6-0.4c-0.8-0.2-0.9-0.3-1.2-0.3c-0.8-0.1-0.9,0-1.5-0.1c-0.3-0.2-0.8-0.5-1-0.8c-0.3-0.2-0.8-0.3-0.9-0.5c0.2-0.9,0.3-1,0.8-1.5c0.9-1.5-0.1-2.1,2.7-0.9c1.6,0.8,3.9,0.8,4.5,0.9c0.8,0.2,1.4,0.3,2.3,0.3s1.4-0.3,2.4-0.3c1.1,0,1.4-0.1,2.1-0.4C299.5,382.2,300.6,381.8,300,380L300,380z M179.4,374.4l-1.5-2.9c-0.9-1.5-1.2-1.6-1-2.4c0.8-0.3,2.3-0.2,3.1-0.2c1.6,0,1.4,0,2,1.2c0.1,0.3,0.4,0.5,0.8,1c0.1,0.3,0.3,0.8,0.4,1c0.4,0.9,4.8,9.8,5.1,10.4c0.8,0,0.4-0.2,0.9-0.9c0.1-0.3,0.3-0.8,0.4-1c0.3-0.5,2.4-5,3.3-6.1c0.4-0.8,0.4-1.4,1.1-2.3c1.9-2.9,0.9-3.2,3.1-3.2c1.1,0,2.1,0,3.2,0c0,0.8-0.2,1-0.5,1.3c-0.3,0.5-0.3,0.8-0.5,1.2c-0.3,0.9-0.9,1.5-1.2,2.4l-2.6,4.6c-0.8,1.2-2.3,4.5-3.1,6c-0.2,0.3-0.5,0.9-0.8,1.1c-0.5,0.8-2,0.4-3.2,0.4c-2.1,0-2.5,0.2-3.1-0.9l-4.9-9.4c-0.3-0.8-0.3-0.8-0.5-1.4C179.5,374.4,179.5,374.7,179.4,374.4L179.4,374.4z M310.2,344.1c0.8-0.1,3.8-0.3,4,0c0.3,0.3,0.2,3.6,0.2,4.4v7c0,0.3,0,0.8,0,1.2s0,0.8,0.1,1c0.8,0.3,8.3,0.2,9.8,0.2s3.3,0,4.8,0c0.9,0,0.8,0.8,0.8,1.5c0,0.9,0,1.3-0.1,2.1c-2.4,0.5-6.5,0.2-9.3,0.2c-3.2,0-6.3,0.1-9.5,0.1c-0.9,0-1.2-0.1-1.2-1.2c0-0.8,0-1.5,0-2.4C310,354.8,309.8,346.5,310.2,344.1L310.2,344.1z M280.8,361.3c0-1.5,4.4-8.4,5.1-9.8l4-7.2c0.5-0.5,2.3-0.2,3.3-0.3c1.4-0.1,2.3-0.4,2.9,0.5c1,2,3.1,5.7,4,7l4,7.2c0.8,1.4,1,1.5,1.2,2.5h-4.5l-1.5-2.8c-0.9-1-2.3-0.5-3.8-0.5c-1.5-0.1-2.8,0-4.5,0c-1.3,0-3.3-0.1-4.5,0l-2.1,3.5C284,361.5,282,361.5,280.8,361.3L280.8,361.3z M228.2,361.2c0-0.8,0.4-1,1.1-2.4c0.3-1,0.9-1.3,1.2-2.1c1.1-2,0.4-1.4,1.7-3.3c0.2-0.3,0.3-0.8,0.5-1.1c0.9-1.5,1.6-2.7,2.4-4.3c0.3-0.8,0.9-1.7,1.2-2.1s1-1.6,1.2-2.1h5.7l7.3,12.9c1.2,2.7,2.1,3.2,2.3,4.5h-4.3c-0.4-0.9-1.1-1.5-1.5-2.4c-0.9-1.2-0.9-1-2.7-1h-6.3c-2.6,0-3.6-0.5-4.5,1c-0.8,1.2-0.3,0.9-1.3,2.4C231.6,361.5,228.9,361.5,228.2,361.2L228.2,361.2z M176.1,361.3c-0.3-2.3-0.1-11.1-0.1-14.1c0-0.9-0.3-2.7,0.3-3.2c0.3-0.1,2.9-0.1,3.5,0c1,0.2,0.4,2.1,0.4,2.9c0,1.2,0,2.3,0.1,3.5h12.3c0.9-1.2-0.3-5.3,0.5-6.2c0.5-0.4,3.3-0.3,3.9-0.1c0.2,0.9,0.2,16.3,0,17c-0.9,0.3-3.2,0.3-4.1,0c-0.4-1.1,0-5.1-0.1-6.8c-1.1-0.5-5.1-0.3-6.5-0.3c-2,0-5-0.1-6.5,0.3c0,2.1,0.3,4.9,0,6.9C179.3,361.5,177.1,361.7,176.1,361.3L176.1,361.3z M203.1,344.3c1.1-0.3,16.2-0.3,17.6,0c0.9,0.2,2.1,1.2,2.5,2c0.9,1.3,1.7,3.6,0.9,5.1c-0.4,1.4-0.2,2.1-2.8,3.8c-0.2,1.2,1.2,2.7,2.1,4.8c0.4,1.4,0.4,0.8,0.8,1.5h-4.3c-0.5-0.4-1.3-2.3-1.7-2.8c-0.3-1.2-1.1-2-1.5-2.8c-1.5,0-7.8-0.3-8.7,0.1c0,0.1,0,0-0.2,0.3c-0.1,0.8,0,4.1,0,5.3c-0.8,0.5-3.4,0.3-4.5,0.2C202.8,359.8,202.8,344.8,203.1,344.3L203.1,344.3z M154.2,361.5c-0.9,0.3-2,0.2-2.7,0.2c-2.1,0-1.5,0.3-1.5-6.8c0-2,0-9.6,0.1-10.8c3.9-0.3,8.6,0,12.8,0c2.1,0,3.9-0.1,5.7,0.8c3.4,1.7,3.9,5.9,2.1,8.4c-2.9,4.3-12.2,1.2-16.2,2.5C154.2,357.2,154.6,360.8,154.2,361.5L154.2,361.5z M256.8,359.8c0-0.8,0.5-1.2,0.8-1.9c0.9-2.6,0.5-1.4,2.4-0.9c0.5,0.2,1.2,0.3,2,0.5c2.4,0.8,10.6,1.4,11.7-1.4c1.4-3.6-12.3-0.4-15.1-3.6l-0.8-0.5c-0.3-0.1-0.3-0.1-0.5-0.5c-2.1-3.9,2-5.8,3.9-6.9c2.5-1.4,7.3-1,10.5-0.9l5.7,1.5c0,0.9-0.3,1.2-0.4,1.9c-0.2,0.9,0,0.5-0.2,1.1l-0.3,0.4c-0.2,0.2-0.2,0.2-0.2,0.3c-1,0-2.4-1.1-3.8-1.1c-1.5-0.1-2.5-0.8-4.3-0.4c-1.4,0.1-2.7,0.4-4,0.4c-1.4,0.2-2.9,0.3-2.7,2c1,1.2,3.9,1,5.7,1c3.8,0,5.1-0.1,8.7,1.1c2.6,0.9,3.3,4,2,6.4c-1,2-4.4,3.2-6.5,3.5c-3.9,0.5-4.5,0.5-8.5-0.3C260.4,361.2,257.5,360.9,256.8,359.8L256.8,359.8z M240.2,324.3c-1.7,0.2-3.9,3.5-4.8,4.8l-1.6,3.2l-1.1,1.3c-0.4,0.3-1.5,0.2-1.5-0.4l2.6-4.7c0.3-0.4,0.3-0.3,0.4-0.8c0.2-0.3,0.2-0.4,0.3-0.8c0.4-1,1.2-2.1,1.6-2.8c0.8-1.1,1.2-2,2-2.9c0.8-1,1.2-2,2-2.8c1.9-2.9,1.5-2.3,2.8-4c0.8-1.1,2.9-2.6,3.8-3.5c1.5-1.4,4.4-2.7,7.2-2.4c4.6,0.5,4,5,3.5,5.5c-0.9-0.3,0-1.3-2.1-2.7c-2.4-1.5-5.1-0.9-7.5,0.3c-1.3,0.8-4.3,3.3-4.9,4.4c-1.2,1.6-4.8,7.5-4.9,9c0.8,0,1.2-0.8,2.5-1.5c0.5-0.3,2.3-1.4,2.7-0.9c0.4,0.5-0.2,1.2-0.5,1.7c-1.7,2.7-1.3,2.3-2.7,5.1c-0.8,1.3-1.3,3.2,0.2,3.8c1.2,0.5,2.8-0.9,3.6-1.3l2.7-2.4c0.3-0.5,0.5-1.2,0.9-1.7c0.8-1,2.7-3.6,3.8-4c1.2-0.8,2.7-1,3.9-0.3c0.2,1.5-0.8,3.2-2.1,3.9c-0.8,0.3-1.3,0.4-2.1,0.9c-1,0.5-2.1,0.5-2.3,0.8c-0.5,1-0.9,3.5,0.2,4.4c1.1,0.9,3.3,0,4.1-0.5c1-0.8,2.1-1.5,3.1-2.3c1.7-1.4,1.7-2.4,2.7-2.4c0,1-0.5,1.2-1,2c-0.5,0.5-0.9,1-1.4,1.5c-0.4,0.5-1,0.9-1.6,1.2c-2.1,1.3-3.6,2.4-6.5,2.3c-1.7,0-2.3-0.8-2.3-2.1c0-0.3,0-0.9-0.2-1.3c-0.4,0.1-0.3,0.3-0.9,0.9c-1,0.9-3.9,2.9-5.3,3.2c-0.9,0.1-2.1,0-2.5-0.8c-0.5-1-0.3-1.5,0-2.5l2.1-4.5C239.7,326,240.3,325.3,240.2,324.3L240.2,324.3z M221.4,311.3c4.7-0.2,9.6-0.2,14.4,0c1.3,0,2.1,0,3.3-0.3c0.3,0,1.4-0.2,1.5-0.2c0.9-0.3-0.3-0.1,1.2-0.5c1.7-0.3,2.3-1.3,2.5-2.1c0.3-0.5,0.2,0,0.3-0.5c0.2-0.8-0.2-0.9,0.3-1.3c0.8,0,1.5,1.3,1.5,2.1c0,0.5-0.9,2-1.4,2.3c-1.5,1-3.4,1.2-5.7,1.4c-3.9,0.1-3.6-0.8-5.3,1.6c-1.2,1.5-4.3,6.5-5.3,8.5c-0.9,1.4-1.5,2.9-2.6,4.5c-0.4,0.9-2.1,3.5-2.3,4.8c-0.1,1.9,1.7,2.1,3.5,2.1c0.8,0,1-0.1,1.2,0.3c-0.8,0.8-3.8,0.3-4.8,0.3c-1.3,0-3.3-0.2-3.3-2c0-1.2,2.9-5.7,3.6-6.9c0.4-1,7.5-12.3,7.5-13.2c-2.7-0.8-8.3,0.1-10.5,1.2c-1.7,0.8-3.5,3.3-4.4,4.8c-0.3,0.8-0.3,1.6-1,1.6c-0.3-1.2,1.3-3.9,2-5c0.3-0.9,1-1.2,1.5-1.9C221.1,311.3,220.7,312.3,221.4,311.3L221.4,311.3z M189.3,397.7c3.8,0.1,8,0,11.7,0h81.9c1.9,0,3.9,0,5.8,0c2.3,0,1.5-1.4,2.8-2.9c0.8-0.9,2.3-1.9,3.6-2.4c1.6-0.5,3.1-0.8,5.1-0.8c7.8,0,15.4,0,23.3,0c2.5,0,12.6,0.3,14.4-0.2c0.8-0.2,2.9-1.5,3.6-2.4c2.7-4,3.6-4.6,3.6-10.9c0-5-0.3-8.6,1.7-12.9c0.3-0.8,1-1.3,1.2-1.6c0.3-0.8-0.4-1.2-0.9-1.7c-1-1.6-1.7-5-2-6.9c-0.2-3.5,0-8,0-11.7c0-1.5,0.2-4-0.5-5.3c-0.5-1-0.5-2.1-2-3.9c-3.6-5.1-6.4-4.5-13.2-4.5c-3.9,0-7.8,0.1-11.6,0.1h-29.3c-5.3,0-2.8,0.3-8.1-0.8c-0.8-0.1-1.3-0.8-2-1c-2.1-1.4-1.3-0.8-2.8-2.9c-1.4-2-0.8-8.3-0.8-11c0-1.6-0.2-3.8-0.5-5.3c-0.3-1.6-1.2-2.5-2.3-3.6c-1.3-1.5-3.3-2.7-5.3-3.5c-2.1-0.8-1.2-0.1-2.3-0.8c-1.2-0.8-8-2-9.8-2c-6,0-9.2,0.5-13-4.5c-0.3-0.4-0.8-1.2-1.2-1.6c-0.9-1.2-0.8-1.4-1-1.6c-0.8,0.1-0.5,0-0.9,0.8l-1.5,2.5c-1.6,2.5-3.4,3.5-6.3,4.6c-1,0.3-3.9,0.2-5.1,0.2c-0.8,0-5.8,0.3-6.3,0.8c-1.3,0.4-4,0.1-9.4,2.7c-1.2,0.5-3.6,2.7-4.3,3.9c-0.2,0.5-0.2,0.8-0.3,1c-0.5,1-0.8,0.8-1.1,2.9c-0.3,3.4-0.2,7.3-0.2,10.8c0,2.4-0.2,2.7-1.3,4.4c-0.4,0.4-0.8,1-1.3,1.5c-3.9,2.5-5.8,2.4-11.1,2.4c-7.4,0-14.5,0.1-21.8,0.1c-7.2,0-14.3,0-21.4-0.1c-1.1,0-4.1-0.3-5.1,0.3c-0.4,0.3-0.3,0.2-1.1,0.3c-0.4,0-0.4,0.1-0.9,0.4c-3.6,2.4-1,0.9-2.9,2.6c-0.8,0.4-0.4,1-1,1.6c-0.5,0.8-0.5,1.2-0.9,2c-0.8,0.9-0.5,0.9-0.5,2.1c-0.1,1.1-0.3,0.2-0.3,2.4c0,0.9,0,1.9,0,2.7V355c0,3.9-0.3,2.5-0.8,3.6c-0.1,0.3,0,0.9,0,1.2c-0.5,0.5-0.3,0-0.5,1c-0.1,0.5-0.1,0.8-0.3,1.1c-1.2,2.5-1.2,1.5,0,3.9c0.3,0.8,0.4,1.4,0.9,2.1c0.5,1.6,0.9,2.8,0.9,4.9c0,2.3-0.3,9.8,0.5,11.1c0.4,0.7,0.4,1.2,0.9,2.1c0.5,0.9,2.9,4.1,3.9,4.6c1.6,1.1,2.3,1.4,4.5,1.4c2,0,3.8,0,5.7,0c7.5,0,15.6-0.3,23.3,0c1.9,0,3.9,0,5.9,0c3.1-0.1,3.1,0.3,3.8,0.3c1.2,0.2,3.9,1.3,4.8,2.3C187.6,394.7,189.1,396.8,189.3,397.7L189.3,397.7z"/><path d="M214.7,414.2l-0.2,0.8h-1.7c0-1.2,1.7-3.5,2.1-4.1l2.1-3.9c0.3-0.4,1.3-0.4,2.1-0.3c0.8,0,1,0.2,1.3,0.8c0.4,0.9,1.1,1.7,1.5,2.6l2.1,3.8c0.3,0.4,0.8,0.8,0.8,1.4c-0.8,0.3-1.2,0.1-2,0.1c-1.3-2.1-0.8-1.5-3.6-1.6c-0.9,0-1.7,0-2.6,0C215,413.4,215.7,413.6,214.7,414.2L214.7,414.2z M255.2,414.8h-1.7c-0.2-0.9-0.3-7.9,0-8.3c0,0,1.7-0.8,2,0.4L255.2,414.8L255.2,414.8z M250.5,415.3c-0.5,0.2-1.5,0.2-2.1-0.1c-0.3-0.9,0-2.1-0.2-3.1c-0.9-0.3-4.8-0.3-6,0c-0.5,1.5,0.9,3.6-2,3.1c-0.8-0.1-0.3,0-0.4-0.1c-0.3-0.3-0.2-4.7-0.2-5.6c0-1.2-0.5-3.4,2-2.8c1.3,0.3,0.1,2.4,0.8,2.8l0.1,0.2c0.8,0.2,4.4,0.3,5.1,0.2c1.6-0.3-0.2-2.7,1.2-3.3c1.5-0.4,1.9,0.3,1.9,1.5C250.8,408.9,250.7,414.8,250.5,415.3L250.5,415.3z M260.3,415.3l-1.7-0.1c-0.3-0.9-0.4-7.5-0.1-8.6c2.3-0.4,2.7,0.8,3.5,1.5c0.9,0.9,2.1,1.7,3.6,3.4c0.3,0.3,0.3,0.4,1.1,0.8c0.1-1.5-0.2-4.4,0.1-5.3c0.5-0.1,1.2-0.1,2-0.1c0.1,1.2,0.8,8.1-0.3,8.5c-1.6,0.8-2.7-1.2-4-2.3l-2-1.5c-0.8-0.4-1-1.3-2.1-1.5V415.3L260.3,415.3z M204.8,415.1h-2.3c-0.8-1.9-0.5-1.4-1.3-2.9c-0.8-1-0.8-2.4-1.7-2.8c0,1.9,0.5,5.7-0.5,6c-2.1,0.4-1.6-0.9-1.6-3.3l0.1-5.6c0.8-0.2,2.3-0.2,2.9,0c1.2,0.2,1,0.9,1.5,1.7c0.8,1,1.5,3.9,2.1,4.3c0.8-0.3,0.5-1.3,1.5-2.8c0.8-1.2,0.9-2,1.5-2.9c0.9,0,3.2-0.4,3.5,0.3c0.2,0.8,0.2,7.3,0,8.1c-0.5,0.2-1.3,0.2-2.1,0c-0.2-1.2,0.3-4.9-0.3-5.8C206.8,409.8,205.5,413.8,204.8,415.1L204.8,415.1z M236,411.9c0.3,0.1,0.1,0.1,0.4,0.3c0.2,0.2,0.3,0.2,0.8,0.3c0,1.2-1.1,1.6-2.1,2.3c-2.3,1-9,0.4-9-4.1c0-2.5,2.3-3.9,4.7-4.5c1.7-0.3,4.5,0.2,5.6,1.1c0.4,0.3,1,0.8,1.2,1.2c-0.3,0.5-1.2,1.2-2.1,0.9c-0.5-0.2-0.3-0.9-2.1-1.1c-1.9-0.3-4.1,0.1-4.7,1.5c-1,2.7,2.7,4.4,5.3,3.1C235,412.7,235.2,412.1,236,411.9L236,411.9z M281.8,408.6h-8.1v1.2c1.5,0.1,6.5-0.2,7.3,0.3c0.3,2.9-2.3,1.2-7.3,1.7c-0.2,1.2-0.2,1.5,1,1.5c1.4,0,6.9-0.3,7.2,0.2c0.3,0.4,0.3,1.2,0.2,1.9c-1.2,0.2-9.9,0.2-10.8,0c-0.1-1-0.3-7.8,0-8.4c0.3-0.3,8.7-0.3,9.8-0.1C282.8,406.5,282.3,408,281.8,408.6L281.8,408.6z M189.3,397.7c-0.3-0.9-1.6-2.9-2.3-3.5c-0.9-0.9-3.4-2.1-4.8-2.3c-0.8,0-0.8-0.4-3.8-0.3c-2,0-3.9,0-5.9,0c-7.5-0.3-15.4,0.1-23.3,0c-1.9,0-3.8,0-5.7,0c-2.3,0-2.7-0.3-4.5-1.4c-1.1-0.8-3.5-3.8-3.9-4.6c-0.3-0.9-0.3-1.4-0.9-2.1c-0.9-1.4-0.4-9-0.4-11.1c0-2.1-0.2-3.3-0.9-4.9c-0.1-0.8-0.3-1.4-0.9-2.1c-1.4-2.4-1.2-1.3,0-3.9c0.1-0.5,0.1-0.5,0.3-1.1c0.1-0.9,0-0.3,0.4-1c0-0.3,0-0.9,0-1.2c0.3-0.9,0.5,0.5,0.8-3.6v-10.8c0-0.9,0-2,0-2.7c0-2.3,0.1-1.3,0.3-2.4c0.1-1.2-0.2-1.3,0.4-2.1c0.5-0.5,0.5-1.2,0.9-2c0.5-0.9,0.3-1.2,1.1-1.6c1.9-1.7-0.8-0.2,2.9-2.6c0.3-0.1,0.4-0.3,0.9-0.4c0.8-0.2,0.4,0.1,1.1-0.3c1-0.8,4-0.3,5.1-0.3c7.1,0,14.3,0.2,21.5,0.2c7.3,0,14.5-0.2,21.8-0.2c5.2,0,7.2,0.2,11.1-2.4c0.5-0.3,0.9-0.9,1.4-1.5c1.2-1.5,1.3-2,1.3-4.4c0-3.5-0.1-7.3,0.2-10.8c0.3-2.3,0.4-2,1-2.8c0.2-0.3,0.2-0.5,0.3-1.1c0.8-1.2,3.2-3.4,4.4-3.9c5.3-2.5,8.1-2.3,9.4-2.7c0.4-0.2,5.7-0.8,6.3-0.8c1.2,0,4,0.2,5.1-0.2c3.2-1,4.7-2.1,6.3-4.6l1.5-2.5c0.3-0.8,0.2-0.5,0.9-0.8c0.3,0.3,0.2,0.4,1,1.6c0.3,0.5,0.8,1.2,1.2,1.7c3.9,5,7,4.5,13,4.5c2,0,8.5,1.2,9.8,2c1,0.4,0.2,0,2.3,0.8c2.1,0.8,3.9,1.9,5.3,3.4c1,1.1,2,2,2.3,3.6c0.3,1.5,0.5,3.8,0.5,5.3c0,2.7-0.8,9.1,0.8,11c1.5,2.3,1,1.5,2.8,2.8c0.5,0.3,1.2,0.9,2,1c5.1,1,2.7,0.8,8.1,0.8h29.3c3.9,0,7.8-0.1,11.5-0.1c6.5,0,9.6-0.8,13.2,4.5c1.3,1.9,1.3,3.1,1.9,3.9c0.8,1.2,0.5,3.8,0.5,5.3c0,3.8-0.1,8.3,0,11.7c0.2,2.1,0.9,5.1,2,6.9c0.3,0.8,1.2,1,0.9,1.6c-0.2,0.3-0.9,1.2-1.2,1.6c-2.1,4.1-1.7,8-1.7,12.9c0,6.2-0.9,6.9-3.6,10.9c-0.5,0.9-2.7,2.1-3.6,2.4c-1.9,0.5-11.8,0.2-14.4,0.2c-7.8,0-15.5,0-23.3,0c-2.1,0-3.3,0.2-5.1,0.8c-1.3,0.3-2.7,1.5-3.6,2.4c-1.4,1.5-0.8,2.8-2.9,2.8c-2,0-3.9,0-5.8,0h-81.9C197.3,397.7,193.3,397.8,189.3,397.7L189.3,397.7z M240.9,286.5c-1.1-0.2-1.9-0.2-2.4,0.5l-0.9,2c-0.3,1.9-1.9,4-3.2,5.5c-0.8,0.8-2.5,2-3.5,2.1c-1,0.2-1.3,0.3-2.4,0.3c-5.6,0-9.9,0.5-15,2c-0.9,0.3-3.3,1.2-3.9,1.5c-0.4,0.3-0.3,0.2-1,0.5c-0.3,0.2-0.5,0.3-0.9,0.5c-0.3,0.3-0.4,0.3-0.9,0.5c-0.9,0.4-2.7,2.8-3.3,3.8c-2.4,4-1.5,10.5-1.5,15.4c0,2.1-0.3,2.9-1.5,3.9c-2.3,1.9-2.4,1.2-3.8,1.9c-1.1,0.5-0.2,0.3-2.4,0.3h-14.3c-11.1,0-22.5-0.2-33.6-0.2c-5,0-5.3-0.4-9,2.4c-2.4,1.6-3.5,4-4.7,6.8c-0.4,1-1,3.4-0.8,4.6c0.2,0.8-0.1,11.7-0.1,13.8c0,2,0,1.4-0.4,2.3c0.8,1.1,0,1.2-0.3,2.3c-0.9,2.6-0.8,2.3-2.5,3.3c-0.8,0.3-0.8,1.3-0.1,2.1c1,0.5,1,0.2,1.6,1.1c1.2,1.5,1.6,3.8,2.1,5.8c0.1,1.2,0,3.9,0,5.3c0,5.1,0,8.3,3.1,12.6c2.3,3.3,2.7,2.6,4.5,4.1c0.1,0.1,0.1,0.1,0.3,0.3c0.3,0.3,0.5,0.2,1.1,0.2l0.1,0.4c1.4,0,2.7-0.1,4.4-0.1c1.5,0,3.1,0,4.6,0c3.1,0,6,0.4,9,0.1c5.9-0.4,12.1,0,18-0.3c1.4,0,3.3,0,4.5,0.2c1.1,0.1,0.8,0.3,1.9,0.4c0.8,0,1.1,0.3,1.5,0.8c2.1,1.5,2.6,3.2,3.2,6c0.8,4.1,0.8,8.7,0.8,13.1c0.1,4.8,1.3,5.8,4.9,8.7c0.4,0.3,0.9,0.8,1.3,1.1c0.5,0.4,0,0.1,0.8,0.3l2.6,1.1c1.5,0.8,2.7,0.9,3.4,1.2c1.7,0.8,3.6,0.9,5.6,1.4c1.3,0.3,2.6,0.3,3.8,0.8c2.4,0.8,10.2,1.1,12.8,1.1c2.8,0.2,6-0.2,8.3,0.9c0.3,0.1,0.4,0.1,0.9,0.3l1.7,1.5c5.1,6,2.3,8.1,6,7.5c0.8-1.2,0.8-2.5,1.3-3.8c1.2-2.3,2.4-4.3,4.7-5.7c1.5-0.9,1.7-1.1,3.9-1.1c6.5-0.1,12.8-0.3,18.9-1.3c1.1-0.2,3.5-0.4,4.4-0.9c0.9-0.3,2.7-0.4,4-0.9c3.8-1.4,7.2-2.6,9.9-5.3c1.9-1.9,2.5-3.4,2.5-6.1c0-1.1,0.1-0.2,0.1-0.9c0,0-0.1-1.9-0.1-2.3c0-1.1,0.1-1.3,0.3-2.3v-3.9c0-0.9,0.2-0.4,0.2-1.2c0-0.5-0.2-0.9,0-1.4l0.4-3.3c0.3-1.2,0.9-2.8,1.5-3.6c1.4-1.7,1.2-1.4,3.2-2c1.5-0.4,2.4-0.8,4.3-0.8h9.8c1.5,0.2,3.3,0.2,5,0.2c6.8,0,13.4,0,20,0.2c5.3,0,6.5-2.3,9.3-4.7c0.5-0.3,0.2-0.2,0.3-0.9c0.2-0.3,0.8-1,1.1-1.5c0.8-1,0.3-0.9,0.9-0.9c0.2,0,0.2,0,0.3,0c-0.3-0.4-0.8-0.8-0.1-1.5c0.5-0.8,0.1-0.8,0.3-1.5c0-0.5,0.3-0.9,0.3-1.4c0-0.4-0.2-0.9,0-1.5c0.3-1.6-0.2-1.5-0.2-3.1l0.3-7c1.4-6.2,3.2-4.5,3.3-5.7c0.5-2-0.8-1.6-1-2.1c-0.8-0.4-1.3-1.6-1.6-2.5c-1.7-4.3-0.5-14.4-0.9-19.5c-0.1-3.3-0.3-2.1-0.9-3.6c-0.2-0.3-0.2-0.8-0.3-1c-1.4-2.9-3.8-6.2-7.1-7.4c-2.1-0.8-2.8-0.8-5.3-0.5c-1.9,0-3.9,0-5.8,0c-3.9,0-7.8,0.2-11.6,0.2c-7.8,0-15.4,0-23.3,0c-1.9,0-3.9,0-5.8,0c-3.2,0.1-6.9-0.2-9.2-2.7c-1.3-1.5-1-2.4-1.2-4.6c-0.2-8,1.5-12.9-5.1-18.2c-3.9-3.3-12-4.8-18.3-4.8c-2,0-3.8,0-5.5-0.5c-1.5-0.5-2.4-1.5-3.5-2.4C242.7,292.2,242,288.9,240.9,286.5L240.9,286.5z"/><path fill="#CCCCCC" d="M240.9,286.5c1.1,2.5,1.9,5.8,4.1,7.5c1,0.9,1.9,2,3.4,2.4c1.7,0.4,3.6,0.3,5.6,0.4c6.3,0.2,14.4,1.7,18.3,4.8c6.5,5.3,4.8,10.3,5.1,18.1c0,2.4-0.1,3.1,1.2,4.6c2.1,2.6,6,2.7,9.2,2.7c2,0,3.9,0,5.8,0c7.8,0,15.5,0,23.3,0c3.9,0,7.8-0.1,11.5-0.1c2,0,3.9,0.1,5.9,0c2.3,0,3.3-0.2,5.3,0.4c3.3,1.2,5.7,4.7,7,7.4c0.2,0.3,0.2,0.8,0.3,1c0.4,1.5,0.4,0.3,0.9,3.6c0.3,5.1-0.9,15.3,0.9,19.5c0.3,0.9,1.1,2.1,1.7,2.5c0.5,0.3,1.7,0.2,1,2.1c-0.3,1.2-2.1-0.4-3.3,5.7l-0.3,7c0,1.5,0.5,1.4,0.1,3.2c-0.1,0.8,0,1,0,1.5s-0.3,0.9-0.3,1.3c-0.1,0.9,0.1,0.9-0.3,1.5c-0.5,0.8-0.2,1.1,0.1,1.5c-0.1,0.2-0.1,0-0.3,0c-0.5,0-0.2-0.1-0.9,0.9c-0.1,0.3-0.9,1.2-1,1.5c-0.3,0.8,0,0.3-0.3,0.9c-2.7,2.5-3.9,4.8-9.3,4.6c-6.5-0.1-13.2,0-20-0.1c-1.5,0-3.5,0-5-0.2h-9.8c-2,0-2.7,0.2-4.3,0.8c-2,0.8-1.7,0.3-3.2,1.9c-0.8,0.9-1.2,2.4-1.5,3.6l-0.5,3.3c-0.1,0.5,0,0.9,0,1.4c0,0.8-0.1,0.3-0.1,1.2v3.9c0,0.9-0.3,1.2-0.3,2.3c0,0.3,0.1,2.3,0.1,2.3c-0.1,0.8-0.3-0.2-0.1,0.9c0,2.7-0.8,4.4-2.6,6.1c-2.7,2.7-6.1,3.9-9.9,5.3c-1.2,0.5-3.3,0.5-4,0.9c-0.9,0.4-3.2,0.8-4.4,0.9c-6.1,1.2-12.3,1.3-18.9,1.3c-2.1,0-2.4,0.2-3.9,1.1c-2.3,1.2-3.4,3.4-4.6,5.7c-0.8,1.2-0.9,2.6-1.4,3.8c-3.8,0.4-0.9-1.5-6-7.5l-1.6-1.5c-0.3-0.2-0.5-0.3-0.9-0.3c-2.4-1.2-5.5-0.9-8.3-0.9c-2.5-0.2-10.3-0.3-12.8-1.1c-1.3-0.3-2.5-0.3-3.8-0.8c-1.9-0.4-3.8-0.4-5.5-1.3c-0.8-0.3-2-0.4-3.5-1.2l-2.5-1.1c-0.8-0.2-0.2,0-0.8-0.3c-0.3-0.3-0.9-0.8-1.3-1.1c-3.4-2.8-4.8-3.9-4.9-8.7c-0.2-4.4,0-9-0.8-13.1c-0.5-3.2-1.2-4.7-3.2-6c-0.4-0.3-0.9-0.8-1.5-0.8c-1-0.2-0.9-0.3-1.9-0.4c-1.2-0.1-3.1-0.1-4.5-0.1c-6,0.3-12.3-0.2-18,0.3c-2.9,0.2-5.9-0.1-9-0.1c-1.5,0-3.1,0-4.6,0s-2.9,0.1-4.4,0.1l-0.1-0.4c-0.8-0.2-0.8,0-1.1-0.2c0,0-0.1-0.2-0.3-0.3c-1.6-1.5-2.3-0.9-4.5-4.1c-3.1-4.3-3.1-7.2-3.1-12.6c0-1.4,0.1-4.1,0-5.3c-0.3-2.1-1-4.4-2.1-5.9c-0.8-0.9-0.8-0.5-1.6-1c-0.3-0.8-0.3-1.7,0.1-2.1c2-1,1.7-0.9,2.6-3.3c0.3-1,0.9-1.2,0.3-2.3c0.4-0.9,0.4-0.3,0.4-2.3c0-2.1,0.3-12.9,0.1-13.8c-0.3-1.2,0.2-3.6,0.8-4.7c1.2-2.5,2.3-4.8,4.7-6.8c3.8-2.8,4-2.4,9-2.4c11.1,0,22.5,0.1,33.6,0.1h14.3c2.3,0,1.3,0.2,2.4-0.3c1.3-0.8,1.7,0,3.8-2c1.2-1,1.5-2,1.5-3.9c0-4.8-0.9-11.4,1.5-15.5c0.4-0.9,2.4-3.3,3.3-3.8c0.3-0.1,0.4-0.3,0.9-0.5c0.3-0.3,0.3-0.3,0.9-0.4c0.8-0.3,0.4,0,1-0.5c0.8-0.5,3.2-1.4,3.9-1.5c4.9-1.5,9.6-2,15-2c1.2,0,1.3-0.2,2.4-0.3c1-0.2,2.7-1.4,3.5-2.1c1.3-1.3,2.7-3.6,3.1-5.5l0.9-2C239,286.3,239.8,286.3,240.9,286.5L240.9,286.5z M237.3,445.7c1.2,0,2.6,0,3.8,0c1.4,0,2.3,0.1,3.3-0.8c0.8-0.5,1.2-1.2,1.9-2.1c0.8-1.1,0.8-1.5,1.2-2.7l1.3-2.4c2.4-3.1,5.6-2.4,9.2-2.4c1.3,0,2.4,0,3.6-0.1c1.2-0.2,2.4-0.2,3.8-0.2c5.9-0.3,14.3-2.1,19.2-4.1c3.9-1.5,6.3-3.8,9-6.8c0.9-1.1,2.4-3.3,2.5-5.3l0.2-7.8l0.8-7.1c0.5-2.7,0.9-3.8,3.3-4.5c3.2-0.9,11.5-0.1,15.2-0.1c5.1,0,10.3,0,15.5,0c4,0.1,10.2,0.8,13.5-1.7c2.4-1.7,5.7-5.1,7-8.4c1-2.5,1.3-3.1,1.5-6.3c0.1-2.8-0.2-5.7,0-7.5c0.3-8.1,2.7-5.1,7.2-8.3c0.9-0.5,1.2-1.2,1.2-2.7s-0.8-1.9-1-2.8c-0.3-0.9-0.3-0.8-0.9-1c-1.2-0.9-1.5-0.8-2.6-1.2c-0.3-0.2-1-0.3-1.5-0.3c-1.3-0.2-2.1-0.2-2.3-1.7c-0.1-1.2,0.2-2.5,0-3.8c-0.9-5.8,1.1-13-0.9-18.6c-0.2-0.3-0.2-0.3-0.3-0.8c-0.1-0.5,0-0.5-0.2-0.9c-0.3-0.9-0.3,0.2-0.5-1.3c-0.3-0.2-0.9-0.8-1-1c-0.8-1.4-4.7-5.3-6-6.3l-0.5-0.3c-0.3-0.1,0,0-0.3-0.1c-3.5-2.1-8-1.4-12.2-1.4c-14.7,0-29.5,0.1-44.4,0c-1.2,0-2.1-0.1-2.9-0.8c-0.3-0.1-0.3-0.3-0.9-0.5l-0.1-10.9c0-2.1,0-1.7-0.3-3.6c-0.1-1-0.8-2-1-2.7c-0.1-0.4-0.1-0.3-0.5-0.9c-1.3-2-3.1-3.8-4.8-5.3c-0.9-0.8-3.5-2.4-4.6-2.9c-0.5-0.1-0.9-0.1-1.4-0.4c-0.8-0.3-0.9-0.3-1.5-0.5c-2.4-1-7-1.5-9.8-1.7c-4-0.3-8,1-10.7-2.5c-0.3-0.5-0.2-0.3-0.8-1.2l-0.3-0.9c-0.3-0.5-0.3-1.1-0.8-2c-0.3-0.5-0.4-0.8-0.8-1.2c-0.1-0.4-0.4-0.8-0.9-1c-0.5-0.5-1.2-1.5-2.3-1.5c-1.1,0-2.6,0-3.8,0c-1.5,0-2.3-0.3-3.2,0.8c-1.9,2.1-1.5,1.5-2.5,4c-0.5,1.4-1.2,3.2-2.4,4.1c-0.3,0.3-0.9,0.4-1.2,0.8c-2.6,1.3-7.4,0.4-10.5,1c-1.2,0.1-2.3,0.1-3.3,0.5c-0.8,0.1-0.9,0.1-1.5,0.3c-0.8,0-1.1,0.3-1.5,0.3c-2.3,0.3-7.1,2.5-9,4.3c-0.3,0.3-0.2,0.3-0.3,0.5c-0.4,0.8-2.7,2.1-3.9,4.5c-2.4,4.7-1.7,7.8-1.7,13.4c0,1.3,0.5,4-0.9,4.9c-0.5,0.3-0.5,0.5-1.2,0.5c-1,0-1,0.3-3.3,0.3l-11.4,0.2c-12.8,0.2-25.3,0-37.9,0c-1.6,0-3.9-0.2-5.3,0.9l-1,0.4c-2.7,2.3-5.7,4.8-7.2,8.1c-2.2,4.6-1.9,7.8-1.9,13.3c0,2.5,0,5,0,7.5c0,4.5-2.4,4.5-5.1,6.3c-2.8,2-1.6,1.5-2.5,2.1c-0.3,0.1-0.3,0.1-0.5,0.3c-0.3,0.3-0.4,0.9-0.4,1.4c-0.2,1.3,0.8,2,1.3,2.5c1.2,1.3,1.7,1.5,3.5,2.3c0.8,0.3,2,0.9,2.3,1.5c0.1,0.2,0.1,0.5,0.5,1.3c0.3,0.8,0.2,0.8,0.8,1.2c0.3,0.5,0.3,0.8,0.5,1.5c0.1,2.5-0.3,8.7,0.1,11c0.1,0.8,0.1,0.9,0.3,1.5c0.3,1.5,1.6,4.3,2.7,5.7c0.1,0.1,0.3,0.3,0.3,0.4c1,1.3,2.5,2.7,3.8,3.9c0.8,0.9,1.9,1.3,2.5,1.9c0.2,0.2,0,0,0.2,0.2c0.3,0.2,0,0,0.3,0.2c0.8,0.1,0.5,0.3,1.4,0.4c3.6,0.8,18.6,0.3,22.6,0.3c4.8,0,10.4-0.3,15.1-0.2c1.2,0,3.6,0.2,4.8,0.9c0.3,0.1,1.2,1.5,1.2,2.5c0.1,2,0.5,2.3,0.5,5.1l0.4,10.8c0,1.2,0.5,2.1,1.1,2.8c0.9,1.7,2.1,2.7,3.4,4.1l0.3,0.3c0.1,0.2,0,0,0.1,0.2l1.5,1.3c0.9,0.9,2.3,1.7,3.5,2.3c0.9,0.5,0.4,0.3,1.3,0.5c0.5,0.1,0.2,0.1,0.8,0.4c0.8,0.2,0.8,0.3,1.1,0.5c0.2,0.1,0.4,0,0.9,0.1c1.2,0.3,3.2,1.2,4.3,1.4c0.8,0.1,0.9,0,1.5,0.3c3.3,1.4,16.9,2.1,20.6,2.3c3.1,0,5.7,0,7.2,2.4c0.9,1.2,1.2,2.6,1.9,4.1c0.2,0.4,2.1,3.1,2.4,3.3s0.4,0.2,0.8,0.2C237.3,445.5,236.5,445.3,237.3,445.7L237.3,445.7z"/><path d="M261.6,382.5c-0.3-0.5-0.1-2-0.1-2.7c3.3-0.1,7.2-0.1,10.6-0.1c1.4,0,2.6-0.2,2.4,1.3c0,2-0.2,1.5-2.1,1.7c-1.2,0-2.6,0-3.8,0.1l-6.8-0.1C261.6,382.5,261.8,382.5,261.6,382.5L261.6,382.5z M261.6,372.9c1.4-0.2,11-0.5,12.3,0c1.2,0.4,1.2,2.1,0.4,2.8c-0.4,0.5-6.9,0.5-8.1,0.5C261.5,376.3,261,376.8,261.6,372.9L261.6,372.9z M257.3,386.4c1.2,0.1,14.7,0.1,16.7,0c1.6-0.2,2.1-0.2,3.3-0.9c0.5-0.3,0.9-0.2,1.2-0.9c0.1-0.3,0.3-1,0.8-1.5c0.8-1.9,0.4-1.3-0.3-3.9c-0.1-0.8,0-0.3-0.3-0.8c-0.5-0.3-1-0.3-1.2-1c0.5-0.5,1.1,0.1,2-2.1c0.5-1.2,0.8-2.3,0-3.3c-0.5-1,0-1.2-1.6-2.4c-0.9-0.4-2.1-0.9-3.3-0.9c-2.1,0-15.4,0-16.6,0C256.8,370.3,256.8,384.6,257.3,386.4L257.3,386.4z"/><path d="M204.5,369.2c-0.5,1-0.2,6.9-0.2,8.5c0,1.5-0.3,8,0.2,8.5c0.8,0.3,19.8,0.3,21.4,0c0.2-0.8,0.2-1.2,0.2-1.9c0-0.3,0-0.8,0-1c0-0.5,0-0.5-0.3-0.8c-1.1-0.5-15.6,0.3-16.7-0.3c-0.1-0.1,0,0-0.1-0.3l-0.2-1c0-0.8,0-1.2,0.2-1.7c1.3-0.8,13.2,0.2,14.3-0.3c0.4-0.3,0.3-2.5,0.1-3.3c-2.4,0-4.8,0-7.2,0c-1.9,0-5.7,0.2-7.3-0.2l0.2-2.8c1.1-0.8,15.6,0.5,16.5-0.3c0.3-0.5,0.2-2.1,0.2-2.9c-0.2-0.9-0.8-0.4-2.4-0.4C217.7,369,209.4,369,204.5,369.2L204.5,369.2z"/><path d="M243.8,372.8c1.3,0,2.8-0.2,3.6,0.8c0.8,1,0.3,2.5-0.4,3.2c-1.1,0.4-11.1,0.3-11.7,0.1c-0.2-0.8-0.2-3.1,0-3.8L243.8,372.8L243.8,372.8z M230.8,369.2c-0.4,1.2-0.2,6.9-0.2,8.5c0,1.3-0.2,8,0.2,8.5c0.4,0.2,3.3,0.2,3.8,0c0.3-0.2,0.3-0.4,0.3-1.2c0-1.2-0.3-4,0.1-4.5c0.8-0.5,7.5-0.3,9-0.1l2.1,4.8c0.1,0.3,0,0.3,0.1,0.5c0.3,0.8,0.8,0.8,2,0.8c1,0,2.4,0.1,3.2-0.3c-0.2-2.1-2.7-4.5-2.4-6.4c1.3-1.1,1.2-0.8,2.3-2.1c1-1.5,0.8-1.6,0.8-3.8c0-1-0.9-2.5-1.2-3.1c-0.8-0.9-1.5-1.5-2.7-1.7C246.6,369,231.9,368.7,230.8,369.2L230.8,369.2z"/><path d="M207.5,347.8c1.6-0.4,6.1-0.1,8.3-0.1c1.2,0,2.8-0.1,3.8,0.5c0.9,0.8,0.9,2.1,0.1,2.8c-0.9,0.9-2.3,0.8-3.6,0.8c-1.1,0-8,0.2-8.4-0.1C207,351.3,207.2,348.5,207.5,347.8L207.5,347.8z M203.1,344.3c-0.3,0.9-0.2,15.6,0,17.4c1.2,0,3.8,0.3,4.5-0.2c0.2-1.2,0-4.8,0-5.3c0.2-0.3,0-0.2,0.2-0.3c1-0.3,7.2-0.2,8.7-0.2c0.4,1,1,1.7,1.5,2.9c0.1,0.8,1.2,2.4,1.6,2.8h4.4c0-0.9-0.2-0.1-0.8-1.5c-0.8-2.1-2.1-3.6-2.1-4.8c2.7-1.5,2.4-2.4,2.9-3.8c0.8-1.5,0-3.9-0.9-5.1c-0.4-0.8-1.6-1.6-2.5-1.9C219.3,343.8,204.2,343.8,203.1,344.3L203.1,344.3z"/><path d="M256.8,359.8c0.8,1.1,3.8,1.2,5,1.5c4,1.1,4.7,1.1,8.5,0.3c2.3-0.3,5.5-1.5,6.5-3.5c1.5-2.4,0.8-5.7-2-6.5c-3.6-1.2-5-1-8.7-1c-1.6,0-4.6,0.1-5.7-1c-0.2-1.5,1.3-2,2.7-2c1.4-0.1,2.7-0.5,4.1-0.5c1.6-0.1,2.7,0.3,4.3,0.5c1.4,0.1,2.6,1,3.8,1c0.2-0.1,0.2-0.1,0.2-0.3l0.3-0.5c0.1-0.4,0-0.1,0.1-1c0.2-0.8,0.5-1,0.5-2l-5.7-1.5c-3.1-0.3-7.9-0.4-10.5,0.9c-2.1,1.2-6,3.1-3.9,6.9c0.1,0.3,0.1,0.3,0.5,0.5l0.8,0.5c2.7,3.3,16.5,0.1,15.1,3.6c-1,2.7-9.3,2.1-11.7,1.4c-0.8-0.2-1.2-0.3-1.9-0.5c-2-0.5-1.5-1.6-2.4,0.9C257.3,358.7,256.8,359.3,256.8,359.8L256.8,359.8z"/><path d="M300,380c0.8,2-0.3,2.3-1.7,2.8c-0.8,0.3-1,0.5-2.1,0.5s-1.5,0.2-2.4,0.3c-0.9,0-1.5,0-2.3-0.3c-0.4-0.2-2.7-0.2-4.5-0.9c-2.8-1-1.9-0.8-2.7,0.9c-0.3,0.5-0.5,0.9-0.8,1.5c0.3,0.2,0.4,0.3,0.9,0.4s0.8,0.4,1,0.8c0.5,0.3,0.9,0,1.5,0.1c0.5,0.2,0.5,0.3,1.2,0.3c2,0.3,3.9,0.8,6,0.4c0.5,0,0.9-0.1,1.4-0.1c0.8-0.1,0.4-0.1,1.3-0.3c2.7-0.3,4.8-0.8,6.8-3.3c1.5-2.1,0.8-5.1-1.9-6.8c-1.7-1-6.3-0.8-8.6-1c-1.6-0.2-4.8,0-5.8-0.9c-0.2-0.9,0.1-1.3,0.8-1.5c2.3-1,3.1-1,6-1c4,0,7,1.5,8.1,1.3c0.3-0.8,0.2-0.9,0.5-1.5c0.3-0.5,0.5-0.9,0.5-1.6c-1.2-0.8-3.3-1.4-4.8-1.4c-1,0-3.3-0.9-5.5-0.8c-0.8,0-0.8,0.3-2.5,0.5c-2.1,0.2-5.1,1.5-6.5,3.2c-0.9,1.2-1.2,3.4-0.1,4.8c1,1.2,2.1,2,4,2.3C291.9,379.5,296,379.3,300,380L300,380z"/><path d="M154.4,351.6c-0.5-4.6-0.3-3.8,4.5-3.8c1.9,0,6.9-0.3,7.8,0.5c0.9,0.9,0.8,2.4-0.3,2.9C165.1,352,155.5,351.8,154.4,351.6L154.4,351.6z M154.2,361.5c0.3-0.9,0-4.5,0.1-5.8c3.9-1.2,13.2,1.6,16.2-2.6c2-2.5,1.4-6.8-2.1-8.4c-2-0.9-3.6-0.8-5.7-0.8c-4,0-8.7-0.3-12.8,0c-0.3,1.2-0.1,9-0.1,10.8c0,7-0.5,6.8,1.5,6.8C152.4,361.5,153.3,361.7,154.2,361.5L154.2,361.5z"/><path d="M176.1,361.3c0.9,0.3,3.1,0.2,4,0c0.5-1.9,0-4.8,0-6.9c1.4-0.5,4.6-0.3,6.5-0.3c1.4,0,5.6-0.3,6.4,0.3c0.3,1.5-0.3,5.9,0.2,6.8c0.9,0.3,3.3,0.3,4,0c0.2-0.8,0.2-16.2,0-17c-0.8-0.1-3.6-0.3-3.9,0.2c-1.1,0.9,0.3,4.8-0.4,6.1h-12.3c-0.1-1.2-0.1-2.3-0.1-3.5c0-0.9,0.4-2.7-0.5-2.8c-0.4-0.2-2.8-0.2-3.4,0c-0.8,0.3-0.3,2.4-0.3,3.2C176,350.3,175.8,359.1,176.1,361.3L176.1,361.3z"/><path d="M238.3,354.5c-2.3,0-2.1,0-0.2-3.2c0.3-0.5,0.3-0.3,0.8-0.9c0.5-0.9,0.9-2.4,1.7-2.7c0.3,0.3,1.3,2.4,2.1,3.3l1.7,3.2c0,0.8,0,0.1-0.2,0.3C243.8,354.8,239.3,354.5,238.3,354.5L238.3,354.5z M228.2,361.2c0.8,0.3,3.4,0.1,4.3,0c1-1.7,0.8-1.2,1.3-2.4c0.9-1.3,1.7-1,4.5-1h6.3c1.6,0,1.9-0.3,2.7,1c0.4,0.8,1.1,1.5,1.5,2.4h4.3c-0.2-1.5-1-2-2.3-4.5l-7.3-12.9h-5.7c-0.2,0.3-0.9,1.7-1.2,2.1s-0.9,1.3-1.2,2.1c-0.9,1.4-1.6,2.7-2.4,4.4c-0.2,0.3-0.3,0.9-0.5,1c-1.2,2-0.8,1.2-1.7,3.3c-0.3,0.8-0.9,1.2-1.2,2.1C228.8,360.3,228.2,360.8,228.2,361.2L228.2,361.2z"/><path d="M297.2,354.3h-7.5c0-1,0.3-1.2,0.9-2c0.3-0.8,0-0.1,0.9-1.6c1.2-1.6,1.4-3.3,2.1-3.3s1.5,2.5,2,3.3C295.8,351.5,297,353.5,297.2,354.3L297.2,354.3z M280.8,361.3c1.2,0.2,3.2,0.2,4,0l2.1-3.4c1.2-0.2,3.1,0,4.5,0c1.5,0,2.9-0.2,4.5,0c1.5,0.1,2.9-0.3,3.8,0.4l1.5,2.9h4.5c-0.1-0.9-0.5-1-1.2-2.5l-4-7.2c-0.9-1.4-3.1-5.1-4-7c-0.8-1.1-1.5-0.8-2.9-0.5c-1,0.1-2.7-0.3-3.3,0.3l-4,7.2C285.3,353,280.8,359.8,280.8,361.3L280.8,361.3z"/><path d="M176.9,369.2c-0.1,0.4,0.3,0.8,1,2.4l1.5,2.9c0.1,0.3,0.1,0,0.3,0.4c0.1,0.5,0.1,0.8,0.4,1.4l5,9.5c0.3,1,1,0.9,3.1,0.9c1.2,0,2.5,0.1,3.1-0.4c0.1-0.2,0.5-0.9,0.8-1.1c0.9-1.5,2.3-4.8,3.2-6l2.5-4.6c0.3-0.9,0.9-1.5,1.2-2.4c0.2-0.5,0.2-0.8,0.5-1.2c0.3-0.5,0.4-0.8,0.4-1.3c-1.1,0-2.1,0-3.2,0c-2.3,0-1.2,0.1-3.2,3.1c-0.4,0.8-0.4,1.5-1.1,2.3c-0.9,1.2-2.8,5.7-3.3,6.2c-0.3,0.3-0.3,0.4-0.5,1c-0.1,0.5-0.1,0.8-0.9,0.9c-0.4-0.4-4.6-9.3-5.1-10.3c-0.1-0.3-0.3-0.8-0.4-1c-0.1-0.3-0.4-0.5-0.8-1c-0.4-1.2-0.1-1.2-1.9-1.2C179,369.2,177.5,369,176.9,369.2L176.9,369.2z"/><path d="M310.2,344.1c-0.3,2.4,0,10.5-0.2,14.1c0,0.8,0,1.5,0,2.4c0,1.1,0.3,1.2,1.2,1.2c3.2,0.2,6.3-0.1,9.5-0.1c2.5,0,6.9,0.3,9.3-0.2c0.2-0.8,0.2-1.2,0.2-2.1c0-0.9,0.1-1.5-0.8-1.5c-1.5,0-3.3,0-4.8,0c-1.3,0-9.1,0.1-9.8-0.2c-0.1-0.1-0.1-0.4-0.1-1c0-0.3,0-0.8,0-1.2v-7c0-0.8,0.1-3.9-0.2-4.4C314,343.7,311,344.1,310.2,344.1L310.2,344.1z"/><path d="M249.6,326.8c0-1,0-0.9,0.4-1.3c0.5-0.9,1.5-2.4,2.9-2.3C253.5,324.5,252.3,327,249.6,326.8L249.6,326.8z M240.2,324.3c0.2,1-0.4,1.7-0.9,2.4l-2.1,4.5c-0.3,1-0.4,1.5,0,2.5c0.3,0.8,1.7,0.9,2.6,0.8c1.3-0.2,4.3-2.1,5.3-3.2c0.4-0.3,0.3-0.8,0.9-0.9c0.3,0.3,0.2,0.9,0.2,1.4c0,1.3,0.4,1.9,2.3,2.1c2.8,0.2,4.5-0.9,6.4-2.3c0.8-0.3,1.2-0.8,1.7-1.2s0.9-0.9,1.3-1.5c0.5-0.5,1.2-0.9,1.1-2c-1.1,0.2-1.1,1.1-2.7,2.4c-1,0.8-2.1,1.5-3.2,2.3c-0.9,0.5-3.2,1.3-4.1,0.5c-1-0.9-0.8-3.2-0.1-4.4c0.1-0.1,1.2-0.3,2.3-0.8c0.8-0.3,1.3-0.4,2.1-0.9c1.4-0.8,2.3-2.3,2.1-3.9c-1.2-0.5-2.7-0.1-3.9,0.3c-1,0.5-3.1,3.2-3.8,4.1c-0.3,0.4-0.4,1.3-0.9,1.6l-2.7,2.4c-0.8,0.5-2.5,2-3.6,1.3c-1.5-0.8-0.9-2.4-0.2-3.8c1.5-2.8,1-2.4,2.7-5.1c0.3-0.5,1-1.4,0.4-1.7c-0.4-0.5-2.3,0.5-2.7,0.9c-1.4,0.8-2,1.3-2.6,1.5c0.3-1.4,3.8-7.2,4.9-9c0.8-1,3.6-3.6,5-4.4c2.4-1.2,5.1-1.9,7.5-0.3c2.1,1.4,1.2,2.4,2.1,2.7c0.8-0.5,1.2-4.8-3.5-5.6c-2.9-0.3-5.7,1.1-7.2,2.4c-0.9,0.9-3.2,2.4-3.8,3.5c-1.3,2-1.2,1.3-2.8,4c-0.8,1-1.2,2-1.9,2.8c-0.8,1.1-1.2,2-2,2.9c-0.5,0.9-1.3,2-1.7,2.9c-0.2,0.1-0.2,0.4-0.3,0.8c-0.1,0.3-0.1,0.3-0.4,0.8l-2.6,4.6c0,0.8,1.1,1,1.5,0.5l1.1-1.4l1.7-3.1C236.3,327.8,238.5,324.3,240.2,324.3L240.2,324.3z"/><path d="M221.4,311.3c-1.1,1-0.3,0-1.9,1.5c-0.8,0.8-1.2,1-1.5,2c-0.5,1-2.3,3.8-2,5c0.8,0,0.8-1.1,1-1.7c0.9-1.5,2.7-3.9,4.4-4.8c2.3-1,7.8-2,10.5-1.2c-0.2,0.9-7.1,12.2-7.5,13.2c-0.8,1-3.6,5.5-3.6,6.9c0,1.5,1.7,1.7,3.3,2c1.2,0,4.1,0.3,4.8-0.3c-0.3-0.5-0.5-0.3-1.2-0.3c-1.7,0-3.5,0-3.5-2.1c0-1.3,1.5-3.9,2.3-4.8c0.9-1.4,1.7-3.2,2.6-4.5c1.2-2,4.1-6.9,5.3-8.5c1.7-2.3,1.3-1.4,5.3-1.7c2.3-0.2,3.9-0.3,5.7-1.3c0.5-0.3,1.4-1.5,1.4-2.3s-0.9-2.1-1.5-2.1c-0.5,0.8-0.2,0.8-0.3,1.4c-0.2,0.8,0,0.1-0.3,0.4c-0.3,0.8-0.9,1.7-2.5,2.1c-1.5,0.3-0.3,0.1-1.2,0.5c-0.1,0-1.2,0.1-1.5,0.1c-1.2,0.1-1.9,0.3-3.3,0.3C231.2,311.1,226.3,311.1,221.4,311.3L221.4,311.3z"/><path fill="#CCCCCC" d="M204.8,415.1c0.9-1.2,2.3-5.3,2.8-5.9c0.4,0.8,0,4.5,0.3,5.9c0.8,0.1,1.5,0.1,2.1,0c0.2-0.8,0.3-7.4,0-8.1c-0.3-0.9-2.5-0.4-3.4-0.3c-0.8,0.9-0.9,1.6-1.5,2.8c-0.9,1.5-0.9,2.7-1.5,2.8c-0.4-0.3-1.3-3.1-2.1-4.3c-0.5-0.9-0.3-1.5-1.5-1.7c-0.9-0.1-2.3-0.1-2.8,0l-0.2,5.6c0,2.4-0.3,3.8,1.7,3.3c1.2-0.3,0.8-4,0.4-6c1.1,0.5,1.1,2,1.7,2.9c0.9,1.6,0.8,1.2,1.3,2.9L204.8,415.1L204.8,415.1z"/><path fill="#CCCCCC" d="M281.8,408.6c0.2-0.3,0.9-1.9-0.4-2.1c-1.1-0.2-9.3-0.2-9.8,0.2c-0.3,0.8-0.3,7.3,0,8.4c0.9,0.3,9.4,0.1,10.8,0c0-0.8,0-1.4-0.1-1.9c-0.5-0.4-5.9-0.2-7.2-0.2c-1.2,0-1.2-0.3-1-1.5c5.1-0.4,7.8,1.2,7.3-1.6c-0.9-0.4-5.8-0.1-7.3-0.3v-1.2L281.8,408.6L281.8,408.6z"/><path fill="#CCCCCC" d="M250.5,415.3c0.2-0.4,0.2-6.1,0.2-7.2c0-1.4-0.3-2.1-1.9-1.5c-1.4,0.3,0.4,2.8-1.2,3.3c-0.8,0.2-4.3,0-5.1-0.1l-0.2-0.1c-0.5-0.8,0.8-2.7-0.8-2.9c-2.5-0.4-2.1,1.6-2,2.9c0,0.9,0,5.1,0.2,5.5c0.1,0.2-0.2,0.2,0.4,0.2c2.7,0.4,1.3-1.5,1.9-3.2c1.1-0.1,5-0.3,6,0c0.3,1.1-0.1,2.3,0.2,3.2C249,415.3,249.9,415.3,250.5,415.3L250.5,415.3z"/><path fill="#CCCCCC" d="M260.4,409.7c1,0.1,1.3,1,2.1,1.5l2,1.5c1.3,1.2,2.4,3.1,4,2.3c1-0.5,0.5-7.4,0.3-8.6c-0.8,0-1.3,0-2,0.2c-0.3,1.1,0,3.9-0.1,5.3c-0.8,0-0.8-0.3-1-0.8c-1.7-1.7-2.7-2.6-3.6-3.4c-0.9-0.9-1.2-2.1-3.5-1.5c-0.3,1.1-0.3,7.8,0.2,8.6l1.7,0.2V409.7L260.4,409.7z"/><path fill="#CCCCCC" d="M207.5,347.8c-0.2,0.8-0.3,3.5,0.1,3.8c0.3,0.3,7.2,0.2,8.4,0.2c1.3,0,2.7,0.2,3.6-0.8c0.9-0.9,0.8-2.3-0.1-2.8c-0.9-0.8-2.6-0.5-3.8-0.5C213.6,347.7,209.1,347.4,207.5,347.8L207.5,347.8z"/><path fill="#CCCCCC" d="M154.4,351.6c1.2,0.2,10.8,0.5,12-0.3c0.9-0.8,1.2-2.1,0.3-2.8c-1-1-6-0.5-7.8-0.5C154.2,347.8,154,347,154.4,351.6L154.4,351.6z"/><path fill="#CCCCCC" d="M235,372.8c-0.1,0.8-0.1,3.3,0,3.8c0.5,0.2,10.7,0.3,11.7-0.2c0.9-0.4,1.3-2.1,0.5-3.1c-0.8-0.9-2.3-0.8-3.6-0.8L235,372.8L235,372.8z"/><path fill="#CCCCCC" d="M236,411.9c-0.9,0.1-0.9,0.9-2,1.2c-2.5,1.2-6.3-0.3-5.3-3.1c0.5-1.4,2.7-1.9,4.7-1.5c1.7,0.3,1.7,0.9,2.1,1.1c0.9,0.3,1.7-0.3,2.1-0.9c-0.3-0.4-0.9-0.9-1.2-1.2c-1.1-0.9-3.8-1.4-5.6-1.1c-2.4,0.3-4.7,2-4.7,4.5c-0.2,4.7,6.8,5.1,9,4.1c1-0.5,2.1-1.1,2.1-2.3c-0.3-0.2-0.4-0.2-0.8-0.3C236.3,412.1,236.4,412.1,236,411.9L236,411.9z"/><path fill="#CCCCCC" d="M261.6,372.9c-0.4,3.9-0.1,3.4,4.7,3.4c1.2,0,7.5,0.2,8.1-0.4c0.9-0.9,0.8-2.4-0.4-2.9C272.4,372.3,262.8,372.6,261.6,372.9L261.6,372.9z"/><path fill="#CCCCCC" d="M216.6,411.8c-0.2-1.1,0.9-2.1,1.2-2.8c0.3-0.5,0.2-0.5,0.8-0.5c0.2,0.2,0.8,1.4,1.1,1.7c0.3,0.4,0.9,1.2,0.9,1.5C219.8,411.9,217.5,411.8,216.6,411.8L216.6,411.8z M214.7,414.2c1.1-0.5,0.3-0.8,1.9-0.8c0.9,0,1.7,0,2.6,0c2.8,0,2.3-0.3,3.6,1.6c0.8,0,1.2,0.1,2-0.1c0-0.8-0.3-0.9-0.8-1.4l-2.1-3.8c-0.4-0.9-1-1.6-1.5-2.6c-0.3-0.4-0.8-0.8-1.3-0.8c-0.8,0-1.5-0.2-2.1,0.3l-2.1,3.9c-0.3,0.8-2.1,2.9-2.1,4.1h1.7L214.7,414.2L214.7,414.2z"/><path fill="#CCCCCC" d="M261.6,382.5c0.2,0.2,0,0,0.3,0.2l6.8,0.1c1.2,0,2.5,0,3.8-0.1c1.6,0,1.9,0.3,2.1-1.7c0-1.5-1-1.3-2.4-1.3c-3.5,0-7.4,0-10.7,0.1C261.5,380.5,261.3,381.8,261.6,382.5L261.6,382.5z"/><path fill="#CCCCCC" d="M238.3,354.5c1.1,0,5.3,0.1,6-0.2c0.2-0.1,0.2,0.3,0.2-0.3l-1.7-3.2c-0.4-0.9-1.7-2.8-2.1-3.3c-0.9,0.3-1.2,2-1.7,2.7c-0.3,0.8-0.4,0.5-0.8,0.9C236.3,354.5,236.1,354.5,238.3,354.5L238.3,354.5z"/><path fill="#CCCCCC" d="M297.2,354.3c-0.2-0.9-1.4-2.8-2-3.6c-0.5-0.8-1.2-3.3-2-3.3s-0.9,1.3-2.1,3.3c-1.1,1.5-0.5,1-0.9,1.6c-0.3,0.8-0.9,0.9-0.9,2L297.2,354.3L297.2,354.3z"/><path fill="#CCCCCC" d="M255.5,407.3c-0.2-1.2-2-0.4-2-0.4c-0.3,0.3-0.2,7.4,0,8.3h1.7L255.5,407.3L255.5,407.3z"/><path d="M216.6,411.8c0.9,0,3.2,0.2,3.6-0.2c0-0.4-0.5-1-0.9-1.5c-0.2-0.3-0.8-1.5-1.1-1.6c-0.4,0.1-0.3,0-0.8,0.4C217.5,409.7,216.5,410.6,216.6,411.8L216.6,411.8z"/><path fill="#CCCCCC" d="M249.6,326.8c2.7,0.2,3.9-2.4,3.3-3.6c-1.4-0.3-2.3,1.3-2.9,2.3C249.8,326,249.6,325.8,249.6,326.8L249.6,326.8z"/><rect x="188.7" y="451.1" fill="#CCCCCC" width="102.5" height="22.9"/><g><path d="M218.1,460.1c1.1-0.1,1.2,0.1,1.2,1.1s0,3.9,0,4.7c-0.1,1.2-0.8,1-1.2,1v0.3h3.3v-0.3c-0.3,0-0.5,0-0.8,0c-0.8-0.1-0.8-1.3-0.8-2.1c0-0.4,0-3.2,0-3.4c0.4,0.8,2.7,5.7,2.7,5.9h0.4c0.2-0.3,0.5-1.2,0.8-1.5l1.4-2.9c0.1-0.4,0.4-1.1,0.8-1.5c0,0.4,0,2.7,0,3.4c0,0.4,0,1.2-0.2,1.5c-0.1,0.8-0.4,0.8-1.2,0.4v0.3h4.3v-0.3c-1,0-1.2,0-1.3-0.9c0-0.5,0-4.4,0-4.8c0-1,0.3-1.2,1.3-1v-0.3h-2.7l-1.2,2.7c-0.2,0.4-0.3,0.9-0.8,1.3c-0.2,0.4-0.4,1.1-0.8,1.3l-2.1-4c-0.2-0.2-0.5-1.2-0.8-1.4h-2.7L218.1,460.1L218.1,460.1z"/><path d="M208.2,467.3l0.3-2.4h-0.8c-0.2,0.9-0.8,2-1.3,2.3c-2.1,1.5-5.8,0.5-6.2-3.6c-0.2-1.9,0.9-3.9,2.7-4.7c1.9-0.8,4.3,0.8,4.5,2.6l0.8-0.2l-0.5-2.6c-0.2-0.1-1.2-0.4-1.3-0.4c-1.7-0.4-3.6-0.4-5.1,0.2c-1.7,0.8-3.2,2.5-2.8,5.1c0.3,4.7,4.9,5.8,8.6,4.5C207.2,468,208,467.6,208.2,467.3L208.2,467.3z"/><path d="M241.5,460.2c1.2-0.4,2.4,0.1,2.4,1.4c0,0.8-0.2,1.2-0.8,1.3c-0.3,0.2-1.2,0.4-1.7,0.2V460.2L241.5,460.2z M238.5,459.8v0.3c0.9-0.1,1.3,0,1.5,0.9c0,0.5,0,4.5,0,5c-0.2,0.9-0.8,1-1.7,0.9v0.3h4.8v-0.3c-0.3,0-0.8,0.1-1.1,0s-0.3-0.3-0.4-0.8c-0.2-0.8,0-1.6,0-2.4c0.9,0,1.2,0.3,1.3,0.9c0.3,0.4,0.5,1.1,0.9,1.5c0.8,1.2,1,1.2,2.3,1.2c0.3,0,0.8,0,1.2,0v-0.3c-0.8,0-0.9,0-1.2-0.4c-0.3-0.3-0.5-0.8-0.8-1.1c-1.2-2.1-1.2-1.4-1.5-1.9c1-0.2,1.5-0.4,1.9-1.3c0.3-1.1-0.2-2-0.9-2.1c-0.9-0.3-2-0.3-2.8-0.1C240.6,459.8,239.5,459.8,238.5,459.8L238.5,459.8z"/><path d="M256.7,460.5c0-0.2,0.1-0.2,0.3-0.2c0.1,0,0.1,0,0.3,0c0.9-0.1,1.5,0,2.3,0.5c1.5,1,1.3,5.7-1.3,6.1c-0.3,0-1.2,0-1.5-0.1V460.5L256.7,460.5z M253.3,459.8v0.3c1.1,0,1.3-0.1,1.5,1.1c0,0.8,0,4.5,0,4.9c-0.2,1.1-0.8,0.9-1.7,0.9v0.3c1,0,2.1,0,3.1,0c1.2,0,2,0,2.9-0.2c1.5-0.4,2.7-1.7,2.7-3.6c0.1-2.3-0.9-3.5-2.6-3.8c-0.9-0.2-2.1-0.2-3.1-0.2C255.5,459.8,254.4,459.8,253.3,459.8L253.3,459.8z"/><path d="M233,463.5c1.3-0.2,2.7,0.2,2.5,1.7c0,0.8-0.3,1.2-0.8,1.3c-0.5,0.3-1,0.3-2,0.2v-3.2H233z M233,460.2c0.4-0.1,1-0.3,1.6,0c0.3,0.1,0.8,0.8,0.8,1.2c0,1.1-1.2,1.9-2.4,1.5V460.2L233,460.2z M230,459.8v0.3c0.8,0,1.3-0.3,1.5,0.9c0,0.8,0,4.4,0,5c-0.2,1-0.8,0.9-1.5,0.9v0.3c1.2,0,2.3,0,3.4,0c1.1,0,2.1,0,2.8-0.4c0.9-0.4,1.2-1.4,1-2.4c-0.1-0.9-1-1.2-2.1-1.4c0.1,0,0.3-0.1,0.4-0.1s0.3-0.2,0.4-0.3c1.1-0.8,1.1-2.4-0.1-2.8c-0.9-0.3-2-0.2-2.9-0.2C232,459.8,230.8,459.8,230,459.8L230,459.8z"/><path d="M271,466.9v-2.1c0-0.9,0.2-1,1.2-1v-0.5h-3.8v0.5c0.9,0,1,0,1,0.9c0,0.8,0,1.4,0,2.1c-1.3,0.4-2.7,0-3.5-0.9c-1.5-1.7-1.2-5.7,1.7-5.8c2.3-0.2,2.5,1.5,2.7,1.9c0.1,0,0.3,0,0.5-0.1c0-0.4-0.2-1.2-0.3-1.6c0-0.3,0-0.2-0.9-0.3c-1-0.1-2-0.3-2.9-0.1c-3.3,0.4-4,3.8-3.1,5.9c0.9,1.6,2.5,2.3,4.5,2.1c0.5,0,0.9-0.2,1.3-0.2c0.2,0,0.5-0.1,0.8-0.1C270.6,466.9,271,466.9,271,466.9L271,466.9z"/><path d="M272.8,460.1c0.8,0,1.4-0.3,1.5,0.9c0,0.8,0,4.4,0,5c-0.1,1-0.8,1-1.6,0.9v0.3h6.9l0.8-2.1l-0.4-0.2c-0.3,0.8-0.5,1.2-1.2,1.3c-0.5,0.2-2.1,0.2-2.5,0.2v-3.2c0.4,0,1.2,0,1.6,0c0.8,0,0.8,0.3,0.8,1.1h0.5V462h-0.5c0.2,0.8,0,0.9-0.5,1.1c-0.3,0-1.2,0-1.6,0v-2.6c0.1,0,0,0,0,0c0.5-0.2,1.5-0.2,2.1,0c0.9,0.2,1,0.4,1.2,1.2c0.2,0,0.3,0,0.5,0l-0.3-1.5L272.8,460.1L272.8,460.1L272.8,460.1z"/><path d="M212.7,461.8c0.1,0,0.1,0.2,0.1,0.3l0.3,1c0.2,0.3,0.3,0.9,0.4,1.4h-2.1L212.7,461.8L212.7,461.8z M208.8,466.9v0.3h3.3v-0.3c-1.5,0.1-1.2-0.4-0.9-1.4c0-0.1,0.2-0.8,0.3-0.8h2.6c0,0.2,0.4,1.2,0.4,1.4c0.2,0.8-0.3,0.8-1,0.8v0.3h4.3v-0.3c-0.9,0-1.2,0-1.7-1.2s-1.2-2.8-1.7-4.3l-0.9-2.3h-0.3c-0.2,0.1-0.3,0.9-0.5,1c-0.2,0.3-0.3,0.8-0.5,1.1c-0.3,0.9-1.9,4.6-2.3,5.1C209.5,466.9,209.3,466.9,208.8,466.9L208.8,466.9z"/><path d="M247.8,460.1c0.3,0,0.9-0.1,1.2,0s0.3,0.4,0.3,0.9c0,0.8,0,4.4,0,5c-0.1,1-0.8,0.9-1.6,0.9v0.3h4.9v-0.3c-0.9,0-1.5,0.1-1.7-0.9c0-0.8,0-4.5,0-5c0.2-1,0.8-1,1.5-0.9v-0.3h-4.9L247.8,460.1L247.8,460.1z"/></g></g></svg>