<svg version="1.1" xmlns="http://www.w3.org/2000/svg" x="0px" y="0px" viewBox="0 0 960 504" enable-background="new 0 0 960 504"><rect fill="#A23E48" width="960" height="504"/><g><path d="M821.3,440.1h-40.6c3.5-4.9,5.7-10.9,5.7-17.5V72.1c0-16.6-13.5-30.1-30.3-30.1H203.4c-16.6,0-30.1,13.5-30.1,30.1v350.3c0,6.6,2.3,12.8,5.8,17.7h-41c0,0-1.8,2,3,6.8c13.8,13.8,44.7,15,44.7,15l0,0c0,0,580.7,0.2,581.3,0c32.4,0,42.8-9.8,51.5-15.3C824.7,440.4,821.3,440.1,821.3,440.1z M518.6,447.4h-77.9v-5.3h77.7L518.6,447.4L518.6,447.4z M763.9,415.5H194.7V62.3h569.4v353.3H763.9z"/><rect x="194.7" y="62.3" fill="#3E3E40" width="569.4" height="353.1"/><path fill="#FFFFFF" d="M262.8,202.8L262.8,202.8v1.8h-5V181h5v10.1l0,0c1.2-1.8,2.9-2.9,5.1-2.9c2.1,0,3.6,0.8,4.6,2.1c1,1.4,1.7,3.3,1.7,5.8c0,2.7-0.6,4.8-2,6.3s-3,2.4-5.1,2.4C265.3,205,263.8,204.3,262.8,202.8z M262.7,196.2v1.6c0,1.1,0.3,1.8,0.9,2.6c0.6,0.6,1.4,1.1,2.3,1.1c1.2,0,2-0.5,2.5-1.4c0.6-0.9,0.9-2.1,0.9-3.6c0-1.4-0.3-2.4-0.9-3.2c-0.6-0.8-1.3-1.2-2.4-1.2c-1,0-1.8,0.4-2.4,1.2C263,194,262.7,195,262.7,196.2z"/><path fill="#FFFFFF" d="M291.9,198.2h-10.5c0.1,2.4,1.6,3.4,4.3,3.4c1.7,0,3.3-0.4,4.7-1.2v3.4c-1.5,0.8-3.5,1.2-5.7,1.2c-2.5,0-4.7-0.8-6-2.1c-1.4-1.3-2.1-3.4-2.1-6c0-2.7,0.8-4.7,2.4-6.3c1.5-1.6,3.4-2.4,5.7-2.4c2.4,0,4.1,0.6,5.4,2.1c1.2,1.4,2,3.3,2,5.7L291.9,198.2L291.9,198.2z M287.4,195.2c0-2.3-0.9-3.4-2.9-3.4c-0.8,0-1.5,0.3-2.1,1c-0.6,0.6-0.9,1.5-1,2.4H287.4z"/><path fill="#FFFFFF" d="M314.1,182.4l-10.6,25.9H301l10.6-25.9C311.7,182.4,314.1,182.4,314.1,182.4z"/><path fill="#FFFFFF" d="M327.8,202.3L327.8,202.3v2.4h-2.5v-23.5h2.5v10.5l0,0c1.2-2.1,3.2-3.2,5.5-3.2c2.1,0,3.6,0.8,4.8,2.1c1.2,1.3,1.7,3.3,1.7,5.7c0,2.7-0.6,4.8-2,6.3c-1.2,1.5-3,2.4-5.3,2.4C330.5,205,328.8,204.2,327.8,202.3z M327.8,196v2.3c0,1.4,0.5,2.4,1.2,3.5c0.9,0.9,2,1.3,3.3,1.3c1.5,0,2.8-0.6,3.6-1.8c0.9-1.2,1.4-2.8,1.4-4.9c0-1.8-0.5-3.2-1.2-4.2c-0.9-1.1-1.9-1.5-3.3-1.5c-1.5,0-2.7,0.6-3.6,1.5C328.2,193,327.8,194.4,327.8,196z"/><path fill="#FFFFFF" d="M345.2,184.6c-0.5,0-0.9-0.1-1.2-0.4s-0.5-0.8-0.5-1.2c0-0.4,0.2-0.9,0.5-1.2s0.8-0.5,1.2-0.5c0.4,0,0.9,0.1,1.2,0.5c0.3,0.3,0.5,0.8,0.5,1.2c0,0.5-0.1,0.9-0.5,1.2C346,184.6,345.6,184.6,345.2,184.6z M346.3,204.6h-2.4v-15.9h2.5L346.3,204.6L346.3,204.6z"/><path fill="#FFFFFF" d="M355,188.3l-1.3,3.1h-0.5l-1.3-3.1H355z M355,204.6h-3.1l1.3-3.2h0.5L355,204.6z"/><path fill="#FFFFFF" d="M379.2,182.4l-10.7,25.9h-2.4l10.6-25.9C376.8,182.4,379.2,182.4,379.2,182.4z"/><path fill="#FFFFFF" d="M281,236.5l-4.7,15.9h-5.1l-2.4-9.3c-0.1-0.6-0.3-1.3-0.3-2.1l0,0c0,0.8-0.2,1.5-0.3,2l-2.5,9.4h-5.1l-4.5-15.9h5l2.3,10.5c0.1,0.5,0.1,1,0.3,1.8l0,0c0-0.8,0.1-1.3,0.3-1.8l2.7-10.3h4.6l2.4,10.5c0,0.3,0.2,0.9,0.2,1.8h0.1c0-0.6,0.1-1.2,0.3-1.8l2.1-10.5L281,236.5L281,236.5z"/><path fill="#FFFFFF" d="M296.5,252.5h-4.6v-2.3l0,0c-1.1,1.8-2.7,2.7-4.7,2.7c-1.5,0-2.8-0.4-3.6-1.3c-0.9-0.9-1.4-2.1-1.4-3.5c0-3.1,1.8-4.8,5.5-5.4l4.4-0.6c0-1.6-0.9-2.5-2.9-2.5c-1.9,0-3.8,0.6-5.4,1.7v-3.6c0.6-0.3,1.6-0.6,2.9-0.9c1.2-0.3,2.3-0.4,3.3-0.4c4.5,0,6.9,2.3,6.9,6.8L296.5,252.5L296.5,252.5z M291.9,246v-1l-2.9,0.4c-1.6,0.2-2.4,0.9-2.4,2.3c0,0.6,0.1,1.1,0.6,1.3c0.5,0.5,0.9,0.6,1.7,0.6c0.9,0,1.6-0.3,2.3-0.9C291.6,247.8,291.9,246.9,291.9,246z"/><path fill="#FFFFFF" d="M299.3,252v-3.9c0.8,0.4,1.7,0.9,2.4,1.1s1.6,0.3,2.3,0.3c0.9,0,1.5-0.2,2.1-0.3c0.6-0.2,0.8-0.6,0.8-1.1c0-0.3-0.2-0.6-0.3-0.8c-0.2-0.2-0.6-0.4-0.9-0.6c-0.3-0.2-0.8-0.3-1.2-0.5c-0.4-0.1-0.9-0.3-1.2-0.4c-0.6-0.3-1.2-0.4-1.7-0.8c-0.4-0.3-0.9-0.6-1.2-0.9c-0.3-0.3-0.6-0.8-0.8-1.2c-0.2-0.4-0.3-1-0.3-1.6c0-0.9,0.2-1.7,0.6-2.4c0.5-0.6,0.9-1.2,1.5-1.6c0.6-0.5,1.3-0.8,2.3-0.9c0.9-0.1,1.6-0.3,2.5-0.3c0.8,0,1.3,0,2.1,0.2c0.8,0,1.5,0.3,2.1,0.4v3.8c-0.6-0.3-1.2-0.6-2-0.8c-0.8-0.1-1.3-0.3-2.1-0.3c-0.3,0-0.6,0-0.9,0c-0.3,0-0.6,0.2-0.8,0.3c-0.1,0.2-0.4,0.3-0.6,0.5c-0.2,0.2-0.2,0.5-0.2,0.6c0,0.3,0,0.6,0.3,0.8c0.1,0.2,0.4,0.4,0.8,0.6c0.3,0.2,0.6,0.3,1,0.5c0.5,0.1,0.8,0.3,1.2,0.4c0.6,0.2,1.2,0.4,1.8,0.8c0.6,0.3,1,0.6,1.3,0.9c0.3,0.3,0.6,0.8,0.9,1.2c0.1,0.4,0.3,1,0.3,1.6c0,0.9-0.2,1.7-0.6,2.4c-0.5,0.6-0.9,1.2-1.7,1.6c-0.8,0.5-1.5,0.8-2.4,0.9c-0.9,0.1-1.8,0.3-2.8,0.3C302.4,252.8,300.8,252.5,299.3,252z"/><path fill="#FFFFFF" d="M319,248.5l-2.3,8h-3.9l1.6-8H319L319,248.5z"/><path fill="#FFFFFF" d="M354.8,236.5l-4.7,15.9H345l-2.4-9.3c-0.1-0.6-0.3-1.3-0.3-2.1l0,0c0,0.8-0.1,1.5-0.3,2l-2.5,9.4h-5.1l-4.5-15.9h5l2.3,10.5c0.1,0.5,0.1,1,0.3,1.8l0,0c0-0.8,0.2-1.3,0.3-1.8l2.7-10.3h4.7l2.4,10.5c0,0.3,0.2,0.9,0.2,1.8h0.1c0-0.6,0.2-1.2,0.3-1.8l2.1-10.5L354.8,236.5L354.8,236.5z"/><path fill="#FFFFFF" d="M371.3,245.8h-10.5c0.2,2.4,1.7,3.4,4.3,3.4c1.7,0,3.3-0.4,4.7-1.2v3.4c-1.5,0.8-3.5,1.2-5.7,1.2c-2.5,0-4.6-0.8-6-2.1c-1.3-1.3-2.1-3.4-2.1-6c0-2.7,0.8-4.7,2.4-6.3c1.5-1.6,3.5-2.4,5.7-2.4c2.4,0,4,0.6,5.4,2.1c1.4,1.5,2,3.3,2,5.7v2.1H371.3z M366.8,242.8c0-2.3-0.9-3.4-2.8-3.4c-0.8,0-1.5,0.3-2.1,1c-0.6,0.6-0.9,1.5-1,2.4H366.8z"/><path fill="#FFFFFF" d="M384.6,240.9c-0.6-0.3-1.2-0.4-2.1-0.4c-1,0-2,0.4-2.5,1.2c-0.6,0.8-0.9,1.8-0.9,3.2v7.7h-5v-15.9h5v3l0,0c0.8-2.3,2.3-3.3,4.2-3.3c0.6,0,0.9,0,1.2,0.1L384.6,240.9L384.6,240.9z"/><path fill="#FFFFFF" d="M401.1,245.8h-10.5c0.2,2.4,1.7,3.4,4.4,3.4c1.6,0,3.3-0.4,4.6-1.2v3.4c-1.5,0.8-3.4,1.2-5.7,1.2c-2.6,0-4.7-0.8-6-2.1c-1.4-1.3-2.1-3.4-2.1-6c0-2.7,0.8-4.7,2.4-6.3c1.5-1.6,3.5-2.4,5.7-2.4c2.4,0,4,0.6,5.4,2.1s1.9,3.3,1.9,5.7v2.1H401.1z M396.4,242.8c0-2.3-0.9-3.4-2.9-3.4c-0.8,0-1.5,0.3-2.1,1s-0.9,1.5-1.1,2.4H396.4z"/><path fill="#FFFFFF" d="M423.3,230.1L412.7,256h-2.4l10.7-25.9H423.3L423.3,230.1z"/><path fill="#FFFFFF" d="M454.3,236.5l-4.8,15.9h-2.7l-3.3-11.4c-0.2-0.4-0.2-0.9-0.3-1.5l0,0c0,0.5-0.1,0.9-0.3,1.5l-3.6,11.4h-2.4l-4.8-15.9h2.7l3.3,11.9c0.2,0.3,0.2,0.9,0.2,1.5h0.2c0-0.5,0.1-0.9,0.3-1.5l3.6-11.9h2.4l3.3,12c0.1,0.5,0.1,0.9,0.3,1.5h0.2c0-0.4,0.2-0.9,0.3-1.5l3.3-12H454.3z"/><path fill="#FFFFFF" d="M456.2,251.8v-2.6c1.2,0.9,2.5,1.4,3.9,1.4c1.6,0,2.9-0.6,3.9-1.7c1.1-1.2,1.5-2.7,1.5-4.6c0-1.8-0.4-3.3-1.5-4.5c-1-1.2-2.4-1.7-3.9-1.7c-1.4,0-2.7,0.5-3.9,1.4v-2.4c1.2-0.6,2.7-1,4.3-1c2.3,0,4.1,0.8,5.6,2.3c1.4,1.5,2.1,3.5,2.1,5.8c0,2.7-0.8,4.7-2.3,6.3s-3.5,2.4-5.9,2.4C458.6,252.8,457.3,252.5,456.2,251.8z"/><path fill="#FFFFFF" d="M483.3,237.2l-9.4,12.9h9.3v2.3h-13.1v-0.8l9.4-12.9H471v-2.3h12.3V237.2L483.3,237.2z"/><path fill="#FFFFFF" d="M488.8,248.8l-2.5,7.7h-1.8l1.8-7.7H488.8z"/><path fill="#FFFFFF" d="M522.3,236.5l-4.8,15.9h-2.7l-3.3-11.4c-0.2-0.4-0.2-0.9-0.3-1.5l0,0c0,0.5-0.1,0.9-0.3,1.5l-3.6,11.4h-2.6l-4.8-15.9h2.7l3.3,11.9c0.1,0.3,0.1,0.9,0.1,1.5h0.1c0-0.5,0.2-0.9,0.3-1.5l3.6-11.9h2.4l3.3,12c0.2,0.5,0.2,0.9,0.3,1.5h0.2c0-0.4,0.1-0.9,0.3-1.5l3.3-12H522.3z"/><path fill="#FFFFFF" d="M523.9,252v-2.4c1.2,0.6,2.6,1.1,3.9,1.1c1.2,0,2.1-0.3,2.7-0.8c0.6-0.5,1-1.2,1-2c0-1.8-1.5-2.7-4.5-2.7h-1.3V243h1.2c1.2,0,2.3-0.2,3-0.6c0.8-0.4,1.1-1.1,1.1-1.8c0-1.5-1.1-2.4-3.2-2.4c-1.2,0-2.4,0.3-3.6,0.9v-2.4c1.2-0.5,2.4-0.8,3.8-0.8c1.7,0,3,0.4,4.1,1.2c1,0.8,1.5,1.8,1.5,3.2c0,1.7-0.9,2.8-2.9,3.6l0,0c2.3,0.6,3.5,1.8,3.5,3.9c0,1.3-0.6,2.5-1.7,3.5c-1.2,0.9-2.7,1.3-4.7,1.3C526.5,252.8,525.2,252.5,523.9,252z"/><path fill="#FFFFFF" d="M541.8,236l-1.4,3.1H540l-1.3-3.1H541.8z M541.8,252.5h-3.2l1.3-3.2h0.4L541.8,252.5z"/><path fill="#FFFFFF" d="M565.9,230.1L555.3,256h-2.4l10.7-25.9H565.9L565.9,230.1z"/><path fill="#FFFFFF" d="M262.8,298.3L262.8,298.3v1.8h-5v-23.6h5v10.1l0,0c1.2-1.8,2.9-2.9,5.1-2.9c2.1,0,3.6,0.8,4.6,2.1c1,1.3,1.7,3.3,1.7,5.8c0,2.7-0.6,4.8-2,6.3c-1.2,1.5-3,2.4-5.1,2.4C265.3,300.6,263.8,299.8,262.8,298.3z M262.7,291.6v1.7c0,1,0.3,1.8,0.9,2.5c0.6,0.6,1.4,1,2.3,1c1.2,0,2-0.4,2.5-1.3c0.6-0.9,0.9-2.1,0.9-3.6c0-1.4-0.3-2.4-0.9-3.2c-0.6-0.8-1.3-1.2-2.4-1.2c-1,0-1.8,0.5-2.4,1.2C263,289.5,262.7,290.4,262.7,291.6z"/><path fill="#FFFFFF" d="M291.9,293.5h-10.5c0.1,2.4,1.6,3.5,4.3,3.5c1.7,0,3.3-0.5,4.7-1.2v3.5c-1.5,0.8-3.5,1.2-5.7,1.2c-2.5,0-4.7-0.8-6-2.1c-1.4-1.3-2.1-3.4-2.1-6c0-2.7,0.8-4.6,2.4-6.3c1.5-1.6,3.4-2.4,5.7-2.4c2.4,0,4.1,0.6,5.4,2.1c1.2,1.3,2,3.3,2,5.7L291.9,293.5L291.9,293.5z M287.4,290.5c0-2.3-0.9-3.5-2.9-3.5c-0.8,0-1.5,0.3-2.1,1.1c-0.6,0.6-0.9,1.5-1,2.4H287.4z"/><path fill="#FFFFFF" d="M309.2,293.5h-10.5c0.1,2.4,1.6,3.5,4.3,3.5c1.7,0,3.3-0.5,4.7-1.2v3.5c-1.5,0.8-3.5,1.2-5.7,1.2c-2.5,0-4.7-0.8-6-2.1c-1.4-1.3-2.1-3.4-2.1-6c0-2.7,0.8-4.6,2.4-6.3c1.5-1.5,3.4-2.4,5.7-2.4c2.4,0,4.1,0.6,5.4,2.1c1.2,1.3,2,3.3,2,5.7v2.1H309.2z M304.5,290.5c0-2.3-0.9-3.5-2.8-3.5c-0.8,0-1.5,0.3-2.1,1.1s-0.9,1.5-1,2.4H304.5z"/><path fill="#FFFFFF" d="M327.3,300.2h-4.8v-8.9c0-2.4-0.9-3.8-2.7-3.8c-0.9,0-1.5,0.3-2.1,1c-0.6,0.6-0.8,1.5-0.8,2.6v9.1h-5v-15.9h5v2.5l0,0c1.2-2,2.8-2.9,5.1-2.9c3.5,0,5.3,2.3,5.3,6.6V300.2L327.3,300.2z"/><path fill="#FFFFFF" d="M350.5,278l-10.6,26h-2.4l10.7-26H350.5z"/><path fill="#FFFFFF" d="M365.3,281.8h-1.7v-5.7h1.7V281.8z"/><path fill="#FFFFFF" d="M374.8,297.9L374.8,297.9v2.4h-2.5v-23.5h2.5v10.5l0,0c1.2-2.1,3.2-3.2,5.6-3.2c2.1,0,3.6,0.8,4.8,2.1c1.2,1.3,1.6,3.3,1.6,5.7c0,2.7-0.6,4.8-1.9,6.3c-1.2,1.6-3,2.4-5.3,2.4C377.5,300.6,375.9,299.5,374.8,297.9z M374.8,291.5v2.3c0,1.3,0.5,2.4,1.2,3.5c0.9,0.9,2,1.3,3.3,1.3c1.5,0,2.9-0.6,3.6-1.8c0.9-1.2,1.4-2.9,1.4-5c0-1.8-0.5-3.2-1.2-4.2s-2-1.5-3.3-1.5c-1.5,0-2.7,0.6-3.6,1.5C375.3,288.6,374.8,289.8,374.8,291.5z"/><path fill="#FFFFFF" d="M392.3,280.2c-0.4,0-0.9-0.2-1.2-0.5c-0.3-0.3-0.4-0.8-0.4-1.2s0.2-0.9,0.4-1.2c0.3-0.3,0.8-0.4,1.2-0.4s0.9,0.1,1.2,0.4c0.3,0.3,0.4,0.8,0.4,1.2s-0.2,0.9-0.4,1.2S392.7,280.2,392.3,280.2z M393.4,300.2h-2.6v-15.9h2.6V300.2z"/><path fill="#FFFFFF" d="M402.2,283.8l-1.4,3.2h-0.4l-1.3-3.2H402.2z M402.2,300.2H399l1.3-3.2h0.5L402.2,300.2z"/><path fill="#FFFFFF" d="M420.8,300.2h-2.6V291c0-3.5-1.2-5.1-3.8-5.1c-1.2,0-2.4,0.4-3.1,1.5c-0.9,1-1.2,2.3-1.2,3.6v9.2h-2.5v-15.9h2.5v2.7l0,0c1.2-2,2.9-3,5.3-3c1.7,0,3,0.6,3.9,1.6s1.3,2.7,1.3,4.8L420.8,300.2L420.8,300.2z"/><path fill="#FFFFFF" d="M444.3,278l-10.6,26h-2.4l10.7-26H444.3z"/><path fill="#FFFFFF" d="M255.9,341.3l0.3-1.7h26.5l-0.3,1.7H255.9z"/><path fill="#FFFFFF" d="M304.3,330.3c-1.2,0-2.1,0.2-3,0.2c-0.9,0-1.6,0.1-2.4,0.3c-0.8,0.2-1.4,0.3-1.8,0.6c-0.6,0.3-1.1,0.6-1.4,1.1c-0.1,0.3-0.5,0.6-0.6,0.9c-0.2,0.3-0.5,0.8-0.6,1.2s-0.3,0.8-0.4,1.2c-0.2,0.5-0.3,0.9-0.3,1.2l0,0c0.6-0.8,1.4-1.2,2.1-1.7s1.6-0.6,2.7-0.6c0.6,0,1.2,0.1,1.8,0.3c0.6,0.1,1,0.6,1.5,0.9c0.5,0.5,0.8,0.9,0.9,1.5c0.2,0.6,0.3,1.4,0.3,2.3c0,0.9,0,1.5-0.2,2.3s-0.5,1.4-0.6,2.1c-0.3,0.6-0.6,1.2-1.1,1.6c-0.4,0.6-0.9,1.1-1.3,1.4c-0.6,0.5-1.2,0.6-1.7,0.9c-0.6,0.2-1.3,0.3-2.1,0.3c-0.9,0-1.7-0.2-2.3-0.5c-0.6-0.3-1.2-0.8-1.7-1.4c-0.4-0.6-0.8-1.2-0.9-2.1c-0.2-0.8-0.3-1.7-0.3-2.7c0-0.9,0-1.6,0.1-2.7c0.1-1,0.3-1.8,0.6-2.7c0.3-0.9,0.6-1.7,1-2.6s0.9-1.5,1.3-2.3c0.6-0.8,1.2-1.2,2-1.6s1.5-0.8,2.4-0.9c0.9-0.1,1.8-0.5,2.8-0.6c1-0.2,2.3-0.2,3.5-0.3L304.3,330.3z M300.9,339.9c0-0.6,0-1.2-0.2-1.7s-0.3-0.8-0.6-1.2c-0.3-0.3-0.6-0.5-0.9-0.6c-0.3-0.2-0.8-0.2-1.2-0.2s-0.9,0-1.3,0.2c-0.5,0.1-0.9,0.3-1.4,0.6s-0.8,0.6-1.2,0.9c-0.3,0.3-0.6,0.6-1.1,1c0,0.2,0,0.5-0.1,0.6c0,0.2,0,0.6,0,0.8c0,0.2,0,0.6,0,0.8c0,0.2,0,0.5,0,0.8c0,0.6,0,1.2,0.1,1.8c0.2,0.6,0.3,1,0.6,1.3c0.1,0.5,0.6,0.6,1,0.9s0.9,0.3,1.3,0.3c0.6,0,1.1,0,1.4-0.3c0.5-0.2,0.9-0.5,1.2-0.8c0.3-0.3,0.6-0.6,0.9-1.1c0.3-0.4,0.6-0.9,0.8-1.3c0.2-0.5,0.3-1,0.5-1.5C300.9,341.1,300.9,340.3,300.9,339.9z"/><path fill="#FFFFFF" d="M309.3,334.7l-1.2,5.7c0.5-0.1,1.1-0.3,1.7-0.4c0.6-0.2,1.2-0.2,1.7-0.2c1.3,0,2.4,0.3,3.1,0.9c0.8,0.6,1,1.5,1,2.7c0,0.6,0,1.2-0.3,1.7c-0.1,0.6-0.6,1.2-0.9,1.6c-0.5,0.5-1.1,0.9-1.7,1.2c-0.8,0.3-1.7,0.5-2.5,0.5c-1.7,0-2.7-0.3-3.5-1s-1.2-1.8-1.2-3.2c0-0.3,0-0.5,0-0.8s0-0.6,0-0.8s0-0.6,0.2-0.8c0-0.3,0-0.5,0.1-0.6c0,0,0-0.2,0-0.3s0-0.4,0.2-0.8c0-0.3,0.1-0.6,0.1-1s0.2-0.8,0.3-1.2c0.2-0.9,0.5-1.9,0.6-3.1L309.3,334.7L309.3,334.7z M313.5,343.7c0-0.6-0.2-1.2-0.6-1.7c-0.5-0.5-1.1-0.6-2-0.6c-0.6,0-1.2,0-1.7,0.1c-0.6,0.1-1,0.3-1.5,0.5c0,0.1,0,0.3,0,0.6c0,0.2,0,0.3,0,0.6s0,0.3,0,0.6c0,0.2,0,0.3,0,0.5c0,0.5,0,0.8,0.2,1c0,0.3,0.3,0.6,0.5,0.8c0.1,0.2,0.4,0.5,0.8,0.6c0.3,0.1,0.8,0.1,1.2,0.1c0.6,0,1.1,0,1.5-0.3c0.5-0.2,0.8-0.5,1.1-0.6c0.3-0.3,0.4-0.6,0.6-0.9C313.3,344.4,313.5,344,313.5,343.7z M319.2,347.8h-2.1l2.9-13.2h2.1L319.2,347.8z"/><path fill="#FFFFFF" d="M344,338c0,0.1,0,0.3,0,0.6s0,0.5-0.2,0.8c0,0.3,0,0.6-0.1,0.8c0,0.3,0,0.5-0.2,0.6l-1.6,7.3h-2.1l1.7-7.8c0-0.1,0-0.3,0.1-0.5c0-0.1,0-0.3,0-0.6c0-0.3,0-0.3,0-0.5s0-0.3,0-0.3c0-0.6-0.1-1.2-0.5-1.7c-0.3-0.4-0.8-0.6-1.3-0.6c-0.3,0-0.6,0-1,0.1c-0.3,0.2-0.6,0.3-1,0.6c-0.3,0.3-0.6,0.6-0.9,0.9c-0.3,0.5-0.6,0.8-0.9,1.2c-0.3,0.5-0.4,0.8-0.6,1.2s-0.3,0.8-0.5,1.2l-1.3,6.4h-2.1l1.7-7.8c0-0.1,0-0.3,0.1-0.5c0-0.1,0-0.3,0-0.6c0-0.2,0-0.3,0-0.5s0-0.3,0-0.3c0-0.6-0.1-1.2-0.5-1.7c-0.3-0.4-0.8-0.6-1.3-0.6c-0.3,0-0.6,0-1,0.1c-0.5,0.2-0.8,0.3-1,0.6c-0.3,0.1-0.6,0.6-1.1,0.9c-0.4,0.3-0.6,0.8-0.9,1.2c-0.3,0.5-0.5,0.8-0.6,1.2s-0.3,0.8-0.4,1.2l-1.4,6.4h-2.1l2.1-9.4c0-0.3,0.1-0.6,0.1-1.1c0-0.4,0.2-0.8,0.2-1s0.2-0.6,0.2-0.9c0-0.3,0-0.6,0.1-0.8h2.1c0,0.3,0,0.6-0.2,1c0,0.5-0.2,0.8-0.2,1s-0.1,0.8-0.1,1l0,0c0.3-0.6,0.6-1,1-1.3c0.3-0.5,0.8-0.8,1.2-1.2c0.5-0.3,0.9-0.6,1.2-0.8c0.4-0.2,0.9-0.3,1.3-0.3c0.6,0,1.1,0,1.4,0.3c0.5,0.2,0.8,0.5,1,0.6c0.3,0.3,0.5,0.6,0.6,1.1c0.1,0.4,0.2,0.9,0.3,1.3c0.3-0.4,0.6-0.9,1-1.3c0.5-0.5,0.8-0.8,1.2-1.1c0.4-0.3,0.9-0.6,1.3-0.8c0.5-0.1,1.1-0.3,1.5-0.3c1.2,0,2,0.3,2.6,1C343.5,336.2,344,336.8,344,338z"/><path fill="#FFFFFF" d="M350.5,334.7l-1.2,5.7c0.6-0.1,1.1-0.3,1.7-0.4c0.6-0.2,1.2-0.2,1.8-0.2c1.5,0,2.7,0.3,3.5,0.9c0.8,0.6,1.2,1.5,1.2,2.7c0,0.6-0.2,1.2-0.3,1.7c-0.2,0.6-0.6,1.2-1.1,1.6c-0.4,0.5-1,0.9-1.8,1.2s-1.6,0.5-2.7,0.5c-1.6,0-2.8-0.3-3.6-1s-1.2-1.8-1.2-3.2c0-0.3,0-0.5,0-0.8s0-0.6,0-0.8s0-0.6,0.1-0.8c0-0.3,0-0.5,0.2-0.6c0,0,0-0.2,0-0.3s0-0.4,0.2-0.8c0-0.1,0.1-0.6,0.1-1s0.1-0.8,0.3-1.2c0.2-0.9,0.5-1.9,0.6-3.1L350.5,334.7L350.5,334.7z M355.2,343.7c0-0.6-0.2-1.2-0.6-1.7s-1.2-0.6-2.1-0.6c-0.6,0-1.4,0-2,0.1s-1.2,0.3-1.6,0.5c0,0.1,0,0.3,0,0.6c0,0.2,0,0.3,0,0.6s0,0.3,0,0.6c0,0.2,0,0.3,0,0.5c0,0.5,0,0.8,0.1,1c0,0.3,0.3,0.6,0.6,0.8c0.3,0.2,0.6,0.5,0.9,0.6c0.3,0.1,0.8,0.1,1.4,0.1c0.6,0,1.2,0,1.6-0.3c0.5-0.2,0.8-0.5,1.2-0.6c0.3-0.3,0.4-0.6,0.6-0.9C355,344.4,355.2,344,355.2,343.7z"/><rect x="612.4" y="89.1" fill="none" width="98.7" height="39.4"/><rect x="573" y="89.1" fill="#F03B4C" width="39.4" height="39.4"/><path fill="#FFFFFF" d="M597.9,108.5c-0.3,0.3-0.8,0.6-1.1,1c-1.5,1.6-3,3.3-4.7,4.8c-0.8,0.8-1.5,1.5-2.5,2c-0.6,0.3-1,0.5-1.7,0.1c-0.9-0.1-1.3-1-1.3-2.1c0-1,0.5-2.1,0.9-3c0.6-1.3,1.2-2.7,1.9-4c0.8-1.6,1.5-3.3,2.3-5c0.2-0.6,0.3-1.2,0.6-1.7c0-0.1,0-0.1,0-0.3l0,0c-0.2,0.1-0.5,0.3-0.6,0.6c-0.8,1-1.5,2.1-2.4,3.2c-0.9,1.2-1.7,2.3-2.4,3.4c-0.3,0.5-0.9,0.9-1.3,1.2c-1.1,0.6-2.1,0-2.4-1.1c-0.3-0.9,0-1.5,0.3-2.3c0.6-1.2,1.2-2.3,1.8-3.4c0.3-0.6,0.6-1.2,0.4-1.8c0-0.4-0.1-0.8-0.6-1c-0.3-0.2-0.6-0.2-0.9,0c-0.6,0.3-1,0.8-1.5,1.3c-0.1,0.3-0.4,0.3-0.8,0.2c-0.3-0.2-0.4-0.5-0.1-0.9c0.6-0.9,1.2-1.5,2.3-2c1-0.5,1.9,0,2.5,1c0.5,0.8,0.6,1.5,0.3,2.4c-0.1,0.8-0.6,1.5-0.9,2.3c-0.5,0.9-0.9,1.8-1.4,2.5c-0.1,0.3-0.1,0.8-0.1,1.1c0,0.1,0,0.3,0.1,0.4c0,0,0.3,0,0.3-0.1c0.4-0.5,0.9-0.9,1.2-1.4c1.1-1.3,2-2.8,2.9-4.3c0.4-0.8,1-1.3,1.6-2.1c0.3-0.5,0.8-0.8,1.4-0.9c0.9-0.2,1.6,0.6,1.8,1.5c0,0.6,0,1.3-0.3,2c-0.5,1.4-1.1,2.7-1.5,3.9c-0.9,2-1.8,4.1-2.7,6c-0.3,0.8-0.4,1.5-0.8,2.3c0,0.2,0,0.3,0,0.6c0.3-0.1,0.6-0.3,0.8-0.5c1.1-0.8,1.8-1.7,2.7-2.5c1.3-1.5,2.7-3,4-4.4c0.5-0.4,1.1-0.9,1.7-1.2c1.2-0.5,2.3,0.1,2.6,1.3c0.1,0.6,0,1,0,1.7c-0.3,1.3-0.9,2.7-1.5,4c-0.5,1.2-0.9,2.4-1.4,3.6c-0.1,0.3-0.1,0.6-0.1,1c0,0.2,0,0.3,0.1,0.3c0.3,0,0.6,0,0.9-0.1c0.9-0.3,1.5-0.9,2.1-1.5c0.5-0.5,0.9-0.9,1.4-1.4c0.3-0.3,0.8-0.3,1,0s0.6,0.6,0.9,0.9c0.3,0.3,0.3,0.6,0,0.9c-1.2,1.2-2.4,2.4-3.8,3.2c-1.1,0.6-2.1,0.9-3.2,0.4c-1.5-0.4-2.3-1.6-1.8-3.3c0.3-1.2,0.8-2.4,1.2-3.8c0.6-1.4,1.2-2.7,1.8-4.2C597.8,108.8,597.8,108.6,597.9,108.5C597.9,108.6,597.9,108.5,597.9,108.5z"/><path fill="#FFFFFF" d="M627.2,106h-0.9v-0.9l0,0c-0.3,0.6-0.9,0.9-1.7,0.9c-0.4,0-0.9-0.2-1.2-0.5c-0.3-0.3-0.5-0.6-0.5-1.2c0-1,0.6-1.5,1.8-1.7l1.5-0.1c0-0.9-0.3-1.4-1.1-1.4c-0.6,0-1.2,0.2-1.6,0.6v-0.9c0.1-0.2,0.4-0.2,0.8-0.3c0.3-0.1,0.8-0.1,1-0.1c1.2,0,1.8,0.6,1.8,2V106L627.2,106z M626.4,103.5l-1.2,0.1c-0.4,0-0.8,0.2-0.9,0.3c-0.2,0.1-0.3,0.3-0.3,0.8c0,0.3,0,0.4,0.3,0.6c0.1,0.2,0.4,0.2,0.8,0.2c0.4,0,0.8-0.2,1-0.5c0.3-0.3,0.5-0.6,0.5-1.2v-0.3H626.4z"/><path fill="#FFFFFF" d="M633.2,106h-0.9v-2.4h-2.7v2.4h-0.9v-5.3h0.9v2.3h2.7v-2.3h0.9V106z"/><path fill="#FFFFFF" d="M637.7,101.5h-2.1v4.5h-0.9v-5.3h2.8L637.7,101.5L637.7,101.5z"/><path fill="#FFFFFF" d="M642.2,106h-0.8v-4.5h-1.2c-0.1,1.7-0.3,2.7-0.8,3.5c-0.3,0.8-0.8,1.2-1.3,1.2c-0.2,0-0.3,0-0.5,0v-0.8c0.2,0,0.2,0,0.5,0c0.8,0,1.2-1.5,1.5-4.7h2.7C642.2,100.8,642.2,106,642.2,106z"/><path fill="#FFFFFF" d="M648.2,106h-0.8v-4l-2.7,4h-0.9v-5.3h0.8v4l2.7-4h0.9V106L648.2,106z"/><path fill="#FFFFFF" d="M654.3,106h-0.8v-4l-2.7,4H650v-5.3h0.8v4l2.7-4h0.9V106L654.3,106z M653.8,98.3c0,0.1,0,0.5-0.2,0.6c0,0.1-0.1,0.3-0.3,0.4c-0.2,0.2-0.3,0.2-0.6,0.3c-0.2,0-0.5,0.1-0.8,0.1c-0.3,0-0.5,0-0.8-0.1c-0.2,0-0.5-0.2-0.6-0.3c-0.1-0.1-0.3-0.3-0.3-0.4c0-0.2-0.2-0.5-0.2-0.6h0.9c0,0.1,0,0.3,0,0.3c0,0.2,0,0.2,0.2,0.3c0.1,0.1,0.1,0.1,0.3,0.1s0.3,0,0.5,0s0.3,0,0.4,0c0.2,0,0.2-0.1,0.3-0.1c0,0,0.1-0.1,0.1-0.3s0-0.2,0-0.3H653.8L653.8,98.3z"/><path fill="#FFFFFF" d="M659.4,105.9c-0.5,0.2-0.9,0.3-1.3,0.3c-0.5,0-0.9-0.2-1.2-0.3c-0.3-0.1-0.8-0.6-0.9-0.9c-0.1-0.5-0.3-0.9-0.3-1.4c0-0.9,0.3-1.5,0.8-2.1c0.4-0.6,1.2-0.8,1.9-0.8c0.5,0,0.9,0,1.2,0.3v0.9c-0.5-0.3-0.8-0.5-1.2-0.5c-0.6,0-1,0.2-1.3,0.6c-0.3,0.3-0.4,0.9-0.4,1.5c0,0.6,0.1,1.2,0.4,1.5c0.3,0.3,0.8,0.6,1.2,0.6c0.5,0,0.9-0.1,1.2-0.5L659.4,105.9L659.4,105.9z"/><path fill="#FFFFFF" d="M664.9,106h-1.2l-2.3-2.5l0,0v2.5h-0.9v-5.3h0.9v2.4l0,0l2.3-2.4h1.2l-2.4,2.5L664.9,106z"/><path fill="#FFFFFF" d="M670.2,106h-0.8v-4l-2.7,4h-0.9v-5.3h0.8v4l2.7-4h0.9V106L670.2,106z"/><path fill="#FFFFFF" d="M676.2,106h-0.8v-4l-2.7,4h-0.9v-5.3h0.8v4l2.7-4h0.9V106L676.2,106z M675.9,98.3c0,0.1,0,0.5-0.2,0.6c0,0.1-0.2,0.3-0.3,0.4c-0.1,0.2-0.3,0.2-0.6,0.3c-0.2,0-0.4,0.1-0.8,0.1c-0.3,0-0.4,0-0.8-0.1c-0.3-0.2-0.4-0.2-0.6-0.3c-0.2-0.1-0.3-0.3-0.3-0.4c0-0.2-0.1-0.5-0.1-0.6h0.9c0,0.1,0,0.3,0,0.3s0,0.2,0.2,0.3c0.2,0.2,0.2,0.2,0.3,0.2s0.3,0,0.4,0s0.3,0,0.5,0s0.1-0.1,0.3-0.1c0,0,0.2-0.2,0.2-0.3c0-0.1,0-0.1,0-0.3L675.9,98.3L675.9,98.3z"/><path fill="#FFFFFF" d="M628.2,115c0,0.5,0,1-0.3,1.3c-0.2,0.5-0.5,0.8-0.9,0.9c-0.3,0.2-0.8,0.3-1.2,0.3c-0.8,0-1.4-0.3-1.8-0.9c-0.4-0.6-0.6-1.4-0.6-2.4c0-2.1,0.5-3.5,1.5-3.9c0.2,0,0.5-0.1,0.6-0.1c0.2,0,0.5-0.1,0.8-0.1c0.3,0,0.5,0,0.8-0.2c0.2,0,0.5-0.2,0.6-0.2v0.8c-0.2,0-0.3,0.2-0.6,0.2c-0.1,0-0.4,0-0.8,0.2c-0.1,0-0.4,0-0.8,0.1c-0.1,0-0.4,0.1-0.6,0.1c-0.6,0.3-0.9,1.1-0.9,2.3l0,0c0.2-0.3,0.5-0.4,0.8-0.6c0.3-0.2,0.6-0.2,1.1-0.2c0.4,0,0.9,0.2,1.2,0.3c0.3,0.1,0.6,0.4,0.9,0.9C628.1,114.1,628.2,114.6,628.2,115z M627.3,115.2c0-0.6-0.2-1-0.5-1.3s-0.8-0.6-1.2-0.6c-0.8,0-1.2,0.3-1.6,1v0.5c0,0.8,0.1,1.2,0.4,1.6c0.3,0.5,0.8,0.6,1.2,0.6c0.4,0,0.9-0.1,1.2-0.5C627.2,116.1,627.3,115.6,627.3,115.2z"/><path fill="#FFFFFF" d="M633.6,115.2h-3.8c0,0.6,0.2,1,0.5,1.3s0.8,0.5,1.2,0.5c0.5,0,1.2-0.2,1.7-0.6v0.8c-0.5,0.3-1,0.5-1.8,0.5s-1.4-0.2-1.8-0.8c-0.4-0.6-0.6-1.2-0.6-2c0-0.5,0-1,0.3-1.4c0.2-0.4,0.5-0.8,0.9-1c0.3-0.2,0.8-0.3,1.2-0.3c0.8,0,1.2,0.2,1.6,0.6c0.3,0.5,0.6,1,0.6,1.8V115.2L633.6,115.2z M632.7,114.5c0-0.5-0.1-0.9-0.3-1.2c-0.2-0.3-0.6-0.5-1-0.5c-0.5,0-0.8,0.2-1.1,0.5c-0.3,0.3-0.4,0.6-0.4,1.2H632.7L632.7,114.5z"/><path fill="#FFFFFF" d="M638.3,116.3c0,0.5-0.2,0.9-0.6,1.2c-0.5,0.3-0.9,0.5-1.5,0.5c-0.8,0-1.2,0-1.7-0.3v-0.9c0.4,0.3,1.1,0.3,1.7,0.3c0.9,0,1.3-0.3,1.3-0.9s-0.4-0.9-1.5-0.9h-0.4v-0.8h0.4c0.9,0,1.3-0.3,1.3-0.9c0-0.1,0-0.5-0.3-0.6c-0.2-0.1-0.5-0.1-0.9-0.1s-1,0.1-1.5,0.3v-0.6c0.6-0.1,1.2-0.3,1.7-0.3c1.2,0,1.9,0.5,1.9,1.3c0,0.3,0,0.6-0.3,0.8c-0.2,0.2-0.5,0.3-0.8,0.5l0,0c0.4,0,0.8,0.1,0.9,0.4C638.1,115.6,638.3,115.8,638.3,116.3z"/><path fill="#FFFFFF" d="M646.7,114.9c0,0.9-0.2,1.7-0.6,2.1c-0.5,0.5-1.1,0.8-1.8,0.8s-1.2-0.3-1.5-0.9l0,0v3.1h-0.9v-7.6h0.9v0.9l0,0c0.4-0.8,1.1-1,1.8-1c0.6,0,1.2,0.2,1.5,0.8C646.5,113.4,646.7,114,646.7,114.9z M645.8,114.8c0-0.6-0.2-1-0.4-1.4c-0.3-0.3-0.6-0.4-1.2-0.4c-0.5,0-0.9,0.1-1.2,0.4c-0.3,0.3-0.4,0.8-0.4,1.2v0.9c0,0.5,0.2,0.8,0.4,1.2c0.3,0.3,0.6,0.5,1.1,0.5c0.4,0,0.9-0.1,1.2-0.6C645.6,116.1,645.8,115.5,645.8,114.8z"/><path fill="#FFFFFF" d="M652.1,115.2h-3.8c0,0.6,0.1,1,0.4,1.3c0.3,0.3,0.8,0.5,1.2,0.5c0.6,0,1.2-0.2,1.7-0.6v0.8c-0.4,0.3-1,0.5-1.8,0.5s-1.4-0.2-1.8-0.8c-0.4-0.5-0.6-1.2-0.6-2c0-0.5,0-1,0.3-1.4c0.2-0.4,0.5-0.8,0.9-1c0.3-0.2,0.8-0.3,1.2-0.3c0.8,0,1.2,0.2,1.6,0.6c0.5,0.5,0.6,1,0.6,1.8L652.1,115.2L652.1,115.2z M651.2,114.5c0-0.5-0.2-0.9-0.3-1.2c-0.2-0.3-0.6-0.5-1-0.5s-0.8,0.2-1.1,0.5c-0.3,0.3-0.4,0.6-0.4,1.2H651.2L651.2,114.5z"/><path fill="#FFFFFF" d="M656.1,113.1H654v4.5h-0.9v-5.3h2.8L656.1,113.1L656.1,113.1z"/><path fill="#FFFFFF" d="M661.7,117.6h-0.8v-4.1l-2.7,4.1h-0.9v-5.3h0.8v4l2.7-4h0.9V117.6L661.7,117.6z"/><path fill="#FFFFFF" d="M666.8,117.5c-0.4,0.2-0.9,0.3-1.3,0.3c-0.5,0-0.9-0.1-1.2-0.3s-0.8-0.6-0.9-0.9c-0.2-0.4-0.3-0.9-0.3-1.3c0-0.9,0.3-1.5,0.8-2.1c0.4-0.5,1.2-0.8,1.9-0.8c0.5,0,0.9,0,1.2,0.3v0.9c-0.5-0.3-0.8-0.5-1.2-0.5c-0.6,0-1,0.1-1.3,0.6c-0.3,0.3-0.4,0.9-0.4,1.5c0,0.6,0.2,1.2,0.4,1.5c0.3,0.3,0.8,0.6,1.2,0.6c0.4,0,0.9-0.2,1.2-0.5L666.8,117.5L666.8,117.5z"/><path fill="#FFFFFF" d="M671.3,113.1h-1.5v4.5h-0.9v-4.5h-1.5v-0.8h4.1L671.3,113.1L671.3,113.1z"/><path fill="#FFFFFF" d="M677.1,114.9c0,0.9-0.2,1.7-0.6,2.1s-1.1,0.8-1.8,0.8s-1.2-0.3-1.5-0.9l0,0v3.1h-0.9v-7.6h0.9v0.9l0,0c0.5-0.8,1.1-1,1.8-1c0.6,0,1.2,0.2,1.5,0.8C676.9,113.4,677.1,114,677.1,114.9z M676.2,114.8c0-0.6-0.1-1-0.4-1.4c-0.3-0.3-0.6-0.4-1.2-0.4c-0.5,0-0.9,0.1-1.2,0.4c-0.3,0.3-0.5,0.8-0.5,1.2v0.9c0,0.5,0.2,0.8,0.5,1.2c0.3,0.3,0.6,0.5,1,0.5s0.9-0.1,1.2-0.6C676.1,116.1,676.2,115.5,676.2,114.8z"/><path fill="#FFFFFF" d="M681.9,117.6H681v-0.9l0,0c-0.3,0.6-0.9,0.9-1.7,0.9c-0.4,0-0.9-0.2-1.2-0.5c-0.3-0.3-0.5-0.6-0.5-1.2c0-1.1,0.6-1.5,1.8-1.7l1.5-0.2c0-0.9-0.3-1.3-1.1-1.3c-0.6,0-1.2,0.2-1.6,0.6v-0.9c0.1-0.1,0.4-0.1,0.8-0.3c0.3-0.2,0.8-0.2,1-0.2c1.2,0,1.8,0.6,1.8,2V117.6L681.9,117.6z M681,114.9l-1.2,0.2c-0.5,0-0.8,0.2-0.9,0.3s-0.3,0.3-0.3,0.8c0,0.3,0,0.5,0.3,0.6c0.2,0.1,0.4,0.1,0.8,0.1c0.4,0,0.8-0.1,1-0.5c0.3-0.3,0.5-0.6,0.5-1.2v-0.3C681.2,114.9,681,114.9,681,114.9z"/><path fill="#FFFFFF" d="M688.5,119.5h-0.8v-2h-4.3v-5.3h0.9v4.5h2.7v-4.5h0.9v4.5h0.8L688.5,119.5L688.5,119.5z"/><path fill="#FFFFFF" d="M694.1,117.6h-0.8v-4.1l-2.7,4.1h-0.9v-5.3h0.8v4l2.7-4h0.9V117.6L694.1,117.6z"/><path fill="#FFFFFF" d="M700.1,117.6h-0.8v-4.1l-2.7,4.1h-0.9v-5.3h0.8v4l2.7-4h0.9V117.6L700.1,117.6z"/></g></svg>