<svg version="1.1" xmlns="http://www.w3.org/2000/svg" x="0px" y="0px" viewBox="0 0 640 360" enable-background="new 0 0 640 360"><rect id="XMLID_1_" fill="#45668E" width="640" height="360"/><path fill="#FEFEFE" d="M302.5,187.7c15,0,34.6-3.3,34.1,14.8c-0.4,17-19.7,14.7-34.2,14.7L302.5,187.7L302.5,187.7z M302.5,142.7c11.6,0,27.1-2.4,26.8,12.2c-0.3,14.5-14.2,12.7-26.8,12.7V142.7L302.5,142.7z M343,174.1c0.5-0.8,2-1.3,2.9-1.8c7.5-4.5,12.2-11.6,13-20.9c1.2-13.2-4.8-21-12.9-25.4c-9.5-5.1-22.3-4.9-34.1-4.9H273v118c15.2,0.1,30.5,0,45.7,0c15.2,0,24.4-1.2,36.1-9.8c7.8-5.8,14.3-18.3,11.6-33.1c-1.7-9.3-7.8-15.9-15.2-19.2C349.9,176.4,343.4,174.3,343,174.1L343,174.1z"/></svg>
