<svg version="1.1" xmlns="http://www.w3.org/2000/svg" x="0px" y="0px" viewBox="0 0 88 31" enable-background="new 0 0 88 31">
<path fill="#000000" d="M13.976,2c3.636,0,6.732,1.27,9.286,3.807c1.222,1.222,2.151,2.62,2.786,4.19C26.682,11.569,27,13.236,27,15c0,1.78-0.314,3.447-0.94,5.002c-0.627,1.555-1.552,2.929-2.774,4.121c-1.269,1.253-2.708,2.213-4.318,2.879C17.359,27.667,15.695,28,13.977,28s-3.362-0.328-4.933-0.987c-1.571-0.657-2.979-1.609-4.225-2.855s-2.194-2.65-2.844-4.214S1,16.734,1,15c0-1.718,0.329-3.37,0.986-4.956S3.6,7.038,4.853,5.784C7.329,3.262,10.37,2,13.976,2z M14.023,4.345c-2.971,0-5.471,1.037-7.499,3.111c-1.022,1.037-1.807,2.202-2.356,3.494c-0.55,1.292-0.824,2.643-0.824,4.051c0,1.393,0.274,2.736,0.824,4.027c0.55,1.293,1.335,2.446,2.356,3.46c1.021,1.014,2.174,1.787,3.459,2.322c1.284,0.534,2.631,0.801,4.039,0.801c1.393,0,2.742-0.27,4.052-0.812c1.308-0.542,2.487-1.323,3.54-2.345c2.027-1.981,3.04-4.465,3.04-7.452c0-1.439-0.263-2.801-0.789-4.086c-0.525-1.285-1.292-2.429-2.297-3.436C19.478,5.39,16.964,4.345,14.023,4.345z M13.86,12.842l-1.742,0.906c-0.186-0.386-0.414-0.658-0.685-0.813c-0.271-0.154-0.522-0.232-0.755-0.232c-1.16,0-1.741,0.766-1.741,2.298c0,0.696,0.147,1.253,0.441,1.671c0.294,0.418,0.728,0.627,1.3,0.627c0.758,0,1.292-0.372,1.602-1.114l1.601,0.813c-0.34,0.635-0.813,1.134-1.416,1.497c-0.603,0.364-1.269,0.546-1.996,0.546c-1.161,0-2.098-0.355-2.809-1.068c-0.712-0.712-1.068-1.702-1.068-2.971c0-1.238,0.36-2.221,1.079-2.948c0.719-0.727,1.629-1.091,2.728-1.091C12.011,10.961,13.164,11.588,13.86,12.842z M21.359,12.842l-1.718,0.906c-0.186-0.386-0.414-0.658-0.685-0.813c-0.271-0.154-0.531-0.232-0.778-0.232c-1.161,0-1.742,0.766-1.742,2.298c0,0.696,0.147,1.253,0.441,1.671c0.294,0.418,0.727,0.627,1.3,0.627c0.758,0,1.292-0.372,1.601-1.114l1.625,0.813c-0.355,0.635-0.836,1.134-1.439,1.497c-0.604,0.364-1.261,0.546-1.973,0.546c-1.177,0-2.116-0.355-2.82-1.068c-0.705-0.712-1.057-1.702-1.057-2.971c0-1.238,0.36-2.221,1.08-2.948c0.719-0.727,1.628-1.091,2.727-1.091C19.532,10.961,20.678,11.588,21.359,12.842z"></path>
<path fill="#000000" d="M43.977,2c3.651,0,6.732,1.253,9.239,3.761C55.738,8.283,57,11.363,57,15c0,3.653-1.239,6.693-3.715,9.123C50.654,26.708,47.551,28,43.977,28c-3.514,0-6.562-1.277-9.146-3.831C32.277,21.615,31,18.56,31,15c0-3.559,1.277-6.639,3.831-9.239C37.338,3.253,40.386,2,43.977,2z M44.023,4.345c-2.956,0-5.455,1.037-7.498,3.111c-2.121,2.167-3.181,4.682-3.181,7.545c0,2.879,1.052,5.371,3.157,7.474c2.105,2.105,4.612,3.157,7.521,3.157c2.894,0,5.417-1.059,7.568-3.18c2.043-1.965,3.064-4.449,3.064-7.452c0-2.956-1.037-5.47-3.11-7.544C49.471,5.382,46.964,4.345,44.023,4.345z M47.506,11.773v5.316H46.02v6.314h-4.04v-6.314h-1.485v-5.316c0-0.232,0.081-0.429,0.243-0.592c0.163-0.162,0.36-0.244,0.592-0.244h5.34c0.217,0,0.41,0.081,0.58,0.244C47.42,11.344,47.506,11.541,47.506,11.773z M42.189,8.431c0-1.222,0.603-1.834,1.811-1.834s1.811,0.611,1.811,1.834c0,1.207-0.604,1.811-1.811,1.811S42.189,9.637,42.189,8.431z"></path>
<path fill="#000000" d="M73.977,2.228c3.637,0,6.716,1.262,9.24,3.784C85.738,8.519,87,11.59,87,15.228s-1.239,6.686-3.715,9.146c-2.615,2.569-5.718,3.854-9.308,3.854c-3.514,0-6.562-1.277-9.146-3.831C62.277,21.844,61,18.787,61,15.228c0-3.544,1.277-6.616,3.831-9.216C67.354,3.489,70.402,2.228,73.977,2.228z M74.024,4.572c-2.956,0-5.456,1.044-7.499,3.134c-2.121,2.152-3.181,4.659-3.181,7.521c0,2.895,1.052,5.386,3.157,7.475c2.105,2.105,4.612,3.157,7.522,3.157c2.894,0,5.416-1.06,7.567-3.18c2.043-1.981,3.064-4.464,3.064-7.452c0-2.971-1.037-5.478-3.11-7.521C79.486,5.617,76.979,4.572,74.024,4.572z M78.922,12.163v2.228h-9.448v-2.228H78.922z M78.922,16.342v2.227h-9.448v-2.227H78.922z"></path>
</svg>