<svg version="1.1" xmlns="http://www.w3.org/2000/svg" xmlns:xlink="http://www.w3.org/1999/xlink" x="0px" y="0px" viewBox="0 0 640 336" enable-background="new 0 0 640 336" xml:space="preserve"><rect fill="#2787F5" width="640" height="336"/><path fill="#FFFFFF" d="M253.6,112h-20.6c-5.9,0-7.1,2.8-7.1,5.8c0,5.5,7,32.6,32.5,68.4c17,24.5,40.9,37.8,62.7,37.8c13.1,0,14.7-2.9,14.7-8v-18.5c0-5.9,1.2-7.1,5.4-7.1c3.1,0,8.3,1.5,20.5,13.3c13.9,14,16.2,20.3,24.1,20.3h20.6c5.9,0,8.8-2.9,7.1-8.8c-1.9-5.8-8.5-14.2-17.3-24.2c-4.8-5.7-12-11.8-14.2-14.9c-3.1-3.9-2.2-5.7,0-9.2c0,0,25.1-35.4,27.7-47.4c1.3-4.4,0-7.6-6.2-7.6h-20.6c-5.2,0-7.6,2.8-8.9,5.8c0,0-10.5,25.6-25.3,42.2c-4.8,4.8-7,6.3-9.6,6.3c-1.3,0-3.2-1.5-3.2-5.9v-40.9c0-5.2-1.5-7.6-5.9-7.6h-32.3c-3.3,0-5.2,2.4-5.2,4.7c0,5,7.4,6.1,8.2,20.1v30.4c0,6.7-1.2,7.9-3.8,7.9c-7,0-23.9-25.7-34-55.1C260.9,114.3,258.9,112,253.6,112z"/></svg>
