<svg version="1.1" xmlns="http://www.w3.org/2000/svg" x="0px" y="0px" width="640px" height="336px" viewBox="0 0 640 336" enable-background="new 0 0 640 336"><rect fill="#BF4131" width="640" height="336"/><g><path fill="#722B2D" d="M270.4,84.6l0.5-2.2c6.2-1.2,12.8-1.8,19-3c5.6-1.1,13.2-3.2,18.4-3.7l-10.1,2.9c-0.3,0.1-1.8,0.4-1.8,0.4c-0.2,0-0.3,0.1-0.5,0.1l-1.8,0.9c13.4,1.9,22.9-0.4,34.1-6.9c2.7-1.6,6.2-4.6,8.2-5.4c-1.7,11.5-3.9,15.2-2,28c2.2-2.6,0.6-1.7,1.8-1.2l0.3,2.6l2.6-0.6c1.1,3-0.4,2.4-2.3,3.5l1,10.7c2.6-6.5,1.7-7.8,6.1-12.8c-2.3,10.2-4.7,15.9-4.7,27.5c1-0.3,0.6,1.4,0.9-1.2c0.2-2.3,2-19.6,4.5-21.4c5.1-2.2,6.6,3.8,6.3,8.3c1.2-1,4.7-7.5,5.1-9c0.8,7.9-6.5,20.1-9.4,25.5c-3.6,6.9-7.6,19.6-6.8,28.8c5.1,2.3,8.8,4.5,13.1,7.5c6.8,4.6,5.3,4,6.9,14.2c9.3-1.4,13.1-9.7,14.4-19.3c0.8-6.3,0.6-26.6,3.5-30.3l-0.3,6.5c1.8-2,5.5-20.2,6.1-22.7c2.9-12.4,9.1-32.4-6.2-42.6c-6.2-4.2-12.7-7.2-22.1-4.5l-6.4-6.4c-1.4-1-2.1-0.8-3-1.5c-2.1-1.7-0.1-1.7-4.6-3.8c-15.4-7.3-28.9-6-45.1-3.2C280,53,264.8,62.7,266.8,82.9c0.6,0.3,0.6,0.4,1.4,0.8C269.9,84.6,268.8,84.1,270.4,84.6L270.4,84.6z"/><path fill="#EBCAA7" d="M297.5,132.1c2,0.1,1.3-0.2,2-0.7l-2.5-0.5c0.4-0.1,1.5-0.2,1.9-0.1c1.5,0.2,0.3-0.1,1.5,0.8c2.4,0.3,0.7,0.1,1.4-0.7c-2.8-0.7-1.5-0.1-1.1-0.7c2.8-0.4,0.9-0.3,1.9,0.8c1.2,0.4,0.9,0.6,0.9-0.6c-1.8-1.4-1.6,0.3-0.4-0.7c1.1-0.9,0.7-0.1,1.1,0.5v0.3c0.9-0.3,0.7,0,0.6-0.9c0.2-0.1,0.5-0.2,0.6-0.2c0,0-0.1,0.1-0.1,0s-0.1,0-0.2,0.1l-0.3,0.1h0.3c-0.9-0.7-2.1-0.5,2.3-2c0.1,3-6.9,11.5-12.4,12.4c-7.7,1.3-12.9-3.6-13.6-10.2c2.2,0.4,3.8,1.5,7.6,1.7C294,131.8,295.9,130,297.5,132.1L297.5,132.1z M336.9,100.2c-4.5,1-8.6,2.9-12.6,4.5c-2.9,1.1-6.2,5.5-11.1,5c-0.1,0.1-0.3,0.2-0.5,0.2c-0.1,0.1-0.3,0.2-0.5,0.2c-2.6,1.1,2-0.5-0.9,0.4c-3.3,1-9.2,0.4-12.4-1.3c-3.7-2-4.3-7.1-9.2-6.3c-3.5,4.3-1.3,6.7-8.1,8.8c-4.2,1.3-9.9,0.9-13.7-0.7c-1.6,11.7,3.6,20.3,7.9,28.2c2.2,4,3.5,8,6.1,11.9c3.4,5,6.6,4.1,13.1,5.1c1.6-0.4,3.8-0.9,5.5-1.7c0.2,2.9,1.4,8-0.4,10.8c-1.6,2.5-4.2,4.3-5.1,7.9c-0.8,2.9,0.2,21.5,1.4,23.3c-1.3-0.5-0.9-0.7-0.9,0.7c1.2-0.1,1.1,0.3,0.9-0.7c2.3-0.1,10-3.4,11.3-5.2l-0.8,0.1c4.5-6.3,8.7-18.5,10.3-21.5l7.3-12.1c-1-2.1-2.2-1.7-2.4-5.6c-0.1-2.6,0-5.1,0.4-7.5c-1.2-1-0.7,1.2-0.7-1.8c0-2,1.4-3.3,2.5-4.3l13.9-12.5c0.1-0.1,0.3-0.2,0.3-0.2l0.7-0.4c0-11.5,2.4-17.3,4.7-27.5c-4.4,4.9-3.5,6.3-6.1,12.8L336.9,100.2L336.9,100.2z"/><path fill="#9DB47E" d="M343.7,205.6l1.8,25.6c-1.3,1.4-4.4,4.7-6,5.4L343.7,205.6L343.7,205.6z M316.5,187.6l2.7-0.3c3.3,3.2,6.3,17.5,8.9,23.1c2.5,0.2,3.1-0.5,4.2,1.6c1.6,3.2,1.9,11.1-0.3,13.3c-1-0.1-0.8-0.3-0.4,0.7l0.4-0.7c1.3,0.8,0.7,0.1,1.4,1.4c0.1,0.2,0.4,1.4,0.5,1.7l1.6,9.8c-0.5,1.2,0.7,1.2-1.4,0.6l-0.4-0.9l0.4,0.9c-0.9,1.4-2.4,1.2-4,2c-1.5,0.5,0.2,0.7-2-0.7c0.5,2.4,1,0.5-1,1.7c0,0-1.9,0.7-2.1,0.8c-1.5,0.5-3,1.2-4.7,1.5l-0.1,13.2l18.2-4.5c0.3,0.8,0.4,1.5,0.6,2c1.2,2.9,0.1,1.1,1.7,2.2c1.5-3-0.9-3,1.1-4.8c4.9-2,10.1-1.2,16.5-7.1c8.5-7.8,2.3-55.7,1.6-66.7c-1.5-10.2-0.1-9.6-6.9-14.2c-4.4-3-8.1-5.1-13.1-7.5c-1.5-0.4-2.7-1-3.6-1.8c0.6,5.8,0.1,24.2-1.3,29.6c-4.5-1.2-7.2-5.6-11.9-7.7C322.4,179,318.5,184.8,316.5,187.6L316.5,187.6z"/><path fill="#9DB47E" d="M281.1,289.8c3,1.4,9.4,3.6,12.8,4.1l1.7-4.3l1,1.5c4.4,9.1,20.9,1.6,28.9,1l1.5-0.9l0.6,0.2l1.3-0.7l0.6,0.3c1.4-1.2,17.9-6.5,21.1-7l-7.9-26.9c-4.1,1.4-0.8,1.2-4.2,2.7c-1.2,0.5-3.8,1.2-5.1,1.7c-3.2,1-6.9,2.6-10,2.7l-1.2,0.5c-3,1.5-8.4,3-11.9,4.1l-12.1,3.7l-3.8-8.3l0.8-0.3l-0.8,0.3c-1.1,0.6-2,1.1-3.8,1.1c-0.5-0.8-0.5-1.3-1-2.2c-1-1.8-0.3-0.4-1.3-1.6c-1.9-2.3-1.1-3.2-2.3-6.1c-1.2-2.8-3.1-3.5,1.5-4.8l-0.7-2.4l3.1-1.8l19.2-13.3l-4.1-10.2l-21.6,10c-1.3,1.2-1.7,1.4-3.1,1.8l-8.6-18.9l-0.4-0.3c-1.1,2.2-1.2,15.3-1.3,18.7c-0.2,5.6-1.5,14.8,0.6,19c3.8,1.1,6.1-0.7,10-1c0.7,5,2.1,14.3,2.2,18.9c0.1,7.2-4.5,12.5-4.4,16.7C279.3,288.7,279.6,288.9,281.1,289.8L281.1,289.8z"/><path fill="#414143" d="M275.2,336h49.3v-20.9c-0.1-1.8-0.1-3.8,0-5.6l-0.1-15.8l0.9-1.6c-8,0.6-24.5,8.1-28.9-1l-1-1.5l-1.7,4.3c-3.5-0.5-9.8-2.8-12.8-4.1C277.7,305.2,276,319.9,275.2,336L275.2,336z M327.5,291.5l-0.6-0.2c1,1-0.9,0.9,2.1,0.9C328.2,291.3,328.9,291.8,327.5,291.5L327.5,291.5z M329.4,291.1l-0.6-0.3c0.8,0.8-1.1,0.7,1.9,0.8L329.4,291.1L329.4,291.1z"/><path fill="#696A6D" d="M329.4,291.1l1.3,0.5c-3,0-1,0.1-1.9-0.8l-1.3,0.7c1.4,0.4,0.7-0.2,1.5,0.7c-3-0.1-1.1,0-2.1-0.9l-1.5,0.9l-0.9,1.6l0.1,15.8c-0.1,1.8-0.1,3.8,0,5.6v20.9h33c1.1-8.7,1.5-19.6,0.1-28.3c-0.6-4.2-1.9-8.1-3.1-12.1c-1.2-3.8-3.1-8-4.1-11.5C347.3,284.6,330.8,289.9,329.4,291.1L329.4,291.1z"/><path fill="#EBCAA7" d="M299.9,92.1c-0.1-0.3-0.2-0.3,0.1-0.9c0.3-0.6,0.6-0.8,1-1.1c5.7-4.9,11.8-5.6,18.5-2.4c1.9,0.9,1.8,0.9,2.5,1.8c-3-0.7-8.5-2.3-12.3-1.4C306,88.9,301.9,92.6,299.9,92.1L299.9,92.1z M270.4,84.6l-0.6,5.7c0.7,1.5-0.5,1,0.9,0.3l0.5-0.6l0.6-0.5l0.5-0.5c6.7-3.3,16.1,5.3,10.4,4.2c-0.3-0.1-3.2-2.1-5.8-2.8c-4.8-1.3-4.7,1.3-7.6,2.4l-0.3,0.3l-0.1,4.1l-0.1,1.6c6.6-0.6,10.3,0.4,16.5,1.8c1.1,0.2,8.4,0.3,9.5,0.2c2.3-0.4,3.7-2.3,7.3-2.8c2.2-1,16.7-3.8,20.2-1.8c2.1,1.2,1.1,3.4,1.8,5.5c2.9,0.1,9.9-3.3,12.2-4.5l-0.3-2.6c-1.2-0.5,0.5-1.4-1.8,1.2c-1.9-12.8,0.2-16.5,2-28c-2,0.8-5.5,3.8-8.2,5.4c-11.2,6.5-20.7,8.7-34.1,6.9l1.8-0.9c0.2-0.1,0.3-0.1,0.5-0.1c0,0,1.6-0.4,1.8-0.4l10.1-2.9c-5.3,0.5-12.8,2.6-18.4,3.7c-6.3,1.2-12.8,1.8-19,3L270.4,84.6L270.4,84.6z"/><path fill="#00743C" d="M322.7,215.7c-1.9-5.4-4.8-17.5-7.6-21c-2.5,0.2-16.2,6.7-18.7,8l-0.6,0.3c-3.4,1.1-8,3.5-11,4.9c-9.9,4.6-4,1.9-10,5.9l8.6,18.9l21.6-10l-2.1-6.5c3.4,0.3,10.6,0.7,13,2.3l4.9-1.5l-5-15.4c-0.7-2.1-0.8-3.5-2.2-5c-5.3,0.6-28.4,13.5-36.2,15.8c1.7-2,6.8-3.7,9.1-4.7c3.5-1.5,5.8-2.7,9.3-4.1c6.9-2.9,12.4-6.2,19.2-8.5c0.3,1.9,1.1,3.8,1.7,5.7l0.3,0.8c0,0.1,0.1,0.3,0.1,0.4c0.1,0.4,0.3,0.8,0.4,1.2l3.4,10.1c0.3,0.9,0.5,1.5,1,2.6L322.7,215.7L322.7,215.7z"/><path fill="#F8F7F9" d="M307.7,191.3c2.5-0.1,6.9-2.1,8.7-3.7c2-2.8,5.9-8.6,6.7-11c4.6,2.1,7.3,6.5,11.9,7.7c1.4-5.4,1.9-23.7,1.3-29.6c-0.4-5.9-0.7-4.9-4.9-7.4c-4.5-2.7-3.1-2.2-9-2.5c-0.4,2.4-0.5,4.9-0.4,7.5c0.2,3.9,1.4,3.5,2.4,5.6l-7.3,12.1c-1.6,3-5.7,15.2-10.3,21.5L307.7,191.3L307.7,191.3z"/><path fill="#9DB47E" d="M274.1,207.8c-0.7,0.8-0.7,0.9-0.4,1.7l15.5-7.7C286,201.6,278.2,206.1,274.1,207.8L274.1,207.8z M294.3,197.8c-1.8-0.1-1.1,0.7-1.7-2.6c-0.2-1.1-0.4-2.2-0.6-3.4l-4-19.7c-1.1,0.9-2.9,2.2-4.4,3.3c-0.7-1-0.7,1.4-0.5-1.7c-1.5,2.6,1.3,0.7-1.5,3.5c-2.2,2.2-7.1,7.6-8.2,10.5c-0.8,2.4-2.5,20.1-1.8,22c0.8-1.3-0.8,0.2,1-1.3c1.6-1.2,0-0.3,1.6-0.8l0.7-0.4C279.1,204.9,292.6,199.6,294.3,197.8L294.3,197.8z M298.3,198.8c-0.7-1.3-0.1-0.8-1.7-1.3l-5.4,2.7c-2.2,0.9,0.2,0.4-2.5,0.7c2,1.2,1.2,0.7,2.4,0.5C292.4,201.3,295.4,198.9,298.3,198.8L298.3,198.8z M298.7,197.9l0.6-0.1l0.6-0.4l0.6-0.1l0.6-0.5h0.6c2.2-2,1.2-0.3,0-1.5l-4.3,1.6C298.4,198.4,297.4,198.1,298.7,197.9L298.7,197.9z M302.9,194.8l-0.4-0.1c1.6,1-0.7,1.1,0.9,0.6C305,194.7,304.3,196,302.9,194.8L302.9,194.8z M306.8,193l-3.1,1.2c0.9,1.3,0.3,1.2,2.6,0.3C309.7,193.1,307.5,193.6,306.8,193L306.8,193z M307.9,192.5l-0.6-0.1c1.6,1-0.7,1.2,0.9,0.6C310,192.4,309.3,193.8,307.9,192.5L307.9,192.5z M309.2,192l-0.5-0.1c1.6,1-0.6,1.1,0.9,0.6C311.4,191.9,310.6,193.3,309.2,192L309.2,192z M313,190.2l-3.1,1.2c0.9,1.3,0.5,1.3,2.7,0.4C316.2,190.3,313.7,190.8,313,190.2L313,190.2z M314.2,189.7l-0.5-0.1c1.4,0.9-0.5,1.2,0.9,0.6C316.2,189.5,315.8,191.1,314.2,189.7L314.2,189.7z M317.8,189.7c-1.7-0.7-0.5-0.4-1.2-0.9l-1.6,0.4C316.4,190.2,314.1,190.4,317.8,189.7L317.8,189.7z"/><path fill="#00743C" d="M318.5,228.4c-0.3,1.6-2.4,2.9-3.9,4.2c-1.5,1.4-2.6,2.7-4.3,3.4l-1.1-3.1L290,246.2l1.2,3.2c6.4-0.3,14.8,1.2,20-1.3c0.8-2.9,1.9-2.8,4.2-4.2c1.9-1.2,3.7-2.8,5.5-3.4l-0.5,3.3c1.6-0.3,3.2-1,4.7-1.5c0.2-0.1,2.1-0.8,2.1-0.8c2-1.2,1.4,0.7,1-1.7l-4.5-14.6L318.5,228.4L318.5,228.4z"/><path fill="#EBCAA7" d="M316.6,188.8c0.6,0.5-0.5,0.1,1.2,0.9l8,22.3c-0.6,0.9-1.1,1.6-1.6,2.2c-1,1.2-0.2,0.6-1.5,1.5l-0.8,0.6c-0.5-1.1-0.7-1.7-1-2.6l-3.4-10.1c-0.1-0.4-0.3-0.8-0.4-1.2c0-0.1-0.1-0.3-0.1-0.4l-0.3-0.8c-0.6-1.9-1.4-3.8-1.7-5.7c-6.8,2.3-12.3,5.5-19.2,8.5c-3.5,1.5-5.8,2.6-9.3,4.1c-2.2,1-7.4,2.7-9.1,4.7c7.8-2.3,30.9-15.2,36.2-15.8c1.4,1.5,1.5,2.9,2.2,5l5,15.4l-4.9,1.5c0.7,3,1.7,8.5,2.6,9.8l5.1-3l4.5,14.6c2.2,1.4,0.5,1.2,2,0.7l-5-15.3c4.5-0.5,5,0.4,6.2,3.8c1,2.8,1.7,5.8,2.5,8.6l0.4,0.9c2.1,0.6,1,0.6,1.4-0.6c-0.3-3.2-2.6-9-4-12.2c-0.4-1-0.6-0.8,0.4-0.7c2.2-2.2,2-10,0.3-13.3c-1.1-2.1-1.7-1.4-4.2-1.6l-1,0.9c-1-1.2-7.1-19.9-8.1-23.1L316.6,188.8L316.6,188.8z"/><path fill="#F8F7F9" d="M295,156.2c-1.1,1.9-2.2,1.9-3.7,3.7c-0.9,1.1-2.3,2.9-3.2,4.2c-1.4,2.1-4.2,7.4-5,9.7c-0.2,3.1-0.2,0.7,0.5,1.7c1.6-1.1,3.3-2.3,4.4-3.3l4,19.7c0.2,1.2,0.4,2.3,0.6,3.4c0.6,3.3-0.1,2.5,1.7,2.6l1.2-0.6c0-1.4-0.3-1.2,0.9-0.7c-1.1-1.7-2.1-20.4-1.4-23.3c0.9-3.6,3.5-5.4,5.1-7.9c1.7-2.8,0.5-7.9,0.4-10.8C298.8,155.3,296.7,155.8,295,156.2L295,156.2z"/><path fill="#EBCAA7" d="M291,249.5l-3.6,1.1c-4.6,1.4-2.7,2-1.5,4.8c1.3,2.9,0.5,3.8,2.3,6.1c1,1.2,0.2-0.2,1.3,1.6c0.5,0.9,0.5,1.3,1,2.2c1.8,0,2.7-0.5,3.8-1.1l0.8-0.3l2.2-0.8c2.1-1.4,4.3-2.3,6.3-3.6c4.8-2.8,2.5-1.6,8.2-1.9c-0.2,1-0.5,0.8,0.5,0.8c0.2-1.2,0.6-1.1-0.5-0.8l-0.8-9.4C305.8,250.8,297.4,249.2,291,249.5L291,249.5z"/><path fill="#570101" d="M296.7,197.5c0-1-0.3-0.9,0.7-0.6l4.3-1.6c0-1.1-0.3-0.9,0.7-0.6l0.4,0.1c0-1.1-0.3-0.9,0.9-0.6l3.1-1.2c0-1-0.3-0.9,0.6-0.6l0.6,0.1c0-1.1-0.3-0.9,0.7-0.6l0.5,0.1c0-1-0.2-0.8,0.8-0.6l3.1-1.2c0-1-0.3-0.9,0.7-0.6l0.5,0.1c0-1.1-0.2-0.8,0.9-0.6l1.6-0.4l2.4-0.6c1,3.2,7.1,22,8.1,23.1l1-0.9c-2.6-5.6-5.6-19.9-8.9-23.1l-2.7,0.3c-1.9,1.6-6.3,3.6-8.7,3.7c-1.3,1.8-8.9,5.1-11.3,5.2c0.2,1,0.3,0.6-0.9,0.7l-1.2,0.6c-1.7,1.8-15.3,7.1-19.3,9.4c0,0.8,0.2,0.6-0.7,0.4l-0.2,0.2c4.1-1.7,11.9-6.2,15.1-6l-15.5,7.7l-2,0.1l-1.9,1.4l1.5,4.4l0.4,0.3l8.6,18.9c1.4-0.4,1.8-0.6,3.1-1.8l-8.6-18.9c5.9-4,0.1-1.3,10-5.9c3-1.4,7.6-3.9,11-4.9l0.6-0.3c1.3-1.3,1.9-0.7,2.7-2.3c0.7-1.2-1.5-1.5,0.2-1c0.1-0.1,0.2-0.2,0.2-0.3l1.6-1.2c0.1-0.1,0.5-0.6,0.6-0.7v-0.5h-0.6c0.3,1,0.4,0.8-0.6,0.5l-0.6,0.1c0.4,1.1,0.5,0.8-0.6,0.4l-0.6,0.1c-0.1,1.1,0.7,0.5-0.4,0.9c-2.9,0.1-6,2.5-7.2,2.7s-0.4,0.7-2.4-0.5c2.6-0.3,0.2,0.2,2.5-0.7L296.7,197.5L296.7,197.5z"/><path fill="#414143" d="M285.2,108.3c-0.9,1.1-1.5,1.7-3.4,1.9c-2,2-6.5,1.5-9.5,1c-4.2-0.7-5.3-1.5-6.8-4.7c0.4-0.8,0.1-1,1.5-1.9c1.5-1,0.9,0.1,2.5-1.4l4.3-1.9c4.1,0,4.9,1.2,7.8,2.6l0.6,0.2c1,1.3,1.3,1.5,2,3l0.3,0.5c1.8-2.5-2.7-5.4-4-6.7C284.3,101.7,288.7,103.6,285.2,108.3L285.2,108.3z M268.9,99c-7.2,2-5,1.8-6.1,8.7c2.6,1.2,2.7,2,5.1,3.3c3.8,1.6,9.6,2.1,13.7,0.7c6.7-2.2,4.6-4.5,8.1-8.8c4.9-0.8,5.5,4.3,9.2,6.3c3.2,1.7,9.1,2.3,12.4,1.3c2.9-0.9-1.6,0.7,0.9-0.4c0.1-0.1,0.3-0.2,0.5-0.2c0.1-0.1,0.3-0.2,0.5-0.2l-0.6-0.4c-3.6,0.4-7.2,1.2-10.7-0.2c-2.1-0.9-4.6-4.3-4.9-6.9c1.3-2,1.9-1.8,4.6-2.9l0.7-1.1c-3.6,0.5-5,2.5-7.3,2.8c-1.1,0.2-8.4,0.1-9.5-0.2C279.2,99.5,275.6,98.4,268.9,99L268.9,99z"/><path fill="#F8F7F9" d="M305,222.8l4.1,10.2l1.1,3.1c1.7-0.8,2.8-2.1,4.3-3.4c1.5-1.3,3.6-2.6,3.9-4.2c-0.9-1.4-1.8-6.9-2.6-9.8c-2.4-1.6-9.6-2-13-2.3L305,222.8L305,222.8z"/><path fill="#570101" d="M320.2,263.4c-2.2-0.3-4.1,0.4-6.6,0.5l-1.3-4.5c-2.6,0.7-5.1,1.7-7.6,2.4c-1.4,0.4-2.7,0.8-4.1,1.2c-2.2,0.6-2,0.9-3.3,0.2l-2.2,0.8l-0.8,0.3l3.8,8.3l12.1-3.7c3.5-1.1,8.9-2.6,11.9-4.1c0-1.4-0.3-1,1.2-0.5c-1.5-0.5-0.9-0.4-2.3,0.1l-0.1-0.6C320.8,263.8,321.5,263.9,320.2,263.4L320.2,263.4z"/><path fill="#F8F7F9" d="M311.1,248.3l0.8,9.4c1-0.3,0.7-0.4,0.5,0.8v0.9l1.3,4.5c2.5-0.1,4.3-0.8,6.6-0.5c0.1-0.1,1-1.3,1-1.4l-1-4.9l0.1-13.2l0.5-3.3c-1.8,0.6-3.6,2.2-5.5,3.4C313,245.5,311.9,245.3,311.1,248.3L311.1,248.3z"/><path fill="#722B2D" d="M313.7,189.6c-1-0.3-0.7-0.4-0.7,0.6c0.7,0.6,3.2,0.1-0.4,1.6c-2.2,0.9-1.8,0.9-2.7-0.4c-1-0.2-0.8-0.5-0.8,0.6c1.4,1.3,2.2-0.1,0.4,0.5c-1.5,0.5,0.6,0.4-0.9-0.6c-1-0.3-0.7-0.5-0.7,0.6c1.4,1.3,2-0.1,0.4,0.5s0.6,0.4-0.9-0.6c-0.9-0.3-0.6-0.3-0.6,0.6c0.7,0.6,2.9,0.1-0.5,1.5c-2.3,0.9-1.7,1-2.6-0.3c-1.1-0.3-0.9-0.5-0.9,0.6c1.4,1.1,2.2-0.1,0.5,0.4c-1.6,0.5,0.7,0.5-0.9-0.6c-1-0.3-0.7-0.5-0.7,0.6c1.2,1.2,2.2-0.5,0,1.5v0.5c0,0.1-0.5,0.6-0.6,0.7l-1.6,1.2c-0.1,0-0.2,0.2-0.2,0.3c-1.7-0.5,0.5-0.2-0.2,1c-0.8,1.5-1.4,1-2.7,2.3l-0.6,0.3l0.6-0.3c2.4-1.3,16.1-7.8,18.7-8c2.8,3.5,5.6,15.5,7.6,21c1.3-1,0.5-0.3,1.5-1.5c0.5-0.6,1-1.3,1.6-2.2l-8-22.3c-3.7,0.8-1.4,0.6-2.8-0.5c-1.1-0.2-0.9-0.5-0.9,0.6c1.7,1.4,2.1-0.2,0.5,0.5C313.2,190.8,315.1,190.5,313.7,189.6L313.7,189.6z M297.4,196.9c-1-0.3-0.7-0.5-0.7,0.6c1.5,0.4,1,0,1.7,1.3c1-0.5,0.3,0.2,0.4-0.9C297.4,198.1,298.4,198.4,297.4,196.9L297.4,196.9z M299.3,197.7c1.1,0.4,1.1,0.7,0.6-0.4L299.3,197.7L299.3,197.7z M300.5,197.2c1,0.3,0.9,0.5,0.6-0.5L300.5,197.2L300.5,197.2z"/><path fill="#EBCAA7" d="M340.2,124.4c3.4-1.4,5.9-1,7.8-3.7c1.6-2.3,2.7-5.7,3-9.3c0.3-4.5-1.1-10.5-6.3-8.3C342.1,104.7,340.4,122.1,340.2,124.4L340.2,124.4z"/><path fill="#722B2D" d="M320.2,257.2l1,4.9c-0.1,0.1-1,1.3-1,1.4c1.3,0.5,0.6,0.4,0.6,0.4l0.1,0.6c1.4-0.6,0.8-0.7,2.3-0.1c-1.4-0.5-1.2-0.9-1.2,0.5l1.2-0.5c3.1-0.1,6.8-1.7,10-2.7c1.3-0.4,3.9-1.2,5.1-1.7c3.5-1.5,0.1-1.2,4.2-2.7c0.3-2.7,0-2.9-0.8-5.2c-2,1.8,0.4,1.8-1.1,4.8c-1.6-1-0.5,0.7-1.7-2.2c-0.2-0.5-0.3-1.2-0.6-2L320.2,257.2L320.2,257.2z"/><path fill="#1E2124" d="M302.3,98.2l-0.7,1.1l3.8-0.9c-0.1,0.2-0.2,0.2-0.3,0.4c-0.1,0.5-3.6,2.4-4.3,4c-1,2.4-0.8,0.9,0.2,1.4c0.5-1,2.3-2.1,3.7-2.8l1.1-0.3c0.8-0.9,0.5-0.9,2.2-1.4c1.5-0.5,2-0.1,2.6,0.2c3.1,1.7,1.2,1.9,3.2,4.2c0.3-3.3-0.6-2.9-1.5-5.2l5.4,1c2-0.4,4-1.9,4.7,0.6c0.3,1.1-0.6,3.6-1.2,4.6c-1.3,2.2-5.3,3.3-8.5,4.2l0.6,0.4c4.9,0.4,8.2-3.9,11.1-5c4-1.6,8.1-3.5,12.6-4.5c2-1.1,3.4-0.5,2.3-3.5l-2.6,0.6c-2.3,1.2-9.3,4.6-12.2,4.5c-0.7-2.1,0.3-4.3-1.8-5.5C319,94.4,304.5,97.1,302.3,98.2L302.3,98.2z"/><path fill="#722B2D" d="M304,130.6c-0.6,1.4-2.7,2.5-4.3,3.2c-6.6,3.3-12.3,2.4-17-2.3c6.1,1,9.2,0.2,14.7,0.6c-1.6-2.2-3.5-0.4-8.8-0.6c-3.7-0.1-5.4-1.3-7.6-1.7c0.8,6.6,6,11.5,13.6,10.2c5.5-0.9,12.5-9.4,12.4-12.4c-4.3,1.6-3.2,1.3-2.3,2v-0.1c0.1,0,0.2-0.1,0.2-0.1h0.1c0,0-0.4,0.2-0.6,0.2C304.8,130.6,304.9,130.3,304,130.6L304,130.6z M303.4,130.4l0.7-0.1c-0.4-0.6,0-1.5-1.1-0.5C301.9,130.7,301.6,129,303.4,130.4L303.4,130.4z M301.7,130.9l0.8,0.1c-1-1,0.9-1.1-1.9-0.8C300.3,130.9,298.9,130.3,301.7,130.9L301.7,130.9z M299.5,131.5l0.9,0.1c-1.2-1,0-0.6-1.5-0.8c-0.4-0.1-1.4,0.1-1.9,0.1L299.5,131.5L299.5,131.5z"/><path fill="#EBCAA7" d="M301.6,99.3c-2.7,1.1-3.3,0.9-4.6,2.9c0.3,2.6,2.8,6,4.9,6.9c3.6,1.4,7.1,0.6,10.7,0.2c3.3-0.9,7.3-2.1,8.5-4.2c0.6-1,1.5-3.5,1.2-4.6c-0.8-2.5-2.7-1-4.7-0.6c1.4,5.9-10.5,14.2-18,6l1.4-1.7c-1-0.6-1.2,1-0.2-1.4c0.6-1.5,4.1-3.5,4.3-4c0.1-0.2,0.2-0.2,0.3-0.4L301.6,99.3L301.6,99.3z"/><path fill="#722B2D" d="M330.1,240.7c1.7-0.9,3.1-0.7,4-2l-0.4-0.9c-0.8-2.8-1.5-5.8-2.5-8.6c-1.2-3.4-1.7-4.2-6.2-3.8L330.1,240.7L330.1,240.7z"/><path fill="#F8F7F9" d="M313.7,104.1c-0.9,2.5-0.5,2.2-2.8,3.4c-4.4,0.5-6.7-1.6-6.2-6.1c-1.4,0.6-3.2,1.7-3.7,2.8l-1.4,1.7c7.5,8.1,19.5-0.1,18-6l-5.4-1C313.1,101.2,313.9,100.8,313.7,104.1L313.7,104.1z"/><path fill="#2A4397" d="M273.9,101.3c-1.6,2.8-2.1,7,2.1,7.8c4.9,0.9,5-3.1,5.8-5.2l0.6,0.2l-0.6-0.2C278.9,102.5,278,101.3,273.9,101.3L273.9,101.3z"/><path fill="#F8F7F9" d="M304.6,129.7l0.3-0.1v0.1H304.6L304.6,129.7z M303.4,130.4c0,1.2,0.3,0.9-0.9,0.6l-0.8-0.1c-0.7,0.8,1,0.9-1.4,0.7l-0.9-0.1c-0.6,0.5,0,0.8-2,0.7c-5.5-0.4-8.6,0.4-14.7-0.6c4.7,4.7,10.3,5.7,17,2.3c1.5-0.8,3.6-1.9,4.3-3.2v-0.3L303.4,130.4L303.4,130.4z"/><path fill="#F8F7F9" d="M269.6,103.2c-0.9,2.9,1.1,5.6,3,6.5c2.9,1.4,6.2,0.8,9.2,0.4c1.9-0.2,2.5-0.8,3.4-1.9c-1,0.8-0.7,0.7-0.5-0.6l-0.3-0.5c-0.7-1.5-1-1.7-2-3l-0.6-0.2c-0.8,2.1-0.9,6.1-5.8,5.2c-4.2-0.8-3.7-5-2.1-7.8L269.6,103.2L269.6,103.2z"/><path fill="#F7A81E" d="M258.5,89.2l-0.8,1c1.6,2,2.9,2,5.3,3.7c1.8,1.3,3.9,2.7,5.9,3.5l0.1-4.1c-2-0.8-0.7-0.2-2.3-1.5c-1.6-1.2-1.2-0.8-2.8-1.7c-1.3-0.7-4-2.6-4.8-3.4L258.5,89.2L258.5,89.2z"/><path fill="#722B2D" d="M299.9,92.1c2,0.6,6.1-3.2,9.8-4.1c3.8-0.9,9.3,0.7,12.3,1.4c-0.7-0.9-0.6-0.9-2.5-1.8c-6.7-3.2-12.9-2.5-18.5,2.4c-0.3,0.3-0.7,0.5-1,1.1C299.6,91.8,299.8,91.8,299.9,92.1L299.9,92.1z"/><path fill="#2A4397" d="M305.8,101.1c0.9,1.9,1,1.9,2,3.3c0.4,0.6,0.8,1.4,1.1,1.7c1.7,1.9,0.5,0.6,2,1.3c2.3-1.3,1.9-0.9,2.8-3.4c-2-2.3-0.1-2.5-3.2-4.2c-0.6-0.3-1-0.7-2.6-0.2C306.2,100.2,306.6,100.2,305.8,101.1L305.8,101.1z"/><path fill="#EBCAA7" d="M281.8,110.2c-3,0.4-6.3,1-9.2-0.4c-1.9-0.9-3.9-3.7-3-6.5c-1.6,1.5-1,0.4-2.5,1.4c-1.4,1-1.1,1.1-1.5,1.9c1.5,3.1,2.6,4,6.8,4.7C275.3,111.7,279.8,112.1,281.8,110.2L281.8,110.2z"/><path fill="#00743C" d="M297.3,263.1c1.3,0.8,1.1,0.4,3.3-0.2c1.4-0.4,2.7-0.8,4.1-1.2c2.6-0.7,5.1-1.7,7.6-2.4v-0.9c-1,0-0.7,0.2-0.5-0.8c-5.7,0.3-3.4-0.9-8.2,1.9C301.6,260.8,299.4,261.8,297.3,263.1L297.3,263.1z"/><path fill="#722B2D" d="M272.4,89.1l-0.5,0.5l-0.6,0.5l-0.5,0.6l-1.2,2.3c2.9-1.2,2.8-3.7,7.6-2.4c2.6,0.7,5.4,2.7,5.8,2.8C288.5,94.4,279.1,85.9,272.4,89.1L272.4,89.1z"/><path fill="#095CAC" d="M310.9,107.5c-1.5-0.7-0.3,0.6-2-1.3c-0.3-0.3-0.7-1.1-1.1-1.7c-1-1.4-1-1.4-2-3.3l-1.1,0.3C304.2,105.9,306.5,108,310.9,107.5L310.9,107.5z"/><path fill="#CD9888" d="M254.9,88.4c0.7-2,0.2-0.8,1.1-1.4c0,0,0.4-0.2,1.1,0.3c2.7,1.8,0.5-0.1,1.5,1.8l0.6-2.4c-2-1.3-2.3-1.8-4.8-2.6c-1.1,0.9-0.9,0.5-1.7,2l1.2,1.1C254.7,88.1,254.1,87.4,254.9,88.4L254.9,88.4z"/><path fill="#EBCAA7" d="M284.7,107.7l-0.3-0.5L284.7,107.7c-0.1,1.3-0.5,1.4,0.5,0.6c3.5-4.7-0.9-6.6-4.6-7.3C282,102.3,286.5,105.2,284.7,107.7L284.7,107.7z"/><polygon fill="#570101" points="287.4,250.6 291,249.5 289.9,246.3 286.7,248.2 "/><path fill="#1E2124" d="M331.6,225.9c1.4,3.1,3.7,8.9,4,12.2l-1.6-9.8c-0.1-0.3-0.4-1.5-0.5-1.7c-0.7-1.3-0.2-0.6-1.4-1.4L331.6,225.9L331.6,225.9z"/><path fill="#696A6D" d="M254.9,88.4l2.9,1.8l0.8-1c-1-1.9,1.2,0.1-1.5-1.8c-0.7-0.5-1.1-0.3-1.1-0.3C255.1,87.6,255.6,86.4,254.9,88.4L254.9,88.4z"/></g></svg>