<svg width="1792" height="1792" viewBox="0 0 1792 1792" xmlns="http://www.w3.org/2000/svg"><path d="M1792,672v112h-768.3c-21-68.8-42.1-136.9-63.4-204.3S917.6,444.2,896,375.4c-21.6,68.8-43,136.9-64.3,204.3S789.3,715.2,768.3,784H329c59.5,45.5,118.4,91,176.8,136.5c58.3,45.5,117.5,90.7,177.6,135.6c-23.3,72.3-46.1,144.2-68.3,215.7s-44.3,143.4-66.5,215.7c58.3-44.9,116.2-89.5,173.7-133.9s115.4-89,173.7-133.9v141.8L336,1792l217-694.8L0,672h686L896,0l210,672H1792z M1008,1008h784v112h-784V1008z M1008,1344h784v112h-784V1344z M1008,1680h784v112h-784V1680z"/></svg>