<?xml version="1.0" encoding="utf-8"?>
<!-- Generator: Adobe Illustrator 19.0.0, SVG Export Plug-In . SVG Version: 6.00 Build 0)  -->
<svg version="1.1" id="Layer_1" xmlns="http://www.w3.org/2000/svg" xmlns:xlink="http://www.w3.org/1999/xlink" x="0px" y="0px"
	 viewBox="0 0 120 120" enable-background="new 0 0 120 120" xml:space="preserve">
<rect id="XMLID_3_" fill="none" width="120" height="120"/>
<circle id="XMLID_2_" fill="#F03B4C" cx="60" cy="60" r="60"/>
<path id="XMLID_1_" fill="#191919" d="M71.7,87.9c-0.9,0-1.8-0.2-2.7-0.4c-3.9-1.3-5.6-4.3-4.7-8.3c0.7-3.2,1.9-6,3-8.9
	c0.9-2,1.7-3.8,2.6-5.9c0.6-1.3,1.1-2.8,1.7-4.2l0,0c-0.6,0.6-1,1-1.6,1.6c-1.3,1.3-2.7,2.8-4,4.2c-2.2,2.3-4.4,4.8-6.8,7.1
	c-1.7,1.7-3.7,3.6-6.2,4.7c-1.4,0.7-3,1-4.3,0.6c-2.6-0.7-3.9-2.7-3.7-5.6c0.2-2.3,0.9-4.7,2-7.1c1-2.1,2-4.3,3-6.6
	c0.6-1,1-2.2,1.6-3.2l1.1-2.7c1.3-3,2.8-6.1,4.2-9.2c0.3-0.9,0.7-1.9,0.9-2.8c0.1-0.3,0.1-0.7,0.3-1c-0.1,0.2-0.3,0.3-0.4,0.7
	c-1.8,2.6-3.4,5-5.3,7.6c-0.4,0.9-1.1,1.6-1.7,2.3c-1.3,1.8-2.8,3.8-4.2,5.9c-0.9,1.1-2,2-3.1,2.8c-1.1,0.7-2.6,0.9-3.7,0.3
	c-1.2-0.4-2.2-1.7-2.7-3c-0.7-2.1,0-4.3,0.9-5.9c0.7-1.4,1.4-2.9,2.2-4.3c0.7-1.1,1.3-2.6,2-3.7c0.7-1.3,1.3-2.7,1.1-4.2
	c0-0.9-0.4-1.7-1.1-2.2c-0.3-0.3-0.9-0.3-1.4,0c-1.6,0.7-2.6,1.9-3.3,3c-0.7,0.9-1.6,1.1-2.3,0.7c-0.4-0.3-0.9-0.9-1-1.1
	c-0.2-0.6,0-1,0.3-1.6c1.6-2.3,3.3-3.8,5.6-4.7c2.6-1,5,0,6.7,2.6c1.1,1.8,1.3,3.8,0.9,5.9c-0.7,1.8-1.3,3.7-2.2,5.3
	c-0.4,1-1,2.2-1.4,3.1c-0.4,1-1,2.2-1.4,3.2C42,53.4,42,54.1,41.8,55v0.1c0,0,0,0.1,0.2,0.3c0.2,0,0.2-0.1,0.3-0.1
	c0.3-0.3,0.6-0.6,0.9-0.9c0.9-0.9,1.6-1.7,2.2-2.6c1.1-1.9,2.6-3.7,3.7-5.3c1-1.7,2.2-3.1,3.2-4.8c1.3-1.9,2.4-3.6,3.9-5
	c1.2-1.3,2.3-2,3.4-2.3c1.1-0.1,2.2,0.1,3.2,0.9c1,0.9,1.6,2,1.7,3.2c0.1,1.7,0,3.1-0.7,4.8l-0.3,1c-1,2.8-2.2,5.7-3.3,8.6
	c-1,2.3-2.2,4.7-3.2,7.1c-1,2.3-2.1,4.7-3.1,7.1c-0.4,1.3-1,2.9-1.3,4.2c-0.2,0.3-0.2,0.9-0.3,1.2c0,0.1,0,0.1,0,0.3
	c0.3-0.2,0.7-0.3,1-0.7c2.3-1.7,4.3-3.8,6.3-6c3-3.3,6.3-7,9.7-10.3c1.1-1.3,2.7-2.3,4.1-2.9c1.6-0.7,3-0.4,4.2,0.2
	c1.2,0.7,2,1.9,2.3,3.3c0.3,1.4,0,3-0.1,4c-0.7,2.7-1.7,5.3-2.7,7.7c-0.3,0.7-0.4,1.3-0.9,2c-1.3,3.3-2.3,6-3.3,8.6
	c-0.2,0.4-0.2,1-0.3,1.4c0,0.3-0.1,0.6-0.1,0.9h0.1c0.6,0,1.2,0,1.6-0.1c1.8-0.7,3.3-2.2,4.8-3.6c1-1,2-2,3-2.9l0.2-0.1
	c1-1,2-1,3.1,0c0.9,0.7,1.6,1.3,2.2,2c0.4,0.4,0.7,1,0.7,1.4c0,0.4-0.9,1-1.4,1.3l-0.3,0.3c-2.7,2.7-5.3,5.3-8.8,7.2
	C75,87.3,73.3,87.9,71.7,87.9z"/>
</svg>
