<?xml version="1.0" encoding="utf-8"?>
<!-- Generator: Adobe Illustrator 19.0.0, SVG Export Plug-In . SVG Version: 6.00 Build 0)  -->
<svg version="1.1" id="Layer_1" xmlns="http://www.w3.org/2000/svg" xmlns:xlink="http://www.w3.org/1999/xlink" x="0px" y="0px"
	 viewBox="0 0 120 120" enable-background="new 0 0 120 120" xml:space="preserve">
<g id="XMLID_3_">
	<path id="XMLID_12_" fill="#F03B4C" d="M120,90c0,16.5-13.5,30-30,30H30c-16.5,0-30-13.5-30-30V30C0,13.5,13.5,0,30,0h60
		c16.5,0,30,13.5,30,30V90z"/>
</g>
<path id="XMLID_90_" fill="#191919" d="M75,96c-1.1,0-2.2-0.2-3.3-0.5C67,93.8,65,90.1,65.9,85c0.8-4,2.4-7.8,3.9-11.5l0.1-0.1
	c1.1-2.5,2.1-5.1,3.2-7.6c0.7-1.8,1.5-3.6,2.2-5.4c0.1-0.3,0.2-0.7,0.3-1c0-0.1,0.1-0.3,0.1-0.4h0c-0.3,0.3-0.7,0.6-1,1
	c-0.7,0.6-1.4,1.3-2,2c-1.7,1.9-3.5,3.7-5.2,5.6c-2.9,3.1-5.8,6.2-8.8,9.3c-2.1,2.2-4.6,4.6-7.8,6.1c-1.9,0.9-3.6,1.2-5.3,0.7
	c-3-0.8-4.6-3.3-4.4-6.9c0.2-3.3,1.3-6.5,2.5-9.3c1.2-2.9,2.6-5.9,3.9-8.7c0.6-1.3,1.2-2.7,1.8-4c0.6-1.4,1.2-2.7,1.8-4.1
	c1.7-3.7,3.4-7.6,5.1-11.4c0.5-1.2,0.8-2.4,1.2-3.7c0.1-0.6,0.3-1.1,0.5-1.7c0.1-0.2,0.1-0.5,0.1-0.7c0,0,0-0.1,0-0.1
	c-0.1,0.1-0.2,0.2-0.3,0.3c-0.4,0.4-0.8,0.8-1.1,1.2c-2.3,3.3-4.7,6.6-7,9.9c-0.7,0.9-1.3,1.9-2,2.8c-1.8,2.6-3.7,5.2-5.6,7.7
	c-1.1,1.4-2.5,2.6-4.1,3.6c-1.4,0.9-2.9,1-4.3,0.5c-1.5-0.6-2.7-2-3.3-3.8c-0.8-2.8,0-5.2,1-7.3c0.9-1.9,1.9-3.9,2.9-5.7
	c0.8-1.5,1.6-3.1,2.4-4.7c0.8-1.7,1.7-3.6,1.5-5.7c-0.1-1.3-0.6-2.4-1.6-3.2c-0.6-0.5-1.3-0.5-2.4,0c-1.6,0.8-3,2-4.5,4
	c-0.7,1-1.7,1.3-2.6,0.8c-0.6-0.3-0.9-0.8-1.1-1.4c-0.1-0.5,0-1.1,0.3-1.6c1.9-3,4.1-5,6.9-6c3.2-1.2,6-0.1,8.1,3.2
	c1.4,2.3,1.7,4.8,0.9,7.4c-0.7,2.4-1.7,4.7-2.7,6.8c-0.7,1.4-1.4,2.8-2.1,4.2c-0.7,1.3-1.3,2.6-1.9,4c-0.4,1-0.6,2.1-0.7,3.1
	c0,0.3,0.2,0.7,0.4,1c0.1,0,0.6-0.2,0.7-0.3c0.3-0.3,0.6-0.6,0.9-0.9c1.1-1.1,2.1-2.2,3-3.5c1.6-2.4,3.3-4.9,4.8-7.3
	c1.3-2,2.6-4.1,4-6.1c1.5-2.2,3.1-4.4,4.9-6.5c1.4-1.6,2.8-2.5,4.4-2.8c1.3-0.2,2.6,0.1,3.6,0.9c1.2,0.9,1.9,2.4,2.1,4
	c0.2,2.1-0.1,4.2-0.8,6.1c-1.5,4.1-3,8.3-4.7,12.3c-1.3,3.1-2.7,6.3-4.1,9.4c-1.3,3-2.7,6.2-4.1,9.3c-0.7,1.7-1.2,3.5-1.7,5.2
	c-0.2,0.6-0.3,1.2-0.5,1.9c-0.1,0.3-0.1,0.6-0.1,1c0,0.1,0,0.1,0,0.2c0.2-0.1,0.3-0.2,0.5-0.3c0.5-0.3,1-0.6,1.4-0.9
	c3.1-2.3,5.8-5.3,8.1-7.9c3.7-4.1,8.1-9,12.5-13.6c1.6-1.7,3.3-2.9,5.2-3.7c1.8-0.7,3.6-0.7,5.1,0.1c1.5,0.8,2.5,2.3,2.9,4.3
	c0.4,1.8,0.1,3.6-0.2,5.1c-0.7,3.5-2.1,6.8-3.4,9.9c-0.4,0.9-0.7,1.8-1.1,2.7c-1.4,3.6-2.8,7.2-4.2,11.2c-0.2,0.6-0.3,1.3-0.4,2
	c-0.1,0.4-0.1,0.7-0.2,1c0,0.2,0,0.3,0.1,0.4c0.1,0.1,0.2,0.1,0.3,0.1c0.9,0,1.7-0.1,2.4-0.3c2.5-1,4.4-2.8,6.3-4.6c1-1,2-2,2.9-2.9
	c0.4-0.4,0.8-0.8,1.2-1.2c1.2-1.3,2.3-1.3,3.6,0c0.8,0.8,1.8,1.8,2.7,2.7c0.5,0.5,0.8,1,0.8,1.6c0,0.5-0.2,1.1-0.7,1.5l-0.5,0.5
	c-3.4,3.4-6.9,6.9-11.2,9.3C79.2,95.4,77.1,96,75,96z"/>
</svg>
