<svg version="1.1" xmlns="http://www.w3.org/2000/svg" xmlns:xlink="http://www.w3.org/1999/xlink" x="0px" y="0px" viewBox="0 0 16 16" enable-background="new 0 0 16 16" xml:space="preserve"><rect id="XMLID_3_" fill="none" width="16" height="16"/><path id="XMLID_5_" d="M11.054,15c-0.233,0-0.462-0.036-0.691-0.108c-0.988-0.316-1.437-1.081-1.231-2.1c0.159-0.784,0.485-1.514,0.802-2.219c0.226-0.505,0.436-0.987,0.646-1.471c0.151-0.347,0.301-0.694,0.454-1.04c0.002-0.005,0.005-0.011,0.007-0.016c-0.138,0.122-0.276,0.245-0.412,0.376c-0.354,0.354-0.707,0.712-1.06,1.07c-0.583,0.592-1.187,1.204-1.795,1.793c-0.422,0.414-0.945,0.88-1.621,1.177c-0.401,0.185-0.768,0.232-1.119,0.146c-0.649-0.162-0.994-0.675-0.947-1.406c0.028-0.608,0.225-1.168,0.512-1.821c0.251-0.556,0.518-1.113,0.777-1.652c0.13-0.27,0.259-0.539,0.387-0.81L6.08,6.252c0.369-0.771,0.738-1.544,1.094-2.321c0.102-0.221,0.173-0.467,0.24-0.704c0.024-0.084,0.048-0.168,0.073-0.251c-0.052,0.049-0.1,0.098-0.139,0.15c-0.466,0.639-0.94,1.279-1.414,1.911C5.79,5.228,5.647,5.42,5.504,5.612C5.147,6.092,4.777,6.588,4.39,7.063C4.155,7.341,3.861,7.584,3.537,7.766C3.23,7.945,2.89,7.978,2.581,7.858C2.256,7.732,2.004,7.45,1.889,7.085C1.705,6.52,1.904,6.011,2.097,5.63c0.185-0.363,0.388-0.726,0.583-1.079c0.172-0.309,0.344-0.618,0.508-0.931c0.167-0.324,0.329-0.672,0.302-1.046c-0.013-0.23-0.114-0.417-0.303-0.556c-0.1-0.073-0.22-0.071-0.408,0.013c-0.393,0.173-0.673,0.476-0.894,0.75C1.716,3,1.478,3.065,1.267,2.952C1.129,2.873,1.04,2.763,1.011,2.639C0.983,2.521,1.009,2.398,1.086,2.282C1.465,1.699,1.944,1.3,2.509,1.095C3.187,0.85,3.82,1.082,4.247,1.734c0.297,0.447,0.367,0.959,0.201,1.48C4.293,3.691,4.078,4.151,3.888,4.538C3.759,4.802,3.619,5.064,3.479,5.326c-0.14,0.262-0.28,0.525-0.409,0.789c-0.076,0.159-0.099,0.339-0.124,0.53L2.938,6.702C2.936,6.721,2.952,6.761,2.981,6.797c0.026-0.009,0.057-0.023,0.068-0.034c0.069-0.071,0.136-0.138,0.204-0.204c0.204-0.202,0.415-0.411,0.584-0.641c0.322-0.449,0.638-0.904,0.954-1.36C5.07,4.155,5.35,3.75,5.637,3.349c0.329-0.451,0.664-0.871,0.998-1.247c0.302-0.329,0.597-0.509,0.931-0.568c0.285-0.052,0.575,0.022,0.811,0.205c0.249,0.194,0.406,0.489,0.43,0.81C8.846,2.97,8.791,3.366,8.642,3.756L8.549,3.995c-0.275,0.701-0.56,1.427-0.87,2.122C7.41,6.717,7.131,7.311,6.852,7.905C6.571,8.503,6.291,9.101,6.021,9.703c-0.149,0.337-0.253,0.7-0.354,1.053c-0.028,0.098-0.056,0.196-0.085,0.294c-0.008,0.023-0.012,0.049-0.015,0.078c0.095-0.051,0.178-0.097,0.248-0.148c0.61-0.439,1.138-0.986,1.65-1.516c0.804-0.845,1.668-1.747,2.542-2.614c0.326-0.332,0.689-0.575,1.076-0.723c0.394-0.149,0.791-0.136,1.115,0.036c0.314,0.167,0.536,0.471,0.627,0.857c0.083,0.368,0.02,0.738-0.043,1.02c-0.156,0.678-0.438,1.325-0.712,1.951c-0.071,0.165-0.143,0.329-0.213,0.495c-0.349,0.848-0.614,1.509-0.86,2.144c-0.043,0.112-0.063,0.235-0.085,0.365c-0.011,0.07-0.023,0.139-0.038,0.207l0.059,0.015c0.147-0.005,0.298-0.01,0.414-0.057c0.491-0.188,0.887-0.537,1.27-0.875c0.264-0.235,0.526-0.488,0.779-0.733l0.064-0.062c0.283-0.268,0.546-0.269,0.822-0.008c0.2,0.185,0.374,0.347,0.549,0.524c0.113,0.115,0.173,0.245,0.172,0.376c-0.001,0.123-0.057,0.241-0.159,0.341l-0.103,0.098c-0.694,0.658-1.41,1.34-2.309,1.799C11.938,14.874,11.488,15,11.054,15z"/></svg>