<svg version="1.1" xmlns="http://www.w3.org/2000/svg" xmlns:xlink="http://www.w3.org/1999/xlink" x="0px" y="0px" viewBox="0 0 512 512" enable-background="new 0 0 512 512"><rect fill="#25D366" width="512" height="512"/><path fill="#FFFFFF" d="M194.226,350.63l4.173,2.473c17.533,10.405,37.635,15.908,58.134,15.919h0.045c62.954,0,114.192-51.226,114.216-114.184c0.01-30.512-11.858-59.199-33.423-80.784c-21.566-21.58-50.239-33.473-80.752-33.486c-63.002,0-114.239,51.218-114.263,114.176c-0.008,21.574,6.027,42.586,17.462,60.764l2.718,4.321l-11.541,42.135L194.226,350.63z M118.002,394.602l19.495-71.186c-12.025-20.834-18.351-44.468-18.341-68.678c0.029-75.745,61.671-137.369,137.424-137.369c36.759,0.016,71.261,14.322,97.207,40.289c25.943,25.967,40.225,60.483,40.214,97.191c-0.032,75.741-61.687,137.376-137.42,137.376c-0.006,0,0.003,0,0,0h-0.059c-22.998-0.008-45.597-5.777-65.668-16.724L118.002,394.602z"/><linearGradient id="SVGID_1_" gradientUnits="userSpaceOnUse" x1="-8.2017" y1="506.5311" x2="-1.7745" y2="506.5311" gradientTransform="matrix(0 -41.6418 -41.6418 0 21348.8398 48.2998)"><stop offset="0" style="stop-color:#20B038"/><stop offset="0.0493" style="stop-color:#25D366"/><stop offset="1" style="stop-color:#25D366"/></linearGradient><path fill="url(#SVGID_1_)" d="M123.892,254.81c-0.008,23.37,6.098,46.187,17.709,66.302l-18.822,68.722l70.326-18.44c19.376,10.559,41.192,16.133,63.394,16.14h0.057c73.115,0,132.627-59.496,132.659-132.619c0.014-35.437-13.773-68.754-38.821-93.824c-25.044-25.067-58.352-38.879-93.844-38.895c-73.119,0-132.631,59.489-132.663,132.615 M256.555,387.532h0.001H256.555C256.554,387.532,256.552,387.532,256.555,387.532"/><linearGradient id="SVGID_2_" gradientUnits="userSpaceOnUse" x1="-8.0117" y1="506.7203" x2="-1.5845" y2="506.7203" gradientTransform="matrix(0 -43.1345 -43.1345 0 22113.1055 49.0517)"><stop offset="0" style="stop-color:#F9F9F9"/><stop offset="1" style="stop-color:#FFFFFF"/></linearGradient><path fill="url(#SVGID_2_)" d="M119.154,254.77c-0.008,24.21,6.318,47.847,18.342,68.678L118,394.63l72.849-19.101c20.072,10.946,42.669,16.714,65.668,16.724h0.059c75.733,0,137.388-61.635,137.42-137.376c0.013-36.71-14.27-71.225-40.214-97.191c-25.947-25.965-60.447-40.273-97.207-40.289c-75.749,0-137.392,61.624-137.424,137.369 M162.534,319.859l-2.719-4.319c-11.435-18.18-17.47-39.192-17.462-60.764c0.025-62.955,51.261-114.176,114.263-114.176c30.51,0.012,59.183,11.906,80.752,33.486c21.566,21.581,33.433,50.271,33.425,80.78c-0.028,62.958-51.265,114.184-114.22,114.184h-0.045c-20.499-0.012-40.602-5.514-58.134-15.918l-4.173-2.473l-43.232,11.334L162.534,319.859z M256.576,392.253h0.001H256.576C256.575,392.253,256.573,392.253,256.576,392.253"/><path fill="#FFFFFF" d="M222.231,197.333c-2.573-5.718-5.279-5.833-7.726-5.933c-2.002-0.085-4.293-0.08-6.58-0.08c-2.29,0-6.01,0.859-9.156,4.295c-3.148,3.436-12.019,11.742-12.019,28.635c0,16.895,12.306,33.219,14.02,35.512c1.717,2.289,23.755,38.065,58.653,51.828c29.006,11.438,34.908,9.163,41.204,8.59c6.295-0.572,20.316-8.303,23.176-16.322c2.862-8.017,2.862-14.889,2.004-16.324c-0.858-1.431-3.148-2.29-6.582-4.006c-3.435-1.717-20.316-10.025-23.462-11.171c-3.148-1.144-5.437-1.716-7.728,1.722c-2.289,3.433-8.865,11.165-10.869,13.456c-2.002,2.295-4.006,2.581-7.44,0.864c-3.435-1.723-14.494-5.345-27.613-17.041c-10.208-9.101-17.099-20.34-19.103-23.778c-2.002-3.433-0.214-5.293,1.508-7.005c1.543-1.539,3.435-4.009,5.152-6.013c1.713-2.005,2.285-3.436,3.429-5.727c1.146-2.292,0.573-4.297-0.285-6.015c-0.859-1.717-7.532-18.697-10.585-25.487"/></svg>
