<svg version="1.1" xmlns="http://www.w3.org/2000/svg" xmlns:xlink="http://www.w3.org/1999/xlink" x="0px" y="0px" width="72px" height="72px" viewBox="0 0 72 72" enable-background="new 0 0 72 72" xml:space="preserve"><path fill="#333333" d="M36,0C16.2,0,0,16.2,0,36s16.2,36,36,36s36-16.2,36-36S55.8,0,36,0z"/><path fill="#FFFFFF" d="M43.3,35.6c-0.5,0.5-1,0.9-1.5,1.4c-2.2,2.3-4.4,4.6-6.6,6.9C34.1,45,33,46,31.5,46.7c-0.8,0.4-1.6,0.6-2.4,0.3c-1.4-0.3-2.1-1.5-2-3.1c0.1-1.5,0.6-2.9,1.2-4.3c0.9-2,1.8-3.9,2.7-5.9c1.1-2.4,2.2-4.8,3.3-7.2c0.3-0.8,0.5-1.7,0.8-2.5c0.1-0.2,0-0.3,0.1-0.5l-0.1-0.1c-0.3,0.3-0.6,0.5-0.8,0.8c-1.1,1.5-2.2,3.1-3.3,4.6c-1.2,1.6-2.3,3.3-3.6,4.9c-0.5,0.6-1.2,1.2-1.9,1.6c-1.4,0.8-2.9,0.1-3.4-1.5c-0.4-1.2,0-2.2,0.5-3.3c0.8-1.6,1.7-3.2,2.5-4.8c0.4-0.8,0.8-1.7,0.7-2.7c0-0.6-0.3-1.2-0.8-1.5c-0.4-0.3-0.8-0.2-1.2,0c-0.9,0.4-1.6,1.1-2.2,1.9c-0.3,0.4-0.7,0.5-1.1,0.3c-0.5-0.3-0.6-0.7-0.3-1.2c0.8-1.2,1.8-2.2,3.2-2.7c1.5-0.6,2.8,0.1,3.7,1.4c0.7,1,0.8,2.2,0.4,3.3c-0.3,1.1-0.8,2.1-1.3,3.1c-0.6,1.3-1.3,2.5-1.9,3.8c-0.2,0.5-0.3,1-0.3,1.5c0,0.2,0.1,0.4,0.3,0.6c0.1,0.1,0.4-0.1,0.5-0.2c0.6-0.7,1.3-1.3,1.9-2.1c1.4-2,2.8-4.1,4.2-6.2c0.7-1,1.5-2,2.3-3c0.5-0.6,1.2-1.1,2-1.3c1.3-0.2,2.5,0.8,2.6,2.2c0.1,1,0,1.9-0.4,2.8c-0.7,1.9-1.4,3.8-2.2,5.7c-1.2,2.9-2.6,5.7-3.9,8.6c-0.5,1-0.7,2.2-1,3.3c-0.4,0.3-0.4,0.6-0.4,0.9c0.4-0.3,0.8-0.4,1.1-0.6c1.4-1.1,2.6-2.4,3.9-3.7c1.9-2.1,3.9-4.2,5.9-6.3c0.7-0.7,1.5-1.3,2.4-1.7c1.7-0.7,3.3,0.2,3.7,1.9c0.2,0.8,0.1,1.5-0.1,2.3c-0.5,2-1.4,3.9-2.1,5.8c-0.7,1.7-1.4,3.4-2,5.1c-0.2,0.5-0.2,1-0.3,1.4c-0.1,0.2,0.1,0.4,0.3,0.4c0.4,0,0.8,0,1.2-0.2c1.2-0.5,2.1-1.3,3-2.1c0.7-0.6,1.3-1.3,2-1.9c0.6-0.5,1-0.5,1.5,0c0.4,0.4,0.9,0.8,1.3,1.2c0.4,0.4,0.4,0.9,0,1.3c-1.7,1.7-3.4,3.4-5.5,4.5c-1.4,0.8-3,1.2-4.6,0.6c-2.2-0.7-3.1-2.4-2.7-4.7c0.4-1.9,1.1-3.6,1.9-5.3c0.9-2,1.7-4,2.5-6c0.1-0.2,0.1-0.5,0.2-0.7C43.4,35.7,43.4,35.6,43.3,35.6z"/></svg>