<svg version="1.1" xmlns="http://www.w3.org/2000/svg" x="0px" y="0px" width="640px" height="480px" viewBox="0 0 640 480" enable-background="new 0 0 640 480"><rect fill="#1AB7EA" width="640" height="480"/><path fill="#FFFFFF" d="M410.9,197.3c-0.8,17.7-13.1,42.1-37.1,73.1C348.9,302.9,328,319,310.9,319c-10.6,0-19.5-9.8-26.9-29.5c-3.3-11.9-8.2-30.1-14.7-54.2c-5.4-19.6-11.2-29.5-17.5-29.5c-1.3,0-6,2.8-14.2,8.6l-8.6-11c1.7-1.6,5.8-5.2,12-10.9c6.3-5.6,11.1-9.9,14.6-13c11.6-10.3,20.6-15.8,26.9-16.4c7.1-0.7,12.8,1.3,17.1,6.3c4.3,4.8,7.4,12.5,9.1,23c3.3,21.5,5.8,35.4,7.4,42c4.1,18.7,8.6,28.1,13.4,28.1c3.7,0,9.5-6,17.3-18.1c7.5-12.1,11.6-21.3,12.2-27.6c0.9-10.5-3.1-15.6-12.2-15.6c-4.3,0-8.7,0.9-13.5,3c9-29.5,26.1-43.8,51.3-42.9C403.3,161.3,412.1,173.5,410.9,197.3z"/></svg>