<svg version="1.1" xmlns="http://www.w3.org/2000/svg" x="0px" y="0px" width="640px" height="480px" viewBox="0 0 640 480" enable-background="new 0 0 640 480"><linearGradient id="SVGID_1_" gradientUnits="userSpaceOnUse" x1="320" y1="480" x2="320" y2="-1.436638e-008"><stop offset="0" style="stop-color:#30496C"/><stop offset="1" style="stop-color:#253853"/></linearGradient><rect fill="url(#SVGID_1_)" width="640" height="480"/><g><path fill="#C9D900" d="M387.7,267.1c8.6,0,21.5-0.2,28.6,2.2c6.4,2.1,10.2,5.5,11,12.6c2.2,24.6-26.3,20.3-44,20.1c-10.2,0-25.7,2.4-35.9,4.2c-5,0.7-10.2,1.6-15.1,3c-2.4,0.6-4.7,1-7.1,1.8c-4,0.9-6.2,1.6-10.1,1.2c-0.6-0.9-0.9-1.8-1.4-2.4c-1.8-2.6-2.8-3.8-3.8-7.1c-1-3.7-1.4-9.2-0.3-13c0.7-2.6,3.3-7.8,5.4-9.4c9.2-7,21-9.5,32.8-11.1c9.4-1.4,19-2.1,28.6-2.1L387.7,267.1L387.7,267.1z M401.4,159.4c6.6-0.6,14.1,0.3,19.9,2.2c3.4,1,4.3,2.2,4.7,6.4c0.3,3.4,0.6,7.1,0.3,10.6c-0.2,2.4-0.6,8-2.1,9.2c-0.9,0.9-6.4,2.6-8.2,3c-10.1,2.8-30.3,4-39.5-0.2c-2.8-1.4-3.4-3.7-4.2-7c-0.3-1.2-1-3.3-1-4.5c-0.2-1.8-0.3-3.7-0.2-5.4c0.3-6.8,4.9-8.3,11.4-11C388.4,160.6,394.6,159.8,401.4,159.4z M366.4,166.7c0.3,2.8,3,4.9,4.2,12.3c1.8,12-0.3,22.9-9.5,30.7c-4.9,4-9.4,7.4-16.3,8.3c-6.2,0.7-8.9-0.9-13.4-3.1c-0.9-0.3-2.1-0.6-2.6-1.6c-0.3-1-0.9-1.8-1.6-2.4l-3.1-3.1c-0.3-0.3-0.7-0.7-1-1l-1.8-2.2c-1.4-1.8-4.2-6.1-4-8.3l-0.3-0.2c-0.6,1.8-3.1,8.6-4,10.2c-0.9,1.8-1.6,3-2.1,5c-0.2,1-0.3,6.2-0.6,6.4c-0.6,0,0.2,0-0.7-0.9l-0.6-0.3l-0.2,0.7c0,0.2-0.2,0.6-0.2,0.7l-1.6,9c-0.3,2.8-0.2,3.7-1.6,3.8c-0.7,0-0.6,0.2-0.7-0.3c-0.3,2.2-1.4,4.5-1.9,6.8c-0.7,2.8-0.6,4.9-0.9,7.6c-0.3,4.2-2.2,6.4-3,13.8c-0.6,0.2-1,0.3-1.6,0c0.3-0.6,0.7-0.6,1-1c-1.4,0.3-1,1.4-1.4,3c-0.9,4-4.3,23.4-4.9,24.1c-1.6,0.2-1.2-0.2-1.6-0.3c0,0,0-0.3,0,0.3c-0.2,1.6-0.6,2.1-0.9,3.7c-2.1,7.3-2.8,11.4-3.4,19.3l-1-1c0,0,0,0-0.3-0.2v0.2l-0.3,4.7c0,1.2-0.2,4.2-0.3,5c-0.3,0.6-0.3-0.6-1.4-0.9l-1.2,5.8c-0.9,3-2.8,8.6-3.3,10.7c-0.2,0.9,0,2.2-0.3,3.3c-0.3,1.6-0.6,1.2-0.6,3c-0.7,0.2-0.6,0.2-0.9,1c-1,3.4-0.9,8-0.6,11.6c3.4,1.8,18.2,6.1,22.6,6.1c2.2,0,0.7,0.2,2.2,0.7l10.1,2.6c1.6,0.3,3.4,0.3,5.2,0.7c14.4,2.8,29.8,4.7,44.6,5.9c24.6,2.1,47.1,1.8,71.8-0.9c7.4-0.9,14.7-2.1,22-3.1l0.6-0.3c0-4.2,1-7.6,2.1-11.4c0.9-3.7,1.6-8.3,1.4-12.3c-0.6-8.6-1.8-16.5-3-24.6c-2.4-15.9-4.7-31.9-7-48c-1.2-7.8-2.8-15.6-4-23.4c-1.4-8-2.6-15.9-3.7-24.1c-0.9-8.2-3.7-29.7,0-37.4c0.9-1.6,1.9-2.6,3.8-3c2.2-0.6,4.5-0.2,6.6-0.6v-1.2c0-3.8-4.3-12.5-5.8-15.8c-2.4-5.2-4.7-9.4-7.8-13.5c-2.2-3.1-7.1-9-9.9-11.4c-0.7-0.6-1-0.9-1.6-1.4c-2.8-2.1-7.4-6.4-10.7-7.8c-0.7,3.1-1.8,6.1-2.6,9c-0.7,2.4-2.1,6.4-3.1,8.3c-1,1.8-1.4,1.4-4.2,0.9c-5.4-0.7-10.2-0.9-15.3,0.9c-6.2,2.2-9.7,5.9-13,9.9c-2.4,3-3.8,6.2-4.5,7.1C371,165,366.4,164,366.4,166.7z"/><path fill="#D9E648" d="M227.1,225.8c-0.9,0.6-7,3-8,3.1c-3.3,0.3-6.8-0.2-9.7-1.2c-1.2-0.6-2.6-1.2-3.7-1.9c-3.8-2.8-4.9-6.2-6.8-9.9c-0.6-0.9-0.7-0.9-0.9-2.1c-0.3-8.2,0.3-14.9,9.7-15.4c4.5-0.3,3.8,0,4,1.4c0.9,6.1-0.9,4-5.4,5.2c-1.2,4.2-1.4,9.2,0.7,12.6c2.2,3.4,6.6,6.1,9.7,4.3c0.3-2.2-0.9-3.1-2.1-4.5c-0.3-0.3-0.6-0.9-1-1.2c-1.2,0.6-2.1,1.8-3.1,0.6c-0.6-0.6-1.8-2.2-1.9-2.8c0.3-0.7,1.2-1.8,1.8-2.1l5.8-5.4l4.3,3c0,1.6-1.9,3.7-1.2,4.9c0.6,0.6,1,1.4,1.6,1.9c0.3,0.7,0.9,1,1.2,1.8C224.2,220.6,226.6,223.1,227.1,225.8z M250.4,188.7c2.8,1.6,6.1,9.4,7.8,11.1c0.9,0.9,2.2,2.4,2.4,3.8l-5,3c0-0.2-0.2-0.2-0.2-0.3l-0.9-2.1c-0.3-0.9-0.7-1.8-1.2-2.4v6.2l-5.9-2.8l0.7,5.2c-0.9,0.2-1.8,0.6-2.6,0.7c-1.4,0.6-1,0.3-1.6,1.6c-0.7,1.8-2.4,1.8-4.7,1.6c-2.6-0.3-3,0.3-4.5,1.8c-1.4,1-9.7,3.4-10.4-6.4c-0.2-1.9,0.6-3.8,1.8-4.5c0.7-0.3,1.6-0.3,2.6-0.6c1-0.2,1.4-0.6,2.2-0.9c-0.3-1.4-1.8-3-3.7-2.6c-1.6,0.3-3.1,1.4-4.5,1.8c-0.7-4.7,0.3-4.3,4.5-5.2c3.1-0.6,6.1-0.2,7.6,1.9c4,4.9-0.9,12.6,8.5,10.7c0.2-1-1-6.2-1.4-7.6c-0.3-2.6-1-5.4-1.4-7.8c2.6,1,6.1,5.9,8.9,6.4L250.4,188.7z M259.2,197.8c0-4.9-0.3-10.1,4.2-11.1c4.3-1,8.3,1,9.9,5c-0.6,0.6-1.2,0.9-1.9,1.4l-5.2,3.8c0,0-0.2,0-0.2,0.2c1.2,4.3,4.5,3.4,7,1c0.3-0.6,1.4-1.8,1.9-1.8l0.7,4.2c-0.6,0.6-1.4,1-1.9,1.4c-2.2,1.4-4.5,3-7.1,1.6C263.6,202.1,261,198.6,259.2,197.8z M187.1,185.8c4,0,5.8,0.7,8.9-1.4c1.8-1.2,4.2-4.7,2.8-6.6c-1.9-2.4-4.7-1.4-8-1c-4.7,0.6-6.4-0.9-9.4-3c-1.4-1-2.2-3.3-2.8-4.9c-1.2-3.3-0.2-5.5,1.6-7.3c3.4-3.8,5.8-7.1,13.7-5.8c0,1.8-0.3,3-0.9,4.5c-0.9,2.2-0.6,1.4-3,2.2c-7.6,2.6-6.8,7.6,2.1,8.2c3.4,0.2,5.5,0.9,8.6,1.4c0.9,0.2,1,0.9,1.4,1.2c2.8,4.3,4.3,8.5,0.3,12.6c-0.7,0.7-1,1.6-2.4,2.6c-3.8,3-7.8,3-12.2,2.2L187.1,185.8z M219.2,159.8c-0.3-3.8,1-5.2,4.5-5.8c1.6-0.2,3.3,0,4.9,0.2c2.2,0.3,1.9,0.3,2.8,2.1c1.2,2.4,1.6,4.9,2.4,7.6c0.3,1.2,0.9,2.4,1.9,3.1c1.2,0.9,2.8,0.3,4.3,0.2v3.7c-1.6,0.6-5.4,0-7.3,0c-0.3,2.1-3.4,3.1-5.9,3c-5.5-0.3-8.2-6.8-5.8-10.6c1.4-2.2,3.7-1.4,6.1-2.8c-0.2-1.6-1.6-2.8-3.4-2.6C221.9,158.2,220.7,159.3,219.2,159.8z M202,155c0.7-0.9,1.4-1.6,3.1-1.8l4.2,8c1.2-0.6,3-2.4,3.8-2.8c1,1.4,1.9,4.9,0.7,6.2c-2.4,2.8-2.2,3.1-1.2,5.2c0.9,1.8,1.6,3.4,2.6,5.4c0.7,1.8,1.8,3.7,2.4,5.4c-0.6,0.6-2.6,1.9-3.8,2.1l-5.8-13.2c-2.6,0.3-3.3,2.4-6.1,3c-0.2-0.9-0.3-1.6-0.6-2.4c-0.2-1.4-0.3-1.2,0.6-2.1c1-0.9,1.9-2.1,3-2.8c-0.2-1.4-2.1-5.5-2.8-7C201.5,156.5,201,156.3,202,155z M240,151.7c0.7-1.8,2.6-4,4.5-4.5c0.3,0.3,1,1,1.2,1.4c0.2,0.2,0.9,1.8,0.9,1.8c-1,1.8-2.1,2.1-3.3,3.4c-4.3,4.7,2.4,7.3,3.3,13.4c-0.3,0.3-0.2,0.2-0.6,0.3c-0.7,0.6-2.2,1.8-3.1,1.2c-1.4-0.7-7.4-11.8-8.2-14.7C237,150.8,237.5,151.7,240,151.7z M246.6,139.8c0.7-1,3.3-3.3,4.5-3.8c0.6,1.2,4,8.2,4.5,8.9c1.2-0.7,2.1-1.9,3.7-2.1c0.2,0.3,0.7,2.6,0.7,3.1c0,1.2-0.7,2.2-1.2,2.8c-2.1,2.4-1.9,1.9-0.3,5.2c1,1.8,1.9,3.7,2.8,5.5c0.7,1.8,1.9,3.8,2.6,5.4c-0.6,0.6-3.1,1.6-3.8,1.6c-1.2-3-4.9-11.4-6.6-13.2c-1.4,0.2-3.3,2.8-5.2,2.8c-0.6-1.4-1.2-3-0.6-4.3c0.7-1.4,1.9-1.9,2.6-3.1L246.6,139.8z M251.9,240.8c0.6-0.3,0.9-0.6,1.4-0.7c0.6-0.3,0.9-0.7,1.6-0.6c0-2.4,6.1-3.4,8.5-4.2l9.2-3.1c3.7-1.4,9-4,12.3-6.1c1.2-0.7,3-1.9,4-2.4c2.1-4.3,3.8-12.3,5-17.7c1.4-5.8,3-12.5,4.9-17.7c2.1-5.8,4.5-10.7,6.6-16.2c1.6-3.8,7.3-13.8,7.3-15.6c-1.2-3.4-3.8-6.6-5.5-9.2l-6.2-8.5c-0.6-0.6-2.1-1.4-4-3.3c-5.4-5.5-4.7-5.2-11.6-10.4c-5.2-4.2-11.6-7.4-19.6-9.7c-3.8-1-8-2.2-12-2.8c-14.6-1.9-25-0.3-39.2,3.3c-9,2.2-13.4,4.2-21.5,8c-4.9,2.2-9.7,6.4-14.1,8c-1.8,0.7-2.4,2.4-3.8,3.3l-4.2,3.3c-3.7,3-7.8,7.6-10.4,11.4c-3.7,5.4-7.3,12.6-9.7,19.8c-4.7,14.1-2.8,16.8-3.1,18.4c-0.3,1-0.7,1.8-0.9,3c-0.6,3.1-0.3,7.3-0.2,10.4l0.3,5.4c0,2.6,0.7,0.6,0.7,3c-0.2,6.6,3,15.9,6.2,21.1c1,1.6,0.9,1,1.8,1.9c0.6,0.7,0.9,1.8,1.2,2.4c2.1,3.1,3,3.4,5.2,5.9c1.2,1.2,4.7,3.8,6.2,4.7c3.4,1.9,2.6,0.6,4.9,2.4c1.2,1,3.1,1.8,5,2.2c15.3,4.7,36.2,1.6,51.1-3.3c3.4-1,12.8-4.3,15.9-5.9c0.7-0.3,1.8-1.2,2.4-1.4C251.9,238.9,250.6,240.1,251.9,240.8z"/><path fill="#EAF198" d="M312.6,156.7c0,1.8-5.8,11.8-7.3,15.6c-2.1,5.4-4.5,10.4-6.6,16.2c-1.9,5.2-3.4,12-4.9,17.7c-1.2,5.4-3,13.4-5,17.7c-0.6,3-10.2,41.1-10.4,41.4c0,0.7-2.6,9-3,9.7l-6.6,26.9c-0.3,1.6-2.1,8.5-2.6,10.7c-0.9,3.7-1.9,7.1-2.6,10.7c-1.6,6.4-1.9,9.5-4.2,15.9c-0.6,1.6-1.4,3.3-1.8,4.7l18.6,6.8c-0.3-3.7-0.6-8.2,0.6-11.6c0.3-0.9,0.2-0.9,0.9-1c0-1.8,0.2-1.4,0.6-3c0.3-1,0.2-2.4,0.3-3.3c0.6-2.1,2.4-7.8,3.3-10.7l1.2-5.8c1,0.3,1,1.4,1.4,0.9c0.2-0.9,0.3-3.8,0.3-5l0.3-4.7v-0.2c0.3,0.2,0.3,0.2,0.3,0.2l1,1c0.7-7.8,1.4-12,3.4-19.3c0.3-1.6,0.7-2.1,0.9-3.7c0-0.7,0-0.3,0-0.3c0.3,0.2,0,0.6,1.6,0.3c0.6-0.7,4-20.1,4.9-24.1c0.3-1.6,0-2.6,1.4-3c-0.3,0.6-0.7,0.6-1,1c0.6,0.3,1,0.2,1.6,0c0.7-7.4,2.6-9.7,3-13.8c0.3-2.8,0.2-4.9,0.9-7.6c0.6-2.2,1.6-4.5,1.9-6.8c0.2,0.6,0,0.3,0.7,0.3c1.4-0.2,1.2-1,1.6-3.8l1.6-9c0-0.2,0.2-0.6,0.2-0.7l0.2-0.7l0.6,0.3c0.9,0.9,0.2,0.9,0.7,0.9c0.2-0.2,0.3-5.4,0.6-6.4c0.6-2.1,1.2-3.3,2.1-5c0.9-1.6,3.4-8.5,4-10.2l0.3,0.2c0-0.7-0.3-3.1-0.6-4c-0.3-1.4-0.6-2.6-0.7-4c-0.9-7.1,2.6-15.9,6.4-21.1c3-3.8,4.5-6.1,9.5-8.9c4.7-2.4,9.5-3.1,15.4-2.2c-1-2.1-4.7-1.2-7.1-1.4c2.4-2.2,7.6-6.4,10.6-8.9c1-0.7,1.8-1.4,2.6-2.1c3.1-2.6,1.8-1.4,4.3-3.1c0.3-0.3,0.7-0.7,1.2-1c1.4-1.2,2.2-0.3,4-0.6l-2.1-1.4c-1.6-0.9,0-1.2,0.9-1.6c0.7-0.2,1.2-0.6,1.9-0.7c1.2-0.6,2.8-0.3,4.2-0.9c1.6-0.7,4.2-3.1,6.2-3.8c1.4-0.6,3.8-4.2,4.7-5.4c0.9-1.2,1.2-2.1,0.9-3.8c-0.2-0.9-0.6-3.3-1-4l-7.1-0.9c-12.8,0-27.9,8-37.6,15.1c-1.4,1-1.4,0.7-2.4,2.1l-2.2,2.4c-1.4,1.6-3.1,3.3-4.9,4.3c-1,0.7-1.2,0.3-1.8,1.4C321.8,143.4,313,156.5,312.6,156.7z"/><path fill="#AAB802" d="M454.8,362.6c5.2-0.9,10.2-1.9,15.1-3.3c2.4-0.9,4.7-1.6,7-2.4c2.2-1,4-2.1,6.1-3.1c-0.9-5.4-1.6-10.7-2.4-16.2l-2.1-14.1c0-0.3-0.3-1.2-0.2-1.6c-0.3-3-1-6.2-1.6-9.4c-1.6-9.5-2.8-18.4-4.2-27.9c-1.6-11-3.3-27.8-5.5-37.6c-0.7-3.1-0.9-6.2-1.2-9.5l-1.4-9.4c-1.2-6.2-2.1-12.3-3.3-18.4c-1-6.6-5.5-31.2-9.4-33.6v1.2c-2.1,0.3-4.3,0-6.6,0.6c-1.9,0.3-3,1.4-3.8,3c-3.7,7.8-0.9,29.3,0,37.4c1,8.2,2.2,16.2,3.7,24.1c1.2,7.8,2.8,15.6,4,23.4c2.2,16.2,4.5,32.1,7,48c1.2,8.2,2.4,15.9,3,24.6c0.2,4-0.6,8.6-1.4,12.3c-1,3.8-2.1,7.3-2.1,11.4L454.8,362.6z"/><path fill="#FF9898" d="M328.2,285.4c-0.7,3.4-7,13.2-8.9,14.1l-1-1.9c-0.9-1.6-3.1-4.3-3.3-5.5L328.2,285.4z M417.4,281.7c-0.7,2.6-1.4,1.8-2.8,3c-2.1,1.8-3.1,4.2-5.5,6.1c-0.6,0.3-3,2.1-3.4,1.9c-2.1,0-10.2-7.6-11.1-11.8L417.4,281.7z M376.2,267.1c-9.5,0-19.3,0.7-28.6,2.1c-11.8,1.6-23.6,4.2-32.8,11.1c-2.1,1.6-4.7,6.8-5.4,9.4c-1,3.8-0.7,9.4,0.3,13c1,3.3,2.1,4.5,3.8,7.1c0.6,0.7,0.9,1.6,1.4,2.4c3.8,0.3,6.1-0.3,10.1-1.2c2.4-0.7,4.7-1.2,7.1-1.8c4.9-1.4,10.1-2.2,15.1-3c10.2-1.8,25.7-4.2,35.9-4.2c17.7,0.2,46.3,4.5,44-20.1c-0.7-7.1-4.5-10.6-11-12.6c-7.1-2.4-19.9-2.2-28.6-2.2L376.2,267.1L376.2,267.1z"/><path fill="#FEFDFD" d="M343.7,176.6c5.5-0.7,10.7,3,10.1,8.6c-0.6,3.4-3.8,9.5-8.9,10.2C331.7,197.3,331,178.3,343.7,176.6z M317.3,196.2c-0.2,2.2,2.6,6.6,4,8.3l1.8,2.2c0.3,0.3,0.7,0.7,1,1l3.1,3.1c0.7,0.7,1.2,1.4,1.6,2.4c0.6,1,1.8,1.2,2.6,1.6c4.5,2.2,7.1,3.8,13.4,3.1c7-0.9,11.4-4.3,16.3-8.3c9.2-7.8,11.3-18.7,9.5-30.7c-1.2-7.4-3.8-9.5-4.2-12.3c-0.6-0.6-1.2-0.9-1.9-1.6c-0.6-0.7-0.9-1.2-1.4-1.8c-2.4-3-1.8-1.8-3.7-3c-5-3.8-5.2-2.4-8.6-4.3l-3.3-0.2c-5.9-0.9-10.7-0.2-15.4,2.2c-5,2.8-6.6,5-9.5,8.9c-3.8,5.2-7.3,14.1-6.4,21.1c0.2,1.4,0.3,2.6,0.7,4C317,193.1,317.3,195.5,317.3,196.2z"/><path fill="#FEFDFD" d="M400.9,165.4c5.8-0.9,8.9,4.7,7.8,10.4c-0.6,2.6-1.9,4.9-3.3,6.1c-1.4,1.2-4,2.8-6.6,2.8c-5.5,0.2-9-4.9-8.3-10.6C391,169,396.6,166.2,400.9,165.4z M401.4,159.4c-6.8,0.3-13,1.2-18.7,3.4c-6.6,2.6-11.1,4.2-11.4,11c-0.2,1.8,0,3.7,0.2,5.4c0,1.2,0.7,3.3,1,4.5c0.7,3.3,1.4,5.5,4.2,7c9.2,4.2,29.4,3,39.5,0.2c1.8-0.3,7.3-2.1,8.2-3c1.6-1.2,1.9-6.8,2.1-9.2c0.2-3.4,0-7.1-0.3-10.6c-0.3-4.2-1.2-5.4-4.7-6.4C415.4,159.8,408,159,401.4,159.4z"/><path fill="#D9E648" d="M350.8,156.2c3.4,1.9,3.7,0.6,8.6,4.3c1.9,1.2,1.2,0,3.7,3c0.6,0.6,0.9,1,1.4,1.8c0.7,0.7,1.4,1,1.9,1.6c0-2.8,4.7-1.8,7-4.3c0.7-0.9,2.1-4.2,4.5-7.1c3.3-4,6.8-7.6,13-9.9c5-1.8,9.9-1.6,15.3-0.9c2.8,0.6,3.1,0.9,4.2-0.9c1-1.9,2.4-5.9,3.1-8.3c0.9-3,1.9-5.9,2.6-9c-1.9-1.6-7.1-3.8-10.1-5c-3.4-1.6-7.4-3-11.4-3.8c0,3.3,0,6.6-1,9.4c-2.2,5.5-8.9,9.9-14.6,11.4c-1.4,0.3-3,0.9-4,1.6c0.2,0,0.2,0,0.2,0l0.9,0.6c-0.6,0.3-1.6,0.3-1.9,0.6c-6.6,1.6-10.7,6.4-13,7.4c-3,1.2-5.9,2.2-8.2,4.9C352.5,153.6,351,155.4,350.8,156.2z"/><path fill="#330D11" d="M257.8,343.9c0.3-1.4,1.2-3.1,1.8-4.7c2.2-6.4,2.6-9.5,4.2-15.9c0.7-3.7,1.8-7.1,2.6-10.7c0.6-2.2,2.2-9.2,2.6-10.7c-1.4,0.6-2.6,1.2-4.2,1.9c-4.7,1.6-8.9,2.2-13.4,4.3c-4.3,2.2-11.1,6.1-12.8,11c-0.3,1.2-3.3,3.1-0.2,8.9c0.9,1.4,1.6,2.4,2.4,3.7c0.9,1.2,1.9,1.6,3.3,2.6l10.6,7.3c0.7,0.3,1,0.6,1.9,1C257.8,343,256.6,343.4,257.8,343.9z"/><path fill="#D1D874" d="M371.6,116.6l7.1,0.9c0.6,0.7,0.9,3.1,1,4c0.3,1.8,0,2.6-0.9,3.8c-0.9,1.2-3.3,4.9-4.7,5.4c-2.1,0.7-4.7,3.1-6.2,3.8c-1.4,0.6-3,0.3-4.2,0.9c-0.7,0.2-1.2,0.6-1.9,0.7c-0.9,0.3-2.4,0.7-0.9,1.6l2.1,1.4c-1.8,0.2-2.6-0.7-4,0.6c-0.6,0.3-0.9,0.7-1.2,1c-2.6,1.8-1.2,0.6-4.3,3.1c-0.9,0.7-1.6,1.4-2.6,2.1c-3,2.4-8.2,6.6-10.6,8.9c2.4,0.2,6.1-0.7,7.1,1.4l3.3,0.2c0.2-0.7,1.8-2.6,2.1-3c2.2-2.6,5.2-3.7,8.2-4.9c2.2-1,6.4-5.9,13-7.4c0.3-0.2,1.4-0.2,1.9-0.6l-0.9-0.6c0,0,0,0-0.2,0c1-0.7,2.6-1.2,4-1.6c5.8-1.6,12.3-5.9,14.6-11.4c1-2.8,1-6.1,1-9.4C391.2,116.1,374.2,114.4,371.6,116.6z"/><path fill="#A80301" d="M227.1,225.8c-0.6-2.8-3-5.2-5-7.8c-0.3-0.7-0.9-1-1.2-1.8c-0.6-0.6-1-1.4-1.6-1.9c-0.7-1.2,1.2-3.3,1.2-4.9l-4.3-3l-5.8,5.4c-0.6,0.3-1.4,1.4-1.8,2.1c0.2,0.6,1.4,2.2,1.9,2.8c1,1.2,1.9,0,3.1-0.6c0.6,0.3,0.7,0.9,1,1.2c1.2,1.4,2.4,2.2,2.1,4.5c-3.1,1.8-7.4-0.9-9.7-4.3c-2.1-3.4-1.9-8.5-0.7-12.6c4.5-1.2,6.2,0.9,5.4-5.2c-0.2-1.4,0.6-1.8-4-1.4c-9.4,0.6-10.1,7.3-9.7,15.4c0.2,1.2,0.3,1.2,0.9,2.1c1.9,3.7,3,7.1,6.8,9.9c1,0.7,2.4,1.4,3.7,1.9c3,1,6.4,1.6,9.7,1.2C220.2,228.8,226.3,226.4,227.1,225.8z"/><path fill="#A80301" d="M232.6,206.6l0.7,4.5c-1.9,0.7-4.2,1-4.5-1.4c-0.3-2.4,0-2.4,0.9-2.6C230.2,207,231.8,206.6,232.6,206.6z M249.5,201.3c-2.8-0.6-6.2-5.4-8.9-6.4c0.3,2.4,1,5.2,1.4,7.8c0.3,1.4,1.6,6.6,1.4,7.6c-9.4,1.9-4.5-5.9-8.5-10.7c-1.6-2.1-4.5-2.4-7.6-1.9c-4.2,0.9-5.2,0.6-4.5,5.2c1.4-0.3,3-1.4,4.5-1.8c1.9-0.3,3.3,1.2,3.7,2.6c-0.9,0.3-1.2,0.7-2.2,0.9c-1,0.2-1.9,0.2-2.6,0.6c-1.2,0.7-1.9,2.6-1.8,4.5c0.7,9.9,9,7.4,10.4,6.4c1.6-1.4,1.9-2.1,4.5-1.8c2.2,0.2,4,0.2,4.7-1.6c0.6-1.2,0.2-1,1.6-1.6c0.9-0.2,1.8-0.6,2.6-0.7l-0.7-5.2l5.9,2.8v-6.2c0.6,0.7,0.9,1.6,1.2,2.4l0.9,2.1c0,0.2,0.2,0.2,0.2,0.3l5-3c-0.2-1.4-1.6-3-2.4-3.8c-1.8-1.8-5-9.5-7.8-11.1L249.5,201.3z"/><path fill="#A80301" d="M187.1,185.8l0.9,5.2c4.3,0.7,8.3,0.7,12.2-2.2c1.4-1,1.8-1.9,2.4-2.6c4-4.2,2.4-8.3-0.3-12.6c-0.3-0.3-0.6-1-1.4-1.2c-3.1-0.6-5.2-1.2-8.6-1.4c-8.9-0.6-9.7-5.5-2.1-8.2c2.4-0.9,2.1,0,3-2.2c0.6-1.6,0.9-2.8,0.9-4.5c-8-1.4-10.2,1.9-13.7,5.8c-1.8,1.8-2.8,4-1.6,7.3c0.6,1.6,1.4,3.8,2.8,4.9c3,2.1,4.7,3.4,9.4,3c3.3-0.3,6.1-1.4,8,1c1.4,1.9-1,5.4-2.8,6.6C192.8,186.5,191.1,185.8,187.1,185.8z"/><path fill="#330D11" d="M482.9,353.8c0.9-0.9,5.2-3.3,7.8-6.6c2.1-2.6,3.7-7,2.2-11.1c-0.9-2.2-1.2-3.3-2.6-4.7c-5.2-5.2-8.2-6.2-11.1-8.6c-0.6-0.6-0.6-0.3-1-0.7c-0.2,0.3,0.2,1.2,0.2,1.6l2.1,14.1C481.4,343,482,348.5,482.9,353.8z"/><path fill="#C9D900" d="M251.9,240.8c-0.9,7.1,18.2,32.2,23.6,34.2c0.3-0.7,3-9,3-9.7c-0.6-0.3-0.3-0.6-0.9-0.9l-2.6-1.9c-1.2-0.9-2.4-1.8-3.7-2.6c-1.6-1-1.9-1.4-3.3-2.8c-1-1.2-2.2-1.9-3.1-3.1c-2.1-2.1-1.4-1.6-2.8-3.4c-0.3-0.7-0.9-1-1.4-1.6c-3.7-4.3-4.3-7.3-5.9-9.4c-0.7-0.2-1,0.2-1.6,0.6C252.8,240.2,252.5,240.4,251.9,240.8z"/><path fill="#010102" d="M340.9,185.8c-0.3-1.6-0.9-3.8,0-5.2c0.9-1.2,3.7-1.6,4.7-0.6C347,181.4,347.8,186.5,340.9,185.8z M343.7,176.6c-12.6,1.8-12,20.6,1.2,18.9c5-0.7,8.3-6.8,8.9-10.2C354.4,179.6,349.2,175.9,343.7,176.6z"/><path fill="#010102" d="M398.1,168.5c5.4-1.6,5.2,5.2,1.8,6.4c-2.1,0.7-3.8-0.7-4.2-2.2C395.1,170.2,396.4,169,398.1,168.5z M400.9,165.4c-4.3,0.9-9.9,3.7-10.4,8.6c-0.7,5.8,2.8,10.7,8.3,10.6c2.6,0,5.2-1.6,6.6-2.8s2.8-3.4,3.3-6.1C409.8,170,406.6,164.5,400.9,165.4z"/><path fill="#A80301" d="M225,163.4c1.4,0,3.4-0.2,4,0.9c0.7,0.7,0.3,3-0.3,3.7c-0.7,0.7-3,0.9-3.4,0C224.6,166.7,224.9,164.6,225,163.4z M219.2,159.8c1.6-0.6,2.8-1.6,4.5-1.9c1.9-0.2,3.3,1,3.4,2.6c-2.4,1.4-4.7,0.6-6.1,2.8c-2.4,3.8,0.2,10.2,5.8,10.6c2.4,0.2,5.5-0.9,5.9-3c1.9,0,5.8,0.6,7.3,0v-3.7c-1.6,0.2-3.1,0.7-4.3-0.2c-1-0.7-1.6-1.9-1.9-3.1c-0.9-2.8-1.2-5.2-2.4-7.6c-0.9-1.8-0.6-1.8-2.8-2.1c-1.6-0.2-3.3-0.3-4.9-0.2C220.2,154.6,218.8,156,219.2,159.8z"/><path fill="#A80301" d="M246.6,139.8l3.7,8.6c-0.7,1.2-1.9,1.8-2.6,3.1c-0.7,1.4,0,3,0.6,4.3c1.9,0,3.8-2.6,5.2-2.8c1.8,1.8,5.4,10.2,6.6,13.2c0.7,0,3.3-1,3.8-1.6c-0.7-1.6-1.9-3.7-2.6-5.4c-0.9-1.9-1.8-3.8-2.8-5.5c-1.6-3.3-1.8-2.8,0.3-5.2c0.6-0.6,1.2-1.6,1.2-2.8c0-0.6-0.6-2.8-0.7-3.1c-1.6,0.2-2.4,1.4-3.7,2.1c-0.6-0.7-4-7.6-4.5-8.9C249.8,136.6,247.3,138.8,246.6,139.8z"/><path fill="#A80301" d="M205,165.2c-1,0.7-1.9,1.9-3,2.8c-0.9,0.9-0.7,0.7-0.6,2.1c0.2,0.9,0.3,1.6,0.6,2.4c2.8-0.6,3.4-2.6,6.1-3l5.8,13.2c1.2-0.2,3.3-1.6,3.8-2.1c-0.7-1.8-1.8-3.7-2.4-5.4c-1-1.9-1.8-3.7-2.6-5.4c-1-2.1-1.2-2.4,1.2-5.2c1.2-1.4,0.3-4.9-0.7-6.2c-0.9,0.3-2.6,2.2-3.8,2.8l-4.2-8c-1.8,0.2-2.4,0.9-3.1,1.8c-1,1.4-0.6,1.6,0.2,3.3C202.9,159.6,204.8,163.8,205,165.2z"/><path fill="#A80301" d="M263.8,191c2.6-1,2.6-1.2,4.3,0.7c-0.2,0.3-1,1.4-1.4,1.8c-0.6,0.6-1.2,1-2.1,1.2C264.1,193.8,263.9,192.1,263.8,191z M259.2,197.8c1.8,0.9,4.3,4.3,7.3,5.8c2.6,1.4,4.9-0.2,7.1-1.6c0.6-0.3,1.4-0.9,1.9-1.4l-0.7-4.2c-0.6,0-1.6,1.2-1.9,1.8c-2.4,2.4-5.8,3.3-7-1c0-0.2,0.2-0.2,0.2-0.2l5.2-3.8c0.7-0.6,1.4-0.9,1.9-1.4c-1.6-4-5.5-6.1-9.9-5C258.9,187.7,259.2,193,259.2,197.8z"/><path fill="#FEFDFD" d="M417.4,281.7l-22.9-0.9c0.9,4.2,9,11.8,11.1,11.8c0.6,0.2,3-1.6,3.4-1.9c2.4-1.9,3.4-4.3,5.5-6.1C416,283.4,416.6,284.3,417.4,281.7z"/><path fill="#A80301" d="M240,151.7c-2.4,0-3-0.9-5.2,2.2c0.7,3,6.8,14.1,8.2,14.7c0.9,0.6,2.4-0.7,3.1-1.2c0.3-0.2,0.2,0,0.6-0.3c-0.9-6.1-7.6-8.6-3.3-13.4c1.2-1.4,2.2-1.8,3.3-3.4c0,0-0.7-1.6-0.9-1.8c-0.2-0.3-0.9-1-1.2-1.4C242.6,147.7,240.6,149.9,240,151.7z"/><path fill="#FEFDFD" d="M315,291.9c0.2,1.2,2.4,4,3.3,5.5l1,1.9c1.9-0.9,8.2-10.6,8.9-14.1L315,291.9z"/><path fill="#FEFDFD" d="M398.1,168.5c-1.8,0.6-3,1.8-2.4,4.2c0.3,1.6,2.1,3,4.2,2.2C403.3,173.7,403.4,166.9,398.1,168.5z"/><path fill="#FEFDFD" d="M340.9,185.8c7,0.7,6.1-4.3,4.7-5.8c-1-1-3.8-0.7-4.7,0.6C340,182,340.6,184.2,340.9,185.8z"/><path fill="#C9D900" d="M225,163.4c-0.2,1.2-0.6,3.3,0.2,4.5c0.6,0.9,2.8,0.7,3.4,0c0.7-0.7,1-3,0.3-3.7C228.6,163.3,226.5,163.4,225,163.4z"/><path fill="#C9D900" d="M232.6,206.6c-0.7,0-2.2,0.3-3,0.6c-0.9,0.2-1.2,0.2-0.9,2.6c0.3,2.4,2.6,2.1,4.5,1.4L232.6,206.6z"/><path fill="#C9D900" d="M263.8,191c0.2,1,0.3,2.8,0.9,3.7c0.9-0.2,1.6-0.7,2.1-1.2c0.3-0.3,1.2-1.4,1.4-1.8C266.3,189.8,266.3,190,263.8,191z"/></g></svg>