<svg version="1.1" xmlns="http://www.w3.org/2000/svg" x="0px" y="0px" width="640px" height="480px" viewBox="0 0 640 480" enable-background="new 0 0 640 480"><rect fill="#A23E48" width="640" height="480"/><path d="M547.4,365.5h-27.1c2.3-3.3,3.8-7.3,3.8-11.7V120.1c0-11.1-9-20.1-20.2-20.1H135.7c-11.1,0-20.1,9-20.1,20.1v233.5c0,4.4,1.5,8.5,3.9,11.8H92.2c0,0-1.2,1.3,2,4.5c9.2,9.2,29.8,10,29.8,10l0,0c0,0,386.9,0.1,387.3,0c21.6,0,28.5-6.5,34.3-10.2C549.7,365.7,547.4,365.5,547.4,365.5z M345.7,370.4h-51.9v-3.5h51.8L345.7,370.4L345.7,370.4z M509.2,349H129.9V113.5h379.4L509.2,349L509.2,349z"/><rect x="129.9" y="113.5" fill="#3E3E40" width="379.4" height="235.4"/><path fill="#FFFFFF" d="M175.3,207.2L175.3,207.2v1.2H172v-15.7h3.3v6.7l0,0c0.8-1.2,1.9-1.9,3.4-1.9c1.4,0,2.4,0.5,3.1,1.4c0.7,0.9,1.1,2.2,1.1,3.9c0,1.8-0.4,3.2-1.3,4.2c-0.9,1-2,1.6-3.4,1.6C177,208.7,176,208.2,175.3,207.2z M175.2,202.8v1.1c0,0.7,0.2,1.2,0.6,1.7c0.4,0.4,0.9,0.7,1.5,0.7c0.8,0,1.3-0.3,1.7-0.9c0.4-0.6,0.6-1.4,0.6-2.4c0-0.9-0.2-1.6-0.6-2.1c-0.4-0.5-0.9-0.8-1.6-0.8c-0.7,0-1.2,0.3-1.6,0.8C175.4,201.3,175.2,202,175.2,202.8z"/><path fill="#FFFFFF" d="M194.7,204.1h-7c0.1,1.6,1.1,2.3,2.9,2.3c1.1,0,2.2-0.3,3.1-0.8v2.3c-1,0.5-2.3,0.8-3.8,0.8c-1.7,0-3.1-0.5-4-1.4s-1.4-2.3-1.4-4c0-1.8,0.5-3.1,1.6-4.2c1-1.1,2.3-1.6,3.8-1.6c1.6,0,2.7,0.4,3.6,1.4c0.8,0.9,1.3,2.2,1.3,3.8L194.7,204.1L194.7,204.1z M191.7,202.1c0-1.5-0.6-2.3-1.9-2.3c-0.5,0-1,0.2-1.4,0.7c-0.4,0.4-0.6,1-0.7,1.6H191.7z"/><path fill="#FFFFFF" d="M209.5,193.6l-7.1,17.3h-1.6l7.1-17.3H209.5z"/><path fill="#FFFFFF" d="M218.5,206.9L218.5,206.9v1.6h-1.7v-15.7h1.7v7l0,0c0.8-1.4,2.1-2.1,3.7-2.1c1.4,0,2.4,0.5,3.2,1.4s1.1,2.2,1.1,3.8c0,1.8-0.4,3.2-1.3,4.2c-0.8,1-2,1.6-3.5,1.6C220.3,208.7,219.2,208.1,218.5,206.9z M218.5,202.7v1.5c0,0.9,0.3,1.6,0.8,2.3c0.6,0.6,1.3,0.9,2.2,0.9c1,0,1.9-0.4,2.4-1.2c0.6-0.8,0.9-1.9,0.9-3.3c0-1.2-0.3-2.1-0.8-2.8c-0.6-0.7-1.3-1-2.2-1c-1,0-1.8,0.4-2.4,1S218.5,201.6,218.5,202.7z"/><path fill="#FFFFFF" d="M230.1,195.1c-0.3,0-0.6-0.1-0.8-0.3s-0.3-0.5-0.3-0.8s0.1-0.6,0.3-0.8s0.5-0.3,0.8-0.3s0.6,0.1,0.8,0.3s0.3,0.5,0.3,0.8s-0.1,0.6-0.3,0.8C230.7,195.1,230.4,195.1,230.1,195.1z M230.9,208.4h-1.6v-10.6h1.7L230.9,208.4L230.9,208.4z"/><path fill="#FFFFFF" d="M236.7,197.5l-0.9,2.1h-0.3l-0.9-2.1H236.7z M236.7,208.4h-2.1l0.9-2.1h0.3L236.7,208.4z"/><path fill="#FFFFFF" d="M252.8,193.6l-7.1,17.3h-1.6l7.1-17.3H252.8z"/><path fill="#FFFFFF" d="M187.4,229.7l-3.1,10.6h-3.4l-1.6-6.2c-0.1-0.4-0.2-0.9-0.2-1.4l0,0c0,0.5-0.1,1-0.2,1.3l-1.7,6.3h-3.4l-3-10.6h3.3l1.5,7c0.1,0.3,0.1,0.7,0.2,1.2l0,0c0-0.5,0.1-0.9,0.2-1.2l1.8-6.9h3.1l1.6,7c0,0.2,0.1,0.6,0.1,1.2h0.1c0-0.4,0.1-0.8,0.2-1.2l1.4-7L187.4,229.7L187.4,229.7z"/><path fill="#FFFFFF" d="M197.8,240.3h-3.1v-1.5l0,0c-0.7,1.2-1.8,1.8-3.1,1.8c-1,0-1.9-0.3-2.4-0.9c-0.6-0.6-0.9-1.4-0.9-2.3c0-2.1,1.2-3.2,3.7-3.6l2.9-0.4c0-1.1-0.6-1.7-1.9-1.7s-2.5,0.4-3.6,1.1v-2.4c0.4-0.2,1.1-0.4,1.9-0.6c0.8-0.2,1.5-0.3,2.2-0.3c3,0,4.6,1.5,4.6,4.5L197.8,240.3L197.8,240.3z M194.7,236v-0.7l-1.9,0.3c-1.1,0.1-1.6,0.6-1.6,1.5c0,0.4,0.1,0.7,0.4,0.9c0.3,0.3,0.6,0.4,1.1,0.4c0.6,0,1.1-0.2,1.5-0.6C194.5,237.2,194.7,236.6,194.7,236z"/><path fill="#FFFFFF" d="M199.6,240v-2.6c0.5,0.3,1.1,0.6,1.6,0.7c0.5,0.1,1.1,0.2,1.5,0.2c0.6,0,1-0.1,1.4-0.2s0.5-0.4,0.5-0.7c0-0.2-0.1-0.4-0.2-0.5c-0.1-0.1-0.4-0.3-0.6-0.4s-0.5-0.2-0.8-0.3s-0.6-0.2-0.8-0.3c-0.4-0.2-0.8-0.3-1.1-0.5s-0.6-0.4-0.8-0.6c-0.2-0.2-0.4-0.5-0.5-0.8s-0.2-0.7-0.2-1.1c0-0.6,0.1-1.1,0.4-1.6c0.3-0.4,0.6-0.8,1-1.1s0.9-0.5,1.5-0.6s1.1-0.2,1.7-0.2c0.5,0,0.9,0,1.4,0.1c0.5,0,1,0.2,1.4,0.3v2.5c-0.4-0.2-0.8-0.4-1.3-0.5s-0.9-0.2-1.4-0.2c-0.2,0-0.4,0-0.6,0c-0.2,0-0.4,0.1-0.5,0.2c-0.1,0.1-0.3,0.2-0.4,0.3c-0.1,0.1-0.1,0.3-0.1,0.4c0,0.2,0,0.4,0.2,0.5c0.1,0.1,0.3,0.3,0.5,0.4c0.2,0.1,0.4,0.2,0.7,0.3s0.5,0.2,0.8,0.3c0.4,0.1,0.8,0.3,1.2,0.5s0.7,0.4,0.9,0.6c0.2,0.2,0.4,0.5,0.6,0.8c0.1,0.3,0.2,0.7,0.2,1.1c0,0.6-0.1,1.1-0.4,1.6c-0.3,0.4-0.6,0.8-1.1,1.1s-1,0.5-1.6,0.6s-1.2,0.2-1.9,0.2C201.7,240.5,200.6,240.3,199.6,240z"/><path fill="#FFFFFF" d="M212.8,237.7l-1.5,5.3h-2.6l1.1-5.3H212.8L212.8,237.7z"/><path fill="#FFFFFF" d="M236.5,229.7l-3.1,10.6H230l-1.6-6.2c-0.1-0.4-0.2-0.9-0.2-1.4l0,0c0,0.5-0.1,1-0.2,1.3l-1.7,6.3h-3.4l-3-10.6h3.3l1.5,7c0.1,0.3,0.1,0.7,0.2,1.2l0,0c0-0.5,0.1-0.9,0.2-1.2l1.8-6.9h3.1l1.6,7c0,0.2,0.1,0.6,0.1,1.2h0.1c0-0.4,0.1-0.8,0.2-1.2l1.4-7L236.5,229.7L236.5,229.7z"/><path fill="#FFFFFF" d="M247.5,235.9h-7c0.1,1.6,1.1,2.3,2.9,2.3c1.1,0,2.2-0.3,3.1-0.8v2.3c-1,0.5-2.3,0.8-3.8,0.8c-1.7,0-3.1-0.5-4-1.4s-1.4-2.3-1.4-4c0-1.8,0.5-3.1,1.6-4.2c1-1.1,2.3-1.6,3.8-1.6c1.6,0,2.7,0.4,3.6,1.4s1.3,2.2,1.3,3.8L247.5,235.9L247.5,235.9z M244.5,233.9c0-1.5-0.6-2.3-1.9-2.3c-0.5,0-1,0.2-1.4,0.7c-0.4,0.4-0.6,1-0.7,1.6H244.5z"/><path fill="#FFFFFF" d="M256.4,232.6c-0.4-0.2-0.8-0.3-1.4-0.3c-0.7,0-1.3,0.3-1.7,0.8s-0.6,1.2-0.6,2.1v5.1h-3.3v-10.6h3.3v2l0,0c0.5-1.5,1.5-2.2,2.8-2.2c0.4,0,0.6,0,0.8,0.1L256.4,232.6L256.4,232.6z"/><path fill="#FFFFFF" d="M267.4,235.9h-7c0.1,1.6,1.1,2.3,2.9,2.3c1.1,0,2.2-0.3,3.1-0.8v2.3c-1,0.5-2.3,0.8-3.8,0.8c-1.7,0-3.1-0.5-4-1.4s-1.4-2.3-1.4-4c0-1.8,0.5-3.1,1.6-4.2c1-1.1,2.3-1.6,3.8-1.6c1.6,0,2.7,0.4,3.6,1.4s1.3,2.2,1.3,3.8L267.4,235.9L267.4,235.9z M264.3,233.9c0-1.5-0.6-2.3-1.9-2.3c-0.5,0-1,0.2-1.4,0.7s-0.6,1-0.7,1.6H264.3z"/><path fill="#FFFFFF" d="M282.2,225.4l-7.1,17.3h-1.6l7.1-17.3H282.2L282.2,225.4z"/><path fill="#FFFFFF" d="M302.9,229.7l-3.2,10.6h-1.8l-2.2-7.6c-0.1-0.3-0.1-0.6-0.2-1l0,0c0,0.3-0.1,0.6-0.2,1l-2.4,7.6h-1.6l-3.2-10.6h1.8l2.2,7.9c0.1,0.2,0.1,0.6,0.1,1h0.1c0-0.3,0.1-0.6,0.2-1l2.4-7.9h1.6l2.2,8c0.1,0.3,0.1,0.6,0.2,1h0.1c0-0.3,0.1-0.6,0.2-1l2.2-8H302.9z"/><path fill="#FFFFFF" d="M304.1,239.9v-1.7c0.8,0.6,1.7,0.9,2.6,0.9c1.1,0,1.9-0.4,2.6-1.1c0.7-0.8,1-1.8,1-3.1c0-1.2-0.3-2.2-1-3s-1.6-1.1-2.6-1.1c-0.9,0-1.8,0.3-2.6,0.9v-1.6c0.8-0.4,1.8-0.7,2.9-0.7c1.5,0,2.7,0.5,3.7,1.5c0.9,1,1.4,2.3,1.4,3.9c0,1.8-0.5,3.1-1.5,4.2c-1,1.1-2.3,1.6-3.9,1.6C305.7,240.5,304.9,240.3,304.1,239.9z"/><path fill="#FFFFFF" d="M322.2,230.1l-6.3,8.6h6.2v1.5h-8.7v-0.5l6.3-8.6H314v-1.5h8.2V230.1L322.2,230.1z"/><path fill="#FFFFFF" d="M325.9,237.9l-1.7,5.1H323l1.2-5.1H325.9z"/><path fill="#FFFFFF" d="M348.2,229.7l-3.2,10.6h-1.8l-2.2-7.6c-0.1-0.3-0.1-0.6-0.2-1l0,0c0,0.3-0.1,0.6-0.2,1l-2.4,7.6h-1.7l-3.2-10.6h1.8l2.2,7.9c0.1,0.2,0.1,0.6,0.1,1h0.1c0-0.3,0.1-0.6,0.2-1l2.4-7.9h1.6l2.2,8c0.1,0.3,0.1,0.6,0.2,1h0.1c0-0.3,0.1-0.6,0.2-1l2.2-8H348.2z"/><path fill="#FFFFFF" d="M349.3,240v-1.6c0.8,0.4,1.7,0.7,2.6,0.7c0.8,0,1.4-0.2,1.8-0.5s0.7-0.8,0.7-1.3c0-1.2-1-1.8-3-1.8h-0.9V234h0.8c0.8,0,1.5-0.1,2-0.4c0.5-0.3,0.7-0.7,0.7-1.2c0-1-0.7-1.6-2.1-1.6c-0.8,0-1.6,0.2-2.4,0.6v-1.6c0.8-0.3,1.6-0.5,2.5-0.5c1.1,0,2,0.3,2.7,0.8s1,1.2,1,2.1c0,1.1-0.6,1.9-1.9,2.4l0,0c1.5,0.4,2.3,1.2,2.3,2.6c0,0.9-0.4,1.7-1.1,2.3c-0.8,0.6-1.8,0.9-3.1,0.9C351,240.5,350.1,240.3,349.3,240z"/><path fill="#FFFFFF" d="M361.2,229.3l-0.9,2.1H360l-0.9-2.1H361.2z M361.2,240.3h-2.1l0.9-2.1h0.3L361.2,240.3z"/><path fill="#FFFFFF" d="M377.3,225.4l-7.1,17.3h-1.6l7.1-17.3H377.3L377.3,225.4z"/><path fill="#FFFFFF" d="M175.3,270.9L175.3,270.9v1.2H172v-15.7h3.3v6.7l0,0c0.8-1.2,1.9-1.9,3.4-1.9c1.4,0,2.4,0.5,3.1,1.4c0.7,0.9,1.1,2.2,1.1,3.9c0,1.8-0.4,3.2-1.3,4.2c-0.8,1-2,1.6-3.4,1.6C177,272.4,176,271.9,175.3,270.9z M175.2,266.4v1.1c0,0.7,0.2,1.2,0.6,1.7c0.4,0.4,0.9,0.7,1.5,0.7c0.8,0,1.3-0.3,1.7-0.9c0.4-0.6,0.6-1.4,0.6-2.4c0-0.9-0.2-1.6-0.6-2.1c-0.4-0.5-0.9-0.8-1.6-0.8c-0.7,0-1.2,0.3-1.6,0.8C175.4,265,175.2,265.6,175.2,266.4z"/><path fill="#FFFFFF" d="M194.7,267.7h-7c0.1,1.6,1.1,2.3,2.9,2.3c1.1,0,2.2-0.3,3.1-0.8v2.3c-1,0.5-2.3,0.8-3.8,0.8c-1.7,0-3.1-0.5-4-1.4c-0.9-0.9-1.4-2.3-1.4-4c0-1.8,0.5-3.1,1.6-4.2c1-1.1,2.3-1.6,3.8-1.6c1.6,0,2.7,0.4,3.6,1.4c0.8,0.9,1.3,2.2,1.3,3.8L194.7,267.7L194.7,267.7z M191.7,265.7c0-1.5-0.6-2.3-1.9-2.3c-0.5,0-1,0.2-1.4,0.7c-0.4,0.4-0.6,1-0.7,1.6H191.7z"/><path fill="#FFFFFF" d="M206.2,267.7h-7c0.1,1.6,1.1,2.3,2.9,2.3c1.1,0,2.2-0.3,3.1-0.8v2.3c-1,0.5-2.3,0.8-3.8,0.8c-1.7,0-3.1-0.5-4-1.4c-0.9-0.9-1.4-2.3-1.4-4c0-1.8,0.5-3.1,1.6-4.2c1-1,2.3-1.6,3.8-1.6c1.6,0,2.7,0.4,3.6,1.4c0.8,0.9,1.3,2.2,1.3,3.8L206.2,267.7L206.2,267.7z M203.1,265.7c0-1.5-0.6-2.3-1.9-2.3c-0.5,0-1,0.2-1.4,0.7s-0.6,1-0.7,1.6H203.1z"/><path fill="#FFFFFF" d="M218.2,272.1H215v-5.9c0-1.6-0.6-2.5-1.8-2.5c-0.6,0-1,0.2-1.4,0.7c-0.4,0.4-0.5,1-0.5,1.7v6.1H208v-10.6h3.3v1.7l0,0c0.8-1.3,1.9-1.9,3.4-1.9c2.3,0,3.5,1.5,3.5,4.4V272.1L218.2,272.1z"/><path fill="#FFFFFF" d="M233.7,257.3l-7.1,17.3H225l7.1-17.3H233.7z"/><path fill="#FFFFFF" d="M243.5,259.9h-1.1v-3.8h1.1V259.9z"/><path fill="#FFFFFF" d="M249.9,270.6L249.9,270.6v1.6h-1.7v-15.7h1.7v7l0,0c0.8-1.4,2.1-2.1,3.7-2.1c1.4,0,2.4,0.5,3.2,1.4c0.8,0.9,1.1,2.2,1.1,3.8c0,1.8-0.4,3.2-1.3,4.2c-0.8,1.1-2,1.6-3.5,1.6C251.7,272.4,250.6,271.7,249.9,270.6z M249.9,266.3v1.5c0,0.9,0.3,1.6,0.8,2.3c0.6,0.6,1.3,0.9,2.2,0.9c1,0,1.9-0.4,2.4-1.2c0.6-0.8,0.9-1.9,0.9-3.3c0-1.2-0.3-2.1-0.8-2.8c-0.5-0.7-1.3-1-2.2-1c-1,0-1.8,0.4-2.4,1C250.2,264.4,249.9,265.2,249.9,266.3z"/><path fill="#FFFFFF" d="M261.5,258.8c-0.3,0-0.6-0.1-0.8-0.3c-0.2-0.2-0.3-0.5-0.3-0.8c0-0.3,0.1-0.6,0.3-0.8c0.2-0.2,0.5-0.3,0.8-0.3s0.6,0.1,0.8,0.3c0.2,0.2,0.3,0.5,0.3,0.8c0,0.3-0.1,0.6-0.3,0.8S261.8,258.8,261.5,258.8z M262.3,272.1h-1.7v-10.6h1.7V272.1z"/><path fill="#FFFFFF" d="M268.1,261.2l-0.9,2.1h-0.3l-0.9-2.1H268.1z M268.1,272.1H266l0.9-2.1h0.3L268.1,272.1z"/><path fill="#FFFFFF" d="M280.5,272.1h-1.7V266c0-2.3-0.8-3.4-2.5-3.4c-0.8,0-1.6,0.3-2.1,1c-0.6,0.7-0.8,1.5-0.8,2.4v6.1h-1.7v-10.6h1.7v1.8l0,0c0.8-1.3,1.9-2,3.5-2c1.1,0,2,0.4,2.6,1.1c0.6,0.7,0.9,1.8,0.9,3.2L280.5,272.1L280.5,272.1z"/><path fill="#FFFFFF" d="M296.2,257.3l-7.1,17.3h-1.6l7.1-17.3H296.2z"/><path fill="#FFFFFF" d="M170.7,299.5l0.2-1.1h17.7l-0.2,1.1H170.7z"/><path fill="#FFFFFF" d="M203,292.2c-0.8,0-1.4,0.1-2,0.1s-1.1,0.1-1.6,0.2s-0.9,0.2-1.2,0.4c-0.4,0.2-0.7,0.4-0.9,0.7c-0.1,0.2-0.3,0.4-0.4,0.6c-0.1,0.2-0.3,0.5-0.4,0.8c-0.1,0.3-0.2,0.5-0.3,0.8c-0.1,0.3-0.2,0.6-0.2,0.8l0,0c0.4-0.5,0.9-0.8,1.4-1.1s1.1-0.4,1.8-0.4c0.4,0,0.8,0.1,1.2,0.2c0.4,0.1,0.7,0.4,1,0.6c0.3,0.3,0.5,0.6,0.6,1c0.1,0.4,0.2,0.9,0.2,1.5c0,0.6,0,1-0.1,1.5s-0.3,0.9-0.4,1.4c-0.2,0.4-0.4,0.8-0.7,1.1c-0.3,0.4-0.6,0.7-0.9,0.9c-0.4,0.3-0.8,0.4-1.1,0.6c-0.4,0.1-0.9,0.2-1.4,0.2c-0.6,0-1.1-0.1-1.5-0.3c-0.4-0.2-0.8-0.5-1.1-0.9c-0.3-0.4-0.5-0.8-0.6-1.4c-0.1-0.5-0.2-1.1-0.2-1.8c0-0.6,0-1.1,0.1-1.8c0.1-0.7,0.2-1.2,0.4-1.8s0.4-1.1,0.7-1.7c0.3-0.6,0.6-1,0.9-1.5c0.4-0.5,0.8-0.8,1.3-1.1c0.5-0.3,1-0.5,1.6-0.6c0.6-0.1,1.2-0.3,1.9-0.4c0.7-0.1,1.5-0.1,2.3-0.2L203,292.2z M200.7,298.6c0-0.4,0-0.8-0.1-1.1s-0.2-0.5-0.4-0.8c-0.2-0.2-0.4-0.3-0.6-0.4c-0.2-0.1-0.5-0.1-0.8-0.1s-0.6,0-0.9,0.1c-0.3,0.1-0.6,0.2-0.9,0.4c-0.3,0.2-0.5,0.4-0.8,0.6c-0.2,0.2-0.4,0.4-0.7,0.7c0,0.1,0,0.3-0.1,0.4c0,0.1,0,0.4,0,0.5s0,0.4,0,0.5s0,0.3,0,0.5c0,0.4,0,0.8,0.1,1.2c0.1,0.4,0.2,0.7,0.4,0.9c0.1,0.3,0.4,0.4,0.7,0.6s0.6,0.2,0.9,0.2c0.4,0,0.7,0,0.9-0.2c0.3-0.1,0.6-0.3,0.8-0.5c0.2-0.2,0.4-0.4,0.6-0.7c0.2-0.3,0.4-0.6,0.5-0.9s0.2-0.7,0.3-1C200.7,299.4,200.7,298.9,200.7,298.6z"/><path fill="#FFFFFF" d="M206.3,295.1l-0.8,3.8c0.3-0.1,0.7-0.2,1.1-0.3c0.4-0.1,0.8-0.1,1.1-0.1c0.9,0,1.6,0.2,2.1,0.6s0.7,1,0.7,1.8c0,0.4,0,0.8-0.2,1.1c-0.1,0.4-0.4,0.8-0.6,1.1c-0.3,0.3-0.7,0.6-1.1,0.8c-0.5,0.2-1.1,0.3-1.7,0.3c-1.1,0-1.8-0.2-2.3-0.7s-0.8-1.2-0.8-2.1c0-0.2,0-0.3,0-0.5s0-0.4,0-0.5s0-0.4,0.1-0.5c0-0.2,0-0.3,0.1-0.4c0,0,0-0.1,0-0.2c0-0.1,0-0.3,0.1-0.5c0-0.2,0.1-0.4,0.1-0.7s0.1-0.5,0.2-0.8c0.1-0.6,0.3-1.3,0.4-2.1L206.3,295.1L206.3,295.1z M209.1,301.1c0-0.4-0.1-0.8-0.4-1.1c-0.3-0.3-0.7-0.4-1.3-0.4c-0.4,0-0.8,0-1.1,0.1c-0.4,0.1-0.7,0.2-1,0.3c0,0.1,0,0.2,0,0.4c0,0.1,0,0.2,0,0.4c0,0.2,0,0.2,0,0.4c0,0.1,0,0.2,0,0.3c0,0.3,0,0.5,0.1,0.7c0,0.2,0.2,0.4,0.3,0.5c0.1,0.1,0.3,0.3,0.5,0.4c0.2,0.1,0.5,0.1,0.8,0.1c0.4,0,0.7,0,1-0.2c0.3-0.1,0.5-0.3,0.7-0.4c0.2-0.2,0.3-0.4,0.4-0.6C209,301.6,209.1,301.3,209.1,301.1z M212.9,303.9h-1.4l1.9-8.8h1.4L212.9,303.9z"/><path fill="#FFFFFF" d="M229.3,297.3c0,0.1,0,0.2,0,0.4c0,0.2,0,0.3-0.1,0.5c0,0.2,0,0.4-0.1,0.5c0,0.2,0,0.3-0.1,0.4l-1.1,4.9h-1.4l1.1-5.2c0-0.1,0-0.2,0.1-0.3c0-0.1,0-0.2,0-0.4c0-0.2,0-0.2,0-0.3s0-0.2,0-0.2c0-0.4-0.1-0.8-0.3-1.1c-0.2-0.3-0.5-0.4-0.9-0.4c-0.2,0-0.4,0-0.7,0.1c-0.2,0.1-0.4,0.2-0.7,0.4c-0.2,0.2-0.4,0.4-0.6,0.6c-0.2,0.3-0.4,0.5-0.6,0.8c-0.2,0.3-0.3,0.5-0.4,0.8c-0.1,0.3-0.2,0.5-0.3,0.8l-0.9,4.3h-1.4l1.1-5.2c0-0.1,0-0.2,0.1-0.3c0-0.1,0-0.2,0-0.4c0-0.1,0-0.2,0-0.3s0-0.2,0-0.2c0-0.4-0.1-0.8-0.3-1.1c-0.2-0.3-0.5-0.4-0.9-0.4c-0.2,0-0.4,0-0.7,0.1c-0.3,0.1-0.5,0.2-0.7,0.4c-0.2,0.1-0.4,0.4-0.7,0.6c-0.3,0.2-0.4,0.5-0.6,0.8c-0.2,0.3-0.3,0.5-0.4,0.8c-0.1,0.3-0.2,0.5-0.3,0.8l-0.9,4.3h-1.4l1.4-6.3c0-0.2,0.1-0.4,0.1-0.7c0-0.3,0.1-0.5,0.1-0.7s0.1-0.4,0.1-0.6s0-0.4,0.1-0.5h1.4c0,0.2,0,0.4-0.1,0.7c0,0.3-0.1,0.5-0.1,0.7s-0.1,0.5-0.1,0.7l0,0c0.2-0.4,0.4-0.7,0.7-0.9c0.2-0.3,0.5-0.5,0.8-0.8c0.3-0.2,0.6-0.4,0.8-0.5c0.3-0.1,0.6-0.2,0.9-0.2c0.4,0,0.7,0,0.9,0.2c0.3,0.1,0.5,0.3,0.7,0.4c0.2,0.2,0.3,0.4,0.4,0.7c0.1,0.3,0.1,0.6,0.2,0.9c0.2-0.3,0.4-0.6,0.7-0.9s0.5-0.5,0.8-0.7s0.6-0.4,0.9-0.5c0.3-0.1,0.7-0.2,1-0.2c0.8,0,1.3,0.2,1.7,0.7C229,296.1,229.3,296.5,229.3,297.3z"/><path fill="#FFFFFF" d="M233.7,295.1l-0.8,3.8c0.4-0.1,0.7-0.2,1.1-0.3c0.4-0.1,0.8-0.1,1.2-0.1c1,0,1.8,0.2,2.3,0.6s0.8,1,0.8,1.8c0,0.4-0.1,0.8-0.2,1.1c-0.1,0.4-0.4,0.8-0.7,1.1c-0.3,0.3-0.7,0.6-1.2,0.8s-1.1,0.3-1.8,0.3c-1.1,0-1.9-0.2-2.4-0.7s-0.8-1.2-0.8-2.1c0-0.2,0-0.3,0-0.5s0-0.4,0-0.5s0-0.4,0.1-0.5c0-0.2,0-0.3,0.1-0.4c0,0,0-0.1,0-0.2c0-0.1,0-0.3,0.1-0.5c0-0.1,0.1-0.4,0.1-0.7s0.1-0.5,0.2-0.8c0.1-0.6,0.3-1.3,0.4-2.1L233.7,295.1L233.7,295.1z M236.8,301.1c0-0.4-0.1-0.8-0.4-1.1s-0.8-0.4-1.4-0.4c-0.4,0-0.9,0-1.3,0.1c-0.4,0.1-0.8,0.2-1.1,0.3c0,0.1,0,0.2,0,0.4c0,0.1,0,0.2,0,0.4c0,0.2,0,0.2,0,0.4c0,0.1,0,0.2,0,0.3c0,0.3,0,0.5,0.1,0.7c0,0.2,0.2,0.4,0.4,0.5c0.2,0.1,0.4,0.3,0.6,0.4c0.2,0.1,0.5,0.1,0.9,0.1s0.8,0,1.1-0.2c0.3-0.1,0.5-0.3,0.8-0.4c0.2-0.2,0.3-0.4,0.4-0.6C236.7,301.6,236.8,301.3,236.8,301.1z"/><rect x="408.2" y="131.4" fill="none" width="65.8" height="26.3"/><rect x="382" y="131.4" fill="#F03B4C" width="26.3" height="26.3"/><path fill="#FFFFFF" d="M398.5,144.3c-0.2,0.2-0.5,0.4-0.7,0.7c-1,1.1-2,2.2-3.1,3.2c-0.5,0.5-1,1-1.7,1.3c-0.4,0.2-0.7,0.3-1.1,0.1c-0.6-0.1-0.9-0.7-0.9-1.4s0.3-1.4,0.6-2c0.4-0.9,0.8-1.8,1.3-2.7c0.5-1.1,1-2.2,1.5-3.3c0.1-0.4,0.2-0.8,0.4-1.1c0-0.1,0-0.1,0-0.2l0,0c-0.1,0.1-0.3,0.2-0.4,0.4c-0.5,0.7-1,1.4-1.6,2.1c-0.6,0.8-1.1,1.5-1.6,2.3c-0.2,0.3-0.6,0.6-0.9,0.8c-0.7,0.4-1.4,0-1.6-0.7c-0.2-0.6,0-1,0.2-1.5c0.4-0.8,0.8-1.5,1.2-2.3c0.2-0.4,0.4-0.8,0.3-1.2c0-0.3-0.1-0.5-0.4-0.7c-0.2-0.1-0.4-0.1-0.6,0c-0.4,0.2-0.7,0.5-1,0.9c-0.1,0.2-0.3,0.2-0.5,0.1c-0.2-0.1-0.3-0.3-0.1-0.6c0.4-0.6,0.8-1,1.5-1.3s1.3,0,1.7,0.7c0.3,0.5,0.4,1,0.2,1.6c-0.1,0.5-0.4,1-0.6,1.5c-0.3,0.6-0.6,1.2-0.9,1.7c-0.1,0.2-0.1,0.5-0.1,0.7c0,0.1,0,0.2,0.1,0.3c0,0,0.2,0,0.2-0.1c0.3-0.3,0.6-0.6,0.8-0.9c0.7-0.9,1.3-1.9,1.9-2.9c0.3-0.5,0.7-0.9,1.1-1.4c0.2-0.3,0.5-0.5,0.9-0.6c0.6-0.1,1.1,0.4,1.2,1c0,0.4,0,0.9-0.2,1.3c-0.3,0.9-0.7,1.8-1,2.6c-0.6,1.3-1.2,2.7-1.8,4c-0.2,0.5-0.3,1-0.5,1.5c0,0.1,0,0.2,0,0.4c0.2-0.1,0.4-0.2,0.5-0.3c0.7-0.5,1.2-1.1,1.8-1.7c0.9-1,1.8-2,2.7-2.9c0.3-0.3,0.7-0.6,1.1-0.8c0.8-0.3,1.5,0.1,1.7,0.9c0.1,0.4,0,0.7,0,1.1c-0.2,0.9-0.6,1.8-1,2.7c-0.3,0.8-0.6,1.6-0.9,2.4c-0.1,0.2-0.1,0.4-0.1,0.7c0,0.1,0,0.2,0.1,0.2c0.2,0,0.4,0,0.6-0.1c0.6-0.2,1-0.6,1.4-1c0.3-0.3,0.6-0.6,0.9-0.9c0.2-0.2,0.5-0.2,0.7,0s0.4,0.4,0.6,0.6c0.2,0.2,0.2,0.4,0,0.6c-0.8,0.8-1.6,1.6-2.5,2.1c-0.7,0.4-1.4,0.6-2.1,0.3c-1-0.3-1.5-1.1-1.2-2.2c0.2-0.8,0.5-1.6,0.8-2.5c0.4-0.9,0.8-1.8,1.2-2.8C398.4,144.5,398.4,144.4,398.5,144.3C398.5,144.4,398.5,144.3,398.5,144.3z"/><path fill="#FFFFFF" d="M418,142.7h-0.6v-0.6l0,0c-0.2,0.4-0.6,0.6-1.1,0.6c-0.3,0-0.6-0.1-0.8-0.3c-0.2-0.2-0.3-0.4-0.3-0.8c0-0.7,0.4-1,1.2-1.1l1-0.1c0-0.6-0.2-0.9-0.7-0.9c-0.4,0-0.8,0.1-1.1,0.4v-0.6c0.1-0.1,0.3-0.1,0.5-0.2c0.2-0.1,0.5-0.1,0.7-0.1c0.8,0,1.2,0.4,1.2,1.3L418,142.7L418,142.7z M417.5,141l-0.8,0.1c-0.3,0-0.5,0.1-0.6,0.2c-0.1,0.1-0.2,0.2-0.2,0.5c0,0.2,0,0.3,0.2,0.4c0.1,0.1,0.3,0.1,0.5,0.1c0.3,0,0.5-0.1,0.7-0.3c0.2-0.2,0.3-0.4,0.3-0.8L417.5,141L417.5,141z"/><path fill="#FFFFFF" d="M422,142.7h-0.6v-1.6h-1.8v1.6H419v-3.5h0.6v1.5h1.8v-1.5h0.6V142.7z"/><path fill="#FFFFFF" d="M425,139.7h-1.4v3H423v-3.5h1.9L425,139.7L425,139.7z"/><path fill="#FFFFFF" d="M428,142.7h-0.5v-3h-0.8c-0.1,1.1-0.2,1.8-0.5,2.3c-0.2,0.5-0.5,0.8-0.9,0.8c-0.1,0-0.2,0-0.3,0v-0.5c0.1,0,0.1,0,0.3,0c0.5,0,0.8-1,1-3.1h1.8C428,139.2,428,142.7,428,142.7z"/><path fill="#FFFFFF" d="M432,142.7h-0.5V140l-1.8,2.7h-0.6v-3.5h0.5v2.7l1.8-2.7h0.6V142.7L432,142.7z"/><path fill="#FFFFFF" d="M436.1,142.7h-0.5V140l-1.8,2.7h-0.6v-3.5h0.5v2.7l1.8-2.7h0.6V142.7L436.1,142.7z M435.8,137.5c0,0.1,0,0.3-0.1,0.4c0,0.1-0.1,0.2-0.2,0.3c-0.1,0.1-0.2,0.1-0.4,0.2c-0.1,0-0.3,0.1-0.5,0.1s-0.3,0-0.5-0.1c-0.1,0-0.3-0.1-0.4-0.2c-0.1-0.1-0.2-0.2-0.2-0.3c0-0.1-0.1-0.3-0.1-0.4h0.6c0,0.1,0,0.2,0,0.2c0,0.1,0,0.1,0.1,0.2s0.1,0.1,0.2,0.1s0.2,0,0.3,0c0.1,0,0.2,0,0.3,0c0.1,0,0.1-0.1,0.2-0.1c0,0,0.1-0.1,0.1-0.2s0-0.1,0-0.2H435.8L435.8,137.5z"/><path fill="#FFFFFF" d="M439.5,142.6c-0.3,0.1-0.6,0.2-0.9,0.2s-0.6-0.1-0.8-0.2c-0.2-0.1-0.5-0.4-0.6-0.6c-0.1-0.3-0.2-0.6-0.2-0.9c0-0.6,0.2-1,0.5-1.4s0.8-0.5,1.3-0.5c0.3,0,0.6,0,0.8,0.2v0.6c-0.3-0.2-0.5-0.3-0.8-0.3c-0.4,0-0.7,0.1-0.9,0.4c-0.2,0.2-0.3,0.6-0.3,1c0,0.4,0.1,0.8,0.3,1c0.2,0.2,0.5,0.4,0.8,0.4s0.6-0.1,0.8-0.3L439.5,142.6L439.5,142.6z"/><path fill="#FFFFFF" d="M443.2,142.7h-0.8l-1.5-1.7l0,0v1.7h-0.6v-3.5h0.6v1.6l0,0l1.5-1.6h0.8l-1.6,1.7L443.2,142.7z"/><path fill="#FFFFFF" d="M446.7,142.7h-0.5V140l-1.8,2.7h-0.6v-3.5h0.5v2.7l1.8-2.7h0.6V142.7L446.7,142.7z"/><path fill="#FFFFFF" d="M450.7,142.7h-0.5V140l-1.8,2.7h-0.6v-3.5h0.5v2.7l1.8-2.7h0.6V142.7L450.7,142.7z M450.5,137.5c0,0.1,0,0.3-0.1,0.4c0,0.1-0.1,0.2-0.2,0.3c-0.1,0.1-0.2,0.1-0.4,0.2c-0.1,0-0.3,0.1-0.5,0.1s-0.3,0-0.5-0.1c-0.2-0.1-0.3-0.1-0.4-0.2c-0.1-0.1-0.2-0.2-0.2-0.3c0-0.1-0.1-0.3-0.1-0.4h0.6c0,0.1,0,0.2,0,0.2s0,0.1,0.1,0.2s0.1,0.1,0.2,0.1s0.2,0,0.3,0c0.1,0,0.2,0,0.3,0s0.1-0.1,0.2-0.1c0,0,0.1-0.1,0.1-0.2s0-0.1,0-0.2H450.5L450.5,137.5z"/><path fill="#FFFFFF" d="M418.7,148.7c0,0.3,0,0.7-0.2,0.9c-0.1,0.3-0.3,0.5-0.6,0.6c-0.2,0.1-0.5,0.2-0.8,0.2c-0.5,0-0.9-0.2-1.2-0.6c-0.3-0.4-0.4-0.9-0.4-1.6c0-1.4,0.3-2.3,1-2.6c0.1,0,0.3-0.1,0.4-0.1s0.3-0.1,0.5-0.1s0.3,0,0.5-0.1c0.1,0,0.3-0.1,0.4-0.1v0.5c-0.1,0-0.2,0.1-0.4,0.1c-0.1,0-0.3,0-0.5,0.1c-0.1,0-0.3,0-0.5,0.1c-0.1,0-0.3,0.1-0.4,0.1c-0.4,0.2-0.6,0.7-0.6,1.5l0,0c0.1-0.2,0.3-0.3,0.5-0.4s0.4-0.1,0.7-0.1c0.3,0,0.6,0.1,0.8,0.2c0.2,0.1,0.4,0.3,0.6,0.6C418.6,148.1,418.7,148.4,418.7,148.7z M418.1,148.8c0-0.4-0.1-0.7-0.3-0.9c-0.2-0.2-0.5-0.4-0.8-0.4c-0.5,0-0.8,0.2-1.1,0.7v0.3c0,0.5,0.1,0.8,0.3,1.1c0.2,0.3,0.5,0.4,0.8,0.4s0.6-0.1,0.8-0.3C418,149.4,418.1,149.1,418.1,148.8z"/><path fill="#FFFFFF" d="M422.3,148.8h-2.5c0,0.4,0.1,0.7,0.3,0.9c0.2,0.2,0.5,0.3,0.8,0.3s0.8-0.1,1.1-0.4v0.5c-0.3,0.2-0.7,0.3-1.2,0.3s-0.9-0.1-1.2-0.5c-0.3-0.4-0.4-0.8-0.4-1.3c0-0.3,0-0.7,0.2-0.9c0.1-0.3,0.3-0.5,0.6-0.7c0.2-0.1,0.5-0.2,0.8-0.2c0.5,0,0.8,0.1,1.1,0.4c0.2,0.3,0.4,0.7,0.4,1.2L422.3,148.8L422.3,148.8z M421.7,148.3c0-0.3-0.1-0.6-0.2-0.8c-0.1-0.2-0.4-0.3-0.7-0.3c-0.3,0-0.5,0.1-0.7,0.3c-0.2,0.2-0.3,0.4-0.3,0.8H421.7L421.7,148.3z"/><path fill="#FFFFFF" d="M425.4,149.5c0,0.3-0.1,0.6-0.4,0.8s-0.6,0.3-1,0.3c-0.5,0-0.8,0-1.1-0.2v-0.6c0.3,0.2,0.7,0.2,1.1,0.2c0.6,0,0.9-0.2,0.9-0.6s-0.3-0.6-1-0.6h-0.3v-0.5h0.3c0.6,0,0.9-0.2,0.9-0.6c0-0.1,0-0.3-0.2-0.4c-0.1-0.1-0.3-0.1-0.6-0.1c-0.3,0-0.7,0.1-1,0.2V147c0.4-0.1,0.8-0.2,1.1-0.2c0.8,0,1.3,0.3,1.3,0.9c0,0.2,0,0.4-0.2,0.5c-0.1,0.1-0.3,0.2-0.5,0.3l0,0c0.3,0,0.5,0.1,0.6,0.3C425.3,149.1,425.4,149.2,425.4,149.5z"/><path fill="#FFFFFF" d="M431,148.6c0,0.6-0.1,1.1-0.4,1.4s-0.7,0.5-1.2,0.5s-0.8-0.2-1-0.6l0,0v2.1h-0.6v-5.1h0.6v0.6l0,0c0.3-0.5,0.7-0.7,1.2-0.7c0.4,0,0.8,0.1,1,0.5C430.9,147.6,431,148,431,148.6z M430.4,148.5c0-0.4-0.1-0.7-0.3-0.9c-0.2-0.2-0.4-0.3-0.8-0.3c-0.3,0-0.6,0.1-0.8,0.3c-0.2,0.2-0.3,0.5-0.3,0.8v0.6c0,0.3,0.1,0.5,0.3,0.8c0.2,0.2,0.4,0.3,0.7,0.3c0.3,0,0.6-0.1,0.8-0.4C430.3,149.4,430.4,149,430.4,148.5z"/><path fill="#FFFFFF" d="M434.6,148.8h-2.5c0,0.4,0.1,0.7,0.3,0.9c0.2,0.2,0.5,0.3,0.8,0.3c0.4,0,0.8-0.1,1.1-0.4v0.5c-0.3,0.2-0.7,0.3-1.2,0.3s-0.9-0.1-1.2-0.5c-0.3-0.3-0.4-0.8-0.4-1.3c0-0.3,0-0.7,0.2-0.9c0.1-0.3,0.3-0.5,0.6-0.7c0.2-0.1,0.5-0.2,0.8-0.2c0.5,0,0.8,0.1,1.1,0.4s0.4,0.7,0.4,1.2L434.6,148.8L434.6,148.8z M434,148.3c0-0.3-0.1-0.6-0.2-0.8c-0.1-0.2-0.4-0.3-0.7-0.3c-0.3,0-0.5,0.1-0.7,0.3c-0.2,0.2-0.3,0.4-0.3,0.8H434L434,148.3z"/><path fill="#FFFFFF" d="M437.3,147.4h-1.4v3h-0.6v-3.5h1.9L437.3,147.4L437.3,147.4z"/><path fill="#FFFFFF" d="M441,150.4h-0.5v-2.7l-1.8,2.7h-0.6v-3.5h0.5v2.7l1.8-2.7h0.6V150.4L441,150.4z"/><path fill="#FFFFFF" d="M444.4,150.3c-0.3,0.1-0.6,0.2-0.9,0.2s-0.6-0.1-0.8-0.2c-0.2-0.1-0.5-0.4-0.6-0.6c-0.1-0.3-0.2-0.6-0.2-0.9c0-0.6,0.2-1,0.5-1.4c0.3-0.3,0.8-0.5,1.3-0.5c0.3,0,0.6,0,0.8,0.2v0.6c-0.3-0.2-0.5-0.3-0.8-0.3c-0.4,0-0.7,0.1-0.9,0.4c-0.2,0.2-0.3,0.6-0.3,1c0,0.4,0.1,0.8,0.3,1c0.2,0.2,0.5,0.4,0.8,0.4s0.6-0.1,0.8-0.3L444.4,150.3L444.4,150.3z"/><path fill="#FFFFFF" d="M447.4,147.4h-1v3h-0.6v-3h-1v-0.5h2.7L447.4,147.4L447.4,147.4z"/><path fill="#FFFFFF" d="M451.3,148.6c0,0.6-0.1,1.1-0.4,1.4s-0.7,0.5-1.2,0.5s-0.8-0.2-1-0.6l0,0v2.1h-0.6v-5.1h0.6v0.6l0,0c0.3-0.5,0.7-0.7,1.2-0.7c0.4,0,0.8,0.1,1,0.5C451.2,147.6,451.3,148,451.3,148.6z M450.7,148.5c0-0.4-0.1-0.7-0.3-0.9c-0.2-0.2-0.4-0.3-0.8-0.3c-0.3,0-0.6,0.1-0.8,0.3c-0.2,0.2-0.3,0.5-0.3,0.8v0.6c0,0.3,0.1,0.5,0.3,0.8c0.2,0.2,0.4,0.3,0.7,0.3c0.3,0,0.6-0.1,0.8-0.4C450.6,149.4,450.7,149,450.7,148.5z"/><path fill="#FFFFFF" d="M454.5,150.4h-0.6v-0.6l0,0c-0.2,0.4-0.6,0.6-1.1,0.6c-0.3,0-0.6-0.1-0.8-0.3c-0.2-0.2-0.3-0.4-0.3-0.8c0-0.7,0.4-1,1.2-1.1l1-0.1c0-0.6-0.2-0.9-0.7-0.9c-0.4,0-0.8,0.1-1.1,0.4V147c0.1-0.1,0.3-0.1,0.5-0.2s0.5-0.1,0.7-0.1c0.8,0,1.2,0.4,1.2,1.3L454.5,150.4L454.5,150.4z M453.9,148.6l-0.8,0.1c-0.3,0-0.5,0.1-0.6,0.2s-0.2,0.2-0.2,0.5c0,0.2,0,0.3,0.2,0.4c0.1,0.1,0.3,0.1,0.5,0.1c0.3,0,0.5-0.1,0.7-0.3s0.3-0.4,0.3-0.8L453.9,148.6C454,148.6,453.9,148.6,453.9,148.6z"/><path fill="#FFFFFF" d="M458.9,151.7h-0.5v-1.3h-2.9v-3.5h0.6v3h1.8v-3h0.6v3h0.5L458.9,151.7L458.9,151.7z"/><path fill="#FFFFFF" d="M462.6,150.4h-0.5v-2.7l-1.8,2.7h-0.6v-3.5h0.5v2.7l1.8-2.7h0.6V150.4L462.6,150.4z"/><path fill="#FFFFFF" d="M466.6,150.4h-0.5v-2.7l-1.8,2.7h-0.6v-3.5h0.5v2.7l1.8-2.7h0.6V150.4L466.6,150.4z"/></svg>