<svg version="1.1" xmlns="http://www.w3.org/2000/svg" x="0px" y="0px" width="640px" height="480px" viewBox="0 0 640 480" enable-background="new 0 0 640 480"><rect fill="#00BDF2" width="640" height="480"/><g id="XMLID_1_"><path id="XMLID_6_" fill="#FFFFFF" d="M345.7,169.4c0,13.1-9,24.5-23.8,24.5c-15.2,0-23.8-11.4-23.8-24.5c0-13.1,9-24.5,23.8-24.5C336.7,144.6,345.7,156,345.7,169.4"/><path id="XMLID_5_" fill="#FFFFFF" d="M393.7,169.4c0-21.4-9-41.1-24.2-54.2v54.2c0,26.6-18,49.4-48,49.4c-30,0-47.7-23.1-47.7-49.4s17.6-49.4,48-49.4c9.3,0,17.3,2.1,23.8,5.9v-24.9c-7.3-2.4-15.5-3.8-23.8-3.8c-42.5,0-72.2,32.8-72.2,72.2s29.7,72.2,72.2,72.2C364,241.3,393.7,208.5,393.7,169.4"/></g><g id="XMLID_2_"><path id="XMLID_50_" fill="#FFFFFF" d="M231.7,277.9H260v7.1h-20v7.4h17.6v7.4H240v7.7h20.2v7.4H232v-37.2H231.7z"/><path id="XMLID_49_" fill="#FFFFFF" d="M264.5,286.6h8v4.2c1.8-2.4,4.2-4.5,8.3-4.5c6.3,0,9.8,4.2,9.8,10.7v18.5h-8v-16.1c0-3.9-1.8-6-4.8-6s-5.1,2.1-5.1,6v16.1h-8v-28.9H264.5z"/><path id="XMLID_104_" fill="#FFFFFF" d="M295.7,320.8l2.7-6c3,1.8,6,2.7,9.5,2.7c5.7,0,8-2.7,8-7.7v-1.5c-2.4,3-5.1,4.8-9.2,4.8c-6.6,0-12.8-4.8-12.8-13.4c0-8.6,6.3-13.4,12.8-13.4c4.5,0,7.1,1.8,9.2,4.2v-3.9h8v22c0,5.1-1.2,8.9-3.6,11.3c-2.4,2.7-6.6,3.9-11.9,3.9C303.8,323.8,299.3,322.6,295.7,320.8 M316.3,299.4c0-3.9-3-6.8-6.8-6.8c-3.9,0-6.8,2.7-6.8,6.6s3,6.6,6.8,6.6C313.3,306.2,316.3,303.2,316.3,299.4"/><path id="XMLID_46_" fill="#FFFFFF" d="M330,276.1h8v39h-8V276.1z"/><path id="XMLID_100_" fill="#FFFFFF" d="M343.7,276.1h8.6v7.1h-8.6V276.1z M344,286.6h8v28.6h-8V286.6z"/><path id="XMLID_43_" fill="#FFFFFF" d="M355.3,311.3l3.3-5.4c3,2.4,6.3,3.3,8.9,3.3c2.4,0,3.3-0.9,3.3-2.1c0-1.8-2.7-2.4-6-3.3c-3.9-1.2-8.6-3-8.6-8.6c0-6,4.8-8.9,10.4-8.9c3.6,0,7.4,1.2,10.7,3.3l-3,5.7c-2.7-1.8-5.7-2.7-7.7-2.7c-2.1,0-3,0.9-3,2.1c0,1.5,2.7,2.4,6,3.3c3.9,1.2,8.6,3.3,8.6,8.3c0,6.3-4.8,9.2-11,9.2C363.3,315.7,358.9,314.3,355.3,311.3"/><path id="XMLID_42_" fill="#FFFFFF" d="M382.1,276.1h8v14.3c1.8-2.4,4.2-4.5,8.3-4.5c6.3,0,9.8,4.2,9.8,10.7v18.5h-8v-16.1c0-3.9-1.8-6-4.8-6s-5.1,2.1-5.1,6v16.1h-8v-39H382.1z"/><path id="XMLID_95_" fill="#FFFFFF" d="M108.6,349.1L108.6,349.1c0-7.7-5.7-14.6-14.3-14.6S80,341.3,80,349.1s5.7,14.6,14.3,14.6C102.6,363.7,108.6,356.8,108.6,349.1 M105.3,349.4c0,6.3-4.5,11.6-11,11.6s-11-5.4-11-11.6s4.5-11.6,11-11.6C100.5,337.5,105.3,342.8,105.3,349.4"/><path id="XMLID_39_" fill="#FFFFFF" d="M111,363.4h3.6l6.6-8.6l6.3,8.6h3.6l-8-10.7l7.7-10.1h-3.3l-6.3,8l-6.3-8h-3.6l8,10.1L111,363.4"/><path id="XMLID_38_" fill="#FFFFFF" d="M135.7,363.4h3v-18.2h6.6v-2.7h-6.6v-1.8c0-3,1.2-4.5,3.6-4.5c1.2,0,1.8,0.3,3,0.6v-2.7c-0.9-0.3-2.1-0.6-3.3-0.6c-1.8,0-3.3,0.6-4.5,1.5c-1.2,1.2-1.8,3-1.8,5.4v1.8h-3v2.7h3V363.4"/><path id="XMLID_90_" fill="#FFFFFF" d="M167.5,353c0-6-4.5-10.7-10.7-10.7s-10.7,5.1-10.7,10.7c0,6,4.5,10.7,10.7,10.7C162.8,363.7,167.5,358.9,167.5,353 M164.3,353c0,4.5-3.3,8-7.7,8c-4.5,0-7.7-3.6-7.7-8c0-4.5,3-8,7.7-8C161,344.9,164.3,348.5,164.3,353"/><path id="XMLID_35_" fill="#FFFFFF" d="M171.4,363.4h3V355c0-6.3,3.6-9.5,8.3-9.5h0.3v-3.3c-3.9-0.3-6.8,2.4-8.3,5.7v-5.4h-3v20.8H171.4"/><path id="XMLID_86_" fill="#FFFFFF" d="M205.1,363.4v-29.5h-3v12.5c-1.5-2.4-4.2-4.5-8-4.5c-5.1,0-9.8,3.9-9.8,10.7s5.1,10.7,9.8,10.7c3.9,0,6.3-2.1,8-4.8v4.2h3V363.4 M202.1,353c0,4.8-3.6,8-7.4,8s-7.4-3.3-7.4-8c0-5.1,3.3-8,7.4-8C198.5,344.9,202.1,348.2,202.1,353"/><path id="XMLID_83_" fill="#FFFFFF" d="M372.1,349.4c0-8-6.3-14-14.9-14h-9.8v28h9.8C366.2,363.4,372.1,357.1,372.1,349.4 M368.8,349.4c0,6.3-4.5,11-11.6,11h-6.6v-22.3h6.6C364.4,338.1,368.8,343.1,368.8,349.4"/><path id="XMLID_30_" fill="#FFFFFF" d="M376.9,338.1h3.6v-3.6h-3.6V338.1"/><path id="XMLID_29_" fill="#FFFFFF" d="M376.9,363.4h3.3v-20.8h-3.3V363.4"/><path id="XMLID_28_" fill="#FFFFFF" d="M395,364c3.9,0,6.3-1.8,8.3-3.9l-2.1-1.8c-1.8,1.8-3.6,3-6.3,3c-4.5,0-7.7-3.6-7.7-8c0-4.5,3.3-8,7.4-8c2.7,0,4.8,1.5,6.3,3.3l2.1-2.1c-1.8-2.1-4.5-3.6-8.3-3.6c-6,0-10.7,5.1-10.7,10.7C384.3,358.9,389.1,364,395,364"/><path id="XMLID_27_" fill="#FFFFFF" d="M414.1,363.7c1.5,0,2.7-0.3,3.9-0.9v-2.7c-1.2,0.6-2.1,0.6-3,0.6c-2.1,0-3.6-0.9-3.6-3.6v-12.2h6.6v-2.7h-6.6V336h-3v6.3h-3v2.7h3v12.5C408.1,362.2,410.5,363.7,414.1,363.7"/><path id="XMLID_26_" fill="#FFFFFF" d="M421.8,338.1h3.6v-3.6h-3.6V338.1"/><path id="XMLID_25_" fill="#FFFFFF" d="M421.8,363.4h3.3v-20.8h-3.3V363.4"/><path id="XMLID_74_" fill="#FFFFFF" d="M451,353c0-6-4.5-10.7-10.7-10.7s-10.7,5.1-10.7,10.7c0,6,4.5,10.7,10.7,10.7C446.3,364,451,358.9,451,353 M447.7,353c0,4.5-3.3,8-7.7,8c-4.5,0-7.7-3.6-7.7-8c0-4.5,3-8,7.7-8C444.5,344.9,447.7,348.5,447.7,353"/><path id="XMLID_22_" fill="#FFFFFF" d="M454.9,363.4h3v-11.9c0-3.9,2.7-6.6,6.3-6.6c3.6,0,5.7,2.4,5.7,6.3v12.2h3v-12.8c0-5.1-3-8.3-8-8.3c-3.6,0-5.7,1.8-7.1,4.2v-3.6h-3v20.5H454.9"/><path id="XMLID_70_" fill="#FFFFFF" d="M494.8,363.4v-12.8c0-2.7-0.6-4.8-2.1-6.3c-1.5-1.5-3.9-2.4-6.8-2.4s-5.4,0.6-7.4,1.8l0.9,2.7c1.8-0.9,3.9-1.5,6.3-1.5c3.9,0,6.3,1.8,6.3,5.7v0.6c-1.8-0.6-3.6-0.9-6.3-0.9c-5.4,0-8.9,2.4-8.9,6.8c0,4.2,3.9,6.6,7.7,6.6c3.6,0,6-1.8,7.4-3.6v3h3L494.8,363.4 M491.8,355.6c0,3.3-3,5.7-6.8,5.7c-2.7,0-5.4-1.5-5.4-4.2c0-2.4,2.1-4.2,6-4.2c2.4,0,4.5,0.3,6,0.9v1.8H491.8"/><path id="XMLID_19_" fill="#FFFFFF" d="M499.9,363.4h3V355c0-6.3,3.6-9.5,8.3-9.5h0.3v-3.3c-3.9-0.3-6.8,2.4-8.3,5.7v-5.4h-3v20.8H499.9"/><path id="XMLID_18_" fill="#FFFFFF" d="M514.4,338.1h3.6v-3.6h-3.6V338.1"/><path id="XMLID_17_" fill="#FFFFFF" d="M514.7,363.4h3v-20.8h-3V363.4"/><path id="XMLID_64_" fill="#FFFFFF" d="M541.8,353.3c0-6.3-3.6-11-9.8-11c-5.7,0-9.8,4.8-9.8,10.7c0,6.6,4.8,10.7,10.4,10.7c3.9,0,6.6-1.5,8.6-3.9l-1.8-1.8c-1.8,1.8-3.6,3-6.6,3c-3.6,0-6.8-2.7-7.4-6.8h16.4C541.8,353.9,541.8,353.6,541.8,353.3 M538.6,351.8h-13.4c0.3-3.9,3.3-6.8,6.8-6.8C536.2,344.6,538.3,347.9,538.6,351.8"/><path id="XMLID_14_" fill="#FFFFFF" d="M552.6,363.7c4.2,0,7.4-2.4,7.4-6.3s-3.6-5.1-6.6-6c-2.7-0.9-5.4-1.5-5.4-3.6c0-1.8,1.5-3,3.9-3c2.1,0,4.2,0.9,6.3,2.1l1.5-2.4c-2.1-1.5-5.1-2.4-7.4-2.4c-4.2,0-7.1,2.4-7.1,6c0,3.9,3.6,5.1,6.8,6c2.7,0.9,5.1,1.5,5.1,3.6c0,2.1-1.8,3.3-4.2,3.3s-5.1-0.9-7.1-2.7l-1.5,2.1C546.3,362.5,549.6,363.7,552.6,363.7"/><path id="XMLID_60_" fill="#FFFFFF" d="M336.7,344.3c0-0.3-0.3-0.3-0.3-0.6c-0.6-1.2-1.8-1.8-3.3-1.8c-0.6,0-1.2,0.3-1.8,0.3c-1.2,0.3-2.4,0.6-3.3,1.2c-1.5,0.9-3,1.8-4.5,3c-0.9,0.9-2.1,1.8-3,3c-0.6,0.9-1.5,1.8-2.1,2.7c-0.9,1.2-1.5,2.7-2.1,4.2c-0.3,0.6-0.3,0.9-0.3,1.5c0,0.6-0.3,1.2-0.3,1.8c0,1.2,0.3,2.1,0.9,3c0.3,0.3,0.6,0.3,0.9,0.6c0.9,0.3,1.8,0.3,2.4-0.3c0.6-0.3,1.2-0.9,2.1-1.2c1.8-1.2,3.3-3,4.8-4.5c0.6-0.9,1.2-1.5,2.1-2.4c0.3-0.3,0.3-0.3,0.6-0.6c0.3-0.3,0.3,0,0.3,0.3v0.3c0,0.3,0,0.6-0.3,0.9c-0.3,1.2-0.6,2.4-0.9,3.3c-0.6,1.8-0.9,3.9-1.5,5.7c-0.3,0.9-0.3,1.8-0.6,2.4c-0.3,0.9-0.6,2.1-1.2,3c-0.3,0.9-0.6,1.8-1.2,2.4c-0.6,1.2-1.5,2.4-2.1,3.6c-0.9,1.2-2.1,2.4-3.6,3.3c-0.9,0.6-2.1,1.2-3.3,1.2s-2.1,0-3-0.6c-0.3-0.3-0.6-0.6-0.9-0.9c-0.3-0.3-0.6-0.6-1.2-0.9c-0.3,0-0.6,0-0.9,0c-0.6,0.3-1.2,0.3-1.5,0.9c-0.3,0.3-0.6,0.6-0.9,0.9c-0.3,0.3-0.3,0.6,0,0.9c0,0.3,0.3,0.6,0.6,0.6c0.6,0.6,1.2,0.9,2.1,0.9c0.9,0,1.5,0,2.4,0.3c0.6,0,1.2,0.3,1.8,0.3c0.9,0,1.8,0,2.4-0.3c0.9-0.3,1.8-0.6,2.7-0.9c1.8-0.9,3.6-2.1,5.1-3.6c2.1-2.1,3.6-4.5,4.5-7.1c0.9-2.4,1.8-5.1,2.4-7.4c0.3-1.8,0.9-3.6,1.2-5.1c0.6-2.4,1.2-4.5,1.8-6.8c0.3-0.6,0.3-1.2,0.6-2.1c0-0.3,0.3-0.9,0-1.2c0-0.3,0-0.3,0-0.3c0.3,0,0.3-0.3,0.6-0.3c0.6-0.6,1.2-1.2,1.5-1.8C336.7,345.5,336.7,344.9,336.7,344.3 M333.7,347.6c-0.3,0.3-0.6,0.6-0.9,0.6c-0.9,0-1.2,0.6-1.8,1.2c-0.6,0.6-0.9,1.5-1.5,2.1c-0.6,0.9-1.2,1.5-1.8,2.4c-0.3,0.3-0.9,0.9-1.2,1.2c-0.9,1.2-2.1,2.1-3.3,3.3c-0.6,0.6-1.5,0.9-2.1,1.5c-0.3,0-0.6,0.3-0.9,0.3c-0.6,0-0.9-0.3-0.9-0.9c0-0.3,0-0.3,0-0.3c0-0.9,0-1.5,0.3-2.1c0.9-2.4,1.8-4.2,3.3-6.3c0.6-0.9,1.5-1.8,2.4-2.4c0.9-0.9,2.1-1.5,3-2.1c0.6-0.3,1.5-0.6,2.1-0.9c0.9-0.3,1.8,0,2.7,0.6C334,346.1,334.3,346.7,333.7,347.6"/><path id="XMLID_11_" fill="#FFFFFF" d="M308.7,363.7c-1.2-0.3-2.1-0.9-2.4-2.1c-0.3-0.9-0.6-1.5-0.6-2.4c0-1.2,0-2.1,0.3-3.3c0.3-1.2,0.6-2.1,0.9-3.3c0.3-1.2,0.6-2.1,1.2-3.3c0-0.3,0.3-0.9,0.3-1.2s0-0.3,0-0.6c0,0,0-0.3-0.3-0.3h-0.3c-0.6,0.3-1.2,0.6-1.8,1.2c-1.5,1.5-3,2.7-4.2,4.5c-1.2,1.2-2.1,2.7-3,4.2s-1.8,3-2.7,4.5c-0.3,0.6-0.6,0.9-0.9,1.5c0,0.3-0.3,0.3-0.6,0.6s-0.6,0.3-0.9,0c-0.3-0.3-0.6-0.3-0.6-0.6s0-0.3,0-0.6c0-0.6,0-0.9,0-1.5c0.3-1.8,0.9-3.6,1.2-5.1c0.3-1.2,0.6-2.4,0.9-3.3c0.3-1.2,0.6-2.4,0.9-3.3c0.3-0.9,0.6-2.1,0.9-3c0.3-0.9,0.9-1.8,1.5-2.7c0.3-0.3,0.3-0.3,0.6-0.6c0.3-0.3,0.9-0.3,1.2-0.3s0.3,0,0.6,0.3c0.6,0.3,0.9,0.9,0.9,1.5c0,0.3,0,0.3,0,0.6c0,0.3,0,0.3-0.3,0.6c0,0,0,0-0.3,0s-0.6,0.3-0.9,0.6c-0.3,0.6-0.9,1.2-0.9,1.8c-0.3,0.9-0.6,1.8-0.9,2.7c-0.3,1.2-0.6,2.1-0.9,3.3v0.3v0.3h0.3l0.3-0.3c1.2-1.5,2.4-3,3.9-4.2c1.2-1.2,2.4-2.4,3.6-3.6c0.9-0.9,1.8-1.5,2.7-2.1c0.3-0.3,0.9-0.3,1.2-0.6c0.3,0,0.6-0.3,0.9-0.3c0.3,0,0.3-0.3,0.6-0.6c0-0.3,0.3-0.3,0.6-0.6c0.3-0.6,0.9-0.3,1.2,0s0.6,0.6,0.9,0.9c0.3,0.3,0,0.9,0,1.2c-0.3,0.6-0.3,0.9-0.6,1.2s-0.3,0.6-0.6,0.6c-0.6,0.9-0.9,1.8-1.5,2.7c-0.3,0.9-0.9,1.8-1.2,2.4c-0.6,1.2-1.2,2.7-1.5,4.2c-0.3,0.9-0.3,1.8-0.3,2.7c0,0.6,0,1.2,0.3,1.5c0.3,0.6,0.9,0.9,1.5,1.2c0.6,0,1.2,0,1.8-0.3c0.3,0,0.6-0.3,0.6-0.3c0.6-0.3,0.9-0.6,1.5-0.9c0.3-0.3,0.6,0,0.6,0.3C314.6,360.4,311.1,364,308.7,363.7"/><path id="XMLID_10_" fill="#FFFFFF" d="M218.5,359.8c0-0.6,0-1.5,0.3-2.1c0.3-1.5,0.6-3,1.2-4.5c0.6-2.1,1.2-4.2,2.1-6c0.6-1.5,1.2-3,1.8-4.5c0.6-1.8,1.5-3.6,2.1-5.4c0.6-1.5,1.5-3.3,2.1-4.8c0.3-0.6,0.9-1.5,1.2-2.1c0.3-0.3,0.3-0.3,0.6-0.6c0.3-0.3,0.6-0.3,0.9,0c0,0,0.3,0,0.3,0.3c0.6,0.6,0.9,1.5,0.6,2.4c0,0.3-0.3,0.9-0.6,1.2c-0.6,1.2-1.2,2.4-1.8,3.6c-0.6,1.2-1.2,2.7-1.8,4.2c-0.9,1.8-1.5,3.6-2.4,5.4c-0.6,1.8-1.5,3.9-2.1,5.7c-0.3,1.2-0.6,2.4-0.9,3.3c-0.3,0.6-0.3,1.5-0.3,2.1c0,0.6,0,0.9,0,1.5v0.3c0,0.3,0.6,0.6,0.9,0.6c0.3,0,0.9-0.3,1.2-0.3c1.2-0.3,2.4-0.9,3.6-1.5c1.8-0.9,3.6-1.5,5.1-2.4c1.2-0.6,2.4-1.2,3.6-2.1c0.9-0.6,2.1-1.2,3-2.1c0.3-0.3,0.6-0.6,0.6-0.6l0.3-0.3c0.3-0.3,0.6,0,0.6,0.3c0,0.3,0,0.9-0.3,1.2c-0.3,0.3-0.6,0.9-0.9,1.2c-0.6,0.6-1.2,1.2-2.1,1.8c-2.4,1.8-5.1,3.3-7.7,4.8c-1.2,0.6-2.4,1.2-3.6,1.8c-1.5,0.6-2.7,1.2-4.2,1.5c-0.6,0.3-1.2,0.3-2.1,0.3c-0.6,0-0.9-0.3-1.2-0.6s-0.6-0.9-0.6-1.2C218.5,361.3,218.5,360.7,218.5,359.8"/><path id="XMLID_9_" fill="#FFFFFF" d="M263.4,345.2c0,0.3,0,0.6,0,0.9c0,0.6,0,1.2-0.3,1.5s-0.3,0.6-0.6,0.9c-0.6,0.9-1.2,2.1-1.5,3.3c-0.6,1.2-0.9,2.7-0.9,4.2c0,0.6-0.3,1.5-0.3,2.1c0,0.3,0,0.9,0,1.5c0,0.3,0,0.6,0.3,0.6c0,0.3,0.3,0.3,0.6,0.3s0.3,0,0.6-0.3c0.9-0.3,1.8-0.9,2.7-1.2c0.6-0.3,0.9-0.6,1.5-0.9c0.6-0.6,1.5-1.2,2.1-1.8c1.2-1.2,2.7-2.4,3.6-3.6c0.6-0.9,1.2-1.5,1.8-2.7c0.3-0.3,0.3-0.6,0.6-0.9c0,0,0,0,0-0.3s0-0.6-0.3-0.9c-0.3-0.6-0.6-0.9-0.9-1.5c0-0.3,0-0.6,0-0.9s0-0.3,0-0.6c0.3-0.6,0.9-1.2,1.5-1.8c0.3-0.3,0.6-0.3,0.9-0.3c0.3,0,0.6,0,0.9,0.3c0.3,0.3,0.3,0.6,0.6,0.9c0.3,0.6,0.3,0.9,0.3,1.5v0.3c0,0.3,0.3,0.6,0.6,0.9c0,0,0.3,0,0.3,0.3c0.3,0,0.6,0.3,0.9,0.3c0.3,0,0.3,0,0.6,0s0.6,0.3,1.2,0.3c0.3,0,0.3,0.3,0.3,0.3c0,0.3-0.9,1.5-2.7,1.5c-0.3,0-0.6,0-0.9,0c-0.3,0-0.3,0-0.6,0.3c0,0,0,0.3-0.3,0.3c-0.3,0.6-0.6,1.2-0.9,1.8c-0.3,0.6-0.9,1.5-1.5,2.1c-1.5,1.8-3,3.3-4.8,4.8c-0.9,0.9-2.1,1.5-3,2.1c-1.5,0.9-3,1.8-4.5,2.7c-0.3,0.3-0.9,0.3-1.2,0.6c-0.3,0-0.6,0.3-0.9,0.3c-0.3,0-0.6,0-0.9-0.3c-0.3-0.3-0.6-0.9-0.6-1.2c-0.3-0.9-0.3-1.8-0.3-3c0-0.9,0-2.1,0.3-3c0-0.3,0-0.6,0.3-1.2c0-0.6,0.3-1.2,0.3-1.8c0-0.6,0.3-1.2,0.3-1.5c0.3-0.6,0.3-1.2,0.6-1.8c0,0,0.3-0.3,0-0.6l-0.3-0.3c-0.3-0.3-0.3-0.3-0.3-0.6c0-0.3,0-0.6,0.3-0.9c0.3-1.2,0.9-2.4,1.8-3.3c0.3-0.3,0.6-0.9,1.2-1.2c0.3-0.3,0.6-0.3,0.9-0.3c0.3,0,0.6,0,0.9,0.3c0.3,0.3,0.3,0.9,0.3,1.2C263.4,344.6,263.4,344.9,263.4,345.2"/><path id="XMLID_8_" fill="#FFFFFF" d="M252.4,360.4c-0.3,0.3-1.5,1.5-4.2,3c-0.6,0.3-1.2,0.6-1.8,0.6c-0.3,0-0.6,0-0.9,0c-0.3,0-0.6-0.3-0.9-0.6c-0.9-0.6-1.2-1.5-1.5-2.7c0-0.6,0-1.2,0-1.8c0-0.3,0.3-0.9,0.3-1.2c0.6-1.5,0.9-2.7,1.5-4.2c0.3-0.9,0.6-1.5,0.9-2.4v-0.3c0-0.3,0.3-0.9,0-1.2c-0.3-0.6,0-1.2,0.3-1.8c0.3-0.6,0.6-1.2,0.9-1.8c0.6-0.9,1.2-1.8,2.1-2.7c0.3-0.3,0.6-0.6,1.2-0.9c0.3,0,0.3-0.3,0.6-0.3c0.3-0.3,0.9,0,1.2,0.3c0.3,0.3,0.6,0.9,0.6,1.2s0,0.6-0.3,0.9s-0.3,0.6-0.6,1.2c-0.9,1.5-1.8,3.3-2.4,4.8c-0.9,1.8-1.5,3.6-2.1,5.4c-0.3,0.6-0.6,1.5-0.6,2.1c0,0.3,0,0.6,0,0.9c0,0.3,0,0.3,0,0.6s0.3,0.6,0.9,0.6c0.3,0,0.6,0,0.9,0c0.6,0,1.2-0.3,1.5-0.6c0.6-0.3,1.2-0.6,1.8-0.9c0.6-0.3,1.2-0.6,1.8-0.6h0.3C253.9,358.6,252.4,360.1,252.4,360.4"/><path id="XMLID_7_" fill="#FFFFFF" d="M290.2,357.4c0.6,0,0,1.2,0,1.5c-0.3,0.6-1.8,2.4-4.8,4.2c-0.6,0.3-1.2,0.6-2.1,0.6c-1.2,0-1.8-0.3-2.4-1.2c-0.3-0.6-0.6-1.2-0.6-1.8c0-0.9,0-1.8,0.3-2.7c0.3-1.2,0.9-2.7,1.2-3.9s0.6-2.1,1.2-3.3c0.3-0.6,0-2.1,0.3-3c0.3-1.2,1.8-2.7,2.1-3s0.3-0.3,0.6-0.6c0.3-0.3,0.6-0.6,0.9-0.6l0.3-0.3c0.3-0.3,0.6-0.6,0.9-0.9s0.3-0.3,0.6-0.3c0.3,0,0.3,0,0.3,0.3c0.3,0.3,0.6,0.6,0.6,1.2c0,0.3,0,0.9-0.3,1.2c0,0.3-0.3,0.6-0.3,0.9c-0.9,1.5-1.8,3.3-2.4,5.1c-0.9,1.8-1.5,3.6-2.1,5.4c-0.3,0.9-0.6,1.8-0.6,2.7c0,0.3,0,0.9,0,1.2c0,0.3,0,0.3,0,0.6s0.3,0.6,0.9,0.6c0.3,0,0.6,0,0.9-0.3c0.6-0.3,1.5-0.6,2.1-1.2c0.9-0.6,1.5-1.2,2.1-1.8C289.9,357.7,289.9,357.4,290.2,357.4"/><path id="XMLID_4_" fill="#FFFFFF" d="M250.6,333.9c0.3,0,0.6,0,0.9,0.3c0.6,0.3,0.9,0.6,0.9,1.5v0.3c-0.3,1.2-0.3,2.7-0.3,3.9c0,0.3,0,0.3,0,0.6s-0.3,0.6-0.6,0.6c-0.6,0-0.9-0.3-1.2-0.6c-0.6-0.3-0.9-0.9-0.9-1.8c-0.3-0.6-0.3-1.5-0.3-2.4c0-0.6,0-0.9,0.3-1.5c0.3-0.6,0.6-0.6,0.9-0.9C250.3,333.9,250.3,333.9,250.6,333.9"/><path id="XMLID_3_" fill="#FFFFFF" d="M289.3,339c0,0.3,0,0.6,0,0.9c0,0.3,0,0.3,0,0.6s-0.3,0.3-0.3,0.3c-0.3,0-0.3,0-0.6,0c-0.9-0.3-1.5-0.9-1.8-1.8c-0.3-0.3-0.3-0.9-0.3-1.5c0-0.9,0-1.5,0-2.4c0-0.3,0-0.3,0.3-0.6c0.3-0.3,0.6-0.6,0.9-0.6c0.3,0,0.9,0,1.2,0c0.6,0.3,0.9,0.6,0.9,1.5c0,0.3,0,0.3,0,0.6c0,0.3,0,0.3,0,0.6C289.3,337.2,289.3,338.1,289.3,339"/></g></svg>
