<svg version="1.1" xmlns="http://www.w3.org/2000/svg" x="0px" y="0px" width="640px" height="480px" viewBox="0 0 640 480" enable-background="new 0 0 640 480"><linearGradient gradientUnits="userSpaceOnUse" x1="0" y1="360" x2="640" y2="360" gradientTransform="matrix(1 0 0 -1 0 600)"><stop offset="0" style="stop-color:#720C19"/><stop offset="1" style="stop-color:#E97F83"/></linearGradient><rect fill="url(#SVGID_1_)" width="640" height="480"/><g><path fill="#FCBC36" d="M128.2,235.3v13.1c1.6,0.5,16.9,0.2,20,0.2c0.4,4.9-4.8,9-8.4,10.3c-16.1,6.3-30.8-9.8-26.4-25.8c4.2-15.2,21.8-17.6,29.3-10.3c6.6,6.6,0.5,5.7,13.4,5.7c2.2,0,7.8,0.3,9.6-0.2c0.2-8.9-9.7-16.1-15-19.5c-7.2-4.6-19.3-5.9-28.6-3c-2.2,0.7-4.2,1.4-6.3,2.2c-4.6,1.5-5.1,2.2-7.9,5.2c-2.1,2.2-1.7,1.2-4.2,4.3c-0.7,0.9-1.4,1.4-2.1,2.4c-5.4,7.2-6.8,17.8-4.7,28.3c3.3,16.2,21.5,29.7,42,26.6c10.6-1.5,17.3-7,21.8-12.9c5-6.2,8.6-16.2,8-26.6L128.2,235.3L128.2,235.3z"/><path fill="#FCBC36" d="M344.3,223.2c-2.1-1.1-7-2.2-9.7-2.3c-5.1,0-9.4,2.2-12.7,5.4c-1,1-1.8,2.2-3,3.2c-3.9-1.3-4.2-7.4-13.6-8.5c-3.5-0.4-6.6,0.2-9.4,1.8c-2.1,1-5.2,3.9-6.7,4.2c-0.4-1.8,0-2.4,0-4.2h-14.6c-0.2,13.2,0.8,26.4,0.3,39.6c-0.3,10.9-2.9,11.4,8.3,11.4c4.2,0,6.1,0.8,6.6-3.7c1.4-11.4-3.1-31,6.2-34.4c2.8-1,6.2-0.2,8,1.3c5.4,4.3,2.5,28.4,3,36.4l11,0.1c0.4,0,3.3,0.1,3.6-0.2c1.3-1.4-1.3-25.2,1.4-33c1.3-3.8,2.4-4.2,6.8-4.8c8.6-1.2,8.5,7,8.5,14.2c0,4.1-0.2,20.6,0.2,23.2c2.2,1.4,11.8,1.3,14.6,0.2c1.2-3.4,0.4-18.2,0.3-22.9C353,238.6,355.3,229.4,344.3,223.2z"/><path fill="#FCBC36" d="M442.1,249.9c0.2-13.3,0.3-29.5-18.7-29.1c-9.4,0.2-13,6.6-16.2,7.8c-3.4-1.8-5.2-7.6-13.3-7.8c-10.5-0.3-11.4,4.4-15.1,5.9c-0.8-0.8-1-2.4-1.1-3.8l-13.6-0.3v51.1l14.2-0.3c1.3-3.3,0.7-18.5,0.6-23c-0.1-4.1-0.7-7.6,1.3-10.6c1.8-2.5,3-4.6,7.2-4.6c7.6-0.2,8.9,7.6,9,14.6c0.1,3.6-1.1,21.1-0.2,22.9l7,0.5c1.2,0,2.5-0.1,3.7-0.1c0.5,0,1.2,0,1.8,0c0.9-0.1,1.3-0.1,1.7-0.4c0.9-1.8-0.2-19,0-22.6c0.2-7,1.3-14.9,8.8-15c7.9-0.1,8.2,8,8.2,15.2c0,5.9-0.9,17.8,0.1,23h14.3C442.8,266.5,442,257,442.1,249.9z"/><path fill="#FCBC36" d="M418.9,297.8c-2.2,0-1.8,4.7-1.8,6.6c-0.6,10.6,0.1,26.2,0.2,36.6c0.1,3.7-0.9,7.7-2.9,9.5c-2,1.9-6.2,2.6-9.4,1.4c-6.6-2.2-5.9-13.5-6.1-20.9c0.1-2.2,0.8-30.6,0.1-33.3l-5.8-0.3c-12.3,0-11.4-0.1-11.4,9.6c0.2,12.2-0.7,28.3,0.5,40.1c0.6,5.8,1.9,8.4,4.7,11.8c4.4,5.3,14.1,9.1,24,9.1c6.7,0,6.2-1.4,9.6-2.6c2.8-1,4.9-3,6.9-5c1.8-1.8,3.9-4.2,4.8-7.2c1.1-3.8,2.1-5.1,2.1-9.6l0.3-23c0.2-7.5-0.4-15.2-0.7-22.7L418.9,297.8L418.9,297.8z"/><path fill="#FCBC36" d="M251,223.4c-0.3,1.4,0,2.9-0.6,4.2c-3.5-1.2-3-5.5-12.8-5.9c-16.5-0.7-29,8.1-29.2,27c0,3,0,5.7,1,8.3c1,2.5,1,4.7,2.3,7c5,8.5,15.9,12.6,25.8,11.8c10.7-0.9,9.8-6.1,13-5.8l0.2,4c1.4,0.4,11.8,0.5,13.4,0.1c0.2-5.4,1-48.4,0.5-50.3H251V223.4z M239,261.5c-8.2,1.4-13.8-4.3-15.1-10.9c-1.5-8.1,3.9-13.6,10.5-15C251.8,232.2,255.6,258.6,239,261.5z"/><path fill="#FCBC36" d="M492.3,269.3c1.3,4.8-1.6,4.2,4.8,4.2c2.2,0,7,0.2,8.9-0.2l0.8-50.2l-14-0.3c-0.1,2.2,0.2,2.6-0.7,4.2c-3.5-1-3-5.4-12.5-5.9c-5.2-0.3-11.9,0.8-16.1,2.6c-8.4,3.9-13.1,14.7-13.2,24.3c0,3-0.1,5.4,1,8c2.6,6.5,2.2,10.8,12.3,15.8c6.2,3,17.2,4.6,23.4,1.4C489.1,272.2,489.9,269.3,492.3,269.3z M470.8,258.4c-1.6-1-2.2-1.4-3.2-3.3c-5.4-9.4-0.2-17.9,8.5-20c6.5-1.5,13.9,2.4,15.3,10.5C493.2,257,482.1,266.1,470.8,258.4z"/><path fill="#FCBC36" d="M186.2,166.2h-21.6v-12.2l20.7-0.6c0.3-2.2,0.2-12.3,0.1-15.2c-7.3-0.2-12.4,0.1-20.1-0.2l0.1-10.5c3.9-0.2,18.2,0.4,20.5-0.2l0.3-15h-37.8l-0.2,68.6l37.4,0.1L186.2,166.2z"/><path fill="#FCBC36" d="M470.9,179.1c6.2,3.4,19,5.6,25.4-0.6c0.5-0.4,0.7-0.7,1.2-1.1c0.6-0.5,0.8-0.8,1.4-1l1,3.7l13.6,0.2l0.4-50.5c-4.2,0-9.8-0.4-13.5,0.7l-1,3.2c-2.2-1.4-4.5-5.7-13-5.7c-5.9,0-10.7,0.5-15.4,3.1C454.2,139.9,453.4,169.8,470.9,179.1z M484.1,142.1c17-2.9,21.5,24,3.7,25.9C470.2,169.9,467,145,484.1,142.1z"/><path fill="#FCBC36" d="M301.7,180.7c5.8,2.2,17.1,2.1,22-1.1c3.9-2.5,11.3-9.4,12-14.2c0-0.1-0.2-0.2-0.2-0.1l-1-0.2c-0.3-0.1-1.1-0.1-1.4-0.1c-16-0.6-11,1.8-17.8,4.4c-5.5,2.2-15.2-1.2-15.4-9.1l38.2-0.1c2.5-6.4-1.2-16.3-4.1-20.3c-13.4-18.5-40.2-13.5-47.4,7.4c-2.3,6.9-1.8,15.5,1.7,21.2C290.6,172.7,296.4,178.8,301.7,180.7z M303,143.9c5.4-5.5,19.7-3,20,5.7c-5.3,0-10.5,0-15.6,0C304.9,149.6,295.9,151.3,303,143.9z"/><path fill="#FCBC36" d="M535.2,321.6c-4.8-3.7-10.8-7.7-19.4-7.7c-10.2,0-17.4,5.1-22.2,11.7c-3.1,4.3-5.1,9.4-5.2,15.1c-0.3,22.5,26,35,42.4,22.1c2.3-1.8,8.3-7.6,8.3-12.2l-5.9-0.1c-14.4-0.1-8.6,4.6-17.8,4.6c-6.3,0-12.2-3.8-12.1-10l24,0.2c3.1,0,6.3-0.1,9.4-0.2c5.9-0.4,5.7-0.6,5.7-3.6C542.2,334.6,539,324.6,535.2,321.6z M526.9,335.1h-22.8c-1-5.4,6.1-8.9,11.6-9C521.1,326.1,527.9,329.7,526.9,335.1z"/><path fill="#FCBC36" d="M342.1,319.5c-2.3-2.4-5-4-8.4-4.9c-12.6-3.8-17.4,4.1-19.8,4.9c-0.6-0.9-0.5-2.6-0.9-3.8l-14-0.3v51.1l14.7-0.1c2.1-11.1-0.4-30,1.1-33.8c2.1-5,12.2-6.6,15.1-0.3c2.5,5.4-0.4,24.8,1,33.8c3.8,0.2,9.7,0.2,13.5,0.1c1.4-0.1,1.3-0.2,1.4-1.9c1.1-9.5,0.9-26.2-0.1-35C345.4,323.9,345.1,322.6,342.1,319.5z"/><path fill="#FCBC36" d="M364.7,144.4c2.2-2,7.5-3.2,10.6-1c1.8,1.2,3.8,6.7,3.9,10.1c0.1,5.3-1.4,23,0.4,26.6c0,0,0.1,0.1,0.1,0.2l13.9,0.8c1.4-11-0.3-22.6,0.2-33.5c0.2-1.8,0.3-4.1,0.1-5.7c-0.2-1.1-0.5-1.2-0.9-2.1c-0.5-1.3,0.1-1-0.4-2.1c-0.8-1.3-1.8-1.8-2.8-3c-0.6-0.6-0.7-0.9-1.4-1.4c-6.6-5.3-11.6-6.1-20.3-3.8c-5,1.4-3.9,4.6-7,4.7v-4.2l-14.1-0.1l-0.3,50.6c3.7,0.2,9.4,0.7,12.8-0.2c2.4-0.5,2.2-2,2.3-4.5l-0.3-20.8C361.4,149.8,361.3,147.4,364.7,144.4z"/><path fill="#FCBC36" d="M257.3,170.4c-3.1-0.8-3.2-3.4-4.6-4.2h-14.3c0,3.7,0.3,4.7,2.1,7.2c12.9,17.6,42.2,7.3,39.3-10c-2.1-11.8-12.5-11-22.6-15.8c-8.6-4.2-0.1-9.1,4.4-7c2.2,1.1-0.7,3.3,6.5,3.4c3.1,0,6.4-0.3,9.5-0.3c-0.1-10.3-8.6-15.7-19.2-15.1c-9,0.5-17.9,5.2-19.4,15c-0.9,5.8,0.1,8.5,4.4,12.2c5.2,4.4,15.8,4.2,18.9,6.9c1.3,1,2.8,4.2,1.4,5.9C262.7,169.8,259.3,170.9,257.3,170.4z"/><path fill="#FCBC36" d="M479.8,342.1c-3.4-4.5-7.6-5-12.7-6.3c-1.6-0.4-2.3-0.7-3.3-1.5c-1.8-1.5-1.6-0.2-3.5-1c-1.6-0.7-4-4.1-2.2-6.2c1.1-1.4,5.3-2.1,7.2-0.7c1,0.8,1,2.2,2.2,2.6c1.8,0.8,11.7,0.2,13.5-0.1c0-2.6-0.5-5.7-1.8-7.7c-4.2-6.4-13.6-7.9-21.3-7c-2.6,0.3-5.3,1.5-7,2.6c-8.5,5.2-10.6,12.3-6.4,22.1c0.8,1.8,0.5,1.8,2.4,2.4c2.3,0.8,4.2,2,6.5,2.9c5.4,2,11,0.9,14.1,5c3.7,5.3-5,8.9-9,4.6c-2.9-3-1.4-2.6-6.8-2.6c-3.1,0.1-6.3,0-9.4,0c0.8,23.8,43.3,21,40.6-2.4C482.4,345.7,481.3,344.1,479.8,342.1z"/><path fill="#FCBC36" d="M203.8,158.2c4.5,1.4,11.8,2.4,13.9,5.2c4.2,5.5-4.8,9.2-8.7,5.6c-3.3-3-0.1-2.9-6.6-2.9c-3.2,0-6.5,0-9.8,0c0.1,6.2,2.3,8.5,6.1,11.4c10.8,8.8,30.6,5.2,34.2-8.4c2-7-1-14-7.7-16.7c-2-0.9-4.4-1.8-6.5-2.3c-3.7-1.1-11.1-2.3-11-6.4c0.1-2,2.9-3.8,5.2-3.8c3.1,0.1,3,2.5,4.6,4.2c2.4,0.1,12.7-0.1,14.2-1c0.7-5.5-4.2-9.8-7-11.8c-4.2-2.6-9.8-3.8-15.6-2.6c-10.6,2.1-19.2,11.1-15.7,21.1C195,154.8,198.4,156.6,203.8,158.2z"/><path fill="#FCBC36" d="M405.7,141l0.4,40h14.1c0.4-6.7,0.2-13.5,0.1-20.2c0-4.8-0.5-15.5,0.7-19.8c2.6-0.6,4.3-0.7,7-0.7l0.1-10.5l-7.2-0.3c-0.7-5,0.7-12.5-0.4-16.9c-3.9-0.1-13.4-1.5-14.7,1.5c-0.8,1.8,0.2,5.7,0.5,7.7c0.3,3,0.2,5.1-0.1,8h-7.6V141C401.6,140.7,402.6,139.9,405.7,141z"/><path fill="#FCBC36" d="M539.6,112.2c-1.6-0.4-12.2,0-14.6,0"/><path fill="#FCBC36" d="M191.4,227.6l-0.4-4.2c-1.1-0.7-13-0.7-14.1-0.7l0.7,51l14.6-0.2c0.3-2.8-0.3-20-0.2-24.6c0-11.4,2.2-11,11.8-13.2l0.8-14.1C193.4,221.2,195.1,226.9,191.4,227.6z"/><path fill="#FCBC36" d="M543.8,223.2c0.1-2.6-0.9-2.2-3-1.6c-7.3,2.2-7.8,6.5-9.8,5.8c-0.6-1.8,0.2-2.8,0.2-4.6l-13.2,0.7c-1.8,6.9-0.2,42.7-0.1,50.3c2.9,0.2,11,0.1,13.3-0.8c0.6-6.3,0.4-13.8,0.6-20.1c0.2-6.4-0.6-14.1,5.2-15.8c3-1,6.4-0.1,6.9-3.6C544.2,230.9,543.8,226,543.8,223.2z"/><path fill="#FCBC36" d="M435,180.2l14.6,0.1v-50.4h-14.6c-1.1,2.2-0.6,12.3-0.6,15.6c0,5.4-0.1,10.8-0.1,16.2C434.4,165.4,434.1,178.1,435,180.2z"/><path fill="#FCBC36" d="M287.9,316.2l-0.2-0.8c-0.2-1.2-13.2-0.6-14.6-0.3l0.1,51h14.5c0.8-2.6,0.2-10.3,0.2-13.8C287.9,352.2,288.3,317.8,287.9,316.2z"/><path fill="#FCBC36" d="M273.6,298.5c-0.8,1.6-0.9,9.1,0.1,10.7c1.2,0.6,11.4,0.6,13.1,0.1c3-1,1.5-8.2,1.4-11.4L273.6,298.5z"/><path fill="#FCBC36" d="M436.9,123.4c3.4,1,8.5,0.3,12,0.1c1-2.5,0.9-8.1,0.9-11.3l-14.6,0.3c-0.4,1.3-0.2,5.8-0.2,7.6C434.9,122.3,434.9,123,436.9,123.4z"/><rect x="525.2" y="112" fill="#FCBC36" width="14.6" height="68.1"/></g></svg>
