<!-- Generated by IcoMoon.io -->
<svg version="1.1" xmlns="http://www.w3.org/2000/svg" width="32" height="32" viewBox="0 0 32 32">
<title>Repair</title>
<path d="M30.156 3.438q0.406 0.703 0.742 1.344t0.586 1.297 0.383 1.367 0.133 1.555q0 1.234-0.32 2.383t-0.906 2.148-1.414 1.828-1.828 1.414-2.148 0.906-2.383 0.32q-0.359 0-0.727-0.031t-0.727-0.094l-12.594 12.594q-0.75 0.75-1.711 1.141t-2.008 0.391q-1.078 0-2.031-0.414t-1.664-1.125-1.125-1.664-0.414-2.031q0-1.047 0.391-2.008t1.141-1.711l12.594-12.594q-0.063-0.359-0.094-0.727t-0.031-0.727q0-1.234 0.32-2.383t0.906-2.148 1.414-1.828 1.828-1.414 2.148-0.906 2.383-0.32q0.844 0 1.555 0.133t1.367 0.383 1.297 0.586 1.344 0.742l-6.156 6.156 1.594 1.594zM23 16q1.453 0 2.727-0.555t2.219-1.5 1.5-2.219 0.555-2.727q0-1.141-0.375-2.203l-5.625 5.609-4.406-4.406 5.609-5.625q-1.063-0.375-2.203-0.375-1.453 0-2.727 0.555t-2.219 1.5-1.5 2.219-0.555 2.727q0 0.547 0.094 1.063t0.219 1.031l-13.359 13.375q-0.453 0.453-0.703 1.047t-0.25 1.25 0.258 1.25 0.695 1.031 1.031 0.695 1.25 0.258 1.25-0.25 1.047-0.703l13.375-13.359q0.516 0.125 1.031 0.219t1.063 0.094z"></path>
</svg>
