<!-- Generated by IcoMoon.io -->
<svg version="1.1" xmlns="http://www.w3.org/2000/svg" width="32" height="32" viewBox="0 0 32 32">
<title>Share</title>
<path d="M29.703 20.797q0.531 0.344 0.961 0.805t0.727 1.008 0.453 1.156 0.156 1.234q0 1.031-0.398 1.938t-1.078 1.586-1.586 1.078-1.938 0.398q-1.438 0-2.656-0.766-1.797 1.359-3.945 2.063t-4.398 0.703-4.398-0.703-3.945-2.063q-1.219 0.766-2.656 0.766-1.031 0-1.938-0.398t-1.586-1.078-1.078-1.586-0.398-1.938q0-0.625 0.156-1.234t0.453-1.156 0.727-1.008 0.961-0.805q-0.156-0.703-0.227-1.398t-0.070-1.398q0-2.156 0.648-4.18t1.828-3.75 2.836-3.055 3.688-2.094q0.016-1.016 0.414-1.914t1.078-1.563 1.586-1.055 1.922-0.391 1.922 0.391 1.586 1.055 1.078 1.563 0.414 1.914q2.031 0.766 3.688 2.094t2.836 3.055 1.828 3.75 0.648 4.18q0 0.703-0.070 1.398t-0.227 1.398zM16 2q-0.625 0-1.172 0.234t-0.953 0.641-0.641 0.953-0.234 1.172 0.234 1.172 0.641 0.953 0.953 0.641 1.172 0.234 1.172-0.234 0.953-0.641 0.641-0.953 0.234-1.172-0.234-1.172-0.641-0.953-0.953-0.641-1.172-0.234zM2 25q0 0.625 0.234 1.172t0.641 0.953 0.953 0.641 1.172 0.234 1.172-0.234 0.953-0.641 0.641-0.953 0.234-1.172-0.234-1.172-0.641-0.953-0.953-0.641-1.172-0.234-1.172 0.234-0.953 0.641-0.641 0.953-0.234 1.172zM16 30q1.844 0 3.602-0.555t3.273-1.617q-0.422-0.625-0.648-1.352t-0.227-1.477q0-1.031 0.398-1.938t1.078-1.586 1.586-1.078 1.938-0.398q0.203 0 0.406 0.016t0.406 0.047q0.188-1.031 0.188-2.063 0-1.828-0.523-3.523t-1.484-3.141-2.328-2.578-3.055-1.836q-0.281 0.688-0.758 1.258t-1.086 0.977-1.313 0.625-1.453 0.219-1.453-0.219-1.313-0.625-1.086-0.977-0.758-1.258q-1.688 0.703-3.055 1.836t-2.328 2.578-1.484 3.141-0.523 3.523q0 1.031 0.188 2.063 1.125-0.188 2.18 0.125t1.859 1.008 1.289 1.68 0.484 2.125q0 0.75-0.227 1.477t-0.648 1.352q1.516 1.063 3.273 1.617t3.602 0.555zM27 28q0.625 0 1.172-0.234t0.953-0.641 0.641-0.953 0.234-1.172-0.234-1.172-0.641-0.953-0.953-0.641-1.172-0.234-1.172 0.234-0.953 0.641-0.641 0.953-0.234 1.172 0.234 1.172 0.641 0.953 0.953 0.641 1.172 0.234z"></path>
</svg>
