<!-- Generated by IcoMoon.io -->
<svg version="1.1" xmlns="http://www.w3.org/2000/svg" width="32" height="32" viewBox="0 0 32 32">
<title>vkontakte</title>
<path d="M27 21.436c0 1.379-0.259 2.614-0.766 3.675-0.518 1.050-1.207 1.925-2.093 2.614-1.046 0.82-2.179 1.421-3.407 1.75-1.252 0.35-2.804 0.525-4.734 0.525h-11v-28h9.716c2.016 0 3.559 0.077 4.584 0.241 1.046 0.154 2.016 0.482 2.934 0.984 0.993 0.536 1.725 1.27 2.2 2.166s0.734 1.936 0.734 3.118c0 1.368-0.334 2.58-1.014 3.643-0.657 1.061-1.596 1.848-2.782 2.352v0.154c1.704 0.371 3.041 1.105 4.066 2.22 1.045 1.125 1.541 2.655 1.563 4.559v0zM18.146 9.92c0-0.448-0.107-0.92-0.334-1.379-0.216-0.47-0.571-0.82-1.068-1.029-0.464-0.207-0.993-0.318-1.618-0.339s-1.543-0.032-2.782-0.032h-0.475v5.939h0.884c1.175 0 1.995-0.021 2.48-0.032 0.475-0.032 0.948-0.154 1.466-0.393 0.55-0.262 0.938-0.613 1.132-1.082 0.216-0.47 0.313-1.007 0.313-1.62v0l0.002-0.034zM19.904 21.316c0-0.875-0.163-1.532-0.518-2.034-0.345-0.482-0.863-0.864-1.543-1.105-0.421-0.164-0.993-0.262-1.725-0.284s-1.725-0.032-2.955-0.032h-1.262v7h0.368c1.802 0 3.041-0.021 3.721-0.032 0.702-0.032 1.391-0.186 2.104-0.504 0.625-0.284 1.079-0.668 1.38-1.214 0.291-0.527 0.43-1.116 0.43-1.795z"></path>
</svg>
