<svg version="1.1" xmlns="http://www.w3.org/2000/svg" x="0px" y="0px" width="640px" height="480px" viewBox="0 0 640 480" enable-background="new 0 0 640 480"><rect fill="#1CAFF6" width="640" height="480"/><g><path fill="#FFFFFF" d="M226.5,233.8c0,0.2,0,0.2,0,0.5c0,4.2-0.2,7-0.6,8.1c-0.6,1.8-1.6,3.1-3.1,4c-1.4,0.9-2.9,1.4-5,1.4s-3.6-0.5-5-1.4c-1.4-0.9-2.2-2.2-2.9-4c-0.6-1.6-0.9-4.2-0.9-8.3c0-0.2,0-0.5,0-0.9V211h-11.8v19.4c0,1.4,0,2.7,0,3.8c0.2,5.4,0.6,9.2,1.4,11.7c1.4,4,3.6,7.2,6.7,9.6c3.1,2.2,7.4,3.4,12.3,3.4c4.7,0,8.5-0.9,11.7-2.9c3.1-2,5.4-4.7,7-8.5c1.1-2.5,1.8-7,1.8-13.2c0-1.1,0-2.2,0-3.6V211h-11.7L226.5,233.8C226.2,233.8,226.5,233.8,226.5,233.8z M191.8,195.2h-11.7v18.2c-0.2,0-0.5-0.2-0.6-0.2c-3.8-2.2-8.1-3.4-12.3-3.4c-6.1,0-11.4,2-16.2,6.2c-5.4,5-8.1,11-8.1,18.2l0,0l0,0c0,6.7,2.5,12.6,7.2,17.3c4.7,4.7,10.6,7.2,17,7.2c4.5,0,8.7-1.1,12.6-3.1c3.8-2.2,6.7-5.1,9-9c2-3.4,2.9-7,3.1-10.7l0,0c0-0.5,0-1.1,0-1.6c0-0.5,0-1.1,0-1.6L191.8,195.2L191.8,195.2z M176.3,244c-2.5,2.5-5.4,3.8-9.2,3.8c-3.6,0-6.7-1.4-9-3.8c-2.5-2.5-3.6-5.8-3.6-9.8l0,0l0,0c0-3.8,1.1-7.2,3.6-9.6c2.5-2.5,5.4-3.8,9-3.8c3.8,0,6.7,1.4,9.2,3.8c2.5,2.5,3.6,5.8,3.6,9.6l0,0C179.8,238.2,178.7,241.6,176.3,244z M287.8,222.1c-2.2-3.8-5.1-6.7-9-9c-3.8-2.2-8.1-3.4-12.3-3.4c-6.1,0-11.4,2-16.2,6.2c-5.4,5-8.1,10.7-8.1,18.2l0,0c0,6.7,2.5,12.6,7.2,17.3c4.7,4.7,10.6,7.2,17,7.2c4.5,0,8.7-1.1,12.6-3.1c3.8-2.2,6.7-5.1,9-9c2.2-3.8,3.4-7.8,3.4-12.3C291,229.9,290.1,225.9,287.8,222.1z M275.8,244c-2.5,2.5-5.4,3.8-9.2,3.8c-3.8,0-6.7-1.4-9-3.8c-2.5-2.5-3.6-5.8-3.6-9.8l0,0c0-3.8,1.1-7.2,3.6-9.6c2.5-2.5,5.4-3.8,9-3.8c3.8,0,6.7,1.4,9.2,3.8s3.6,5.8,3.6,9.6l0,0C279.4,238.2,278,241.6,275.8,244z"/><path fill="#FFFFFF" d="M331.8,257.9h11.8v-45h-11.8V257.9z M311.6,245.8c-1.4-0.9-2.5-2.2-2.9-4c-0.5-1.4-0.6-4-0.6-8.1v-38.6h-11.7v34.7c0,1.4,0,2.5,0,3.6c0.2,6.2,0.6,10.6,1.8,13.2c1.6,3.6,3.8,6.5,7,8.5c3.1,2,7,2.9,11.7,2.9h9v-10.9h-9.2C314.5,247.2,313,246.7,311.6,245.8z M389.8,221.6c-1.6-3.6-3.8-6.5-7-8.5c-3.1-2-7-2.9-11.7-2.9c-5.1,0-9.2,1.1-12.3,3.4c-3.1,2.2-5.4,5.4-6.7,9.6c-0.6,2.2-1.1,6.2-1.4,11.7c0,1.1,0,2.5,0,3.8V258h11.8v-22.4c0-0.2,0-0.5,0-0.9c0-3.8,0.2-6.7,0.9-8.3c0.6-1.8,1.6-2.9,2.9-4c1.4-0.9,2.9-1.4,5-1.4c2,0,3.6,0.5,5,1.4s2.5,2.2,3.1,4c0.5,1.4,0.6,4,0.6,8.1c0,0.2,0,0.2,0,0.5v23h11.7v-19.7c0-1.4,0-2.5,0-3.6C391.5,228.6,390.9,224.1,389.8,221.6z M337.4,196.1c-3.4,0-6.2,2.9-6.2,6.2s2.7,6.2,6.2,6.2c3.4,0,6.2-2.7,6.2-6.2S340.7,196.1,337.4,196.1z M493.9,222.6c-2.2-3.8-5.1-6.7-9-9c-3.8-2.2-7.8-3.1-12.6-3.1c-6.7,0-12.3,2.5-17,7.2c-4.7,4.7-7.2,10.6-7.2,17.3l0,0c0,7.2,2.7,13.2,8.1,18.2c4.7,4.2,10.1,6.2,16.2,6.2c4.5,0,8.5-1.1,12.3-3.4c3.8-2.2,7-5.1,9-9c2.2-3.8,3.4-7.8,3.4-12.1C497.3,230.4,496.2,226.3,493.9,222.6z M485.4,234.9c0,4-1.1,7.2-3.6,9.6c-2.5,2.5-5.4,3.8-9.2,3.8c-3.6,0-6.7-1.4-9-3.8c-2.5-2.5-3.6-5.8-3.6-9.6l0,0c0-4,1.1-7.4,3.6-9.8s5.4-3.8,9-3.8s6.7,1.4,9.2,3.8S485.4,230.8,485.4,234.9C485.4,234.6,485.4,234.6,485.4,234.9z M444.2,232.8c-0.2-3.8-1.4-7.2-3.1-10.6c-2.2-3.8-5.1-6.7-8.7-9c-3.8-2.2-7.8-3.1-12.3-3.1c-6.7,0-12.3,2.2-17,7.2c-4.7,4.7-7,10.6-7,17.3l0,0l0,0c0,7.2,2.7,13.2,7.8,17.9c4.7,4.2,9.8,6.2,15.9,6.2c4.2,0,8.5-1.1,12.3-3.4c0.2-0.2,0.5-0.2,0.6-0.5v5.4c0,4-1.4,7.2-3.6,9.6c-2.5,2.5-5.4,3.8-9,3.8c-3.6,0-6.5-1.1-9-3.6l-7.6,8.1l0.2,0.2c4.7,4.2,10.1,6.2,15.9,6.2c4.2,0,8.5-1.1,12.3-3.4c3.8-2.2,6.7-5.1,9-9s3.1-7.8,3.1-12.1V236c0-0.5,0-0.9,0-1.6l0,0C444.4,233.9,444.4,233.3,444.2,232.8L444.2,232.8z M432.8,234.4L432.8,234.4c0,4-1.1,7.2-3.6,9.6c-2.5,2.5-5.4,3.8-9,3.8s-6.5-1.4-9-3.8c-2.5-2.5-3.6-5.6-3.6-9.6l0,0l0,0c0-4,1.1-7.2,3.6-9.8c2.5-2.5,5.4-3.8,9-3.8s6.7,1.4,9,3.8C431.4,227.2,432.8,230.4,432.8,234.4L432.8,234.4z"/></g></svg>