<svg version="1.1" xmlns="http://www.w3.org/2000/svg" x="0px" y="0px" width="640px" height="480px" viewBox="0 0 640 480" enable-background="new 0 0 640 480"><rect fill="#292929" width="640" height="480"/><g><path fill="#231F20" d="M443.1,168.6h67.7h3.1h6.9c3.3,0,8.7-0.2,16.4-0.5l2.9-0.1c-0.4,5.9-0.5,8.2-0.5,11.3v9v8.5v47.6c0,30-6.9,40.1-39.6,56.1c-1.5,0.7-18.1,8.9-19.9,9.8l-1.6,0.9l-1.7,0.9l-1.7-0.9l-1.7-0.9c-6.9-3.6-13.9-6.7-19.3-9.3c-30-14.5-39.5-24.8-39.5-56.6v-47.6l-0.1-8.5v-9c0-5.4-0.1-7.2-0.5-11.3l2.9,0.1c7.5,0.3,13.1,0.5,16.4,0.5h6.9L443.1,168.6"/><path fill="#FFFFFF" d="M476.7,309l12.9-6.2l0.3-0.1l-0.1-0.3v-58.6l-0.1-0.4l0.4,0.1h46.7l0.4,0.1l-0.1-0.5v-24.8l0.1-0.4l-0.4,0.1h-46.7l-0.4,0.1l0.1-0.4v-46.6l0.1-0.4l-0.4,0.1h-25.5l-0.4-0.1l0.1,0.4v46.6l0.1,0.4l-0.4-0.1h-46.3l-0.4-0.1l0.1,0.4v25.1l-0.1,0.3l0.4-0.1h46.3l0.4-0.1l-0.1,0.5v58.3l-0.1,0.5l0.3,0.1L476.7,309"/><path fill="#EF2F51" d="M417.4,171l-0.6-0.1l0.1,0.4v46.6l-0.1,0.4l0.6-0.1h46.1l0.4,0.1l-0.1-0.4v-46.7l0.1-0.3l-0.4,0.1H417.4 M490.3,171l-0.6-0.1l0.1,0.4v46.6l-0.1,0.4l0.5-0.1h46.5l0.4,0.1l-0.1-0.4v-46.7l0.1-0.3l-0.4,0.1H490.3 M463.5,243.5H417l-0.3-0.1l0.1,0.3v2.8c0,25.6,8.6,38,35.2,50.8l8.4,4l3,1.4l0.2,0.3v-0.4v-58.7l0.1-0.4H463.5 M490.1,243.5l-0.3-0.1l0.1,0.3v58.7l-0.1,0.4l0.3-0.4l2.7-1.2c36.1-16.8,44.3-26.8,44.3-54.5v-2.9l0.1-0.4l-0.4,0.1H490.1"/><path fill="#231F20" d="M424.4,220.4c0.1,0.1,0.2,0.2,0.3,0.3c0.2,0.2,0.3,0.3,0.3,0.4c0,0.1,0.2,0.2,0.4,0.4l0.3,0.3c-0.1,0.1-0.2,0.1-0.2,0.2l-0.4,0.4l-0.3,0.4l-0.1,0.1v0.4c0,3.2,0.9,5.4,2.7,6.9l0.3,0.3l-0.3,0.2H427l-0.8-0.1l-0.7-0.1l-0.4-0.1l-0.4,2.9h-0.6l-0.4-2.9l-0.4,0.1c-0.3,0.1-0.6,0.1-0.6,0.1l-0.8,0.1h-0.4c-0.2,0-0.3-0.1-0.3-0.1c0-0.1,0.1-0.2,0.2-0.3l0.6-0.5c0.5-0.4,0.8-0.8,1.4-2c0.3-0.5,0.4-1,0.4-1.3c0-0.8,0.1-1.5,0.3-1.5l0.1-1.5v-0.6l-0.2-0.1l-0.3-0.4l-0.4-0.4l-0.2-0.2c0.1-0.1,0.3-0.2,0.3-0.3C424.1,220.9,424.1,220.9,424.4,220.4 M439.7,220.4c0.3,0.4,0.4,0.5,0.9,1l0.3,0.3l-0.2,0.2l-0.4,0.4l-0.3,0.4l-0.2,0.1l0.1,0.6l0.1,1.5c0.1,2.1,1.3,4.5,2.6,5.2c0.2,0.1,0.3,0.2,0.3,0.3c0,0.1-0.1,0.2-0.2,0.2h-0.5l-0.8-0.1l-0.7-0.1l-0.4-0.1l-0.4,2.9h-0.5l-0.4-2.9l-0.4,0.1l-0.7,0.1l-0.8,0.1h-0.4l0,0c-0.2,0-0.3-0.1-0.3-0.1c0-0.1,0.1-0.2,0.2-0.2l0.6-0.5c0.5-0.4,0.7-0.6,1.4-2c0.3-0.6,0.4-1,0.4-1.3c0-0.8,0.1-1.5,0.2-1.5l0.1-1.5v-0.6c-0.1-0.1-0.1-0.1-0.1-0.1c-0.2-0.2-0.3-0.3-0.4-0.4l-0.4-0.4l-0.2-0.2l0.3-0.3c0.2-0.2,0.3-0.3,0.4-0.4c0.1-0.1,0.2-0.2,0.3-0.4C439.5,220.7,439.6,220.6,439.7,220.4 M432.1,229.3l0.3,0.3l0.3,0.4c0.1,0.1,0.2,0.2,0.4,0.4l0.4,0.3l-0.2,0.2l-0.4,0.4l-0.4,0.3l-0.1,0.2v0.4c0,3.3,0.8,5.4,2.7,6.9l0.3,0.3l-0.3,0.2h-0.4l-0.8-0.1l-0.7-0.1l-0.4-0.4l-0.4,2.9h-0.6l-0.4-2.9l-0.4,0.1l-0.7,0.1l-0.8,0.1h-0.4l0,0c-0.2,0-0.3-0.1-0.3-0.1c0-0.1,0.1-0.2,0.2-0.2l0.6-0.5c1.3-1,2.2-3.6,2.2-6.5v-0.4l-0.1-0.2l-0.4-0.3l-0.4-0.4l-0.2-0.2C431.4,230.1,431.7,229.8,432.1,229.3 M447.4,229.3c0.4,0.5,0.7,0.8,1.3,1.4l-0.2,0.2l-0.4,0.4l-0.4,0.3l-0.1,0.2v0.4c0,2.2,0.6,4.8,1.4,5.6l0.8,0.9c0.1,0.1,0.2,0.2,0.4,0.4l0.4,0.3l-0.3,0.2h-0.4l-0.8-0.1l-0.7-0.1l-0.4-0.1l-0.4,2.9H447l-0.3-3.2l-0.4,0.1l-0.7,0.1l-0.8,0.1h-0.4l0,0c-0.2,0-0.3-0.1-0.3-0.1c0-0.1,0.1-0.2,0.2-0.2l0.6-0.5c1.3-1,2.2-3.7,2.2-6.5v-0.4l-0.1-0.2l-0.4-0.3l-0.4-0.4l-0.2-0.2c0.2-0.1,0.3-0.2,0.4-0.3c0.2-0.2,0.3-0.3,0.4-0.4l0.3-0.4L447.4,229.3 M455,220.4c0.3,0.4,0.4,0.5,0.9,1c0.1,0.1,0.2,0.2,0.3,0.3l-0.2,0.2l-0.4,0.4l-0.3,0.4l-0.2,0.1v0.6l0.1,1.5c0.1,2.1,1.3,4.6,2.6,5.2c0.2,0.1,0.3,0.2,0.3,0.3c0,0.1-0.1,0.2-0.2,0.2h-0.5l-0.8-0.1c-0.2,0-0.4-0.1-0.7-0.1l-0.4-0.1l-0.4,2.9h-0.6l-0.4-2.9l-0.4,0.1l-0.7,0.1l-0.8,0.1h-0.4l0,0c-0.2,0-0.3-0.1-0.3-0.1c0-0.1,0.1-0.2,0.2-0.3l0.6-0.5c0.5-0.4,0.7-0.7,1.4-2c0.3-0.6,0.4-1,0.4-1.3c0-0.8,0.1-1.5,0.2-1.5l0.1-1.5v-0.6l-0.1-0.1l-0.4-0.4c-0.2-0.2-0.3-0.3-0.4-0.4c0,0-0.1-0.1-0.2-0.2c0.1-0.1,0.3-0.2,0.3-0.3c0.2-0.2,0.3-0.3,0.4-0.4c0.1-0.1,0.2-0.2,0.3-0.4C454.8,220.7,454.9,220.6,455,220.4 M498.5,220.3l0.3,0.4l0.3,0.3c0.2,0.2,0.3,0.3,0.4,0.4s0.2,0.2,0.4,0.3l-0.2,0.2l-0.4,0.4l-0.4,0.3l-0.1,0.2v0.3c0,3.2,1.1,6,2.7,6.9c0.2,0.1,0.3,0.2,0.3,0.3v0.1l-0.3,0.1h-0.4c-0.5,0-1.3-0.1-1.9-0.3l-0.4,2.9h-0.6l-0.4-2.9c-0.6,0.2-1.4,0.3-1.9,0.3h-0.4c-0.2,0-0.3,0-0.3-0.1c0-0.1,0.1-0.2,0.3-0.3c1.6-0.8,2.7-3.7,2.7-6.9v-0.3l-0.1-0.2l-0.4-0.3l-0.4-0.4l-0.2-0.2c0.2-0.1,0.3-0.2,0.4-0.3c0.1-0.1,0.2-0.2,0.4-0.4l0.3-0.3L498.5,220.3 M513.8,220.3l0.3,0.4l0.3,0.3l0.4,0.4l0.3,0.3l-0.2,0.2l-0.4,0.4l-0.4,0.3l-0.1,0.2v0.3c0,3.2,1.1,6,2.7,6.9c0.2,0.1,0.3,0.2,0.3,0.3v0.1l-0.3,0.1h-0.4c-0.5,0-1.3-0.1-1.9-0.3l-0.4,2.9h-0.6l-0.4-2.9c-0.7,0.2-1.4,0.3-2,0.3c-0.4,0-0.5,0-0.5-0.2c0-0.1,0.1-0.2,0.4-0.3c0.3-0.1,0.9-0.7,1.3-1.3c0.6-1,1-1.9,1-2.4c0-0.9,0.1-1.6,0.3-1.6l0.1-1.5v-0.5c-0.1-0.1-0.1-0.1-0.2-0.2c-0.5-0.5-0.6-0.5-0.9-0.8l0.4-0.3l0.4-0.4l0.3-0.3L513.8,220.3 M506.1,229.2c0.1,0.1,0.2,0.2,0.3,0.3c0.2,0.2,0.3,0.3,0.3,0.4c0,0,0.2,0.2,0.3,0.4c0.1,0.1,0.2,0.2,0.3,0.3l-0.2,0.2l-0.4,0.4l-0.4,0.3l-0.1,0.2v0.5l0.1,1.5c0.1,2.2,1.3,4.5,2.6,5.2c0.2,0.1,0.3,0.2,0.3,0.4v0.1l-0.3,0.1h-0.4c-0.5,0-1.3-0.1-1.9-0.3l-0.4,2.9h-0.6l-0.4-2.9c-0.5,0.2-1.4,0.3-2,0.3c-0.4,0-0.5,0-0.5-0.2c0-0.1,0.1-0.2,0.4-0.3c0.3-0.1,0.9-0.8,1.3-1.3c0.7-1.1,1.1-1.9,1.1-2.4c0-0.9,0.1-1.6,0.2-1.6l0.1-1.5v-0.5l-0.2-0.2l-0.3-0.3l-0.4-0.4l-0.2-0.2l0.3-0.3C505.8,229.7,505.8,229.6,506.1,229.2 M521.6,229.2c0.1,0.1,0.2,0.2,0.3,0.3c0.2,0.2,0.3,0.3,0.3,0.4c0,0,0.2,0.2,0.4,0.4c0.1,0.1,0.2,0.2,0.3,0.3c-0.1,0.1-0.1,0.1-0.2,0.2c-0.2,0.2-0.4,0.4-0.4,0.4c-0.2,0.2-0.3,0.3-0.4,0.3c0,0-0.1,0.1-0.1,0.2v0.5l0.1,1.5c0.1,2.2,1.3,4.5,2.6,5.2c0.2,0.1,0.3,0.2,0.3,0.4l0,0l-0.3,0.1h-0.4c-0.5,0-1.3-0.1-1.9-0.3l-0.4,2.9h-0.5l-0.4-2.9c-0.5,0.2-1.4,0.3-2,0.3c-0.4,0-0.5,0-0.5-0.2c0-0.1,0.1-0.2,0.4-0.3c0.3-0.1,0.9-0.8,1.3-1.3c0.7-1.1,1.1-1.9,1.1-2.4c0-0.9,0.1-1.6,0.2-1.6l0.1-1.5v-0.5l-0.2-0.2l-0.3-0.3l-0.4-0.4l-0.2-0.2l0.3-0.3C521.2,229.6,521.3,229.6,521.6,229.2 M529.3,220.3l0.3,0.4l0.3,0.3l0.4,0.4l0.3,0.3l-0.2,0.2l-0.4,0.4l-0.4,0.3l-0.1,0.2v0.3c0,3.2,1.1,6,2.7,6.9c0.2,0.1,0.3,0.2,0.3,0.3v0.1l-0.3,0.1h-0.4c-0.5,0-1.3-0.1-1.9-0.3l-0.4,2.9h-0.6l-0.4-2.9c-0.7,0.2-1.4,0.3-2,0.3c-0.4,0-0.5,0-0.5-0.2c0-0.1,0.1-0.2,0.4-0.3c0.3-0.1,0.9-0.7,1.3-1.3c0.6-1,1-1.9,1-2.4c0-0.9,0.1-1.6,0.3-1.6l0.1-1.5v-0.5c-0.1-0.1-0.1-0.1-0.2-0.2c-0.2-0.2-0.3-0.3-0.3-0.3l-0.4-0.4l-0.2-0.2l0.3-0.3l0.4-0.4l0.3-0.3L529.3,220.3 M469.7,261.3c0.3,0.4,0.4,0.5,0.9,1c0.1,0.1,0.2,0.2,0.3,0.3l-0.2,0.2l-0.4,0.4l-0.3,0.4l-0.2,0.2v0.5l0.1,1.5c0.1,1.3,0.6,3,1.3,3.9c0.4,0.6,0.9,1.1,1.3,1.3c0.3,0.1,0.4,0.2,0.4,0.3c0,0.1-0.1,0.2-0.6,0.2c-0.6,0-1.5-0.1-2-0.3l-0.4,2.9h-0.6l-0.4-2.9c-0.5,0.2-1.4,0.3-1.9,0.3h-0.4c-0.2,0-0.3,0-0.3-0.1s0.1-0.2,0.3-0.3c0.4-0.2,0.9-0.8,1.3-1.3c0.7-1.2,1.1-1.9,1.1-2.4c0-0.9,0.1-1.6,0.2-1.6l0.1-1.5v-0.5l-0.1-0.2l-0.4-0.4l-0.4-0.4l-0.2-0.2c0.1-0.1,0.3-0.2,0.3-0.3c0.2-0.2,0.3-0.3,0.4-0.4s0.2-0.2,0.3-0.4C469.5,261.6,469.6,261.5,469.7,261.3 M484.1,261.3c0.3,0.4,0.4,0.5,0.9,1c0.1,0.1,0.2,0.2,0.3,0.3l-0.2,0.2l-0.4,0.4l-0.3,0.4l-0.2,0.2v0.5l0.1,1.5c0.1,1.3,0.6,3,1.3,3.9c0.4,0.6,0.9,1.1,1.3,1.3c0.3,0.1,0.4,0.2,0.4,0.3c0,0.1-0.1,0.2-0.6,0.2c-0.6,0-1.5-0.1-2-0.3l-0.4,2.9h-0.6l-0.4-2.9c-0.5,0.2-1.4,0.3-1.9,0.3H481c-0.2,0-0.3,0-0.3-0.1s0.1-0.2,0.3-0.3c0.4-0.2,0.9-0.8,1.3-1.3c0.7-1.2,1.1-1.9,1.1-2.4c0-0.9,0.1-1.6,0.2-1.6l0.1-1.5v-0.5l-0.1-0.2l-0.4-0.4l-0.4-0.4l-0.2-0.2c0.1-0.1,0.3-0.2,0.3-0.3c0.2-0.2,0.3-0.3,0.4-0.4s0.2-0.2,0.3-0.4C483.9,261.6,484,261.5,484.1,261.3 M476.8,274.2l0.2,0.4l0.4,0.3l0.4,0.4l0.3,0.3l-0.2,0.2l-0.4,0.4c0,0-0.1,0.1-0.3,0.3c0,0-0.1,0.1-0.2,0.2v0.5l0.1,1.5c0.1,2.2,1.4,4.7,2.6,5.2c0.3,0.1,0.4,0.2,0.4,0.3v0.1l-0.3,0.1h-0.4l-0.8-0.1c-0.2,0-0.4-0.1-0.7-0.1l-0.4-0.1L477,287h-0.6l-0.4-2.9l-0.4,0.1l-0.7,0.1l-0.8,0.1h-0.4l0,0c-0.2,0-0.3-0.1-0.3-0.2s0.1-0.2,0.3-0.3c0.4-0.2,0.9-0.8,1.3-1.3c0.7-1.2,1.1-1.9,1.1-2.4c0-0.9,0.1-1.6,0.2-1.6l0.1-1.5v-0.5l-0.1-0.2l-0.4-0.3l-0.4-0.4l-0.2-0.2l0.3-0.3l0.4-0.4l0.3-0.3L476.8,274.2 M469.6,287.4l0.3,0.4l0.3,0.3l0.4,0.4l0.3,0.4l-0.1,0.1l-0.4,0.4l-0.4,0.3l-0.1,0.2v0.5l0.1,1.5c0.1,2.2,1.3,4.5,2.6,5.2c0.2,0.1,0.3,0.2,0.3,0.3l0,0l-0.3,0.1h-0.4c-0.3,0-0.9-0.1-1.9-0.3l-0.4,2.8h-0.6l-0.4-2.8c-0.9,0.2-1.5,0.3-2,0.3c-0.4,0-0.5,0-0.5-0.2c0-0.1,0.1-0.2,0.4-0.3c0.3-0.1,0.9-0.8,1.3-1.3c0.7-1.1,1.1-1.9,1.1-2.4c0-0.9,0.1-1.6,0.2-1.6l0.1-1.5v-0.5c-0.1-0.1-0.1-0.1-0.2-0.2c-0.2-0.2-0.3-0.3-0.3-0.3l-0.5-0.3l-0.2-0.2l0.3-0.3l0.4-0.4l0.3-0.3L469.6,287.4 M484.1,287.3l0.2,0.4l0.3,0.3l0.3,0.5l0.4,0.3l-0.2,0.2l-0.4,0.4c0,0-0.1,0.1-0.3,0.3c0,0-0.1,0.1-0.2,0.2v0.5l0.1,1.5c0.1,1.3,0.6,3,1.3,3.9c0.4,0.6,0.9,1.1,1.3,1.3c0.3,0.1,0.4,0.2,0.4,0.3c0,0.1-0.1,0.2-0.5,0.2c-0.5,0-1.2-0.1-2-0.3l-0.4,2.8h-0.6l-0.4-2.8c-1,0.2-1.5,0.3-1.9,0.3h-0.4c-0.2,0-0.3,0-0.3-0.1c0-0.1,0.1-0.2,0.3-0.3c0.4-0.2,0.9-0.8,1.3-1.3c0.7-1.2,1.1-1.9,1.1-2.4c0-0.9,0.1-1.6,0.2-1.6l0.1-1.5v-0.5l-0.1-0.2l-0.4-0.3l-0.4-0.5l-0.2-0.2l0.3-0.3l0.4-0.4l0.3-0.3L484.1,287.3 M476.8,248.4l0.2,0.4l0.3,0.3l0.4,0.4l0.3,0.3l-0.2,0.2l-0.4,0.4c0,0-0.1,0.1-0.3,0.3c0,0-0.1,0.1-0.2,0.2v0.5l0.1,1.5c0.1,2.2,1.4,4.7,2.6,5.2c0.3,0.1,0.4,0.2,0.4,0.3s-0.1,0.2-0.5,0.2c-0.5,0-1.2-0.1-2-0.3l-0.4,2.9h-0.6l-0.4-2.9c-1,0.2-1.5,0.3-1.9,0.3h-0.4c-0.2,0-0.3,0-0.3-0.1c0-0.1,0.1-0.2,0.3-0.3c0.4-0.2,0.9-0.8,1.3-1.3c0.7-1.2,1.1-1.9,1.1-2.4c0-0.9,0.1-1.6,0.2-1.6l0.1-1.5v-0.5l-0.1-0.2l-0.4-0.3l-0.4-0.4l-0.2-0.2l0.3-0.3l0.4-0.4l0.3-0.3L476.8,248.4 M469.5,175.9c0.1,0.1,0.2,0.2,0.3,0.3c0.2,0.2,0.3,0.3,0.3,0.4c0,0.1,0.2,0.2,0.4,0.4c0.1,0.1,0.2,0.2,0.3,0.3l-0.2,0.2l-0.4,0.4c0,0-0.2,0.2-0.4,0.4l-0.1,0.1v0.6l0.1,1.4c0.1,1.4,0.7,3.3,1.3,4l0.8,0.9c0,0,0.2,0.2,0.4,0.4l0.3,0.3l-0.3,0.2h-0.4l-0.8-0.1l-0.7-0.1l-0.4-0.1l-0.4,2.7l-0.5,0.1l-0.4-2.9l-0.4,0.1l-0.7,0.1l-0.8,0.1h-0.4c-0.2,0-0.3-0.1-0.3-0.1c0-0.1,0.1-0.2,0.2-0.3c0,0,0.2-0.2,0.6-0.5c0.5-0.4,0.7-0.6,1.4-2c0.3-0.6,0.4-1,0.4-1.3c0-0.9,0.1-1.6,0.2-1.6l0.1-1.4v-0.6l-0.2-0.1l-0.3-0.4l-0.4-0.4l-0.2-0.2c0.1-0.1,0.3-0.2,0.3-0.3C469.1,176.4,469.2,176.3,469.5,175.9 M484.1,175.9c0.3,0.4,0.4,0.5,0.9,1c0.1,0.1,0.2,0.2,0.3,0.3l-0.2,0.2l-0.4,0.4l-0.3,0.4l-0.2,0.1v0.6l0.1,1.4c0.1,2.1,1.3,4.6,2.6,5.3c0.2,0.1,0.3,0.2,0.3,0.3s-0.1,0.2-0.2,0.2h-0.5l-0.8-0.1c-0.2,0-0.4-0.1-0.7-0.1l-0.4-0.1l-0.4,2.9h-0.6l-0.4-2.9h-0.4l-0.6,0.2l-0.8,0.1H481h-0.1c-0.2,0-0.3-0.1-0.3-0.1c0-0.1,0.1-0.2,0.2-0.3l0.6-0.5c0.5-0.4,0.7-0.7,1.4-2c0.3-0.6,0.4-1,0.4-1.3c0-0.9,0.1-1.6,0.2-1.6l0.1-1.4v-0.6l-0.1-0.1l-0.4-0.4c-0.2-0.2-0.3-0.3-0.4-0.4c0,0-0.1-0.1-0.2-0.2c0.1-0.1,0.3-0.2,0.3-0.3c0.2-0.2,0.3-0.3,0.4-0.4c0.1-0.1,0.2-0.2,0.3-0.4C483.8,176.1,483.9,176,484.1,175.9 M476.7,188.3l0.3,0.3l0.3,0.4c0.2,0.2,0.3,0.3,0.4,0.4s0.2,0.2,0.3,0.3l-0.2,0.2l-0.4,0.4l-0.4,0.3l-0.1,0.2v0.5v1.4c0.1,2.2,1.3,4.6,2.6,5.3c0.2,0.1,0.4,0.2,0.4,0.3v0.1l-0.3,0.1h-0.4c-0.5,0-1.3-0.1-1.9-0.3l-0.4,2.9h-0.6l-0.4-2.9c-0.5,0.2-1.4,0.3-2,0.3c-0.4,0-0.5,0-0.5-0.2c0-0.1,0.1-0.2,0.4-0.3c0.3-0.1,0.9-0.7,1.3-1.3c0.6-1,1-1.9,1-2.4c0-0.9,0.1-1.6,0.3-1.6l0.1-1.5v-0.5c-0.1-0.1-0.1-0.1-0.2-0.2c-0.2-0.2-0.3-0.3-0.3-0.3l-0.4-0.4l-0.2-0.2l0.3-0.3l0.4-0.4c0.2-0.2,0.3-0.3,0.3-0.4C476.5,188.6,476.6,188.5,476.7,188.3 M469.4,200.7l0.3,0.3l0.3,0.4c0.1,0.1,0.2,0.2,0.4,0.4l0.4,0.3c-0.1,0.1-0.2,0.1-0.2,0.2l-0.4,0.4l-0.4,0.4l-0.1,0.1v0.4c0,2.1,0.6,4.7,1.3,5.5l0.9,1c0,0,0.2,0.1,0.4,0.4l0.3,0.3l-0.3,0.2h-0.4l-0.8-0.1l-0.7-0.1l-0.4-0.1l-0.4,2.9H469l-0.4-2.9l-0.4,0.1l-0.7,0.1l-0.8,0.1h-0.4h0.2c-0.2,0-0.3-0.1-0.3-0.1c0-0.1,0.1-0.2,0.2-0.3l0.6-0.5c1.3-1.1,2.2-3.6,2.2-6.5v-0.4l-0.1-0.1l-0.4-0.4c-0.2-0.2-0.3-0.3-0.4-0.4c0,0-0.1-0.1-0.2-0.2c0.2-0.1,0.3-0.2,0.4-0.3c0.2-0.1,0.3-0.3,0.4-0.4l0.3-0.4L469.4,200.7 M484,200.7c0.1,0.1,0.2,0.2,0.3,0.3c0.2,0.2,0.3,0.3,0.3,0.4c0,0,0.2,0.2,0.4,0.4c0.1,0.1,0.2,0.2,0.3,0.3c-0.1,0.1-0.2,0.1-0.2,0.2l-0.4,0.4l-0.4,0.4l-0.1,0.1v0.6l0.1,1.5c0.1,2.2,1,4,2.6,5.2l0.3,0.3l-0.3,0.2h-0.4l-0.8-0.1l-0.7-0.1l-0.4-0.1l-0.4,2.9h-0.6l-0.4-3c-0.7,0.2-0.8,0.3-1,0.3l-0.8,0.1H481l0,0c-0.1,0-0.2-0.1-0.2-0.1c0-0.1,0.1-0.2,0.2-0.3l0.6-0.5c0.5-0.4,0.7-0.6,1.4-2c0.3-0.6,0.4-1,0.4-1.3c0-0.8,0.1-1.5,0.2-1.5l0.1-1.5v-0.6l-0.2-0.1l-0.3-0.4l-0.4-0.4l-0.2-0.2c0.1-0.1,0.3-0.2,0.3-0.3C483.6,201.2,483.7,201.2,484,200.7 M453.8,194.3l0.2,0.6c0.1,0.5,0.3,1,0.3,1.3c0.5,2.3,0.9,2.9,2.1,2.9c0.6,0,1.2-0.4,1.3-0.9l0.2-0.8c0.1-0.2,0.2-0.3,0.4-0.3c0.4,0,0.6,0.5,0.7,1.4c0,0.3,0.1,0.9,0.3,1.9c0.1,0.6,0.2,1.2,0.2,1.7c0,0.5,0,0.7-0.2,1.2c0.1,0.8,0.2,1.8,0.2,2.4c0,1-0.2,1.9-0.5,2.4c0.2,0.7,0.2,0.9,0.2,1.5c0,0.4,0,0.9-0.1,1.3c-0.2,1-0.2,1.2-0.2,1.4c0,0.2,0,0.4,0.1,0.5c0.1,0.2,0.1,0.4,0.1,0.5s-0.1,0.2-0.1,0.2l-0.8-0.3l-0.9-0.5c-0.3-0.2-0.5-0.3-0.9-0.7c-0.8,0.7-1,0.8-3.1,1.4c-0.4,0.1-0.7,0.2-0.9,0.4c-0.3,0.2-0.4,0.3-0.5,0.3c-0.3,0-0.5-0.6-0.5-1.7c0-0.8,0.1-1.6,0.2-2.2c-0.6-0.2-1.1-0.4-1.5-0.4c-0.1,0-0.3,0-0.6,0.1h-0.2c-0.1,0-0.2-0.2-0.2-0.4s0.1-0.5,0.2-0.9l0.4-1c0.1-0.3,0.5-0.7,1-1.2c0.4-0.3,0.8-0.5,1.1-0.6l1.5-0.3c0.9-0.2,1.4-0.6,1.4-1.2c0-0.6-0.4-1-1.3-1.3l-1.7-0.6c-0.4-0.2-1-0.4-1.6-0.8c-1-0.6-1.1-0.6-1.4-0.6s-0.5,0.3-0.5,0.7c0,0.7,0.5,1.2,1.1,1.2c0.1,0,0.3,0,0.4-0.1c0.2-0.1,0.3-0.1,0.4-0.1c0.2,0,0.3,0.1,0.3,0.3v0.2l-0.1,0.7c-0.1,0.6-0.4,1.3-1.3,2.4l-0.4,0.5c-0.3,1.3-1.1,2.4-2.2,3.1c-0.3,0.2-0.4,0.3-0.4,0.3s-0.1,0.2-0.3,0.6c-0.1,0.2-0.4,0.5-0.8,1c-0.3,0.4-0.7,0.7-1,0.9c-0.5,0.3-0.7,0.6-0.8,0.7l-0.4,0.7c-0.1,0.1-0.2,0.2-0.3,0.2c-0.4,0-0.7-0.4-0.9-1c-0.2-0.5-0.3-0.6-0.6-0.6c-0.2,0-0.4,0-0.7,0.1l-0.6,0.1h-1.5c-0.7,0-1.8,0.2-2.2,0.4c-0.2,0.1-0.3,0.1-0.4,0.1c-0.1,0-0.2-0.1-0.3-0.2c-0.1-0.1-0.1-0.2-0.1-0.3c0-0.7,0.5-2.1,1.2-3.2c0.4-0.7,0.6-0.8,1.1-1.3c-0.2-0.7-0.6-1.2-1.1-1.4l-0.7-0.2c-0.1,0-0.2-0.1-0.2-0.2c0-0.2,0.3-0.5,0.9-0.8c0.8-0.4,1.6-0.6,2.2-0.6c0.7,0,1.3,0.3,2.1,0.8c1.1,0.8,1.4,1,1.9,1c0.9,0,1.7-0.8,1.7-1.6c0-0.5-0.3-1.1-1.1-2.1c-1.1-1.4-1.5-2.2-1.5-3.2c0-0.7,0.2-1.5,0.5-1.9l0.4-0.6c0.1-0.1,0.1-0.3,0.1-0.4c0-0.3-0.3-0.5-0.7-0.5c-0.6,0-1.9,0.4-2.8,1c-0.5,0.3-0.8,0.6-0.8,0.9c0,0.1,0.1,0.2,0.2,0.3l0.4,0.3c0,0,0.1,0.1,0.1,0.2c0,0.1-0.1,0.2-0.2,0.3l-0.8,1c-0.4,0.5-1.1,1.2-1.7,1.7c-0.2,0.2-0.3,0.3-0.4,0.4c0,0-0.1,0.2-0.3,0.6c-0.3,0.5-1.1,1.3-1.8,1.8c-0.3,0.2-0.5,0.3-0.6,0.4c-0.1,0.1-0.2,0.3-0.3,0.6c-0.1,0.2-0.3,0.5-0.5,0.8c-0.4,0.6-0.7,1-1,1.2l-1.1,1.1c-0.4,0.3-0.7,1-1.1,2.5c-0.3,0.9-0.5,1.4-0.7,1.4c-0.1,0-0.2-0.1-0.3-0.2c-0.8-0.9-1.5-1.4-1.9-1.4c-0.1,0-0.2,0.1-0.5,0.2c-0.3,0.2-0.7,0.3-1.1,0.4l-1.5,0.3c-1.1,0.2-1.6,0.5-2.2,1.2c-0.2,0.2-0.3,0.3-0.4,0.3c-0.1,0-0.2-0.2-0.2-0.5V213l0.2-1.1c0.2-1.1,0.5-2,0.8-2.6l0.7-1.2c0.1-0.2,0.2-0.5,0.2-0.6c0-0.9-1-1.8-2.1-1.9c-0.3,0-0.4-0.1-0.4-0.3s0.3-0.6,0.8-0.9c0.8-0.6,1.9-1,2.6-1c0.4,0,1,0.2,1.8,0.5l0.9,0.4c0.3,0.1,0.6,0.2,0.9,0.2c0.9,0,1.9-0.8,3-2.7c0.5-0.9,0.7-1.5,0.7-2c0-1-0.5-1.6-1.3-1.6c-0.6,0-1.3,0.3-1.8,0.8c-0.4,0.4-0.6,0.8-0.6,1.2v0.4v0.1c0,0.4-0.1,0.6-0.4,0.6c-0.4,0-0.9-0.5-2.5-2.4c-1.2-1.4-1.5-2-1.5-3.4c-1.4-1.7-1.7-2.5-1.7-3.7l0.1-0.8c-1-1.1-1.2-1.7-1.2-2.8c0-0.4,0.1-0.6,0.3-1c-0.5-0.7-0.6-1-0.8-1.6l-0.2-0.8c-0.1-0.6-0.4-1.1-0.6-1.5c-0.4-0.5-0.4-0.6-0.4-0.8c0-0.5,0.3-0.6,1.7-1c-0.1-0.4-0.1-0.7-0.1-0.9s0-0.5,0.1-1l0.3-1.5c0.1-0.6,0.2-1,0.2-1.3c0-0.3,0-0.5-0.3-1.3c-0.1-0.5-0.3-0.8-0.4-0.9c-0.1-0.2-0.2-0.5-0.2-0.5c0-0.1,0.1-0.2,0.3-0.2c0.4,0,1.5,0.6,2.6,1.5c2.3,1.9,2.8,2.6,3.1,4.9c0,0.2,0.1,0.4,0.1,0.8c1.1,0.8,1.7,1.8,1.7,2.8c0,0.8-0.3,1.8-0.8,2.6l-0.8,1.2c-0.2,0.4-0.4,0.8-0.4,1.3c0,0.8,0.2,1.4,0.8,2.4c0.6,1.1,1.2,1.5,1.8,1.5c1.1,0,2-1.8,2-3.9v-0.3V188c0-0.4,0-0.8,0.1-1.3c0.1-0.6,0.1-1,0.1-1.2v-1v-0.6c0-0.2-0.1-0.4-0.4-0.8l-0.9-1c-1.3-1.4-2-2.7-2-3.6c0-1.2,0.9-2.1,2.1-2.1c0.2,0,0.4,0,0.9,0.2v-0.3c0-1.8,0.4-3.1,0.9-3.1l0.2,0.1l0.7,0.6l0.9,0.6l0.2,0.2c0-0.5,0-0.5,0.5-1.1c0.1-0.1,0.3-0.4,0.6-0.8c0.2-0.3,0.3-0.5,0.4-0.6c0.1-0.1,0.1-0.2,0.2-0.4s0.2-0.3,0.3-0.3c0.1,0,0.2,0.1,0.4,0.6c0.1,0.3,0.2,0.3,0.9,1c0.2,0.2,0.4,0.4,0.5,0.5c0.1,0.1,0.2,0.4,0.3,0.8c0,0.1,0.1,0.2,0.1,0.3c0.3-0.4,0.4-0.5,0.8-0.7l0.6-0.4c0.2-0.1,0.4-0.2,0.5-0.2c0.1,0,0.1,0.1,0.2,0.2c0.1,0.1,0.2,0.3,0.3,0.6c0.4,0.7,0.6,1.1,0.6,1.4v0.4v0.5c1.3,0.4,1.8,1.1,1.8,2.5c0,1-0.5,2.2-1.6,3.4c-0.7,0.8-0.8,1-0.8,1.5c0,2.9,2.1,4.6,5.8,4.7h2.7c1.7,0,2.8,0.2,4.4,0.7c1.9,0.6,2.5,0.8,3,0.8c0.2,0,0.4-0.1,0.5-0.2s0.2-0.2,0.2-0.4c0-0.6-1-1-4.3-1.9c-6.7-1.9-9.4-4.5-9.4-8.8c0-3.4,2.8-6,6.5-6c1.2,0,3,0.3,4.1,0.7l1.7,0.6c0.3,0.1,0.6,0.2,0.9,0.2c0.6,0,0.9-0.5,0.9-1.4c0-0.5,0.1-0.7,0.5-0.7c0.5,0,1.2,0.6,1.8,1.5c0.7,0.9,1.1,1.9,1.1,2.6c0,0.9-0.4,1.5-1.4,2.1c-0.9,1.4-2,2-3.5,2c-1.2,0-2.8-0.7-5.6-2.2c-1-0.5-1.5-0.7-2-0.7c-0.7,0-1.2,0.4-1.2,1c0,0.6,0.5,0.9,1.6,1.4c1.8,0.6,2.2,0.8,2.9,1.6c2.1,0.4,3,0.7,4.3,1.7c3.6,1.1,5.8,3.5,5.8,6.2s-1.8,4.6-4.4,4.6C455.1,194.6,454.8,194.5,453.8,194.3 M529,194.3l0.2,0.6c0.1,0.5,0.3,1,0.3,1.3c0.5,2.3,0.9,2.9,2.1,2.9c0.6,0,1.2-0.4,1.3-0.9l0.2-0.8c0.1-0.2,0.2-0.3,0.4-0.3c0.4,0,0.7,0.5,0.7,1.4c0,0.4,0.1,1,0.2,1.9c0.1,0.7,0.2,1.3,0.2,1.8c0,0.4,0,0.6-0.2,1.1l0.1,0.5c0.1,0.8,0.2,1.1,0.2,1.5c0,1.7-0.1,2.2-0.5,2.9c0.2,0.7,0.2,1,0.2,1.4c0,0.3,0,0.7-0.1,1.4l-0.2,1.2v0.7c0.1,0.3,0.2,0.4,0.2,0.5c0,0.1-0.1,0.2-0.2,0.2l-0.8-0.3l-0.9-0.5c-0.3-0.2-0.5-0.3-0.9-0.7c-0.8,0.7-0.9,0.7-1.8,1c-1.3,0.4-1.8,0.5-2.1,0.7c-0.3,0.2-0.5,0.3-0.6,0.3c-0.3,0-0.5-0.6-0.5-1.5c0-1.3,0.1-1.9,0.3-2.4c-0.8-0.3-1.2-0.4-1.5-0.4c-0.1,0-0.2,0-0.6,0.1h-0.2c-0.1,0-0.2-0.1-0.2-0.4c0-0.4,0.3-1.2,0.7-1.8c0.5-0.9,1.3-1.6,2-1.8l1.5-0.3c0.9-0.2,1.4-0.6,1.4-1.2c0-0.6-0.4-0.9-1.3-1.3l-1.7-0.6c-0.6-0.2-1.1-0.5-1.6-0.8c-0.4-0.3-0.7-0.4-0.9-0.5c-0.1-0.1-0.3-0.1-0.4-0.1c-0.4,0-0.6,0.3-0.6,0.7c0,0.7,0.5,1.2,1.2,1.2c0.1,0,0.3,0,0.4-0.1c0.2-0.1,0.3-0.1,0.4-0.1c0.2,0,0.3,0.2,0.3,0.4c0,0.7-0.5,1.9-0.9,2.5l-0.5,0.6l-0.4,0.5c-0.1,1-1.2,2.5-2.2,3.1c-0.2,0.2-0.4,0.3-0.4,0.3s-0.1,0.2-0.3,0.6c-0.1,0.2-0.4,0.5-0.8,1c-0.3,0.4-0.7,0.7-1,0.9c-0.5,0.3-0.7,0.6-0.8,0.7l-0.4,0.7c-0.1,0.1-0.2,0.2-0.3,0.2c-0.4,0-0.7-0.4-0.9-1c-0.1-0.5-0.3-0.6-0.6-0.6c-0.2,0-0.4,0-0.7,0.1l-0.6,0.1h-1.4c-0.8,0-1.8,0.2-2.3,0.4c-0.2,0.1-0.3,0.1-0.4,0.1c-0.2,0-0.3-0.2-0.3-0.6c0-1.3,1-3.2,2.3-4.4c-0.2-0.7-0.6-1.2-1.1-1.4c-0.5-0.1-0.7-0.2-0.7-0.2c-0.1,0-0.1-0.1-0.1-0.2c0-0.3,0.3-0.5,0.9-0.8c1.2-0.5,1.5-0.6,2.1-0.6c0.7,0,1.4,0.2,2.1,0.8c1.1,0.8,1.4,1,1.9,1c0.9,0,1.7-0.8,1.7-1.6c0-0.6-0.3-1.2-1.1-2.1c-1.1-1.4-1.5-2.2-1.5-3.4c0-0.8,0.2-1.2,0.9-2.3c0.1-0.2,0.2-0.3,0.2-0.4c0-0.2-0.4-0.4-0.8-0.4s-1,0.2-1.7,0.5c-1.2,0.6-1.9,1.1-1.9,1.4c0,0.1,0.1,0.2,0.2,0.3l0.4,0.3c0.1,0,0.1,0.1,0.1,0.2s-0.1,0.2-0.2,0.3c-0.1,0.1-0.4,0.4-0.8,1c-0.6,0.7-1.1,1.3-1.7,1.7c-0.2,0.2-0.4,0.3-0.4,0.4l-0.3,0.6c-0.3,0.5-1.1,1.3-1.7,1.8c-0.3,0.2-0.5,0.4-0.6,0.4c-0.1,0.1-0.2,0.3-0.4,0.6c-0.4,0.7-1.1,1.6-1.5,2.1l-1.1,1.1c-0.3,0.3-0.8,1.2-1.2,2.5c-0.3,1-0.5,1.4-0.7,1.4c-0.1,0-0.2-0.1-0.3-0.2c-0.8-0.9-1.5-1.4-1.8-1.4c-0.1,0-0.3,0.1-0.5,0.2c-0.3,0.2-0.7,0.3-1.1,0.4l-1.5,0.3c-1.2,0.2-1.7,0.5-2.3,1.2c-0.1,0.2-0.3,0.3-0.3,0.3c-0.1,0-0.3-0.2-0.3-0.5v-0.3c0,0,0.1-0.4,0.2-1.1c0.2-1.1,0.5-2.1,0.8-2.6l0.7-1.2c0.1-0.2,0.2-0.4,0.2-0.6c0-0.9-0.9-1.7-2.2-1.9c-0.3,0-0.4-0.1-0.4-0.3c0-0.2,0.3-0.5,0.8-0.9c0.9-0.6,1.8-1,2.5-1c0.4,0,1.1,0.2,1.9,0.5l0.9,0.4c0.3,0.1,0.6,0.2,0.9,0.2c0.9,0,1.9-0.8,3-2.7c0.5-0.9,0.7-1.5,0.7-2c0-1-0.5-1.6-1.3-1.6c-0.6,0-1.2,0.3-1.7,0.8c-0.4,0.4-0.7,0.9-0.7,1.3v0.4v0.2c0,0.3-0.1,0.5-0.4,0.5c-0.3,0-0.7-0.3-1.4-1.1c-0.3-0.3-0.7-0.8-1.1-1.3c-1.2-1.4-1.5-2-1.5-3.4c-1.4-1.7-1.7-2.7-1.7-3.7l0.1-0.8c-1-1.2-1.2-1.6-1.2-2.8c0-0.5,0-0.6,0.2-1.1c-0.5-0.7-0.6-1-0.8-1.6l-0.2-0.8c-0.1-0.6-0.4-1.1-0.7-1.5c-0.4-0.5-0.4-0.6-0.4-0.7c0-0.4,0.4-0.7,1.4-0.9l0.3-0.1c-0.1-0.4-0.1-0.7-0.1-0.9s0-0.5,0.1-0.9l0.3-1.5c0.1-0.6,0.2-1,0.2-1.3c0-0.3-0.1-0.6-0.2-1.2c-0.1-0.4-0.3-0.7-0.4-0.9c-0.2-0.2-0.2-0.4-0.2-0.5c0-0.1,0.1-0.2,0.3-0.2c0.1,0,0.3,0.1,0.4,0.1c1.4,0.7,2.9,1.9,3.9,3.1c0.9,1,1.2,1.8,1.4,4.1c1.2,0.9,1.7,1.7,1.7,3c0,0.8-0.3,1.5-0.8,2.4c-0.5,0.7-0.8,1.2-0.8,1.2c-0.2,0.4-0.4,0.9-0.4,1.3c0,0.7,0.2,1.4,0.8,2.4c0.6,1.1,1.2,1.5,1.8,1.5c1.1,0,2-1.8,2-3.8v-0.4v-1.1l0.1-1l0.1-1.2l0.1-1v-0.5c0-0.4-0.1-0.5-1.3-1.8c-1.4-1.4-2-2.7-2-3.8s0.9-2,2.1-2c0.2,0,0.4,0,0.9,0.2v-0.5V176l0.2-1c0.2-0.8,0.3-1,0.6-1l0.2,0.1l0.7,0.6l0.9,0.6l0.2,0.2c0.1-0.5,0.1-0.6,0.5-1.1c0.2-0.3,0.4-0.5,0.6-0.8l0.4-0.6l0.2-0.4c0.2-0.2,0.2-0.3,0.3-0.3s0.2,0.1,0.3,0.6c0.1,0.2,0.2,0.4,0.4,0.5l0.5,0.4c0.4,0.4,0.7,0.9,0.9,1.6c0.3-0.4,0.5-0.5,0.8-0.7l0.6-0.4c0.2-0.1,0.4-0.2,0.4-0.2s0.1,0.1,0.2,0.2c0.1,0.2,0.2,0.4,0.3,0.6c0.5,0.8,0.6,0.9,0.6,1.5v0.3v0.5c1.3,0.4,1.8,1.1,1.8,2.5c0,1.1-0.5,2.2-1.5,3.4c-0.7,0.8-0.8,1.1-0.8,1.7c0,2.8,2.2,4.5,5.8,4.6h2.7c1.7,0,2.8,0.2,4.4,0.7c1.9,0.6,2.5,0.8,3.1,0.8c0.4,0,0.8-0.2,0.8-0.5c0-0.6-1-1-4.3-1.9c-6.7-1.8-9.4-4.5-9.4-8.8c0-3.4,2.9-6,6.6-6c1.2,0,3,0.3,4,0.7l1.7,0.6c0.3,0.1,0.6,0.2,0.9,0.2c0.6,0,0.8-0.3,0.9-1.4c0-0.5,0.2-0.7,0.5-0.7c0.4,0,1.3,0.7,1.9,1.5c0.6,0.8,1.1,1.9,1.1,2.7s-0.5,1.5-1.4,2c-0.9,1.4-2,2-3.5,2c-1.2,0-3.1-0.8-5.6-2.2c-1-0.6-1.4-0.7-1.9-0.7c-0.7,0-1.2,0.4-1.2,1c0,0.6,0.4,0.9,1.6,1.4c1.9,0.7,2.3,0.9,2.9,1.6c2.1,0.4,3,0.7,4.3,1.7c3.7,1.2,5.8,3.4,5.8,6.3c0,2.6-1.8,4.5-4.3,4.5C530.3,194.6,530,194.5,529,194.3 M454.6,269.3c0.4,0.9,0.5,1.3,0.5,1.9l0.1,1.7c0.1,1.7,0.6,2.5,1.7,2.5c0.4,0,0.7-0.1,0.9-0.3l0.4-0.4l0.2-0.1c0.3,0,0.4,0.2,0.4,0.5v0.6c0,0.3,0,0.9,0.2,1.8c0.1,0.5,0.1,1.1,0.1,1.6c0,0.8-0.1,1.2-0.4,1.9c0.3,0.8,0.4,1.7,0.4,2.4c0,0.9-0.1,1.4-0.5,1.9c0.2,0.7,0.2,1,0.2,1.4s-0.1,0.9-0.2,1.5c-0.1,0.8-0.2,1.5-0.2,1.9v0.1c0,0.2-0.1,0.4-0.2,0.4c-0.2,0-0.3-0.1-0.5-0.3c-0.2-0.3-0.4-0.4-0.6-0.4c-0.3,0-0.4,0.1-0.8,1.3c-0.1,0.4-0.5,0.9-1,1.5c-0.4,0.5-0.7,0.9-0.7,1.2c-0.1,0.5-0.2,0.8-0.2,0.8c0,0.1-0.1,0.2-0.2,0.2h-0.1c-0.7,0-1.4-1.4-2.2-4.1c-0.2-0.7-0.5-1.1-0.9-1.1c-0.3,0-0.6,0.2-0.7,0.4l-0.2,0.6c0,0.1-0.1,0.2-0.2,0.2c-0.3,0-0.8-0.6-1.1-1.3c-0.3-0.6-0.4-1.3-0.4-1.8c0-1.2,0.9-2.2,3.8-3.7c1.2-0.7,1.7-1.5,1.7-3.1c0-1.2-0.4-1.9-1.5-2.7c-0.9-0.6-1.4-0.9-1.8-0.9s-0.7,0.2-0.7,0.6s0.2,0.6,0.7,0.8c0.6,0.2,0.9,0.4,0.9,0.7c0,0.2-0.3,0.8-0.7,1.4c-0.5,0.7-0.7,0.9-1.3,1.3c-0.2,1.1-0.7,1.8-1.9,2.6c-0.2,0.7-0.4,0.9-0.8,1.5l-0.9,1.1c-0.3,0.3-0.6,0.9-0.6,1.2c-0.1,0.6-0.1,0.7-0.4,0.7s-1-0.6-1.6-1.4c-0.4-0.5-0.5-0.7-0.5-1.3c-0.4,0.3-0.6,0.4-1.4,0.5c-0.5,0.1-0.9,0.2-1.1,0.3c-0.6,0.3-0.8,0.4-0.9,0.4c-0.2,0-0.2-0.1-0.2-0.4v-0.9c0-1.2,0.5-2.6,1.2-3.5c-0.7-0.6-1.4-1-2-1c-0.2,0-0.3-0.1-0.3-0.1c0-0.1,0.2-0.5,0.4-0.7c0.3-0.4,0.5-0.6,0.7-0.8c0.6-0.5,1.6-0.8,2.4-0.8c0.5,0,1.3,0.2,2.3,0.6c0.4,0.1,0.7,0.2,1,0.2c0.4,0,0.7-0.3,0.7-0.8c0-0.7-0.4-1.9-1.2-3.7c-0.6-1.2-0.8-2.1-0.8-2.6c0-1.4,0.7-2.8,1.5-3.2c-0.4-0.2-0.6-0.2-0.9-0.2c-0.4,0-0.7,0.1-1.2,0.4c-0.6,0.3-0.9,0.6-0.9,0.9c0,0.1,0.1,0.2,0.3,0.3c0.3,0.2,0.4,0.3,0.4,0.6c0,1-0.8,2.3-2,3.2c-0.3,1.4-0.9,2.2-2.2,2.8c-0.2,0.8-0.3,1-0.9,1.8c-1.1,1.5-1.3,1.9-1.5,2.7c-0.1,0.4-0.2,0.6-0.3,0.6c-0.2,0-0.5-0.3-0.9-0.7c-0.3-0.4-0.6-0.6-0.6-0.8c-0.2-0.3-0.3-0.5-0.4-1.3c-0.3,0.1-0.4,0.1-0.6,0.1H433h-0.4c-0.9,0-1.8,0.2-2.3,0.5c-0.2,0.1-0.3,0.2-0.4,0.2c-0.3,0-0.5-0.5-0.5-1.2c0-1.4,0.4-2.6,1.4-3.9c-0.3-0.3-0.5-0.4-0.8-0.7c-0.1-0.1-0.2-0.2-0.3-0.3l-0.4-0.2c-0.2-0.1-0.2-0.2-0.2-0.3c0-0.2,0.6-0.8,1.3-1.2c0.8-0.5,1.4-0.7,2-0.7c0.7,0,1,0.2,1.8,0.9c0.6,0.5,1,0.7,1.2,0.7c0.2,0,0.4-0.1,0.6-0.4c0.1-0.2,0.2-0.4,0.2-0.6c0-0.8-0.9-2-1.9-2.7c-0.8-0.5-1.6-0.8-2.4-0.8c-1.1,0-2.1,0.5-2.5,1.4l-0.4,0.9c-0.1,0.2-0.2,0.3-0.4,0.3c-0.3,0-0.4-0.1-1.3-1.2l-1.5-1.3c-0.3-0.4-0.5-0.7-0.7-1c-0.1-0.3-0.2-0.5-0.2-0.5s-0.2-0.2-0.4-0.3c-0.8-0.6-1.4-1.7-1.7-3.3c0-0.1-0.1-0.3-0.1-0.5c-1-1.2-1.6-2.7-1.6-4c0-0.2,0-0.2,0.1-0.5c-0.6-0.6-0.6-0.7-1.1-2.2c-0.3-1.1-0.5-1.5-0.9-2.1c-0.1-0.1-0.2-0.2-0.2-0.3c0-0.2,0.3-0.4,0.9-0.5c0.6-0.1,0.6-0.1,0.8-0.1l0.8,0.1v-1.1c0-0.6,0-1.1,0.2-1.8c0.1-0.4,0.1-0.7,0.1-0.8s0-0.3-0.1-0.7c0-0.3-0.1-0.5-0.1-0.6c-0.1-0.1-0.1-0.3-0.1-0.3c0-0.1,0.1-0.2,0.2-0.2s0.3,0.1,0.5,0.2c0.7,0.3,1.3,0.7,1.7,1c1.4,1.1,2.5,2.7,2.5,3.8v0.3c-0.1,0.4-0.1,0.6-0.1,0.6c0,0.2,0.1,0.4,0.3,0.6l0.4,0.6c0.4,0.5,0.7,1.1,0.7,1.6c0,0.4-0.1,0.5-0.7,1.5c-0.5,0.7-0.7,1.2-0.7,1.8c0,0.7,0.3,1.6,0.8,2.5c0.5,0.8,1,1.3,1.6,1.3c0.9,0,1.3-0.8,1.4-2.9c0.1-1.1,0.2-2.1,0.3-3v-0.5c0-0.2-0.1-0.4-0.4-0.8l-1.2-1.4c-1.2-1.3-1.5-2-1.5-3c0-1.1,0.7-1.9,1.8-1.9h0.5v-0.3c0-0.3,0.1-0.6,0.2-1.1c0.3-0.9,0.6-1.5,0.7-1.5s0.2,0.1,0.4,0.2c0.1,0,0.3,0.1,0.7,0.3c0.2,0.1,0.4,0.2,0.8,0.4c0.2-0.7,0.3-1,0.6-1.4c0.5-0.7,1.1-1.2,1.3-1.2c0.1,0,0.4,0.2,0.7,0.5l0.8,0.8c0.1,0.1,0.3,0.4,0.4,0.8l0.2,0.4c0.2-0.1,0.4-0.2,0.5-0.3c0.3-0.2,0.5-0.3,0.6-0.4c0.5-0.2,0.8-0.3,0.8-0.4c0.2-0.1,0.4-0.2,0.4-0.2c0.1,0,0.2,0.2,0.5,1.6c0.2,0.9,0.2,1.1,0.3,1.8c1.3,0.2,1.9,0.9,1.9,2.3c0,1.3-0.6,2.6-2,4c-0.4,0.4-0.5,0.6-0.5,1c0,3.5,1.2,4.6,5.7,5.1c2.8,0.3,3.6,0.5,6.9,1.4c1.7,0.5,2.7,0.7,3.4,0.7c0.8,0,1.2-0.3,1.2-0.8c0-0.7-0.5-1-3.8-1.6c-7.4-1.6-10.4-4.1-10.4-8.9c0-3.5,2.6-6.1,6.2-6.1c1.6,0,2.9,0.5,5.1,1.7c2,1.2,2.5,1.4,2.9,1.4c0.5,0,0.8-0.3,0.8-1.2c0-0.6,0.2-0.8,0.5-0.8c0.3,0,0.8,0.3,1.3,0.8c0.7,0.8,0.9,1.2,0.9,2.3c0,1.4-0.8,2.4-2.3,2.8c-0.2,0.2-0.3,0.3-0.4,0.4c-0.8,0.9-1.6,1.2-2.9,1.2c-1.2,0-2.6-0.5-3.6-1.2l-1.9-1.4c-0.8-0.6-1.5-0.8-2-0.8c-0.8,0-1.3,0.5-1.3,1.3c0,0.8,0.5,1.4,1.4,1.7l1.8,0.6c0.6,0.2,1,0.3,1.7,0.7c0.5-0.1,0.7-0.1,0.9-0.1c1.1,0,2.4,0.3,3.4,0.8c0.3,0.2,0.6,0.3,0.7,0.3l1,0.3c2.3,0.6,4.2,3.2,4.2,5.6c0,2.8-1.9,4.6-4.9,4.6L454.6,269.3 M524.6,268.7c0.7,0.9,1.7,1.5,2.5,1.5c0.3,0,0.7-0.1,1.1-0.2c0.2-0.1,0.4-0.1,0.5-0.1c0.2,0,0.3,0.1,0.3,0.3c0,0.1-0.1,0.5-0.2,0.7c-0.1,0.3-0.2,0.5-0.2,0.7l-0.2,0.8l-0.4,0.7l-0.6,0.5l-0.2,0.2v0.5c0,1-0.3,1.5-1.1,2c-0.1,0-0.2,0.1-0.3,0.2l-0.1,0.3c-0.2,0.7-0.3,1.2-0.4,1.4s-0.4,0.6-0.8,1.1c-0.5,0.6-0.8,1.1-1,1.6c-0.2,0.4-0.3,0.5-0.6,0.5c-0.4,0-0.8-0.5-0.9-1.1c-0.1,0.1-0.2,0.2-0.2,0.2l-0.5,0.3l-0.8,0.5c-0.3,0.2-0.6,0.4-0.6,0.5l-0.4,0.4c-0.1,0.1-0.2,0.1-0.2,0.1c-0.2,0-0.4-0.3-0.6-1l-0.4-1.3c-0.1-0.4-0.2-0.8-0.2-1.3c0-0.7,0-0.9,0.3-1.4c-0.8,0.1-1,0.1-1.5,0.3c-0.1,0-0.3,0.1-0.4,0.1c-0.1,0-0.2-0.1-0.2-0.2c0-0.1,0.1-0.4,0.2-0.6l0.5-1.4c0.4-1,1.7-2,2.8-2c0.3,0,0.6,0.1,1,0.2c0.3,0.1,0.5,0.1,0.6,0.1c0.5,0,0.8-0.3,0.8-0.8c0-0.2-0.1-0.4-0.3-0.5c-0.1,0-0.6-0.2-1.5-0.4c-0.7-0.2-1-0.4-1.8-1.3c-0.6-0.6-0.8-0.8-1-0.8c-0.2,0-0.2,0.1-0.2,0.3v0.5v0.2c0,1.1-0.3,2.2-1.1,3.6l-1.1,2c-0.5,1-0.8,1.7-0.8,2.4c0,0.8,0.4,1.5,0.8,1.6l0.6,0.2c0.1,0,0.1,0.1,0.2,0.1c0.1,0.1,0.1,0.2,0.1,0.2c0,0.1-0.1,0.2-0.2,0.4c-0.1,0.1-0.3,0.4-0.7,0.9c-0.7,0.9-1.1,1.2-2,1.5c-0.5,1.2-1.3,1.8-2.7,2.3l-0.2,0.3c-0.5,0.8-1.6,1.6-2.2,1.6H508c-0.1,0.7-0.6,1.5-1.4,2c-0.6,0.4-0.9,0.6-0.9,0.7c0,0-0.1,0.2-0.2,0.4c-0.2,0.4-0.4,0.6-0.6,0.6c-0.4,0-0.8-0.4-1-1.2c-0.2,0.1-0.3,0.2-0.4,0.2c-0.5,0.3-0.7,0.5-0.8,0.5c-0.2,0.1-0.7,0.2-1.4,0.4c-1,0.2-1.9,0.6-2.1,1l-0.4,0.6l-0.2,0.1c-0.2,0-0.4-0.3-0.5-0.6c-0.2-0.8-0.4-1.7-0.4-2.2c0-1.4,0.5-2.3,1.9-3.8v-0.3c0-2.2,1.7-3.7,4.2-3.7h0.4l1.4,0.1h0.1c0.7,0,1.4-0.3,2.2-0.9c1-0.8,1.3-1.3,1.3-2.2c0-0.3-0.1-0.6-0.4-1.6c-0.2-0.7-0.3-1.3-0.3-1.9c0-1.6,1.2-3.7,2.9-4.8c0.4-0.3,0.7-0.7,0.7-0.9c0-0.1,0-0.2-0.1-0.2c-0.1,0-0.3,0.1-0.5,0.3c-0.2,0.2-0.5,0.4-1,0.6l-0.6,0.3l-0.7,0.3c-0.2,0.1-0.3,0.2-0.3,0.4c0,0.1,0,0.2,0.1,0.4c0.1,0.1,0.1,0.2,0.1,0.3s-0.1,0.2-0.2,0.5l-0.6,0.9c-0.6,0.9-1,1.3-1.7,1.6c-0.5,1.3-1.1,2-2.1,2.1c-0.8,1.5-1.4,2-2.8,2.2c-0.2,0.6-0.5,1.1-1.2,1.8c-0.3,0.3-0.5,0.5-0.5,0.6c-0.3,0.6-0.3,0.6-0.5,0.6c-0.2,0-0.6-0.3-0.9-0.6c-0.1-0.2-0.3-0.3-0.4-0.5l-0.4-0.6c-0.1-0.2-0.2-0.3-0.4-0.3h-0.3l-0.9,0.1c-0.6,0.1-1.4,0.5-1.6,0.9l-0.5,0.7c0,0.1-0.1,0.1-0.2,0.1c-0.4,0-0.6-0.8-0.6-2.1c0-1.1,0.2-1.9,0.6-2.4l1.1-1.5c0.2-0.2,0.2-0.4,0.2-0.6c0-0.2-0.1-0.4-0.2-0.5c-0.2-0.3-0.5-0.5-0.6-0.5l-0.9-0.1c-0.2,0-0.2-0.1-0.2-0.1c0-0.1,0-0.2,0.1-0.3c0.3-0.3,0.6-0.6,1-0.9c1-0.6,1.7-0.8,2.3-0.8c0.7,0,1.4,0.2,2.1,0.7l1.2,0.8c0.2,0.1,0.4,0.2,0.6,0.2c0.5,0,1-0.3,1.3-1c0.4-0.7,0.5-1.3,0.5-1.8c0-1.5-1.1-2.6-2.6-2.6c-0.7,0-1.4,0.3-2.1,0.8c-0.2,0.2-0.3,0.3-0.4,0.4l-0.3,0.7c-0.1,0.2-0.2,0.3-0.3,0.3c-0.2,0-0.7-0.6-1-1.3c-0.2-0.4-0.4-0.9-0.6-1.4c-0.2-0.8-0.3-1.4-0.3-2l0.1-1.1c-0.6-0.8-0.7-1.5-0.7-2.5c0-0.4,0.1-0.6,0.3-1.4c-0.3-0.6-0.4-1-0.4-1.8v-0.5l0.1-0.6l0.1-0.5c-0.4-0.5-0.5-0.8-0.9-2.6c-0.2-1-0.4-1.4-0.5-1.7c-0.1-0.1-0.1-0.2-0.1-0.2c0-0.2,0.6-0.4,1.2-0.4h0.6c-0.1-0.4-0.2-0.5-0.2-0.8c0-0.5,0.1-1,0.3-1.6c0.2-0.6,0.3-0.8,0.3-1c0-0.5-0.1-1-0.2-1.2l-0.3-0.8c-0.1-0.2-0.1-0.3-0.1-0.4s0.1-0.1,0.2-0.1c0.8,0,2.3,0.8,3.5,1.9s1.6,2,1.6,3.6l-0.1,0.9c1.1,0.9,1.6,1.7,1.6,2.6c0,0.6-0.2,1-0.8,1.6c-1.1,1.1-1.3,1.6-1.3,3c0,2.1,0.6,3.3,1.8,3.3c1,0,1.9-1.1,2-2.7l0.1-1.5c0-0.4,0.1-0.9,0.2-1.4c0.1-0.4,0.1-0.8,0.1-1c0-0.5-0.4-1.2-1.4-2.4c-1.1-1.3-1.5-2-1.5-3c0-1.2,0.9-2.1,2-2.1c0.3,0,0.4,0,0.8,0.2c0-0.7,0-0.8,0.4-1.8c0.3-0.8,0.7-1.3,0.8-1.3c0.1,0,0.1,0.1,0.2,0.2c0.2,0.2,0.4,0.3,0.5,0.4c0.3,0.2,0.4,0.3,0.4,0.3c0.1,0.1,0.2,0.2,0.4,0.4c0.3-0.9,0.5-1.3,1.3-2c0.6-0.5,0.8-0.7,0.9-0.7s0.2,0.1,0.3,0.2l0.5,0.6l0.7,0.8c0.3,0.3,0.4,0.5,0.5,1.2l0.4-0.2l0.6-0.4c0.1-0.1,0.3-0.2,0.5-0.3c0.1-0.1,0.2-0.1,0.3-0.1c0.1,0,0.1,0.1,0.2,0.3l0.2,0.9l0.5,1c0.2,0.3,0.2,0.5,0.2,1v0.3h0.3c0.8,0,1.5,0.9,1.5,2c0,1.4-1.1,3.2-2.7,4.2c-0.1,0.5-0.2,0.7-0.2,1.1c0,3.2,0.8,3.8,5.8,4.6c1.2,0.2,2.4,0.4,3.3,0.7c0.2,0,1.2,0.4,3.2,1c1.1,0.4,1.8,0.5,2.4,0.5s0.9-0.2,0.9-0.5c0-0.5-0.8-1-3.3-2l-3.5-1.3c-3.6-1.4-5.3-3.5-5.3-6.7c0-3.7,2.8-6.4,6.6-6.4c1.4,0,2.8,0.3,4.8,1c2.6,0.9,2.7,1,3,1c0.5,0,0.8-0.3,0.8-1c0.1-0.6,0.2-0.8,0.6-0.8c0.5,0,1,0.5,1.4,1.2c0.3,0.6,0.5,1.4,0.5,2.1c0,1.3-0.7,2.2-2,2.4c-0.9,1.1-1.9,1.6-3.3,1.6c-1.6,0-2.4-0.3-5.2-2c-1-0.6-1.4-0.8-2.1-0.8c-1,0-1.7,0.6-1.7,1.4c0,0.7,0.6,1.2,1.9,1.6c0.8,0.2,0.9,0.3,1.3,0.7c0.3-0.1,0.5-0.1,0.7-0.1c1.3,0,2.9,0.7,4.3,1.8c2.5,0.8,4.7,3.4,4.7,5.6c0,2.5-2.2,4.7-4.6,4.7C527.1,269.2,525.8,269,524.6,268.7"/><path fill="#FDDD04" d="M457.8,211.8c-0.1-0.5-0.2-0.7-0.2-1v-0.3l0.1-0.6v-0.5c0-0.6-0.1-1-0.3-1.2l-0.5-0.6c-0.2-0.2-0.3-0.5-0.4-0.8c-0.1-0.1-0.1-0.3-0.1-0.3c0-0.2,0.1-0.3,0.3-0.3c0.1,0,0.2,0,0.5,0.2c0.2,0.1,0.3,0.1,0.4,0.1c0.2,0,0.4-0.4,0.4-1.1c0-0.8-0.1-1.2-0.2-1.4l-0.6-0.7l-0.5-0.4c-0.1-0.1-0.2-0.2-0.2-0.3c0-0.2,0.1-0.3,0.3-0.3c0.2,0,0.6,0.1,0.9,0.2h0.2c0.2,0,0.2-0.1,0.2-0.3V202l-0.1-0.8l-0.2-0.9c-0.1-0.3-0.1-0.3-0.3-0.3h-0.1l-1,0.2h-0.2c-1.3,0-2.7-1.1-3.2-2.5l-0.8-2.6c-0.3-0.8-0.9-1.6-1.9-2.4c-0.3-0.3-0.6-0.4-0.8-0.4l-0.7-0.1c-0.1,0-0.2-0.1-0.2-0.2c0-0.2,0.2-0.2,0.5-0.2l1.3,0.1c0.5,0,1.2,0.2,2.2,0.6c1.2,0.4,2,0.6,2.7,0.6c2,0,3.2-1.1,3.2-2.9c0-1.2-0.7-2.6-1.7-3.5c-0.6-0.5-1.1-0.9-1.3-0.9c-0.1,0-0.2,0.1-0.2,0.2v0.5l0,0c0,0.2-0.1,0.4-0.3,0.4c-0.2,0-0.4-0.3-0.7-0.8c-0.8-1.6-2-2.5-3.2-2.5c-0.2,0-0.4,0.1-0.4,0.2c0,0.1,0.1,0.3,0.2,0.6l0.3,0.7c0.1,0.2,0.1,0.3,0.1,0.4c0,0-0.1,0.1-0.2,0.1c-0.2,0-0.5-0.2-0.7-0.4l-0.6-0.6l-0.5-0.8c-0.4-0.6-0.8-0.9-1.7-1.4c-0.5-0.3-0.8-0.4-1-0.5c-0.2-0.1-0.4-0.2-0.5-0.2s-0.2,0.1-0.2,0.2s0.1,0.3,0.2,0.4c0.3,0.5,0.4,0.7,0.4,0.8c0,0.1-0.1,0.2-0.2,0.2c-0.3,0-1-0.6-1.5-1.5c-0.5-0.7-0.7-1.5-0.7-2.2c0-1.7,1.3-3,3-3c0.9,0,2,0.4,3,1l1.9,1.2c0.7,0.4,1.6,0.7,2.2,0.7c0.3,0,0.8-0.1,1.2-0.2c0.2,0,0.3-0.1,0.5-0.2c0.1-0.1,0.2-0.2,0.2-0.2c0-0.1,0-0.2-0.1-0.2l-0.2-0.1l-0.9-0.2c-0.2,0-0.6-0.2-1.1-0.4c-1.1-0.5-1.7-0.8-2-1c-0.7-0.4-1.1-0.7-1.3-0.8c-0.3-0.1-0.5-0.3-0.5-0.4s0.1-0.2,0.2-0.2c0.1,0,0.3,0.1,0.4,0.2c0.6,0.4,1.1,0.6,1.5,0.6l1.7,0.6c0.9,0.3,2.1,0.6,2.7,0.6c0.7,0,1.3-0.6,1.3-1.3c0-0.5-0.3-1.2-0.7-1.7c-0.1-0.1-0.2-0.2-0.3-0.2c-0.2,0-0.3,0.1-0.3,0.3v0.3l0.1,0.5c0,0.5-0.4,0.9-0.8,0.9c-0.2,0-0.4,0-0.6-0.1l-2.6-0.8c-2.2-0.7-3.2-0.9-4.3-0.9c-3.2,0-5.6,2.1-5.6,4.9c0,3.2,2.3,5.2,7.8,7.1c5.5,1.9,6.3,2.3,6.3,3.7c0,0.8-0.8,1.5-1.7,1.5c-0.4,0-0.7,0-1-0.1c-0.2,0-1.1-0.3-2.8-0.6c-1.7-0.4-3.2-0.6-5-0.6c-4,0-6.2,0.7-8,2.5c-0.5,0.5-0.6,0.5-1.2,0.5h-0.3h-0.6h-0.1c-0.5,0-0.8,0.2-1.1,0.7c-0.4,0.7-0.7,1-0.7,1.1c-0.1,0.2-0.3,0.2-0.5,0.2c-0.4,0-0.6-0.3-1-1.2c-0.2-0.5-0.5-0.9-0.8-1.2l-0.8-0.7c-0.1-0.1-0.2-0.2-0.2-0.3s0.1-0.2,0.2-0.4c0.4-0.6,0.5-0.8,0.6-1c0.1-0.5,0.1-0.6,0.3-0.6s0.3,0.2,0.3,1.2c0,0.3,0.1,0.6,0.3,1.1l0.4,1c0.1,0.1,0.2,0.2,0.4,0.2c0.4,0,1-1,1.1-2c0.1-0.9,0.2-1.1,0.4-1.1c0.1,0,0.1,0,0.2,0.1c0,0.1,0.2,0.3,0.4,0.7c0.1,0.2,0.3,0.4,0.5,0.6c0.2,0.2,0.4,0.3,0.5,0.3l0,0c0.3,0,0.4-0.2,0.5-1v-0.4l-0.1-0.6l-0.1-0.4c0-0.3,0.1-0.4,0.2-0.4s0.2,0.1,0.3,0.2l0.4,0.4c0.3,0.3,0.5,0.4,0.8,0.4s0.5-0.1,0.5-0.4c0-0.2-0.1-0.4-0.4-0.9l-0.3-0.5c-0.3-0.6-0.6-0.8-0.9-0.8h-0.4l-0.5,0.2c-0.1,0.1-0.3,0.1-0.3,0.1c-0.1,0-0.1-0.1-0.1-0.2c0-0.4,0.2-0.9,0.7-1.6c0.3-0.5,0.5-1.6,0.6-3.1c0.1-2.1,0.4-3.4,0.7-3.4c0.2,0,0.3,0.2,0.3,0.6v0.5v0.4c0,0.4,0.1,0.7,0.2,0.7c0.3,0,0.8-0.5,1.1-1.3c0.1-0.3,0.2-0.6,0.2-0.8v-0.2l-0.8-1.5l-0.8-0.2c-0.1,0-0.3-0.1-0.3-0.2v-1l-0.1-0.5l-0.2-0.4l-0.2-0.4c-0.9,0.5-1.3,0.8-1.6,1.2c-0.3,0.4-0.5,0.6-0.7,0.6c-0.1,0-0.2-0.1-0.2-0.2c0-0.1,0-0.3,0.1-0.6v-0.2c0-0.9-0.5-1.7-1.4-2.2l-0.2,0.3l-0.3,0.4l-0.5,0.6c-0.2,0.2-0.3,0.4-0.4,0.8c-0.1,0.2-0.1,0.3-0.1,0.4v0.1v0.1c0,0.3,0,0.4-0.2,0.4h-0.1l-0.3-0.4l-0.4-0.5l-0.7-0.4l-0.4-0.3c-0.1,0.2-0.1,0.3-0.2,0.4c-0.1,0.3-0.2,0.5-0.2,0.6v0.6v0.7v0.1c0,0.4-0.1,0.5-0.3,0.5c-0.1,0-0.3-0.1-0.5-0.2c-0.2-0.1-0.4-0.2-0.6-0.2c-0.6,0-1,0.4-1,1.1c0,0.8,0.2,1.6,0.6,2.1l0.5,0.7c0.1,0.2,0.4,0.3,0.4,0.2l0.1-0.8l-0.1-0.7v-0.3c0-0.3,0.1-0.4,0.2-0.4c0.2,0,0.4,0.2,0.5,0.9l0.3,1.5l0.3,1.9c0.1,0.5,0.2,1,0.5,1.6c0.3,0.8,0.6,1.2,0.7,1.4c0.4,0.6,0.5,0.6,0.5,0.8c0,0.1-0.1,0.2-0.2,0.2c-0.1,0-0.2,0-0.4-0.1c-0.1-0.1-0.3-0.1-0.5-0.2h-0.3c-0.6,0-0.8,0.5-0.8,3.2c0,1.6,0.4,3.8,0.8,4.9l0.8,2.1c0.1,0.3,0.2,0.7,0.2,1c0,2.9-3.9,7.5-8.1,9.6c-1.6,0.8-2.1,1.5-2.2,3.3v0.5c0.7-0.3,0.9-0.4,1.4-0.6c1.2-0.3,1.4-0.5,1.6-1l0.2-0.5c0.1-0.2,0.2-0.3,1.1-0.8c0.3-0.2,0.5-0.3,0.6-0.5c0.2-0.3,0.4-0.5,0.5-0.5s0.2,0,0.2,0.1v0.1l-0.4,1.1v0.3c0,0.8,0.5,1.5,1.3,2c0.1-0.9,0.2-1.2,0.5-1.7l0.7-1.1c0.3-0.4,0.4-0.9,0.4-1.7c0-0.4,0-0.9-0.1-1.2v-0.3c0-0.2,0.1-0.3,0.3-0.3c0.1,0,0.3,0,0.3,0.1l0.2,0.8c0,0.2,0.2,0.3,0.4,0.3c0.4,0,0.9-0.5,1.4-1.4c0.2-0.3,0.3-0.7,0.3-1.1l-0.1-0.5l-0.1-0.6v-0.1c0-0.3,0.1-0.4,0.4-0.4c0.1,0,0.2,0,0.2,0.1l0.2,0.9c0.1,0.3,0.3,0.5,0.5,0.5c0.3,0,0.7-0.5,1-1c0.2-0.5,0.4-1,0.4-1.6c0-0.8,0.1-1.1,0.4-1.1c0.1,0,0.2,0,0.2,0.1l0.2,0.5c0.1,0.2,0.2,0.3,0.3,0.3c0.2,0,0.6-0.5,0.9-1c0.1-0.1,0.1-0.3,0.1-0.4c0-0.2-0.1-0.3-0.4-0.5c-0.4-0.3-0.4-0.4-0.4-0.9c0-0.5,0.1-0.8,0.4-1.4c0.2-0.3,0.4-0.7,0.5-1c0.5-1,0.7-1.2,0.9-1.2s0.3,0.2,0.3,0.3c0,0.1,0,0.2-0.1,0.3c-0.1,0.2-0.2,0.4-0.2,0.5c0,0.2,0.1,0.3,0.3,0.3s0.4-0.1,0.7-0.2c0.1-0.1,0.5-0.2,1.1-0.4l1.3-0.5c0.2-0.1,0.5-0.1,0.8-0.1c0.2,0,0.5,0,0.7,0.1c0.5,0.1,0.8,0.2,0.9,0.2c0.4,0,0.7-0.3,0.7-0.7c0-0.3-0.3-0.8-0.7-1.2c-0.1-0.2-0.2-0.3-0.2-0.4v-0.2c0.1-0.1,0.1-0.2,0.2-0.2c0.3,0,0.9,0.7,1.5,1.6c3.5,5.4,4.7,6.7,7,7.4s3,1.3,3,2.7c0,0.8-0.4,1.6-1.3,2.8c-1.8,2.4-2.2,3.4-2.2,5v0.3c0.2-0.1,0.3-0.1,0.4-0.2c0.3-0.2,0.6-0.3,0.7-0.3l1-0.2c0.3-0.1,0.6-0.4,0.6-0.8v-0.1l-0.1-0.9v-0.1c0-0.3,0.2-0.7,0.4-0.8c0.1-0.1,0.1-0.1,0.2-0.1c0.1,0,0.3,0.1,0.3,0.2l0.6,1.4C456.7,211.1,457,211.4,457.8,211.8 M425.3,182.9c-0.3,0-0.4,0.3-0.5,0.8l-0.1,0.8c-0.1,0.7-0.1,0.8-0.1,1c0,0.6,0.2,1,0.4,1c0.3,0,0.7-0.5,0.9-1c0.1-0.3,0.2-0.6,0.2-0.9s-0.1-0.6-0.2-0.9C425.8,183.2,425.6,182.9,425.3,182.9"/><path fill="#FDDD04" d="M421.6,176.7v0.3c0,0.5-0.1,1.1-0.5,2.6c-0.1,0.3-0.1,0.6-0.1,0.7c0,0.3,0.1,0.6,0.3,0.9c0.1,0.2,0.3,0.3,0.4,0.4l0.5,0.2l0.1,0.6c0,0.2,0,0.5,0.1,0.9c0.1,0.4,0.2,0.8,0.2,1.2c0,0.3,0,0.5-0.1,0.5c-0.1,0-0.4-0.4-0.7-1c-0.4-1-0.7-1.3-1.3-1.3c-0.4,0-0.7,0.1-1.3,0.3c0.1,0.2,0.2,0.3,0.2,0.3s0.2,0.3,0.4,0.7l0.6,1.1c0.4,0.7,0.6,1.2,0.7,1.3c0.1,0.2,0.3,0.4,0.6,0.6c0.1,0,0.3,0.2,0.6,0.4c0.2,0.1,0.3,0.3,0.3,0.4c0,0.2-0.1,0.3-0.3,0.3l0,0l-0.5-0.1h-0.3c-0.2,0-0.2,0.1-0.2,0.4c0,1.1,0.9,2.3,2.4,3.4c0.2,0.1,0.3,0.3,0.3,0.4c0,0.1-0.1,0.2-0.3,0.2c-0.1,0-0.3-0.1-0.5-0.2c-0.1-0.1-0.2-0.1-0.3-0.1c-0.2,0-0.3,0.2-0.3,0.4c0,0.3,0.2,0.8,0.7,1.8c0.3,0.6,0.8,1.1,1.4,1.3l1.8,0.8c0.1,0,0.2,0.1,0.2,0.2c0,0.1-0.1,0.3-0.2,0.3h-0.4h-0.3h-0.5h-0.1c-0.3,0-0.4,0-0.4,0.2s0.2,0.7,0.6,1.3c0.4,0.7,0.8,1.1,1,1.1c0.1,0,0.2-0.1,0.3-0.2l0.4-0.9c0.1-0.2,0.4-0.4,1.1-0.8c0.4-0.2,0.8-0.4,1.1-0.4l0.7-0.1c0.2,0,0.3-0.2,0.3-0.4v-0.1l-0.1-0.8l-0.1-0.8l-0.1-0.8l-0.1-0.9c0-0.2-0.1-0.3-0.2-0.3s-0.3,0.1-0.4,0.3c-0.6,1-1.1,1.3-1.8,1.3c-2.2,0-3.8-3.7-3.8-8.7c0-0.4,0-1,0.1-1.6c0.1-1.3,0.1-1.6,0.1-2.1c0-2.1-0.5-3.6-1.4-4.6l-0.6-0.6L421.6,176.7 M426.9,205.8c-0.6-0.1-0.8-0.1-1.2-0.3c-0.1,0-0.4-0.1-0.8-0.3c-0.7-0.3-1.1-0.4-1.6-0.4c-0.6,0-1.1,0.2-1.7,0.7l0.4,0.3l0.8,0.6l0.8,0.6c0.2,0.2,0.4,0.2,0.7,0.2C425.1,207.2,425.8,206.8,426.9,205.8 M442.4,213c0.2-0.5,0.3-0.6,0.8-1c1.1-1,1.7-1.7,1.7-2.2v-0.9c0-0.5,0.1-0.7,0.4-0.7c0.1,0,0.2,0,0.3,0.1l0.2,0.5c0,0.1,0.2,0.2,0.3,0.2c0.2,0,0.4-0.2,0.6-0.5l0.4-0.6c0.2-0.3,0.3-0.5,0.3-0.8c0-0.2,0-0.3-0.1-0.5c0-0.1-0.1-0.3-0.3-0.6c-0.1-0.2-0.2-0.5-0.2-0.6c0-0.3,0.1-0.4,0.4-0.4c0.1,0,0.2,0,0.3,0.1l0.3,0.4c0.1,0.1,0.2,0.1,0.3,0.1s0.3-0.1,0.4-0.3l0.3-0.6c0.1-0.2,0.1-0.3,0.1-0.4s-0.1-0.2-0.4-0.4l-0.5-0.2c-0.7-0.3-1.2-1.4-1.2-2.6c0-0.2,0-0.3,0.1-0.4l0.3-0.7c0.1-0.2,0.1-0.4,0.1-0.6c0-0.4-0.1-0.8-0.4-1.2c-0.3-0.5-0.5-0.8-0.5-0.8c-0.2-0.6-0.4-0.8-0.6-0.8h-0.2l-0.3,0.2l-0.4,0.2l-0.5,0.6l-0.6,0.3c-0.3,0.2-0.7,0.9-0.7,1.5c0,1,0.1,1.3,1.5,3.7c0.5,0.9,0.8,1.7,0.8,2.3c0,1.6-1.5,2.8-4.5,3.5l-1.9,0.4c-1.4,0.3-2.2,1.2-2.5,2.8c0.6-0.3,0.8-0.3,1.8-0.3h0.6h0.1c0.5,0,0.6,0,1-0.5s0.8-0.9,1.3-1.1l0.6-0.3l0.5-0.3h0.2c0.1,0,0.2,0.1,0.2,0.2c0,0.2-0.1,0.4-0.4,0.7c-0.5,0.5-0.6,0.9-0.6,1.5C441.9,212.4,442,212.6,442.4,213"/><path fill="#FDDD04" d="M437.3,206.9c0.5,0.3,0.9,0.7,1.2,1.1c0.4,0.5,0.4,0.6,0.8,0.6c0.2,0,0.4,0,0.6-0.1l0.4-0.1c0.7-0.1,0.9-0.2,0.9-0.4c0-0.1-0.1-0.2-0.2-0.3l-0.4-0.4l-0.4-0.4c-0.3-0.3-0.9-0.4-1.3-0.4C438.2,206.4,438,206.5,437.3,206.9 M450.3,209h0.2h0.4h0.4h0.2c0.9,0,1.8-0.7,1.8-1.5c0-0.3-0.3-0.4-0.7-0.4C451.4,207,450.7,207.6,450.3,209 M533,211.8c-0.1-0.4-0.1-0.5-0.1-0.7v-0.5c0.1-0.7,0.1-1.1,0.1-1.5c0-0.3-0.1-0.5-0.3-0.8l-0.5-0.6c-0.3-0.4-0.4-0.7-0.4-1.1c0-0.2,0.1-0.3,0.2-0.3h0.2c0,0,0.1,0.1,0.4,0.2c0.2,0.1,0.3,0.1,0.4,0.1c0.2,0,0.4-0.4,0.4-1.1c0-1-0.2-1.5-0.8-2l-0.6-0.4c-0.1-0.1-0.2-0.2-0.2-0.3c0-0.2,0.1-0.3,0.3-0.3c0.1,0,0.3,0,0.5,0.1l0.4,0.1h0.2c0.1,0,0.2-0.1,0.2-0.3v-0.1l-0.1-0.8c-0.1-0.9-0.3-1.2-0.5-1.2h-0.1l-1.1,0.2h-0.2c-1.3,0-2.8-1.2-3.1-2.5l-0.8-2.6c-0.2-0.8-0.9-1.6-1.9-2.4c-0.3-0.3-0.6-0.4-0.9-0.4l-0.7-0.1c-0.1,0-0.2-0.1-0.2-0.2c0-0.2,0.1-0.2,0.4-0.2c1,0,2.1,0.2,3.6,0.7c1.3,0.4,2.1,0.6,2.7,0.6c2,0,3.3-1,3.3-2.8c0-0.9-0.3-1.9-0.8-2.6c-0.4-0.6-1.1-1.2-1.9-1.7c-0.1-0.1-0.2-0.1-0.3-0.1c-0.1,0-0.2,0.1-0.2,0.2v0.5l0,0c0,0.2-0.1,0.4-0.3,0.4s-0.5-0.3-0.7-0.8c-0.7-1.6-2-2.5-3.2-2.5c-0.3,0-0.4,0.1-0.4,0.3c0,0.1,0.1,0.3,0.2,0.5s0.3,0.4,0.4,0.7c0.1,0.2,0.1,0.3,0.1,0.3c0,0.1-0.1,0.1-0.2,0.1c-0.2,0-0.5-0.2-0.7-0.4c-0.4-0.4-0.6-0.6-0.6-0.6l-0.5-0.8c-0.4-0.6-0.9-1-1.6-1.4l-1-0.5c-0.2-0.1-0.4-0.2-0.5-0.2c-0.1,0-0.2,0.1-0.2,0.2c0,0.1,0.1,0.3,0.2,0.5c0.2,0.3,0.4,0.6,0.4,0.8c0,0.1-0.1,0.2-0.2,0.2c-0.3,0-0.8-0.5-1.5-1.5c-0.5-0.7-0.8-1.4-0.8-2.2c0-1.7,1.3-3,3-3c0.9,0,2,0.4,3,1l1.9,1.2c0.7,0.4,1.6,0.7,2.2,0.7c0.3,0,0.4,0,1.1-0.2c0.2-0.1,0.4-0.1,0.5-0.2c0.1,0,0.1-0.1,0.1-0.2c0-0.2-0.1-0.2-0.4-0.2c-0.9-0.1-2.8-0.8-4-1.6c-0.7-0.4-1.2-0.7-1.3-0.8c-0.3-0.1-0.6-0.3-0.6-0.4c0-0.1,0.1-0.1,0.2-0.1h0.2l1.8,0.6l1.7,0.6c0.8,0.3,2.1,0.6,2.7,0.6c0.8,0,1.3-0.5,1.3-1.3c0-0.4-0.1-0.8-0.3-1.1c-0.2-0.5-0.6-0.9-0.7-0.9c-0.2,0-0.2,0.2-0.2,0.4v0.2v0.5c0,0.5-0.3,0.9-0.8,0.9c-0.2,0-0.4,0-0.7-0.1l-2.6-0.8c-2.3-0.7-3.2-0.9-4.3-0.9c-3.2,0-5.6,2.1-5.6,4.9c0,3.2,2.2,5.2,7.8,7.1c5.5,1.9,6.2,2.3,6.2,3.7c0,0.8-0.8,1.5-1.8,1.5c-0.4,0-0.7,0-1-0.1c-0.2,0-1.2-0.3-2.8-0.6c-1.7-0.4-3.1-0.6-5-0.6c-4,0-6,0.6-8,2.5c-0.5,0.4-0.7,0.5-1.2,0.5h-0.3h-0.6c-0.5,0-0.8,0.2-1.1,0.7l-0.6,1.1c-0.1,0.2-0.3,0.2-0.5,0.2c-0.4,0-0.6-0.3-1-1.2c-0.2-0.5-0.5-0.9-0.8-1.2l-0.9-0.7c-0.1-0.1-0.2-0.2-0.2-0.3c0-0.1,0.1-0.2,0.2-0.4c0.1-0.2,0.3-0.3,0.4-0.6c0.1-0.2,0.2-0.4,0.2-0.5v-0.4c0-0.1,0.2-0.2,0.3-0.2c0.3,0,0.3,0.2,0.3,1.2c0,0.3,0.1,0.6,0.3,1.1l0.4,1c0.1,0.1,0.2,0.2,0.4,0.2c0.4,0,1-1,1.1-2c0.1-0.8,0.2-1.1,0.4-1.1s0.2,0.1,0.6,0.8c0.1,0.2,0.3,0.4,0.5,0.6c0.2,0.2,0.4,0.3,0.5,0.3l0,0c0.3,0,0.4-0.2,0.5-1V191l-0.1-0.6l-0.1-0.4c0-0.3,0.1-0.4,0.2-0.4s0.2,0.1,0.3,0.2l0.4,0.4c0.3,0.3,0.5,0.4,0.8,0.4s0.6-0.2,0.6-0.4c0-0.2,0-0.3-0.4-0.9c0-0.1-0.1-0.2-0.3-0.5c-0.4-0.7-0.5-0.8-0.8-0.8h-0.4l-0.5,0.2c-0.2,0.1-0.3,0.1-0.3,0.1c-0.1,0-0.1-0.1-0.1-0.2c0-0.4,0.2-0.9,0.7-1.6c0.3-0.4,0.5-1.5,0.7-3.1l0.2-1.9c0.1-1.1,0.3-1.6,0.5-1.6c0.1,0,0.1,0,0.2,0.1l0.1,0.6v0.5c0,0.6,0.1,1.1,0.1,1.1c0.2,0,0.4-0.2,0.7-0.5c0.2-0.2,0.3-0.5,0.4-0.8c0.1-0.4,0.2-0.8,0.2-1c0-0.9-0.4-1.3-1.7-1.7c-0.1,0-0.2-0.1-0.2-0.1v-0.4V177l-0.1-0.5l-0.2-0.4l-0.2-0.4l-0.3,0.2c-0.8,0.5-1,0.7-1.3,1c-0.4,0.5-0.5,0.6-0.6,0.6s-0.2-0.1-0.2-0.2l0.2-0.7v-0.1c0-0.9-0.5-1.7-1.4-2.4l-0.3,0.3l-0.3,0.4l-0.5,0.6c-0.3,0.3-0.5,0.8-0.5,1.2v0.1v0.1c0,0.3,0,0.4-0.2,0.4h-0.1l-0.3-0.4l-0.4-0.5l-0.7-0.4l-0.4-0.3c-0.4,0.8-0.4,0.9-0.4,2v0.3c0,0.4-0.1,0.6-0.3,0.6c-0.1,0-0.3-0.1-0.5-0.2c-0.2-0.1-0.4-0.2-0.6-0.2c-0.6,0-1,0.5-1,1.2s0.2,1.2,0.7,2c0.3,0.5,0.7,0.9,0.9,0.9c0,0,0.1-0.4,0.1-0.9l-0.1-0.7v-0.3c0-0.3,0.1-0.4,0.2-0.4c0.2,0,0.4,0.2,0.5,0.9l0.3,1.5l0.3,1.9c0.1,0.5,0.3,1,0.5,1.6c0.3,0.8,0.6,1.2,0.7,1.4c0.4,0.6,0.5,0.6,0.5,0.8c0,0.1-0.1,0.2-0.2,0.2c-0.1,0-0.2,0-0.4-0.1c-0.1-0.1-0.3-0.1-0.5-0.2h-0.3c-0.7,0-0.8,0.5-0.8,3.2c0,1.7,0.3,3.8,0.8,4.9l0.9,2.1c0.1,0.3,0.2,0.7,0.2,1c0,2.9-4,7.6-8.1,9.5c-1.6,0.8-2.1,1.6-2.3,3.8c0.7-0.3,1-0.4,1.4-0.6c1.2-0.3,1.5-0.5,1.6-1l0.2-0.5c0.1-0.2,0.2-0.3,1.1-0.8c0.3-0.2,0.5-0.3,0.6-0.5c0.2-0.3,0.4-0.5,0.5-0.5s0.2,0.1,0.2,0.2v0.1l-0.4,1.1v0.3c0,0.8,0.5,1.5,1.3,2c0.1-0.2,0.1-0.4,0.1-0.5c0.1-0.6,0.3-1,0.4-1.2l0.8-1.1c0.3-0.4,0.3-0.7,0.3-1.7v-1.2v-0.3c0-0.2,0.1-0.3,0.3-0.3c0.1,0,0.3,0.1,0.3,0.1l0.1,0.8c0,0.2,0.2,0.3,0.4,0.3c0.4,0,0.9-0.5,1.4-1.4c0.2-0.3,0.3-0.6,0.3-0.9c0-0.3-0.1-0.8-0.1-1.2v-0.2c0-0.2,0.1-0.3,0.3-0.3c0.1,0,0.2,0,0.2,0.1l0.3,0.9c0.1,0.3,0.3,0.5,0.5,0.5c0.6,0,1.3-1.2,1.3-2.6c0-0.8,0.1-1.1,0.4-1.1c0.1,0,0.2,0,0.2,0.1l0.2,0.5c0.1,0.2,0.2,0.3,0.3,0.3c0.1,0,0.3-0.2,0.6-0.5c0.1-0.2,0.3-0.3,0.4-0.5c0.1-0.1,0.1-0.3,0.1-0.4c0-0.2,0-0.3-0.4-0.5c-0.3-0.2-0.4-0.5-0.4-0.8c0-0.6,0.3-1.2,1-2.4c0.7-1.1,0.7-1.2,0.9-1.2c0.2,0,0.3,0.1,0.3,0.3c0,0.1,0,0.2-0.1,0.3c-0.1,0.2-0.2,0.4-0.2,0.5c0,0.2,0.1,0.3,0.3,0.3c0.2,0,0.4-0.1,0.7-0.2c0.2-0.1,0.5-0.2,1.1-0.4c0.8-0.3,1.2-0.4,1.4-0.5c0.3-0.1,0.5-0.1,0.8-0.1c0.2,0,0.5,0,0.7,0.1c0.5,0.1,0.8,0.2,0.9,0.2c0.4,0,0.7-0.3,0.7-0.6c0-0.2-0.1-0.5-0.3-0.7c-0.2-0.3-0.3-0.5-0.4-0.6c-0.2-0.2-0.2-0.3-0.2-0.4v-0.2c0-0.1,0.1-0.2,0.2-0.2c0.3,0,0.9,0.6,1.5,1.6c3.2,5.1,4.7,6.7,7,7.4s3,1.2,3,2.7c0,0.8-0.4,1.7-1.3,2.8c-1.6,2.2-2.2,3.5-2.2,5v0.3c0.2-0.1,0.3-0.1,0.4-0.2c0.3-0.2,0.5-0.3,0.7-0.3l1-0.2c0.3-0.1,0.6-0.4,0.6-0.8v-0.1l0.3-1.5v-0.1c0-0.5,0.2-0.9,0.5-0.9c0.1,0,0.2,0.1,0.3,0.2l0.6,1.4C531.9,211.1,532.2,211.4,533,211.8 M500,184.5v0.6v0.4c0,0.6,0.1,0.9,0.4,0.9s0.7-0.5,0.9-1c0.1-0.3,0.2-0.8,0.2-1.1c0-0.2,0-0.4-0.2-0.8c-0.2-0.4-0.4-0.6-0.6-0.6C500.2,182.9,500,183.4,500,184.5"/><path fill="#FDDD04" d="M496.8,176.7v0.3c0,0.4-0.1,1-0.3,1.7c-0.2,0.6-0.2,0.9-0.2,0.9c-0.1,0.2-0.1,0.5-0.1,0.7c0,0.6,0.3,1.1,0.7,1.3l0.4,0.2l0.1,0.6c0,0.2,0,0.5,0.1,0.9s0.2,0.8,0.2,1.2c0,0.3,0,0.5-0.1,0.5c-0.2,0-0.4-0.4-0.7-1c-0.4-1-0.7-1.3-1.3-1.3c-0.4,0-0.7,0.1-1.3,0.3c0.4,0.5,0.7,1,1.2,2.1c0.6,1.4,0.9,1.7,1.9,2.2c0.2,0.1,0.4,0.3,0.4,0.4c0,0.2-0.1,0.3-0.4,0.3c-0.1,0-0.4,0-0.6-0.1h-0.3c-0.2,0-0.2,0.1-0.2,0.5c0,1.1,0.9,2.3,2.4,3.4c0.2,0.1,0.3,0.3,0.3,0.4c0,0.1,0,0.1-0.1,0.2c-0.1,0.1-0.1,0.1-0.2,0.1s-0.3-0.1-0.5-0.2c-0.1-0.1-0.2-0.1-0.3-0.1c-0.2,0-0.3,0.2-0.3,0.5c0,0.4,0.3,1,0.7,1.7c0.4,0.7,0.9,1.1,1.3,1.3l1.8,0.8c0.1,0,0.2,0.1,0.2,0.2c0,0.1-0.1,0.3-0.2,0.3h-0.3h-0.4h-0.5h-0.1c-0.3,0-0.4,0.1-0.4,0.2c0,0.2,0.2,0.6,0.6,1.3c0.4,0.8,0.8,1.1,1,1.1c0.1,0,0.2-0.1,0.3-0.2l0.4-0.9c0.1-0.1,0.4-0.4,1.1-0.8c0.4-0.2,0.8-0.4,1.1-0.4c1-0.1,1.1-0.2,1.1-0.6c0-0.1,0-0.4-0.1-0.8c0-0.2-0.1-0.5-0.1-0.8l-0.1-0.8l-0.1-0.9c0-0.2-0.1-0.3-0.2-0.3c-0.1,0-0.2,0.1-0.3,0.3c-0.5,0.8-1.2,1.3-1.7,1.3c-2.3,0-3.8-3.5-3.8-8.7v-1.6l0.1-1.9v-0.7c0-1.6-0.6-3.3-1.4-4.1l-0.6-0.6L496.8,176.7 M502,205.8c-0.9-0.1-1-0.2-1.9-0.6c-0.7-0.3-1.1-0.4-1.5-0.4c-0.6,0-1.1,0.2-1.7,0.7l0.4,0.3l0.8,0.6l0.8,0.6c0.2,0.2,0.4,0.2,0.7,0.2C500.3,207.1,500.9,206.8,502,205.8 M517.5,213c0.2-0.5,0.3-0.6,0.8-1c1.1-1,1.7-1.7,1.7-2.2v-0.9c0-0.5,0.1-0.7,0.4-0.7c0.1,0,0.2,0,0.3,0.1l0.2,0.5c0,0.1,0.2,0.2,0.3,0.2c0.3,0,0.5-0.2,1-1c0.2-0.3,0.3-0.6,0.3-0.8c0-0.1,0-0.3-0.1-0.4c0-0.1-0.1-0.3-0.3-0.6c-0.1-0.2-0.2-0.5-0.2-0.6c0-0.3,0.1-0.4,0.4-0.4c0.1,0,0.2,0,0.3,0.1l0.3,0.4c0.1,0.1,0.1,0.1,0.2,0.1c0.2,0,0.4-0.1,0.5-0.3l0.3-0.6c0.1-0.2,0.1-0.3,0.1-0.4s-0.1-0.3-0.3-0.4l-0.6-0.2c-0.7-0.3-1.2-1.4-1.2-2.5c0-0.1,0-0.3,0.1-0.5l0.2-0.7c0.1-0.2,0.1-0.4,0.1-0.7c0-0.4-0.1-0.8-0.4-1.2c-0.3-0.4-0.4-0.7-0.5-0.8c-0.2-0.6-0.4-0.8-0.6-0.8c-0.1,0-0.3,0.1-0.5,0.2l-0.4,0.2l-0.6,0.6l-0.6,0.3c-0.3,0.2-0.7,0.9-0.7,1.5c0,0.9,0.2,1.3,1.5,3.6c0.6,1,0.8,1.7,0.8,2.3c0,1.6-1.7,3-4.4,3.5c-3.3,0.7-4,1.2-4.4,3.3c0.6-0.3,0.8-0.3,1.8-0.3h0.6h0.1c0.5,0,0.6,0,1-0.5c0.4-0.5,0.8-0.9,1.3-1.1l0.7-0.3l0.5-0.3h0.2c0.1,0,0.2,0.1,0.2,0.2s-0.1,0.4-0.4,0.7c-0.4,0.5-0.6,0.9-0.6,1.3C517.1,212.3,517.2,212.6,517.5,213"/><path fill="#FDDD04" d="M512.4,206.9c0.5,0.3,0.9,0.7,1.2,1.1c0.4,0.5,0.4,0.6,0.8,0.6c0.2,0,0.4,0,0.6-0.1l0.4-0.1c0.7-0.1,0.9-0.2,0.9-0.4c0-0.1-0.1-0.2-0.2-0.3l-0.5-0.4l-0.4-0.4c-0.3-0.2-0.8-0.4-1.3-0.4C513.4,206.4,513,206.5,512.4,206.9 M525.5,209h0.2h0.4h0.3h0.2c0.4,0,0.6,0,0.8-0.2c0.3-0.2,0.5-0.5,0.8-0.9c0.1-0.2,0.2-0.3,0.2-0.5c0-0.3-0.3-0.4-0.7-0.4C526.6,207,525.9,207.6,525.5,209 M453.9,293l0.2-0.5l0.6-0.6c0.5-0.5,0.7-1.2,0.7-2.1c0-0.4-0.1-0.9-0.2-1.3c-0.1-0.3-0.2-0.6-0.2-0.7c0-0.3,0.2-0.5,0.4-0.5c0.1,0,0.2,0.1,0.3,0.2l0.6,0.7c0.4,0.4,0.5,0.5,1,0.6v-0.6v-0.7c0-0.9-0.4-2-0.9-2.7c-0.3-0.4-0.5-0.7-0.5-0.8c0-0.1,0.1-0.3,0.2-0.3c0,0,0.1,0,0.2,0.1c0.4,0.3,0.6,0.4,0.7,0.4c0.2,0,0.4-0.5,0.4-1c0-0.8-0.3-1.6-0.8-2.2c-0.3-0.3-0.4-0.5-0.5-0.6c-0.1-0.1-0.1-0.2-0.1-0.2c0-0.2,0.1-0.3,0.4-0.3c0.2,0,0.2,0,0.5,0.2c0.1,0.1,0.2,0.1,0.3,0.1c0.3,0,0.4-0.4,0.4-1.6v-0.5v-0.7c0-0.8-0.1-1-0.5-1h-0.3c-2,0-2.9-1.2-3.4-4.5c-0.4-2.4-1.3-4.1-2.4-4.5c-0.7-0.2-0.9-0.4-0.9-0.5c0-0.1,0.2-0.2,0.4-0.2c0.1,0,0.5,0.1,0.8,0.2c1.6,0.6,3,1,4.2,1c1.9,0,3.5-1.4,3.5-3.2c0-1.4-0.7-2.7-1.8-3.9c-0.3-0.3-0.7-0.5-1-0.6h-0.1l-0.2,0.1l0.1,0.6l0.2,0.4v0.2c0,0.1-0.1,0.2-0.2,0.2c-0.1,0-0.2-0.1-0.3-0.2l-0.7-1.1c-0.6-0.8-1.8-1.6-2.8-1.6c-0.3,0-0.5,0.1-0.5,0.4c0,0.1,0.1,0.3,0.2,0.5c0.2,0.2,0.4,0.5,0.4,0.6v0.2c0,0.1-0.1,0.2-0.2,0.2l0,0c-0.2,0-0.3-0.1-1.2-1.1c-0.7-0.8-2.2-1.6-3-1.6c-0.1,0-0.2,0-0.3,0.1c0,0-0.1,0.1-0.1,0.2s0.1,0.3,0.3,0.4c0.3,0.2,0.5,0.5,0.5,0.6c0,0.1-0.1,0.2-0.2,0.2c-0.2,0-0.8-0.3-1.7-1.1c-1.5-1.2-2.2-2.3-2.2-3.5c0-1.5,1.1-2.7,2.6-2.7c0.8,0,2,0.4,2.7,1l2,1.5c0.9,0.7,2,1,3.2,1c0.3,0,0.5-0.1,0.7-0.2c0.2-0.1,0.3-0.2,0.3-0.3s-0.2-0.1-0.4-0.2c-0.7-0.2-1.3-0.4-1.7-0.7l-2-1.5c-0.8-0.6-1.3-0.9-1.6-1.1c-1.1-0.5-1.3-0.7-1.3-0.8c0-0.1,0.1-0.1,0.2-0.1c0.1,0,0.2,0,0.4,0.1l1.1,0.4c0.3,0.1,0.9,0.5,1.7,1c2.2,1.4,3.3,1.9,4.5,1.9s2.1-0.8,2.1-2c0-0.2-0.1-0.5-0.2-0.7l-0.2-0.4c-0.1-0.1-0.2-0.3-0.2-0.2l-0.1,0.2l-0.1,0.8c0,0,0,0.1-0.1,0.3c-0.1,0.2-0.2,0.3-0.3,0.4c-0.2,0.2-0.4,0.3-0.7,0.3c-0.6,0-1.3-0.3-3.2-1.5c-1.9-1.2-3.7-1.8-5-1.8c-2.9,0-5.3,2.3-5.3,5.2c0,4,2.5,5.8,10.2,7.4c3,0.6,4.3,1.5,4.3,2.8c0,1.2-1,1.9-2.5,1.9c-0.5,0-0.8,0-1.1-0.1c-0.3-0.1-1.7-0.4-4.2-1.1c-1.7-0.5-3.7-0.7-5.4-0.7c-3,0-5.1,0.9-6.5,2.8c-0.2,0.2-0.3,0.4-0.4,0.4s-0.2-0.1-0.3-0.2l-0.6-0.4c-0.4-0.3-1-0.5-1.5-0.5c-0.3,0-0.6,0.1-0.9,0.3c-0.2,0.2-0.4,0.3-0.4,0.3c-0.2,0-0.6-0.5-1-1.2c-0.5-0.9-0.7-1.9-0.7-2.7c0-0.4,0.1-0.7,0.3-0.7c0.1,0,0.2,0.1,0.3,0.3l0.3,1.2c0.2,0.6,0.5,1.2,0.8,1.2c0.1,0,0.3-0.2,0.6-0.5c0.1-0.2,0.3-0.4,0.3-0.6c0.3-0.7,0.3-0.8,0.5-0.8c0.2,0,0.4,0.1,0.5,0.9c0,0.1,0.1,0.3,0.3,0.7c0.2,0.3,0.3,0.5,0.5,0.7c0.1,0.1,0.3,0.2,0.4,0.2c0.4,0,0.7-0.6,0.7-1.2v-0.3v-0.7c0-0.3,0-0.4,0.2-0.4c0.1,0,0.2,0,0.3,0.2c0.2,0.2,0.4,0.4,0.7,0.6c0.2,0.1,0.4,0.2,0.6,0.2c0.1,0,0.3-0.1,0.4-0.2c0.1-0.1,0.2-0.2,0.2-0.3c0-0.1-0.1-0.3-0.6-0.7c-0.2-0.2-0.5-0.8-0.8-1.6c-0.1-0.3-0.3-0.5-0.4-0.5c0,0-0.1,0-0.3,0.1l-0.5,0.2l-0.4,0.2h-0.1c-0.2,0-0.3-0.1-0.3-0.3c0-0.2,0.4-0.6,0.8-0.9c0.3-0.3,0.5-0.7,0.5-1.1c0-0.7,0.2-1.2,0.3-1.2l0.1-1.4c0.1-0.7,0.4-2,0.6-2.7c0-0.1,0.1-0.2,0.2-0.2s0.2,0.3,0.2,0.6v0.2v0.4c0,0.5,0.1,0.8,0.2,0.8c0.2,0,0.4-0.3,0.6-0.7l0.4-0.9c0.1-0.3,0.2-0.5,0.2-0.7c0-0.8-0.5-1.3-1.1-1.3h-0.3c-0.2,0.1-0.3,0.1-0.3,0.1c-0.2,0-0.4-0.2-0.4-0.5v-0.6v-0.8l-0.2-0.8v-0.4l-0.4,0.2l-0.4,0.4l-0.6,0.5l-0.5,0.4c-0.1,0.1-0.2,0.1-0.3,0.1c-0.3,0-0.4-0.1-0.4-0.7v-0.2c0-0.5-0.2-0.9-1.1-1.8c0-0.1-0.1-0.1-0.2-0.2l-0.2,0.3l-1,0.2l-0.4,1.1l-0.1,0.7c0,0.2-0.1,0.4-0.2,0.4s-0.2-0.1-0.4-0.3c-0.6-0.7-0.8-0.8-1.7-1.2l-0.1,0.3c-0.1,0.5-0.2,0.7-0.2,0.8v0.7v0.3v0.3c0,0.2-0.1,0.3-0.2,0.3l0,0c0,0-0.1-0.1-0.2-0.2c-0.1-0.1-0.3-0.1-0.5-0.1c-0.8,0-1.2,0.4-1.2,1c0,0.5,0.2,0.8,0.9,1.9c0.3,0.5,0.7,0.9,0.9,0.9c0.1,0,0.2-0.3,0.2-0.6l-0.1-0.5c-0.1-0.2-0.1-0.4-0.1-0.6s0.1-0.3,0.2-0.3c0.4,0,0.7,1,0.9,2.5l0.2,1.5c0.1,0.5,0.2,1.1,0.5,1.6c0.4,0.7,0.7,1.2,1.1,1.5s0.6,0.5,0.6,0.7c0,0.1-0.1,0.2-0.2,0.2c0,0-0.3-0.1-0.8-0.3h-0.3c-0.8,0-1.1,0.5-1.1,1.8c0,1.7,1.1,4,2.4,5l1.9,1.5c0.9,0.7,1.7,2,1.7,2.9c0,1.2-1.3,2.3-3.5,3.1l-1.3,0.5c-1,0.4-1.5,1-1.9,2.9c0.5-0.2,0.8-0.2,1.1-0.2h0.2h0.6c0.5,0,0.9-0.3,0.9-0.8v-0.4c0-0.1,0.2-0.3,0.4-0.4c0.4-0.2,0.6-0.3,0.6-0.3l0.4-0.4c0.1-0.1,0.2-0.1,0.2-0.1c0.1,0,0.2,0.1,0.2,0.2c0,0.1,0,0.2-0.1,0.4c-0.1,0.4-0.2,0.8-0.2,1.4c0,1,0.2,1.5,0.7,2.2c0-0.3,0.1-0.4,0.1-0.5c0.1-0.2,0.3-0.6,0.7-1.1c0.6-0.8,1.1-1.9,1.1-2.4v-0.2l-0.1-0.9c0-0.2,0.1-0.3,0.2-0.4c0.1-0.1,0.2-0.1,0.3-0.1c0.2,0,0.3,0.1,0.4,0.4c0.1,0.2,0.2,0.4,0.3,0.4c0.1,0,0.4-0.4,0.6-0.8c0.1-0.3,0.2-0.6,0.2-0.8c0-0.1,0-0.3-0.1-0.5c-0.1-0.2-0.1-0.4-0.1-0.5s0-0.2,0.2-0.3c0.1-0.1,0.1-0.1,0.2-0.1s0.2,0,0.2,0.1l0.4,0.2c0.1,0.1,0.2,0.1,0.3,0.1c0.2,0,0.4-0.2,0.6-0.4c0.4-0.5,0.6-1,0.6-1.1s-0.1-0.2-0.3-0.3c-0.8-0.6-1.3-1.4-1.3-2.1c0-0.2,0-0.4,0.1-0.6l0.4-1.1c0.2-0.5,0.3-0.8,0.3-0.8h0.1c0.1,0,0.2,0.1,0.2,0.3c0,0.1,0,0.3-0.1,0.5c-0.1,0.3-0.2,0.6-0.2,0.8c0,0.3,0.1,0.4,0.4,0.4c0.2,0,0.4-0.1,0.7-0.2c1.2-0.5,2.2-0.8,2.8-0.8c0.6,0,0.9,0.1,1.5,0.5c0.2,0.1,0.3,0.2,0.4,0.2c0.1,0,0.2-0.1,0.2-0.2c0-0.1,0.1-0.1,0.1-0.2s-0.1-0.3-0.2-0.5c-0.2-0.3-0.3-0.4-0.3-0.6c0-0.1,0.1-0.2,0.2-0.2c0.6,0,1.6,2,2.6,5.1c0.8,2.5,1,2.7,3.4,4.1c2,1.1,2.8,2.2,2.8,4.1c0,1.8-0.5,4.1-1.6,7.1c-0.3,0.9-0.5,1.6-0.5,2.1c0,0.4,0.1,0.8,0.4,1.9c0.1,0.5,0.2,0.8,0.3,0.9C453.6,292.5,453.7,292.7,453.9,293"/><path fill="#FDDD04" d="M444.6,287.4c0.2-0.5,0.3-0.7,0.8-1.4c0.7-1,0.9-1.5,0.9-1.9v-0.6c0-0.6,0.1-0.9,0.4-0.9c0.1,0,0.2,0,0.2,0.1l0.2,0.3c0.1,0.1,0.2,0.2,0.3,0.2c0.1,0,0.3-0.2,0.5-0.3c0.3-0.4,0.5-1,0.5-1.4v-0.4v-0.5c0-0.2,0.1-0.3,0.3-0.3c0.2,0,0.2,0.1,0.4,0.4c0.1,0.2,0.2,0.3,0.3,0.3c0.1,0,0.2-0.1,0.3-0.2l0.3-0.5l0.2-0.4l0.1-0.2c0-0.1-0.1-0.2-0.3-0.4c-0.8-0.5-1.1-1.3-1.1-2.8c0-1.1-0.1-1.9-0.2-2.2c0-0.1-0.3-0.6-0.7-1.7c-0.2-0.4-0.3-0.9-0.5-1.4c-0.1-0.4-0.2-0.5-0.5-0.5c-1.1,0-1.9,0.9-1.9,2.1c0,0.7,0.3,1.9,0.9,3.2c0.8,1.9,1,2.6,1,3.3c0,1.5-0.6,2.1-2.7,2.8c-2.3,0.8-3.4,2-3.8,4.1c0.2-0.1,0.3-0.1,0.4-0.2c0.3-0.1,0.5-0.2,0.6-0.2l0.7-0.2c0.6-0.1,1-0.4,1.1-0.8l0.2-0.6c0-0.1,0.1-0.2,0.2-0.3l0.4-0.2l0.4-0.2l0.1,0.2l-0.2,0.5c-0.1,0.2-0.1,0.5-0.1,0.9C443.9,286.2,444.1,286.8,444.6,287.4 M422.9,250.6c0.1,0.2,0.1,0.4,0.1,0.4c0,0.1-0.1,0.5-0.2,1v0.9c0,0.7,0.1,1.5,0.4,2.1c0.2,0.6,0.3,0.8,0.3,0.9v0.2c0,0.2-0.1,0.3-0.2,0.3c-0.1,0-0.2-0.1-0.4-0.2c-0.5-0.4-1-0.6-1.5-0.6c-0.2,0-0.4,0-0.7,0.1l0.2,0.4l0.6,1.5l0.8,1.3l0.9,0.6c0.1,0.1,0.2,0.1,0.2,0.2c0.1,0.1,0.1,0.2,0.1,0.3c0,0.1-0.1,0.1-0.2,0.1h-0.8c-0.1,0-0.2,0.1-0.2,0.2c0,0.1,0.1,0.5,0.3,1.2l0.4,1.2l0.7,0.6l0.7,0.5c0.2,0.1,0.3,0.3,0.3,0.4s-0.1,0.2-0.1,0.2h-0.4c-0.1,0-0.2,0.1-0.2,0.3c0,0.3,0.3,0.8,0.8,1.6c0.6,0.8,1.1,1.1,1.8,1.1h0.6c0.3,0,0.5,0.1,0.5,0.4c0,0.2-0.1,0.3-0.4,0.4c-0.6,0.1-0.7,0.2-0.7,0.5c0,0.1,0.1,0.3,0.2,0.4l0.3,0.4c0.3,0.4,0.6,0.6,0.8,0.6c0.1,0,0.4-0.1,0.6-0.4c0.4-0.4,0.8-0.7,1.3-0.9c1.4-0.3,1.7-0.5,1.7-0.8c0-0.1-0.1-0.3-0.2-0.5c-0.5-0.8-0.6-1.3-0.6-1.9c0-0.5-0.1-0.8-0.3-0.8c-0.1,0-0.2,0.1-0.3,0.3c-0.3,0.5-0.9,0.8-1.4,0.8c-1.4,0-3.1-2.2-3.9-5c-0.2-0.7-0.3-1.4-0.3-2.1s0.1-1.6,0.3-2.4c0.3-1.2,0.4-1.8,0.4-1.9l0.1-0.5C425.3,252.9,424.4,251.6,422.9,250.6"/><path fill="#FDDD04" d="M425.8,256.1c-0.3,0.6-0.6,1.8-0.6,2.6c0,0.5,0.2,0.8,0.4,0.8c0.1,0,0.2-0.1,0.2-0.2l0.4-0.8c0.1-0.1,0.2-0.3,0.3-0.5c0.2-0.2,0.3-0.5,0.3-0.6C426.9,257,426.4,256.4,425.8,256.1 M430.3,274.1c0.1,0.1,0.2,0.2,0.2,0.2c0.2,0.2,0.3,0.3,0.3,0.3c0.8,0.8,0.9,0.9,1.3,0.9s1.1-0.2,1.5-0.4c0.2-0.1,0.3-0.2,0.3-0.3c0-0.1-0.1-0.2-0.4-0.4l-0.4-0.4c-0.3-0.3-0.8-0.6-1.1-0.6C431.5,273.4,431,273.6,430.3,274.1 M439.6,281.3c0.4,0.2,0.6,0.3,0.8,0.4c0.4,0.2,0.6,0.4,0.6,0.4c0.1,0.1,0.3,0.1,0.6,0.1c0.2,0,0.4,0,0.5-0.1l0.9-0.3l0.8-0.3c0.2-0.1,0.4-0.2,0.4-0.3s-0.2-0.1-0.4-0.2c-0.2,0-0.4-0.1-0.6-0.2c-1-0.4-1.1-0.4-1.5-0.4C440.9,280.3,440.1,280.7,439.6,281.3 M449.8,289.3c0.3-0.6,0.5-0.7,1.4-0.8c1-0.1,2-1.9,2-3.1c0-0.1,0-0.2-0.1-0.2c0,0-0.1,0-0.3,0.1c-0.3,0.2-0.5,0.3-0.6,0.4l-1.2,0.5c-0.8,0.3-1.5,1.4-1.5,2.2C449.6,288.6,449.6,288.8,449.8,289.3 M523.2,279.8l0.2-0.4l0.2-0.6c0-0.1,0.2-0.3,0.4-0.7c0.4-0.5,0.6-1.2,0.6-2c0-0.2-0.1-0.5-0.2-0.8c-0.1-0.2-0.1-0.3-0.1-0.4c0-0.1,0-0.1,0.1-0.2c0.1-0.1,0.1-0.1,0.2-0.1l0,0c0.1,0,0.3,0.1,0.4,0.3c0.2,0.2,0.3,0.3,0.4,0.3c0.2,0,0.4-0.3,0.5-0.8c0.1-0.2,0.1-0.4,0.1-0.4c0-0.2-0.2-0.7-0.4-1.1c-0.1-0.2-0.1-0.3-0.1-0.4s0.1-0.3,0.2-0.3s0.3,0.1,0.5,0.3c0.1,0.1,0.2,0.2,0.3,0.2c0.3,0,0.4-0.3,0.6-0.9c0.1-0.4,0.2-0.6,0.2-0.6c0-0.1-0.1-0.2-0.1-0.2h-0.1h-0.5c-0.7,0-1.8-0.5-2.3-1.1l-1.1-1.4c-0.4-0.5-1.1-1.3-1-1.3l-0.9-0.6c-0.2-0.1-0.2-0.2-0.2-0.3c0-0.1,0.2-0.2,0.4-0.2c0.2,0,0.9,0.2,2.1,0.7c1.2,0.5,3,0.9,4.1,0.9c1.9,0,3.5-1.5,3.5-3.4c0-1-0.5-2-1.6-3.3c-0.2-0.2-0.6-0.5-0.7-0.5c-0.1,0-0.2,0.1-0.2,0.2c0,0.1,0,0.3,0.1,0.5c0,0.1,0.1,0.2,0.1,0.4c0,0.2-0.1,0.3-0.2,0.3c-0.3,0-0.5-0.4-0.7-1.1c-0.3-0.9-0.8-1.4-2-2c-0.5-0.2-1.1-0.4-1.3-0.4c-0.1,0-0.1,0.1-0.1,0.2s0.1,0.3,0.2,0.5c0.2,0.3,0.3,0.5,0.3,0.8l0,0c0,0.2-0.1,0.2-0.2,0.2c-0.3,0-0.3-0.1-0.9-1c-0.3-0.5-1.1-1.1-1.8-1.4c-0.2-0.1-0.5-0.1-0.7-0.2l0,0c-0.1,0-0.3,0.1-0.3,0.2c0,0,0.1,0.2,0.2,0.4l0.1,0.2c0,0.1-0.1,0.2-0.2,0.2c-0.2,0-1-0.6-1.6-1.3c-0.6-0.7-1.1-1.7-1.1-2.4c0-1.5,1.5-2.9,3.1-2.9c0.4,0,0.8,0.1,1,0.2l1.4,0.7l1.7,1.1c1,0.6,2.3,1.1,3.1,1.1c0.3,0,0.5,0,1.3-0.2c0.4-0.1,0.6-0.3,0.6-0.4l0,0l-0.1-0.1l-0.9-0.1c-0.5,0-1.6-0.5-2.5-1.1l-1.9-1.2l-1.7-0.7c-0.1-0.1-0.2-0.1-0.2-0.2s0.1-0.2,0.2-0.2c0,0,0.2,0,0.5,0.1l1.5,0.4c0.4,0.1,1,0.4,1.9,0.8c1.7,0.9,2.8,1.3,3.6,1.3c0.9,0,1.6-0.6,1.6-1.5c0-0.3-0.1-0.8-0.2-1.1c0-0.2-0.1-0.4-0.2-0.5c-0.1-0.1-0.1-0.2-0.2-0.2c-0.1,0-0.2,0.1-0.2,0.3v0.3v0.2c0,0.7-0.3,1-1.1,1c-0.7,0-1.6-0.3-3.6-1.1c-1.9-0.7-3.1-1-4.3-1c-3,0-5.7,2.4-5.7,5.2c0,2.4,1.6,4.2,5,5.6l3.4,1.4c2.8,1.2,3.9,2,3.9,3.1c0,0.9-0.9,1.5-2.2,1.5c-0.6,0-1.3-0.2-2.6-0.6c-3.2-1-5.3-1.4-7.1-1.4c-3,0-5.2,0.8-6.9,2.6c-0.2,0.2-0.4,0.3-0.6,0.3c-0.1,0-0.3-0.1-0.6-0.2c-0.3-0.2-0.6-0.3-0.9-0.3c-0.3,0-0.8,0.2-1,0.5l-0.4,0.5c-0.1,0.2-0.3,0.2-0.4,0.2c-0.3,0-0.8-0.5-1.1-1.1c-0.2-0.4-0.3-0.7-0.4-1c0-0.3-0.1-0.7-0.1-1.1v-0.7l0.1-0.8c0.1-0.4,0.1-0.6,0.1-0.7c0-0.1,0.1-0.2,0.2-0.2c0.2,0,0.3,0.2,0.3,0.6v0.2v0.2c0,1.1,0.5,2.2,1,2.2c0.4,0,0.7-0.7,1-2.1c0.1-0.3,0.2-0.4,0.3-0.4c0.2,0,0.3,0.2,0.4,0.8c0.1,0.4,0.3,0.9,0.6,1.3c0.2,0.2,0.3,0.3,0.5,0.3c0.3,0,0.5-0.5,0.7-1.6c0.1-0.4,0.2-0.7,0.4-0.7c0.1,0,0.1,0,0.2,0.1c0,0,0.1,0.2,0.3,0.4c0.1,0.2,0.3,0.3,0.4,0.4c0.2,0.1,0.4,0.2,0.5,0.2s0.3-0.1,0.4-0.2c0.2-0.2,0.3-0.3,0.3-0.3c0-0.1-0.1-0.2-0.2-0.4c-0.3-0.3-0.5-0.7-0.7-1.3c-0.2-0.4-0.3-0.7-0.4-0.9c-0.1-0.1-0.1-0.2-0.2-0.3h-0.1h-0.2c0,0-0.3,0.1-0.9,0.2H510c-0.1,0-0.2-0.1-0.2-0.2c0-0.1,0.1-0.3,0.3-0.4c1-0.8,1.6-2.1,1.9-4.1c0.1-1.2,0.3-1.6,0.8-2.3c0.1-0.2,0.2-0.2,0.3-0.2c0.2,0,0.2,0.1,0.2,0.4c0,0.2,0,0.3-0.1,0.6c-0.1,0.2-0.1,0.3-0.1,0.5v0.2l0.1,0.2l0.4-0.2l0.5-0.6c0.3-0.3,0.5-1.1,0.5-1.6c0-0.4-0.1-0.6-0.3-0.9c-0.3-0.3-0.4-0.4-0.6-0.4h-0.3h-0.3c-0.3,0-0.4-0.1-0.4-0.2l0.1-0.3v-0.4l-0.2-1l-0.2-0.5l-0.1-0.4l-0.3,0.2l-0.6,0.4c-0.2,0.1-0.3,0.2-0.5,0.4c-0.6,0.7-0.6,0.7-0.8,0.7c-0.1,0-0.2-0.1-0.2-0.2v-0.2c0.1-0.4,0.1-0.6,0.1-0.8c0-0.7-0.5-1.7-1.1-2.3c-0.8,0.8-1.3,1.7-1.3,2.5v0.5c0,0.2-0.1,0.3-0.2,0.3l0,0c-0.1,0-0.2-0.1-0.3-0.2l-0.5-0.6c0,0-0.3-0.2-0.6-0.5c-0.1-0.1-0.2-0.1-0.3-0.3l-0.2,0.3c-0.4,0.8-0.5,1.3-0.6,1.9c0,0.5-0.1,0.7-0.2,0.7c-0.1,0-0.2,0-0.3-0.1c-0.6-0.3-0.7-0.4-0.9-0.4c-0.7,0-1.2,0.5-1.2,1.3c0,0.3,0.2,0.7,0.5,1.3c0.4,0.6,0.9,1.2,1.2,1.2c0.1,0,0.1,0,0.1-0.2v-0.1v-0.7l-0.1-0.5V254c0-0.2,0.1-0.2,0.2-0.2c0.4,0,0.7,1.1,1,3.2c0.2,1.8,0.8,3.1,1.6,3.9c0.2,0.2,0.3,0.3,0.3,0.4s-0.1,0.1-0.2,0.1s-0.3-0.1-0.5-0.2c-0.1-0.1-0.3-0.1-0.4-0.1c-0.4,0-0.9,0.5-0.9,1l-0.4,2.3l-0.3,3.2c-0.1,0.6,0,1.4,0.2,2.4c0.2,0.9,0.3,1.5,0.3,1.9c0,2.4-1.5,4.3-4,5l-2.6,0.8c-1.6,0.5-2.4,1.5-2.6,3.5c0.4-0.3,0.5-0.4,1.2-0.5l0.8-0.1c0.3-0.1,0.6-0.1,0.7-0.2c0.1,0,0.2-0.2,0.4-0.4l0.7-0.8c0.3-0.3,0.5-0.5,0.6-0.5c0.1,0,0.2,0.1,0.2,0.2c0,0.1-0.1,0.4-0.3,0.7c-0.2,0.3-0.3,0.7-0.3,1c0,0.5,0.1,0.8,0.7,1.6c0.1-0.2,0.1-0.4,0.2-0.5s0.3-0.4,0.6-0.8c0.6-0.7,1-1.5,1-1.8c0-0.6,0.1-0.8,0.2-0.8s0.2,0,0.2,0.4c0,0.1,0.1,0.2,0.1,0.2c0.1,0.1,0.2,0.2,0.3,0.2c0,0,0.2-0.1,0.3-0.2c0.3-0.2,0.5-0.4,0.6-0.6c0.2-0.2,0.3-0.4,0.4-0.7c0.1-0.4,0.2-0.6,0.2-0.8v-0.5c0-0.1,0.1-0.2,0.1-0.2c0.1,0,0.3,0.2,0.4,0.4c0.1,0.2,0.2,0.2,0.3,0.2l0,0c0.1,0,0.3-0.1,0.4-0.2c0.5-0.5,0.8-1.1,0.8-1.5v-0.7l-0.2-0.6v-0.1c0-0.1,0.1-0.2,0.2-0.2c0.2,0,0.4,0.3,0.7,0.8c0.1,0.3,0.2,0.4,0.4,0.4c0.2,0,0.3-0.1,0.7-0.7l0.4-0.5c0.1-0.1,0.1-0.3,0.1-0.4c0-0.1,0-0.3-0.1-0.4l-0.3-0.5c-0.1-0.1-0.1-0.2-0.1-0.4c0-0.5,0.2-1.2,0.6-1.9c0.3-0.5,0.5-0.9,0.5-1c0.1-0.2,0.1-0.2,0.2-0.2c0.1,0,0.1,0.1,0.1,0.2v0.4v0.6c0.1,0.1,0.2,0.2,0.3,0.2s0.3,0,0.4-0.1l1-0.4c0.2-0.1,0.6-0.2,0.9-0.4c1.6-0.9,2.1-1,2.9-1c0.5,0,1.1,0.2,1.9,0.6c0.2,0.1,0.3,0.1,0.4,0.1c0.1,0,0.2-0.1,0.4-0.2c0.1-0.1,0.1-0.2,0.1-0.3c0-0.1-0.1-0.3-0.2-0.5c-0.1-0.2-0.2-0.5-0.2-0.6c0-0.1,0.1-0.2,0.2-0.2c0.1,0,0.2,0.1,0.3,0.2c0.1,0.2,0.4,0.7,0.9,1.6c0.8,1.3,1.7,2.2,2.6,2.4l1.8,0.4c0.6,0.1,0.7,0.3,0.7,1c0,1.2-0.6,2.3-1.6,3l-1.5,0.9c-0.5,0.3-1,1.2-1,2c0,0.5,0.1,1.4,0.3,2l0.3-0.3l0.7-0.4l0.6-0.6l0.3-0.9l0.3-0.8c0.2-0.4,0.3-0.6,0.5-0.6c0.1,0,0.2,0.2,0.2,0.6v0.1v0.1C522.7,278.7,522.8,278.9,523.2,279.8"/><path fill="#FDDD04" d="M499.4,291.8c0.5-0.4,0.6-0.5,1.9-0.8c1.1-0.2,1.6-0.7,1.9-1.8c0.2-0.8,0.3-0.9,1-1.4c0.2-0.1,0.4-0.3,0.5-0.4c0.1-0.1,0.2-0.2,0.2-0.2c0.1,0,0.1,0.1,0.1,0.2c0,0.1-0.1,0.4-0.3,0.7c-0.1,0.2-0.2,0.4-0.2,0.8c0,0.6,0.1,1.1,0.5,1.6c0.2-0.5,0.4-0.7,1-1.1c0.8-0.6,1.1-1.2,1.3-2.6c0.1-0.6,0.2-0.9,0.3-0.9s0.1,0,0.2,0.1l0.3,0.6c0,0.1,0.1,0.1,0.3,0.1c0.1,0,0.3-0.1,0.5-0.3l0.6-0.5c0.2-0.2,0.4-0.8,0.5-1.7c0-0.3,0.1-0.6,0.3-0.6c0.1,0,0.2,0.1,0.2,0.2l0.2,0.8c0.1,0.2,0.2,0.3,0.3,0.3c0,0,0.2-0.1,0.3-0.2c0.2-0.2,0.4-0.4,0.6-0.6c0.2-0.3,0.3-0.5,0.3-0.8v-0.7c0-0.1,0.1-0.3,0.2-0.4c0.1-0.1,0.1-0.2,0.2-0.2c0.1,0,0.2,0.1,0.2,0.2l0.2,0.4c0.1,0.2,0.2,0.3,0.4,0.3s0.4-0.2,0.8-0.6c0.1-0.1,0.2-0.2,0.2-0.3c0.2-0.2,0.3-0.4,0.3-0.5c0-0.1-0.1-0.2-0.2-0.3c-0.6-0.8-0.9-1.7-0.9-2.7c0-1.3,0.5-2.4,2.1-4.5c0.9-1.2,1.5-2.4,1.5-3.2c0-0.2-0.1-0.3-0.3-0.3c-0.1,0-0.3,0-0.5,0.1c-0.2,0.1-0.3,0.1-0.3,0.1c-0.1,0-0.2-0.1-0.3-0.2l-0.3-0.3l-0.2-0.3c-0.1-0.1-0.2-0.2-0.3-0.2c0,0-0.1,0-0.3,0.1h-0.4c-0.4,0-0.6,0.2-0.6,0.6v0.2v0.2c0,0.3-0.3,0.9-0.7,1.3l-0.8,0.7c-0.9,0.8-1.7,2.2-1.7,3c0,0.4,0.1,1,0.4,1.7c0.4,1.2,0.5,1.8,0.5,2.1c0,1.9-3,4.4-8.4,7.2c-2.8,1.4-3.5,2.2-3.5,4.1V291.8 M496.7,250.1v0.4v0.6c0,0.2,0,0.4-0.1,0.6c-0.1,0.6-0.2,0.7-0.2,0.9c0,0.8,0.1,1.1,0.6,1.9c0.3,0.4,0.4,1,0.4,1.3c0,0.2-0.1,0.3-0.2,0.3c-0.1,0-0.1,0-0.2-0.1l-0.3-0.4c-0.3-0.3-0.5-0.4-1.2-0.4h-0.7c0.3,0.7,0.4,0.9,0.5,1.4c0.3,1.3,0.4,1.4,1.1,2c0.7,0.6,0.8,0.7,0.8,1c0,0.2-0.1,0.3-0.3,0.3h-0.3h-0.2c-0.2,0-0.4,0.4-0.4,0.8c0,0.3,0.1,0.7,0.3,1c0.1,0.2,0.2,0.4,0.3,0.5l0.4,0.4c0.1,0.1,0.2,0.2,0.2,0.4c0,0.2-0.1,0.4-0.2,0.4s-0.2,0-0.4-0.1c-0.1-0.1-0.2-0.1-0.3-0.1c-0.2,0-0.3,0.1-0.3,0.3l0.1,0.6l0.2,1c0.1,0.2,0.2,0.5,0.4,0.8c0.2,0.2,0.4,0.4,0.6,0.5c0.5,0.2,0.8,0.3,0.8,0.4c0.1,0.1,0.1,0.2,0.1,0.3c0,0.2-0.1,0.3-0.3,0.3c0,0-0.2,0-0.4-0.1h-0.4c-0.4,0-0.4,0-0.4,0.3c0,0.2,0,0.4,0.1,0.6l0.2,0.6c0.2,0.7,0.4,1,0.6,1c0.1,0,0.2-0.1,0.3-0.2c0.6-0.4,1.8-0.8,2.5-0.8c0.8,0,1.6,0.1,2,0.2c0.2,0.1,0.3,0.1,0.4,0.1s0.1-0.1,0.1-0.4l0.1-0.7l0.2-1.2l0.1-0.9v-0.5c-0.1,0.1-0.3,0.2-0.3,0.3c-0.7,0.6-1.1,0.8-1.8,0.8c-1.9,0-2.9-2.1-2.9-5.6c0-1.5,0.2-3.6,0.6-6c0.1-0.5,0.1-0.9,0.1-1.1C499.1,252.3,498.2,251,496.7,250.1"/><path fill="#FDDD04" d="M499.5,259l0.4-0.4l0.4-0.3c0.3-0.3,0.5-0.8,0.5-1.2c0-0.2,0-0.4-0.1-0.6c-0.1-0.3-0.4-0.6-0.6-0.6c-0.1,0-0.3,0.3-0.3,0.8l-0.1,0.6l-0.1,0.6v0.6L499.5,259 M495.9,275.3c0.4,0.2,0.5,0.2,0.9,0.7c0.6,0.6,0.9,0.8,1.6,0.8c0.2,0,0.4,0,0.6-0.1l0.5-0.2l0.4-0.1c0.2-0.1,0.3-0.1,0.3-0.2s-0.3-0.3-0.8-0.7c-0.3-0.2-0.6-0.4-1-0.6c-0.4-0.2-0.6-0.2-0.9-0.2C497,274.7,496.5,274.9,495.9,275.3 M501.5,286.9c0.7-0.3,1-0.4,1.8-0.9c0.7-0.4,1.1-0.6,1.2-0.6c0.8-0.4,1.1-0.7,1.1-0.9c0-0.3-0.5-0.4-1.2-0.4c-1.6,0-2.9,1.1-2.9,2.3V286.9 M517.8,276.8c0.6-0.1,0.8-0.3,1.1-0.3h0.7c0.1,0,0.3-0.1,0.5-0.3c0.1-0.1,0.3-0.2,0.6-0.4c0.8-0.5,0.8-0.6,0.8-0.7c0-0.2-0.3-0.3-1-0.3C519.1,274.8,518.5,275.4,517.8,276.8"/><path fill="#231F20" d="M435.2,181.1l-0.2-0.6l-0.1-0.3c0-0.3,0.2-0.5,0.6-0.7c0.8-0.3,1.1-0.4,1.4-0.7l0.4-0.4l0,0c0.1,0,0.2,0.1,0.2,0.3c0,0.5-0.6,1.4-1.1,2.4c-0.4,0.7-0.6,1.1-0.8,1.1c-0.2,0-0.4-0.3-0.4-0.7V181.1 M432.9,179.5l0.7,0.4c0.2,0.1,0.3,0.2,0.3,0.4v0.2c-0.1,0.3,0,0.7,0,0.9c0,0.7-0.6,0.7-0.8,0.7c-0.1,0-0.1-0.1-0.4-0.4l-0.9-1c-0.3-0.3-0.5-1-0.6-1.8v-0.1c0-0.2,0.1-0.3,0.2-0.3s0.3,0.1,0.4,0.2L432.9,179.5 M435.2,183.6l0.6-0.4l0.4,0.1c0.4,0,0.6,0.1,0.6,0.6c0,0.7-0.5,1-1.3,3c-0.4,0.9-0.4,1.4-1,1.4c-0.6,0-1-0.5-1.5-1.6l-0.5-1.3c-0.4-0.9-0.5-1.4-0.5-1.8c0-0.3,0.2-0.5,0.6-0.5c0.2,0,0.4,0.1,0.6,0.2c0.3,0.2,0.5,0.3,0.5,0.3h0.5h0.2H435.2 M510.5,181.2l-0.3-0.7l-0.1-0.3c0-0.3,0.2-0.5,0.7-0.7c0.5-0.2,1.1-0.5,1.3-0.7l0.4-0.4l0,0c0.1,0,0.2,0.1,0.2,0.3c0,0.5-0.5,1.3-1.1,2.3c-0.4,0.7-0.7,1.3-0.9,1.3c-0.2,0-0.4-0.3-0.4-0.7L510.5,181.2 M508,179.5l0.7,0.4c0.2,0.1,0.3,0.3,0.3,0.5v0.2l-0.2,0.7l-0.1,0.8c0,0.1-0.1,0.2-0.2,0.2l0,0c-0.2,0-0.6-0.2-0.9-0.5l-0.6-1c-0.1-0.1-0.3-0.5-0.5-1.1c-0.1-0.2-0.1-0.5-0.2-0.7v-0.1c0-0.2,0.1-0.3,0.3-0.3c0.1,0,0.3,0.1,0.4,0.2L508,179.5 M510.4,183.6l0.6-0.4h0.2c0.4,0,1,0.4,1,0.9c0,0.4-0.5,0.6-0.8,1.2l-0.4,1.8c-0.3,0.8-0.8,1.3-1.3,1.3c-0.6,0-1.1-0.5-1.5-1.6c-0.2-0.5-0.4-0.9-0.5-1.3c-0.3-0.8-0.5-1.4-0.5-1.7c0-0.4,0.2-0.6,0.6-0.6c0.2,0,0.4,0.1,0.6,0.2c0.3,0.2,0.5,0.3,0.5,0.3h0.5h0.2L510.4,183.6 M431.9,253.7l-0.2-0.6v-0.2c0-0.1,0.1-0.1,0.2-0.1c0.1,0,0.3,0.1,0.5,0.2c0.2,0.1,0.3,0.1,0.6,0.2c1.1,0.3,1.3,0.5,1.3,1v0.7l-0.2,0.6c-0.1,0.3-0.1,0.3-0.3,0.3c-0.1,0-0.8-0.5-0.9-0.6l-0.4-0.6L431.9,253.7 M436.7,254.7l-0.5,0.9c-0.1,0.1-0.2,0.2-0.2,0.2l0,0c-0.2,0-0.4-0.5-0.4-1l-0.1-0.8c0.1-0.3,0.3-0.5,0.8-0.6c0.4-0.1,0.7-0.2,0.8-0.2c0.4-0.3,0.6-0.4,0.6-0.4h0.1c0.1,0,0.2,0.1,0.2,0.2v0.1l-0.3,0.7L436.7,254.7 M435.6,257.4l0.6-0.3c0.1-0.1,0.2-0.1,0.3-0.1c0.3,0,0.5,0.2,0.5,0.6c0,0.5-0.4,1.1-0.9,1.9c-0.5,0.9-0.9,1.6-1.4,1.6c-0.6,0-1.4-0.9-2.2-2.4c-0.2-0.4-0.3-0.8-0.3-1.1c0-0.5,0.2-0.8,0.7-0.8c0.2,0,0.3,0,0.5,0.1l0.4,0.2c0.3,0.2,0.7,0.3,1,0.3C435.2,257.6,435.4,257.5,435.6,257.4 M505.6,252.6l0.6,0.4c0.3,0.2,0.6,0.3,0.8,0.4c0.6,0.3,0.9,0.3,0.9,0.6c0,0.1,0,0.3-0.1,0.5s-0.1,0.4-0.1,0.6c-0.1,0.5-0.4,0.7-0.6,0.7c-0.3,0-0.6-0.4-1-1.2c-0.2-0.4-0.5-1.1-0.6-1.6v-0.2C505.3,252.6,505.4,252.6,505.6,252.6L505.6,252.6 M511,254l-0.9,0.9c-0.3,0.4-0.3,0.8-0.4,0.9c-0.1,0.1-0.2,0.1-0.3,0.1h-0.1c-0.2,0-0.4-0.2-0.4-0.4v-0.7v-0.7l0,0c0-0.3,0.1-0.4,0.4-0.4l0.9-0.2l0.9-0.4c0.3-0.1,0.3-0.2,0.4-0.2s0.2,0.1,0.2,0.2c0,0.1,0,0.1-0.1,0.3L511,254 M506.9,256.7l0.6,0.4c0.1,0.1,0.3,0.1,0.5,0.1c0.2,0,0.6-0.1,1-0.3l0.5-0.2c0.1-0.1,0.2-0.1,0.3-0.1c0.3,0,0.6,0.3,0.6,0.8c0,0.6-0.4,1.2-1.1,2.1l-0.4,0.9c-0.4,0.5-0.6,0.7-0.9,0.7c-0.5,0-0.7-0.3-1.4-1.7c-0.5-1-0.7-1.6-0.7-2.1c0-0.4,0.2-0.7,0.5-0.7C506.6,256.6,506.8,256.6,506.9,256.7"/><path fill="#FDDD04" d="M434.4,184.8h-0.5c-0.1,0-0.2,0-0.2,0.1l-0.1,0.2l0.2,1l0.2,0.8c0.1,0.5,0.3,0.6,0.6,0.6c0.4,0,0.6-0.3,0.7-0.8l0.1-0.9c0-0.6,0.1-0.9,0.1-0.9c0-0.1,0-0.2-0.1-0.2c-0.1-0.1-0.1-0.1-0.2-0.1l0,0L434.4,184.8 M509.5,184.8H509c-0.1,0-0.2,0-0.2,0.1c-0.1,0.1-0.1,0.2-0.1,0.2l0.2,1l0.2,0.8c0.1,0.5,0.2,0.6,0.5,0.6c0.4,0,0.7-0.3,0.8-0.8l0.1-0.9c0.1-0.6,0.1-0.9,0.1-0.9c0-0.1,0-0.2-0.1-0.2c-0.1-0.1-0.1-0.1-0.2-0.1l0,0L509.5,184.8 M434.8,258.4l-0.4-0.1h-0.1c-0.3,0-0.4,0.1-0.4,0.4c0,0.4,0.3,1.1,0.7,1.7c0.1,0.1,0.2,0.2,0.3,0.2c0.3,0,0.4-0.5,0.6-1.3l0.1-0.6v-0.1c0-0.2-0.1-0.3-0.3-0.3h-0.1L434.8,258.4 M507.5,258.9v0.8c0,0.3,0.3,0.7,0.6,0.7c0.4,0,0.6-0.6,0.8-1.4c0.1-0.4,0.1-0.4,0.1-0.6c0-0.3-0.1-0.4-0.5-0.4h-0.2H508h-0.2c-0.3,0-0.4,0.2-0.4,0.7L507.5,258.9"/><path fill="#231F20" d="M462.2,220.4h4.3c0.5-1,1.1-1.4,2.2-1.4c1,0,1.7,0.4,2.2,1.4h3.5c0.4-0.9,1.3-1.4,2.3-1.4c1,0,1.9,0.6,2.2,1.4h3.3c0.5-0.9,1.3-1.4,2.1-1.4c0.9,0,1.6,0.4,2.2,1.2l0.2,0.2h4.5v20.6h-4v7.9h-4.6v-7.9h-11.7v7.9H466v-8h-4L462.2,220.4"/><path fill="#EF2F51" d="M463.8,239.5h25.6v-17.3h-25.6C463.8,222.1,463.8,239.5,463.8,239.5z"/><path fill="#FDDD04" d="M466.5,226.1c-0.7,0-1.2,0.5-1.2,1.2s0.6,1.2,1.2,1.2c0.7,0,1.2-0.5,1.2-1.2S467.2,226.1,466.5,226.1"/><path fill="none" stroke="#231F20" stroke-width="0.2793" d="M466.5,226.1c-0.7,0-1.2,0.5-1.2,1.2s0.6,1.2,1.2,1.2c0.7,0,1.2-0.5,1.2-1.2S467.2,226.1,466.5,226.1z"/><path fill="#FDDD04" d="M486.6,226.1c-0.7,0-1.2,0.5-1.2,1.2s0.5,1.2,1.2,1.2c0.7,0,1.2-0.5,1.2-1.2C487.9,226.6,487.3,226.1,486.6,226.1"/><path fill="none" stroke="#231F20" stroke-width="0.2793" d="M486.6,226.1c-0.7,0-1.2,0.5-1.2,1.2s0.5,1.2,1.2,1.2c0.7,0,1.2-0.5,1.2-1.2C487.9,226.6,487.3,226.1,486.6,226.1L486.6,226.1z"/><path fill="#FDDD04" d="M466.5,235.5c-0.7,0-1.2,0.5-1.2,1.2s0.6,1.2,1.3,1.2s1.2-0.5,1.2-1.2C467.7,236.1,467.2,235.5,466.5,235.5"/><path fill="none" stroke="#231F20" stroke-width="0.2793" d="M466.5,235.5c-0.7,0-1.2,0.5-1.2,1.2s0.6,1.2,1.3,1.2s1.2-0.5,1.2-1.2C467.7,236.1,467.2,235.5,466.5,235.5L466.5,235.5z"/><path fill="#FDDD04" d="M486.6,235.5c-0.7,0-1.2,0.5-1.2,1.2s0.5,1.2,1.2,1.2c0.7,0,1.2-0.5,1.2-1.2C487.9,236.1,487.3,235.5,486.6,235.5"/><path fill="none" stroke="#231F20" stroke-width="0.2793" d="M486.6,235.5c-0.7,0-1.2,0.5-1.2,1.2s0.5,1.2,1.2,1.2c0.7,0,1.2-0.5,1.2-1.2C487.9,236.1,487.3,235.5,486.6,235.5L486.6,235.5z"/><path fill="#FDDD04" d="M470.3,231.9c1.7,2,3.8,3,6.4,3c2.4,0,4.1-0.8,6-3c-1.9-2-3.7-2.8-6.1-2.8C474.1,229.1,471.8,230.1,470.3,231.9"/><path fill="#231F20" d="M471.6,231.9c1.7-1.3,3.2-1.8,4.9-1.8c1.8,0,3.2,0.5,4.9,1.9c-1.5,1.5-2.9,2-4.9,2C474.7,234,473,233.2,471.6,231.9"/><path fill="#FDDD04" d="M473.7,231.5c1,0.6,1.8,0.9,2.8,0.9c1.1,0,2.1-0.3,3-0.9c-1-0.5-2-0.7-2.9-0.7C475.5,230.8,474.5,231,473.7,231.5"/><path fill="#231F20" d="M463.5,223.9h26.3V223h-26.3V223.9L463.5,223.9z"/><path fill="none" stroke="#231F20" stroke-width="9.420000e-002" d="M463.5,223.9h26.3V223h-26.3V223.9L463.5,223.9z"/><path fill="#FDDD04" d="M467.5,221.9v2.5c0,0.6,0.5,1,1.1,1c0.7,0,1.1-0.4,1.1-1V222c0-0.9-0.4-1.5-1-1.5c-0.1,0-0.3,0-0.5,0.1c-0.1,0.1-0.2,0.1-0.3,0.2s-0.2,0.2-0.2,0.3c-0.1,0.2-0.2,0.4-0.2,0.4V221.9 M475.5,223.9v0.4c0,0.6,0.5,1,1.1,1c0.7,0,1.1-0.4,1.1-1v-2.4c0-0.9-0.4-1.5-1-1.5c-0.7,0-1.2,0.6-1.2,1.5V223.9 M483.1,221.9v2.5c0,0.6,0.5,1,1.1,1c0.7,0,1.1-0.4,1.1-1V222c0-0.9-0.4-1.5-1-1.5c-0.1,0-0.3,0-0.5,0.1c-0.1,0.1-0.2,0.1-0.3,0.2c-0.1,0.1-0.2,0.2-0.2,0.3c-0.1,0.2-0.2,0.4-0.2,0.4V221.9 M466.9,245.8h2.4v-3h-2.4V245.8L466.9,245.8z M466.9,247.5h2.4v-1h-2.4V247.5z M483.3,245.8h2.4v-3h-2.4V245.8L483.3,245.8z M483.3,247.5h2.4v-1h-2.4V247.5z"/></g><g><path fill="#FFFFFF" d="M130.2,217.6c-3.2,1.5-6.9,2.3-11.1,2.3c-3.8,0-7.2-0.9-10.2-2.6c-3-1.8-5.3-4.2-7-7.4c-1.6-3.2-2.5-6.8-2.5-10.8c0-4.3,0.9-8.2,2.7-11.6c1.8-3.5,4.3-6.1,7.5-8s6.9-2.9,11-2.9c3.6,0,6.8,0.5,9.6,1.6v4.2c-3-1.5-6.2-2.3-9.6-2.3s-6.4,0.8-9,2.3s-4.6,3.7-5.9,6.6c-1.4,2.9-2.1,6.1-2.1,9.8c0,3.4,0.7,6.5,2,9.2s3.2,4.8,5.6,6.3s5.2,2.2,8.4,2.2c4,0,7.6-0.8,10.7-2.5v3.6H130.2z"/><path fill="#FFFFFF" d="M155.8,219.1v-5.3h-0.1c-1,1.9-2.3,3.4-4,4.5s-3.6,1.6-5.7,1.6c-2.9,0-5.2-0.8-6.9-2.3c-1.7-1.6-2.5-3.6-2.5-6.2c0-5.4,3.4-8.7,10.1-9.6l9.1-1.3c0-5.8-2.2-8.6-6.7-8.6c-3.5,0-6.7,1.3-9.7,3.8v-4.1c1.2-0.9,2.7-1.6,4.6-2.2c1.9-0.6,3.7-0.8,5.4-0.8c3.3,0,5.9,0.9,7.6,2.8c1.7,1.9,2.6,4.7,2.6,8.4v19.5h-3.8V219.1z M140.4,211c0,1.7,0.6,3,1.7,4c1.1,1,2.6,1.5,4.5,1.5c2.6,0,4.8-1,6.5-2.9s2.6-4.3,2.6-7.3v-3l-7.7,1.1c-2.9,0.4-4.9,1.1-6,2.1C141,207.6,140.4,209.1,140.4,211z"/><path fill="#FFFFFF" d="M206.3,219.1v-17.6c0-3.5-0.6-6-1.7-7.5c-1.1-1.5-2.9-2.3-5.4-2.3c-2.2,0-4.1,1-5.7,2.9c-1.6,2-2.4,4.3-2.4,7.2v17.3h-3.8v-18c0-6.3-2.4-9.4-7.2-9.4c-2.2,0-4.1,1-5.6,2.9s-2.3,4.4-2.3,7.4v17.2h-3.8v-30h3.8v4.9h0.1c2.1-3.7,5.2-5.6,9.2-5.6c2.1,0,3.9,0.6,5.4,1.8c1.6,1.2,2.6,2.8,3.2,4.8c1.1-2.1,2.4-3.8,4.1-4.9c1.7-1.1,3.6-1.7,5.7-1.7c6.6,0,9.9,4.1,9.9,12.2v18.5L206.3,219.1L206.3,219.1z"/><path fill="#FFFFFF" d="M222.8,214.3v4.8H219v-44.4h3.8v20.2h0.1c1.1-2.1,2.6-3.7,4.5-4.8s4-1.7,6.3-1.7c3.8,0,6.8,1.3,9,4s3.3,6.2,3.3,10.8c0,5-1.2,9-3.7,12.1s-5.7,4.6-9.8,4.6c-4.2,0-7.4-1.8-9.5-5.5h-0.2V214.3z M222.8,206.6c0,2.8,0.9,5.2,2.7,7.1c1.8,1.9,4,2.9,6.8,2.9c3,0,5.4-1.2,7.2-3.7c1.8-2.4,2.7-5.7,2.7-9.8c0-3.5-0.8-6.3-2.4-8.3c-1.6-2.1-3.9-3.1-6.7-3.1c-2,0-3.7,0.5-5.3,1.4c-1.6,1-2.7,2.3-3.6,4c-0.8,1.7-1.3,3.6-1.3,5.6L222.8,206.6L222.8,206.6z"/><path fill="#FFFFFF" d="M268.4,192.9c-0.9-0.6-2-1-3.4-1c-1.5,0-2.9,0.5-4,1.5c-1.2,1-2.1,2.5-2.7,4.4s-1,4.1-1,6.5V219h-3.7v-30h3.7v6.4h0.1c0.7-2.2,1.8-4,3.2-5.2s3.1-1.8,4.9-1.8c1.2,0,2.1,0.2,2.9,0.5V192.9z"/><path fill="#FFFFFF" d="M275.7,181.5c-0.7,0-1.3-0.3-1.9-0.8c-0.5-0.5-0.8-1.2-0.8-1.9c0-0.8,0.3-1.4,0.8-1.9s1.2-0.7,1.9-0.7c0.8,0,1.5,0.3,2,0.8s0.8,1.1,0.8,1.9c0,0.8-0.3,1.4-0.8,1.9C277.1,181.3,276.4,181.5,275.7,181.5z M273.8,219.1v-30h3.8v30H273.8z"/><path fill="#FFFFFF" d="M308.3,219.1v-5.3h-0.1c-1,1.9-2.4,3.4-4.3,4.4s-3.9,1.6-6.3,1.6c-3.8,0-6.8-1.4-9.1-4.1s-3.4-6.4-3.4-11c0-4.9,1.3-8.8,3.8-11.8s5.8-4.5,10-4.5c4.3,0,7.4,1.7,9.3,5.2h0.1v-18.9h3.8v44.4H308.3z M308.3,201c0-2.7-0.9-4.9-2.6-6.7s-3.9-2.7-6.6-2.7c-3.1,0-5.5,1.2-7.4,3.5c-1.8,2.3-2.8,5.4-2.8,9.3c0,3.8,0.8,6.7,2.5,8.9s4,3.2,6.9,3.2c1.9,0,3.6-0.4,5.1-1.3c1.5-0.9,2.7-2.2,3.5-3.8s1.2-3.4,1.2-5.4v-5H308.3z"/><path fill="#FFFFFF" d="M346.5,216.8c0,5.6-1.3,9.7-3.8,12.4s-6.4,4-11.7,4c-3.3,0-6.4-0.7-9.3-2.2v-3.8c3.3,1.8,6.4,2.7,9.3,2.7c7.8,0,11.7-4.1,11.7-12.4v-3.6h-0.1c-2.3,3.9-5.8,5.9-10.5,5.9c-3.8,0-6.8-1.4-9.1-4.1c-2.3-2.7-3.4-6.3-3.4-10.9c0-5,1.2-8.9,3.7-12c2.5-3,5.8-4.5,10-4.5s7.3,1.7,9.3,5.2h0.1V189h3.8V216.8z M342.7,200.9c0-2.6-0.9-4.8-2.6-6.5s-3.9-2.7-6.4-2.7c-3.1,0-5.6,1.2-7.5,3.5c-1.8,2.3-2.8,5.5-2.8,9.4c0,3.7,0.9,6.6,2.6,8.8s4,3.3,6.9,3.3s5.3-1,7.1-3c1.8-2,2.8-4.5,2.8-7.5v-5.3H342.7z"/><path fill="#FFFFFF" d="M357.9,204.8c0,3.7,1,6.6,2.8,8.7s4.3,3.1,7.5,3.1c3.4,0,6.6-1.2,9.6-3.5v3.7c-2.9,2.1-6.3,3.1-10.4,3.1s-7.4-1.4-9.7-4.2s-3.5-6.6-3.5-11.6c0-2.9,0.6-5.6,1.8-8c1.2-2.4,2.8-4.3,4.9-5.7s4.4-2,7-2c3.8,0,6.7,1.3,8.8,3.9c2.1,2.6,3.1,6.1,3.1,10.6v1.9H357.9z M375.8,201.5c-0.1-3.1-0.8-5.5-2.2-7.3c-1.4-1.7-3.4-2.6-5.9-2.6c-2.6,0-4.7,0.9-6.4,2.6c-1.7,1.7-2.7,4.2-3.2,7.2h17.7V201.5z"/><path fill="#FFFFFF" d="M101.9,291.1v-42h20.5v3.6h-16.6v15.4h15.4v3.5h-15.4v16h17.5v3.5H101.9z"/><path fill="#FFFFFF" d="M151.8,291.1v-17.3c0-6.8-2.5-10.2-7.4-10.2c-2.6,0-4.8,1-6.5,2.9s-2.6,4.4-2.6,7.4v17.2h-3.8v-30h3.8v5.2h0.1c2.2-3.9,5.6-5.9,10-5.9c3.3,0,5.8,1.1,7.5,3.2s2.6,5.2,2.6,9.2v18.3L151.8,291.1L151.8,291.1z"/><path fill="#FFFFFF" d="M189.3,288.8c0,5.6-1.3,9.7-3.8,12.4c-2.5,2.7-6.4,4-11.7,4c-3.3,0-6.4-0.7-9.3-2.2v-3.8c3.3,1.8,6.4,2.7,9.3,2.7c7.8,0,11.7-4.1,11.7-12.4v-3.6h-0.1c-2.3,3.9-5.8,5.9-10.5,5.9c-3.8,0-6.8-1.4-9.1-4.1s-3.4-6.3-3.4-10.9c0-5,1.2-8.9,3.7-12c2.5-3,5.8-4.5,10-4.5s7.3,1.7,9.3,5.2h0.1V261h3.8V288.8z M185.6,272.9c0-2.6-0.9-4.8-2.6-6.5c-1.7-1.8-3.9-2.7-6.4-2.7c-3.1,0-5.6,1.2-7.5,3.5s-2.8,5.5-2.8,9.4c0,3.7,0.9,6.6,2.6,8.8c1.7,2.2,4,3.3,6.9,3.3s5.3-1,7.1-3s2.8-4.5,2.8-7.5v-5.3H185.6z"/><path fill="#FFFFFF" d="M199,291.1v-44.4h3.8v44.4H199z"/><path fill="#FFFFFF" d="M214.2,253.5c-0.7,0-1.3-0.3-1.9-0.8c-0.5-0.5-0.8-1.2-0.8-1.9c0-0.8,0.3-1.4,0.8-1.9s1.2-0.7,1.9-0.7c0.8,0,1.5,0.3,2,0.8s0.8,1.1,0.8,1.9c0,0.8-0.3,1.4-0.8,1.9C215.6,253.3,215,253.5,214.2,253.5z M212.4,291.1v-30h3.8v30H212.4z"/><path fill="#FFFFFF" d="M224.1,285.7c1.1,0.8,2.3,1.5,3.8,2.1c1.5,0.5,2.9,0.8,4.3,0.8c4.5,0,6.7-1.7,6.7-5c0-0.8-0.2-1.6-0.6-2.2c-0.4-0.6-1-1.2-1.8-1.7s-2.2-1.2-4.3-2.1c-2.9-1.2-5-2.5-6.2-3.8s-1.8-3-1.8-5c0-2.5,1-4.5,3-6.1s4.5-2.3,7.6-2.3c2.6,0,4.9,0.5,6.8,1.5v4c-2.2-1.4-4.7-2.2-7.3-2.2c-1.9,0-3.4,0.5-4.6,1.4s-1.7,2.1-1.7,3.5c0,1.3,0.4,2.4,1.2,3.2c0.8,0.8,2.5,1.8,5.1,2.8c3.2,1.3,5.4,2.6,6.6,3.9c1.2,1.3,1.8,2.9,1.8,4.9c0,2.6-1,4.6-3,6.2c-2,1.5-4.7,2.3-7.9,2.3c-3,0-5.6-0.6-7.6-1.9v-4.3H224.1z"/><path fill="#FFFFFF" d="M270.4,291.1v-17.6c0-3.4-0.6-5.8-1.8-7.4c-1.2-1.6-3.1-2.4-5.7-2.4c-1.7,0-3.2,0.4-4.6,1.3s-2.5,2.2-3.3,3.8s-1.2,3.5-1.2,5.5v16.8H250v-44.4h3.8v19.6h0.1c2.3-3.9,5.7-5.9,10.1-5.9c6.7,0,10,4.1,10,12.2v18.5H270.4z"/></g></svg>