<svg version="1.1" xmlns="http://www.w3.org/2000/svg" x="0px" y="0px" width="640px" height="480px" viewBox="0 0 640 480" enable-background="new 0 0 640 480"><rect fill="#45668E" width="640" height="480"/><path fill="#FEFEFE" d="M296,250.1c20.6,0,47.5-4.4,46.8,19.8c-0.5,22.8-27,19.7-46.9,19.7L296,250.1L296,250.1z M296,189.9c15.9,0,37.2-3.2,36.8,16.3c-0.4,19.4-19.5,17-36.8,17V189.9L296,189.9z M351.5,231.9c0.7-1.1,2.7-1.7,4-2.4c10.3-6,16.7-15.5,17.8-28c1.6-17.7-6.6-28.1-17.7-34c-13-6.8-30.6-6.6-46.8-6.6h-53.4v157.9c20.9,0.1,41.8,0,62.7,0c20.9,0,33.5-1.6,49.5-13.1c10.7-7.8,19.6-24.5,15.9-44.3c-2.3-12.4-10.7-21.3-20.9-25.7C361,235,352.1,232.2,351.5,231.9L351.5,231.9z"/></svg>