<svg version="1.1" xmlns="http://www.w3.org/2000/svg" xmlns:xlink="http://www.w3.org/1999/xlink" x="0px" y="0px" viewBox="0 0 512 512" enable-background="new 0 0 512 512"><rect fill="#8F5DB7" width="512" height="512"/><g><path fill="#FFFFFF" d="M363.417,269.819c-6.86,56.496-47.3,60.065-54.751,62.51c-3.176,1.04-32.673,8.535-69.746,6.057l-40.19,44.458l-0.042-51.23l-0.317-0.083c-53.993-15.324-52.176-72.777-51.568-102.934c0.608-30.157,6.151-54.865,22.629-71.478c29.58-27.387,90.533-23.294,90.533-23.294c51.476,0.233,76.147,16.064,81.865,21.372C360.817,171.819,370.494,211.576,363.417,269.819 M355.874,141.096c-6.76-6.356-34.081-26.621-94.934-26.896c0,0-71.755-4.426-106.736,28.368c-19.47,19.9-26.321,49.009-27.046,85.123c-0.717,36.113-1.659,103.765,62.169,122.117l0.059,0.017l-0.033,27.994c0,0-0.4,11.339,6.893,13.644c8.835,2.803,14.019-5.815,22.454-15.099c4.634-5.091,11.019-12.579,15.836-18.302c43.658,3.736,77.23-4.833,81.04-6.098c8.818-2.928,58.694-9.45,66.804-77.102C390.747,205.104,378.32,160.995,355.874,141.096"/><path id="XMLID_4_" fill="#FFFFFF" d="M316.943,278.246c-0.025-0.025-8.185-6.971-12.169-9.966c-3.759-2.82-9.752-6.614-13.102-8.544c-6.009-3.419-12.152-1.273-14.686,2.088l-5.268,6.764c-2.7,3.427-6.86,2.853-7.951,2.629c-7.785-1.947-16.061-6.805-24.53-14.991c-8.568-8.261-13.752-16.888-15.603-25.856l-0.134-0.591c-0.5-3.685,0.117-5.391,1.625-7.903l0.283-0.233c3.559-3.303,10.152-7.321,11.035-11.148c2.592-6.647-8.66-20.507-10.268-22.952c0,0-8.185-10.815-11.094-12.878c-3.142-2.612-8.01-4.101-12.919-1.09l-0.25,0.183c-14.102,9.526-19.212,15-17.82,23.169l0.725,3.286c7.151,22.503,20.962,46.496,41.557,67.86c20.37,21.098,42.408,33.734,64.128,42.486c5.643,1.872,11.494,0.258,17.495-4.858l0.1-0.075c4.601-4.293,8.243-8.885,10.96-13.801l0.025-0.1C321.727,286.524,320.835,281.599,316.943,278.246"/><path id="XMLID_3_" fill="#FFFFFF" d="M283.13,228.968c-0.859,0-1.576-0.69-1.617-1.572c-0.284-5.832-1.859-10.299-4.684-13.286c-2.809-2.962-7.018-4.617-12.502-4.917c-0.892-0.05-1.584-0.832-1.534-1.747c0.05-0.915,0.808-1.614,1.709-1.572c6.335,0.349,11.26,2.346,14.661,5.931c3.384,3.577,5.268,8.76,5.593,15.424c0.042,0.915-0.65,1.689-1.542,1.739H283.13"/><path id="XMLID_2_" fill="#FFFFFF" d="M299.2,234.473h-0.042c-0.892-0.025-1.6-0.782-1.584-1.697c0.25-11.198-3.026-20.665-9.743-28.152c-3.342-3.736-7.401-6.689-12.077-8.777c-4.684-2.088-10.144-3.378-16.211-3.835c-0.892-0.067-1.567-0.865-1.5-1.772c0.067-0.915,0.842-1.606,1.734-1.539c12.952,0.973,23.196,5.574,30.455,13.685c7.293,8.128,10.86,18.386,10.594,30.465C300.8,233.757,300.075,234.473,299.2,234.473"/><path id="XMLID_1_" fill="#FFFFFF" d="M315.655,241.048c-0.892,0-1.617-0.732-1.625-1.647c-0.075-9.899-1.567-18.851-4.451-26.621c-2.868-7.712-7.193-14.492-12.861-20.149c-5.676-5.649-12.127-9.958-19.179-12.812c-7.068-2.862-14.944-4.342-23.412-4.401c-0.892-0.008-1.617-0.757-1.609-1.672c0.008-0.915,0.733-1.647,1.625-1.647h0.008c17.778,0.133,32.856,6.239,44.833,18.161c6.009,5.99,10.594,13.169,13.627,21.347c3.017,8.128,4.584,17.478,4.667,27.769c0.008,0.915-0.717,1.664-1.609,1.672H315.655z"/></g></svg>
