<svg style="position: absolute; width: 0; height: 0; overflow: hidden;" version="1.1" xmlns="http://www.w3.org/2000/svg">
	<defs>
		<symbol id="ui-icon-ChevronDown" viewBox="0 0 32 32">
			<title>ChevronDown</title>
			<path d="M16 21.85l14.568-14.564 1.432 1.432-16 15.996-16-15.996 1.432-1.432 14.568 14.564z"></path>
		</symbol>
		<symbol id="ui-icon-ChevronDownSmall" viewBox="0 0 32 32">
			<title>ChevronDownSmall</title>
			<path d="M28.191 6.107l3.809 3.791-16 15.995-16-15.995 3.809-3.791 12.191 12.189 12.191-12.189z"></path>
		</symbol>
		<symbol id="ui-icon-ChevronLeft" viewBox="0 0 32 32">
			<title>ChevronLeft</title>
			<path d="M23.953 30.547l-1.406 1.406-15.969-15.953 15.969-15.953 1.406 1.406-14.531 14.547 14.531 14.547z"></path>
		</symbol>
		<symbol id="ui-icon-ChevronRight" viewBox="0 0 32 32">
			<title>ChevronRight</title>
			<path d="M8.047 30.547l14.531-14.547-14.531-14.547 1.406-1.406 15.969 15.953-15.969 15.953-1.406-1.406z"></path>
		</symbol>
		<symbol id="ui-icon-ChevronRightSmall" viewBox="0 0 32 32">
			<title>ChevronRightSmall</title>
			<path d="M9.934 0.109l15.889 15.891-15.891 15.891-3.766-3.782 12.111-12.109-12.109-12.109 3.766-3.782z"></path>
		</symbol>
		<symbol id="ui-icon-englishextra" viewBox="0 0 32 32">
			<title>englishextra</title>
			<path d="M21.87 30.143c-0.446 0-0.886-0.071-1.325-0.216-1.896-0.63-2.755-2.163-2.361-4.2 0.305-1.568 0.93-3.029 1.538-4.438 0.434-1.009 0.837-1.973 1.239-2.943 0.289-0.693 0.579-1.387 0.871-2.080 0.004-0.009 0.009-0.021 0.014-0.030-0.264 0.243-0.529 0.491-0.789 0.752-0.679 0.707-1.355 1.423-2.032 2.141-1.118 1.184-2.277 2.407-3.443 3.586-0.809 0.829-1.813 1.759-3.109 2.355-0.77 0.37-1.473 0.464-2.145 0.293-1.245-0.323-1.907-1.35-1.816-2.813 0.054-1.216 0.43-2.336 0.982-3.643 0.48-1.113 0.993-2.227 1.489-3.305 0.25-0.541 0.496-1.079 0.741-1.62l0.607-1.334c0.707-1.543 1.414-3.088 2.098-4.643 0.195-0.443 0.33-0.934 0.461-1.407 0.045-0.168 0.093-0.336 0.141-0.502-0.1 0.098-0.193 0.195-0.268 0.3-0.895 1.279-1.804 2.557-2.714 3.821-0.277 0.38-0.552 0.766-0.825 1.15-0.684 0.959-1.395 1.952-2.136 2.902-0.452 0.555-1.014 1.043-1.636 1.405-0.589 0.357-1.241 0.423-1.834 0.184-0.623-0.252-1.107-0.816-1.327-1.545-0.354-1.13 0.029-2.148 0.398-2.909 0.354-0.727 0.745-1.452 1.118-2.157 0.329-0.618 0.661-1.236 0.975-1.862 0.32-0.648 0.63-1.343 0.579-2.093-0.025-0.459-0.218-0.834-0.58-1.111-0.193-0.146-0.421-0.143-0.782 0.025-0.754 0.345-1.291 0.952-1.714 1.5-0.325 0.438-0.78 0.568-1.186 0.343-0.266-0.157-0.436-0.379-0.491-0.627-0.054-0.236-0.004-0.482 0.143-0.714 0.727-1.168 1.645-1.966 2.729-2.375 1.3-0.491 2.514-0.027 3.334 1.279 0.57 0.893 0.704 1.918 0.386 2.959-0.296 0.954-0.709 1.873-1.075 2.648-0.246 0.529-0.516 1.052-0.784 1.577-0.268 0.523-0.537 1.050-0.784 1.579-0.145 0.318-0.191 0.679-0.237 1.059l-0.016 0.114c-0.004 0.037 0.027 0.118 0.082 0.191 0.050-0.018 0.109-0.045 0.13-0.068 0.132-0.143 0.261-0.277 0.391-0.407 0.391-0.405 0.796-0.821 1.12-1.28 0.618-0.898 1.225-1.807 1.83-2.72 0.536-0.805 1.073-1.616 1.623-2.418 0.629-0.902 1.271-1.743 1.911-2.493 0.579-0.657 1.145-1.018 1.786-1.136 0.546-0.105 1.102 0.043 1.555 0.409 0.479 0.388 0.779 0.979 0.825 1.62 0.075 0.843-0.030 1.634-0.318 2.414l-0.179 0.479c-0.527 1.402-1.073 2.854-1.668 4.243-0.516 1.2-1.050 2.387-1.586 3.577-0.539 1.195-1.075 2.393-1.595 3.595-0.286 0.673-0.486 1.4-0.679 2.105-0.054 0.195-0.107 0.393-0.162 0.587-0.016 0.045-0.023 0.098-0.029 0.155 0.182-0.102 0.341-0.193 0.477-0.295 1.17-0.879 2.182-1.971 3.164-3.030 1.543-1.691 3.2-3.493 4.875-5.229 0.627-0.664 1.321-1.15 2.064-1.445 0.755-0.298 1.518-0.271 2.139 0.071 0.604 0.334 1.027 0.943 1.202 1.714 0.159 0.736 0.039 1.477-0.082 2.041-0.3 1.355-0.839 2.65-1.366 3.902-0.136 0.33-0.275 0.657-0.409 0.991-0.67 1.695-1.177 3.018-1.648 4.288-0.082 0.223-0.12 0.47-0.163 0.73-0.020 0.141-0.043 0.279-0.073 0.414l0.113 0.030c0.282-0.009 0.571-0.020 0.795-0.114 0.941-0.377 1.702-1.073 2.436-1.75 0.505-0.47 1.009-0.977 1.495-1.466l0.123-0.123c0.543-0.536 1.048-0.538 1.577-0.016 0.384 0.37 0.718 0.693 1.052 1.048 0.218 0.23 0.332 0.491 0.329 0.752-0.002 0.245-0.109 0.48-0.305 0.68l-0.198 0.195c-1.33 1.316-2.704 2.68-4.429 3.598-0.943 0.502-1.805 0.754-2.639 0.754z"></path>
		</symbol>
		<symbol id="ui-icon-GlobalNavButton" viewBox="0 0 32 32">
			<title>GlobalNavButton</title>
			<path d="M32 10h-32v-2h32v2zM32 26h-32v-2h32v2zM32 17.984h-32v-1.984h32v1.984z"></path>
		</symbol>
		<symbol id="ui-icon-More" viewBox="0 0 32 32">
			<title>More</title>
			<path d="M4 14c0.282 0 0.541 0.052 0.782 0.157 0.239 0.104 0.45 0.248 0.632 0.43s0.325 0.393 0.43 0.632 0.157 0.5 0.157 0.782-0.052 0.541-0.157 0.782-0.248 0.45-0.43 0.632-0.393 0.325-0.632 0.43c-0.239 0.104-0.5 0.157-0.782 0.157s-0.541-0.052-0.782-0.157-0.45-0.248-0.632-0.43-0.325-0.393-0.43-0.632-0.157-0.5-0.157-0.782 0.052-0.541 0.157-0.782 0.248-0.45 0.43-0.632 0.393-0.325 0.632-0.43 0.502-0.157 0.782-0.157zM16 14c0.282 0 0.541 0.052 0.782 0.157s0.45 0.248 0.632 0.43 0.325 0.393 0.43 0.632 0.157 0.5 0.157 0.782-0.052 0.541-0.157 0.782-0.248 0.45-0.43 0.632-0.393 0.325-0.632 0.43-0.5 0.157-0.782 0.157-0.541-0.052-0.782-0.157-0.45-0.248-0.632-0.43-0.325-0.393-0.43-0.632-0.157-0.5-0.157-0.782 0.052-0.541 0.157-0.782 0.248-0.45 0.43-0.632 0.393-0.325 0.632-0.43 0.502-0.157 0.782-0.157zM28 14c0.282 0 0.541 0.052 0.782 0.157s0.45 0.248 0.632 0.43 0.325 0.393 0.43 0.632 0.157 0.5 0.157 0.782-0.052 0.541-0.157 0.782-0.248 0.45-0.43 0.632-0.393 0.325-0.632 0.43-0.5 0.157-0.782 0.157-0.541-0.052-0.782-0.157-0.45-0.248-0.632-0.43-0.325-0.393-0.43-0.632-0.157-0.5-0.157-0.782 0.052-0.541 0.157-0.782 0.248-0.45 0.43-0.632 0.393-0.325 0.632-0.43 0.502-0.157 0.782-0.157z"></path>
		</symbol>
		<symbol id="ui-icon-odnoklassniki" viewBox="0 0 32 32">
			<title>odnoklassniki</title>
			<path d="M16 16.196c-2.238 0-4.148-0.791-5.732-2.375s-2.375-3.488-2.375-5.714c0-2.237 0.791-4.148 2.375-5.732s3.495-2.375 5.732-2.375 4.148 0.791 5.732 2.375 2.375 3.495 2.375 5.732c0 2.227-0.791 4.13-2.375 5.714s-3.495 2.375-5.732 2.375zM16 4.107c-1.095 0-2.032 0.389-2.813 1.17s-1.17 1.723-1.17 2.83c0 1.095 0.389 2.032 1.17 2.813s1.718 1.17 2.813 1.17 2.032-0.389 2.813-1.17c0.78-0.78 1.17-1.718 1.17-2.813 0-1.107-0.389-2.050-1.17-2.83s-1.718-1.17-2.813-1.17zM25.339 17.179c0.155 0.321 0.245 0.616 0.268 0.884s-0.004 0.509-0.080 0.723-0.236 0.443-0.473 0.688-0.491 0.464-0.759 0.661-0.634 0.443-1.098 0.741c-1.37 0.87-3.245 1.429-5.625 1.679l1.304 1.286 4.768 4.768c0.357 0.37 0.536 0.809 0.536 1.321s-0.179 0.946-0.536 1.304l-0.214 0.232c-0.37 0.357-0.809 0.536-1.321 0.536s-0.952-0.179-1.321-0.536c-0.798-0.809-2.387-2.405-4.768-4.786l-4.768 4.786c-0.37 0.357-0.809 0.536-1.321 0.536s-0.946-0.179-1.304-0.536l-0.214-0.232c-0.37-0.357-0.554-0.791-0.554-1.304s0.184-0.952 0.554-1.321l6.054-6.054c-2.416-0.25-4.304-0.809-5.661-1.679-0.464-0.298-0.83-0.545-1.098-0.741s-0.521-0.416-0.759-0.661-0.396-0.473-0.473-0.688-0.104-0.455-0.080-0.723 0.112-0.563 0.268-0.884c0.12-0.238 0.286-0.446 0.5-0.625s0.464-0.309 0.75-0.393 0.62-0.071 1 0.036c0.38 0.107 0.768 0.316 1.161 0.625 0.059 0.048 0.148 0.113 0.268 0.196s0.375 0.229 0.768 0.438 0.804 0.389 1.232 0.545 0.977 0.298 1.643 0.429 1.339 0.196 2.018 0.196c1.084 0 2.12-0.152 3.107-0.455s1.702-0.604 2.143-0.902l0.679-0.446c0.393-0.309 0.78-0.518 1.161-0.625s0.714-0.12 1-0.036 0.536 0.214 0.75 0.393 0.38 0.387 0.5 0.625z"></path>
		</symbol>
		<symbol id="ui-icon-Up" viewBox="0 0 32 32">
			<title>Up</title>
			<path d="M30.704 14.743l-1.407 1.407-12.296-12.296v28.093h-2v-28.093l-12.296 12.296-1.407-1.407 14.704-14.702 14.704 14.702z"></path>
		</symbol>
		<symbol id="ui-icon-vkontakte" viewBox="0 0 32 32">
			<title>vkontakte</title>
			<path d="M27 21.436c0 1.379-0.259 2.614-0.766 3.675-0.518 1.050-1.207 1.925-2.093 2.614-1.046 0.82-2.179 1.421-3.407 1.75-1.252 0.35-2.804 0.525-4.734 0.525h-11v-28h9.716c2.016 0 3.559 0.077 4.584 0.241 1.046 0.154 2.016 0.482 2.934 0.984 0.993 0.536 1.725 1.27 2.2 2.166s0.734 1.936 0.734 3.118c0 1.368-0.334 2.58-1.014 3.643-0.657 1.061-1.596 1.848-2.782 2.352v0.154c1.704 0.371 3.041 1.105 4.066 2.22 1.045 1.125 1.541 2.655 1.563 4.559v0zM18.146 9.92c0-0.448-0.107-0.92-0.334-1.379-0.216-0.47-0.571-0.82-1.068-1.029-0.464-0.207-0.993-0.318-1.618-0.339s-1.543-0.032-2.782-0.032h-0.475v5.939h0.884c1.175 0 1.995-0.021 2.48-0.032 0.475-0.032 0.948-0.154 1.466-0.393 0.55-0.262 0.938-0.613 1.132-1.082 0.216-0.47 0.313-1.007 0.313-1.62v0l0.002-0.034zM19.904 21.316c0-0.875-0.163-1.532-0.518-2.034-0.345-0.482-0.863-0.864-1.543-1.105-0.421-0.164-0.993-0.262-1.725-0.284s-1.725-0.032-2.955-0.032h-1.262v7h0.368c1.802 0 3.041-0.021 3.721-0.032 0.702-0.032 1.391-0.186 2.104-0.504 0.625-0.284 1.079-0.668 1.38-1.214 0.291-0.527 0.43-1.116 0.43-1.795z"></path>
		</symbol>
	</defs>
</svg>
