<svg version="1.1" xmlns="http://www.w3.org/2000/svg" x="0px" y="0px" viewBox="0 0 512 512" enable-background="new 0 0 512 512"><rect fill="#ED812B" width="512" height="512"/><g id="Page-1"><path id="odnoklassniki" fill="#FFFFFF" d="M256,166.8c14.8,0,27,12.3,27,27.3c0,15-12,27.3-27,27.3c-14.8,0-27-12.3-27-27.3S241.2,166.8,256,166.8L256,166.8L256,166.8z M256,260.2c35.8,0,65-29.7,65-66.1c0-36.5-29.2-66.1-65-66.1s-65,29.7-65,66.1C191,230.6,220.2,260.2,256,260.2L256,260.2z M282.3,314.2c13.2-3.1,26-8.4,37.8-15.9c8.8-5.6,11.5-17.6,5.9-26.6c-5.6-9.1-17.3-11.8-26.3-6.1c-26.6,17.1-60.9,17.1-87.6,0c-9-5.6-20.7-2.9-26.3,6.1c-5.6,9.1-2.9,21,5.9,26.6c11.7,7.5,24.4,12.8,37.8,15.9L193.4,351c-7.5,7.5-7.5,19.8,0,27.3c3.7,3.8,8.7,5.6,13.4,5.6c4.9,0,9.7-1.9,13.4-5.6l35.6-36.4l35.8,36.4c7.5,7.5,19.5,7.5,27,0c7.5-7.5,7.5-19.8,0-27.3L282.3,314.2L282.3,314.2z"/></g></svg>
