<svg version="1.1" xmlns="http://www.w3.org/2000/svg" x="0px" y="0px" viewBox="0 0 512 512" enable-background="new 0 0 512 512"><rect fill="#FFFFFF" width="512" height="512"/><g><path fill="#363636" d="M0,0h20.5v20.5H0V0z M20.5,0H41v20.5H20.5V0z M41,0h20.5v20.5H41V0z M61.4,0h20.5v20.5H61.4V0z M81.9,0h20.5v20.5H81.9V0z M102.4,0h20.5v20.5h-20.5V0z M122.9,0h20.5v20.5h-20.5C122.9,20.5,122.9,0,122.9,0z M204.8,0h20.5v20.5h-20.5V0z M245.8,0h20.5v20.5h-20.5L245.8,0L245.8,0z M286.7,0h20.5v20.5h-20.5V0z M327.7,0h20.5v20.5h-20.5V0z M368.6,0h20.5v20.5h-20.5V0z M389.1,0h20.5v20.5h-20.5V0z M409.6,0h20.5v20.5h-20.5V0z M430.1,0h20.5v20.5h-20.5V0z M450.6,0H471v20.5h-20.5V0H450.6z M471,0h20.5v20.5H471V0z M491.5,0H512v20.5h-20.5V0z M0,20.5h20.5V41H0V20.5z M122.9,20.5h20.5V41h-20.5C122.9,41,122.9,20.5,122.9,20.5z M163.8,20.5h20.5V41h-20.5V20.5z M204.8,20.5h20.5V41h-20.5V20.5z M266.2,20.5h20.5V41h-20.5V20.5z M307.2,20.5h20.5V41h-20.5V20.5z M368.6,20.5h20.5V41h-20.5V20.5z M491.5,20.5H512V41h-20.5V20.5z M0,41h20.5v20.5H0V41z M41,41h20.5v20.5H41V41z M61.4,41h20.5v20.5H61.4V41z M81.9,41h20.5v20.5H81.9V41z M122.9,41h20.5v20.5h-20.5C122.9,61.5,122.9,41,122.9,41z M245.8,41h20.5v20.5h-20.5L245.8,41L245.8,41z M307.2,41h20.5v20.5h-20.5V41z M327.7,41h20.5v20.5h-20.5V41z M368.6,41h20.5v20.5h-20.5V41z M409.6,41h20.5v20.5h-20.5V41z M430.1,41h20.5v20.5h-20.5V41z M450.6,41H471v20.5h-20.5V41H450.6z M491.5,41H512v20.5h-20.5V41z M0,61.4h20.5v20.5H0V61.4z M41,61.4h20.5v20.5H41V61.4z M61.4,61.4h20.5v20.5H61.4V61.4z M81.9,61.4h20.5v20.5H81.9V61.4z M122.9,61.4h20.5v20.5h-20.5C122.9,81.9,122.9,61.4,122.9,61.4z M163.8,61.4h20.5v20.5h-20.5V61.4z M184.3,61.4h20.5v20.5h-20.5V61.4z M204.8,61.4h20.5v20.5h-20.5V61.4z M245.8,61.4h20.5v20.5h-20.5L245.8,61.4L245.8,61.4z M266.2,61.4h20.5v20.5h-20.5V61.4z M286.7,61.4h20.5v20.5h-20.5V61.4z M307.2,61.4h20.5v20.5h-20.5V61.4z M327.7,61.4h20.5v20.5h-20.5V61.4z M368.6,61.4h20.5v20.5h-20.5V61.4z M409.6,61.4h20.5v20.5h-20.5V61.4z M430.1,61.4h20.5v20.5h-20.5V61.4z M450.6,61.4H471v20.5h-20.5V61.4H450.6z M491.5,61.4H512v20.5h-20.5V61.4z M0,81.9h20.5v20.5H0V81.9z M41,81.9h20.5v20.5H41V81.9z M61.4,81.9h20.5v20.5H61.4V81.9z M81.9,81.9h20.5v20.5H81.9V81.9z M122.9,81.9h20.5v20.5h-20.5C122.9,102.4,122.9,81.9,122.9,81.9z M184.3,81.9h20.5v20.5h-20.5V81.9z M327.7,81.9h20.5v20.5h-20.5V81.9z M368.6,81.9h20.5v20.5h-20.5V81.9z M409.6,81.9h20.5v20.5h-20.5V81.9z M430.1,81.9h20.5v20.5h-20.5V81.9z M450.6,81.9H471v20.5h-20.5V81.9H450.6z M491.5,81.9H512v20.5h-20.5V81.9z M0,102.4h20.5v20.5H0V102.4z M122.9,102.4h20.5v20.5h-20.5C122.9,122.9,122.9,102.4,122.9,102.4z M163.8,102.4h20.5v20.5h-20.5V102.4z M184.3,102.4h20.5v20.5h-20.5V102.4z M225.3,102.4h20.5v20.5h-20.5V102.4z M245.8,102.4h20.5v20.5h-20.5L245.8,102.4L245.8,102.4z M307.2,102.4h20.5v20.5h-20.5V102.4z M368.6,102.4h20.5v20.5h-20.5V102.4z M491.5,102.4H512v20.5h-20.5V102.4z M0,122.9h20.5v20.5H0V122.9z M20.5,122.9H41v20.5H20.5V122.9z M41,122.9h20.5v20.5H41V122.9z M61.4,122.9h20.5v20.5H61.4V122.9z M81.9,122.9h20.5v20.5H81.9V122.9z M102.4,122.9h20.5v20.5h-20.5V122.9z M122.9,122.9h20.5v20.5h-20.5C122.9,143.4,122.9,122.9,122.9,122.9z M163.8,122.9h20.5v20.5h-20.5V122.9z M204.8,122.9h20.5v20.5h-20.5V122.9z M245.8,122.9h20.5v20.5h-20.5L245.8,122.9L245.8,122.9z M286.7,122.9h20.5v20.5h-20.5V122.9z M327.7,122.9h20.5v20.5h-20.5V122.9z M368.6,122.9h20.5v20.5h-20.5V122.9z M389.1,122.9h20.5v20.5h-20.5V122.9z M409.6,122.9h20.5v20.5h-20.5V122.9z M430.1,122.9h20.5v20.5h-20.5V122.9z M450.6,122.9H471v20.5h-20.5v-20.5H450.6z M471,122.9h20.5v20.5H471V122.9z M491.5,122.9H512v20.5h-20.5V122.9z M184.3,143.4h20.5v20.5h-20.5V143.4z M204.8,143.4h20.5v20.5h-20.5V143.4z M225.3,143.4h20.5v20.5h-20.5V143.4z M286.7,143.4h20.5v20.5h-20.5V143.4z M307.2,143.4h20.5v20.5h-20.5V143.4z M0,163.8h20.5v20.5H0V163.8z M20.5,163.8H41v20.5H20.5V163.8z M41,163.8h20.5v20.5H41V163.8z M61.4,163.8h20.5v20.5H61.4V163.8z M81.9,163.8h20.5v20.5H81.9V163.8z M122.9,163.8h20.5v20.5h-20.5C122.9,184.3,122.9,163.8,122.9,163.8z M143.4,163.8h20.5v20.5h-20.5V163.8z M163.8,163.8h20.5v20.5h-20.5V163.8z M184.3,163.8h20.5v20.5h-20.5V163.8z M225.3,163.8h20.5v20.5h-20.5V163.8z M245.8,163.8h20.5v20.5h-20.5L245.8,163.8L245.8,163.8z M286.7,163.8h20.5v20.5h-20.5V163.8z M327.7,163.8h20.5v20.5h-20.5V163.8z M348.2,163.8h20.5v20.5h-20.5V163.8z M389.1,163.8h20.5v20.5h-20.5V163.8z M430.1,163.8h20.5v20.5h-20.5V163.8z M471,163.8h20.5v20.5H471V163.8z M0,184.3h20.5v20.5H0V184.3z M20.5,184.3H41v20.5H20.5V184.3z M41,184.3h20.5v20.5H41V184.3z M81.9,184.3h20.5v20.5H81.9V184.3z M102.4,184.3h20.5v20.5h-20.5V184.3z M204.8,184.3h20.5v20.5h-20.5V184.3z M245.8,184.3h20.5v20.5h-20.5L245.8,184.3L245.8,184.3z M327.7,184.3h20.5v20.5h-20.5V184.3z M389.1,184.3h20.5v20.5h-20.5V184.3z M430.1,184.3h20.5v20.5h-20.5V184.3z M450.6,184.3H471v20.5h-20.5v-20.5H450.6z M41,204.8h20.5v20.5H41V204.8z M122.9,204.8h20.5v20.5h-20.5C122.9,225.3,122.9,204.8,122.9,204.8z M143.4,204.8h20.5v20.5h-20.5V204.8z M163.8,204.8h20.5v20.5h-20.5V204.8z M204.8,204.8h20.5v20.5h-20.5V204.8z M307.2,204.8h20.5v20.5h-20.5V204.8z M327.7,204.8h20.5v20.5h-20.5V204.8z M348.2,204.8h20.5v20.5h-20.5V204.8z M368.6,204.8h20.5v20.5h-20.5V204.8z M409.6,204.8h20.5v20.5h-20.5V204.8z M471,204.8h20.5v20.5H471V204.8z M491.5,204.8H512v20.5h-20.5V204.8z M41,225.3h20.5v20.5H41V225.3z M81.9,225.3h20.5v20.5H81.9V225.3z M143.4,225.3h20.5v20.5h-20.5V225.3z M307.2,225.3h20.5v20.5h-20.5V225.3z M327.7,225.3h20.5v20.5h-20.5V225.3z M348.2,225.3h20.5v20.5h-20.5V225.3z M389.1,225.3h20.5v20.5h-20.5V225.3z M409.6,225.3h20.5v20.5h-20.5V225.3z M471,225.3h20.5v20.5H471V225.3z M491.5,225.3H512v20.5h-20.5V225.3z M41,245.8h20.5v20.5H41V245.8z M61.4,245.8h20.5v20.5H61.4V245.8z M81.9,245.8h20.5v20.5H81.9V245.8z M122.9,245.8h20.5v20.5h-20.5C122.9,266.3,122.9,245.8,122.9,245.8z M184.3,245.8h20.5v20.5h-20.5V245.8z M204.8,245.8h20.5v20.5h-20.5V245.8z M266.2,245.8h20.5v20.5h-20.5V245.8z M286.7,245.8h20.5v20.5h-20.5V245.8z M307.2,245.8h20.5v20.5h-20.5V245.8z M348.2,245.8h20.5v20.5h-20.5V245.8z M368.6,245.8h20.5v20.5h-20.5V245.8z M409.6,245.8h20.5v20.5h-20.5V245.8z M430.1,245.8h20.5v20.5h-20.5V245.8z M450.6,245.8H471v20.5h-20.5v-20.5H450.6z M491.5,245.8H512v20.5h-20.5V245.8z M0,266.2h20.5v20.5H0V266.2z M61.4,266.2h20.5v20.5H61.4V266.2z M102.4,266.2h20.5v20.5h-20.5V266.2z M143.4,266.2h20.5v20.5h-20.5V266.2z M163.8,266.2h20.5v20.5h-20.5V266.2z M225.3,266.2h20.5v20.5h-20.5V266.2z M266.2,266.2h20.5v20.5h-20.5V266.2z M327.7,266.2h20.5v20.5h-20.5V266.2z M389.1,266.2h20.5v20.5h-20.5V266.2z M450.6,266.2H471v20.5h-20.5v-20.5H450.6z M0,286.7h20.5v20.5H0V286.7z M41,286.7h20.5v20.5H41V286.7z M81.9,286.7h20.5v20.5H81.9V286.7z M122.9,286.7h20.5v20.5h-20.5C122.9,307.2,122.9,286.7,122.9,286.7z M143.4,286.7h20.5v20.5h-20.5V286.7z M163.8,286.7h20.5v20.5h-20.5V286.7z M184.3,286.7h20.5v20.5h-20.5V286.7z M204.8,286.7h20.5v20.5h-20.5V286.7z M245.8,286.7h20.5v20.5h-20.5L245.8,286.7L245.8,286.7z M286.7,286.7h20.5v20.5h-20.5V286.7z M307.2,286.7h20.5v20.5h-20.5V286.7z M348.2,286.7h20.5v20.5h-20.5V286.7z M389.1,286.7h20.5v20.5h-20.5V286.7z M430.1,286.7h20.5v20.5h-20.5V286.7z M471,286.7h20.5v20.5H471V286.7z M491.5,286.7H512v20.5h-20.5V286.7z M0,307.2h20.5v20.5H0V307.2z M61.4,307.2h20.5v20.5H61.4V307.2z M81.9,307.2h20.5v20.5H81.9V307.2z M184.3,307.2h20.5v20.5h-20.5V307.2z M204.8,307.2h20.5v20.5h-20.5V307.2z M225.3,307.2h20.5v20.5h-20.5V307.2z M245.8,307.2h20.5v20.5h-20.5L245.8,307.2L245.8,307.2z M286.7,307.2h20.5v20.5h-20.5V307.2z M307.2,307.2h20.5v20.5h-20.5V307.2z M368.6,307.2h20.5v20.5h-20.5V307.2z M389.1,307.2h20.5v20.5h-20.5V307.2z M471,307.2h20.5v20.5H471V307.2z M491.5,307.2H512v20.5h-20.5V307.2z M0,327.7h20.5v20.5H0V327.7z M81.9,327.7h20.5v20.5H81.9V327.7z M122.9,327.7h20.5v20.5h-20.5C122.9,348.2,122.9,327.7,122.9,327.7z M184.3,327.7h20.5v20.5h-20.5V327.7z M204.8,327.7h20.5v20.5h-20.5V327.7z M266.2,327.7h20.5v20.5h-20.5V327.7z M286.7,327.7h20.5v20.5h-20.5V327.7z M327.7,327.7h20.5v20.5h-20.5V327.7z M348.2,327.7h20.5v20.5h-20.5V327.7z M368.6,327.7h20.5v20.5h-20.5V327.7z M389.1,327.7h20.5v20.5h-20.5V327.7z M409.6,327.7h20.5v20.5h-20.5V327.7z M450.6,327.7H471v20.5h-20.5v-20.5H450.6z M471,327.7h20.5v20.5H471V327.7z M163.8,348.2h20.5v20.5h-20.5V348.2z M225.3,348.2h20.5v20.5h-20.5V348.2z M307.2,348.2h20.5v20.5h-20.5V348.2z M327.7,348.2h20.5v20.5h-20.5V348.2z M409.6,348.2h20.5v20.5h-20.5V348.2z M0,368.6h20.5v20.5H0V368.6z M20.5,368.6H41v20.5H20.5V368.6z M41,368.6h20.5v20.5H41V368.6z M61.4,368.6h20.5v20.5H61.4V368.6z M81.9,368.6h20.5v20.5H81.9V368.6z M102.4,368.6h20.5v20.5h-20.5V368.6z M122.9,368.6h20.5v20.5h-20.5C122.9,389.1,122.9,368.6,122.9,368.6z M163.8,368.6h20.5v20.5h-20.5V368.6z M184.3,368.6h20.5v20.5h-20.5V368.6z M204.8,368.6h20.5v20.5h-20.5V368.6z M245.8,368.6h20.5v20.5h-20.5L245.8,368.6L245.8,368.6z M327.7,368.6h20.5v20.5h-20.5V368.6z M368.6,368.6h20.5v20.5h-20.5V368.6z M409.6,368.6h20.5v20.5h-20.5V368.6z M430.1,368.6h20.5v20.5h-20.5V368.6z M471,368.6h20.5v20.5H471V368.6z M491.5,368.6H512v20.5h-20.5V368.6z M0,389.1h20.5v20.5H0V389.1z M122.9,389.1h20.5v20.5h-20.5C122.9,409.6,122.9,389.1,122.9,389.1z M225.3,389.1h20.5v20.5h-20.5V389.1z M286.7,389.1h20.5v20.5h-20.5V389.1z M327.7,389.1h20.5v20.5h-20.5V389.1z M409.6,389.1h20.5v20.5h-20.5V389.1z M471,389.1h20.5v20.5H471V389.1z M0,409.6h20.5v20.5H0V409.6z M41,409.6h20.5v20.5H41V409.6z M61.4,409.6h20.5v20.5H61.4V409.6z M81.9,409.6h20.5v20.5H81.9V409.6z M122.9,409.6h20.5v20.5h-20.5C122.9,430.1,122.9,409.6,122.9,409.6z M163.8,409.6h20.5v20.5h-20.5V409.6z M184.3,409.6h20.5v20.5h-20.5V409.6z M204.8,409.6h20.5v20.5h-20.5V409.6z M225.3,409.6h20.5v20.5h-20.5V409.6z M245.8,409.6h20.5v20.5h-20.5L245.8,409.6L245.8,409.6z M266.2,409.6h20.5v20.5h-20.5V409.6z M286.7,409.6h20.5v20.5h-20.5V409.6z M307.2,409.6h20.5v20.5h-20.5V409.6z M327.7,409.6h20.5v20.5h-20.5V409.6z M348.2,409.6h20.5v20.5h-20.5V409.6z M368.6,409.6h20.5v20.5h-20.5V409.6z M389.1,409.6h20.5v20.5h-20.5V409.6z M409.6,409.6h20.5v20.5h-20.5V409.6z M430.1,409.6h20.5v20.5h-20.5V409.6z M450.6,409.6H471v20.5h-20.5v-20.5H450.6z M0,430.1h20.5v20.5H0V430.1z M41,430.1h20.5v20.5H41V430.1z M61.4,430.1h20.5v20.5H61.4V430.1z M81.9,430.1h20.5v20.5H81.9V430.1z M122.9,430.1h20.5v20.5h-20.5C122.9,450.6,122.9,430.1,122.9,430.1z M163.8,430.1h20.5v20.5h-20.5V430.1z M184.3,430.1h20.5v20.5h-20.5V430.1z M204.8,430.1h20.5v20.5h-20.5V430.1z M225.3,430.1h20.5v20.5h-20.5V430.1z M245.8,430.1h20.5v20.5h-20.5L245.8,430.1L245.8,430.1z M266.2,430.1h20.5v20.5h-20.5V430.1z M327.7,430.1h20.5v20.5h-20.5V430.1z M348.2,430.1h20.5v20.5h-20.5V430.1z M368.6,430.1h20.5v20.5h-20.5V430.1z M409.6,430.1h20.5v20.5h-20.5V430.1z M450.6,430.1H471v20.5h-20.5v-20.5H450.6z M471,430.1h20.5v20.5H471V430.1z M491.5,430.1H512v20.5h-20.5V430.1z M0,450.6h20.5V471H0V450.6z M41,450.6h20.5V471H41V450.6z M61.4,450.6h20.5V471H61.4V450.6z M81.9,450.6h20.5V471H81.9V450.6z M122.9,450.6h20.5V471h-20.5C122.9,471,122.9,450.6,122.9,450.6z M163.8,450.6h20.5V471h-20.5V450.6z M184.3,450.6h20.5V471h-20.5V450.6z M204.8,450.6h20.5V471h-20.5V450.6z M245.8,450.6h20.5V471h-20.5L245.8,450.6L245.8,450.6z M307.2,450.6h20.5V471h-20.5V450.6z M389.1,450.6h20.5V471h-20.5V450.6z M450.6,450.6H471V471h-20.5v-20.4H450.6z M491.5,450.6H512V471h-20.5V450.6z M0,471h20.5v20.5H0V471z M122.9,471h20.5v20.5h-20.5C122.9,491.5,122.9,471,122.9,471z M163.8,471h20.5v20.5h-20.5V471z M286.7,471h20.5v20.5h-20.5V471z M327.7,471h20.5v20.5h-20.5V471z M409.6,471h20.5v20.5h-20.5V471z M430.1,471h20.5v20.5h-20.5V471z M491.5,471H512v20.5h-20.5V471z M0,491.5h20.5V512H0V491.5z M20.5,491.5H41V512H20.5V491.5z M41,491.5h20.5V512H41V491.5z M61.4,491.5h20.5V512H61.4V491.5z M81.9,491.5h20.5V512H81.9V491.5z M102.4,491.5h20.5V512h-20.5V491.5z M122.9,491.5h20.5V512h-20.5C122.9,512,122.9,491.5,122.9,491.5z M163.8,491.5h20.5V512h-20.5V491.5z M225.3,491.5h20.5V512h-20.5V491.5z M245.8,491.5h20.5V512h-20.5L245.8,491.5L245.8,491.5z M266.2,491.5h20.5V512h-20.5V491.5z M286.7,491.5h20.5V512h-20.5V491.5z M348.2,491.5h20.5V512h-20.5V491.5z M368.6,491.5h20.5V512h-20.5V491.5z M409.6,491.5h20.5V512h-20.5V491.5z M450.6,491.5H471V512h-20.5v-20.5H450.6z M471,491.5h20.5V512H471V491.5z M491.5,491.5H512V512h-20.5V491.5z"/></g></svg>
