<svg version="1.1" xmlns="http://www.w3.org/2000/svg" x="0px" y="0px" viewBox="0 0 1792 1792" enable-background="new 0 0 1792 1792"><path d="M1224.7,1688c-25,0-49.6-4-74.2-12.1c-106.2-35.3-154.3-121.1-132.2-235.2c17.1-87.8,52.1-169.6,86.1-248.5c24.3-56.5,46.9-110.5,69.4-164.8c16.2-38.8,32.4-77.7,48.8-116.5c0.2-0.5,0.5-1.2,0.8-1.7c-14.8,13.6-29.6,27.5-44.2,42.1c-38,39.6-75.9,79.7-113.8,119.9c-62.6,66.3-127.5,134.8-192.8,200.8c-45.3,46.4-101.5,98.5-174.1,131.9c-43.1,20.7-82.5,26-120.1,16.4c-69.7-18.1-106.8-75.6-101.7-157.5c3-68.1,24.1-130.8,55-204c26.9-62.3,55.6-124.7,83.4-185.1c14-30.3,27.8-60.4,41.5-90.7l34-74.7c39.6-86.4,79.2-172.9,117.5-260c10.9-24.8,18.5-52.3,25.8-78.8c2.5-9.4,5.2-18.8,7.9-28.1c-5.6,5.5-10.8,10.9-15,16.8c-50.1,71.6-101,143.2-152,214c-15.5,21.3-30.9,42.9-46.2,64.4c-38.3,53.7-78.1,109.3-119.6,162.5c-25.3,31.1-56.8,58.4-91.6,78.7c-33,20-69.5,23.7-102.7,10.3c-34.9-14.1-62-45.7-74.3-86.5c-19.8-63.3,1.6-120.3,22.3-162.9c19.8-40.7,41.7-81.3,62.6-120.8c18.4-34.6,37-69.2,54.6-104.3c17.9-36.3,35.3-75.2,32.4-117.2c-1.4-25.7-12.2-46.7-32.5-62.2c-10.8-8.2-23.6-8-43.8,1.4c-42.2,19.3-72.3,53.3-96,84c-18.2,24.5-43.7,31.8-66.4,19.2c-14.9-8.8-24.4-21.2-27.5-35.1c-3-13.2-0.2-27,8-40c40.7-65.4,92.1-110.1,152.8-133c72.8-27.5,140.8-1.5,186.7,71.6c31.9,50,39.4,107.4,21.6,165.7c-16.6,53.4-39.7,104.9-60.2,148.3c-13.8,29.6-28.9,58.9-43.9,88.3c-15,29.3-30.1,58.8-43.9,88.4c-8.1,17.8-10.7,38-13.3,59.3l-0.9,6.4c-0.2,2.1,1.5,6.6,4.6,10.7c2.8-1,6.1-2.5,7.3-3.8c7.4-8,14.6-15.5,21.9-22.8c21.9-22.7,44.6-46,62.7-71.7c34.6-50.3,68.6-101.2,102.5-152.3c30-45.1,60.1-90.5,90.9-135.4c35.2-50.5,71.2-97.6,107-139.6c32.4-36.8,64.1-57,100-63.6c30.6-5.9,61.7,2.4,87.1,22.9c26.8,21.7,43.6,54.8,46.2,90.7c4.2,47.2-1.7,91.5-17.8,135.2l-10,26.8c-29.5,78.5-60.1,159.8-93.4,237.6c-28.9,67.2-58.8,133.7-88.8,200.3c-30.2,66.9-60.2,134-89.3,201.3c-16,37.7-27.2,78.4-38,117.9c-3,10.9-6,22-9.1,32.9c-0.9,2.5-1.3,5.5-1.6,8.7c10.2-5.7,19.1-10.8,26.7-16.5c65.5-49.2,122.2-110.4,177.2-169.7c86.4-94.7,179.2-195.6,273-292.8c35.1-37.2,74-64.4,115.6-80.9c42.3-16.7,85-15.2,119.8,4c33.8,18.7,57.5,52.8,67.3,96c8.9,41.2,2.2,82.7-4.6,114.3c-16.8,75.9-47,148.4-76.5,218.5c-7.6,18.5-15.4,36.8-22.9,55.5c-37.5,94.9-65.9,169-92.3,240.1c-4.6,12.5-6.7,26.3-9.1,40.9c-1.1,7.9-2.4,15.6-4.1,23.2l6.3,1.7c15.8-0.5,32-1.1,44.5-6.4c52.7-21.1,95.3-60.1,136.4-98c28.3-26.3,56.5-54.7,83.7-82.1l6.9-6.9c30.4-30,58.7-30.1,88.3-0.9c21.5,20.7,40.2,38.8,58.9,58.7c12.2,12.9,18.6,27.5,18.4,42.1c-0.1,13.7-6.1,26.9-17.1,38.1l-11.1,10.9c-74.5,73.7-151.4,150.1-248,201.5C1319.7,1673.9,1271.4,1688,1224.7,1688z"/></svg>
