<svg class="social-icon" viewBox="0 0 1792 1792"><path d="M1117.7,909.2c0,107.9-22.6,203.9-67.7,288.2s-109.4,150.1-192.9,197.6s-179.1,71.2-287,71.2c-77.3,0-151.1-15-221.7-45.1s-131.2-70.5-182-121.3c-50.8-50.8-91.3-111.5-121.3-182C15,1047.1,0,973.3,0,896s15-151.1,45.1-221.7s70.5-131.2,121.3-182s111.5-91.3,182-121.3s144.4-45.1,221.7-45.1c148.3,0,275.6,49.8,381.9,149.3L797.2,623.8c-60.7-58.6-136.4-87.9-227.1-87.9c-63.8,0-122.8,16.1-176.9,48.2s-97.1,75.8-128.7,131.1S217,830.7,217,896s15.8,125.6,47.4,180.8c31.6,55.2,74.5,98.9,128.7,131.1s113.2,48.2,176.9,48.2c43,0,82.6-6,118.6-17.9c36-11.9,65.7-26.8,89.1-44.7s43.7-38.2,61.1-61.1s30.1-44.3,38.1-64.6c8-20.2,13.6-39.4,16.7-57.6H570.1v-196h538.2C1114.6,847,1117.7,878.6,1117.7,909.2z M1792,814.3v163.3h-162.6v162.6h-163.3V977.7h-162.6V814.3h162.6V651.8h163.3v162.6H1792z"/></svg>