<svg version="1.1" xmlns="http://www.w3.org/2000/svg" xx="0px" y="0px" viewBox="0 0 1792 1792" style="enable-background:new 0 0 1792 1792;"><path d="M224,784c15.8,0,30.3,2.9,43.8,8.8c13.4,5.8,25.2,13.9,35.4,24.1s18.2,22,24.1,35.4s8.8,28,8.8,43.8s-2.9,30.3-8.8,43.8s-13.9,25.2-24.1,35.4s-22,18.2-35.4,24.1c-13.4,5.8-28,8.8-43.8,8.8s-30.3-2.9-43.8-8.8s-25.2-13.9-35.4-24.1s-18.2-22-24.1-35.4s-8.8-28-8.8-43.8s2.9-30.3,8.8-43.8s13.9-25.2,24.1-35.4s22-18.2,35.4-24.1S208.3,784,224,784z M896,784c15.8,0,30.3,2.9,43.8,8.8s25.2,13.9,35.4,24.1s18.2,22,24.1,35.4s8.8,28,8.8,43.8s-2.9,30.3-8.8,43.8s-13.9,25.2-24.1,35.4s-22,18.2-35.4,24.1s-28,8.8-43.8,8.8s-30.3-2.9-43.8-8.8s-25.2-13.9-35.4-24.1s-18.2-22-24.1-35.4s-8.8-28-8.8-43.8s2.9-30.3,8.8-43.8s13.9-25.2,24.1-35.4s22-18.2,35.4-24.1S880.3,784,896,784z M1568,784c15.8,0,30.3,2.9,43.8,8.8s25.2,13.9,35.4,24.1s18.2,22,24.1,35.4s8.8,28,8.8,43.8s-2.9,30.3-8.8,43.8s-13.9,25.2-24.1,35.4s-22,18.2-35.4,24.1s-28,8.8-43.8,8.8s-30.3-2.9-43.8-8.8s-25.2-13.9-35.4-24.1s-18.2-22-24.1-35.4s-8.8-28-8.8-43.8s2.9-30.3,8.8-43.8s13.9-25.2,24.1-35.4s22-18.2,35.4-24.1S1552.3,784,1568,784z"/></svg>