<svg version="1.1" xmlns="http://www.w3.org/2000/svg" xmlns:xlink="http://www.w3.org/1999/xlink" x="0px" y="0px" viewBox="0 0 1792 1792" style="enable-background:new 0 0 1792 1792;" xml:space="preserve"><path d="M896,907c-125.3,0-232.3-44.3-321-133S442,578.7,442,454c0-125.3,44.3-232.3,133-321S770.7,0,896,0s232.3,44.3,321,133s133,195.7,133,321c0,124.7-44.3,231.3-133,320S1021.3,907,896,907z M896,230c-61.3,0-113.8,21.8-157.5,65.5S673,392,673,454c0,61.3,21.8,113.8,65.5,157.5S834.7,677,896,677s113.8-21.8,157.5-65.5c43.7-43.7,65.5-96.2,65.5-157.5c0-62-21.8-114.8-65.5-158.5C1009.8,251.8,957.3,230,896,230z M1419,962c8.7,18,13.7,34.5,15,49.5s-0.2,28.5-4.5,40.5s-13.2,24.8-26.5,38.5s-27.5,26-42.5,37s-35.5,24.8-61.5,41.5c-76.7,48.7-181.7,80-315,94l73,72l267,267c20,20.7,30,45.3,30,74s-10,53-30,73l-12,13c-20.7,20-45.3,30-74,30s-53.3-10-74-30c-44.7-45.3-133.7-134.7-267-268l-267,268c-20.7,20-45.3,30-74,30s-53-10-73-30l-12-13c-20.7-20-31-44.3-31-73s10.3-53.3,31-74l267-267l72-72c-135.3-14-241-45.3-317-94c-26-16.7-46.5-30.5-61.5-41.5s-29.2-23.3-42.5-37s-22.2-26.5-26.5-38.5s-5.8-25.5-4.5-40.5s6.3-31.5,15-49.5c6.7-13.3,16-25,28-35s26-17.3,42-22s34.7-4,56,2c21.3,6,43,17.7,65,35c3.3,2.7,8.3,6.3,15,11s21,12.8,43,24.5s45,21.8,69,30.5s54.7,16.7,92,24s75,11,113,11c60.7,0,118.7-8.5,174-25.5c55.3-17,95.3-33.8,120-50.5l38-25c22-17.3,43.7-29,65-35s40-6.7,56-2s30,12,42,22S1412.3,948.7,1419,962z"/></svg>