<svg version="1.1" xmlns="http://www.w3.org/2000/svg" x="0px" y="0px" width="640px" height="480px" viewBox="0 0 640 480" enable-background="new 0 0 640 480"><rect x="0" fill="#2D7C9A" width="640" height="480"/><g><g><path fill="#FFFFFF" d="M223,321.7c0,0.7-0.2,1.4-0.6,2c-0.4,0.6-0.9,1-1.6,1.3c-0.7,0.3-1.4,0.5-2.3,0.5h-1.2v3.8h-2.5v-11.1h3.9C221.6,318.1,223,319.3,223,321.7z M220.4,321.7c0-1.1-0.7-1.7-2-1.7h-1v3.5h1C219.7,323.5,220.4,322.9,220.4,321.7z"/><path fill="#FFFFFF" d="M231.3,329.2h-6.7v-11.1h6.4v2h-3.9v2.5h3.6v2h-3.6v2.5h4.2V329.2z"/><path fill="#FFFFFF" d="M242.6,329.2h-2.5v-9h-4.6v9H233v-11.1h9.6V329.2z"/><path fill="#FFFFFF" d="M251.7,329.2H245v-11.1h6.4v2h-3.9v2.5h3.6v2h-3.6v2.5h4.2V329.2z"/><path fill="#FFFFFF" d="M261.2,320.1H258v9.1h-2.5v-9.1h-3.2v-2h8.8V320.1z"/><path fill="#FFFFFF" d="M272.6,329.2h-2.4v-7.7h0l-5.1,7.7h-2.5v-11.1h2.4v7.6h0l4.9-7.6h2.7V329.2z"/><path fill="#FFFFFF" d="M282.9,320.1h-3.2v9.1h-2.5v-9.1h-3.2v-2h8.8V320.1z"/><path fill="#FFFFFF" d="M293.9,323.6c0,1.1-0.2,2.2-0.7,3c-0.5,0.9-1.1,1.6-2,2.1c-0.8,0.5-1.8,0.7-2.8,0.7c-1,0-2-0.2-2.8-0.7c-0.8-0.5-1.5-1.1-1.9-2s-0.7-1.8-0.7-2.9c0-1.2,0.2-2.2,0.7-3.1c0.5-0.9,1.1-1.6,2-2.1c0.9-0.5,1.8-0.7,2.9-0.7c1,0,1.9,0.2,2.8,0.7c0.8,0.5,1.4,1.1,1.9,2S293.9,322.5,293.9,323.6z M291.3,323.7c0-1.1-0.2-2-0.7-2.7c-0.5-0.7-1.2-1-2-1c-0.9,0-1.6,0.3-2.1,1c-0.5,0.7-0.8,1.5-0.8,2.6c0,1.1,0.3,2,0.8,2.6c0.5,0.6,1.2,1,2,1c0.9,0,1.5-0.3,2.1-0.9C291.1,325.7,291.3,324.8,291.3,323.7z"/><path fill="#FFFFFF" d="M303.8,321.7c0,0.7-0.2,1.4-0.6,2c-0.4,0.6-0.9,1-1.6,1.3c-0.7,0.3-1.4,0.5-2.3,0.5h-1.2v3.8h-2.5v-11.1h3.9C302.4,318.1,303.8,319.3,303.8,321.7z M301.2,321.7c0-1.1-0.7-1.7-2-1.7h-1v3.5h1C300.5,323.5,301.2,322.9,301.2,321.7z"/><path fill="#FFFFFF" d="M318.8,329.2h-2.7l-0.8-2.5h-4l-0.8,2.5h-2.7l4-11.1h3L318.8,329.2z M314.7,324.8l-1.4-4.4h-0.1l-1.4,4.4H314.7z"/><path fill="#FFFFFF" d="M329.7,329.2h-2.5v-4.5h-4.6v4.5h-2.5v-11.1h2.5v4.4h4.6v-4.4h2.5V329.2z"/><path fill="#FFFFFF" d="M338.8,320.2h-4.1v9.1h-2.5v-11.1h6.6V320.2z"/><path fill="#FFFFFF" d="M348.7,329.2h-2.5v-9H344c-0.3,2.5-0.7,4.7-1.2,6.6c-0.4,1.7-1.4,2.6-2.8,2.6c-0.5,0-0.9-0.1-1.3-0.2v-2c0.3,0.1,0.6,0.2,0.8,0.2c0.3,0,0.5-0.1,0.7-0.3s0.3-0.6,0.5-1.2c0.5-1.8,1-4.4,1.4-7.7h6.8V329.2z"/><path fill="#FFFFFF" d="M361.2,329.2h-2.4v-7.7h0l-5.1,7.7h-2.5v-11.1h2.4v7.6h0l4.9-7.6h2.7V329.2z"/><path fill="#FFFFFF" d="M373.7,329.2h-2.4v-7.7h0l-5.1,7.7h-2.5v-11.1h2.4v7.6h0l4.9-7.6h2.7V329.2z M372.1,314.4c0,0.4-0.2,0.8-0.3,1.1c-0.2,0.3-0.4,0.6-0.7,0.8c-0.3,0.2-0.6,0.4-1,0.5c-0.4,0.1-0.8,0.2-1.3,0.2c-0.5,0-0.9-0.1-1.3-0.2c-0.4-0.1-0.7-0.3-1-0.5c-0.3-0.2-0.5-0.5-0.7-0.8c-0.2-0.3-0.3-0.7-0.3-1.1h1.8c0,0.2,0.1,0.4,0.1,0.5c0.1,0.2,0.2,0.3,0.3,0.4s0.3,0.2,0.5,0.3c0.2,0.1,0.4,0.1,0.6,0.1s0.4,0,0.6-0.1c0.2-0.1,0.3-0.2,0.5-0.3c0.1-0.1,0.2-0.3,0.3-0.4c0.1-0.2,0.1-0.3,0.1-0.5H372.1z"/><path fill="#FFFFFF" d="M384.1,328.8c-0.8,0.4-1.9,0.6-3.2,0.6c-1.1,0-2.1-0.2-2.9-0.7c-0.8-0.4-1.5-1.1-1.9-1.9c-0.5-0.8-0.7-1.8-0.7-2.9c0-1.2,0.3-2.2,0.8-3.1c0.5-0.9,1.2-1.6,2.1-2.1c0.9-0.5,1.9-0.8,3.1-0.8c1.1,0,2,0.1,2.7,0.4v2.4c-0.8-0.4-1.6-0.7-2.5-0.7c-1,0-1.9,0.3-2.5,1s-1,1.6-1,2.7c0,1.1,0.3,1.9,0.9,2.6c0.6,0.6,1.4,1,2.4,1c1,0,1.9-0.2,2.7-0.7V328.8z"/><path fill="#FFFFFF" d="M395.2,329.2h-3.2l-3.2-4.8c0-0.1-0.1-0.3-0.3-0.6h0v5.4H386v-11.1h2.5v5.3h0l0.3-0.6l3.1-4.6h3l-3.9,5.3L395.2,329.2z"/><path fill="#FFFFFF" d="M405.8,323.6c0,1.1-0.2,2.2-0.7,3c-0.5,0.9-1.1,1.6-2,2.1c-0.8,0.5-1.8,0.7-2.8,0.7c-1,0-2-0.2-2.8-0.7c-0.8-0.5-1.5-1.1-1.9-2c-0.5-0.9-0.7-1.8-0.7-2.9c0-1.2,0.2-2.2,0.7-3.1c0.5-0.9,1.1-1.6,2-2.1c0.8-0.5,1.8-0.7,2.9-0.7c1,0,1.9,0.2,2.8,0.7c0.8,0.5,1.4,1.1,1.9,2C405.6,321.5,405.8,322.5,405.8,323.6z M403.2,323.7c0-1.1-0.2-2-0.7-2.7c-0.5-0.7-1.2-1-2-1c-0.9,0-1.6,0.3-2.1,1c-0.5,0.7-0.8,1.5-0.8,2.6c0,1.1,0.3,2,0.8,2.6c0.5,0.6,1.2,1,2,1c0.9,0,1.5-0.3,2.1-0.9C402.9,325.7,403.2,324.8,403.2,323.7z"/><path fill="#FFFFFF" d="M414.2,320.2h-4.1v9.1h-2.5v-11.1h6.6V320.2z"/><path fill="#FFFFFF" d="M425.5,323.6c0,1.1-0.2,2.2-0.7,3c-0.5,0.9-1.1,1.6-2,2.1c-0.8,0.5-1.8,0.7-2.8,0.7c-1,0-2-0.2-2.8-0.7c-0.8-0.5-1.5-1.1-1.9-2s-0.7-1.8-0.7-2.9c0-1.2,0.2-2.2,0.7-3.1c0.5-0.9,1.1-1.6,2-2.1c0.8-0.5,1.8-0.7,2.9-0.7c1,0,1.9,0.2,2.8,0.7c0.8,0.5,1.4,1.1,1.9,2C425.3,321.5,425.5,322.5,425.5,323.6z M422.9,323.7c0-1.1-0.2-2-0.7-2.7c-0.5-0.7-1.2-1-2-1c-0.9,0-1.6,0.3-2.1,1c-0.5,0.7-0.8,1.5-0.8,2.6c0,1.1,0.3,2,0.8,2.6c0.5,0.6,1.2,1,2,1c0.9,0,1.5-0.3,2.1-0.9C422.6,325.7,422.9,324.8,422.9,323.7z"/></g><g><path fill="#FFFFFF" d="M345.6,156.1c-0.2-0.2-12.1-10.9-27.5-4.9l-12-11.2c-3.8-3.6-9.2-4.4-13.7-2.5c-8.8-5.7-17.7-8.2-26.5-7.4c-22.9,2.1-36.4,25.5-36.9,26.5c-23.4,41.8-3.7,96,9.2,121.2h-13.1c-6.1,0-11.1,4.9-11.1,11.1v8.5h63.5v-8.5c0-6.1-5-11.1-11.1-11.1h-19.7c-12.6-23-34.1-76.5-11.2-117.4c0.1-0.2,12.1-21,31-22.7c6.5-0.5,13,1.1,19.7,5c-3.1,5.1-2.3,11.8,2.2,16.1l12,11.3c-3.1,14.4,4.6,25,5.3,25.7c1.1,1.1,2.7,1.7,4.7,1.7c5.9,0,15.1-5.3,23.3-13.5c5.2-5.1,9.3-10.8,11.5-15.8C347.8,162.8,347.9,158.4,345.6,156.1z M342.8,167.1c-2.2,4.8-6,10.1-11,15c-7.6,7.5-16.1,12.6-21.2,12.6c-0.8,0-1.4-0.2-2-0.4l35.3-35.3C344.8,160.6,344.4,163.5,342.8,167.1z"/></g><g><path fill="#FFFFFF" d="M378.6,253.6c-6.6,4.5-12.8,9.7-18.3,15.5c0.4-16,2-32,5.2-47.7c0.7-3.6-2.8-5.8-5.9-5c-4,1.1-6.3,4.7-7.1,8.5c-4,20.1-5.5,40.6-5.2,61.1c-9.7-0.7-14.5-6.6-15.6-14.7c0.7-3.6,0.8-7.4,0.6-11.1c2.1-2,3.5-4.7,3-7.6c-0.6-3.6-4.7-4.4-7.5-2.7c-11.8,7.2-25.5,15.8-31.3,29.1c-2.8,6.4-1.7,14.2,5.6,16.7c7.3,2.5,15.3-1.9,20.6-6.8c4.4,7,12.2,11.4,23.3,11.1c3.6-0.1,7-4,8.2-7.6c0.5-0.2,1-0.5,1.5-0.8c-0.7,3.5,0.7,6.7,5.5,5.6c20.5-4.5,30-21.8,26.8-41.9C386.9,250.2,381.4,251.6,378.6,253.6z M315.4,280.4c-1.2,1.3-4.2,2.3-6.1,1.8c-1.3-0.3-1.2-0.6-1.6-1.2c0.2,0.4,0.1-0.3,1-2c2.1-3.7,5.6-6.9,9.4-9.7c-0.1,2.1-0.1,4.1,0,6.1C317.6,277.2,316.7,278.9,315.4,280.4z M362.1,283.6C362.1,283.6,362.1,283.6,362.1,283.6c3.8-5,8.3-9.5,13.2-13.5C374.7,277.1,371,281.7,362.1,283.6z M421.1,290.2c-9.5,4.7-27.3,9.8-30.8-5c-3.1-13.1,7-26.5,16.6-34.2c2.4-1.9,6.8-3.3,8.7,0.1c1.8,3.3-0.6,7.7-3.3,9.8c-4.5,3.6-10.8,10.1-9.3,16.6c1.7,7.1,12,2.4,15.9,0.5C428.1,273.5,427.9,286.7,421.1,290.2z"/></g><g><path fill="#FFFFFF" d="M215,349.9v-11.1h3c0.9,0,1.6,0.2,2.2,0.7s0.8,1.1,0.8,1.9c0,0.6-0.2,1.2-0.5,1.7c-0.3,0.5-0.8,0.8-1.4,1v0c0.7,0.1,1.3,0.4,1.8,0.8c0.5,0.5,0.7,1.1,0.7,1.8c0,0.9-0.3,1.7-1,2.3c-0.6,0.6-1.5,0.9-2.5,0.9H215z M216,339.7v3.9h1.4c0.8,0,1.4-0.2,1.8-0.6c0.4-0.4,0.7-0.9,0.7-1.6c0-1.2-0.7-1.8-2.2-1.8H216z M216,344.6v4.4h1.9c0.8,0,1.5-0.2,1.9-0.6c0.4-0.4,0.7-0.9,0.7-1.6c0-1.4-1-2.1-2.9-2.1H216z"/><path fill="#FFFFFF" d="M269.1,339.7v10.2h-1v-10.2h-3.2v-0.9h7.4v0.9H269.1z"/><path fill="#FFFFFF" d="M293.7,350.1c-0.5,0-0.9-0.1-1.3-0.2v-1.1c0.4,0.2,0.8,0.4,1.2,0.4c0.5,0,0.9-0.2,1.2-0.5s0.7-1,1.2-1.8l-3.7-8h1.2l3.1,7h0l2.9-7h1.1l-3.5,8c-0.5,1.2-1.1,2.1-1.6,2.6C295,349.8,294.4,350.1,293.7,350.1z"/><path fill="#FFFFFF" d="M321.2,349.9v-11.1h1v10.2h4.2v-10.2h1v10.2h4.2v-10.2h1v11.1H321.2z"/><path fill="#FFFFFF" d="M362.5,349.9v-9.4h0l-6.5,9.4h-1.1v-11.1h1v9.4h0l6.5-9.4h1.1v11.1H362.5z"/><path fill="#FFFFFF" d="M392.7,349.9v-5.2h-6.1v5.2h-1v-11.1h1v5h6.1v-5h1v11.1H392.7z"/><path fill="#FFFFFF" d="M420.3,350.1c-1,0-1.9-0.2-2.7-0.7c-0.8-0.5-1.4-1.2-1.8-2c-0.4-0.9-0.7-1.8-0.7-2.9c0-1.2,0.2-2.2,0.6-3.1c0.4-0.9,1.1-1.6,1.9-2.1c0.8-0.5,1.8-0.7,2.9-0.7c1,0,1.9,0.2,2.7,0.7c0.8,0.5,1.4,1.1,1.8,2c0.4,0.9,0.6,1.8,0.6,2.9c0,1.2-0.2,2.2-0.6,3.1c-0.4,0.9-1,1.6-1.8,2.1C422.3,349.8,421.3,350.1,420.3,350.1z M420.4,339.5c-0.8,0-1.6,0.2-2.2,0.6c-0.6,0.4-1.1,1-1.5,1.7c-0.3,0.7-0.5,1.6-0.5,2.5c0,0.9,0.2,1.7,0.5,2.5s0.8,1.3,1.4,1.7c0.6,0.4,1.3,0.6,2.2,0.6c1.3,0,2.3-0.4,3.1-1.3c0.7-0.9,1.1-2,1.1-3.5c0-1-0.2-1.8-0.5-2.5c-0.3-0.7-0.8-1.3-1.4-1.7C422,339.7,421.2,339.5,420.4,339.5z"/></g></g></svg>