<svg version="1.1" xmlns="http://www.w3.org/2000/svg" x="0px" y="0px" width="640px" height="480px" viewBox="0 0 640 480" enable-background="new 0 0 640 480"><rect y="0" fill="#525252" width="640" height="480"/><circle fill="#D54848" cx="320" cy="240" r="106"/><path fill="#FFFFFF" d="M341.8,238.1c-1.5,1.4-3,2.7-4.4,4c-6.5,6.5-12.9,13.2-19.5,19.6c-3.2,3.1-6.6,6-10.8,7.9c-2.3,1-4.6,1.5-7.1,0.9c-4.1-1-6.1-4.2-5.8-8.8c0.2-4.3,1.7-8.3,3.5-12.1c2.6-5.7,5.3-11.3,7.9-16.9c3.2-6.8,6.5-13.6,9.7-20.5c1.1-2.2,1.6-4.7,2.3-7.1c0.2-0.4,0.1-1,0.2-1.5c-0.1-0.1-0.2-0.2-0.4-0.2c-0.8,0.8-1.7,1.5-2.4,2.3c-3.2,4.4-6.4,8.8-9.7,13.1c-3.5,4.6-6.9,9.3-10.5,13.9c-1.5,1.8-3.5,3.4-5.6,4.6c-4.1,2.4-8.6,0.3-10.1-4.2c-1.1-3.4-0.1-6.4,1.4-9.3c2.4-4.6,5.1-9.1,7.4-13.8c1.2-2.4,2.4-4.8,2.1-7.6c-0.1-1.8-1-3.4-2.4-4.4c-1.2-0.9-2.5-0.5-3.6,0c-2.7,1.2-4.6,3.2-6.4,5.4c-1,1.2-2.1,1.5-3.2,0.9c-1.3-0.8-1.8-2.1-1-3.4c2.3-3.4,5.2-6.3,9.3-7.7c4.5-1.6,8.3,0.2,10.9,4c1.9,2.9,2.3,6.2,1.2,9.5c-1,3-2.4,6-3.8,9c-1.8,3.6-3.8,7.2-5.6,10.8c-0.6,1.4-0.8,2.8-1,4.3c-0.1,0.5,0.4,1.2,0.8,1.6c0.2,0.2,1.2-0.2,1.4-0.5c1.9-1.9,3.9-3.7,5.5-5.9c4.2-5.8,8.2-11.8,12.3-17.6c2.1-2.9,4.3-5.8,6.8-8.5c1.6-1.7,3.5-3.2,5.8-3.6c3.7-0.6,7.2,2.2,7.5,6.2c0.3,2.8-0.1,5.3-1.1,7.9c-2.1,5.4-4.3,10.8-6.6,16.1c-3.6,8.3-7.6,16.3-11.3,24.5c-1.3,3-2.1,6.2-3,9.3c-0.2,0.5-0.2,1.2-0.3,2.2c1.2-0.8,2.3-1.2,3.1-1.8c4.3-3,7.8-6.8,11.3-10.5c5.8-6,11.5-12,17.4-17.9c2-2,4.3-3.7,7.1-4.7c5-1.9,9.6,0.4,10.8,5.5c0.4,2.2,0.2,4.4-0.3,6.6c-1.3,5.8-4,11.2-6.3,16.6c-1.9,4.9-4,9.8-5.8,14.7c-0.4,1.3-0.5,2.8-0.9,4c-0.2,0.7,0.3,1.2,0.9,1.1c1.2-0.1,2.5-0.1,3.5-0.4c3.5-1.4,6.2-3.8,9-6.1c1.9-1.7,3.9-3.6,5.8-5.5c1.6-1.5,2.9-1.5,4.4-0.1c1.2,1.2,2.5,2.3,3.7,3.5c1.2,1.2,1.2,2.6,0.1,3.7c-5,4.7-9.9,9.6-16.3,12.8c-4.3,2.2-8.7,3.4-13.5,1.8c-6.4-2.1-9.1-6.9-7.8-13.4c1.1-5.3,3.3-10.2,5.5-15.2c2.6-5.7,5-11.4,7.4-17c0.3-0.7,0.4-1.5,0.6-2.2C342.1,238.3,342,238.2,341.8,238.1z"/></svg>