<svg version="1.1" xmlns="http://www.w3.org/2000/svg" xmlns:xlink="http://www.w3.org/1999/xlink" x="0px" y="0px" width="640px" height="480px" viewBox="0 0 640 480" enable-background="new 0 0 640 480" xml:space="preserve"><rect fill="#FF3300" width="640" height="480"/><g><g><path fill="#FFFFFF" d="M193.6,224c-0.6,0-1.1,0.5-1.1,1.1l-2.7,25.2l2.7,24.6c0.1,0.6,0.6,1.1,1.1,1.1c0.6,0,1.1-0.5,1.1-1.1l3.1-24.6l-3.1-25.2C194.7,224.5,194.2,224,193.6,224z"/><path fill="#FFFFFF" d="M183.2,233.6c-0.6,0-1,0.5-1.1,1.1l-2.1,15.6l2.1,15.3c0.1,0.6,0.5,1.1,1.1,1.1s1-0.5,1.1-1.1l2.5-15.3l-2.5-15.6C184.3,234,183.8,233.6,183.2,233.6z"/><path fill="#FFFFFF" d="M204.6,219.1c-0.7,0-1.4,0.6-1.4,1.4l-2.6,29.9l2.6,28.8c0.1,0.7,0.6,1.4,1.4,1.4s1.4-0.6,1.4-1.4l3-28.8l-3-29.9C205.9,219.7,205.3,219.1,204.6,219.1z"/><path fill="#FFFFFF" d="M215.7,217.9c-0.9,0-1.6,0.7-1.6,1.6l-2.5,30.6l2.5,29.6c0.1,0.9,0.7,1.6,1.6,1.6s1.6-0.7,1.6-1.6l2.8-29.6l-2.8-30.6C217.3,218.7,216.5,217.9,215.7,217.9z"/><path fill="#FFFFFF" d="M228.8,280.2L228.8,280.2L228.8,280.2z"/><path fill="#FFFFFF" d="M228.8,221.8c-0.1-1-0.9-1.9-1.9-1.9c-1,0-1.9,0.7-1.9,1.9l-2.3,28.4l2.3,29.9c0.1,1.1,0.9,1.9,1.9,1.9c1,0,1.9-0.7,1.9-1.9l2.6-29.9L228.8,221.8z"/><path fill="#FFFFFF" d="M238.1,201.9c-1.1,0-2.1,0.9-2.1,2.1l-2.2,46.3l2.2,29.9c0,1.1,1,2.1,2.1,2.1c1.1,0,2.1-0.9,2.1-2.1l0,0l2.5-29.9l-2.5-46.3C240.1,202.9,239.3,201.9,238.1,201.9z"/><path fill="#FFFFFF" d="M249.3,191.3c-1.2,0-2.3,1-2.3,2.3l-2.1,56.8l2.1,29.8c0,1.4,1.1,2.3,2.3,2.3c1.2,0,2.3-1,2.3-2.3l0,0l2.3-29.8l-2.3-56.8C251.6,192.3,250.5,191.3,249.3,191.3z"/><path fill="#FFFFFF" d="M260.9,186.1c-1.4,0-2.6,1.1-2.6,2.6l-1.9,61.6l1.9,29.4c0,1.5,1.2,2.6,2.6,2.6c1.4,0,2.6-1.1,2.6-2.6l0,0l2.1-29.4l-2.1-61.6C263.5,187.2,262.3,186.1,260.9,186.1z"/><path fill="#FFFFFF" d="M275.3,186.6c0-1.6-1.2-2.8-2.8-2.8s-2.8,1.2-2.8,2.8l-1.7,63.6l1.7,29.3c0,1.6,1.2,2.8,2.8,2.8c1.5,0,2.8-1.2,2.8-2.8l2-29.2L275.3,186.6z"/><path fill="#FFFFFF" d="M275.3,279.5L275.3,279.5L275.3,279.5z"/><path fill="#FFFFFF" d="M284.1,185.2c-1.7,0-3.1,1.4-3.1,3.1l-1.6,62l1.6,28.9c0,1.7,1.4,3.1,3.1,3.1c1.7,0,3.1-1.4,3.1-3.1l0,0l1.9-28.9l-1.9-62C287,186.6,285.8,185.2,284.1,185.2z"/><path fill="#FFFFFF" d="M295.8,187.2c-1.9,0-3.3,1.5-3.3,3.3l-1.5,59.8l1.5,28.8c0,1.9,1.5,3.3,3.3,3.3c1.9,0,3.3-1.5,3.3-3.3l0,0l1.6-28.8l-1.6-59.8C299,188.7,297.7,187.2,295.8,187.2z"/><path fill="#FFFFFF" d="M309.5,176.2c-0.6-0.4-1.2-0.6-2-0.6c-0.7,0-1.4,0.2-1.9,0.6c-1,0.6-1.6,1.7-1.6,3v0.6l-1.4,70.4l1.4,28.5v0.1c0,0.7,0.4,1.5,0.9,2.1c0.6,0.7,1.6,1.2,2.7,1.2c1,0,1.9-0.4,2.5-1c0.6-0.6,1-1.5,1.1-2.5l0.1-2.8l1.4-25.7l-1.5-71.2C311.1,177.9,310.5,176.8,309.5,176.2z"/><polygon fill="#FFFFFF" points="311.1,278.9 311.1,278.9 311.1,278.9 311.1,278.9 311.1,278.9 311.1,278.9 "/><path fill="#FFFFFF" d="M321.2,169.5c-0.6-0.4-1.2-0.5-2-0.5c-0.9,0-1.7,0.4-2.3,0.9c-0.9,0.7-1.4,1.7-1.4,3v0.4l-1.6,77.2l0.7,14.3l0.7,13.8c0,2.1,1.7,3.7,3.8,3.7c2.1,0,3.7-1.7,3.8-3.8l0,0l0,0l1.7-28.2l0,0l-1.7-77.6C323.1,171.4,322.3,170.1,321.2,169.5z"/><path fill="#FFFFFF" d="M425.6,213.6c-4.7,0-9.3,1-13.3,2.7c-2.7-31-28.8-55.3-60.5-55.3c-7.8,0-15.3,1.5-22,4.1c-2.6,1-3.3,2.1-3.3,4.1v109.3c0,2.1,1.6,3.7,3.7,4c0.1,0,95.4,0,95.4,0c19,0,34.4-15.2,34.4-34.2C459.9,229.1,444.6,213.6,425.6,213.6z"/></g><path fill="#FFFFFF" d="M207.5,303.1c-4.1-1-5.2-1.5-5.2-3.1c0-1.1,0.9-2.3,3.6-2.3c2.3,0,4.2,1,5.8,2.6l3.7-3.6c-2.3-2.5-5.3-4-9.3-4c-5.1,0-9.1,2.8-9.1,7.4c0,5.1,3.3,6.5,7.9,7.5c4.8,1.1,5.7,1.9,5.7,3.5c0,2-1.5,2.7-4.4,2.7c-2.5,0-4.7-0.9-6.5-3l-3.7,3.3c2,2.8,5.7,4.6,9.9,4.6c6.9,0,10-3.2,10-8.2C216,305.4,211.6,303.9,207.5,303.1z M231,292.7c-6.9,0-11.1,5.4-11.1,13.1c0,7.8,4.1,13.1,11.1,13.1c6.9,0,11.1-5.4,11.1-13.1C242,298.1,237.9,292.7,231,292.7z M231,313.9c-4.1,0-5.8-3.6-5.8-8c0-4.6,1.7-8,5.8-8c4.1,0,5.8,3.6,5.8,8C236.8,310.5,235.1,313.9,231,313.9z M262.6,307.4c0,4.1-2,6.5-5.2,6.5c-3.2,0-5.2-2.6-5.2-6.7v-14.2h-5.1v14.3c0,7.4,4.2,11.6,10.2,11.6c6.4,0,10.4-4.2,10.4-11.6v-14.2h-5.1v14.2H262.6z M289.6,303.9c0,1.4,0.1,4.6,0.1,5.6c-0.4-0.6-1.1-2-1.7-2.8l-9-13.5h-4.8v25.4h5.1v-11.2c0-1.4-0.1-4.6-0.1-5.6c0.4,0.6,1.1,2,1.7,2.8l9.4,13.8h4.6v-25.4h-5.1v10.9H289.6z M309.1,293.2h-7.9v25.4h7.7c6.5,0,13-3.8,13-12.7C321.9,296.5,316.4,293.2,309.1,293.2z M308.8,313.7h-2.5v-15.6h2.7c5.4,0,7.7,2.6,7.7,7.8C316.5,310.5,314.1,313.7,308.8,313.7z M337.5,297.8c2.3,0,3.7,1,4.7,2.7l4.7-2.2c-1.6-3.3-4.4-5.7-9.3-5.7c-6.7,0-11.4,5.4-11.4,13.1c0,8,4.4,13.1,11.1,13.1c4.6,0,7.7-2.1,9.4-5.8l-4.3-2.6c-1.4,2.2-2.7,3.2-4.9,3.2c-3.8,0-6-3.5-6-8C331.5,301.1,333.7,297.8,337.5,297.8z M356.4,293.2h-5.1v25.4h15.3v-5.1h-10.2V293.2z M380,292.7c-6.9,0-11.1,5.4-11.1,13.1c0,7.8,4.1,13.1,11.1,13.1c6.9,0,11.1-5.4,11.1-13.1C391.1,298.1,386.9,292.7,380,292.7z M380,313.9c-4.1,0-5.8-3.6-5.8-8c0-4.6,1.7-8,5.8-8c4.1,0,5.8,3.6,5.8,8C385.8,310.5,384.1,313.9,380,313.9z M411.6,307.4c0,4.1-2,6.5-5.2,6.5c-3.2,0-5.2-2.6-5.2-6.7v-14.2h-5.1v14.3c0,7.4,4.2,11.6,10.2,11.6c6.4,0,10.4-4.2,10.4-11.6v-14.2h-5.1v14.2H411.6z M431,293.2h-8v25.4h7.7c6.5,0,13-3.8,13-12.7C443.7,296.5,438.3,293.2,431,293.2z M430.6,313.7h-2.5v-15.6h2.7c5.4,0,7.7,2.6,7.7,7.8C438.4,310.5,436,313.7,430.6,313.7z"/></g></svg>