<svg version="1.1" xmlns="http://www.w3.org/2000/svg" x="0px" y="0px" width="640px" height="480px" viewBox="0 0 640 480" enable-background="new 0 0 640 480"><rect y="0" fill="#1769FF" width="640" height="480"/><g><path id="Behance" fill="#FFFFFF" d="M422.4,183.4h-63.6v-15.8h63.6L422.4,183.4L422.4,183.4z M316.4,248.2c4.1,6.4,6.2,14.1,6.2,23.1c0,9.4-2.3,17.8-7,25.2c-3,4.9-6.7,9.1-11.2,12.4c-5,3.9-11,6.5-17.8,7.9c-6.9,1.4-14.3,2.1-22.3,2.1H193V161h76.3c19.2,0.3,32.9,5.9,40.9,16.8c4.8,6.7,7.2,14.8,7.2,24.1c0,9.7-2.4,17.4-7.3,23.3c-2.7,3.3-6.7,6.3-12,9C306.2,237.2,312.3,241.8,316.4,248.2z M229.4,223.3h33.4c6.9,0,12.4-1.3,16.7-3.9c4.3-2.6,6.4-7.2,6.4-13.9c0-7.3-2.8-12.2-8.5-14.6c-4.9-1.6-11.1-2.5-18.7-2.5h-29.4V223.3z M289.2,269.1c0-8.2-3.4-13.9-10.1-16.9c-3.7-1.7-9-2.6-15.8-2.7h-33.9v42.1h33.4c6.9,0,12.2-0.9,16-2.8C285.8,285.3,289.2,278.8,289.2,269.1z M446,243.3c0.8,5.2,1.1,12.7,1,22.5h-82.4c0.5,11.4,4.4,19.3,11.8,23.9c4.5,2.9,9.9,4.2,16.3,4.2c6.7,0,12.2-1.7,16.4-5.2c2.3-1.9,4.3-4.5,6.1-7.8h30.2c-0.8,6.7-4.4,13.5-11,20.5c-10.1,11-24.3,16.5-42.6,16.5c-15.1,0-28.4-4.7-39.9-13.9c-11.5-9.3-17.3-24.4-17.3-45.3c0-19.6,5.2-34.7,15.6-45.1c10.4-10.5,23.9-15.7,40.5-15.7c9.8,0,18.7,1.8,26.6,5.3c7.9,3.5,14.4,9.1,19.5,16.8C441.6,226.7,444.6,234.5,446,243.3z M416.3,246.3c-0.6-7.9-3.2-13.8-7.9-17.9c-4.7-4.1-10.6-6.1-17.5-6.1c-7.6,0-13.5,2.2-17.7,6.5c-4.2,4.3-6.8,10.1-7.9,17.5L416.3,246.3L416.3,246.3z"/></g></svg>
