<svg version="1.1" xmlns="http://www.w3.org/2000/svg" x="0px" y="0px" width="640px" height="480px" viewBox="0 0 640 480" enable-background="new 0 0 640 480"><rect y="0" fill="#585578" width="640" height="480"/><g><path d="M208,40v400h224V40H208z M302.7,51.9h34.9v2h-34.9V51.9z M319.1,422.4l-7.4,1.7v-7.6l7.4-1.4V422.4z M319.1,413.3l-7.4,1.4v-7.1l7.4-1.7V413.3z M328.3,420.4l-7.4,1.7v-7.3l7.4-1.4V420.4z M328.3,411.6l-7.4,1.4v-7.4l7.4-1.7V411.6z M415.6,383.9H224.4V64.1h191.5L415.6,383.9L415.6,383.9z"/><rect x="224.1" y="63.7" fill="#F1F1F1" width="192.2" height="320.1"/><rect x="234.9" y="179.3" fill="#E74856" width="170.4" height="89.6"/><path fill="#FFFFFF" d="M318.4,230.4c-1,0.4-2.1,0.7-3.6,0.7c-1.3,0-2.3-0.3-3.3-0.9c-1-0.6-1.7-1.3-2.3-2.4c-0.6-1-0.9-2.1-0.9-3.4c0-1.4,0.3-2.6,0.9-3.7c0.6-1.1,1.3-2,2.4-2.6c1-0.6,2.1-0.9,3.6-0.9c1.1,0,2.1,0.1,3,0.6v1.3c-1-0.4-2-0.7-3.1-0.7s-2.1,0.3-2.9,0.7c-0.7,0.4-1.4,1.3-1.9,2.1c-0.4,0.9-0.7,2-0.7,3.1s0.1,2.1,0.6,2.9c0.4,0.9,1,1.6,1.7,2c0.9,0.4,1.7,0.7,2.7,0.7c1.3,0,2.4-0.3,3.4-0.9L318.4,230.4L318.4,230.4z"/><path fill="#FFFFFF" d="M323.6,222.3v8.6h-1.3v-8.6h-2.9v-1h7v1H323.6z"/><path fill="#FFFFFF" d="M333.6,230.9v-1.7l0,0c-0.3,0.6-0.7,1.1-1.3,1.4c-0.6,0.4-1.1,0.4-1.9,0.4c-0.9,0-1.7-0.3-2.1-0.7c-0.6-0.4-0.9-1.1-0.9-2c0-1.7,1.1-2.7,3.3-3.1l2.9-0.4c0-1.9-0.7-2.7-2.1-2.7c-1.1,0-2.1,0.4-3.1,1.3V222c0.4-0.3,0.9-0.4,1.4-0.7c0.6-0.1,1.1-0.3,1.7-0.3c1.1,0,1.9,0.3,2.4,0.9c0.6,0.6,0.9,1.6,0.9,2.7v6.3H333.6L333.6,230.9z M329.1,228.3c0,0.6,0.1,1,0.6,1.3c0.4,0.3,0.9,0.4,1.4,0.4c0.9,0,1.6-0.3,2.1-0.9c0.6-0.6,0.9-1.4,0.9-2.3v-1l-2.6,0.4c-0.9,0.1-1.6,0.4-2,0.7C329.1,227.1,329.1,227.6,329.1,228.3z"/><path fill="#FFFFFF" d="M340.7,222.3v8.6h-1.3v-8.6h-2.9v-1h7v1H340.7z"/><path fill="#FFFFFF" d="M352.2,227.9c0,0.9-0.3,1.6-0.9,2.1c-0.6,0.6-1.3,0.9-2.1,0.9h-4v-9.6h1.3v3.9h2.7c1,0,1.7,0.3,2.3,0.7C352.2,226.3,352.2,227,352.2,227.9z M351.2,227.9c0-0.6-0.1-1-0.6-1.3c-0.4-0.3-0.9-0.4-1.6-0.4h-2.4v3.7h2.4c0.7,0,1.1-0.1,1.6-0.4C350.7,229,351.2,228.6,351.2,227.9z"/><path fill="#FFFFFF" d="M361.1,230.9V223l-0.3,0.4l-5.3,7.4h-1.1v-9.6h1.1v7.9c0-0.1,0.1-0.4,0.4-0.7l5.1-7.1h1.1v9.6H361.1L361.1,230.9z"/><path fill="#FFFFFF" d="M300.8,233.6c-0.3-0.4-2.3-4.1,0-6.3c0.1-0.1,0.3-0.4,0.1-0.9c-0.1-0.3-0.4-0.4-0.7-0.4h-22c-0.4,0-0.7,0.3-0.7,0.7v7.3c0,0.4,0.3,0.7,0.7,0.7h22l0,0c0.4,0,0.7-0.4,0.7-0.7C301.3,233.9,301.3,233.7,300.8,233.6z M278.7,233.4v-6.1h20.5c-0.4,0.9-0.6,1.7-0.6,2.6h-15.5c-0.3,0-0.4,0.3-0.4,0.4c0,0.3,0.3,0.4,0.4,0.4h15.5c0.1,1,0.4,1.9,0.9,2.6L278.7,233.4L278.7,233.4z"/><path fill="#FFFFFF" d="M281.6,224.1h6.8c0.1,0,0.3-0.1,0.3-0.3v-3h1.3v3c0,0.1,0.1,0.3,0.3,0.3h6.8c0.1,0,0.3-0.1,0.3-0.3v-4.3v-0.1l-3.3-5.7c0-0.1-0.1-0.1-0.3-0.1c-0.1,0-0.3,0.1-0.3,0.3l-0.1,1c0,0,0,0.1,0,0.3l2.3,4.1h-12.8l2.3-4.1c0,0,0-0.1,0-0.3l-0.3-1c0-0.1-0.1-0.3-0.3-0.3c-0.1,0-0.3,0-0.3,0.1l-3.3,5.7v0.1v4.3C281.3,224.1,281.3,224.1,281.6,224.1z M291.3,220.4h5.1v2.7h-5.1V220.4z M282.7,220.4h5.1v2.7h-5.1V220.4z"/><path fill="#363636" d="M290.6,126.9c-0.7,0.4-1.4,0.6-2.6,0.6c-0.9,0-1.6-0.1-2.1-0.6c-0.6-0.4-1.1-0.9-1.4-1.6c-0.4-0.7-0.6-1.4-0.6-2.3c0-0.9,0.1-1.7,0.6-2.6c0.4-0.7,0.9-1.3,1.7-1.7c0.7-0.4,1.4-0.6,2.4-0.6c0.9,0,1.6,0.1,2.1,0.4v1.1c-0.7-0.4-1.3-0.6-2.1-0.6c-0.7,0-1.3,0.1-1.9,0.4c-0.6,0.3-0.9,0.7-1.3,1.3c-0.3,0.6-0.4,1.3-0.4,2c0,0.7,0.1,1.3,0.4,1.9c0.3,0.6,0.7,1,1.1,1.3c0.4,0.3,1,0.4,1.7,0.4c0.9,0,1.7-0.1,2.3-0.6v1.2H290.6z"/><path fill="#363636" d="M298,124c0,1-0.3,1.9-0.9,2.4c-0.6,0.6-1.3,0.9-2.3,0.9s-1.7-0.3-2.3-0.9c-0.6-0.6-0.9-1.4-0.9-2.4s0.3-1.9,0.9-2.6c0.6-0.6,1.4-0.9,2.4-0.9s1.7,0.3,2.3,0.9C297.7,122.1,298,123,298,124z M297,124c0-0.9-0.1-1.4-0.6-1.9c-0.4-0.4-0.9-0.7-1.6-0.7c-0.7,0-1.1,0.3-1.6,0.7c-0.4,0.4-0.6,1-0.6,1.9c0,0.9,0.1,1.3,0.6,1.7c0.4,0.4,0.9,0.7,1.6,0.7c0.7,0,1.1-0.1,1.6-0.6C297,125.4,297,124.9,297,124z"/><path fill="#363636" d="M305.1,129.6h-0.7v-2.3h-4.7v2.3h-1v-3.3h0.6c1.1-1.6,1.7-3.4,1.7-5.6h3.3v5.6h1L305.1,129.6L305.1,129.6z M303,126.3v-4.6h-1.4c-0.1,1.7-0.6,3.3-1.4,4.6H303z"/><path fill="#363636" d="M311.5,124.3H307c0,0.7,0.1,1.3,0.6,1.7c0.4,0.4,0.9,0.6,1.6,0.6c0.7,0,1.4-0.3,2-0.7v1c-0.6,0.4-1.3,0.6-2.3,0.6c-0.9,0-1.7-0.3-2.1-0.9c-0.4-0.6-0.9-1.4-0.9-2.4c0-0.6,0.1-1.3,0.4-1.7c0.3-0.6,0.6-0.9,1-1.3c0.4-0.3,1-0.4,1.6-0.4c0.9,0,1.4,0.3,2,0.9c0.4,0.6,0.7,1.3,0.7,2.3L311.5,124.3L311.5,124.3z M310.5,123.4c0-0.6-0.1-1-0.4-1.4c-0.3-0.3-0.7-0.4-1.1-0.4s-0.9,0.1-1.3,0.4c-0.4,0.3-0.6,0.9-0.6,1.3L310.5,123.4L310.5,123.4z"/><path fill="#363636" d="M319.1,123.9c0,1.1-0.3,2-0.9,2.6c-0.6,0.6-1.3,1-2.1,1c-0.9,0-1.4-0.4-1.9-1.1l0,0v3.9h-1.3V121h1v1.1l0,0c0.4-0.9,1.3-1.3,2.1-1.3c0.9,0,1.4,0.3,1.9,0.9C318.6,122,319.1,122.9,319.1,123.9z M317.9,123.9c0-0.7-0.1-1.3-0.4-1.7c-0.3-0.4-0.9-0.6-1.3-0.6c-0.6,0-1,0.1-1.4,0.6c-0.4,0.4-0.6,0.9-0.6,1.6v0.9c0,0.6,0.1,1,0.6,1.3c0.4,0.4,0.9,0.6,1.3,0.6c0.6,0,1.1-0.3,1.4-0.7C317.6,125.3,317.9,124.7,317.9,123.9z"/><path fill="#363636" d="M328.6,127.3h-1.4l-2.9-3.1l0,0v3.1h-1v-3.1l0,0l-2.9,3.1h-1.3l3.1-3.3l-3-3.1h1.3l2.7,3l0,0v-3h1v3l0,0l2.7-3h1.3l-3,3.1L328.6,127.3z"/><path fill="#363636" d="M334.3,127.3h-1v-1l0,0c-0.4,0.9-1.1,1.1-2,1.1c-0.6,0-1.1-0.1-1.4-0.4c-0.4-0.3-0.6-0.9-0.6-1.3c0-1.3,0.7-1.9,2.1-2.1l1.9-0.3c0-1.1-0.4-1.7-1.3-1.7s-1.4,0.3-2.1,0.9v-1c0.1-0.1,0.4-0.3,1-0.4c0.4-0.1,0.9-0.1,1.3-0.1c1.6,0,2.3,0.9,2.3,2.4L334.3,127.3L334.3,127.3z M333.3,124l-1.6,0.3c-0.6,0-0.9,0.1-1.1,0.4c-0.3,0.3-0.3,0.4-0.3,0.9c0,0.3,0.1,0.6,0.4,0.9c0.3,0.1,0.6,0.3,0.9,0.3c0.4,0,0.9-0.1,1.3-0.6c0.3-0.4,0.4-0.9,0.4-1.3V124L333.3,124z"/><path fill="#363636" d="M341.5,127.3h-1v-2.9h-3.3v2.9h-1v-6.4h1v2.6h3.3v-2.6h1V127.3z"/><path fill="#363636" d="M349,127.3h-0.9v-5.1c0,0.1-0.3,0.4-0.4,0.7l-2.9,4.3h-1v-6.4h0.9v5l0.4-0.6l3-4.4h1L349,127.3L349,127.3z"/><path fill="#363636" d="M356.1,124.3h-4.6c0,0.7,0.1,1.3,0.6,1.7c0.4,0.4,0.9,0.6,1.6,0.6s1.4-0.3,2-0.7v1c-0.6,0.4-1.3,0.6-2.3,0.6c-0.9,0-1.7-0.3-2.1-0.9c-0.4-0.6-0.9-1.4-0.9-2.4c0-0.6,0.1-1.3,0.4-1.7c0.3-0.6,0.6-0.9,1-1.3c0.4-0.3,1-0.4,1.6-0.4c0.9,0,1.4,0.3,2,0.9c0.4,0.6,0.7,1.3,0.7,2.3V124.3L356.1,124.3z M355,123.4c0-0.6-0.1-1-0.4-1.4c-0.3-0.3-0.7-0.4-1.1-0.4s-0.9,0.1-1.3,0.4c-0.4,0.3-0.6,0.9-0.6,1.3L355,123.4L355,123.4z"/><rect x="234.9" y="283" fill="#744DA9" width="170.4" height="89.6"/><path fill="#FFFFFF" d="M314.4,322.1v12.3h-1.3v-12.3h-3.9V321h9v1.1H314.4z"/><path fill="#FFFFFF" d="M319.1,329.9c0,1.1,0.3,2.1,0.9,2.9c0.6,0.7,1.4,1,2.4,1c1.1,0,2.1-0.4,3-1.1v1.1c-0.9,0.7-2,1-3.3,1c-1.3,0-2.4-0.4-3.1-1.3c-0.7-0.9-1.1-2.1-1.1-3.7c0-0.9,0.1-1.7,0.6-2.6c0.4-0.9,0.9-1.4,1.6-1.9c0.7-0.4,1.4-0.7,2.3-0.7c1.3,0,2.1,0.4,2.9,1.3c0.7,0.9,1,2,1,3.4v0.6H319.1L319.1,329.9z M324.8,328.7c0-1-0.3-1.7-0.7-2.3c-0.4-0.6-1.1-0.9-1.9-0.9c-0.9,0-1.6,0.3-2,0.9c-0.6,0.6-0.9,1.3-1,2.3H324.8L324.8,328.7z"/><path fill="#FFFFFF" d="M334.8,334c-0.7,0.4-1.6,0.7-2.6,0.7c-0.9,0-1.7-0.1-2.3-0.6c-0.7-0.4-1.3-1-1.6-1.7c-0.4-0.7-0.6-1.6-0.6-2.4c0-1,0.1-1.9,0.6-2.7c0.4-0.9,1-1.4,1.7-1.9s1.6-0.7,2.6-0.7c0.9,0,1.6,0.1,2.1,0.4v1.3c-0.7-0.4-1.4-0.7-2.3-0.7c-0.7,0-1.3,0.1-1.9,0.4c-0.6,0.4-1,0.9-1.3,1.4c-0.3,0.6-0.4,1.3-0.4,2.1c0,1.1,0.3,2.1,0.9,2.9c0.6,0.7,1.4,1.1,2.4,1.1c0.9,0,1.7-0.3,2.4-0.9L334.8,334L334.8,334z"/><path fill="#FFFFFF" d="M339.7,325.9v8.6h-1.1v-8.6h-2.9v-1h7v1H339.7L339.7,325.9z"/><path fill="#FFFFFF" d="M351.2,331.4c0,0.9-0.3,1.6-0.9,2.1c-0.6,0.6-1.3,0.9-2.1,0.9h-3.8v-9.6h1.3v3.9h2.7c1,0,1.7,0.3,2.3,0.7C351.2,329.9,351.2,330.6,351.2,331.4z M350,331.4c0-0.6-0.1-1-0.6-1.3c-0.4-0.3-0.9-0.4-1.6-0.4h-2.4v3.7h2.4c0.7,0,1.1-0.1,1.6-0.4C349.7,332.6,350,332.1,350,331.4z M353.3,334.4v-9.6h1.3v9.6H353.3z"/><path fill="#FFFFFF" d="M297,331c-1.4,1.1-2.6,2.6-3.8,3.9c-0.4-0.6-1-1.1-1.3-1.9c-0.4-0.9-1.7,0.4-1.3,1.1c0.4,1,1.1,1.7,1.9,2.4c0.3,0.3,0.9,0,1-0.3c1.3-1.6,2.6-3,4.1-4.3C298.4,331.6,298,330.3,297,331z"/><path fill="#FFFFFF" d="M301.3,317.7h-3.7c-0.3-0.3-0.6-0.4-1-0.4h-1.4V317c0-0.4-0.7-1-1.3-1s-1.3,0.4-1.3,1v0.3h-1.4c-0.4,0-0.9,0.1-1,0.4h-3.7c-0.4,0-0.7,0.3-0.7,0.7v20.4c0,0.4,0.3,0.7,0.7,0.7h14.8c0.4,0,0.7-0.3,0.7-0.7v-20.4C302,318,301.5,317.7,301.3,317.7z M300.5,338.1h-13.3v-19h2l0,0h0.7c0.1,0.6,0.7,1,1.3,1h2.7h2.7c0.6,0,1.1-0.4,1.3-1h0.7l0,0h2L300.5,338.1L300.5,338.1z"/><rect x="288.4" y="321.6" fill="#FFFFFF" width="10.8" height="1.1"/><rect x="288.4" y="323.9" fill="#FFFFFF" width="10.8" height="1.1"/><rect x="288.4" y="326.3" fill="#FFFFFF" width="10.8" height="1.1"/><rect x="288.4" y="328.7" fill="#FFFFFF" width="10.8" height="1.1"/><rect x="234.9" y="144.9" fill="#FFFFFF" width="170.4" height="18.3"/><path fill="#363636" d="M261.6,155c0,0.6-0.1,1-0.6,1.3c-0.4,0.3-0.9,0.4-1.4,0.4h-1.7v-6h3.1v0.7h-2.3v1.9h1.1c0.6,0,1,0.1,1.4,0.4C261.3,154.1,261.6,154.6,261.6,155z M260.9,155c0-0.7-0.4-1.1-1.3-1.1h-0.9v2.1h1c0.4,0,0.7-0.1,1-0.3C260.6,155.7,260.9,155.4,260.9,155z"/><path fill="#363636" d="M265.9,155.4c0,0.4-0.1,0.7-0.4,1c-0.3,0.3-0.6,0.4-1,0.4h-1.9v-4.3h0.7v1.7h1.1c0.4,0,0.9,0.1,1,0.4C265.6,154.9,265.9,155,265.9,155.4z M265.2,155.4c0-0.4-0.3-0.7-0.9-0.7h-1v1.4h1C264.9,156.3,265.2,156,265.2,155.4z M267.3,156.9h-0.7v-4.3h0.7V156.9z"/><path fill="#363636" d="M271.6,156.7c-0.3,0.1-0.7,0.3-1.1,0.3s-0.7,0-1-0.3c-0.3-0.3-0.6-0.4-0.7-0.7c-0.1-0.3-0.3-0.7-0.3-1.1c0-0.7,0.1-1.3,0.6-1.7c0.4-0.4,0.9-0.7,1.6-0.7c0.4,0,0.7,0,1,0.3v0.7c-0.3-0.3-0.7-0.3-1-0.3c-0.4,0-0.9,0.1-1.1,0.4c-0.3,0.3-0.4,0.7-0.4,1.3c0,0.4,0.1,0.9,0.4,1.1c0.3,0.3,0.6,0.4,1,0.4s0.7-0.1,1-0.4V156.7L271.6,156.7z"/><path fill="#363636" d="M275.2,153.1h-1.3v3.7h-0.7v-3.7h-1.3v-0.6h3.3V153.1L275.2,153.1z"/><path fill="#363636" d="M279.9,154.6c0,0.7-0.1,1.3-0.6,1.7c-0.4,0.4-0.9,0.7-1.4,0.7c-0.6,0-1-0.3-1.3-0.7l0,0v2.6h-0.7v-6.3h0.7v0.7l0,0c0.4-0.6,0.9-0.9,1.4-0.9s1,0.1,1.3,0.6C279.9,153.3,279.9,153.9,279.9,154.6z M279.1,154.6c0-0.4-0.1-0.9-0.3-1.1c-0.1-0.3-0.4-0.4-0.9-0.4s-0.7,0.1-1,0.4c-0.3,0.3-0.4,0.6-0.4,1v0.6c0,0.4,0.1,0.7,0.4,0.9c0.3,0.3,0.6,0.4,0.9,0.4c0.4,0,0.7-0.1,1-0.4C279.1,155.6,279.1,155.1,279.1,154.6z"/><path fill="#363636" d="M284.1,155.4c0,0.4-0.1,0.7-0.4,1c-0.3,0.3-0.6,0.4-1,0.4h-1.9v-4.3h0.7v1.7h1.1c0.4,0,0.9,0.1,1,0.4C284.1,154.9,284.1,155,284.1,155.4z M283.4,155.4c0-0.4-0.3-0.7-0.9-0.7h-1v1.4h1C283.4,156.3,283.4,156,283.4,155.4z M285.6,156.9h-0.7v-4.3h0.7V156.9z"/><path fill="#363636" d="M290.6,156.9h-0.4v-3.4c0,0.1-0.1,0.3-0.3,0.4l-2,2.9h-0.6v-4.3h0.6v3.3l0.3-0.4l2-2.9h0.7v4.4H290.6z M290.6,150.4c0,0.1,0,0.4-0.1,0.4c0,0.1-0.1,0.3-0.3,0.4c-0.1,0.1-0.3,0.1-0.4,0.3c-0.1,0-0.4,0.1-0.6,0.1c-0.1,0-0.4,0-0.6,0c-0.1,0-0.3-0.1-0.4-0.3c-0.1-0.1-0.3-0.3-0.3-0.4c0-0.1-0.1-0.3-0.1-0.6h0.7c0,0.1,0,0.1,0,0.3c0,0.1,0,0.1,0.1,0.3c0,0,0.1,0.1,0.3,0.1c0.1,0,0.3,0,0.4,0c0.1,0,0.3,0,0.3,0s0.1-0.1,0.3-0.1c0,0,0.1-0.1,0.1-0.3c0-0.1,0-0.1,0-0.3L290.6,150.4L290.6,150.4z"/><path fill="#363636" d="M297.7,156.9H297v-3.7h-2.1v3.7h-0.7v-4.3h3.6L297.7,156.9L297.7,156.9z"/><path fill="#363636" d="M302.2,154.9h-3c0,0.4,0.1,0.9,0.4,1.1c0.3,0.3,0.6,0.4,1,0.4s0.9-0.1,1.3-0.4v0.6c-0.4,0.3-0.9,0.4-1.4,0.4c-0.6,0-1.1-0.1-1.4-0.6c-0.3-0.4-0.4-0.9-0.4-1.7c0-0.4,0-0.9,0.3-1.1c0.1-0.4,0.4-0.6,0.7-0.9c0.3-0.3,0.6-0.3,1-0.3c0.6,0,1,0.1,1.3,0.6c0.3,0.4,0.4,0.9,0.4,1.6L302.2,154.9L302.2,154.9z M301.5,154.3c0-0.4-0.1-0.7-0.3-0.9c-0.1-0.1-0.4-0.3-0.9-0.3c-0.3,0-0.6,0.1-0.9,0.4c-0.3,0.3-0.4,0.6-0.4,0.9L301.5,154.3L301.5,154.3z"/><path fill="#363636" d="M307.2,154.6c0,0.7-0.1,1.3-0.6,1.7c-0.4,0.4-0.9,0.7-1.4,0.7c-0.6,0-1-0.3-1.3-0.7l0,0v2.6h-0.7v-6.3h0.7v0.7l0,0c0.4-0.6,0.9-0.9,1.4-0.9c0.6,0,1,0.1,1.3,0.6C307,153.3,307.2,153.9,307.2,154.6z M306.5,154.6c0-0.4-0.1-0.9-0.3-1.1c-0.1-0.3-0.4-0.4-0.9-0.4c-0.4,0-0.7,0.1-1,0.4c-0.3,0.3-0.4,0.6-0.4,1v0.6c0,0.4,0.1,0.7,0.4,0.9c0.3,0.1,0.6,0.4,0.9,0.4c0.4,0,0.7-0.1,1-0.4C306.5,155.6,306.5,155.1,306.5,154.6z"/><path fill="#363636" d="M311.9,154.9h-3.3c0,0.4,0.1,0.9,0.4,1.1c0.3,0.3,0.6,0.4,1,0.4s0.9-0.1,1.3-0.4v0.6c-0.4,0.3-0.9,0.4-1.4,0.4c-0.6,0-1.1-0.1-1.4-0.6c-0.3-0.4-0.4-0.9-0.4-1.7c0-0.4,0-0.9,0.3-1.1c0.1-0.4,0.4-0.6,0.7-0.9c0.3-0.3,0.6-0.3,1-0.3c0.6,0,1,0.1,1.3,0.6c0.3,0.4,0.4,0.9,0.4,1.6L311.9,154.9L311.9,154.9z M311.2,154.3c0-0.4-0.1-0.7-0.3-0.9c-0.1-0.1-0.4-0.3-0.9-0.3c-0.3,0-0.6,0.1-0.9,0.4c-0.3,0.3-0.4,0.6-0.4,0.9L311.2,154.3L311.2,154.3z"/><path fill="#363636" d="M315.8,152.6l-1.4,2.1l1.4,2.1h-0.9l-0.9-1.4l-0.1-0.3l0,0l-1,1.7h-0.7l1.4-2.1l-1.4-2.1h0.9c0.6,1,0.9,1.7,1,1.7l0,0l1.1-1.7H315.8z"/><path fill="#363636" d="M320.5,154.7c0,0.7-0.1,1.3-0.6,1.7c-0.4,0.4-0.9,0.6-1.6,0.6c-0.6,0-1.1-0.1-1.6-0.6c-0.4-0.4-0.6-0.9-0.6-1.6s0.1-1.3,0.6-1.7c0.4-0.4,0.9-0.6,1.6-0.6c0.6,0,1.1,0.1,1.4,0.6C320.1,153.6,320.5,154,320.5,154.7z M319.8,154.7c0-0.6-0.1-1-0.4-1.3c-0.3-0.3-0.6-0.4-1-0.4s-0.9,0.1-1,0.4c-0.3,0.3-0.4,0.7-0.4,1.3c0,0.4,0.1,0.9,0.4,1.3c0.3,0.3,0.6,0.4,1,0.4s0.9-0.1,1-0.4C319.8,155.6,319.8,155.3,319.8,154.7z"/><path fill="#363636" d="M325.1,158.3h-0.7v-1.6h-3.1v1.6h-0.6v-2.1h0.4c0.7-1,1.1-2.3,1.1-3.7h2.1v3.7h0.6L325.1,158.3L325.1,158.3z M323.6,156.3v-3.1h-1c0,1.1-0.4,2.1-1,3.1H323.6z"/><path fill="#363636" d="M331.5,156.9h-1l-1.9-2l0,0v2h-0.7v-4.3h0.7v2l0,0l1.7-2h0.9l-2,2.1L331.5,156.9z"/><path fill="#363636" d="M337.2,156.7c-0.3,0.1-0.7,0.3-1.1,0.3c-0.4,0-0.7,0-1-0.3c-0.3-0.3-0.6-0.4-0.7-0.7c-0.1-0.3-0.3-0.7-0.3-1.1c0-0.7,0.1-1.3,0.6-1.7c0.4-0.4,0.9-0.7,1.6-0.7c0.4,0,0.7,0,1,0.3v0.7c-0.3-0.3-0.7-0.3-1-0.3c-0.4,0-0.9,0.1-1.1,0.4c-0.3,0.3-0.4,0.7-0.4,1.3c0,0.4,0.1,0.9,0.4,1.1c0.3,0.3,0.6,0.4,1,0.4c0.4,0,0.7-0.1,1-0.4V156.7L337.2,156.7z"/><path fill="#363636" d="M340.7,153.1h-1.3v3.7h-0.7v-3.7h-1.3v-0.6h3.3V153.1L340.7,153.1z"/><path fill="#363636" d="M345.5,154.6c0,0.7-0.1,1.3-0.6,1.7c-0.4,0.4-0.9,0.7-1.4,0.7c-0.6,0-1-0.3-1.3-0.7l0,0v2.6h-0.7v-6.3h0.7v0.7l0,0c0.4-0.6,0.9-0.9,1.4-0.9c0.6,0,1,0.1,1.3,0.6C345.5,153.3,345.5,153.9,345.5,154.6z M344.7,154.6c0-0.4-0.1-0.9-0.3-1.1c-0.1-0.3-0.4-0.4-0.9-0.4s-0.7,0.1-1,0.4s-0.4,0.6-0.4,1v0.6c0,0.4,0.1,0.7,0.4,0.9c0.3,0.3,0.6,0.4,0.9,0.4c0.4,0,0.7-0.1,1-0.4C344.7,155.6,344.7,155.1,344.7,154.6z"/><path fill="#363636" d="M349.7,156.9H349v-0.7l0,0c-0.3,0.4-0.7,0.9-1.3,0.9c-0.4,0-0.7-0.1-1-0.4c-0.3-0.3-0.4-0.6-0.4-0.9c0-0.9,0.4-1.3,1.4-1.4l1.3-0.1c0-0.7-0.3-1.1-0.9-1.1c-0.4,0-1,0.1-1.4,0.6v-0.7c0.1-0.1,0.4-0.1,0.7-0.3c0.3,0,0.6-0.1,0.9-0.1c1,0,1.6,0.6,1.6,1.6L349.7,156.9L349.7,156.9z M349,154.7l-1,0.1c-0.4,0-0.6,0.1-0.7,0.3c-0.1,0.1-0.1,0.3-0.1,0.6c0,0.3,0,0.4,0.3,0.4c0.1,0.1,0.4,0.1,0.6,0.1c0.4,0,0.6-0.1,0.9-0.4s0.3-0.6,0.3-0.9L349,154.7L349,154.7z"/><path fill="#363636" d="M354.3,156.9h-0.7v-2h-2.1v2h-0.7v-4.3h0.7v1.7h2.1v-1.7h0.7V156.9z"/><path fill="#363636" d="M359.3,156.9h-0.7v-3.4c0,0.1-0.1,0.3-0.3,0.4l-2,2.9h-0.6v-4.3h0.6v3.3l0.3-0.4l2-2.9h0.7V156.9z"/><path fill="#363636" d="M364.7,158.3h-0.4v-1.6h-3.6v-4.3h0.7v3.7h2.1v-3.7h0.7v3.7h0.6L364.7,158.3L364.7,158.3L364.7,158.3z"/><path fill="#363636" d="M369,156.9h-0.7v-0.7l0,0c-0.3,0.4-0.7,0.9-1.3,0.9c-0.4,0-0.7-0.1-1-0.4c-0.3-0.3-0.4-0.6-0.4-0.9c0-0.9,0.4-1.3,1.4-1.4l1.3-0.1c0-0.7-0.3-1.1-0.9-1.1c-0.4,0-1,0.1-1.4,0.6v-0.7c0.1-0.1,0.4-0.1,0.7-0.3c0.3-0.1,0.6-0.1,0.9-0.1c1,0,1.6,0.6,1.6,1.6L369,156.9L369,156.9z M368.3,154.7l-1,0.1c-0.4,0-0.6,0.1-0.7,0.3c-0.1,0.1-0.1,0.3-0.1,0.6c0,0.3,0,0.4,0.3,0.4c0.1,0.1,0.4,0.1,0.6,0.1c0.4,0,0.6-0.1,0.9-0.4s0.3-0.6,0.3-0.9L368.3,154.7L368.3,154.7z"/><path fill="#363636" d="M374.7,156.9H374v-3.6l-0.3,0.9l-1.1,2.7H372l-1.1-2.7c0-0.1-0.1-0.4-0.3-0.9v3.6H370v-4.3h0.9l1.1,2.9c0,0.1,0.1,0.4,0.3,0.9l0.3-0.9l1.1-2.9h0.9L374.7,156.9L374.7,156.9z"/><path fill="#363636" d="M376.8,156.4c0,0.1,0,0.3-0.1,0.3c0,0-0.1,0.1-0.3,0.1c-0.1,0-0.3,0-0.3-0.1c0,0-0.1-0.1-0.1-0.3c0-0.1,0-0.3,0.1-0.3c0-0.1,0.1-0.1,0.3-0.1c0.1,0,0.3,0,0.3,0.1C376.8,156.3,376.8,156.3,376.8,156.4z M379,156.4c0,0.1,0,0.3-0.1,0.3c0,0-0.1,0.1-0.3,0.1c-0.1,0-0.3,0-0.3-0.1c0,0-0.1-0.1-0.1-0.3c0-0.1,0-0.3,0.1-0.3c0-0.1,0.1-0.1,0.3-0.1c0.1,0,0.3,0,0.3,0.1C379,156.3,379,156.3,379,156.4z M381.1,156.4c0,0.1,0,0.3-0.1,0.3c0,0-0.1,0.1-0.3,0.1c-0.1,0-0.3,0-0.3-0.1c0,0-0.1-0.1-0.1-0.3c0-0.1,0-0.3,0.1-0.3c0-0.1,0.1-0.1,0.3-0.1c0.1,0,0.3,0,0.3,0.1C381,156.3,381.1,156.3,381.1,156.4z"/><path fill="#565656" d="M394.6,153l0.3-0.3l1.9,1.9l1.9-1.9l0.3,0.3l-2.1,2.1L394.6,153z"/><path fill="#848484" d="M241.4,151.3v-1.9h1.9v1.9H241.4z M241.4,153.7v-1.9h1.9v1.9H241.4z M241.4,156.1v-1.9h1.9v1.9H241.4z M241.4,158.6v-1.9h1.9v1.9H241.4z M242.1,150v0.6h0.6V150H242.1z M242.1,152.6v0.6h0.6v-0.6H242.1z M242.1,155v0.6h0.6V155H242.1z M242.1,157.4v0.6h0.6v-0.6H242.1z M244.5,150h6.7v0.6h-6.7V150z M244.5,153.1v-0.6h5.4v0.6H244.5z M248.8,155v0.6h-4.3V155H248.8z M244.5,158v-0.6h5.4v0.6H244.5z"/><rect x="252.5" y="63.7" fill="#E3E3E3" width="29.2" height="29.3"/><path fill="#848484" d="M262,77.6c0.1,0,0.3,0,0.3,0c0.1,0,0.1,0.1,0.3,0.1c0,0,0.1,0.1,0.1,0.3c0,0.1,0,0.1,0,0.3c0,0.1,0,0.3,0,0.3s-0.1,0.1-0.1,0.3c0,0-0.1,0.1-0.3,0.1c-0.1,0-0.1,0-0.3,0c-0.1,0-0.3,0-0.3,0c-0.1,0-0.1-0.1-0.3-0.1c-0.1,0-0.1-0.1-0.1-0.3c0,0,0-0.1,0-0.3c0-0.1,0-0.3,0-0.3c0-0.1,0.1-0.1,0.1-0.3c0,0,0.1-0.1,0.3-0.1H262z M266.7,77.6c0.1,0,0.3,0,0.3,0c0.1,0,0.1,0.1,0.3,0.1c0.1,0,0.1,0.1,0.1,0.3c0,0.1,0,0.1,0,0.3c0,0.1,0,0.3,0,0.3c0,0.1-0.1,0.1-0.1,0.3c0,0-0.1,0.1-0.3,0.1c-0.1,0-0.1,0-0.3,0c-0.1,0-0.3,0-0.3,0c-0.1,0-0.1-0.1-0.3-0.1c0,0-0.1-0.1-0.1-0.3c0-0.1,0-0.1,0-0.3c0-0.1,0-0.3,0-0.3c0-0.1,0.1-0.1,0.1-0.3c0,0,0.1-0.1,0.3-0.1C266.7,77.6,266.7,77.6,266.7,77.6z M271.7,77.6c0.1,0,0.3,0,0.3,0c0.1,0,0.1,0.1,0.3,0.1c0,0,0.1,0.1,0.1,0.3c0,0.1,0,0.1,0,0.3c0,0.1,0,0.3,0,0.3c0,0.1-0.1,0.1-0.1,0.3c0,0-0.1,0.1-0.3,0.1c-0.1,0-0.1,0-0.3,0c-0.1,0-0.3,0-0.3,0c-0.1,0-0.1-0.1-0.3-0.1c0,0-0.1-0.1-0.1-0.3c0-0.1,0-0.1,0-0.3c0-0.1,0-0.3,0-0.3c0-0.1,0.1-0.1,0.1-0.3c0,0,0.1-0.1,0.3-0.1C271.7,77.6,271.7,77.6,271.7,77.6z"/><rect x="224.1" y="63.7" fill="#E3E3E3" width="29.2" height="29.3"/><path fill="#848484" d="M232.1,75.6v-0.9h13v0.9H232.1z M232.1,78.9V78h13v0.9H232.1z M232.1,82.1v-0.9h13v0.9H232.1z"/></g></svg>