<?xml version="1.0" encoding="utf-8"?>
<!-- Generator: Adobe Illustrator 16.0.0, SVG Export Plug-In . SVG Version: 6.00 Build 0)  -->
<!DOCTYPE svg PUBLIC "-//W3C//DTD SVG 1.1//EN" "http://www.w3.org/Graphics/SVG/1.1/DTD/svg11.dtd">
<svg version="1.1" id="Layer_1" xmlns="http://www.w3.org/2000/svg" x="0px" y="0px"
	 width="640px" height="480px" viewBox="0 0 640 480" enable-background="new 0 0 640 480">
<rect y="0" fill="#27A1C5" width="640" height="480"/>
<title>npm-logo</title>
<description>Created with Sketch (http://www.bohemiancoding.com/sketch)</description>
<g>
	<path fill="#FFFFFF" d="M284.7,216.5l-5.4,0.4c0,1.1,0,1.9,0.1,2.6c0.1,6.7,3.9,8,7,8h0.8l8.9-0.9c0.4-1.1,0.4-1.9,0.4-1.9
		s-1.1-56.3-1.3-63.4c-0.1-1.6-0.5-2.8-1.1-3.9c-3.3-0.3-6.2-0.5-8.4-0.6h-1c-2.2,0-3.8,0.6-4.8,1.6c-1.6,1.7-1.4,4.3-1.4,4.3v0.1
		c0,0.1,0,1.6,0.1,4.1c4.3,0.2,7.5,0.4,7.5,0.4s5,1.1,5.2,6.2c0.2,5.6,0.2,36.8,0.2,36.8S291.8,215.4,284.7,216.5L284.7,216.5z
		 M267.6,217.7l-8.9,0.6c0,0-7.4,1-7.6-7.1c-0.1-6-0.9-39.9-0.9-39.9s-0.5-6.3,7.1-5.8c2.3,0.1,5.7,0.4,9.3,0.6
		c-0.1-5.6-0.2-10.5-0.3-14.2c-4.8-0.4-9.4-0.7-12.6-1.1c-10-1.1-9.4,7.3-9.4,7.3s1.2,62.2,1.4,69.9c0.3,9.1,10,7.6,10,7.6l12.1-1.3
		C267.9,229.9,267.8,224.1,267.6,217.7L267.6,217.7z M375,140.5c-0.4-11.7-10.6-14.1-10.6-14.1s-35.4-5.3-50.9-7.3
		c-15.5-1.9-14.6,13.1-14.6,13.1s3.5,109.9,3.9,123.5c0.4,16.2,15.5,13.6,15.5,13.6l53.3-9.3c9.7-1.9,10.2-14,10.2-14
		S375.5,153.3,375,140.5z M363.1,233.9l-39.7,4.1c0,0-11.6,1.8-11.8-12.3c-0.2-10.4-2.5-69.8-2.5-69.8s-0.8-10.9,11.1-10
		c12.1,0.9,41.2,3.1,41.2,3.1s7.8,1.9,8.1,10.8c0.4,9.7,3.7,63.4,3.7,63.4S374.1,232,363.1,233.9L363.1,233.9z M323.2,235.9
		l15.3-1.6c-0.7-15.6-3.5-76.3-3.8-85.1v-0.1c-5.5-0.4-10.9-0.9-14.6-1.1l-1.2-0.1c-2.6,0-4.5,0.7-5.7,2.1c-2.1,2.2-1.9,5.7-1.9,5.8
		v0.1c0,0.1,0,0.4,0.1,0.9c6.2,0.6,10.9,0.9,10.9,0.9s6.7,1.5,7,8.8c0.3,7.9,2.2,50.9,2.2,50.9s0.8,7.3-8.7,8.8l-8.9,0.9
		c0.6,7.3,4.9,8.9,8.4,8.9c0.6,0,0.9-0.1,0.9-0.1C323.1,235.9,323.2,235.9,323.2,235.9L323.2,235.9z M299.8,228.4l-12.4,1.2
		c0,0-9.9,1.4-10.1-10.1c-0.1-8.5-1.1-56.7-1.1-56.7s-0.7-8.9,9.5-8.2c3,0.2,7.2,0.6,11.9,0.9c-0.3-9.2-0.5-16.4-0.6-20.2
		c-6-0.6-11.7-1.2-15.9-1.6c-13.5-1.6-12.6,10.5-12.6,10.5s1.6,88.3,1.9,99.1c0.4,12.9,13.5,10.8,13.5,10.8l16.8-2.1
		C300.4,246.9,300.2,238.5,299.8,228.4L299.8,228.4z"/>
	<path fill="#FFFFFF" d="M274.4,307.1l-3.7,10c-0.1,0.1-0.1,0.2-0.2,0.2H269c-0.1,0-0.2-0.1-0.1-0.2c2.4-6.6,6.7-18.3,9.4-25.4
		c0.1-0.2,0.1-0.4,0.2-1.1c0-0.1,0.1-0.1,0.1-0.1h2.2c0.1,0,0.1,0.1,0.2,0.1l9.7,26.6c0.1,0.1,0,0.2-0.1,0.2H289
		c-0.1,0-0.1-0.1-0.2-0.1l-3.8-10h-10.6V307.1z M284.6,305.6c-0.9-2.6-4.1-11.1-4.9-13.7h-0.1c-0.6,2.4-2.9,8.3-4.8,13.7H284.6z
		 M293,307.9c0-6.1,4.4-10.3,10.2-10.3c1.3,0,2.8,0.1,4,0.6v-9.9c0-0.1,0.1-0.2,0.2-0.2h1.3c0.2,0,0.2,0.1,0.2,0.2v26.3
		c0,0.4,0.1,0.9,0.1,1.2c0,0.1-0.1,0.2-0.1,0.3c-2.1,1.4-4.4,1.8-6.6,1.8C296.6,317.8,293,314.2,293,307.9L293,307.9z M307.2,300
		c-1.1-0.5-2.5-0.8-4-0.8c-5.5,0-8.4,3.9-8.4,8.5c0,6.3,3.9,8.4,7.7,8.4c1.9,0,3.4-0.4,4.7-1L307.2,300L307.2,300z M330.8,307.6
		c0,6.1-3.5,10.1-8.8,10.1c-6.5,0-8.9-5.4-8.9-10.1c0-5.8,3.5-10.1,8.9-10.1C327.2,297.5,330.8,301.6,330.8,307.6z M314.9,307.6
		c0,4.6,2.4,8.6,7.2,8.6c3.3,0,7-2.2,7-8.5c0-4.3-2-8.6-7.2-8.6C317.7,299.1,314.9,302.5,314.9,307.6z M336.5,288
		c0.1,0,0.1,0,0.1,0.1V299c1.9-1,3.8-1.5,5.8-1.5c5.3,0,8.4,3.9,8.4,9.3c0,7-5.3,11-10.6,11c-1.9,0-3.5-0.2-5.2-0.9
		c-0.1-0.1-0.2-0.2-0.2-0.4v-28.4c0-0.1,0.1-0.1,0.2-0.1H336.5L336.5,288z M342.1,299.2c-1.9,0-3.8,0.4-5.5,1.4v15
		c1.1,0.4,2.2,0.5,3.8,0.5c4.3,0,8.6-3.2,8.6-9.3C349,302.6,346.7,299.2,342.1,299.2L342.1,299.2z M355.8,307.3
		c-0.2,5.1,2.5,8.8,7.5,8.8c1.6,0,3.4-0.2,5.1-1.2c0.1-0.1,0.1,0,0.1,0.1v1.2c0,0.1-0.1,0.2-0.1,0.3c-1.3,0.8-2.8,1.2-5.3,1.2
		c-6.6,0.1-9-5.1-9-10c0-6,3.3-10.3,8.4-10.3c5.3,0,7.4,4.6,7.4,7.5c0,1.3-0.1,1.9-0.2,2c-0.7,0.2-2.5,0.2-4.3,0.2L355.8,307.3
		L355.8,307.3z M364.9,305.9c2.5,0,2.9-0.1,3-0.2c0.1-0.1,0.1-0.5,0.1-0.9c0-1.6-1.1-5.7-5.8-5.7c-3.9,0-5.9,3.1-6.4,6.8H364.9z
		 M241,324.6c0-0.1,0-0.2,0.2-0.2c1.1-0.1,3.3-0.1,5.7-0.1c6.8,0,9.8,3.6,9.8,8.5c0,6.3-4.9,9-10.6,9c-1.9,0-3,0-3.3-0.1v9.3
		c0,0.1-0.1,0.2-0.2,0.2h-1.4c-0.1,0-0.2-0.1-0.2-0.1V324.6L241,324.6z M242.8,340.1c0.5,0.1,1.3,0.1,3.3,0.1c4,0,8.7-1.5,8.7-7.4
		c0-4.8-3.3-7-8-7c-2.1,0-3.8,0.1-4.1,0.1L242.8,340.1L242.8,340.1z M260.9,322.1c0-0.1,0-0.2,0.1-0.2h1.5c0.1,0,0.2,0.1,0.2,0.1v12
		c1.6-1.4,3.8-2.7,6.6-2.7c2.6,0,6.4,1.3,6.4,7.7v11.9c0,0.2-0.1,0.2-0.2,0.2h-1.4c-0.1,0-0.2-0.1-0.2-0.2v-12
		c0-3.8-1.7-5.9-4.9-5.9c-2.8,0-4.8,1.3-6.2,2.7v15.2c0,0.1-0.1,0.2-0.2,0.2h-1.3c-0.1,0-0.2-0.1-0.2-0.2L260.9,322.1L260.9,322.1z
		 M297.6,341.5c0,6.1-3.5,10.1-8.8,10.1c-6.5,0-8.9-5.4-8.9-10.1c0-5.8,3.5-10.1,8.9-10.1C294,331.4,297.6,335.5,297.6,341.5z
		 M281.7,341.5c0,4.6,2.4,8.6,7.2,8.6c3.3,0,7-2.2,7-8.5c0-4.3-2-8.6-7.2-8.6C284.4,333,281.7,336.4,281.7,341.5z M301.6,336.3
		c0-1.4-0.1-3.8-0.1-4.3c0-0.1,0.1-0.2,0.2-0.2h1.3c0.1,0,0.1,0.1,0.2,0.2c0.1,0.4,0.1,1.6,0.2,2.4c2-1.9,4.3-3,6.7-3
		c2.3,0,6.3,1.2,6.3,7.6v11.9c0,0.2-0.1,0.2-0.2,0.2h-1.3c-0.2,0-0.2-0.1-0.2-0.2V339c0-3.5-1.6-5.9-5-5.9c-2.4,0-4.6,1.4-6.2,3.1
		V351c0,0.1-0.1,0.2-0.2,0.2h-1.4c-0.1,0-0.1-0.1-0.1-0.2L301.6,336.3L301.6,336.3z M322.2,341.2c-0.2,5.1,2.5,8.8,7.5,8.8
		c1.6,0,3.4-0.2,5.1-1.2c0.1-0.1,0.1,0,0.1,0.1v1.2c0,0.1-0.1,0.2-0.1,0.3c-1.3,0.8-2.8,1.2-5.3,1.2c-6.6,0.1-9-5.1-9-10
		c0-6,3.3-10.3,8.4-10.3c5.3,0,7.4,4.6,7.4,7.5c0,1.3-0.1,1.9-0.2,2c-0.7,0.2-2.5,0.2-4.3,0.2L322.2,341.2L322.2,341.2z
		 M331.4,339.8c2.5,0,2.9-0.1,3-0.2c0.1-0.1,0.1-0.5,0.1-0.9c0-1.6-1.1-5.7-5.8-5.7c-3.9,0-5.9,3.1-6.4,6.8H331.4z M351.9,339.8
		c-0.1,0-0.2-0.1-0.2-0.2v-1.1c0-0.1,0.1-0.2,0.2-0.2h8.2c0.1,0,0.2,0.1,0.2,0.2v11c0,0.1-0.1,0.3-0.2,0.4c-2.3,1.2-5.2,1.9-8,1.9
		c-8.9,0-12.9-6.4-12.9-13.7c0-8.4,5.3-14,13.3-14c3,0,5.8,0.7,7,1.6c0.1,0.1,0.1,0.1,0.1,0.3v1.4c0,0.1-0.1,0.1-0.1,0.1
		c-1.9-1.1-4.5-1.9-7-1.9c-7.2,0-11.5,4.9-11.5,12.4c0,5.7,3.1,12.1,11.2,12.1c2.8,0,4.9-0.6,6.2-1.3v-8.9H351.9z M371.3,351.7
		c-4.1,0-7.3-2-7.3-6.1c0-4.8,4.1-6.8,12.1-6.4v-1.1c0-1.6-0.6-5-4.8-5c-1.9,0-3.8,0.6-5.4,1.6c-0.1,0.1-0.2,0-0.2-0.1v-1.4
		c0-0.1,0.1-0.1,0.1-0.2c1.4-0.9,3.5-1.6,5.7-1.6c4.5,0,6.5,3.1,6.5,7.1v10.1c0,0.4,0,0.9,0.1,1.4c0,0.1,0,0.1-0.1,0.1
		C375.6,351.3,373.2,351.7,371.3,351.7z M376.1,340.6c-7.9-0.4-10.4,1.6-10.4,4.9c0,2.2,1.6,4.5,5.9,4.5c1.6,0,3.1-0.3,4.5-0.9
		V340.6L376.1,340.6z M399,340.8c0,7.3-5.9,10.9-10.9,10.9c-1.3,0-2.4-0.1-3.3-0.4v9.3c0,0.1-0.1,0.1-0.2,0.2l-1.3,0.2
		c-0.1,0.1-0.2-0.1-0.2-0.1v-26.5c0-0.2-0.1-0.6-0.1-1.1c0-0.1,0-0.1,0.1-0.1c1.1-0.4,3.9-1.6,7.2-1.6
		C395.5,331.4,399,335.1,399,340.8L399,340.8z M384.9,334v15.5c0.9,0.4,1.8,0.5,3.3,0.5c4.9,0,9-3.6,9-9.2c0-4.5-2.7-7.8-7.2-7.8
		C387.7,333.1,386.2,333.5,384.9,334z"/>
</g>
</svg>
