<?xml version="1.0" encoding="utf-8"?>
<!-- Generator: Adobe Illustrator 16.0.0, SVG Export Plug-In . SVG Version: 6.00 Build 0)  -->
<!DOCTYPE svg PUBLIC "-//W3C//DTD SVG 1.1//EN" "http://www.w3.org/Graphics/SVG/1.1/DTD/svg11.dtd">
<svg version="1.1" id="Layer_1" xmlns="http://www.w3.org/2000/svg" xmlns:xlink="http://www.w3.org/1999/xlink" x="0px" y="0px"
	 width="640px" height="480px" viewBox="0 0 640 480" enable-background="new 0 0 640 480" xml:space="preserve">
<rect y="0" fill="#205081" width="640" height="480"/>
<g>
	<path fill="#FFFFFF" d="M409.6,157.6c-1.4-1.9-3-3.5-4.9-4.9c-4.1-3.2-8.7-5.4-13.5-7.4c-10.2-4.1-20.8-6.5-31.5-8.2
		c-13.1-2.1-26.4-2.9-40.3-3c-12.4,0.1-25.5,0.9-38.4,2.9c-9.2,1.4-18.3,3.4-27.1,6.4c-5.8,2-11.5,4.3-16.6,7.8
		c-2.4,1.6-4.7,3.5-6.5,5.8c-2.3,2.9-3.3,6.2-2.7,9.9c1.2,7.3,2.2,14.6,3.4,21.9c1.8,10.8,3.6,21.6,5.4,32.3c2,12,4.2,23.9,6.2,35.9
		c0.5,2.8,1.7,5.1,3.5,7.2c1.2,1.3,2.5,2.5,3.8,3.6c4.9,3.9,10.5,6.8,16.3,9.1c14,5.6,28.6,8.1,43.5,8.9c10.8,0.6,21.7,0.2,32.4-1.3
		c9.2-1.2,18.2-3.2,26.9-6.3c6.5-2.3,12.7-5.2,18.3-9.2c2.4-1.7,4.6-3.7,6.3-6c1.2-1.6,2-3.4,2.4-5.4c2.7-15.7,5.4-31.3,8-47
		c2.4-14.5,4.7-29.1,7.1-43.6C412.4,163.4,411.6,160.3,409.6,157.6z M319.9,265.4c-16.1-0.1-29.1-13.2-29.1-29.3
		c0-16.1,13.1-29.1,29.3-29c16.3,0.1,29.2,13.1,29.2,29.4C349.2,252.5,336,265.5,319.9,265.4z M378.2,163.4
		c-0.8,0.9-1.8,1.8-2.9,2.4c-3,1.8-6.4,2.7-9.8,3.6c-6.4,1.6-12.9,2.6-19.4,3.2c-8.6,0.9-17.2,1.2-25.4,1.3c-10-0.1-19.5-0.5-29-1.6
		c-7.1-0.9-14.2-1.9-21.1-4.2c-2-0.7-4-1.6-5.9-2.6c-1-0.5-1.8-1.2-2.6-2c-1.3-1.4-1.3-3,0-4.4c0.8-0.8,1.7-1.5,2.7-2.1
		c2.8-1.6,6-2.6,9.1-3.4c6.6-1.7,13.3-2.7,20.1-3.4c11.1-1.1,22.2-1.5,33.3-1.1c10.2,0.3,20.4,1.1,30.5,2.9
		c4.7,0.8,9.4,1.8,13.9,3.6c1.6,0.6,3.1,1.5,4.6,2.3c0.7,0.4,1.4,1.1,1.9,1.8C379.2,160.8,379.2,162.3,378.2,163.4z M389.4,286.3
		c0.1,0.6,0,1.2-0.1,1.8c-2,10.7-4.1,21.4-6.1,32.2c-0.7,3.6-2.3,6.6-4.9,9.2c-2.8,2.9-6.2,5-9.7,6.8c-6.6,3.3-13.5,5.4-20.7,6.9
		c-9.2,1.9-18.6,2.8-23.9,2.7c-16.2,0-28.1-1.3-39.7-4.7c-5.4-1.5-10.6-3.5-15.4-6.4c-2.5-1.5-4.9-3.2-7-5.3c-2.6-2.6-4.3-5.7-5-9.3
		c-2-10.7-4.1-21.5-6.1-32.2c-0.1-0.5-0.1-1.1-0.1-1.6c0.1-2.6,2.5-4,4.9-2.8c0.2,0.1,0.5,0.3,0.7,0.4c7.9,5.7,16.7,9.5,25.9,12.4
		c8.5,2.7,17.1,4.3,26,5.1c10.2,0.9,20.3,0.7,30.4-0.7c13.4-1.9,26.2-5.7,38.1-12.2c2.4-1.3,4.6-2.9,6.9-4.3
		c0.4-0.2,0.7-0.5,1.1-0.7C386.9,282.6,389.1,283.9,389.4,286.3z M334.7,236.3c0,8.1-6.6,14.6-14.7,14.6c-8.1,0-14.6-6.6-14.6-14.7
		c0-8.1,6.6-14.6,14.7-14.6C328.2,221.6,334.7,228.2,334.7,236.3z"/>
</g>
</svg>
