<svg version="1.1" xmlns="http://www.w3.org/2000/svg" x="0px" y="0px" viewBox="0 0 640 480" enable-background="new 0 0 640 480"><rect fill="#F03B4C" width="640" height="480"/><path fill="#FFFFFF" d="M320,134c-58.5,0-106,47.5-106,106s47.5,106,106,106s106-47.5,106-106S378.5,134,320,134z M372.5,277.6l-0.8,0.8c-5.4,5.3-10.9,10.6-17.8,14.4c-3.2,2.3-6.7,3.2-10.1,3.2c-1.8,0-3.5-0.3-5.3-0.8c-7.5-2.6-11-8.6-9.4-16.7c1.2-6.2,3.8-12.1,6.2-17.8c1.8-4,3.4-7.9,5-11.7c1.2-2.8,2.3-5.5,3.5-8.3v-0.1c-1.1,0.9-2.2,2-3.2,3c-2.7,2.8-5.4,5.7-8.2,8.5c-4.4,4.7-9.2,9.6-13.9,14.3c-3.2,3.4-7.3,7-12.5,9.4c-3.1,1.5-5.9,1.9-8.6,1.2c-5-1.3-7.7-5.4-7.3-11.2c0.3-4.8,1.8-9.3,3.9-14.5c1.9-4.4,4-8.9,5.9-13.2c0.9-2.2,2-4.3,3-6.5l2.4-5.4c2.8-6.2,5.7-12.4,8.5-18.6c0.8-1.8,1.3-3.8,1.9-5.7c0.1-0.7,0.4-1.3,0.5-2c-0.4,0.4-0.8,0.8-1.1,1.2c-3.6,5.1-7.3,10.2-10.9,15.2c-1.1,1.5-2.2,3.1-3.4,4.6c-2.7,3.8-5.7,7.8-8.6,11.6c-1.8,2.2-4,4.2-6.6,5.7c-2.4,1.5-5,1.8-7.4,0.7c-2.6-0.9-4.4-3.2-5.4-6.2c-1.5-4.4,0.1-8.6,1.6-11.6s3-5.8,4.4-8.6c1.3-2.4,2.7-5,3.9-7.4c1.3-2.6,2.6-5.4,2.3-8.3c-0.1-1.9-0.9-3.4-2.3-4.4c-0.8-0.5-1.8-0.5-3.1,0.1c-3,1.3-5.1,3.8-6.9,5.9c-1.3,1.8-3.1,2.3-4.7,1.3c-1.1-0.7-1.8-1.5-2-2.6c-0.3-0.9,0-1.9,0.5-2.8c3-4.7,6.6-7.8,10.9-9.4c5.3-2,10.1-0.1,13.3,5.1c2.3,3.5,2.8,7.7,1.5,11.8c-1.2,3.8-2.8,7.5-4.3,10.5c-0.9,2.2-2,4.2-3.1,6.3c-1.1,2.2-2.2,4.2-3.1,6.3c-0.5,1.2-0.8,2.7-0.9,4.2v0.4c0,0.1,0.1,0.4,0.3,0.8c0.1-0.1,0.4-0.1,0.5-0.3c0.5-0.5,1.1-1.1,1.6-1.6c1.6-1.6,3.2-3.2,4.4-5.1c2.4-3.6,4.8-7.3,7.4-10.9c2.2-3.2,4.3-6.5,6.5-9.7c2.6-3.6,5.1-7,7.7-10c2.3-2.7,4.6-4,7.1-4.6c2.2-0.4,4.4,0.1,6.2,1.6c1.9,1.6,3.1,3.9,3.4,6.5c0.3,3.4-0.1,6.5-1.2,9.7l-0.7,1.9c-2.2,5.7-4.3,11.4-6.7,17c-2,4.8-4.2,9.6-6.3,14.3s-4.3,9.6-6.3,14.4c-1.2,2.7-1.9,5.5-2.7,8.3c-0.3,0.8-0.4,1.6-0.7,2.3c0,0.1-0.1,0.4-0.1,0.7c0.7-0.4,1.3-0.8,1.9-1.2c4.7-3.5,8.8-7.8,12.7-12.1c6.2-6.7,12.8-14,19.5-20.9c2.6-2.7,5.3-4.6,8.2-5.8c3.1-1.2,6.1-1.1,8.6,0.3c2.4,1.3,4.2,3.8,4.8,6.9c0.7,3,0.1,5.9-0.3,8.1c-1.2,5.4-3.4,10.6-5.5,15.6c-0.5,1.3-1.1,2.7-1.6,3.9c-2.7,6.7-4.7,12-6.6,17.1c-0.3,0.9-0.5,1.9-0.7,3c-0.1,0.5-0.1,1.1-0.3,1.6l0.4,0.1c1.1,0,2.3-0.1,3.2-0.4c3.8-1.5,6.9-4.3,9.8-7c2-1.9,4-3.9,6.1-5.8l0.5-0.5c2.2-2.2,4.2-2.2,6.3,0c1.5,1.5,2.8,2.8,4.2,4.2c0.8,0.9,1.3,2,1.3,3C373.7,275.8,373.3,276.8,372.5,277.6z"/></svg>
