<svg version="1.1" xmlns="http://www.w3.org/2000/svg" x="0px" y="0px" width="640px" height="480px" viewBox="0 0 640 480" enable-background="new 0 0 640 480"><rect fill="#3F729B" width="640" height="480"/><g><path fill="#FFFFFF" d="M241.2,134h157.6c14.9,0,27.2,11,27.2,27.2v157.6c0,16.2-12.3,27.2-27.2,27.2H241.2c-14.9,0-27.2-11-27.2-27.2V161.2C214,145,226.3,134,241.2,134L241.2,134z M368.4,157.6c-5.3,0-9.5,4.3-9.5,9.5v22.9c0,5.3,4.3,9.5,9.5,9.5h24c5.3,0,9.5-4.3,9.5-9.5v-22.9c0-5.3-4.3-9.5-9.5-9.5H368.4L368.4,157.6z M402,223.7h-18.7c1.8,5.7,2.8,11.9,2.8,18.1c0,35.3-29.6,63.9-65.8,63.9c-36.4,0-65.8-28.6-65.8-63.9c0-6.3,1-12.4,2.8-18.1h-19.5v89.5c0,4.6,3.8,8.4,8.4,8.4h147.6c4.6,0,8.4-3.8,8.4-8.4V223.7L402,223.7z M320.1,198.3c-23.6,0-42.5,18.4-42.5,41.3c0,22.9,19.1,41.3,42.5,41.3c23.6,0,42.5-18.4,42.5-41.3C362.7,216.7,343.7,198.3,320.1,198.3z"/></g></svg>