<svg version="1.1" xmlns="http://www.w3.org/2000/svg" xmlns:xlink="http://www.w3.org/1999/xlink" x="0px" y="0px" viewBox="0 0 1792 1792" enable-background="new 0 0 1792 1792" xml:space="preserve"><rect id="XMLID_2_" fill="none" width="1792" height="1792"/><rect id="XMLID_1_" fill="none" width="1792" height="1792"/><g id="XMLID_3_"><path id="XMLID_4_" d="M1327.5,695.6c0,62.5-23.4,111.5-70.3,147c-46.8,35.6-110,53.4-189.4,53.4c-62.8,0-120.1-10.3-171.8-30.8V713.4c59.4,36.8,115.9,55.1,169.4,55.1c57.8,0,86.8-18.4,86.8-55.1c0-12.2-2.8-21.9-8.4-28.8c-5.5-6.9-15.4-14.1-29.4-21.6c-14.1-7.5-38.7-18.2-73.8-32c-50.9-19-87.7-42.2-110.4-69.7S896,497.5,896,452.5c0-58.5,22.7-105.3,68.3-140.5c45.5-35.2,105.7-52.8,180.4-52.8c48.2,0,97.2,8.1,146.9,24.3v144.7c-45.5-27.7-93.7-41.5-144.6-41.5c-48.2,0-72.3,17-72.3,51c0,13,2.5,23.3,7.5,30.8s14,14.9,26.9,22.2c13,7.3,32.3,15.7,58.2,25.2c57.8,21.7,99,46.5,123.5,74.1C1315.3,617.7,1327.5,652.9,1327.5,695.6z"/><path id="XMLID_6_" d="M1792,874.1c-27,14.6-67.7,21.9-122.1,21.9c-128.8,0-193.2-68.6-193.2-205.8V412.2h-96V274h96V143L1659,89.6V274h133v138.2h-133v245.5c0,63.2,24.5,94.9,73.5,94.9c19.3,0,39.2-5.7,59.6-17.2V874.1z"/></g><polygon id="XMLID_12_" points="269,1523 269,896 627,896 627,627 269,627 269,269 717,269 717,0 268.8,0 179.2,0 0,0 0,1792 179.2,1792 268.8,1792 806,1792 806,1523 "/></svg>