<svg width="1792" height="1792" viewBox="0 0 1792 1792" xmlns="http://www.w3.org/2000/svg"><path d="M488.7,1303.3v162.9H325.8v-162.9H488.7z M488.7,325.8v162.9H325.8V325.8H488.7z M1466.2,325.8v162.9h-162.9V325.8H1466.2z M162.9,1627.8h488.7v-487.5H162.9V1627.8z M162.9,651.6h488.7V162.9H162.9V651.6z M1140.4,651.6h488.7V162.9h-488.7V651.6z M814.5,977.5V1792H0V977.5H814.5z M1466.2,1629.1V1792h-162.9v-162.9H1466.2z M1792,1629.1V1792h-162.9v-162.9H1792z M1792,977.5v488.7h-488.7v-162.9h-162.9V1792H977.5V977.5h488.7v162.9h162.9V977.5H1792z M814.5,0v814.5H0V0H814.5z M1792,0v814.5H977.5V0H1792z"/></svg>