<svg version="1.1" xmlns="http://www.w3.org/2000/svg" x="0px" y="0px" width="640px" height="360px" viewBox="0 0 640 360" enable-background="new 0 0 640 360"><rect fill="#D3D3D3" width="640" height="360"/><g><path fill="#969696" d="M218.6,187c0,2.7-0.6,5.2-1.9,7.5c-1.3,2.3-3,4-5.2,5.3c-2.2,1.3-4.7,1.9-7.4,1.9c-4.7,0-8.4-1.7-11.1-5.2c-2.6-3.4-4-8.2-4-14.4c0-4.8,0.8-9,2.3-12.6c1.6-3.6,3.8-6.4,6.7-8.4c2.9-2,6.2-2.9,10-2.9c3.2,0,5.8,0.4,7.6,1.1v7.7c-2.1-1.2-4.5-1.8-7-1.8c-3.1,0-5.6,1.2-7.5,3.6c-1.9,2.4-2.9,5.6-3,9.5h0.2c2-3,4.9-4.5,8.8-4.5c3.5,0,6.2,1.2,8.3,3.6C217.5,180,218.6,183.1,218.6,187z M209.5,187.6c0-4.5-1.8-6.8-5.5-6.8c-1.7,0-3,0.6-4,1.8s-1.5,2.7-1.5,4.6c0,2.1,0.5,3.9,1.6,5.3c1.1,1.4,2.4,2.1,4,2.1c1.6,0,3-0.6,4-1.9C209,191.4,209.5,189.7,209.5,187.6z"/><path fill="#969696" d="M248.6,159v26.5h5.9v6.9h-5.9v8.6h-8.4v-8.6h-18.3v-7.2c3.9-4.4,7.5-8.9,10.7-13.5c3.2-4.6,5.7-8.8,7.5-12.7H248.6z M230.1,185.5h10v-14.7C237.7,175.4,234.3,180.3,230.1,185.5z"/><path fill="#969696" d="M287.9,179.7c0,7.1-1.3,12.5-4,16.3s-6.5,5.7-11.5,5.7c-10,0-15-7-15-21.1c0-7.3,1.4-12.8,4.1-16.6c2.7-3.8,6.6-5.7,11.8-5.7C283,158.3,287.9,165.4,287.9,179.7z M278.5,180c0-9.8-1.9-14.6-5.6-14.6c-4,0-6,5-6,15.1c0,9.5,2,14.2,5.9,14.2C276.6,194.6,278.5,189.8,278.5,180z"/><path fill="#969696" d="M336.3,171l-9.9,14.5l9.8,15.5h-10.7l-5.6-10.4h-0.1l-5.6,10.4h-10.6l10.1-14.9l-9.5-15.1H315l5.5,10.8h0.1l5.6-10.8H336.3z"/><path fill="#969696" d="M381.2,189c0,3.9-1.4,7-4.3,9.3s-6.8,3.4-11.9,3.4c-4.3,0-7.9-0.7-10.6-2.1v-8.1c2.8,2.1,6.1,3.1,9.8,3.1c2.4,0,4.3-0.5,5.6-1.6c1.3-1,1.9-2.4,1.9-4.2c0-1.9-0.8-3.3-2.4-4.3s-3.9-1.5-6.7-1.5h-3.8v-7.1h3.5c5.5,0,8.2-1.8,8.2-5.4c0-3.4-2.1-5.1-6.3-5.1c-2.9,0-5.6,0.9-8.2,2.7v-7.6c2.9-1.5,6.3-2.2,10.3-2.2c4.1,0,7.4,0.9,9.9,2.8s3.8,4.4,3.8,7.6c0,5.5-2.8,8.9-8.3,10.3v0.1c2.9,0.4,5.3,1.4,7,3.2C380.3,184.1,381.2,186.3,381.2,189z"/><path fill="#969696" d="M416.8,187c0,2.7-0.6,5.2-1.9,7.5s-3,4-5.2,5.3s-4.7,1.9-7.4,1.9c-4.7,0-8.4-1.7-11.1-5.2s-4-8.2-4-14.4c0-4.8,0.8-9,2.3-12.6s3.8-6.4,6.7-8.4s6.2-2.9,10-2.9c3.2,0,5.8,0.4,7.6,1.1v7.7c-2.1-1.2-4.5-1.8-7-1.8c-3.1,0-5.6,1.2-7.5,3.6s-2.9,5.6-3,9.5h0.2c2-3,4.9-4.5,8.8-4.5c3.5,0,6.2,1.2,8.3,3.6C415.8,180,416.8,183.1,416.8,187z M407.8,187.6c0-4.5-1.8-6.8-5.5-6.8c-1.7,0-3,0.6-4,1.8s-1.5,2.7-1.5,4.6c0,2.1,0.5,3.9,1.6,5.3s2.4,2.1,4,2.1c1.6,0,3-0.6,4-1.9S407.8,189.7,407.8,187.6z"/><path fill="#969696" d="M451,179.7c0,7.1-1.3,12.5-4,16.3s-6.5,5.7-11.5,5.7c-10,0-15-7-15-21.1c0-7.3,1.4-12.8,4.1-16.6c2.7-3.8,6.6-5.7,11.8-5.7C446.1,158.3,451,165.4,451,179.7z M441.6,180c0-9.8-1.9-14.6-5.6-14.6c-4,0-6,5-6,15.1c0,9.5,2,14.2,5.9,14.2C439.7,194.6,441.6,189.8,441.6,180z"/></g></svg>