<svg version="1.1" xmlns="http://www.w3.org/2000/svg" xmlns:xlink="http://www.w3.org/1999/xlink" x="0px" y="0px" width="48px" height="48px" viewBox="0 0 48 48" enable-background="new 0 0 48 48" xml:space="preserve"><rect fill="#D54848" width="48" height="48"/><path fill="#FFFFFF" d="M29.7,23.6c-0.4,0.4-0.8,0.7-1.1,1.1c-1.7,1.7-3.3,3.5-5.1,5.2c-0.8,0.8-1.7,1.6-2.8,2.1c-0.6,0.3-1.2,0.4-1.8,0.3c-1-0.3-1.6-1.1-1.5-2.3c0.1-1.1,0.4-2.2,0.9-3.2c0.6-1.5,1.4-3,2-4.5c0.8-1.8,1.7-3.6,2.5-5.4c0.3-0.6,0.4-1.2,0.6-1.9c0-0.1,0-0.3,0-0.4c0,0-0.1,0-0.1-0.1c-0.2,0.2-0.4,0.4-0.6,0.6c-0.8,1.2-1.7,2.3-2.5,3.5c-0.9,1.2-1.8,2.5-2.7,3.7c-0.4,0.5-0.9,0.9-1.4,1.2c-1,0.6-2.2,0.1-2.6-1.1c-0.3-0.9,0-1.7,0.4-2.5c0.6-1.2,1.3-2.4,1.9-3.7c0.3-0.6,0.6-1.3,0.6-2c0-0.5-0.2-0.9-0.6-1.2c-0.3-0.2-0.6-0.1-0.9,0c-0.7,0.3-1.2,0.8-1.6,1.4c-0.2,0.3-0.5,0.4-0.8,0.3c-0.3-0.2-0.5-0.5-0.2-0.9c0.6-0.9,1.4-1.7,2.4-2.1c1.2-0.4,2.1,0,2.8,1.1c0.5,0.8,0.6,1.6,0.3,2.5c-0.3,0.8-0.6,1.6-1,2.4c-0.5,1-1,1.9-1.4,2.9c-0.2,0.4-0.2,0.7-0.3,1.1c0,0.1,0.1,0.3,0.2,0.4c0,0,0.3,0,0.4-0.1c0.5-0.5,1-1,1.4-1.6c1.1-1.5,2.1-3.1,3.1-4.7c0.5-0.8,1.1-1.5,1.7-2.3c0.4-0.5,0.9-0.8,1.5-1c0.9-0.2,1.8,0.6,1.9,1.6c0.1,0.7,0,1.4-0.3,2.1c-0.5,1.4-1.1,2.9-1.7,4.3c-0.9,2.2-2,4.3-2.9,6.5c-0.3,0.8-0.5,1.6-0.8,2.5c0,0.2,0,0.3-0.1,0.6c0.3-0.2,0.6-0.3,0.8-0.5c1.1-0.8,2-1.8,2.9-2.8c1.5-1.6,2.9-3.2,4.5-4.8c0.5-0.5,1.1-1,1.8-1.3c1.3-0.5,2.5,0.1,2.7,1.5c0.1,0.6,0.1,1.2-0.1,1.8c-0.3,1.5-1,3-1.6,4.4c-0.5,1.3-1,2.6-1.5,3.9c-0.1,0.3-0.2,0.7-0.2,1.1c0,0.2,0.1,0.3,0.2,0.3c0.3,0,0.6,0,0.9-0.1c0.9-0.4,1.6-1,2.3-1.6c0.5-0.5,1-1,1.5-1.4c0.4-0.4,0.7-0.4,1.1,0c0.3,0.3,0.6,0.6,0.9,0.9c0.3,0.3,0.3,0.7,0,1c-1.3,1.3-2.5,2.5-4.2,3.4c-1.1,0.6-2.2,0.9-3.4,0.5c-1.6-0.5-2.3-1.8-2-3.6c0.3-1.4,0.8-2.7,1.4-4c0.6-1.5,1.3-3,1.9-4.5C29.6,24,29.6,23.8,29.7,23.6C29.7,23.7,29.7,23.7,29.7,23.6z"/></svg>