<svg version="1.1" xmlns="http://www.w3.org/2000/svg" x="0px" y="0px" viewBox="0 0 48 48" enable-background="new 0 0 48 48"><rect fill="#F03B4C" width="48" height="48"></rect><path fill="#191919" d="M31.8,43c-0.5,0-1.2-0.2-1.8-0.4c-2.6-0.9-3.7-2.9-3.2-5.7c0.5-2.2,1.2-4.1,2-6.1c0.5-1.4,1.1-2.6,1.7-4c0.3-0.9,0.8-2,1.1-2.9l0,0c-0.3,0.4-0.7,0.7-1,1.1c-0.9,0.9-1.8,2-2.7,2.9c-1.4,1.6-3,3.3-4.6,4.9c-1.1,1.1-2.5,2.4-4.1,3.2c-1,0.5-2,0.7-2.9,0.4c-1.7-0.5-2.6-1.8-2.5-3.8c0.1-1.6,0.5-3.2,1.4-4.9c0.7-1.5,1.4-2.9,2-4.5c0.3-0.7,0.7-1.5,1-2.2l0.8-1.8c0.9-2,1.9-4.2,2.8-6.3c0.2-0.6,0.5-1.3,0.5-2c0.1-0.2,0.1-0.5,0.2-0.7c-0.1,0.2-0.2,0.2-0.3,0.5c-1.2,1.7-2.3,3.4-3.6,5.1c-0.3,0.6-0.8,1.1-1.1,1.6c-0.9,1.3-1.9,2.6-2.8,4c-0.5,0.8-1.4,1.4-2.1,2c-0.8,0.5-1.7,0.6-2.5,0.2c-0.8-0.4-1.4-1.1-1.8-2c-0.5-1.5,0-2.9,0.5-4c0.5-1.1,1-2,1.4-2.9c0.5-0.8,0.9-1.7,1.4-2.5c0.5-0.9,0.9-1.8,0.8-2.9c0-0.6-0.3-1.1-0.8-1.5c-0.2-0.2-0.5-0.2-1,0c-1,0.5-1.7,1.3-2.3,2c-0.5,0.6-1,0.8-1.6,0.5C6.4,10.1,6.2,9.7,6,9.5C6,9.1,6,8.8,6.3,8.4c1-1.6,2.3-2.6,3.7-3.2c1.7-0.7,3.4,0,4.5,1.7c0.8,1.3,0.9,2.6,0.5,4c-0.5,1.3-0.9,2.5-1.4,3.6c-0.3,0.7-0.7,1.5-1,2.2c-0.3,0.7-0.7,1.5-1,2.2c-0.2,0.5-0.2,0.9-0.3,1.5v0.2c0,0,0,0.2,0.1,0.2c0.1,0,0.1-0.2,0.2-0.2c0.2-0.2,0.3-0.4,0.5-0.6c0.5-0.6,1-1.1,1.4-1.7c0.8-1.3,1.7-2.5,2.5-3.6c0.7-1.1,1.4-2.2,2.1-3.3c0.9-1.3,1.7-2.4,2.6-3.4c0.8-0.9,1.6-1.4,2.3-1.6c0.8-0.2,1.4,0.2,2.1,0.6c0.7,0.6,1,1.4,1.1,2.2c0.1,1.1,0,2.2-0.5,3.3l-0.2,0.7c-0.7,2-1.4,3.9-2.3,5.8c-0.7,1.6-1.4,3.2-2.1,4.9c-0.7,1.6-1.4,3.2-2.1,4.9c-0.3,0.9-0.7,2-0.9,2.9c-0.1,0.2-0.1,0.6-0.2,0.8c0,0.2,0,0.2,0,0.2c0.2-0.2,0.5-0.2,0.7-0.5c1.6-1.1,2.9-2.6,4.3-4.1c2-2.3,4.3-4.8,6.5-7c0.8-0.9,1.8-1.6,2.8-2c1-0.5,2-0.4,2.8,0.2c0.8,0.5,1.4,1.3,1.6,2.3c0.2,1.1,0,2-0.1,2.7c-0.5,1.8-1.1,3.6-1.8,5.2c-0.2,0.5-0.3,0.9-0.5,1.4c-0.9,2.3-1.6,4.1-2.3,5.8c-0.1,0.4-0.1,0.7-0.2,1.1c0,0.2-0.1,0.4-0.1,0.6h0.1c0.3,0,0.8,0,1-0.2c1.2-0.5,2.3-1.5,3.2-2.4c0.7-0.7,1.4-1.4,2-2l0.1-0.2c0.7-0.7,1.4-0.7,2.1,0c0.5,0.5,1,0.9,1.4,1.4c0.3,0.4,0.5,0.7,0.5,1.1c0,0.4-0.1,0.7-0.5,0.9l-0.2,0.2c-1.8,1.8-3.6,3.6-5.9,4.9C34,42.6,32.9,43,31.8,43z"/></svg>
