<svg xmlns="http://www.w3.org/2000/svg"><symbol viewBox="0 0 16 16"><path d="M2.125 4.98a.95.95 0 0 1 .695.288.97.97 0 0 1 .29.71v3.86c0 .27-.098.504-.29.695a.948.948 0 0 1-.695.29c-.27 0-.5-.097-.688-.29a.955.955 0 0 1-.28-.695v-3.86c0-.28.093-.517.28-.71a.927.927 0 0 1 .688-.29zm7.922-3.626a4.35 4.35 0 0 1 1.578 1.25c.416.53.65 1.125.703 1.78H3.672c.052-.655.286-1.25.703-1.78.416-.53.942-.948 1.578-1.25L5.14.198a.148.148 0 0 1-.023-.11.123.123 0 0 1 .055-.094.118.118 0 0 1 .102-.016c.036.012.07.032.1.064l.83 1.203a5.035 5.035 0 0 1 3.593 0l.828-1.203a.235.235 0 0 1 .102-.063.12.12 0 0 1 .102.015c.03.02.048.05.054.086A.203.203 0 0 1 10.86.2l-.813 1.156zM3.687 5.01h8.657v7.062c0 .21-.073.39-.22.54a.708.708 0 0 1-.53.226h-.875v2.14a.96.96 0 0 1-.282.696.923.923 0 0 1-.688.29c-.27 0-.5-.097-.688-.29a.957.957 0 0 1-.28-.695v-2.142H7.265v2.14a.95.95 0 0 1-.29.696.948.948 0 0 1-.694.29.93.93 0 0 1-.68-.29.945.945 0 0 1-.29-.695v-2.142h-.86a.726.726 0 0 1-.538-.227.734.734 0 0 1-.227-.538V5.01zm2.485-1.828c.135 0 .25-.047.344-.14s.14-.204.14-.33c0-.134-.046-.25-.14-.343s-.21-.14-.344-.14c-.136 0-.25.046-.344.14s-.14.208-.14.343c0 .125.047.234.14.328s.208.142.344.142zm3.72 0c.124 0 .233-.047.327-.14s.14-.204.14-.33c0-.134-.047-.25-.14-.343s-.204-.142-.33-.142c-.135 0-.25.047-.343.14a.47.47 0 0 0 0 .673c.094.095.208.142.344.142zm3.983 1.797c.27 0 .5.096.688.288a.98.98 0 0 1 .28.71v3.86a.96.96 0 0 1-.28.695.923.923 0 0 1-.688.29.945.945 0 0 1-.695-.29.943.943 0 0 1-.29-.695v-3.86c0-.28.097-.517.29-.71a.95.95 0 0 1 .695-.29z"/></symbol><symbol viewBox="0 0 16 16"><path d="M13.117 6.602c-.34.65-.508 1.27-.508 1.852 0 .74.196 1.45.593 2.133.396.683.938 1.117 1.625 1.305-.094.323-.227.664-.398 1.023s-.367.703-.586 1.03-.45.634-.695.915c-.246.28-.488.51-.728.688-.21.146-.436.25-.68.313a3.233 3.233 0 0 1-1.438.025 4.497 4.497 0 0 1-.758-.242 4.95 4.95 0 0 0-.672-.242 2.04 2.04 0 0 0-.53-.085c-.116 0-.304.04-.564.117-.26.078-.573.19-.938.336a6.38 6.38 0 0 1-.547.148 2.077 2.077 0 0 1-.422.055c-.323 0-.633-.064-.93-.194a4.11 4.11 0 0 1-.898-.555 8.707 8.707 0 0 1-1.22-1.405 9.09 9.09 0 0 1-.897-1.625 9.436 9.436 0 0 1-.758-3.703c0-.635.096-1.252.29-1.852.19-.6.468-1.13.827-1.594.36-.462.79-.835 1.29-1.116S4.634 3.5 5.25 3.5c.364 0 .69.037.977.11.286.072.555.17.805.296.24.146.46.248.664.305.203.06.414.087.633.087a3.078 3.078 0 0 0 1.156-.235c.47-.177.864-.317 1.188-.422.322-.104.578-.156.766-.156.47 0 .893.076 1.273.227.38.152.72.368 1.023.65.125.124.252.27.383.437.13.167.25.354.366.563-.575.177-1.03.59-1.37 1.242zm-4.945-4.25c.166-.39.396-.773.688-1.148A4.018 4.018 0 0 1 11.172-.03c0 .457-.078.905-.234 1.343s-.39.833-.704 1.187c-.334.375-.69.65-1.07.828-.38.177-.795.266-1.242.266 0-.438.083-.852.25-1.242z"/></symbol><symbol viewBox="0 0 16 16"><path d="M8.125 9.07c.073.262.11.547.11.86 0 .25-.023.482-.07.695a2.26 2.26 0 0 1-.21.586 2.29 2.29 0 0 1-.782.892 2.66 2.66 0 0 1-.516.297 3.52 3.52 0 0 1-.594.202 5.358 5.358 0 0 1-1.297.156H0V2.834h4.64c.23 0 .45.02.665.055.213.038.418.077.618.118.197.042.376.105.538.188.16.083.315.172.462.266.135.093.254.203.36.328.104.125.197.27.28.438.073.145.128.317.165.515.035.198.055.412.055.64 0 .24-.03.465-.086.673-.06.208-.14.395-.242.562a2.198 2.198 0 0 1-.422.453 2.73 2.73 0 0 1-.594.36c.3.094.566.216.797.367.23.15.416.336.563.555.144.22.253.46.327.718zM4.36 6.836c.187 0 .36-.016.522-.047.16-.032.305-.095.43-.19s.22-.207.28-.343c.064-.135.095-.307.095-.516 0-.113-.01-.218-.032-.312a.89.89 0 0 0-.24-.443 1.23 1.23 0 0 0-.18-.148c-.074-.042-.15-.08-.227-.11s-.164-.057-.258-.078a4.372 4.372 0 0 1-.273-.04 1.632 1.632 0 0 0-.29-.024h-2.11v2.25H4.36zm1.61 2.328a1.006 1.006 0 0 0-.314-.42c-.146-.116-.312-.197-.5-.244s-.4-.07-.64-.07H2.078v2.718h2.406c.104 0 .206-.008.305-.023.098-.016.194-.033.288-.055.104-.02.198-.05.28-.086.084-.035.162-.074.235-.117.073-.05.14-.11.204-.18a.953.953 0 0 0 .156-.227c.04-.082.072-.18.094-.29.02-.108.03-.23.03-.366.002-.25-.035-.462-.108-.64zm4.874.547c0 .24.043.493.133.76.088.265.205.466.352.6.144.147.323.257.538.33.213.073.455.108.727.108.197 0 .383-.027.555-.086.172-.057.33-.137.477-.242.135-.094.246-.188.336-.28a.766.766 0 0 0 .18-.392h1.72c-.138.48-.31.865-.517 1.156-.21.293-.46.53-.75.72a3.534 3.534 0 0 1-.94.436 3.84 3.84 0 0 1-1.125.156c-.28 0-.55-.023-.804-.07a3.99 3.99 0 0 1-.71-.195 3.4 3.4 0 0 1-.634-.335 2.938 2.938 0 0 1-.523-.445 2.727 2.727 0 0 1-.415-.53 3.27 3.27 0 0 1-.305-.657 4.314 4.314 0 0 1-.195-2.28c.047-.25.11-.49.195-.72.094-.23.2-.445.32-.648.12-.204.263-.388.43-.555.157-.167.33-.315.524-.445.19-.13.402-.247.633-.352.22-.094.453-.164.703-.21a4.305 4.305 0 0 1 1.633.015 3.244 3.244 0 0 1 1.352.664c.187.156.348.333.484.53.144.2.27.415.374.65.104.233.19.476.266.726a5.184 5.184 0 0 1 .125 1.594h-5.14zm-.438-5.124v-.953h4v.953h-4zm3.47 3.204a1.77 1.77 0 0 0-.298-.47 1.127 1.127 0 0 0-.46-.288 1.97 1.97 0 0 0-.65-.102c-.155 0-.3.013-.43.04-.13.025-.247.064-.35.116a5.105 5.105 0 0 0-.267.188 1.108 1.108 0 0 0-.218.22c-.063.072-.117.147-.164.226s-.082.164-.102.258a1.14 1.14 0 0 0-.063.227c-.012.068-.02.144-.03.227h3.187a2.003 2.003 0 0 0-.155-.642z"/></symbol><symbol viewBox="0 0 16 16"><path d="M9.234 15.97H6.297V8.67H3.844V5.828h2.453V3.734c0-.604.088-1.14.266-1.61.177-.468.427-.86.75-1.18A3.24 3.24 0 0 1 8.47.22c.446-.167.94-.25 1.483-.25a18.475 18.475 0 0 1 2.204.125v2.53H10.64c-.583 0-.963.13-1.14.392-.178.26-.266.594-.266 1v1.813h2.828l-.375 2.844H9.234v7.297z"/></symbol><symbol viewBox="0 0 16 16"><path d="M15.14 5.53c0 1-.138 1.82-.413 2.454-.277.636-.64 1.14-1.094 1.516s-.96.646-1.523.813a9.693 9.693 0 0 1-1.72.344c.19.167.353.41.493.727.14.318.21.717.21 1.195 0 .697-.002 1.393-.007 2.085a183.17 183.17 0 0 0-.008 1.29h-5.14c0-.126-.003-.457-.008-.993s-.008-1.023-.008-1.46c-1.448.312-2.615-.095-3.5-1.22a3.62 3.62 0 0 0-1.156-1.53c-.47-.323-.448-.532.063-.626.52.03 1.05.386 1.593 1.063.47.802 1.016 1.18 1.64 1.132s1.09-.133 1.392-.258c.042-.344.125-.63.25-.86.125-.228.26-.405.406-.53a10.832 10.832 0 0 1-1.71-.36 4.09 4.09 0 0 1-1.523-.82c-.448-.38-.81-.884-1.086-1.515-.275-.63-.413-1.446-.413-2.446 0-.563.096-1.078.29-1.547a4.2 4.2 0 0 1 .788-1.25c-.064-.128-.135-.437-.213-.932-.078-.495.024-1.102.305-1.82.917.04 1.87.4 2.86 1.077.416-.114.843-.203 1.28-.265a9.446 9.446 0 0 1 2.642 0c.437.063.863.15 1.28.266.99-.677 1.942-1.036 2.86-1.078.28.72.382 1.326.304 1.82-.078.495-.148.805-.21.93.332.365.595.78.788 1.25.192.468.29.984.29 1.546zM2.048 10.61a.078.078 0 0 0 0-.095.156.156 0 0 0-.094-.063.142.142 0 0 0-.102-.023c-.036.005-.06.022-.07.054-.01.02-.007.047.01.078s.043.058.085.078c.03.01.065.014.102.008.036-.004.06-.017.07-.04zm.422.468a.126.126 0 0 0 .038-.11.163.163 0 0 0-.07-.108.166.166 0 0 0-.11-.07c-.04-.005-.072.003-.093.023-.03.02-.044.053-.04.094a.213.213 0 0 0 .07.125c.032.03.068.053.11.063.042.01.073.005.094-.017zm.405.594c.042-.02.063-.057.063-.11 0-.05-.016-.098-.047-.14a.538.538 0 0 0-.124-.094c-.042-.02-.078-.02-.11 0-.03.03-.046.07-.046.117s.016.092.047.133a.22.22 0 0 0 .11.102c.04.015.077.013.108-.008zm.563.578c.03-.03.042-.072.03-.125a.284.284 0 0 0-.077-.14.382.382 0 0 0-.155-.08c-.052-.01-.09 0-.11.032-.03.03-.04.073-.03.125.01.053.036.1.078.14.052.054.104.082.156.087.05.005.087-.01.108-.04zm.78.328c.01-.03 0-.067-.03-.11a.29.29 0 0 0-.14-.093c-.064-.02-.118-.023-.165-.008s-.08.045-.102.086c-.01.042.003.084.04.125a.34.34 0 0 0 .133.094c.063.02.12.02.172 0 .052-.02.083-.052.094-.094zm.626.235c.063 0 .117-.016.164-.047s.065-.072.055-.125c0-.04-.02-.074-.063-.1a.3.3 0 0 0-.156-.04.254.254 0 0 0-.156.047c-.042.03-.063.068-.063.11 0 .04.02.077.063.108.04.032.093.048.156.048zm.828-.11a.254.254 0 0 0 .148-.07c.036-.036.05-.075.04-.117-.012-.04-.04-.072-.087-.094a.294.294 0 0 0-.164-.016.267.267 0 0 0-.15.07c-.036.037-.05.076-.038.117.01.042.04.073.086.094a.27.27 0 0 0 .164.016z"/></symbol><symbol viewBox="0 0 16 16"><path d="M5.125 6.992h4.827c.082.448.113.904.094 1.367-.02.463-.094.913-.22 1.35a5.208 5.208 0 0 1-.515 1.157 4.45 4.45 0 0 1-.78.97c-.304.27-.632.5-.985.687-.355.188-.73.323-1.125.406a5.537 5.537 0 0 1-1.313.156c-.45 0-.888-.057-1.314-.172a5.35 5.35 0 0 1-.977-.383 5.03 5.03 0 0 1-.884-.57 4.974 4.974 0 0 1-1.39-1.702 4.898 4.898 0 0 1-.5-1.625 5.45 5.45 0 0 1 .047-1.688c.052-.23.114-.45.188-.664.074-.212.162-.423.267-.632.29-.593.692-1.11 1.203-1.554a5.18 5.18 0 0 1 1.703-.992 5.177 5.177 0 0 1 1.727-.274 5.218 5.218 0 0 1 1.727.305c.3.115.593.258.874.43s.542.373.782.602l-.25.25-.25.25c-.156.155-.316.312-.476.468-.162.156-.32.313-.477.47a2.858 2.858 0 0 0-1.094-.642A3.157 3.157 0 0 0 4.5 4.898a2.96 2.96 0 0 0-.83.314c-.26.147-.494.324-.702.532a3.095 3.095 0 0 0-.734 1.22 2.846 2.846 0 0 0-.17.99c0 .35.05.68.155.993.114.323.273.62.477.89.203.272.44.5.71.69.168.124.347.228.54.312a2.944 2.944 0 0 0 1.21.243 4.52 4.52 0 0 0 .61-.055c.197-.03.393-.086.586-.164.192-.077.372-.173.54-.288a2.368 2.368 0 0 0 1.032-1.578H5.126v-1-1.002zM16 8.382h-1.75v1.75h-1.28v-1.75h-1.767v-1.28h1.766v-1.75h1.28v1.75H16v1.28z"/></symbol><symbol viewBox="0 0 16 16"><path d="M15.984 1.64V14.16c0 .46-.156.86-.47 1.203s-.692.547-1.14.61H1.812c-.448 0-.847-.152-1.195-.454a1.694 1.694 0 0 1-.602-1.11A.835.835 0 0 1 0 14.25v-.156-1.53-1.532-1.53-1.517-1.53-1.532-1.53-1.534C0 1.39.138.986.414.647A1.856 1.856 0 0 1 1.516 0a.87.87 0 0 1 .164-.016h.164c1.02-.01 2.044-.016 3.07-.016H14.124c.48 0 .896.16 1.25.477.355.318.558.717.61 1.196zm-1.906 5.173v-.008-.102H12.75c.125.552.174 1.068.148 1.547-.025.48-.133.964-.32 1.453-.188.49-.436.933-.742 1.328a4.69 4.69 0 0 1-1.117 1.032c-.386.26-.798.46-1.235.602s-.883.217-1.336.227a5.16 5.16 0 0 1-1.352-.147 4.736 4.736 0 0 1-1.266-.508 4.667 4.667 0 0 1-1.094-.86 5.082 5.082 0 0 1-.797-1.124 4.663 4.663 0 0 1-.554-1.71 5.173 5.173 0 0 1 .133-1.837H1.765v6.781a.61.61 0 0 0 .188.46c.125.12.28.18.47.18h11.061c.188 0 .338-.06.453-.18a.636.636 0 0 0 .17-.46c0-.552 0-1.106-.007-1.664-.006-.557-.008-1.114-.008-1.672 0-.557-.002-1.11-.008-1.664-.007-.55-.01-1.11-.01-1.67zM7.984 4.906c-.427 0-.825.08-1.195.242a3.24 3.24 0 0 0-.978.656 3.056 3.056 0 0 0 0 4.345c.282.275.607.494.978.655.37.162.768.242 1.195.242a3.092 3.092 0 0 0 2.18-.898c.275-.275.494-.602.656-.977s.243-.776.243-1.203c0-.418-.08-.814-.242-1.19s-.38-.7-.655-.976a3.126 3.126 0 0 0-.977-.656 3.018 3.018 0 0 0-1.204-.242zm3.08-2.468v1.844c0 .177.06.326.18.445.118.12.267.18.444.18h1.828a.6.6 0 0 0 .445-.18c.12-.12.18-.268.18-.445v-.914-.914a.608.608 0 0 0-.18-.445.602.602 0 0 0-.444-.18h-1.828a.618.618 0 0 0-.445.17.577.577 0 0 0-.18.438z"/></symbol><symbol viewBox="0 0 16 16"><path d="M2.68 3.734a1.9 1.9 0 0 1-.742.14c-.27 0-.52-.046-.742-.14a2.07 2.07 0 0 1-.633-.42 1.883 1.883 0 0 1-.422-.626c-.093-.23-.14-.48-.14-.75 0-.26.047-.505.14-.734C.236.974.376.766.564.58.76.39.973.247 1.196.15c.223-.1.47-.15.742-.15.27 0 .518.05.742.148.224.1.435.242.633.43.187.188.328.396.42.625.095.23.142.474.142.734 0 .27-.047.52-.14.75a1.89 1.89 0 0 1-.422.626c-.2.187-.41.328-.633.42zm1.086 11.782a.37.37 0 0 1-.03.148.712.712 0 0 1-.08.133c-.04.04-.085.07-.132.086s-.102.023-.164.023H.516c-.063 0-.117-.008-.164-.023s-.09-.045-.133-.086a.662.662 0 0 1-.08-.133.36.36 0 0 1-.03-.148V5.438c0-.052.01-.102.03-.148a.712.712 0 0 1 .08-.133.416.416 0 0 1 .132-.094.4.4 0 0 1 .164-.03H3.36c.063 0 .117.01.164.03a.45.45 0 0 1 .132.093c.03.042.057.086.078.133a.36.36 0 0 1 .03.147v10.08zm7.757-7.64a2.108 2.108 0 0 0-.68-.095c-.334 0-.62.05-.86.15-.24.098-.427.247-.562.444a1.966 1.966 0 0 0-.32.72c-.067.28-.1.6-.1.953v5.47a.37.37 0 0 1-.03.147.463.463 0 0 1-.095.133.242.242 0 0 1-.125.086.53.53 0 0 1-.156.023h-2.86c-.052 0-.102-.008-.148-.023s-.09-.045-.133-.086a.444.444 0 0 1-.094-.133.36.36 0 0 1-.032-.148V5.438c0-.052.01-.102.03-.148a.436.436 0 0 1 .095-.134.444.444 0 0 1 .133-.094.357.357 0 0 1 .148-.03H8.5c.052 0 .1.004.14.015a.36.36 0 0 1 .11.047.29.29 0 0 1 .078.078c.02.03.036.073.047.125.01.052.018.097.023.133a.697.697 0 0 1 .008.086v.25a3.623 3.623 0 0 1 1.258-.75 4.8 4.8 0 0 1 1.602-.25c.656 0 1.244.083 1.766.25.52.167.97.412 1.344.734.375.333.656.748.844 1.242.186.495.28 1.066.28 1.71V15.5c0 .063-.01.117-.03.164a.463.463 0 0 1-.095.133c-.042.04-.086.07-.133.086s-.097.023-.148.023h-2.922c-.053 0-.102-.008-.148-.023s-.092-.045-.133-.086a.444.444 0 0 1-.093-.133.4.4 0 0 1-.03-.164V9.375c0-.28-.027-.52-.08-.72a1.43 1.43 0 0 0-.233-.5.955.955 0 0 0-.43-.28z"/></symbol><symbol viewBox="0 0 16 16"><path d="M12.672 8.57c.197.397.195.72-.008.97s-.56.536-1.07.858c-.428.28-.906.482-1.438.602-.53.12-.99.2-1.375.242l3.032 3.03a.91.91 0 0 1 .28.665.856.856 0 0 1-.28.648l-.11.11a.858.858 0 0 1-.647.28.908.908 0 0 1-.664-.28l-1.077-1.08c-.417-.415-.85-.847-1.297-1.296l-2.39 2.374a.865.865 0 0 1-.657.28.867.867 0 0 1-.657-.28l-.11-.11a.882.882 0 0 1-.265-.647c0-.254.088-.477.266-.664.302-.3.66-.66 1.078-1.078l1.313-1.313.64-.64a9.632 9.632 0 0 1-1.382-.235 4.42 4.42 0 0 1-1.445-.61c-.51-.32-.867-.608-1.07-.858s-.208-.573-.01-.97c.114-.228.323-.4.625-.515.302-.114.66-.005 1.078.328.574.45 1.564.75 2.97.906 1.406-.157 2.396-.46 2.97-.907.415-.333.774-.442 1.077-.328.302.115.51.287.625.516zM8 8.07c-.563 0-1.09-.105-1.578-.32a4.127 4.127 0 0 1-1.28-.867 4.094 4.094 0 0 1-.87-1.29 3.926 3.926 0 0 1-.32-1.57c0-.562.107-1.087.32-1.577.214-.49.503-.92.868-1.29C5.504.787 5.932.5 6.42.29 6.91.082 7.44-.023 8-.023S9.088.082 9.578.29c.49.208.916.498 1.28.867.365.37.654.8.868 1.29.213.49.32 1.015.32 1.577 0 .552-.107 1.076-.32 1.57a4.108 4.108 0 0 1-.867 1.29 4.118 4.118 0 0 1-1.282.866c-.49.214-1.015.32-1.578.32zm0-6.046c-.553 0-1.023.195-1.414.586S6 3.472 6 4.024a1.9 1.9 0 0 0 .586 1.406c.39.386.86.578 1.414.578.552 0 1.023-.192 1.414-.578A1.9 1.9 0 0 0 10 4.024C10 3.472 9.805 3 9.414 2.61S8.552 2.024 8 2.024z"/></symbol><symbol viewBox="0 0 16 16"><path d="M16 7.82c0 .333-.092.633-.273.898-.183.266-.42.456-.71.57.02.115.038.23.054.344a2.6 2.6 0 0 1 .024.36c0 .635-.188 1.236-.563 1.804-.374.568-.885 1.063-1.53 1.484-.646.422-1.4.753-2.266.992-.865.24-1.787.36-2.766.36-.99 0-1.917-.12-2.78-.36-.866-.24-1.62-.57-2.267-.992-.645-.422-1.153-.916-1.522-1.484A3.248 3.248 0 0 1 .843 9.99c0-.124.008-.246.023-.366.016-.12.034-.242.055-.367a1.59 1.59 0 0 1-.662-.57A1.516 1.516 0 0 1 0 7.82c0-.427.153-.794.46-1.102.308-.307.675-.46 1.103-.46.24 0 .463.05.672.147.207.1.385.24.53.415.303-.22.636-.414 1-.586a9.29 9.29 0 0 1 2.453-.758c.45-.07.912-.113 1.39-.123l1.33-3.89a.26.26 0 0 1 .132-.165.273.273 0 0 1 .21-.023l3.142.734c.02.01.04.02.055.023a.1.1 0 0 1 .04.024 1.19 1.19 0 0 1 .444-.53c.204-.136.43-.204.68-.204.345 0 .64.12.884.36s.367.53.367.874-.122.638-.366.883c-.245.245-.54.367-.883.367a1.18 1.18 0 0 1-.858-.352 1.2 1.2 0 0 1-.375-.852h-.055a.123.123 0 0 1-.055-.016l-2.89-.67-1.173 3.422c.49.02.966.068 1.43.14a9.57 9.57 0 0 1 1.328.306c.422.13.82.284 1.195.46.375.178.72.38 1.03.61.136-.188.31-.333.524-.438.214-.104.446-.156.696-.156.427 0 .794.154 1.102.46.308.308.462.676.462 1.102zM4.328 9.086c0 .313.114.58.344.805.23.226.505.337.828.337.313 0 .58-.11.805-.336.224-.223.336-.49.336-.804s-.112-.586-.335-.82a1.072 1.072 0 0 0-.805-.352c-.323 0-.6.117-.828.352-.23.234-.344.507-.344.82zm6.266 3.172a.168.168 0 0 0 .047-.125c0-.052-.015-.1-.046-.14-.042-.032-.086-.048-.133-.048s-.09.016-.132.047c-.23.24-.537.414-.922.523-.386.11-.86.164-1.422.164-.542 0-1.005-.056-1.39-.165s-.694-.283-.923-.523c-.04-.03-.085-.047-.132-.047s-.09.016-.133.047a.232.232 0 0 0-.047.14c0 .054.016.095.047.126.27.27.62.472 1.047.602.428.13.948.195 1.564.195.594 0 1.104-.064 1.53-.195a2.48 2.48 0 0 0 1.048-.602zm-.078-2.03c.322 0 .596-.112.82-.337.224-.223.336-.49.336-.804s-.112-.586-.336-.82a1.095 1.095 0 0 0-.82-.352c-.313 0-.584.117-.813.352-.23.234-.344.507-.344.82s.113.58.343.805c.23.225.5.337.813.337z"/></symbol><symbol viewBox="0 0 16 16"><path d="M.03 3.047V-.03c2.2 0 4.267.42 6.204 1.265a16.244 16.244 0 0 1 5.07 3.438A16.195 16.195 0 0 1 14.72 9.76c.83 1.942 1.25 4.013 1.25 6.21h-3.064c0-1.78-.34-3.455-1.016-5.023a13.263 13.263 0 0 0-2.758-4.11 12.885 12.885 0 0 0-4.086-2.774C3.484 3.386 1.812 3.047.03 3.047zm0 5.437V5.406c1.45 0 2.814.28 4.095.836A10.693 10.693 0 0 1 7.47 8.508c.946.953 1.696 2.07 2.25 3.352.55 1.28.827 2.65.827 4.11H7.484c0-.5-.047-.993-.14-1.478s-.235-.95-.423-1.398a7.494 7.494 0 0 0-1.626-2.422 6.984 6.984 0 0 0-1.124-.938c-.406-.27-.833-.5-1.28-.688a7.163 7.163 0 0 0-1.39-.42 7.62 7.62 0 0 0-1.47-.142zm4.25 5.344c0-.583-.207-1.083-.624-1.5a2.05 2.05 0 0 0-1.5-.625 2.05 2.05 0 0 0-1.5.625 2.046 2.046 0 0 0-.625 1.5c0 .594.21 1.097.626 1.508.417.41.917.617 1.5.617a2.06 2.06 0 0 0 1.5-.617 2.04 2.04 0 0 0 .625-1.508z"/></symbol><symbol viewBox="0 0 16 16"><path d="M15.438 9.672a4.342 4.342 0 0 1 .453 1.938c0 .604-.115 1.172-.344 1.703-.23.53-.542.995-.938 1.39-.397.397-.86.706-1.392.93a4.3 4.3 0 0 1-1.688.337c-.375 0-.737-.045-1.086-.133a4.13 4.13 0 0 1-.977-.383 7.71 7.71 0 0 1-1.39.125 7.37 7.37 0 0 1-2.924-.586 7.53 7.53 0 0 1-2.398-1.61 7.522 7.522 0 0 1-1.61-2.39 7.35 7.35 0 0 1-.585-2.93c0-.26.014-.518.04-.773.026-.255.065-.502.117-.742A4.265 4.265 0 0 1 .11 4.344c0-.604.114-1.172.344-1.703.23-.53.542-.994.938-1.39.396-.396.86-.708 1.39-.937A4.22 4.22 0 0 1 4.47-.03c.426 0 .837.06 1.233.18.396.12.76.283 1.094.49.208-.03.42-.057.633-.077.213-.02.43-.03.648-.03 1.04 0 2.02.197 2.938.593a7.57 7.57 0 0 1 2.39 1.617 7.737 7.737 0 0 1 1.61 2.39c.396.913.594 1.89.594 2.93 0 .272-.016.543-.047.814-.032.27-.074.535-.125.795zm-3.547 1.97a2.965 2.965 0 0 0 .516-1.688c0-.26-.025-.5-.077-.72a2.834 2.834 0 0 0-.22-.61 2.837 2.837 0 0 0-.367-.49 2.324 2.324 0 0 0-.492-.4 4.965 4.965 0 0 0-.585-.32c-.214-.098-.445-.19-.695-.272-.25-.074-.515-.147-.79-.22a45.333 45.333 0 0 0-.867-.22c-.25-.05-.46-.098-.633-.14a8.504 8.504 0 0 1-.414-.11 5.19 5.19 0 0 1-.305-.1c-.1-.036-.2-.08-.304-.133a1.18 1.18 0 0 1-.25-.15 1.434 1.434 0 0 1-.203-.195.904.904 0 0 1-.1-.195.657.657 0 0 1-.04-.242c0-.135.04-.263.117-.383.078-.12.195-.23.352-.336.156-.105.344-.183.563-.235a3.18 3.18 0 0 1 .734-.078c.29 0 .54.023.75.07.207.047.38.117.515.21.125.105.244.225.36.36.113.136.218.297.312.484.082.137.16.254.233.353.072.1.14.18.203.242.083.063.18.112.29.148.108.037.23.055.366.055.155 0 .298-.028.43-.086A.977.977 0 0 0 11.624 6c.104-.104.182-.216.234-.336a.95.95 0 0 0 .077-.383c0-.145-.02-.288-.055-.43a1.794 1.794 0 0 0-.18-.43c-.073-.145-.172-.288-.297-.43s-.27-.272-.438-.397a3.123 3.123 0 0 0-.547-.344 5.27 5.27 0 0 0-.688-.282 5.263 5.263 0 0 0-.813-.164 7.922 7.922 0 0 0-.95-.054c-.418 0-.812.03-1.18.086-.37.058-.712.144-1.024.258a3.592 3.592 0 0 0-.836.43c-.245.17-.45.367-.617.585a2.2 2.2 0 0 0-.39.71 2.563 2.563 0 0 0-.126.805c0 .302.042.578.125.828.083.25.203.48.36.688.155.2.343.376.562.532s.463.292.734.406c.26.115.557.222.89.32.334.1.693.19 1.08.273.29.064.55.124.78.18.23.06.427.113.594.165.166.053.317.115.453.188.135.073.255.156.36.25.093.094.163.2.21.32.047.12.07.253.07.398 0 .19-.045.36-.133.517-.09.156-.227.297-.414.422-.198.135-.422.233-.672.296s-.53.094-.843.094a3.69 3.69 0 0 1-.617-.047 1.864 1.864 0 0 1-.844-.36 1.44 1.44 0 0 1-.273-.266 4.19 4.19 0 0 1-.422-.764 2.393 2.393 0 0 0-.204-.383c-.073-.11-.156-.2-.25-.273a.844.844 0 0 0-.297-.165 1.19 1.19 0 0 0-.36-.054c-.155 0-.3.023-.43.07-.13.047-.247.117-.35.21a1.13 1.13 0 0 0-.235.33.938.938 0 0 0-.078.39c0 .22.04.443.117.672.08.23.2.46.368.688.156.23.338.436.547.617.208.183.438.342.688.477a4.54 4.54 0 0 0 1.203.422c.447.092.942.14 1.484.14.447 0 .87-.034 1.266-.103.396-.066.76-.168 1.094-.304.333-.135.627-.302.883-.5.254-.196.47-.415.648-.655z"/></symbol><symbol viewBox="0 0 16 16"><path d="M0 10.508V8.586h.313v1.922H0zm.797.64v-3.03h.328v3.03H.797zm.64.157V7.79h.33v3.515h-.33zm.64.172V7.945h.33v3.53h-.33zm.798 0v-4.64h.328v4.64h-.328zm.64 0V6.195h.33v5.28h-.33zm.798 0v-5.61h.328v5.61h-.327zm.64 0V5.71h.328v5.767h-.327zm.813 0v-5.61h.313v5.61h-.314zm.64 0V6.04h.313v5.437h-.314zm.64 0v-6.08h.314v6.08h-.313zm.798 0V4.914h.313v6.563h-.313zm3.437-.047H8.548a.314.314 0 0 1-.164-.078.2.2 0 0 1-.07-.156v-6.25a.22.22 0 0 1 .047-.148c.03-.036.088-.065.172-.086a3.542 3.542 0 0 1 1.25-.235c.458 0 .89.08 1.297.242.405.16.762.385 1.07.67.306.288.56.624.757 1.01.197.385.317.8.36 1.25.113-.053.235-.092.366-.118.13-.026.263-.04.398-.04a1.9 1.9 0 0 1 1.392.58c.385.384.578.847.578 1.39a1.91 1.91 0 0 1-.57 1.39c-.38.386-.847.578-1.398.578h-2.75z"/></symbol><symbol viewBox="0 0 16 16"><path d="M14.367 4.9c.005.072.008.145.008.218 0 1.083-.203 2.18-.61 3.29a9.363 9.363 0 0 1-1.796 3.006c-.793.896-1.77 1.63-2.93 2.195-1.163.567-2.5.85-4.01.85a9.43 9.43 0 0 1-2.664-.39 8.455 8.455 0 0 1-1.226-.47A10.712 10.712 0 0 1 0 12.978c.125.02.252.035.383.04.13.005.263.007.398.007.772 0 1.503-.125 2.196-.375a6.84 6.84 0 0 0 1.883-1.032 3.136 3.136 0 0 1-1.915-.656 3.23 3.23 0 0 1-1.148-1.625 2.723 2.723 0 0 0 .61.063c.156 0 .305-.01.445-.03.14-.02.284-.048.43-.08A3.275 3.275 0 0 1 1.4 8.16a3.143 3.143 0 0 1-.76-2.09V6.05v-.023c.22.125.454.222.704.29.25.067.51.106.78.116A3.285 3.285 0 0 1 .673 3.697a3.406 3.406 0 0 1 .437-1.64c.405.49.858.938 1.358 1.344s1.036.758 1.61 1.055c.572.297 1.18.534 1.82.71.64.178 1.298.282 1.976.314-.02-.117-.038-.237-.054-.362s-.023-.255-.023-.39a3.308 3.308 0 0 1 2-3.023 3.177 3.177 0 0 1 1.28-.26c.47 0 .912.095 1.33.282.415.188.77.443 1.062.766a6.324 6.324 0 0 0 1.085-.313 7.18 7.18 0 0 0 1.008-.484c-.125.375-.313.72-.563 1.03s-.547.574-.89.782c.332-.042.657-.106.976-.195.317-.088.622-.195.914-.32a6.93 6.93 0 0 1-.742.914c-.276.287-.576.55-.898.79 0 .06 0 .13.007.202z"/></symbol><symbol viewBox="0 0 16 16"><path d="M9.766 4.594c-.197.047-.4.112-.61.195.198-.647.44-1.21.728-1.69.287-.478.617-.874.992-1.187s.797-.542 1.266-.688c.47-.146.98-.208 1.53-.188.823.02 1.43.297 1.814.828s.555 1.32.514 2.362c-.02.396-.104.823-.25 1.28-.146.46-.354.957-.625 1.493a16.83 16.83 0 0 1-1.008 1.71c-.4.605-.86 1.246-1.383 1.923-.553.71-1.078 1.328-1.578 1.86s-.98.974-1.438 1.327c-.46.354-.9.617-1.32.79s-.82.257-1.196.257c-.458 0-.885-.213-1.28-.64-.397-.428-.756-1.073-1.08-1.94-.218-.79-.434-1.58-.647-2.366-.214-.785-.43-1.574-.648-2.366-.24-.864-.487-1.51-.742-1.937-.256-.427-.52-.64-.79-.64-.062 0-.197.063-.405.188-.21.124-.496.312-.86.562L0 4.757c.396-.353.79-.702 1.18-1.046s.773-.69 1.148-1.046c.53-.448.995-.792 1.39-1.03.397-.24.725-.376.985-.407.625-.052 1.13.133 1.516.555.384.42.645 1.09.78 2.007.156.98.29 1.775.398 2.39.11.615.195 1.042.258 1.28.178.814.365 1.423.563 1.83s.405.608.624.608c.167 0 .375-.133.625-.398s.54-.66.874-1.18c.334-.53.592-.997.773-1.398.182-.4.283-.742.305-1.023.053-.46-.014-.803-.195-1.032-.182-.23-.477-.344-.883-.344-.188 0-.38.023-.578.07z"/></symbol><symbol viewBox="0 0 16 16"><path d="M5.6 9.1c2 0 4.7-.5 4.7 2 0 2.3-2.7 2-4.7 2v-4zm0-6.2c1.6 0 3.7-.3 3.6 1.7 0 2-1.9 1.7-3.6 1.7V2.9zm5.5 4.3c.1-.1.3-.2.4-.3 1-.6 1.7-1.6 1.8-2.8.2-1.8-.7-2.9-1.8-3.4-1.2-.7-3-.7-4.6-.7H1.6v16h6.2c2.1 0 3.3-.2 4.9-1.3 1.1-.8 1.9-2.5 1.6-4.5-.2-1.3-1.1-2.1-2.1-2.6-.1-.1-1-.4-1.1-.4z"/></symbol><symbol viewBox="0 0 16 16"><path d="M.82 3.797C.546 3.53.3 3.357.08 3.274L0 3.244v-.58l.047-.015H4.11v.561c-.27.033-.53.12-.774.26-.245.14-.32.362-.226.663.25.573.5 1.144.75 1.71.25.57.495 1.14.734 1.712a125.36 125.36 0 0 0 1.485 3.42l1.733-3.25a33.374 33.374 0 0 1-.922-2.068 17.992 17.992 0 0 0-.983-2.04c-.115-.197-.31-.314-.586-.35a8.94 8.94 0 0 0-.757-.07v-.532l3.843.015.016.516c-.178.02-.346.065-.508.133-.162.066-.232.205-.21.413L8.796 6.15c.178-.386.36-.767.555-1.142s.367-.76.523-1.156c.072-.313-.02-.5-.28-.563s-.5-.1-.72-.11l-.016-.5 3.437-.016v.516a2.69 2.69 0 0 0-.71.156 1.17 1.17 0 0 0-.54.39c-.334.522-.633 1.07-.898 1.65s-.535 1.148-.806 1.71c.26.604.525 1.208.797 1.813.272.604.538 1.186.798 1.75L13.86 3.9a.912.912 0 0 0-.445-.478 3.13 3.13 0 0 0-.634-.226l-.03-.547 3.25.03v.53c-.072.012-.143.027-.21.048a2.11 2.11 0 0 0-.212.078c-.125.063-.244.148-.36.258s-.212.237-.296.383l-4.03 9.28h-.673L8.296 8.744 5.97 13.258H5.28a40.89 40.89 0 0 1-.97-2.148c-.3-.723-.6-1.447-.897-2.17-.297-.726-.602-1.447-.915-2.166s-.646-1.427-1-2.125a3.98 3.98 0 0 0-.68-.853z"/></symbol><symbol viewBox="0 0 16 16"><path d="M.008 2.203l6.578-.953v6.422h-6.61l.032-5.47zm-.03 6.266h6.608v6.17l-6.578-.858-.03-5.313zM16.022-.048v7.72H7.227V1.14l8.796-1.187zM7.227 8.47h8.797v7.468l-8.797-1.203V8.47z"/></symbol><symbol viewBox="0 0 16 16"><path d="M8-.03c1.104 0 2.14.21 3.11.632s1.813.995 2.538 1.72a8.14 8.14 0 0 1 1.72 2.546 7.71 7.71 0 0 1 .632 3.1c0 1.105-.21 2.145-.633 3.118a8.032 8.032 0 0 1-4.258 4.258A7.796 7.796 0 0 1 8 15.97c-1.104 0-2.14-.21-3.11-.626s-1.814-.986-2.538-1.71a8.128 8.128 0 0 1-1.72-2.548A7.755 7.755 0 0 1 0 7.97C0 6.874.21 5.84.633 4.866a8.134 8.134 0 0 1 1.72-2.547C3.075 1.596 3.922 1.023 4.89.6S6.897-.03 8-.03zm-7.187 8c0 .718.1 1.403.297 2.054.198.65.474 1.258.828 1.82.354.563.78 1.065 1.28 1.508.5.443 1.048.81 1.642 1.102L1.438 5.047c-.21.448-.365.917-.47 1.406-.104.49-.155.995-.155 1.516zm8.17-3.36l2.61 7.718.72-2.39c.155-.5.285-.936.39-1.306.104-.37.156-.71.156-1.023 0-.44-.066-.818-.196-1.142a7.596 7.596 0 0 0-.398-.844c-.188-.292-.352-.57-.492-.836s-.21-.55-.21-.852c0-.323.11-.614.335-.875.223-.26.512-.39.866-.39h.094a7.68 7.68 0 0 0-1.04-.79 6.97 6.97 0 0 0-1.17-.593A7.875 7.875 0 0 0 9.366.914 6.995 6.995 0 0 0 8 .78c-.625 0-1.23.08-1.813.235-.583.157-1.132.376-1.648.657s-.99.623-1.423 1.023c-.433.4-.81.847-1.133 1.336h.47c.374 0 1.015-.03 1.92-.093.19-.01.29.08.306.273.016.193-.07.3-.258.32-.334.043-.61.07-.828.08l2.625 7.78L7.78 7.67l-1.11-3.06a9.665 9.665 0 0 1-.766-.08c-.188-.01-.273-.113-.258-.312.016-.198.117-.292.305-.28.917.062 1.547.093 1.89.093.386 0 1.026-.03 1.923-.093.197-.01.305.08.32.273.016.193-.076.3-.273.32-.334.043-.61.07-.83.08zM8 15.17c.416 0 .825-.037 1.227-.11.4-.07.79-.17 1.164-.296a.836.836 0 0 0-.03-.055.092.092 0 0 1-.016-.054L8.124 8.61 5.97 14.874c.322.094.652.166.99.22A6.83 6.83 0 0 0 8 15.17zm3.61-.984a7.19 7.19 0 0 0 3.32-4.297 7.094 7.094 0 0 0 .258-1.922 7.114 7.114 0 0 0-.875-3.44l.03.353c.01.12.017.248.017.383 0 .365-.04.758-.117 1.18s-.222.888-.43 1.398l-2.204 6.344z"/></symbol><symbol viewBox="0 0 16 16"><path d="M14.648 5.164c-.443.094-.758.162-.945.203-.104.03-.385.21-.844.54s-.946.702-1.462 1.124-.992.837-1.43 1.243-.688.698-.75.875c-.03.125-.052.277-.062.454-.01.178-.016.36-.016.547l-.03.577c0 .21.02.46.062.75.04.292.078.526.11.703.124.03.513.042 1.163.03.65-.01 1.06 0 1.227.032l-.03.75c-.085-.01-.274-.016-.57-.016H7.687c-.334 0-.91.01-1.734.03-.823.022-1.4.027-1.734.017l.125-.703c.177-.02.544-.03 1.102-.03.557 0 .92-.084 1.086-.25a.52.52 0 0 0 .117-.376 38.556 38.556 0 0 1-.008-.984v-.484c0-.104-.003-.252-.008-.445a7.892 7.892 0 0 0-.04-.586c-.042-.104-.25-.406-.625-.906s-.805-1.044-1.29-1.633c-.484-.588-.96-1.148-1.43-1.68s-.808-.88-1.016-1.047c-.124-.04-.476-.096-1.054-.164A15.347 15.347 0 0 1 .016 3.57L0 2.93c.094-.052.51-.063 1.25-.03.74.03 1.53.03 2.375 0a51.416 51.416 0 0 1 3.383 0c.318.01.513.02.586.03l-.078.562c-.166.042-.55.076-1.148.102-.6.026-1.003.07-1.21.133.27.396.572.815.905 1.258.333.443.66.87.976 1.28.317.413.608.79.874 1.134s.467.614.602.812c.072-.104.27-.286.594-.547.322-.26.664-.542 1.023-.844.36-.3.688-.593.984-.874s.455-.5.477-.656c-.21-.042-.57-.102-1.086-.18s-.826-.117-.93-.117l-.14-.72c.188-.03.672-.04 1.453-.023s1.417.023 1.907.023h1.727c.725 0 1.216.016 1.476.047l-.47.672c-.145.02-.438.078-.882.172z"/></symbol><symbol viewBox="0 0 16 16"><path d="M15.844 4.758C15.947 5.83 16 6.69 16 7.336v1.22c0 .645-.053 1.51-.156 2.593-.188.812-.402 1.338-.64 1.577-.304.323-.608.514-.915.57-.31.058-.54.097-.696.117-.553.042-1.156.073-1.813.094-.655.02-1.263.037-1.82.047-.558.01-1.21.02-1.96.03a148.16 148.16 0 0 1-4.047-.093 24.592 24.592 0 0 1-1.39-.078 39.94 39.94 0 0 0-.79-.125c-.35-.053-.675-.24-.977-.564-.24-.24-.453-.766-.64-1.578C.05 10.065 0 9.2 0 8.555v-1.22C0 6.69.05 5.832.156 4.76c.188-.823.4-1.354.64-1.594.303-.323.607-.513.915-.57.308-.057.54-.09.696-.102a41.53 41.53 0 0 1 1.813-.094c.655-.02 1.262-.036 1.82-.047.556-.01 1.21-.02 1.96-.03.75.01 1.402.02 1.96.03.558.012 1.165.027 1.82.048.657.02 1.26.052 1.814.094.156.01.387.044.695.102.306.058.61.248.913.57.238.24.453.77.64 1.594zm-5.688 3.328l.53-.28-4.327-2.25v4.483l3.796-1.954z"/></symbol></svg>