<svg xmlns="http://www.w3.org/2000/svg" xmlns:xlink="http://www.w3.org/1999/xlink"><symbol viewBox="0 0 16 16" id="englishextra-ui-icons-alert"><path d="M7.5 0L15 15H0L7.5 0zm0 2.234L1.617 14h11.766L7.5 2.234zM7 6h1v5H7V6zm0 7v-1h1v1H7z"/></symbol><symbol viewBox="0 0 16 16" id="englishextra-ui-icons-angle-down"><path d="M.195 5.14l.945-.944L8 11.056l6.86-6.86.945.945L8 12.946.195 5.14z"/></symbol><symbol viewBox="0 0 16 16" id="englishextra-ui-icons-angle-down-circle"><path d="M1 7.96c0-.64.083-1.255.25-1.847a6.986 6.986 0 0 1 3.203-4.16 7.083 7.083 0 0 1 1.66-.703C6.705 1.083 7.32 1 7.96 1s1.258.083 1.85.25a6.958 6.958 0 0 1 3.07 1.793 6.978 6.978 0 0 1 1.792 3.07c.167.59.25 1.207.25 1.848s-.083 1.258-.25 1.85a6.965 6.965 0 0 1-1.793 3.07 6.95 6.95 0 0 1-3.07 1.792c-.592.167-1.208.25-1.85.25s-1.255-.083-1.847-.25a6.982 6.982 0 0 1-4.16-3.203 7.083 7.083 0 0 1-.703-1.66A6.763 6.763 0 0 1 1 7.96zm12.922 0a5.77 5.77 0 0 0-.215-1.58 6.11 6.11 0 0 0-.602-1.427 5.888 5.888 0 0 0-.93-1.207 5.87 5.87 0 0 0-1.207-.93 6.135 6.135 0 0 0-1.426-.602C9.035 2.072 8.508 2 7.962 2s-1.075.072-1.583.215a6.066 6.066 0 0 0-1.423.6A6.01 6.01 0 0 0 2.214 6.38C2.072 6.886 2 7.413 2 7.96s.072 1.075.215 1.583c.144.508.344.983.602 1.426a5.923 5.923 0 0 0 2.137 2.137c.443.257.918.458 1.426.6.508.145 1.035.216 1.582.216s1.074-.07 1.582-.215a6.11 6.11 0 0 0 1.426-.602 5.834 5.834 0 0 0 1.207-.93 5.87 5.87 0 0 0 .93-1.207c.258-.443.46-.92.602-1.427a5.847 5.847 0 0 0 .212-1.582zM5.102 6.4L8 9.288l2.898-2.89.703.703L8 10.71 4.398 7.103l.704-.704z"/></symbol><symbol viewBox="0 0 16 16" id="englishextra-ui-icons-angle-left"><path d="M3.055 8L10.86.195l.945.945L4.945 8l6.86 6.86-.946.944L3.054 8z"/></symbol><symbol viewBox="0 0 16 16" id="englishextra-ui-icons-angle-left-circle"><path d="M8.04 1c.64 0 1.256.083 1.847.25a6.986 6.986 0 0 1 4.16 3.203c.302.515.536 1.07.703 1.66.167.592.25 1.207.25 1.848s-.083 1.258-.25 1.85a6.958 6.958 0 0 1-1.793 3.07 6.978 6.978 0 0 1-3.07 1.792c-.59.167-1.207.25-1.848.25s-1.258-.083-1.85-.25a6.982 6.982 0 0 1-4.16-3.203 7.023 7.023 0 0 1-.702-1.66c-.167-.592-.25-1.208-.25-1.85s.083-1.255.25-1.847a6.95 6.95 0 0 1 1.793-3.07A6.986 6.986 0 0 1 6.19 1.25 6.763 6.763 0 0 1 8.04 1zm0 12.922a5.77 5.77 0 0 0 1.58-.215c.51-.143.984-.344 1.427-.602s.845-.567 1.207-.93a5.87 5.87 0 0 0 .93-1.207c.258-.442.458-.918.602-1.426S14 8.508 14 7.962s-.07-1.075-.215-1.583-.344-.982-.602-1.423a5.973 5.973 0 0 0-.934-1.207 5.98 5.98 0 0 0-2.63-1.536C9.113 2.072 8.586 2 8.04 2s-1.075.072-1.583.215a6.15 6.15 0 0 0-1.426.6 5.896 5.896 0 0 0-2.136 2.138 6.15 6.15 0 0 0-.6 1.426c-.145.507-.216 1.034-.216 1.58s.07 1.075.215 1.583c.143.508.344.983.602 1.426.258.442.567.845.93 1.206.362.362.764.672 1.207.93.442.258.918.46 1.426.602a5.796 5.796 0 0 0 1.58.214zM9.6 5.102L6.712 8l2.89 2.898-.703.703L5.29 8l3.608-3.602.704.704z"/></symbol><symbol viewBox="0 0 16 16" id="englishextra-ui-icons-angle-right"><path d="M4.195 14.86L11.055 8l-6.86-6.86.945-.945L12.945 8 5.14 15.805l-.945-.946z"/></symbol><symbol viewBox="0 0 16 16" id="englishextra-ui-icons-angle-right-circle"><path d="M8.04 1c.64 0 1.256.083 1.847.25a6.986 6.986 0 0 1 4.16 3.203c.302.515.536 1.07.703 1.66.167.592.25 1.207.25 1.848s-.083 1.258-.25 1.85a6.958 6.958 0 0 1-1.793 3.07 6.978 6.978 0 0 1-3.07 1.792c-.59.167-1.207.25-1.848.25s-1.258-.083-1.85-.25a6.982 6.982 0 0 1-4.16-3.203 7.023 7.023 0 0 1-.702-1.66c-.167-.592-.25-1.208-.25-1.85s.083-1.255.25-1.847a6.95 6.95 0 0 1 1.793-3.07A6.986 6.986 0 0 1 6.19 1.25 6.763 6.763 0 0 1 8.04 1zm0 1a5.81 5.81 0 0 0-1.583.215c-.508.143-.983.344-1.426.6s-.844.57-1.206.93a5.923 5.923 0 0 0-.93 1.208 6.15 6.15 0 0 0-.6 1.426c-.145.507-.216 1.034-.216 1.58s.07 1.075.215 1.583c.143.508.344.983.602 1.426a5.923 5.923 0 0 0 2.137 2.137c.442.257.918.458 1.426.6.508.145 1.035.216 1.582.216s1.074-.07 1.582-.215c.508-.143.983-.344 1.426-.602s.845-.567 1.207-.93a5.87 5.87 0 0 0 .93-1.207c.258-.443.458-.92.602-1.427S14 8.508 14 7.96s-.07-1.073-.215-1.58-.344-.982-.602-1.423a5.973 5.973 0 0 0-.934-1.207 5.98 5.98 0 0 0-2.63-1.536A5.835 5.835 0 0 0 8.04 2zm-.688 9.602L6.65 10.9 9.54 8 6.647 5.102 7.35 4.4 10.954 8l-3.6 3.602z"/></symbol><symbol viewBox="0 0 16 16" id="englishextra-ui-icons-angle-up"><path d="M8 4.945l-6.86 6.86-.944-.946L8 3.053l7.806 7.805-.945.944L8 4.944z"/></symbol><symbol viewBox="0 0 16 16" id="englishextra-ui-icons-angle-up-circle"><path d="M15.008 8.046a6.77 6.77 0 0 1-.25 1.848 6.982 6.982 0 0 1-3.203 4.16 7.065 7.065 0 0 1-1.66.703c-.59.166-1.207.25-1.847.25s-1.257-.084-1.848-.25a6.994 6.994 0 0 1-4.863-4.863c-.167-.592-.25-1.207-.25-1.848s.083-1.257.25-1.848c.167-.592.4-1.145.703-1.66a6.922 6.922 0 0 1 1.09-1.41A6.95 6.95 0 0 1 6.2 1.335c.59-.167 1.207-.25 1.848-.25s1.256.083 1.847.25a6.965 6.965 0 0 1 3.07 1.793 6.95 6.95 0 0 1 1.793 3.07c.167.59.25 1.207.25 1.848zm-12.922 0c0 .547.07 1.074.215 1.582.144.508.345.982.603 1.426A5.93 5.93 0 0 0 5.04 13.19c.442.26.918.46 1.426.603.508.143 1.035.215 1.582.215s1.074-.072 1.582-.215a5.945 5.945 0 0 0 2.63-1.536 6 6 0 0 0 1.535-2.628c.144-.508.215-1.035.215-1.582s-.07-1.074-.215-1.582a6.11 6.11 0 0 0-.602-1.426 5.834 5.834 0 0 0-.93-1.207 5.87 5.87 0 0 0-1.207-.93 6.133 6.133 0 0 0-1.427-.6c-.51-.144-1.036-.215-1.583-.215s-1.074.07-1.582.215a6.1 6.1 0 0 0-1.425.6 5.86 5.86 0 0 0-1.207.93c-.363.362-.672.765-.93 1.208-.258.442-.46.918-.602 1.426a5.81 5.81 0 0 0-.214 1.582zm8.82 1.562l-2.898-2.89-2.898 2.89-.703-.703 3.602-3.61 3.6 3.61-.704.703z"/></symbol><symbol viewBox="0 0 16 16" id="englishextra-ui-icons-camera"><path d="M16 2v12H0V2h4.29l1-1h5.42l1 1H16zm-1 1h-3.71l-1-1H5.71l-1 1H1v10h14V3zM2.5 4c.135 0 .252.05.352.148.098.1.148.217.148.352 0 .136-.05.253-.148.352-.1.1-.217.148-.352.148a.48.48 0 0 1-.352-.148A.48.48 0 0 1 2 4.5c0-.135.05-.252.148-.352A.484.484 0 0 1 2.5 4zM8 4c.552 0 1.07.104 1.56.313.486.208.91.494 1.272.855.362.362.647.787.855 1.273A3.92 3.92 0 0 1 12 8c0 .552-.104 1.072-.313 1.558A3.983 3.983 0 0 1 8 12c-.552 0-1.07-.104-1.56-.313A3.96 3.96 0 0 1 4.314 9.56 3.908 3.908 0 0 1 4 8a4.005 4.005 0 0 1 1.168-2.832A3.994 3.994 0 0 1 8 4zm0 7c.41 0 .8-.078 1.164-.238a3.028 3.028 0 0 0 1.598-1.598C10.922 8.8 11 8.412 11 8c0-.41-.08-.8-.238-1.164a3.074 3.074 0 0 0-.645-.953c-.27-.27-.59-.485-.953-.644C8.8 5.08 8.41 5 8 5s-.8.08-1.164.24a3.04 3.04 0 0 0-1.598 1.597C5.078 7.2 5 7.588 5 8a3.006 3.006 0 0 0 .883 2.117c.27.27.59.486.953.645C7.2 10.922 7.59 11 8 11z"/></symbol><symbol viewBox="0 0 16 16" id="englishextra-ui-icons-close"><path d="M8.71 8l5.392 5.398-.703.703L8 8.71l-5.398 5.392L1.9 13.4 7.29 8 1.897 2.602 2.6 1.9 8 7.29l5.398-5.392.703.703L8.71 8z"/></symbol><symbol viewBox="0 0 16 16" id="englishextra-ui-icons-comment"><path d="M0 1h16v11H5.71L2 15.71V12H0V1zm15 10V2H1v9h2v2.29L5.29 11H15z"/></symbol><symbol viewBox="0 0 16 16" id="englishextra-ui-icons-document"><path d="M8.71 0L14 5.29V16H2V0h6.71zM3 15h10V6H8V1H3v14zM9 1.71V5h3.29L9 1.71z"/></symbol><symbol viewBox="0 0 16 16" id="englishextra-ui-icons-down-arrow"><path d="M15.352 8.602L8 15.952.648 8.603 1.35 7.9l6.15 6.147V0h1v14.046l6.148-6.148.704.704z"/></symbol><symbol viewBox="0 0 16 16" id="englishextra-ui-icons-headphones"><path d="M8 1c.55 0 1.082.072 1.594.215a6.01 6.01 0 0 1 4.192 4.192c.142.51.214 1.04.214 1.593v5.5c0 .21-.04.404-.117.586a1.515 1.515 0 0 1-.32.477A1.485 1.485 0 0 1 12.5 14H11V8h1.5c.172 0 .338.03.5.086V7c0-.688-.133-1.334-.395-1.94-.264-.607-.62-1.138-1.074-1.59s-.983-.812-1.59-1.075C9.335 2.132 8.69 2 8 2s-1.336.132-1.94.395c-.608.263-1.138.62-1.59 1.074s-.813.982-1.075 1.59A4.813 4.813 0 0 0 3 7v1.086A1.49 1.49 0 0 1 3.5 8H5v6H3.5a1.51 1.51 0 0 1-1.063-.437A1.482 1.482 0 0 1 2 12.5V7c0-.552.07-1.083.215-1.594a5.974 5.974 0 0 1 1.543-2.65 6.018 6.018 0 0 1 2.65-1.542A5.9 5.9 0 0 1 8 1zM3.5 9a.484.484 0 0 0-.352.148c-.1.1-.148.217-.148.352v3c0 .136.05.253.148.352.1.1.216.148.352.148H4V9h-.5zm9 4c.135 0 .252-.05.352-.148A.488.488 0 0 0 13 12.5v-3a.49.49 0 0 0-.148-.352A.487.487 0 0 0 12.5 9H12v4h.5z"/></symbol><symbol viewBox="0 0 16 16" id="englishextra-ui-icons-home"><path d="M8 1.29l7.352 7.358-.703.703-.65-.64V15H9v-5H7v5H2V8.71l-.648.642-.703-.704L8 1.288zM13 14V7.71l-5-5-5 5V14h3V9h4v5h3z"/></symbol><symbol viewBox="0 0 16 16" id="englishextra-ui-icons-left-arrow"><path d="M16 8.5H1.953l6.15 6.148-.704.703L.046 8 7.4.648l.702.703-6.15 6.15H16v1z"/></symbol><symbol viewBox="0 0 16 16" id="englishextra-ui-icons-left-arrow-circle"><path d="M8 16c-.74 0-1.45-.095-2.13-.285a8.034 8.034 0 0 1-3.53-2.055 7.897 7.897 0 0 1-1.25-1.62 8.052 8.052 0 0 1-.805-1.915C.095 9.443 0 8.735 0 8s.095-1.442.285-2.125A8.07 8.07 0 0 1 1.09 3.96 7.96 7.96 0 0 1 5.875.285C6.558.095 7.265 0 8 0s1.442.095 2.125.285A7.96 7.96 0 0 1 14.91 3.96a8.11 8.11 0 0 1 .804 1.914c.19.683.285 1.39.285 2.125 0 .74-.095 1.45-.285 2.13s-.458 1.315-.805 1.91-.763 1.134-1.25 1.62a7.924 7.924 0 0 1-1.62 1.25 8.052 8.052 0 0 1-1.915.805A7.89 7.89 0 0 1 8 16zM8 1c-.64 0-1.26.083-1.855.25a6.987 6.987 0 0 0-3.09 1.805 6.987 6.987 0 0 0-1.805 3.09C1.083 6.74 1 7.36 1 8s.083 1.26.25 1.855a6.987 6.987 0 0 0 1.805 3.09 7.01 7.01 0 0 0 3.09 1.805C6.74 14.917 7.36 15 8 15s1.26-.083 1.855-.25a6.964 6.964 0 0 0 3.09-1.805 6.987 6.987 0 0 0 1.805-3.09C14.917 9.26 15 8.64 15 8s-.083-1.26-.25-1.855a7.022 7.022 0 0 0-3.223-4.188 7.004 7.004 0 0 0-1.672-.707A6.84 6.84 0 0 0 8 1z"/><path d="M13.008 8.5h-8.11l3.15 3.148-.704.703L2.994 8l4.35-4.352.704.703-3.15 3.15h8.11v1z"/></symbol><symbol viewBox="0 0 16 16" id="englishextra-ui-icons-like"><path d="M14.5 5c.2 0 .4 0 .6.1s.3.2.5.3.2.3.3.5.1.4.1.6c0 .1 0 .2-.1.4s-.1.5-.2.7-.2.6-.3.9c-.1.3-.2.7-.3 1s-.2.7-.4 1c-.1.3-.2.7-.3 1-.1.3-.2.6-.3.8s-.1.5-.2.7c-.1.2-.1.3-.2.4l-.3.3c-.1.1-.3.2-.4.2s-.3.1-.5.1H0V5h5c.3 0 .4-.1.5-.1L9.9.5c.1-.1.3-.2.4-.3s.3-.2.5-.2.3 0 .5.1.3.2.4.3c.1.1.2.2.3.4v.4c0 .3 0 .6-.1.9s-.1.5-.2.7c-.1.2-.1.4-.2.5-.1.2-.1.3-.2.5s-.1.3-.2.5 0 .5-.1.7h3.5zM1 13h3V6H1v7zm11.5 0c.1 0 .2 0 .3-.1s.2-.1.2-.3c0-.1.1-.2.1-.4s.2-.5.3-.8.2-.6.3-1c.1-.4.2-.7.4-1.1.1-.4.2-.7.4-1.1s.2-.6.3-.9.2-.5.2-.7v-.1c0-.1 0-.3-.1-.4-.1-.1-.3-.1-.4-.1H10v-.7c0-.2 0-.5.1-.7s.1-.4.2-.7.2-.4.3-.7c.2-.3.3-.5.3-.8.1-.3.1-.6.1-.9v-.2-.2s0-.1-.1-.1h-.1-.1l-.1.1-4.5 4.5c-.1.1-.3.2-.5.3-.2.1-.4.1-.6.1v7h7.5z"/></symbol><symbol viewBox="0 0 16 16" id="englishextra-ui-icons-list"><path d="M0 3V0h3v3H0zm0 4V4h3v3H0zm0 4V8h3v3H0zm0 4v-3h3v3H0zM1 1v1h1V1H1zm0 4v1h1V5H1zm0 4v1h1V9H1zm0 4v1h1v-1H1zM5 1h11v1H5V1zm0 5V5h9v1H5zm7 3v1H5V9h7zm-7 5v-1h9v1H5z"/></symbol><symbol viewBox="0 0 16 16" id="englishextra-ui-icons-mail"><path d="M0 3h16v10H0V3zm1 9h14V5.062L8 8.554 1 5.062V12zm13.883-8H1.117L8 7.445 14.883 4z"/></symbol><symbol viewBox="0 0 16 16" id="englishextra-ui-icons-menu"><path d="M0 5V4h16v1H0zm0 4V8h16v1H0zm0 4v-1h16v1H0z"/></symbol><symbol viewBox="0 0 16 16" id="englishextra-ui-icons-more"><path d="M2 7a.972.972 0 0 1 .707.293A.97.97 0 0 1 3 8a.975.975 0 0 1-.293.708c-.09.09-.197.163-.316.214C2.27 8.975 2.14 9 2 9s-.27-.025-.39-.078a1 1 0 0 1-.317-.215A.972.972 0 0 1 1 8c0-.14.026-.27.078-.39a1.028 1.028 0 0 1 .53-.532A.99.99 0 0 1 2 7zm6 0a.975.975 0 0 1 .708.293A.987.987 0 0 1 9 8a.992.992 0 0 1-.61.922C8.27 8.975 8.14 9 8 9s-.27-.025-.39-.078a.975.975 0 0 1-.317-.214.98.98 0 0 1-.214-.317C7.025 8.27 7 8.14 7 8s.026-.27.08-.39a.98.98 0 0 1 .214-.316A.99.99 0 0 1 8 7zm6 0a.975.975 0 0 1 .707.293A.996.996 0 0 1 15 8a.992.992 0 0 1-.61.92c-.12.055-.25.08-.39.08s-.27-.025-.39-.078a.978.978 0 0 1-.317-.215A.98.98 0 0 1 13 8a.98.98 0 0 1 .293-.707A.99.99 0 0 1 14 7z"/></symbol><symbol viewBox="0 0 16 16" id="englishextra-ui-icons-movie"><path d="M16 3.938v8.125l-4-2V12H0V4h12v1.938l4-2zM11 11V5H1v6h10zm4-.555v-4.89l-3 1.508v1.875l3 1.507z"/></symbol><symbol viewBox="0 0 16 16" id="englishextra-ui-icons-phone"><path d="M12.555 9.477a1.732 1.732 0 0 1 1.22.5l1.718 1.72c.16.16.285.347.37.558a1.755 1.755 0 0 1 0 1.32c-.085.21-.21.397-.37.56-.297.302-.567.568-.813.8a4.488 4.488 0 0 1-.758.586c-.26.16-.55.28-.867.36-.318.08-.7.12-1.15.12-.65 0-1.32-.102-2.007-.305s-1.37-.484-2.05-.844-1.348-.785-2-1.28a17.647 17.647 0 0 1-3.457-3.48c-.49-.653-.913-1.32-1.267-2C.77 7.41.494 6.732.296 6.055A7.033 7.033 0 0 1 0 4.085c0-.447.04-.828.12-1.144.082-.314.2-.603.36-.866.16-.263.354-.516.586-.758.23-.242.5-.512.8-.81.162-.16.347-.285.556-.374A1.69 1.69 0 0 1 3.086 0c.23 0 .45.044.66.133.21.09.397.214.56.375l1.718 1.72c.16.16.285.347.37.558s.13.43.13.66c0 .23-.04.434-.117.613s-.176.34-.29.487c-.114.146-.24.28-.38.398-.137.12-.263.238-.378.352-.115.115-.212.23-.29.348s-.117.243-.117.378c0 .198.07.367.21.508l4.306 4.306c.14.14.31.21.507.21.136 0 .262-.038.38-.116s.232-.174.347-.29c.114-.113.23-.24.352-.378.12-.138.253-.264.398-.38.146-.113.31-.21.488-.288s.383-.117.613-.117zM11.905 15c.376 0 .69-.035.942-.105s.48-.172.684-.305.402-.298.595-.496c.192-.197.414-.422.664-.672.14-.14.21-.31.21-.508a.684.684 0 0 0-.113-.332c-.075-.127-.173-.262-.293-.402s-.254-.285-.402-.434-.294-.29-.438-.422l-.398-.367c-.122-.11-.218-.2-.285-.27a.702.702 0 0 0-.515-.21c-.136 0-.26.038-.375.116s-.23.175-.344.29c-.114.114-.233.24-.355.378-.12.14-.256.266-.4.38-.147.115-.31.21-.49.29s-.383.116-.612.116-.45-.043-.66-.13-.397-.208-.56-.37L4.454 7.242c-.16-.16-.285-.347-.37-.558s-.13-.43-.13-.66c0-.23.04-.434.117-.613s.174-.34.29-.487c.114-.147.24-.28.378-.403.138-.122.264-.24.38-.355.113-.115.21-.23.288-.345a.65.65 0 0 0 .117-.375.702.702 0 0 0-.21-.516 8.575 8.575 0 0 1-.27-.286l-.367-.398c-.133-.143-.274-.29-.422-.437s-.293-.284-.434-.404a3.04 3.04 0 0 0-.402-.293A.684.684 0 0 0 3.086 1a.692.692 0 0 0-.508.21c-.25.25-.473.473-.668.665a4.02 4.02 0 0 0-.5.594 2.3 2.3 0 0 0-.312.682c-.07.253-.105.564-.105.934 0 .583.095 1.185.285 1.805.19.62.453 1.24.79 1.86.335.62.732 1.23 1.19 1.832a16.7 16.7 0 0 0 3.215 3.19c.602.453 1.21.846 1.828 1.176.618.33 1.232.588 1.845.772a6.05 6.05 0 0 0 1.76.278z"/></symbol><symbol viewBox="0 0 16 16" id="englishextra-ui-icons-pin"><path d="M15.547 5.844c-.172.172-.34.33-.504.473a3.086 3.086 0 0 1-.508.363c-.175.1-.364.176-.57.23s-.438.082-.7.082c-.176 0-.346-.016-.507-.047l-2.96 2.96c.066.2.116.402.147.61a4.252 4.252 0 0 1-.055 1.547 3.406 3.406 0 0 1-.293.78 3.95 3.95 0 0 1-.465.7 9.54 9.54 0 0 1-.617.676L5.5 11.203l-4.438 4.445L0 16l.352-1.063L4.797 10.5 1.78 7.484l.353-.352a3.795 3.795 0 0 1 1.254-.835c.47-.192.965-.29 1.48-.29.427 0 .836.066 1.227.196l2.96-2.96a2.6 2.6 0 0 1-.046-.51c0-.254.027-.484.082-.69.055-.206.132-.397.23-.574.1-.178.22-.35.363-.513s.3-.332.473-.504l5.39 5.39zm-2.28.148c.285 0 .557-.067.812-.203L10.21 1.92a1.702 1.702 0 0 0-.152 1.223c.034.128.07.26.113.395L6.328 7.375l-.367-.148a3.012 3.012 0 0 0-.7-.192 2.905 2.905 0 0 0-1.258.102c-.277.085-.536.21-.775.378l5.258 5.258A2.87 2.87 0 0 0 9 11.14a2.724 2.724 0 0 0-.226-1.1 29.644 29.644 0 0 1-.15-.368l3.837-3.844c.137.042.268.08.396.113.127.036.264.052.41.052z"/></symbol><symbol viewBox="0 0 16 16" id="englishextra-ui-icons-quote"><path d="M9.285 4.07v2.688h-2.57V4.07c0-.27.018-.547.055-.828a4.86 4.86 0 0 1 .175-.817 3.8 3.8 0 0 1 .316-.742c.13-.23.29-.435.478-.61a2.07 2.07 0 0 1 .66-.41C8.65.566 8.94.516 9.27.516v1.22c-.193 0-.36.037-.5.112a1.23 1.23 0 0 0-.364.297c-.1.123-.183.265-.246.426a3.524 3.524 0 0 0-.23 1.02c-.013.174-.02.334-.02.48h1.375z"/></symbol><symbol viewBox="0 0 16 16" id="englishextra-ui-icons-right-arrow"><path d="M15.953 8L8.6 15.352 7.9 14.65l6.15-6.15H0v-1h14.047l-6.15-6.148.704-.703L15.954 8z"/></symbol><symbol viewBox="0 0 16 16" id="englishextra-ui-icons-search-left"><path d="M16 15.453c0 .146-.044.273-.133.383s-.21.164-.367.164a.48.48 0 0 1-.352-.148L9.016 9.727c-.5.412-1.05.727-1.645.945-.596.22-1.22.328-1.87.328-.505 0-.992-.064-1.46-.195a5.383 5.383 0 0 1-1.314-.555c-.406-.24-.777-.527-1.113-.863S.99 8.68.75 8.273A5.444 5.444 0 0 1 0 5.5a5.444 5.444 0 0 1 1.613-3.886A5.478 5.478 0 0 1 4.04.195C4.51.065 4.995 0 5.5 0a5.444 5.444 0 0 1 3.887 1.613A5.445 5.445 0 0 1 11 5.5c0 .65-.11 1.275-.328 1.87a5.625 5.625 0 0 1-.945 1.646c.078.078.228.227.45.445s.486.48.796.782l1.016.996a190.43 190.43 0 0 1 2.19 2.192c.35.354.66.675.93.96.27.288.487.526.648.716.16.19.242.306.242.347zM5.5 10c.62 0 1.203-.118 1.75-.355.547-.237 1.023-.56 1.43-.965s.728-.883.965-1.43S10 6.12 10 5.5c0-.62-.118-1.203-.355-1.75s-.56-1.023-.965-1.43-.883-.727-1.43-.965A4.37 4.37 0 0 0 5.5 1c-.62 0-1.203.12-1.75.355-.547.238-1.023.56-1.43.965s-.728.883-.965 1.43A4.353 4.353 0 0 0 1 5.5c0 .62.118 1.203.355 1.75A4.526 4.526 0 0 0 3.75 9.645c.547.237 1.13.355 1.75.355z"/></symbol><symbol viewBox="0 0 16 16" id="englishextra-ui-icons-search-right"><path d="M10.5 0a5.44 5.44 0 0 1 2.773.75 5.59 5.59 0 0 1 1.976 1.976c.24.406.425.844.554 1.313.13.468.195.955.195 1.46s-.065.992-.196 1.46c-.13.47-.314.907-.555 1.314a5.59 5.59 0 0 1-1.976 1.977c-.407.24-.845.424-1.314.555A5.48 5.48 0 0 1 10.5 11c-.65 0-1.274-.11-1.872-.328a5.638 5.638 0 0 1-1.645-.945L.85 15.852A.483.483 0 0 1 .5 16a.484.484 0 0 1-.352-.148A.483.483 0 0 1 0 15.5a.48.48 0 0 1 .148-.352l6.125-6.133a5.625 5.625 0 0 1-.945-1.645A5.377 5.377 0 0 1 5 5.5a5.444 5.444 0 0 1 1.612-3.887A5.53 5.53 0 0 1 7.726.75 5.45 5.45 0 0 1 10.5 0zm0 10c.62 0 1.202-.12 1.75-.355a4.583 4.583 0 0 0 1.43-.965c.405-.406.728-.883.964-1.43.238-.547.355-1.13.355-1.75 0-.62-.118-1.203-.356-1.75-.236-.547-.56-1.023-.965-1.43s-.884-.728-1.43-.965A4.35 4.35 0 0 0 10.5 1c-.62 0-1.204.118-1.75.355-.548.237-1.024.56-1.43.965s-.728.883-.966 1.43A4.365 4.365 0 0 0 6 5.5c0 .62.118 1.203.355 1.75.237.547.56 1.023.965 1.43.406.407.883.728 1.43.965.546.236 1.13.355 1.75.355z"/></symbol><symbol viewBox="0 0 16 16" id="englishextra-ui-icons-share"><path d="M14.852 10.398c.177.115.337.25.48.402.144.154.265.322.363.504A2.545 2.545 0 0 1 16 12.5c0 .344-.066.668-.2.97A2.566 2.566 0 0 1 14.47 14.8c-.3.132-.624.198-.968.198-.48 0-.922-.127-1.328-.383-.6.453-1.257.797-1.973 1.03a7.066 7.066 0 0 1-4.4 0 6.7 6.7 0 0 1-1.972-1.03c-.406.256-.85.383-1.328.383-.344 0-.667-.066-.97-.2A2.555 2.555 0 0 1 .2 13.47a2.485 2.485 0 0 1 .106-2.164 2.48 2.48 0 0 1 .844-.905 5.91 5.91 0 0 1-.113-.7A7.086 7.086 0 0 1 1 9c0-.718.108-1.415.324-2.09.216-.674.52-1.3.914-1.874a7.036 7.036 0 0 1 1.418-1.528A6.75 6.75 0 0 1 5.5 2.46c.005-.337.074-.656.207-.956A2.518 2.518 0 0 1 8 0c.34 0 .66.065.96.195a2.5 2.5 0 0 1 1.332 1.308c.134.3.203.62.208.957a6.698 6.698 0 0 1 1.844 1.047 7.08 7.08 0 0 1 2.332 3.402 6.828 6.828 0 0 1 .176 3.488zM1 12.5A1.487 1.487 0 0 0 2.5 14a1.504 1.504 0 0 0 1.063-.437A1.487 1.487 0 0 0 4 12.5a1.485 1.485 0 0 0-.437-1.063 1.51 1.51 0 0 0-2.126 0A1.485 1.485 0 0 0 1 12.5zM8 15a5.95 5.95 0 0 0 3.438-1.086c-.14-.207-.25-.434-.324-.676S11 12.75 11 12.5c0-.344.066-.666.2-.97A2.566 2.566 0 0 1 12.53 10.2a2.377 2.377 0 0 1 1.17-.19c.068.006.137.014.204.023a5.917 5.917 0 0 0-.168-2.792 5.947 5.947 0 0 0-1.906-2.86 6.005 6.005 0 0 0-1.527-.916 2.38 2.38 0 0 1-.38.628 2.54 2.54 0 0 1-1.198.8C8.492 4.965 8.25 5 8 5s-.492-.036-.727-.11a2.55 2.55 0 0 1-1.2-.8 2.37 2.37 0 0 1-.378-.63c-.562.236-1.07.542-1.527.92a5.947 5.947 0 0 0-1.906 2.858 5.93 5.93 0 0 0-.168 2.793c.375-.062.738-.04 1.09.064.352.105.66.273.93.504.268.232.483.512.645.84a2.48 2.48 0 0 1 .128 1.8c-.077.242-.185.47-.325.676a5.91 5.91 0 0 0 1.637.81A5.94 5.94 0 0 0 8 15zM8 1a1.51 1.51 0 0 0-1.063.438A1.493 1.493 0 0 0 6.5 2.5a1.51 1.51 0 0 0 .437 1.063A1.493 1.493 0 0 0 8 4a1.493 1.493 0 0 0 1.5-1.5c0-.208-.04-.403-.117-.586a1.52 1.52 0 0 0-.32-.477A1.51 1.51 0 0 0 8 1zm5.5 13c.208 0 .403-.04.586-.117a1.477 1.477 0 0 0 .797-.797A1.47 1.47 0 0 0 15 12.5a1.485 1.485 0 0 0-.437-1.063 1.51 1.51 0 0 0-2.126 0A1.485 1.485 0 0 0 12 12.5a1.487 1.487 0 0 0 1.5 1.5z"/></symbol><symbol viewBox="0 0 16 16" id="englishextra-ui-icons-smile"><path d="M8 0a7.88 7.88 0 0 1 2.125.285c.684.19 1.32.458 1.914.805a7.932 7.932 0 0 1 1.62 1.25 7.89 7.89 0 0 1 1.25 1.62c.348.595.615 1.233.805 1.915.19.682.285 1.39.285 2.125s-.094 1.443-.285 2.125A7.987 7.987 0 0 1 8 16c-.734 0-1.44-.096-2.125-.285a7.995 7.995 0 0 1-5.59-5.586A7.877 7.877 0 0 1 0 8c0-.734.095-1.442.285-2.125A8.07 8.07 0 0 1 1.09 3.96a7.96 7.96 0 0 1 2.87-2.87A8.158 8.158 0 0 1 5.87.285 7.87 7.87 0 0 1 8 0zm0 15a6.97 6.97 0 0 0 4.946-2.055A6.987 6.987 0 0 0 14.75 9.86c.167-.593.25-1.213.25-1.86a6.98 6.98 0 0 0-2.055-4.945 6.99 6.99 0 0 0-3.09-1.805C9.26 1.083 8.64 1 8 1s-1.258.083-1.856.25a6.997 6.997 0 0 0-3.09 1.804 7.022 7.022 0 0 0-1.805 3.09C1.084 6.74 1 7.36 1 8s.083 1.26.25 1.856a7.022 7.022 0 0 0 3.223 4.188A6.924 6.924 0 0 0 8 15zm0-3a3.962 3.962 0 0 0 2.102-.6c.31-.194.586-.43.832-.704.248-.276.457-.584.63-.922l.897.453c-.212.422-.476.805-.788 1.148s-.66.635-1.047.875c-.385.24-.8.424-1.246.555A4.9 4.9 0 0 1 8 13c-.48 0-.94-.065-1.383-.195a4.92 4.92 0 0 1-2.288-1.43 5.19 5.19 0 0 1-.79-1.148l.898-.453a4.3 4.3 0 0 0 .628.922c.248.275.525.51.832.703.31.19.64.34.992.444A3.97 3.97 0 0 0 8 12zM5 7a.963.963 0 0 1-.39-.078 1.005 1.005 0 0 1-.532-1.313A1.012 1.012 0 0 1 5 5c.14 0 .27.026.39.078a1.007 1.007 0 0 1 .532.53c.052.12.078.25.078.392s-.026.27-.08.39a.98.98 0 0 1-.213.317.975.975 0 0 1-.317.214A.95.95 0 0 1 5 7zm6 0a.975.975 0 0 1-.707-.293A.992.992 0 0 1 10 6a.992.992 0 0 1 1-1 .972.972 0 0 1 .707.293.99.99 0 0 1 .215 1.098.97.97 0 0 1-.215.317A.99.99 0 0 1 11 7z"/></symbol><symbol viewBox="0 0 16 16" id="englishextra-ui-icons-star"><path d="M11.063 9.797L13 16l-5-3.844L3 16l1.938-6.203L0 6h6.125L8 0l1.875 6H16l-4.937 3.797zm.04 3.484l-.595-1.925c-.198-.638-.4-1.28-.61-1.926.537-.4 1.066-.806 1.587-1.212S12.53 7.406 13.063 7H9.14L8 3.352 6.86 7H2.937c.53.406 1.057.813 1.578 1.22.52.405 1.05.81 1.586 1.21-.208.646-.412 1.288-.61 1.926L4.9 13.282l3.1-2.39 3.102 2.39z"/></symbol><symbol viewBox="0 0 16 16" id="englishextra-ui-icons-tick"><path d="M.148 8.85L.85 8.15 5 12.288 15.148 2.15l.703.703L5 13.71.148 8.85z"/></symbol><symbol viewBox="0 0 16 16" id="englishextra-ui-icons-tick-circle"><path d="M7.5 0c.692 0 1.358.09 1.996.266a7.49 7.49 0 0 1 5.24 5.24c.174.636.263 1.3.263 1.994a7.443 7.443 0 0 1-1.02 3.79A7.482 7.482 0 0 1 7.5 15c-.692 0-1.358-.09-1.996-.266a7.5 7.5 0 0 1-5.24-5.24A7.423 7.423 0 0 1 .002 7.5 7.488 7.488 0 0 1 5.505.264 7.463 7.463 0 0 1 7.5 0zm0 14c.594 0 1.168-.078 1.723-.234s1.073-.375 1.555-.656.92-.62 1.316-1.016A6.507 6.507 0 0 0 14 7.5c0-.594-.078-1.168-.234-1.723s-.375-1.073-.656-1.555A6.507 6.507 0 0 0 7.5 1c-.6 0-1.175.078-1.727.234a6.64 6.64 0 0 0-1.55.656A6.466 6.466 0 0 0 1.89 4.222c-.28.482-.5 1-.656 1.555S1 6.907 1 7.5s.078 1.168.234 1.723a6.47 6.47 0 0 0 1.672 2.87 6.48 6.48 0 0 0 1.316 1.017c.48.28 1 .5 1.55.656A6.322 6.322 0 0 0 7.5 14zm3.398-9.602l.703.703-5.35 5.36L3.396 7.6 4.1 6.9l2.15 2.15 4.648-4.65z"/></symbol><symbol viewBox="0 0 16 16" id="englishextra-ui-icons-unquote"><path d="M9.297.508v2.68c0 .266-.02.54-.055.82-.037.28-.098.554-.18.816-.083.263-.19.512-.324.746s-.293.44-.48.613a2.124 2.124 0 0 1-.66.415 2.29 2.29 0 0 1-.856.152V5.523a1.076 1.076 0 0 0 .867-.41c.098-.122.177-.264.237-.426.06-.16.106-.328.14-.5a4.33 4.33 0 0 0 .07-.52c.014-.174.02-.334.02-.48H6.704V.507h2.594z"/></symbol><symbol viewBox="0 0 16 16" id="englishextra-ui-icons-up-arrow"><path d="M14.648 8.102L8.5 1.952V16h-1V1.953l-6.148 6.15-.704-.705L8 .048l7.35 7.35-.702.704z"/></symbol><symbol viewBox="0 0 16 16" id="favicon-mask-icon"><path d="M0 0v16h16V0H0zm11.9 10.8c-.4.4-.8.8-1.4 1.1-.4.2-.7.3-1.1.2-.5-.2-.8-.6-.7-1.2.1-.5.3-.9.5-1.3l.6-1.5c0-.1 0-.1.1-.2-.2.1-.3.2-.4.3-.6.6-1.1 1.2-1.7 1.7-.3.3-.6.5-.9.7-.2.1-.4.1-.6.1-.3-.1-.5-.4-.5-.8s.1-.7.3-1.1c.2-.5.4-1 .7-1.5.2-.5.5-1.1.8-1.7.1-.2.1-.4.2-.6v-.1c-.1 0-.2.1-.2.1l-.9 1.2-.9 1.2c-.1.2-.3.3-.4.4-.4.2-.8 0-.9-.4-.1-.3 0-.6.1-.8.2-.4.4-.8.7-1.2.1-.2.2-.4.1-.7 0-.2-.1-.3-.2-.4-.1-.1-.2 0-.3 0-.2.2-.4.3-.5.5-.1.1-.2.2-.3.1-.1-.1-.1-.2-.1-.3.2-.3.5-.6.8-.7.4-.1.7 0 .9.4.2.2.3.5.2.8-.1.3-.2.5-.4.8-.1.3-.3.6-.4.9-.1.2-.1.3-.1.4 0 0 0 .1.1.1h.1c.1-.2.3-.3.4-.5.4-.5.7-1 1-1.5.3-.3.5-.6.7-.8.1-.1.3-.3.5-.3.3-.1.6.2.6.5 0 .2 0 .5-.1.7-.2.5-.4 1-.6 1.4-.3.8-.6 1.5-.9 2.2-.1.3-.2.5-.3.8v.2c.1-.1.2-.1.3-.2.4-.3.7-.6 1-.9.5-.5 1-1.1 1.5-1.6.1-.1.3-.3.5-.4.4-.2.8 0 .9.5V8c-.1.5-.3 1-.5 1.5-.2.4-.3.9-.5 1.3 0 .1-.1.2-.1.4 0 .1 0 .1.1.1h.3c.3-.1.5-.3.8-.5l.5-.5c.1-.1.2-.1.4 0l.3.3s0 .1-.1.2z"/></symbol></svg>