<?xml version="1.0" encoding="utf-8"?>
<!-- Generator: Adobe Illustrator 19.2.0, SVG Export Plug-In . SVG Version: 6.00 Build 0)  -->
<svg version="1.1" id="Layer_1" xmlns="http://www.w3.org/2000/svg" xmlns:xlink="http://www.w3.org/1999/xlink" x="0px" y="0px"
	 width="640px" height="480px" viewBox="0 0 640 480" enable-background="new 0 0 640 480" xml:space="preserve">
<rect fill="#002147" width="640" height="480"/>
<g>
	<path fill="#FFFFFF" d="M486.8,230.2h-0.6c-0.1,1-0.4,1.6-0.9,2.4l-3.6,4.8c-0.4,0.4-0.7,0.4-1.2,0.6c-0.6,0.3-0.6,0.6-1,1
		c-0.6,0.6-1,0.6-1.8,1l-0.1,0.1l-1.2,0.6c-0.6,0.3-1,0.3-1.8,0.6c0,0-0.1,0-0.1,0.1c0,0-0.1,0-0.1,0.1c0,0-0.1,0-0.1,0.1
		c0,0-0.1,0-0.1,0.1c-0.6,0.2-0.6,0.1-1,0.2c-1,0.2-0.6,0.6-2.2,0.6c-1.4,0-6.9,0.4-8.1-0.2c-0.6-0.3,0.6-0.1-0.9-0.4
		c-1-0.2-1.2-0.4-1.8-1l-0.1-0.1c-0.7-0.7-0.9-0.6-1.2-1.4l-0.3-0.7l-0.1-0.1l-0.1-0.1c-0.4-0.7-0.4-35-0.2-42.2
		c0-2.2,0.9-1.5,7.6-1.4c0.3,0,1.6,0,1.8,0c1,0.3-0.6,0.3,1.4,0.6c1.7,0.2,0.6,0.6,3.3,0.6c0.3,0.3,0.2-0.1,0.2,0.6l1.7,0.1
		c0.3,0.6,0.1,0.4,0.7,0.6l1.6,0.6c0.4,0.2,0.2,0.1,0.6,0.3l2.2,1.5l0.1,0.1c1.4,1.6,0.6,0,2,1.7l0.1,0.1l0.6,0.6l0.1,0.1l0.1,0.1
		l0.7,0.6c0.6,0.6,0.2-0.2,0.6,1l1.2,1.9c0.1,0.4,0.1,0.3,0.2,0.6l0.7,1.3c0.6,1-0.2,0.9,0.9,1c0.2,2.9,0.3,1.9,0.6,2.6
		c0.2,0.6,0.1,0.7,0.2,1.4c0.2,1,0.4,0.2,0.6,2.6c0,0.2,0,0.6,0.1,0.6c0.3,1-0.1-0.6,0.3,0.6c0.3,0.6,0.2,2,0.2,3
		c0,5.5-0.6,2.2-0.6,5.8c-0.1,2.4-0.4,1.2-0.6,2.6c-0.4,2.2-0.3,0.7-0.6,1.8C486.8,229.4,486.8,229.8,486.8,230.2L486.8,230.2z
		 M439.7,193.9c1.6,0.1,1,0.3,1.9,0.6c0.6,0.2,1.6,0.1,2.2,0.3c0.7,0.2,0.3,0.1,0.6,0.2l3.7,2.4c0.3,0.4,0.2-0.6,0.2,0.6
		c1.6,0.1-0.3,1.7,1,1.9c0.4,11.1,0.1,22.4,0.1,33.5c0,1.2,0,3.2-0.4,3.9l-0.1,0.3c-0.6,1-0.6,1-0.7,2.2c-0.2,0.1-0.3,0.1-0.4,0.2
		l-0.2,0.2l-0.1,0.1l-0.1,0.1l-0.1,0.1l-0.6,0.6c-0.6,0.6,0,0.4-1,0.6c-1.4,0.3-0.6,0.6-1.9,0.6c-1.7,0.2-3.7,0.2-5.5,0.1
		c-0.6-0.1-2.7-1-3.4-1.5l-0.6-0.4c-1.7-0.6-0.7-1.2-2.9-1.5c-0.1-1-0.1-0.6-0.6-1l-0.1-0.1l-1-1c-0.6-0.6-0.6-0.4-1.2-0.6l-0.6-0.3
		l-0.1-0.1c-0.4-0.3-0.1-0.1-0.6-0.4l-0.6-0.6c-0.1-0.2-0.1-0.1-0.3-0.3l-0.2-0.2l-0.1-0.1l-0.3-0.3l-0.1-0.1l-1.8-1.6
		c-0.3-0.3-0.1-0.4-0.6-0.4c-0.1-1,0-0.3-0.6-0.7l-0.1-0.1L420,229l-0.1-0.1l-0.1-0.1l-0.2-0.2l-0.1-0.1l-0.1-0.1l-0.1-0.1l-0.6-0.6
		l-0.1-0.1c-0.1-0.1-0.1-0.2-0.2-0.2l-4.6-5.2c0,0-0.2-0.1-0.2-0.2l-1.5-1.5c0,0-0.2-0.1-0.2-0.2l-0.1-0.1l-0.1-0.1
		c-0.1-0.1-0.3-0.2-0.4-0.2v-1.4l2.6-0.6c1-0.3,1.3-0.6,2.6-0.6l0.9-1c1-0.6,1,0.3,1-1c1.2-0.1,0.3,0,0.6-0.3l0.1-0.1l1-1l0.1-0.1
		l2.6-3.4c0-0.1,0.1-0.2,0.1-0.3c0-0.1,0-0.1,0-0.2c0,0,0-0.1,0.1-0.1l0.1-0.2c0.3-0.6,0,0.6,0.3-0.6c0-0.1,0.1-0.6,0.1-0.6
		c0-0.6,0-1.2,0.1-1.7c0.2-0.1-0.2-0.2,0.6-0.2V203c-0.7,0-0.4,0-0.6-0.2l-0.2-3c-1-0.2-0.1-0.3-0.9-1.4l-0.2-0.2l-0.1-0.1l-0.4-0.5
		l-0.1-0.1l-1-1.2l-0.1-0.1l-0.1-0.1l-0.6-0.6l-0.1-0.1c-0.3-0.3-0.3,0.6-0.4-0.6l-1.8-0.9l-0.1-0.1L415,193
		c-1.6-0.2-0.2-0.3-1.3-0.6c-1-0.2-1.3,0.2-2.2-0.6c-1-0.9-4.8,0-6.2-0.6c-1-0.6,0.6,0.1-0.3-0.2c-1-0.3-6.1-0.1-6.9-0.1
		c-1.9,0-0.4,0.3-1.7,0.6c-1.4,0.2-4.8,0-6.4,0c-2.9,0-5.6,0.1-8.5,0.1l0.1,2.6c1,0,2.2,0,3.3,0c1,0.1,2,0.6,2.3,1.7l0.6,1.5
		c0.4,1.3,0.2,2.9,0.2,4.2l-0.1,43.1h19.5c0-0.3,0-0.7,0-1l-0.1-0.6c0-0.1,0-0.1-0.1-0.2c-0.6-0.2-0.9-0.1-1.4-0.2
		c-0.6-0.2,0.1-0.2-0.6-0.6c-0.6-0.2-1-0.1-1.5-0.2c-1.2-0.3,0.3-0.1-0.7-0.4c-0.4-0.1-1-0.1-1.4-0.1l-1.9-0.6
		c-0.7-0.6,0.6-0.4-0.7-0.6c-0.1-1.4-0.1,0-0.6-1.2c-0.1-0.2-0.1-0.3-0.2-0.6l-0.1-0.3c-0.6-1.2-0.6-3.2-0.6-4.6l0.2-39.2
		c0.9-0.1,3.3-0.2,4.2,0.1c0,0,0.1,0,0.1,0.1l0.2,0.1c0.2,0.1-0.1,0,0.4,0.2c0.6,0.2,1.6,0,2.2,0.3l0.2,0.1c0.6,0.3,0.9,0,1.6,0.6
		s0.9,0.4,1.6,0.9l0.1,0.1l0.6,0.6c1,0.6,1-0.1,1.2,0.9c0.7,0.1,0.6,0.3,1,0.7c1.5,1.5,0.4,0.7,1.2,1.7l0.1,0.1l0.3,0.4
		c0.4,0.6,0.6,1.4,0.6,2.2c0,1.8,0.6,0.6,0.6,2l-0.3,1.9c-0.3,0.6-0.2,1.3-0.6,1.9l-0.2,0.2c-0.3,0.6-0.3,0.9-0.6,1.2
		c-0.9,0.7-0.7,1.3-1.4,1.9c-0.6,0.6,0.3,0.4-0.7,0.6c-0.1,1-0.6,0.4-1.3,1l-1.3,1c-0.6,0.6-1.6,0.9-2.3,1.3l-0.6,0.3
		c-0.6,0.2-1,0.1-1.6,0.3c-1,0.3,0.4,0.6-3,0.6c0.2,1.2-0.1-0.1,0.3,0.7c0.9,1.9,0.9,0.6,1,1.8c1.2,0.1,0.2,0.4,1,1.4l1.7,1.9
		c0.4,0.6,0.4,0.9,0.9,1.4c1,0.7,0.4,1,1.4,1.2c0.1,1.2,0,0.1,0.3,0.6c0.6,1,0.6,1.3,1.4,2.2c0.6,0.6,1.3,1.2,1.8,1.9
		c0.6,1,0.6-0.2,0.6,1c0.9,0.1,0.3,0,0.7,0.6l3.5,3.4l0.1,0.1c0.6,0.6,1,0.6,1.6,1l0.1,0.1c0.2,0.2,0.4,0.1,0.4,0.6h0.6
		c0.1,1.3,0.4-0.1,1.5,1.3c0.6,0.6,0,0.6,1,0.6c0.1,0.9-0.2,0.4,0.6,0.6c1.2,0.4,1.9,1.3,3,1.8c1.2,0.6,0.3-0.1,1,0.4
		c0.4,0.3,2.6,1.6,3.2,1.7c0.6,0.1,1.3,0,1.9,0.3l0.1,0.1l1.9,0.3c1.4,0.1,0.6,0.2,1,0.3c1,0.6,29.6,0.2,33.2,0.2
		c3.9,0,1.8-0.3,3.3-0.6c1.7-0.1,4.5,0.3,5.9-0.1c0.4-0.1,0.2-0.1,0.6-0.2c0.6-0.4,1.8-0.2,2.4-0.6l0.1-0.1c0.6-0.3,1.2-0.2,1.8-0.3
		c0.6-0.7,0-0.6,1.5-0.6c0-0.6,0-0.4,0.2-0.6l1-0.3l0.1-0.1l0.1-0.1c0,0,0.1,0,0.1-0.1c0.2-0.1,0.4-0.1,0.6-0.3
		c0.9-0.4,1.4-1,2.2-1.2c0.4-0.1,0.4-0.1,0.6-0.1c0.1-0.9,0.6-0.6,1.6-1.3l1.8-1.6l0.1-0.1l1.6-1.5c0.6-0.6,1.2-1.3,1.8-1.9l0.3-0.3
		c0.6-0.6,0.6-0.4,1-1.2c0.6-1,0.4,0.2,0.6-1h0.6c0-1-0.1-0.7,0.4-1.5c0.6-0.6,0.1-0.3,0.7-0.7c0.1-0.6,0.1-1,0.3-1.5l0.1-0.1
		l0.2-0.2l0.1-0.1c0.6-0.6,0.6-0.3,0.7-1.5c0.4-2.7,0.3-1.6,0.6-2.3c0.4-1,0.2-4.9,0.2-6.2c0-6.4-0.4-4.5-0.6-6.1
		c-0.1-0.6-0.1-1.4-0.2-1.9c-0.3-0.7,0.1,0.3-0.4-0.4c-0.3-0.6-0.2-0.6-0.4-1.3l-1.6-3c-1-2.2-1.6-1.8-2.3-2.9l-0.1-0.2
		c-0.6-1,0.2-0.7-0.7-0.9c0-1.4-0.4-0.4-1.4-1.4l-1-0.9l-0.1-0.1l-0.2-0.2c-1-0.6-1,0.2-1-0.7c-1.3-0.1-0.2-0.2-1.2-0.6
		c-1.3-0.6-0.2,0.1-0.9-0.7c-0.4,0-0.6,0-0.9-0.2c0,0-0.1,0-0.1-0.1l-0.1-0.1l-0.1-0.1l-0.1-0.1l-1.2-0.6c-0.3-0.1,0.3-0.1-0.6-0.3
		c-1.9-0.4-1-0.4-1.6-0.6c-0.6-0.2-1.7-0.2-2-0.4c-0.6-0.3,0.6,0-0.6-0.3c-0.6-0.2-0.9,0-1.6-0.2c-0.6-0.2,0.3-0.3-1-0.4
		c-0.6-0.1-1.7,0.1-2.2-0.3l-0.4-0.3c-1-0.6-3.2-0.2-4.6-0.3c-1.5-0.1-0.6-0.2-1-0.4c-1-0.6-21.6-0.1-25.4-0.1
		c-1.6,0-1.4,0.3-2.6,0.6c-0.3,0-0.6,0-0.9,0L439.7,193.9L439.7,193.9z"/>
	<path fill="#FFFFFF" d="M237.7,193.9l1.9,0.6c0.7,0.3,2.3,0.3,2.6,1.4c1.4,0.2,0.2,0.1,0.6,0.6c0.4,0.3-0.6,0.2,0.6,0.2l-0.1,1.9
		c-0.6,0-0.4-0.1-0.6,0.2l-0.2,1.9c-1,0.2-0.2-0.2-0.6,0.7l-2.9,5c-0.4,0.6-0.3-0.6-0.4,0.7c-1,0.1-0.4,0.7-1,1.6
		c-0.9,1-0.4,0.6-1,1.6c-0.2,0.3-0.4,0.6-0.6,1.3c-2.3,0.2-1-0.4-2.7-2.2c-0.4-0.4-0.4-1-0.6-1.5c-0.1-0.1-0.1-0.1-0.3-0.3
		c-1-1-0.3-0.3-1-1.5l-0.4-0.4l-0.1-0.1l-0.6-1c-1-1.4-0.6-1.9-1.5-1.9c-0.1-1.3-0.1-0.4-0.3-0.6c-0.4-0.6-0.6-1.4-1.3-1.9l-0.1-0.1
		c-0.6-0.6,0-1.2-1-1.2c-0.1-1.2-0.1-0.1-0.6-1.5l-0.4-0.6c-0.6-0.6,0.2-0.6-0.6-0.6c0-0.6,0-0.4-0.2-0.7c-0.6-1-0.7-1.3-1.4-1.9
		l-0.6-0.7c-0.2-0.4-0.1-0.3-0.4-0.6c-0.3-0.2-0.1-0.2-0.6-0.3h-17c-0.2,2.4-0.6,3,2.2,3.2c0.6,0,1.2,0,1.7,0.1
		c0.9,0.2,0.6,0.1,0.6,0.3l1.7,0.7c1.2,0.6,0.6,0.6,1.7,1l0.6,0.3c0.4,0.3,0.6,0.4,0.7,0.9c1.2,0.1,0.4,0,1,0.6l0.1,0.1l0.1,0.1
		c0.6,0.6-0.1-0.1,0.3,0.3c0.2,0.2-0.3-0.2,0.2,0.2l0.6,0.4c0.6,0.4,0.4-0.6,0.6,0.9c0.6,0.1,0.6,0.1,1.4,1l0.1,0.1
		c0.4,0.6,0.3-0.4,0.4,0.7c1.2,0.1,0,0.4,1.7,2l2.3,4.2l0.1,0.1c0.3,0.6,0.3,0.1,0.4,0.9c0.7,0.1,0.6,0.2,0.6,1.2l0.7,0.2l0.3,1.2
		c0.6,0.9,0.1,1.2,1,1.3c0.1,1,0.2,0.4,0.4,1l3,4.8c0.3,0.4,0.3,0.6,0.3,1.3c-0.6,0.4-0.2,0-0.6,0.6l-1.6,2.2l-0.1,0.1l-0.6,0.7
		l-0.1,0.1l-0.1,0.1c0,0,0,0.1-0.1,0.1l-2.2,3.2l-0.1,0.1c-1,1-0.6,1-1.3,1.9l-0.3,0.3l-0.1,0.1l-0.3,0.3c-0.6,0.6,0.1-0.4-0.2,0.3
		c-0.2,0.4-0.2,0.6-0.3,1c-0.3,0.6-0.3-0.6-0.4,0.7c-1,0.1-0.1-0.1-0.7,0.6l-1.7,2.2l-0.1,0.1l-1,1.6c0,0-0.1,0.2-0.2,0.2
		c-0.6,0.6,0.2,0.4-0.7,0.6c-0.1,1-0.1,0.4-0.7,1l-0.1,0.1l-2.7,2.2c0,0-0.1,0-0.1,0.1l-0.1,0.1l-1.3,0.4c-1,0.3-0.4,0.3-1.3,0.6
		l-0.6,0.3c-0.6,0.2,0.4,0.1-0.7,0.3c-3,0.4-3.2-0.6-3.2,0.7H204l0.1,2.4h18.3c1.2,0,3.6,0.3,4.6-0.3l0.1-0.1
		c0.4-0.2-0.4-0.1,0.6-0.2v-1.8l-3-1c-0.7-0.4-1.2-0.3-1.8-1l-0.6-0.6c-0.6-0.6-0.6-0.3-0.6-2.6c0-1.6,0.4-1.2,0.6-1.9l0.3-1.3
		c0.3-0.6,0.9-1,1.3-1.7l0.1-0.2l0.1-0.1l0.6-0.6c0.3-0.6,0,0.1,0.3-0.6l0.6-1.2c0.6-1,0.6-0.6,0.7-1.5c0.6-0.1,1-0.6,1.4-1l0.1-0.1
		l0.1-0.1l0.4-0.9c0.2-0.6,0-0.1,0.3-0.6l0.9-1.2c0.4-1-0.1-0.2,0.6-0.7l0.1-0.1l0.4-0.4l0.1-0.1l0.1-0.1l0.3-0.4
		c0.4-0.4,0.6,0.1,1,0.6c0.4,0.6,1.5,2.3,1.6,3c1,0.1,0.2,0.2,0.7,1.3c0,0.1,0.1,0.2,0.2,0.3c0.4,0.4,0.3,0.6,1,0.6
		c0.1,1.4,0.2,0.9,0.6,1.4c0.6,1-0.2,1,0.7,1c0.1,1.3,0.1,0.1,0.6,1.3c0.4,0.9,0.6,0.3,0.6,1.4c0.7,0.1,0.6,0.2,0.6,1.3l0.4,0.2
		c1.6,1.2,0.4,1.7,1.6,1.8c0.1,1.4,0.1,0.3,0.4,0.9l0.7,1.5c0.3,0.6,0.2,0.3,0.2,0.9c0.6,0.1,0.2,0.1,0.6,0.4l1.7,2.3
		c0.6,0.9-0.1,1,0.9,1.2c0.1,0.7,0.1,0.7,0.6,1c0.7,0.3,51.2,0.1,52.1,0.1c0.6-0.6-0.3-0.4,0.7-0.6l-0.1-1.8l-2.6-0.2
		c0-1,0-0.4-0.2-0.6c-0.6,0-1.6,0-2.2-0.2c-0.9-0.4,0.6-0.1-0.6-0.4c-0.7-0.2-1.5,0-2.2-0.6c-0.9-0.6-1-0.7-1.2-1.5H289l-0.2-2.2
		c-0.2-0.7-0.2,0-0.4-0.7c0-0.2-0.1-0.6-0.1-0.6c-0.3-4.6,0-11.4,0-16.3h6.9c0.6,0,1,0,1.5,0c0.9,0,1,0.2,1.5,0.4l0.7,0.3
		c0.6,0.3,0.6,0.7,1,1.3c0,0,0,0.1,0.1,0.1c0,0,0,0.1,0.1,0.1l0.1,0.1l0.4,1.5l0.6,0.1l0.1,4.5h2.3v-13.4c-1-0.2-2.6-0.1-3.3,0.2
		c-0.6,0.4-3,0.2-4.2,0.2c-2.6,0-5.4,0-8.1,0c-0.3-5.6-0.1-12.1-0.1-17.8l0.1-2.6h7.4c0.3,0,0.9,0,1,0c1,0.2,0.2,0.3,1,0.6h1.5
		c5.8,0.1,2.3,0.6,5.6,0.6c0.4,0.6,1,0.7,1.6,1.2c0.2,0.1,0,0.2,0.6,0.3c0.1,0.6,0.2,0.6,0.4,0.7c1,1,0.4,0.4,1,1.4
		c0.2,0.3,0.3,0.2,0.6,0.6c0.1,1.9,0.3,0.6,0.6,1.7c0.1,0.6,0.1,1.4,0.1,1.9h2.3c0.1-0.6,0-5.8-0.1-6.5c-0.2-1-0.3,0.3-0.4-1.2
		l-0.1-4.6h-41.8l0.1,2.3c1,0.1,2.9-0.1,3.7,0.4l0.1,0.1l1.2,0.3c0.2,0,0.3,0,0.6,0.1c0.4,0.1,0.2,0.1,0.4,0.2l2.2,1.5
		c0.6,0.6,0.4,0.6,0.7,1.3c0.3,0.6,0.1-0.6,0.4,0.7c0.1,0.6,0,1.7,0.1,2.2c0.1,0.4,0.1,0.2,0.2,0.4l0.1,0.2
		c0.4,0.9,0.2,32.1,0.1,32.2c-0.1,0.3-0.2,0.3-0.2,0.4L279,234c-0.4,0.6-0.1,1.8-0.6,2.6c-0.2,0.4,0-0.1-0.3,0.6
		c-0.3,0.7-0.6,0.7-0.7,1.2l-1.3,1.8c-0.4,0.4-0.7,0.4-1.3,0.6c-0.9,0.6-1,0.2-1.7,1c-2.3,0.1-2,0.6-3.3,0.6c-2,0.1-8.2,0.4-10.1,0
		c-1.4-0.3,0.3-0.3-1.5-0.6l-1.9-0.7c-0.7-0.4,0.2-0.4-1-0.6c-0.1-1,0.1-0.2-0.4-0.6l-0.1-0.1l-3-2.4c-0.4-0.4-0.6-1-1-1.5l-0.1-0.1
		l-1.9-2.6l-0.3-0.3l-0.9-1.4c-0.1-0.2-0.2,0.4-0.2-0.7c-1-0.1-0.2,0-0.6-0.9c-0.4-0.6-1-0.6-1.4-1.6l-1.5-2.6c0,0-0.1-0.2-0.2-0.2
		l-0.6-1.2c-0.6-0.6,0-0.2-0.7-0.6c-0.1-1,0.1-1.2-0.6-1.3c-0.1-1.3-0.1-0.3-0.3-0.6l-0.6-1c-0.3-0.6-0.3,0.4-0.6-1
		c-1-0.1-0.2-0.2-0.7-1.2c-0.3-0.6-0.6-0.6-0.6-1.3c-1-0.1-0.6-0.2-1.4-1.3l-0.1-0.1l-0.2-0.2c-0.6-0.7-0.2-1.6,0.2-2
		c0.6-0.7,0.6-1,1-1.7l0.1-0.1c0.3-0.4,0.2-0.6,0.4-0.9c0,0,0-0.1,0.1-0.1l0.6-0.7l0.1-0.1l0.1-0.1c0.2-0.4,0-0.1,0.2-0.6
		c0.3-0.7,1-0.9,1.2-1.8c0.3-1-0.3-0.7,0.6-0.9c0.1-0.6,0.1-0.4,0.3-0.6c0.6-0.6,0.6-1,1.2-1.7l0.1-0.1l0.6-0.7
		c0.9-1.3,0.2-0.7,1.6-2.2c0.6-0.6,1-0.7,1-1.8c0.6-0.1,0.4-0.1,0.6-0.3l0.4-0.4l0.1-0.1l0.1-0.1c0.2-0.2,0.1-0.2,0.2-0.3
		c0.2-0.1,0.2-0.2,0.4-0.3c0.1-0.1,0.2-0.2,0.3-0.3c0.6-0.6,1.5-1,2-1.3l1.9-1c0,0,0.1,0,0.1-0.1l0.2-0.1c0.6-0.3-0.2-0.2,1.4-0.4
		c1.2-0.2,0.6-0.6,1.8-0.6l4-0.6l-0.1-2.4c-5.8-0.1-17.3-0.2-23,0L237.7,193.9L237.7,193.9z"/>
	<path fill="#FFFFFF" d="M158.4,197.3c0.9-0.1,0.6-0.2,1-0.6l2-1.6l0.1-0.1c1-0.6,1.5-0.6,2.4-1l0.1-0.1l0.3-0.2
		c0.6-0.2,1,0,1.7-0.3c0.9-0.4-0.4,0,0.6-0.3c1.2-0.3,6.9-0.3,7.9,0c1.3,0.3-0.3,0.3,1.5,0.6l2.9,1.2c0.3,0.2,0.6,0.2,0.7,0.3
		l1.9,1.2c0.3,0.2,0,0,0.3,0.3l0.1,0.1l0.1,0.1c1.3,1.4,1,1.3,1.7,1.4c0.1,1.2,0,0.3,0.4,0.6c0.6,0.6,0.9,0.6,1,1.9
		c0.7,0,0.6,0.3,1,0.6l1.2,1.8c0.6,1,0.2,0.7,0.6,1.6l0.6,1.2c0.4,0.6,0.3,0.6,0.6,1.4c0.3,1.5,0.2-0.2,0.7,2
		c0.4,1.6,0.6-0.2,0.6,3.7c0,0.4,0,1.2,0,1.5c0.1,0.7,0,0.2,0.2,0.6c0.6,1.4,0.3,7.2,0.3,9c-0.1,2.3-0.3,1.6-0.6,2.6
		c-0.1,0.6,0,1.2-0.1,1.7c-0.1,1.6-0.6,0-0.6,3.9c-1,0.6-0.3-0.1-1,1.8c-0.1,0.2-0.1,0.2-0.2,0.4l-1.2,2.4c-0.6,1.2-0.6,0.6-0.6,1.5
		c-1.2,0.1,0,0.3-1.4,1.5c-0.6,0.6,0.2-0.2-0.2,0.2l-0.2,0.2l-0.1,0.1c-0.4,0.6-1.2,0.6-1.5,1c-1.2,1-2.3,1-3.4,1.9l-1.3,0.6
		c-0.9,0.4-2.2,0.3-3.2,0.4c-1.9,0.1-0.3,0.6-1.9,0.6c-1,0-2.9,0.3-3.7-0.2l-0.6-0.3c-0.6-0.3-1.4-0.1-2-0.4L167,244l-0.1-0.1
		c-0.6-0.3-1.4-0.3-1.9-0.3c0-1-0.4-0.6-1.4-1l-2.2-1.4c0,0-0.1-0.2-0.2-0.2c-0.2-0.2-0.2,0-0.3-0.6c-1.2-0.1-0.2,0.1-0.6-0.4
		l-0.7-0.9c-0.3-0.3-0.3-0.2-0.4-0.6h-0.6c-0.1-1,0-0.4-0.6-0.7l-0.2-0.2l-0.1-0.1l-2.7-4.6c-0.2-0.3-0.1,0.2-0.3-0.6
		c-0.1-0.3,0-0.4,0-0.6H154c0-0.3,0-0.6-0.1-1c-0.1-0.4-0.1-0.2-0.3-0.6c-0.4-0.6-0.2-1.8-0.6-2.6c-0.3-1-0.2,0.3-0.4-1
		c-0.1-0.6,0-1.3-0.3-1.9l-0.1-0.1c-0.4-0.7-0.6-11.4,0-12.3s0.2-2.2,0.6-3.2c0.3-0.6,0.3-1.9,0.6-2.4c0.2-0.4,0,0.6,0.2-0.6
		c0.1-0.3,0-0.6,0.1-0.7h0.6c0-0.6,0-0.9,0.2-1.3c0.4-0.6,0.1,0.4,0.6-0.7c0.4-1.4,0.7-1.3,1.2-2l0.6-1.2
		C158.1,197.5,158.4,198.3,158.4,197.3L158.4,197.3z M141,212.6v10.8c0.9,0.1,0.6-0.2,0.6,1.9c0,1.8,0.4,0.6,0.6,2.4l0.3,0.7
		c0.3,0.4,0.1-0.1,0.4,0.6l0.6,1.5c0.4,1.3,1,2.3,1.9,3.6l0.4,0.6c0.1,0.3,0.1,0.6,0.1,0.7c1,0.2,1.7,1.6,2.4,2.2l3.8,3.6
		c1.4,0.6,1.4,0.6,1.5,1.4c1,0,1,0.2,1.4,0.4l2.9,1.4c1.3,0.6,0.6-0.2,1.2,0.6c0.4,0,1,0,1.3,0.1c1,0.4-0.2,0.6,3,0.6l0.1,0.6
		c5.2,0.2,10,0.2,15.1,0v-0.6c1.7-0.1,1.6-0.3,2.3-0.6c1.5-0.4,1,0.4,1.9-0.6c1.7-0.1,2-0.6,3.4-1.2l1-0.6c0.4-0.2,0.1,0,0.4-0.2
		c0.6-0.2,0.4-0.1,0.6-0.4c1.3-1.2,1.3-0.6,3.2-2.4l0.4-0.4l0.1-0.1l2-1.9c0.1-0.1,0.2-0.2,0.3-0.3l1.4-1.4c0.3-0.4,0,0.1,0.2-0.4
		c0.3-0.6,0.2-0.6,0.6-1l0.3-0.3c0.6-0.6,0-0.1,0.9-1.4l1.3-2.7c0.4-0.6,0.3-1.2,0.6-2c0.3-0.6,0.3-1.3,0.3-1.9l0.6-0.2
		c0-1-0.1-4,0.3-4.9c0.2-0.6,0.4,0.3,0.3-2.4c0-3.8-0.3-2.2-0.6-3.3c-0.1-0.9-0.1-3-0.1-3.9c-0.3-0.2,0.4-0.2-0.6-0.2
		c0-0.6,0-1.8-0.2-2.2c0-0.1-0.3-0.3-0.6-1.6c-0.3-1.7-0.3,0.1-0.6-1.6l-3.5-5.6c-0.6-0.6,0.1,0.3-0.2-0.3l-0.6-1.3l-0.1-0.1
		l-0.4-0.3l-0.1-0.1l-3.2-2.6c-0.9-0.7-1.8-1.2-2.6-1.8c0,0-0.2-0.1-0.2-0.2c-0.2-0.1,0.1,0-0.4-0.2c-1.8-0.7-1.7-0.6-2.2-1.5
		c-0.3,0-0.7,0-1.2-0.1c-1-0.2-0.4-0.2-0.9-0.4l-0.9-0.3l-0.1-0.1c-0.6-0.3-1-0.3-1.9-0.4c-0.2,0-0.7,0-0.9-0.1
		c-0.9-0.2-0.2-0.1-0.6-0.3c-1-0.6-2.4-0.4-3.5-0.4c-0.6,0-1.4,0.1-1.9-0.1c-0.9-0.3-2.2-0.6-3.6-0.3c-1.2,0.2-0.1,0-0.6,0.2
		c-0.4,0.1-0.2,0.1-0.7,0.1c-1.2,0.1-3.6-0.2-4.6,0.4c-0.6,0.3,0.3,0.1-0.6,0.3c-0.4,0.1-1.4,0.1-1.9,0.1c-0.7,0.1-0.6,0.2-1.2,0.6
		c0,0-0.1,0-0.2,0.1c-1.3,0.4-0.4-0.2-1,0.6c-0.3,0-0.9,0-1.2,0.1c-1.2,0.2-0.3,0-0.6,0.3l-1.3,0.7c-0.1,0,0.1,0-0.4,0.2l-3.2,1.9
		c-0.6,0.6-1,0.6-1.6,1l-0.1,0.1l-0.1,0.1l-2,1.9l-0.1,0.1c-0.3,0.3-0.1,0.1-0.3,0.3l-3.4,4.8c-0.4,0.6-0.1-0.1-0.4,0.6
		c-0.4,1-1.2,2-1.3,2.7c-0.1,0.4-0.1,1.4-0.2,1.9c-0.6,0.3-0.6,0.6-0.9,1.3c-0.2,0.4-0.1-0.1-0.3,0.4
		C141.2,211.4,142.2,212.6,141,212.6L141,212.6z"/>
	<path fill="#FFFFFF" d="M336.2,195.8c0.1-1-0.2-0.3,0.7-0.6l1.4-0.7l0.2-0.1l0.1-0.1l1.2-0.4c0.4-0.2-0.3-0.3,1-0.4
		c0.4,0,0.9,0,1.2-0.1c0.6-0.3-0.2,0,0.4-0.3c1-0.6,3.9-0.2,5.1-0.2c2.2,0,1.7,0.3,2.2,0.6c0.6,0.2,1.5,0,2.2,0.3s-0.6,0.1,0.9,0.4
		c0.6,0.1,0.6,0.1,1.2,0.4l0.1,0.1c0.4,0.3,0.6,0.6,1,0.7c0.2,0.1,0.3,0.1,0.6,0.2l2.2,1.9c0,0,0.1,0,0.1,0.1l0.6,0.4
		c1.7,1.2,0.7,1.8,1.9,1.9c0,0.9,0,0.6,0.6,1l0.1,0.1l0.6,0.6c0.1,0.2,0.1,0.3,0.2,0.6c0.2,0.3,0.1,0.2,0.3,0.6l0.2,0.2l0.2,0.2
		c0.6,0.6,0.9,1.7,1.3,2.4c0.2,0.4,0.4,0.6,0.6,1c0.2,1.3,0.4,0.9,0.6,1.6c0,0.1,0.1,0.6,0.1,0.6c0,0.6,0,1,0.1,1.6l0.3,0.7
		c0.6,1,0.4,3,0.4,4.3c0,1.8,0.6,1,0.6,2.2c0,1.3,0.2,3.5,0,4.6c-0.2,0.9-0.3-0.1-0.4,1c-0.3,1.7,0.2,3.9-0.3,5.6
		c-0.3,1-0.6,0.3-0.6,3c-1,0.2,0,0.4-1,2.2c-0.2,0.3-0.1,0.3-0.3,0.6l-0.1,0.2l-0.1,0.1c-0.3,0.4-0.3,0.9-0.3,1.5
		c-1.7,0.1,0.2,1-1.4,1.2c-0.1,1.3-0.2,0.3-0.6,1c-0.6,1-0.4,1.5-1.3,1.5c-0.1,1-0.6,0.4-1.6,1.2l-0.1,0.1l-0.2,0.2
		c-1.8,1.7-2,0.4-2,1.7c-0.3,0-0.7,0.1-1,0.1c-0.1,0-0.4,0.1-0.6,0.1c-0.9,0.3,0.2,0.3-1,0.6l-1.2,0.3c-1,0.6-6.4,0.6-7.8,0.3
		c-0.6-0.1-0.6-0.4-1.4-0.6c-0.9-0.2-1.4-0.6-2.3-0.6l-0.2-0.6l-1.9-0.6c-0.4-0.2-0.2,0-0.6-0.3l-0.1-0.1l-0.2-0.2
		c-1-1-1.4-0.2-1.5-1.3c-1,0-0.6-0.1-1-0.6c-0.7-1-0.9-0.6-1-1.5c-1-0.1-0.3,0.2-0.6-0.6l-0.4-0.6l-0.1-0.1l-1-1l-0.3-0.1
		c-0.1-1.3-0.3-1-0.7-2.2l-1.8-4.2c-0.3-1.5-0.1,0.1-0.6-1c-0.1-0.4,0-1-0.1-1.6c-0.3-1.4,0.2-0.1-0.6-0.9l-0.1-8.8
		c0-8.2,0.6-5.2,0.9-7.3c0.1-0.4,0-0.9,0.1-1.4c0.3-1,0.2,0.4,0.6-1c0.3-1.6,0.3-1,0.6-1.7l1-2.7c0.3-0.4,0.4-1,0.7-1.5
		c0.6-0.6,0.6-0.4,1-1.3c0.3-0.9,1-0.9,1.2-1.9h0.6c0.2-1-0.1-0.1,0.6-0.6l0.6-0.4C335.5,196,335,195.9,336.2,195.8L336.2,195.8z
		 M316.9,220.6c0,0.2,0.1,1,0.1,1c0.2,1.3,0.1,0.1,0.3,1c0.2,0.7,0.1,1.4,0.2,2.2c0.2,1.5,0.2,0.6,0.4,1c0.2,0.3,0.2,0.6,0.2,1
		c0.1,1.9-0.2,1.8,0.6,1.9c0.1,1.6,0.4,0.9,0.6,1.9l0.6,1.8c0.3,0.7-0.3,0.6,0.7,0.6c0.1,1.4,0.1,0.3,0.4,0.9
		c0.2,0.4,0.1,0.2,0.3,0.6c0.4,1,0.6-0.1,0.6,1.2c0.7,0.1,0.7,0.2,1.2,1c0.3,0.7,0.6,0.6,1,1.2l1,1.2c0.6,0.6-0.3-0.1,0.3,0.2
		c0.6,0.4,0.7-0.2,0.9,0.7c1.2,0.1,0.2-0.2,0.9,0.6c0,0,0.2,0.2,0.3,0.3c0.2,0.2,0.2,0.2,0.3,0.3l0.7,0.6c1.6,0.9,1.3,1,2,1.5
		c0.7,0.6,0.6,0.6,1.6,0.7c1.4,0.2,0.7,0.4,1.9,0.6c1.9,0.6,0.9,0.3,1.8,0.6c0.3,0.1,0.6,0.1,1,0.2c1,0.3-0.3,0.6,3,0.6
		c0,0.9-0.2,0.6,0.7,0.6c3.5,0.3,8.1,0.1,11.5,0c2-0.1,2.3,0.3,2.3-0.6c0.6,0,1.5,0,1.9-0.1c1-0.1,0.3,0,0.6-0.2
		c2.3-1.5,1.5-0.6,3.5-1.5c0,0,0.1,0,0.1-0.1l1.8-0.7c0,0,0.1,0,0.1-0.1l1.2-0.6c1.2-0.6-1,0.7,0.6-0.4c0.2-0.2,0-0.2,0.6-0.3
		c0.1-1-0.2-0.1,0.6-0.6c0.6-0.6,1.2-0.6,1.8-1.2l0.6-0.6l0.1-0.1l0.6-0.6c0.4-0.4,0,0,0.3-0.4c0.1-0.2,0-0.1,0.2-0.3l0.1-0.1
		l0.1-0.1l1-0.9c0.7-0.6,0.9-0.9,1.5-1.9l0.9-1.2l0.1-0.1l1.3-2.2c0.1-0.3,0-0.2,0.1-0.4c0.2-0.4,0.3-0.3,0.6-0.6l1-3
		c0.4-0.6,0.2-2,0.4-2.9c0.1-0.6,0-0.1,0.2-0.6c0.1-0.1,0.1,0.2,0.2-0.6c0.3-1.6,0.1-8.2,0.1-10.3l-0.3-2c-0.4-0.6-0.1-2.2-0.6-3.2
		c-0.4-0.6-0.2-1.2-0.6-1.9l-0.6-1c-0.4-1-0.1-0.2-0.6-0.7l-0.6-0.9l-0.1-0.1l-0.4-1c-0.2-0.6-0.3-0.6-0.6-1l-0.1-0.1l-0.4-0.6
		c-0.1-0.3-0.1-0.3-0.2-0.6c-0.4-0.7-0.2-0.7-1-0.9c0-1.5-0.3-0.3-0.7-1.3c-0.6-0.9-0.6-0.4-0.7-1.2h-0.6c-0.1-1.4-0.4,0-1.5-1.4
		c-0.6-0.6,0-0.7-1-0.7c-0.1-1-0.3-0.6-1.6-1.3l-0.1-0.1l-2.6-1.6c-1-0.4-1.3,0.1-1.4-0.9c-0.6,0-0.6,0-1-0.2l-0.1-0.1l-1.5-0.6
		c-0.9-0.4,0.3-0.1-0.6-0.3c-0.6-0.2-1.6-0.1-2.2-0.2c-1.4-0.3,0.3-0.3-1.5-0.6c-1.3-0.2-2.9-0.1-4.2-0.2c-1.4-0.1,0.4-0.6-3.5-0.6
		c-1.7,0-1.4,0.4-3.7,0.6c-4.9,0.2-2.7,0.4-4.5,0.6c-1.6,0.3-0.7,0-1.4,0.4c-0.6,0.4-1.4,0.2-2,0.6l-0.6,0.3
		c-1.5,0.4-0.6-0.1-1.2,0.7c-0.2,0-0.6,0-0.9,0.1l-4.2,2.6c0,0-0.2,0.1-0.2,0.2l-1.7,1.3c-0.7,0.6-0.2,0.9-1.3,1
		c-0.1,0.9-0.2,0.4-0.7,0.9c0,0-0.1,0.2-0.2,0.2l-0.4,0.7c-0.4,0.4-0.7,0.6-1,1l-0.9,1.6c-1.4,1.7-0.7,1.2-1.4,1.9l-0.6,1.3
		l-0.1,0.1l-0.1,0.1l-1.9,4.9c0,0-0.1,0.6-0.1,0.6c0,0.6,0,1.2-0.1,1.7c-0.3,1.4-0.2-0.1-0.4,1.3
		C316.6,215.8,316.9,218.2,316.9,220.6L316.9,220.6z"/>
	<path fill="#FFFFFF" d="M424.3,269.1L424.3,269.1c-0.6-0.3,0.3-0.2-0.6-0.4c-1.5-0.3-10.7-0.1-12.3,0l0.1,1.9l1.9,0.3l0.1,0.1
		c0.9,0.6,0.9,0.3,1.5,1c0.4,0.6-0.1-0.4,0.3,0.3v14.4l-0.9,0.6l-0.1,0.1c-0.7,0.7-1.9,0.6-3.3,0.7v1.8h13.3l-0.1-1.9
		c-3.3,0-1.9-0.1-3.2-0.6c-0.2-0.1-0.7-0.1-1-0.1c-0.4-5.2-0.2-11.2-0.2-16.6c0.6,0,1.4,0,1.8,0.1l0.9,0.6c0,0,0.1,0,0.1,0.1
		c0.3,0.1,0.1,0,0.4,0.2l0.1,0.1c0.6,0.3,0.6,1,1.4,1c0,0.6,0.2,3.4-0.1,3.7l-0.1,0.1l-3.2,2.4L421,279c-0.3,0.3-0.2,0.1-0.4,0.6
		c0.6,1-0.7-1,0.3,0.3l1.8,3.2l0.1,0.1l0.6,1l0.1,0.1l0.1,0.1l0.1,0.1l0.7,1.5c0.6,0.6,1.3,1,1.9,1.7l3,2.2c1,0.6,4.6,0.4,6.2,0.3
		v-1.4c-1,0-1-0.3-1.9-0.6c-0.6-0.3-0.2,0-0.7-0.4l-0.1-0.1l-0.9-0.4l-0.1-0.1l-0.1-0.1c0,0-0.2-0.1-0.2-0.2l-2.2-2.4l-0.1-0.1
		l-0.2-0.2l-0.1-0.1l-0.6-1c-0.3-0.6-0.7-0.6-1-1.2c-0.6-1.7-0.7-0.6-0.6-2.9c1.2,0,1-0.2,1.8-0.9l0.9-0.6c0.1-1.7,0.4-0.7,0.6-1.9
		c0.2-0.9,0.2-2.9-0.1-3.6l-1.3-1.2c-0.6-0.6-1.7-1-1.9-1.6C425.5,269.3,424.9,269.3,424.3,269.1L424.3,269.1z"/>
	<path fill="#FFFFFF" d="M183.9,271.5C183.9,271.5,183.8,271.4,183.9,271.5c-0.1-0.1-0.2-0.2-0.2-0.2l-0.2-0.2
		c-0.9-0.9-0.7-2.2-1.7-2.4l-7.3,0.1l0.1,1.9c0.4,0,1,0,1.4,0.1l1.6,0.6c0.6,0.3,0.6,0.6,1.4,0.6c0.1,0.3,0.1,0.6,0.2,0.9
		c0.1,0.3,0.4,0.1,0.6,0.6c0.1,0.4,0.1,7.6-0.1,8.4l-0.3,0.6c-0.6,1,0.1,2.7-0.2,3.9c-0.1,0.4-0.6,0.6-0.6,1.6c-0.6,0-1.3,0-1.8,0.3
		l-1.2,0.6c0,0-0.1,0-0.2,0.1v1.2l12.1-0.1v-1l-0.6-0.6c-1,0-2.6,0.1-3.3-0.6l-1-1l-0.1-7.8c0-0.7-0.2-1.8,0.3-2.3
		c0.6,0.4,0.1,0,0.6,0.6l4,4c0.3,0.3,0,0,0.2,0.3l1.4,1.5l0.1,0.1l2.6,2.6c0.4,0.6,0.6,1,0.9,1.6c0,0,0.2,0.1,0.2,0.2l1,0.6
		c0.4,0.4,0.2,0.2,0.4,0.6l1.2,1.4c0.6,0.6,1.4,0.6,2,0.2c0-1.6-0.2-8.4,0.1-9.4c0.6-1.9,0.2-2.6,0.3-4.5c0.1-1.6,0.1-3.2,0.3-4.5
		c0.2-0.1,0.6-0.1,0.7-0.3l0.2-0.2l0.1-0.1c0.6-0.4,1.3-0.3,1.9-0.3v-1.9h-11.5l0.1,1.9c0.6,0,1.9,0,2.3,0.1l1.7,0.6
		c0.9,0.3,0.7,0.9,1.2,1.7c0,0,0,0.1,0.1,0.1l0.4,1c0.1,0.9,0.1,8.1,0,8.6c-0.9,0-0.2,0-0.6-0.3l-1.2-1c0,0-0.1-0.2-0.2-0.2
		l-6.2-6.6l-0.1-0.1L183.9,271.5L183.9,271.5z"/>
	<path fill="#FFFFFF" d="M282.5,269.3c-0.6,0-1.3,0-1.9-0.3c-0.4-0.2,0.3-0.1-0.6-0.3c-1.5-0.3-10.7-0.1-12.3,0l0.1,1.9
		c2,0.1,2.3,0.3,2.6,0.4l0.2,0.2c0.4,0.4,0.4,0.6,0.6,1l0.3,0.6c0.2,0.3,0.1,0.1,0.1,0.6c0.2,1.8,0,4.5,0,6.4c0,2,0.3,5.5-0.6,6.9
		c-0.7,1.6-2,1.6-3.9,1.7v1.8h13.3l-0.1-1.9l-2.4-0.6c-0.6-0.3-1.6-0.3-1.8-0.9c0-0.1-0.1-0.1-0.2-0.1v-15.9c0.6,0,1.5-0.1,1.9,0.2
		c0.6,0.2,1.4,0.6,1.9,1c0.2,0.2,0,0,0.3,0.3l0.4,0.6l0.1,0.1l0.1,0.1c0.3,0.3,0.1,0.1,0.6,0.3c0,0.6,0.1,1,0,1.5
		c0,1.4-0.1,0.6-0.4,1c-0.4,0.6,0.1,0-0.6,1l-0.6,0.9c-1.4,0.2-0.6,0.1-1.2,0.4c-0.6,0.3-1.2,0.3-1.8,0.3c-0.1,0.6-0.1,0.6,0,0.9
		c0.4,1-0.6-1,0.2,0.4c0.6,1,0.1,0.6,1,1.3c0.2,1.8,0.7,1.3,1.3,2.4l0.6,1.3c0.6,1.4,1.8,1.9,2.7,3l0.1,0.1l0.1,0.1l0.7,0.6
		c1,0.4,0.7-0.3,0.7,0.7c3.9,0.2-0.6,0.6,7.1,0.6v-1.4c-0.7,0-1-0.1-1.5-0.4L288,287c-0.6-0.6-1-0.4-1.7-1l-2.3-2.6
		c-0.2-0.6-0.1-0.3-0.3-0.6l-0.1-0.1c-1.6-1.8-0.1,0-1.2-1.9l-0.2-0.3c-0.4-1,0-1.7,0.9-2c0.6-0.2,0.7-0.2,1-0.6l0.6-0.9
		c0.2-0.7-0.2-0.6,0.7-0.6l-0.1-4c-0.9-0.1-0.6-0.6-1-1.2l-1.6-1.2C282.1,269.6,283.1,270.2,282.5,269.3L282.5,269.3z"/>
	<path fill="#FFFFFF" d="M259.3,271.7c0.3,0.1,0.6,0.1,0.7,0.2l0.6,1.5c0.2,0.6,0.2,1.2,0.2,1.8l1.9-0.1v-6.4h-18l0.1,1.9
		c0.6,0,1.9,0,2.3,0.3c0.6,0.3-0.6-0.4,0.2,0.2l0.6,0.6c1,1,0.7,2.6,0.7,5.2c0,3.3,0,6.6-0.1,9.8l-0.6,0.4l-0.1,0.1
		c0,0-0.1,0.2-0.2,0.2l-0.3,0.3c-0.6,0.6-1.2,0.6-2.7,0.6l-0.1,1.9l18.2-0.1c0-0.3,0-1,0.1-1.3c0.3-1.4,0-0.1,0.4-0.7
		c0.3-0.6,0.2-1.2,0.3-1.9c0.3-1.2,0.1,0,0.4-1c0.2-0.9,0.1-2.4,0-3.2l-0.9-0.1c-0.2,0.6,0,0.2-0.2,0.6c-0.3,0.7-0.1,0.2-0.3,0.6
		l-0.3,0.3c-0.3,0.6,0,0.4-0.6,1.2c-0.6,1-0.1,0.6-1,1.9l-1.3,1.2c0,0-0.1,0-0.1,0.1c-1,0.4,0.9-0.3-0.3,0.1
		c-1.7,0.6,0.1,0.4-1.7,0.6c-0.7,0.1-2.2,0.1-2.9-0.2c-0.2-0.1,0,0-0.2-0.2l-0.1-0.1l-0.1-0.1l-0.6-0.7c-0.2-0.3-0.1-0.1-0.2-0.6
		c-0.2-1.4-0.1-4.3,0-5.8c0.9,0,1.9,0,2.9,0c1.7,0.1,0.2,0.4,2.2,0.6l0.2,1.9c0.9,0,0.6,0.1,0.7,1.3h1l0.1-8.9H259
		c0,1,0.2,1-0.6,1.2l-0.2,1.5h-5l0.1-7c0.6,0,1.4,0,2,0c2.4,0.1,1.2,0.2,2,0.6C258.3,271.7,258.2,271.3,259.3,271.7
		C259.2,271.7,258.9,271.6,259.3,271.7L259.3,271.7z"/>
	<path fill="#FFFFFF" d="M452.7,275.2h-2c-0.1,1.9-0.6,0.6-0.6,2.6H445l0.1-6.9l3.2-0.1c1,0.2,0.2,0,0.6,0.3c0.7,0.4,1,0.1,1.9,0.3
		c1.4,0.3-0.4,0.3,1.4,0.6c0.1,1,0.2,0.9,0.4,1.2C452.9,273.8,452.9,274.5,452.7,275.2L452.7,275.2z M452.7,275.2l1.8-0.1v-6.5
		l-17.9,0.1v1.8c1,0.1,1.7-0.1,2.3,0.4l0.1,0.1l0.1,0.1c0.6,0.3,0.6,0.2,1,0.2c0.1,1.3,0,1.2,0.4,1.9c0.6,1,0.3,9,0.2,10.4
		c-0.1,4.5-0.4,1-0.6,3.7c-1,0-0.6-0.1-1,0.6c-0.6,0-1.7,0-2.2,0.3c0,0-0.2,0.1-0.2,0.2c-0.6,0.4-0.4,0.6-0.4,1.6h17.8
		c0-0.4,0-0.7,0.2-1c0,0,0-0.1,0.1-0.1l0.1-0.1l0.1-0.2c0.1-0.1,0.1,0,0.1-0.4c0.1-0.6,0.1-1.9,0.2-2.6h0.6v-4c-0.6,0-0.9,0.2-1,0.6
		l-0.1,0.1l-2,3.5l-0.1,0.1l-2.6,1.9h-3.4c-0.6-0.9-0.3-0.4-1-1l-0.1-0.1c-0.4-0.6-0.3-0.1-0.4-0.6v-6.1h4.2
		c0.6,0.7,0.2,0.2,0.6,0.6l0.1,0.1l0.3,0.4l0.1,0.1l0.1,0.1c0.3,0.6,0.2,1,0.4,2.2h1.2c0.6-0.7,0.6-0.4,0.6-1.6
		C452.6,280.5,452.4,276.6,452.7,275.2L452.7,275.2z"/>
	<path fill="#FFFFFF" d="M171.2,271c0.2-0.2,0.1-0.2,0.6-0.3c1.6-0.4,1.5,0.2,1.4-1.9h-10.9l0.1,1.9l1.9,0.4l0.1,0.1
		c0.3,0.3,0.4,0.1,0.6,0.6c1,0.1,0.3,0.2,0.7,0.6l0.1,0.1c0.6,0.7,0.3,4.6,0.3,6.2c-0.9,0-0.6-0.1-0.6,0.4c-0.2,1.5,0.3,1.9-0.4,3
		c-0.4,0.7-0.1,2.2-0.6,3l-0.6,1.2c-0.4,0.6-0.3-0.6-0.4,0.6c-1,0.1-0.6,0.4-1.8,0.6c-0.6,0.1-1.5,0.1-2.2,0.1
		c-2.4,0-2.4,0.2-3.6-0.9c0,0-0.2-0.1-0.2-0.2l-0.9-0.7c-0.2-0.2-0.4-0.6-0.4-2h-0.6l-0.1-4.3c-0.1-4.2-0.3-1.9-0.6-3.3
		c-0.3-1.6-0.1-5.8-0.1-7.8c-3-0.1-5.9-0.3-9,0v1.9c0.6,0.1,1,0,1.6,0.1c0.6,0.2,0,0.2,0.7,0.4c0.2,0.1,0.6,0.1,0.7,0.1
		c0.1,1.3,0.1,0.7,0.4,1.3c0.4,0.6,0.2,1.9,0.6,2.3c0.2,0.4,0.4-0.1,0.4,1.7c0,0.7,0.1,1.5,0.1,2.2l0.3,1.9c0.4,1.2,0,3,0.3,4.2
		l0.6,1.6c0.9,0.6,0.3-0.3,0.7,0.9l0.6,0.7c0.3,0.2,0.1,0.1,0.6,0.3l0.9,0.6c1.2,1,1.8,0.6,3.2,1c1.4,0.6,5.8,0.6,7.5-0.6l0.1-0.1
		l0.6-0.3c0.9-0.4,0.7,0.3,0.7-0.9c1-0.1,0.1,0,0.6-0.2c0.6-0.3,0.6-0.6,0.9-1l0.6-0.7c0.2-0.4,0.1-0.6,0.4-0.9
		c0.4-0.6,0.3,0.3,0.4-2.2c0.1-4.8,0.4-2.9,0.6-4.5c0.1-0.6-0.1-1.7,0.1-2.3l0.6-1.9c0.3-1.5,0.2-0.6,0.4-0.9
		c0.2-0.3,0.1-0.4,0.2-0.9c0.2-0.3,0.6-0.3,0.6-0.6c0.1-0.2,0.2-0.6,0.2-0.9L171.2,271L171.2,271z"/>
	<path fill="#FFFFFF" d="M404.2,269.3c-0.6,0-1.4-0.1-2-0.1c-1.4-0.1-1,0.1-1.7-0.3c-1-0.6-11.2-0.1-12-0.1v1.9c0.6,0,1.8,0,2.3,0.3
		l0.6,0.6l0.1,0.1l0.6,0.6c0.1,1.4,0.1,2.7,0.1,4.2c0,1,0.2,0.6,0.4,1.3v2.2c0,1,0.2,2.2-0.1,3c-0.6,1.6-0.3,2.3-0.4,4.5
		c-2.4,0.7-0.2,0.2-1.7,0.6c-0.3,0.1-1.7,0.2-2,0.2l0.1,1.9h13.3l-0.1-1.9c-4.3-0.1-2.4-0.1-3.5-0.6c-0.6-0.2-0.6-0.1-1-0.2
		l-0.3-1.4c-0.6-1.2-0.4-5-0.4-6.6c0-2.9,0-5.6,0-8.5c1.7-0.4,2.2-0.1,2.9,0.3c0,0,0.1,0,0.1,0.1c0.4,0.1,0.6,0.1,1,0.2
		c1,0.3,1.9,1.7,2.2,1.9c0,0,0.2,0.1,0.3,0.2c0,0.4,0,1,0.1,1.5c0.2,0.7,0.1,0.2,0.2,0.6c0.4,1.2-0.1,0.6-0.3,1.6
		c-0.1,0.3-0.1,1-0.1,1.3l-0.6,0.6c-0.1,0.1-0.1,0.2-0.3,0.3c-1.2,1.4-1.9,0.2-3.2,1c-0.6,0.4-0.6,0.4-0.6,1.6c2.9,0,2.6,0.2,4-0.6
		c0.6-0.3,1-0.3,1.6-0.3c0.6-0.6,0.1-0.3,1-0.6c0.6-0.2,0.2-0.1,0.4-0.2l0.4-0.3l0.1-0.1l0.9-1l0.1-0.1l0.1-0.1
		c0.3-0.3,0.1,0,0.2-0.3l0.6-1.5c0.3-1.3,0.1-3.9-0.9-4.9c-1.5-1.6-1.5-1.7-3-1.8L404.2,269.3L404.2,269.3z"/>
	<path fill="#FFFFFF" d="M359.9,273.6c-0.2-0.6-0.6-1-1.3-1.2v-1c1.2-0.6,0.9-0.6,2.6-0.9v-1.9h-10.9l0.1,1.9c0.6,0.2,0.6,0.1,1,0.1
		c0.2,0,0.3,0,0.6,0.1c0.4,0.1,0.3,0.1,0.4,0.2l2.2,2.2l0.1,0.1l0.2,0.2l0.1,0.1c0.4,0.6-0.2-0.1,0.3,0.3c0.6,0.6,0.1-0.2,0.6,0.6
		c0.7,1.6,0.7,1,1.3,2.2l0.6,0.6l0.1,0.1l0.9,1.5c0.6,0.7,0.4-0.1,0.6,1.4l0.7,0.2c0.1,0.7,0.3,1,0.6,1.4c0.2,0.6,0.2,1,0.2,1.6
		c0,1.2,0,2.2,0,3.3c-0.2,0.1-0.3,0.2-0.6,0.4l-2.2,1c-0.9,0.2-0.7,0.6-1.7,0.6v1.4h13.4v-1.4c-1.3,0-0.9-0.2-1.7-0.6l-1-0.2
		c-0.6-0.2-1-0.6-1.5-1.2c-0.6-0.9-0.6-5.6-0.2-6.4l1-2c0.6-1-0.4,0.6,0.1-0.2l1.7-2.6c0.4-0.7-0.1-0.4,0.6-1l0.2-0.2l0.1-0.1
		l0.1-0.1l1.3-1.9c0.6-0.6,0.9-0.6,1.5-1l0.9-0.6c0.3-0.1,1-0.1,1.4-0.1v-1.8h-8.9l0.1,1.9c1.3,0.1,1,0.2,1.4,0.6l0.4,0.3
		c0,0.2,0,0.6,0,0.6c-0.1,0.4-0.1,0.2-0.2,0.4c-0.2,0.3-0.1-0.4-0.4,0.6l-0.6,1.8c-0.2,0.4,0,0.2-0.2,0.6c-0.2,0.4,0-0.1-0.2,0.3
		s-0.1,0.6-0.3,0.9l-0.1,0.2l-0.1,0.1c0,0-0.1,0.1-0.2,0.4c-0.1,0.3-0.1,0.6-0.2,0.9c-0.2,0-0.6,0.1-0.7,0.1c-0.6-0.1-0.3,0-0.6-0.2
		c-0.6-0.6-0.6-1.3-1-1.9l-0.6-0.9l-0.1-0.1c0,0-0.1-0.2-0.2-0.2L359.9,273.6L359.9,273.6z"/>
	<path fill="#FFFFFF" d="M229.8,291.2h1.2l0.1-1.4l0.6-0.2c0.1-0.6,0.1-1.2,0.4-1.7l1.4-2.9c0,0,0-0.1,0.1-0.1l0.1-0.3
		c0.3-1,0.4-0.2,0.6-1.7c0.3-1.5,0.6-0.7,0.6-2.2c0.7-0.4,0.6,0,0.9-0.9c0,0,0-0.1,0.1-0.1c0,0,0-0.1,0.1-0.1l0.1-0.1l0.2-0.4
		c0.1-0.2,0.1-0.2,0.1-0.4c0.1-0.4,0-0.1,0.2-0.4l2.3-5c0,0,0-0.1,0.1-0.1l0.7-1.3l3-1.6v-1.9h-10v1.9c1,0.1,1.7,0.3,2.6,0.9
		c0.6,0.4-0.3,0.3,0.6,0.4l-0.6,2.7c-0.4,1-0.4,0.2-0.6,1.4c-0.1,0.3,0,0.4-0.2,0.7c-0.4,1,0.6-0.9-0.2,0.3c-0.2,0.3,0-0.2-0.2,0.4
		l-1.3,3c-0.3,1-0.4,2.2-1.2,2.9c-0.6,0.6,0.2,0.3-0.7,0.4l-1.6-3.5c0,0,0-0.1-0.1-0.1c-0.7-1.4-0.2-1-0.7-2c-0.1-0.2,0,0.2-0.3-0.6
		c-0.1-0.2-0.1-0.4-0.2-0.6c-0.2-0.6-0.6-1.4-1.2-1.8c0-0.3,0-0.7-0.1-1.2c-0.2-1.2-0.1-0.4-0.3-0.7c-0.3-0.6-0.2-1.2-0.2-1.8
		c1-0.1,1-0.2,1.5-0.6c0.6-0.3,1-0.2,1.7-0.2v-1.9h-11.5l0.1,1.9l0.9,0.2c0.6,0.3,1.6,0.6,1.9,1l0.1,0.1l0.1,0.1
		c0.6,0.6,0.6,0.6,0.9,1.3l1,2.6l0.1,0.1c0,0,0,0.1,0.1,0.1l0.6,1c0.3,0.3,0.2,0.1,0.4,0.6c0.4,1-0.3,0.4,0.6,0.9
		c0.1,1.8,0.2,1.3,0.4,1.7c0,0,0.1,0.1,0.2,0.4l0.6,1.7c0.6,1-0.6-0.9,0.1,0.3l0.4,0.6c0.6,1.3,0.6,1,0.7,2.9c0.6,0.3,0.6,0.6,0.9,1
		c0.6,1.2,0.3,1.2,1,1.7C229.2,291.8,229.6,289.6,229.8,291.2L229.8,291.2z"/>
	<path fill="#FFFFFF" d="M466.1,275.8c-0.1-1.2-0.1-0.2-0.6-0.9l-0.4-0.7c0,0,0-0.1-0.1-0.1c0,0,0-0.1-0.1-0.1
		c-0.3-0.6-0.3-1.7,0.2-2.2l0.1-0.1l0.1-0.1c0.3-0.3,0.4-0.2,0.6-0.7c1.2,0,2.9-0.2,3.6,0.6c0.6,0.6,0.3-0.4,0.6,0.6
		c1.5,0.2-0.4,0.6,1.3,0.7c0,0.3,0,0.9,0.1,1c0.2,0.6-0.1,0,0.6,0.4l0.1,1.8l1.8-0.2v-6.2c-2-0.2-1.5-0.6-2.4-0.6
		c-0.3-0.1-0.6,0-1-0.1c-1.5-0.1-1-0.6-2.3-0.6c-1,0.2-0.1,0-0.6,0.3c-0.6,0.3-1.3,0.2-1.9,0.3c-1.2,0.2-0.4,0.2-1,0.6
		c-0.7,0.4-0.9,0.6-1.6,1c-0.6,0.6-0.6,0.2-0.7,1h-0.6c-0.1,1.3-0.6-0.3-0.6,3.6c0,1,0,1.7,0.6,2.4c0.6,1,0.2,0.7,1.2,1.7l1.7,1
		l0.1,0.1l1,0.4c0.4,0.2,0.6,0.6,1.3,0.6c0.1,1-0.1,0.4,1,0.7c1.3,0.6-0.4,0.4,1,0.6c0.1,1,0,0.2,0.4,0.6l0.4,0.4
		c0.4,0.6,0.2,0.6,1,0.7c0.2,3.3-0.3,1.8-0.6,3.7c-0.9,0.1-2,1-3.5,0.6c-0.6-0.2,0.1,0-0.3-0.2l-1-0.6c-0.6-0.4,0.6-0.3-0.6-0.4
		c-0.1-1.4-0.1-0.2-0.4-0.7c-0.4-0.6,0.1-1-1-1l-0.6-1.9c-0.3-0.6-0.2-1-0.4-1.9l-1.7,0.2v6.6c0.7,0.4,0.6-0.3,0.6,0.9
		c0.6,0,1.3,0,1.7,0.3l0.6,0.3c0.1,0,0.6,0.1,0.7,0.1c0.3,0,0.6,0,0.9,0.1c1,0.3,1,0.4,2.2,0.4c0.6,0,1.3,0.1,1.8-0.1l0.3-0.1
		c0,0,0.1,0,0.1-0.1c0,0,0.1,0,0.1-0.1l1.6-0.2c1-0.2,0.4-0.6,1.9-0.6c0-1.2-0.1-0.6,0.6-1l0.1-0.1c0.6-0.6,0.3-0.6,0.7-1.3
		c0.4-0.6,0.2,0.3,0.6-0.6v-4l-0.6-0.1l-0.1-1.4c-0.6-0.3-0.6-0.4-1-0.9c-0.2-0.3-0.1,0.3-0.2-0.4c-1-0.1-0.2-0.2-1-0.6l-1.2-0.6
		c-1.4-0.6-1.8-0.3-1.9-1.4c-0.9-0.1-1.3,0-1.9-0.6l-0.4-0.3C466.4,275.8,467.4,275.8,466.1,275.8L466.1,275.8z"/>
	<path fill="#FFFFFF" d="M298.7,271.5c0.6-0.6,1.6-1.5,2.6-1.3c0.4,0.1,1.4,0.4,1.9,0.9c0.6,0.6,0.7,0.6,1.2,1.5
		c0.3,0.6-0.4,0.6,0.6,0.6c0,1.5,0.6,1.2,0.6,2.6h1.4c0-2.2,0.2-4.3-0.1-6.5c-1.7-0.1-1.7,0.1-1.8-0.6c-1.9-0.1-3.8-0.2-5.6-0.1
		c-0.7,0.1-1.7,0.6-2.2,1l-0.6,0.3c-1.2,0.4-0.3,0.6-1.3,0.6c-0.1,1,0.3,0.3-0.6,0.7c-0.1,1.8-0.6,1.4-0.6,2.2
		c-0.3,1.9,0.2,2.2,0.6,3.2c0.4,1,0.6,0.6,0.6,1.6c1.2,0.1,0.2,0,0.6,0.4l0.7,0.6l0.1,0.1l1.7,1l0.1,0.1c1,0.6,1-0.2,1.2,0.9
		l3.2,1.7c1,1,1,3.2,0.6,3.9c-0.3,0.3-0.3,0.2-0.6,0.4c-1,1-1,1.2-2.6,1c-0.6-0.1-1.4-0.6-1.9-0.6c-0.7-0.6,0.4-0.4-0.7-0.6
		c-0.1-1,0.2-0.2-0.6-0.9c-0.7-0.7-0.6-1-1.3-1.9c-0.7-1.5,0.3-3.2-2-3v6.2c0,1.3,0.6,0.2,0.6,1.4l1.4,0.4c0.4,0.2-0.4,0.1,0.6,0.3
		c1.9,0.3,1,0.3,1.9,0.6c1,0.3,4.5,0.2,5.2-0.2c0.7-0.4,1.5-0.3,2-0.6c0.7-0.6,0.6,0.2,0.6-0.9c1-0.1,0.1,0.1,0.6-0.3
		c1.2-0.9,1.3-2,1.3-4c0-1.5,0-1.9-0.6-3l-0.3-0.6c-0.1-0.2-0.4-0.6-0.4-1c-0.6-0.1-0.7-0.1-1-0.4l-0.4-0.4l-0.1-0.1l-0.1-0.1
		c-0.4-0.4-0.6-0.3-1.3-0.6l-0.2-0.2l-0.1-0.1l-1-0.4c-0.6-0.3,0.1,0-0.4-0.4l-1.6-1c-0.4-0.3-0.3-0.4-0.9-0.6c-0.1-1,0-0.3-0.3-0.6
		l-0.1-0.1l-0.4-0.4c-0.6-0.6-0.6,0-0.6-1.4L298.7,271.5L298.7,271.5z"/>
	<path fill="#FFFFFF" d="M484.2,271.5L484.2,271.5l0.2-0.2c1.3-1,2.6-0.6,4.2-0.6c0.1,0.9,0.2,0.6,0.7,1c0.6,0.6,0.6,1.2,0.6,2
		c1,0.1,0.6,0.1,0.7,1.9h1.8v-6.4l-1.8-0.4c-0.7-0.6-5.9-0.6-6.9,0l-0.7,0.6c0,0-0.1,0.2-0.2,0.2c-0.2,0.2-0.1,0.1-0.6,0.3
		c-0.6,0.3-0.9,0.6-1.5,1.2l-0.7,1.3l-0.1,0.1c-0.6,0.9-0.6,3.5,0,4.5l1.5,1.7c0.1,0.1,0.1,0.2,0.3,0.3l0.4,0.4l0.1,0.1l0.1,0.1
		l2,1.2c0.3,0.2,0.6,0.2,0.7,0.3l1.8,1.2c1,0.6,1-0.2,1,0.9c1,0.1,0.3-0.2,0.9,0.6c0.7,0.9,0.7,3.2,0,4.2c-0.6,0.9-0.9,1-2,1
		c-0.9,0-1.5,0-2.2-0.4l-0.9-0.6l-0.2-0.2l-1.3-1.7c-0.7-0.9-0.6-2.2-1-3.2l-0.3-1.2h-1v7.1h0.6v0.6c1.7,0.1,0.9,0.6,2.7,0.6
		c1.3,0.1,1.7,0.6,2.7,0.6c2.9,0,1.7-0.2,3.3-0.4c0.6-0.1,1,0,1.6-0.3l0.6-0.4c0.7-0.3,1-0.6,1.6-1.3l0.1-0.1l0.6-0.7
		c0.6-1,0.6-4.5,0-5.8l-1.7-1.9c-0.6-0.6-1-0.6-1.6-1l-1.9-1.3c-1-0.9,0.6,0.3-0.3-0.3l-1.6-0.7C483.8,275.4,484,273.8,484.2,271.5
		L484.2,271.5z"/>
	<path fill="#FFFFFF" d="M329.7,274.2c0.6-0.6,0.3,0.1,0.6-0.6c0.1-0.2,0-0.3,0.1-0.6c0.1-0.3,0.2-0.3,0.2-0.4l0.3-0.3
		c1.4-1.5,2.2-1,5.4-1l-0.1,14.9c-1.4,0.1,0.1-0.2-1,1.4l-0.3,0.6l-3,0.2l-0.1,1.9h13c0-1,0.1-1.3-0.6-1.7l-0.6-0.2
		c-0.1,0-0.6-0.1-0.6-0.1c-1.7-0.2-0.6,0.1-1.4-0.6l-0.1-0.1c0,0-0.2-0.1-0.2-0.2l-0.6-0.6c0,0-0.1,0-0.1-0.1c0-0.1-0.1-0.1-0.2-0.1
		v-15.3c3.5-0.1,1.7,0.3,3.2,0.6c2.3,0.3,0.4,0,2.6,1.6l0.2,2.3c0.6,0.1,0.2,0.3,0.7,0.6c0.3,0.1,0.6,0.1,1,0.1c0.1-1,0.3-2.6,0-3.6
		c-0.6-1.7-0.3-0.7-0.3-3.4c-1.3-0.1-19.3,0-19.5,0.1c-0.1,2.4,0.4,3.2-0.6,3.3v3.6c2.3,0.1,0.6-0.3,1.8-0.6L329.7,274.2
		L329.7,274.2z"/>
	<path fill="#FFFFFF" d="M321.3,271.4c0.3-0.1,0.6-0.1,0.9-0.2l0.6-0.4c0.4-0.1,1.6-0.1,2-0.2v-1.9h-12.7v1.9c1.4,0.1,1-0.1,2,0.4
		l0.2,0.1c0.2,0.1,0.4,0.1,0.6,0.2l0.6,0.6c0.9,1,0.3,13.4,0.2,15.4c-2.2,0.3,0.6,0.7-3.6,0.9l-0.1,1.9l13-0.1v-1.3
		c-1.6-0.1-1-0.2-1.5-0.4c-1.2-0.6-1,0.3-1.8-0.6c-0.7-0.7-0.4,0.2-0.6-1c-0.1-0.6,0.1-0.4-0.3-1c-0.1-0.2-0.2,0.3-0.3-0.7V273
		L321.3,271.4L321.3,271.4z"/>
	<path fill="#FFFFFF" d="M213.8,271.5c0.4-0.4,0.6-0.6,1.2-0.7c0.2-0.1,0.6-0.1,0.6-0.1c0.4,0,0.7,0,1.3,0v-1.9l-13,0.1v1.8
		c0.6,0.1,1.8,0,2.2,0.2l1.3,1c0.6,0.7,0.4,3,0.6,4h0.6v8.9c-0.6,0.1-0.6-0.3-0.6,2.6c-1.6,0.2-0.6,0.4-1.8,0.6
		c-0.6,0.1-1.4,0.1-2,0.2v1.7c1,0.4,11,0.2,13,0.1v-1.4c-2.3-0.1,0-0.4-3-0.6l-1.2-1.8c-0.6-1.2-0.4-9.4-0.3-11.4
		C212.6,272.7,212.3,272.7,213.8,271.5L213.8,271.5z"/>
</g>
</svg>
