<svg version="1.1" xmlns="http://www.w3.org/2000/svg" x="0px" y="0px" width="640px" height="480px" viewBox="0 0 640 480" enable-background="new 0 0 640 480"><rect fill="#081F2D" width="640" height="480"/><g><path fill="#FEFEFE" d="M364.1,198.2c-1.8,0-1.6-0.2-3-0.8l-4.6-1c-1.8-0.2-6.4-0.8-7.4-1.6c-1.8-1-5-1-7.2-1.8c-2.2-0.8-4.8-1.4-7.2-1.8c-1.8-0.2-4-1-5.4-1.6c-8-1.6-4-0.2-9.8-0.2c-4.6,0-10.4-1-12.4-5.6c-1.4-2.6,0.2-4.2,2.2-6.2c0.6-0.6,1.8-1.6,2.6-1.8c2.2-0.8,5.4-1.6,7.4-1.6c3.8,0,7.8,0.8,10.6,2.6l2.4,2.2c0.6,0.2,1,0.2,1.8,0.6l5,1.6c1,0.2,2.4,0.6,3.4,1l3.4,1c1.4,0.6,2.4,0.6,3.4,1l10.4,3.4c2.2,0.8,4.8,1.4,6.6,2.2c0.8,0.2,1,0.2,1.8,0.6c0.8,0.2,0.2,0.2,1.6,0.8c1.6,0.6,4.2,1.4,5.8,0.8l4.2-2.4c3.2-1.6,11-4.6,8-9.4c-1.4-2.2-3-2.6-5.4-3.8l-32-17.8c-2.4-1-14.8-7.8-16.8-9.4c-1.6-1-6.6-4-8-4.2c-4-1.4-9.8-1.4-13.6,0.6l-7.2,4c-0.6,0.2-1,0.6-1.6,0.8l-15.2,8.6c-0.2,0-0.6,0.2-0.6,0.2c-0.8,0.6-0.8,0.2-1.6,0.8c-1.6,0.8-3,1.6-4.6,2.4l-1,0.6c0,0,0,0-0.2,0l-3.2,1.8c-1,0.6-1.8,1-3,1.6L263,172c-1,0.6-2.4,0.8-3.2,1.6l-0.6,0.6c-1,0.8-3.2,1.6-4.6,2.4c-4,2.4-7,5-2.4,9.4c1,1,4.6,2.4,5.8,3.2c3,1.6,5.6,3.4,8.8,4.8c0.8,0.6,2.2,1,3.2,1.6c0.8,0.2,0.6,0.2,1.4,0.8l9.6,5c1,1,7.8,4.2,9.4,5.4l17.6,9.8c3,1.6,2.2,1.6,6.2,3c2.4,0.8,5.6,0.8,8.6,0.6c3.8-0.6,2.2-0.6,3.2-1c0.8-0.2,0.8,0,1.6-0.6l18.8-10.4c3.2-1.6,7-4.2,10.4-5.6c1.6-0.6,0.2-0.2,1-1l4.2-2.4C363.5,199.2,363.7,199,364.1,198.2L364.1,198.2z"/><path fill="#FEFEFE" d="M276.5,212.8c-2.4-0.8-1.4-1-2.6-0.8c0,1,0.6,2.4,0.8,3.8c0.2,1.8,0,0.2,0.8,1.6l1.4,3.4c0.6,0.8,0.2,0.6,0.8,1.4c1.8,3.2,3.2,5.4,6.6,7.8c4.2,3.2,7,3.8,8,4.6l0.6,0.2c0.2,0.2,0.2,0.2,0.6,0.6l5,2.4c0.6,0.2,1,0.2,1.6,0.8l9.4,5c4,2.2,9.4,6.2,13.6,4.6c1.4-0.6,2.2-0.8,3.4-1.4l15.4-8c0.8-0.6,1-0.2,1.8-0.8l8-4c1.4-0.8,3.8-3.4,4.2-4.8c0.6-1.8,2.2-10.2,2.2-12c-1,0-2.6,0.6-3.2,1l-11.6,5.8c-1.8,1-5.4,2.2-5.6,2.4l-2.4,1.4c-0.6,0.2-0.8,0.6-1.4,0.6c-1,0.6-1.6,0.8-2.6,1c-0.6,0.2-0.8,0.6-1.4,0.6c-0.6,0.2-0.8,0.6-1,0.8l-8,3.8c-1.6,0.2-5.4-2.2-6.6-3l-4-1.8c-1.4-0.6-1.6-0.6-2.4-1.4l-7.4-3.8c-0.8-0.6-4.2-1.8-5.4-2.4c-1.6-1-3.4-1.6-5.4-2.4l-9-4.6c-0.6-0.2-0.6-0.2-1-0.6C278.5,213.6,277.1,213,276.5,212.8L276.5,212.8z"/><path fill="#FEFEFE" d="M260.1,296.7c1.4,0.6,1.8,1.6,2.4,2.6c2.4,4.6,1.4,3.4-8,3.4c-8,0-9-1-9,1.6c0,5-0.6,4.2,4.6,4.2c2.2,0,12.4-0.2,13,0.2c1,0.8-1,5.8-3.8,6.6c-2.6,2.2-6.6,2.6-10.6,1.6c-4.6-1-1,0-5-1.6c-0.2,0-0.6-0.2-0.8-0.2l-3-1.8c-0.6,0,0,0-0.6,0c-0.6,0.6-0.2,6.6-0.2,7.2c0.6,1.4,1.6,0.6,3.2,1.6c1.6,1,0.8,0,3.4,1c3.4,1.6,10.6,1,14-0.2c0.6-0.2,0.8-0.2,1.6-0.6c0.6-0.2,0,0,0.8-0.2c0.6-0.2,0,0,0.6-0.2c0.8-0.2,0.6-0.2,1.4-0.6c3-1.8,1.4-0.6,3-2.2c1.8-2.2,3.2-3.8,4.2-6.6c0.2-0.8,0.6-1.8,0.8-2.6c0.8-3.8,0.2-9.4-1.4-12.4c-2.2-4-5-7.2-9.6-8.8c-1.4-0.6-1-0.8-2.6-0.8c-1.8-0.2-4.6-0.8-6.6-0.6c-3.2,0.2-9,1.4-11.6,3v6.6c2.2,0.2,4-2.4,10.2-3c3-0.2,3.2,0.2,4.6,0.6C259.1,295.1,257.9,295.5,260.1,296.7L260.1,296.7z"/><path fill="#FEFEFE" d="M321.7,307.1c2.2-1.8,3.4-2.4,6.6-1.6c1,0.2,1.4,0.6,1.8,1c1.8,1.8,2.6,6.6,0.8,9c-1,1.4-0.8,1.8-3.2,2.6c-1.8,0.6-3.4,0-5-0.6c-1.6-0.6-1-2.4-1-4.6C321.7,311.1,321.7,309,321.7,307.1L321.7,307.1z M322.1,322.7c2.2,0.2,1.8,1.8,7,1.6c1.8,0,5-0.8,6.4-1.8c3.4-2.6,5-6.6,4.8-11.4c0-3.8-1-6.6-3.4-8.8c-2.4-2.4-5-3.2-9-3.2c-3.4,0-4.2,2.2-5.8,2.2c-0.2-0.2-0.2-0.6-0.2-0.8l-0.2-0.6c0,0,0,0,0-0.2c-0.8,0-6.2-0.2-6.6,0.2c-0.6,0.6-0.2,28-0.2,32.8c0,4-1,3.2,5,3.2c1.4,0,1.8,0.2,2.4-0.2C322.3,334.7,322.1,325,322.1,322.7L322.1,322.7z"/><path fill="#FEFEFE" d="M184.2,323.5c1,0.2,21.2,0.2,23.2,0v-5.6c-3.8-0.2-8.6,0-12.4,0c-3,0-3.2,0-3.2-3c0-2.2,0-4.2,0-6.4l14.6-0.6v-5.6c-2.6-0.6-11,0.6-14.4-0.2v-7.8c3.4-0.6,13,0.2,15.2-0.2v-5.6c-1.8-0.2-21.2-0.2-23.2,0C184.2,292.7,183.8,322.6,184.2,323.5L184.2,323.5z"/><path fill="#FEFEFE" d="M437.7,308.3c0-1.8,0.2-2.6,1.8-3c4.6-1,8,0.8,8,5.6c0,3.8-0.2,5.4-3,6.6c-2.8,1.2-4.6,0.8-7-0.8L437.7,308.3L437.7,308.3z M437.7,322.6c1.6,0,6.6,4.2,12.8,0.2c0.6-0.2,1.6-1.4,2.4-1.8c0.2-0.2,0.2-0.2,0.6-0.6c1.6-1.6,2.6-5.8,2.6-8.6c0-7.4-4.6-12.8-12.2-12.8c-4.6,0-4.6,1.8-6.2,2.2c-0.6-0.6-0.6-0.8-0.8-1.6h-7v36.2c1.6,0,5.8,0.6,7-0.2L437.7,322.6L437.7,322.6z"/><path fill="#FEFEFE" d="M365.9,197.8c-0.2,1.8,0.8,2.2,1.8,5.4c0.6,1.8,1,3.2,1.4,5.4c1,9.8,0.6,16.2-0.6,25.8c-0.2,1.8-1.4,4.2,0.8,5.4c0.8,0.6,1.6,0.8,2.6,1c6.6,0.8,5.6-3.2,6.4-11c0.6-4.2,0.6-8.8,0.6-13.2c0-5.4-0.6-13.8-1.8-18.8c-0.2-0.8-0.6-1.6-0.8-2.6c-0.2-1-0.6-1.4-1-2.2c-1.6,0-3.4,1.4-4.8,2.2L365.9,197.8L365.9,197.8z"/><path fill="#FEFEFE" d="M214.2,323.5c1.4,0.6,7.4,0.2,8.8,0c0.6-6.6-0.6-24.8,0.2-28.8c2.4-0.2,12.8,0.2,13.8-0.2c0.6-0.8,0.2-4.8,0.2-6.2c-1-0.2-21.8-0.2-22.8,0L214.2,323.5L214.2,323.5z"/><path fill="#FEFEFE" d="M418.2,309.5c-1.8,0.2-4.8,0-7,0c-1.4,0-4,0.2-0.8-3.8c0.6-0.8,1-1,2.2-1.4c1-0.2,2.4-0.2,3.2,0.2C417.3,305.1,418.5,307.5,418.2,309.5L418.2,309.5z M425,317c-1.4,0.2-5.4,3.4-10.6,2.4c-0.8-0.2-1-0.6-1.6-0.8c-1.8-0.8-2.2-0.6-3-2.6c-0.6-1-1.4-0.8-0.8-2.2c0.2-0.8,0.2-0.6,1.6-0.6h13c1.6,0,3,0.6,2.6-1.4c-0.2-2.6-0.6-4.6-1.8-6.6c-2.4-4.6-5.8-6.2-11-6.2c-1.6,0-3,0.2-4.2,0.6c-2.2,0.6-5.6,3.4-6.6,5.8c-1,2.4-1.4,4-1,7.4c0.2,3.4,1.8,7.4,4.8,9.4l0.2,0.2c2.4,1.6,6.4,1.8,9.4,1.6c2.6,0,4.8-0.8,7-1.6c0.8-0.2,2.2-0.8,2.4-1.8v-3.8C425,317.1,425,317.1,425,317L425,317L425,317z"/><path fill="#FEFEFE" d="M351.3,309.5c-0.2-1.4,0.6-3,1.4-3.8c3.4-3.2,8.2-0.2,8,3.8H351.3L351.3,309.5z M366.1,317c-0.2,1.4,0,0.2-1,1c-1.6,1,0,0.2-1.8,0.8c-1,0.2-0.2,0.2-1,0.6c-1.4,0.6-4.2,0.2-5.8,0.2c-1.6,0-1.4-0.2-2.4-0.8c-0.8-0.2-0.6,0-1-0.6l-0.6-0.6c-0.6-0.6-0.8-1-1.4-1.8c-0.2-0.6-0.6-1-0.2-1.8c0.2-0.8,0.2-0.2,0.2-0.6c0.8-0.6,13.6,0,16.8-0.2c0.2-0.8-0.2-2.4,0-3.8c-0.6-4.2-4.6-8.8-8.2-9.6c-1.8-0.2-3.4-0.6-5.4-0.2c-3.2,0.2-6.2,1.6-8,3.8c-2.2,2.4-3,5.4-3,8.8c0,1.8,0.2,3.8,0.8,5c0.8,1.6,0.8,2.2,2.2,3.8c4.2,5,13,4.6,18.4,2.4c2.2-0.8,3-1.4,3-3c0-0.6,0-2.6,0-3C367.5,316.3,366.7,316.2,366.1,317L366.1,317z"/><path fill="#FEFEFE" d="M379.1,323.5c0.2-1,0-5.6,0-7.2c0-1.6-0.2-2.4,1-2.6h7.8c1.8,0.2,0.2,5.8,1,10.2h6.6v-21.2c0-2.6,1-1.8-6.6-2.2c-0.6,2.4,0.2,7.4-0.6,9c-1,0.2-8,0.2-9,0c-1-1.8,0-6.4-0.6-9h-6.6c0,7-0.2,16.8,0,23.2C374.1,323.8,378.1,323.8,379.1,323.5L379.1,323.5z"/><path fill="#FEFEFE" d="M297.5,323.5h6.4v-17.2c0-1.6,0-0.8,0.8-1.8h7c0-0.8,0-1.6,0-2.2c0-0.8,0.2-1.8-0.6-1.8c-0.2,0-0.2,0-0.6,0h-20v4.2c8.6,0.6,7.4-2.6,7.4,9.6C297.5,316.3,297.1,321.4,297.5,323.5L297.5,323.5z"/></g></svg>