<?xml version="1.0" encoding="utf-8"?>
<!-- Generator: Adobe Illustrator 19.2.0, SVG Export Plug-In . SVG Version: 6.00 Build 0)  -->
<svg version="1.1" id="Layer_1" xmlns="http://www.w3.org/2000/svg" x="0px" y="0px"
	 width="640px" height="480px" viewBox="0 0 640 480" enable-background="new 0 0 640 480">
<rect fill="#F0F1F3" width="640" height="480"/>
<g>
	<path fill="#E01325" d="M390.9,201c-0.2-11.1,8.1-12.4,11.6-9.6c2.2,2,3.3,5.4,0.6,8.1c-2.5,2.5-4.3,3-7.4,4.3
		c0.3,2.3,1.8,3.8,4.3,4c4.2,0,5.9-3.4,7.3-5.1c0.5-0.5,1.5-1.5,2.5-0.6c1.7,2.2-0.2,4.5-1.2,5.6c-2,2.3-8.1,4.8-12.2,2.8
		c-2.2-1.2-3.3-2.8-4.2-5.1c-0.5-1.1-1,0-1.7-1.4C389.5,202.1,390.7,201.6,390.9,201z M473.4,289.2v3.7c0,0.8-0.2,0.6-1.1,1.5
		c-0.6,0.8-1.1,1.1-2,1.7c-1.8,1-3.8,1.5-5.8,2c-0.8,0.2-1.2,0.3-2,0.5c-2.6,0.8-5.6,1.4-8.3,1.8c-11.6,1.8-23,3.8-34.6,5.8
		c-2.6,0.3-6.2,0.8-8.6,1.5l-8.3,1.7c-5,1-9.8,2.2-14.7,3.1c-0.6,0-1.4,0.3-2,0.3c-5.8,1.2-11.1,2.3-16.9,3.5
		c-4.2,0.8-8.3,2.8-12.7,1.8c-0.6-0.2-1.1-0.5-1.8-0.8c-0.8-0.2-1.2-0.2-1.5-1c0-1.2,4.5-4,5.4-4.5l2.2-1.1c0.5-0.3,0.6-0.5,1.1-0.6
		c0.5-0.2,0.8-0.3,1.2-0.6l4.3-2c6-2.6,9.8-4.3,15.4-7.6c0.6-0.5,1.2-1,1.8-1.4c0.6-0.5,1.1-1,1.7-1.5c0.8-1,2-2.8,1.4-4.8
		c-0.5-1.5-1.5-3-3.1-3.5c-3.3-1.1-8.2,0.6-10.6,1.5l-4.6,2c-4.6,2.2-6.3,3.4-11.1,5.3c-0.8,0.3-1.4,0.6-2.3,0.8
		c0.3-0.6,3.3-4.2,3.7-4.5c1.1-1.1,2.5-1.7,3.5-2.8c1-1,2.3-1.8,3.5-2.6c1.5-1.1,3.4-2.2,5.1-3.1c3.7-1.7,12.6-6.2,14.9-7.9l1.7-1.4
		c1.4-1.1,2.3-2.5,3.3-4c0.5-1,0.8-1.8,0.8-3.3c0-5.1-6.8-5.8-11-5.8c-0.6,0-3.3,0.3-3.5,0.5c-0.5,0.2-1,0.5-1.4,0.8l-6.3,3.8
		c-0.5,0.2-1,0.5-1.4,0.6c-0.5,0.3-0.8,0.6-1.2,0.8c-2.8,1.5-17,10.6-18.2,10.6c0.5-1.4,1.1-2.8,1.7-3.8c1-1.4,1.8-2.6,3-3.8l2-2
		c0.3-0.3,0.5-0.5,0.8-0.6l10.6-8.5c1.7-1.4,3.8-3.3,5.3-4.3c1.2-1.1,5.9-6,5.3-8.1c-0.2-1-1.4-2.6-2-3.4c-3-3.7-7.6-3.7-12.1-2.2
		c-4.3,1.7-8.1,4.6-11.8,7.3l-3,2.5c-0.5,0.3-0.5,0.5-0.8,0.8c-0.3,0.2-0.5,0.3-0.8,0.5l-3,2.6c-0.3,0.3-0.3,0.3-0.8,0.6l-2,1.8
		c-0.5,0.6-1,0.8-1.4,1.4l-9,7.4c-2.6,1.8-5.4,3.7-8.1,5.4l-1.7,1.1c-3,1.7-6,3.4-9.1,4.3c-0.8,0.3-1.5,0.6-2.2,0.8
		c-0.8,0.2-1.5,0.3-2.3,0.3c0.2-1.1,4.5-6,5.4-7l1.8-2.2c0.2,0,0.2,0,0.2,0l8.1-8.5c1.5-1.5,8.5-8.6,9.8-9.8
		c1.7-1.5,5.3-5.4,7.1-6.3c0-1.1,0.2-5.9-0.2-6.5c-0.3-0.6-2.8-2.5-3.5-3c-1.4-0.8-3.1-1.5-5.1-1.2c-3.5,0.3-6.2,2.3-9,4
		c-1.2,1-2.3,1.8-3.7,2.8c-0.3,0.2-0.6,0.5-1,0.6l-10.2,7.9c-2.5,1.8-5.1,3.7-7.8,5.4l-8.2,4.8l-4.6,3.5c-1.5,1.2-3.3,2.3-5.1,3.1
		c-0.8,0.3-1.5,0.6-2.5,0.8c-3.1,0.5-5.4-0.5-7.8-1.8l-3-2c-1.8-1.5-3.4-3.3-5-4.8c-2-2-4.8-5.8-6.5-8.2c-1.8-2.5-3.7-5-5.4-7.6
		l-7.1-12.7c-3.1-5.4-7.4-10.8-13.9-12.2c-3-0.6-3.5-0.2-5.9,0c0,1-0.3,1.7-0.5,2.6c-0.2,0.8-0.2,1.8,0,2.8c1,4.3,4.6,4.8,6.6,11.6
		l4.8,13.3c0.6,1.5,1.1,2.8,1.7,4.3c1.2,3,2.3,5.8,3.5,8.6c2.5,6.2,5,12.6,6.8,19c0.2,0.5,0.2,1,0.3,1.2c0.6,2.5,1.2,4.8,1.2,7.6
		c-2,0-8.1-3.3-9.9-4.3c-3-1.7-6-3.5-8.3-6c-1.1-1-1.5-2-2.2-3.3c-0.2-0.5-0.3-0.8-0.6-1.2l-3.4-7.3c-0.3-1-0.8-1.5-1.1-2.5
		l-8.5-18.2c-1.7-3.7-3.5-7.3-5.1-11l-2.3-5c-2-4-3.7-8.1-5.8-12.1L184.2,182c-1.7-3.1-3.1-6.5-4.6-9.6l-10.8-23.2
		c-0.3-0.6-2.2-4-2.3-4.8v-0.2l5.3-1.2c0.3,0.5,0.8,1,1.2,1.5c0.6,0.6,0.6,1,1.7,1.4c1.2,0.6,3,0.8,4.3,1.4l31.8,14.9
		c7.9,3.7,15.9,7.3,24,11c5.1,2.6,10.6,5.1,15.8,7.4l20,9.3c2.3,1.1,1.7,1.4,4.2,0.5c3.1-1,5.9-1.7,8.6-2.8c1.2-0.6,3.1-1.5,4.2-1.8
		c5-1.1,6.6-0.8,9-5.6c0.3-0.6,0.6-1.4,1-2c0.5,0,3.7,0.3,4.6,0.3c9.1,0,23.5-3,32-4.8c14.7-3.3,28-7.1,42.2-10.2
		c3-0.8,5.8-1.4,8.5-2c11.6-2.5,23.2-5.1,34.8-7.1c5.3-1,13.8-2.6,19-2.2c0,0.2,0,0,0,0.2c0.5,1,4,15,4.2,15.8
		c2.2,8.5,4.3,15.8,6,24.5c0.8,3.7,1,4.5,2,8.1c3.1,10.6,5.8,21.7,8.3,32.2l12.4,48.3c0.3,1.4,0.6,2.8,1,4.2c0.3,0.6,0.5,1.4,0.6,2
		C473.1,287.8,473.4,288.6,473.4,289.2L473.4,289.2z M414.7,187.7c2.2-2.5,5.9-4.5,9.3-3.7c3.5,0.6,6.2,3.4,7.4,6.3
		c1.7,4.2-0.3,7.6-2.2,10.2c-0.8,1-2.6,2.6-3.5,3.4c-1.7,1-3.3,1.1-5.4,0.8c0.2,1.2,2.6,7.8,3.4,9.8c0.3,1.2,0,1.8-1.7,2.2
		c-1.5,0.3-2-0.6-2.5-1.8c-2.3-7-5.3-15.4-7.9-22.3c-1-2.2-2.8-5.1-2.6-6c0.3-1.1,2.3-1.1,3.3-0.8c1.2,0.5,1.4,1.4,2.2,2.2
		L414.7,187.7z M370.9,200.6c0.2,0.5,0.2,0.3,0.3,0.5c2.3-7.3,11.3-8.5,13.8,0c1.1,3.7,0.6,7.3-1.2,10.4c-1,1.2-1.8,2.6-2.8,3.4
		c-2,1.7-3.3,1.4-4.8,1.1c0,2.6-3.8,2.5-5.1-1c-0.8-2.3-1.5-5-2.2-7.3c-2.5-7.6-3.8-13.9-6.8-21.5c-0.8-1.7,0.6-2.3,2.2-1.7
		c2.8,1.1,3.8,6.3,4.6,9.3c0.3,1.2,0.8,2.5,1.1,3.7L370.9,200.6z"/>
	<path fill="#A9A9A9" d="M171.8,143c0.3,0.5,0.8,1,1.2,1.5c0.6,0.6,0.6,1,1.7,1.4c1.2,0.6,3,0.8,4.3,1.4l31.8,14.9
		c7.9,3.7,15.9,7.3,24,11c5.1,2.6,10.6,5.1,15.8,7.4l20,9.3c2.3,1.1,1.7,1.4,4.2,0.5c3.1-1,5.9-1.7,8.6-2.8c1.2-0.6,3.1-1.5,4.2-1.8
		c5-1.1,6.6-0.8,9-5.6c0.3-0.6,0.6-1.4,1-2c0.5,0,3.7,0.3,4.6,0.3c9.1,0,23.5-3,32-4.8c14.7-3.3,28-7.1,42.2-10.2
		c3-0.8,5.8-1.4,8.5-2c11.6-2.5,23.2-5.1,34.8-7.1c5.3-1,13.8-2.6,19-2.2c-1-2.2-1.2-1-3.3-1.5l-3-1c-0.6-0.3-0.2,0-0.3-0.5
		c-0.3-0.3-0.5-2-0.6-2.6c-0.6-2.6-2.8-4.5-5-5.9c-1.8-1-5.8-3-7.6-3.4c-1-0.2-2-0.2-3-0.3c-0.2,0-2.5,0-3,0.2
		c-5.9,0.5-13.3,1.7-19,3l-15.4,3.5l-14.9,4c-2.6,0.8-2.6,0.6-5.1,1.2c-1.8,0.3-3.4,0.6-5.3,1.1c-9,2-15.4,4.2-23.8,7.6
		c-1.5,0.6-3,1.2-4.3,1.8l-12.2,6.6c-1.8,1.1-3.7,2.5-5.6,3.8l-4.2,3.4c-0.5,0.3-0.6,0.6-1,1c-1.8,1.4-3.3,3.5-4.2,3.7
		c-0.8,0-0.8-0.2-1.2,0.2c-0.8,0.5-1.5,0.8-2.2,1.1l-1.1-3.1c-0.6-1.8-1.7-4.2-2.8-5.8l-3.7-4.8c-0.6-0.8-1.4-1.5-2.2-2.2l0,0
		l-0.5-0.3c-1.5-1.4-2.2-2.2-4.2-3.5l-2.5-1.7c-0.8-0.6-1.5-1.1-2.5-1.7c-2.2-1.4-9.1-5.1-11.1-5.9c-1.8-0.8-3.5-1.7-6-2.6l-20-7.6
		c-0.6-0.2-1-0.3-1.5-0.6l-16.1-5.1c-2.2-0.6-4.5-1.2-6.8-1.7c-1.7-0.5-5.6-1.2-7.3-1.2c0,1.1,0.6,3.8,0.8,4.8
		c0.5,1.7,1.2,2.6,1.7,4.2c-1.8,0-3.7,0-5.4,0c-6,0-13.1,1.1-18.9,3c-4.3,1.5-6.8,1.8-11.3,0.5C173,143.5,172.3,143.2,171.8,143z"/>
	<path fill="#E01325" d="M197,332c0,3,0,4.6,1.4,7.3c1.4,2.8,3.7,5.3,6.6,6.6c9.8,4.5,20.1-3.3,20.1-12.4c0-2.5-0.2-4.2-1.1-6.3
		c-1.5-3.3-3.4-5.1-6.5-6.8c-3.8-2.2-8.8-2-12.9-0.2C200.6,322.2,197,327.4,197,332z"/>
	<path fill="#E01325" d="M232.8,335.3c0,2.5,0.2,3.8,1.1,6c0.5,1,1.1,2,1.7,2.8c0.6,0.6,0.8,1.1,1.5,1.5c1,0.8,1.4,1.2,2.6,1.8
		c1.5,0.8,3.4,1.2,5.3,1.4h2c1.7-0.2,3.4-0.6,5-1.4c5.9-3.4,8.8-10.4,5.9-17c-4.6-10.4-19.2-10.2-23.8-0.3
		C233.4,331.4,232.8,333.5,232.8,335.3z"/>
	<path fill="#E01325" d="M265.8,322.9c0,5.9,4.3,10.2,9.4,10.2c3,0,5.1-0.6,7.1-2.8c2.6-2.5,3.1-4.3,3.1-7.8c0-4.6-4.6-9.1-9.4-9.1
		c-3.3,0-5.4,1-7.4,3C267,317.9,265.8,320.6,265.8,322.9z"/>
	<path fill="#E01325" d="M291.6,309.8c0,3.8,3,6.8,6,6.8c2.8,0,4.3-0.6,5.9-2.8c1.8-2.3,1.5-6-0.8-8.3c-1.7-1.8-4.8-2.6-7.1-1.5
		c-1.5,0.8-2.6,1.7-3.4,3.3C291.9,307.8,291.6,309,291.6,309.8z"/>
	<path fill="#E01325" d="M375.1,214c1.4-1.1,1.8-1.1,3.4-2.6c2.5-2.5,3.5-5.4,2.6-9c-0.3-1.5-0.8-3.7-2.5-3.7c-2.8,0.2-5,4.2-6,6.3
		c-0.5,1.1-0.3,1.1,0,2.2C373.1,208.9,374,213,375.1,214z"/>
	<path fill="#E01325" d="M308.6,299c0,3.7,4.3,5.4,7,3.1c2.5-2.3,1-7.1-3-7.1C310.3,295,308.6,297.2,308.6,299z"/>
	<path fill="#FEFEFE" d="M374.5,214.2c-1-1-1.5-5.2-1.8-7c-0.2-1.1-0.4-1.1,0.2-2.2c1.3-2.2,3.7-6.2,6.4-6.4c1.7,0,1.9,2.2,2.2,3.8
		c0.6,3.6-0.6,6.6-3.3,9.1C376.4,213.1,375.9,213.1,374.5,214.2z M375.4,216.1c1.4,0.3,2.7,0.6,4.8-1.1c1-0.8,2-2.2,3-3.5
		c2.1-3.2,2.8-6.8,2-10.6c-1.8-8.6-10.6-7.5-13.4-0.1c-0.2-0.2-0.2,0-0.2-0.5l-0.7-3.2c-0.2-1.2-0.6-2.6-0.8-3.8
		c-0.6-3-1.1-8.4-3.8-9.5c-1.4-0.6-2.9,0-2.2,1.7c2.3,7.8,3.1,14.2,5,22c0.4,2.4,1,5,1.5,7.4C371.4,218.6,375.2,218.7,375.4,216.1z"
		/>
	<path fill="#FEFEFE" d="M395,199.9c0.5-5.8,4-7.1,5.3-5.7C402.3,196.6,397.1,199.4,395,199.9z M391,201c-0.2,0.6-1.4,1.1-0.7,3
		c0.6,1.4,1.1,0.3,1.5,1.4c0.7,2.4,1.7,3.9,3.7,5.3c3.9,2.1,10.1-0.4,12.2-2.8c1.2-1.1,3.2-3.5,1.6-5.7c-0.9-1-2,0.2-2.5,0.6
		c-1.4,1.7-3.4,5.2-7.5,5.2c-2.4-0.2-3.8-1.8-3.9-4.1c3.2-1.4,5-1.8,7.6-4.4c2.8-2.6,2-6.1,0-8.2C399.8,188.4,391.7,189.6,391,201z"
		/>
	<path fill="#FEFEFE" d="M431.4,190.2c-1-3-3.3-5.9-6.8-6.5c-3.3-0.8-7,1.2-9.4,3.7l-0.2,0.2c-0.7-0.8-0.8-1.7-1.9-2.2
		c-0.9-0.3-2.9-0.3-3.3,0.8c-0.2,1,1.4,3.9,2.1,6.2c2,7,4.2,15.7,5.9,22.8c0.4,1.2,0.8,2.2,2.2,1.9c1.7-0.3,2-1,1.8-2.2
		c-0.6-2.1-2.6-8.6-2.6-10c2.1,0.3,3.6,0.2,5.4-0.8c1-0.8,3-2.5,3.7-3.5C430.5,198,432.7,194.6,431.4,190.2z M422.6,200.6
		c-1.2,0.8-2.3,0.8-4,1v-0.1l0,0c-0.1-0.2-0.5-1.6-0.8-3.2c-0.6-2.4-1.1-5.2-1.2-5.8c2.3-0.8,2.2-3.6,5.3-4.8c2-0.8,3.4-0.3,4.3,0.8
		c0.6,0.6,1,1.4,1.2,2.4C428.2,194.6,425.1,198.7,422.6,200.6z"/>
	<path fill="#E01325" d="M394.9,199.9c2.2-0.5,7.3-3.3,5-5.6C398.5,193,394.9,194.2,394.9,199.9z"/>
</g>
</svg>
