<?xml version="1.0" encoding="utf-8"?>
<!-- Generator: Adobe Illustrator 19.2.0, SVG Export Plug-In . SVG Version: 6.00 Build 0)  -->
<svg version="1.1" id="Layer_1" xmlns="http://www.w3.org/2000/svg" xmlns:xlink="http://www.w3.org/1999/xlink" x="0px" y="0px"
	 width="640px" height="480px" viewBox="0 0 640 480" enable-background="new 0 0 640 480" xml:space="preserve">
<rect fill="#D8DDE6" width="640" height="480"/>
<g>
	<path fill="#0070BA" d="M256.3,239.8c0-5.3-0.2-10.8-0.1-16c0.1-3,1-3.3,3-4.6c7.4-5.2,19.2-9.9,29.1-9.4l-0.3,30.2
		c-8.9,0.9-13.8,5-17,10.5c-8.6,15.4,9.7,47.6-34.7,47.7c-0.6-10.5-0.8-28.6-0.1-38.9c0.5-6.3,3.3-10.1,6.5-13.1
		C250.2,239.1,254.4,242.7,256.3,239.8L256.3,239.8z M186.9,179.2h0.2c5.2,0,10.4,2.2,13.8,7.2c1.2,1.8,1.1,2.6,2.6,3.7
		c1.3-5.5,8.5-10.9,15.4-10.9c8.4,0,16.2,5.8,16.6,10.9c2.2-1.7,2.2-4,6.1-7c3-2.2,6.2-3.5,9.4-3.8h3.2c3.9,0.4,7.7,2.2,10.8,5.3
		c11.2,11.1,2.5,26.7-7.3,29v4c4.6-3.1,8.7-5.4,14.3-7.4c5.8-2.1,8.2-2.1,13.6-2.4c2.6-0.1,2.1-0.5,4.6-0.6v34.8
		c-5,0-8.5,0.6-12.6,3.9c-11,8.8-5.7,22.3-8,33.1c-3.4,16-14.1,21.3-33.5,21.3h-33.7c-44.4,0-29.4-35-35.2-47
		c-1.9-4.1-2.6-5-6.1-7.6c-4.2-3.2-7-3.6-12.4-3.6v-33.1c0-2.5,2.2-1.5,3.5-1.4c1.9,0.2,3.6,0.1,5.4,0.3c11.4,1.5,16.1,5.3,24.2,9.6
		v-4c-6.2-1.4-12.6-7.7-12.6-15.4v-3.4C169.3,185.6,178.1,179.4,186.9,179.2L186.9,179.2z M151.1,209.7c12.5-0.4,25,5.7,32,11.8
		l0.1,19.2c11.3,1.7,19.2,7.2,19.9,19c0.6,10.8,0.6,27.4,0,38.3c-19,0.2-30-5.2-31.8-23.7c-1.1-11.5,4-30.9-20.2-34.6L151.1,209.7
		L151.1,209.7z M203.5,203.2c3.4,14.5,28.3,14.2,32,0.6h1.1c0.8,3.3,2.6,3.2,3.4,6.3c-5.7,1.4-17.3,7.4-20,11.4
		c-6.6-4.4-4.9-4.8-15-9.5c-2.2-1-4.1-1.4-6.1-2.5L203.5,203.2L203.5,203.2z M255.4,208.6c-5.2,0.1-10.5,2.2-13.4-0.5
		c-9.1-8.3-4.8-24.9,8.3-26.6c19.8-2.6,24.3,25.7,6.2,30c-0.3-0.8-0.2-0.8-0.5-1.4C255.8,209,255.8,209.1,255.4,208.6L255.4,208.6z
		 M182.4,211.4c-19.2-6.5-11.4-33.4,7.3-29.9c13.5,2.6,16.2,19.7,6.7,27c-2.6,2-9-0.2-12.9-0.1c-0.5,1-0.2,0.7-0.5,1.4
		C182.5,211.5,182.9,210.7,182.4,211.4L182.4,211.4z"/>
	<path fill="#0070BA" d="M424.5,220.3c0,14,1.2,13.4,9.5,9c6.3-3.4,16.3-4.6,22.5-2.1c1.7,0.6,4.6,2.6,5.8,3.9
		c2.4,2.6,5.5,8.5,5.6,13.2h-32.6c-5.2,0-5.7,5.5-5.4,9.5c0.4,6,0.8,8.2,7.1,8.2c10.5,0,21,0,31.4,0c-1.1,4.8-0.9,8.9-4.8,14.1
		c-7.1,9.4-22.9,7.6-31.8,2.1c-7-4.4-8.7,1-8.4,7.2c0.2,4.1,1.1,7.9,3.8,9.9c9.2,6.8,30.6,7.4,42,1.8c14.9-7.2,21.2-22.9,22.1-38.6
		v-7.5c-0.6-12.1-4.3-23.3-9.6-29.7c-3.4-4.2-6.5-7-11.6-9.5C454.7,204.3,424.5,207.3,424.5,220.3L424.5,220.3z"/>
	<path fill="#0070BA" d="M302.3,216.3v75.9c0,3.7,2.2,6.9,5.7,6.9h45.7c4.2,0,5.8-17.1-1.1-17.1h-29.1v-21.1h25.1
		c4.8,0,4.8-16.6,0-16.6h-25.1v-17.7H352c5.8,0,4.6-6.6,4.6-12.6c0-1.8-1-4.6-2.9-4.6H308C304.4,209.4,302.3,212.6,302.3,216.3
		L302.3,216.3z"/>
	<path fill="#FEFEFE" d="M151,239.7c24.2,3.8,19.1,23.1,20.2,34.6C173,292.8,184,298.2,203,298c0.6-10.8,0.6-27.5,0-38.3
		c-0.7-11.9-8.6-17.4-19.9-19l-0.1-19.2c-7-6.2-19.5-12.2-32-11.8L151,239.7L151,239.7z"/>
	<path fill="#EB1B23" d="M256.3,239.8c-1.8,3-6-0.6-13.4,6.2c-3.2,3-6.1,6.8-6.5,13.1c-0.7,10.3-0.6,28.4,0.1,38.9
		c44.4-0.1,26.2-32.3,34.7-47.7c3-5.5,8.1-9.6,17-10.5l0.3-30.2c-9.8-0.6-21.8,4.2-29.1,9.4c-2,1.4-3,1.7-3,4.6
		C256.1,228.9,256.3,234.5,256.3,239.8L256.3,239.8z"/>
	<path fill="#0070BA" d="M366.2,216.9v77.7c0,5.9,7.8,5.1,12.6,5.1c4.6,0,9.1-0.6,9.1-5.1v-67.4h27.4c5.2,0,5.4-17.7,0-17.7H372
		C368.2,209.4,366.2,213.1,366.2,216.9L366.2,216.9z"/>
	<path fill="#EB1B23" d="M255.4,208.6c0.4,0.6,0.3,0.5,0.7,1.4c0.2,0.6,0.1,0.7,0.5,1.4c18.1-4.3,13.5-32.6-6.2-30
		c-13.2,1.8-17.5,18.2-8.3,26.6C245,210.7,250.2,208.6,255.4,208.6L255.4,208.6z"/>
	<path fill="#FEFEFE" d="M182.4,211.4c0.5-0.7,0.1,0.1,0.6-1.4c0.3-0.7,0-0.5,0.5-1.4c3.9-0.1,10.3,2,12.9,0.1
		c9.5-7.4,6.8-24.6-6.7-27C171,178.1,163.1,205,182.4,211.4L182.4,211.4z"/>
</g>
</svg>
