<?xml version="1.0" encoding="utf-8"?>
<!-- Generator: Adobe Illustrator 19.2.0, SVG Export Plug-In . SVG Version: 6.00 Build 0)  -->
<svg version="1.1" id="Layer_1" xmlns="http://www.w3.org/2000/svg" x="0px" y="0px"
	 width="640px" height="480px" viewBox="0 0 640 480" enable-background="new 0 0 640 480">
<rect fill="#121217" width="640" height="480"/>
<g>
	<path fill="#222C64" d="M326.2,75c3.8,1.8,7.7,3.7,7.7,10.2c-1,2.8,0,2.8-1.9,4.6c-7.7,5.5-22.1,1.8-19.2-8.3
		c0-1.8,1.9-2.8,1.9-3.7l3.8-2.8l-1-1c-1-3.7-1-2.8-1-5.5l6.7-1.8l-1.9,6.5C321.4,73.1,323.4,73.1,326.2,75z M316.6,68.6
		c-1.9,1-2.9,1-3.8-1c-1-2.8,1-2.8,2.9-4.6l1-6.5c1-1,1-1,1.9-1.8c5.8,0,2.9,1.8,9.6,4.6l1.9,3.7h-1l-5.8,2.8
		C321.4,65.8,318.6,67.6,316.6,68.6z M307,52.8c0,5.5-1.9,4.6-3.8,10.2c7.7,1.8,5.8,2.8,6.7,5.5c-5.8,1,1.9,1.8-5.8,1v4.6
		c0,0,0,0,0,1l1,1c2.9,1.8,3.8,1.8,3.8,6.5c0,3.7-1,5.5-3.8,6.5l-1,2.8c3.8,1,3.8,0,6.7,2.8c2.9,1,3.8,1,6.7,2.8h5.8l3.8,1h8.6
		c2.9,0,1.9,1,2.9-1c-2.9-2.8-1.9-8.3-1.9-13c0-4.6-1-8.3-1-13.8c4.8,0,6.7-1,8.6-3.7l-9.6,1l-1-3.7l1.9-3.7
		c-3.8-1.8-2.9-3.7-5.8-6.5c-1-2.8-2.9-3.7-6.7-4.6C314.7,45.4,309,51.9,307,52.8z"/>
	<path fill="#6C5C53" d="M303.2,186.8l34.6-2.8c0,1-3.8,6.5-5.8,7.4c-2.9,2.8-5.8,2.8-10.6,2.8C309,194.2,310.9,191.4,303.2,186.8z
		 M301.3,186.8h1.9c1,11.1,13.4,3.7,16.3,19.4c0,4.6,7.7,16.6,7.7,26.8c1,0,1.9,1,3.8,1c6.7-1,1.9,1,3.8-2.8
		c-2.9-7.4,1.9-24,3.8-28.6c2.9-5.5,6.7-20.3,6.7-28.6l-1.9,6.5c-1.9,2.8-1,1-5.8,1.8c-12.5,1.8-31.7,5.5-32.6-7.4c-1-1,1-1-2.9-1.8
		c-1,0-2.9,0-3.8,0c1,4.6,1.9,6.5,3.8,10.2l7.7,2.8C308,185.9,302.2,185,301.3,186.8z"/>
	<path fill="#992105" d="M282.1,339.3l1,23.1l4.8,1.8l1,3.7h-1c2.9,1,2.9,1,5.8,1c1-4.6,0-10.2,1-16.6c0-5.5,1-4.6,1-4.6
		c1.9,8.3-1,20.3,1,25.8c6.7,0,1.9-1,5.8-1.8h2.9c5.8-1.8,2.9-4.6,2.9-11.1c2.9-1,2.9-1,4.8-2.8c-1.9-9.3-4.8-16.6-9.6-22.2
		c-6.7,0-6.7-2.8-17.3-1.8C284,335.6,283,335.6,282.1,339.3z"/>
	<path fill="#5C1202" d="M261.9,367.9c-2.9,6.5,1,1.8,7.7,19.4c1.9,2.8,2.9,5.5,4.8,9.3c1,3.7,1.9,7.4,2.9,11.1
		c-6.7,2.8-10.6,3.7-20.2,3.7c1,0,1,1,5.8,1.8c1.9,0,4.8,0,6.7,0c4.8-1,5.8-3.7,12.5-1.8c-1.9,4.6-1,2.8-5.8,3.7
		c-8.6,1.8-1,3.7-14.4,3.7c-12.5-1-1,8.3-30.7-6.5v-3.7c0,0-1.9,0-2.9,1v6.5c4.8-3.7,16.3,9.3,28.8,8.3c22.1-2.8,8.6-4.6,31.7-7.4
		c0-8.3-1.9-4.6-2.9-12l-5.8-30.5c1-5.5,0-1,1-3.7c1.9-3.7,1.9-3.7-1-6.5c-1,1-3.8,9.3-13.4,6.5c-2.9-1,0,0-2.9-1.8
		C262.9,367.9,265.8,369.8,261.9,367.9z"/>
	<path fill="#E3DBD9" d="M345.4,243.2c1.9,5.5,0,1,6.7,6.5c4.8,4.6,11.5,15.7,14.4,22.2c-1.9-1-11.5-6.5-12.5-7.4l-2.9-1
		c-1.9,4.6,1,4.6-1,8.3c2.9,2.8,8.6,6.5,11.5,7.4c-8.6,3.7-9.6,1-16.3-2.8c-3.8-1.8-9.6-5.5-15.4-3.7c-1,4.6-1.9,18.5,1,22.2
		c1.9-8.3-4.8-7.4,13.4-9.3c0,7.4,1,5.5-1,8.3c5.8-1,28.8-7.4,31.7-10.2c-1-5.5-6.7-15.7-10.6-21.3c-3.8-7.4-7.7-13-14.4-16.6
		c1-1.8,3.8-2.8,4.8-2.8v-1C351.2,241.4,348.3,242.2,345.4,243.2z"/>
	<path fill="#455E91" d="M318.6,246c7.7-4.6,2.9-1,6.7-2.8c0-1,1-1,1-1l1-1l0,0c5.8,3.7,5.8,0,7.7,6.5c-5.8-1-8.6,1-10.6,0
		c-7.7,2.8,1-1-5.8,1c-1,3.7-1,3.7,0,6.5l0,0c0,5.5-1,12,1,17.5h8.6c0-3.7,0-3.7,1.9-7.4l1,1.8l1-1.8l2.9-6.5l1.9-2.8c1,0,1-1,1-1
		l1.9-1.8c1,1.8-1,1,1.9,1.8c2.9,0.9,2.9,0,5.8,2.8c2.9,1.8,4.8,2.8,6.7,6.5c1,1,10.6,6.5,12.5,7.4c-2.9-6.5-9.6-17.5-14.4-22.2
		c-6.7-5.5-4.8-1-6.7-6.5c-8.6-1.8-7.7,0-10.6-7.4C324.3,234.9,318.6,234.9,318.6,246z"/>
	<path fill="#F8D5B6" d="M307,113.8l-4.8,1l1.9,30.5c2.9,0,7.7,0,9.6,1.8c7.7,1,10.6,6.5,15.4,9.3c1.9-1.8,1-6.5,1-12v-44.3
		c-2.9-1-1.9-1-2.9-1.8l-3.8-1c1.9,4.6,1,15.7,1,21.3c-1,5.5-1,1.8-3.8,7.4c-1,2.8-1,4.6-1,8.3c-3.8,1-1.9,1-4.8,1l-1.9-4.6
		c-2.9-5.5-2.9-5.5-2.9-14.8c-1,0-1-1-1-1L307,113.8z"/>
	<path fill="#222C64" d="M302.2,312.5c0,3.7,1,10.2,1,15.7l7.7,5.5c5.8,4.6,1.9-1,6.7,4.6c1,1.8,0,1,1,1.8c1.9,1,3.8,2.8,4.8,4.6
		l1.9-5.5c0,0,0,0,1,0l1-7.4c1.9-3.7,4.8-5.5,8.6-7.4c-3.8-13-4.8-12-8.6-12c-1,0-2.9,0-3.8-1c-2.9-1-1,1-1.9-1.8l-14.4,1v1
		L302.2,312.5z"/>
	<path fill="#E8A89E" d="M329.1,156.3c1.9,2.8,2.9,4.6,5.8,5.5c2.9-2.8,1-3.7,3.8-7.4c1,1.8,1,0,1.9,2.8c0,1.8,0,2.8,0,4.6
		c1,3.7,0,4.6,2.9,5.5v-14.8c1.9-5.5,1-8.3,0-12c0-2.8,0-4.6,0-6.5c-1-3.7,0-2.8-1.9-5.5l-1.9-3.7c1.9,1,4.8,1.8,5.8,1.8
		c2.9,0,2.9-1.8,3.8-2.8c-4.8,1-7.7,0-11.5-1.8l-1-13c3.8-1,6.7-1.8,10.6-2.8c-3.8,0-7.7,1.8-10.6,1l-1-9.3h-8.6c1,1,0,1,2.9,1.8
		v44.3C330.1,149.8,331,154.5,329.1,156.3z"/>
	<path fill="#5C1202" d="M325.3,413.2c5.8-1,9.6-2.8,16.3-1l-2.9-4.6c1.9-6.5,1.9-13.8,3.8-21.3c1.9-8.3,1.9-11.1,5.8-18.5
		c0-1.8,0-1.8-1-2.8h-2.9l-13.4,1.8c-1,0-1,0-1.9-1c-2.9,1.8-1.9,1-1.9,5.5c2.9,1,1.9,0,1.9,2.8c0,1,0,3.7,0,4.6c0,3.7,1,4.6,1,9.3
		c0,6.5,0,13,0,20.3c-2.9,0-1-1-2.9,1C325.3,411.4,326.2,410.5,325.3,413.2z"/>
	<path fill="#1E2334" d="M331,340.2c-1.9-5.5,1-9.3,4.8-13c5.8,3.7,7.7,13.8-1.9,17.5L331,340.2z M328.2,272.8L328.2,272.8l-1,14.8
		l1,7.4l1,10.2l-3.8-1h-3.8v5.5c1,2.8-1,1,1.9,1.8c1,1,2.9,1,3.8,1c3.8,0,4.8-1,8.6,12c-3.8,1.8-6.7,3.7-8.6,7.4c1,2.8,0,3.7,0,8.3
		c1,1.8,1.9,5.5,1.9,7.4c1.9,6.5,1,13,1.9,19.4l13.4-1.8c-1.9-1-1.9-1-3.8-1.8c-1-1-2.9-2.8-3.8-3.7c1.9-6.5,3.8-1.8,5.8-7.4
		c-3.8,1.8-3.8,2.8-5.8-1l-1-2.8c1.9-1,12.5-5.5,14.4-5.5c-1-5.5,1-1-1.9-4.6c0-1-1.9-2.8-1.9-2.8c-2.9-3.7-1.9-3.7-4.8-6.5
		l-3.8-6.5l-1.9-4.6l-1.9-5.5l-2.9-10.2l-1-5.5l1-1.8c-2.9-3.7-1.9-17.5-1-22.2l1-5.5l-1-1.8C328.2,269,328.2,269,328.2,272.8z"/>
	<path fill="#1E2334" d="M261.9,367.9c3.8,1.8,1,0,1.9,1c2.9,1.8,0,1,2.9,1.8c9.6,2.8,12.5-5.5,13.4-6.5c-2.9-1-1.9,0-1.9-4.6
		c4.8,1,1.9,0,8.6,6.5l1.9,1.8l-1-3.7l-4.8-1.8l-1-23.1c-1,1.8-1,2.8-1.9,4.6c-17.3,0-10.6,2.8-17.3,3.7c-4.8,1-5.8-1.8-5.8-1.8
		c-1-1-1.9,0-1-3.7c1-1.8,1.9-1.8,2.9-3.7C244.6,345.8,266.7,363.4,261.9,367.9z"/>
	<path fill="#6C5C53" d="M293.6,122.2l1.9,1l-1.9,4.6c-2.9-1-1.9-1-1.9-3.7c-3.8,2.8-1,6.5,2.9,7.4c0,24,2.9,23.1-8.6,31.4
		c-2.9,2.8-2.9,1-1.9,2.8c7.7,1.8,3.8,2.8,7.7,5.5c2.9-1,1,1.8,2.9-2.8c4.8,5.5,4.8,1.8,4.8,1.8l-1.9-1c0-3.7,2.9-8.3,3.8-12
		c1.9-4.6,0-2.8,0-5.5c1-4.6,0-1.8,2.9-4.6l-5.8,1.8c0-9.3-1.9-26.8,0-35.1l9.6-1l6.7-1c-1.9-2.8,0-2.8-4.8-2.8h-12.5
		c-1-1.8-1-2.8-2.9-3.7h-1c0,0,0,0-1,0l-1.9-1.8h-1c-6.7-1.8-5.8-1-7.7,1c1.9,2.8,0,1,3.8,2.8c1.9,1,0-1.8,1.9,1
		c2.9,0,1.9,0,2.9,1.8l5.8,3.7l-1,4.6c-3.8-2.8-6.7,0-11.5-4.6c-3.8-1.8-1.9-1.8-5.8-5.5c-1.9-2.8-1.9-4.6-1.9-8.3
		c-2.9,1-1-1.8-1.9,3.7c-1,7.4,8.6,13.8,15.4,15.7L293.6,122.2z"/>
	<path fill="#222C64" d="M327.2,233h-2.9c-5.8-1-15.4,5.5-17.3,11.1c7.7-1.8,5.8,0,5.8,1c-1.9,1.8,2.9,1-2.9,1c-3.8,0-1.9-1-2.9-1
		l-6.7,21.3l1-1c0,0,0,0,0-1c1,0,1,0,1,0c4.8-7.4,1-11.1,9.6-11.1l-1.9,7.4l-2.9,12h3.8v2.8l1.9-1.8l6.7-1c-1.9-5.5-1-12-1-17.5l0,0
		c-1-2.8-1-2.8,0-6.5c6.7-1.8-1.9,1.8,5.8-1h-4.8c-1-1-1,1-1-1.8c0-11.1,5.8-11.1,16.3-10.2c2.9,7.4,1.9,5.5,10.6,7.4
		c2.9-1,5.8-1.8,9.6-1c-5.8-9.3-16.3-7.4-20.2-11.1c-1.9,3.7,2.9,1.8-3.8,2.8C329.1,233.9,328.2,233,327.2,233z"/>
	<path fill="#1E2334" d="M296.5,305.1c0-4.6,0-5.5,2.9-7.4c0,1,0,2.8-1,3.7C297.4,304.2,298.4,303.3,296.5,305.1z M299.4,292.2h-1
		c-2.9,4.6-2.9,6.5-2.9,12h-5.8l1-7.4c-1.9,1-1-1-2.9,2.8c0,1,0,4.6,0,5.5h1.9h6.7c1.9,3.7,0,10.2,0,14.8c1,18.5,1.9,7.4,6.7,15.7
		c4.8,5.5,7.7,13,9.6,22.2c0,1,0,1.8,1.9,1l2.9-1.8c-1-5.5-2.9-4.6-4.8-9.3c7.7,1,3.8,3.7,12.5,0l1-8.3c-1,0-1,0-1,0l-1.9,5.5
		c-1-1.8-2.9-3.7-4.8-4.6c-1-1,0,0-1-1.8c-4.8-5.5-1,0-6.7-4.6l-7.7-5.5c0-5.5-1-12-1-15.7l-3.8,1.8c0-6.5,1-5.5,4.8-8.3
		c-1.9-1.8-1,0-1-2.8c0,0,0-1,0-1.8c1-2.8,1-3.7,1-6.5c0-1,1-2.8,1-3.7c0-3.7,1-1-1-2.8C299.4,292.2,303.2,291.3,299.4,292.2z"/>
	<path fill="#D30D0D" d="M375.2,283.8c1,1,0,0,1,1.8l1.9,1c1.9,3.7,1,1,1.9,4.6l2.9,2.8l1.9,1.8v-3.7l-1.9-12
		c-6.7-13.8-12.5-27.8-24-35.1l-1.9-1.8H355c-1,0-3.8,1-4.8,2.8c6.7,3.7,10.6,9.3,14.4,16.6C368.5,268.2,374.2,278.3,375.2,283.8z"
		/>
	<path fill="#222C64" d="M259,338.4c-1,1.8-1.9,1.8-2.9,3.7c-1,3.7,0,2.8,1,3.7c0,0,1,2.8,5.8,1.8c6.7-1,0-3.7,17.3-3.7
		c1-1.8,1-2.8,1.9-4.6c1-3.7,1.9-3.7,3.8-5.5h1c1.9-3.7,2.9-3.7,1.9-7.4c-4.8,0-18.2,4.6-23,7.4C262.9,334.7,260,335.6,259,338.4z"
		/>
	<path fill="#E3DBD9" d="M316.6,101.8c0,1.8,1,2.8,0,4.6c0,3.7,0,1.8-1.9,5.5l-6.7,1l-1,1l1.9,1c0,0,0,1,1,1c0,9.3,0,9.3,2.9,14.8
		l1.9,4.6c2.9,0,1,0,4.8-1c0-3.7,0-5.5,1-8.3c2.9-5.5,2.9-1.8,3.8-7.4c0-5.5,1-16.6-1-21.3h-5.8c-2.9,0-1,0-1.9,1L316.6,101.8z"/>
	<path fill="#BCA18C" d="M334.9,161.8c1,3.7,1,1.8,0,2.8v1c1.9,2.8-1,13.8-2.9,14.8c-2.9,2.8-10.6,1-13.4,0c-1.9-1-8.6-4.6-9.6-6.5
		l-3.8,1c1,13,20.2,9.3,32.6,7.4c4.8-1,3.8,1,5.8-1.8l1.9-6.5v-15.7c0-6.5,0-4.6-1.9-5.5v14.8c-2.9-1-1.9-1.8-2.9-5.5
		c0-1.8,0-2.8,0-4.6c-1-2.8-1-1-1.9-2.8C335.8,158.2,337.8,159.1,334.9,161.8z"/>
	<path fill="#992105" d="M231.2,408.6v3.7c29.8,14.8,18.2,5.5,30.7,6.5c13.4,0,5.8-1.8,14.4-3.7c4.8-1,3.8,1,5.8-3.7
		c-6.7-1.8-7.7,1-12.5,1.8c-1.9,0-4.8,0-6.7,0c-4.8-1-4.8-1.8-5.8-1.8C252.3,409.5,235,404,231.2,408.6z"/>
	<path fill="#C4BBBA" d="M368.5,314.3l-3.8,1.8h3.8c0,3.7,0,9.3-1.9,12c-1-2.8,0-2.8-2.9-5.5l-2.9,1.8l-1,1c2.9,1,1.9,0,0,3.7
		c-1,1.8-1.9,2.8-2.9,4.6c-1.9,2.8-3.8,4.6-4.8,7.4c3.8,1.8,2.9,3.7,9.6,1.8c2.9-1.8,6.7-9.3,8.6-12c3.8-7.4,1.9-9.3,10.6-11.1
		c1.9-2.8,1.9-1,1.9-5.5c-1.9,1,0,0,0,0s-1,1,1-1v-1.8h-1.9L368.5,314.3z"/>
	<path fill="#270902" d="M326.2,339.3l-1,8.3c-8.6,3.7-4.8,1-12.5,0c1.9,4.6,3.8,3.7,4.8,9.3l-2.9,1.8c-1.9,1-1.9,0-1.9-1
		c-1.9,1.8-1.9,1.8-4.8,2.8c0,6.5,2.9,9.3-2.9,11.1h-2.9c-3.8,1,1,1.8-5.8,1.8c-1.9-5.5,1-17.5-1-25.8c0,0-1-1-1,4.6
		c-1,6.5,0,12-1,16.6c-2.9,0-2.9,0-5.8-1c4.8,10.2,1.9-2.8,8.6,7.4l11.5-1.8c1.9-3.7,0-4.6,1.9-9.3c5.8-1,9.6-2.8,19.2-2.8v4.6
		c1,1,1,1,1.9,1c-1-6.5,0-13-1.9-19.4c0-1.8-1-5.5-1.9-7.4c0-4.6,1-5.5,0-8.3L326.2,339.3z"/>
	<path fill="#E3DBD9" d="M382.9,280.2c0,0,1,0,1,1l2.9,1c2.9,0,10.6-1.8,14.4-2.8c1.9,1,1,1,1.9,0l-9.6-15.7
		c-1.9-1.8-1.9-2.8-4.8-3.7c-1.9,2.8,0,5.5,0,9.3c1,5.5-1,5.5-6.7,6.5c1-4.6,1.9-8.3,1.9-12l-1-7.4c1-2.8,0-1.8,1-2.8
		c-1.9-1-1-1-2.9-1c-1.9,1.8-1-1-1,3.7c0,1.8,1,3.7,1,13c-2.9-1.8-14.4-26.8-22.1-24C370.4,252.4,376.2,266.3,382.9,280.2z"/>
	<path fill="#E8A89E" d="M343.5,294c-6.7,1-4.8,1.8-6.7,6.5c-3.8-1-1,0-2.9-1l-3.8-2.8l1,5.5c4.8,1.8,1,2.8,7.7,2.8
		c3.8-9.3,2.9,0,7.7-7.4v-0.9c1-2.8,0-1.8,3.8-2.8c1,0,3.8-1,4.8-1c4.8,1,4.8,2.8,4.8,7.4l3.8-2.8c1-1.8-1.9-1,1-1c2.9,1,1,1,2.9,0
		c3.8-1.8-2.9-1,2.9-1c0,3.7,1,1-1,3.7l2.9-2.8l3.8,4.6l1-6.5c1-1,1-1.8,1-1.8s1-1,1-1.8c1-1-1.9-1.8,1,0c-1-3.7,0-1-1.9-4.6l-1.9-1
		c-1-1.8,0-1-1-1.8C372.3,286.6,349.3,293.1,343.5,294z"/>
	<path fill="#992105" d="M309,414.2v5.5l21.1,4.6c1.9,0,6.7,0,8.6,0c1.9-4.6-1-4.6,3.8-8.3c0-2.8,1-2.8-1-3.7
		c-6.7-1.8-10.6,0-16.3,1C323.4,409.5,312.8,411.4,309,414.2z"/>
	<path fill="#455E91" d="M300.3,266.3c-1,0,0,0-1,1.8c-1,1-1.9,2.8-1.9,4.6c-1.9,5.5-7.7,20.3-6.7,24l-1,7.4h5.8c0-5.5,0-7.4,2.9-12
		h1c-1-4.6,8.6-29.6,10.6-31.4l1.9-7.4c-8.6,0-4.8,3.7-9.6,11.1c0,0,0,0-1,0c0,1,0,1,0,1L300.3,266.3z"/>
	<path fill="#270902" d="M342.6,416c-4.8,3.7-1.9,3.7-3.8,8.3c-1.9,0-6.7,0-8.6,0l-21.1-4.6v-5.5c-3.8,2.8-5.8,17.5,12.5,17.5
		C331,431.7,342.6,435.4,342.6,416z"/>
	<path fill="#927271" d="M381.9,311.6h1.9v1.8c2.9,4.6,2.9,9.3,2.9,14.8c0,1.8,1,5.5,1,7.4c0,4.6,1,4.6-2.9,4.6v12
		c3.8-1,6.7-1.8,10.6-2.8l0,0v-17.5c-1.9,0-1,0-2.9-1l-3.8-19.4c-1-4.6,0-2.8-3.8-4.6v2.8c0,0,0,0-1,0c0,0,0,0,0,1L381.9,311.6z"/>
	<path fill="#C4BBBA" d="M304.2,162.8c0,2.8,0,4.6,1.9,5.5c2.9,2.8-1.9,0,1,1h1.9l0,0l1.9-2.8l-1-3.7l2.9,1c5.8-1-1-2.8,5.8,0
		c1.9,0,3.8,1,5.8,1.8c-3.8-4.6-1.9-2.8-1-3.7c3.8,1.8,4.8,3.7,8.6,1v-1h-1c-4.8-4.6-11.5-3.7-15.4-10.2c3.8,1,2.9,1,5.8,2.8
		c-4.8-5.5-7.7-9.3-15.4-4.6C306.1,154.5,306.1,159.1,304.2,162.8z"/>
	<path fill="#BCA18C" d="M343.5,104.6c1-3.7-1,0,1-2.8c1-1,4.8-1.8,6.7-1.8c1.9,1,1,1,2.9,1.8c-1.9,1,0,0-2.9,1.8L343.5,104.6z
		 M338.7,97.2c-1,1.8,0,1-2.9,1l1,9.3c2.9,1,6.7-1,10.6-1l1.9-1.8l5.8,3.7c0,0,0,1,1,1c-2.9,8.3-7.7,2.8-12.5,6.5
		c-1.9,1.8-1,1-2.9,3.7h4.8c2.9-2.8,0-1,4.8-2.8c3.8-1.8,5.8-1,10.6-5.5c3.8-2.8,7.7-8.3,5.8-13.8c-1.9-1.8,0,0-2.9-1.8l1,5.5
		c-8.6,3.7-4.8-1.8-12.5-2.8c-5.8,0-6.7,2.8-13.4,2.8l1.9-5.5C337.8,96.2,339.7,93.5,338.7,97.2z"/>
	<path fill="#270902" d="M288.8,417c-23,2.8-9.6,4.6-31.7,7.4c-12.5,1-24-12-28.8-8.3c5.8,11.1,11.5,11.1,26.9,11.1
		c11.5,0,10.6-1.8,16.3-3.7c2.9-1,3.8,1,7.7,1c3.8,0,4.8-1,8.6-1C288.8,419.7,288.8,420.6,288.8,417z"/>
	<path fill="#454B65" d="M379,335.6c1,1,0,9.3-1,11.1c0,3.7-1.9,2.8,3.8,5.5c0,1,1.9,1.8,1.9,1.8l1.9,1l6.7-1.8c1,1,1,0,1,1.8
		c1,1,0,0,1,1.8c5.8-2.8,12.5-10.2,13.4-17.5l-1.9-1c-2.9,3.7-5.8,8.3-10.6,11.1c-3.8,1-6.7,1.8-10.6,2.8v-12l-1-14.8
		C381.9,328.2,380,331,379,335.6z"/>
	<path fill="#7A87A5" d="M299.4,170.2v-1.8c1-4.6,2.9-9.3,4.8-12v6.5c1.9-3.7,1.9-8.3,1.9-13c7.7-4.6,10.6-1,15.4,4.6
		c-2.9-1.8-1.9-1.8-5.8-2.8c3.8,6.5,10.6,5.5,15.4,10.2h1v1c-3.8,2.8-4.8,1-8.6-1c-1,1-2.9-1,1,3.7c-1.9-1-3.8-1.8-5.8-1.8
		c-6.7-2.8,0-1-5.8,0c1.9,3.7,2.9,4.6,5.8,6.5c4.8-2.8-3.8,2.8,1.9-1.8c1.9-1.8-1-1,1.9-1.8c2.9,1.8,1.9,0,2.9,3.7
		c8.6-1,1.9-6.5,9.6-5.5c1-1,1,1,0-2.8c-2.9-1-3.8-2.8-5.8-5.5c-4.8-2.8-7.7-8.3-15.4-9.3h-9.6c-2.9,2.8-1.9,0-2.9,4.6
		c0,2.8,1.9,1,0,5.5c-1,3.7-3.8,8.3-3.8,12L299.4,170.2z"/>
	<path fill="#E3DBD9" d="M337.8,322.6l3.8,6.5c6.7,0,12.5-2.8,18.2-3.7l1-1l2.9-1.8c2.9,2.8,1.9,2.8,2.9,5.5c1.9-2.8,1.9-8.3,1.9-12
		h-3.8C358.9,316.2,344.5,320.8,337.8,322.6z"/>
	<path fill="#F8D5B6" d="M340.6,95.4l-1.9,5.5c6.7,0,7.7-2.8,13.4-2.8c7.7,1,3.8,6.5,12.5,2.8l-1-5.5
		C363.7,86.1,340.6,87.9,340.6,95.4z"/>
	<path fill="#E3DBD9" d="M312.8,297.8l1.9-5.5l3.8,1C320.5,296.8,316.6,296.8,312.8,297.8z M314.7,289.4c0-1,1-1.8,1-2.8
		c1-2.8,0-1.8,1-2.8l3.8,1C319.5,288.5,320.5,289.4,314.7,289.4z M310.9,288.5l-1,5.5l-1,5.5c5.8,0,11.5,0,15.4-2.8
		c-1,11.1-1.9,5.5,1,7.4l3.8,1l-1-10.2c-4.8-1.8-2.9-1.8-6.7-3.7l1-1c1.9-2.8,3.8-4.6,1-7.4c-1-1.8-4.8-2.8-8.6-1.8L310.9,288.5z"/>
	<path fill="#992105" d="M361.8,343c0,1-1,1.8-1,1.8s-1,1.8-1.9,1.8c-1,1-1,1.8-1.9,1.8l2.9,2.8l2.9,1.8c1.9-2.8,3.8-5.5,5.8-7.4
		c1.9-2.8,3.8-5.5,4.8-8.3c1.9-2.8,8.6-14.8,7.7-17.5c-8.6,1.8-6.7,3.7-10.6,11.1C368.5,333.8,364.6,341.1,361.8,343z"/>
	<path fill="#E8A89E" d="M309,173.9c1,1.8,7.7,5.5,9.6,6.5c2.9,1,10.6,2.8,13.4,0c1.9-1,4.8-12,2.9-14.8c-6.7,3.7-1.9,5.5-11.5,6.5
		C316.6,173,315.7,172,309,173.9z"/>
	<path fill="#BCA18C" d="M303.2,186.8c7.7,4.6,5.8,7.4,18.2,7.4c4.8,0,7.7,0,10.6-2.8c1.9-1,5.8-6.5,5.8-7.4L303.2,186.8z"/>
	<path fill="#F8D5B6" d="M349.3,124h1v-2.8c-1.9-2.8-1.9-2.8-4.8-1.8h-4.8c1.9-2.8,1-1.8,2.9-3.7c4.8-3.7,9.6,1.8,12.5-6.5
		c-1,0-1-1-1-1l-5.8-3.7l-1.9,1.8c-3.8,1-6.7,1.8-10.6,2.8l1,13C341.6,124,344.5,124.9,349.3,124z"/>
	<path fill="#7A87A5" d="M396.3,331.9h-1v17.5l0,0c4.8-2.8,7.7-7.4,10.6-11.1l1.9,1c1-1.8,1.9-3.7,1.9-6.5c0-1,0-1.8,0-2.8
		c0-1.8,0-1-1-2.8c-1,3.7-1,5.5-1.9,7.4c-1-1.8-2.9-3.7-3.8-6.5c-1.9-2.8-2.9-4.6-5.8-5.5L396.3,331.9z"/>
	<path fill="#F8D5B6" d="M301.3,94.4c10.6-2.8,6.7,8.3,0,7.4C299.4,98.1,298.4,98.1,301.3,94.4z M292.6,82.4c0,2.8,0,4.6,1,6.5
		c2.9,3.7,3.8,1,2.9,6.5l-1,6.5c3.8,2.8,3.8,4.6,9.6,3.7c3.8-1,5.8-2.8,7.7-5.5c2.9,1.8,1,1,3.8,1.8l-1-3.7c1-1-1-1,1.9-1
		c-2.9-1.8-3.8-1.8-6.7-2.8c-2.9-2.8-2.9-1.8-6.7-2.8l1-2.8c-3.8,1-4.8,1.8-7.7,0l-1-2.8c-2.9-1-1.9,2.8-2.9-2.8c0-1.8,1-1.8,1-3.7
		h-1c0,1,0,1,0,1C291.7,82.4,292.6,79.6,292.6,82.4z"/>
	<path fill="#1E2334" d="M324.3,233h2.9c0-10.2-7.7-22.2-7.7-26.8c-2.9-15.7-15.4-8.3-16.3-19.4h-1.9c1,8.3,12.5,19.4,20.2,32.3
		c1.9,4.6,2.9,8.3,4.8,13C322.4,232.1,326.2,232.1,324.3,233z"/>
	<path fill="#C4BBBA" d="M396.3,331.9l1-9.3c2.9,1,3.8,2.8,5.8,5.5c1,2.8,2.9,4.6,3.8,6.5c1-1.8,1-3.7,1.9-7.4
		c-1-5.5-4.8-9.3-5.8-13c-3.8-1.8-2.9-1.8-3.8-7.4l-2.9,1l-3.8,1.8C393.4,316.2,397.3,325.4,396.3,331.9z"/>
	<path fill="#BCA18C" d="M304.2,147.1h9.6c-1.9-1.8-6.7-1.8-9.6-1.8l-1.9-30.5l4.8-1l1-1l-9.6,1c-1.9,8.3,0,25.8,0,35.1L304.2,147.1
		z"/>
	<path fill="#BCA18C" d="M381,319.9c1,2.8-5.8,14.8-7.7,17.5c-1,2.8-2.9,5.5-4.8,8.3c-1.9,1.8-3.8,4.6-5.8,7.4c1.9,1,1,0,3.8-1
		c1.9-3.7,3.8-4.6,6.7-8.3c1.9-2.8,3.8-6.5,5.8-8.3c1-4.6,2.9-7.4,4.8-10.2l1,14.8c3.8,0,2.9,0,2.9-4.6c0-1.8-1-5.5-1-7.4
		c0-5.5,0-10.2-2.9-14.8c-1.9,1.8-1,1-1,1s-1.9,1,0,0C382.9,319,382.9,317.1,381,319.9z"/>
	<path fill="#FDFBFA" d="M314.7,77.8c0,1.8-1,2.8,0,4.6c1,3.7-1,1,2.9,1.8l1.9-1c1,2.8,1,1,1,3.7c-1,1.8,1,1.8-1.9,1
		c9.6,1.8,8.6-1.8,15.4-2.8c0-6.5-3.8-8.3-7.7-10.2h-7.7L314.7,77.8z"/>
	<path fill="#455E91" d="M358.9,245c7.7-2.8,19.2,22.2,22.1,24c0-9.3-1-11.1-1-13c0-4.6-1-1.8,1-3.7c-1.9-3.7-5.8-4.6-9.6-6.5
		c-4.8-1.8-7.7-2.8-14.4-2.8L358.9,245z"/>
	<path fill="#1E2334" d="M325.3,170.2l-2.9-1.8c-1.9,1.8-1.9,2.8-5.8,2.8c-1.9-1-2.9-1.8-3.8-3.7l-1,4.6c-14.4,0-3.8,0-12.5-3.7v1.8
		c0,0,0,3.7-4.8-1.8c-1.9,4.6,0,1.8-2.9,2.8c-3.8-2.8,0-3.7-7.7-5.5l1.9,2.8c4.8,4.6,1.9,5.5,10.6,5.5c0,3.7,0,5.5,1,8.3
		c1.9,5.5,2.9,4.6,3.8,4.6c1-1.8,6.7-1,8.6-1l-7.7-2.8c-1.9-3.7-2.9-5.5-3.8-10.2c1,0,2.9,0,3.8,0c3.8,1,1.9,1,2.9,1.8l3.8-1
		c6.7-1.8,7.7-1,14.4-1.8c9.6-1,4.8-2.8,11.5-6.5v-1C327.2,163.8,333.9,169.3,325.3,170.2z"/>
	<path fill="#CF4F4F" d="M401.1,279.2l1,6.5l2.9,2.8c1,3.7,0-1-1,3.7c-5.8-4.6-2.9-6.5-4.8-4.6c3.8,3.7-2.9,5.5-3.8,6.5
		c1.9,1,3.8,2.8,5.8,3.7c0,2.8,0,2.8-1,3.7v2.8c-3.8,0-1,0-4.8-1c0,1,0,0,0,1l0,0l0,0v1c-2.9-1.8,0,0-2.9-1.8l-1.9-2.8
		c1.9,3.7,1,3.7,1.9,7.4h3.8l2.9-1l8.6-1.8c1-1,1-1,1-1h1l1.9-1c-4.8,0-1.9,0-4.8-1l-1-1c-1,0-1,0-1,0h-1l1-1.8l1-6.5l0,0h2.9
		c0-2.8-1-4.6-1.9-7.4l-2.9-4.6c-1-2.8,1,0-1-1.8C402.1,280.2,403,280.2,401.1,279.2z"/>
	<path fill="#F8D5B6" d="M331,267.2l-1,5.5c5.8-1.8,11.5,1.8,15.4,3.7c6.7,3.7,7.7,6.5,16.3,2.8c-2.9-1-8.6-4.6-11.5-7.4
		c-5.8-1.8-10.6-4.6-18.2-6.5L331,267.2z"/>
	<path fill="#5C1202" d="M288.8,326.4c1,3.7,0,3.7-1.9,7.4h-1c10.6-1,10.6,1.8,17.3,1.8c-4.8-8.3-5.8,2.8-6.7-15.7l-2.9,3.7
		c-1-1-5.8-12-3.8-15.7c0-1,1-1.8,1-1.8c0-1,1-1,1-1h-1.9h-1.9c-2.9,3.7-1.9,4.6-1,10.2C287.8,318.1,288.8,322.6,288.8,326.4z"/>
	<path fill="#AD2D2E" d="M346.4,297.8c1.9,3.7,1.9,6.5,2.9,12l1.9,3.7l-5.8,5.5c-7.7-1-1-1.8-9.6-1l1.9,4.6
		c6.7-1.8,21.1-6.5,26.9-6.5l3.8-1.8c-3.8-1.8,0-2.8,1.9-4.6c-3.8-1-1.9,0-3.8-3.7l-1.9-4.6c-1.9,11.1,0,11.1-11.5,13l-3.8-8.3
		l-1-3.7l-1.9-5.5V297.8z"/>
	<path fill="#1E2334" d="M359.8,354.1c0,0,24,13.8,34.6,2.8c-1-1.8,0-1-1-1.8c0-1.8,0-1-1-1.8l-6.7,1.8c-1.9,1-8.6,1-10.6,0
		c-3.8-1-2.9-2.8-8.6-2.8c-2.9,1-1.9,1.8-3.8,1l-2.9-1.8V354.1z"/>
	<path fill="#FDFBFA" d="M294.6,79.6c0,1.8-1,1.8-1,3.7c1,5.5,0,1.8,2.9,2.8c1-1.8,0-1,1.9-1c1.9,1.8,2.9,1.8-1,3.7
		c2.9,1.8,3.8,1,7.7,0c2.9-1,3.8-2.8,3.8-6.5c0-4.6-1-4.6-3.8-6.5h-4.8c-1.9,0-1.9,0-3.8,1C292.6,78.7,294.6,77.8,294.6,79.6z"/>
	<path fill="#BCA18C" d="M384.8,307c3.8,1.8,2.9,0,3.8,4.6l3.8,19.4c1.9,1,1,1,2.9,1h1c1-6.5-2.9-15.7-3.8-22.2l3.8-1.8h-3.8
		c-1-3.7,0-3.7-1.9-7.4l-4.8-1.8L384.8,307z"/>
	<path fill="#270902" d="M336.8,351.3c1.9,3.7,1.9,2.8,5.8,1c5.8,2.8,6.7-1.8,9.6-5.5l4.8,4.6c0,0,0,1,1,1
		c-2.9,5.5-6.7,10.2-15.4,10.2c3.8-5.5,8.6-3.7,10.6-9.3c-5.8,1.8-6.7,8.3-16.3,6.5c1,1,2.9,2.8,3.8,3.7c1.9,1,1.9,1,3.8,1.8h2.9
		c1,1,1,1,1,2.8l8.6-9.3c1.9-2.8,1-2.8,2.9-4.6v-2.8l-2.9-2.8c-2.9-1-2.9-1.8-5.8-3.7C347.4,347.6,343.5,353.2,336.8,351.3z"/>
	<path fill="#F26F6F" d="M331,302.3l2.9,10.2c8.6,0,8.6,0,15.4-2.8c-1-5.5-1-8.3-2.9-12c-4.8,7.4-3.8-1.8-7.7,7.4
		C332,305.1,335.8,304.2,331,302.3z"/>
	<path fill="#D30D0D" d="M383.8,298.6c-4.8,3.7-2.9-1-6.7,6.5c-3.8-1.8,0-1-2.9-1.8c-4.8,0-2.9,4.6-3.8,6.5
		c-1.9,1.8-5.8,2.8-1.9,4.6l13.4-2.8l1.9-1c0-1,0-1,0-1c1,0,1,0,1,0v-2.8c-1.9-2.8,1-4.6,0-9.3C383.8,298.6,383.8,296.8,383.8,298.6
		z"/>
	<path fill="#222C64" d="M341.6,329.1c2.9,2.8,1.9,2.8,4.8,6.5c0,0,1.9,1.8,1.9,2.8c2.9,3.7,1-1,1.9,4.6l0,0l1.9-1.8
		c1-2.8,2.9-4.6,4.8-7.4c1-1.8,1.9-2.8,2.9-4.6c1.9-3.7,2.9-2.8,0-3.7C354.1,326.4,348.3,329.1,341.6,329.1z"/>
	<path fill="#FDFBFA" d="M332,265.4c7.7,1.8,12.5,4.6,18.2,6.5c1.9-3.7-1-3.7,1-8.3c-4.8-2.8-9.6-3.7-16.3-4.6L332,265.4z"/>
	<path fill="#E8A89E" d="M382.9,280.2l1.9,12l1,3.7c3.8-1,3.8,0,3.8-4.6c1.9,2.8-1,1,3.8,1.8c-1.9-10.2-1.9-1,3.8-10.2l1.9,1.8h1
		c0,0,1,0,1,1h1l-1-6.5c-3.8,1-11.5,2.8-14.4,2.8l-2.9-1C383.8,280.2,382.9,280.2,382.9,280.2z"/>
	<path fill="#FDFBFA" d="M331,295l-1,1.8l3.8,2.8c1.9,1-1,0,2.9,1c1.9-4.6,0-5.5,6.7-6.5c1.9-2.8,1-1,1-8.3
		C326.2,287.5,333,286.6,331,295z"/>
	<path fill="#AD2D2E" d="M312.8,279.2c0,2.8-1,1.8,1.9,1.8c3.8-1,7.7,0,8.6,1.8c2.9,2.8,1,4.6-1,7.4l-1,1c3.8,1.8,1.9,1.8,6.7,3.7
		l-1-7.4c-4.8,0-1,0-1.9-1c0-2.8,0-4.6,1-7.4c0-3.7-1-4.6,1.9-6.5l0,0h-8.6l-6.7,1c2.9-1,0-1,1,1L312.8,279.2z"/>
	<path fill="#992105" d="M342.6,352.2c-1.9,5.5-3.8,1-5.8,7.4c9.6,1.8,10.6-4.6,16.3-6.5c-1.9,5.5-6.7,3.7-10.6,9.3
		c8.6,0,12.5-4.6,15.4-10.2c-1,0-1-1-1-1l-4.8-4.6C349.3,350.4,348.3,355,342.6,352.2z"/>
	<path fill="#222C64" d="M366.6,352.2c5.8,0,4.8,1.8,8.6,2.8c1.9,1,8.6,1,10.6,0l-1.9-1c0,0-1.9-1-1.9-1.8c-5.8-2.8-3.8-1.8-3.8-5.5
		c1-1.8,1.9-10.2,1-11.1c-1.9,1.8-3.8,5.5-5.8,8.3C370.4,347.6,368.5,348.6,366.6,352.2z"/>
	<path fill="#222C64" d="M333.9,344.9c9.6-3.7,7.7-13.8,1.9-17.5c-3.8,3.7-6.7,7.4-4.8,13L333.9,344.9z"/>
	<path fill="#BCA18C" d="M299.4,292.2c3.8-1,0,0,3.8-3.7c0,0-1,0,2.9-1c1.9,0,3.8,1,4.8,1l3.8-7.4c-2.9,0-1.9,1-1.9-1.8
		c-1.9,2.8-1.9,2.8-2.9,7.4h-3.8l2.9-3.7h-4.8l2.9-10.2l2.9-12C308,262.6,298.4,287.5,299.4,292.2z"/>
	<path fill="#454B65" d="M300.3,67.6l3.8,1.8c7.7,1,0,0,5.8-1c-1-2.8,1-3.7-6.7-5.5c1.9-5.5,3.8-4.6,3.8-10.2
		c-1.9-1-3.8-4.6-4.8,9.3c-3.8-1-2.9-1.8-6.7-1.8c-1,1.8-1,3.7-1.9,6.5C296.5,67.6,297.4,67.6,300.3,67.6z"/>
	<path fill="#F8D5B6" d="M278.2,96.2c-1,4.6,0,1,1,5.5c3.8,0,8.6-1,10.6,1.8h1c1.9,1,0,0,1,0c1-3.7,2.9-4.6,1.9-7.4
		c-2.9-2.8-3.8-2.8-8.6-2.8c-1,0-3.8,0-4.8,0C275.4,95.4,278.2,94.4,278.2,96.2z"/>
	<path fill="#F26F6F" d="M384.8,292.2v3.7l-1.9-1.8v3.7c-2.9,0-3.8-1.8-5.8-2.8l-1,6.5l1.9-3.7c3.8,1,1.9,1,5.8,1c0-1.8,0,0,1-1
		c1,4.6-1.9,6.5,0,9.3l1-8.3c1-1.8,1-1.8,4.8-3.7c3.8-1.8,3.8,0,3.8-3.7l1,2.8c1-1,7.7-2.8,3.8-6.5c1.9-1.8-1,0,4.8,4.6
		c1-4.6,1.9,0,1-3.7l-2.9-2.8h-1c0-1-1-1-1-1h-1l-1.9-1.8c-5.8,9.3-5.8,0-3.8,10.2c-4.8-1-1.9,1-3.8-1.8c0,4.6,0,3.7-3.8,4.6
		L384.8,292.2z"/>
	<path fill="#F26F6F" d="M359.8,300.5c0,4.6,1,0,1.9,5.5h-1l-1,3.7l-3.8,1c-1-1.8-1-2.8-1-5.5c-1.9,1.8-2.9,1.8-5.8,1l3.8,8.3
		c11.5-1.8,9.6-1.8,11.5-13l1.9,4.6c5.8,1,1,1,2.9-1v-4.6c-3.8,1-1,1-3.8,1l-1.9-3.7L359.8,300.5z"/>
	<path fill="#6C5C53" d="M299.4,168.3c8.6,3.7-1.9,3.7,12.5,3.7l1-4.6c1,1.8,1.9,2.8,3.8,3.7c3.8,0,3.8-1,5.8-2.8l2.9,1.8
		c-1-3.7,0-1.8-2.9-3.7c-2.9,1,0,0-1.9,1.8c-5.8,4.6,2.9-1-1.9,1.8c-2.9-1.8-3.8-2.8-5.8-6.5l-2.9-1l1,3.7l-1.9,2.8l0,0H307
		c-2.9-1,1.9,1.8-1-1c-1.9-1-1.9-2.8-1.9-5.5v-6.5C302.2,159.1,300.3,163.8,299.4,168.3z"/>
	<path fill="#992105" d="M296.5,319.9c0-4.6,1.9-11.1,0-14.8h-6.7h1.9c0,0-1,0-1,1c0,0-1,1-1,1.8c-1.9,3.7,2.9,14.8,3.8,15.7
		L296.5,319.9z"/>
	<path fill="#D30D0D" d="M385.8,298.6l4.8,1.8l1.9,2.8c2.9,1.8,0,0,2.9,1.8v-1l0,0l0,0c0-1,0,0,0-1c3.8,1,1,1,4.8,1v-2.8
		c1-1,1-1,1-3.7c-1.9-1-3.8-2.8-5.8-3.7l-1-2.8c0,3.7,0,1.8-3.8,3.7C386.7,296.8,386.7,296.8,385.8,298.6z"/>
	<path fill="#AD2D2E" d="M306.1,305.1h1.9l13.4-1h3.8c-2.9-1.8-1.9,3.7-1-7.4c-3.8,2.8-9.6,2.8-15.4,2.8l1-5.5h-1L306.1,305.1z"/>
	<path fill="#E3DBD9" d="M399.2,307c1,5.5,0,5.5,3.8,7.4h3.8l3.8,6.5l-1.9-7.4l2.9-1.8v-8.3l-1.9,1h-1c0,0,0,0-1,1L399.2,307z"/>
	<path fill="#E8A89E" d="M388.6,259.8c-1-3.7-1.9-3.7-4.8-6.5c-1,1,0,0-1,2.8l1,7.4c0,3.7-1,7.4-1.9,12c5.8-1,7.7-1,6.7-6.5
		C388.6,265.4,386.7,262.6,388.6,259.8z"/>
	<path fill="#C4BBBA" d="M333.9,85.2c-6.7,1-5.8,4.6-15.4,2.8c2.9,1,1,1,1.9-1l-2.9-1v-1.8c-3.8-1-1.9,1.8-2.9-1.8
		c-1-1.8,0-2.8,0-4.6c0,1-1.9,1.8-1.9,3.7c-2.9,10.2,11.5,13.8,19.2,8.3C333.9,87.9,333,87.9,333.9,85.2z"/>
	<path fill="#C4BBBA" d="M333.9,63.9l1,3.7l9.6-1l1-3.7c1-3.7,1,1.8,1-3.7V49.1c-5.8,0-1-1-2.9,1.8c2.9-1.8,1-1,1.9,0l-6.7,11.1
		C336.8,64.9,337.8,64.9,333.9,63.9z"/>
	<path fill="#455E91" d="M315.7,63c-1.9,1.8-3.8,1.8-2.9,4.6c1,1.8,1.9,1.8,3.8,1c1.9-1,4.8-2.8,6.7-2.8l5.8-2.8h1l-1.9-3.7
		C322.4,58.4,318.6,60.2,315.7,63z"/>
	<path fill="#BCA18C" d="M316.6,106.4c1-1.8,0-2.8,0-4.6c-2.9-1-1,0-3.8-1.8c-1.9,2.8-3.8,4.6-7.7,5.5c-5.8,1-5.8-1-9.6-3.7l1-6.5
		l-2.9,1c0,7.4,1,11.1,8.6,12C310.9,109.2,311.8,104.6,316.6,106.4z"/>
	<path fill="#CF4F4F" d="M333.9,312.5l1.9,5.5c8.6-1,1.9,0,9.6,1l5.8-5.5l-1.9-3.7C342.6,312.5,342.6,312.5,333.9,312.5z"/>
	<path fill="#927271" d="M293.6,96.2c1,2.8-1,3.7-1.9,7.4c-1,0,1,1-1,0l1.9,1.8c1,0,1,0,1,0h1c1.9,1,1.9,1.8,2.9,3.7h12.5
		c4.8,0,2.9,0,4.8,2.8c1.9-3.7,1.9-1.8,1.9-5.5c-4.8-1.8-5.8,2.8-14.4,1.8C294.6,107.4,293.6,103.7,293.6,96.2l2.9-1
		c1-5.5,0-2.8-2.9-6.5c-1-1.8-1-3.7-1-6.5c-2.9,1-1-1.8-1.9,3.7c-1,5.5,2.9,6.5,3.8,10.2L293.6,96.2L293.6,96.2z"/>
	<path fill="#AD2D2E" d="M403,314.3c1,3.7,4.8,7.4,5.8,13c1,1.8,1,1,1,2.8c0,1,0,1.8,0,2.8c1.9-2.8,1.9-6.5,1.9-9.3
		c0-3.7,0-8.3,0-12l-2.9,1.8l1.9,7.4l-3.8-6.5H403z"/>
	<path fill="#7A87A5" d="M334.9,258.9c6.7,1,11.5,1.8,16.3,4.6l2.9,1c-1.9-3.7-3.8-4.6-6.7-6.5c-2.9-2.8-2.9-1.8-5.8-2.8
		s-1,0-1.9-1.8l-1.9,1.8c0,0,0,1-1,1L334.9,258.9z"/>
	<polygon fill="#7A87A5" points="307,310.6 321.4,309.8 321.4,304.2 308,305.1 	"/>
	<path fill="#EACC67" d="M318.6,246c0,2.8,0,1,1,1.8h4.8c1.9,1,4.8-1,10.6,0c-1.9-6.5-1.9-2.8-7.7-6.5l0,0l-1,1c0,0-1,0-1,1
		C321.4,245,326.2,241.4,318.6,246z"/>
	<path fill="#992105" d="M336.8,351.3c6.7,1.8,10.6-3.7,14.4-6.5c0-1.8,0-1-1-1.8l0,0c-1.9,0-12.5,4.6-14.4,5.5L336.8,351.3z"/>
	<path fill="#FDFBFA" d="M346.4,296.8l1.9,5.5h2.9v-2.8c0-3.7,0-1.8,2.9-3.7c3.8,1.8,1.9,0,2.9,2.8v2.8l2.9-1c0-4.6,0-6.5-4.8-7.4
		c-1,0-3.8,1-4.8,1C346.4,295,347.4,294,346.4,296.8z"/>
	<path fill="#F8D5B6" d="M290.7,110.2c-1-1.8,0-1.8-2.9-1.8l-5.8-1.8c0,3.7,1.9,4.6,2.9,6.5c2.9,4.6,2.9,3.7,7.7,2.8
		C292.6,112,293.6,112.9,290.7,110.2z"/>
	<path fill="#CF4F4F" d="M369.4,299.6v1v4.6c-1.9,1.8,2.9,1.8-2.9,1c1.9,3.7,0,2.8,3.8,3.7c1-1.8-1-6.5,3.8-6.5c2.9,1-1,0,2.9,1.8
		c3.8-7.4,1.9-2.8,6.7-6.5c-3.8,0-1.9,0-5.8-1l-1.9,3.7l-3.8-4.6L369.4,299.6z"/>
	<path fill="#927271" d="M276.3,99.9c0,3.7,0,5.5,1.9,8.3c3.8,3.7,1.9,3.7,5.8,5.5c0-1-1-1.8-1.9-1.8c-1-2.8-1-1.8-1.9-3.7l1.9-1.8
		l0,0l5.8,1.8c-1.9-2.8,0,0-1.9-1c-3.8-1.8-1.9,0-3.8-2.8c1.9-1.8,1-2.8,7.7-1c-1.9-2.8-6.7-1.8-10.6-1.8c-1-4.6-1.9-1-1-5.5
		c-1.9,1-1.9-1.8-1.9,1.8C275.4,99,276.3,97.2,276.3,99.9z"/>
	<path fill="#270902" d="M303.2,306c-3.8,2.8-4.8,1.8-4.8,8.3l3.8-1.8l4.8-1v-1l1-5.5h-1.9L303.2,306z"/>
	<path fill="#E3DBD9" d="M301.3,94.4c-2.9,3.7-1.9,3.7,0,7.4C308,102.7,311.8,91.7,301.3,94.4z"/>
	<path fill="#F8D5B6" d="M351.2,299.6v2.8h-2.9l1,3.7c2.9,1,3.8,1,5.8-1c0-1,1-1,2.9-1c2.9,1,1,1,2.9,1.8h1c-1-5.5-1.9-1-1.9-5.5
		l-2.9,1v-2.8c-1,2.8-1,1-3.8,3.7L351.2,299.6z"/>
	<path fill="#BCA18C" d="M303.2,295c0,2.8,0,3.7-1,6.5c0,1,0,1.8,0,1.8c0,2.8-1,1,1,2.8l2.9-1L309,294L303.2,295z"/>
	<path fill="#AD2D2E" d="M411.7,303.3c-1-2.8-1.9-7.4-2.9-10.2h-2.9l0,0l-1,6.5l-1,1.8h1c0,0,0,0,1,0l1,1
		C409.8,303.3,406.9,303.3,411.7,303.3z"/>
	<path fill="#FDFBFA" d="M335.8,60.2l-1.9,3.7c3.8,1,2.9,1,4.8-1.8l6.7-11.1c-1-1,1-1.8-1.9,0C341.6,51,335.8,59.3,335.8,60.2z"/>
	<path fill="#992105" d="M303.2,295l5.8-1h1l1-5.5c-1,0-2.9-1-4.8-1c-3.8,1-2.9,1-2.9,1c1.9,1.8,1-1,1,2.8
		C304.2,292.2,303.2,294,303.2,295z"/>
	<path fill="#455E91" d="M316.6,68.6c0,2.8,0,1.8,1,5.5l1,1h7.7c-2.9-1.8-4.8-1.8-4.8-1.8l1.9-6.5L316.6,68.6z"/>
	<path fill="#454B65" d="M315.7,63c2.9-2.8,6.7-4.6,12.5-3.7c-6.7-2.8-3.8-4.6-9.6-4.6c-1,1-1,1-1.9,1.8L315.7,63z"/>
	<polygon fill="#1E2334" points="309,283 310.9,275.5 310.9,272.8 307,272.8 304.2,283 	"/>
	<path fill="#7A87A5" d="M350.2,343c1,1,1,0,1,1.8c2.9,1.8,2.9,2.8,5.8,3.7c1,0,1-1,1.9-1.8c1,0,1.9-1.8,1.9-1.8s1-1,1-1.8
		c-6.7,1.8-5.8,0-9.6-1.8L350.2,343z"/>
	<path fill="#E8A89E" d="M284,113.8c4.8,4.6,7.7,1.8,11.5,4.6l1-4.6l-5.8-3.7c2.9,2.8,1.9,1.8,1.9,5.5c-4.8,1-4.8,1.8-7.7-2.8
		c-1-1.8-2.9-2.8-2.9-6.5l0,0l-1.9,1.8c1,1.8,1,1,1.9,3.7C283,112,284,112.9,284,113.8z"/>
	<path fill="#C4BBBA" d="M310.9,275.5l-1.9,7.4l-2.9,3.7h3.8c1-4.6,1-4.6,2.9-7.4l1-4.6c-1-1.8,1.9-1.8-1-1L310.9,275.5z"/>
	<path fill="#453B39" d="M343.5,104.6l7.7-1c2.9-1.8,1-1,2.9-1.8c-1.9-1-1-1-2.9-1.8c-1.9,0-5.8,1-6.7,1.8
		C342.6,104.6,344.5,100.9,343.5,104.6z"/>
	<path fill="#E3DBD9" d="M327.2,287.5l1-14.8c-2.9,1.8-1.9,2.8-1.9,6.5c-1,2.8-1,4.6-1,7.4C326.2,287.5,322.4,287.5,327.2,287.5z"/>
	<path fill="#CF4F4F" d="M355,305.1c0,2.8,0,3.7,1,5.5l3.8-1l1-3.7c-1.9-1,0-1-2.9-1.8C356,304.2,355,304.2,355,305.1z"/>
	<path fill="#1E2334" d="M300.3,75.9h4.8l-1-1c0-1,0-1,0-1v-4.6l-3.8-1.8V75.9z"/>
	<path fill="#E3DBD9" d="M363.7,297.8l1.9,3.7c2.9,0,0,0,3.8-1v-1c1.9-2.8,1,0,1-3.7c-5.8,0,1-1-2.9,1c-1.9,1,0,1-2.9,0
		C361.8,296.8,364.6,295.8,363.7,297.8z"/>
	<path fill="#453B39" d="M349.3,124c-1,1-1,2.8-3.8,2.8c-1,0-3.8-1-5.8-1.8l1.9,3.7c2.9,0,5.8,0,7.7-1.8c1,0,1.9-1.8,1.9-2.8
		c1-3.7,0-2.8-1-2.8v2.8H349.3z"/>
	<path fill="#BCA18C" d="M351.2,299.6l1.9,2.8c2.9-2.8,2.9-1,3.8-3.7c-1-2.8,1-1-2.9-2.8C351.2,297.8,351.2,295.8,351.2,299.6z"/>
	<path fill="#FDFBFA" d="M377.1,295c1.9,1,2.9,2.8,5.8,2.8v-3.7l-2.9-2.8c-2.9-1.8,0-1-1,0c0,1-1,1.8-1,1.8S378.1,294,377.1,295z"/>
	<path fill="#AD2D2E" d="M312.8,297.8c3.8-1,7.7-1,5.8-4.6l-3.8-1L312.8,297.8z"/>
	<path fill="#AD2D2E" d="M314.7,289.4c5.8,0,4.8-1,5.8-4.6l-3.8-1c-1,1,0,0-1,2.8C315.7,287.5,314.7,288.5,314.7,289.4z"/>
	<path fill="#BCA18C" d="M291.7,124c0,2.8-1,2.8,1.9,3.7l1.9-4.6l-1.9-1C291.7,122.2,291.7,120.3,291.7,124z"/>
	<path fill="#C4BBBA" d="M307,244.2v1c1,0-1,1,2.9,1c5.8,0,1,1,2.9-1C312.8,244.2,314.7,242.2,307,244.2z"/>
	<path fill="#270902" d="M317.6,84.2v1.8l2.9,1c0-2.8,0-1-1-3.7L317.6,84.2z"/>
	<path fill="#270902" d="M297.4,88.9c3.8-1.8,2.9-1.8,1-3.7c-1.9,0-1-1-1.9,1L297.4,88.9z"/>
</g>
</svg>
