<?xml version="1.0" encoding="utf-8"?>
<!-- Generator: Adobe Illustrator 19.2.0, SVG Export Plug-In . SVG Version: 6.00 Build 0)  -->
<svg version="1.1" id="Layer_1" xmlns="http://www.w3.org/2000/svg" x="0px" y="0px"
	 width="640px" height="480px" viewBox="0 0 640 480" enable-background="new 0 0 640 480">
<rect fill="#333333" width="640" height="480"/>
<g>
	<path fill="#FF0000" d="M207.1,237c-1,1-1.6,1-3.7,1c-3,0-3.7-0.2-6.3-0.8c-0.4-0.2-1.2,0-2-0.2c-0.6-0.2-0.8-0.8-2.6-1.6
		c-2-0.8-1-0.4-1.8-1.2c-1.4-1.2-0.6-1-1.8-2l-1-1.2c-0.4-0.4-0.8-0.6-1.4-1.4l-1.8-4.5c-0.6-3-0.4-1.2-0.8-2.2l-0.8-5.5
		c0-3,0-6.3,0.2-9.1c0-1.4,0.2-1,0.4-2c0-0.8,0-1.2,0.2-2c0.2-1.4,0.2-0.6,0.6-1.8c0.2-1.6,0.2-1.4,1-3.3c1.6-2.9,0.8-2.9,2.4-4.2
		h0.2l0.4-0.6c0.8-0.8,1.2-0.6,2-1.6c0.4-0.2,0.6-0.6,1-1c0.2-0.2,0.4-0.2,0.8-0.4c0,0,0-0.2,0.2-0.2l2.2-0.8c2.6-0.8,3-1,5.7-1
		c7.5-0.2,6.7-0.4,6.7,2.4C207,206.6,207.5,221.8,207.1,237z M166.9,286.4c1.8,0.8,5.3,0.6,7.5,0.6c1.2,0,2.9,0,3.8-0.2
		c0.4-0.2,1.4-0.4,1.6-0.6h0.2c0.4-0.2,0.2,0,0.4-0.4c0,0,0.2-0.4,0.4-0.6c0.2-0.4,0.4-0.6,0.6-1.2c0.2-1,0-1.2,0.6-2l0.6-1
		c0.4-0.8,1-1.6,1.4-2.6l4.1-7.9c0.6-1.4,1.2-2.9,2-4.1c0.6-0.8,1-1.8,1.4-2.6l1.6-2.4c0-0.2,0-0.2,0-0.4l4.9-9
		c0.2-1-0.2-0.6,0.4-1.6c0.6-0.8,0.4-0.2,0.8-1.4c0.2-1.2,0-0.6,0.6-1.2l6.7-0.2l0.2,37.2c0,3,1.8,2.2,6.5,2.2
		c1.2,0,3.8,0.4,4.5-0.2l0.2-1.4c0.2-17.4,0-34.7,0-52c0-6.1,0.4-51.8-0.2-53.4c-0.8-0.8-17.4-0.4-18.5-0.4c-1.4,0-1.2,0.2-2.4,0.4
		c-1.4,0.2-1,0.2-2.2,0.6c-0.6,0.2-1.6,0.2-2.4,0.4c-1.6,0.4-3.8,1.6-3.8,1.6c-2,0.6-1.6,0.8-3,1.6c-0.2,0-0.2,0-0.4,0.2l0,0
		c-1.6,0.8-1.8,1.8-2.4,2c-0.4,0.4,0,0-0.4,0.2c-1.2,0.8-2.4,2.2-3.4,3.3c-0.8,1-1.2,2.4-2.2,3.4c-0.8,0.6-1,1.4-1.6,2.4
		c0,0.4-0.2,0.6-0.4,0.8c-1.2,2.6-1.4,4.9-2.2,6.5c-0.2,0.6-0.2,0-0.2,1.2c-0.2,1.4-0.8,2.2-0.8,3.4c-0.2,3.7-0.8,8.2-0.2,11.8
		l0.4,3.3c0.2,1.6,0.8,3.4,1.4,4.9c0.6,1.4,0.6,2.6,1.4,3.8c0.8,1.2,0.6,1.6,2.6,4.6c0.2,0.4,0.4,0.6,0.6,1l3,2.6
		c0.4,0.4,0.8,0.8,1.4,1.2c0.4,0.4,0.6,0.4,0.8,0.6c0,0.2,0.2,0.2,0.2,0.2l0,0l1.8,1.2c0.2,0.2,0.4,0.2,0.6,0.4l2.2,1.2
		c0.6,0.4,1.6,0.6,0.2,3.3c0,0.2-0.2,0.2-0.2,0.2l-1,1.6c-0.2,0.6,0,0.4-0.4,1c-0.2,0.2,0,0-0.2,0.2c-1.2,1.8-2.2,4.5-3.4,6.1
		c-0.8,1-2.2,3.8-3,5.3c-0.2,0.6-0.2,0.2-0.4,0.8l-1.4,2.2c0,0-0.2,0.4-0.2,0.6c-0.2,0.2-0.2,0.6-0.4,0.8c-0.2,0.4,0,0.2-0.2,0.4
		l-1,1.6c-1,1.2-1.6,3.4-3,5l-0.6,1.2c-1.2,1.6-1,1.6-2,3.3c-0.4,0.6-0.4,1.2-0.8,1.8c-0.6,1-0.4,1-1,2
		C167.5,284.2,166.9,284.6,166.9,286.4z"/>
	<path fill="#FFFFFF" d="M301.8,252.2c0-0.8,0.4-4.2,0.6-4.6c0-1.4,0.2-3,0.4-4.2l0.8-16.6c0-1.4,0.4-2.4,1.6-2.6
		c1-0.4,7.3-0.4,8.2,0c0.4,1.2,0.2,23.4,0.2,26.8c0,3,0.4,25.6-0.2,26.4c-0.6,0.8-8.6,0.4-9.9,0.4c-3.3,0-7.1,0.4-10.2,0
		c-0.4-1.6,0.4-2,0.8-3.4c0.2-0.6,0.4-1,0.6-1.6l0.6-1.4c1.2-2.2,0.4-1.2,1.2-2.6l0,0l0.8-1.6c1-2,0.8-2.2,1.4-3.4
		c0.6-1.2,1.4-5.5,1.6-6.3c0.6-1.2,0.4-1.4,0.8-3.3c0-0.2,0.2-0.6,0.2-0.8C301.8,252.2,301.4,252.6,301.8,252.2z M290.4,257.5
		c0,0.6,0,0.8-0.2,1.4s-0.2,0.8-0.4,1.6c-0.2,1.2-0.6,1-0.6,3c-0.2,2.4-1,3.8-1.8,5.7c0,0.2-0.2,0.8-0.2,1c-0.6,1-0.2,0-0.6,0.8
		c-0.6,1,0.2,0.8-0.8,2.4l-1.2,3.3c-0.6,1.6-2.9,0.8-4.9,1.2c-0.4,1.8-0.4,21,0,21.9l3,0.6c1.2,0.2,2,0.2,3.4,0.2
		c0.6-1,0.4-0.4,1.4-1c0.2,0,0.2,0,0.4,0c1-0.8-1,0.6,0.4-0.4V299l0,0c0.6-1.8,0.8-0.6,0.8-2.4c0-1.4-0.2-2.6-0.2-3.8
		c0-1.4,0.2-2.6,0-3.8c0-2.4,0.2-1.6,0.6-3c0.4,0,0.4,0,0.6,0l0,0l0.4,0.6c4.9,0,9.9,0,14.8,0c2.9,0,12.8-0.4,14.4,0.4
		c0.8,3.4-0.4,10.2,0.6,13.6c1.2,0,4.2,0.8,7.1,0s2.2-2.9,2.2-5.9c-0.2-5.5-0.2-11-0.2-16.2c-2.2-0.8-3.3-0.2-4.5-1l0,0
		c-0.8-0.2-0.6,1-0.8-4.2c0-3-0.2-2.2-0.2-3.4c-0.2-2.4,0-5.3,0-7.5V217l-0.6-0.8c-0.2,0-0.2,0-0.2,0c-0.6-0.6-0.4-0.6-1-0.6
		c-1.2-0.4-22.3-0.2-25.6,0c-2.4,0-2,0-2.6,0.6l-0.2,0.4c-0.4,1,0.2,12.8-0.2,16.5l-0.4,5.3c0,3.7-0.6,6.5-1,9.9l-0.6,4.9
		c0,0.8-0.4,1.4-0.6,2C290.9,256.7,291.4,257.4,290.4,257.5z"/>
	<path fill="#FFFFFF" d="M234.2,286.6c2.6-0.6,6.9,0.6,9-0.6c0.4-2.9,0.2-6.1,0.2-8.7c0-2.9,0-5.9,0-8.6l0.2-12.8
		c0-2.2-0.4-2,0.8-3.7l16.1,0.2c0.6,2.2,0.4,1.6,0.4,4.2c-0.2,1.4,0,2.9,0,4.2c0,7.1-0.4,19.1,0,25.4l0.4,0.2c2.6,0,9.8,0.6,9.9-1.4
		c0.6-2.9,0.2-55.3,0.2-63.6c0-1.8,0.6-5-1-6.1c-0.8-0.4-9.1,0-9.4,0.2c-1,0.6-0.8,18.7-0.6,21v5.5c0,0.4,0,0.6,0,0.8
		c-0.4,0.6-0.2,0.2-0.4,0.6c-0.8,0.4-9.4,0.2-11.2,0.2c-6.5-0.2-4.9-0.2-5-6.1c-0.2-3.4-0.4-7.3-0.4-10.8c0-3,0.2-8.6-0.2-11.2
		c-1.8-1-7.5-1-9,0.2c-1.4,1-0.8,2-0.8,4.2l-0.2,65C233.4,286.2,233.8,285.8,234.2,286.6z"/>
	<path fill="#FFFFFF" d="M360.6,223.6h-0.2c1.4,0.4,0.2,0,1,0.6c0.8,0.6,1.8,1.6,2,2.9l0.6,1.2c0.2,0.4,0.2,0.4,0.4,1.2
		c0.2,0.8,0.2,1.8,0.4,2.6c0.8,2.6,1.2,9.1,1.2,11.8c-2,1-6.9,0.8-9.5,0.8c-0.8,0-1.8,0-2.4,0c-1.8,0.4-5.3,0.6-6.5-0.2
		c0-1.4,0.2-0.2,0.4-1.8l0.2-4.2c0.2-1.6,0-0.8,0.4-1.8c0.6-1,0.8-5.5,1.8-7.3c0.8-1.4,1.2-3.4,2.4-4.5c0.8-0.8,0.4-0.6,1-1.2
		c0.4-0.8,0.6-0.4,1.4-0.8c1.4-0.4,2-1,3.7-0.2C360.2,223.2,360.2,223,360.6,223.6z M350.4,286c2.6,0,2.9,1.2,4.6,1.4
		c0.8,0,1,0,1.8,0.2c1,0.2,2.9,0.6,4.2,0.4c0.4,0-0.2,0,0.4,0l2.2-0.4c1-0.2,2.4,0,3.4-0.4l4.2-1.6c0.6-0.4,0.6-0.6,1-0.6
		c1-0.4,0.6,0.2,1.6-0.6c1-0.8,2.2,0.2,1-5.3c0-0.6,0.2-0.8,0-1.4c-1.6-0.6-2-0.2-3.7,0c-1,0-3,0.2-3.8,0.4
		c-1.6,0.6-3.8,0.6-5.7,0.4c-1.2,0-1.2,0-1.8-0.8c-2.4,0.2-5.9-1.8-6.5-2.9l-1.2-1.2c-1-1-0.8-1.6-1.4-2.2c-0.4-0.6-0.8-0.8-1-2.4
		c-0.8-0.4-0.8-0.6-1-1.6c-0.6-2.4-1-3-1.2-5.5c-0.2-2.5-1-6.5-0.6-8.6c1.2-0.8,1.2-0.8,3-0.6l25.8,0.2c0.4-0.2,0.6,0,1-0.8
		s0.4-8.6,0-9.9c-0.2-0.6-0.2-0.2-0.4-1.2c0-1.8,0-4.2-0.4-5.9c-0.6-1.6-1.2-3.7-1.2-5.5c0.2-1.4-1.6-4.1-2-5.5
		c-1-3-3.8-5.3-5.3-7.1l-1-1.2l-3.3-1.4c-3-1-4.6-1.8-8.3-0.8c-0.4,0-0.6,0-1,0.2c-2.4,0.6-1.4,0.6-2.4,0.8l-1.2,0.6
		c0,0,0,0.2-0.2,0.2l-2,1.4c-0.6,0.2-0.4,0-1,0.4c-1.8,1.6-3.8,4.2-4.9,6.5c0,0,0,0,0,0.2l-0.2,0.2c-0.8,1.4-1,1.2-1.6,2.9
		c0,0-0.2,0.6-0.2,0.8l-1.4,3c-0.2,0.4-0.2,0.6-0.4,1l-1.4,5c-0.4,1.2-0.4,4.9-0.8,6.1c-0.2,2-0.2-0.2-0.4,4.1c0,2.9,0,5.9,0,9
		l0.4,6.3c0.2,2.2,0,1,0.4,2l0.8,3.4c0.2,0.8,0.2,1.4,0.2,2c0.2,0.8,0.6,0.8,0.8,1.6c0.4,2,0,0.4,0.6,1.6l1.2,3.3
		c0.6,1.4,0,0.8,0.8,1.4c0.8,0.6,0.2,0.4,0.8,1.2c0.4,0.4,0.8,0.8,1.2,1.2c1.4,1.8,0.6,1.4,3,3.7c0.6,0.6,1.6,0.8,2.6,1.6
		C349.1,285.8,349.6,286.2,350.4,286z"/>
	<path fill="#FFFFFF" d="M405.8,237c0,1.4-0.6,2.2-1.2,3.3c-0.6,1-0.8,1.8-1.2,2.9l-1.2,1.8c-1.2,1.4-0.6,2.6-2.6,2.4
		c-0.4-1.8,0-12.6,0-15.7c0-2.4,0.2-14.4-0.4-15.7c-1.2-0.8-3.7-0.2-5-0.4c-1.2,0-3.7-0.6-4.5,0.4c-0.8,0.8-0.4,7.8-0.4,9.5v56.5
		c0,0.8-0.2,3.4,0.6,4.1c2.2,0.2,7.8,0.4,9.4-0.2c0.4-1.2,0.2-23.4,0.2-27.8V251c0.2-0.4,0.2-0.6,0.6-0.6c0.8,0,0.4-0.2,0.6,0.4
		c0.8,0.2,0.6,1.4,1.4,2.6c1,1.6,0.2,1,1.2,2.2l0.4,0.8c0.4,1.2,0.8,1.2,1.4,2.4c0.2,0.4,0.2,0.4,0.2,0.8l0.8,1.8
		c0.4,0.8,0.2,0.2,0.6,0.8l0.6,1.6c1,0.6,0.8,1.6,2.2,3.7c0.2,0.4,0.2,0.4,0.6,0.8l0.4,1.4c0.2,0.8,0,0,0.2,0.6l2.4,5.3
		c0.6,1,0.4,1,0.8,1.6c1,1.4,0.6,1.4,1.8,3.8c0.2,0.6,0.6,1.4,0.8,2c0.4,1,0.4,1,1.2,1.4l2.6,1.6c0.8,0.2,3.4,0.2,4.2,0.2
		c1.8,0,3.8,0,5.5-0.2c0.2-2-0.8-2.9-1.6-5c-0.4-0.8-2-3.3-2.2-4.6c-0.2-1-1.8-3.4-2.6-4.5l-0.2-0.2l0,0c-0.6-1-0.2-0.6-0.8-1.4
		c-1.2-1.6-0.6-1-1.4-3l-1.6-2.6c0,0-0.2-0.8-0.2-1c-0.8-2.2-1.4-2.6-3-5.7c-1-1.8-0.8,0-1.8-3.7l-1.4-2.9c-0.2-0.4-0.4-0.6-0.4-1
		c-0.8-1.2-1.4-3.3-1-4.9c0.2-0.6,0.4-0.6,0.4-1c0.6-1.6,0.6-1,1.4-3c0.4-0.8,0.6-0.8,1-1.6c0.4-0.6,0.6-1.2,1-2
		c0.4-0.4,0.8-1,1-1.6c0.2-0.2,0.4-0.6,0.6-1c0-0.2,0.2-0.6,0.4-0.8c0,0,0-0.2,0.2-0.2v-0.2c0.8-1.8,0.6-0.6,1.2-1.6l0.4-0.6
		l2.2-4.1c1.4-1.8,0.8-1.2,1.4-2.2c0.6-1.2,0,0.6,0.6-1.4l1.2-2.4c0.2-0.2,0.2,0,0.4-0.4c0-0.2,0-0.2,0.2-0.4c0.2-0.6,0.2-0.6,0.4-1
		c0.6-1,1.6-2.6,1.4-3.7v-0.6c-0.2-0.4-0.2-0.2-0.2-0.2l-0.4-0.2H427c-0.2,0-0.6,0-0.8,0h-5.3c-3.3,0-2.4,0-4.2,1
		c-2.2,1.2-0.6-0.4-1.6,2c-0.2,0.4-0.4,0.8-0.6,1c-1.2,1.8-1,2.2-1.4,3.3v0.4h-0.2c-0.6,1.2-0.4,1.4-1,2.2c-0.8,1.4-1.6,2.6-2,4.1
		c-0.4,1-0.4,0.6-0.8,1.2c-0.2,0.6-0.4,2.4-1.4,4.1L405.8,237z"/>
	<path fill="#FFFFFF" d="M435.3,270.2L435.3,270.2l2.2,5c0.2,0.6,0.4,1.6,0.8,2.2l1.2,1.6c1,1.2,0,0.4,1.8,2.4l0.8,0.8
		c1,1,1.2,1.4,1.8,1.8l1.8,1c0.4,0.2,0.6,0.2,0.8,0.4c0.2,0.2,0.2,0.2,0.4,0.4c2,1,2,1.6,4.5,2c3.3,0.6,6.1,0.2,9.1,0.2
		c1.6,0,1.4-0.6,2.9-1c1-0.2,1,0,1.6-0.4c1.4-0.6,3-0.6,4.2-1.4c0.8-0.6,1.8-1,2.6-1.6l1-0.6c0-1.2-0.2-2.2-0.6-3.3l-0.4-1.2
		c-0.4-1-0.6-1.6-2.2-1.6c-2.9,0-7.1,1.8-9.9,1c-0.4,0-0.2,0-0.4-0.2c-1.4-0.6-3.3,0-4.5-1l-2.6-1.6h-0.2l-3-3.7
		c-0.2-0.2-0.2-0.6-0.4-0.8c-0.4-0.4-0.8-0.4-1-1c-0.2-1-0.2-1.2-0.6-2l-1-1.6c-0.4-1.4-0.4-3.3-0.6-4.5c-0.4-3.4-0.6-0.4-0.6-7.3
		c0-4.9,0-10.6,1-14.8c0.2-1,0-1.6,0.4-2.6c0.2-0.8,0.4-1.4,0.6-2.6c0.2-1.2,0.2-1.6,0.6-2.6c0.2-0.6,0-0.8,0.2-1.2
		c0.2-0.4,0.4-0.4,0.6-0.6l0.4-0.2c0-1.4-0.2-1,0.4-1.8l1-1.6c0.4-0.4,0.4-0.4,0.6-0.6l0.2-0.4c1.2-1.2,2.2-1.6,3.8-2
		c1.4-0.4,2.9-0.4,4.5,0.2c0.6,0.2,0.4,0.2,1,0.2c0.8,0.4,0.4,0.4,1.2,0.8l1.2,0.8c0.2,0,0.2,0,0.2,0.2c1,0.6,1.4,1.8,2.9,1.8
		c1.8,0.2,1.8-0.8,2.4-1.8l1.2-2.4l0.4-0.6c0.4-0.6,0.2,0,0.6-1c0.4-1.4,0.8-1.4,0.8-1.6c0.4-2-1.4-2.6-2.2-3.4
		c-0.4-0.4-1.6-0.8-2.4-1l-3.8-1.2c-0.4-0.4-0.2-0.4-1.4-0.4c-2,0-6.1-0.4-7.8,0.2c-0.6,0.4,0.2,0.2-0.6,0.6l-3,0.8
		c-1.4,0.4-0.4,0.4-2.6,1.4c-0.8,0.4-0.4,0.2-0.8,0.6c-0.2,0-0.2,0.2-0.2,0.2l-3,2.4c0,0.2,0,0.2-0.2,0.4l-3.7,5l-1.2,3
		c-0.4,1.4-0.4,0.8-0.8,1.8c-0.4,0.8,0,1.4-0.6,2c-0.6,1-0.2,1-1.2,3.3l-0.4,1.6c-0.2,0.6-0.4,1.4-0.6,2s-0.2,1.2-0.4,2
		c-0.8,2.6-1,7.1-1,9.9l0.4,10.2c0.4,0.8,0.2,1.4,0.4,2.4C434.1,265.3,435.1,268.9,435.3,270.2z"/>
</g>
</svg>
