<svg version="1.1" xmlns="http://www.w3.org/2000/svg" x="0px" y="0px" width="640px" height="480px" viewBox="0 0 640 480" enable-background="new 0 0 640 480"><rect fill="#BF2E1A" width="640" height="480"/><g><g><path fill="#FFFFFF" d="M225,226.5c0,0,0.4-6.6-8.6-7h-8.6v15.4h7.3C215.2,234.8,225,234.8,225,226.5z"/><path fill="#FFFFFF" d="M219.1,244.4h-11.2v16.4h11.2c0,0,11.2,0.6,11.2-8.6C230.3,252.2,230.8,244.4,219.1,244.4z"/><path fill="#FFFFFF" d="M174,198.4v83.2h88.2v-83.2H174z M241.6,253.1c0,16.9-20.2,16.9-20.2,16.9h-24.2v-59.7h21c19,1.7,17.7,16,17.7,16c0,8.7-7.7,12.1-7.7,12.1C241.8,241.4,241.6,253.1,241.6,253.1z"/></g><g><path fill="#FFFFFF" d="M326.9,226.5c0,0,0.4-6.6-8.6-7h-8.6v15.4h7.3C317.1,234.8,326.9,234.8,326.9,226.5z"/><path fill="#FFFFFF" d="M321,244.4h-11.2v16.4H321c0,0,11.2,0.6,11.2-8.6C332.2,252.2,332.5,244.4,321,244.4z"/><path fill="#FFFFFF" d="M275.9,198.4v83.2h88.2v-83.2H275.9z M343.1,253.1C343.1,270,323,270,323,270h-24.2v-59.7H320c19,1.7,17.7,16,17.7,16c0,8.7-7.7,12.1-7.7,12.1C343.7,241.4,343.1,253.1,343.1,253.1z"/></g><path fill="#FFFFFF" d="M377.8,198.4v83.2H466v-83.2H377.8z M448.6,265.2c0,0-18.1,10.8-39.1,2.5c0,0-17.7-6.5-18.3-27.7c0,0-0.8-21.8,22.9-28.9c0,0,6.2-2.5,17.7-1.3c0,0,6.9,0.6,16.6,4.8v11c0,0-10.8-6.6-22.6-6.9c0,0-22.2-0.4-23.3,21.2c0,0-0.8,20,22.9,21.2c0,0,10,1.3,23.5-7.5L448.6,265.2L448.6,265.2z"/></g></svg>