<?xml version="1.0" encoding="utf-8"?>
<!-- Generator: Adobe Illustrator 19.2.0, SVG Export Plug-In . SVG Version: 6.00 Build 0)  -->
<svg version="1.1" id="Layer_1" xmlns="http://www.w3.org/2000/svg" xmlns:xlink="http://www.w3.org/1999/xlink" x="0px" y="0px"
	 width="640px" height="480px" viewBox="0 0 640 480" enable-background="new 0 0 640 480" xml:space="preserve">
<rect fill="#E9E8E6" width="640" height="480"/>
<g>
	<path fill="#E9E8E6" d="M185.8,275c-1-1-0.5-7.2-8-14.2c-3-2.5-5.2-2.7-6.7-3.2c-0.5-0.2,0-0.5-1-0.5h-8.5l-2.5,1
		c-0.2,0-0.2,0-0.5,0.2l-4,3c-0.7,0.5-1,0.7-1.5,1.5c-6,7.4-6,21.9-3.8,30.9l2.5,6c1.5,2.7,3,4.5,5,6.5c1.8,1.5,6,3.5,7.7,3.8
		c1.8,0,4-0.2,5.8-0.2c2.5,0.2,4.5-0.5,6.5-1.8l3.2-2.5c6-6.5,7-16.4,6.5-25.1c-0.2-1.8-0.5-1-0.5-2.2
		C185.8,277,185.8,276,185.8,275z"/>
	<path fill="#474845" d="M442,257.4c2.2,2,3.5-0.5,7.4,3.2c2.2,2,2,6,2,9.4v24.2c0,4.7,0,11.4-4,13.7c-1.3,0.7-1.5,0.2-2.7,0.5
		c-0.7,0-0.7,0.2-1.5,1l-0.5,0.2c0,2,0.2,2.2,2.2,2.2c4.5,0,14.7,0.2,18.6-0.2l0.2-2.2c-0.5-0.2-1.5-1-2-1c-1.5-0.2-1.5,0.2-3-0.5
		c-4-2.2-3.5-11.4-3.5-15.7c0-8.5-0.5-17.7,0-25.9c1,0.2,0.7,0.7,2.5,2.7c1,1,1.8,2,2.7,3l2.7,3.8c0.2,0.2,0.7,0.5,0.7,0.5l6,7.7
		c1,1,1.5,1.8,2.2,2.7l5,6c1.3,1.8,3.5,4,4.7,5.8l8.5,10.7c1.3,1.3,3.5,4.5,4.7,2.7c1-1.3-0.7-41.3,0.5-46.8
		c0.7-2.5,1.8-6.5,5.2-6.7c2.2-0.2,1.3,0,3-1v-2c-1.3-0.5-0.7-0.5-2-0.5h-17c-1.5,0-1,0-2,0.5l-0.2,2c2.7,2.5,2.5-0.7,6.2,2.7
		c0.2,0.2,0-0.2,0.5,0.2c2.5,2.7,2.5,7.7,2.5,11.9c0,7.7,0.2,16.2,0,24.2c-1-0.5-1.8-1.8-2.5-2.5l-4.2-5.2c-2.5-3-6.5-8.2-8.7-11
		c0,0,0-0.2-0.2-0.2l0,0l-3-3.5c0,0,0-0.2-0.2-0.2l0,0c-2.5-2.7-6.2-8.2-9.2-11.7l-2.2-2.7c-0.7-0.7-1.5-1.8-2.2-2.5
		c-0.7-1-1.3-2-3.2-2h-11.7C442.2,254.9,442,255.4,442,257.4z"/>
	<path fill="#474845" d="M386.7,184.4c0.5,0.2,1,0.7,1.5,0.7c1.5,0.5,3-0.5,6,2.7c2,2,2,5.8,2,9.2V221c0,3.8,0,8.2-1.3,11
		c-0.5,1-1.8,2.2-3,3c-2,1.3-2-1-4.5,1.8c0,1,0,1,0.5,2h20.2l0.2-2.2c-2.5-2-2.7-0.5-4.7-1.5c-2.7-1.8-3.2-6.5-3.5-9.4
		c-0.5-4-0.2-28.4-0.2-32.1c1.3,0.5,1,0.5,1.5,1.3c0.6,0.8,0.7,1,1.3,1.5c0.7,1,1.8,2.2,2.5,3c1.5,1.8,1.5,2.2,2.2,3l26.2,31.8
		c1,1.3,1.8,2,2.5,3c0.7,1,1.5,2.5,3,2.5l0.5-0.7c0.7-1.3,0.2-8,0.2-9.4c0-5.4-0.2-35.8,0.2-37.4c2.7-8.2,5.8-5.8,7.7-7
		c0.7-0.5,1-1,0.7-2c-0.2-1.5-2.7-1-4.2-1c-2.7,0-15.4-0.2-16.4,0.2c-0.7,0.5-0.7,1.3-0.7,2.2c3.2,2.2,2.2,0,4.7,1.3
		c4.5,2.5,4.5,8.5,4.5,13.4l-0.2,23.7c0,0.2,0,0.2,0,0.2c-0.7,0.2-0.7-0.5-2.2-2.2l-2.5-2.7c0-0.2,0-0.2,0-0.2
		c-0.2-0.2-0.2-0.2-0.5-0.7c-0.2-0.5-0.7-1-1.3-1.5c-0.2-0.5-0.7-0.7-1-1.3l-1.3-1.3l0,0l-5.7-7.4c-2-2.7-4.7-5.2-7-8.5
		c-1.8-2.2-3-3.5-4.2-5.4l-3.2-4c-0.5-0.5-0.2-0.2-0.7-0.7c-1.3-1.8-3.5-5-5.8-5h-11.9C387,181.9,386.5,182.7,386.7,184.4z"/>
	<path fill="#474845" d="M216.5,270.1v24.2c0,5.2,0,11.2-4,13.7c-2,1.3-2.2-0.2-3.8,1l-1,0.7c0,2.7,1.3,2.2,7.2,2.2h11.7
		c1.3,0,1.5,0,2-0.7c1-3.2-3-2.5-4.2-3c-5.2-2.5-4-16.4-4-22.2c0-6.5,0-13-0.2-19.4c1.5,0.2,1.3,0.7,3,2.7l23.7,28.9
		c2.5,3.5,5,6.2,7.2,9c0,0.2,0.2,0.5,0.5,0.7l1.8,2.2c0.7,0.7,3.5,4.2,4,0.7v-30.1c0-3.5-0.5-16.6,1-18.9c1-1,2-3.2,4.5-3.5
		c2-0.2,2-0.2,3.2-1.3c0-2.7-1.5-2.2-4.2-2.2h-13c-2.7,0-4.5-0.7-4.5,2.5c2.5,2,2.7,0.2,4.7,1.3c2.2,1.3,3.2,3,3.8,5.4
		c0,0.7,0.5,1.3,0.5,2.2c0.5,3,0.5,27.4,0.2,30.1c-0.7-0.2-1-0.5-1.8-1.8l-14.4-17.9c-1.3-1.5-2.2-2.7-3.2-4l-3.2-4
		c-2.7-3.2-5.2-6.7-8-9.9c-3.5-4.5-3.5-4-7.2-4c-2.5,0-4.7,0-7.2,0c-0.7,0-2.7,0-3.5,0.2c-1.5,0.2-1.3,2.5,0.2,3.2
		C210.5,259.1,216.5,256.9,216.5,270.1z"/>
	<path fill="#474845" d="M185.8,275c0,1,0,2,0.2,3c0,1.3,0.2,0.5,0.5,2.2c0.5,8.7-0.5,18.6-6.5,25.1l-3.2,2.5c-2,1.3-4,2-6.5,1.8
		c-1.8,0-4,0.2-5.8,0.2c-1.8-0.2-6-2.2-7.7-3.8c-2-2-3.5-3.8-5-6.5l-2.5-6c-2.2-9-2.2-23.4,3.8-30.9c0.5-0.7,0.7-1,1.5-1.5l4-3
		c0.2-0.2,0.2-0.2,0.5-0.2l2.5-1h8.5c1,0,0.5,0.2,1,0.5c1.5,0.5,3.8,0.7,6.7,3.2C185.4,267.8,184.9,274,185.8,275z M137.8,282.2
		c0,6.5,0,5.8,1.8,11.4c0.2,1,0.7,1.8,1,2.7c0.5,2,0.2,0.7,1.3,2.5c1.3,2.5,2.7,4,4.7,6s5.4,4.2,8.2,5.2l6,2.2
		c1.5,0.2,1.8-0.2,3.2,0.2c1.3,0.7,6,0.5,6.5,0.2c1-0.5-0.2-0.2,1.3-0.5c0.5,0,1.5,0,2,0c2.2-0.2-0.7,0,2.7-0.7
		c3-0.5,9.2-4.2,11.7-6.5c2.5-2.2,4.5-5,6-8.7c0.7-1.8,1.5-3,2-5.2c1-8,1.3-13-1.8-20.9c-2.7-7-9.7-12.5-16.6-14.7
		c-0.5-0.2,0-0.2-0.5-0.2c-1.3-0.7-1-0.2-2.2-0.5c-0.7-0.2,0-0.5-1.3-0.5c-0.5-0.2-1.3,0-1.8,0c-2-0.2,1-0.7-6-0.7
		c-2.2,0-1.5,0.5-3,0.7c-0.5,0-1.3-0.2-1.8,0l-4,1.3c-1.5,0.5-2.7,1-4,1.8c-2,1.3-3,1.5-5,3c-3.2,2.2-6,6.2-8,10.2l-1,2.2
		C138.6,275.5,137.8,279.5,137.8,282.2z"/>
	<path fill="#474845" d="M457.4,236.5c0,1,0,1.5,0.7,2c1.3,0.5,35.8,0.2,42.6,0.2c5,0,2.7-0.2,4.7-1.3c0.2-4.5,2.2-11.4,2-14.2
		l-1.8-0.7c-1.3,1-2.5,3.2-3.5,5c-1.3,1.8-2,3-3.8,4.5c-3,2.7-5,2.5-5.8,3c-1.8,0.7-0.7,0.5-3.8,0.5h-8.5c-1.8,0-2.5,0.2-3.5-0.7
		c-2-1.5-2-3.8-2-6.7c0-3.2-0.2-14.7,0.2-17h9.7c1.5,0,1.5,0.2,2.5,0.7c1.8,0.5,2.5,1.5,3,3.5c0.2,1.3,0,4.2,2,4.5
		c2.2-0.5,1.8-2,1.8-4.2v-12.2c0-1.5,0.5-6.2-2.5-5c-0.2,0.2-0.5,0.2-0.5,0.5c-1.5,1.3,0.5,4.7-3.2,8c-0.7,0.5-1,0.7-2.2,0.7h-10.5
		c-0.5-1.3-0.2-20.9,0-22.2h14.2c1,0.2,0.2,0.2,2,0.5l1.5,0.5l0,0c0.2,0,0.2,0.2,0.2,0.2c1.3,0.2,2.2,0.7,3.2,1.5
		c4.2,3.5,4.5,6.7,6.5,8c1-0.2,1.8-1,1.5-2.2l-1.5-11.2c-0.7-1.5-5.2-0.7-7.2-0.7h-33.6c-1,0-3.5-0.2-4,0.2c-1,0.7-0.2,2.7,0.5,3
		c3.5,1.3,7.4-3.2,7.4,9.4v33.6c0,3.2,0.2,5-2,6.5C461.6,236.5,460.6,234.2,457.4,236.5z"/>
	<path fill="#474845" d="M132.6,236.5c0,1.8,0,2.2,2,2.2c13.9,0.2,28.4-0.2,42.3,0c1.8,0,2.2,0,3.2-1c0.5-1,2.7-12.5,2.5-14.2
		c-0.5-0.5-1.8-0.7-2-1l-3.5,5.2c-2,3.2-1.3,2-4,4.5c-0.7,0.7-1.5,1.3-2.5,1.8c-0.7,0.2-1,0.5-1.3,0.5c-4.7,1.8-8.5,1-14.2,1
		c-2,0-2.2,0-3.5-0.7c-1.8-1.5-1.8-3.8-1.8-6.5c0-5.4-0.2-11.7,0-17l10.7-0.2c3,0.2,4.7,2.5,5.2,5.8c0,1.5,0,2,1,2.7
		c1.3,0.7,1.3,0,2.2-0.7c0.2-1.3,0.5-18.6-0.2-19.9c-0.2-0.5,0,0.5-0.5-0.7h-1.8c-0.5,1-1,1-1,1.8c-0.5,2,0.2,4.7-2.7,7
		c-1.5,1.3-3,0.7-6,0.7c-2.2,0-4.5,0-6.5,0c-0.2-2.5-0.5-20.6,0-22.2c1,0,13.2-0.2,14.2,0c1,0.2,0,0.5,1.8,0.5
		c1.8,0.2,0.7,0.2,2,0.7c0.2,0,0.5,0.2,0.7,0.2c2,0.7,3.2,2,4.7,3.8c2,2.2,3,5,4.2,5.4c1.5-0.7,1.3-1.3,1-3.2c0-2-0.7-8.7-1.3-10.2
		c-0.5-0.7-0.2-0.2-0.7-0.5c-1-0.5-39.8-0.5-43.8-0.2c-3,4.2,3.2,3.2,4,3.5c2.5,0,3.8,2.7,4,5.2c0,5.8,0,12.2,0,18.2
		c0,6,0,11.9,0,17.9c0,3.2,0.2,6-2,7.7l-1,0.7C136.6,235.9,135.6,234.5,132.6,236.5z"/>
	<path fill="#474845" d="M326.5,236.5c0,3,0.7,2.2,6.2,2.2h38.1c1.5,0,2.2,0,3.2-1c0.5-1,2.7-12.5,2.5-14.2c-0.5-0.5-1.8-0.7-2-1
		c-0.5,0.7-0.5,0.7-1,1.3c-2.2,3-4.2,8.2-9,10.2l-3,1c-1.8,1-9.2,0.5-12.5,0.5c-2,0-2.2,0-3.5-0.7c-2-1.5-1.8-3.8-1.8-6.5
		c0-5.4-0.2-11.7,0-17l10.7-0.2c1.3,0,0.7,0,1.5,0.2c0.7,0.5,0.7,0.2,1.3,0.7c1.5,1,2.2,2.5,2.2,4.7c0.2,1.5,0.2,2,1.3,2.7
		c1.3,0.7,1.3,0,2.2-0.7c0.2-4.5,0-11.4,0-16.2c0-1.3,0.2-2.7-0.2-3.8c-0.2-0.5,0,0.5-0.5-0.7h-1.8c-0.5,1-1,1-1,1.8
		c-0.5,2,0.2,4.7-2.7,7c-1.5,1.3-3,0.7-6,0.7c-2.2,0-4.5,0-6.7,0c0-2.5-0.2-20.6,0.2-22.2c1,0,13.2-0.2,14.2,0c1,0.2,0,0.5,1.8,0.5
		c1.3,0.2,1,0.5,2.7,1c0.2,0.2,0.2,0.2,0.7,0.5c5.2,2.2,6.2,8,8.2,8.7c1.3-0.7,1.3-1.3,1-3.2l-0.7-7.7c0-0.5-0.2-1-0.5-1.5
		c0-0.7,0-1.3-0.7-1.5c-1-0.5-39.8-0.5-43.8-0.2c-0.7,1-1.3,2,0,3c1.8,1.3,7.7-1.8,8,5.8c0,5.8,0,12.2,0,18.2s0,11.9,0,17.9
		c0,3,0.2,5.8-1.8,7.4C330.7,236.7,330,233.9,326.5,236.5z"/>
	<path fill="#474845" d="M278.2,257.6c2.5,2,4-0.7,6.7,1.8c1.8,1.5,1.5,4.2,1.5,7.2c0,4.5,0.2,36.6,0,38.3c-0.5,1.3-1,2-1.8,2.7
		c-1.3,0.7-1.5,0.7-3.5,0.7c-0.7,0-1.3-0.2-2,0.2l-0.7,0.2c-0.2,0.2-0.2,0.2-0.5,0.5c0,2-0.2,1.3,0.5,2.2l46.1,0.2
		c1-1.8,1-1.8,1.3-3.5c0-1.5,0.2-0.5,0.7-4c0.2-2.5,1.3-5.4,1.3-8l-1.8-0.7c-2.7,2.5-3,5.8-8.2,10.2c-1,1-1.5,1-2.2,1.3l-0.5,0.5
		c-0.7,0.2-0.7,0-1.5,0.2h-0.5c-2,0.7-0.5,0.5-3.8,0.5c-12.2,0-13.9,1.8-13.9-7.4c0-2.7-0.2-15.2,0.2-17c2.7,0,10.2-0.5,11.7,0.5
		h0.5c5,2.5,1.8,8.2,5,8.2c2.2-0.5,1.8-2.2,1.8-4.5v-13c0-1.8,0-5-2.5-4c-2.5,1,0.2,5.8-4,8.7c-1.5,1-3.2,0.7-6,0.7
		c-2.2,0-4.2,0-6.5,0v-21.7c0-0.5,0.2-0.5,1-0.7h13.2c1.3,0.5,0.2,0.5,2,0.7c0.7,0,0.2,0,1,0.2l0.5,0.2c3.2,1,5.2,3,7,5.2
		c1,1.5,2,4.5,3.5,4s0.2-5.4,0.2-6.7c-0.2-2.5,0-5.2-1.3-7.2c-4.2-0.2-28.9,0-35.4,0C279.7,254.9,277.4,253.8,278.2,257.6z"/>
	<path fill="#474845" d="M258.8,209c0,3,0.2,6.2,0.7,9s0.7,3.2,1.8,5.4l1.3,2c0.5,1.3,0.7,1.5,1.3,2.5c0.5,0.7,1,1.3,1.5,1.8
		c2.2,2.7,5,5,8,6.5l8,3c1.5,0.5,1.8,0,3.2,0.2c1.5,0.2,0.5,0.7,3,0.7h4.5c2,0,1-0.5,2.2-0.7c1-0.2,2.2,0.2,3.2-0.2
		c0.7-0.2,0-0.2,0.7-0.5l6.2-2c0.5-0.2,1.5-0.7,2.2-1.3c1.3-0.7,2.7-1.5,3.8-2.7c1.3-1.3,0.7-3,0.7-5.2s0-4.5,0-6.5
		c0.2-6,2.2-5,4.5-5.2c1.3-0.2,0.5-0.2,1-0.5c0.7-0.2,0.5,0,1.3-0.5c0.2-3.2-0.7-2.5-4.7-2.5h-13.9c-3.2,0-4.7-0.7-4.2,2.7
		c2.5,0.7,4.7,0.5,6.2,1.8c3.8,3.5,3,13.9-4,18.4c-1.3,0.7-3.2,1.5-4.7,1.5c-4.2,0-6,0.5-9.7-1c-0.7-0.5-1.3-0.5-1.8-1l-0.5-0.2
		c-2.5-1.5-4.2-3.2-6.2-5.2c-0.7-0.7-0.2-0.7-1.5-2.5c-1-1.8-1.8-4-2.2-6c-2.5-7.2-1.8-16.6,0.7-23.9c0.2-0.7,0.5-1,0.7-2
		c0.2-1,0.5-1,1-1.8l4.7-5.8c0.5-0.2,0,0,0.5-0.2l1.5-1.3c0.7-0.5,0.7-0.5,1.8-0.7c1-0.5,1.5-0.5,2.2-0.7c2-1,5.8-0.5,8-0.5
		c4.2,0,10.5,3.8,12.5,7.2c0.5,0.5,0.5,0.7,0.7,1l1.5,2.5c1.3,2,0.5,4.7,2.7,5c0.7,0,1.5,0,1.8-0.7v-0.2c0-0.2,0-1,0-1.3
		c0-3.2,0.5-13.7-0.5-15.2l-1.8-0.2c-0.7,1.3-1.3,2.2-1.8,3.2c-2.2,0.2-4-1.3-5.8-1.8c-1.5-0.5-2.5-1.3-4-1.5c-2-0.2-0.5-0.2-2-0.5
		c-0.7-0.2-1.8,0-2.7-0.2c-1-0.2,0.2-0.5-2-0.5c-6.7,0-4.7,0.2-6.7,0.5c-1.5,0.2-1.8-0.2-3,0.5l-5.2,1.8c-5.8,2.2-9.7,6.5-13,11.4
		c-1,1.5-1.8,3.5-2,5.2c-0.5,2-0.5,0.2-1,2.5C259.3,204.8,258.8,206.3,258.8,209z"/>
	<path fill="#474845" d="M397,287.7c0-3.2-0.7-2.2-4.2-2.2c-6,0-12.7-0.5-18.6,0l-0.2,2.2c0.2,0,0.2,0,0.2,0c0.2,0,0.2,0,0.2,0.2
		c2.5,1,1.5,0.5,4,0.7c0.7,0.2,2.7,1.5,3,2.2c1.5,3,1.5,7.7,0,11c0,0.5-0.5,1.3-0.7,1.8c-1.3,2.2-3.2,4.5-5.8,5.2
		c-2.2,1-2,0.7-4.7,0.7c-1.3,0-4,0.2-5.2,0c-1,0-0.7-0.2-2-0.5c-6.2-1.5-11-8.2-13-13.9c-0.2-1-0.2-1.5-0.5-2.2c0-0.2,0-0.2-0.2-0.2
		l-0.5-2c-1-3.2-0.7-8.7-0.5-12.2l1.8-8.5c1-2.5,2.7-4.7,4.2-7c1.8-2.7,4.7-4.7,8-5.4c1.3-0.2,0.5-0.5,2.2-0.5c1.5-0.2,6.5-0.5,8,0
		l5.8,2.5c1.3,0.7,2,1.3,3,2.2c0.7,0.5,2,1.8,2.7,2.7c1,2,2,3.5,2.5,5.8c0.5,1,0,1.8,1.3,2.2h2.2c0.2-1.8,0.2-16.2-0.2-17.4
		l-1.8-0.2c-0.2,0.5-0.7,1.3-1,1.8c-1.8,2.7-1.8,2-5.8,0c-0.7-0.2-0.2,0-1-0.2c-1-0.5-0.2-0.2-1-0.5c-1.3-0.5-2.5-0.5-3.8-1
		c-2-1-2.7-0.2-3.8-0.7c-2.2-1-2.5-0.5-5.8-0.5c-2.2,0-1.3,0-2.5,0.5c-0.7,0.2-1.8,0-2.7,0.2l-4.7,1.5c-4,1.3-8,4.2-10.7,7.2
		c-0.5,0.7-1,1.3-1.5,1.8c-0.5,0.7-0.7,1.3-1.3,2c-1,1.5-1.5,2-2,3.8c-0.7,1.5-1.5,3-1.8,4.5c-1,5.2-1.3,11.9,0,17l1.5,3.8
		c2,3.8,2.2,5.2,5.2,8.2c1,1,2,2,3,2.7c3,2,4,2.7,7,4c0.5,0,0,0,0.5,0.2c2.2,1,3.5,0.7,4,1c1,0.5-0.2,0.5,1.3,0.5c1,0.2,2,0,3,0.2
		c0.7,0.2,0.2,0.2,1,0.5c1.3,0.2,5,0,6.2,0c1.5-0.2,0.5-0.2,1.5-0.5c1-0.2,1.5,0,2.7-0.2c1.8,0,0.5-0.2,2.2-0.5l2-0.7l0,0
		c3.2-1,6-2.2,8.5-4.5l0.2-0.2l0.2-0.2l0.5-0.5c3-3-1.5-13.4,2.7-16.4c1-0.7,1.3-0.2,2.5-0.5c1.3-0.2,0.5,0,1.5-0.7
		c0.2,0,0.5,0,0.5,0L397,287.7z"/>
	<path fill="#474845" d="M190.1,184.4c2,1.3,1,0.7,3.8,1c5.2,0.2,4.2,7.7,4.2,11.2c0,8-0.2,17.7,0,25.4c0,2.2,0.2,2,0.7,4
		c0.2,2.2,2,5.2,3.5,6.7c0.7,1,1.5,1.8,2.5,2.2c0.7,0.5,1,0.7,1.5,1c0.5,0.2,0.5,0.5,1,0.5l4.2,2c1,0.5,1.3,0.2,2.2,0.5
		c2.5,0.7,0.7,0.5,4.5,0.5c2,0,1,0.2,2,0.5c2.5,0.7,2.5-0.5,4.7-0.5c3,0,2.5,0,5.2-0.7c0.7-0.2-0.2,0,0.7-0.2c1-0.5,1.5-0.5,3-1.5
		c3-2,4.7-3.5,6.7-7.2c5.4-10.2,1.3-35.1,3.5-41.6c0.5-1.5,1.8-2.5,3-2.7c2.2-0.5,2,0.7,4.7-1l-0.7-2.5c-0.7-0.2-14.2,0-17,0
		c-2.7,0-3.2-0.5-3,2.2c2.5,2.2,5-0.2,7.2,3.5c0,0.2,0.2,0.2,0.2,0.2c0,0.2,0,0.2,0.2,0.7l0.2,0.7c0,0.2,0,0.2,0,0.7
		c0.2,2.7,0.2,27.1-0.2,29.8c0,0.7,0,1.3-0.2,2c0,1.5,0,0.2-0.2,1.5c-1.3,3.8-1.5,8-7,10.5l-3.8,1.5c-1,0-2.2-0.2-3.2,0
		c-0.5,0.2-1.5,1.3-3.5,0.2c-2.2-1-1.3,0.5-4.2-0.7l-2.2-1c-1.3-0.7-1.8-1.3-2.5-2c-1.8-1.8-2.2-2.7-3.2-5.4L208,223
		c0-1.5-0.5-2.5-0.5-4c0-4.5-0.2-28.4,0.5-30.9c0.2-0.2,0.2-0.5,0.2-0.7c1-1.8,2.7-2,4.7-2s1.8-0.2,3-1l-0.2-2.2
		c-1.3-0.5-17.4-0.2-21.1-0.2C191.6,181.9,189.6,181,190.1,184.4z"/>
	<path fill="#474845" d="M405.9,257.6c2.2,2,4.2-0.5,6.7,1.5c1.8,1.5,1.5,4.2,1.5,7.2v34.3c0,3.5,0.5,7.7-5,7.7
		c-1.5,0-1.8-0.2-2.5,0.5l-1.1,0.8c0,1,0,1.3,0.5,2c1,0.2,21.7,0.2,24.2,0.2c1-0.2,1.5-0.5,1.5-1.5c-0.2-2.7-5.2-1.5-6.7-2.5
		c-2.5-1.8-2-6.5-2-10.2c0-4-0.2-33.8,0.2-36.3c1-3.8,4.7-3,6-3c1.5,0,1.3-0.2,2.2-1l-0.2-2.2c-2.5-0.5-16.4-0.2-20.9-0.2
		C407.4,254.9,405.1,254.1,405.9,257.6z"/>
	<path fill="#474845" d="M343.7,349.2c2.2-0.2,4,0,4.2,2.5c0,2.5-2,2.7-4.2,2.5V349.2z M339.2,348.5c0.5,1,1,0.5,2,1
		c0.2,1.5,0.2,9.4,0,11.2c-1.3,0.5-1.3,0-1.5,1l1.3,0.2c1,0,3.8,0,4.2-0.2c-0.5-1.3,0,0-1-1c-1-0.7-0.7-3-0.5-5.4c2.2,0,2,1.8,3.8,4
		l1.8,2.5c1,0.2,3,0.5,3.8,0c0-1-0.5-0.7-1.5-1.3s-3.8-4.5-3.8-5.4c0.5-0.5,3.5-1.8,2.2-4.7c-1.3-2.7-4.7-2-7.7-2
		C341.4,348.2,339.7,347.9,339.2,348.5z"/>
	<path fill="#474845" d="M307.4,360.9c-0.7-1.3-0.7-0.7-0.7-2.5v-9.2c4.5-0.7,7,1.3,7,5.4C313.8,359.1,312.1,361.1,307.4,360.9z
		 M302.3,348.2l0.7,0.7c0.7,0.7,1,0,1,1.5c0.2,0.7,0.2,9.2-0.2,10.2c-0.5,0.2-1.3,0-1.8,0.7c0.5,0.7,1.3,0.5,2.2,0.5
		c2.5-0.2,5.2,0.2,7.4-0.5c2.5-1,4.2-3,4.5-5.8C317,347,307.8,348.2,302.3,348.2z"/>
	<path fill="#474845" d="M416.6,348.2l1.8,1.3v11.2c-2.2,0.7-1.8,0.2-2,1c0.7,0.2,5.4,0.2,6.2,0c-0.5-1.3,0.2,0-2.2-1.3l0.2-5.2
		c1.3-0.2,6.5-0.2,7.2,0.2c0.2,0.5,0.2,2,0.2,2.7c0,0.7,0,1.5-0.2,2.5c-0.7,0.5-1.5,0-1.8,1c0.7,0.2,5.2,0.2,6,0
		c-0.5-1.3-0.2,0-2-1.3c-0.2-1.8,0-5,0-6.7c0-7,0.7-3,1.8-5.4H426c0.5,1.5,0.5,0.5,1.8,1.5v4.5c-1.8,0.2-6,0.5-7.2,0
		c-0.5-1.3-0.2-3.5,0-4.7c0.2,0,0.2,0,0.7-0.2l0.7-0.5c0,0,0,0,0.2,0c-0.5-0.2-0.2-0.2-0.7-0.5c-0.2,0-0.5,0-0.7,0L416.6,348.2
		L416.6,348.2z"/>
	<path fill="#E9E8E6" d="M307.4,360.9c4.7,0.2,6.5-1.8,6.2-6.2c0-4.2-2.5-6.2-7-5.4v9.2C306.6,360.2,306.6,359.7,307.4,360.9z"/>
	<path fill="#474845" d="M284.4,349.7v9.9c-0.2,1.8-1,0.2-1.5,2l4.7,0.2c-0.5-1.5-1-0.7-1.5-1.8c-0.2-0.7-0.2-7.2-0.2-8.5
		c1,0.5,1.8,1.5,2.5,2.5l5.2,6.5c0.5,0.7,0.7,1,1.8,0.7c0-2.2,0-4.5,0-6.7c0-1.3-0.2-2.5,0-3.5c0-2,0.5-1.5,1.5-2.5
		c-0.5-0.5,0-0.2-1-0.5c0,0-1,0-1.3,0c-1.3,0-1.8-0.2-2.5,0.5c0.7,0.7,1,0.2,1.5,1.3c0.7,1,0.5,6,0.2,7.2c-0.7-0.2-0.7-0.5-2-2
		l-5.4-6.7c-0.5-0.5-2.7-0.2-3.8-0.2C283.2,349.2,283.2,349,284.4,349.7z"/>
	<path fill="#474845" d="M475.4,352.4c-1.3-1.5-2.7-5.8-7-4c0.7,1,0.5,0.5,2,1.5c0.2,2,0,4.5,0,6.7c0,3,0.2,3.2-0.7,4
		c-1,0.8-0.5-0.2-1,1c1,0.2,1,0.2,2.5,0.2c1,0,1.5,0,2.2-0.2c-0.5-1.5-1-0.5-1.5-1.8c-0.2-0.7-0.2-7.2,0-8.2
		c0.5,0.2,0.7,0.5,1.3,1.3l2.7,3.5c4.5,5.4,5.2,7,5,2.7c0-1.5,0-3,0-4.2c0-8.7,1.3-4,2-6.5c-1-0.5-4.2-0.5-5,0c0.5,1.8,2-0.7,2,3.8
		c0,1.5,0.2,4,0,5.2c-0.7,0-2.7-3.2-3.8-4.2L475.4,352.4z"/>
	<path fill="#474845" d="M445.9,348.5c0.2,0.7,0.2,0.2,1,1c0,1-3.5,4.7-4.7,4.7l-0.2-4.7c0.5,0,0.5,0,1-0.2l1-0.5
		c-0.2-0.2-0.2-0.2-0.2-0.2l-5.4-0.2c0.5,1.3,0.5,0.2,1.8,1.5v11c-0.5,0.2-0.2,0-0.7,0.2c0,0-0.2,0-0.5,0.2l-0.5,0.2l0,0
		c0.2,0.5,5,0.2,5.8,0.2c-1-2-2.5,1-2-6.5c1.5,0,2.2,1.5,3,2.5c0.7,1,2,1.8,2,3.2c-1,0.2-0.7,0-1,0.7c1,0.5,5.2,0.2,6,0
		c-0.5-1.3-0.7-0.2-4-3.5c-0.7-0.7-3-3.2-3.5-4c0.2-0.7,3.8-4,4.7-4.7c1.3-0.5,1.8,0,2-1C450.2,347.9,446.7,347.9,445.9,348.5z"/>
	<path fill="#474845" d="M162,359.7c-0.5,1.3-5,4-4.5-3.5c0.2-2,4.2-1.3,4.7,1C162.5,357.9,162.2,358.9,162,359.7z M161.8,350.2
		c0.2,2.2,0,4-2.5,4.2c-1.8,0-1.8-0.2-1.8-1.8c0-1.3,0-2.2,0.2-3.5C159.8,348.7,160.5,349.2,161.8,350.2z M153.8,348.7l1,0.5
		c0.2,0,0.5,0,0.7,0.2l0.2,11c-0.7,0.2-0.5,0.2-1,0.5c-1.3,0.5-0.5-0.5-1,0.7c1.3,0.2,3.2,0,4.7,0.2c2,0,2.5,0.2,4.2-0.7
		c1.3-0.7,1.8-1.5,1.8-3.5c-0.2-2.5-1.3-2.2-2.5-3c0.5-1.5,1.8-0.7,1.8-2.7c0.5-3.5-2.7-3.8-5.4-3.8
		C156.2,348.2,154.7,347.9,153.8,348.7z"/>
	<path fill="#474845" d="M240.6,348.2c-1.8-0.2-9.4-0.2-10.7,0.2c0.5,0.5-0.2,0.2,0.7,0.7c0.2,0,1,0,1.3,0.2v11.2
		c-0.2,0-0.7,0-1,0.2c-1,0.5-0.5-0.2-0.7,0.7c1.3,0.5,4,0.2,5.4,0.2c5,0,6,0.7,5.8-3.8c-1.5,0.5-1,1.8-2.7,2.5
		c-1.3,0.5-3.2,0.5-4.5-0.2c-0.2-0.7-0.2-4.2,0-5c0.7-0.5,1.8-0.2,2.7-0.2c0.7,1,0.5,1.5,1.5,1.8c0.5-0.7,0.5-4,0-4.7
		c-2.2,0.5,1,2.2-4.2,2l0.2-5c6.2-0.2,4.5,1.8,6.2,2.2c0.2-0.5,0.2-0.2,0.2-1.5C240.9,349.4,240.9,348.7,240.6,348.2z"/>
	<path fill="#474845" d="M381.3,348.2l1.3,1.3c0.7,0.7,0.5,0.2,0.5,1.8c0,1.3-0.2,7.4,0.5,8.5c2,2.5,6.5,3,8.7,1
		c3.5-2.7,0.2-10.2,2.5-11.4c1-0.5,0.7,0.2,1-0.7c-0.7-0.5-4-0.5-4.7,0c0.2,1-0.2,0,1,1c0,0.2,0.2,0.2,0.2,0.5
		c1,0.7,0.5,7.7-0.5,9.4c-0.2,0.2,0,0.2-0.2,0.5c-0.2,0.2-1.3,0.7-2,0.7c-5,0.7-4-5.8-4-9.4c0-3.5,1.5-1,2-2.7
		C386.5,347.9,382.5,348.2,381.3,348.2z"/>
	<path fill="#474845" d="M247.4,348.7c0.5,0.2,0,0,0.5,0.2c0.5,0.5,0.2,0.2,0.5,0.5c1,0.7,4.5,5,4,6l-3.8,5c-1,0.7-1.5,0.2-2,1.3
		c0.7,0.2,4.5,0.2,5.2,0c-0.2-1-0.5-0.5-1.5-1c0-1.3,2.2-4.2,3-4.5l1.8,2.2c0.7,1,0.7,1,0.5,2.2c-0.7,0.7-0.5,0-1,1
		c1.3,0,5,0.5,5.8,0c-0.5-1.8-0.2,0.7-3-3.5c-3.2-5-3.5-3.2-0.7-7.2c0.5-0.7,0.7-1,1.3-1.3c0.5-0.2,0.2-0.2,0.7-0.5
		c0.7-0.5,0.5-0.2,1-1H255c0.5,1,0.7,0.7,1,1.3c0.5,1-1.5,3-2,3.8c-0.7-0.5-2.5-2.7-2-3.8c0.2-0.5,0.5-0.2,0.7-1.3H248
		C247.6,348.5,247.8,348.5,247.4,348.7z"/>
	<path fill="#474845" d="M322,348.7l2,0.7l-0.2,11.2c-0.2,0-0.7,0-1,0.2c-1.3,0.5-0.5-0.2-0.7,0.7c1,0.2,9.9,0.5,10.7,0
		c0.5-0.5,0.5-0.7,0.5-1.8c0.2-1.8,0-1.5-0.2-1.8c-1,0.5-0.7,1.8-2.5,2.5c-1.3,0.5-3.5,0.5-4.5-0.2c-0.2-0.7-0.2-1.8-0.2-2.5
		c0-2.5-0.2-3.2,3.2-2.7c1.3,2,0.2,1.3,1.3,1.8c0.5-0.7,0.5-4,0-4.7c-1.3,0.5-0.2,1.3-1.5,2c-0.2,0-2.5,0.7-2.7-0.7
		c-0.2-0.2-0.2-0.2-0.2-0.5l0.2-3.8c1.3-0.2,3-0.2,4.2,0.2c2,0.7,0.7,1.8,2.5,2l-0.2-2.7c-1-0.7-9.2-0.5-9.9-0.2L322,348.7z"/>
	<path fill="#474845" d="M370.1,349.2c2.5-0.7,4.5,0.2,4.2,3c0,2.7-1.8,2.7-4.2,2.7v-5.4C370.1,349.2,370.1,349.2,370.1,349.2z
		 M365.8,348.5c0.5,1.5,1.8-0.2,1.8,2.2v8.5c0,2.7-1.3,1-2,2.2c0.5,0.7,6,0.5,6.2,0.2c-0.2-1.3-3,0-1.8-5.8c2-0.5,3.2,0.2,5-1
		c1.8-1.3,3-6.7-3.2-6.7C370.6,348.2,366.8,347.9,365.8,348.5z"/>
	<path fill="#474845" d="M178.2,348.5c0.2,0.7,2.2,0.5,0.5,3.2c-0.7,1.3-1.3,2.5-2,3l-2.5-4.5c-0.2-2,0.5,0,1-2
		c-1.5,0-4.5-0.2-5.4,0.5l1.5,1c0.5,0.5,0.5,0.2,0.7,0.7c0,0.2,0.2,0.7,0.5,1c1.5,3,3,4,2.7,7.4c0,2.7-1.8,1.3-2.2,2.7
		c0.7,0.5,5.2,0.2,6,0c-0.2-0.7-0.7-0.7-1.5-1.3c-0.5-5.2,0-4.5,1.8-7.2c0.5-1,1-2,1.8-3c1-1.5,2-0.7,2.2-1.8
		C182.6,347.9,178.9,347.9,178.2,348.5z"/>
	<path fill="#474845" d="M401.4,361.4c1.5,0.5,0-0.5,2,0c0.2,0,3,1.5,5.4-0.5c2.2-2,1-5.2-1-6.2c-1.3-1-6.2-2-4.5-4.5
		c0.5-1.3,2.2-1.3,3.5-0.7c1.5,0.7,1.3,1.3,2,2.2c1-0.7,0.5-1.5,0.7-3.2c-1.3,0.2-1,0.5-2.2,0.2c-5.8-2-8.7,4-3,6.7
		c1.3,0.5,2.2,0.7,3.2,1.8c2.7,2.5-2.7,6-5,1.8c-0.7-1,0-1-1.5-1L401.4,361.4z"/>
	<path fill="#474845" d="M217,351.4c0-3.5,1.8-1.5,2.2-3c-1-0.5-5-0.2-6.2,0c0,1,0.7,0.5,2,1v11.2c-2.2,0.7-1.5,0-2,1
		c1,0.5,9.7,0,11,0c0.7-1,1-2.7,0.7-4c-0.2,0-0.2,0-0.5,0.2c-0.2,0.2,0,0-0.2,0.5l-0.5,0.5c-0.5,0.7-0.5,1-1.3,1.5
		c-1.3,0.5-3,0.7-4.7,0.2C216.7,359.1,217,353.4,217,351.4z"/>
	<path fill="#474845" d="M456.2,348.5c0.2,0.7,0.7,0.5,1.8,1c0.5,3.2,0.2,6.5,0.2,9.7c0,0.7,0.2,1-0.5,1.5s-1,0-1.3,1c1,0,5,0.5,6,0
		c-0.7-1.8-2,0.5-2-2.7v-9.4c1.3-0.5,2,0,2-1C461.6,347.9,456.4,347.9,456.2,348.5z"/>
	<path fill="#E9E8E6" d="M162,359.7c0.2-0.7,0.5-1.8,0.2-2.5c-0.5-2.2-4.5-3-4.7-1C157,363.6,161.4,360.9,162,359.7z"/>
	<path fill="#E9E8E6" d="M370.1,349.2c0,0,0,0,0,0.2v5.4c2.5,0,4.2,0,4.2-2.7C374.6,349.4,372.6,348.5,370.1,349.2z"/>
	<path fill="#E9E8E6" d="M161.8,350.2c-1.3-1-2-1.5-4-1c-0.2,1.3-0.2,2.2-0.2,3.5c0,1.5,0,1.8,1.8,1.8
		C161.8,354.2,162,352.4,161.8,350.2z"/>
	<path fill="#E9E8E6" d="M343.7,354.2c2.2,0.2,4.2,0,4.2-2.5c-0.2-2.5-2-2.7-4.2-2.5V354.2z"/>
	<path fill="#474845" d="M204.8,355.7c-0.2-1.3-2.2-6.2-2.7-7.2c-1.3,0.2-0.5-0.2-1.3,0.5c-0.5,0.7-0.5,1.8-1,2.7l-3,7.4
		c-1,2.5-2.2,1.3-2.7,2.5c0.7,0.2,4.7,0.2,5.4,0c-0.2-1-0.5-0.5-1.5-1c-0.2-1,0.2-3.2,0.7-3.8c0.7-0.7,3.2-0.5,4.2-0.2
		c0.2,0.2,0.7,1.5,0.7,1.8c0.2,0.7,0.5,1.3,0.2,2.2c-1.3,0.5-1.3,0-1.5,1c0.7,0.5,5.4,0.2,6.2,0
		C207.8,359.1,207.5,364.2,204.8,355.7z M199.9,355.2l1.5-4.2l1.3,4.2H199.9z"/>
	<path fill="#474845" d="M276.7,360.6c-1-0.7-4-11.2-5.2-12.2c-1.8,0.2-1.5,1.8-2,3.2c-0.7,1.8-3.2,8-4,8.7c-1,1-1-0.2-1.8,1.3
		l5.2,0.2c-0.5-1.3-0.7-0.7-1.8-1.5c0-1.5,1-3,1.5-4l4,0.2c2,5.4,0.2,2.9-0.5,4.8c0.5,0.2,0,0.1,0.7,0.1h4.5c0.7,0,0.2-0.1,0.7-0.1
		C277.7,360.5,277.4,361.1,276.7,360.6z M269.5,355.2l1.5-4.2l1.3,4.2H269.5z"/>
</g>
<g>
	<path fill="#CAA555" d="M333.7,119.9v22.3c0,1.6-0.4,1.1,2.7,1.2l1-0.2c0.4,0,0.4,0,0.4-0.4c0.2-1-0.2-12.9,0.2-15
		c0.2,0,0.4,0,0.6,0.2c0.4,0.2,0.2,0.2,0.5,0.6c0.4,0.6,0.7,0.7,1.1,1.1l4.8,5.5c1,1.2,1.8,2,2.8,3l3.9,4.8c0.5,0.4,1.1,0.2,1.8,0.2
		c1.1,0,0.9-0.2,0.9-1.2v-23.4l-4.2-0.2v15.3c-0.2,0.2-0.2,0.2-0.7,0.2c-0.7-1.6-1.6-2-2.8-3.4c-0.6-0.7-1.8-1.8-2.2-2.6
		c-0.2-0.4-0.5-0.5-0.9-0.9s-0.2,0-0.4-0.4l-3-3.4c-1.4-1.2-0.6-0.6-1.1-1.4l-1.2-1.2c-0.2-0.2-0.2-0.2-0.6-0.2
		c0-0.9-0.5-0.9-1.4-2.1C333.2,118.7,333.7,118.6,333.7,119.9z"/>
	<path fill="#CAA555" d="M403.4,122c1.2-0.2,2.8-0.2,3.8,0.2c0.6,0.2,2,0.5,2.3,0.9c1.1,1.1,0.7,0.2,1.2,1.6
		c0.2,0.5,0.2,0.7,0.2,1.6c0,0.6-0.2,1.8-0.6,2.3c-0.4,0.4-0.2,0.2-0.5,0.4c-1,0.9-1.1,0.6-2.2,0.9c-0.9,0.2-0.4,0.2-0.9,0.4H406
		c-1,0-2.5,0.2-2.7-0.2C403.3,129.6,403.3,122.6,403.4,122z M403.2,133.8c1.6-0.5,2.2,0,3.3,1l2.3,2.3c0.4,0.6,0.6,0.9,0.9,1.4
		l1,1.8c0.2,0.5,0.6,0.7,0.7,1.1c0.2,0.7,0.2,0.9,0.6,1.7l4.3-0.2c0.2-0.6,0,0.5,0-0.2c0.2-0.5-0.2-0.9-0.2-1.4
		c-0.2,0-0.2-0.5-0.4-0.6l-1.4-2.7c-0.9-1.2-0.5-0.2-1.1-1.4l-2.3-2.6c-0.4-0.5-0.7-0.5-0.9-1.2c0.5-0.5,0.9-0.5,1.7-0.6
		c0.2-0.9,0.2-0.5,0.9-0.7c0.7-0.4,0.2,0,0.6-0.5c0.5-0.4,0.5-0.2,1.2-1.2c0.2-0.2,0.5-1,0.6-1.1c0.2-0.6,0.9-5.6-0.5-5.8
		c0-1.4-0.2-1-0.7-1.7c-0.4-0.6-1.4-1.4-2.1-1.7c-0.4-0.2-0.4-0.2-0.9-0.4c-1-0.4-0.2-0.6-1.8-0.7c-0.9,0-1.4-0.2-2.3-0.2h-7.4
		c-0.6,0.9-0.4,3.2-0.4,4.6v14.8c0,5.6-0.5,5.8,1.6,5.8c0.6,0,2,0,2.3-0.2c0.6-0.2,0.5-1.2,0.5-2C403.2,139.7,403,134.9,403.2,133.8
		z"/>
	<path fill="#CAA555" d="M279.4,119.9v22.3c0,1.4-0.5,1.2,2.6,1.2c0.6,0,0.9,0.2,1.4-0.2l0.2-2.5c0-2.3,0-5.9,0-7.8
		c0.6-0.4,0.6-0.4,1.4-0.4c1,0,9.8-0.2,10.2,0.2c0.6,0.4,0.4,4.3,0.4,5.1c0,1.4-0.2,4.2,0,5.5c4.3,0.2,3.9,0.2,3.9-1.2v-23.4
		l-3.8-0.2c-0.2,2.5,0,6.4,0,9c-0.2,1.4-0.7,1.1-2,1.1H285c-0.9,0-1,0-1.4-0.4c-0.2-1.7,0.2-9-0.2-9.7l-2.8-0.2
		C279.1,118.7,279.4,118.5,279.4,119.9z"/>
	<path fill="#CAA555" d="M230.9,119.8v23.4c0.7,0.6,1.8,0.4,3.4,0.4h8.1c3.4,0,2.8,0.4,2.8-3.7c-0.9-0.5-1-0.4-2.2-0.4
		c-1.7,0-6.5,0.2-7.6-0.2c0-1-0.2-6.2,0.2-6.5c1.1-0.5,7,0.2,8.1-0.2c0.2-0.2,0.5-3.4-0.2-3.8c-0.7-0.5-6.5,0-8-0.2
		c-0.5-0.9-0.2-4.6-0.2-5.9c1-0.5,0.7-0.4,2.3-0.4h5.4c1.8,0,1.6,0.5,1.6-2.6c0-1.2,0.2-1.4-1.1-1.4h-11.3
		C230.9,118.6,230.9,118.5,230.9,119.8z"/>
	<path fill="#CAA555" d="M309.9,118.9v23.5c0,1.2,0,1.1,1.2,1.1h11.4c1.8,0,1.6,0.6,1.6-3.7c-0.9-0.5-6.5-0.2-8.2-0.2
		c-2,0-1.6,0.6-1.6-5.3c0-0.6,0-0.9,0.2-1.4c0.9-0.4,6.7-0.2,8.2-0.2c0.4-1.1,0.2-1.2,0.2-2.6c0-0.6,0.2-0.9-0.2-1.4
		c-0.9-0.4-6.5,0-8.1-0.2c-0.2-0.7-0.2-0.4-0.2-1.4v-4.6c1.1-0.4,1-0.2,2.5-0.2h5.4c1.8,0,1.4,0.5,1.6-3.5c-0.5-0.4-0.6-0.4-1.4-0.4
		h-11.4C310.3,118.6,310.6,118.6,309.9,118.9z"/>
	<path fill="#CAA555" d="M178.6,125.2c0,0.2,0,0.5,0.2,0.9c0.2,1,0.2,0.5,0.5,1.4c0.2,1.2-0.2,0.5,1,2c0.5,0.6,1.6,1.4,2.3,1.8
		c0.7,0.4,0.2,0.2,1,0.5c0.7,0.2,0.7,0.5,1.4,0.6c0.4,0.2,0.5,0,0.9,0.2c0.6,0.2,0,0.2,0.6,0.4c0.6,0.2,0.7,0,1.4,0.4
		c0.6,0.4,0.5,0.2,1,0.5c0,0,0,0,0.2,0.2l0,0l0.2,0.2c1.1,0.9,2.3,1.7,1.6,3.8c-0.2,0.7-0.4,0.7-0.9,1.2c-0.6,0.5-0.2,0.4-1.4,0.6
		c-0.7,0.2-0.2,0.4-1.7,0.4c-2.1,0-3.2-0.5-5-1.1l-1.8-0.6c-0.5-0.2,0.2-0.5-1-0.5v4.2c0.2,0.2,0.4,0.2,0.6,0.2c0,0,0.4,0.2,0.4,0.2
		c0.6,0.4,0.4,0.2,1.2,0.4c0.5,0,0.2,0,0.6,0.2l0.2,0.2c0.6,0.2,0,0.4,1.6,0.4c1.1,0,5.5,0.2,6.2-0.2c0.9-0.4,0-0.4,0.9-0.6
		c1.4-0.2,0.6-0.2,1.1-0.5c0,0,0.4-0.2,0.5-0.2c0.7-0.4,1.4-1.2,1.6-1.4c0.2-0.2,0.2-0.2,0.4-0.5c0.2-0.5,0-0.4,0.5-1.1
		c0.5-0.6,0.2-2.2,0.2-3c0-2.3,0.2-3.4-2-5.3l-1-0.7c-1.7-1-0.7-0.4-2-0.7c-0.5-0.2-0.2-0.2-0.6-0.4c-0.5-0.2-0.9-0.2-1.4-0.5
		c-0.9-0.5-0.7-0.2-1.4-0.4c-0.6-0.2,0.2-0.2-1.1-0.7c-0.4-0.2-1.2-0.6-1.4-1c-0.9-1.1-1.1-2.3-0.2-3.3c1.4-1.6,5.4-1.1,7.1-0.5
		c0.7,0.4,0.5,0.2,1.7,0.6c1.4,0.6,1.2-0.2,1.1-2.6v-1.4l-1.7-0.6c-1.1-0.5-5.9-0.2-7.2-0.2c-1,0-1.4,0.2-2.6,0.6
		c-0.5,0.2-1.4,1.1-1.8,1.4l-1.2,2.1C178.9,122.9,178.6,124.5,178.6,125.2z"/>
	<path fill="#CAA555" d="M259,122.6c0.4-0.2,3.2-0.2,3.8-0.2l1.4,0.6c0.7,0.4,1.1,0.4,1.7,1.4c0.5,1,0.5,1,0.4,2.6
		c0,1.8-0.9,3-2.5,3.5c-2,0.6-0.5,0.4-3.5,0.5c-0.7,0-1.2,0-1.4-0.6C258.6,129.6,258.7,122.9,259,122.6z M258.2,143.4
		c0.4-0.5,0.2-1.4,0.2-2.3v-4.9c0-1.1-0.2-1.2,0.4-1.8c1.7-0.2,6.7,0.4,8.3-1.1c0.2-0.2,0-0.2,0.4-0.2l1.2-0.9
		c0.5-0.6,0.6-0.9,1-1.4c0,0,0-0.2,0.2-0.2c0.2-0.2,0.2-0.6,0.4-1.1s0.2-0.5,0.4-1c0.2-0.7,0.2-3-0.2-3.8c-0.4-1.1-0.6-1.7-1.2-2.7
		l-2.2-1.8c-0.2-0.2-0.6-0.2-1-0.4c-1.6-1-9-0.9-11.3-0.7c-0.4,2.5,0,18.7-0.2,23.4c-0.2,0.5-0.2,0.6,0.2,0.9
		C255.1,143.6,257.9,143.5,258.2,143.4z"/>
	<path fill="#CAA555" d="M376.6,119.8v23.5c1,0.4,1.2,0.2,2.8,0.2c1.1,0,1.1,0.2,1.8-0.4v-9.7c0-0.2,0-0.2,0.2-0.2
		c0.7-0.6,7,0.4,8.3-0.4v-3.7c-1.4-0.7-6.9,0.2-8.5-0.4c-0.2-0.2,0-3.7,0-4.6c0-0.2-0.2-0.5,0-0.7c0-1.4,0.7-1,4.9-1
		c0.9,0,1.6,0,2.5,0c1.2,0,1.2,0.2,2-0.4c0-1,0.2-3-0.4-3.7l-13-0.2C376.3,118.6,376.6,119.1,376.6,119.8z"/>
	<path fill="#CAA555" d="M429.5,143.5c1.1,0.2,3.4,0.2,4.3-0.2v-7.8c0-1.4,0.6-1.8,0.9-2.5c0.9-1.4,0.7-0.6,1-1.4
		c0.2-0.2,0-0.4,0.2-0.6c0.4-0.6,0.2-0.9,1.1-2.2l1.7-3.4c0.2-0.2,0-0.2,0.2-0.6l1-1.4c0.4-0.5,0.2-0.5,0.6-1.1l1.1-2.2
		c0.2-0.5,0.7-0.5,0.6-1.1c-0.2-0.5-2-0.4-3-0.4l-1.4,0.2l-0.7,1.2c-0.2,0.2-0.4,0.5-0.4,0.7l-2.1,4.4c-0.9,1.2-0.4,0.6-0.9,1.4
		l-1.8,3.7c-0.5-0.2-0.7-0.7-1-1.4c-0.2-0.4-0.2-0.4-0.4-0.9l-0.7-1.6c-0.2-0.2-0.2-0.2-0.2-0.4l-1-2.1c-0.2-0.4-0.2-0.5-0.2-0.9
		c-0.2-0.2-0.5-0.5-0.5-0.7c-0.2-0.4-0.2-0.4-0.5-0.7c-0.2-0.5-0.2-0.2-0.4-0.9l-0.7-1.7c-0.5-0.5-2.5-0.4-3.4-0.4
		c-0.6,0-1.6-0.2-1.7,0.4c-0.2,0.4,0.2,0.2,0.4,0.7c0.2,0.4,0,0.4,0.2,0.7c0.2,0.4,0.2,0.2,0.4,0.7c0.2,0.6,0.9,1,1.4,2l2.6,5.1
		c0.2,0.4,0.2,0.5,0.2,0.9c0.2,0.4,0.2,0.2,0.5,0.7c0.2,0.5,0,0.2,0.4,0.6c0.5,0.9-0.2,0.4,0.7,1.4c0.2,0.5,0.2,0.4,0.4,0.9
		c0.2,0.2,0.2,0.4,0.4,0.6l0.6,1C430,135.4,428.9,141.8,429.5,143.5z"/>
	<path fill="#CAA555" d="M202.4,118.9v2.6c0,1.4-0.2,1.2,3.3,1.2c4.8,0,4.6-0.4,4.6,1.2v19.5c1.7,0.2,1.2,0.2,3,0.2
		c1.6,0,1.2,0.2,1.2-4.3c0-2.3-0.2-15.3,0-16.4c0.7-0.5,4.9-0.2,6-0.2c2,0,1.7,0.6,1.7-2.6c0-1.4,0.2-1.2-1.1-1.2h-17.3
		C203.2,118.7,203.2,118.7,202.4,118.9z"/>
</g>
</svg>
