<?xml version="1.0" encoding="utf-8"?>
<!-- Generator: Adobe Illustrator 19.2.0, SVG Export Plug-In . SVG Version: 6.00 Build 0)  -->
<svg version="1.1" id="Layer_1" xmlns="http://www.w3.org/2000/svg" x="0px" y="0px"
	 width="640px" height="480px" viewBox="0 0 640 480" enable-background="new 0 0 640 480">
<rect fill="#7A4420" width="640" height="480"/>
<g>
	<path fill="#CCCCCC" d="M307.3,227.7c1.4-0.4,20.9-0.2,22.9,0c1.6,0.2,2.8,1.2,3.6,2.2c0.6,0.6,1.6,3,1.6,4.2c0,2.8,0.4,3-1,5
		c-1.4,2-1.2,1.4-3,2.8c-0.4,3,3,6,3.2,8.6c-1,0.4-3,0.4-4.2,0.4c-1.6,0-2,0-2.6-1c-0.2-0.4-0.2-0.2-0.2-0.6l-2.8-6.4
		c-1.8-0.2-11.3-0.4-12.1,0.2c-0.4,0.6,0,4.4-0.2,6c0,0.6,0,1.4-0.4,1.6c-0.6,0.2-4.4,0.2-5,0c-0.6-1-0.2-9.6-0.2-11.4
		C307,236.7,306.6,229.3,307.3,227.7L307.3,227.7z M342.6,250.8c-0.4-2.6-0.4-21.7,0.2-23.5c1.4-0.2,19.4-0.2,22.3,0
		c1.6,0,3.2,0.4,4.4,1.2c2.2,1.6,1.6,1.8,2.2,3.2c0.6,1.4,0.6,2.8,0,4.4c-1.2,3-1.8,2-2.6,2.8c0.2,1,1,1,1.6,1.4
		c0.6,0.4,0.2,0,0.4,1c1.2,3.4,1.4,2.6,0.4,5.2c-0.2,0.6-0.4,1.4-1,2c-0.4,1-1,0.6-1.6,1.2c-1.6,1-2,1-4.4,1.2
		C362.2,251,344.4,251.4,342.6,250.8L342.6,250.8z M271.9,227.7c6.6-0.2,17.4-0.2,24.5,0c2.2,0,3.2-0.2,3.2,0.6c0.2,1,0.2,3-0.2,3.8
		c-1,1.2-20.5-0.4-22.1,0.4l-0.2,3.8c2,0.4,7.4,0.2,9.8,0.2c3.2,0,6.4,0,9.6,0c0.2,1,0.6,3.8-0.2,4.4c-1.2,0.6-17.3-0.4-19,0.4
		c-0.2,0.6-0.2,1.4-0.2,2.2l0.2,1.4c0.2,0.2,0,0.2,0.2,0.4c1.4,0.6,20.9-0.4,22.3,0.4c0.4,0.4,0.2,0.2,0.4,1c0,0.2,0,1,0,1.4
		c0,1,0,1.6-0.2,2.6c-2.2,0.4-27.7,0.4-28.7,0c-0.6-1.2-0.2-9.4-0.2-11.4C271.8,236.7,271.5,229.1,271.9,227.7L271.9,227.7z
		 M399.8,242.2c-5.2-0.6-10.9-0.4-15.8-1.2c-3-0.4-4.2-1.4-5.4-3c-1.6-1.8-1.2-4.8,0.2-6.4c1.6-2.2,6-4.2,8.6-4.2
		c2.6-0.2,2.6-0.4,3.4-0.6c3-0.2,6.2,1,7.4,1c2.2,0,4.8,1,6.4,1.8c0,1.2-0.2,1.4-0.6,2.2c-0.4,1-0.4,1.2-0.6,2
		c-1.6,0.2-5.2-1.8-10.9-1.8c-3.8,0-5,0-8,1.4c-1,0.4-1.2,1-1,2c1.2,1.2,5.4,1,7.8,1.2c3,0.4,9.2,0,11.4,1.4c3.4,2,4.6,6.2,2.6,9
		c-2.6,3.2-5.2,3.6-9,4.4c-1.2,0.2-1,0.4-1.8,0.4c-0.6,0-1.4,0.2-1.8,0.2c-2.8,0.2-5.4-0.2-8-0.6c-1-0.2-1.2-0.4-1.6-0.4
		c-1-0.2-1.2,0-2-0.2c-0.4-0.2-1-0.6-1.4-1c-0.4-0.2-1-0.4-1.2-0.6c0.2-1.2,0.4-1.4,1-2c1.2-2-0.2-2.8,3.6-1.2c2.2,1,5.2,1,6,1.2
		c1,0.2,1.8,0.4,3,0.4c1.2,0,1.8-0.4,3.2-0.4c1.4,0,1.8-0.2,2.8-0.6C399.2,245.1,400.6,244.6,399.8,242.2L399.8,242.2z M238.4,234.7
		l-2-3.8c-1.2-2-1.6-2.2-1.4-3.2c1-0.4,3-0.2,4.2-0.2c2.2,0,1.8,0,2.6,1.6c0.2,0.4,0.6,0.6,1,1.4c0.2,0.4,0.4,1,0.6,1.4
		c0.6,1.2,6.4,13,6.8,13.8c1,0,0.6-0.2,1.2-1.2c0.2-0.4,0.4-1,0.6-1.4c0.4-0.6,3.2-6.6,4.4-8.2c0.6-1,0.6-1.8,1.4-3
		c2.6-3.8,1.2-4.2,4.2-4.2c1.4,0,2.8,0,4.2,0c0,1-0.2,1.4-0.6,1.8c-0.4,0.6-0.4,1-0.6,1.6c-0.4,1.2-1.2,2-1.6,3.2l-3.4,6.2
		c-1,1.6-3,6-4.2,8c-0.2,0.4-0.6,1.2-1,1.4c-0.6,1-2.6,0.6-4.2,0.6c-2.8,0-3.4,0.2-4.2-1.2l-6.6-12.6c-0.4-1-0.4-1-0.6-1.8
		C238.6,234.7,238.6,235.1,238.4,234.7L238.4,234.7z M413.4,194.2c1-0.2,5-0.4,5.4,0c0.4,0.4,0.2,4.8,0.2,5.8v9.4c0,0.4,0,1,0,1.6
		c0,0.6,0,1,0.2,1.4c1,0.4,11,0.2,13,0.2s4.4,0,6.4,0c1.2,0,1,1,1,2c0,1.2,0,1.8-0.2,2.8c-3.2,0.6-8.6,0.2-12.5,0.2
		c-4.2,0-8.4,0.2-12.6,0.2c-1.2,0-1.6-0.2-1.6-1.6c0-1,0-2,0-3.2C413.3,208.4,412.9,197.4,413.4,194.2L413.4,194.2z M374.1,217.3
		c0-2,5.8-11.3,6.8-13l5.4-9.6c0.6-0.6,3-0.2,4.4-0.4c1.8-0.2,3-0.6,3.8,0.6c1.4,2.6,4.2,7.6,5.4,9.4l5.4,9.6c1,1.8,1.4,2,1.6,3.4
		h-6l-2-3.8c-1.2-1.4-3-0.6-5-0.6c-2-0.2-3.8,0-6,0c-1.8,0-4.4-0.2-6,0l-2.8,4.6C378.3,217.4,375.7,217.4,374.1,217.3L374.1,217.3z
		 M303.7,217c0-1,0.6-1.4,1.4-3.2c0.4-1.4,1.2-1.8,1.6-2.8c1.4-2.6,0.6-1.8,2.2-4.4c0.2-0.4,0.4-1,0.6-1.4c1.2-2,2.2-3.6,3.2-5.8
		c0.4-1,1.2-2.2,1.6-2.8c0.4-0.6,1.4-2.2,1.6-2.8h7.6l9.8,17.3c1.6,3.6,2.8,4.2,3,6h-5.8c-0.6-1.2-1.4-2-2-3.2
		c-1.2-1.6-1.2-1.4-3.6-1.4h-8.4c-3.4,0-4.8-0.6-6,1.4c-1,1.6-0.4,1.2-1.8,3.2C308.2,217.4,304.6,217.4,303.7,217L303.7,217z
		 M234,217.3c-0.4-3-0.2-14.9-0.2-18.9c0-1.2-0.4-3.6,0.4-4.2c0.4-0.2,3.8-0.2,4.6,0c1.4,0.2,0.6,2.8,0.6,3.8c0,1.6,0,3,0.2,4.6
		h16.5c1.2-1.6-0.4-7,0.6-8.2c0.6-0.6,4.4-0.4,5.2-0.2c0.2,1.2,0.2,21.9,0,22.7c-1.2,0.4-4.2,0.4-5.4,0c-0.6-1.4,0-6.8-0.2-9
		c-1.4-0.6-6.8-0.4-8.6-0.4c-2.6,0-6.6-0.2-8.6,0.4c0,2.8,0.4,6.6,0,9.2C238.2,217.4,235.4,217.7,234,217.3L234,217.3z M270.2,194.3
		c1.4-0.4,21.7-0.4,23.5,0c1.2,0.2,2.8,1.6,3.4,2.6c1.2,1.8,2.2,4.8,1.2,6.8c-0.6,1.8-0.2,2.8-3.8,5c-0.2,1.6,1.6,3.6,2.8,6.4
		c0.6,1.8,0.6,1,1,2h-5.8c-0.6-0.6-1.8-3-2.2-3.8c-0.4-1.6-1.4-2.6-2-3.8c-2,0-10.4-0.4-11.7,0.2c0,0.2,0,0-0.2,0.4
		c-0.2,1,0,5.4,0,7c-1,0.6-4.6,0.4-6,0.2C269.8,215.2,269.8,195.2,270.2,194.3L270.2,194.3z M204.7,217.4c-1.2,0.4-2.6,0.2-3.6,0.2
		c-2.8,0-2,0.4-2-9c0-2.6,0-12.9,0.2-14.5c5.2-0.4,11.4,0,17,0c2.8,0,5.2-0.2,7.6,1c4.6,2.2,5.2,7.8,2.8,11.3
		c-3.8,5.8-16.2,1.6-21.7,3.4C204.7,211.6,205.3,216.4,204.7,217.4L204.7,217.4z M342,215.2c0-1,0.6-1.6,1-2.6
		c1.2-3.4,0.6-1.8,3.2-1.2c0.6,0.2,1.6,0.4,2.6,0.6c3.2,1,14.2,1.8,15.7-1.8c1.8-4.8-16.5-0.6-20.2-4.8l-1.1-0.6
		c-0.4-0.2-0.4-0.2-0.6-0.6c-2.8-5.2,2.6-7.8,5.2-9.2c3.4-1.8,9.8-1.4,14.1-1.2l7.6,2c0,1.2-0.4,1.6-0.6,2.6c-0.2,1.2,0,0.6-0.2,1.4
		l-0.4,0.6c-0.2,0.2-0.2,0.2-0.2,0.4c-1.4,0-3.2-1.4-5-1.4c-2-0.2-3.4-1-5.8-0.6c-1.8,0.2-3.6,0.6-5.4,0.6c-1.8,0.2-3.8,0.4-3.6,2.6
		c1.4,1.6,5.2,1.4,7.6,1.4c5,0,6.8-0.2,11.7,1.4c3.4,1.2,4.4,5.4,2.6,8.6c-1.4,2.6-5.8,4.2-8.6,4.6c-5.2,0.6-6,0.6-11.4-0.4
		C346.8,217,343,216.6,342,215.2L342,215.2z M319.7,167.7c-2.2,0.2-5.2,4.6-6.4,6.4l-2.2,4.2l-1.4,1.8c-0.6,0.4-2,0.2-2-0.6l3.4-6.2
		c0.4-0.6,0.4-0.4,0.6-1c0.2-0.4,0.2-0.6,0.4-1c0.6-1.4,1.6-2.8,2.2-3.8c1-1.4,1.6-2.6,2.6-3.8c1-1.4,1.6-2.6,2.6-3.8
		c2.6-3.8,2-3,3.8-5.4c1-1.4,3.8-3.4,5-4.6c2-1.8,5.8-3.6,9.6-3.2c6.2,0.6,5.4,6.6,4.6,7.4c-1.2-0.4,0-1.8-2.8-3.6
		c-3.2-2-6.8-1.2-10,0.4c-1.8,1-5.8,4.4-6.6,5.8c-1.6,2.2-6.4,10-6.6,12.1c1,0,1.6-1,3.4-2c0.6-0.4,3-1.8,3.6-1.2
		c0.6,0.6-0.2,1.6-0.6,2.2c-2.2,3.6-1.8,3-3.6,6.8c-1,1.8-1.8,4.2,0.2,5c1.6,0.6,3.8-1.2,4.8-1.8l3.6-3.2c0.4-0.6,0.6-1.6,1.2-2.2
		c1-1.4,3.6-4.8,5-5.4c1.6-1,3.6-1.4,5.2-0.4c0.2,2-1,4.2-2.8,5.2c-1,0.4-1.8,0.6-2.8,1.2c-1.4,0.6-2.8,0.6-3,1
		c-0.6,1.4-1.2,4.6,0.2,5.8c1.4,1.2,4.4,0,5.4-0.6c1.4-1,2.8-2,4.2-3c2.2-1.8,2.2-3.2,3.6-3.2c0,1.4-0.6,1.6-1.4,2.6
		c-0.6,0.6-1.2,1.4-1.8,2c-0.6,0.6-1.4,1.2-2.2,1.6c-2.8,1.8-4.8,3.2-8.6,3c-2.2,0-3-1-3-2.8c0-0.4,0-1.2-0.2-1.8
		c-0.6,0.2-0.4,0.4-1.2,1.2c-1.4,1.2-5.2,3.8-7,4.2c-1.2,0.2-2.8,0-3.4-1c-0.6-1.4-0.4-2,0-3.4l2.8-6
		C319.1,169.8,319.9,169,319.7,167.7L319.7,167.7z M294.6,150.2c6.2-0.2,12.9-0.2,19.3,0c1.8,0,2.8,0,4.4-0.4c0.4,0,1.8-0.2,2-0.2
		c1.2-0.4-0.4-0.2,1.6-0.6c2.2-0.4,3-1.8,3.4-2.8c0.4-0.6,0.2,0,0.4-0.6c0.2-1-0.2-1.2,0.4-1.8c1,0,2,1.8,2,2.8c0,0.6-1.2,2.6-1.8,3
		c-2,1.4-4.6,1.6-7.6,1.8c-5.2,0.2-4.8-1-7,2.2c-1.6,2-5.8,8.6-7,11.4c-1.2,1.8-2,3.8-3.4,6c-0.6,1.2-2.8,4.6-3,6.4
		c-0.2,2.6,2.2,2.8,4.6,2.8c1,0,1.4-0.2,1.6,0.4c-1,1-5,0.4-6.4,0.4c-1.8,0-4.4-0.2-4.4-2.6c0-1.6,3.8-7.6,4.8-9.2
		c0.6-1.4,10-16.5,10-17.7c-3.6-1-11,0.2-14.1,1.6c-2.2,1-4.6,4.4-5.8,6.4c-0.4,1-0.4,2.2-1.4,2.2c-0.4-1.6,1.8-5.2,2.6-6.6
		c0.4-1.2,1.4-1.6,2-2.6C294.2,150.2,293.6,151.6,294.6,150.2L294.6,150.2z M251.7,265.8c5,0.2,10.6,0,15.7,0H377c2.6,0,5.2,0,7.8,0
		c3,0,2-1.8,3.8-3.8c1-1.2,3-2.6,4.8-3.2c2.2-0.6,4.2-1,6.8-1c10.4,0,20.6,0,31.1,0c3.4,0,16.9,0.4,19.3-0.2c1-0.2,3.8-2,4.8-3.2
		c3.6-5.4,4.8-6.2,4.8-14.6c0-6.6-0.4-11.4,2.2-17.3c0.4-1,1.4-1.8,1.6-2.2c0.4-1-0.6-1.6-1.2-2.2c-1.4-2.2-2.2-6.6-2.6-9.2
		c-0.2-4.6,0-10.6,0-15.7c0-2,0.2-5.4-0.6-7c-0.6-1.4-0.6-2.8-2.6-5.2c-4.8-6.8-8.6-6-17.7-6c-5.2,0-10.4,0.2-15.4,0.2h-39.1
		c-7,0-3.8,0.4-10.9-1c-1-0.2-1.8-1-2.6-1.4c-2.8-1.8-1.8-1-3.8-3.8c-1.8-2.6-1-11-1-14.6c0-2.2-0.2-5-0.6-7c-0.4-2.2-1.6-3.4-3-4.8
		c-1.8-2-4.4-3.6-7-4.6c-2.8-1-1.6-0.2-3-1c-1.6-1-10.6-2.6-13-2.6c-8,0-12.2,0.6-17.4-6c-0.4-0.6-1-1.6-1.6-2.2
		c-1.2-1.6-1-1.8-1.4-2.2c-1,0.2-0.6,0-1.2,1l-2,3.4c-2.2,3.4-4.6,4.6-8.4,6.2c-1.4,0.4-5.2,0.2-6.8,0.2c-1,0-7.8,0.4-8.4,1
		c-1.8,0.6-5.4,0.2-12.6,3.6c-1.6,0.6-4.8,3.6-5.8,5.2c-0.2,0.6-0.2,1-0.4,1.4c-0.6,1.4-1,1-1.4,3.8c-0.4,4.6-0.2,9.8-0.2,14.5
		c0,3.2-0.2,3.6-1.8,5.8c-0.6,0.6-1,1.4-1.8,2c-5.2,3.4-7.8,3.2-14.9,3.2c-9.8,0-19.4,0.2-29.1,0.2s-19,0-28.7-0.2
		c-1.4,0-5.4-0.4-6.8,0.4c-0.6,0.4-0.4,0.2-1.4,0.4c-0.6,0-0.6,0.2-1.2,0.6c-4.8,3.2-1.4,1.2-3.8,3.4c-1,0.6-0.6,1.4-1.4,2.2
		c-0.6,1-0.6,1.6-1.2,2.6c-1,1.2-0.6,1.2-0.6,2.8c-0.2,1.4-0.4,0.2-0.4,3.2c0,1.2,0,2.6,0,3.6v14.4c0,5.2-0.4,3.4-1,4.8
		c-0.2,0.4,0,1.2,0,1.6c-0.6,0.6-0.4,0-0.6,1.4c-0.2,0.6-0.2,1-0.4,1.4c-1.6,3.4-1.6,2,0,5.2c0.4,1,0.6,1.8,1.2,2.8
		c0.6,2.2,1.2,3.8,1.2,6.6c0,3-0.4,13,0.6,14.9c0.6,1,0.6,1.6,1.2,2.8c0.6,1.2,3.8,5.4,5.2,6.2c2.2,1.4,3,1.8,6,1.8c2.6,0,5,0,7.6,0
		c10,0,20.9-0.4,31.1,0c2.6,0,5.2,0,7.8,0c4.2-0.2,4.2,0.4,5,0.4c1.6,0.2,5.2,1.8,6.4,3C249.4,261.8,251.4,264.6,251.7,265.8
		L251.7,265.8z"/>
	<path d="M285.6,287.9l-0.2,1h-2.2c0-1.6,2.2-4.6,2.8-5.4l2.8-5.2c0.4-0.6,1.8-0.6,2.8-0.4c1,0,1.4,0.2,1.8,1c0.6,1.2,1.4,2.2,2,3.4
		l2.8,5c0.4,0.6,1,1,1,1.8c-1,0.4-1.6,0.2-2.6,0.2c-1.8-2.8-1-2-4.8-2.2c-1.2,0-2.2,0-3.4,0C286,286.9,287,287.1,285.6,287.9
		L285.6,287.9z M339.8,288.7h-2.2c-0.2-1.2-0.4-10.6,0-11c0,0,2.2-1,2.6,0.6L339.8,288.7L339.8,288.7z M333.6,289.5
		c-0.6,0.2-2,0.2-2.8-0.2c-0.4-1.2,0-2.8-0.2-4.2c-1.2-0.4-6.4-0.4-8,0c-0.6,2,1.2,4.8-2.6,4.2c-1-0.2-0.4,0-0.6-0.2
		c-0.4-0.4-0.2-6.2-0.2-7.4c0-1.6-0.6-4.6,2.6-3.8c1.8,0.4,0.2,3.2,1,3.8l0.2,0.2c1,0.2,5.8,0.4,6.8,0.2c2.2-0.4-0.2-3.6,1.6-4.4
		c2-0.6,2.6,0.4,2.6,2C334,280.9,333.8,288.7,333.6,289.5L333.6,289.5z M346.6,289.5l-2.2-0.2c-0.4-1.2-0.6-10-0.2-11.4
		c3-0.6,3.6,1,4.6,2c1.2,1.2,2.8,2.2,4.8,4.6c0.4,0.4,0.4,0.6,1.4,1c0.2-2-0.2-5.8,0.2-7c0.6-0.2,1.6-0.2,2.6-0.2
		c0.2,1.6,1,10.9-0.4,11.4c-2.2,1-3.6-1.6-5.4-3l-2.6-2c-1-0.6-1.4-1.8-2.8-2V289.5L346.6,289.5z M272.3,289.1h-3
		c-1-2.6-0.6-1.8-1.8-3.8c-1-1.4-1-3.2-2.2-3.8c0,2.6,0.6,7.6-0.6,8c-2.8,0.6-2.2-1.2-2.2-4.4l0.2-7.4c1-0.2,3-0.2,3.8,0
		c1.6,0.2,1.4,1.2,2,2.2c1,1.4,2,5.2,2.8,5.8c1-0.4,0.6-1.8,2-3.8c1-1.6,1.2-2.6,2-3.8c1.2,0,4.2-0.6,4.6,0.4c0.2,1,0.2,9.8,0,10.9
		c-0.6,0.2-1.8,0.2-2.8,0c-0.2-1.6,0.4-6.6-0.4-7.8C275.1,282.1,273.4,287.5,272.3,289.1L272.3,289.1z M314.1,284.9
		c0.4,0.2,0.2,0.2,0.6,0.4c0.2,0.2,0.4,0.2,1,0.4c0,1.6-1.4,2.2-2.8,3c-3,1.4-12.1,0.6-12.1-5.4c0-3.4,3-5.2,6.2-6
		c2.2-0.4,6,0.2,7.4,1.4c0.6,0.4,1.4,1,1.6,1.6c-0.4,0.6-1.6,1.6-2.8,1.2c-0.6-0.2-0.4-1.2-2.8-1.4c-2.6-0.4-5.4,0.2-6.2,2
		c-1.4,3.6,3.6,5.8,7,4.2C312.9,285.9,313.1,285.1,314.1,284.9L314.1,284.9z M375.5,280.5h-10.9v1.6c2,0.2,8.6-0.2,9.8,0.4
		c0.4,3.8-3,1.6-9.8,2.2c-0.2,1.6-0.2,2,1.4,2c1.8,0,9.2-0.4,9.6,0.2c0.4,0.6,0.4,1.6,0.2,2.6c-1.6,0.2-13.3,0.2-14.5,0
		c-0.2-1.4-0.4-10.4,0-11.3c0.4-0.4,11.7-0.4,13-0.2C376.7,277.7,376.1,279.7,375.5,280.5L375.5,280.5z M251.7,265.8
		c-0.4-1.2-2.2-3.8-3-4.6c-1.2-1.2-4.6-2.8-6.4-3c-1,0-1-0.6-5-0.4c-2.6,0-5.2,0-7.8,0c-10-0.4-20.6,0.2-31.1,0c-2.6,0-5,0-7.6,0
		c-3,0-3.6-0.4-6-1.8c-1.4-1-4.6-5-5.2-6.2c-0.4-1.2-0.4-1.8-1.2-2.8c-1.2-1.8-0.6-12.1-0.6-14.9c0-2.8-0.2-4.4-1.2-6.6
		c-0.2-1-0.4-1.8-1.2-2.8c-1.8-3.2-1.6-1.8,0-5.2c0.2-0.6,0.2-0.6,0.4-1.4c0.2-1.2,0-0.4,0.6-1.4c0-0.4,0-1.2,0-1.6
		c0.4-1.2,0.6,0.6,1-4.8v-14.5c0-1.2,0-2.6,0-3.6c0-3,0.2-1.8,0.4-3.2c0.2-1.6-0.2-1.8,0.6-2.8c0.6-0.6,0.6-1.6,1.2-2.6
		c0.6-1.2,0.4-1.6,1.4-2.2c2.6-2.2-1-0.2,3.8-3.4c0.4-0.2,0.6-0.4,1.2-0.6c1-0.2,0.6,0.2,1.4-0.4c1.4-1,5.4-0.4,6.8-0.4
		c9.4,0,19,0.2,28.7,0.2c9.8,0,19.4-0.2,29.1-0.2c7,0,9.6,0.2,14.9-3.2c0.6-0.4,1.2-1.2,1.8-2c1.6-2,1.8-2.6,1.8-5.8
		c0-4.6-0.2-9.8,0.2-14.5c0.4-3,0.6-2.6,1.4-3.8c0.2-0.4,0.2-0.6,0.4-1.4c1-1.6,4.2-4.6,5.8-5.2c7-3.4,10.9-3,12.6-3.6
		c0.6-0.2,7.6-1,8.4-1c1.6,0,5.4,0.2,6.8-0.2c4.2-1.4,6.2-2.8,8.4-6.2l2-3.4c0.4-1,0.2-0.6,1.2-1c0.4,0.4,0.2,0.6,1.4,2.2
		c0.4,0.6,1,1.6,1.6,2.2c5.2,6.6,9.4,6,17.4,6c2.6,0,11.4,1.6,13,2.6c1.4,0.6,0.2,0,3,1c2.8,1,5.2,2.6,7,4.6c1.4,1.4,2.6,2.6,3,4.8
		c0.4,2,0.6,5,0.6,7c0,3.6-1,12.2,1,14.6c2,3,1.4,2,3.8,3.8c0.6,0.4,1.6,1.2,2.6,1.4c6.8,1.4,3.6,1,10.9,1h39.1
		c5.2,0,10.4-0.2,15.4-0.2c8.6,0,12.9-1,17.7,6c1.8,2.6,1.8,4.2,2.6,5.2c1,1.6,0.6,5,0.6,7c0,5-0.2,11,0,15.7
		c0.2,2.8,1.2,6.8,2.6,9.2c0.4,1,1.6,1.4,1.2,2.2c-0.2,0.4-1.2,1.6-1.6,2.2c-2.8,5.4-2.2,10.6-2.2,17.3c0,8.2-1.2,9.2-4.8,14.6
		c-0.6,1.2-3.6,2.8-4.8,3.2c-2.6,0.6-15.8,0.2-19.3,0.2c-10.4,0-20.6,0-31.1,0c-2.8,0-4.4,0.2-6.8,1c-1.8,0.4-3.6,2-4.8,3.2
		c-1.8,2-1,3.8-3.8,3.8c-2.6,0-5.2,0-7.8,0H266.3C262.3,265.8,257,266,251.7,265.8L251.7,265.8z M320.7,117
		c-1.4-0.2-2.6-0.2-3.2,0.6l-1.2,2.6c-0.4,2.6-2.6,5.4-4.2,7.4c-1,1-3.4,2.6-4.6,2.8c-1.4,0.2-1.8,0.4-3.2,0.4
		c-7.4,0-13.3,0.6-20.1,2.6c-1.2,0.4-4.4,1.6-5.2,2c-0.6,0.4-0.4,0.2-1.4,0.6c-0.4,0.2-0.6,0.4-1.2,0.6c-0.4,0.4-0.6,0.4-1.2,0.6
		c-1.2,0.6-3.6,3.8-4.4,5c-3.2,5.4-2,14.1-2,20.6c0,2.8-0.4,3.8-2,5.2c-3,2.6-3.2,1.6-5,2.6c-1.4,0.6-0.2,0.4-3.2,0.4h-19
		c-14.9,0-30.1-0.2-45-0.2c-6.6,0-7-0.6-12.1,3.2c-3.2,2.2-4.6,5.4-6.2,9c-0.6,1.4-1.4,4.6-1,6.2c0.2,1-0.2,15.7-0.2,18.5
		c0,2.6,0,1.8-0.6,3c1,1.4,0,1.6-0.4,3c-1.2,3.4-1,3-3.4,4.4c-1,0.4-1,1.8-0.2,2.8c1.4,0.6,1.4,0.2,2.2,1.4c1.6,2,2.2,5,2.8,7.8
		c0.2,1.6,0,5.2,0,7c0,6.8,0,11,4.2,16.9c3,4.4,3.6,3.4,6,5.4c0.2,0.2,0.2,0.2,0.4,0.4c0.4,0.4,0.6,0.2,1.4,0.2l0.2,0.6
		c1.8,0,3.6-0.2,5.8-0.2c2,0,4.2,0,6.2,0c4.2,0,8,0.6,12.1,0.2c7.8-0.6,16.2,0,24.1-0.4c1.8,0,4.4,0,6,0.2c1.4,0.2,1,0.4,2.6,0.6
		c1,0,1.4,0.4,2,1c2.8,2,3.4,4.2,4.2,8c1,5.4,1,11.7,1,17.4c0.2,6.4,1.8,7.8,6.6,11.7c0.6,0.4,1.2,1,1.8,1.4c0.6,0.6,0,0.2,1,0.4
		l3.4,1.4c2,1,3.6,1.2,4.6,1.6c2.2,1,4.8,1.2,7.4,1.8c1.8,0.4,3.4,0.4,5,1c3.2,1,13.7,1.4,17,1.4c3.8,0.2,8-0.2,11,1.2
		c0.4,0.2,0.6,0.2,1.2,0.4l2.2,2c6.8,8,3,10.9,8,10c1-1.6,1-3.4,1.8-5c1.6-3,3.2-5.8,6.2-7.6c2-1.2,2.2-1.4,5.2-1.4
		c8.6-0.2,17-0.4,25.3-1.8c1.4-0.2,4.6-0.6,5.8-1.2c1.2-0.4,3.6-0.6,5.4-1.2c5-1.8,9.6-3.4,13.3-7c2.6-2.6,3.4-4.6,3.4-8.2
		c0-1.4,0.2-0.2,0.2-1.2c0,0-0.2-2.6-0.2-3c0-1.4,0.2-1.8,0.4-3v-5.2c0-1.2,0.2-0.6,0.2-1.6c0-0.6-0.2-1.2,0-1.8l0.6-4.4
		c0.4-1.6,1.2-3.8,2-4.8c1.8-2.2,1.6-1.8,4.2-2.6c2-0.6,3.2-1,5.8-1h13c2,0.2,4.4,0.2,6.6,0.2c9,0,17.8,0,26.7,0.2
		c7,0,8.6-3,12.5-6.2c0.6-0.4,0.2-0.2,0.4-1.2c0.2-0.4,1-1.4,1.4-2c1-1.4,0.4-1.2,1.2-1.2c0.2,0,0.2,0,0.4,0c-0.4-0.6-1-1-0.2-2
		c0.6-1,0.2-1,0.4-2c0-0.6,0.4-1.2,0.4-1.8c0-0.6-0.2-1.2,0-2c0.4-2.2-0.2-2-0.2-4.2l0.4-9.4c1.8-8.2,4.2-6,4.4-7.6
		c0.6-2.6-1-2.2-1.4-2.8c-1-0.6-1.8-2.2-2.2-3.4c-2.2-5.8-0.6-19.3-1.2-26.1c-0.2-4.4-0.4-2.8-1.2-4.8c-0.2-0.4-0.2-1-0.4-1.4
		c-1.8-3.8-5-8.2-9.4-9.8c-2.8-1-3.8-1-7-0.6c-2.6,0-5.2,0-7.8,0c-5.2,0-10.4,0.2-15.4,0.2c-10.4,0-20.6,0-31.1,0
		c-2.6,0-5.2,0-7.8,0c-4.2,0.2-9.2-0.2-12.2-3.6c-1.8-2-1.4-3.2-1.6-6.2c-0.2-10.6,2-17.3-6.8-24.3c-5.2-4.4-16.1-6.4-24.5-6.4
		c-2.6,0-5,0-7.4-0.6c-2-0.6-3.2-2-4.6-3.2C323.1,124.7,322.1,120.3,320.7,117L320.7,117z"/>
	<path fill="#CCCCCC" d="M320.7,117c1.4,3.4,2.6,7.8,5.4,10c1.4,1.2,2.6,2.6,4.6,3.2c2.2,0.6,4.8,0.4,7.4,0.6
		c8.4,0.2,19.3,2.2,24.5,6.4c8.6,7,6.4,13.8,6.8,24.3c0,3.2-0.2,4.2,1.6,6.2c2.8,3.4,8,3.6,12.2,3.6c2.6,0,5.2,0,7.8,0
		c10.4,0,20.6,0,31.1,0c5.2,0,10.4-0.2,15.4-0.2c2.6,0,5.2,0.2,7.8,0c3,0,4.4-0.2,7,0.6c4.4,1.6,7.6,6.2,9.4,9.8
		c0.2,0.4,0.2,1,0.4,1.4c0.6,2,0.6,0.4,1.2,4.8c0.4,6.8-1.2,20.5,1.2,26.1c0.4,1.2,1.4,2.8,2.2,3.4c0.6,0.4,2.2,0.2,1.4,2.8
		c-0.4,1.6-2.8-0.6-4.4,7.6l-0.4,9.4c0,2,0.6,1.8,0.2,4.2c-0.2,1,0,1.4,0,2c0,0.6-0.4,1.2-0.4,1.8c-0.2,1.2,0.2,1.2-0.4,2
		c-0.6,1-0.2,1.4,0.2,2c-0.2,0.2-0.2,0-0.4,0c-0.6,0-0.2-0.2-1.2,1.2c-0.2,0.4-1.2,1.6-1.4,2c-0.4,1,0,0.4-0.4,1.2
		c-3.6,3.4-5.2,6.4-12.5,6.2c-8.6-0.2-17.7,0-26.7-0.2c-2,0-4.6,0-6.6-0.2h-13c-2.6,0-3.6,0.2-5.8,1c-2.6,1-2.2,0.4-4.2,2.6
		c-1,1.2-1.6,3.2-2,4.8l-0.6,4.4c-0.2,0.6,0,1.2,0,1.8c0,1-0.2,0.4-0.2,1.6v5.2c0,1.2-0.4,1.6-0.4,3c0,0.4,0.2,3,0.2,3
		c-0.2,1-0.4-0.2-0.2,1.2c0,3.6-1,5.8-3.4,8.2c-3.6,3.6-8.2,5.2-13.3,7c-1.6,0.6-4.4,0.6-5.4,1.2c-1.2,0.6-4.2,1-5.8,1.2
		c-8.2,1.6-16.5,1.8-25.3,1.8c-2.8,0-3.2,0.2-5.2,1.4c-3,1.6-4.6,4.6-6.2,7.6c-1,1.6-1.2,3.4-1.8,5c-5,0.6-1.2-2-8-10l-2.2-2
		c-0.4-0.2-0.6-0.4-1.2-0.4c-3.2-1.6-7.4-1.2-11-1.2c-3.4-0.2-13.8-0.4-17-1.4c-1.8-0.4-3.4-0.4-5-1c-2.6-0.6-5-0.6-7.4-1.8
		c-1-0.4-2.6-0.6-4.6-1.6l-3.4-1.4c-1-0.2-0.2,0-1-0.4c-0.4-0.4-1.2-1-1.8-1.4c-4.6-3.8-6.4-5.2-6.6-11.7c-0.2-5.8,0-12.1-1-17.4
		c-0.6-4.2-1.6-6.2-4.2-8c-0.6-0.4-1.2-1-2-1c-1.4-0.2-1.2-0.4-2.6-0.6c-1.6-0.2-4.2-0.2-6-0.2c-8,0.4-16.5-0.2-24.1,0.4
		c-3.8,0.2-7.8-0.2-12.1-0.2c-2,0-4.2,0-6.2,0s-3.8,0.2-5.8,0.2l-0.2-0.6c-1-0.2-1,0-1.4-0.2c0,0-0.2-0.2-0.4-0.4
		c-2.2-2-3-1.2-6-5.4c-4.2-5.8-4.2-9.6-4.2-16.9c0-1.8,0.2-5.4,0-7c-0.4-2.8-1.4-5.8-2.8-7.8c-1-1.2-1-0.6-2.2-1.4
		c-0.4-1-0.4-2.2,0.2-2.8c2.6-1.4,2.2-1.2,3.4-4.4c0.4-1.4,1.2-1.6,0.4-3c0.6-1.2,0.6-0.4,0.6-3c0-2.8,0.4-17.3,0.2-18.5
		c-0.4-1.6,0.2-4.8,1-6.2c1.6-3.4,3-6.4,6.2-9c5-3.8,5.4-3.2,12.1-3.2c14.9,0,30.1,0.2,45,0.2h19c3,0,1.8,0.2,3.2-0.4
		c1.8-1,2.2,0,5-2.6c1.6-1.4,2-2.6,2-5.2c0-6.4-1.2-15.3,2-20.6c0.6-1.2,3.2-4.4,4.4-5c0.4-0.2,0.6-0.4,1.2-0.6
		c0.4-0.4,0.4-0.4,1.2-0.6c1-0.4,0.6,0,1.4-0.6c1-0.6,4.2-1.8,5.2-2c6.6-2,12.9-2.6,20.1-2.6c1.6,0,1.8-0.2,3.2-0.4
		c1.4-0.2,3.6-1.8,4.6-2.8c1.8-1.8,3.6-4.8,4.2-7.4l1.2-2.6C318.1,116.9,319.3,116.9,320.7,117L320.7,117z M315.9,330.1
		c1.6,0,3.4,0,5,0c1.8,0,3,0.2,4.4-1c1-0.6,1.6-1.6,2.6-2.8c1-1.4,1-2,1.6-3.6l1.8-3.2c3.2-4.2,7.4-3.2,12.2-3.2
		c1.8,0,3.2,0,4.8-0.2s3.2-0.2,5-0.2c7.8-0.4,19-2.8,25.7-5.4c5.2-2,8.4-5,12.1-9c1.2-1.4,3.2-4.4,3.4-7l0.2-10.4l1-9.4
		c0.6-3.6,1.2-5,4.4-6c4.2-1.2,15.4-0.2,20.2-0.2c6.8,0,13.8,0,20.6,0c5.4,0.2,13.7,1,18.1-2.2c3.2-2.2,7.6-6.8,9.4-11.3
		c1.4-3.4,1.8-4.2,2-8.4c0.2-3.8-0.2-7.6,0-10c0.4-10.9,3.6-6.8,9.6-11c1.2-0.6,1.6-1.6,1.6-3.6s-1-2.6-1.4-3.8
		c-0.4-1.2-0.4-1-1.2-1.4c-1.6-1.2-2-1-3.4-1.6c-0.4-0.2-1.4-0.4-2-0.4c-1.8-0.2-2.8-0.2-3-2.2c-0.2-1.6,0.2-3.4,0-5
		c-1.2-7.8,1.4-17.4-1.2-24.9c-0.2-0.4-0.2-0.4-0.4-1c-0.2-0.6,0-0.6-0.2-1.2c-0.4-1.2-0.4,0.2-0.6-1.8c-0.4-0.2-1.2-1-1.4-1.4
		c-1-1.8-6.2-7-8-8.4l-0.6-0.4c-0.4-0.2,0,0-0.4-0.2c-4.6-2.8-10.6-1.8-16.2-1.8c-19.7,0-39.5,0.2-59.4,0c-1.6,0-2.8-0.2-3.8-1
		c-0.4-0.2-0.4-0.4-1.2-0.6l-0.2-14.6c0-2.8,0-2.2-0.4-4.8c-0.2-1.4-1-2.6-1.4-3.6c-0.2-0.6-0.2-0.4-0.6-1.2c-1.8-2.6-4.2-5-6.4-7
		c-1.2-1-4.6-3.2-6.2-3.8c-0.6-0.2-1.2-0.2-1.8-0.6c-1-0.4-1.2-0.4-2-0.6c-3.2-1.4-9.4-2-13-2.2c-5.4-0.4-10.6,1.4-14.2-3.4
		c-0.4-0.6-0.2-0.4-1-1.6l-0.4-1.2c-0.4-0.6-0.4-1.4-1-2.6c-0.4-0.6-0.6-1-1-1.6c-0.2-0.6-0.6-1-1.2-1.4c-0.6-0.6-1.6-2-3-2
		c-1.4,0-3.4,0-5,0c-2,0-3-0.4-4.2,1c-2.6,2.8-2,2-3.4,5.4c-0.6,1.8-1.6,4.2-3.2,5.4c-0.4,0.4-1.2,0.6-1.6,1
		c-3.4,1.8-9.8,0.6-14.1,1.4c-1.6,0.2-3,0.2-4.4,0.6c-1,0.2-1.2,0.2-2,0.4c-1,0-1.4,0.4-2,0.4c-3,0.4-9.4,3.4-12.1,5.8
		c-0.4,0.4-0.2,0.4-0.4,0.6c-0.6,1-3.6,2.8-5.2,6c-3.2,6.2-2.2,10.4-2.2,17.8c0,1.8,0.6,5.4-1.2,6.6c-0.6,0.4-0.6,0.6-1.6,0.6
		c-1.4,0-1.4,0.4-4.4,0.4l-15.3,0.2c-17,0.2-33.9,0-50.8,0c-2.2,0-5.2-0.2-7,1.2l-1.4,0.6c-3.6,3-7.6,6.4-9.6,10.9
		c-3,6.2-2.6,10.4-2.6,17.8c0,3.4,0,6.6,0,10c0,6-3.2,6-6.8,8.4c-3.8,2.6-2.2,2-3.4,2.8c-0.4,0.2-0.4,0.2-0.6,0.4
		c-0.4,0.4-0.6,1.2-0.6,1.8c-0.2,1.8,1,2.6,1.8,3.4c1.6,1.8,2.2,2,4.6,3c1,0.4,2.6,1.2,3,2c0.2,0.2,0.2,0.6,0.6,1.8
		c0.4,1,0.2,1,1,1.6c0.4,0.6,0.4,1,0.6,2c0.2,3.4-0.4,11.7,0.2,14.6c0.2,1,0.2,1.2,0.4,2c0.4,2,2.2,5.8,3.6,7.6
		c0.2,0.2,0.4,0.4,0.4,0.6c1.4,1.8,3.4,3.6,5,5.2c1,1.2,2.6,1.8,3.4,2.6c0.2,0.2,0,0,0.2,0.2c0.4,0.2,0,0,0.4,0.2
		c1,0.2,0.6,0.4,1.8,0.6c4.8,1,24.9,0.4,30.3,0.4c6.4,0,13.8-0.4,20.2-0.2c1.6,0,4.8,0.2,6.4,1.2c0.4,0.2,1.6,2,1.6,3.4
		c0.2,2.6,0.6,3,0.6,6.8l0.6,14.5c0,1.6,0.6,2.8,1.4,3.8c1.2,2.2,2.8,3.6,4.6,5.4l0.4,0.4c0.2,0.2,0,0,0.2,0.2l2,1.8
		c1.2,1.2,3,2.2,4.6,3c1.2,0.6,0.6,0.4,1.8,0.6c0.6,0.2,0.2,0.2,1,0.6c1,0.2,1,0.4,1.4,0.6c0.2,0.2,0.6,0,1.2,0.2
		c1.6,0.4,4.2,1.6,5.8,1.8c1,0.2,1.2,0,2,0.4c4.4,1.8,22.7,2.8,27.5,3c4.2,0,7.6,0,9.6,3.2c1.2,1.6,1.6,3.4,2.6,5.4
		c0.2,0.6,2.8,4.2,3.2,4.4c0.4,0.2,0.6,0.2,1,0.2C315.9,329.8,314.9,329.7,315.9,330.1L315.9,330.1z"/>
	<path d="M348.4,245.5c-0.4-0.6-0.2-2.6-0.2-3.6c4.4-0.2,9.6-0.2,14.2-0.2c1.8,0,3.4-0.2,3.2,1.8c0,2.6-0.2,2-2.8,2.2
		c-1.6,0-3.4,0-5,0.2l-9-0.2C348.4,245.5,348.6,245.5,348.4,245.5L348.4,245.5z M348.4,232.7c1.8-0.2,14.6-0.6,16.5,0
		c1.6,0.6,1.6,2.8,0.6,3.8c-0.6,0.6-9.2,0.6-10.9,0.6C348.2,237.3,347.6,237.9,348.4,232.7L348.4,232.7z M342.6,250.8
		c1.6,0.2,19.7,0.2,22.3,0c2.2-0.2,2.8-0.2,4.4-1.2c0.6-0.4,1.2-0.2,1.6-1.2c0.2-0.4,0.4-1.4,1-2c1-2.6,0.6-1.8-0.4-5.2
		c-0.2-1,0-0.4-0.4-1c-0.6-0.4-1.4-0.4-1.6-1.4c0.6-0.6,1.4,0.2,2.6-2.8c0.6-1.6,1-3,0-4.4c-0.6-1.4,0-1.6-2.2-3.2
		c-1.2-0.6-2.8-1.2-4.4-1.2c-2.8,0-20.6,0-22.3,0C342,229.3,342,248.3,342.6,250.8L342.6,250.8z"/>
	<path d="M271.9,227.7c-0.6,1.4-0.2,9.2-0.2,11.4c0,2-0.4,10.6,0.2,11.4c1,0.4,26.5,0.4,28.7,0c0.2-1,0.2-1.6,0.2-2.6
		c0-0.4,0-1,0-1.4c0-0.6,0-0.6-0.4-1c-1.4-0.6-20.9,0.4-22.3-0.4c-0.2-0.2,0,0-0.2-0.4l-0.2-1.4c0-1,0-1.6,0.2-2.2
		c1.8-1,17.7,0.2,19-0.4c0.6-0.4,0.4-3.4,0.2-4.4c-3.2,0-6.4,0-9.6,0c-2.6,0-7.6,0.2-9.8-0.2l0.2-3.8c1.4-1,20.9,0.6,22.1-0.4
		c0.4-0.6,0.2-2.8,0.2-3.8c-0.2-1.2-1-0.6-3.2-0.6C289.6,227.5,278.6,227.5,271.9,227.7L271.9,227.7z"/>
	<path d="M324.6,232.5c1.8,0,3.8-0.2,4.8,1c1,1.4,0.4,3.4-0.6,4.2c-1.4,0.6-14.9,0.4-15.7,0.2c-0.2-1-0.2-4.2,0-5L324.6,232.5
		L324.6,232.5z M307.3,227.7c-0.6,1.6-0.2,9.2-0.2,11.4c0,1.8-0.2,10.6,0.2,11.4c0.6,0.2,4.4,0.2,5,0c0.4-0.2,0.4-0.6,0.4-1.6
		c0-1.6-0.4-5.4,0.2-6c1-0.6,10-0.4,12.1-0.2l2.8,6.4c0.2,0.4,0,0.4,0.2,0.6c0.4,1,1,1,2.6,1c1.4,0,3.2,0.2,4.2-0.4
		c-0.2-2.8-3.6-6-3.2-8.6c1.8-1.4,1.6-1,3-2.8c1.4-2,1-2.2,1-5c0-1.4-1.2-3.4-1.6-4.2c-1-1.2-2-2-3.6-2.2
		C328.3,227.5,308.6,227,307.3,227.7L307.3,227.7z"/>
	<path d="M275.9,199.2c2.2-0.6,8.2-0.2,11-0.2c1.6,0,3.8-0.2,5,0.6c1.2,1,1.2,2.8,0.2,3.8c-1.2,1.2-3,1-4.8,1
		c-1.4,0-10.6,0.2-11.3-0.2C275.4,203.8,275.5,200,275.9,199.2L275.9,199.2z M270.2,194.3c-0.4,1.2-0.2,20.9,0,23.3
		c1.6,0,5,0.4,6-0.2c0.2-1.6,0-6.4,0-7c0.2-0.4,0-0.2,0.2-0.4c1.4-0.4,9.6-0.2,11.7-0.2c0.6,1.4,1.4,2.2,2,3.8
		c0.2,1,1.6,3.2,2.2,3.8h5.8c0-1.2-0.2-0.2-1-2c-1-2.8-2.8-4.8-2.8-6.4c3.6-2,3.2-3.2,3.8-5c1-2,0-5.2-1.2-6.8
		c-0.6-1-2.2-2.2-3.4-2.6C291.8,193.8,271.5,193.8,270.2,194.3L270.2,194.3z"/>
	<path d="M342,215.2c1,1.4,5,1.6,6.6,2c5.4,1.4,6.2,1.4,11.4,0.4c3-0.4,7.4-2,8.6-4.6c2-3.2,1-7.6-2.6-8.6
		c-4.8-1.6-6.6-1.4-11.7-1.4c-2.2,0-6.2,0.2-7.6-1.4c-0.2-2,1.8-2.6,3.6-2.6c1.8-0.2,3.6-0.6,5.4-0.6c2.2-0.2,3.6,0.4,5.8,0.6
		c1.8,0.2,3.4,1.4,5,1.4c0.2-0.2,0.2-0.2,0.2-0.4l0.4-0.6c0.2-0.6,0-0.2,0.2-1.4c0.2-1,0.6-1.4,0.6-2.6l-7.6-2
		c-4.2-0.4-10.6-0.6-14.1,1.2c-2.8,1.6-8,4.2-5.2,9.2c0.2,0.4,0.2,0.4,0.6,0.6l1,0.6c3.6,4.4,22.1,0.2,20.2,4.8
		c-1.4,3.6-12.5,2.8-15.7,1.8c-1-0.2-1.6-0.4-2.6-0.6c-2.6-0.6-2-2.2-3.2,1.2C342.6,213.6,342,214.4,342,215.2L342,215.2z"/>
	<path d="M399.8,242.2c1,2.6-0.4,3-2.2,3.8c-1,0.4-1.4,0.6-2.8,0.6c-1.4,0-2,0.2-3.2,0.4c-1.2,0-2,0-3-0.4c-0.6-0.2-3.6-0.2-6-1.2
		c-3.8-1.4-2.6-1-3.6,1.2c-0.4,0.6-0.6,1.2-1,2c0.4,0.2,0.6,0.4,1.2,0.6c0.6,0.2,1,0.6,1.4,1c0.6,0.4,1.2,0,2,0.2
		c0.6,0.2,0.6,0.4,1.6,0.4c2.6,0.4,5.2,1,8,0.6c0.6,0,1.2-0.2,1.8-0.2c1-0.2,0.6-0.2,1.8-0.4c3.6-0.4,6.4-1,9-4.4c2-2.8,1-6.8-2.6-9
		c-2.2-1.4-8.4-1-11.4-1.4c-2.2-0.2-6.4,0-7.8-1.2c-0.2-1.2,0.2-1.8,1-2c3-1.4,4.2-1.4,8-1.4c5.4,0,9.4,2,10.9,1.8
		c0.4-1,0.2-1.2,0.6-2c0.4-0.6,0.6-1.2,0.6-2.2c-1.6-1-4.4-1.8-6.4-1.8c-1.4,0-4.4-1.2-7.4-1c-1,0-1,0.4-3.4,0.6
		c-2.8,0.2-6.8,2-8.6,4.2c-1.2,1.6-1.6,4.6-0.2,6.4c1.4,1.6,2.8,2.6,5.4,3C389,241.5,394.4,241.4,399.8,242.2L399.8,242.2z"/>
	<path d="M204.9,204.2c-0.6-6.2-0.4-5,6-5c2.6,0,9.2-0.4,10.4,0.6c1.2,1.2,1,3.2-0.4,3.8C219.4,204.8,206.5,204.4,204.9,204.2
		L204.9,204.2z M204.7,217.4c0.4-1.2,0-6,0.2-7.8c5.2-1.6,17.7,2.2,21.7-3.4c2.6-3.4,1.8-9-2.8-11.3c-2.6-1.2-4.8-1-7.6-1
		c-5.4,0-11.7-0.4-17,0c-0.4,1.6-0.2,12.1-0.2,14.5c0,9.4-0.6,9,2,9C202.2,217.4,203.5,217.7,204.7,217.4L204.7,217.4z"/>
	<path d="M234,217.3c1.2,0.4,4.2,0.2,5.4,0c0.6-2.6,0-6.4,0-9.2c1.8-0.6,6.2-0.4,8.6-0.4c1.8,0,7.4-0.4,8.6,0.4c0.4,2-0.4,7.8,0.2,9
		c1.2,0.4,4.4,0.4,5.4,0c0.2-1,0.2-21.7,0-22.7c-1-0.2-4.8-0.4-5.2,0.2c-1.4,1.2,0.4,6.4-0.6,8.2H240c-0.2-1.6-0.2-3-0.2-4.6
		c0-1.2,0.6-3.6-0.6-3.8c-0.6-0.2-3.8-0.2-4.6,0c-1,0.4-0.4,3.2-0.4,4.2C233.8,202.4,233.6,214.2,234,217.3L234,217.3z"/>
	<path d="M317.3,208c-3,0-2.8,0-0.2-4.2c0.4-0.6,0.4-0.4,1-1.2c0.6-1.2,1.2-3.2,2.2-3.6c0.4,0.4,1.8,3.2,2.8,4.4l2.2,4.2
		c0,1,0,0.2-0.2,0.4C324.6,208.4,318.5,208,317.3,208L317.3,208z M303.7,217c1,0.4,4.6,0.2,5.8,0c1.4-2.2,1-1.6,1.8-3.2
		c1.2-1.8,2.2-1.4,6-1.4h8.4c2.2,0,2.6-0.4,3.6,1.4c0.6,1,1.4,2,2,3.2h5.8c-0.2-2-1.4-2.6-3-6l-9.8-17.3h-7.6
		c-0.2,0.4-1.2,2.2-1.6,2.8c-0.4,0.6-1.2,1.8-1.6,2.8c-1.2,1.8-2.2,3.6-3.2,5.8c-0.2,0.4-0.4,1.2-0.6,1.4c-1.6,2.6-1,1.6-2.2,4.4
		c-0.4,1-1.2,1.6-1.6,2.8C304.5,215.8,303.7,216.4,303.7,217L303.7,217z"/>
	<path d="M396,207.8h-10c0-1.4,0.4-1.6,1.2-2.6c0.4-1,0-0.2,1.2-2.2c1.6-2.2,1.8-4.4,2.8-4.4c1,0,2,3.4,2.6,4.4
		C394.2,204,395.8,206.8,396,207.8L396,207.8z M374.1,217.3c1.6,0.2,4.2,0.2,5.4,0l2.8-4.6c1.6-0.2,4.2,0,6,0c2,0,3.8-0.2,6,0
		c2,0.2,3.8-0.4,5,0.6l2,3.8h6c-0.2-1.2-0.6-1.4-1.6-3.4l-5.4-9.6c-1.2-1.8-4.2-6.8-5.4-9.4c-1-1.4-2-1-3.8-0.6
		c-1.4,0.2-3.6-0.4-4.4,0.4l-5.4,9.6C380.2,206,374.1,215.2,374.1,217.3L374.1,217.3z"/>
	<path d="M235,227.7c-0.2,0.6,0.4,1,1.4,3.2l2,3.8c0.2,0.4,0.2,0,0.4,0.6c0.2,0.6,0.2,1,0.6,1.8l6.6,12.6c0.4,1.4,1.4,1.2,4.2,1.2
		c1.6,0,3.4,0.2,4.2-0.6c0.2-0.2,0.6-1.2,1-1.4c1.2-2,3-6.4,4.2-8l3.4-6.2c0.4-1.2,1.2-2,1.6-3.2c0.2-0.6,0.2-1,0.6-1.6
		c0.4-0.6,0.6-1,0.6-1.8c-1.4,0-2.8,0-4.2,0c-3,0-1.6,0.2-4.2,4.2c-0.6,1-0.6,2-1.4,3c-1.2,1.6-3.8,7.6-4.4,8.2
		c-0.4,0.4-0.4,0.6-0.6,1.4c-0.2,0.6-0.2,1-1.2,1.2c-0.6-0.6-6.2-12.5-6.8-13.8c-0.2-0.4-0.4-1-0.6-1.4c-0.2-0.4-0.6-0.6-1-1.4
		c-0.6-1.6-0.2-1.6-2.6-1.6C237.8,227.7,235.8,227.5,235,227.7L235,227.7z"/>
	<path d="M413.4,194.2c-0.4,3.2,0,14.1-0.2,18.9c0,1,0,2,0,3.2c0,1.4,0.4,1.6,1.6,1.6c4.2,0.2,8.4-0.2,12.6-0.2
		c3.4,0,9.2,0.4,12.5-0.2c0.2-1,0.2-1.6,0.2-2.8s0.2-2-1-2c-2,0-4.4,0-6.4,0c-1.8,0-12.2,0.2-13-0.2c-0.2-0.2-0.2-0.6-0.2-1.4
		c0-0.4,0-1,0-1.6V200c0-1,0.2-5.2-0.2-5.8C418.5,193.5,414.5,194.2,413.4,194.2L413.4,194.2z"/>
	<path d="M332.3,171c0-1.4,0-1.2,0.6-1.8c0.6-1.2,2-3.2,3.8-3C337.6,167.8,336,171.3,332.3,171L332.3,171z M319.7,167.7
		c0.2,1.4-0.6,2.2-1.2,3.2l-2.8,6c-0.4,1.4-0.6,2,0,3.4c0.4,1,2.2,1.2,3.4,1c1.8-0.2,5.8-2.8,7-4.2c0.6-0.4,0.4-1,1.2-1.2
		c0.4,0.4,0.2,1.2,0.2,1.8c0,1.8,0.6,2.6,3,2.8c3.8,0.2,6-1.2,8.6-3c1-0.4,1.6-1,2.2-1.6c0.6-0.6,1.2-1.2,1.8-2
		c0.6-0.6,1.6-1.2,1.4-2.6c-1.4,0.2-1.4,1.4-3.6,3.2c-1.4,1-2.8,2-4.2,3c-1.2,0.6-4.2,1.8-5.4,0.6c-1.4-1.2-1-4.2-0.2-5.8
		c0.2-0.2,1.6-0.4,3-1c1-0.4,1.8-0.6,2.8-1.2c1.8-1,3-3,2.8-5.2c-1.6-0.6-3.6-0.2-5.2,0.4c-1.4,0.6-4.2,4.2-5,5.4
		c-0.4,0.6-0.6,1.8-1.2,2.2l-3.6,3.2c-1,0.6-3.4,2.6-4.8,1.8c-2-1-1.2-3.2-0.2-5c2-3.8,1.4-3.2,3.6-6.8c0.4-0.6,1.4-1.8,0.6-2.2
		c-0.6-0.6-3,0.6-3.6,1.2c-1.8,1-2.6,1.8-3.4,2c0.4-1.8,5-9.6,6.6-12.1c1-1.4,4.8-4.8,6.6-5.8c3.2-1.6,6.8-2.6,10-0.4
		c2.8,1.8,1.6,3.2,2.8,3.6c1-0.6,1.6-6.4-4.6-7.4c-3.8-0.4-7.6,1.4-9.6,3.2c-1.2,1.2-4.2,3.2-5,4.6c-1.8,2.6-1.6,1.8-3.8,5.4
		c-1,1.4-1.6,2.6-2.6,3.8c-1,1.4-1.6,2.6-2.6,3.8c-0.6,1.2-1.8,2.6-2.2,3.8c-0.2,0.2-0.2,0.6-0.4,1c-0.2,0.4-0.2,0.4-0.6,1l-3.4,6.2
		c0,1,1.4,1.4,2,0.6l1.4-1.8l2.2-4.2C314.5,172.2,317.5,167.7,319.7,167.7L319.7,167.7z"/>
	<path d="M294.6,150.2c-1.4,1.4-0.4,0-2.6,2c-1,1-1.6,1.4-2,2.6c-0.6,1.4-3,5-2.6,6.6c1,0,1-1.4,1.4-2.2c1.2-2,3.6-5.2,5.8-6.4
		c3-1.4,10.4-2.6,14.1-1.6c-0.2,1.2-9.4,16.2-10,17.7c-1,1.4-4.8,7.4-4.8,9.2c0,2,2.2,2.2,4.4,2.6c1.6,0,5.4,0.4,6.4-0.4
		c-0.4-0.6-0.6-0.4-1.6-0.4c-2.2,0-4.6,0-4.6-2.8c0-1.8,2-5.2,3-6.4c1.2-1.8,2.2-4.2,3.4-6c1.6-2.6,5.4-9.2,7-11.4
		c2.2-3,1.8-1.8,7-2.2c3-0.2,5.2-0.4,7.6-1.8c0.6-0.4,1.8-2,1.8-3c0-1-1.2-2.8-2-2.8c-0.6,1-0.2,1-0.4,1.8c-0.2,1,0,0.2-0.4,0.6
		c-0.4,1-1.2,2.2-3.4,2.8c-2,0.4-0.4,0.2-1.6,0.6c-0.2,0-1.6,0.2-2,0.2c-1.6,0.2-2.6,0.4-4.4,0.4C307.7,150,301.3,150,294.6,150.2
		L294.6,150.2z"/>
	<path fill="#CCCCCC" d="M272.3,289.1c1.2-1.6,3-7,3.8-7.8c0.6,1,0,6,0.4,7.8c1,0.2,2,0.2,2.8,0c0.2-1,0.4-9.8,0-10.9
		c-0.4-1.2-3.4-0.6-4.6-0.4c-1,1.2-1.2,2.2-2,3.8c-1.2,2-1.2,3.6-2,3.8c-0.6-0.4-1.8-4.2-2.8-5.8c-0.6-1.2-0.4-2-2-2.2
		c-1.2-0.2-3-0.2-3.8,0l-0.2,7.4c0,3.2-0.4,5,2.2,4.4c1.6-0.4,1-5.4,0.6-8c1.4,0.6,1.4,2.6,2.2,3.8c1.2,2.2,1,1.6,1.8,3.8
		L272.3,289.1L272.3,289.1z"/>
	<path fill="#CCCCCC" d="M375.5,280.5c0.2-0.4,1.2-2.6-0.6-2.8c-1.4-0.2-12.5-0.2-13,0.2c-0.4,1-0.4,9.8,0,11.3
		c1.2,0.4,12.6,0.2,14.5,0c0-1,0-1.8-0.2-2.6c-0.6-0.6-7.8-0.2-9.6-0.2c-1.6,0-1.6-0.4-1.4-2c6.8-0.6,10.4,1.6,9.8-2.2
		c-1.2-0.6-7.8-0.2-9.8-0.4v-1.6L375.5,280.5L375.5,280.5z"/>
	<path fill="#CCCCCC" d="M333.6,289.5c0.2-0.6,0.2-8.2,0.2-9.6c0-1.8-0.4-2.8-2.6-2c-1.8,0.4,0.6,3.8-1.6,4.4c-1,0.2-5.8,0-6.8-0.2
		l-0.2-0.2c-0.6-1,1-3.6-1-3.8c-3.4-0.6-2.8,2.2-2.6,3.8c0,1.2,0,6.8,0.2,7.4c0.2,0.2-0.2,0.2,0.6,0.2c3.6,0.6,1.8-2,2.6-4.2
		c1.4-0.2,6.6-0.4,8,0c0.4,1.4-0.2,3,0.2,4.2C331.5,289.5,332.7,289.5,333.6,289.5L333.6,289.5z"/>
	<path fill="#CCCCCC" d="M346.8,281.9c1.4,0.2,1.8,1.4,2.8,2l2.6,2c1.8,1.6,3.2,4.2,5.4,3c1.4-0.6,0.6-9.8,0.4-11.4
		c-1,0-1.8,0-2.6,0.2c-0.4,1.4,0,5.2-0.2,7c-1,0-1-0.4-1.4-1c-2.2-2.2-3.6-3.4-4.8-4.6c-1.2-1.2-1.6-2.8-4.6-2
		c-0.4,1.4-0.4,10.4,0.2,11.4l2.2,0.2V281.9L346.8,281.9z"/>
	<path fill="#CCCCCC" d="M275.9,199.2c-0.2,1-0.4,4.6,0.2,5c0.4,0.4,9.6,0.2,11.3,0.2c1.8,0,3.6,0.2,4.8-1c1.2-1.2,1-3-0.2-3.8
		c-1.2-1-3.4-0.6-5-0.6C284.2,199,278.2,198.6,275.9,199.2L275.9,199.2z"/>
	<path fill="#CCCCCC" d="M204.9,204.2c1.6,0.2,14.5,0.6,16.1-0.4c1.2-1,1.6-2.8,0.4-3.8c-1.4-1.4-8-0.6-10.4-0.6
		C204.7,199.2,204.5,198,204.9,204.2L204.9,204.2z"/>
	<path fill="#CCCCCC" d="M312.9,232.5c-0.2,1-0.2,4.4,0,5c0.6,0.2,14.2,0.4,15.7-0.2c1.2-0.6,1.8-2.8,0.6-4.2c-1-1.2-3-1-4.8-1
		L312.9,232.5L312.9,232.5z"/>
	<path fill="#CCCCCC" d="M314.1,284.9c-1.2,0.2-1.2,1.2-2.6,1.6c-3.4,1.6-8.4-0.4-7-4.2c0.6-1.8,3.6-2.6,6.2-2
		c2.2,0.4,2.2,1.2,2.8,1.4c1.2,0.4,2.2-0.4,2.8-1.2c-0.4-0.6-1.2-1.2-1.6-1.6c-1.4-1.2-5-1.8-7.4-1.4c-3.2,0.4-6.2,2.6-6.2,6
		c-0.2,6.2,9,6.8,12.1,5.4c1.4-0.6,2.8-1.4,2.8-3c-0.4-0.2-0.6-0.2-1-0.4C314.5,285.1,314.7,285.1,314.1,284.9L314.1,284.9z"/>
	<path fill="#CCCCCC" d="M348.4,232.7c-0.6,5.2-0.2,4.6,6.2,4.6c1.6,0,10,0.2,10.9-0.6c1.2-1.2,1-3.2-0.6-3.8
		C362.9,231.9,350,232.3,348.4,232.7L348.4,232.7z"/>
	<path fill="#CCCCCC" d="M288.2,284.7c-0.2-1.4,1.2-2.8,1.6-3.8c0.4-0.6,0.2-0.6,1-0.6c0.2,0.2,1,1.8,1.4,2.2c0.4,0.6,1.2,1.6,1.2,2
		C292.4,284.9,289.4,284.7,288.2,284.7L288.2,284.7z M285.6,287.9c1.4-0.6,0.4-1,2.6-1c1.2,0,2.2,0,3.4,0c3.8,0,3-0.4,4.8,2.2
		c1,0,1.6,0.2,2.6-0.2c0-1-0.4-1.2-1-1.8l-2.8-5c-0.6-1.2-1.4-2.2-2-3.4c-0.4-0.6-1-1-1.8-1c-1,0-2-0.2-2.8,0.4l-2.8,5.2
		c-0.4,1-2.8,3.8-2.8,5.4h2.2L285.6,287.9L285.6,287.9z"/>
	<path fill="#CCCCCC" d="M348.4,245.5c0.2,0.2,0,0,0.4,0.2l9,0.2c1.6,0,3.4,0,5-0.2c2.2,0,2.6,0.4,2.8-2.2c0-2-1.4-1.8-3.2-1.8
		c-4.6,0-9.8,0-14.2,0.2C348.2,243,348,244.6,348.4,245.5L348.4,245.5z"/>
	<path fill="#CCCCCC" d="M317.3,208c1.4,0,7,0.2,8-0.2c0.2-0.2,0.2,0.4,0.2-0.4l-2.2-4.2c-0.6-1.2-2.2-3.8-2.8-4.4
		c-1.2,0.4-1.6,2.6-2.2,3.6c-0.4,1-0.6,0.6-1,1.2C314.5,208,314.3,208,317.3,208L317.3,208z"/>
	<path fill="#CCCCCC" d="M396,207.8c-0.2-1.2-1.8-3.8-2.6-4.8c-0.6-1-1.6-4.4-2.6-4.4c-1,0-1.2,1.8-2.8,4.4c-1.4,2-0.6,1.4-1.2,2.2
		c-0.4,1-1.2,1.2-1.2,2.6L396,207.8L396,207.8z"/>
	<path fill="#CCCCCC" d="M340.2,278.6c-0.2-1.6-2.6-0.6-2.6-0.6c-0.4,0.4-0.2,9.8,0,11h2.2L340.2,278.6L340.2,278.6z"/>
	<path d="M288.2,284.7c1.2,0,4.2,0.2,4.8-0.2c0-0.6-0.6-1.4-1.2-2c-0.2-0.4-1-2-1.4-2.2c-0.6,0.2-0.4,0-1,0.6
		C289.4,281.9,288,283.1,288.2,284.7L288.2,284.7z"/>
	<path fill="#CCCCCC" d="M332.3,171c3.6,0.2,5.2-3.2,4.4-4.8c-1.8-0.4-3,1.8-3.8,3C332.6,169.8,332.3,169.7,332.3,171L332.3,171z"/>
	<rect x="250.9" y="337.3" fill="#CCCCCC" width="137.1" height="30.7"/>
	<g>
		<path d="M290.2,349.4c1.4-0.2,1.6,0.2,1.6,1.4c0,1.2,0,5.2,0,6.2c-0.2,1.6-1,1.4-1.6,1.4v0.4h4.4v-0.5c-0.4,0-0.6,0-1,0
			c-1-0.2-1-1.8-1-2.8c0-0.6,0-4.2,0-4.6c0.6,1,3.6,7.6,3.6,7.8h0.6c0.2-0.4,0.6-1.6,1-2l1.8-3.8c0.2-0.6,0.6-1.4,1-2
			c0,0.6,0,3.6,0,4.6c0,0.6,0,1.6-0.2,2c-0.2,1-0.6,1-1.6,0.6v0.4h5.8v-0.4c-1.4,0-1.6,0-1.8-1.2c0-0.6,0-5.8,0-6.4
			c0-1.4,0.4-1.6,1.8-1.4v-0.4h-3.6l-1.6,3.6c-0.2,0.6-0.4,1.2-1,1.8c-0.2,0.6-0.6,1.4-1,1.8l-2.8-5.4c-0.2-0.2-0.6-1.6-1-1.8H290
			L290.2,349.4L290.2,349.4z"/>
		<path d="M277,359l0.4-3.2h-1c-0.2,1.2-1,2.6-1.8,3c-2.8,2-7.8,0.6-8.2-4.8c-0.2-2.6,1.2-5.2,3.6-6.2c2.6-1,5.8,1,6,3.4l1-0.2
			l-0.6-3.4c-0.2-0.2-1.6-0.6-1.8-0.6c-2.2-0.6-4.8-0.6-6.8,0.2c-2.2,1-4.2,3.4-3.8,6.8c0.4,6.2,6.6,7.8,11.4,6
			C275.5,360,276.7,359.4,277,359L277,359z"/>
		<path d="M321.5,349.5c1.6-0.6,3.2,0.2,3.2,1.8c0,1-0.2,1.6-1,1.8c-0.4,0.2-1.6,0.6-2.2,0.2L321.5,349.5L321.5,349.5z M317.5,349
			v0.4c1.2-0.2,1.8,0,2,1.2c0,0.6,0,6,0,6.6c-0.2,1.2-1,1.4-2.2,1.2v0.4h6.4v-0.4c-0.4,0-1,0.2-1.4,0s-0.4-0.4-0.6-1
			c-0.2-1,0-2.2,0-3.2c1.2,0,1.6,0.4,1.8,1.2c0.4,0.6,0.6,1.4,1.2,2c1,1.6,1.4,1.6,3,1.6c0.4,0,1,0,1.6,0v-0.4c-1,0-1.2,0-1.6-0.6
			c-0.4-0.4-0.6-1-1-1.4c-1.6-2.8-1.6-1.8-2-2.6c1.4-0.2,2-0.6,2.6-1.8c0.4-1.4-0.2-2.6-1.2-2.8c-1.2-0.4-2.6-0.4-3.8-0.2
			C320.3,349,318.9,349,317.5,349L317.5,349z"/>
		<path d="M341.8,349.9c0-0.2,0.2-0.2,0.4-0.2c0.2,0,0.2,0,0.4,0c1.2-0.2,2,0,3,0.6c2,1.4,1.8,7.6-1.8,8.2c-0.4,0-1.6,0-2-0.2V349.9
			L341.8,349.9z M337.4,349v0.4c1.4,0,1.8-0.2,2,1.4c0,1,0,6,0,6.6c-0.2,1.4-1,1.2-2.2,1.2v0.4c1.4,0,2.8,0,4.2,0
			c1.6,0,2.6,0,3.8-0.2c2-0.6,3.6-2.2,3.6-4.8c0.2-3-1.2-4.6-3.4-5c-1.2-0.2-2.8-0.2-4.2-0.2C340.2,349,338.8,349,337.4,349
			L337.4,349z"/>
		<path d="M310.1,353.9c1.8-0.2,3.6,0.2,3.4,2.2c0,1-0.4,1.6-1,1.8c-0.6,0.4-1.4,0.4-2.6,0.2V354L310.1,353.9L310.1,353.9z
			 M310.1,349.5c0.6-0.2,1.4-0.4,2.2,0c0.4,0.2,1,1,1,1.6c0,1.4-1.6,2.6-3.2,2L310.1,349.5L310.1,349.5z M306.1,349v0.4
			c1,0,1.8-0.4,2,1.2c0,1,0,5.8,0,6.6c-0.2,1.4-1,1.2-2,1.2v0.4c1.6,0,3,0,4.6,0c1.4,0,2.8,0,3.8-0.6c1.2-0.6,1.6-1.8,1.4-3.2
			c-0.2-1.2-1.4-1.6-2.8-1.8c0.2,0,0.4-0.2,0.6-0.2s0.4-0.2,0.6-0.4c1.4-1,1.4-3.2-0.2-3.8c-1.2-0.4-2.6-0.2-3.8-0.2
			C308.9,349,307.3,349,306.1,349L306.1,349z"/>
		<path d="M361,358.6v-2.8c0-1.2,0.2-1.4,1.6-1.4v-0.6h-5v0.6c1.2,0,1.4,0,1.4,1.2c0,1,0,1.8,0,2.8c-1.8,0.6-3.6,0-4.6-1.2
			c-2-2.2-1.6-7.6,2.2-7.8c3-0.2,3.4,2,3.6,2.6c0.2,0,0.4,0,0.6-0.2c0-0.6-0.2-1.6-0.4-2.2c0-0.4,0-0.2-1.2-0.4
			c-1.4-0.2-2.6-0.4-3.8-0.2c-4.4,0.6-5.4,5-4.2,7.8c1.2,2.2,3.4,3,6,2.8c0.6,0,1.2-0.2,1.8-0.2c0.2,0,0.6-0.2,1-0.2
			C360.5,358.6,361,358.6,361,358.6L361,358.6z"/>
		<path d="M363.4,349.4c1,0,1.8-0.4,2,1.2c0,1,0,5.8,0,6.6c-0.2,1.4-1,1.4-2.2,1.2v0.4h9.2l1-2.8l-0.6-0.2c-0.4,1-0.6,1.6-1.6,1.8
			c-0.6,0.2-2.8,0.2-3.4,0.2v-4.2c0.6,0,1.6,0,2.2,0c1,0,1,0.4,1,1.4h0.6v-3H371c0.2,1,0,1.2-0.6,1.4c-0.4,0-1.6,0-2.2,0V350
			c0.2,0,0,0,0,0c0.6-0.2,2-0.2,2.8,0c1.2,0.2,1.4,0.6,1.6,1.6c0.2,0,0.4,0,0.6,0l-0.4-2L363.4,349.4L363.4,349.4L363.4,349.4z"/>
		<path d="M283,351.8c0.2,0,0.2,0.2,0.2,0.4l0.4,1.4c0.2,0.4,0.4,1.2,0.6,1.8h-2.8L283,351.8L283,351.8z M277.8,358.6v0.4h4.4v-0.4
			c-2,0.2-1.6-0.6-1.2-1.8c0-0.2,0.2-1,0.4-1h3.4c0,0.2,0.6,1.6,0.6,1.8c0.2,1-0.4,1-1.4,1v0.4h5.8v-0.4c-1.2,0-1.6,0-2.2-1.6
			c-0.6-1.6-1.6-3.8-2.2-5.8l-1.2-3h-0.4c-0.2,0.2-0.4,1.2-0.6,1.4c-0.2,0.4-0.4,1-0.6,1.4c-0.4,1.2-2.6,6.2-3,6.8
			C278.7,358.6,278.3,358.6,277.8,358.6L277.8,358.6z"/>
		<path d="M329.9,349.4c0.4,0,1.2-0.2,1.6,0s0.4,0.6,0.4,1.2c0,1,0,5.8,0,6.6c-0.2,1.4-1,1.2-2.2,1.2v0.4h6.6v-0.4
			c-1.2,0-2,0.2-2.2-1.2c0-1,0-6,0-6.6c0.2-1.4,1-1.4,2-1.2V349h-6.6L329.9,349.4L329.9,349.4z"/>
	</g>
</g>
</svg>
