<?xml version="1.0" encoding="utf-8"?>
<!-- Generator: Adobe Illustrator 19.2.0, SVG Export Plug-In . SVG Version: 6.00 Build 0)  -->
<svg version="1.1" id="Layer_1" xmlns="http://www.w3.org/2000/svg" x="0px" y="0px"
	 width="640px" height="480px" viewBox="0 0 640 480" enable-background="new 0 0 640 480">
<rect fill="#17556C" width="640" height="480"/>
<g>
	<path fill="#FFFFFF" d="M407.1,231.9c0-1.9,0.4-4.2-0.9-5.8c-0.4-1-0.4-1.7-1-2.8l-0.6-0.9c-1.9-3-3.2-4.5-5.9-6.8l-5.8-3.6
		c-0.6-0.4-0.9-0.4-1.5-0.9l-3-1.3c-1.9-1-10.2-2.3-12.7-1.9c-2.3,0.2-4.5,0.9-6.8,1.5c-1.3,0.4-0.6,0.2-1.5,0.6
		c-0.6,0.2-1.3,0.2-1.7,0.4c-1.3,0.6,0.2,0.4-1.5,0.9l-3.8,1.9c-0.2,0-0.2,0-0.2,0l-1.3,1c-0.6,0.9-1.3,2.3-2.6,1.7c0-0.2-1-0.9-1-1
		c-0.2,0-0.2,0-0.2-0.2l-1-0.9c-1-0.4-0.4-0.2-1-0.9c-0.9-0.6-3-1.3-3.8-1.7c-1-0.4-0.6-0.9-1.9-1c-3.4-0.6-3.6-1.7-11-1.9l-6.4,0.4
		c-3.8,0.4-3,0.6-4.6,1.5c-0.6,0.2-1.3,0-1.9,0.2c-1,0.4-0.2,0.2-1.3,0.9c-1.5,1-3.4,1.7-4.9,2.8l-2.6,2.2c-2.3,2.3-1.7,1.9-3.2,3.6
		l-1.3,1.9c-0.6,0.6-0.6,1-1,2.2c-0.2,0.6-0.4,0.4-0.6,1.5c-0.2,0.6-0.2,1-0.2,1.7c-0.2,0.6-0.4,1-0.6,1.9c-0.4,2.8,0,40.4,0,44.4
		c0,2.2-0.2,4,0.6,5.9c0.4,1.3,0.9,1.5,2.2,2.2c0.4,0.2,0.6,0.4,1.5,0.4c2.6,0.2,5.5,0.4,7.4-1.3c0.4-0.4,0.2-0.2,0.4-0.6l0.2-0.2
		l0.4-0.4c0.4-0.6,0.4-0.6,0.6-1.3c0.6-1.9,0.2-5.9,0.2-8.3c0-11.3,0-22.6,0-33.8c0-1.7,0-6.6,0.9-7.7l0.4-0.4
		c0.2,0,0.2-0.2,0.2-0.2c1-1.5,1.5-3,3-4l5.5-3c0.9-0.4,7.2-0.4,8.1-0.2l3.6,1.7c1,0.9,1.3,0.4,2.8,1.7c3,2.6,2.8,3,3.6,5.8
		c0.4,1,0.4,0.6,0.9,1.3c0.4,1.5,0,33.8,0,38.2c0,2.8-0.9,7.8,0.9,10l1.7,1.7c0,0,0,0,0.2,0c3,2.2,9.8,1.5,10.9-2.6
		c0.4-2.2,0.2-43.8,0.2-46.6c0-1.7,1.3-4.5,2.6-5.9l0,0c0.2,0,0.2-0.2,0.2-0.2l2.3-2.3h0.2c0.2-0.4,0-0.2,0.6-0.4
		c0.2-0.2,0.4-0.2,0.6-0.4l0,0c0.2,0,0.2-0.2,0.2-0.2c3.6-1.7,11.7-1.5,15.1,0.4c2.2,1,4.5,3.2,5.3,5.5c0.9,2.8,1,0.6,1,5.1v59.5
		c0,3.4-0.4,7,2.3,9.4l0.2,0.2c1,0.9,1.9,1,3.6,1c7.7,0,7.2-1.7,8.3-4.5c0.6-1.3,0.4-2.2,0.4-3.8v-25.5c0-5.8,0-11.3,0-17
		c0-3.2,0.4-2.3,0.9-3.4c0.6-0.9,0.9-1.9,1.7-2.8l1-1c0.6-0.9,0.2-0.4,0.9-1l2.2-1.3c0.6-0.6,1.3-0.6,2.3-0.9
		c0.6-0.2,0.6-0.4,1.3-0.6c2.8-0.9,7,0.2,9.6,1c1.5,0.4,0.2,0,1.3,0.6c1,0.6,1.5,0.6,2.6,1.7c0.9,0.9,1.3,1,1.9,2.3
		c1.9,2.8,1.5,1.9,2.6,5.8c0,0.4,0.2,1,0.2,1.9c0.4,12.6,0,27.4,0,40.2c0,1.9-0.4,4.5,0.9,5.8c1.5,1.5,1.9,2.2,4.2,2.2
		c1.3,0,3,0.2,4.2,0c1.3-0.4,0.4-0.4,1.3-0.9c0.9-0.4,0.6-0.2,1.5-0.9c0.6-0.6,1.5-1.5,1.7-2.6c0.2-2.3,0-37.8,0-42.5
		c0-1.5,0-2.8,0.2-4c0.2-0.6,0.9-2.6,1-3.2c0.6-1.3,1.3-1.9,2.2-3c1-1,1.3-0.6,2.2-1.3c0.6-0.4,0-0.4,1.3-1c0.9-0.4,0.4-0.2,1.3-0.6
		c0.9-0.6,6.8-1.9,9.1-1c3.4,1.3,1.7-0.2,4.6,1.7c3.4,1.9,4.2,3.2,6.2,6.6c0.9,1.9,0.4,5.5,0.4,8.1v38.5c0,2.3,0.2,1.3,0.9,3.2
		c0.2,1,0,1,0.6,1.7c1.3,1,2.6,1.5,4.5,1.7c2.3,0,5.1,0.2,7-1.5c0.9-0.6,0.9-1.7,1.3-2.6c0.6-1,0.4-2.8,0.4-4.2v-42.3
		c0-1.7-0.4-2.2-0.6-3.6c-1-3.6-1.7-5.5-4-8.7c-0.9-1.3-2.3-2.2-3.2-3.4c-0.6-0.9,0-0.4-1-0.9l-3.8-2.8c0,0,0,0-0.2,0l-0.2-0.2v-0.2
		c-0.6-0.4,0,0-0.6-0.4c-0.6-0.2-0.9-0.2-1.5-0.9c-0.9-0.6-2.2-0.6-3.2-0.9c-0.6-0.4-0.9-0.6-1.3-0.6c-1-0.2-1,0-1.9-0.4l-0.6-0.2
		c-0.4-0.2-0.6-0.2-0.9-0.2c-3.6-0.2-7.8-0.9-11.5,0.2c-0.9,0.2-2.8,0.2-3.4,0.6c-1.9,1.3-2.2,0.4-3.2,1c-0.9,0.4-0.2,0.4-1.3,1
		c-0.6,0.2-0.9,0.2-1.5,0.6l-3.6,2.6c-0.2,0.2-0.2,0.2-0.4,0.4l0,0l-1.7,1c-0.9,0.2-1.7-0.9-2.3-1.5l-0.9-0.4
		c-1.9-1-2.2-1.9-3.8-2.6c-1.9-0.6-1.3-1-2.8-1.3c-1.7-0.4-1.9-1-3.2-1.3c-2.6-0.4-5.1-0.2-7.8-0.6c-3.4-0.6-6.6,0.4-9.8,0.6
		C410.1,230.5,409.4,231.9,407.1,231.9z"/>
	<path fill="#FFFFFF" d="M278.2,230.5c-2.3-0.4-1.5-0.4-3.2-1.3c-0.4-0.2-0.6-0.2-1.3-0.4c-2.8-0.9-0.4-0.4-4.9-1.3
		c-1.9-0.2-1.5-0.6-3.2-0.9c-2.6-0.4-5.3,0.2-7.7-0.2c-3.8-0.4-4.5-0.9-7.4-2.3c-1.7-0.9-3-2.6-4.5-3.6l-0.6-0.6
		c-0.4-0.6-0.4-1.5-0.6-2.2c-0.4-1-0.2-0.4-0.6-1.5c-0.9-3.6-0.4-11.5-0.4-15.3c0-13.4-1.3-11.7,4.2-11.7c4.9,0,36.2,0.2,37.4-0.2
		c2.3-0.9,2.6-0.2,4.5-1.7c1-0.9,1.5-0.9,1.9-2.2c0.2-0.9,0.2-2.6,0.2-3.8c-0.2-1.5-0.4-2.2-1-3c-1-1.5-0.6-1-2.6-1.7l-3.2-0.9
		c-3.8-0.4-41.4,0-47.4,0c-3.4,0-4.2,0.2-6.8,1.3c-1,0.4-0.9,0.4-1.7,1.3L229,179c-0.6,1-1,1.3-1.3,2.8c0,3.4-0.2,34,0.2,35.7
		c0.2,0.4,0.4,0.9,0.6,1.3c0.2,0.9,0,0.9,0.4,1.7c0.2,0.4,0.2,0.6,0.4,1.3c0.4,0.9,0.4,0.6,0.6,1.5l0.9,1.3c1,1.5,1.7,3.2,3,4.6
		c0.4,0.4,0.2,0,0.6,0.4c1.5,1.7,1.3,1,2.8,2.3c0.4,0.4,0.2,0.2,0.4,0.4c0,0,0,0.2,0.2,0.2l1,0.6c0.4,0.4,0,0.2,0.4,0.4l5.3,2.8
		c0.9,0.2,0.9,0,1.7,0.4l1.3,0.6c1.3,0.2,1.9,0.2,3,0.9c4.6,1.7,10.6-0.4,17.2,2.6c2.3,1,5.5,3.4,6.6,5.5l1.3,2.8
		c0.4,1.5,0,25.5,0,27.6c0,5.1-0.2,2.3-0.9,5.3c-0.2,1-0.6,1.7-1.5,2.3c-1.3,0.9-1.9,2.2-3.2,2.8c-1.3,0.9-4.2,2.2-5.8,2.3
		c-2.2,0.4-5.1,0.2-7.7,0.2c-2.3-0.2-5.8-1.5-7.7-3l-2.6-2.6l0,0l-1.7-2.8c-0.4-1-0.6-1.7-1-3c-0.2-1,0-2.3-0.2-3.6
		c-0.2-1.7-3-3.4-4.2-3.6c-1-0.2-3,0-4,0c-0.6,0-1.5,0-2.2,0c-1.3,0-3.2,1-4,1.9l-0.9,1c-1,1.5-0.9,3.8-0.6,5.3
		c0,1.3,0.4,2.2,0.9,3.2c0.4,1.3,0.2,1.7,0.9,3c0.2,0.6,0.4,0.6,0.4,1.5c0.2,0.9,0,0.6,0.6,1.3l2.3,2.8c3.4,3.8,2.2,2.2,5.5,5.1
		c0,0,0.2,0,0.2,0.2l2.3,1.5c1.7,1,3.2,1.3,4.9,2.3l5.1,1.5c0.6,0.2,1.5,0.2,2.2,0.2c4.2,0,14.6,1,18.3-1c1.5-0.6,1.5-0.4,3.2-0.6
		c0.9-1.5,0-0.4,1.9-1.3c1.7-0.6,3.4-1.3,4.6-2.6c1.3-1,3-1.9,4-3.2c0.9-1,1.5-1.3,2.3-2.3c0.2-0.6,0.9-1.7,1-1.9
		c0.9-0.9,0.2,0.6,0.9-1c0.2-0.6-0.2-0.4,0.2-1l1-2.3c0.6-1.3,0.9-0.9,1-2.2c0.6-2.8,0.2-12.1,0.2-15.5c0-6.4,0.2-12.7,0-19
		c-0.2-2.3-0.6-1-1-2.6c0-0.2,0-0.9-0.2-1.3c-0.2-0.9,0-0.4-0.4-1c-1-1.5-0.4-1.5-1.7-3c-0.2-0.6-0.2-0.4-0.4-1
		c-0.6-1-0.9-1-1.5-1.7l-4-3.8c-0.2-0.4-0.4-0.4-0.9-0.6c-1.3-0.9-1.5-1.3-1.7-1.5C278.7,230.9,278.9,232.2,278.2,230.5z"/>
	<path fill="#FFFFFF" d="M175.6,189.6c2.8-0.2,4.2-1,5.5-1c1.5,0,3.4-0.2,4.6,0.2c0.9,0.2,0,0,1,0.4c0.9,0.2,2.2,0.2,3,0.4
		c1,0.2,0.6,0.6,2.2,1c1,0.4,2.8,1.7,3.6,2.6l1.5,1.7c0.9,0.9,1.9,3.4,2.2,4.5c0.2,2.2,0,13.2,0,15.8c0,1.5-1,3.6-1.7,4.9l-1.7,2.2
		c-1.5,1.7-3.4,2.8-5.5,3.4c-2.2,0.4-1.3,1-5.1,1c-7.7,0.2-4.9-0.9-8.3,1.5c-2.2,1.5-2.8,4.9-1.7,7.2c0.2,0.4,0.9,1.7,1.3,2.2
		c1.9,1,0.6-0.6,1.7,1.3c2.6,0.2,7.4,0,9.8,0.9c1,0.6,1.3,0.4,2.8,0.6c0.9,0.2-0.2,0,0.9,0.6c0.4,0.4,0.9,0.4,1.3,0.6l3.8,3
		c0.9,1.5,0.2,1.5,1.7,1.7c0,1.7,0.4,1.9,0.9,3.2c0.2,1.7,0,29.1,0,30c-0.4,1.5-2.2,5.1-3.4,5.9l-1,0.9c-3.8,2.8-2.6,1.3-4.6,2.8
		l-6.6,1c-4.9,0-5.5-0.2-9.8-2.2c-1.7-0.9-1.9-1-3.2-2.3c-0.9-0.9-1.9-1.9-2.2-3.2c-0.4-1.5-0.6-0.6-1-1.7c-0.9-1.7,0.4-3.6-1.3-6.6
		c-0.4-0.9-0.4-0.9-1.3-1.5c-3.2-1.9-0.6-1.7-6.2-1.7c-3.6,0-4.5-0.2-6.6,2.6l-0.4,0.4c-1.9,2.6-0.6,10.4,1.3,13.2
		c0.4,0.6,0.4,0.6,0.6,1.5c1.5,2.3,3.6,4.2,4,4.9c0.4,0.6,1,1,1.7,1.5l3.8,2.6c1.7,1.3,0.9,0.6,2.3,1.3c0.9,0.6-0.4,0.2,1,0.9
		l6.2,2.6c1.5,0.2,2.8-0.2,4,0.2c2.6,1,5.9,0.6,8.5,0.6l8.7-1c1.3-0.4,0.6-0.6,1.5-1c0.9-0.2,1.3-0.2,1.9-0.6l4.2-1.7
		c0.9-0.4,0.6-0.6,1.5-1l1.5-0.9c0.6-0.6,0-0.2,0.9-0.6c0.2,0,0.6-0.2,0.9-0.4c0.9-0.6,1.9-1.9,2.3-2.3l1.7-1.9
		c0.4-0.6,0.2-0.6,1.3-0.9l0.6-1.7c0.2-0.4,0.6-0.6,0.9-1l1-2.8c0.6-2.6,1-4.2,1-7v-25.8c0-2.2-0.2-2.3-0.4-3.8
		c-0.6-2.6-0.6-1.9-0.9-2.8c-0.6-3.2-1.3-2.8-2.2-4.9c-0.9-1.5-3.6-4.6-4.9-5.8c-0.6-0.4-1.5-0.9-2.2-1.5c0.2-1,1.3-1.3,1.9-1.9
		l3.4-3.8c0.4-0.4,0.4-0.4,0.9-0.9c1.3-1.5,2.6-4,3.2-5.9c0.4-2.2,1-3.4,1-5.9v-14c0-3.4-0.9-3.8-1.3-5.9c0-0.6,0-0.6-0.2-1.3
		l-1-2.3c-1.5-3.2-1.9-2.6-2.3-3.4c-1.3-1.9-3.4-3.8-5.1-5.3l-5.9-3.6c-0.9-0.6-0.6-0.2-1.7-0.6c-1.3-0.4-0.2,0-1.5-0.9
		c-1-0.6-2.6-0.4-3.8-0.9c-1.5-0.4,0-0.4-1.9-0.4c-0.9-0.2-1.3,0-2.2-0.2c-2.8-0.6-11.9-0.6-14,0.4c-1,0.4-1.7,0.2-2.8,0.6
		c-1.5,0.4-0.4,0.9-3.6,1c-0.6,1-0.6,1-1.9,1.3c-1.9,0.6-1,0.6-3.4,2.2l-1.9,1.5c-1.5,0.9-5.1,4.5-6.2,5.9c-0.2,0.6-0.4,0.9-0.6,1
		c-1,1.9-1,0.9-1.7,3.4c-0.4,1.5-0.9,1-1,2.3c-0.4,4.2-1.5,10.2,3.8,11.3c1.3,0.2,0.4,0.2,1.3,0.4c2.2,1.3,8.1-0.2,9.4-1.7
		c0.4-0.4,1.5-2.3,1.5-3c0.4-1.7-0.4-4.5,0.9-5.9c0.2-0.4,0,0.2,0.4-0.6l1.5-1.9c0.2-0.2,0.2-0.2,0.2-0.2s0-0.2,0.2-0.2l0.2-0.4
		c1-0.9,2.3-1.9,3.8-2.6C175,190.7,175,190.5,175.6,189.6z"/>
	<path fill="#F26320" d="M419.4,196.6c-0.2,0.2-1.7,0.2-2.3,0.4c-2.2,0.9-4.5,2.6-5.5,4.5c-0.4,0.9-1.7,2.3-2.2,4.2
		c-0.2,0.9-0.4,5.9,0.2,7.4l1,2.3c1.3,2.3,0.9,1.7,2.2,2.8c0.4,0.6,1,1.3,1.7,1.7l1.7,1.3c0.6,0.4,1.9,0.4,2.8,0.6
		c1.5,0.6,4.2,0.6,6.2,0.2c1.7-0.2,3.6-1,4.9-2.2l3-2.8c2.6-2.8,3.4-10,1.5-13.4c-1.5-2.3,0.4-1.5-4.5-5.3l-1.7-1
		c-1.3-0.6-1.9-0.4-3-0.9c-1.3-0.4-0.6-0.4-3-0.4L419.4,196.6z"/>
	<path fill="#8BC53D" d="M335,176c-2.2-0.2-2.8-0.4-4.2,0.4c-0.6,0.4-0.6,0.4-1.3,0.6c-2.2,0.6-0.4,0.2-2.3,1.5l-0.4,0.4
		c-0.2,0.2-0.9,0.6-1,0.9c-0.4,0.6-0.2,0.4-0.4,0.9c-0.6,0.6-1.3,1.5-2.2,3.2c0,0.2,0,0-0.2,0.4c0,0.4,0,0.4,0,0.9
		c-0.2,1.9-0.4,5.5-0.2,7.7c0.4,1.7,3.2,6.4,4.5,6.8l4.5,2.2c1.7,0.4,7.7,0.6,9.1-0.4l4-3.2c0-0.2,0-0.2,0-0.2
		c0.9-0.9,2.6-2.8,2.8-3.8l0.4-1.9c0.9-1.3,0.6-1,0.6-3.6c0-3.2-0.2-3-1.3-5.3l-2.3-3.4c-1.3-1.5-2.6-2.3-4.2-3
		c-1-0.4-1.5-0.6-2.6-0.9C337.4,175.8,336.1,176,335,176z"/>
	<path fill="#FDC10E" d="M389.7,181.4c-1.9-0.4,0,0.4-2.3-1.7l-0.9-0.9v-0.2L382,176c-1.3-0.4-7-0.4-8.5,0.2
		c-1.4,0.6-1.9,0.6-2.6,1.5c-1.3,1.3-0.9,0.4-2.8,2.6c-0.9,0.9-0.4,0.4-1,1.7l-1.9,3.6c-0.4,1.3-0.4,5.8,0.2,7.2
		c0.6,1.3,0.2,0.9,0.6,2.2c0.4,1,0.4,0.2,1.3,1.3c1,1.5,0,0.9,1.9,2.2c0.2,0.2,0,0,0.4,0.4l0.4,0.4h0.2c1.7,1,0.4,0.2,1,1
		c0.4,0.2,3,1.5,3.8,1.7c1,0,6.4,0.2,7.4-0.4c1.3-0.9-0.6-0.2,1.9-1.3l2.8-2.2c0.6-0.6,3-4,3.4-4.9c0.6-2.2,0.6-7.7-0.4-9.8
		C389.8,182.4,389.7,183.3,389.7,181.4z"/>
	<path fill="#00ACED" d="M451.3,202.8c-0.4,4.6-0.9,0.6-0.9,6.8c0,3.8-0.2,2.2,0.6,4c0.6,1.5-0.4,0,1,2.2c0.6,0.9,0.2,0.2,0.6,1
		c0.6,1.5,0,0.4,0.6,1l0.6,0.4c0.9,0.9,1.9,2.6,4,3.2c6.4,1.9,6.4,0.9,10.6,0c1-0.2,2.3-1.5,3-2.2l0.9-0.6c0.2-0.2,0.4-0.4,0.6-0.6
		s0.6-0.9,0.6-0.9c0.9-0.9,0.2,0.2,0.6-0.9c0.6-1-0.2-0.4,0.9-1.7c0-0.2,0.2-0.4,0.2-0.6c1-2.2,0.9-8.5,0-10.2
		c-2.3-4.5-2.2-2.6-4.5-4.9c-1-1.3-3-2.2-4.6-2.3c-1.5-0.2-3.4-0.6-5.1-0.2c-1.3,0.2-3.4,0.6-4.5,1.3c-2.6,1.7-2.8,1.7-4,3.8
		C452.4,202.4,452.2,202.4,451.3,202.8z"/>
</g>
</svg>
