<?xml version="1.0" encoding="utf-8"?>
<!-- Generator: Adobe Illustrator 19.2.0, SVG Export Plug-In . SVG Version: 6.00 Build 0)  -->
<svg version="1.1" id="Layer_1" xmlns="http://www.w3.org/2000/svg" x="0px" y="0px"
	 width="640px" height="480px" viewBox="0 0 640 480" enable-background="new 0 0 640 480">
<rect fill="#BF4131" width="640" height="480"/>
<g>
	<path fill="#722B2D" d="M256.2,155.8l0.6-2.8c8-1.5,16.5-2.3,24.5-3.8c7.2-1.4,17-4.2,23.7-4.8l-13,3.8c-0.4,0.2-2.3,0.5-2.3,0.5
		c-0.2,0-0.4,0.2-0.6,0.2l-2.3,1.1c17.3,2.5,29.5-0.5,43.9-8.9c3.4-2.1,8-5.9,10.6-7c-2.2,14.8-5,19.6-2.6,36.1
		c2.8-3.4,0.8-2.2,2.3-1.5l0.4,3.4l3.4-0.8c1.4,3.8-0.5,3.1-3,4.5l1.3,13.8c3.4-8.4,2.2-10.1,7.8-16.5c-3,13.1-6.1,20.5-6.1,35.4
		c1.3-0.4,0.8,1.8,1.1-1.5c0.2-3,2.6-25.3,5.8-27.6c6.6-2.8,8.5,4.9,8.1,10.7c1.5-1.3,6.1-9.7,6.6-11.6c1,10.2-8.4,25.9-12.1,32.9
		c-4.6,8.9-9.8,25.3-8.8,37.1c6.6,3,11.4,5.8,16.9,9.7c8.8,5.9,6.8,5.1,8.9,18.3c12-1.8,16.9-12.5,18.6-24.9c1-8.1,0.8-34.3,4.5-39
		l-0.4,8.4c2.3-2.6,7.1-26,7.8-29.3c3.8-16,11.8-41.8-8-54.9c-8-5.4-16.4-9.3-28.5-5.8l-8.2-8.2c-1.8-1.3-2.7-1-3.8-1.9
		c-2.7-2.2-0.2-2.2-5.9-4.9c-19.8-9.4-37.3-7.8-58.2-4.2c-20.7,3.4-40.3,16-37.8,42c0.8,0.4,0.8,0.5,1.8,1
		C255.4,155.8,254.1,155.2,256.2,155.8L256.2,155.8z"/>
	<path fill="#EBCAA7" d="M291,217.1c2.6,0.2,1.7-0.2,2.6-0.9l-3.2-0.6c0.5-0.2,1.9-0.2,2.5-0.2c1.9,0.2,0.4-0.2,1.9,1
		c3.1,0.4,0.9,0.2,1.8-0.9c-3.6-0.9-1.9-0.2-1.4-0.9c3.6-0.5,1.1-0.4,2.5,1c1.5,0.5,1.1,0.8,1.1-0.8c-2.3-1.8-2.1,0.4-0.5-0.9
		c1.4-1.1,0.9-0.2,1.4,0.6v0.4c1.1-0.4,0.9,0,0.8-1.1c0.2-0.2,0.6-0.2,0.8-0.2c0,0-0.2,0.2-0.2,0c0-0.2-0.2,0-0.2,0.2l-0.4,0.2h0.4
		c-1.1-0.9-2.7-0.6,3-2.6c0.2,3.8-8.9,14.8-16,16c-9.9,1.7-16.6-4.6-17.5-13.1c2.8,0.5,4.9,1.9,9.8,2.2
		C286.6,216.7,289,214.4,291,217.1L291,217.1z M341.8,176c-5.8,1.3-11.1,3.8-16.2,5.8c-3.8,1.4-8,7.1-14.3,6.5
		c-0.2,0.2-0.4,0.2-0.6,0.2c-0.2,0.2-0.4,0.2-0.6,0.2c-3.4,1.4,2.6-0.6-1.1,0.5c-4.2,1.3-11.8,0.5-16-1.7c-4.8-2.6-5.5-9.1-11.8-8.1
		c-4.5,5.5-1.7,8.6-10.4,11.4c-5.4,1.7-12.7,1.1-17.7-0.9c-2.1,15,4.6,26.2,10.2,36.3c2.8,5.1,4.5,10.3,7.8,15.4
		c4.4,6.5,8.5,5.3,16.9,6.6c2.1-0.5,4.9-1.1,7.1-2.2c0.2,3.8,1.8,10.3-0.5,13.9c-2.1,3.2-5.4,5.5-6.6,10.2c-1,3.8,0.2,27.7,1.8,30
		c-1.7-0.6-1.1-0.9-1.1,0.9c1.5-0.2,1.4,0.4,1.1-0.9c3-0.2,12.9-4.4,14.6-6.7l-1,0.2c5.8-8.1,11.2-23.8,13.3-27.7l9.4-15.6
		c-1.3-2.7-2.8-2.2-3.1-7.2c-0.2-3.4,0-6.6,0.5-9.7c-1.5-1.3-0.9,1.5-0.9-2.3c0-2.6,1.8-4.2,3.2-5.5l17.9-16.1
		c0.2-0.2,0.4-0.2,0.4-0.2l0.9-0.5c0-14.8,3.1-22.3,6.1-35.4c-5.7,6.3-4.5,8.1-7.8,16.5L341.8,176L341.8,176z"/>
	<path fill="#9DB47E" d="M350.6,311.8l2.3,33c-1.7,1.8-5.7,6.1-7.8,7L350.6,311.8L350.6,311.8z M315.5,288.6l3.4-0.4
		c4.2,4.2,8.1,22.6,11.4,29.8c3.2,0.2,4-0.6,5.4,2.1c2.1,4.2,2.5,14.3-0.4,17.1c-1.3-0.2-1-0.4-0.5,0.9l0.5-0.9
		c1.7,1,0.9,0.2,1.8,1.8c0.2,0.2,0.5,1.8,0.6,2.2l2.1,12.6c-0.6,1.5,0.9,1.5-1.8,0.8l-0.5-1.1l0.5,1.1c-1.1,1.8-3.1,1.5-5.1,2.6
		c-1.9,0.6,0.2,0.9-2.6-0.9c0.6,3.1,1.3,0.6-1.3,2.2c0,0-2.5,0.9-2.7,1c-1.9,0.6-3.8,1.5-6.1,1.9l-0.2,17l23.4-5.8
		c0.4,1,0.5,1.9,0.8,2.6c1.5,3.8,0.2,1.4,2.2,2.8c1.9-3.8-1.1-3.8,1.4-6.2c6.3-2.6,13-1.5,21.3-9.1c11-10.1,3-71.8,2.1-86
		c-1.9-13.1-0.2-12.4-8.9-18.3c-5.7-3.8-10.4-6.6-16.9-9.7c-1.9-0.5-3.4-1.3-4.6-2.3c0.8,7.4,0.2,31.2-1.7,38.2
		c-5.8-1.5-9.3-7.2-15.4-9.9C323.1,277.5,318.1,285,315.5,288.6L315.5,288.6z"/>
	<path fill="#9DB47E" d="M269.9,420.3c3.8,1.8,12.1,4.6,16.5,5.3l2.2-5.5l1.3,1.9c5.7,11.8,27,2.1,37.3,1.3l1.9-1.1l0.8,0.2l1.7-0.9
		l0.8,0.4c1.8-1.5,23-8.4,27.2-9l-10.2-34.6c-5.3,1.8-1,1.5-5.4,3.4c-1.5,0.6-4.9,1.5-6.6,2.2c-4.2,1.3-8.9,3.4-12.9,3.4l-1.5,0.6
		c-3.8,1.9-10.8,3.8-15.4,5.3L292,398l-4.9-10.7l1-0.4l-1,0.4c-1.4,0.8-2.6,1.4-4.9,1.4c-0.6-1-0.6-1.7-1.3-2.8
		c-1.3-2.3-0.4-0.5-1.7-2.1c-2.5-3-1.4-4.2-3-7.8c-1.5-3.6-4-4.5,1.9-6.2l-0.9-3.1l4-2.3l24.7-17.1l-5.3-13.1L273,347
		c-1.7,1.5-2.2,1.8-4,2.3L257.8,325l-0.5-0.4c-1.4,2.8-1.5,19.7-1.7,24.1c-0.2,7.2-1.9,19,0.8,24.5c4.9,1.4,7.8-0.9,12.9-1.3
		c0.9,6.5,2.7,18.4,2.8,24.3c0.2,9.3-5.8,16.1-5.7,21.5C267.6,418.9,268,419.2,269.9,420.3L269.9,420.3z"/>
	<path fill="#414143" d="M262.3,479.8h63.5v-27c-0.2-2.3-0.2-4.9,0-7.2l-0.2-20.4l1.1-2.1c-10.3,0.8-31.6,10.4-37.3-1.3l-1.3-1.9
		l-2.2,5.5c-4.5-0.6-12.6-3.6-16.5-5.3C265.5,440.2,263.4,459.1,262.3,479.8L262.3,479.8z M329.7,422.5l-0.8-0.2
		c1.3,1.3-1.1,1.1,2.7,1.1C330.6,422.2,331.5,422.9,329.7,422.5L329.7,422.5z M332.2,422l-0.8-0.4c1,1-1.4,0.9,2.5,1L332.2,422
		L332.2,422z"/>
	<path fill="#696A6D" d="M332.2,422l1.7,0.6c-3.8,0-1.3,0.2-2.5-1l-1.7,0.9c1.8,0.5,0.9-0.2,1.9,0.9c-3.8-0.2-1.4,0-2.7-1.1
		l-1.9,1.1l-1.1,2.1l0.2,20.4c-0.2,2.3-0.2,4.9,0,7.2v27h42.6c1.4-11.2,1.9-25.3,0.2-36.5c-0.8-5.4-2.5-10.4-4-15.6
		c-1.5-4.9-4-10.3-5.3-14.8C355.2,413.6,334,420.5,332.2,422L332.2,422z"/>
	<path fill="#EBCAA7" d="M294.2,165.5c-0.2-0.4-0.2-0.4,0.2-1.1c0.4-0.8,0.8-1,1.3-1.4c7.4-6.3,15.2-7.2,23.8-3.1
		c2.5,1.1,2.3,1.1,3.2,2.3c-3.8-0.9-11-3-15.8-1.8C302,161.4,296.7,166.2,294.2,165.5L294.2,165.5z M256.2,155.8l-0.8,7.4
		c0.9,1.9-0.6,1.3,1.1,0.4l0.6-0.8l0.8-0.6l0.6-0.6c8.6-4.2,20.7,6.8,13.4,5.4c-0.4-0.2-4.2-2.7-7.4-3.6c-6.2-1.7-6.1,1.7-9.8,3.1
		l-0.4,0.4l-0.2,5.3l-0.2,2.1c8.5-0.8,13.3,0.5,21.3,2.3c1.4,0.2,10.8,0.4,12.2,0.2c3-0.5,4.8-3,9.4-3.6c2.8-1.3,21.5-4.9,26-2.3
		c2.7,1.5,1.4,4.4,2.3,7.1c3.8,0.2,12.7-4.2,15.8-5.8l-0.4-3.4c-1.5-0.6,0.6-1.8-2.3,1.5c-2.5-16.5,0.2-21.3,2.6-36.1
		c-2.6,1-7.1,4.9-10.6,7c-14.4,8.4-26.6,11.2-43.9,8.9l2.3-1.1c0.2-0.2,0.4-0.2,0.6-0.2c0,0,2.1-0.5,2.3-0.5l13-3.8
		c-6.8,0.6-16.5,3.4-23.7,4.8c-8.1,1.5-16.5,2.3-24.5,3.8L256.2,155.8L256.2,155.8z"/>
	<path fill="#00743C" d="M323.5,324.8c-2.5-7-6.2-22.6-9.8-27c-3.2,0.2-20.9,8.6-24.1,10.3l-0.8,0.4c-4.4,1.4-10.3,4.5-14.2,6.3
		c-12.7,5.9-5.1,2.5-12.9,7.6l11.1,24.3l27.8-12.9l-2.7-8.4c4.4,0.4,13.7,0.9,16.7,3l6.3-1.9l-6.5-19.8c-0.9-2.7-1-4.5-2.8-6.5
		c-6.8,0.8-36.6,17.4-46.6,20.4c2.2-2.6,8.8-4.8,11.8-6.1c4.5-1.9,7.4-3.4,12-5.3c8.9-3.8,16-8,24.7-11c0.4,2.5,1.4,4.9,2.2,7.4
		l0.4,1c0,0.2,0.2,0.4,0.2,0.5c0.2,0.5,0.4,1,0.5,1.5l4.4,13c0.4,1.1,0.6,1.9,1.3,3.4L323.5,324.8L323.5,324.8z"/>
	<path fill="#F8F7F9" d="M304.2,293.4c3.2-0.2,8.9-2.7,11.2-4.8c2.6-3.6,7.6-11.1,8.6-14.2c5.9,2.7,9.4,8.4,15.4,9.9
		c1.8-7,2.5-30.6,1.7-38.2c-0.5-7.6-0.9-6.3-6.3-9.5c-5.8-3.4-4-2.8-11.6-3.2c-0.5,3.1-0.6,6.3-0.5,9.7c0.2,5,1.8,4.5,3.1,7.2
		l-9.4,15.6c-2.1,3.8-7.4,19.6-13.3,27.7L304.2,293.4L304.2,293.4z"/>
	<path fill="#9DB47E" d="M260.9,314.6c-0.9,1-0.9,1.1-0.5,2.2l20-9.9C276.2,306.6,266.2,312.5,260.9,314.6L260.9,314.6z M287,301.8
		c-2.3-0.2-1.4,0.9-2.2-3.4c-0.2-1.4-0.5-2.8-0.8-4.4l-5.1-25.4c-1.4,1.1-3.8,2.8-5.7,4.2c-0.9-1.3-0.9,1.8-0.6-2.2
		c-1.9,3.4,1.7,0.9-1.9,4.5c-2.8,2.8-9.1,9.8-10.6,13.5c-1,3.1-3.2,25.9-2.3,28.3c1-1.7-1,0.2,1.3-1.7c2.1-1.5,0-0.4,2.1-1l0.9-0.5
		C267.4,310.9,284.7,304.1,287,301.8L287,301.8z M292.1,303c-0.9-1.7-0.2-1-2.2-1.7l-7,3.4c-2.8,1.1,0.2,0.5-3.2,0.9
		c2.6,1.5,1.5,0.9,3.1,0.6C284.5,306.2,288.3,303.2,292.1,303L292.1,303z M292.6,301.9l0.8-0.2l0.8-0.5l0.8-0.2l0.8-0.6h0.8
		c2.8-2.6,1.5-0.4,0-1.9l-5.5,2.1C292.2,302.6,291,302.2,292.6,301.9L292.6,301.9z M298,297.9l-0.5-0.2c2.1,1.3-0.9,1.4,1.1,0.8
		C300.7,297.8,299.8,299.4,298,297.9L298,297.9z M303,295.6l-4,1.5c1.1,1.7,0.4,1.5,3.4,0.4C306.8,295.7,303.9,296.3,303,295.6
		L303,295.6z M304.5,295l-0.8-0.2c2.1,1.3-0.9,1.5,1.1,0.8C307.2,294.8,306.2,296.6,304.5,295L304.5,295z M306.2,294.3l-0.6-0.2
		c2.1,1.3-0.8,1.4,1.1,0.8C309,294.2,307.9,296,306.2,294.3L306.2,294.3z M311,292l-4,1.5c1.1,1.7,0.6,1.7,3.4,0.5
		C315.1,292.1,311.9,292.7,311,292L311,292z M312.6,291.4l-0.6-0.2c1.8,1.1-0.6,1.5,1.1,0.8C315.1,291,314.6,293.1,312.6,291.4
		L312.6,291.4z M317.2,291.4c-2.2-0.9-0.6-0.5-1.5-1.1l-2.1,0.5C315.4,292,312.5,292.2,317.2,291.4L317.2,291.4z"/>
	<path fill="#00743C" d="M318.1,341.2c-0.4,2.1-3.1,3.8-5,5.4c-1.9,1.8-3.4,3.4-5.5,4.4l-1.4-4l-24.7,17.1l1.5,4.2
		c8.2-0.4,19,1.5,25.8-1.7c1-3.8,2.5-3.6,5.4-5.4c2.5-1.5,4.8-3.6,7.1-4.4l-0.6,4.2c2.1-0.4,4.2-1.3,6.1-1.9c0.2-0.2,2.7-1,2.7-1
		c2.6-1.5,1.8,0.9,1.3-2.2l-5.8-18.8L318.1,341.2L318.1,341.2z"/>
	<path fill="#EBCAA7" d="M315.7,290.2c0.8,0.6-0.6,0.2,1.5,1.1l10.3,28.7c-0.8,1.1-1.4,2.1-2.1,2.8c-1.3,1.5-0.2,0.8-1.9,1.9l-1,0.8
		c-0.6-1.4-0.9-2.2-1.3-3.4l-4.4-13c-0.2-0.5-0.4-1-0.5-1.5c0-0.2-0.2-0.4-0.2-0.5l-0.4-1c-0.8-2.5-1.8-4.9-2.2-7.4
		c-8.8,3-15.8,7.1-24.7,11c-4.5,1.9-7.4,3.4-12,5.3c-2.8,1.3-9.5,3.4-11.8,6.1c10.1-3,39.8-19.6,46.6-20.4c1.8,1.9,1.9,3.8,2.8,6.5
		L321,327l-6.3,1.9c0.9,3.8,2.2,11,3.4,12.6l6.6-3.8l5.8,18.8c2.8,1.8,0.6,1.5,2.6,0.9l-6.5-19.7c5.8-0.6,6.5,0.5,8,4.9
		c1.3,3.6,2.2,7.4,3.2,11.1l0.5,1.1c2.7,0.8,1.3,0.8,1.8-0.8c-0.4-4.2-3.4-11.6-5.1-15.8c-0.5-1.3-0.8-1,0.5-0.9
		c2.8-2.8,2.6-12.9,0.4-17.1c-1.4-2.7-2.2-1.8-5.4-2.1l-1.3,1.1c-1.3-1.5-9.1-25.7-10.4-29.8L315.7,290.2L315.7,290.2z"/>
	<path fill="#F8F7F9" d="M287.8,248.2c-1.4,2.5-2.8,2.5-4.8,4.8c-1.1,1.4-3,3.8-4.2,5.4c-1.8,2.7-5.4,9.5-6.5,12.5
		c-0.2,4-0.2,0.9,0.6,2.2c2.1-1.4,4.2-3,5.7-4.2l5.1,25.4c0.2,1.5,0.5,3,0.8,4.4c0.8,4.2-0.2,3.2,2.2,3.4l1.5-0.8
		c0-1.8-0.4-1.5,1.1-0.9c-1.4-2.2-2.7-26.3-1.8-30c1.1-4.6,4.5-7,6.6-10.2c2.2-3.6,0.6-10.2,0.5-13.9
		C292.7,247,290,247.6,287.8,248.2L287.8,248.2z"/>
	<path fill="#EBCAA7" d="M282.6,368.4l-4.6,1.4c-5.9,1.8-3.4,2.6-1.9,6.2c1.7,3.8,0.6,4.9,3,7.8c1.3,1.5,0.2-0.2,1.7,2.1
		c0.6,1.1,0.6,1.7,1.3,2.8c2.3,0,3.4-0.6,4.9-1.4l1-0.4l2.8-1c2.7-1.8,5.5-3,8.1-4.6c6.2-3.6,3.2-2.1,10.6-2.5c-0.2,1.3-0.6,1,0.6,1
		c0.2-1.5,0.8-1.4-0.6-1l-1-12.1C301.8,370.1,291,368,282.6,368.4L282.6,368.4z"/>
	<path fill="#570101" d="M290,301.4c0-1.3-0.4-1.1,0.9-0.8l5.5-2.1c0-1.4-0.4-1.1,0.9-0.8l0.5,0.2c0-1.4-0.4-1.1,1.1-0.8l4-1.5
		c0-1.3-0.4-1.1,0.8-0.8l0.8,0.2c0-1.4-0.4-1.1,0.9-0.8l0.6,0.2c0-1.3-0.2-1,1-0.8l4-1.5c0-1.3-0.4-1.1,0.9-0.8l0.6,0.2
		c0-1.4-0.2-1,1.1-0.8l2.1-0.5l3.1-0.8c1.3,4.2,9.1,28.3,10.4,29.8l1.3-1.1c-3.4-7.2-7.2-25.7-11.4-29.8l-3.4,0.4
		c-2.5,2.1-8.1,4.6-11.2,4.8c-1.7,2.3-11.4,6.6-14.6,6.7c0.2,1.3,0.4,0.8-1.1,0.9l-1.5,0.8c-2.2,2.3-19.7,9.1-24.9,12.1
		c0,1,0.2,0.8-0.9,0.5l-0.2,0.2c5.3-2.2,15.4-8,19.4-7.8l-20,9.9l-2.6,0.2l-2.5,1.8l1.9,5.7l0.5,0.4l11.1,24.3
		c1.8-0.5,2.3-0.8,4-2.3l-11-24.3c7.6-5.1,0.2-1.7,12.9-7.6c3.8-1.8,9.8-5,14.2-6.3l0.8-0.4c1.7-1.7,2.5-0.9,3.4-3
		c0.9-1.5-1.9-1.9,0.2-1.3c0.2-0.2,0.2-0.2,0.2-0.4l2.1-1.5c0.2-0.2,0.6-0.8,0.8-0.9v-0.6H296c0.4,1.3,0.5,1-0.8,0.6l-0.8,0.2
		c0.5,1.4,0.6,1-0.8,0.5l-0.8,0.2c-0.2,1.4,0.9,0.6-0.5,1.1c-3.8,0.2-7.8,3.2-9.3,3.4c-1.5,0.2-0.5,0.9-3.1-0.6
		c3.4-0.4,0.2,0.2,3.2-0.9L290,301.4L290,301.4z"/>
	<path fill="#414143" d="M275.2,186.4c-1.1,1.4-1.9,2.2-4.4,2.5c-2.6,2.6-8.4,1.9-12.2,1.3c-5.4-0.9-6.8-1.9-8.8-6.1
		c0.5-1,0.2-1.3,1.9-2.5c1.9-1.3,1.1,0.2,3.2-1.8l5.5-2.5c5.3,0,6.3,1.5,10.1,3.4l0.8,0.2c1.3,1.7,1.7,1.9,2.6,3.8l0.4,0.6
		c2.3-3.2-3.4-7-5.1-8.6C274,177.9,279.7,180.3,275.2,186.4L275.2,186.4z M254.2,174.4c-9.3,2.6-6.5,2.3-7.8,11.2
		c3.4,1.5,3.4,2.6,6.6,4.2c4.9,2.1,12.4,2.7,17.7,0.9c8.6-2.8,5.9-5.8,10.4-11.4c6.3-1,7.1,5.5,11.8,8.1c4.2,2.2,11.8,3,16,1.7
		c3.8-1.1-2.1,0.9,1.1-0.5c0.2-0.2,0.4-0.2,0.6-0.2c0.2-0.2,0.4-0.2,0.6-0.2l-0.8-0.5c-4.6,0.5-9.3,1.5-13.8-0.2
		c-2.7-1.1-5.9-5.5-6.3-8.9c1.7-2.6,2.5-2.3,5.9-3.8l0.9-1.4c-4.6,0.6-6.5,3.2-9.4,3.6c-1.4,0.2-10.8,0.2-12.2-0.2
		C267.4,175,262.8,173.7,254.2,174.4L254.2,174.4z"/>
	<path fill="#F8F7F9" d="M300.7,334l5.3,13.1l1.4,4c2.2-1,3.6-2.7,5.5-4.4c1.9-1.7,4.6-3.4,5-5.4c-1.1-1.8-2.3-8.9-3.4-12.6
		c-3.1-2.1-12.4-2.6-16.7-3L300.7,334L300.7,334z"/>
	<path fill="#570101" d="M320.3,386.3c-2.8-0.4-5.3,0.5-8.5,0.6l-1.7-5.8c-3.4,0.9-6.6,2.2-9.8,3.1c-1.8,0.5-3.4,1-5.3,1.5
		c-2.8,0.8-2.6,1.1-4.2,0.2l-2.8,1l-1,0.4l4.9,10.7l15.6-4.8c4.5-1.4,11.4-3.4,15.4-5.3c0-1.8-0.4-1.3,1.5-0.6
		c-1.9-0.6-1.1-0.5-3,0.2l-0.2-0.8C321,386.8,322,387,320.3,386.3L320.3,386.3z"/>
	<path fill="#F8F7F9" d="M308.6,366.9l1,12.1c1.3-0.4,0.9-0.5,0.6,1v1.1l1.7,5.8c3.2-0.2,5.5-1,8.5-0.6c0.2-0.2,1.3-1.7,1.3-1.8
		l-1.3-6.3l0.2-17l0.6-4.2c-2.3,0.8-4.6,2.8-7.1,4.4C311,363.2,309.6,363,308.6,366.9L308.6,366.9z"/>
	<path fill="#722B2D" d="M311.9,291.2c-1.3-0.4-0.9-0.5-0.9,0.8c0.9,0.8,4.2,0.2-0.5,2.1c-2.8,1.1-2.3,1.1-3.4-0.5
		c-1.3-0.2-1-0.6-1,0.8c1.8,1.7,2.8-0.2,0.5,0.6c-1.9,0.6,0.8,0.5-1.1-0.8c-1.3-0.4-0.9-0.6-0.9,0.8c1.8,1.7,2.6-0.2,0.5,0.6
		c-2.1,0.8,0.8,0.5-1.1-0.8c-1.1-0.4-0.8-0.4-0.8,0.8c0.9,0.8,3.8,0.2-0.6,1.9c-3,1.1-2.2,1.3-3.4-0.4c-1.4-0.4-1.1-0.6-1.1,0.8
		c1.8,1.4,2.8-0.2,0.6,0.5c-2.1,0.6,0.9,0.6-1.1-0.8c-1.3-0.4-0.9-0.6-0.9,0.8c1.5,1.5,2.8-0.6,0,1.9v0.6c0,0.2-0.6,0.8-0.8,0.9
		l-2.1,1.5c-0.2,0-0.2,0.2-0.2,0.4c-2.2-0.6,0.6-0.2-0.2,1.3c-1,1.9-1.8,1.3-3.4,3l-0.8,0.4l0.8-0.4c3.1-1.7,20.7-10.1,24.1-10.3
		c3.6,4.5,7.2,20,9.8,27c1.7-1.3,0.6-0.4,1.9-1.9c0.6-0.8,1.3-1.7,2.1-2.8l-10.3-28.7c-4.8,1-1.8,0.8-3.6-0.6
		c-1.4-0.2-1.1-0.6-1.1,0.8c2.2,1.8,2.7-0.2,0.6,0.6C311.3,292.7,313.8,292.3,311.9,291.2L311.9,291.2z M291,300.6
		c-1.3-0.4-0.9-0.6-0.9,0.8c1.9,0.5,1.3,0,2.2,1.7c1.3-0.6,0.4,0.2,0.5-1.1C291,302.2,292.2,302.6,291,300.6L291,300.6z
		 M293.4,301.6c1.4,0.5,1.4,0.9,0.8-0.5L293.4,301.6L293.4,301.6z M294.9,301c1.3,0.4,1.1,0.6,0.8-0.6L294.9,301L294.9,301z"/>
	<path fill="#EBCAA7" d="M346.1,207.2c4.4-1.8,7.6-1.3,10.1-4.8c2.1-3,3.4-7.4,3.8-12c0.4-5.8-1.4-13.5-8.1-10.7
		C348.6,181.8,346.3,204.2,346.1,207.2L346.1,207.2z"/>
	<path fill="#722B2D" d="M320.3,378.3l1.3,6.3c-0.2,0.2-1.3,1.7-1.3,1.8c1.7,0.6,0.8,0.5,0.8,0.5l0.2,0.8c1.8-0.8,1-0.9,3-0.2
		c-1.8-0.6-1.5-1.1-1.5,0.6l1.5-0.6c4-0.2,8.8-2.2,12.9-3.4c1.7-0.5,5-1.5,6.6-2.2c4.5-1.9,0.2-1.5,5.4-3.4c0.4-3.4,0-3.8-1-6.7
		c-2.6,2.3,0.5,2.3-1.4,6.2c-2.1-1.3-0.6,0.9-2.2-2.8c-0.2-0.6-0.4-1.5-0.8-2.6L320.3,378.3L320.3,378.3z"/>
	<path fill="#1E2124" d="M297.2,173.4l-0.9,1.4l4.9-1.1c-0.2,0.2-0.2,0.2-0.4,0.5c-0.2,0.6-4.6,3.1-5.5,5.1c-1.3,3.1-1,1.1,0.2,1.8
		c0.6-1.3,3-2.7,4.8-3.6l1.4-0.4c1-1.1,0.6-1.1,2.8-1.8c1.9-0.6,2.6-0.2,3.4,0.2c4,2.2,1.5,2.5,4.2,5.4c0.4-4.2-0.8-3.8-1.9-6.7
		l7,1.3c2.6-0.5,5.1-2.5,6.1,0.8c0.4,1.4-0.8,4.6-1.5,5.9c-1.7,2.8-6.8,4.2-11,5.4l0.8,0.5c6.3,0.5,10.6-5,14.3-6.5
		c5.1-2.1,10.4-4.5,16.2-5.8c2.6-1.4,4.4-0.6,3-4.5l-3.4,0.8c-3,1.5-12,5.9-15.8,5.8c-0.9-2.7,0.4-5.5-2.3-7.1
		C318.7,168.5,300.1,172,297.2,173.4L297.2,173.4z"/>
	<path fill="#722B2D" d="M299.4,215.1c-0.8,1.8-3.4,3.2-5.5,4.2c-8.5,4.2-15.8,3.1-21.9-3c7.8,1.3,11.8,0.2,19,0.8
		c-2.1-2.8-4.5-0.5-11.4-0.8c-4.8-0.2-7-1.7-9.8-2.2c1,8.5,7.8,14.8,17.5,13.1c7.1-1.1,16.1-12.1,16-16c-5.5,2.1-4.2,1.7-3,2.6v-0.2
		c0.2,0,0.2-0.2,0.2-0.2h0.2c0,0-0.5,0.2-0.8,0.2C300.5,215.1,300.6,214.8,299.4,215.1L299.4,215.1z M298.6,214.9l0.9-0.2
		c-0.5-0.8,0-1.9-1.4-0.6C296.7,215.3,296.3,213.1,298.6,214.9L298.6,214.9z M296.5,215.5l1,0.2c-1.3-1.3,1.1-1.4-2.5-1
		C294.6,215.5,292.9,214.8,296.5,215.5L296.5,215.5z M293.6,216.3l1.1,0.2c-1.5-1.3,0-0.8-1.9-1c-0.5-0.2-1.8,0.2-2.5,0.2
		L293.6,216.3L293.6,216.3z"/>
	<path fill="#EBCAA7" d="M296.3,174.8c-3.4,1.4-4.2,1.1-5.9,3.8c0.4,3.4,3.6,7.8,6.3,8.9c4.6,1.8,9.1,0.8,13.8,0.2
		c4.2-1.1,9.4-2.7,11-5.4c0.8-1.3,1.9-4.5,1.5-5.9c-1-3.2-3.4-1.3-6.1-0.8c1.8,7.6-13.5,18.3-23.2,7.8l1.8-2.2
		c-1.3-0.8-1.5,1.3-0.2-1.8c0.8-1.9,5.3-4.5,5.5-5.1c0.2-0.2,0.2-0.2,0.4-0.5L296.3,174.8L296.3,174.8z"/>
	<path fill="#722B2D" d="M333,357c2.2-1.1,4-0.9,5.1-2.6l-0.5-1.1c-1-3.6-1.9-7.4-3.2-11.1c-1.5-4.4-2.2-5.4-8-4.9L333,357L333,357z
		"/>
	<path fill="#F8F7F9" d="M311.9,181c-1.1,3.2-0.6,2.8-3.6,4.4c-5.7,0.6-8.6-2.1-8-7.8c-1.8,0.8-4.2,2.2-4.8,3.6l-1.8,2.2
		c9.7,10.4,25.1-0.2,23.2-7.8l-7-1.3C311.1,177.3,312.2,176.7,311.9,181L311.9,181z"/>
	<path fill="#2A4397" d="M260.6,177.4c-2.1,3.6-2.7,9,2.7,10.1c6.3,1.1,6.5-4,7.4-6.7l0.8,0.2l-0.8-0.2
		C267,179,265.9,177.4,260.6,177.4L260.6,177.4z"/>
	<path fill="#F8F7F9" d="M300.2,214l0.4-0.2v0.2H300.2L300.2,214z M298.6,214.9c0,1.5,0.4,1.1-1.1,0.8l-1-0.2
		c-0.9,1,1.3,1.1-1.8,0.9l-1.1-0.2c-0.8,0.6,0,1-2.6,0.9c-7.1-0.5-11.1,0.5-19-0.8c6.1,6.1,13.3,7.4,21.9,3c1.9-1,4.6-2.5,5.5-4.2
		v-0.4L298.6,214.9L298.6,214.9z"/>
	<path fill="#F8F7F9" d="M255.1,179.8c-1.1,3.8,1.4,7.2,3.8,8.4c3.8,1.8,8,1,11.8,0.5c2.5-0.2,3.2-1,4.4-2.5c-1.3,1-0.9,0.9-0.6-0.8
		l-0.4-0.6c-0.9-1.9-1.3-2.2-2.6-3.8l-0.8-0.2c-1,2.7-1.1,7.8-7.4,6.7c-5.4-1-4.8-6.5-2.7-10.1L255.1,179.8L255.1,179.8z"/>
	<path fill="#F7A81E" d="M240.8,161.8l-1,1.3c2.1,2.6,3.8,2.6,6.8,4.8c2.3,1.7,5,3.4,7.6,4.5l0.2-5.3c-2.6-1-0.9-0.2-3-1.9
		c-2.1-1.5-1.5-1-3.6-2.2c-1.7-0.9-5.1-3.4-6.2-4.4L240.8,161.8L240.8,161.8z"/>
	<path fill="#722B2D" d="M294.2,165.5c2.6,0.8,7.8-4.2,12.6-5.3c4.9-1.1,12,0.9,15.8,1.8c-0.9-1.1-0.8-1.1-3.2-2.3
		c-8.6-4.2-16.6-3.2-23.8,3.1c-0.4,0.4-0.9,0.6-1.3,1.4C293.8,165.1,294,165.1,294.2,165.5L294.2,165.5z"/>
	<path fill="#2A4397" d="M301.8,177.1c1.1,2.5,1.3,2.5,2.6,4.2c0.5,0.8,1,1.8,1.4,2.2c2.2,2.5,0.6,0.8,2.6,1.7
		c3-1.7,2.5-1.1,3.6-4.4c-2.6-3-0.2-3.2-4.2-5.4c-0.8-0.4-1.3-0.9-3.4-0.2C302.2,176,302.8,176,301.8,177.1L301.8,177.1z"/>
	<path fill="#EBCAA7" d="M270.8,188.9c-3.8,0.5-8.1,1.3-11.8-0.5c-2.5-1.1-5-4.8-3.8-8.4c-2.1,1.9-1.3,0.5-3.2,1.8
		c-1.8,1.3-1.4,1.4-1.9,2.5c1.9,4,3.4,5.1,8.8,6.1C262.4,190.8,268.2,191.3,270.8,188.9L270.8,188.9z"/>
	<path fill="#00743C" d="M290.8,385.9c1.7,1,1.4,0.5,4.2-0.2c1.8-0.5,3.4-1,5.3-1.5c3.4-0.9,6.6-2.2,9.8-3.1v-1.1
		c-1.3,0-0.9,0.2-0.6-1c-7.4,0.4-4.4-1.1-10.6,2.5C296.3,383,293.5,384.2,290.8,385.9L290.8,385.9z"/>
	<path fill="#722B2D" d="M258.7,161.7l-0.6,0.6l-0.8,0.6l-0.6,0.8l-1.5,3c3.8-1.5,3.6-4.8,9.8-3.1c3.4,0.9,7,3.4,7.4,3.6
		C279.4,168.5,267.4,157.5,258.7,161.7L258.7,161.7z"/>
	<path fill="#095CAC" d="M308.3,185.4c-1.9-0.9-0.4,0.8-2.6-1.7c-0.4-0.4-0.9-1.4-1.4-2.2c-1.3-1.8-1.3-1.8-2.6-4.2l-1.4,0.4
		C299.7,183.4,302.6,186,308.3,185.4L308.3,185.4z"/>
	<path fill="#CD9888" d="M236.2,160.8c0.9-2.6,0.2-1,1.4-1.8c0,0,0.5-0.2,1.4,0.4c3.4,2.3,0.6-0.2,1.9,2.3l0.8-3.1
		c-2.6-1.7-3-2.3-6.2-3.4c-1.4,1.1-1.1,0.6-2.2,2.6l1.5,1.4C235.9,160.4,235.1,159.4,236.2,160.8L236.2,160.8z"/>
	<path fill="#EBCAA7" d="M274.6,185.7l-0.4-0.6L274.6,185.7c-0.2,1.7-0.6,1.8,0.6,0.8c4.5-6.1-1.1-8.5-5.9-9.4
		C271,178.7,276.9,182.4,274.6,185.7L274.6,185.7z"/>
	<polygon fill="#570101" points="278,369.8 282.6,368.4 281.3,364.2 277.1,366.7 	"/>
	<path fill="#1E2124" d="M335,338c1.8,4,4.8,11.4,5.1,15.8l-2.1-12.6c-0.2-0.4-0.5-1.9-0.6-2.2c-0.9-1.7-0.2-0.8-1.8-1.8L335,338
		L335,338z"/>
	<path fill="#696A6D" d="M236.2,160.8l3.8,2.3l1-1.3c-1.3-2.5,1.5,0.2-1.9-2.3c-0.9-0.6-1.4-0.4-1.4-0.4
		C236.4,159.8,237,158.2,236.2,160.8L236.2,160.8z"/>
</g>
</svg>
