<svg version="1.1" xmlns="http://www.w3.org/2000/svg" x="0px" y="0px" width="640px" height="480px" viewBox="0 0 640 480" enable-background="new 0 0 640 480"><rect fill="#D5D5D5" width="640" height="480"/><g><path fill="#0070BA" d="M338.1,225.6c2.4,2.9,0.6,10.3,2,14.1c1.5,4.4,3.8,7.3,5,12.2h-13.7c1.1-4.3,3.3-7.8,4.9-11.8C338.1,235.4,336.2,229.3,338.1,225.6L338.1,225.6z M251.7,232.7c8.4-0.6,4.7-1.5,11.2-13.6c1.3-2.3,3.7-5.9,4-7.7c1.5-6-2-8,4-8.7c2.3,3,0.6,6,2.1,9.8l7.8,15.3c2.1,5.1,1.3,4.3,7.3,4.4c-2.6,1.5-1.8,0-4.3,1.6l5,14.6c-4.3-4-5.3-10.5-9.2-15.2l-8.4-0.4c-0.5,3.9,0.3,5.1-1.3,7.9c-0.1-0.3-0.4-0.9-0.4-0.8l-1.1-6.8c-9.6-1.4-8.8-0.4-12.2,6.3c-1.8,3.4-5.8,9.3-6.2,12.2l5.7-18L251.7,232.7L251.7,232.7z M290.6,224.5c4.4,1.8,16.9,24.7,18.6,30.9c-1.1-0.9-0.8-0.4-1.8-1.5C304.5,250.6,288.1,227.4,290.6,224.5L290.6,224.5z M329.4,207.9c0,0-0.8-2.5,4.3-0.9c0.4,0.1,4,2.1,4.4,2.4c4-1.5,4-3.4,9.6-2.4c1,5.4-1,5.9-2.4,9.7c0.3,0.5,1.8,2.9,2,3.5c2,4.9-0.1,4.8-0.6,5.1c0,0,0.5,1.9-3.9,0.4c-1.4-0.5-3-1.6-4.7-2.3c-10.3,5-11.8,3.3-6.8-6.8c-0.8-1.6-1.5-2.6-2-4C326.6,206,329.4,207.9,329.4,207.9L329.4,207.9z M383.8,225.3c0,10-1.6,15.8,1.9,21.3c0.3,0.5,1,1.5,1.4,2.4c1.3,2.6,0.9-0.8,0.9,2.6l-38.8,0.3c-0.3-2.8,0.8-3,1.4-6.4l22.3-0.1l0.1-13.1c-13.6,0,7.8,3.9-19.4,3.8c-0.1-0.3-0.4-0.9-0.4-0.8c-0.1,0.3-2.8-3.5-3-6.3c1-0.6,0.5-0.6,2.5-1c1.1-0.3,1.6-0.3,2.8-0.4l17.3,0.1c0.8-4.9,0.8-3.6-1.9-6.2c-1.9-1.8-3.1-2.6-5.9-3.6c-1.6,3.6-1.8,3.1-4.5,6c-3.4-0.9-6.5-3.5-7.9-6.5c1.6-3,2.8-3.5,4.3-6.8c-4.9-4.4-12.5-8.4-9.6-11.6c3.5-3.8,4.4,0.9,7.3,2.1c5.4,2.1,1.4-3.1,6.8,0.8c0.5,0.4,6.4,5.4,6.4,5.4c4.7,5.7-3.1,1.5,2.6,6.9C374.5,218,380.4,221.4,383.8,225.3L383.8,225.3z M422.7,184.5c11.2,11.4,19.3,39.6,19.9,60.1c0.8,24.6-6.4,47.1-17,64c-50.9,81.2-167.6,72.3-210.4,0.5c-10.7-18-18.1-37.9-17.5-63.5c0.5-20.7,8.7-49.6,20-61.1c20.7,7.4,14.6,10.8,11.8,17.8c-3,7.8,2.5,6.4,0.8,12.2c-1.4,4.4-3.1,7.9-4.3,13.3c-8.9,39.1,8.3,76.2,39.4,97.3c14,9.4,33.5,16.2,54.4,16.3c43.7,0.4,74.2-25.6,87.9-53.6c12.2-24.9,11.6-46.6,2.8-72.6c-2.3-6.7,3.1-4.8,0.8-12.2C408.9,196.1,400.8,192,422.7,184.5L422.7,184.5z M284.3,194l25.2,0.1v49.3C305.9,239.1,287.1,201.2,284.3,194L284.3,194z M381.8,202.2c35.9,4.5,10.6-14.2,19.6-20.2c3-2,13.3-5.3,17.8-7.5c9.6-4.9,10.6-7.9,13.9-10c4.9,8.9,2.8,11.3-5.7,15.4c-5.3,2.6-12.6,5.8-17.5,8.7c-9.4,5.8,0.4,11.3-0.3,18.3c-0.4,4.1-3,5.3-6.8,6.8c-3,1.3-6.2,2.5-9.4,2.9l-9.2-11c-0.4-0.5-1-1-1.4-1.5C381.8,202.3,383.1,203.9,381.8,202.2L381.8,202.2z M207.1,164.2c3.9,2.6,3.7,4.8,14,10c4.4,2.3,14.6,5.4,17.8,7.5c9.4,6.3-16.7,24.1,19.8,20.2c-1.1,1.6-0.1,0.3-1.4,1.6c-0.8,0.8-1.1,1.1-1.9,2c-1.3,1.4-2,2.1-3.3,3.5c-2.5,2.8-3.8,5.1-6.3,7c-33.1-8.4-0.1-19.1-16.2-28.1c-5.8-3.3-12.2-5.9-17.5-8.7C203.7,174.9,202.6,173.1,207.1,164.2L207.1,164.2z M396.4,155.6c-3.7,3.1-9.1,3.8-10.8,8.4c-1.6,4.3,3.9,13.8-4,8.5c-10.2-6.8-1-16.8,5.3-22.9C390.6,151.3,392.9,153.7,396.4,155.6L396.4,155.6z M244,155.6c3.3-1.9,5.5-4.1,9.6-5.9c8.4,9,13.6,13.8,7.3,21c-0.8,0.8-2.1,2.3-3.1,2.5c-7.4,2.3,1-5.3-4.5-11.4C251.1,159.3,246.9,158.1,244,155.6L244,155.6z M330.3,146.7l3.5,0.5l5.4-1.6c1.4,1.3,1.1-2.4,1.3,2.4c7.6,1.8,12.8,2.9,19.3,6.5c7.7,4.3,7.7,5.7,11.5,13.8c0.1-0.1,0.4-0.4,0.5-0.5c0.1-0.1,0.4-0.4,0.5-0.5l2.6-2.5c1.3,5.7,5.2,12.7,12.6,9.8c3-10.9-9.3-8.8,14-18c13.1-5.1,9.6-7.5,16.1-16.2c2,3.4,6.3,8.9,7.1,12.3c-8.4,12.4-30,16.6-31.9,20.3c-0.8,7.4,3.7,5.5,3.3,12.2c-4.2,4.4-9.9,4.6-17.3,2.6c-7.4-2-8.1-4.5-11.5-10c-2.5,3.1-3.4,7.3-4.7,8.9c-1.6,2.3-0.4,2.4-5.2,0.6c0.9-7.3,7.8-12.2-2.6-18.3c-4.7-2.8-13.6-5.9-20.4-5.9c-1,2-0.9,1.1,2.8,2c23.7,5.3,22.9,7.8,18.5,20.7c-4.5-0.6-9.8-2.9-14.7-4c-5.5-1.3-10.6-1.8-16.4-2.1l-0.1,78.4l82.7-0.1c0.8-20.5-8.2-29.8-11.5-39.4l12.3-5c5.2,18.1,9.3,27.2,5.9,48.6c-12.5,78-116.5,107.2-169.9,40.6c-7.9-9.9-14.9-24-17.4-39.7c-3.7-22.1,0.4-30.9,5.7-49.3l12.5,4.6c-4.8,13.1-11.2,15.7-11.7,40.3h83.6v-78.4l-0.9-0.3c-12.8-0.8-20.7,4.1-31.2,5.9c-3.8-10.3-6.2-17.2,20.3-21.2l-1.5-1.5c-8.6,1.3-26.4,5.5-23.2,17.1c1.8,6.4,5.2,4.9-0.5,8.3c-4-2-2.9-6-6.7-10.5c-3.5,5.4-4.5,8.2-12.2,10c-7.7,1.9-13,1.5-16.6-3.3c0.5-6.4,4-4.6,3.4-11.6c-2-4.1-22.4-7.2-32.2-20.6l7.6-12.1c3.8,5,2.6,11.3,16.9,16.4c22.2,8.2,10.7,7.9,13.2,17.7c6.8,3,11.5-3.9,12.6-9.9c0.3,0.3,0.5,0.5,0.8,0.6l2.9,3c3.4-7.7,3.8-9.4,10.8-13.6c4.2-2.4,11.5-5.3,17.1-6.2c1-6.3,5.2-12.2,11.2-13.1c9.9-1.4,7.1,9,14.5,6.7c1-0.9,0.6-2.9,0-4.3l-6-9.5c-11.1-0.8-26.1,2.6-35.4,6.3c-17.5,6.8-16.5,11.7-22.9,17.8c-3.3-5.8-12.7-9.4-3-18.5c31.1-28.9,104.1-26.5,130.3,1c6.9,7.3-0.5,13.8-4.8,17.6c-3.7-9.2-13-15.1-23-18.7c-8.7-3.1-25.1-6.8-34.9-5.1C326.5,132.7,334.6,138,330.3,146.7L330.3,146.7z M444,262.3v-26.9c-0.9-2.3-2.4-15.9-7.1-28.3c-3.7-9.4-7.7-16.1-12-23.6c3.1-3,10.2-4.5,12.1-9c2.6-6.5-7.6-18.8-13-27.2c-2-3.1-5.9-9.7-8.1-11.8c-2.4,9.2-4.2,13.2-10.8,17.2c-5.7,3.4-7.6,3.6-16.9-4.9c4-8.4,2.6-10.4-3.5-15.7c-20.7-18-42.6-17-49.6-20.1h-31c-7.9,3.6-28.8,2.6-49.5,20.6c-1.8,1.5-4.3,3.9-5,6.8c-1.3,5.8,1.3,4.5,2,9.3c-9.1,4.4-8.3,9.7-17.4,3.6c-6.4-4.3-7.9-7.9-10.1-17l-16.4,24.9c-12.6,19.7,0.4,15.6,7.6,23.4c-8.9,16.1-15.6,27.7-18.5,50.1c-2.8,21.3,0.8,42.7,8.4,60.1c13.3,30.5,38.8,55.4,72.7,67.1c64.9,22.5,135.7-10,159-71.2C439.7,282.1,442,266.8,444,262.3L444,262.3z"/><path fill="#FEFEFE" d="M318.1,358.6c-0.3-3.9-0.9-8.2,0.3-11.8c4.4-0.1,4.3,2.3,5.3,5.5l1.1-2c2.6-5.3,0.4-3.6,5.3-3.9v12.1c-3.1,0-1.4-0.3-3.5-0.3L318.1,358.6L318.1,358.6z M305.1,357.7c-1.3-3-0.4-9.9,1.1-12.1c3.1,1,1.5,1.9,3.7,4.5c1.3-2.8,1-3.4,4.9-3.5c1.3,3.1,0.1,9.4-0.9,12.1c-4.2-0.9-1.6,0-2.8-1.9c-0.1-0.3-0.4-1.1-0.5-1.4c0-0.1-0.3-0.4-0.3-0.6c0-0.3-0.1-0.5-0.4-0.6C308.6,356.8,308.6,357.6,305.1,357.7L305.1,357.7z M290.5,343.3c1.9,11.6-8.3,12.8-10.8,7.2C276.6,343.9,283.3,337.4,290.5,343.3L290.5,343.3z M369.2,347.1l-0.8,2c-5.3-0.6-0.6-1.4-5.9-0.6c-1.6,3.6,0.4,2-2.9,3.5c-1.5-2.3-1.1-3.1-1.3-6.7c0-8.2,2-7.8,6.2-3C365.9,344,368.1,345.9,369.2,347.1L369.2,347.1z M341.1,345l2,9.8c-0.4,2.4,0.1,0.6-1,2c-2.8-1.1-1.5,0.8-2.6-4.1c-1-4.5,0.8-2.9-2.3-4.3c-3.5,4.5,2.9,6.7-1.9,9.5c-3-2.1-2.9-8.3-3.3-12.1L341.1,345L341.1,345z M290.6,355.2c1.5-6.5,2.6,1.6,4.7-11.3l7.9,1.6c0,3.6-0.4,10-3.9,11.8c-2.9-4,1.1-5.4-1-9C296.2,353.1,296.4,356.5,290.6,355.2L290.6,355.2z M355.5,353.7c-3.4-1-1.9-0.6-3.4-4.1c-0.6,1.1-1.1,3-1.4,3.4c-1.1,2.1-0.4,1.5-2.8,2.5c-2.3-2.5-4.3-9-3.3-12.1c2.6,0.5,1.1-0.1,2.8,1.4c0.3,0.3,0.6,1.1,0.8,1.3l0.8,1.4c1.3-3.8,0.3-4.5,3.8-5.9C354.5,343.4,357.6,350.6,355.5,353.7L355.5,353.7z M261.3,341.3c0.1-0.1,0.4-0.4,0.5-0.5c2.9-3.8,2.4-12.6,12.1-4.1c-0.6,2.4-1.6,4-2.6,5.9c-1.9,3.4-1.9,3.3-4,4.1c-1.4-2.3-0.8-3-0.4-4.8c-3.1,1.6-3,2.6-6.3,0.5L261.3,341.3L261.3,341.3z M369.2,347.1c1.1-7.2-0.8-5.5-2-11.7l6.9-2.8c1.9,2.4,2.4,4.5,4.4,6.3c1.6,1.4,1.4-0.4,2.6,2.3c2.1,4.1-0.4,3.1-0.5,3.3c-3.3,0.9,0.1-2.5-4.9,0.5c-4.5,2.8,0.6,1.5-3.7,4.5c-0.3-0.1-0.5-0.4-0.6-0.5L369.2,347.1L369.2,347.1z M249.8,335.6c0.8-2.5,14.4-15.1,10.6-0.1c-0.1,0.8-0.9,3.4-1.1,3.8c-1.1,2.3-0.5,1.1-1.8,1.9c-1.4-1.3-0.8-0.9-1.4-2C251.6,331,256.4,339.5,249.8,335.6L249.8,335.6z M385.3,337c-0.8,1.8-0.4,2.4-2.4,3.8c-2.3-2.3-4-9.5-3.1-12.3c2.8-1.1,6.4,1.6,9.1,4c1.8,1.5,1.3,0.6,1.9,3C385.9,337.8,386.8,333.4,385.3,337L385.3,337z M241.3,328.8c1.3-3.8,4.8-7.2,7.6-9.3c2.1,1.4,0.8,0.9,1.5,1.9c3,3.5,1.9,0.9,5,3.6c-1.1,1.3,1,0.6-2.9,1.6c-0.5,0.1-2.8,0.3-3.5,0.4c0.1,3.8,1,5-1,7.3c-3-2-1.9-0.8-2.3-5.8C242.8,330.5,244.3,330.6,241.3,328.8L241.3,328.8z M241.9,321.9c-2.3,7.7-12.8-0.9-6.5-7.3c5.8-5.9,14.2,1.8,8.6,6.7c-3.3-2.1-1.1-0.9-1.8-5.3c-3.8,0.3-4.5,0.6-5.3,4.1L241.9,321.9L241.9,321.9z M394.6,315.4c5-0.5,4.2,2.3,8.9,4.9c-1.4-7.2-4.4-3-5.2-8.9c4-0.3,6.5,2.8,9.9,7.9l-8.8,9.4c-3-1.3-3.5-2.3-5.7-4.3c-2.3-2.1-3.1-1.9-3-5c6-0.8,3.8,4.3,9.1,4.1C398,318.6,395,320.4,394.6,315.4L394.6,315.4z M409.1,307.8l7.4,0.1c-1.1,3.1-1.5,2.8-5.4,3.5c1.3,1.8,1.5,1.8,1.1,4.1c-4-0.5-8.8-4.3-10.5-6.9c1.6-1.9,1-1.8,3.5-1.1c-0.1-4.8-0.9-3.6,1.9-5.5C408.9,304.4,408.1,304.2,409.1,307.8L409.1,307.8z M223.9,309.1c0.6-2.8,2.5-3.4,4.8-5.3c4.5-3.5,3-1.4,7.2-2.8l3.8,5.3c-2.3,3.4-0.5,2.4-4.8,5.8c-8.1,6.4-6.5,2.4-6.8,2.3c-0.1-1-0.4-0.5,0.5-1.8l2-2.3C226.3,310.4,226.7,311,223.9,309.1L223.9,309.1z M409.2,300.8c-0.4-4.8,0.4-5.3,2.4-7.9C427.9,291.2,423,313.3,409.2,300.8L409.2,300.8z M217,297.8c0.6-3.5-1.3-0.8,1.6-3c2.3-1.8,6.9-3.8,9.2-3.3c0.9,3.9,0.3,1.5-3,4.6l6.5,1.1c-0.9,4.1-1.9,3.4-5.2,5c-4.4,2.3-8.6,2.9-4.5-1.9c0.1-0.1,0.5-0.3,0.6-0.6c0.1-0.4,0.5-0.4,0.6-0.4L217,297.8L217,297.8z M416.7,281c4.3,0.5,10.1,2.4,11.6,5.1c-2.8,3.4-0.4,1.3-9.6-1.1c2.8,4.4,8.4,3.6,6,9.7c-5.4-1.8,0-1-4.7-4c-1.9-1.3-3.3-1.4-5.7-2.8L416.7,281L416.7,281z M219.6,291.1c-6.5,5.1-11.1-7.9-2.4-10.2c6.8-1.8,11.2,6.9,4.7,9.8c-1.4-2.4-0.1-2.9-0.5-6.2c-4-0.4-4.2-0.9-5.8,2.8C218.3,291.3,217.1,286.5,219.6,291.1L219.6,291.1z M425.2,271.5l5.5,0.9c1,3.9,0.4,4.8-0.6,8.8c-3.8,0.4-9.6-0.8-11.8-3.6c2.3-3.3,0.1-1.4,4.5-1.6L425.2,271.5L425.2,271.5z M208.3,272.7c8.8-9.8,18,2.5,9.4,6.3c-1.5-2.5-0.1-3.4-0.3-6.4l-5.8,0.8c0.9,8,1.4-0.6,3.3,6.2C209.8,281.9,208.1,277.9,208.3,272.7L208.3,272.7z M209,256.9c8.2-4.1,13.1,6.8,5.9,10.2C207.3,270.7,201.2,260.8,209,256.9L209,256.9z M425.2,264.3c0.1-0.4,0.5-0.3,0.8-0.4l-2.1-2.1c-1.4-1.8-0.8,1.5-1.4-3.1c7.1,0.3,10.3,0.4,12.1,3.4c-2,2.5,0.5,0.8-2.6,1.4l-1.9,0.3c-0.1-0.3-0.4,0.1-0.6,0.3c0.9,2.9,0.3,0.6,2.4,2.6c1.9,1.8,0.8-0.5,1.6,2.3c-2.4,1.5-11,1.1-12.1-2.6C424,263.7,424.5,266.1,425.2,264.3L425.2,264.3z M427,252.6c0.1-0.4,0.5-0.3,0.8-0.4c-2.4-1-7.7-4.1-3-5.5c2.1-0.6,8.8,0,10.7,0.3c-1,5.8,0,1.4-4.8,4c2.6,1.5,4.7,1.8,4.3,5.7c-4.4,0.5-9.9,1-12-1.5c1-2-0.1-0.6,1.9-1.6L427,252.6L427,252.6z M208.3,249.2c-3-3-3,2.6-2.9-3.8c9.8-3.1,14.9-0.3,10.6,8.8l-5-0.1C209.8,252.8,209.3,250.2,208.3,249.2L208.3,249.2z M428.4,238.4c3-2.5,2-3.5,6-4.6c-0.1,4.5,0.6,2.8-2,4.9c4.8,5.5-0.6-3.4,2.3,2.5l0.3,1.9c-3.7,0.8-8.7,1.5-11.3,0.6c-1.1-2.9-1.5-1.8,1.6-3.5c-2.1-1.9-2.5-2-2.5-5.7L428.4,238.4L428.4,238.4z M217.2,234.4c1.1,3.4,0.5,6.2-0.1,9.2c-3.3-1-1.8,0.1-2.8-2.8c-0.5-1.4,0.8-0.1-0.5-2.8c-1.9,4.3,1.3,3-2.9,4.5c-2.3-3.4,0.3-2.1-1.8-5.4c-1.8,5,0.4,4.3-3,5.7c-1.5-2.8-0.9-6.2,0-9.2L217.2,234.4L217.2,234.4z M423.3,232.9c-5.9-7.9-0.8-13.1,8.2-10.7C435.8,229.7,433.2,233.9,423.3,232.9L423.3,232.9z M210.9,231.2c-7.9-2-4-12.6,4.7-9.8c5.7,1.8,6.2,12.1-2.4,10.4c1.1-5.4,0.6-0.4,3.3-4.6c-1.8-2.9-2.8-3.1-6.2-1.8C210.5,230.5,212.7,226.8,210.9,231.2L210.9,231.2z M417.8,213.6c2.4-2.4,5.8-4,9.9-3.9c1.3,2,2.5,4.4,3,8.2l-11.5,3.6C418.4,218.2,417.6,217.6,417.8,213.6L417.8,213.6z M210.8,217.7c-0.6-4.1-0.1-5.9,2.1-9.3c3.8,0.5,8.1,2,10.8,4.1c-0.6,3.4-1.5,5.4-3.5,7.5L210.8,217.7L210.8,217.7z M422.7,184.5c-21.8,7.7-13.7,11.8-11.6,18.5c2.4,7.4-3,5.5-0.8,12.2c8.8,26,9.4,47.6-2.8,72.6c-13.7,28-44.2,54-87.9,53.6c-20.9-0.1-40.4-6.9-54.4-16.3c-31.1-21.1-48.2-58.3-39.4-97.3c1.3-5.3,3-8.9,4.3-13.3c1.8-5.8-3.7-4.4-0.8-12.2c2.6-7,8.8-10.4-11.8-17.8c-11.3,11.4-19.5,40.4-20,61.1c-0.6,25.6,6.7,45.6,17.5,63.5c42.8,71.8,159.5,80.6,210.4-0.5c10.6-17,17.9-39.4,17-64C442,224,433.8,195.9,422.7,184.5L422.7,184.5z"/><path fill="#FEFEFE" d="M297.2,148.5c0.9,7.9,2.6,9.4,6.4,14.4l1.5,1.5c-26.6,4-24.1,10.9-20.3,21.2c10.6-1.8,18.4-6.7,31.2-5.9l0.9-0.9v-4.5l-3.8-1.9c-2.8-1.4-0.3,1-2.6-1.8c2.4-2.6,4.7-1.6,9.3-1.6c3.9,0,7.4-0.3,10.7,0.5c-1.1,5.3-0.8,0.6-5.7,4.6l-0.1,5c5.9,0.4,11,1,16.4,2.1c4.9,1.1,10.2,3.4,14.7,4c4.5-12.9,5.2-15.4-18.5-20.7c-3.7-0.8-3.9,0-2.8-2c2.5-5.8,4.4-6.9,5.9-15.2c-0.1-4.8,0.3-1.1-1.3-2.4l-5.4,1.6l1,1.9c-4.5,2.6-7.8,8.7-14,9.7c1.5-3.6,2.4-3.8,4.9-6.3c2.3-2.3,2.8-3.5,4.8-5.9c4.4-8.7-3.8-13.9-7.2-18.1c9.8-1.6,26.2,2,34.9,5.1c10.2,3.6,19.5,9.5,23,18.7c4.3-3.8,11.7-10.3,4.8-17.6c-26.3-27.5-99.2-29.9-130.3-1c-9.7,9-0.3,12.7,3,18.5c6.3-6.2,5.4-11,22.9-17.8c9.3-3.6,24.3-6.9,35.4-6.3l6,9.5c0.6,1.4,1,3.4,0,4.3c-7.3,2.3-4.4-8-14.5-6.7C302.3,136.4,298.2,142.3,297.2,148.5L297.2,148.5z"/><path fill="#FEFEFE" d="M324.1,337l-0.1-70.7c5.8-1.4,71.3-0.5,82.7-0.5C403.2,308.4,358.2,339,324.1,337L324.1,337z M233.6,265.7h83.1v71.4C273.9,336,237.2,305.4,233.6,265.7L233.6,265.7z M407.1,257.8c-1.3,1-0.4,1.1-4.8,1.1l-15.6-0.1c-13,0-55.7,0.9-62.6-0.4c-2.4-6.7-0.4-65.5-0.9-78.4l-6.4-0.1v78.4h-83.6c0.5-24.6,6.9-27.2,11.7-40.3l-12.5-4.6c-5.3,18.5-9.3,27.2-5.7,49.3c2.5,15.8,9.4,29.8,17.4,39.7c53.3,66.7,157.3,37.4,169.9-40.6c3.4-21.5-0.6-30.5-5.9-48.6l-12.3,5C399,228,407.9,237.3,407.1,257.8L407.1,257.8z"/><path fill="#0070BA" d="M335.8,301.6h-0.5c-2-0.1-1.5,0.4-1.1-1.9c-0.8-5.7-2.1-7.9-0.6-14.2c-0.3-4.1-0.4-1.4,0.9-2.4c1.3-3.4,2-4.9,4.5-6.5c-0.5-4.1-0.4-1.4,1.1-2.3l5-2.9c0.3-0.3,0.6-0.5,0.8-0.6l1.6-0.9c3-1.3,0-0.1,2.5-0.5l11.5,1.1l-4.9-2.8c0.3-0.1,0.5-0.1,0.6-0.3c8.2-1.4,21.5,9.5,20.9,24.4c-0.9,20.8-21.2,21.2-23.2,24.2c2,5.8,5.4-0.1,11,5.3h-24.3c4-4.1,7.7-1.5,11.6-4.4c-2.5-6-7.4,1.5-19.4-12.8C336.2,299.8,336,306.9,335.8,301.6L335.8,301.6z M324.1,337c34,2.1,79-28.6,82.6-71.2c-11.6,0-76.9-0.9-82.7,0.5L324.1,337L324.1,337z"/><path fill="#0070BA" d="M251.6,293.9c2.1-4.5,6.8-9.5,9.9-13.6c2.8-3.5,6.3-9.2,9.7-12.2c10.6,3.4,19.5,5.4,21.7,12.8c9.6,0.4,15.2,11.4,20.4,20.6c-2,3.5-16.9,21-19.6,23.4c-3.4-1.6-7.1-5.7-9.7-8.8c-7.6-9.2-4.9-4.3-10.2-8.3c-2.5-1.9-1.5-2.6-5-4.8C262.9,299.7,256.8,299.2,251.6,293.9L251.6,293.9z M233.6,265.7c3.7,39.7,40.4,70.2,83.2,71.4v-71.4H233.6L233.6,265.7z"/><path fill="#FEFEFE" d="M282.1,307.3c-2.1-3.8-1.8-29.3-1.6-29.9c0.6-3.1-0.4-1.9,2.4-2.9C284.5,277.2,284.7,305,282.1,307.3L282.1,307.3z M251.6,293.9c5.2,5.1,11.5,5.7,17.1,9.2c3.5,2.1,2.5,2.9,5,4.8c5.3,4,2.5-1,10.2,8.3c2.5,3.1,6.2,7.2,9.7,8.8c2.9-2.4,17.6-19.8,19.6-23.4c-5-9.3-10.8-20.2-20.4-20.6c-2.1-7.4-11.1-9.4-21.7-12.8c-3.4,3-6.9,8.7-9.7,12.2C258.4,284.5,253.7,289.4,251.6,293.9L251.6,293.9z"/><path fill="#FEFEFE" d="M385.7,246.6c-3.4-5.7-1.8-11.3-1.9-21.3c-3.4-3.8-9.3-7.2-13.3-10.9c-5.8-5.3,2-1.3-2.6-6.9c0,0-6-5-6.4-5.4c-5.4-3.9-1.5,1.4-6.8-0.8c-2.9-1.1-3.8-5.9-7.3-2.1c-2.9,3.1,4.8,7.2,9.6,11.6c-1.5,3.3-2.6,3.8-4.3,6.8c1.5,3.1,4.7,5.7,7.9,6.5c2.8-2.8,2.9-2.4,4.5-6c2.8,0.9,4,1.9,5.9,3.6c2.6,2.4,2.6,1.1,1.9,6.2l-17.3-0.1c-1.3,0.1-1.6,0.1-2.8,0.4c-2,0.5-1.5,0.4-2.5,1c0.4,2.8,2.9,6.7,3,6.3c0.1-0.1,0.3,0.4,0.4,0.8c27.1,0.1,5.8-3.9,19.4-3.8l-0.1,13.1l-22.3,0.1c-0.6,3.4-1.6,3.6-1.4,6.4l38.8-0.3c0-3.4,0.4,0-0.9-2.6C386.7,248.1,385.9,247.1,385.7,246.6L385.7,246.6z"/><path fill="#FEFEFE" d="M273.2,177.8l-3.9-9.5l-2.9-3c-0.3-0.1-0.5-0.5-0.8-0.6c-1.3,6-5.8,12.9-12.6,9.9c-2.6-9.9,8.9-9.5-13.2-17.7c-14.1-5.3-13-11.4-16.9-16.4l-7.6,12.1c9.9,13.4,30.2,16.4,32.2,20.6c0.8,7-2.9,5.3-3.4,11.6c3.7,4.8,8.9,5.1,16.6,3.3C268.7,186,269.6,183.2,273.2,177.8L273.2,177.8z"/><path fill="#FEFEFE" d="M371.1,168.3l-3.8,9.4c3.4,5.5,4,7.9,11.5,10c7.3,2,13.1,1.8,17.3-2.6c0.4-6.7-3.9-4.8-3.3-12.2c1.9-3.6,23.4-7.9,31.9-20.3c-0.8-3.4-5-8.9-7.1-12.3c-6.5,8.7-3,11.2-16.1,16.2c-23.3,9.2-11.1,7-14,18c-7.4,2.8-11.5-4.1-12.6-9.8l-2.6,2.5c-0.1,0.1-0.4,0.4-0.5,0.5C371.5,167.8,371.2,168,371.1,168.3L371.1,168.3z"/><path fill="#D9251D" d="M381.8,202.2c1.3,1.8,0,0.1,1.3,1.6c0.4,0.5,0.9,1,1.4,1.5l9.2,11c3.3-0.4,6.3-1.6,9.4-2.9c3.8-1.5,6.4-2.6,6.8-6.8c0.6-7-9.2-12.6,0.3-18.3c4.9-3,12.2-6,17.5-8.7c8.3-4.1,10.5-6.5,5.7-15.4c-3.4,2.1-4.4,5.1-13.9,10c-4.4,2.3-14.9,5.5-17.8,7.5C392.4,188,417.7,206.5,381.8,202.2L381.8,202.2z"/><path fill="#D9251D" d="M257.3,203.7c1.3-1.4,0.1,0,1.4-1.6c-36.5,3.9-10.3-13.9-19.8-20.2c-3.1-2.1-13.3-5.3-17.8-7.5c-10.2-5.3-10.1-7.5-14-10c-4.7,8.9-3.5,10.7,4.9,15.2c5.3,2.8,11.6,5.3,17.5,8.7c16.1,9.2-17,19.7,16.2,28.1c2.5-1.9,3.8-4.3,6.3-7c1.3-1.4,1.9-2.1,3.3-3.5C256.2,204.9,256.6,204.5,257.3,203.7L257.3,203.7z"/><path fill="#D9251D" d="M334.4,163c6.7,0,15.7,3.1,20.4,5.9c10.6,6.2,3.5,11,2.6,18.3c4.8,1.8,3.5,1.5,5.2-0.6c1.3-1.6,2-5.8,4.7-8.9l3.8-9.4c-3.8-8.2-3.8-9.7-11.5-13.8c-6.4-3.5-11.7-4.6-19.3-6.5C338.9,156.2,337,157.2,334.4,163L334.4,163z"/><path fill="#FEFEFE" d="M294,200h9.4v17.7c-2.5-2-3.4-4.6-5-8C296.9,206.4,295.4,203.7,294,200L294,200z M284.3,194c2.6,7.2,21.4,45.1,25.2,49.3V194H284.3L284.3,194z"/><path fill="#D9251D" d="M269.3,168.3l3.9,9.5c3.8,4.5,2.6,8.7,6.7,10.5c5.7-3.4,2.4-1.8,0.5-8.3c-3.3-11.6,14.5-15.8,23.2-17.1c-3.8-5-5.5-6.5-6.4-14.4c-5.7,0.9-12.8,3.6-17.1,6.2C273,158.8,272.7,160.6,269.3,168.3L269.3,168.3z"/><path fill="#FEFEFE" d="M340,307.4c-4.2-2-2.6-1.4,0.4-2.9L340,307.4L340,307.4z M361.3,270.6c1.9,0.4,3.4,0.6,4.7,1.5c2.5,1.6,1.8,2,2.1,2.6l1.9,0.5l0.1,1.5c1.3,0.8,0.5,0,1.8,1.1c0.3,0.1,1.3,1.4,1.4,1.5c1.4,2.3,0.8,1.3,0.9,4c3,3.9,2.3,11.2,0.1,16.4c-0.3,0.6-0.9,1.9-1.4,2.5c-1.3,1.5-0.5,0.6-2,1.8l2.9-6.4l-5.3-4.9l-2.9,2.1l-1.9,4l6.3,6.3c0.1-0.1,0.4,0.3,0.5,0.5l-2.9,0.3c-1.3-2.6-3-3.4-5-5.9l-3.7,1.8l-2.9,3.8l4.7,5l4.3-0.6c-5.8,4.4-20.7,4.4-24.9-2.6c5,1.8,8.2-0.5,12.7-2.4l-12.2-12.7c-2.4,4.4-2.4,7-4.7,9.2c0.1,5.3,0.5-1.8-2.1,2.9c12,14.3,16.9,6.8,19.4,12.8c-3.9,2.9-7.6,0.1-11.6,4.4h24.3c-5.5-5.4-9.1,0.5-11-5.3c2-3,22.3-3.4,23.2-24.2c0.6-14.9-12.7-25.7-20.9-24.4c-0.1,0-0.5,0.1-0.6,0.3L361.3,270.6L361.3,270.6z"/><path fill="#FEFEFE" d="M269,231.8l-8.2,0.3l8.2-16.6c3.7,0.9,1-2.4,5.8,7c1.8,3.5,3.4,5.8,4.5,9.7h-8.1c-0.1-3.6,0.5-4.4-1-7c-0.1,0.3-0.4,0.3-0.4,0.6C269.6,227.1,268.8,225,269,231.8L269,231.8z M256,233.9l-5.7,18c0.4-2.9,4.4-8.8,6.2-12.2c3.4-6.8,2.6-7.8,12.2-6.3l1.1,6.8c0-0.1,0.3,0.5,0.4,0.8c1.5-2.8,0.8-4,1.3-7.9l8.4,0.4c3.8,4.6,4.9,11.2,9.2,15.2l-5-14.6c2.5-1.8,1.6-0.1,4.3-1.6c-5.9-0.1-5,0.9-7.3-4.4l-7.8-15.3c-1.5-3.8,0.1-6.7-2.1-9.8c-6,0.6-2.6,2.6-4,8.7c-0.5,1.9-2.8,5.5-4,7.7c-6.5,12.1-2.9,12.9-11.2,13.6L256,233.9L256,233.9z"/><path fill="#0070BA" d="M354,305.7l5,5.4c-5.4,0.9-9.8,1-14-1.5L354,305.7L354,305.7z M358.7,301.7l-5.2,1.9c-2.9-3.8-5.2-2.9-4.2-8.2c-4.3,1.3-5.4-1.5-7.8-4.4c0.8-2.4,2.9-5,4.2-6.7c4.8,2.1,5.4,5.3,7.4,7.3c0.8,0.8,2.8,2,4.3,3.4c1.5,1.5,2,2,3.1,3.6c-0.1,0.1-1,1.4-1.3,1.8L358.7,301.7L358.7,301.7z M338.9,276.5l6,6.8c-1.8,2.5-2.6,3.6-4.7,5.9c-2.6-1.6-4.4-3.3-5.8-6.2c-1.1,1-1-1.8-0.9,2.4l5.7,5.5c-0.6,1.9-1.3,3.3-1.9,5c-1.1,2.9-0.4,4.3-3.1,3.6c-0.4,2.3-0.9,1.8,1.1,1.9h0.5c2.3-2.3,2.3-4.8,4.7-9.2l12.2,12.7c-4.5,1.9-7.7,4-12.7,2.4c4.2,7,19,7,24.9,2.6l-4.3,0.5l-4.7-5l2.9-3.8l3.7-1.8c2.1,2.4,3.8,3.1,5,5.9l2.9-0.3c-0.3-0.1-0.5-0.6-0.6-0.5l-6.3-6.3l1.9-4c-0.3,0.1-0.5,0.3-0.6,0.4c-0.1,0.1-0.5,0.3-0.6,0.4l-1,0.9c-1.6,1.3,0.1,0.3-1.5,1.1c-5-5.9-6.2-3.6-5.3-8.9c-4.2,1.1-5.9-2-8.4-5.4l3-3.9l-4.7,2.4c-2.5-2.1-5-3.6-6.2-7.5C338.4,275.1,338.2,272.3,338.9,276.5L338.9,276.5z"/><path fill="#0070BA" d="M316.8,179.1l-0.9,0.9l0.9,0.3l6.4,0.1c0.5,12.8-1.5,71.7,0.9,78.4c6.9,1.3,49.6,0.4,62.6,0.4l15.6,0.1c4.5-0.1,3.5-0.1,4.8-1.1l-82.7,0.1l0.1-78.4l0.1-5c-0.1,0.3-0.3,0.6-0.4,0.8L316.8,179.1L316.8,179.1z"/><path fill="#FEFEFE" d="M396.4,155.6c-3.4-1.9-5.8-4.3-9.7-5.9c-6.3,6-15.6,16.1-5.3,22.9c8.1,5.3,2.4-4.3,4-8.5C387.3,159.3,392.7,158.7,396.4,155.6L396.4,155.6z"/><path fill="#FEFEFE" d="M244,155.6c2.9,2.4,7.1,3.6,9.2,6.2c5.5,6.2-2.9,13.7,4.5,11.4c1.1-0.4,2.5-1.8,3.1-2.5c6.3-7,1.1-11.9-7.3-21C249.6,151.6,247.3,153.7,244,155.6L244,155.6z"/><path fill="#FEFEFE" d="M346.8,225.3l-6.9-2.6c1.4-3.1,1.1-2.8,4.2-4.5C346.3,220.9,346.5,220.7,346.8,225.3L346.8,225.3z M332.6,217.9l4.3,4.3C329.5,226.6,328.2,225,332.6,217.9L332.6,217.9z M340,210.8c2.3-2.3,3.1-2.8,6.5-2.8c0,3.5-0.5,4.4-2.6,6.4L340,210.8L340,210.8z M329.4,207.9c4.4,0.4,4.4,0.5,7.2,2.8c-2.9,5-1.9,3-4.5,4.1L329.4,207.9L329.4,207.9z M346.8,225.3c0.5-0.4,2.6-0.3,0.6-5.1c-0.3-0.6-1.8-3-2-3.5c1.5-3.8,3.4-4.1,2.4-9.7c-5.7-0.9-5.7,1-9.6,2.4c-0.3-0.1-4-2.3-4.4-2.4c-5.2-1.6-4.3,0.9-4.3,0.9c-0.1,0.1-2.9-1.9-0.1,4.5c0.6,1.4,1.3,2.4,2,4c-5,10-3.7,11.8,6.8,6.8c1.6,0.8,3.3,1.9,4.7,2.3C347.2,227,346.8,225.3,346.8,225.3L346.8,225.3z"/><path fill="#FEFEFE" d="M358.7,301.7l0.6-1.3c0.3-0.4,1.1-1.5,1.3-1.8c-1.1-1.8-1.5-2.1-3.1-3.6c-1.5-1.5-3.5-2.6-4.3-3.4c-2-2-2.6-5-7.4-7.3c-1.3,1.6-3.4,4.3-4.2,6.7c2.4,2.9,3.5,5.7,7.8,4.4c-0.9,5.3,1.4,4.4,4.2,8.2L358.7,301.7L358.7,301.7z"/><path fill="#0070BA" d="M269,231.8c0-6.8,0.8-4.8,0.9-6c0-0.4,0.3-0.5,0.4-0.6c1.5,2.6,0.9,3.4,1,7h8.1c-1.1-3.9-2.8-6.2-4.5-9.7c-4.9-9.4-2.1-6.2-5.8-7l-8.2,16.6L269,231.8L269,231.8z"/><path fill="#FEFEFE" d="M350.7,279.4l-3,3.9c2.5,3.4,4.3,6.4,8.4,5.4c-0.9,5.3,0.3,3,5.3,8.9c1.6-0.9,0,0.1,1.5-1.1l1-0.9c0.1-0.1,0.5-0.3,0.6-0.4c0.1-0.1,0.4-0.3,0.6-0.4l1.3-3.5c-1.1-2.1-0.6-1.8-2.6-3.6c-3.1-2.9-2.6-0.5-9.1-9.2L350.7,279.4L350.7,279.4z"/><path fill="#FEFEFE" d="M338.1,225.6c-2,3.6-0.1,9.8-1.8,14.3c-1.5,4.1-3.8,7.5-4.9,11.8h13.7c-1.1-4.9-3.4-7.8-5-12.2C338.9,235.9,340.5,228.4,338.1,225.6L338.1,225.6z"/><path fill="#0070BA" d="M403.6,320.3c-4.8-2.6-3.9-5.4-8.9-4.9c0.3,5,3.4,3.1,5.3,8.2c-5.2,0.1-3-4.9-9.1-4.1c0,3.3,0.8,2.9,3,5c2.1,2,2.6,3,5.7,4.3l8.8-9.4c-3.4-5.3-5.9-8.3-9.9-7.9C399.2,317.3,402.2,313.2,403.6,320.3L403.6,320.3z"/><path fill="#FEFEFE" d="M357.5,275.6c-0.1,0.1-0.4,0.3-0.4,0.5l-1.3,2.3c4,2.6,2.6,4.6,7.3,3.5c-0.5,3.8-0.6,3.3,4.8,7.7c2.9-5.1,4.3-7.3,2.3-12.8l-2.4,0.4l0.3-2.4C362.4,272.7,363.2,275,357.5,275.6L357.5,275.6z"/><path fill="#0070BA" d="M318.1,358.6l8.4-0.4c2,0,0.4,0.3,3.5,0.3v-12.1c-4.9,0.3-2.6-1.4-5.3,3.9l-1.1,2c-1-3.3-0.9-5.7-5.3-5.5C317.2,350.4,317.7,354.7,318.1,358.6L318.1,358.6z"/><path fill="#0070BA" d="M374.1,283.4c0,5,1.6,6.8-0.1,12.6l-4.9-5l3.3-8.9C373.7,284.4,373,282.1,374.1,283.4L374.1,283.4z M345,271.3c5.4,1.1,4,2.1,7.7,5l-1.9,3l4-1c6.4,8.8,5.9,6.3,9.1,9.2c2,1.9,1.5,1.5,2.6,3.6l-1.3,3.5l2.9-2.1l5.3,4.9l-2.9,6.4c1.5-1.1,0.9-0.1,2-1.8c0.5-0.6,1.1-2,1.4-2.5c2.3-5.3,2.9-12.6-0.1-16.4c-0.1-2.8,0.5-1.6-0.9-4c-0.1-0.1-1.1-1.4-1.4-1.5c-1.3-1.1-0.5-0.4-1.8-1.1c2,5.5,0.6,7.7-2.3,12.8c-5.4-4.4-5.3-3.8-4.8-7.7c-4.5,1.1-3.3-0.9-7.3-3.5l1.3-2.3c0-0.3,0.3-0.4,0.4-0.5l-3.5,0.5l-5-4.5l0.9-2.1c-2.4,0.4,0.5-0.9-2.5,0.5l-1.6,0.9C345.5,271,345.3,271.2,345,271.3L345,271.3z"/><path fill="#0070BA" d="M371.8,336.8c2,1.5,3.7,3,2.3,5.4C372.5,340.3,372.5,339.8,371.8,336.8L371.8,336.8z M369.2,347.1l2.3,2c0.1,0.1,0.4,0.3,0.6,0.5c4.3-3-0.9-1.8,3.7-4.5c5-3,1.6,0.4,4.9-0.5c0-0.1,2.5,1,0.5-3.3c-1.3-2.6-1-0.8-2.6-2.3c-2.1-1.9-2.5-3.9-4.4-6.3l-6.9,2.8C368.4,341.5,370.3,339.9,369.2,347.1L369.2,347.1z"/><path fill="#0070BA" d="M235,305.6c-1.4,1-1,1.4-3.1-0.3C233.3,304.5,234.2,305.2,235,305.6L235,305.6z M223.9,309.1c2.8,1.8,2.4,1.1,6.8,1.1l-2,2.3c-0.8,1.3-0.6,0.8-0.5,1.8c0.3,0.1-1.3,4.1,6.8-2.3c4.3-3.3,2.4-2.4,4.8-5.8L236,301c-4.3,1.4-2.6-0.8-7.2,2.8C226.4,305.7,224.5,306.5,223.9,309.1L223.9,309.1z"/><path fill="#0070BA" d="M218.7,215.5l-0.4,0.3C218.5,215.6,218.7,215.5,218.7,215.5L218.7,215.5z M215.2,214.1c-0.8,2.8,0.5,0-1.8,1.4l1.4-2.9C215.3,213.6,215.8,212.1,215.2,214.1L215.2,214.1z M210.8,217.7l9.3,2.4c2-2.1,2.9-4.1,3.5-7.5c-2.6-2.1-6.9-3.5-10.8-4.1C210.5,211.9,210.2,213.6,210.8,217.7L210.8,217.7z"/><path fill="#FEFEFE" d="M309.3,255.4c-1.8-6.2-14.1-29.1-18.6-30.9c-2.6,2.9,13.9,26.1,16.9,29.4C308.5,255,308.1,254.5,309.3,255.4L309.3,255.4z"/><path fill="#0070BA" d="M316.8,179.1l7.6-3.8c0.1-0.1,0.3-0.5,0.4-0.8c4.9-4,4.5,0.6,5.7-4.6c-3.3-0.8-6.8-0.5-10.7-0.5c-4.7,0-6.9-1-9.3,1.6c2.3,2.9-0.1,0.4,2.6,1.8l3.8,1.9V179.1L316.8,179.1z"/><path fill="#0070BA" d="M305.1,357.7c3.4-0.3,3.5-0.9,5-3.6c0.1,0.3,0.3,0.3,0.4,0.6c0,0.4,0.3,0.5,0.3,0.6c0.1,0.1,0.4,1.1,0.5,1.4c1.1,1.9-1.4,1,2.8,1.9c1-2.6,2.1-8.9,0.9-12.1c-3.9,0.1-3.7,0.8-4.9,3.5c-2-2.5-0.4-3.5-3.7-4.5C304.9,347.9,303.8,354.7,305.1,357.7L305.1,357.7z"/><path fill="#0070BA" d="M420.7,214.6c2.1,1.6,1.1,0.1,2.1,3.1C419.8,216.2,421.2,218.1,420.7,214.6L420.7,214.6z M425.9,213l1.3,3.1C424.9,214.7,424.4,215.3,425.9,213L425.9,213z M417.8,213.6c-0.1,4,0.6,4.6,1.5,8l11.5-3.6c-0.5-3.8-1.8-6.3-3-8.2C423.6,209.6,420.1,211.2,417.8,213.6L417.8,213.6z"/><path fill="#0070BA" d="M348.9,347.4l-0.8-1.4c-0.1-0.1-0.6-1-0.8-1.3c-1.6-1.5-0.1-0.8-2.8-1.4c-1,3,1,9.5,3.3,12.1c2.4-1,1.6-0.5,2.8-2.5c0.3-0.5,0.8-2.3,1.4-3.4c1.5,3.5,0,3.1,3.4,4.1c2.1-3.1-1-10.3-2.8-12.1C349.2,342.9,350.2,343.8,348.9,347.4L348.9,347.4z"/><path fill="#0070BA" d="M427.8,252.4c-0.3,0.1-0.6,0-0.8,0.4l-2.1,0.9c-2,1.1-0.9-0.3-1.9,1.6c2,2.6,7.6,2,12,1.5c0.4-3.9-1.6-4-4.3-5.7c4.8-2.6,3.8,1.8,4.8-4c-1.9-0.3-8.6-0.9-10.7-0.3C420.1,248.2,425.4,251.4,427.8,252.4L427.8,252.4z"/><path fill="#0070BA" d="M282.1,307.3c2.6-2.3,2.4-30,0.8-32.8c-2.8,1-1.9-0.3-2.4,2.9C280.2,278,279.9,303.5,282.1,307.3L282.1,307.3z"/><path fill="#0070BA" d="M217,297.8l5.9,1.8c-0.1,0-0.5,0-0.6,0.4c-0.1,0.4-0.5,0.5-0.6,0.6c-4,4.8,0.1,4.1,4.5,1.9c3.3-1.6,4.4-1,5.2-5l-6.5-1.1c3.3-3.1,3.8-0.8,3-4.6c-2.3-0.5-6.9,1.5-9.2,3.3C215.8,297.2,217.6,294.3,217,297.8L217,297.8z"/><path fill="#0070BA" d="M424.6,226.1c2-1.1-1.4-1,2.8-1c4.5,0,0.4-0.1,2.3,0.9C431.3,230.9,422.7,231.3,424.6,226.1L424.6,226.1z M423.3,232.9c9.7,1,12.3-3.1,8.2-10.7C422.6,219.9,417.4,225,423.3,232.9L423.3,232.9z"/><path fill="#0070BA" d="M283.1,349.9c-0.8-4.9-0.1-5.3,4-5.8C287.7,348.3,287.9,350.3,283.1,349.9L283.1,349.9z M290.5,343.3c-7.2-5.8-13.7,0.6-10.8,7.2C282.2,356.1,292.3,354.7,290.5,343.3L290.5,343.3z"/><path fill="#0070BA" d="M418.4,299.8c-2.8,2.6-5.9,2.3-5.4-2.9C416.4,295.4,417.4,297.1,418.4,299.8L418.4,299.8z M409.2,300.8c13.7,12.3,18.6-9.7,2.4-7.9C409.6,295.6,409,296.1,409.2,300.8L409.2,300.8z"/><path fill="#0070BA" d="M209,262.9c0.3-1.9-1-2.4,2-3.1c3.4-1,3.5,1,4,1.3C214.9,261,215.7,267.4,209,262.9L209,262.9z M209,256.9c-7.7,3.9-1.8,13.8,5.9,10.2C222.1,263.7,217.1,252.8,209,256.9L209,256.9z"/><path fill="#0070BA" d="M269.8,338.3c-3.9,2-2,0.4-3.1-1.9C270.1,337.6,268,335.8,269.8,338.3L269.8,338.3z M260.5,342.4c3.3,2.1,3.3,1.1,6.3-0.5c-0.4,1.6-1,2.5,0.4,4.8c2.1-0.9,2.1-0.8,4-4.1c1.1-1.9,2-3.5,2.6-5.9c-9.7-8.4-9.3,0.5-12.1,4.1c-0.1,0.1-0.4,0.4-0.5,0.5L260.5,342.4L260.5,342.4z"/><path fill="#0070BA" d="M294,200c1.4,3.6,2.9,6.4,4.4,9.7c1.6,3.4,2.5,6,5,8V200L294,200L294,200z"/><path fill="#0070BA" d="M426,263.9c-0.3,0.1-0.6,0-0.8,0.4c-0.8,1.8-1.3-0.6-4,1.8c1.1,3.8,9.8,4.1,12.1,2.6c-0.8-2.6,0.4-0.4-1.6-2.3c-2.1-2-1.5,0.3-2.4-2.6c0.3-0.1,0.5-0.4,0.6-0.3l1.9-0.3c3.1-0.8,0.6,1.1,2.6-1.4c-1.8-3-5-3.1-12.1-3.4c0.6,4.6,0,1.5,1.4,3.1L426,263.9L426,263.9z"/><path fill="#0070BA" d="M206,242.8c3.4-1.4,1.3-0.6,3-5.7c2,3.3-0.5,1.9,1.8,5.4c4.2-1.5,1-0.1,2.9-4.5c1.1,2.5,0,1.3,0.5,2.8c1.1,3-0.5,1.9,2.8,2.8c0.6-3,1.3-5.8,0.1-9.2l-11.1-0.9C205.2,236.7,204.5,240.1,206,242.8L206,242.8z"/><path fill="#0070BA" d="M290.6,355.2c5.8,1.4,5.5-2,7.7-6.9c2.1,3.6-2,5,1,9c3.5-1.8,3.9-8.2,3.9-11.8l-7.9-1.6C293.3,356.7,292.1,348.7,290.6,355.2L290.6,355.2z"/><path fill="#0070BA" d="M414.4,288c2.3,1.4,3.8,1.5,5.7,2.8c4.7,3-0.8,2.3,4.7,4c2.4-6-3.4-5.3-6-9.7c9.2,2.4,6.8,4.5,9.6,1.1c-1.5-2.8-7.3-4.6-11.6-5.1L414.4,288L414.4,288z"/><path fill="#0070BA" d="M241.9,321.9l-5-1.8c0.8-3.5,1.4-3.9,5.3-4.1c0.6,4.4-1.6,3.1,1.8,5.3c5.7-4.9-2.8-12.6-8.6-6.7C229,321.1,239.6,329.6,241.9,321.9L241.9,321.9z"/><path fill="#0070BA" d="M210.9,231.2c1.8-4.4-0.4-0.6-0.8-5.8c3.4-1.4,4.4-1.1,6.2,1.8c-2.5,4.4-2.1-0.8-3.3,4.6c8.6,1.6,8.2-8.5,2.4-10.4C206.9,218.7,203,229.3,210.9,231.2L210.9,231.2z"/><path fill="#0070BA" d="M331.9,346.1c0.4,3.8,0.3,9.9,3.3,12.1c4.8-3-1.6-5,1.9-9.5c2.9,1.3,1.3-0.4,2.3,4.3c1,4.9-0.1,3.1,2.6,4.1c1.1-1.4,0.6,0.4,1-2l-2-9.8L331.9,346.1L331.9,346.1z"/><path fill="#0070BA" d="M241.3,328.8c3,1.8,1.5,1.6,4.5-0.3c0.3,4.9-0.8,3.6,2.3,5.8c2-2.4,1.1-3.6,1-7.3c0.8-0.1,3.1-0.3,3.5-0.4c3.8-0.9,1.6-0.3,2.9-1.6c-3.1-2.8-2-0.1-5-3.6c-0.8-0.9,0.6-0.4-1.5-1.9C245.9,321.8,242.5,325.2,241.3,328.8L241.3,328.8z"/><path fill="#0070BA" d="M212.6,251.1l0.3-2.6c1.6,1.8,0.6-1.1,0.8,1.6C213.9,253.1,214.1,249.9,212.6,251.1L212.6,251.1z M205.2,245.6c-0.1,6.3-0.1,0.8,2.9,3.8c1,1,1.5,3.4,2.5,4.9l5,0.1C220.2,245.3,215.2,242.3,205.2,245.6L205.2,245.6z"/><path fill="#0070BA" d="M219.6,291.1c-2.5-4.5-1.3,0.3-3.9-3.9c1.6-3.5,1.8-3.1,5.8-2.8c0.3,3.3-1,3.9,0.5,6.2c6.5-2.9,2.1-11.6-4.7-9.8C208.5,283.1,213.1,296.2,219.6,291.1L219.6,291.1z"/><path fill="#0070BA" d="M405.3,307.4c-2.6-0.5-1.9-0.6-3.5,1.1c1.6,2.8,6.4,6.5,10.5,6.9c0.4-2.4,0.1-2.4-1.1-4.1c3.9-0.6,4.3-0.4,5.4-3.5l-7.4-0.1c-1-3.5-0.1-3.4-1.9-5.9C404.3,303.6,405.2,302.5,405.3,307.4L405.3,307.4z"/><path fill="#0070BA" d="M428.4,238.4l-5.7-3.9c0,3.6,0.4,3.8,2.5,5.7c-3.1,1.8-2.8,0.6-1.6,3.5c2.6,0.9,7.7,0.3,11.3-0.6l-0.3-1.9c-2.9-5.9,2.5,3-2.3-2.5c2.8-2.1,2-0.5,2-4.9C430.4,234.9,431.4,235.8,428.4,238.4L428.4,238.4z"/><path fill="#0070BA" d="M208.3,272.7c-0.1,5.1,1.5,9.2,6.7,6.8c-1.9-6.8-2.4,1.9-3.3-6.2l5.8-0.8c0.1,3.1-1.3,4,0.3,6.4C226.3,275.2,217.1,262.9,208.3,272.7L208.3,272.7z"/><path fill="#FEFEFE" d="M340,274.2c1.1,3.9,3.5,5.4,6.2,7.5l4.7-2.4l1.9-3c-3.7-2.9-2.3-3.9-7.7-5L340,274.2L340,274.2z"/><path fill="#0070BA" d="M249.8,335.6c6.5,3.9,1.8-4.6,6.3,3.5c0.6,1.1,0,0.8,1.4,2c1.3-0.8,0.6,0.4,1.8-1.9c0.3-0.4,0.9-3.1,1.1-3.8C264.2,320.6,250.6,333.1,249.8,335.6L249.8,335.6z"/><path fill="#0070BA" d="M369.2,347.1c-1.1-1.1-3.3-3-4.8-4.8c-4.2-4.8-6.2-5.3-6.2,3c0,3.5-0.4,4.4,1.3,6.7c3.3-1.5,1.3,0.1,2.9-3.5c5.4-0.8,0.6,0,5.9,0.6L369.2,347.1L369.2,347.1z"/><path fill="#0070BA" d="M379.7,328.6c-1,2.8,0.9,10,3.1,12.3c2-1.5,1.8-2.1,2.4-3.8c1.5-3.6,0.6,0.8,5.4-1.4c-0.5-2.4-0.1-1.6-1.9-3C386.1,330.2,382.5,327.5,379.7,328.6L379.7,328.6z"/><path fill="#0070BA" d="M428.1,275c0.1,4.1,1,1.4-2.5,3.4C426.4,274.7,424.9,275.7,428.1,275L428.1,275z M423,275.9c-4.4,0.3-2.3-1.6-4.5,1.6c2.4,2.9,8.1,4,11.8,3.6c0.9-4,1.6-4.9,0.6-8.8l-5.5-0.9L423,275.9L423,275.9z"/><path fill="#FEFEFE" d="M334.3,283.1c1.4,3,3.1,4.5,5.8,6.2c2.1-2.3,3-3.5,4.7-5.9l-6-6.8C336.3,278.1,335.6,279.8,334.3,283.1L334.3,283.1z"/><path fill="#FEFEFE" d="M357.5,275.6c0.9-0.9-1-0.1,2.3-1.8c1.6-0.8,2.4-0.8,3.7-1.3c-4-2-0.4-0.3-2-1.9l-11.5-1.1l-0.9,2.1l5,4.5L357.5,275.6L357.5,275.6z"/><path fill="#D9251D" d="M333.7,147.2l-3.5-0.5c-2,2.4-2.5,3.6-4.8,5.9c-2.4,2.5-3.3,2.5-4.9,6.3c6.3-1.1,9.6-7,14-9.7L333.7,147.2L333.7,147.2z"/><path fill="#FEFEFE" d="M334.1,299.7c2.6,0.6,2-0.8,3.1-3.6c0.6-1.8,1.3-3,1.9-5l-5.7-5.5C332.1,291.8,333.4,294.1,334.1,299.7L334.1,299.7z"/><path fill="#FEFEFE" d="M374.1,283.4c-1.1-1.1-0.4,1-1.8-1.4l-3.3,8.9l4.9,5C375.7,290.2,374.1,288.4,374.1,283.4L374.1,283.4z"/><path fill="#FEFEFE" d="M345.2,309.6c4,2.6,8.6,2.4,14,1.5l-5-5.4L345.2,309.6L345.2,309.6z"/><path fill="#0070BA" d="M329.4,207.9l2.5,6.9c2.8-1.1,1.8,0.9,4.5-4.1C333.8,208.4,333.9,208.3,329.4,207.9L329.4,207.9z"/><path fill="#0070BA" d="M346.8,225.3c-0.3-4.5-0.4-4.4-2.8-7.2c-3,1.8-2.8,1.4-4.2,4.5L346.8,225.3L346.8,225.3z"/><path fill="#0070BA" d="M344,214.5c2.1-2.1,2.6-3,2.6-6.4c-3.4,0.1-4.3,0.5-6.5,2.8L344,214.5L344,214.5z"/><path fill="#0070BA" d="M332.6,217.9c-4.4,7.2-3,8.8,4.3,4.3L332.6,217.9L332.6,217.9z"/><path fill="#FEFEFE" d="M209,262.9c6.8,4.4,5.9-1.9,5.9-1.9c-0.4-0.3-0.5-2.3-4-1.3C208,260.7,209.3,261,209,262.9L209,262.9z"/><path fill="#FEFEFE" d="M283.1,349.9c4.8,0.5,4.7-1.6,4-5.8C282.8,344.5,282.2,345,283.1,349.9L283.1,349.9z"/><path fill="#FEFEFE" d="M424.6,226.1c-1.9,5,6.7,4.8,5-0.1c-1.9-1,2.4-0.9-2.3-0.9C423.2,225.3,426.6,225,424.6,226.1L424.6,226.1z"/><path fill="#FEFEFE" d="M413,296.8c-0.4,5.1,2.8,5.5,5.4,2.9C417.4,297.1,416.4,295.4,413,296.8L413,296.8z"/><path fill="#0070BA" d="M357.5,275.6c5.7-0.6,4.9-2.9,10.6-0.9c-0.4-0.6,0.4-1-2.1-2.6c-1.3-0.8-2.8-1.1-4.7-1.5c1.6,1.6-2-0.1,2,1.9c-1.3,0.5-2,0.5-3.7,1.3C356.4,275.5,358.4,274.6,357.5,275.6L357.5,275.6z"/><path fill="#FEFEFE" d="M374.1,342.2c1.4-2.4-0.3-3.9-2.3-5.4C372.5,339.8,372.5,340.3,374.1,342.2L374.1,342.2z"/><path fill="#0070BA" d="M425.6,278.5c3.5-2.1,2.6,0.8,2.5-3.4C424.9,275.7,426.4,274.7,425.6,278.5L425.6,278.5z"/><path fill="#FEFEFE" d="M269.8,338.3c-1.9-2.5,0.3-0.6-3.1-1.9C267.8,338.6,265.9,340.3,269.8,338.3L269.8,338.3z"/><path fill="#0070BA" d="M340,307.4l0.4-2.9C337.3,306,335.7,305.4,340,307.4L340,307.4z"/><polygon fill="#0070BA" points="370.1,276.7 370,275.2 368.1,274.7 367.7,277.1 "/><path fill="#0070BA" d="M422.8,217.7c-1-3,0-1.5-2.1-3.1C421.2,218.1,419.8,216.2,422.8,217.7L422.8,217.7z"/><path fill="#FEFEFE" d="M231.9,305.5c2.1,1.6,1.6,1.3,3.1,0.3C234.2,305.2,233.3,304.5,231.9,305.5L231.9,305.5z"/><path fill="#FEFEFE" d="M427.1,216.1l-1.3-3.1C424.4,215.3,424.9,214.7,427.1,216.1L427.1,216.1z"/><path fill="#FEFEFE" d="M213.4,215.5c2.3-1.3,1,1.5,1.8-1.4c0.5-2,0.1-0.5-0.5-1.6L213.4,215.5L213.4,215.5z"/><path fill="#FEFEFE" d="M212.6,251.1c1.5-1.4,1.4,2,1.1-1.1c-0.3-2.6,0.8,0.1-0.8-1.6L212.6,251.1L212.6,251.1z"/><path fill="#FEFEFE" d="M218.3,215.7l0.4-0.3C218.7,215.5,218.5,215.6,218.3,215.7L218.3,215.7z"/></g></svg>
