<?xml version="1.0" encoding="utf-8"?>
<!-- Generator: Adobe Illustrator 19.0.0, SVG Export Plug-In . SVG Version: 6.00 Build 0)  -->
<svg version="1.1" id="Layer_1" xmlns="http://www.w3.org/2000/svg" xmlns:xlink="http://www.w3.org/1999/xlink" x="0px" y="0px"
	 viewBox="0 0 640 360" enable-background="new 0 0 640 360" xml:space="preserve">
<rect id="XMLID_1_" fill="#7A4420" width="640" height="360"/>
<g>
	<path fill="#CCCCCC" d="M307.725,167.74c1.36-0.388,20.298-0.194,22.241,0c1.554,0.194,2.719,1.165,3.496,2.137
		c0.583,0.583,1.554,2.914,1.554,4.079c0,2.719,0.388,2.914-0.971,4.856s-1.165,1.36-2.914,2.719
		c-0.388,2.914,2.914,5.827,3.108,8.352c-0.971,0.388-2.914,0.388-4.079,0.388c-1.554,0-1.942,0-2.525-0.971
		c-0.194-0.388-0.194-0.194-0.194-0.583l-2.719-6.216c-1.748-0.194-10.975-0.388-11.752,0.194c-0.388,0.583,0,4.273-0.194,5.827
		c0,0.583,0,1.36-0.388,1.554c-0.583,0.194-4.273,0.194-4.856,0c-0.583-0.971-0.194-9.324-0.194-11.072
		C307.434,176.481,307.045,169.294,307.725,167.74L307.725,167.74z M342.009,190.175c-0.388-2.525-0.388-21.075,0.194-22.823
		c1.36-0.194,18.841-0.194,21.658,0c1.554,0,3.108,0.388,4.273,1.165c2.137,1.554,1.554,1.748,2.137,3.108s0.583,2.719,0,4.273
		c-1.165,2.914-1.748,1.942-2.525,2.719c0.194,0.971,0.971,0.971,1.554,1.36c0.583,0.388,0.194,0,0.388,0.971
		c1.165,3.302,1.36,2.525,0.388,5.05c-0.194,0.583-0.388,1.36-0.971,1.942c-0.388,0.971-0.971,0.583-1.554,1.165
		c-1.554,0.971-1.942,0.971-4.273,1.165C361.044,190.369,343.757,190.758,342.009,190.175L342.009,190.175z M273.344,167.74
		c6.41-0.194,16.899-0.194,23.794,0c2.137,0,3.108-0.194,3.108,0.583c0.194,0.971,0.194,2.914-0.194,3.691
		c-0.971,1.165-19.91-0.388-21.464,0.388l-0.194,3.691c1.942,0.388,7.187,0.194,9.518,0.194c3.108,0,6.216,0,9.324,0
		c0.194,0.971,0.583,3.691-0.194,4.273c-1.165,0.583-16.802-0.388-18.453,0.388c-0.194,0.583-0.194,1.36-0.194,2.137l0.194,1.36
		c0.194,0.194,0,0.194,0.194,0.388c1.36,0.583,20.298-0.388,21.658,0.388c0.388,0.388,0.194,0.194,0.388,0.971
		c0,0.194,0,0.971,0,1.36c0,0.971,0,1.554-0.194,2.525c-2.137,0.388-26.902,0.388-27.874,0c-0.583-1.165-0.194-9.129-0.194-11.072
		C273.247,176.481,272.956,169.1,273.344,167.74L273.344,167.74z M397.561,181.822c-5.05-0.583-10.586-0.388-15.345-1.165
		c-2.914-0.388-4.079-1.36-5.244-2.914c-1.554-1.748-1.165-4.662,0.194-6.216c1.554-2.137,5.827-4.079,8.352-4.079
		c2.525-0.194,2.525-0.388,3.302-0.583c2.914-0.194,6.021,0.971,7.187,0.971c2.137,0,4.662,0.971,6.216,1.748
		c0,1.165-0.194,1.36-0.583,2.137c-0.388,0.971-0.388,1.165-0.583,1.942c-1.554,0.194-5.05-1.748-10.586-1.748
		c-3.691,0-4.856,0-7.77,1.36c-0.971,0.388-1.165,0.971-0.971,1.942c1.165,1.165,5.245,0.971,7.575,1.165
		c2.914,0.388,8.935,0,11.072,1.36c3.302,1.942,4.468,6.021,2.525,8.741c-2.525,3.108-5.05,3.496-8.741,4.273
		c-1.165,0.194-0.971,0.388-1.748,0.388c-0.583,0-1.36,0.194-1.748,0.194c-2.719,0.194-5.244-0.194-7.77-0.583
		c-0.971-0.194-1.165-0.388-1.554-0.388c-0.971-0.194-1.165,0-1.942-0.194c-0.388-0.194-0.971-0.583-1.36-0.971
		c-0.388-0.194-0.971-0.388-1.165-0.583c0.194-1.165,0.388-1.36,0.971-1.942c1.165-1.942-0.194-2.719,3.496-1.165
		c2.137,0.971,5.05,0.971,5.827,1.165c0.971,0.194,1.748,0.388,2.914,0.388c1.165,0,1.748-0.388,3.108-0.388
		c1.36,0,1.748-0.194,2.719-0.583C396.979,184.639,398.338,184.153,397.561,181.822L397.561,181.822z M240.809,174.538l-1.942-3.691
		c-1.165-1.942-1.554-2.137-1.36-3.108c0.971-0.388,2.914-0.194,4.079-0.194c2.137,0,1.748,0,2.525,1.554
		c0.194,0.388,0.583,0.583,0.971,1.36c0.194,0.388,0.388,0.971,0.583,1.36c0.583,1.165,6.216,12.626,6.604,13.403
		c0.971,0,0.583-0.194,1.165-1.165c0.194-0.388,0.388-0.971,0.583-1.36c0.388-0.583,3.108-6.41,4.273-7.964
		c0.583-0.971,0.583-1.748,1.36-2.914c2.525-3.691,1.165-4.079,4.079-4.079c1.36,0,2.719,0,4.079,0c0,0.971-0.194,1.36-0.583,1.748
		c-0.388,0.583-0.388,0.971-0.583,1.554c-0.388,1.165-1.165,1.942-1.554,3.108l-3.302,6.021c-0.971,1.554-2.914,5.827-4.079,7.77
		c-0.194,0.388-0.583,1.165-0.971,1.36c-0.583,0.971-2.525,0.583-4.079,0.583c-2.719,0-3.302,0.194-4.079-1.165l-6.41-12.237
		c-0.388-0.971-0.388-0.971-0.583-1.748C241.003,174.538,241.003,174.927,240.809,174.538L240.809,174.538z M410.77,135.205
		c0.971-0.194,4.856-0.388,5.244,0c0.388,0.388,0.194,4.662,0.194,5.633v9.129c0,0.388,0,0.971,0,1.554s0,0.971,0.194,1.36
		c0.971,0.388,10.683,0.194,12.626,0.194s4.273,0,6.216,0c1.165,0,0.971,0.971,0.971,1.942c0,1.165,0,1.748-0.194,2.719
		c-3.108,0.583-8.352,0.194-12.14,0.194c-4.079,0-8.158,0.194-12.237,0.194c-1.165,0-1.554-0.194-1.554-1.554
		c0-0.971,0-1.942,0-3.108C410.673,148.996,410.284,138.312,410.77,135.205L410.77,135.205z M372.602,157.639
		c0-1.942,5.633-10.975,6.604-12.626l5.245-9.324c0.583-0.583,2.914-0.194,4.273-0.388c1.748-0.194,2.914-0.583,3.691,0.583
		c1.36,2.525,4.079,7.381,5.245,9.129l5.245,9.324c0.971,1.748,1.36,1.942,1.554,3.302h-5.827l-1.942-3.691
		c-1.165-1.36-2.914-0.583-4.856-0.583c-1.942-0.194-3.691,0-5.827,0c-1.748,0-4.273-0.194-5.827,0l-2.719,4.468
		C376.681,157.737,374.155,157.737,372.602,157.639L372.602,157.639z M304.229,157.348c0-0.971,0.583-1.36,1.36-3.108
		c0.388-1.36,1.165-1.748,1.554-2.719c1.36-2.525,0.583-1.748,2.137-4.273c0.194-0.388,0.388-0.971,0.583-1.36
		c1.165-1.942,2.137-3.496,3.108-5.633c0.388-0.971,1.165-2.137,1.554-2.719c0.388-0.583,1.36-2.137,1.554-2.719h7.381l9.518,16.802
		c1.554,3.496,2.719,4.079,2.914,5.827h-5.633c-0.583-1.165-1.36-1.942-1.942-3.108c-1.165-1.554-1.165-1.36-3.496-1.36h-8.158
		c-3.302,0-4.662-0.583-5.827,1.36c-0.971,1.554-0.388,1.165-1.748,3.108C308.599,157.737,305.103,157.737,304.229,157.348
		L304.229,157.348z M236.536,157.639c-0.388-2.914-0.194-14.471-0.194-18.356c0-1.165-0.388-3.496,0.388-4.079
		c0.388-0.194,3.691-0.194,4.468,0c1.36,0.194,0.583,2.719,0.583,3.691c0,1.554,0,2.914,0.194,4.468h16.025
		c1.165-1.554-0.388-6.798,0.583-7.964c0.583-0.583,4.273-0.388,5.05-0.194c0.194,1.165,0.194,21.269,0,22.046
		c-1.165,0.388-4.079,0.388-5.245,0c-0.583-1.36,0-6.604-0.194-8.741c-1.36-0.583-6.604-0.388-8.352-0.388
		c-2.525,0-6.41-0.194-8.352,0.388c0,2.719,0.388,6.41,0,8.935C240.615,157.737,237.895,158.028,236.536,157.639L236.536,157.639z
		 M271.693,135.302c1.36-0.388,21.075-0.388,22.823,0c1.165,0.194,2.719,1.554,3.302,2.525c1.165,1.748,2.137,4.662,1.165,6.604
		c-0.583,1.748-0.194,2.719-3.691,4.856c-0.194,1.554,1.554,3.496,2.719,6.216c0.583,1.748,0.583,0.971,0.971,1.942h-5.633
		c-0.583-0.583-1.748-2.914-2.137-3.691c-0.388-1.554-1.36-2.525-1.942-3.691c-1.942,0-10.101-0.388-11.363,0.194
		c0,0.194,0,0-0.194,0.388c-0.194,0.971,0,5.245,0,6.798c-0.971,0.583-4.468,0.388-5.827,0.194
		C271.305,155.6,271.305,136.176,271.693,135.302L271.693,135.302z M208.079,157.737c-1.165,0.388-2.525,0.194-3.496,0.194
		c-2.719,0-1.942,0.388-1.942-8.741c0-2.525,0-12.529,0.194-14.082c5.05-0.388,11.072,0,16.51,0c2.719,0,5.05-0.194,7.381,0.971
		c4.468,2.137,5.05,7.575,2.719,10.975c-3.691,5.633-15.734,1.554-21.075,3.302C208.079,152.104,208.662,156.765,208.079,157.737
		L208.079,157.737z M341.426,155.6c0-0.971,0.583-1.554,0.971-2.525c1.165-3.302,0.583-1.748,3.108-1.165
		c0.583,0.194,1.554,0.388,2.525,0.583c3.108,0.971,13.791,1.748,15.248-1.748c1.748-4.662-16.025-0.583-19.618-4.662l-1.068-0.583
		c-0.388-0.194-0.388-0.194-0.583-0.583c-2.719-5.05,2.525-7.575,5.05-8.935c3.302-1.748,9.518-1.36,13.694-1.165l7.381,1.942
		c0,1.165-0.388,1.554-0.583,2.525c-0.194,1.165,0,0.583-0.194,1.36l-0.388,0.583c-0.194,0.194-0.194,0.194-0.194,0.388
		c-1.36,0-3.108-1.36-4.856-1.36c-1.942-0.194-3.302-0.971-5.633-0.583c-1.748,0.194-3.496,0.583-5.244,0.583
		c-1.748,0.194-3.691,0.388-3.496,2.525c1.36,1.554,5.05,1.36,7.381,1.36c4.856,0,6.604-0.194,11.363,1.36
		c3.302,1.165,4.273,5.245,2.525,8.352c-1.36,2.525-5.633,4.079-8.352,4.468c-5.05,0.583-5.827,0.583-11.072-0.388
		C346.088,157.348,342.397,156.96,341.426,155.6L341.426,155.6z M319.768,109.468c-2.137,0.194-5.05,4.468-6.216,6.216l-2.137,4.079
		l-1.36,1.748c-0.583,0.388-1.942,0.194-1.942-0.583l3.302-6.021c0.388-0.583,0.388-0.388,0.583-0.971
		c0.194-0.388,0.194-0.583,0.388-0.971c0.583-1.36,1.554-2.719,2.137-3.691c0.971-1.36,1.554-2.525,2.525-3.691
		c0.971-1.36,1.554-2.525,2.525-3.691c2.525-3.691,1.942-2.914,3.691-5.244c0.971-1.36,3.691-3.302,4.856-4.468
		c1.942-1.748,5.633-3.496,9.324-3.108c6.021,0.583,5.245,6.41,4.468,7.187c-1.165-0.388,0-1.748-2.719-3.496
		c-3.108-1.942-6.604-1.165-9.712,0.388c-1.748,0.971-5.633,4.273-6.41,5.633c-1.554,2.137-6.216,9.712-6.41,11.752
		c0.971,0,1.554-0.971,3.302-1.942c0.583-0.388,2.914-1.748,3.496-1.165c0.583,0.583-0.194,1.554-0.583,2.137
		c-2.137,3.496-1.748,2.914-3.496,6.604c-0.971,1.748-1.748,4.079,0.194,4.856c1.554,0.583,3.691-1.165,4.662-1.748l3.496-3.108
		c0.388-0.583,0.583-1.554,1.165-2.137c0.971-1.36,3.496-4.662,4.856-5.244c1.554-0.971,3.496-1.36,5.05-0.388
		c0.194,1.942-0.971,4.079-2.719,5.05c-0.971,0.388-1.748,0.583-2.719,1.165c-1.36,0.583-2.719,0.583-2.914,0.971
		c-0.583,1.36-1.165,4.468,0.194,5.633c1.36,1.165,4.273,0,5.245-0.583c1.36-0.971,2.719-1.942,4.079-2.914
		c2.137-1.748,2.137-3.108,3.496-3.108c0,1.36-0.583,1.554-1.36,2.525c-0.583,0.583-1.165,1.36-1.748,1.942
		c-0.583,0.583-1.36,1.165-2.137,1.554c-2.719,1.748-4.662,3.108-8.352,2.914c-2.137,0-2.914-0.971-2.914-2.719
		c0-0.388,0-1.165-0.194-1.748c-0.583,0.194-0.388,0.388-1.165,1.165c-1.36,1.165-5.05,3.691-6.798,4.079
		c-1.165,0.194-2.719,0-3.302-0.971c-0.583-1.36-0.388-1.942,0-3.302l2.719-5.827C319.185,111.507,319.962,110.73,319.768,109.468
		L319.768,109.468z M295.391,92.472c6.021-0.194,12.529-0.194,18.744,0c1.748,0,2.719,0,4.273-0.388
		c0.388,0,1.748-0.194,1.942-0.194c1.165-0.388-0.388-0.194,1.554-0.583c2.137-0.388,2.914-1.748,3.302-2.719
		c0.388-0.583,0.194,0,0.388-0.583c0.194-0.971-0.194-1.165,0.388-1.748c0.971,0,1.942,1.748,1.942,2.719
		c0,0.583-1.165,2.525-1.748,2.914c-1.942,1.36-4.468,1.554-7.381,1.748c-5.05,0.194-4.662-0.971-6.798,2.137
		c-1.554,1.942-5.633,8.352-6.798,11.072c-1.165,1.748-1.942,3.691-3.302,5.827c-0.583,1.165-2.719,4.468-2.914,6.216
		c-0.194,2.525,2.137,2.719,4.468,2.719c0.971,0,1.36-0.194,1.554,0.388c-0.971,0.971-4.856,0.388-6.216,0.388
		c-1.748,0-4.273-0.194-4.273-2.525c0-1.554,3.691-7.381,4.662-8.935c0.583-1.36,9.712-16.025,9.712-17.19
		c-3.496-0.971-10.683,0.194-13.694,1.554c-2.137,0.971-4.468,4.273-5.633,6.216c-0.388,0.971-0.388,2.137-1.36,2.137
		c-0.388-1.554,1.748-5.05,2.525-6.41c0.388-1.165,1.36-1.554,1.942-2.525C295.002,92.472,294.42,93.831,295.391,92.472
		L295.391,92.472z M253.726,204.743c4.856,0.194,10.295,0,15.248,0h106.444c2.525,0,5.05,0,7.575,0c2.914,0,1.942-1.748,3.691-3.691
		c0.971-1.165,2.914-2.525,4.662-3.108c2.137-0.583,4.079-0.971,6.604-0.971c10.101,0,20.007,0,30.204,0
		c3.302,0,16.413,0.388,18.744-0.194c0.971-0.194,3.691-1.942,4.662-3.108c3.496-5.245,4.662-6.021,4.662-14.18
		c0-6.41-0.388-11.072,2.137-16.802c0.388-0.971,1.36-1.748,1.554-2.137c0.388-0.971-0.583-1.554-1.165-2.137
		c-1.36-2.137-2.137-6.41-2.525-8.935c-0.194-4.468,0-10.295,0-15.248c0-1.942,0.194-5.245-0.583-6.798
		c-0.583-1.36-0.583-2.719-2.525-5.05c-4.662-6.604-8.352-5.827-17.19-5.827c-5.05,0-10.101,0.194-14.957,0.194h-37.974
		c-6.798,0-3.691,0.388-10.586-0.971c-0.971-0.194-1.748-0.971-2.525-1.36c-2.719-1.748-1.748-0.971-3.691-3.691
		c-1.748-2.525-0.971-10.683-0.971-14.18c0-2.137-0.194-4.856-0.583-6.798c-0.388-2.137-1.554-3.302-2.914-4.662
		c-1.748-1.942-4.273-3.496-6.798-4.468c-2.719-0.971-1.554-0.194-2.914-0.971c-1.554-0.971-10.295-2.525-12.626-2.525
		c-7.77,0-11.849,0.583-16.899-5.827c-0.388-0.583-0.971-1.554-1.554-2.137c-1.165-1.554-0.971-1.748-1.36-2.137
		c-0.971,0.194-0.583,0-1.165,0.971l-1.942,3.302c-2.137,3.302-4.468,4.468-8.158,6.021c-1.36,0.388-5.05,0.194-6.604,0.194
		c-0.971,0-7.575,0.388-8.158,0.971c-1.748,0.583-5.245,0.194-12.237,3.496c-1.554,0.583-4.662,3.496-5.633,5.05
		c-0.194,0.583-0.194,0.971-0.388,1.36c-0.583,1.36-0.971,0.971-1.36,3.691c-0.388,4.468-0.194,9.518-0.194,14.082
		c0,3.108-0.194,3.496-1.748,5.633c-0.583,0.583-0.971,1.36-1.748,1.942c-5.05,3.302-7.575,3.108-14.471,3.108
		c-9.518,0-18.841,0.194-28.262,0.194s-18.453,0-27.874-0.194c-1.36,0-5.245-0.388-6.604,0.388c-0.583,0.388-0.388,0.194-1.36,0.388
		c-0.583,0-0.583,0.194-1.165,0.583c-4.662,3.108-1.36,1.165-3.691,3.302c-0.971,0.583-0.583,1.36-1.36,2.137
		c-0.583,0.971-0.583,1.554-1.165,2.525c-0.971,1.165-0.583,1.165-0.583,2.719c-0.194,1.36-0.388,0.194-0.388,3.108
		c0,1.165,0,2.525,0,3.496v13.985c0,5.05-0.388,3.302-0.971,4.662c-0.194,0.388,0,1.165,0,1.554c-0.583,0.583-0.388,0-0.583,1.36
		c-0.194,0.583-0.194,0.971-0.388,1.36c-1.554,3.302-1.554,1.942,0,5.05c0.388,0.971,0.583,1.748,1.165,2.719
		c0.583,2.137,1.165,3.691,1.165,6.41c0,2.914-0.388,12.626,0.583,14.471c0.583,0.971,0.583,1.554,1.165,2.719
		c0.583,1.165,3.691,5.244,5.05,6.021c2.137,1.36,2.914,1.748,5.827,1.748c2.525,0,4.856,0,7.381,0c9.712,0,20.298-0.388,30.204,0
		c2.525,0,5.05,0,7.575,0c4.079-0.194,4.079,0.388,4.856,0.388c1.554,0.194,5.05,1.748,6.216,2.914
		C251.492,200.858,253.435,203.577,253.726,204.743L253.726,204.743z"/>
	<path d="M286.65,226.206l-0.194,0.971h-2.137c0-1.554,2.137-4.468,2.719-5.244l2.719-5.05c0.388-0.583,1.748-0.583,2.719-0.388
		c0.971,0,1.36,0.194,1.748,0.971c0.583,1.165,1.36,2.137,1.942,3.302l2.719,4.856c0.388,0.583,0.971,0.971,0.971,1.748
		c-0.971,0.388-1.554,0.194-2.525,0.194c-1.748-2.719-0.971-1.942-4.662-2.137c-1.165,0-2.137,0-3.302,0
		C287.038,225.235,288.01,225.43,286.65,226.206L286.65,226.206z M339.289,226.983h-2.137c-0.194-1.165-0.388-10.295,0-10.683
		c0,0,2.137-0.971,2.525,0.583L339.289,226.983L339.289,226.983z M333.268,227.76c-0.583,0.194-1.942,0.194-2.719-0.194
		c-0.388-1.165,0-2.719-0.194-4.079c-1.165-0.388-6.216-0.388-7.77,0c-0.583,1.942,1.165,4.662-2.525,4.079
		c-0.971-0.194-0.388,0-0.583-0.194c-0.388-0.388-0.194-6.021-0.194-7.187c0-1.554-0.583-4.468,2.525-3.691
		c1.748,0.388,0.194,3.108,0.971,3.691l0.194,0.194c0.971,0.194,5.633,0.388,6.604,0.194c2.137-0.388-0.194-3.496,1.554-4.273
		c1.942-0.583,2.525,0.388,2.525,1.942C333.656,219.408,333.462,226.983,333.268,227.76L333.268,227.76z M345.893,227.76
		l-2.137-0.194c-0.388-1.165-0.583-9.712-0.194-11.072c2.914-0.583,3.496,0.971,4.468,1.942c1.165,1.165,2.719,2.137,4.662,4.468
		c0.388,0.388,0.388,0.583,1.36,0.971c0.194-1.942-0.194-5.633,0.194-6.798c0.583-0.194,1.554-0.194,2.525-0.194
		c0.194,1.554,0.971,10.586-0.388,11.072c-2.137,0.971-3.496-1.554-5.245-2.914l-2.525-1.942c-0.971-0.583-1.36-1.748-2.719-1.942
		V227.76L345.893,227.76z M273.733,227.372h-2.914c-0.971-2.525-0.583-1.748-1.748-3.691c-0.971-1.36-0.971-3.108-2.137-3.691
		c0,2.525,0.583,7.381-0.583,7.77c-2.719,0.583-2.137-1.165-2.137-4.273l0.194-7.187c0.971-0.194,2.914-0.194,3.691,0
		c1.554,0.194,1.36,1.165,1.942,2.137c0.971,1.36,1.942,5.05,2.719,5.633c0.971-0.388,0.583-1.748,1.942-3.691
		c0.971-1.554,1.165-2.525,1.942-3.691c1.165,0,4.079-0.583,4.468,0.388c0.194,0.971,0.194,9.518,0,10.586
		c-0.583,0.194-1.748,0.194-2.719,0c-0.194-1.554,0.388-6.41-0.388-7.575C276.452,220.574,274.801,225.818,273.733,227.372
		L273.733,227.372z M314.329,223.293c0.388,0.194,0.194,0.194,0.583,0.388c0.194,0.194,0.388,0.194,0.971,0.388
		c0,1.554-1.36,2.137-2.719,2.914c-2.914,1.36-11.752,0.583-11.752-5.245c0-3.302,2.914-5.05,6.021-5.827
		c2.137-0.388,5.827,0.194,7.187,1.36c0.583,0.388,1.36,0.971,1.554,1.554c-0.388,0.583-1.554,1.554-2.719,1.165
		c-0.583-0.194-0.388-1.165-2.719-1.36c-2.525-0.388-5.244,0.194-6.021,1.942c-1.36,3.496,3.496,5.633,6.798,4.079
		C313.164,224.264,313.358,223.487,314.329,223.293L314.329,223.293z M373.961,219.02h-10.586v1.554
		c1.942,0.194,8.352-0.194,9.518,0.388c0.388,3.691-2.914,1.554-9.518,2.137c-0.194,1.554-0.194,1.942,1.36,1.942
		c1.748,0,8.935-0.388,9.324,0.194c0.388,0.583,0.388,1.554,0.194,2.525c-1.554,0.194-12.917,0.194-14.082,0
		c-0.194-1.36-0.388-10.101,0-10.975c0.388-0.388,11.363-0.388,12.626-0.194C375.127,216.3,374.544,218.243,373.961,219.02
		L373.961,219.02z M253.726,204.743c-0.388-1.165-2.137-3.691-2.914-4.468c-1.165-1.165-4.468-2.719-6.216-2.914
		c-0.971,0-0.971-0.583-4.856-0.388c-2.525,0-5.05,0-7.575,0c-9.712-0.388-20.007,0.194-30.204,0c-2.525,0-4.856,0-7.381,0
		c-2.914,0-3.496-0.388-5.827-1.748c-1.36-0.971-4.468-4.856-5.05-6.021c-0.388-1.165-0.388-1.748-1.165-2.719
		c-1.165-1.748-0.583-11.752-0.583-14.471c0-2.719-0.194-4.273-1.165-6.41c-0.194-0.971-0.388-1.748-1.165-2.719
		c-1.748-3.108-1.554-1.748,0-5.05c0.194-0.583,0.194-0.583,0.388-1.36c0.194-1.165,0-0.388,0.583-1.36c0-0.388,0-1.165,0-1.554
		c0.388-1.165,0.583,0.583,0.971-4.662v-14.082c0-1.165,0-2.525,0-3.496c0-2.914,0.194-1.748,0.388-3.108
		c0.194-1.554-0.194-1.748,0.583-2.719c0.583-0.583,0.583-1.554,1.165-2.525c0.583-1.165,0.388-1.554,1.36-2.137
		c2.525-2.137-0.971-0.194,3.691-3.302c0.388-0.194,0.583-0.388,1.165-0.583c0.971-0.194,0.583,0.194,1.36-0.388
		c1.36-0.971,5.244-0.388,6.604-0.388c9.129,0,18.453,0.194,27.874,0.194c9.518,0,18.841-0.194,28.262-0.194
		c6.798,0,9.324,0.194,14.471-3.108c0.583-0.388,1.165-1.165,1.748-1.942c1.554-1.942,1.748-2.525,1.748-5.633
		c0-4.468-0.194-9.518,0.194-14.082c0.388-2.914,0.583-2.525,1.36-3.691c0.194-0.388,0.194-0.583,0.388-1.36
		c0.971-1.554,4.079-4.468,5.633-5.05c6.798-3.302,10.586-2.914,12.237-3.496c0.583-0.194,7.381-0.971,8.158-0.971
		c1.554,0,5.245,0.194,6.604-0.194c4.079-1.36,6.021-2.719,8.158-6.021l1.942-3.302c0.388-0.971,0.194-0.583,1.165-0.971
		c0.388,0.388,0.194,0.583,1.36,2.137c0.388,0.583,0.971,1.554,1.554,2.137c5.05,6.41,9.129,5.827,16.899,5.827
		c2.525,0,11.072,1.554,12.626,2.525c1.36,0.583,0.194,0,2.914,0.971c2.719,0.971,5.05,2.525,6.798,4.468
		c1.36,1.36,2.525,2.525,2.914,4.662c0.388,1.942,0.583,4.856,0.583,6.798c0,3.496-0.971,11.849,0.971,14.18
		c1.942,2.914,1.36,1.942,3.691,3.691c0.583,0.388,1.554,1.165,2.525,1.36c6.604,1.36,3.496,0.971,10.586,0.971h37.974
		c5.05,0,10.101-0.194,14.957-0.194c8.352,0,12.529-0.971,17.19,5.827c1.748,2.525,1.748,4.079,2.525,5.05
		c0.971,1.554,0.583,4.856,0.583,6.798c0,4.856-0.194,10.683,0,15.248c0.194,2.719,1.165,6.604,2.525,8.935
		c0.388,0.971,1.554,1.36,1.165,2.137c-0.194,0.388-1.165,1.554-1.554,2.137c-2.719,5.245-2.137,10.295-2.137,16.802
		c0,7.964-1.165,8.935-4.662,14.18c-0.583,1.165-3.496,2.719-4.662,3.108c-2.525,0.583-15.345,0.194-18.744,0.194
		c-10.101,0-20.007,0-30.204,0c-2.719,0-4.273,0.194-6.604,0.971c-1.748,0.388-3.496,1.942-4.662,3.108
		c-1.748,1.942-0.971,3.691-3.691,3.691c-2.525,0-5.05,0-7.575,0H267.906C264.021,204.743,258.873,204.937,253.726,204.743
		L253.726,204.743z M320.739,60.228c-1.36-0.194-2.525-0.194-3.108,0.583l-1.165,2.525c-0.388,2.525-2.525,5.245-4.079,7.187
		c-0.971,0.971-3.302,2.525-4.468,2.719c-1.36,0.194-1.748,0.388-3.108,0.388c-7.187,0-12.917,0.583-19.521,2.525
		c-1.165,0.388-4.273,1.554-5.05,1.942c-0.583,0.388-0.388,0.194-1.36,0.583c-0.388,0.194-0.583,0.388-1.165,0.583
		c-0.388,0.388-0.583,0.388-1.165,0.583c-1.165,0.583-3.496,3.691-4.273,4.856c-3.108,5.244-1.942,13.694-1.942,20.007
		c0,2.719-0.388,3.691-1.942,5.05c-2.914,2.525-3.108,1.554-4.856,2.525c-1.36,0.583-0.194,0.388-3.108,0.388h-18.453
		c-14.471,0-29.233-0.194-43.704-0.194c-6.41,0-6.798-0.583-11.752,3.108c-3.108,2.137-4.468,5.244-6.021,8.741
		c-0.583,1.36-1.36,4.468-0.971,6.021c0.194,0.971-0.194,15.248-0.194,17.967c0,2.525,0,1.748-0.583,2.914
		c0.971,1.36,0,1.554-0.388,2.914c-1.165,3.302-0.971,2.914-3.302,4.273c-0.971,0.388-0.971,1.748-0.194,2.719
		c1.36,0.583,1.36,0.194,2.137,1.36c1.554,1.942,2.137,4.856,2.719,7.575c0.194,1.554,0,5.05,0,6.798c0,6.604,0,10.683,4.079,16.413
		c2.914,4.273,3.496,3.302,5.827,5.244c0.194,0.194,0.194,0.194,0.388,0.388c0.388,0.388,0.583,0.194,1.36,0.194l0.194,0.583
		c1.748,0,3.496-0.194,5.633-0.194c1.942,0,4.079,0,6.021,0c4.079,0,7.77,0.583,11.752,0.194c7.575-0.583,15.734,0,23.406-0.388
		c1.748,0,4.273,0,5.827,0.194c1.36,0.194,0.971,0.388,2.525,0.583c0.971,0,1.36,0.388,1.942,0.971
		c2.719,1.942,3.302,4.079,4.079,7.77c0.971,5.244,0.971,11.363,0.971,16.899c0.194,6.216,1.748,7.575,6.41,11.363
		c0.583,0.388,1.165,0.971,1.748,1.36c0.583,0.583,0,0.194,0.971,0.388l3.302,1.36c1.942,0.971,3.496,1.165,4.468,1.554
		c2.137,0.971,4.662,1.165,7.187,1.748c1.748,0.388,3.302,0.388,4.856,0.971c3.108,0.971,13.306,1.36,16.51,1.36
		c3.691,0.194,7.77-0.194,10.683,1.165c0.388,0.194,0.583,0.194,1.165,0.388l2.137,1.942c6.604,7.77,2.914,10.586,7.77,9.712
		c0.971-1.554,0.971-3.302,1.748-4.856c1.554-2.914,3.108-5.633,6.021-7.381c1.942-1.165,2.137-1.36,5.05-1.36
		c8.352-0.194,16.51-0.388,24.571-1.748c1.36-0.194,4.468-0.583,5.633-1.165c1.165-0.388,3.496-0.583,5.245-1.165
		c4.856-1.748,9.324-3.302,12.917-6.798c2.525-2.525,3.302-4.468,3.302-7.964c0-1.36,0.194-0.194,0.194-1.165
		c0,0-0.194-2.525-0.194-2.914c0-1.36,0.194-1.748,0.388-2.914v-5.05c0-1.165,0.194-0.583,0.194-1.554c0-0.583-0.194-1.165,0-1.748
		l0.583-4.273c0.388-1.554,1.165-3.691,1.942-4.662c1.748-2.137,1.554-1.748,4.079-2.525c1.942-0.583,3.108-0.971,5.633-0.971
		h12.626c1.942,0.194,4.273,0.194,6.41,0.194c8.741,0,17.287,0,25.931,0.194c6.798,0,8.352-2.914,12.14-6.021
		c0.583-0.388,0.194-0.194,0.388-1.165c0.194-0.388,0.971-1.36,1.36-1.942c0.971-1.36,0.388-1.165,1.165-1.165
		c0.194,0,0.194,0,0.388,0c-0.388-0.583-0.971-0.971-0.194-1.942c0.583-0.971,0.194-0.971,0.388-1.942
		c0-0.583,0.388-1.165,0.388-1.748s-0.194-1.165,0-1.942c0.388-2.137-0.194-1.942-0.194-4.079l0.388-9.129
		c1.748-7.964,4.079-5.827,4.273-7.381c0.583-2.525-0.971-2.137-1.36-2.719c-0.971-0.583-1.748-2.137-2.137-3.302
		c-2.137-5.633-0.583-18.744-1.165-25.348c-0.194-4.273-0.388-2.719-1.165-4.662c-0.194-0.388-0.194-0.971-0.388-1.36
		c-1.748-3.691-4.856-7.964-9.129-9.518c-2.719-0.971-3.691-0.971-6.798-0.583c-2.525,0-5.05,0-7.575,0
		c-5.05,0-10.101,0.194-14.957,0.194c-10.101,0-20.007,0-30.204,0c-2.525,0-5.05,0-7.575,0c-4.079,0.194-8.935-0.194-11.849-3.496
		c-1.748-1.942-1.36-3.108-1.554-6.021c-0.194-10.295,1.942-16.802-6.604-23.6c-5.05-4.273-15.636-6.216-23.794-6.216
		c-2.525,0-4.856,0-7.187-0.583c-1.942-0.583-3.108-1.942-4.468-3.108C323.07,67.706,322.099,63.433,320.739,60.228L320.739,60.228z
		"/>
	<path fill="#CCCCCC" d="M320.739,60.228c1.36,3.302,2.525,7.575,5.245,9.712c1.36,1.165,2.525,2.525,4.468,3.108
		c2.137,0.583,4.662,0.388,7.187,0.583c8.158,0.194,18.744,2.137,23.795,6.216c8.352,6.798,6.216,13.403,6.604,23.6
		c0,3.108-0.194,4.079,1.554,6.021c2.719,3.302,7.77,3.496,11.849,3.496c2.525,0,5.05,0,7.575,0c10.101,0,20.007,0,30.204,0
		c5.05,0,10.101-0.194,14.957-0.194c2.525,0,5.05,0.194,7.575,0c2.914,0,4.273-0.194,6.798,0.583
		c4.273,1.554,7.381,6.021,9.129,9.518c0.194,0.388,0.194,0.971,0.388,1.36c0.583,1.942,0.583,0.388,1.165,4.662
		c0.388,6.604-1.165,19.91,1.165,25.348c0.388,1.165,1.36,2.719,2.137,3.302c0.583,0.388,2.137,0.194,1.36,2.719
		c-0.388,1.554-2.719-0.583-4.273,7.381l-0.388,9.129c0,1.942,0.583,1.748,0.194,4.079c-0.194,0.971,0,1.36,0,1.942
		c0,0.583-0.388,1.165-0.388,1.748c-0.194,1.165,0.194,1.165-0.388,1.942c-0.583,0.971-0.194,1.36,0.194,1.942
		c-0.194,0.194-0.194,0-0.388,0c-0.583,0-0.194-0.194-1.165,1.165c-0.194,0.388-1.165,1.554-1.36,1.942
		c-0.388,0.971,0,0.388-0.388,1.165c-3.496,3.302-5.05,6.216-12.14,6.021c-8.352-0.194-17.19,0-25.931-0.194
		c-1.942,0-4.468,0-6.41-0.194h-12.626c-2.525,0-3.496,0.194-5.633,0.971c-2.525,0.971-2.137,0.388-4.079,2.525
		c-0.971,1.165-1.554,3.108-1.942,4.662l-0.583,4.273c-0.194,0.583,0,1.165,0,1.748c0,0.971-0.194,0.388-0.194,1.554v5.05
		c0,1.165-0.388,1.554-0.388,2.914c0,0.388,0.194,2.914,0.194,2.914c-0.194,0.971-0.388-0.194-0.194,1.165
		c0,3.496-0.971,5.633-3.302,7.964c-3.496,3.496-7.964,5.05-12.917,6.798c-1.554,0.583-4.273,0.583-5.244,1.165
		c-1.165,0.583-4.079,0.971-5.633,1.165c-7.964,1.554-16.025,1.748-24.571,1.748c-2.719,0-3.108,0.194-5.05,1.36
		c-2.914,1.554-4.468,4.468-6.021,7.381c-0.971,1.554-1.165,3.302-1.748,4.856c-4.856,0.583-1.165-1.942-7.77-9.712l-2.137-1.942
		c-0.388-0.194-0.583-0.388-1.165-0.388c-3.108-1.554-7.187-1.165-10.683-1.165c-3.302-0.194-13.403-0.388-16.51-1.36
		c-1.748-0.388-3.302-0.388-4.856-0.971c-2.525-0.583-4.856-0.583-7.187-1.748c-0.971-0.388-2.525-0.583-4.468-1.554l-3.302-1.36
		c-0.971-0.194-0.194,0-0.971-0.388c-0.388-0.388-1.165-0.971-1.748-1.36c-4.468-3.691-6.216-5.05-6.41-11.363
		c-0.194-5.633,0-11.752-0.971-16.899c-0.583-4.079-1.554-6.021-4.079-7.77c-0.583-0.388-1.165-0.971-1.942-0.971
		c-1.36-0.194-1.165-0.388-2.525-0.583c-1.554-0.194-4.079-0.194-5.827-0.194c-7.77,0.388-16.025-0.194-23.406,0.388
		c-3.691,0.194-7.575-0.194-11.752-0.194c-1.942,0-4.079,0-6.021,0s-3.691,0.194-5.633,0.194l-0.194-0.583
		c-0.971-0.194-0.971,0-1.36-0.194c0,0-0.194-0.194-0.388-0.388c-2.137-1.942-2.914-1.165-5.827-5.245
		c-4.079-5.633-4.079-9.324-4.079-16.413c0-1.748,0.194-5.245,0-6.798c-0.388-2.719-1.36-5.633-2.719-7.575
		c-0.971-1.165-0.971-0.583-2.137-1.36c-0.388-0.971-0.388-2.137,0.194-2.719c2.525-1.36,2.137-1.165,3.302-4.273
		c0.388-1.36,1.165-1.554,0.388-2.914c0.583-1.165,0.583-0.388,0.583-2.914c0-2.719,0.388-16.802,0.194-17.967
		c-0.388-1.554,0.194-4.662,0.971-6.021c1.554-3.302,2.914-6.216,6.021-8.741c4.856-3.691,5.245-3.108,11.752-3.108
		c14.471,0,29.233,0.194,43.704,0.194h18.453c2.914,0,1.748,0.194,3.108-0.388c1.748-0.971,2.137,0,4.856-2.525
		c1.554-1.36,1.942-2.525,1.942-5.05c0-6.216-1.165-14.859,1.942-20.007c0.583-1.165,3.108-4.273,4.273-4.856
		c0.388-0.194,0.583-0.388,1.165-0.583c0.388-0.388,0.388-0.388,1.165-0.583c0.971-0.388,0.583,0,1.36-0.583
		c0.971-0.583,4.079-1.748,5.05-1.942c6.41-1.942,12.529-2.525,19.521-2.525c1.554,0,1.748-0.194,3.108-0.388
		c1.36-0.194,3.496-1.748,4.468-2.719c1.748-1.748,3.496-4.662,4.079-7.187l1.165-2.525C318.214,60.13,319.379,60.13,320.739,60.228
		L320.739,60.228z M316.077,267.191c1.554,0,3.302,0,4.856,0c1.748,0,2.914,0.194,4.273-0.971c0.971-0.583,1.554-1.554,2.525-2.719
		c0.971-1.36,0.971-1.942,1.554-3.496l1.748-3.108c3.108-4.079,7.187-3.108,11.849-3.108c1.748,0,3.108,0,4.662-0.194
		c1.554-0.194,3.108-0.194,4.856-0.194c7.575-0.388,18.453-2.719,24.96-5.244c5.05-1.942,8.158-4.856,11.752-8.741
		c1.165-1.36,3.108-4.273,3.302-6.798l0.194-10.101l0.971-9.129c0.583-3.496,1.165-4.856,4.273-5.827
		c4.079-1.165,14.957-0.194,19.618-0.194c6.604,0,13.403,0,20.007,0c5.245,0.194,13.306,0.971,17.579-2.137
		c3.108-2.137,7.381-6.604,9.129-10.975c1.36-3.302,1.748-4.079,1.942-8.158c0.194-3.691-0.194-7.381,0-9.712
		c0.388-10.586,3.496-6.604,9.324-10.683c1.165-0.583,1.554-1.554,1.554-3.496s-0.971-2.525-1.36-3.691
		c-0.388-1.165-0.388-0.971-1.165-1.36c-1.554-1.165-1.942-0.971-3.302-1.554c-0.388-0.194-1.36-0.388-1.942-0.388
		c-1.748-0.194-2.719-0.194-2.914-2.137c-0.194-1.554,0.194-3.302,0-4.856c-1.165-7.575,1.36-16.899-1.165-24.183
		c-0.194-0.388-0.194-0.388-0.388-0.971c-0.194-0.583,0-0.583-0.194-1.165c-0.388-1.165-0.388,0.194-0.583-1.748
		c-0.388-0.194-1.165-0.971-1.36-1.36c-0.971-1.748-6.021-6.798-7.77-8.158l-0.583-0.388c-0.388-0.194,0,0-0.388-0.194
		c-4.468-2.719-10.295-1.748-15.734-1.748c-19.133,0-38.363,0.194-57.69,0c-1.554,0-2.719-0.194-3.691-0.971
		c-0.388-0.194-0.388-0.388-1.165-0.583l-0.194-14.18c0-2.719,0-2.137-0.388-4.662c-0.194-1.36-0.971-2.525-1.36-3.496
		c-0.194-0.583-0.194-0.388-0.583-1.165c-1.748-2.525-4.079-4.856-6.216-6.798c-1.165-0.971-4.468-3.108-6.021-3.691
		c-0.583-0.194-1.165-0.194-1.748-0.583c-0.971-0.388-1.165-0.388-1.942-0.583c-3.108-1.36-9.129-1.942-12.626-2.137
		c-5.245-0.388-10.295,1.36-13.791-3.302c-0.388-0.583-0.194-0.388-0.971-1.554l-0.388-1.165c-0.388-0.583-0.388-1.36-0.971-2.525
		c-0.388-0.583-0.583-0.971-0.971-1.554c-0.194-0.583-0.583-0.971-1.165-1.36c-0.583-0.583-1.554-1.942-2.914-1.942
		s-3.302,0-4.856,0c-1.942,0-2.914-0.388-4.079,0.971c-2.525,2.719-1.942,1.942-3.302,5.245c-0.583,1.748-1.554,4.079-3.108,5.245
		c-0.388,0.388-1.165,0.583-1.554,0.971c-3.302,1.748-9.518,0.583-13.694,1.36c-1.554,0.194-2.914,0.194-4.273,0.583
		c-0.971,0.194-1.165,0.194-1.942,0.388c-0.971,0-1.36,0.388-1.942,0.388c-2.914,0.388-9.129,3.302-11.752,5.633
		c-0.388,0.388-0.194,0.388-0.388,0.583c-0.583,0.971-3.496,2.719-5.05,5.827c-3.108,6.021-2.137,10.101-2.137,17.287
		c0,1.748,0.583,5.244-1.165,6.41c-0.583,0.388-0.583,0.583-1.554,0.583c-1.36,0-1.36,0.388-4.273,0.388l-14.859,0.194
		c-16.51,0.194-32.924,0-49.337,0c-2.137,0-5.05-0.194-6.798,1.165l-1.36,0.583c-3.496,2.914-7.381,6.216-9.324,10.586
		c-2.914,6.021-2.525,10.101-2.525,17.287c0,3.302,0,6.41,0,9.712c0,5.827-3.108,5.827-6.604,8.158
		c-3.691,2.525-2.137,1.942-3.302,2.719c-0.388,0.194-0.388,0.194-0.583,0.388c-0.388,0.388-0.583,1.165-0.583,1.748
		c-0.194,1.748,0.971,2.525,1.748,3.302c1.554,1.748,2.137,1.942,4.468,2.914c0.971,0.388,2.525,1.165,2.914,1.942
		c0.194,0.194,0.194,0.583,0.583,1.748c0.388,0.971,0.194,0.971,0.971,1.554c0.388,0.583,0.388,0.971,0.583,1.942
		c0.194,3.302-0.388,11.363,0.194,14.18c0.194,0.971,0.194,1.165,0.388,1.942c0.388,1.942,2.137,5.633,3.496,7.381
		c0.194,0.194,0.388,0.388,0.388,0.583c1.36,1.748,3.302,3.496,4.856,5.05c0.971,1.165,2.525,1.748,3.302,2.525
		c0.194,0.194,0,0,0.194,0.194c0.388,0.194,0,0,0.388,0.194c0.971,0.194,0.583,0.388,1.748,0.583
		c4.662,0.971,24.183,0.388,29.428,0.388c6.216,0,13.403-0.388,19.618-0.194c1.554,0,4.662,0.194,6.216,1.165
		c0.388,0.194,1.554,1.942,1.554,3.302c0.194,2.525,0.583,2.914,0.583,6.604l0.583,14.082c0,1.554,0.583,2.719,1.36,3.691
		c1.165,2.137,2.719,3.496,4.468,5.245l0.388,0.388c0.194,0.194,0,0,0.194,0.194l1.942,1.748c1.165,1.165,2.914,2.137,4.468,2.914
		c1.165,0.583,0.583,0.388,1.748,0.583c0.583,0.194,0.194,0.194,0.971,0.583c0.971,0.194,0.971,0.388,1.36,0.583
		c0.194,0.194,0.583,0,1.165,0.194c1.554,0.388,4.079,1.554,5.633,1.748c0.971,0.194,1.165,0,1.942,0.388
		c4.273,1.748,22.046,2.719,26.708,2.914c4.079,0,7.381,0,9.324,3.108c1.165,1.554,1.554,3.302,2.525,5.244
		c0.194,0.583,2.719,4.079,3.108,4.273c0.388,0.194,0.583,0.194,0.971,0.194C316.077,266.9,315.106,266.803,316.077,267.191
		L316.077,267.191z"/>
	<path d="M347.642,185.027c-0.388-0.583-0.194-2.525-0.194-3.496c4.273-0.194,9.324-0.194,13.791-0.194
		c1.748,0,3.302-0.194,3.108,1.748c0,2.525-0.194,1.942-2.719,2.137c-1.554,0-3.302,0-4.856,0.194l-8.741-0.194
		C347.642,185.027,347.836,185.027,347.642,185.027L347.642,185.027z M347.642,172.596c1.748-0.194,14.18-0.583,16.025,0
		c1.554,0.583,1.554,2.719,0.583,3.691c-0.583,0.583-8.935,0.583-10.586,0.583C347.447,177.064,346.865,177.646,347.642,172.596
		L347.642,172.596z M342.009,190.175c1.554,0.194,19.133,0.194,21.658,0c2.137-0.194,2.719-0.194,4.273-1.165
		c0.583-0.388,1.165-0.194,1.554-1.165c0.194-0.388,0.388-1.36,0.971-1.942c0.971-2.525,0.583-1.748-0.388-5.05
		c-0.194-0.971,0-0.388-0.388-0.971c-0.583-0.388-1.36-0.388-1.554-1.36c0.583-0.583,1.36,0.194,2.525-2.719
		c0.583-1.554,0.971-2.914,0-4.273c-0.583-1.36,0-1.554-2.137-3.108c-1.165-0.583-2.719-1.165-4.273-1.165
		c-2.719,0-20.007,0-21.658,0C341.426,169.294,341.426,187.747,342.009,190.175L342.009,190.175z"/>
	<path id="XMLID_52_" d="M273.344,167.74c-0.583,1.36-0.194,8.935-0.194,11.072c0,1.942-0.388,10.295,0.194,11.072
		c0.971,0.388,25.737,0.388,27.874,0c0.194-0.971,0.194-1.554,0.194-2.525c0-0.388,0-0.971,0-1.36c0-0.583,0-0.583-0.388-0.971
		c-1.36-0.583-20.298,0.388-21.658-0.388c-0.194-0.194,0,0-0.194-0.388l-0.194-1.36c0-0.971,0-1.554,0.194-2.137
		c1.748-0.971,17.19,0.194,18.453-0.388c0.583-0.388,0.388-3.302,0.194-4.273c-3.108,0-6.216,0-9.324,0
		c-2.525,0-7.381,0.194-9.518-0.194l0.194-3.691c1.36-0.971,20.298,0.583,21.464-0.388c0.388-0.583,0.194-2.719,0.194-3.691
		c-0.194-1.165-0.971-0.583-3.108-0.583C290.535,167.546,279.851,167.546,273.344,167.74L273.344,167.74z"/>
	<path d="M324.527,172.402c1.748,0,3.691-0.194,4.662,0.971c0.971,1.36,0.388,3.302-0.583,4.079
		c-1.36,0.583-14.471,0.388-15.248,0.194c-0.194-0.971-0.194-4.079,0-4.856L324.527,172.402L324.527,172.402z M307.725,167.74
		c-0.583,1.554-0.194,8.935-0.194,11.072c0,1.748-0.194,10.295,0.194,11.072c0.583,0.194,4.273,0.194,4.856,0
		c0.388-0.194,0.388-0.583,0.388-1.554c0-1.554-0.388-5.244,0.194-5.827c0.971-0.583,9.712-0.388,11.752-0.194l2.719,6.216
		c0.194,0.388,0,0.388,0.194,0.583c0.388,0.971,0.971,0.971,2.525,0.971c1.36,0,3.108,0.194,4.079-0.388
		c-0.194-2.719-3.496-5.827-3.108-8.352c1.748-1.36,1.554-0.971,2.914-2.719c1.36-1.942,0.971-2.137,0.971-4.856
		c0-1.36-1.165-3.302-1.554-4.079c-0.971-1.165-1.942-1.942-3.496-2.137C328.12,167.546,308.988,167.06,307.725,167.74
		L307.725,167.74z"/>
	<path d="M277.229,140.061c2.137-0.583,7.964-0.194,10.683-0.194c1.554,0,3.691-0.194,4.856,0.583
		c1.165,0.971,1.165,2.719,0.194,3.691c-1.165,1.165-2.914,0.971-4.662,0.971c-1.36,0-10.295,0.194-10.975-0.194
		C276.744,144.528,276.841,140.838,277.229,140.061L277.229,140.061z M271.693,135.302c-0.388,1.165-0.194,20.298,0,22.629
		c1.554,0,4.856,0.388,5.827-0.194c0.194-1.554,0-6.216,0-6.798c0.194-0.388,0-0.194,0.194-0.388
		c1.36-0.388,9.324-0.194,11.363-0.194c0.583,1.36,1.36,2.137,1.942,3.691c0.194,0.971,1.554,3.108,2.137,3.691h5.633
		c0-1.165-0.194-0.194-0.971-1.942c-0.971-2.719-2.719-4.662-2.719-6.216c3.496-1.942,3.108-3.108,3.691-4.856
		c0.971-1.942,0-5.05-1.165-6.604c-0.583-0.971-2.137-2.137-3.302-2.525C292.671,134.816,272.956,134.816,271.693,135.302
		L271.693,135.302z"/>
	<path id="XMLID_47_" d="M341.426,155.6c0.971,1.36,4.856,1.554,6.41,1.942c5.245,1.36,6.021,1.36,11.072,0.388
		c2.914-0.388,7.187-1.942,8.352-4.468c1.942-3.108,0.971-7.381-2.525-8.352c-4.662-1.554-6.41-1.36-11.363-1.36
		c-2.137,0-6.021,0.194-7.381-1.36c-0.194-1.942,1.748-2.525,3.496-2.525c1.748-0.194,3.496-0.583,5.245-0.583
		c2.137-0.194,3.496,0.388,5.633,0.583c1.748,0.194,3.302,1.36,4.856,1.36c0.194-0.194,0.194-0.194,0.194-0.388l0.388-0.583
		c0.194-0.583,0-0.194,0.194-1.36c0.194-0.971,0.583-1.36,0.583-2.525l-7.381-1.942c-4.079-0.388-10.295-0.583-13.694,1.165
		c-2.719,1.554-7.77,4.079-5.05,8.935c0.194,0.388,0.194,0.388,0.583,0.583l0.971,0.583c3.496,4.273,21.464,0.194,19.618,4.662
		c-1.36,3.496-12.14,2.719-15.248,1.748c-0.971-0.194-1.554-0.388-2.525-0.583c-2.525-0.583-1.942-2.137-3.108,1.165
		C342.009,154.046,341.426,154.823,341.426,155.6L341.426,155.6z"/>
	<path id="XMLID_46_" d="M397.561,181.822c0.971,2.525-0.388,2.914-2.137,3.691c-0.971,0.388-1.36,0.583-2.719,0.583
		s-1.942,0.194-3.108,0.388c-1.165,0-1.942,0-2.914-0.388c-0.583-0.194-3.496-0.194-5.827-1.165
		c-3.691-1.36-2.525-0.971-3.496,1.165c-0.388,0.583-0.583,1.165-0.971,1.942c0.388,0.194,0.583,0.388,1.165,0.583
		c0.583,0.194,0.971,0.583,1.36,0.971c0.583,0.388,1.165,0,1.942,0.194c0.583,0.194,0.583,0.388,1.554,0.388
		c2.525,0.388,5.05,0.971,7.77,0.583c0.583,0,1.165-0.194,1.748-0.194c0.971-0.194,0.583-0.194,1.748-0.388
		c3.496-0.388,6.216-0.971,8.741-4.273c1.942-2.719,0.971-6.604-2.525-8.741c-2.137-1.36-8.158-0.971-11.072-1.36
		c-2.137-0.194-6.216,0-7.575-1.165c-0.194-1.165,0.194-1.748,0.971-1.942c2.914-1.36,4.079-1.36,7.77-1.36
		c5.245,0,9.129,1.942,10.586,1.748c0.388-0.971,0.194-1.165,0.583-1.942c0.388-0.583,0.583-1.165,0.583-2.137
		c-1.554-0.971-4.273-1.748-6.216-1.748c-1.36,0-4.273-1.165-7.187-0.971c-0.971,0-0.971,0.388-3.302,0.583
		c-2.719,0.194-6.604,1.942-8.352,4.079c-1.165,1.554-1.554,4.468-0.194,6.216c1.36,1.554,2.719,2.525,5.245,2.914
		C387.072,181.143,392.317,181.045,397.561,181.822L397.561,181.822z"/>
	<path d="M208.274,144.917c-0.583-6.021-0.388-4.856,5.827-4.856c2.525,0,8.935-0.388,10.101,0.583
		c1.165,1.165,0.971,3.108-0.388,3.691C222.356,145.499,209.828,145.111,208.274,144.917L208.274,144.917z M208.079,157.737
		c0.388-1.165,0-5.827,0.194-7.575c5.05-1.554,17.19,2.137,21.075-3.302c2.525-3.302,1.748-8.741-2.719-10.975
		c-2.525-1.165-4.662-0.971-7.381-0.971c-5.245,0-11.363-0.388-16.51,0c-0.388,1.554-0.194,11.752-0.194,14.082
		c0,9.129-0.583,8.741,1.942,8.741C205.651,157.737,206.914,158.028,208.079,157.737L208.079,157.737z"/>
	<path id="XMLID_43_" d="M236.536,157.639c1.165,0.388,4.079,0.194,5.244,0c0.583-2.525,0-6.216,0-8.935
		c1.748-0.583,6.021-0.388,8.352-0.388c1.748,0,7.187-0.388,8.352,0.388c0.388,1.942-0.388,7.575,0.194,8.741
		c1.165,0.388,4.273,0.388,5.245,0c0.194-0.971,0.194-21.075,0-22.046c-0.971-0.194-4.662-0.388-5.05,0.194
		c-1.36,1.165,0.388,6.216-0.583,7.964h-15.928c-0.194-1.554-0.194-2.914-0.194-4.468c0-1.165,0.583-3.496-0.583-3.691
		c-0.583-0.194-3.691-0.194-4.468,0c-0.971,0.388-0.388,3.108-0.388,4.079C236.341,143.168,236.147,154.629,236.536,157.639
		L236.536,157.639z"/>
	<path d="M317.437,148.607c-2.914,0-2.719,0-0.194-4.079c0.388-0.583,0.388-0.388,0.971-1.165c0.583-1.165,1.165-3.108,2.137-3.496
		c0.388,0.388,1.748,3.108,2.719,4.273l2.137,4.079c0,0.971,0,0.194-0.194,0.388C324.527,148.996,318.603,148.607,317.437,148.607
		L317.437,148.607z M304.229,157.348c0.971,0.388,4.468,0.194,5.633,0c1.36-2.137,0.971-1.554,1.748-3.108
		c1.165-1.748,2.137-1.36,5.827-1.36h8.158c2.137,0,2.525-0.388,3.496,1.36c0.583,0.971,1.36,1.942,1.942,3.108h5.633
		c-0.194-1.942-1.36-2.525-2.914-5.827l-9.518-16.802h-7.381c-0.194,0.388-1.165,2.137-1.554,2.719
		c-0.388,0.583-1.165,1.748-1.554,2.719c-1.165,1.748-2.137,3.496-3.108,5.633c-0.194,0.388-0.388,1.165-0.583,1.36
		c-1.554,2.525-0.971,1.554-2.137,4.273c-0.388,0.971-1.165,1.554-1.554,2.719C305.006,156.183,304.229,156.765,304.229,157.348
		L304.229,157.348z"/>
	<path d="M393.871,148.413h-9.712c0-1.36,0.388-1.554,1.165-2.525c0.388-0.971,0-0.194,1.165-2.137
		c1.554-2.137,1.748-4.273,2.719-4.273c0.971,0,1.942,3.302,2.525,4.273C392.123,144.722,393.677,147.442,393.871,148.413
		L393.871,148.413z M372.602,157.639c1.554,0.194,4.079,0.194,5.244,0l2.719-4.468c1.554-0.194,4.079,0,5.827,0
		c1.942,0,3.691-0.194,5.827,0c1.942,0.194,3.691-0.388,4.856,0.583l1.942,3.691h5.827c-0.194-1.165-0.583-1.36-1.554-3.302
		l-5.245-9.324c-1.165-1.748-4.079-6.604-5.244-9.129c-0.971-1.36-1.942-0.971-3.691-0.583c-1.36,0.194-3.496-0.388-4.273,0.388
		l-5.245,9.324C378.526,146.665,372.602,155.6,372.602,157.639L372.602,157.639z"/>
	<path id="XMLID_38_" d="M237.507,167.74c-0.194,0.583,0.388,0.971,1.36,3.108l1.942,3.691c0.194,0.388,0.194,0,0.388,0.583
		c0.194,0.583,0.194,0.971,0.583,1.748l6.41,12.237c0.388,1.36,1.36,1.165,4.079,1.165c1.554,0,3.302,0.194,4.079-0.583
		c0.194-0.194,0.583-1.165,0.971-1.36c1.165-1.942,2.914-6.216,4.079-7.77l3.302-6.021c0.388-1.165,1.165-1.942,1.554-3.108
		c0.194-0.583,0.194-0.971,0.583-1.554c0.388-0.583,0.583-0.971,0.583-1.748c-1.36,0-2.719,0-4.079,0
		c-2.914,0-1.554,0.194-4.079,4.079c-0.583,0.971-0.583,1.942-1.36,2.914c-1.165,1.554-3.691,7.381-4.273,7.964
		c-0.388,0.388-0.388,0.583-0.583,1.36c-0.194,0.583-0.194,0.971-1.165,1.165c-0.583-0.583-6.021-12.14-6.604-13.403
		c-0.194-0.388-0.388-0.971-0.583-1.36c-0.194-0.388-0.583-0.583-0.971-1.36c-0.583-1.554-0.194-1.554-2.525-1.554
		C240.226,167.74,238.284,167.546,237.507,167.74L237.507,167.74z"/>
	<path id="XMLID_37_" d="M410.77,135.205c-0.388,3.108,0,13.694-0.194,18.356c0,0.971,0,1.942,0,3.108
		c0,1.36,0.388,1.554,1.554,1.554c4.079,0.194,8.158-0.194,12.237-0.194c3.302,0,8.935,0.388,12.14-0.194
		c0.194-0.971,0.194-1.554,0.194-2.719c0-1.165,0.194-1.942-0.971-1.942c-1.942,0-4.273,0-6.216,0
		c-1.748,0-11.849,0.194-12.626-0.194c-0.194-0.194-0.194-0.583-0.194-1.36c0-0.388,0-0.971,0-1.554v-9.226
		c0-0.971,0.194-5.05-0.194-5.633C415.723,134.525,411.838,135.205,410.77,135.205L410.77,135.205z"/>
	<path d="M332.005,112.673c0-1.36,0-1.165,0.583-1.748c0.583-1.165,1.942-3.108,3.691-2.914
		C337.153,109.565,335.599,112.964,332.005,112.673L332.005,112.673z M319.768,109.468c0.194,1.36-0.583,2.137-1.165,3.108
		l-2.719,5.827c-0.388,1.36-0.583,1.942,0,3.302c0.388,0.971,2.137,1.165,3.302,0.971c1.748-0.194,5.633-2.719,6.798-4.079
		c0.583-0.388,0.388-0.971,1.165-1.165c0.388,0.388,0.194,1.165,0.194,1.748c0,1.748,0.583,2.525,2.914,2.719
		c3.691,0.194,5.827-1.165,8.352-2.914c0.971-0.388,1.554-0.971,2.137-1.554c0.583-0.583,1.165-1.165,1.748-1.942
		c0.583-0.583,1.554-1.165,1.36-2.525c-1.36,0.194-1.36,1.36-3.496,3.108c-1.36,0.971-2.719,1.942-4.079,2.914
		c-1.165,0.583-4.079,1.748-5.245,0.583c-1.36-1.165-0.971-4.079-0.194-5.633c0.194-0.194,1.554-0.388,2.914-0.971
		c0.971-0.388,1.748-0.583,2.719-1.165c1.748-0.971,2.914-2.914,2.719-5.05c-1.554-0.583-3.496-0.194-5.05,0.388
		c-1.36,0.583-4.079,4.079-4.856,5.244c-0.388,0.583-0.583,1.748-1.165,2.137l-3.496,3.108c-0.971,0.583-3.302,2.525-4.662,1.748
		c-1.942-0.971-1.165-3.108-0.194-4.856c1.942-3.691,1.36-3.108,3.496-6.604c0.388-0.583,1.36-1.748,0.583-2.137
		c-0.583-0.583-2.914,0.583-3.496,1.165c-1.748,0.971-2.525,1.748-3.302,1.942c0.388-1.748,4.856-9.324,6.41-11.752
		c0.971-1.36,4.662-4.662,6.41-5.633c3.108-1.554,6.604-2.525,9.712-0.388c2.719,1.748,1.554,3.108,2.719,3.496
		c0.971-0.583,1.554-6.216-4.468-7.187c-3.691-0.388-7.381,1.36-9.324,3.108c-1.165,1.165-4.079,3.108-4.856,4.468
		c-1.748,2.525-1.554,1.748-3.691,5.244c-0.971,1.36-1.554,2.525-2.525,3.691c-0.971,1.36-1.554,2.525-2.525,3.691
		c-0.583,1.165-1.748,2.525-2.137,3.691c-0.194,0.194-0.194,0.583-0.388,0.971c-0.194,0.388-0.194,0.388-0.583,0.971l-3.302,6.021
		c0,0.971,1.36,1.36,1.942,0.583l1.36-1.748l2.137-4.079C314.718,113.838,317.631,109.468,319.768,109.468L319.768,109.468z"/>
	<path id="XMLID_34_" d="M295.391,92.472c-1.36,1.36-0.388,0-2.525,1.942c-0.971,0.971-1.554,1.36-1.942,2.525
		c-0.583,1.36-2.914,4.856-2.525,6.41c0.971,0,0.971-1.36,1.36-2.137c1.165-1.942,3.496-5.05,5.633-6.216
		c2.914-1.36,10.101-2.525,13.694-1.554c-0.194,1.165-9.129,15.734-9.712,17.19c-0.971,1.36-4.662,7.187-4.662,8.935
		c0,1.942,2.137,2.137,4.273,2.525c1.554,0,5.244,0.388,6.216-0.388c-0.388-0.583-0.583-0.388-1.554-0.388
		c-2.137,0-4.468,0-4.468-2.719c0-1.748,1.942-5.05,2.914-6.216c1.165-1.748,2.137-4.079,3.302-5.827
		c1.554-2.525,5.245-8.935,6.798-11.072c2.137-2.914,1.748-1.748,6.798-2.137c2.914-0.194,5.05-0.388,7.381-1.748
		c0.583-0.388,1.748-1.942,1.748-2.914c0-0.971-1.165-2.719-1.942-2.719c-0.583,0.971-0.194,0.971-0.388,1.748
		c-0.194,0.971,0,0.194-0.388,0.583c-0.388,0.971-1.165,2.137-3.302,2.719c-1.942,0.388-0.388,0.194-1.554,0.583
		c-0.194,0-1.554,0.194-1.942,0.194c-1.554,0.194-2.525,0.388-4.273,0.388C308.114,92.277,301.898,92.277,295.391,92.472
		L295.391,92.472z"/>
	<path id="XMLID_33_" fill="#CCCCCC" d="M273.733,227.372c1.165-1.554,2.914-6.798,3.691-7.575c0.583,0.971,0,5.827,0.388,7.575
		c0.971,0.194,1.942,0.194,2.719,0c0.194-0.971,0.388-9.518,0-10.586c-0.388-1.165-3.302-0.583-4.468-0.388
		c-0.971,1.165-1.165,2.137-1.942,3.691c-1.165,1.942-1.165,3.496-1.942,3.691c-0.583-0.388-1.748-4.079-2.719-5.633
		c-0.583-1.165-0.388-1.942-1.942-2.137c-1.165-0.194-2.914-0.194-3.691,0l-0.194,7.187c0,3.108-0.388,4.856,2.137,4.273
		c1.554-0.388,0.971-5.244,0.583-7.77c1.36,0.583,1.36,2.525,2.137,3.691c1.165,2.137,0.971,1.554,1.748,3.691L273.733,227.372
		L273.733,227.372z"/>
	<path id="XMLID_32_" fill="#CCCCCC" d="M373.961,219.02c0.194-0.388,1.165-2.525-0.583-2.719c-1.36-0.194-12.14-0.194-12.626,0.194
		c-0.388,0.971-0.388,9.518,0,10.975c1.165,0.388,12.237,0.194,14.082,0c0-0.971,0-1.748-0.194-2.525
		c-0.583-0.583-7.575-0.194-9.324-0.194c-1.554,0-1.554-0.388-1.36-1.942c6.604-0.583,10.101,1.554,9.518-2.137
		c-1.165-0.583-7.575-0.194-9.518-0.388v-1.554L373.961,219.02L373.961,219.02z"/>
	<path id="XMLID_31_" fill="#CCCCCC" d="M333.268,227.76c0.194-0.583,0.194-7.964,0.194-9.324c0-1.748-0.388-2.719-2.525-1.942
		c-1.748,0.388,0.583,3.691-1.554,4.273c-0.971,0.194-5.633,0-6.604-0.194l-0.194-0.194c-0.583-0.971,0.971-3.496-0.971-3.691
		c-3.302-0.583-2.719,2.137-2.525,3.691c0,1.165,0,6.604,0.194,7.187c0.194,0.194-0.194,0.194,0.583,0.194
		c3.496,0.583,1.748-1.942,2.525-4.079c1.36-0.194,6.41-0.388,7.77,0c0.388,1.36-0.194,2.914,0.194,4.079
		C331.228,227.76,332.394,227.76,333.268,227.76L333.268,227.76z"/>
	<path id="XMLID_30_" fill="#CCCCCC" d="M346.088,220.379c1.36,0.194,1.748,1.36,2.719,1.942l2.525,1.942
		c1.748,1.554,3.108,4.079,5.244,2.914c1.36-0.583,0.583-9.518,0.388-11.072c-0.971,0-1.748,0-2.525,0.194
		c-0.388,1.36,0,5.05-0.194,6.798c-0.971,0-0.971-0.388-1.36-0.971c-2.137-2.137-3.496-3.302-4.662-4.468
		c-1.165-1.165-1.554-2.719-4.468-1.942c-0.388,1.36-0.388,10.101,0.194,11.072l2.137,0.194V220.379L346.088,220.379z"/>
	<path id="XMLID_29_" fill="#CCCCCC" d="M277.229,140.061c-0.194,0.971-0.388,4.468,0.194,4.856
		c0.388,0.388,9.324,0.194,10.975,0.194c1.748,0,3.496,0.194,4.662-0.971c1.165-1.165,0.971-2.914-0.194-3.691
		c-1.165-0.971-3.302-0.583-4.856-0.583C285.29,139.866,279.463,139.478,277.229,140.061L277.229,140.061z"/>
	<path id="XMLID_28_" fill="#CCCCCC" d="M208.274,144.917c1.554,0.194,14.082,0.583,15.636-0.388
		c1.165-0.971,1.554-2.719,0.388-3.691c-1.36-1.36-7.77-0.583-10.101-0.583C208.079,140.061,207.885,138.895,208.274,144.917
		L208.274,144.917z"/>
	<path id="XMLID_27_" fill="#CCCCCC" d="M313.164,172.402c-0.194,0.971-0.194,4.273,0,4.856c0.583,0.194,13.791,0.388,15.248-0.194
		c1.165-0.583,1.748-2.719,0.583-4.079c-0.971-1.165-2.914-0.971-4.662-0.971L313.164,172.402L313.164,172.402z"/>
	<path id="XMLID_26_" fill="#CCCCCC" d="M314.329,223.293c-1.165,0.194-1.165,1.165-2.525,1.554
		c-3.302,1.554-8.158-0.388-6.798-4.079c0.583-1.748,3.496-2.525,6.021-1.942c2.137,0.388,2.137,1.165,2.719,1.36
		c1.165,0.388,2.137-0.388,2.719-1.165c-0.388-0.583-1.165-1.165-1.554-1.554c-1.36-1.165-4.856-1.748-7.187-1.36
		c-3.108,0.388-6.021,2.525-6.021,5.827c-0.194,6.021,8.741,6.604,11.752,5.244c1.36-0.583,2.719-1.36,2.719-2.914
		c-0.388-0.194-0.583-0.194-0.971-0.388C314.718,223.487,314.912,223.487,314.329,223.293L314.329,223.293z"/>
	<path id="XMLID_25_" fill="#CCCCCC" d="M347.642,172.596c-0.583,5.05-0.194,4.468,6.021,4.468c1.554,0,9.712,0.194,10.586-0.583
		c1.165-1.165,0.971-3.108-0.583-3.691C361.724,171.819,349.195,172.208,347.642,172.596L347.642,172.596z"/>
	<path fill="#CCCCCC" d="M289.175,223.099c-0.194-1.36,1.165-2.719,1.554-3.691c0.388-0.583,0.194-0.583,0.971-0.583
		c0.194,0.194,0.971,1.748,1.36,2.137c0.388,0.583,1.165,1.554,1.165,1.942C293.254,223.293,290.34,223.099,289.175,223.099
		L289.175,223.099z M286.65,226.206c1.36-0.583,0.388-0.971,2.525-0.971c1.165,0,2.137,0,3.302,0c3.691,0,2.914-0.388,4.662,2.137
		c0.971,0,1.554,0.194,2.525-0.194c0-0.971-0.388-1.165-0.971-1.748l-2.719-4.856c-0.583-1.165-1.36-2.137-1.942-3.302
		c-0.388-0.583-0.971-0.971-1.748-0.971c-0.971,0-1.942-0.194-2.719,0.388l-2.719,5.05c-0.388,0.971-2.719,3.691-2.719,5.245h2.137
		L286.65,226.206L286.65,226.206z"/>
	<path id="XMLID_22_" fill="#CCCCCC" d="M347.642,185.027c0.194,0.194,0,0,0.388,0.194l8.741,0.194c1.554,0,3.302,0,4.856-0.194
		c2.137,0,2.525,0.388,2.719-2.137c0-1.942-1.36-1.748-3.108-1.748c-4.468,0-9.518,0-13.791,0.194
		C347.447,182.599,347.253,184.153,347.642,185.027L347.642,185.027z"/>
	<path id="XMLID_21_" fill="#CCCCCC" d="M317.437,148.607c1.36,0,6.798,0.194,7.77-0.194c0.194-0.194,0.194,0.388,0.194-0.388
		l-2.137-4.079c-0.583-1.165-2.137-3.691-2.719-4.273c-1.165,0.388-1.554,2.525-2.137,3.496c-0.388,0.971-0.583,0.583-0.971,1.165
		C314.718,148.607,314.523,148.607,317.437,148.607L317.437,148.607z"/>
	<path id="XMLID_20_" fill="#CCCCCC" d="M393.871,148.413c-0.194-1.165-1.748-3.691-2.525-4.662
		c-0.583-0.971-1.554-4.273-2.525-4.273c-0.971,0-1.165,1.748-2.719,4.273c-1.36,1.942-0.583,1.36-1.165,2.137
		c-0.388,0.971-1.165,1.165-1.165,2.525H393.871L393.871,148.413z"/>
	<path id="XMLID_19_" fill="#CCCCCC" d="M339.678,217.174c-0.194-1.554-2.525-0.583-2.525-0.583c-0.388,0.388-0.194,9.518,0,10.683
		h2.137L339.678,217.174L339.678,217.174z"/>
	<path id="XMLID_18_" d="M289.175,223.099c1.165,0,4.079,0.194,4.662-0.194c0-0.583-0.583-1.36-1.165-1.942
		c-0.194-0.388-0.971-1.942-1.36-2.137c-0.583,0.194-0.388,0-0.971,0.583C290.34,220.379,288.981,221.545,289.175,223.099
		L289.175,223.099z"/>
	<path id="XMLID_17_" fill="#CCCCCC" d="M332.005,112.673c3.496,0.194,5.05-3.108,4.273-4.662c-1.748-0.388-2.914,1.748-3.691,2.914
		C332.297,111.507,332.005,111.41,332.005,112.673L332.005,112.673z"/>
	<rect id="XMLID_16_" x="252.949" y="274.184" fill="#CCCCCC" width="133.152" height="29.816"/>
	<g>
		<path id="XMLID_15_" d="M291.117,285.936c1.36-0.194,1.554,0.194,1.554,1.36c0,1.165,0,5.05,0,6.021
			c-0.194,1.554-0.971,1.36-1.554,1.36v0.388h4.273v-0.486c-0.388,0-0.583,0-0.971,0c-0.971-0.194-0.971-1.748-0.971-2.719
			c0-0.583,0-4.079,0-4.468c0.583,0.971,3.496,7.381,3.496,7.575h0.583c0.194-0.388,0.583-1.554,0.971-1.942l1.748-3.691
			c0.194-0.583,0.583-1.36,0.971-1.942c0,0.583,0,3.496,0,4.468c0,0.583,0,1.554-0.194,1.942c-0.194,0.971-0.583,0.971-1.554,0.583
			v0.388h5.633v-0.388c-1.36,0-1.554,0-1.748-1.165c0-0.583,0-5.633,0-6.216c0-1.36,0.388-1.554,1.748-1.36v-0.388h-3.496
			l-1.554,3.496c-0.194,0.583-0.388,1.165-0.971,1.748c-0.194,0.583-0.583,1.36-0.971,1.748l-2.719-5.245
			c-0.194-0.194-0.583-1.554-0.971-1.748h-3.496L291.117,285.936L291.117,285.936z"/>
		<path id="XMLID_14_" d="M278.298,295.259l0.388-3.108h-0.971c-0.194,1.165-0.971,2.525-1.748,2.914
			c-2.719,1.942-7.575,0.583-7.964-4.662c-0.194-2.525,1.165-5.05,3.496-6.021c2.525-0.971,5.633,0.971,5.827,3.302l0.971-0.194
			l-0.583-3.302c-0.194-0.194-1.554-0.583-1.748-0.583c-2.137-0.583-4.662-0.583-6.604,0.194c-2.137,0.971-4.079,3.302-3.691,6.604
			c0.388,6.021,6.41,7.575,11.072,5.827C276.841,296.23,278.006,295.648,278.298,295.259L278.298,295.259z"/>
		<path d="M321.516,286.033c1.554-0.583,3.108,0.194,3.108,1.748c0,0.971-0.194,1.554-0.971,1.748
			c-0.388,0.194-1.554,0.583-2.137,0.194V286.033L321.516,286.033z M317.631,285.547v0.388c1.165-0.194,1.748,0,1.942,1.165
			c0,0.583,0,5.827,0,6.41c-0.194,1.165-0.971,1.36-2.137,1.165v0.388h6.216v-0.388c-0.388,0-0.971,0.194-1.36,0
			s-0.388-0.388-0.583-0.971c-0.194-0.971,0-2.137,0-3.108c1.165,0,1.554,0.388,1.748,1.165c0.388,0.583,0.583,1.36,1.165,1.942
			c0.971,1.554,1.36,1.554,2.914,1.554c0.388,0,0.971,0,1.554,0v-0.388c-0.971,0-1.165,0-1.554-0.583
			c-0.388-0.388-0.583-0.971-0.971-1.36c-1.554-2.719-1.554-1.748-1.942-2.525c1.36-0.194,1.942-0.583,2.525-1.748
			c0.388-1.36-0.194-2.525-1.165-2.719c-1.165-0.388-2.525-0.388-3.691-0.194C320.351,285.547,318.991,285.547,317.631,285.547
			L317.631,285.547z"/>
		<path d="M341.232,286.421c0-0.194,0.194-0.194,0.388-0.194c0.194,0,0.194,0,0.388,0c1.165-0.194,1.942,0,2.914,0.583
			c1.942,1.36,1.748,7.381-1.748,7.964c-0.388,0-1.554,0-1.942-0.194V286.421L341.232,286.421z M336.958,285.547v0.388
			c1.36,0,1.748-0.194,1.942,1.36c0,0.971,0,5.827,0,6.41c-0.194,1.36-0.971,1.165-2.137,1.165v0.388c1.36,0,2.719,0,4.079,0
			c1.554,0,2.525,0,3.691-0.194c1.942-0.583,3.496-2.137,3.496-4.662c0.194-2.914-1.165-4.468-3.302-4.856
			c-1.165-0.194-2.719-0.194-4.079-0.194C339.678,285.547,338.318,285.547,336.958,285.547L336.958,285.547z"/>
		<path d="M310.444,290.306c1.748-0.194,3.496,0.194,3.302,2.137c0,0.971-0.388,1.554-0.971,1.748
			c-0.583,0.388-1.36,0.388-2.525,0.194v-3.982L310.444,290.306L310.444,290.306z M310.444,286.033c0.583-0.194,1.36-0.388,2.137,0
			c0.388,0.194,0.971,0.971,0.971,1.554c0,1.36-1.554,2.525-3.108,1.942V286.033L310.444,286.033z M306.56,285.547v0.388
			c0.971,0,1.748-0.388,1.942,1.165c0,0.971,0,5.633,0,6.41c-0.194,1.36-0.971,1.165-1.942,1.165v0.388c1.554,0,2.914,0,4.468,0
			c1.36,0,2.719,0,3.691-0.583c1.165-0.583,1.554-1.748,1.36-3.108c-0.194-1.165-1.36-1.554-2.719-1.748
			c0.194,0,0.388-0.194,0.583-0.194c0.194,0,0.388-0.194,0.583-0.388c1.36-0.971,1.36-3.108-0.194-3.691
			c-1.165-0.388-2.525-0.194-3.691-0.194C309.279,285.547,307.725,285.547,306.56,285.547L306.56,285.547z"/>
		<path id="XMLID_6_" d="M359.879,294.871v-2.719c0-1.165,0.194-1.36,1.554-1.36v-0.583h-4.856v0.583c1.165,0,1.36,0,1.36,1.165
			c0,0.971,0,1.748,0,2.719c-1.748,0.583-3.496,0-4.468-1.165c-1.942-2.137-1.554-7.381,2.137-7.575
			c2.914-0.194,3.302,1.942,3.496,2.525c0.194,0,0.388,0,0.583-0.194c0-0.583-0.194-1.554-0.388-2.137c0-0.388,0-0.194-1.165-0.388
			c-1.36-0.194-2.525-0.388-3.691-0.194c-4.273,0.583-5.245,4.856-4.079,7.575c1.165,2.137,3.302,2.914,5.827,2.719
			c0.583,0,1.165-0.194,1.748-0.194c0.194,0,0.583-0.194,0.971-0.194C359.393,294.871,359.879,294.871,359.879,294.871
			L359.879,294.871z"/>
		<path id="XMLID_5_" d="M362.21,285.936c0.971,0,1.748-0.388,1.942,1.165c0,0.971,0,5.633,0,6.41
			c-0.194,1.36-0.971,1.36-2.137,1.165v0.388h8.935l0.971-2.719l-0.583-0.194c-0.388,0.971-0.583,1.554-1.554,1.748
			c-0.583,0.194-2.719,0.194-3.302,0.194v-4.079c0.583,0,1.554,0,2.137,0c0.971,0,0.971,0.388,0.971,1.36h0.583v-2.914h-0.583
			c0.194,0.971,0,1.165-0.583,1.36c-0.388,0-1.554,0-2.137,0v-3.302c0.194,0,0,0,0,0c0.583-0.194,1.942-0.194,2.719,0
			c1.165,0.194,1.36,0.583,1.554,1.554c0.194,0,0.388,0,0.583,0l-0.388-1.942L362.21,285.936L362.21,285.936L362.21,285.936z"/>
		<path d="M284.125,288.266c0.194,0,0.194,0.194,0.194,0.388l0.388,1.36c0.194,0.388,0.388,1.165,0.583,1.748h-2.719
			L284.125,288.266L284.125,288.266z M279.074,294.871v0.388h4.273v-0.388c-1.942,0.194-1.554-0.583-1.165-1.748
			c0-0.194,0.194-0.971,0.388-0.971h3.302c0,0.194,0.583,1.554,0.583,1.748c0.194,0.971-0.388,0.971-1.36,0.971v0.388h5.633v-0.388
			c-1.165,0-1.554,0-2.137-1.554s-1.554-3.691-2.137-5.633l-1.165-2.914h-0.388c-0.194,0.194-0.388,1.165-0.583,1.36
			c-0.194,0.388-0.388,0.971-0.583,1.36c-0.388,1.165-2.525,6.021-2.914,6.604C279.949,294.871,279.56,294.871,279.074,294.871
			L279.074,294.871z"/>
		<path id="XMLID_2_" d="M329.674,285.936c0.388,0,1.165-0.194,1.554,0c0.388,0.194,0.388,0.583,0.388,1.165c0,0.971,0,5.633,0,6.41
			c-0.194,1.36-0.971,1.165-2.137,1.165v0.388h6.41v-0.388c-1.165,0-1.942,0.194-2.137-1.165c0-0.971,0-5.827,0-6.41
			c0.194-1.36,0.971-1.36,1.942-1.165v-0.388h-6.41L329.674,285.936L329.674,285.936z"/>
	</g>
</g>
</svg>
