<?xml version="1.0" encoding="utf-8"?>
<!-- Generator: Adobe Illustrator 19.0.0, SVG Export Plug-In . SVG Version: 6.00 Build 0)  -->
<svg version="1.1" id="Layer_1" xmlns="http://www.w3.org/2000/svg" xmlns:xlink="http://www.w3.org/1999/xlink" x="0px" y="0px"
	 viewBox="0 0 640 360" enable-background="new 0 0 640 360" xml:space="preserve">
<rect fill="#D5D5D5" width="640" height="360"/>
<g>
	<path id="XMLID_14_" fill="#0071BA" d="M244.624,179.708c0-6.271-0.237-12.78-0.118-18.933c0.118-3.55,1.183-3.905,3.55-5.443
		c8.756-6.153,22.719-11.715,34.434-11.123l-0.355,35.736c-10.531,1.065-16.33,5.917-20.116,12.425
		c-10.176,18.223,11.478,56.325-41.061,56.443c-0.71-12.425-0.947-33.842-0.118-46.03c0.592-7.455,3.905-11.951,7.691-15.501
		C237.406,178.88,242.375,183.14,244.624,179.708L244.624,179.708z M162.503,108h0.237c6.153,0,12.306,2.603,16.33,8.52
		c1.42,2.13,1.302,3.077,3.077,4.378C183.684,114.39,192.204,108,200.368,108c9.94,0,19.169,6.863,19.643,12.898
		c2.603-2.012,2.603-4.733,7.218-8.283c3.55-2.603,7.336-4.142,11.123-4.497h3.787c4.615,0.473,9.111,2.603,12.78,6.271
		c13.253,13.135,2.958,31.594-8.638,34.316v4.733c5.443-3.668,10.295-6.39,16.921-8.756c6.863-2.485,9.703-2.485,16.093-2.84
		c3.077-0.118,2.485-0.592,5.443-0.71v41.179c-5.916,0-10.058,0.71-14.91,4.615c-13.016,10.413-6.745,26.388-9.466,39.167
		c-4.023,18.933-16.685,25.204-39.641,25.204h-39.877c-52.539,0-34.789-41.415-41.652-55.615c-2.248-4.852-3.077-5.917-7.218-8.993
		c-4.97-3.787-8.283-4.26-14.673-4.26v-39.167c0-2.958,2.603-1.775,4.142-1.657c2.248,0.237,4.26,0.118,6.39,0.355
		c13.49,1.775,19.051,6.271,28.636,11.36v-4.733c-7.336-1.657-14.91-9.111-14.91-18.223v-4.023
		C141.677,115.573,152.09,108.237,162.503,108L162.503,108z M120.141,144.091c14.791-0.473,29.583,6.745,37.866,13.963l0.118,22.719
		c13.371,2.012,22.719,8.52,23.548,22.483c0.71,12.78,0.71,32.422,0,45.32c-22.483,0.237-35.499-6.153-37.629-28.044
		c-1.302-13.608,4.733-36.564-23.903-40.942V144.091L120.141,144.091z M182.146,136.399c4.023,17.158,33.487,16.803,37.866,0.71
		h1.302c0.947,3.905,3.077,3.787,4.023,7.455c-6.745,1.657-20.471,8.756-23.666,13.49c-7.81-5.207-5.798-5.68-17.749-11.241
		c-2.603-1.183-4.852-1.657-7.218-2.958L182.146,136.399L182.146,136.399z M243.559,142.789c-6.153,0.118-12.425,2.603-15.856-0.592
		c-10.768-9.821-5.68-29.464,9.821-31.476c23.429-3.077,28.754,30.411,7.336,35.499c-0.355-0.947-0.237-0.947-0.592-1.657
		C244.032,143.262,244.032,143.381,243.559,142.789L243.559,142.789z M157.178,146.102c-22.719-7.691-13.49-39.522,8.638-35.381
		c15.975,3.077,19.169,23.311,7.928,31.949c-3.077,2.367-10.65-0.237-15.265-0.118c-0.592,1.183-0.237,0.828-0.592,1.657
		C157.296,146.221,157.77,145.274,157.178,146.102L157.178,146.102z"/>
	<path id="XMLID_7_" fill="#0071BA" d="M443.655,156.634c0,16.566,1.42,15.856,11.241,10.65c7.455-4.023,19.288-5.443,26.624-2.485
		c2.012,0.71,5.443,3.077,6.863,4.615c2.84,3.077,6.508,10.058,6.626,15.62h-38.576c-6.153,0-6.745,6.508-6.39,11.241
		c0.473,7.1,0.947,9.703,8.401,9.703c12.425,0,24.849,0,37.156,0c-1.302,5.68-1.065,10.531-5.68,16.685
		c-8.401,11.123-27.098,8.993-37.629,2.485c-8.283-5.207-10.295,1.183-9.94,8.52c0.237,4.852,1.302,9.348,4.497,11.715
		c10.886,8.046,36.209,8.756,49.699,2.13c17.631-8.52,25.086-27.098,26.151-45.675v-8.875c-0.71-14.318-5.088-27.571-11.36-35.144
		c-4.023-4.97-7.691-8.283-13.726-11.241C479.391,137.701,443.655,141.251,443.655,156.634L443.655,156.634z"/>
	<path id="XMLID_6_" fill="#0071BA" d="M299.056,151.9v89.812c0,4.378,2.603,8.165,6.745,8.165h54.077
		c4.97,0,6.863-20.234-1.302-20.234h-34.434v-24.968h29.701c5.68,0,5.68-19.643,0-19.643h-29.701v-20.944h33.724
		c6.863,0,5.443-7.81,5.443-14.91c0-2.13-1.183-5.443-3.432-5.443H305.8C301.54,143.736,299.056,147.522,299.056,151.9
		L299.056,151.9z"/>
	<path id="XMLID_5_" fill="#FEFEFE" d="M120.022,179.59c28.636,4.497,22.601,27.334,23.903,40.942
		c2.13,21.891,15.146,28.281,37.629,28.044c0.71-12.78,0.71-32.541,0-45.32c-0.828-14.081-10.176-20.589-23.548-22.483
		l-0.118-22.719c-8.283-7.336-23.074-14.436-37.866-13.963V179.59L120.022,179.59z"/>
	<path id="XMLID_4_" fill="#ED1D24" d="M244.624,179.708c-2.13,3.55-7.1-0.71-15.856,7.336c-3.787,3.55-7.218,8.046-7.691,15.501
		c-0.828,12.188-0.71,33.606,0.118,46.03c52.539-0.118,31.002-38.221,41.061-56.443c3.55-6.508,9.585-11.36,20.116-12.425
		l0.355-35.736c-11.596-0.71-25.796,4.97-34.434,11.123c-2.367,1.657-3.55,2.012-3.55,5.443
		C244.387,166.81,244.624,173.436,244.624,179.708L244.624,179.708z"/>
	<path id="XMLID_3_" fill="#0071BA" d="M374.668,152.61v91.942c0,6.981,9.23,6.035,14.91,6.035c5.443,0,10.768-0.71,10.768-6.035
		v-79.754h32.422c6.153,0,6.39-20.944,0-20.944h-51.237C377.035,143.736,374.668,148.114,374.668,152.61L374.668,152.61z"/>
	<path id="XMLID_2_" fill="#ED1D24" d="M243.559,142.789c0.473,0.71,0.355,0.592,0.828,1.657c0.237,0.71,0.118,0.828,0.592,1.657
		c21.418-5.088,15.975-38.576-7.336-35.499c-15.62,2.13-20.708,21.536-9.821,31.476
		C231.252,145.274,237.406,142.789,243.559,142.789L243.559,142.789z"/>
	<path id="XMLID_1_" fill="#FEFEFE" d="M157.178,146.102c0.592-0.828,0.118,0.118,0.71-1.657c0.355-0.828,0-0.592,0.592-1.657
		c4.615-0.118,12.188,2.367,15.265,0.118c11.241-8.756,8.046-29.109-7.928-31.949C143.688,106.698,134.34,138.529,157.178,146.102
		L157.178,146.102z"/>
</g>
</svg>
