<?xml version="1.0" encoding="utf-8"?>
<!-- Generator: Adobe Illustrator 19.0.0, SVG Export Plug-In . SVG Version: 6.00 Build 0)  -->
<svg version="1.1" id="Layer_1" xmlns="http://www.w3.org/2000/svg" xmlns:xlink="http://www.w3.org/1999/xlink" x="0px" y="0px"
	 viewBox="0 0 640 360" enable-background="new 0 0 640 360" xml:space="preserve">
<linearGradient id="XMLID_32_" gradientUnits="userSpaceOnUse" x1="0" y1="-60" x2="640" y2="-60" gradientTransform="matrix(1 0 0 1 0 240)">
	<stop  offset="0" style="stop-color:#720C19"/>
	<stop  offset="1" style="stop-color:#E97F83"/>
</linearGradient>
<rect id="XMLID_1_" fill="url(#XMLID_32_)" width="640" height="360"/>
<g>
	<path id="XMLID_30_" fill="#FCBC36" d="M134.204,183.447v12.691c1.55,0.484,16.372,0.194,19.375,0.194
		c0.387,4.747-4.65,8.719-8.137,9.978c-15.597,6.103-29.837-9.494-25.575-24.994c4.069-14.725,21.119-17.05,28.384-9.978
		c6.394,6.394,0.484,5.522,12.981,5.522c2.131,0,7.556,0.291,9.3-0.194c0.194-8.622-9.397-15.597-14.531-18.891
		c-6.975-4.456-18.697-5.716-27.706-2.906c-2.131,0.678-4.069,1.356-6.103,2.131c-4.456,1.453-4.941,2.131-7.653,5.037
		c-2.034,2.131-1.647,1.163-4.069,4.166c-0.678,0.872-1.356,1.356-2.034,2.325c-5.231,6.975-6.587,17.244-4.553,27.416
		c3.197,15.694,20.828,28.772,40.687,25.769c10.269-1.453,16.759-6.781,21.119-12.497c4.844-6.006,8.331-15.694,7.75-25.769
		L134.204,183.447L134.204,183.447z"/>
	<path id="XMLID_29_" fill="#FCBC36" d="M343.55,171.725c-2.034-1.066-6.781-2.131-9.397-2.228c-4.941,0-9.106,2.131-12.303,5.231
		c-0.969,0.969-1.744,2.131-2.906,3.1c-3.778-1.259-4.069-7.169-13.175-8.234c-3.391-0.387-6.394,0.194-9.106,1.744
		c-2.034,0.969-5.038,3.778-6.491,4.069c-0.388-1.744,0-2.325,0-4.069h-14.144c-0.194,12.787,0.775,25.575,0.291,38.362
		c-0.291,10.559-2.809,11.044,8.041,11.044c4.069,0,5.909,0.775,6.394-3.584c1.356-11.044-3.003-30.031,6.006-33.325
		c2.712-0.969,6.006-0.194,7.75,1.259c5.231,4.166,2.422,27.512,2.906,35.262l10.656,0.097c0.387,0,3.197,0.097,3.487-0.194
		c1.259-1.356-1.259-24.412,1.356-31.969c1.259-3.681,2.325-4.069,6.587-4.65c8.331-1.162,8.234,6.781,8.234,13.756
		c0,3.972-0.194,19.956,0.194,22.475c2.131,1.356,11.431,1.259,14.144,0.194c1.163-3.294,0.388-17.631,0.291-22.184
		C351.979,186.644,354.207,177.731,343.55,171.725z"/>
	<path id="XMLID_28_" fill="#FCBC36" d="M438.294,197.59c0.194-12.884,0.291-28.578-18.116-28.191
		c-9.106,0.194-12.594,6.394-15.694,7.556c-3.294-1.744-5.038-7.362-12.884-7.556c-10.172-0.291-11.044,4.262-14.628,5.716
		c-0.775-0.775-0.969-2.325-1.066-3.681l-13.175-0.291v49.503l13.756-0.291c1.259-3.197,0.678-17.922,0.581-22.281
		c-0.097-3.972-0.678-7.362,1.259-10.269c1.744-2.422,2.906-4.456,6.975-4.456c7.362-0.194,8.622,7.362,8.719,14.144
		c0.097,3.488-1.066,20.441-0.194,22.184l6.781,0.484c1.163,0,2.422-0.097,3.584-0.097c0.484,0,1.163,0,1.744,0
		c0.872-0.097,1.259-0.097,1.647-0.387c0.872-1.744-0.194-18.406,0-21.894c0.194-6.781,1.259-14.434,8.525-14.531
		c7.653-0.097,7.944,7.75,7.944,14.725c0,5.716-0.872,17.244,0.097,22.281h13.853C438.972,213.672,438.197,204.468,438.294,197.59z"
		/>
	<path id="XMLID_27_" fill="#FCBC36" d="M415.819,243.993c-2.131,0-1.744,4.553-1.744,6.394
		c-0.581,10.269,0.097,25.381,0.194,35.456c0.097,3.584-0.872,7.459-2.809,9.203c-1.938,1.841-6.006,2.519-9.106,1.356
		c-6.394-2.131-5.716-13.078-5.909-20.247c0.097-2.131,0.775-29.644,0.097-32.259l-5.619-0.291c-11.916,0-11.044-0.097-11.044,9.3
		c0.194,11.819-0.678,27.416,0.484,38.847c0.581,5.619,1.841,8.137,4.553,11.431c4.262,5.134,13.659,8.816,23.25,8.816
		c6.491,0,6.006-1.356,9.3-2.519c2.712-0.969,4.747-2.906,6.684-4.844c1.744-1.744,3.778-4.069,4.65-6.975
		c1.066-3.681,2.034-4.941,2.034-9.3l0.291-22.281c0.194-7.266-0.387-14.725-0.678-21.991L415.819,243.993L415.819,243.993z"/>
	<path fill="#FCBC36" d="M253.166,171.919c-0.291,1.356,0,2.809-0.581,4.069c-3.391-1.162-2.906-5.328-12.4-5.716
		c-15.984-0.678-28.094,7.847-28.287,26.156c0,2.906,0,5.522,0.969,8.041c0.969,2.422,0.969,4.553,2.228,6.781
		c4.844,8.234,15.403,12.206,24.994,11.431c10.366-0.872,9.494-5.909,12.594-5.619l0.194,3.875
		c1.356,0.387,11.431,0.484,12.981,0.097c0.194-5.231,0.969-46.887,0.484-48.728h-13.175V171.919z M241.541,208.828
		c-7.944,1.356-13.369-4.166-14.628-10.559c-1.453-7.847,3.778-13.175,10.172-14.531
		C253.941,180.444,257.622,206.018,241.541,208.828z"/>
	<path fill="#FCBC36" d="M486.925,216.384c1.259,4.65-1.55,4.069,4.65,4.069c2.131,0,6.781,0.194,8.622-0.194l0.775-48.631
		l-13.563-0.291c-0.097,2.131,0.194,2.519-0.678,4.069c-3.391-0.969-2.906-5.231-12.109-5.716
		c-5.038-0.291-11.528,0.775-15.597,2.519c-8.137,3.778-12.691,14.241-12.787,23.541c0,2.906-0.097,5.231,0.969,7.75
		c2.519,6.297,2.131,10.462,11.916,15.306c6.006,2.906,16.662,4.456,22.669,1.356C483.825,219.193,484.6,216.384,486.925,216.384z
		 M466.097,205.825c-1.55-0.969-2.131-1.356-3.1-3.197c-5.231-9.106-0.194-17.341,8.234-19.375
		c6.297-1.453,13.466,2.325,14.822,10.172C487.797,204.468,477.044,213.284,466.097,205.825z"/>
	<path id="XMLID_22_" fill="#FCBC36" d="M190.391,116.506h-20.925v-11.819l20.053-0.581c0.291-2.131,0.194-11.916,0.097-14.725
		c-7.072-0.194-12.012,0.097-19.472-0.194l0.097-10.172c3.778-0.194,17.631,0.388,19.859-0.194l0.291-14.531h-36.619l-0.194,66.456
		l36.231,0.097L190.391,116.506z"/>
	<path fill="#FCBC36" d="M466.194,129.003c6.006,3.294,18.406,5.425,24.606-0.581c0.484-0.387,0.678-0.678,1.163-1.066
		c0.581-0.484,0.775-0.775,1.356-0.969l0.969,3.584l13.175,0.194l0.388-48.922c-4.069,0-9.494-0.387-13.078,0.678l-0.969,3.1
		c-2.131-1.356-4.359-5.522-12.594-5.522c-5.716,0-10.366,0.484-14.919,3.003C450.016,91.028,449.241,119.994,466.194,129.003z
		 M478.981,93.159c16.469-2.809,20.828,23.25,3.584,25.091C465.516,120.091,462.416,95.969,478.981,93.159z"/>
	<path fill="#FCBC36" d="M302.282,130.553c5.619,2.131,16.566,2.034,21.312-1.066c3.778-2.422,10.947-9.106,11.625-13.756
		c0-0.097-0.194-0.194-0.194-0.097l-0.969-0.194c-0.291-0.097-1.066-0.097-1.356-0.097c-15.5-0.581-10.656,1.744-17.244,4.262
		c-5.328,2.131-14.725-1.162-14.919-8.816l37.006-0.097c2.422-6.2-1.163-15.791-3.972-19.666
		c-12.981-17.922-38.944-13.078-45.919,7.169c-2.228,6.684-1.744,15.016,1.647,20.537
		C291.529,122.803,297.147,128.712,302.282,130.553z M303.541,94.903c5.231-5.328,19.084-2.906,19.375,5.522
		c-5.134,0-10.172,0-15.112,0C305.382,100.425,296.663,102.072,303.541,94.903z"/>
	<path fill="#FCBC36" d="M528.484,267.05c-4.65-3.584-10.462-7.459-18.794-7.459c-9.881,0-16.856,4.941-21.506,11.334
		c-3.003,4.166-4.941,9.106-5.038,14.628c-0.291,21.797,25.187,33.906,41.075,21.409c2.228-1.744,8.041-7.362,8.041-11.819
		l-5.716-0.097c-13.95-0.097-8.331,4.456-17.244,4.456c-6.103,0-11.819-3.681-11.722-9.687l23.25,0.194
		c3.003,0,6.103-0.097,9.106-0.194c5.716-0.388,5.522-0.581,5.522-3.488C535.266,279.643,532.166,269.956,528.484,267.05z
		 M520.444,280.128h-22.087c-0.969-5.231,5.909-8.622,11.237-8.719C514.825,271.409,521.413,274.896,520.444,280.128z"/>
	<path id="XMLID_15_" fill="#FCBC36" d="M341.419,265.015c-2.228-2.325-4.844-3.875-8.137-4.747
		c-12.206-3.681-16.856,3.972-19.181,4.747c-0.581-0.872-0.484-2.519-0.872-3.681l-13.562-0.291v49.503l14.241-0.097
		c2.034-10.753-0.387-29.062,1.066-32.744c2.034-4.844,11.819-6.394,14.628-0.291c2.422,5.231-0.388,24.025,0.969,32.744
		c3.681,0.194,9.397,0.194,13.078,0.097c1.356-0.097,1.259-0.194,1.356-1.841c1.066-9.203,0.872-25.381-0.097-33.906
		C344.616,269.278,344.325,268.018,341.419,265.015z"/>
	<path id="XMLID_14_" fill="#FCBC36" d="M363.313,95.387c2.131-1.938,7.266-3.1,10.269-0.969c1.744,1.162,3.681,6.491,3.778,9.784
		c0.097,5.134-1.356,22.281,0.388,25.769c0,0,0.097,0.097,0.097,0.194l13.466,0.775c1.356-10.656-0.291-21.894,0.194-32.453
		c0.194-1.744,0.291-3.972,0.097-5.522c-0.194-1.066-0.484-1.162-0.872-2.034c-0.484-1.259,0.097-0.969-0.387-2.034
		c-0.775-1.259-1.744-1.744-2.712-2.906c-0.581-0.581-0.678-0.872-1.356-1.356c-6.394-5.134-11.237-5.909-19.666-3.681
		c-4.844,1.356-3.778,4.456-6.781,4.553v-4.069l-13.659-0.097l-0.291,49.019c3.584,0.194,9.106,0.678,12.4-0.194
		c2.325-0.484,2.131-1.937,2.228-4.359l-0.291-20.15C360.116,100.619,360.019,98.294,363.313,95.387z"/>
	<path id="XMLID_13_" fill="#FCBC36" d="M259.269,120.575c-3.003-0.775-3.1-3.294-4.456-4.069H240.96
		c0,3.584,0.291,4.553,2.034,6.975c12.497,17.05,40.881,7.072,38.072-9.687c-2.034-11.431-12.109-10.656-21.894-15.306
		c-8.331-4.069-0.097-8.816,4.262-6.781c2.131,1.066-0.678,3.197,6.297,3.294c3.003,0,6.2-0.291,9.203-0.291
		c-0.097-9.978-8.331-15.209-18.6-14.628c-8.719,0.484-17.341,5.037-18.794,14.531c-0.872,5.619,0.097,8.234,4.262,11.819
		c5.037,4.262,15.306,4.069,18.309,6.684c1.259,0.969,2.712,4.069,1.356,5.716C264.501,119.994,261.207,121.059,259.269,120.575z"/>
	<path id="XMLID_12_" fill="#FCBC36" d="M474.816,286.909c-3.294-4.359-7.362-4.844-12.303-6.103
		c-1.55-0.387-2.228-0.678-3.197-1.453c-1.744-1.453-1.55-0.194-3.391-0.969c-1.55-0.678-3.875-3.972-2.131-6.006
		c1.066-1.356,5.134-2.034,6.975-0.678c0.969,0.775,0.969,2.131,2.131,2.519c1.744,0.775,11.334,0.194,13.078-0.097
		c0-2.519-0.484-5.522-1.744-7.459c-4.069-6.2-13.175-7.653-20.634-6.781c-2.519,0.291-5.134,1.453-6.781,2.519
		c-8.234,5.038-10.269,11.916-6.2,21.409c0.775,1.744,0.484,1.744,2.325,2.325c2.228,0.775,4.069,1.938,6.297,2.809
		c5.231,1.938,10.656,0.872,13.659,4.844c3.584,5.134-4.844,8.622-8.719,4.456c-2.809-2.906-1.356-2.519-6.587-2.519
		c-3.003,0.097-6.103,0-9.106,0c0.775,23.056,41.947,20.344,39.331-2.325C477.335,290.396,476.269,288.846,474.816,286.909z"/>
	<path id="XMLID_11_" fill="#FCBC36" d="M207.441,108.756c4.359,1.356,11.431,2.325,13.466,5.037
		c4.069,5.328-4.65,8.912-8.428,5.425c-3.197-2.906-0.097-2.809-6.394-2.809c-3.1,0-6.297,0-9.494,0
		c0.097,6.006,2.228,8.234,5.909,11.044c10.462,8.525,29.644,5.037,33.131-8.137c1.937-6.781-0.969-13.562-7.459-16.178
		c-1.938-0.872-4.262-1.744-6.297-2.228c-3.584-1.066-10.753-2.228-10.656-6.2c0.097-1.937,2.809-3.681,5.037-3.681
		c3.003,0.097,2.906,2.422,4.456,4.069c2.325,0.097,12.303-0.097,13.756-0.969c0.678-5.328-4.069-9.494-6.781-11.431
		c-4.069-2.519-9.494-3.681-15.112-2.519c-10.269,2.034-18.6,10.753-15.209,20.441C198.916,105.462,202.21,107.206,207.441,108.756z
		"/>
	<path id="XMLID_10_" fill="#FCBC36" d="M403.032,92.094l0.387,38.75h13.659c0.387-6.491,0.194-13.078,0.097-19.569
		c0-4.65-0.484-15.016,0.678-19.181c2.519-0.581,4.166-0.678,6.781-0.678l0.097-10.172l-6.975-0.291
		c-0.678-4.844,0.678-12.109-0.387-16.372c-3.778-0.097-12.981-1.453-14.241,1.453c-0.775,1.744,0.194,5.522,0.484,7.459
		c0.291,2.906,0.194,4.941-0.097,7.75h-7.362v10.85C399.06,91.803,400.028,91.028,403.032,92.094z"/>
	<path id="XMLID_9_" fill="#FCBC36" d="M532.747,64.194c-1.55-0.388-11.819,0-14.144,0"/>
	<path id="XMLID_8_" fill="#FCBC36" d="M195.429,175.987l-0.387-4.069c-1.066-0.678-12.594-0.678-13.659-0.678l0.678,49.406
		l14.144-0.194c0.291-2.712-0.291-19.375-0.194-23.831c0-11.044,2.131-10.656,11.431-12.787l0.775-13.659
		C197.366,169.787,199.013,175.309,195.429,175.987z"/>
	<path id="XMLID_7_" fill="#FCBC36" d="M536.816,171.725c0.097-2.519-0.872-2.131-2.906-1.55c-7.072,2.131-7.556,6.297-9.494,5.619
		c-0.581-1.744,0.194-2.712,0.194-4.456l-12.788,0.678c-1.744,6.684-0.194,41.366-0.097,48.728
		c2.809,0.194,10.656,0.097,12.884-0.775c0.581-6.103,0.388-13.369,0.581-19.472c0.194-6.2-0.581-13.659,5.037-15.306
		c2.906-0.969,6.2-0.097,6.684-3.487C537.203,179.184,536.816,174.437,536.816,171.725z"/>
	<path id="XMLID_6_" fill="#FCBC36" d="M431.416,130.069l14.144,0.097V81.341h-14.144c-1.066,2.131-0.581,11.916-0.581,15.112
		c0,5.231-0.097,10.462-0.097,15.694C430.835,115.731,430.544,128.034,431.416,130.069z"/>
	<path id="XMLID_5_" fill="#FCBC36" d="M288.913,261.818l-0.194-0.775c-0.194-1.163-12.788-0.581-14.144-0.291l0.097,49.406h14.047
		c0.775-2.519,0.194-9.978,0.194-13.369C288.913,296.693,289.301,263.368,288.913,261.818z"/>
	<path id="XMLID_4_" fill="#FCBC36" d="M275.06,244.672c-0.775,1.55-0.872,8.816,0.097,10.366
		c1.163,0.581,11.044,0.581,12.691,0.097c2.906-0.969,1.453-7.944,1.356-11.044L275.06,244.672z"/>
	<path id="XMLID_3_" fill="#FCBC36" d="M433.257,75.044c3.294,0.969,8.234,0.291,11.625,0.097c0.969-2.422,0.872-7.847,0.872-10.947
		l-14.144,0.291c-0.387,1.259-0.194,5.619-0.194,7.362C431.319,73.978,431.319,74.656,433.257,75.044z"/>
	<rect id="XMLID_2_" x="518.797" y="64" fill="#FCBC36" width="14.144" height="65.972"/>
</g>
</svg>
