<?xml version="1.0" encoding="utf-8"?>
<!-- Generator: Adobe Illustrator 19.0.0, SVG Export Plug-In . SVG Version: 6.00 Build 0)  -->
<svg version="1.1" id="Layer_1" xmlns="http://www.w3.org/2000/svg" xmlns:xlink="http://www.w3.org/1999/xlink" x="0px" y="0px"
	 viewBox="0 0 640 360" enable-background="new 0 0 640 360" xml:space="preserve">
<rect fill="#1AB7EA" width="640" height="360"/>
<path id="XMLID_1_" fill="#FFFFFF" d="M423.723,131.126c-0.913,20.198-14.949,48.041-42.336,83.416
	C352.974,251.628,329.124,270,309.611,270c-12.096,0-22.252-11.183-30.696-33.663c-3.766-13.579-9.357-34.348-16.774-61.849
	c-6.162-22.366-12.781-33.663-19.97-33.663c-1.483,0-6.847,3.195-16.204,9.814l-9.814-12.552c1.94-1.826,6.618-5.934,13.693-12.438
	c7.189-6.39,12.666-11.297,16.66-14.835c13.237-11.754,23.507-18.03,30.696-18.714c8.102-0.799,14.606,1.483,19.513,7.189
	c4.907,5.477,8.444,14.264,10.384,26.246c3.766,24.534,6.618,40.396,8.444,47.927c4.679,21.339,9.814,32.065,15.291,32.065
	c4.222,0,10.841-6.847,19.741-20.654c8.558-13.808,13.237-24.306,13.922-31.495c1.027-11.982-3.537-17.801-13.922-17.801
	c-4.907,0-9.928,1.027-15.405,3.423c10.27-33.663,29.783-49.981,58.539-48.954C415.051,90.046,425.092,103.967,423.723,131.126z"/>
</svg>
