<?xml version="1.0" encoding="utf-8"?>
<!-- Generator: Adobe Illustrator 19.0.0, SVG Export Plug-In . SVG Version: 6.00 Build 0)  -->
<svg version="1.1" id="Layer_1" xmlns="http://www.w3.org/2000/svg" xmlns:xlink="http://www.w3.org/1999/xlink" x="0px" y="0px"
	 viewBox="0 0 640 360" enable-background="new 0 0 640 360" xml:space="preserve">
<rect id="XMLID_1_" fill="#D5D5D5" width="640" height="360"/>
<g>
	<path id="XMLID_180_" fill="#0071BA" d="M339.249,164.78c2.55,3.06,0.68,10.965,2.125,14.959c1.615,4.675,3.995,7.735,5.355,12.919
		h-14.534c1.19-4.505,3.485-8.245,5.185-12.58C339.249,175.15,337.209,168.605,339.249,164.78L339.249,164.78z M247.708,172.26
		c8.925-0.68,4.93-1.615,11.9-14.449c1.36-2.38,3.91-6.29,4.25-8.16c1.615-6.375-2.125-8.5,4.25-9.18
		c2.38,3.23,0.68,6.375,2.295,10.37l8.245,16.234c2.295,5.44,1.36,4.505,7.735,4.675c-2.805,1.615-1.87,0-4.505,1.7l5.355,15.469
		c-4.505-4.25-5.61-11.22-9.775-16.149l-8.925-0.425c-0.51,4.165,0.255,5.44-1.36,8.415c-0.17-0.255-0.425-0.935-0.425-0.765
		l-1.19-7.225c-10.115-1.445-9.35-0.425-12.919,6.63c-1.87,3.57-6.12,9.86-6.545,12.919l6.035-19.039L247.708,172.26L247.708,172.26
		z M288.931,163.59c4.675,1.87,17.849,26.264,19.719,32.809c-1.19-0.935-0.765-0.425-1.87-1.615
		C303.636,191.299,286.296,166.65,288.931,163.59L288.931,163.59z M330.07,145.996c0,0-0.765-2.635,4.505-0.935
		c0.425,0.17,4.25,2.295,4.675,2.55c4.25-1.615,4.25-3.57,10.115-2.55c1.105,5.695-1.105,6.29-2.55,10.285
		c0.255,0.51,1.87,3.06,2.125,3.74c2.125,5.185-0.17,5.1-0.68,5.44c0,0,0.51,2.04-4.165,0.425c-1.445-0.51-3.23-1.7-4.93-2.38
		c-10.965,5.355-12.579,3.485-7.225-7.225c-0.765-1.7-1.615-2.805-2.125-4.25C327.095,143.956,330.07,145.996,330.07,145.996
		L330.07,145.996z M387.697,164.355c0,10.71-1.7,16.829,2.04,22.694c0.255,0.51,1.105,1.615,1.445,2.55
		c1.36,2.805,0.935-0.765,0.935,2.805l-41.053,0.255c-0.255-2.975,0.765-3.23,1.445-6.8l23.629-0.17l0.17-13.854
		c-14.449,0,8.245,4.165-20.569,3.995c-0.17-0.255-0.425-0.935-0.425-0.765c-0.17,0.255-2.975-3.74-3.23-6.63
		c1.105-0.68,0.51-0.68,2.635-1.105c1.19-0.255,1.7-0.255,2.975-0.425l18.274,0.17c0.765-5.185,0.765-3.91-2.04-6.545
		c-2.04-1.87-3.315-2.805-6.29-3.91c-1.7,3.91-1.87,3.315-4.845,6.375c-3.57-0.935-6.97-3.74-8.415-6.97
		c1.7-3.23,2.975-3.74,4.505-7.225c-5.185-4.675-13.174-8.925-10.115-12.24c3.74-3.995,4.675,0.935,7.735,2.295
		c5.695,2.295,1.445-3.315,7.225,0.765c0.51,0.425,6.8,5.695,6.8,5.695c4.93,6.035-3.315,1.615,2.805,7.31
		C377.753,156.621,384.042,160.19,387.697,164.355L387.697,164.355z M428.921,121.007c11.9,12.155,20.399,41.988,21.079,63.917
		c0.765,26.179-6.8,50.063-18.019,67.997c-53.888,86.272-177.558,76.837-222.946,0.51c-11.305-19.039-19.209-40.288-18.529-67.487
		c0.51-22.014,9.18-52.698,21.249-64.937c21.844,7.905,15.469,11.475,12.579,18.954c-3.23,8.245,2.635,6.8,0.765,12.919
		c-1.445,4.675-3.315,8.415-4.505,14.109c-9.435,41.478,8.84,81.002,41.733,103.356c14.789,10.03,35.444,17.169,57.628,17.339
		c46.323,0.425,78.537-27.199,93.156-56.948c12.92-26.434,12.24-49.468,2.975-77.092c-2.38-7.055,3.315-5.1,0.765-12.919
		C414.216,133.416,405.632,128.997,428.921,121.007L428.921,121.007z M282.302,131.122l26.689,0.17v52.443
		C305.081,179.06,285.191,138.771,282.302,131.122L282.302,131.122z M385.487,139.791c37.993,4.845,11.22-15.044,20.824-21.504
		c3.23-2.125,14.109-5.61,18.784-7.99c10.115-5.185,11.22-8.415,14.704-10.71c5.185,9.435,2.975,11.985-6.035,16.404
		c-5.61,2.805-13.344,6.12-18.529,9.18c-10.03,6.12,0.425,11.985-0.255,19.464c-0.425,4.42-3.23,5.61-7.225,7.225
		c-3.23,1.36-6.545,2.635-10.03,3.06l-9.69-11.645c-0.425-0.51-1.105-1.105-1.445-1.615
		C385.487,139.961,386.847,141.661,385.487,139.791L385.487,139.791z M200.535,99.503c4.165,2.805,3.91,5.1,14.789,10.71
		c4.675,2.38,15.469,5.695,18.784,7.99c10.03,6.63-17.764,25.584,20.909,21.504c-1.19,1.7-0.17,0.255-1.445,1.7
		c-0.765,0.765-1.19,1.19-2.04,2.125c-1.36,1.445-2.125,2.295-3.485,3.74c-2.635,2.975-3.995,5.44-6.63,7.48
		c-35.104-8.925-0.17-20.314-17.169-29.919c-6.12-3.485-12.919-6.29-18.529-9.18C196.88,110.892,195.69,109.022,200.535,99.503
		L200.535,99.503z M401.042,90.323c-3.91,3.315-9.605,3.995-11.475,8.925c-1.7,4.505,4.165,14.704-4.25,9.095
		c-10.795-7.225-1.105-17.849,5.61-24.309C394.837,85.818,397.302,88.283,401.042,90.323L401.042,90.323z M239.548,90.323
		c3.485-2.04,5.865-4.42,10.115-6.29c8.925,9.605,14.449,14.704,7.735,22.269c-0.765,0.765-2.295,2.38-3.315,2.635
		c-7.905,2.38,1.105-5.61-4.845-12.155C247.028,94.318,242.693,92.958,239.548,90.323L239.548,90.323z M331.005,80.889l3.74,0.51
		l5.695-1.7c1.445,1.36,1.19-2.55,1.36,2.55c7.99,1.87,13.599,3.06,20.399,6.97c8.16,4.505,8.16,6.035,12.155,14.704
		c0.17-0.17,0.425-0.425,0.51-0.51c0.17-0.17,0.425-0.425,0.51-0.51l2.805-2.635c1.36,6.035,5.44,13.514,13.344,10.37
		c3.23-11.645-9.86-9.35,14.789-19.039c13.854-5.44,10.115-7.99,17.084-17.169c2.125,3.57,6.63,9.435,7.48,13.089
		c-8.925,13.174-31.789,17.594-33.744,21.589c-0.765,7.905,3.91,5.865,3.485,12.919c-4.42,4.675-10.54,4.93-18.274,2.805
		c-7.905-2.125-8.5-4.845-12.155-10.71c-2.635,3.315-3.57,7.735-4.93,9.435c-1.7,2.38-0.425,2.55-5.44,0.68
		c0.935-7.735,8.245-12.919-2.805-19.464c-4.93-2.975-14.449-6.29-21.589-6.29c-1.105,2.125-0.935,1.19,2.975,2.125
		c25.074,5.61,24.309,8.245,19.634,22.014c-4.845-0.68-10.37-3.06-15.639-4.25c-5.865-1.36-11.22-1.87-17.339-2.295l-0.17,83.212
		l87.632-0.17c0.765-21.759-8.67-31.619-12.155-41.903l13.089-5.355c5.44,19.209,9.86,28.984,6.29,51.593
		c-13.174,82.872-123.415,113.895-179.938,43.093c-8.415-10.54-15.724-25.499-18.444-42.158c-3.91-23.459,0.425-32.809,6.035-52.443
		l13.174,4.93c-5.1,13.854-11.9,16.659-12.41,42.838h88.566v-83.212l-0.935-0.255c-13.599-0.765-21.844,4.42-33.064,6.29
		c-3.995-10.965-6.545-18.274,21.504-22.524l-1.615-1.615c-9.095,1.36-28.049,5.865-24.564,18.104c1.87,6.8,5.44,5.185-0.51,8.84
		c-4.25-2.125-3.06-6.375-7.055-11.22c-3.74,5.695-4.845,8.67-12.919,10.71c-8.16,2.04-13.769,1.615-17.594-3.485
		c0.51-6.8,4.25-4.93,3.57-12.24c-2.125-4.42-23.714-7.565-34.169-21.844l7.99-12.834c3.995,5.355,2.805,11.985,17.849,17.509
		c23.459,8.67,11.305,8.415,14.024,18.784c7.225,3.23,12.155-4.165,13.344-10.54c0.255,0.255,0.51,0.51,0.765,0.68l3.06,3.23
		c3.57-8.16,3.995-10.03,11.475-14.449c4.42-2.55,12.155-5.61,18.104-6.545c1.105-6.63,5.44-12.919,11.9-13.854
		c10.54-1.445,7.48,9.605,15.299,7.055c1.105-0.935,0.68-3.06,0-4.505l-6.375-10.115c-11.73-0.765-27.624,2.805-37.484,6.63
		c-18.529,7.225-17.509,12.41-24.309,18.954c-3.485-6.12-13.514-10.03-3.23-19.634c32.979-30.684,110.326-28.134,138.035,1.105
		c7.31,7.735-0.51,14.704-5.1,18.699c-3.91-9.775-13.769-15.979-24.394-19.889c-9.18-3.315-26.519-7.225-36.974-5.44
		C326.925,66.014,335.509,71.624,331.005,80.889L331.005,80.889z M451.445,203.709V175.15c-0.935-2.38-2.55-16.914-7.48-30.004
		c-3.91-10.03-8.16-17.084-12.665-25.074c3.315-3.23,10.795-4.845,12.835-9.605c2.805-6.97-7.99-19.974-13.769-28.984
		c-2.125-3.315-6.29-10.285-8.5-12.58c-2.55,9.775-4.42,14.024-11.475,18.274c-6.035,3.57-7.99,3.91-17.849-5.185
		c4.25-8.925,2.805-11.05-3.74-16.659C366.873,46.295,343.669,47.4,336.189,44h-32.809c-8.415,3.91-30.514,2.805-52.443,21.844
		c-1.87,1.615-4.505,4.165-5.355,7.225c-1.36,6.12,1.36,4.845,2.125,9.86c-9.605,4.675-8.84,10.285-18.444,3.91
		c-6.8-4.505-8.415-8.415-10.71-18.019l-17.339,26.434c-13.344,20.909,0.425,16.574,7.99,24.819
		c-9.435,17.084-16.574,29.494-19.634,53.208c-2.975,22.694,0.765,45.388,8.925,63.917c14.109,32.384,41.053,58.818,77.007,71.227
		c68.677,23.884,143.814-10.71,168.463-75.647C446.855,224.788,449.32,208.554,451.445,203.709L451.445,203.709z"/>
	<path fill="#FEFEFE" d="M318,306.045c-0.255-4.165-0.935-8.67,0.255-12.579c4.675-0.17,4.505,2.38,5.61,5.865l1.19-2.125
		c2.805-5.61,0.425-3.91,5.61-4.165v12.835c-3.315,0-1.445-0.255-3.74-0.255L318,306.045L318,306.045z M304.316,305.11
		c-1.36-3.23-0.425-10.54,1.19-12.835c3.315,1.105,1.615,2.04,3.91,4.845c1.36-2.975,1.105-3.57,5.185-3.74
		c1.36,3.315,0.17,10.03-0.935,12.835c-4.42-0.935-1.7,0-2.975-2.04c-0.17-0.255-0.425-1.19-0.51-1.445
		c0-0.17-0.255-0.425-0.255-0.68c0-0.255-0.17-0.51-0.425-0.68C308.055,304.175,308.055,304.94,304.316,305.11L304.316,305.11z
		 M288.846,289.81c2.04,12.24-8.84,13.599-11.475,7.565C274.142,290.405,281.197,283.521,288.846,289.81L288.846,289.81z
		 M372.228,293.805l-0.765,2.125c-5.61-0.68-0.68-1.445-6.29-0.68c-1.7,3.91,0.425,2.125-3.06,3.74
		c-1.615-2.38-1.19-3.315-1.36-7.055c0-8.67,2.125-8.245,6.545-3.23C368.743,290.575,370.953,292.53,372.228,293.805
		L372.228,293.805z M342.479,291.595l2.125,10.37c-0.425,2.55,0.17,0.68-1.105,2.125c-2.975-1.19-1.615,0.765-2.805-4.42
		c-1.105-4.845,0.765-3.06-2.38-4.505c-3.74,4.845,3.06,7.055-2.04,10.115c-3.23-2.295-3.06-8.84-3.485-12.835L342.479,291.595
		L342.479,291.595z M288.931,302.475c1.615-6.97,2.805,1.7,4.93-11.985l8.415,1.7c0,3.91-0.425,10.71-4.165,12.579
		c-3.06-4.25,1.19-5.695-1.105-9.605C294.796,300.18,295.051,303.75,288.931,302.475L288.931,302.475z M357.609,300.86
		c-3.57-1.105-2.04-0.68-3.57-4.42c-0.68,1.19-1.19,3.23-1.445,3.57c-1.19,2.295-0.425,1.615-2.975,2.635
		c-2.38-2.635-4.505-9.605-3.485-12.835c2.805,0.51,1.19-0.17,2.975,1.445c0.255,0.255,0.68,1.19,0.765,1.36l0.765,1.445
		c1.36-3.995,0.255-4.845,3.995-6.29C356.589,289.895,359.903,297.545,357.609,300.86L357.609,300.86z M257.822,287.6
		c0.17-0.17,0.425-0.425,0.51-0.51c3.06-3.995,2.55-13.344,12.834-4.42c-0.68,2.55-1.7,4.25-2.805,6.29
		c-2.04,3.57-2.04,3.485-4.25,4.42c-1.445-2.38-0.765-3.23-0.425-5.1c-3.315,1.7-3.23,2.805-6.63,0.51L257.822,287.6L257.822,287.6z
		 M372.228,293.805c1.19-7.565-0.765-5.865-2.125-12.41l7.31-2.975c2.04,2.55,2.55,4.845,4.675,6.63
		c1.7,1.445,1.445-0.425,2.805,2.38c2.295,4.42-0.425,3.315-0.51,3.485c-3.485,0.935,0.17-2.635-5.185,0.51
		c-4.845,2.975,0.68,1.615-3.91,4.845c-0.255-0.17-0.51-0.425-0.68-0.51L372.228,293.805L372.228,293.805z M245.753,281.651
		c0.765-2.635,15.214-15.979,11.22-0.17c-0.17,0.765-0.935,3.57-1.19,3.995c-1.19,2.38-0.51,1.19-1.87,2.04
		c-1.445-1.36-0.765-0.935-1.445-2.125C247.623,276.721,252.638,285.73,245.753,281.651L245.753,281.651z M389.227,283.096
		c-0.765,1.87-0.425,2.55-2.55,3.995c-2.38-2.38-4.25-10.115-3.315-13.089c2.975-1.19,6.8,1.7,9.605,4.25
		c1.87,1.615,1.36,0.68,2.04,3.23C389.907,283.861,390.842,279.271,389.227,283.096L389.227,283.096z M236.658,274.426
		c1.36-3.995,5.1-7.565,7.99-9.86c2.295,1.445,0.765,0.935,1.615,2.04c3.23,3.74,2.04,0.935,5.355,3.91
		c-1.19,1.36,1.105,0.68-3.06,1.7c-0.51,0.17-2.975,0.255-3.74,0.425c0.17,3.995,1.105,5.355-1.105,7.735
		c-3.23-2.125-2.04-0.765-2.38-6.12C238.273,276.126,239.888,276.296,236.658,274.426L236.658,274.426z M237.338,267.116
		c-2.38,8.16-13.599-0.935-6.97-7.735c6.12-6.29,15.044,1.87,9.095,7.055c-3.485-2.295-1.19-0.935-1.87-5.61
		c-3.995,0.255-4.845,0.68-5.61,4.42L237.338,267.116L237.338,267.116z M399.172,260.146c5.355-0.51,4.42,2.38,9.435,5.185
		c-1.445-7.565-4.675-3.23-5.44-9.435c4.25-0.255,6.97,2.975,10.54,8.415l-9.35,10.03c-3.23-1.36-3.74-2.38-6.035-4.505
		c-2.38-2.295-3.315-2.04-3.23-5.355c6.375-0.765,3.995,4.505,9.605,4.42C402.742,263.461,399.512,265.501,399.172,260.146
		L399.172,260.146z M414.471,251.987l7.905,0.17c-1.19,3.315-1.615,2.975-5.695,3.74c1.36,1.87,1.615,1.87,1.19,4.42
		c-4.25-0.51-9.35-4.505-11.05-7.31c1.7-2.04,1.105-1.87,3.74-1.19c-0.17-5.1-0.935-3.91,2.04-5.865
		C414.216,248.417,413.451,248.247,414.471,251.987L414.471,251.987z M218.214,253.517c0.68-2.975,2.635-3.57,5.1-5.61
		c4.845-3.74,3.23-1.445,7.565-2.975l3.995,5.61c-2.38,3.57-0.51,2.55-5.1,6.12c-8.5,6.8-6.97,2.55-7.225,2.38
		c-0.17-1.105-0.425-0.51,0.51-1.87l2.125-2.38C220.764,254.792,221.189,255.472,218.214,253.517L218.214,253.517z M414.641,244.677
		c-0.425-5.1,0.425-5.61,2.55-8.415C434.361,234.392,429.176,257.852,414.641,244.677L414.641,244.677z M210.904,241.447
		c0.68-3.74-1.36-0.765,1.7-3.23c2.38-1.87,7.31-3.995,9.775-3.485c0.935,4.165,0.255,1.615-3.23,4.93l6.97,1.19
		c-0.935,4.42-2.04,3.57-5.44,5.355c-4.675,2.38-9.095,3.06-4.845-2.04c0.17-0.17,0.51-0.255,0.68-0.68
		c0.17-0.425,0.51-0.425,0.68-0.425L210.904,241.447L210.904,241.447z M422.461,223.598c4.505,0.51,10.71,2.55,12.24,5.44
		c-2.975,3.57-0.425,1.36-10.115-1.19c2.975,4.675,8.925,3.91,6.375,10.285c-5.695-1.87,0-1.105-4.93-4.25
		c-2.04-1.36-3.485-1.445-6.035-2.975L422.461,223.598L422.461,223.598z M213.709,234.307c-6.97,5.44-11.73-8.415-2.55-10.795
		c7.225-1.87,11.9,7.31,4.93,10.37c-1.445-2.55-0.17-3.06-0.51-6.545c-4.25-0.425-4.42-0.935-6.12,2.975
		C212.349,234.563,211.074,229.463,213.709,234.307L213.709,234.307z M431.556,213.483l5.865,0.935c1.105,4.165,0.425,5.1-0.68,9.35
		c-3.995,0.425-10.115-0.765-12.579-3.91c2.38-3.485,0.17-1.445,4.845-1.7L431.556,213.483L431.556,213.483z M201.725,214.758
		c9.35-10.37,19.039,2.635,10.03,6.63c-1.615-2.635-0.17-3.57-0.255-6.8l-6.12,0.765c0.935,8.5,1.445-0.68,3.485,6.545
		C203.255,224.533,201.555,220.283,201.725,214.758L201.725,214.758z M202.49,198.014c8.67-4.42,13.854,7.225,6.29,10.795
		C200.62,212.633,194.245,202.094,202.49,198.014L202.49,198.014z M431.556,205.834c0.17-0.425,0.51-0.255,0.765-0.425l-2.295-2.295
		c-1.445-1.87-0.765,1.615-1.445-3.315c7.48,0.255,10.965,0.425,12.835,3.57c-2.125,2.635,0.51,0.765-2.805,1.445l-2.04,0.255
		c-0.17-0.255-0.425,0.17-0.68,0.255c0.935,3.06,0.255,0.68,2.55,2.805c2.04,1.87,0.765-0.51,1.7,2.38
		c-2.55,1.615-11.645,1.19-12.835-2.805C430.196,205.154,430.791,207.704,431.556,205.834L431.556,205.834z M433.426,193.424
		c0.17-0.425,0.51-0.255,0.765-0.425c-2.55-1.105-8.16-4.42-3.23-5.865c2.295-0.68,9.35,0,11.305,0.255
		c-1.105,6.12,0,1.445-5.1,4.25c2.805,1.615,4.93,1.87,4.505,6.035c-4.675,0.51-10.54,1.105-12.664-1.615
		c1.105-2.125-0.17-0.68,2.04-1.7L433.426,193.424L433.426,193.424z M201.725,189.854c-3.23-3.23-3.23,2.805-3.06-3.995
		c10.37-3.315,15.724-0.255,11.22,9.35l-5.355-0.17C203.255,193.594,202.745,190.874,201.725,189.854L201.725,189.854z
		 M434.87,178.38c3.23-2.635,2.125-3.74,6.375-4.93c-0.17,4.845,0.68,2.975-2.125,5.185c5.1,5.865-0.68-3.57,2.38,2.635l0.255,2.04
		c-3.91,0.765-9.18,1.615-11.985,0.68c-1.19-3.06-1.615-1.87,1.7-3.74c-2.295-2.04-2.635-2.125-2.635-6.035L434.87,178.38
		L434.87,178.38z M211.159,174.13c1.19,3.57,0.51,6.545-0.17,9.775c-3.485-1.105-1.87,0.17-2.975-2.975
		c-0.51-1.445,0.765-0.17-0.51-2.975c-2.04,4.505,1.36,3.23-3.06,4.845c-2.38-3.57,0.255-2.295-1.87-5.695
		c-1.87,5.355,0.425,4.505-3.23,6.035c-1.615-2.975-0.935-6.545,0-9.775L211.159,174.13L211.159,174.13z M429.516,172.515
		c-6.29-8.415-0.765-13.854,8.67-11.305C442.775,169.03,439.97,173.535,429.516,172.515L429.516,172.515z M204.53,170.645
		c-8.415-2.125-4.25-13.344,4.93-10.37c6.035,1.87,6.545,12.834-2.55,11.05c1.19-5.695,0.68-0.425,3.485-4.93
		c-1.87-3.06-2.975-3.315-6.545-1.87C204.105,169.965,206.399,165.97,204.53,170.645L204.53,170.645z M423.651,151.946
		c2.55-2.55,6.12-4.25,10.54-4.165c1.36,2.125,2.635,4.675,3.23,8.67l-12.155,3.91C424.331,156.876,423.396,156.196,423.651,151.946
		L423.651,151.946z M204.36,156.366c-0.68-4.42-0.17-6.29,2.295-9.86c3.995,0.51,8.5,2.125,11.475,4.42
		c-0.68,3.57-1.615,5.695-3.74,7.99L204.36,156.366L204.36,156.366z M428.921,121.007c-23.119,8.16-14.534,12.58-12.24,19.634
		c2.55,7.905-3.23,5.865-0.765,12.919c9.35,27.624,10.03,50.573-2.975,77.092c-14.534,29.749-46.833,57.373-93.156,56.948
		c-22.184-0.17-42.838-7.31-57.628-17.339c-32.979-22.439-51.083-61.878-41.733-103.356c1.36-5.61,3.23-9.435,4.505-14.109
		c1.87-6.12-3.91-4.675-0.765-12.919c2.805-7.48,9.35-11.05-12.58-18.954c-11.985,12.155-20.654,42.923-21.249,64.937
		c-0.68,27.199,7.055,48.448,18.529,67.487c45.388,76.327,169.058,85.677,222.946-0.51c11.22-18.019,18.954-41.903,18.019-67.997
		C449.32,162.995,440.65,133.161,428.921,121.007L428.921,121.007z"/>
	<path id="XMLID_118_" fill="#FEFEFE" d="M295.901,82.843c0.935,8.415,2.805,10.03,6.8,15.299l1.615,1.615
		c-28.134,4.25-25.499,11.645-21.504,22.524c11.22-1.87,19.464-7.055,33.064-6.29l0.935-0.935v-4.76l-3.995-2.04
		c-2.975-1.445-0.255,1.105-2.805-1.87c2.55-2.805,4.93-1.7,9.86-1.7c4.165,0,7.905-0.255,11.305,0.51
		c-1.19,5.61-0.765,0.68-6.035,4.93l-0.17,5.355c6.29,0.425,11.645,1.105,17.339,2.295c5.185,1.19,10.795,3.57,15.639,4.25
		c4.845-13.769,5.44-16.404-19.634-22.014c-3.91-0.765-4.165,0-2.975-2.125c2.635-6.12,4.675-7.31,6.29-16.149
		c-0.17-5.1,0.255-1.19-1.36-2.55l-5.695,1.7l1.105,2.04c-4.845,2.805-8.245,9.18-14.789,10.285c1.615-3.91,2.55-3.995,5.185-6.63
		c2.38-2.38,2.975-3.74,5.1-6.29c4.675-9.18-3.995-14.789-7.565-19.209c10.37-1.7,27.709,2.125,36.974,5.44
		c10.795,3.91,20.654,10.115,24.394,19.889c4.505-3.995,12.41-10.965,5.1-18.699c-27.879-29.239-105.141-31.789-138.035-1.105
		c-10.285,9.605-0.255,13.514,3.23,19.634c6.63-6.545,5.695-11.73,24.309-18.954c9.86-3.91,25.754-7.31,37.484-6.63l6.375,10.115
		c0.68,1.445,1.105,3.57,0,4.505c-7.735,2.38-4.675-8.5-15.299-7.055C301.341,69.924,296.921,76.214,295.901,82.843L295.901,82.843z
		"/>
	<path fill="#FEFEFE" d="M324.46,283.096l-0.17-75.137c6.12-1.445,75.477-0.51,87.632-0.51
		C408.182,252.667,360.583,285.22,324.46,283.096L324.46,283.096z M228.499,207.364h88.057v75.902
		C271.167,281.991,232.408,249.522,228.499,207.364L228.499,207.364z M412.346,198.949c-1.36,1.105-0.425,1.19-5.1,1.19
		l-16.574-0.17c-13.769,0-58.988,0.935-66.297-0.425c-2.55-7.055-0.425-69.612-0.935-83.212l-6.8-0.17v83.212h-88.566
		c0.51-26.179,7.31-28.984,12.41-42.838l-13.174-4.93c-5.61,19.634-9.86,28.984-6.035,52.443
		c2.635,16.829,10.03,31.619,18.444,42.158c56.438,70.802,166.593,39.778,179.938-43.093c3.57-22.779-0.68-32.384-6.29-51.593
		l-13.089,5.355C403.847,167.33,413.111,177.19,412.346,198.949L412.346,198.949z"/>
	<path id="XMLID_179_" fill="#0071BA" d="M336.869,245.442h-0.51c-2.125-0.17-1.615,0.425-1.19-2.04
		c-0.765-6.035-2.295-8.415-0.68-15.044c-0.255-4.42-0.425-1.445,0.935-2.55c1.36-3.57,2.125-5.185,4.845-6.97
		c-0.51-4.42-0.425-1.445,1.19-2.38l5.355-3.06c0.255-0.255,0.68-0.51,0.765-0.68l1.7-0.935c3.23-1.36,0-0.17,2.635-0.51
		l12.155,1.19l-5.185-2.975c0.255-0.17,0.51-0.17,0.68-0.255c8.67-1.445,22.779,10.115,22.184,25.839
		c-0.935,22.184-22.439,22.524-24.564,25.754c2.125,6.12,5.695-0.17,11.645,5.61h-25.839c4.25-4.42,8.16-1.615,12.24-4.675
		c-2.635-6.375-7.905,1.615-20.569-13.599C337.209,243.572,336.954,251.052,336.869,245.442L336.869,245.442z M324.46,283.096
		c36.039,2.295,83.637-30.429,87.547-75.647c-12.24,0-81.512-0.935-87.632,0.51L324.46,283.096L324.46,283.096z"/>
	<path id="XMLID_178_" fill="#0071BA" d="M247.623,237.367c2.295-4.845,7.225-10.115,10.54-14.449
		c2.975-3.74,6.63-9.775,10.285-12.919c11.22,3.57,20.654,5.695,22.949,13.599c10.115,0.425,16.149,12.155,21.589,21.844
		c-2.125,3.74-17.849,22.269-20.824,24.819c-3.57-1.7-7.48-6.035-10.285-9.35c-7.99-9.775-5.185-4.505-10.795-8.84
		c-2.635-2.04-1.615-2.805-5.355-5.1C259.607,243.487,253.063,242.977,247.623,237.367L247.623,237.367z M228.499,207.364
		c3.91,42.158,42.838,74.542,88.142,75.902v-75.902H228.499L228.499,207.364z"/>
	<path fill="#FEFEFE" d="M279.837,251.477c-2.295-3.995-1.87-31.109-1.7-31.789c0.68-3.315-0.425-2.04,2.55-3.06
		C282.387,219.603,282.641,249.097,279.837,251.477L279.837,251.477z M247.623,237.367c5.44,5.44,12.155,6.035,18.104,9.775
		c3.74,2.295,2.635,3.06,5.355,5.1c5.61,4.25,2.635-1.105,10.795,8.84c2.635,3.315,6.545,7.565,10.285,9.35
		c3.06-2.55,18.699-21.079,20.824-24.819c-5.355-9.86-11.475-21.504-21.589-21.844c-2.295-7.905-11.73-10.03-22.949-13.599
		c-3.57,3.23-7.31,9.18-10.285,12.919C254.763,227.338,249.833,232.523,247.623,237.367L247.623,237.367z"/>
	<path id="XMLID_108_" fill="#FEFEFE" d="M389.652,187.049c-3.57-6.035-1.87-11.985-2.04-22.694
		c-3.57-3.995-9.86-7.565-14.109-11.645c-6.12-5.61,2.125-1.36-2.805-7.31c0,0-6.375-5.355-6.8-5.695
		c-5.695-4.165-1.615,1.445-7.225-0.765c-3.06-1.19-3.995-6.29-7.735-2.295c-3.06,3.315,5.1,7.565,10.115,12.24
		c-1.615,3.485-2.805,3.995-4.505,7.225c1.615,3.315,4.93,6.035,8.415,6.97c2.975-2.975,3.06-2.55,4.845-6.375
		c2.975,0.935,4.25,2.04,6.29,3.91c2.805,2.55,2.805,1.19,2.04,6.545l-18.274-0.17c-1.36,0.17-1.7,0.17-2.975,0.425
		c-2.125,0.51-1.615,0.425-2.635,1.105c0.425,2.975,3.06,7.055,3.23,6.63c0.17-0.17,0.255,0.425,0.425,0.765
		c28.644,0.17,6.12-4.165,20.569-3.995l-0.17,13.854l-23.629,0.17c-0.68,3.57-1.7,3.91-1.445,6.8l41.053-0.255
		c0-3.57,0.425,0-0.935-2.805C390.757,188.664,389.907,187.559,389.652,187.049L389.652,187.049z"/>
	<path id="XMLID_107_" fill="#FEFEFE" d="M270.572,113.952l-4.165-10.115l-3.06-3.23c-0.255-0.17-0.51-0.51-0.765-0.68
		c-1.36,6.375-6.12,13.769-13.344,10.54c-2.805-10.54,9.435-10.115-14.024-18.784c-14.959-5.61-13.769-12.155-17.849-17.509
		l-7.99,12.834c10.54,14.279,32.044,17.509,34.169,21.844c0.765,7.48-3.06,5.61-3.57,12.24c3.91,5.1,9.435,5.44,17.594,3.485
		C265.727,122.622,266.662,119.647,270.572,113.952L270.572,113.952z"/>
	<path id="XMLID_106_" fill="#FEFEFE" d="M374.183,103.838l-3.995,10.03c3.57,5.865,4.25,8.415,12.155,10.71
		c7.735,2.125,13.854,1.87,18.274-2.805c0.425-7.055-4.165-5.1-3.485-12.919c2.04-3.91,24.819-8.415,33.744-21.589
		c-0.765-3.57-5.355-9.435-7.48-13.089c-6.97,9.18-3.23,11.9-17.084,17.169c-24.649,9.775-11.73,7.48-14.789,19.039
		c-7.905,2.975-12.155-4.42-13.344-10.37l-2.805,2.635c-0.17,0.17-0.425,0.425-0.51,0.51
		C374.608,103.243,374.353,103.498,374.183,103.838L374.183,103.838z"/>
	<path id="XMLID_105_" fill="#ED1D24" d="M385.487,139.791c1.36,1.87,0,0.17,1.36,1.7c0.425,0.51,0.935,1.105,1.445,1.615
		l9.775,11.73c3.485-0.425,6.63-1.7,10.03-3.06c3.995-1.615,6.8-2.805,7.225-7.225c0.68-7.48-9.775-13.344,0.255-19.464
		c5.185-3.23,12.919-6.375,18.529-9.18c8.84-4.42,11.05-6.97,6.035-16.404c-3.57,2.295-4.675,5.44-14.704,10.71
		c-4.675,2.38-15.724,5.865-18.784,7.99C396.707,124.747,423.566,144.466,385.487,139.791L385.487,139.791z"/>
	<path id="XMLID_104_" fill="#ED1D24" d="M253.573,141.406c1.36-1.445,0.17,0,1.445-1.7c-38.673,4.165-10.965-14.789-20.909-21.504
		c-3.315-2.295-14.109-5.61-18.784-7.99c-10.795-5.61-10.71-7.99-14.789-10.71c-4.93,9.435-3.74,11.305,5.185,16.149
		c5.61,2.975,12.24,5.61,18.529,9.18c17.084,9.775-18.019,20.909,17.169,29.919c2.635-2.04,3.995-4.505,6.63-7.48
		c1.36-1.445,2.04-2.295,3.485-3.74C252.553,142.766,252.893,142.341,253.573,141.406L253.573,141.406z"/>
	<path id="XMLID_103_" fill="#ED1D24" d="M335.339,98.228c7.055,0,16.659,3.315,21.589,6.29c11.22,6.545,3.74,11.73,2.805,19.464
		c5.1,1.87,3.74,1.615,5.44-0.68c1.36-1.7,2.125-6.12,4.93-9.435l3.995-10.03c-3.995-8.67-3.995-10.285-12.155-14.704
		c-6.8-3.74-12.41-4.93-20.399-6.97C340.014,91.003,338.059,92.023,335.339,98.228L335.339,98.228z"/>
	<path fill="#FEFEFE" d="M292.586,137.581h10.03v18.784c-2.635-2.125-3.57-4.93-5.355-8.5
		C295.646,144.381,294.031,141.406,292.586,137.581L292.586,137.581z M282.302,131.122c2.805,7.565,22.694,47.853,26.689,52.443
		v-52.443H282.302L282.302,131.122z"/>
	<path id="XMLID_100_" fill="#ED1D24" d="M266.407,103.838l4.165,10.115c3.995,4.845,2.805,9.18,7.055,11.22
		c6.035-3.57,2.55-1.87,0.51-8.84c-3.485-12.24,15.299-16.829,24.564-18.104c-3.995-5.355-5.865-6.97-6.8-15.299
		c-6.035,0.935-13.599,3.91-18.104,6.545C270.232,93.808,269.977,95.678,266.407,103.838L266.407,103.838z"/>
	<path fill="#FEFEFE" d="M341.204,251.647c-4.42-2.125-2.805-1.445,0.425-3.06L341.204,251.647L341.204,251.647z M363.813,212.548
		c2.04,0.425,3.57,0.68,4.93,1.615c2.635,1.7,1.87,2.125,2.295,2.805l2.04,0.51l0.17,1.615c1.36,0.765,0.51,0,1.87,1.19
		c0.255,0.17,1.36,1.445,1.445,1.615c1.445,2.38,0.765,1.36,0.935,4.25c3.23,4.165,2.38,11.9,0.17,17.509
		c-0.255,0.68-0.935,2.04-1.445,2.635c-1.36,1.615-0.51,0.68-2.125,1.87l3.06-6.8l-5.61-5.185l-3.06,2.295l-2.04,4.25l6.63,6.63
		c0.17-0.17,0.425,0.255,0.51,0.51l-3.06,0.255c-1.36-2.805-3.23-3.57-5.355-6.29l-3.91,1.87l-3.06,3.995l4.93,5.355l4.505-0.68
		c-6.12,4.675-21.844,4.675-26.434-2.805c5.355,1.87,8.67-0.51,13.514-2.55l-12.919-13.514c-2.55,4.675-2.55,7.48-4.93,9.775
		c0.17,5.61,0.51-1.87-2.295,3.06c12.665,15.214,17.849,7.225,20.569,13.599c-4.165,3.06-7.99,0.17-12.24,4.675h25.754
		c-5.865-5.695-9.605,0.51-11.645-5.61c2.125-3.23,23.629-3.57,24.564-25.754c0.68-15.894-13.514-27.369-22.184-25.839
		c-0.17,0-0.51,0.17-0.68,0.255L363.813,212.548L363.813,212.548z"/>
	<path fill="#FEFEFE" d="M265.982,171.325l-8.67,0.255l8.67-17.594c3.91,0.935,1.105-2.55,6.12,7.48
		c1.87,3.74,3.57,6.12,4.845,10.285h-8.5c-0.17-3.91,0.51-4.675-1.105-7.48c-0.17,0.255-0.425,0.255-0.425,0.68
		C266.662,166.395,265.897,164.1,265.982,171.325L265.982,171.325z M252.298,173.535l-6.035,19.039
		c0.425-3.06,4.675-9.35,6.545-12.919c3.57-7.225,2.805-8.245,12.919-6.63l1.19,7.225c0-0.17,0.255,0.51,0.425,0.765
		c1.615-2.975,0.765-4.25,1.36-8.415l8.925,0.425c3.995,4.93,5.185,11.9,9.775,16.149l-5.355-15.469c2.635-1.87,1.7-0.17,4.505-1.7
		c-6.29-0.17-5.355,0.935-7.735-4.675l-8.245-16.234c-1.615-3.995,0.17-7.055-2.295-10.37c-6.375,0.68-2.805,2.805-4.25,9.18
		c-0.51,2.04-2.975,5.865-4.25,8.16c-6.97,12.835-3.06,13.769-11.9,14.449L252.298,173.535L252.298,173.535z"/>
	<path id="XMLID_177_" fill="#0071BA" d="M356.079,249.862l5.355,5.695c-5.695,0.935-10.37,1.105-14.789-1.615L356.079,249.862
		L356.079,249.862z M361.093,245.612l-5.44,2.04c-3.06-3.995-5.44-3.06-4.42-8.67c-4.505,1.36-5.695-1.615-8.245-4.675
		c0.765-2.55,3.06-5.355,4.42-7.055c5.1,2.295,5.695,5.61,7.905,7.735c0.765,0.765,2.975,2.125,4.505,3.57
		c1.615,1.615,2.125,2.125,3.315,3.91c-0.17,0.17-1.105,1.445-1.36,1.87L361.093,245.612L361.093,245.612z M340.014,218.838
		l6.375,7.225c-1.87,2.635-2.805,3.91-4.93,6.29c-2.805-1.7-4.675-3.485-6.12-6.545c-1.19,1.105-1.105-1.87-0.935,2.55l6.035,5.865
		c-0.68,2.04-1.36,3.485-2.04,5.355c-1.19,3.06-0.425,4.505-3.315,3.91c-0.425,2.38-0.935,1.87,1.19,2.04h0.51
		c2.38-2.38,2.38-5.1,4.93-9.775l12.92,13.514c-4.845,2.04-8.16,4.25-13.514,2.55c4.42,7.48,20.144,7.48,26.434,2.805l-4.505,0.51
		l-4.93-5.355l3.06-3.995l3.91-1.87c2.295,2.55,3.995,3.315,5.355,6.29l3.06-0.255c-0.255-0.17-0.51-0.68-0.68-0.51l-6.63-6.63
		l2.04-4.25c-0.255,0.17-0.51,0.255-0.68,0.425c-0.17,0.17-0.51,0.255-0.68,0.425l-1.105,0.935c-1.7,1.36,0.17,0.255-1.615,1.19
		c-5.355-6.29-6.545-3.91-5.61-9.435c-4.42,1.19-6.29-2.125-8.925-5.695l3.23-4.165l-4.93,2.55c-2.635-2.295-5.355-3.91-6.545-7.99
		C339.504,217.308,339.334,214.418,340.014,218.838L340.014,218.838z"/>
	<path id="XMLID_92_" fill="#0071BA" d="M316.725,115.312l-0.935,0.935l0.935,0.255l6.8,0.17c0.51,13.599-1.615,76.157,0.935,83.212
		c7.31,1.36,52.528,0.425,66.297,0.425l16.574,0.17c4.845-0.17,3.74-0.17,5.1-1.19l-87.632,0.17l0.17-83.212l0.17-5.355
		c-0.17,0.255-0.255,0.68-0.425,0.765L316.725,115.312L316.725,115.312z"/>
	<path id="XMLID_91_" fill="#FEFEFE" d="M401.042,90.323c-3.57-2.04-6.12-4.505-10.285-6.29c-6.63,6.375-16.574,17.084-5.61,24.309
		c8.5,5.61,2.55-4.505,4.25-9.095C391.437,94.318,397.132,93.638,401.042,90.323L401.042,90.323z"/>
	<path id="XMLID_90_" fill="#FEFEFE" d="M239.548,90.323c3.06,2.55,7.48,3.91,9.775,6.545c5.865,6.545-3.06,14.534,4.845,12.155
		c1.19-0.425,2.635-1.87,3.315-2.635c6.63-7.48,1.19-12.664-7.735-22.269C245.413,86.073,243.033,88.283,239.548,90.323
		L239.548,90.323z"/>
	<path fill="#FEFEFE" d="M348.429,164.355l-7.31-2.805c1.445-3.315,1.19-2.975,4.42-4.845
		C347.919,159.68,348.174,159.595,348.429,164.355L348.429,164.355z M333.384,156.536l4.505,4.505
		C330.155,165.8,328.71,164.1,333.384,156.536L333.384,156.536z M341.204,149.056c2.38-2.38,3.315-2.975,6.97-2.975
		c0,3.74-0.51,4.675-2.805,6.8L341.204,149.056L341.204,149.056z M330.07,145.996c4.675,0.425,4.675,0.51,7.565,2.975
		c-3.06,5.355-2.04,3.23-4.845,4.42L330.07,145.996L330.07,145.996z M348.429,164.355c0.51-0.425,2.805-0.255,0.68-5.44
		c-0.255-0.68-1.87-3.23-2.125-3.74c1.615-3.995,3.57-4.42,2.55-10.285c-6.035-0.935-6.035,1.105-10.115,2.55
		c-0.255-0.17-4.25-2.38-4.675-2.55c-5.44-1.7-4.505,0.935-4.505,0.935c-0.17,0.17-3.06-2.04-0.17,4.845
		c0.68,1.445,1.36,2.55,2.125,4.25c-5.355,10.71-3.91,12.579,7.225,7.225c1.7,0.765,3.485,2.04,4.93,2.38
		C348.854,166.225,348.429,164.355,348.429,164.355L348.429,164.355z"/>
	<path id="XMLID_84_" fill="#FEFEFE" d="M361.093,245.612l0.68-1.36c0.255-0.425,1.19-1.615,1.36-1.87
		c-1.19-1.87-1.615-2.295-3.315-3.91c-1.615-1.615-3.74-2.805-4.505-3.57c-2.125-2.125-2.805-5.355-7.905-7.735
		c-1.36,1.7-3.57,4.505-4.42,7.055c2.55,3.06,3.74,6.035,8.245,4.675c-0.935,5.61,1.445,4.675,4.42,8.67L361.093,245.612
		L361.093,245.612z"/>
	<path id="XMLID_83_" fill="#0071BA" d="M265.982,171.325c0-7.225,0.765-5.1,0.935-6.375c0-0.425,0.255-0.51,0.425-0.68
		c1.615,2.805,0.935,3.57,1.105,7.48h8.5c-1.19-4.165-2.975-6.545-4.845-10.285c-5.185-10.03-2.295-6.545-6.12-7.48l-8.67,17.594
		L265.982,171.325L265.982,171.325z"/>
	<path id="XMLID_82_" fill="#FEFEFE" d="M352.594,221.898l-3.23,4.165c2.635,3.57,4.505,6.8,8.925,5.695
		c-0.935,5.61,0.255,3.23,5.61,9.435c1.7-0.935,0,0.17,1.615-1.19l1.105-0.935c0.17-0.17,0.51-0.255,0.68-0.425
		c0.17-0.17,0.425-0.255,0.68-0.425l1.36-3.74c-1.19-2.295-0.68-1.87-2.805-3.91c-3.315-3.06-2.805-0.51-9.605-9.775
		L352.594,221.898L352.594,221.898z"/>
	<path id="XMLID_81_" fill="#FEFEFE" d="M339.249,164.78c-2.125,3.91-0.17,10.37-1.87,15.214c-1.615,4.42-3.995,7.99-5.185,12.58
		h14.534c-1.19-5.185-3.57-8.245-5.355-12.919C340.014,175.745,341.799,167.67,339.249,164.78L339.249,164.78z"/>
	<path id="XMLID_80_" fill="#0071BA" d="M408.607,265.331c-5.1-2.805-4.165-5.695-9.435-5.185c0.255,5.355,3.57,3.315,5.61,8.67
		c-5.44,0.17-3.23-5.185-9.605-4.42c0,3.485,0.765,3.06,3.23,5.355c2.295,2.125,2.805,3.23,6.035,4.505l9.35-10.03
		c-3.57-5.61-6.29-8.84-10.54-8.415C403.932,262.186,407.162,257.767,408.607,265.331L408.607,265.331z"/>
	<path id="XMLID_79_" fill="#FEFEFE" d="M359.818,217.903c-0.17,0.17-0.425,0.255-0.425,0.51l-1.36,2.38
		c4.25,2.805,2.805,4.93,7.735,3.74c-0.51,3.995-0.68,3.485,5.1,8.16c3.06-5.44,4.505-7.735,2.38-13.599l-2.55,0.425l0.255-2.55
		C365.003,214.758,365.768,217.223,359.818,217.903L359.818,217.903z"/>
	<path id="XMLID_78_" fill="#0071BA" d="M318,306.045l8.925-0.425c2.125,0,0.425,0.255,3.74,0.255V293.04
		c-5.185,0.255-2.805-1.445-5.61,4.165l-1.19,2.125c-1.105-3.485-0.935-6.035-5.61-5.865C317.065,297.375,317.66,301.88,318,306.045
		L318,306.045z"/>
	<path id="XMLID_176_" fill="#0071BA" d="M377.413,226.148c0,5.355,1.7,7.225-0.17,13.344l-5.185-5.355l3.485-9.435
		C376.988,227.168,376.223,224.788,377.413,226.148L377.413,226.148z M346.559,213.313c5.695,1.19,4.25,2.295,8.16,5.355l-2.04,3.23
		l4.25-1.105c6.8,9.35,6.29,6.63,9.605,9.775c2.125,2.04,1.615,1.615,2.805,3.91l-1.36,3.74l3.06-2.295l5.61,5.185l-3.06,6.8
		c1.615-1.19,0.935-0.17,2.125-1.87c0.51-0.68,1.19-2.125,1.445-2.635c2.38-5.61,3.06-13.344-0.17-17.509
		c-0.17-2.975,0.51-1.7-0.935-4.25c-0.17-0.17-1.19-1.445-1.445-1.615c-1.36-1.19-0.51-0.425-1.87-1.19
		c2.125,5.865,0.68,8.16-2.38,13.599c-5.695-4.675-5.61-3.995-5.1-8.16c-4.845,1.19-3.485-0.935-7.735-3.74l1.36-2.38
		c0-0.255,0.255-0.425,0.425-0.51l-3.74,0.51l-5.355-4.845l0.935-2.295c-2.55,0.425,0.51-0.935-2.635,0.51l-1.7,0.935
		C347.069,212.888,346.814,213.228,346.559,213.313L346.559,213.313z"/>
	<path id="XMLID_175_" fill="#0071BA" d="M374.948,282.841c2.125,1.615,3.91,3.23,2.38,5.695
		C375.628,286.58,375.628,286.07,374.948,282.841L374.948,282.841z M372.228,293.805l2.38,2.125c0.17,0.17,0.425,0.255,0.68,0.51
		c4.505-3.23-0.935-1.87,3.91-4.845c5.355-3.23,1.7,0.425,5.185-0.51c0-0.17,2.635,1.105,0.51-3.485
		c-1.36-2.805-1.105-0.765-2.805-2.38c-2.295-2.04-2.635-4.165-4.675-6.63l-7.31,2.975
		C371.378,287.94,373.418,286.155,372.228,293.805L372.228,293.805z"/>
	<path id="XMLID_174_" fill="#0071BA" d="M229.944,249.777c-1.445,1.105-1.105,1.445-3.315-0.255
		C228.244,248.587,229.179,249.352,229.944,249.777L229.944,249.777z M218.214,253.517c2.975,1.87,2.55,1.19,7.225,1.19l-2.125,2.38
		c-0.765,1.36-0.68,0.765-0.51,1.87c0.255,0.17-1.36,4.42,7.225-2.38c4.505-3.485,2.55-2.55,5.1-6.12l-3.995-5.61
		c-4.505,1.445-2.805-0.765-7.565,2.975C220.934,249.862,218.894,250.712,218.214,253.517L218.214,253.517z"/>
	<path id="XMLID_173_" fill="#0071BA" d="M212.774,153.986l-0.425,0.255C212.519,154.071,212.774,153.986,212.774,153.986
		L212.774,153.986z M209.034,152.456c-0.765,2.975,0.51,0-1.87,1.445l1.445-3.06C209.204,151.946,209.714,150.331,209.034,152.456
		L209.034,152.456z M204.36,156.366l9.86,2.55c2.125-2.295,3.06-4.42,3.74-7.99c-2.805-2.295-7.31-3.74-11.475-4.42
		C204.105,150.246,203.68,151.946,204.36,156.366L204.36,156.366z"/>
	<path id="XMLID_68_" fill="#FEFEFE" d="M308.65,196.399c-1.87-6.545-14.959-30.939-19.719-32.809
		c-2.805,3.06,14.704,27.709,17.849,31.194C307.885,195.974,307.461,195.464,308.65,196.399L308.65,196.399z"/>
	<path id="XMLID_67_" fill="#0071BA" d="M316.725,115.312l7.99-3.995c0.17-0.17,0.255-0.51,0.425-0.765
		c5.185-4.25,4.845,0.68,6.035-4.93c-3.485-0.765-7.225-0.51-11.305-0.51c-4.93,0-7.31-1.105-9.86,1.7
		c2.38,3.06-0.17,0.425,2.805,1.87l3.995,2.04v4.59H316.725z"/>
	<path id="XMLID_66_" fill="#0071BA" d="M304.316,305.11c3.57-0.255,3.74-0.935,5.355-3.91c0.17,0.255,0.255,0.255,0.425,0.68
		c0,0.425,0.255,0.51,0.255,0.68c0.17,0.17,0.425,1.19,0.51,1.445c1.19,2.04-1.445,1.105,2.975,2.04
		c1.105-2.805,2.295-9.435,0.935-12.835c-4.165,0.17-3.91,0.765-5.185,3.74c-2.125-2.635-0.425-3.74-3.91-4.845
		C303.976,294.74,302.956,301.88,304.316,305.11L304.316,305.11z"/>
	<path id="XMLID_172_" fill="#0071BA" d="M426.711,153.051c2.295,1.7,1.19,0.17,2.295,3.315
		C425.776,154.751,427.306,156.791,426.711,153.051L426.711,153.051z M432.236,151.266l1.36,3.315
		C431.131,153.136,430.621,153.816,432.236,151.266L432.236,151.266z M423.651,151.946c-0.17,4.25,0.68,4.93,1.615,8.5l12.155-3.91
		c-0.51-3.995-1.87-6.63-3.23-8.67C429.856,147.696,426.116,149.396,423.651,151.946L423.651,151.946z"/>
	<path id="XMLID_62_" fill="#0071BA" d="M350.724,294.145l-0.765-1.445c-0.17-0.17-0.68-1.105-0.765-1.36
		c-1.7-1.615-0.17-0.765-2.975-1.445c-1.105,3.23,1.105,10.115,3.485,12.835c2.55-1.105,1.7-0.51,2.975-2.635
		c0.255-0.51,0.765-2.38,1.445-3.57c1.615,3.74,0,3.315,3.57,4.42c2.295-3.315-1.105-10.965-2.975-12.835
		C350.979,289.385,352.084,290.32,350.724,294.145L350.724,294.145z"/>
	<path id="XMLID_61_" fill="#0071BA" d="M434.19,193.169c-0.255,0.17-0.68,0-0.765,0.425l-2.295,0.935
		c-2.125,1.19-0.935-0.255-2.04,1.7c2.125,2.805,7.99,2.125,12.664,1.615c0.425-4.165-1.7-4.25-4.505-6.035
		c5.1-2.805,3.995,1.87,5.1-4.25c-2.04-0.255-9.095-0.935-11.305-0.255C426.116,188.749,431.726,192.149,434.19,193.169
		L434.19,193.169z"/>
	<path id="XMLID_60_" fill="#0071BA" d="M279.837,251.477c2.805-2.38,2.55-31.874,0.765-34.849c-2.975,1.105-2.04-0.255-2.55,3.06
		C277.882,220.368,277.627,247.482,279.837,251.477L279.837,251.477z"/>
	<path id="XMLID_59_" fill="#0071BA" d="M210.904,241.447l6.29,1.87c-0.17,0-0.51,0-0.68,0.425c-0.17,0.425-0.51,0.51-0.68,0.68
		c-4.25,5.1,0.17,4.42,4.845,2.04c3.485-1.7,4.675-1.105,5.44-5.355l-6.97-1.19c3.485-3.315,3.995-0.765,3.23-4.93
		c-2.38-0.51-7.31,1.615-9.775,3.485C209.714,240.767,211.584,237.707,210.904,241.447L210.904,241.447z"/>
	<path id="XMLID_171_" fill="#0071BA" d="M430.876,165.29c2.125-1.19-1.445-1.105,2.975-1.105c4.845,0,0.425-0.17,2.38,0.935
		C437.93,170.39,428.921,170.73,430.876,165.29L430.876,165.29z M429.516,172.515c10.285,1.105,13.089-3.315,8.67-11.305
		C428.751,158.66,423.311,164.1,429.516,172.515L429.516,172.515z"/>
	<path id="XMLID_170_" fill="#0071BA" d="M280.942,296.865c-0.765-5.185-0.17-5.61,4.25-6.12
		C285.871,295.08,286.041,297.205,280.942,296.865L280.942,296.865z M288.846,289.81c-7.565-6.12-14.534,0.68-11.475,7.565
		C280.007,303.41,290.716,301.88,288.846,289.81L288.846,289.81z"/>
	<path id="XMLID_169_" fill="#0071BA" d="M424.331,243.572c-2.975,2.805-6.29,2.38-5.695-3.06
		C422.206,238.982,423.311,240.682,424.331,243.572L424.331,243.572z M414.641,244.677c14.534,13.089,19.719-10.285,2.55-8.415
		C414.981,239.067,414.386,239.577,414.641,244.677L414.641,244.677z"/>
	<path id="XMLID_168_" fill="#0071BA" d="M202.49,204.389c0.255-2.04-1.105-2.55,2.125-3.315c3.57-1.105,3.74,1.105,4.25,1.36
		C208.779,202.349,209.544,209.233,202.49,204.389L202.49,204.389z M202.49,198.014c-8.16,4.165-1.87,14.704,6.29,10.795
		C216.344,205.154,211.074,193.594,202.49,198.014L202.49,198.014z"/>
	<path id="XMLID_167_" fill="#0071BA" d="M266.917,284.456c-4.165,2.125-2.125,0.425-3.315-2.04
		C267.172,283.776,264.962,281.736,266.917,284.456L266.917,284.456z M257.057,288.875c3.485,2.295,3.485,1.19,6.63-0.51
		c-0.425,1.7-1.105,2.635,0.425,5.1c2.295-0.935,2.295-0.765,4.25-4.42c1.19-2.04,2.125-3.74,2.805-6.29
		c-10.285-8.925-9.86,0.51-12.835,4.42c-0.17,0.17-0.425,0.425-0.51,0.51L257.057,288.875L257.057,288.875z"/>
	<path id="XMLID_48_" fill="#0071BA" d="M292.586,137.581c1.445,3.91,3.06,6.8,4.675,10.285c1.7,3.57,2.635,6.375,5.355,8.5v-18.784
		H292.586L292.586,137.581z"/>
	<path id="XMLID_47_" fill="#0071BA" d="M432.321,205.494c-0.255,0.17-0.68,0-0.765,0.425c-0.765,1.87-1.36-0.68-4.25,1.87
		c1.19,3.995,10.37,4.42,12.835,2.805c-0.765-2.805,0.425-0.425-1.7-2.38c-2.295-2.125-1.615,0.255-2.55-2.805
		c0.255-0.17,0.51-0.425,0.68-0.255l2.04-0.255c3.315-0.765,0.68,1.19,2.805-1.445c-1.87-3.23-5.355-3.315-12.835-3.57
		c0.68,4.93,0,1.615,1.445,3.315L432.321,205.494L432.321,205.494z"/>
	<path id="XMLID_46_" fill="#0071BA" d="M199.26,183.055c3.57-1.445,1.36-0.68,3.23-6.035c2.125,3.485-0.51,2.04,1.87,5.695
		c4.42-1.615,1.105-0.17,3.06-4.845c1.19,2.635,0,1.36,0.51,2.975c1.19,3.23-0.51,2.04,2.975,2.975c0.68-3.23,1.36-6.12,0.17-9.775
		l-11.73-0.935C198.495,176.51,197.73,180.08,199.26,183.055L199.26,183.055z"/>
	<path id="XMLID_45_" fill="#0071BA" d="M288.931,302.475c6.12,1.445,5.865-2.125,8.16-7.31c2.295,3.91-2.125,5.355,1.105,9.605
		c3.74-1.87,4.165-8.67,4.165-12.579l-8.415-1.7C291.736,304.005,290.546,295.505,288.931,302.475L288.931,302.475z"/>
	<path id="XMLID_44_" fill="#0071BA" d="M420.081,231.078c2.38,1.445,3.995,1.615,6.035,2.975c4.93,3.23-0.765,2.38,4.93,4.25
		c2.55-6.375-3.57-5.61-6.375-10.285c9.775,2.55,7.225,4.845,10.115,1.19c-1.615-2.975-7.735-4.93-12.24-5.44L420.081,231.078
		L420.081,231.078z"/>
	<path id="XMLID_43_" fill="#0071BA" d="M237.338,267.116l-5.355-1.87c0.765-3.74,1.445-4.165,5.61-4.42
		c0.68,4.675-1.7,3.315,1.87,5.61c6.035-5.185-2.975-13.344-9.095-7.055C223.739,266.181,234.873,275.191,237.338,267.116
		L237.338,267.116z"/>
	<path id="XMLID_42_" fill="#0071BA" d="M204.53,170.645c1.87-4.675-0.425-0.68-0.765-6.12c3.57-1.445,4.675-1.19,6.545,1.87
		c-2.635,4.675-2.295-0.765-3.485,4.93c9.095,1.7,8.67-9.095,2.55-11.05C200.195,157.471,196.115,168.605,204.53,170.645
		L204.53,170.645z"/>
	<path id="XMLID_41_" fill="#0071BA" d="M332.704,292.7c0.425,3.995,0.255,10.54,3.485,12.835c5.1-3.23-1.7-5.355,2.04-10.115
		c3.06,1.36,1.36-0.425,2.38,4.505c1.105,5.185-0.17,3.315,2.805,4.42c1.19-1.445,0.68,0.425,1.105-2.125l-2.125-10.37
		L332.704,292.7L332.704,292.7z"/>
	<path id="XMLID_40_" fill="#0071BA" d="M236.658,274.426c3.23,1.87,1.615,1.7,4.845-0.255c0.255,5.185-0.765,3.91,2.38,6.12
		c2.125-2.55,1.19-3.91,1.105-7.735c0.765-0.17,3.315-0.255,3.74-0.425c3.995-0.935,1.7-0.255,3.06-1.7
		c-3.315-2.975-2.125-0.17-5.355-3.91c-0.765-0.935,0.68-0.425-1.615-2.04C241.588,266.946,238.018,270.516,236.658,274.426
		L236.658,274.426z"/>
	<path id="XMLID_166_" fill="#0071BA" d="M206.23,191.809l0.255-2.805c1.7,1.87,0.68-1.19,0.765,1.7
		C207.674,194.019,207.844,190.534,206.23,191.809L206.23,191.809z M198.495,185.944c-0.17,6.63-0.17,0.765,3.06,3.995
		c1.105,1.105,1.615,3.57,2.635,5.185l5.355,0.17C214.389,185.689,209.034,182.545,198.495,185.944L198.495,185.944z"/>
	<path id="XMLID_37_" fill="#0071BA" d="M213.709,234.307c-2.635-4.845-1.36,0.255-4.165-4.165c1.7-3.74,1.87-3.315,6.12-2.975
		c0.255,3.485-1.105,4.165,0.51,6.545c6.97-3.06,2.295-12.24-4.93-10.37C201.98,225.893,206.739,239.747,213.709,234.307
		L213.709,234.307z"/>
	<path id="XMLID_36_" fill="#0071BA" d="M410.476,251.647c-2.805-0.51-2.04-0.68-3.74,1.19c1.7,2.975,6.8,6.97,11.05,7.31
		c0.425-2.55,0.17-2.55-1.19-4.42c4.165-0.68,4.505-0.425,5.695-3.74l-7.905-0.17c-1.105-3.74-0.17-3.57-2.04-6.29
		C409.371,247.652,410.306,246.377,410.476,251.647L410.476,251.647z"/>
	<path id="XMLID_35_" fill="#0071BA" d="M434.87,178.38l-6.035-4.165c0,3.91,0.425,3.995,2.635,6.035
		c-3.315,1.87-2.975,0.68-1.7,3.74c2.805,0.935,8.16,0.255,11.985-0.68l-0.255-2.04c-3.06-6.29,2.635,3.23-2.38-2.635
		c2.975-2.295,2.125-0.51,2.125-5.185C436.995,174.64,438.1,175.575,434.87,178.38L434.87,178.38z"/>
	<path id="XMLID_34_" fill="#0071BA" d="M201.725,214.758c-0.17,5.44,1.615,9.775,7.055,7.225c-2.04-7.225-2.55,2.04-3.485-6.545
		l6.12-0.765c0.17,3.315-1.36,4.25,0.255,6.8C220.764,217.478,211.074,204.389,201.725,214.758L201.725,214.758z"/>
	<path id="XMLID_33_" fill="#FEFEFE" d="M341.204,216.373c1.19,4.165,3.74,5.695,6.545,7.99l4.93-2.55l2.04-3.23
		c-3.91-3.06-2.38-4.165-8.16-5.355L341.204,216.373L341.204,216.373z"/>
	<path id="XMLID_32_" fill="#0071BA" d="M245.753,281.651c6.97,4.165,1.87-4.93,6.63,3.74c0.68,1.19,0,0.765,1.445,2.125
		c1.36-0.765,0.68,0.425,1.87-2.04c0.255-0.425,0.935-3.315,1.19-3.995C260.967,265.586,246.518,278.931,245.753,281.651
		L245.753,281.651z"/>
	<path id="XMLID_31_" fill="#0071BA" d="M372.228,293.805c-1.19-1.19-3.485-3.23-5.1-5.1c-4.42-5.1-6.545-5.61-6.545,3.23
		c0,3.74-0.425,4.675,1.36,7.055c3.485-1.615,1.36,0.17,3.06-3.74c5.695-0.765,0.68,0,6.29,0.68L372.228,293.805L372.228,293.805z"
		/>
	<path id="XMLID_30_" fill="#0071BA" d="M383.277,274.171c-1.105,2.975,0.935,10.71,3.315,13.089c2.125-1.615,1.87-2.295,2.55-3.995
		c1.615-3.91,0.68,0.765,5.695-1.445c-0.51-2.55-0.17-1.7-2.04-3.23C390.077,275.871,386.337,272.981,383.277,274.171
		L383.277,274.171z"/>
	<path id="XMLID_165_" fill="#0071BA" d="M434.615,217.223c0.17,4.42,1.105,1.445-2.635,3.57
		C432.746,216.968,431.131,217.988,434.615,217.223L434.615,217.223z M429.176,218.158c-4.675,0.255-2.38-1.7-4.845,1.7
		c2.55,3.06,8.5,4.25,12.579,3.91c0.935-4.25,1.7-5.185,0.68-9.35l-5.865-0.935L429.176,218.158L429.176,218.158z"/>
	<path id="XMLID_27_" fill="#FEFEFE" d="M335.254,225.893c1.445,3.23,3.315,4.845,6.12,6.545c2.295-2.38,3.23-3.74,4.93-6.29
		l-6.375-7.225C337.379,220.538,336.529,222.238,335.254,225.893L335.254,225.893z"/>
	<path id="XMLID_26_" fill="#FEFEFE" d="M359.818,217.903c0.935-0.935-1.105-0.17,2.38-1.87c1.7-0.765,2.55-0.765,3.91-1.36
		c-4.25-2.125-0.425-0.255-2.125-2.04l-12.155-1.19l-0.935,2.295l5.355,4.845L359.818,217.903L359.818,217.903z"/>
	<path id="XMLID_25_" fill="#ED1D24" d="M334.574,81.399l-3.74-0.51c-2.125,2.55-2.635,3.91-5.1,6.29
		c-2.55,2.635-3.485,2.635-5.185,6.63c6.63-1.19,10.115-7.48,14.789-10.285L334.574,81.399L334.574,81.399z"/>
	<path id="XMLID_24_" fill="#FEFEFE" d="M334.999,243.487c2.805,0.68,2.125-0.765,3.315-3.91c0.68-1.87,1.36-3.23,2.04-5.355
		l-6.035-5.865C332.875,235.072,334.319,237.452,334.999,243.487L334.999,243.487z"/>
	<path id="XMLID_23_" fill="#FEFEFE" d="M377.413,226.148c-1.19-1.19-0.425,1.105-1.87-1.445l-3.485,9.435l5.185,5.355
		C379.113,233.373,377.413,231.503,377.413,226.148L377.413,226.148z"/>
	<path id="XMLID_22_" fill="#FEFEFE" d="M346.729,254.027c4.25,2.805,9.095,2.55,14.789,1.615l-5.355-5.695L346.729,254.027
		L346.729,254.027z"/>
	<path id="XMLID_21_" fill="#0071BA" d="M330.07,145.996l2.635,7.31c2.975-1.19,1.87,0.935,4.845-4.42
		C334.659,146.506,334.829,146.336,330.07,145.996L330.07,145.996z"/>
	<path id="XMLID_20_" fill="#0071BA" d="M348.429,164.355c-0.255-4.845-0.425-4.675-2.975-7.565c-3.23,1.87-2.975,1.445-4.42,4.845
		L348.429,164.355L348.429,164.355z"/>
	<path id="XMLID_19_" fill="#0071BA" d="M345.539,152.881c2.295-2.295,2.805-3.23,2.805-6.8c-3.57,0.17-4.505,0.51-6.97,2.975
		L345.539,152.881L345.539,152.881z"/>
	<path id="XMLID_18_" fill="#0071BA" d="M333.384,156.536c-4.675,7.565-3.23,9.35,4.505,4.505L333.384,156.536L333.384,156.536z"/>
	<path id="XMLID_17_" fill="#FEFEFE" d="M202.49,204.389c7.225,4.675,6.29-2.04,6.29-2.04c-0.425-0.255-0.51-2.38-4.25-1.36
		C201.47,202.009,202.745,202.349,202.49,204.389L202.49,204.389z"/>
	<path id="XMLID_16_" fill="#FEFEFE" d="M280.942,296.865c5.1,0.51,4.93-1.7,4.25-6.12
		C280.687,291.085,280.007,291.595,280.942,296.865L280.942,296.865z"/>
	<path id="XMLID_15_" fill="#FEFEFE" d="M430.876,165.29c-2.04,5.355,7.055,5.1,5.355-0.17c-2.04-1.105,2.55-0.935-2.38-0.935
		C429.431,164.355,433.001,164.1,430.876,165.29L430.876,165.29z"/>
	<path id="XMLID_14_" fill="#FEFEFE" d="M418.636,240.427c-0.425,5.44,2.975,5.865,5.695,3.06
		C423.311,240.682,422.206,238.982,418.636,240.427L418.636,240.427z"/>
	<path id="XMLID_13_" fill="#0071BA" d="M359.818,217.903c6.035-0.68,5.185-3.06,11.22-0.935c-0.425-0.68,0.425-1.105-2.295-2.805
		c-1.36-0.765-2.975-1.19-4.93-1.615c1.7,1.7-2.125-0.17,2.125,2.04c-1.36,0.51-2.125,0.51-3.91,1.36
		C358.543,217.733,360.753,216.798,359.818,217.903L359.818,217.903z"/>
	<path id="XMLID_12_" fill="#FEFEFE" d="M377.413,288.535c1.445-2.55-0.255-4.165-2.38-5.695
		C375.628,286.07,375.628,286.58,377.413,288.535L377.413,288.535z"/>
	<path id="XMLID_11_" fill="#0071BA" d="M431.981,220.963c3.74-2.295,2.805,0.765,2.635-3.57
		C431.131,217.988,432.746,216.968,431.981,220.963L431.981,220.963z"/>
	<path id="XMLID_10_" fill="#FEFEFE" d="M266.917,284.456c-2.04-2.635,0.255-0.68-3.315-2.04
		C264.792,284.796,262.837,286.58,266.917,284.456L266.917,284.456z"/>
	<path id="XMLID_9_" fill="#0071BA" d="M341.204,251.647l0.425-3.06C338.399,250.117,336.699,249.522,341.204,251.647
		L341.204,251.647z"/>
	<polygon id="XMLID_8_" fill="#0071BA" points="373.163,219.093 372.993,217.478 370.953,216.968 370.613,219.433 	"/>
	<path id="XMLID_7_" fill="#0071BA" d="M429.006,156.366c-1.105-3.23,0-1.615-2.295-3.315
		C427.306,156.791,425.776,154.751,429.006,156.366L429.006,156.366z"/>
	<path id="XMLID_6_" fill="#FEFEFE" d="M226.799,249.607c2.295,1.7,1.7,1.36,3.315,0.255
		C229.179,249.352,228.244,248.587,226.799,249.607L226.799,249.607z"/>
	<path id="XMLID_5_" fill="#FEFEFE" d="M433.596,154.666l-1.36-3.315C430.621,153.816,431.131,153.136,433.596,154.666
		L433.596,154.666z"/>
	<path id="XMLID_4_" fill="#FEFEFE" d="M207.164,153.986c2.38-1.36,1.105,1.615,1.87-1.445c0.51-2.125,0.17-0.51-0.51-1.7
		L207.164,153.986L207.164,153.986z"/>
	<path id="XMLID_3_" fill="#FEFEFE" d="M206.23,191.809c1.615-1.445,1.445,2.125,1.19-1.19c-0.255-2.805,0.765,0.17-0.765-1.7
		L206.23,191.809L206.23,191.809z"/>
	<path id="XMLID_2_" fill="#FEFEFE" d="M212.349,154.241l0.425-0.255C212.774,153.986,212.519,154.071,212.349,154.241
		L212.349,154.241z"/>
</g>
</svg>
