<?xml version="1.0" encoding="utf-8"?>
<!-- Generator: Adobe Illustrator 19.0.0, SVG Export Plug-In . SVG Version: 6.00 Build 0)  -->
<svg version="1.1" id="Layer_1" xmlns="http://www.w3.org/2000/svg" xmlns:xlink="http://www.w3.org/1999/xlink" x="0px" y="0px"
	 viewBox="0 0 640 360" enable-background="new 0 0 640 360" xml:space="preserve">
<rect fill="#333333" width="640" height="360"/>
<g>
	<path fill="#FF0000" d="M186.322,176.173c-1.186,1.186-1.897,1.186-4.387,1.186c-3.557,0-4.387-0.237-7.469-0.949
		c-0.474-0.237-1.423,0-2.371-0.237c-0.711-0.237-0.949-0.949-3.083-1.897c-2.371-0.949-1.186-0.474-2.134-1.423
		c-1.66-1.423-0.711-1.186-2.134-2.371l-1.186-1.423c-0.474-0.474-0.949-0.711-1.66-1.66l-2.134-5.335
		c-0.711-3.557-0.474-1.423-0.949-2.608l-0.949-6.521c0-3.557,0-7.469,0.237-10.789c0-1.66,0.237-1.186,0.474-2.371
		c0-0.949,0-1.423,0.237-2.371c0.237-1.66,0.237-0.711,0.711-2.134c0.237-1.897,0.237-1.66,1.186-3.913
		c1.897-3.438,0.948-3.438,2.845-4.98h0.237l0.474-0.711c0.948-0.949,1.423-0.711,2.371-1.897c0.474-0.237,0.711-0.711,1.186-1.186
		c0.237-0.237,0.474-0.237,0.948-0.474c0,0,0-0.237,0.237-0.237l2.608-0.949c3.083-0.949,3.557-1.186,6.758-1.186
		c8.892-0.237,7.944-0.474,7.944,2.845C186.203,140.13,186.796,158.152,186.322,176.173z M138.66,234.743
		c2.134,0.948,6.284,0.711,8.892,0.711c1.423,0,3.438,0,4.505-0.237c0.474-0.237,1.66-0.474,1.897-0.711h0.237
		c0.474-0.237,0.237,0,0.474-0.474c0,0,0.237-0.474,0.474-0.711c0.237-0.474,0.474-0.711,0.711-1.423
		c0.237-1.186,0-1.423,0.711-2.371l0.711-1.186c0.474-0.948,1.186-1.897,1.66-3.083l4.861-9.366c0.711-1.66,1.423-3.438,2.371-4.861
		c0.711-0.948,1.186-2.134,1.66-3.083l1.897-2.845c0-0.237,0-0.237,0-0.474l5.81-10.671c0.237-1.186-0.237-0.711,0.474-1.897
		c0.711-0.949,0.474-0.237,0.949-1.66c0.237-1.423,0-0.711,0.711-1.423l7.944-0.237l0.237,44.105c0,3.557,2.134,2.608,7.707,2.608
		c1.423,0,4.505,0.474,5.335-0.237l0.237-1.66c0.237-20.63,0-41.141,0-61.652c0-7.232,0.474-61.415-0.237-63.312
		c-0.949-0.948-20.63-0.474-21.934-0.474c-1.66,0-1.423,0.237-2.845,0.474c-1.66,0.237-1.186,0.237-2.608,0.711
		c-0.711,0.237-1.897,0.237-2.845,0.474c-1.897,0.474-4.505,1.897-4.505,1.897c-2.371,0.711-1.897,0.949-3.557,1.897
		c-0.237,0-0.237,0-0.474,0.237l0,0c-1.897,0.949-2.134,2.134-2.845,2.371c-0.474,0.474,0,0-0.474,0.237
		c-1.423,0.948-2.845,2.608-4.031,3.913c-0.949,1.186-1.423,2.845-2.608,4.031c-0.948,0.711-1.186,1.66-1.897,2.845
		c0,0.474-0.237,0.711-0.474,0.949c-1.423,3.083-1.66,5.81-2.608,7.707c-0.237,0.711-0.237,0-0.237,1.423
		c-0.237,1.66-0.949,2.608-0.949,4.031c-0.237,4.387-0.949,9.722-0.237,13.99l0.474,3.913c0.237,1.897,0.949,4.031,1.66,5.81
		c0.711,1.66,0.711,3.083,1.66,4.505c0.949,1.423,0.711,1.897,3.083,5.454c0.237,0.474,0.474,0.711,0.711,1.186l3.557,3.083
		c0.474,0.474,0.949,0.949,1.66,1.423c0.474,0.474,0.711,0.474,0.949,0.711c0,0.237,0.237,0.237,0.237,0.237l0,0l2.134,1.423
		c0.237,0.237,0.474,0.237,0.711,0.474l2.608,1.423c0.711,0.474,1.897,0.711,0.237,3.913c0,0.237-0.237,0.237-0.237,0.237
		l-1.186,1.897c-0.237,0.711,0,0.474-0.474,1.186c-0.237,0.237,0,0-0.237,0.237c-1.423,2.134-2.608,5.335-4.031,7.232
		c-0.949,1.186-2.608,4.505-3.557,6.284c-0.237,0.711-0.237,0.237-0.474,0.948l-1.66,2.608c0,0-0.237,0.474-0.237,0.711
		c-0.237,0.237-0.237,0.711-0.474,0.948c-0.237,0.474,0,0.237-0.237,0.474l-1.186,1.897c-1.186,1.423-1.897,4.031-3.557,5.928
		l-0.711,1.423c-1.423,1.897-1.186,1.897-2.371,3.913c-0.474,0.711-0.474,1.423-0.949,2.134c-0.711,1.186-0.474,1.186-1.186,2.371
		C139.371,232.134,138.66,232.609,138.66,234.743z"/>
	<path fill="#FFFFFF" d="M298.6,194.194c0-0.949,0.474-4.98,0.711-5.454c0-1.66,0.237-3.557,0.474-4.98l0.948-19.681
		c0-1.66,0.474-2.845,1.897-3.083c1.186-0.474,8.655-0.474,9.722,0c0.474,1.423,0.237,27.743,0.237,31.775
		c0,3.557,0.474,30.352-0.237,31.3c-0.711,0.948-10.196,0.474-11.738,0.474c-3.913,0-8.418,0.474-12.093,0
		c-0.474-1.897,0.474-2.371,0.948-4.031c0.237-0.711,0.474-1.186,0.711-1.897l0.711-1.66c1.423-2.608,0.474-1.423,1.423-3.083l0,0
		l0.948-1.897c1.186-2.371,0.948-2.608,1.66-4.031c0.711-1.423,1.66-6.521,1.897-7.469c0.711-1.423,0.474-1.66,0.948-3.913
		c0-0.237,0.237-0.711,0.237-0.949C298.6,194.194,298.125,194.669,298.6,194.194z M285.084,200.478c0,0.711,0,0.948-0.237,1.66
		c-0.237,0.711-0.237,0.948-0.474,1.897c-0.237,1.423-0.711,1.186-0.711,3.557c-0.237,2.845-1.186,4.505-2.134,6.758
		c0,0.237-0.237,0.948-0.237,1.186c-0.711,1.186-0.237,0-0.711,0.948c-0.711,1.186,0.237,0.948-0.948,2.845l-1.423,3.913
		c-0.711,1.897-3.438,0.948-5.81,1.423c-0.474,2.134-0.474,24.898,0,25.965l3.557,0.711c1.423,0.237,2.371,0.237,4.031,0.237
		c0.711-1.186,0.474-0.474,1.66-1.186c0.237,0,0.237,0,0.474,0c1.186-0.948-1.186,0.711,0.474-0.474v-0.237l0,0
		c0.711-2.134,0.948-0.711,0.948-2.845c0-1.66-0.237-3.083-0.237-4.505c0-1.66,0.237-3.083,0-4.505c0-2.845,0.237-1.897,0.711-3.557
		c0.474,0,0.474,0,0.711,0l0,0l0.474,0.711c5.81,0,11.738,0,17.547,0c3.438,0,15.176-0.474,17.073,0.474
		c0.948,4.031-0.474,12.093,0.711,16.124c1.423,0,4.98,0.948,8.418,0c3.438-0.948,2.608-3.438,2.608-6.995
		c-0.237-6.521-0.237-13.042-0.237-19.207c-2.608-0.948-3.913-0.237-5.335-1.186l0,0c-0.948-0.237-0.711,1.186-0.948-4.98
		c0-3.557-0.237-2.608-0.237-4.031c-0.237-2.845,0-6.284,0-8.892v-53.827l-0.711-0.949c-0.237,0-0.237,0-0.237,0
		c-0.711-0.711-0.474-0.711-1.186-0.711c-1.423-0.474-26.439-0.237-30.352,0c-2.845,0-2.371,0-3.083,0.711l-0.237,0.474
		c-0.474,1.186,0.237,15.176-0.237,19.563l-0.474,6.284c0,4.387-0.711,7.707-1.186,11.738l-0.711,5.81
		c0,0.949-0.474,1.66-0.711,2.371C285.676,199.53,286.269,200.36,285.084,200.478z"/>
	<path fill="#FFFFFF" d="M218.452,234.98c3.083-0.711,8.181,0.711,10.671-0.711c0.474-3.438,0.237-7.232,0.237-10.315
		c0-3.438,0-6.995,0-10.196l0.237-15.176c0-2.608-0.474-2.371,0.949-4.387l19.088,0.237c0.711,2.608,0.474,1.897,0.474,4.98
		c-0.237,1.66,0,3.438,0,4.98c0,8.418-0.474,22.645,0,30.115l0.474,0.237c3.083,0,11.619,0.711,11.738-1.66
		c0.711-3.438,0.237-65.565,0.237-75.405c0-2.134,0.711-5.928-1.186-7.232c-0.948-0.474-10.789,0-11.145,0.237
		c-1.186,0.711-0.948,22.171-0.711,24.898v6.521c0,0.474,0,0.711,0,0.949c-0.474,0.711-0.237,0.237-0.474,0.711
		c-0.948,0.474-11.145,0.237-13.279,0.237c-7.707-0.237-5.81-0.237-5.928-7.232c-0.237-4.031-0.474-8.655-0.474-12.805
		c0-3.557,0.237-10.196-0.237-13.279c-2.134-1.186-8.892-1.186-10.671,0.237c-1.66,1.186-0.949,2.371-0.949,4.98l-0.237,77.065
		C217.503,234.506,217.978,234.031,218.452,234.98z"/>
	<path fill="#FFFFFF" d="M368.314,160.286h-0.237c1.66,0.474,0.237,0,1.186,0.711s2.134,1.897,2.371,3.438l0.711,1.423
		c0.237,0.474,0.237,0.474,0.474,1.423s0.237,2.134,0.474,3.083c0.948,3.083,1.423,10.789,1.423,13.99
		c-2.371,1.186-8.181,0.948-11.263,0.948c-0.948,0-2.134,0-2.845,0c-2.134,0.474-6.284,0.711-7.707-0.237
		c0-1.66,0.237-0.237,0.474-2.134l0.237-4.98c0.237-1.897,0-0.948,0.474-2.134c0.711-1.186,0.948-6.521,2.134-8.655
		c0.948-1.66,1.423-4.031,2.845-5.335c0.948-0.948,0.474-0.711,1.186-1.423c0.474-0.949,0.711-0.474,1.66-0.949
		c1.66-0.474,2.371-1.186,4.387-0.237C367.84,159.812,367.84,159.574,368.314,160.286z M356.221,234.268
		c3.083,0,3.438,1.423,5.454,1.66c0.948,0,1.186,0,2.134,0.237c1.186,0.237,3.438,0.711,4.98,0.474c0.474,0-0.237,0,0.474,0
		l2.608-0.474c1.186-0.237,2.845,0,4.031-0.474l4.98-1.897c0.711-0.474,0.711-0.711,1.186-0.711
		c1.186-0.474,0.711,0.237,1.897-0.711c1.186-0.948,2.608,0.237,1.186-6.284c0-0.711,0.237-0.948,0-1.66
		c-1.897-0.711-2.371-0.237-4.387,0c-1.186,0-3.557,0.237-4.505,0.474c-1.897,0.711-4.505,0.711-6.758,0.474
		c-1.423,0-1.423,0-2.134-0.948c-2.845,0.237-6.995-2.134-7.707-3.438l-1.423-1.423c-1.186-1.186-0.948-1.897-1.66-2.608
		c-0.474-0.711-0.948-0.948-1.186-2.845c-0.948-0.474-0.948-0.711-1.186-1.897c-0.711-2.845-1.186-3.557-1.423-6.521
		c-0.237-2.964-1.186-7.707-0.711-10.196c1.423-0.949,1.423-0.949,3.557-0.711l30.589,0.237c0.474-0.237,0.711,0,1.186-0.949
		s0.474-10.196,0-11.738c-0.237-0.711-0.237-0.237-0.474-1.423c0-2.134,0-4.98-0.474-6.995c-0.711-1.897-1.423-4.387-1.423-6.521
		c0.237-1.66-1.897-4.861-2.371-6.521c-1.186-3.557-4.505-6.284-6.284-8.418l-1.186-1.423l-3.913-1.66
		c-3.557-1.186-5.454-2.134-9.841-0.949c-0.474,0-0.711,0-1.186,0.237c-2.845,0.711-1.66,0.711-2.845,0.949l-1.423,0.711
		c0,0,0,0.237-0.237,0.237l-2.371,1.66c-0.711,0.237-0.474,0-1.186,0.474c-2.134,1.897-4.505,4.98-5.81,7.707c0,0,0,0,0,0.237
		l-0.237,0.237c-0.948,1.66-1.186,1.423-1.897,3.438c0,0-0.237,0.711-0.237,0.949l-1.66,3.557c-0.237,0.474-0.237,0.711-0.474,1.186
		l-1.66,5.928c-0.474,1.423-0.474,5.81-0.948,7.232c-0.237,2.371-0.237-0.237-0.474,4.861c0,3.438,0,6.995,0,10.671l0.474,7.469
		c0.237,2.608,0,1.186,0.474,2.371l0.948,4.031c0.237,0.948,0.237,1.66,0.237,2.371c0.237,0.948,0.711,0.948,0.948,1.897
		c0.474,2.371,0,0.474,0.711,1.897l1.423,3.913c0.711,1.66,0,0.948,0.948,1.66c0.948,0.711,0.237,0.474,0.948,1.423
		c0.474,0.474,0.948,0.948,1.423,1.423c1.66,2.134,0.711,1.66,3.557,4.387c0.711,0.711,1.897,0.948,3.083,1.897
		C354.679,234.031,355.272,234.506,356.221,234.268z"/>
	<path fill="#FFFFFF" d="M421.904,176.173c0,1.66-0.711,2.608-1.423,3.913c-0.711,1.186-0.948,2.134-1.423,3.438l-1.423,2.134
		c-1.423,1.66-0.711,3.083-3.083,2.845c-0.474-2.134,0-14.939,0-18.614c0-2.845,0.237-17.073-0.474-18.614
		c-1.423-0.948-4.387-0.237-5.928-0.474c-1.423,0-4.387-0.711-5.335,0.474c-0.948,0.949-0.474,9.248-0.474,11.263v66.987
		c0,0.948-0.237,4.031,0.711,4.861c2.608,0.237,9.248,0.474,11.145-0.237c0.474-1.423,0.237-27.743,0.237-32.96v-8.418
		c0.237-0.474,0.237-0.711,0.711-0.711c0.948,0,0.474-0.237,0.711,0.474c0.948,0.237,0.711,1.66,1.66,3.083
		c1.186,1.897,0.237,1.186,1.423,2.608l0.474,0.949c0.474,1.423,0.948,1.423,1.66,2.845c0.237,0.474,0.237,0.474,0.237,0.948
		l0.948,2.134c0.474,0.948,0.237,0.237,0.711,0.948l0.711,1.897c1.186,0.711,0.948,1.897,2.608,4.387
		c0.237,0.474,0.237,0.474,0.711,0.948l0.474,1.66c0.237,0.948,0,0,0.237,0.711l2.845,6.284c0.711,1.186,0.474,1.186,0.948,1.897
		c1.186,1.66,0.711,1.66,2.134,4.505c0.237,0.711,0.711,1.66,0.948,2.371c0.474,1.186,0.474,1.186,1.423,1.66l3.083,1.897
		c0.948,0.237,4.031,0.237,4.98,0.237c2.134,0,4.505,0,6.521-0.237c0.237-2.371-0.948-3.438-1.897-5.928
		c-0.474-0.948-2.371-3.913-2.608-5.454c-0.237-1.186-2.134-4.031-3.083-5.335l-0.237-0.237l0,0
		c-0.711-1.186-0.237-0.711-0.948-1.66c-1.423-1.897-0.711-1.186-1.66-3.557l-1.897-3.083c0,0-0.237-0.948-0.237-1.186
		c-0.948-2.608-1.66-3.083-3.557-6.758c-1.186-2.134-0.948,0-2.134-4.387l-1.66-3.438c-0.237-0.474-0.474-0.711-0.474-1.186
		c-0.948-1.423-1.66-3.913-1.186-5.81c0.237-0.711,0.474-0.711,0.474-1.186c0.711-1.897,0.711-1.186,1.66-3.557
		c0.474-0.948,0.711-0.948,1.186-1.897c0.474-0.711,0.711-1.423,1.186-2.371c0.474-0.474,0.948-1.186,1.186-1.897
		c0.237-0.237,0.474-0.711,0.711-1.186c0-0.237,0.237-0.711,0.474-0.949c0,0,0-0.237,0.237-0.237v-0.237
		c0.948-2.134,0.711-0.711,1.423-1.897l0.474-0.711l2.608-4.861c1.66-2.134,0.948-1.423,1.66-2.608c0.711-1.423,0,0.711,0.711-1.66
		l1.423-2.845c0.237-0.237,0.237,0,0.474-0.474c0-0.237,0-0.237,0.237-0.474c0.237-0.711,0.237-0.711,0.474-1.186
		c0.711-1.186,1.897-3.083,1.66-4.387v-0.711c-0.237-0.474-0.237-0.237-0.237-0.237l-0.474-0.237h0.474c-0.237,0-0.711,0-0.948,0
		h-6.284c-3.913,0-2.845,0-4.98,1.186c-2.608,1.423-0.711-0.474-1.897,2.371c-0.237,0.474-0.474,0.949-0.711,1.186
		c-1.423,2.134-1.186,2.608-1.66,3.913v0.474h-0.237c-0.711,1.423-0.474,1.66-1.186,2.608c-0.948,1.66-1.897,3.083-2.371,4.861
		c-0.474,1.186-0.474,0.711-0.948,1.423c-0.237,0.711-0.474,2.845-1.66,4.861L421.904,176.173z"/>
	<path fill="#FFFFFF" d="M456.88,215.536L456.88,215.536l2.608,5.928c0.237,0.711,0.474,1.897,0.948,2.608l1.423,1.897
		c1.186,1.423,0,0.474,2.134,2.845l0.948,0.948c1.186,1.186,1.423,1.66,2.134,2.134l2.134,1.186
		c0.474,0.237,0.711,0.237,0.948,0.474c0.237,0.237,0.237,0.237,0.474,0.474c2.371,1.186,2.371,1.897,5.335,2.371
		c3.913,0.711,7.232,0.237,10.789,0.237c1.897,0,1.66-0.711,3.438-1.186c1.186-0.237,1.186,0,1.897-0.474
		c1.66-0.711,3.557-0.711,4.98-1.66c0.948-0.711,2.134-1.186,3.083-1.897l1.186-0.711c0-1.423-0.237-2.608-0.711-3.913l-0.474-1.423
		c-0.474-1.186-0.711-1.897-2.608-1.897c-3.438,0-8.418,2.134-11.738,1.186c-0.474,0-0.237,0-0.474-0.237
		c-1.66-0.711-3.913,0-5.335-1.186l-3.083-1.897h-0.237l-3.557-4.387c-0.237-0.237-0.237-0.711-0.474-0.948
		c-0.474-0.474-0.948-0.474-1.186-1.186c-0.237-1.186-0.237-1.423-0.711-2.371l-1.186-1.897c-0.474-1.66-0.474-3.913-0.711-5.335
		c-0.474-4.031-0.711-0.474-0.711-8.655c0-5.81,0-12.568,1.186-17.547c0.237-1.186,0-1.897,0.474-3.083
		c0.237-0.949,0.474-1.66,0.711-3.083c0.237-1.423,0.237-1.897,0.711-3.083c0.237-0.711,0-0.949,0.237-1.423
		c0.237-0.474,0.474-0.474,0.711-0.711l0.474-0.237c0-1.66-0.237-1.186,0.474-2.134l1.186-1.897
		c0.474-0.474,0.474-0.474,0.711-0.711l0.237-0.474c1.423-1.423,2.608-1.897,4.505-2.371c1.66-0.474,3.438-0.474,5.335,0.237
		c0.711,0.237,0.474,0.237,1.186,0.237c0.948,0.474,0.474,0.474,1.423,0.949l1.423,0.949c0.237,0,0.237,0,0.237,0.237
		c1.186,0.711,1.66,2.134,3.438,2.134c2.134,0.237,2.134-0.949,2.845-2.134l1.423-2.845l0.474-0.711
		c0.474-0.711,0.237,0,0.711-1.186c0.474-1.66,0.948-1.66,0.948-1.897c0.474-2.371-1.66-3.083-2.608-4.031
		c-0.474-0.474-1.897-0.948-2.845-1.186l-4.505-1.423c-0.474-0.474-0.237-0.474-1.66-0.474c-2.371,0-7.232-0.474-9.248,0.237
		c-0.711,0.474,0.237,0.237-0.711,0.711l-3.557,0.949c-1.66,0.474-0.474,0.474-3.083,1.66c-0.948,0.474-0.474,0.237-0.948,0.711
		c-0.237,0-0.237,0.237-0.237,0.237l-3.557,2.845c0,0.237,0,0.237-0.237,0.474l-4.387,5.928l-1.423,3.557
		c-0.474,1.66-0.474,0.949-0.948,2.134c-0.474,0.949,0,1.66-0.711,2.371c-0.711,1.186-0.237,1.186-1.423,3.913l-0.474,1.897
		c-0.237,0.711-0.474,1.66-0.711,2.371c-0.237,0.711-0.237,1.423-0.474,2.371c-0.948,3.083-1.186,8.418-1.186,11.738l0.474,12.093
		c0.474,0.948,0.237,1.66,0.474,2.845C455.457,209.726,456.643,213.994,456.88,215.536z"/>
</g>
</svg>
