<?xml version="1.0" encoding="utf-8"?>
<!-- Generator: Adobe Illustrator 19.0.0, SVG Export Plug-In . SVG Version: 6.00 Build 0)  -->
<svg version="1.1" id="Layer_1" xmlns="http://www.w3.org/2000/svg" xmlns:xlink="http://www.w3.org/1999/xlink" x="0px" y="0px"
	 viewBox="0 0 640 360" enable-background="new 0 0 640 360" xml:space="preserve">
<rect id="XMLID_1_" fill="#0177BF" width="640" height="360"/>
<path fill="#FFFFFF" d="M350.878,293.232h0.775l4.066,3.292c13.748,8.036,24.204,4.066,35.531-6.487
	c10.553-9.681,12.973-12.973,21.009-23.429c0.775-1.646,1.646-3.292,2.42-4.841l1.646-2.42c0.775-0.775,0.775-0.775,0.775-0.775
	c0.775-0.775,0.775-0.775,1.646-1.646c-3.292,11.327-24.204,41.243-42.017,46.084c-10.553,3.292-16.168-2.42-22.655-5.615
	c-5.615,1.646-6.487,3.292-13.748,3.292c-4.841,0-7.261,1.646-12.199,1.646c-14.522,0-23.429,0-38.048-4.066
	c-16.168-4.066-25.849-7.261-38.048-16.168c-36.402-25.075-59.057-67.189-54.991-110.853c0.775-12.199,4.841-36.402,12.199-42.792
	c3.292-2.42,5.615-3.292,8.036-5.615c8.907-8.907,29.916-21.88,41.243-27.495c4.841-3.292,14.522-5.615,21.88-4.841
	c1.646,8.907-0.775,15.297-3.292,22.655l-25.075,77.645c-1.646,5.615-4.066,12.973-5.615,19.46
	c-2.42,8.036-11.327,36.402-10.553,40.468l18.588-0.775c1.646-5.615,3.292-12.973,4.841-19.46c2.42-4.841,4.841-12.973,6.487-18.588
	l12.199-37.177c5.615-14.522,1.646-15.297,15.297-33.111c7.261-9.681,21.88-17.814,33.982-14.522
	c2.42,10.553-0.775,22.655-3.292,33.111c-3.292,10.553-27.495,85.778-26.721,90.618c2.42,0,16.943,0.775,18.588-0.775
	c0.775-0.774,19.46-60.606,21.88-67.189c1.646-6.487,3.292-12.199,5.615-16.943c1.646-4.066,4.066-7.261,6.487-10.553
	c10.553-15.297,35.531-13.748,35.531-11.327c0.775,4.066,0,5.615-1.646,9.681c-0.775,3.292-1.646,5.615-2.42,8.907l-29.916,91.393
	c-1.646,7.261-4.066,12.199-4.841,20.234C346.037,288.392,350.878,287.52,350.878,293.232z M369.466,283.551
	c-4.841-8.907,0-19.46,1.646-26.721l54.991-162.552c0.775-2.42,0.775-4.066,1.646-6.487c2.42-4.841,1.646-4.066,4.841-3.292
	c3.292,6.487-7.261,21.009-7.261,27.495c-0.775,4.066,4.066,8.907,5.615,12.199c6.487,13.748,10.553,30.787,12.199,45.309
	c0.775,12.199,0,24.204-2.42,35.531c-1.646,9.681-5.615,19.46-9.681,27.495c-8.036,15.297-3.292,8.036-14.522,22.655
	c-4.841,7.261-11.327,13.748-18.588,19.46c-4.841,4.066-5.615,4.841-12.199,6.487C379.147,283.551,376.824,285.1,369.466,283.551z
	 M217.467,113.642c0.775-6.487,13.748-19.46,17.814-23.429c14.522-13.748,31.562-23.429,50.924-29.141
	c35.531-11.327,79.194-3.292,109.207,20.234c4.066,3.292,9.681,5.615,7.261,11.327c-0.775,4.841-3.292,9.681-4.066,15.297
	c-1.646,4.841-2.42,10.553-4.841,14.522c-5.615,0.775-8.036,0-12.973,1.646c-16.943,4.066-14.522,4.066-25.075,12.199
	c-1.646,1.646-1.646,1.646-4.066,1.646c-0.775-8.036,0-16.168-0.775-24.204c-0.775-10.553-19.46-13.748-31.562-6.487
	c-8.907,4.841-10.553,8.907-15.297,8.907c-0.775-14.522,3.292-33.111-2.42-39.694c0,0-1.646-0.775-1.646-1.646
	c-1.646-0.775,1.646,0.775-0.775-0.775c-12.973-3.292-36.402,6.487-46.955,13.748l-26.043,20.234
	C223.857,110.447,221.533,112.867,217.467,113.642z"/>
</svg>
