<?xml version="1.0" encoding="utf-8"?>
<!-- Generator: Adobe Illustrator 19.0.0, SVG Export Plug-In . SVG Version: 6.00 Build 0)  -->
<svg version="1.1" id="Layer_1" xmlns="http://www.w3.org/2000/svg" xmlns:xlink="http://www.w3.org/1999/xlink" x="0px" y="0px"
	 viewBox="0 0 640 360" enable-background="new 0 0 640 360" xml:space="preserve">
<rect fill="#1CAFF6" width="640" height="360"/>
<g>
	<path fill="#FFFFFF" d="M194.481,179.946c0,0.268,0,0.268,0,0.671c0,5.638-0.268,9.396-0.805,10.872
		c-0.805,2.416-2.148,4.161-4.161,5.369c-1.879,1.208-3.893,1.879-6.711,1.879s-4.832-0.671-6.711-1.879
		c-1.879-1.208-2.953-2.953-3.893-5.369c-0.805-2.148-1.208-5.638-1.208-11.141c0-0.268,0-0.671,0-1.208v-29.799h-15.839v26.04
		c0,1.879,0,3.624,0,5.101c0.268,7.248,0.805,12.349,1.879,15.705c1.879,5.369,4.832,9.664,8.993,12.886
		c4.161,2.953,9.933,4.564,16.51,4.564c6.309,0,11.409-1.208,15.705-3.893c4.161-2.685,7.248-6.309,9.396-11.409
		c1.477-3.356,2.416-9.396,2.416-17.718c0-1.477,0-2.953,0-4.832v-26.443h-15.705L194.481,179.946
		C194.078,179.946,194.481,179.946,194.481,179.946z M147.904,128.134h-15.705v24.43c-0.268,0-0.671-0.268-0.805-0.268
		c-5.101-2.953-10.872-4.564-16.51-4.564c-8.188,0-15.302,2.685-21.745,8.322c-7.248,6.711-10.872,14.765-10.872,24.43l0,0l0,0
		c0,8.993,3.356,16.913,9.664,23.221c6.309,6.309,14.228,9.664,22.819,9.664c6.04,0,11.678-1.477,16.913-4.161
		c5.101-2.953,8.993-6.846,12.081-12.081c2.685-4.564,3.893-9.396,4.161-14.362l0,0c0-0.671,0-1.477,0-2.148s0-1.477,0-2.148
		V128.134L147.904,128.134z M127.099,193.638c-3.356,3.356-7.248,5.101-12.349,5.101c-4.832,0-8.993-1.879-12.081-5.101
		c-3.356-3.356-4.832-7.785-4.832-13.154l0,0l0,0c0-5.101,1.477-9.664,4.832-12.886c3.356-3.356,7.248-5.101,12.081-5.101
		c5.101,0,8.993,1.879,12.349,5.101c3.356,3.356,4.832,7.785,4.832,12.886l0,0C131.797,185.852,130.32,190.416,127.099,193.638z
		 M276.763,164.242c-2.953-5.101-6.846-8.993-12.081-12.081c-5.101-2.953-10.872-4.564-16.51-4.564
		c-8.188,0-15.302,2.685-21.745,8.322c-7.248,6.711-10.872,14.362-10.872,24.43l0,0c0,8.993,3.356,16.913,9.664,23.221
		c6.309,6.309,14.228,9.664,22.819,9.664c6.04,0,11.678-1.477,16.913-4.161c5.101-2.953,8.993-6.846,12.081-12.081
		c2.953-5.101,4.564-10.47,4.564-16.51C281.058,174.711,279.85,169.342,276.763,164.242z M260.656,193.638
		c-3.356,3.356-7.248,5.101-12.349,5.101c-5.101,0-8.993-1.879-12.081-5.101c-3.356-3.356-4.832-7.785-4.832-13.154l0,0
		c0-5.101,1.477-9.664,4.832-12.886c3.356-3.356,7.248-5.101,12.081-5.101c5.101,0,8.993,1.879,12.349,5.101
		c3.356,3.221,4.832,7.785,4.832,12.886l0,0C265.488,185.852,263.609,190.416,260.656,193.638z"/>
	<path fill="#FFFFFF" d="M335.823,212.295h15.839v-60.403h-15.839V212.295z M308.709,196.054c-1.879-1.208-3.356-2.953-3.893-5.369
		c-0.671-1.879-0.805-5.369-0.805-10.872V128h-15.705v46.577c0,1.879,0,3.356,0,4.832c0.268,8.322,0.805,14.228,2.416,17.718
		c2.148,4.832,5.101,8.725,9.396,11.409c4.161,2.685,9.396,3.893,15.705,3.893h12.081v-14.631h-12.349
		C312.602,197.933,310.589,197.262,308.709,196.054z M413.676,163.57c-2.148-4.832-5.101-8.725-9.396-11.409
		c-4.161-2.685-9.396-3.893-15.705-3.893c-6.846,0-12.349,1.477-16.51,4.564c-4.161,2.953-7.248,7.248-8.993,12.886
		c-0.805,2.953-1.477,8.322-1.879,15.705c0,1.477,0,3.356,0,5.101v25.906h15.839v-30.067c0-0.268,0-0.671,0-1.208
		c0-5.101,0.268-8.993,1.208-11.141c0.805-2.416,2.148-3.893,3.893-5.369c1.879-1.208,3.893-1.879,6.711-1.879
		c2.685,0,4.832,0.671,6.711,1.879c1.879,1.208,3.356,2.953,4.161,5.369c0.671,1.879,0.805,5.369,0.805,10.872
		c0,0.268,0,0.268,0,0.671v30.872h15.705v-26.443c0-1.879,0-3.356,0-4.832C415.958,172.966,415.152,166.926,413.676,163.57z
		 M343.34,129.342c-4.564,0-8.322,3.893-8.322,8.322s3.624,8.322,8.322,8.322c4.564,0,8.322-3.624,8.322-8.322
		S347.77,129.342,343.34,129.342z M553.407,164.913c-2.953-5.101-6.846-8.993-12.081-12.081c-5.101-2.953-10.47-4.161-16.913-4.161
		c-8.993,0-16.51,3.356-22.819,9.664c-6.309,6.309-9.664,14.228-9.664,23.221l0,0c0,9.664,3.624,17.718,10.872,24.43
		c6.309,5.638,13.557,8.322,21.745,8.322c6.04,0,11.409-1.477,16.51-4.564c5.101-2.953,9.396-6.846,12.081-12.081
		c2.953-5.101,4.564-10.47,4.564-16.242C557.971,175.383,556.495,169.879,553.407,164.913z M541.998,181.423
		c0,5.369-1.477,9.664-4.832,12.886c-3.356,3.356-7.248,5.101-12.349,5.101c-4.832,0-8.993-1.879-12.081-5.101
		c-3.356-3.356-4.832-7.785-4.832-12.886l0,0c0-5.369,1.477-9.933,4.832-13.154c3.356-3.221,7.248-5.101,12.081-5.101
		s8.993,1.879,12.349,5.101C540.521,171.49,541.998,175.919,541.998,181.423C541.998,181.02,541.998,181.02,541.998,181.423z
		 M486.696,178.604c-0.268-5.101-1.879-9.664-4.161-14.228c-2.953-5.101-6.846-8.993-11.678-12.081
		c-5.101-2.953-10.47-4.161-16.51-4.161c-8.993,0-16.51,2.953-22.819,9.664c-6.309,6.309-9.396,14.228-9.396,23.221l0,0l0,0
		c0,9.664,3.624,17.718,10.47,24.027c6.309,5.638,13.154,8.322,21.342,8.322c5.638,0,11.409-1.477,16.51-4.564
		c0.268-0.268,0.671-0.268,0.805-0.671v7.248c0,5.369-1.879,9.664-4.832,12.886c-3.356,3.356-7.248,5.101-12.081,5.101
		s-8.725-1.477-12.081-4.832l-10.201,10.872l0.268,0.268c6.309,5.638,13.557,8.322,21.342,8.322c5.638,0,11.409-1.477,16.51-4.564
		c5.101-2.953,8.993-6.846,12.081-12.081c3.087-5.235,4.161-10.47,4.161-16.242v-32.215c0-0.671,0-1.208,0-2.148l0,0
		C486.964,180.081,486.964,179.275,486.696,178.604L486.696,178.604z M471.394,180.752L471.394,180.752
		c0,5.369-1.477,9.664-4.832,12.886c-3.356,3.356-7.248,5.101-12.081,5.101c-4.832,0-8.725-1.879-12.081-5.101
		c-3.356-3.356-4.832-7.517-4.832-12.886l0,0l0,0c0-5.369,1.477-9.664,4.832-13.154c3.356-3.356,7.248-5.101,12.081-5.101
		c4.832,0,8.993,1.879,12.081,5.101C469.515,171.087,471.394,175.383,471.394,180.752L471.394,180.752z"/>
</g>
</svg>
