<?xml version="1.0" encoding="utf-8"?>
<!-- Generator: Adobe Illustrator 19.0.0, SVG Export Plug-In . SVG Version: 6.00 Build 0)  -->
<svg version="1.1" id="Layer_1" xmlns="http://www.w3.org/2000/svg" xmlns:xlink="http://www.w3.org/1999/xlink" x="0px" y="0px"
	 viewBox="0 0 640 360" enable-background="new 0 0 640 360" xml:space="preserve">
<linearGradient id="XMLID_51_" gradientUnits="userSpaceOnUse" x1="320" y1="-118" x2="320" y2="362" gradientTransform="matrix(1 0 0 -1 0 362)">
	<stop  offset="0" style="stop-color:#30496C"/>
	<stop  offset="1" style="stop-color:#253853"/>
</linearGradient>
<rect id="XMLID_1_" fill="url(#XMLID_51_)" width="640" height="360"/>
<g>
	<path fill="#C9D900" d="M383.337,205.325c8.047,0,20.118-0.187,26.762,2.059c5.989,1.965,9.544,5.146,10.293,11.79
		c2.059,23.019-24.61,18.995-41.172,18.808c-9.544,0-24.048,2.246-33.593,3.93c-4.679,0.655-9.544,1.497-14.129,2.807
		c-2.246,0.561-4.398,0.936-6.644,1.684c-3.743,0.842-5.802,1.497-9.451,1.123c-0.561-0.842-0.842-1.684-1.31-2.246
		c-1.684-2.433-2.62-3.556-3.556-6.644c-0.936-3.462-1.31-8.609-0.281-12.164c0.655-2.433,3.088-7.299,5.053-8.796
		c8.609-6.55,19.65-8.889,30.692-10.387c8.796-1.31,17.779-1.965,26.762-1.965L383.337,205.325L383.337,205.325z M396.157,104.547
		c6.176-0.561,13.194,0.281,18.621,2.059c3.181,0.936,4.024,2.059,4.398,5.989c0.281,3.181,0.561,6.644,0.281,9.919
		c-0.187,2.246-0.561,7.486-1.965,8.609c-0.842,0.842-5.989,2.433-7.673,2.807c-9.451,2.62-28.353,3.743-36.961-0.187
		c-2.62-1.31-3.181-3.462-3.93-6.55c-0.281-1.123-0.936-3.088-0.936-4.211c-0.187-1.684-0.281-3.462-0.187-5.053
		c0.281-6.363,4.585-7.767,10.667-10.293C383.992,105.67,389.794,104.921,396.157,104.547z M363.406,111.378
		c0.281,2.62,2.807,4.585,3.93,11.509c1.684,11.229-0.281,21.428-8.889,28.727c-4.585,3.743-8.796,6.924-15.252,7.767
		c-5.802,0.655-8.328-0.842-12.539-2.901c-0.842-0.281-1.965-0.561-2.433-1.497c-0.281-0.936-0.842-1.684-1.497-2.246l-2.901-2.901
		c-0.281-0.281-0.655-0.655-0.936-0.936l-1.684-2.059c-1.31-1.684-3.93-5.708-3.743-7.767l-0.281-0.187
		c-0.561,1.684-2.901,8.047-3.743,9.544c-0.842,1.684-1.497,2.807-1.965,4.679c-0.187,0.936-0.281,5.802-0.561,5.989
		c-0.561,0,0.187,0-0.655-0.842l-0.561-0.281l-0.187,0.655c0,0.187-0.187,0.561-0.187,0.655l-1.497,8.422
		c-0.281,2.62-0.187,3.462-1.497,3.556c-0.655,0-0.561,0.187-0.655-0.281c-0.281,2.059-1.31,4.211-1.778,6.363
		c-0.655,2.62-0.561,4.585-0.842,7.112c-0.281,3.93-2.059,5.989-2.807,12.913c-0.561,0.187-0.936,0.281-1.497,0
		c0.281-0.561,0.655-0.561,0.936-0.936c-1.31,0.281-0.936,1.31-1.31,2.807c-0.842,3.743-4.024,21.896-4.585,22.551
		c-1.497,0.187-1.123-0.187-1.497-0.281c0,0,0-0.281,0,0.281c-0.187,1.497-0.561,1.965-0.842,3.462
		c-1.965,6.831-2.62,10.667-3.181,18.06l-0.936-0.936c0,0,0,0-0.281-0.187v0.187l-0.281,4.398c0,1.123-0.187,3.93-0.281,4.679
		c-0.281,0.561-0.281-0.561-1.31-0.842l-1.123,5.427c-0.842,2.807-2.62,8.047-3.088,10.012c-0.187,0.842,0,2.059-0.281,3.088
		c-0.281,1.497-0.561,1.123-0.561,2.807c-0.655,0.187-0.561,0.187-0.842,0.936c-0.936,3.181-0.842,7.486-0.561,10.854
		c3.181,1.684,17.03,5.708,21.147,5.708c2.059,0,0.655,0.187,2.059,0.655l9.451,2.433c1.497,0.281,3.181,0.281,4.866,0.655
		c13.474,2.62,27.885,4.398,41.733,5.521c23.019,1.965,44.073,1.684,67.185-0.842c6.924-0.842,13.755-1.965,20.586-2.901
		l0.561-0.281c0-3.93,0.936-7.112,1.965-10.667c0.842-3.462,1.497-7.767,1.31-11.509c-0.561-8.047-1.684-15.44-2.807-23.019
		c-2.246-14.878-4.398-29.85-6.55-44.915c-1.123-7.299-2.62-14.597-3.743-21.896c-1.31-7.486-2.433-14.878-3.462-22.551
		c-0.842-7.673-3.462-27.791,0-34.996c0.842-1.497,1.778-2.433,3.556-2.807c2.059-0.561,4.211-0.187,6.176-0.561v-1.123
		c0-3.556-4.024-11.697-5.427-14.785c-2.246-4.866-4.398-8.796-7.299-12.632c-2.059-2.901-6.644-8.422-9.264-10.667
		c-0.655-0.561-0.936-0.842-1.497-1.31c-2.62-1.965-6.924-5.989-10.012-7.299c-0.655,2.901-1.684,5.708-2.433,8.422
		c-0.655,2.246-1.965,5.989-2.901,7.767c-0.936,1.684-1.31,1.31-3.93,0.842c-5.053-0.655-9.544-0.842-14.317,0.842
		c-5.802,2.059-9.077,5.521-12.164,9.264c-2.246,2.807-3.556,5.802-4.211,6.644C367.711,109.787,363.406,108.851,363.406,111.378z"
		/>
	<path fill="#D9E648" d="M233.059,166.679c-0.842,0.561-6.55,2.807-7.486,2.901c-3.088,0.281-6.363-0.187-9.077-1.123
		c-1.123-0.561-2.433-1.123-3.462-1.778c-3.556-2.62-4.585-5.802-6.363-9.264c-0.561-0.842-0.655-0.842-0.842-1.965
		c-0.281-7.673,0.281-13.942,9.077-14.41c4.211-0.281,3.556,0,3.743,1.31c0.842,5.708-0.842,3.743-5.053,4.866
		c-1.123,3.93-1.31,8.609,0.655,11.79c2.059,3.181,6.176,5.708,9.077,4.024c0.281-2.059-0.842-2.901-1.965-4.211
		c-0.281-0.281-0.561-0.842-0.936-1.123c-1.123,0.561-1.965,1.684-2.901,0.561c-0.561-0.561-1.684-2.059-1.778-2.62
		c0.281-0.655,1.123-1.684,1.684-1.965l5.427-5.053l4.024,2.807c0,1.497-1.778,3.462-1.123,4.585
		c0.561,0.561,0.936,1.31,1.497,1.778c0.281,0.655,0.842,0.936,1.123,1.684C230.346,161.813,232.592,164.153,233.059,166.679z
		 M254.862,131.964c2.62,1.497,5.708,8.796,7.299,10.387c0.842,0.842,2.059,2.246,2.246,3.556l-4.679,2.807
		c0-0.187-0.187-0.187-0.187-0.281l-0.842-1.965c-0.281-0.842-0.655-1.684-1.123-2.246v5.802l-5.521-2.62l0.655,4.866
		c-0.842,0.187-1.684,0.561-2.433,0.655c-1.31,0.561-0.936,0.281-1.497,1.497c-0.655,1.684-2.246,1.684-4.398,1.497
		c-2.433-0.281-2.807,0.281-4.211,1.684c-1.31,0.936-9.077,3.181-9.732-5.989c-0.187-1.778,0.561-3.556,1.684-4.211
		c0.655-0.281,1.497-0.281,2.433-0.561c0.936-0.187,1.31-0.561,2.059-0.842c-0.281-1.31-1.684-2.807-3.462-2.433
		c-1.497,0.281-2.901,1.31-4.211,1.684c-0.655-4.398,0.281-4.024,4.211-4.866c2.901-0.561,5.708-0.187,7.112,1.778
		c3.743,4.585-0.842,11.79,7.954,10.012c0.187-0.936-0.936-5.802-1.31-7.112c-0.281-2.433-0.936-5.053-1.31-7.299
		c2.433,0.936,5.708,5.521,8.328,5.989L254.862,131.964z M263.096,140.479c0-4.585-0.281-9.451,3.93-10.387
		c4.024-0.936,7.767,0.936,9.264,4.679c-0.561,0.561-1.123,0.842-1.778,1.31l-4.866,3.556c0,0-0.187,0-0.187,0.187
		c1.123,4.024,4.211,3.181,6.55,0.936c0.281-0.561,1.31-1.684,1.778-1.684l0.655,3.93c-0.561,0.561-1.31,0.936-1.778,1.31
		c-2.059,1.31-4.211,2.807-6.644,1.497C267.214,144.502,264.781,141.227,263.096,140.479z M195.63,129.25
		c3.743,0,5.427,0.655,8.328-1.31c1.684-1.123,3.93-4.398,2.62-6.176c-1.778-2.246-4.398-1.31-7.486-0.936
		c-4.398,0.561-5.989-0.842-8.796-2.807c-1.31-0.936-2.059-3.088-2.62-4.585c-1.123-3.088-0.187-5.147,1.497-6.831
		c3.181-3.556,5.427-6.644,12.819-5.427c0,1.684-0.281,2.807-0.842,4.211c-0.842,2.059-0.561,1.31-2.807,2.059
		c-7.112,2.433-6.363,7.112,1.965,7.673c3.181,0.187,5.146,0.842,8.047,1.31c0.842,0.187,0.936,0.842,1.31,1.123
		c2.62,4.024,4.024,7.954,0.281,11.79c-0.655,0.655-0.936,1.497-2.246,2.433c-3.556,2.807-7.299,2.807-11.416,2.059L195.63,129.25z
		 M225.667,104.921c-0.281-3.556,0.936-4.866,4.211-5.427c1.497-0.187,3.088,0,4.585,0.187c2.059,0.281,1.778,0.281,2.62,1.965
		c1.123,2.246,1.497,4.585,2.246,7.112c0.281,1.123,0.842,2.246,1.778,2.901c1.123,0.842,2.62,0.281,4.024,0.187v3.462
		c-1.497,0.561-5.053,0-6.831,0c-0.281,1.965-3.181,2.901-5.521,2.807c-5.147-0.281-7.673-6.363-5.427-9.919
		c1.31-2.059,3.462-1.31,5.708-2.62c-0.187-1.497-1.497-2.62-3.181-2.433C228.194,103.424,227.071,104.453,225.667,104.921z
		 M209.573,100.43c0.655-0.842,1.31-1.497,2.901-1.684l3.93,7.486c1.123-0.561,2.807-2.246,3.556-2.62
		c0.936,1.31,1.778,4.585,0.655,5.802c-2.246,2.62-2.059,2.901-1.123,4.866c0.842,1.684,1.497,3.181,2.433,5.053
		c0.655,1.684,1.684,3.462,2.246,5.053c-0.561,0.561-2.433,1.778-3.556,1.965l-5.427-12.352c-2.433,0.281-3.088,2.246-5.708,2.807
		c-0.187-0.842-0.281-1.497-0.561-2.246c-0.187-1.31-0.281-1.123,0.561-1.965c0.936-0.842,1.778-1.965,2.807-2.62
		c-0.187-1.31-1.965-5.147-2.62-6.55C209.105,101.833,208.637,101.646,209.573,100.43z M245.13,97.342
		c0.655-1.684,2.433-3.743,4.211-4.211c0.281,0.281,0.936,0.936,1.123,1.31c0.187,0.187,0.842,1.684,0.842,1.684
		c-0.936,1.684-1.965,1.965-3.088,3.181c-4.024,4.398,2.246,6.831,3.088,12.539c-0.281,0.281-0.187,0.187-0.561,0.281
		c-0.655,0.561-2.059,1.684-2.901,1.123c-1.31-0.655-6.924-11.042-7.673-13.755C242.323,96.5,242.791,97.342,245.13,97.342z
		 M251.306,86.207c0.655-0.936,3.088-3.088,4.211-3.556c0.561,1.123,3.743,7.673,4.211,8.328c1.123-0.655,1.965-1.778,3.462-1.965
		c0.187,0.281,0.655,2.433,0.655,2.901c0,1.123-0.655,2.059-1.123,2.62c-1.965,2.246-1.778,1.778-0.281,4.866
		c0.936,1.684,1.778,3.462,2.62,5.147c0.655,1.684,1.778,3.556,2.433,5.053c-0.561,0.561-2.901,1.497-3.556,1.497
		c-1.123-2.807-4.585-10.667-6.176-12.352c-1.31,0.187-3.088,2.62-4.866,2.62c-0.561-1.31-1.123-2.807-0.561-4.024
		c0.655-1.31,1.778-1.778,2.433-2.901L251.306,86.207z M256.265,180.715c0.561-0.281,0.842-0.561,1.31-0.655
		c0.561-0.281,0.842-0.655,1.497-0.561c0-2.246,5.708-3.181,7.954-3.93l8.609-2.901c3.462-1.31,8.422-3.743,11.509-5.708
		c1.123-0.655,2.807-1.778,3.743-2.246c1.965-4.024,3.556-11.509,4.679-16.562c1.31-5.427,2.807-11.697,4.585-16.562
		c1.965-5.427,4.211-10.012,6.176-15.159c1.497-3.556,6.831-12.913,6.831-14.597c-1.123-3.181-3.556-6.176-5.147-8.609l-5.802-7.954
		c-0.561-0.561-1.965-1.31-3.743-3.088c-5.053-5.147-4.398-4.866-10.854-9.732c-4.866-3.93-10.854-6.924-18.34-9.077
		c-3.556-0.936-7.486-2.059-11.229-2.62c-13.662-1.778-23.393-0.281-36.681,3.088c-8.422,2.059-12.539,3.93-20.118,7.486
		c-4.585,2.059-9.077,5.989-13.194,7.486c-1.684,0.655-2.246,2.246-3.556,3.088l-3.93,3.088c-3.462,2.807-7.299,7.112-9.732,10.667
		c-3.462,5.053-6.831,11.79-9.077,18.527c-4.398,13.194-2.62,15.72-2.901,17.217c-0.281,0.936-0.655,1.684-0.842,2.807
		c-0.561,2.901-0.281,6.831-0.187,9.732l0.281,5.053c0,2.433,0.655,0.561,0.655,2.807c-0.187,6.176,2.807,14.878,5.802,19.744
		c0.936,1.497,0.842,0.936,1.684,1.778c0.561,0.655,0.842,1.684,1.123,2.246c1.965,2.901,2.807,3.181,4.866,5.521
		c1.123,1.123,4.398,3.556,5.802,4.398c3.181,1.778,2.433,0.561,4.585,2.246c1.123,0.936,2.901,1.684,4.679,2.059
		c14.317,4.398,33.873,1.497,47.816-3.088c3.181-0.936,11.977-4.024,14.878-5.521c0.655-0.281,1.684-1.123,2.246-1.31
		C256.265,178.937,255.049,180.06,256.265,180.715z"/>
	<path id="XMLID_37_" fill="#EAF198" d="M313.064,102.02c0,1.684-5.427,11.042-6.831,14.597c-1.965,5.053-4.211,9.732-6.176,15.159
		c-1.778,4.866-3.181,11.229-4.585,16.562c-1.123,5.053-2.807,12.539-4.679,16.562c-0.561,2.807-9.544,38.458-9.732,38.739
		c0,0.655-2.433,8.422-2.807,9.077l-6.176,25.171c-0.281,1.497-1.965,7.954-2.433,10.012c-0.842,3.462-1.778,6.644-2.433,10.012
		c-1.497,5.989-1.778,8.889-3.93,14.878c-0.561,1.497-1.31,3.088-1.684,4.398l17.405,6.363c-0.281-3.462-0.561-7.673,0.561-10.854
		c0.281-0.842,0.187-0.842,0.842-0.936c0-1.684,0.187-1.31,0.561-2.807c0.281-0.936,0.187-2.246,0.281-3.088
		c0.561-1.965,2.246-7.299,3.088-10.012l1.123-5.427c0.936,0.281,0.936,1.31,1.31,0.842c0.187-0.842,0.281-3.556,0.281-4.679
		l0.281-4.398v-0.187c0.281,0.187,0.281,0.187,0.281,0.187l0.936,0.936c0.655-7.299,1.31-11.229,3.181-18.06
		c0.281-1.497,0.655-1.965,0.842-3.462c0-0.655,0-0.281,0-0.281c0.281,0.187,0,0.561,1.497,0.281
		c0.561-0.655,3.743-18.808,4.585-22.551c0.281-1.497,0-2.433,1.31-2.807c-0.281,0.561-0.655,0.561-0.936,0.936
		c0.561,0.281,0.936,0.187,1.497,0c0.655-6.924,2.433-9.077,2.807-12.913c0.281-2.62,0.187-4.585,0.842-7.112
		c0.561-2.059,1.497-4.211,1.778-6.363c0.187,0.561,0,0.281,0.655,0.281c1.31-0.187,1.123-0.936,1.497-3.556l1.497-8.422
		c0-0.187,0.187-0.561,0.187-0.655l0.187-0.655l0.561,0.281c0.842,0.842,0.187,0.842,0.655,0.842
		c0.187-0.187,0.281-5.053,0.561-5.989c0.561-1.965,1.123-3.088,1.965-4.679c0.842-1.497,3.181-7.954,3.743-9.544l0.281,0.187
		c0-0.655-0.281-2.901-0.561-3.743c-0.281-1.31-0.561-2.433-0.655-3.743c-0.842-6.644,2.433-14.878,5.989-19.744
		c2.807-3.556,4.211-5.708,8.889-8.328c4.398-2.246,8.889-2.901,14.41-2.059c-0.936-1.965-4.398-1.123-6.644-1.31
		c2.246-2.059,7.112-5.989,9.919-8.328c0.936-0.655,1.684-1.31,2.433-1.965c2.901-2.433,1.684-1.31,4.024-2.901
		c0.281-0.281,0.655-0.655,1.123-0.936c1.31-1.123,2.059-0.281,3.743-0.561l-1.965-1.31c-1.497-0.842,0-1.123,0.842-1.497
		c0.655-0.187,1.123-0.561,1.778-0.655c1.123-0.561,2.62-0.281,3.93-0.842c1.497-0.655,3.93-2.901,5.802-3.556
		c1.31-0.561,3.556-3.93,4.398-5.053c0.842-1.123,1.123-1.965,0.842-3.556c-0.187-0.842-0.561-3.088-0.936-3.743l-6.644-0.842
		c-11.977,0-26.107,7.486-35.183,14.13c-1.31,0.936-1.31,0.655-2.246,1.965l-2.059,2.246c-1.31,1.497-2.901,3.088-4.585,4.024
		c-0.936,0.655-1.123,0.281-1.684,1.31C321.673,89.575,313.438,101.833,313.064,102.02z"/>
	<path id="XMLID_36_" fill="#AAB802" d="M446.125,294.687c4.866-0.842,9.544-1.778,14.13-3.088c2.246-0.842,4.398-1.497,6.55-2.246
		c2.059-0.936,3.743-1.965,5.708-2.901c-0.842-5.053-1.497-10.012-2.246-15.159l-1.965-13.194c0-0.281-0.281-1.123-0.187-1.497
		c-0.281-2.807-0.936-5.802-1.497-8.796c-1.497-8.889-2.62-17.217-3.93-26.107c-1.497-10.293-3.088-26.013-5.146-35.183
		c-0.655-2.901-0.842-5.802-1.123-8.889l-1.31-8.796c-1.123-5.802-1.965-11.509-3.088-17.217c-0.936-6.176-5.146-29.195-8.796-31.44
		v1.123c-1.965,0.281-4.024,0-6.176,0.561c-1.778,0.281-2.807,1.31-3.556,2.807c-3.462,7.299-0.842,27.417,0,34.996
		c0.936,7.673,2.059,15.159,3.462,22.551c1.123,7.299,2.62,14.597,3.743,21.896c2.059,15.159,4.211,30.037,6.55,44.915
		c1.123,7.673,2.246,14.878,2.807,23.019c0.187,3.743-0.561,8.047-1.31,11.509c-0.936,3.556-1.965,6.831-1.965,10.667
		L446.125,294.687z"/>
	<path fill="#FF9898" d="M327.662,222.449c-0.655,3.181-6.55,12.352-8.328,13.194l-0.936-1.778
		c-0.842-1.497-2.901-4.024-3.088-5.146L327.662,222.449z M411.129,218.986c-0.655,2.433-1.31,1.684-2.62,2.807
		c-1.965,1.684-2.901,3.93-5.147,5.708c-0.561,0.281-2.807,1.965-3.181,1.778c-1.965,0-9.544-7.112-10.387-11.042L411.129,218.986z
		 M372.577,205.325c-8.889,0-18.06,0.655-26.762,1.965c-11.042,1.497-22.083,3.93-30.692,10.387
		c-1.965,1.497-4.398,6.363-5.053,8.796c-0.936,3.556-0.655,8.796,0.281,12.164c0.936,3.088,1.965,4.211,3.556,6.644
		c0.561,0.655,0.842,1.497,1.31,2.246c3.556,0.281,5.708-0.281,9.451-1.123c2.246-0.655,4.398-1.123,6.644-1.684
		c4.585-1.31,9.451-2.059,14.13-2.807c9.544-1.684,24.048-3.93,33.593-3.93c16.562,0.187,43.324,4.211,41.172-18.808
		c-0.655-6.644-4.211-9.919-10.293-11.79c-6.644-2.246-18.621-2.059-26.762-2.059L372.577,205.325L372.577,205.325z"/>
	<path fill="#FEFDFD" d="M342.165,120.641c5.147-0.655,10.012,2.807,9.451,8.047c-0.561,3.181-3.556,8.889-8.328,9.544
		C330.937,140.011,330.282,122.232,342.165,120.641z M317.462,138.982c-0.187,2.059,2.433,6.176,3.743,7.767l1.684,2.059
		c0.281,0.281,0.655,0.655,0.936,0.936l2.901,2.901c0.655,0.655,1.123,1.31,1.497,2.246c0.561,0.936,1.684,1.123,2.433,1.497
		c4.211,2.059,6.644,3.556,12.539,2.901c6.55-0.842,10.667-4.024,15.252-7.767c8.609-7.299,10.574-17.498,8.889-28.727
		c-1.123-6.924-3.556-8.889-3.93-11.509c-0.561-0.561-1.123-0.842-1.778-1.497c-0.561-0.655-0.842-1.123-1.31-1.684
		c-2.246-2.807-1.684-1.684-3.462-2.807c-4.679-3.556-4.866-2.246-8.047-4.024l-3.088-0.187c-5.521-0.842-10.012-0.187-14.41,2.059
		c-4.679,2.62-6.176,4.679-8.889,8.328c-3.556,4.866-6.831,13.194-5.989,19.744c0.187,1.31,0.281,2.433,0.655,3.743
		C317.181,136.081,317.462,138.327,317.462,138.982z"/>
	<path fill="#FEFDFD" d="M395.689,110.161c5.427-0.842,8.328,4.398,7.299,9.732c-0.561,2.433-1.778,4.585-3.088,5.708
		c-1.31,1.123-3.743,2.62-6.176,2.62c-5.146,0.187-8.422-4.585-7.767-9.919C386.425,113.53,391.665,110.91,395.689,110.161z
		 M396.157,104.547c-6.363,0.281-12.164,1.123-17.498,3.181c-6.176,2.433-10.387,3.93-10.667,10.293
		c-0.187,1.684,0,3.462,0.187,5.053c0,1.123,0.655,3.088,0.936,4.211c0.655,3.088,1.31,5.146,3.93,6.55
		c8.609,3.93,27.51,2.807,36.961,0.187c1.684-0.281,6.831-1.965,7.673-2.807c1.497-1.123,1.778-6.363,1.965-8.609
		c0.187-3.181,0-6.644-0.281-9.919c-0.281-3.93-1.123-5.053-4.398-5.989C409.257,104.921,402.333,104.173,396.157,104.547z"/>
	<path id="XMLID_28_" fill="#D9E648" d="M348.809,101.552c3.181,1.778,3.462,0.561,8.047,4.024c1.778,1.123,1.123,0,3.462,2.807
		c0.561,0.561,0.842,0.936,1.31,1.684c0.655,0.655,1.31,0.936,1.778,1.497c0-2.62,4.398-1.684,6.55-4.024
		c0.655-0.842,1.965-3.93,4.211-6.644c3.088-3.743,6.363-7.112,12.164-9.264c4.679-1.684,9.264-1.497,14.317-0.842
		c2.62,0.561,2.901,0.842,3.93-0.842c0.936-1.778,2.246-5.521,2.901-7.767c0.842-2.807,1.778-5.521,2.433-8.422
		c-1.778-1.497-6.644-3.556-9.451-4.679c-3.181-1.497-6.924-2.807-10.667-3.556c0,3.088,0,6.176-0.936,8.796
		c-2.059,5.146-8.328,9.264-13.662,10.667c-1.31,0.281-2.807,0.842-3.743,1.497c0.187,0,0.187,0,0.187,0l0.842,0.561
		c-0.561,0.281-1.497,0.281-1.778,0.561c-6.176,1.497-10.012,5.989-12.164,6.924c-2.807,1.123-5.521,2.059-7.673,4.585
		C350.4,99.12,348.996,100.804,348.809,101.552z"/>
	<path id="XMLID_27_" fill="#330D11" d="M261.786,277.189c0.281-1.31,1.123-2.901,1.684-4.398c2.059-5.989,2.433-8.889,3.93-14.878
		c0.655-3.462,1.684-6.644,2.433-10.012c0.561-2.059,2.059-8.609,2.433-10.012c-1.31,0.561-2.433,1.123-3.93,1.778
		c-4.398,1.497-8.328,2.059-12.539,4.024c-4.024,2.059-10.387,5.708-11.977,10.293c-0.281,1.123-3.088,2.901-0.187,8.328
		c0.842,1.31,1.497,2.246,2.246,3.462c0.842,1.123,1.778,1.497,3.088,2.433l9.919,6.831c0.655,0.281,0.936,0.561,1.778,0.936
		C261.786,276.347,260.663,276.721,261.786,277.189z"/>
	<path id="XMLID_26_" fill="#D1D874" d="M368.272,64.498l6.644,0.842c0.561,0.655,0.842,2.901,0.936,3.743
		c0.281,1.684,0,2.433-0.842,3.556c-0.842,1.123-3.088,4.585-4.398,5.053c-1.965,0.655-4.398,2.901-5.802,3.556
		c-1.31,0.561-2.807,0.281-3.93,0.842c-0.655,0.187-1.123,0.561-1.778,0.655c-0.842,0.281-2.246,0.655-0.842,1.497l1.965,1.31
		c-1.684,0.187-2.433-0.655-3.743,0.561c-0.561,0.281-0.842,0.655-1.123,0.936c-2.433,1.684-1.123,0.561-4.024,2.901
		c-0.842,0.655-1.497,1.31-2.433,1.965c-2.807,2.246-7.673,6.176-9.919,8.328c2.246,0.187,5.708-0.655,6.644,1.31l3.088,0.187
		c0.187-0.655,1.684-2.433,1.965-2.807c2.059-2.433,4.866-3.462,7.673-4.585c2.059-0.936,5.989-5.521,12.164-6.924
		c0.281-0.187,1.31-0.187,1.778-0.561l-0.842-0.561c0,0,0,0-0.187,0c0.936-0.655,2.433-1.123,3.743-1.497
		c5.427-1.497,11.509-5.521,13.662-10.667c0.936-2.62,0.936-5.708,0.936-8.796C386.612,64.03,370.705,62.439,368.272,64.498z"/>
	<path id="XMLID_25_" fill="#A80301" d="M233.059,166.679c-0.561-2.62-2.807-4.866-4.679-7.299
		c-0.281-0.655-0.842-0.936-1.123-1.684c-0.561-0.561-0.936-1.31-1.497-1.778c-0.655-1.123,1.123-3.088,1.123-4.585l-4.024-2.807
		l-5.427,5.053c-0.561,0.281-1.31,1.31-1.684,1.965c0.187,0.561,1.31,2.059,1.778,2.62c0.936,1.123,1.778,0,2.901-0.561
		c0.561,0.281,0.655,0.842,0.936,1.123c1.123,1.31,2.246,2.059,1.965,4.211c-2.901,1.684-6.924-0.842-9.077-4.024
		c-1.965-3.181-1.778-7.954-0.655-11.79c4.211-1.123,5.802,0.842,5.053-4.866c-0.187-1.31,0.561-1.684-3.743-1.31
		c-8.796,0.561-9.451,6.831-9.077,14.41c0.187,1.123,0.281,1.123,0.842,1.965c1.778,3.462,2.807,6.644,6.363,9.264
		c0.936,0.655,2.246,1.31,3.462,1.778c2.807,0.936,5.989,1.497,9.077,1.123C226.603,169.486,232.311,167.241,233.059,166.679z"/>
	<path fill="#A80301" d="M238.206,148.713l0.655,4.211c-1.778,0.655-3.93,0.936-4.211-1.31c-0.281-2.246,0-2.246,0.842-2.433
		C235.96,149.087,237.457,148.713,238.206,148.713z M254.02,143.754c-2.62-0.561-5.802-5.053-8.328-5.989
		c0.281,2.246,0.936,4.866,1.31,7.299c0.281,1.31,1.497,6.176,1.31,7.112c-8.796,1.778-4.211-5.521-7.954-10.012
		c-1.497-1.965-4.211-2.246-7.112-1.778c-3.93,0.842-4.866,0.561-4.211,4.866c1.31-0.281,2.807-1.31,4.211-1.684
		c1.778-0.281,3.088,1.123,3.462,2.433c-0.842,0.281-1.123,0.655-2.059,0.842c-0.936,0.187-1.778,0.187-2.433,0.561
		c-1.123,0.655-1.778,2.433-1.684,4.211c0.655,9.264,8.422,6.924,9.732,5.989c1.497-1.31,1.778-1.965,4.211-1.684
		c2.059,0.187,3.743,0.187,4.398-1.497c0.561-1.123,0.187-0.936,1.497-1.497c0.842-0.187,1.684-0.561,2.433-0.655l-0.655-4.866
		l5.521,2.62v-5.802c0.561,0.655,0.842,1.497,1.123,2.246l0.842,1.965c0,0.187,0.187,0.187,0.187,0.281l4.679-2.807
		c-0.187-1.31-1.497-2.807-2.246-3.556c-1.684-1.684-4.679-8.889-7.299-10.387L254.02,143.754z"/>
	<path id="XMLID_22_" fill="#A80301" d="M195.63,129.25l0.842,4.866c4.024,0.655,7.767,0.655,11.416-2.059
		c1.31-0.936,1.684-1.778,2.246-2.433c3.743-3.93,2.246-7.767-0.281-11.79c-0.281-0.281-0.561-0.936-1.31-1.123
		c-2.901-0.561-4.866-1.123-8.047-1.31c-8.328-0.561-9.077-5.147-1.965-7.673c2.246-0.842,1.965,0,2.807-2.059
		c0.561-1.497,0.842-2.62,0.842-4.211c-7.486-1.31-9.544,1.778-12.819,5.427c-1.684,1.684-2.62,3.743-1.497,6.831
		c0.561,1.497,1.31,3.556,2.62,4.585c2.807,1.965,4.398,3.181,8.796,2.807c3.088-0.281,5.708-1.31,7.486,0.936
		c1.31,1.778-0.936,5.053-2.62,6.176C200.964,129.905,199.373,129.25,195.63,129.25z"/>
	<path id="XMLID_21_" fill="#330D11" d="M472.419,286.452c0.842-0.842,4.866-3.088,7.299-6.176c1.965-2.433,3.462-6.55,2.059-10.387
		c-0.842-2.059-1.123-3.088-2.433-4.398c-4.866-4.866-7.673-5.802-10.387-8.047c-0.561-0.561-0.561-0.281-0.936-0.655
		c-0.187,0.281,0.187,1.123,0.187,1.497l1.965,13.194C471.015,276.347,471.577,281.493,472.419,286.452z"/>
	<path id="XMLID_20_" fill="#C9D900" d="M256.265,180.715c-0.842,6.644,17.03,30.13,22.083,32.002
		c0.281-0.655,2.807-8.422,2.807-9.077c-0.561-0.281-0.281-0.561-0.842-0.842l-2.433-1.778c-1.123-0.842-2.246-1.684-3.462-2.433
		c-1.497-0.936-1.778-1.31-3.088-2.62c-0.936-1.123-2.059-1.778-2.901-2.901c-1.965-1.965-1.31-1.497-2.62-3.181
		c-0.281-0.655-0.842-0.936-1.31-1.497c-3.462-4.024-4.024-6.831-5.521-8.796c-0.655-0.187-0.936,0.187-1.497,0.561
		C257.108,180.154,256.827,180.341,256.265,180.715z"/>
	<path fill="#010102" d="M339.545,129.25c-0.281-1.497-0.842-3.556,0-4.866c0.842-1.123,3.462-1.497,4.398-0.561
		C345.253,125.133,346.002,129.905,339.545,129.25z M342.165,120.641c-11.79,1.684-11.229,19.276,1.123,17.685
		c4.679-0.655,7.767-6.363,8.328-9.544C352.178,123.449,347.312,119.986,342.165,120.641z"/>
	<path fill="#010102" d="M393.069,113.062c5.053-1.497,4.866,4.866,1.684,5.989c-1.965,0.655-3.556-0.655-3.93-2.059
		C390.262,114.653,391.478,113.53,393.069,113.062z M395.689,110.161c-4.024,0.842-9.264,3.462-9.732,8.047
		c-0.655,5.427,2.62,10.012,7.767,9.919c2.433,0,4.866-1.497,6.176-2.62c1.31-1.123,2.62-3.181,3.088-5.708
		C404.017,114.466,401.023,109.319,395.689,110.161z"/>
	<path fill="#A80301" d="M231.094,108.29c1.31,0,3.181-0.187,3.743,0.842c0.655,0.655,0.281,2.807-0.281,3.462
		c-0.655,0.655-2.807,0.842-3.181,0C230.72,111.378,231.001,109.413,231.094,108.29z M225.667,104.921
		c1.497-0.561,2.62-1.497,4.211-1.778c1.778-0.187,3.088,0.936,3.181,2.433c-2.246,1.31-4.398,0.561-5.708,2.62
		c-2.246,3.556,0.187,9.544,5.427,9.919c2.246,0.187,5.146-0.842,5.521-2.807c1.778,0,5.427,0.561,6.831,0v-3.462
		c-1.497,0.187-2.901,0.655-4.024-0.187c-0.936-0.655-1.497-1.778-1.778-2.901c-0.842-2.62-1.123-4.866-2.246-7.112
		c-0.842-1.684-0.561-1.684-2.62-1.965c-1.497-0.187-3.088-0.281-4.585-0.187C226.603,100.055,225.293,101.365,225.667,104.921z"/>
	<path id="XMLID_13_" fill="#A80301" d="M251.306,86.207l3.462,8.047c-0.655,1.123-1.778,1.684-2.433,2.901
		c-0.655,1.31,0,2.807,0.561,4.024c1.778,0,3.556-2.433,4.866-2.62c1.684,1.684,5.053,9.544,6.176,12.352
		c0.655,0,3.088-0.936,3.556-1.497c-0.655-1.497-1.778-3.462-2.433-5.053c-0.842-1.778-1.684-3.556-2.62-5.147
		c-1.497-3.088-1.684-2.62,0.281-4.866c0.561-0.561,1.123-1.497,1.123-2.62c0-0.561-0.561-2.62-0.655-2.901
		c-1.497,0.187-2.246,1.31-3.462,1.965c-0.561-0.655-3.743-7.112-4.211-8.328C254.3,83.212,251.961,85.271,251.306,86.207z"/>
	<path id="XMLID_12_" fill="#A80301" d="M212.38,109.974c-0.936,0.655-1.778,1.778-2.807,2.62c-0.842,0.842-0.655,0.655-0.561,1.965
		c0.187,0.842,0.281,1.497,0.561,2.246c2.62-0.561,3.181-2.433,5.708-2.807l5.427,12.352c1.123-0.187,3.088-1.497,3.556-1.965
		c-0.655-1.684-1.684-3.462-2.246-5.053c-0.936-1.778-1.684-3.462-2.433-5.053c-0.936-1.965-1.123-2.246,1.123-4.866
		c1.123-1.31,0.281-4.585-0.655-5.802c-0.842,0.281-2.433,2.059-3.556,2.62l-3.93-7.486c-1.684,0.187-2.246,0.842-2.901,1.684
		c-0.936,1.31-0.561,1.497,0.187,3.088C210.415,104.734,212.193,108.664,212.38,109.974z"/>
	<path fill="#A80301" d="M267.401,134.116c2.433-0.936,2.433-1.123,4.024,0.655c-0.187,0.281-0.936,1.31-1.31,1.684
		c-0.561,0.561-1.123,0.936-1.965,1.123C267.681,136.736,267.494,135.145,267.401,134.116z M263.096,140.479
		c1.684,0.842,4.024,4.024,6.831,5.427c2.433,1.31,4.585-0.187,6.644-1.497c0.561-0.281,1.31-0.842,1.778-1.31l-0.655-3.93
		c-0.561,0-1.497,1.123-1.778,1.684c-2.246,2.246-5.427,3.088-6.55-0.936c0-0.187,0.187-0.187,0.187-0.187l4.866-3.556
		c0.655-0.561,1.31-0.842,1.778-1.31c-1.497-3.743-5.147-5.708-9.264-4.679C262.816,131.028,263.096,135.987,263.096,140.479z"/>
	<path id="XMLID_9_" fill="#FEFDFD" d="M411.129,218.986l-21.428-0.842c0.842,3.93,8.422,11.042,10.387,11.042
		c0.561,0.187,2.807-1.497,3.181-1.778c2.246-1.778,3.181-4.024,5.146-5.708C409.818,220.577,410.38,221.419,411.129,218.986z"/>
	<path id="XMLID_8_" fill="#A80301" d="M245.13,97.342c-2.246,0-2.807-0.842-4.866,2.059c0.655,2.807,6.363,13.194,7.673,13.755
		c0.842,0.561,2.246-0.655,2.901-1.123c0.281-0.187,0.187,0,0.561-0.281c-0.842-5.708-7.112-8.047-3.088-12.539
		c1.123-1.31,2.059-1.684,3.088-3.181c0,0-0.655-1.497-0.842-1.684c-0.187-0.281-0.842-0.936-1.123-1.31
		C247.563,93.599,245.692,95.657,245.13,97.342z"/>
	<path id="XMLID_7_" fill="#FEFDFD" d="M315.31,228.531c0.187,1.123,2.246,3.743,3.088,5.147l0.936,1.778
		c1.778-0.842,7.673-9.919,8.328-13.194L315.31,228.531z"/>
	<path id="XMLID_6_" fill="#FEFDFD" d="M393.069,113.062c-1.684,0.561-2.807,1.684-2.246,3.93c0.281,1.497,1.965,2.807,3.93,2.059
		C397.935,117.928,398.028,111.565,393.069,113.062z"/>
	<path id="XMLID_5_" fill="#FEFDFD" d="M339.545,129.25c6.55,0.655,5.708-4.024,4.398-5.427c-0.936-0.936-3.556-0.655-4.398,0.561
		C338.703,125.694,339.265,127.753,339.545,129.25z"/>
	<path id="XMLID_4_" fill="#C9D900" d="M231.094,108.29c-0.187,1.123-0.561,3.088,0.187,4.211c0.561,0.842,2.62,0.655,3.181,0
		c0.655-0.655,0.936-2.807,0.281-3.462C234.463,108.196,232.498,108.29,231.094,108.29z"/>
	<path id="XMLID_3_" fill="#C9D900" d="M238.206,148.713c-0.655,0-2.059,0.281-2.807,0.561c-0.842,0.187-1.123,0.187-0.842,2.433
		c0.281,2.246,2.433,1.965,4.211,1.31L238.206,148.713z"/>
	<path id="XMLID_2_" fill="#C9D900" d="M267.401,134.116c0.187,0.936,0.281,2.62,0.842,3.462c0.842-0.187,1.497-0.655,1.965-1.123
		c0.281-0.281,1.123-1.31,1.31-1.684C269.74,132.993,269.74,133.18,267.401,134.116z"/>
</g>
</svg>
