<?xml version="1.0" encoding="utf-8"?>
<!-- Generator: Adobe Illustrator 19.0.0, SVG Export Plug-In . SVG Version: 6.00 Build 0)  -->
<svg version="1.1" id="Layer_1" xmlns="http://www.w3.org/2000/svg" xmlns:xlink="http://www.w3.org/1999/xlink" x="0px" y="0px"
	 viewBox="0 0 640 360" enable-background="new 0 0 640 360" xml:space="preserve">
<rect id="XMLID_1_" fill-rule="evenodd" clip-rule="evenodd" fill="#736C5E" width="640" height="360"/>
<g>
	<path id="XMLID_102_" fill-rule="evenodd" clip-rule="evenodd" fill="#631A14" d="M173.151,166.5
		c1.863,3.29,7.805,8.953,10.801,10.071c3.077,1.147,12.889-2.8,15.536-4.078c0.379-8.182-2.658-9.811-10.488-9.809
		C183.73,162.686,175.851,163.24,173.151,166.5L173.151,166.5z"/>
	<path id="XMLID_101_" fill-rule="evenodd" clip-rule="evenodd" fill="#631A14" d="M236.463,168.902
		c2.92-5.731,3.767-7.531,3.436-14.879c-3.269,0.05-11.975,1.544-14.542,2.784c-0.969,8.09-2.836,7.603-3.488,11.535
		L236.463,168.902L236.463,168.902z"/>
	<path id="XMLID_100_" fill-rule="evenodd" clip-rule="evenodd" fill="#6E655D" d="M85.895,254.609
		c1.508,1.557,0.404-0.028,0.728,1.237l14.519,53.561c2.991,10.218,4.205,17.465,8.842,26.639c1.968,3.895,4.343,7.165,7.229,10.241
		c2.944,3.138,6.905,4.693,11.914,5.705c-0.198-1.755-0.259-4.663-1.376-5.696l0.332,1.919c-16.81-4.241-20.474-29.77-24.309-42.517
		l-13.458-48.719c-0.241-1.706-0.061-1.74,0.483-2.723c0.064-0.118,0.56-0.644,0.699-0.736c-1.15,0.1-1.988,0.151-3.114,0.339
		c-0.363,0.06-0.96,0.184-1.312,0.282C85.906,254.464,86.504,254.244,85.895,254.609L85.895,254.609z"/>
	<path id="XMLID_99_" fill-rule="evenodd" clip-rule="evenodd" fill="#6E655D" d="M86.665,224.28l3.166-0.903l1.085-4.375
		c-1.049,0.154-0.601,1.438-0.699-1.061L90.343,210c0.021-9.863-1.057-19.739,4.324-27.847c7.531-11.348,15.841-9.701,31.491-11.93
		c-0.293,1.938-0.576,1.923-0.333,3.717c1.087-1.612,0.936-5.685,1.108-7.938c-8.974,4.469-23.436-3.034-35.203,14.216
		c-3.921,5.748-5.113,10.925-4.969,19.276C86.896,207.309,87.116,216.593,86.665,224.28L86.665,224.28z"/>
	<path id="XMLID_98_" fill-rule="evenodd" clip-rule="evenodd" fill="#8A846D" d="M313.144,189.146l3.358,1.058l2.807,0.248
		L319.276,0h-6.459c0,31.484-0.135,63.021,0.034,94.5c0.084,15.827-0.003,31.67-0.003,47.5
		C312.848,156.849,311.961,174.722,313.144,189.146L313.144,189.146z"/>
	<polygon id="XMLID_97_" fill-rule="evenodd" clip-rule="evenodd" fill="#8A846D" points="350.716,191.714 356.773,192.063 
		356.779,0 350.761,0 350.716,191.714 	"/>
	<path id="XMLID_96_" fill-rule="evenodd" clip-rule="evenodd" fill="#8A846D" d="M350.589,360h6.24v-98
		c0-5.224,0.807-29.532-0.59-32.551l-4.009-1.029c-1.941,0.304-1.032,0.101-1.643,0.58L350.589,360L350.589,360z"/>
	<path id="XMLID_95_" fill-rule="evenodd" clip-rule="evenodd" fill="#41382E" d="M316.503,190.204
		c1.616,0.804,3.087,0.57,5.148,0.681c1.945,0.105,3.94,0.281,5.847,0.43c-1.647-2.708-0.707-8.395-0.706-11.815L326.819,0h-7.543
		l0.034,190.452L316.503,190.204L316.503,190.204z"/>
	<path id="XMLID_94_" fill-rule="evenodd" clip-rule="evenodd" fill="#41382E" d="M318.206,310.371
		c-0.006,3.234,1.3,8.748,1.71,12.246c0.491,4.195,0.903,8.272,1.431,12.438c1.001,7.901,2.541,17.023,2.805,24.945h2.71
		c0.019-4.032-0.605-132.637,0.308-136.448c0.347-1.45-1.746,0.415,0.827-1.048l-8.937-2.137c0.638,4.091,0.199,37.975,0.197,45.132
		c-0.002,7.501,0.006,14.999,0.013,22.5l0.031,17C319.485,311.11,319.126,309.714,318.206,310.371L318.206,310.371z"/>
	<path id="XMLID_93_" fill-rule="evenodd" clip-rule="evenodd" fill="#41382E" d="M346.189,360h4.401l-0.001-131
		c0.611-0.479-0.298-0.276,1.643-0.58l-6.238-1.615c0.712,1.495,0.316,1.261,0.228,3.671c-0.048,1.313-0.03,2.703-0.032,4.023
		L346.189,360L346.189,360z"/>
	<path id="XMLID_92_" fill-rule="evenodd" clip-rule="evenodd" fill="#61574B" d="M368.581,194.027l1.605,0.028
		c1.058-26.956-6.436-54.737,14.052-67.282c6.905-4.228,15.441-3.136,24.263-3.136l164.52-0.008
		c8.402,0.018,15.534,3.869,18.879,8.477c4.215,5.806,7.316,10.308,7.634,19.883c0.69,20.805,0.172,46.806,0.047,68.513
		c-0.036,6.213,0.201,7.261-1.326,12.839l-17.274,64.635c-4.985,18.981-10.612,45.289-30.663,51.827
		c-5.475,1.785-19.905,0.786-26.818,0.831l-82.5,0.06c-8.363,0-18.605,1.189-25.337-2.36c-11.711-6.173-18.866-20.88-22.007-32.988
		c-3.775-14.551-8.181-28.705-11.738-43.292c-1.785-7.32-4.036-14.253-5.821-21.648l-6.004-21.903
		c0.824-0.616,0.152-0.682,1.848-0.486l1.166-0.055c-2.861-1.323-3.657-0.517-4.694,1.662c1.163,1.217,2.46,8.746,3.045,10.891
		l14.771,55.2c1.684,7.264,4.355,14.722,6.048,22.06c2.686,11.634,12.295,27.5,23.236,32.724c7.594,3.627,42.265,2.128,53.486,2.128
		c18.252,0,37.997-0.736,56-0.095c10.384,0.37,24.073,1.366,31.853-3.184c2.779-1.625,8.362-7.229,10.267-10.182
		c7.629-11.828,9.302-15.806,12.664-29.417c4.486-18.164,10.185-36.641,14.685-54.754c1.887-7.596,4.15-14.433,6.029-22.044
		c1.942-7.864,0.949-18.162,0.949-26.949c0-12.614,0.6-45.377-0.049-55.51c-0.94-14.657-11.533-28.282-26.948-28.683
		c-18.256-0.474-37.124-0.037-55.449-0.037c-37.167,0-74.333,0-111.5,0c-9.613,0-16.658-1.147-24.434,3.263
		c-5.025,2.85-10.218,9.541-12.441,15.539c-2.953,7.969-2.258,16.532-2.278,25.928C368.328,175.667,368.128,184.879,368.581,194.027
		L368.581,194.027z"/>
	<path id="XMLID_91_" fill-rule="evenodd" clip-rule="evenodd" fill="#61574B" d="M640,83.892v-3.611H409
		c-11.848,0-24.832,2.314-24.605-17.78l0.01-62.5h-3.705l-0.061,64.015c0.032,3.292,0.277,6.248,1.399,8.946
		c1.476,3.546,2.425,4.463,4.429,6.577c4.694,4.952,8.926,4.355,17.034,4.355H640L640,83.892z"/>
	<path id="XMLID_90_" fill-rule="evenodd" clip-rule="evenodd" fill="#61574B" d="M640,63.125v-3.633
		c-24.82,0-49.743,0.239-74.5,0.389c-24.744,0.149-49.955-0.077-74.6,0.379c-24.918,0.461-49.982,0.021-74.898,0.489
		c-3.625,0.068-5.385,0.185-8.094-1.655c-7.788-5.292-6.806-13.371-6.806-21.594c0-12.5-0.038-25.001-0.038-37.5h-3.487
		c0,12.65,0.141,25.329,0.145,38c0.005,12.509-1.22,14.325,5.923,22.355c1.336,1.503,4.543,3.114,6.422,3.562
		c6.399,1.525,30.213,0.351,38.433,0.349C512.058,64.248,576.117,63.125,640,63.125L640,63.125z"/>
	<path id="XMLID_89_" fill-rule="evenodd" clip-rule="evenodd" fill="#F0ECCF" d="M366.113,228.075
		c1.903-3.488,2.106-1.401,5.001-8.966c2.432-6.355,1-11.684,0.719-18.652c-0.119-2.927,0.399-3.131-2.392-3.882
		c-18.312-4.926-21.934-1.406-37.932-2.962l-24.01-3.152c-2.767,4.904-4.405,17.938-3.793,24.317
		c8.856,3.953,21.372,4.235,31.475,6.561C344.54,223.494,356.157,228.849,366.113,228.075L366.113,228.075z"/>
	<path id="XMLID_88_" fill-rule="evenodd" clip-rule="evenodd" fill="#F0ECCF" d="M30.821,231.352
		c0.008,10.909-2.564,15.075,2.028,25.29c1.756,3.907,3.043,6.119,8.469,5.588c9.174-0.898,20.74-6.185,34.119-8.261
		c9.285-1.44,15.011-2.293,23.566-4.931c-0.029-8.869-1.002-16.571-3.728-24.336c-1.02-0.077-23.021,3.329-31.811,3.55
		c-5.802,0.146-12.393-0.466-17.978,0.037C39.935,228.79,35.722,230.405,30.821,231.352L30.821,231.352z"/>
	<path id="XMLID_87_" fill-rule="evenodd" clip-rule="evenodd" fill="#8C827A" d="M67.777,257.906
		c0.358,3.865,24.192,88.139,25.385,90.869c1.908,4.364,3.963,7.417,5.955,11.226h31.657l-1.648-8.01
		c-5.009-1.012-8.969-2.567-11.914-5.705c-2.886-3.076-5.261-6.346-7.229-10.241c-4.637-9.174-5.852-16.421-8.842-26.639
		l-14.519-53.561c-0.324-1.265,0.78,0.32-0.728-1.237C81.801,254.052,72.418,257.247,67.777,257.906L67.777,257.906z"/>
	<path id="XMLID_86_" fill-rule="evenodd" clip-rule="evenodd" fill="#8C827A" d="M74.268,225.279
		c4.261,0.457,8.242-0.651,12.397-0.999c0.451-7.687,0.23-16.971,0.096-24.785c-0.144-8.351,1.048-13.528,4.969-19.276
		c11.767-17.251,26.229-9.747,35.203-14.216c1.091-6.351,1.758-12.449,3.189-18.615l-31.239,3.915
		c-12.948,1.571-17.598,2.919-23.927,11.172c-6.713,8.754-7.142,14.605-7.16,28.026c-0.014,10.122,0.896,25.159-0.172,34.684
		C69.892,225.145,72.21,224.741,74.268,225.279L74.268,225.279z"/>
	<path id="XMLID_85_" fill-rule="evenodd" clip-rule="evenodd" fill="#8C827A" d="M90.917,219.002
		c5.055-3.513,2.594-2.387,9.602-2.921c2.895-0.221,8.343-0.649,10.796-1.405c-0.06-6.198,0.014-8.838,2.372-13.919
		c0.86-1.854,2.072-3.258,3.265-4.797c1.529-1.972,2.603-2.26,4.471-3.801l3.746-0.654l0.654-17.566
		c-0.243-1.794,0.04-1.779,0.333-3.717c-15.65,2.229-23.96,0.582-31.491,11.93c-5.381,8.108-4.303,17.984-4.324,27.847l-0.125,7.942
		C90.315,220.44,89.868,219.156,90.917,219.002L90.917,219.002z"/>
	<path id="XMLID_84_" fill-rule="evenodd" clip-rule="evenodd" fill="#8C827A" d="M257.867,131.088
		c1.421,4.671,6.892,15.194,9.296,20.743c5.625,12.983,1.06-6.856,11.019,14.511c1.672,3.588-3.571,7.744-0.062,12.055
		c1.572,1.017,11.792,2.118,14.454,2.311c1.475-0.755,1.239,0.837,1.132-5.206c-0.032-1.825,0.001-3.674-0.002-5.502
		c-0.017-10.093,1.136-22.053-3.506-29.638C282,126.967,274.821,129.616,257.867,131.088L257.867,131.088z"/>
	<path id="XMLID_83_" fill-rule="evenodd" clip-rule="evenodd" fill="#796D5D" d="M390.105,194.301
		c1.036,0.752,0.604,0.433,2.304,0.779c0.946,0.192,1.859,0.303,2.806,0.441c-1.041-1.619-0.703-1.941-0.663-5.013
		c0.131-10.031-1.523-25.567,3.494-33.452c7.667-12.05,16.261-9.256,32.955-9.347l106.5-0.017
		c16.019-0.072,25.861-2.722,33.774,8.513c3.426,4.864,4.032,9.817,4.086,16.792c0.111,14.136-0.051,28.354-0.051,42.502
		c0,18.263-0.64,17.763-5.706,36.105c-3.092,11.195-6.114,22.296-9.014,33.455c-3.439,13.233-4.731,20.009-11.582,30.961
		c-8.334,13.324-17.194,10.547-32.007,10.547c-11.686-0.001-78.327,0.833-84.019-0.574c-8.482-2.097-16.142-14.488-18.939-23.544
		c-4.976-16.112-8.809-33.477-13.475-50.039c-1.486-5.276-3.306-11.212-4.45-16.5l1.632,0.332c-1.061-1.12-4.064-1.528-5.82-1.827
		l4.747,17.39c1.589,5.884,3.066,11.438,4.666,17.358c5.148,19.051,10.184,52.893,28.759,59.743
		c6.261,2.308,34.625,1.238,43.397,1.238c8.287,0,59.58,0.939,65.317-0.875c16.308-5.155,21.035-28.75,24.814-41.63
		c5.114-17.427,9.096-35.329,14.053-52.423c1.966-6.78,1.286-13.393,1.286-20.719c0-14.841,0.022-29.681,0.03-44.521
		c0.006-12.718-8.041-23.512-18.504-25.531c-5.294-1.022-15.674-0.427-21.495-0.429l-111-0.005c-16.978,0-25.743-0.912-32.98,11.009
		c-5.195,8.555-4.104,18.16-4.127,28.976c-0.004,1.834-0.018,3.679,0.012,5.511C390.939,191.517,391.537,193.544,390.105,194.301
		L390.105,194.301z"/>
	<path id="XMLID_82_" fill-rule="evenodd" clip-rule="evenodd" fill="#796D5D" d="M413.439,202.958l5.885,1.158
		c-2.546-35.736,7.13-32.905,28.676-32.905c8.52,0.001,86.981-0.619,91.48,0.275c9.376,1.863,11.307,11.295,11.279,19.514
		c-0.026,7.706,0.638,39.262-0.775,45.356l-7.947,38.158c-1.976,9.08-2.496,16.403-7.344,23.187
		c-5.103,7.143-14.355,5.399-25.193,5.399l-61.502-0.007c-6.321-0.063-7.984-0.662-11.509-4.095
		c-2.474-2.41-4.274-5.631-5.421-9.578c-0.821-2.825-10.247-46.582-10.328-50.475l-3.957-0.026
		c0.833,7.838,3.719,18.845,5.507,27.286c3.43,16.188,4.241,40.511,24.708,40.549L512,306.733c13.08-0.001,18.696,1.72,25.69-7.057
		c5.569-6.988,5.835-14.66,8.066-24.384c1.969-8.582,3.83-17.798,5.48-26.529c0.839-4.439,2.179-9.384,2.91-13.632l0.141-48.151
		c-0.243-9.436-5.645-17.194-13.287-18.989c-5.513-1.295-86.894-0.424-96.501-0.424c-11.505,0-18.207-1.985-25.169,7.279
		c-4.783,6.364-4.573,21.967-3.528,28.422L413.439,202.958L413.439,202.958z"/>
	<path id="XMLID_81_" fill-rule="evenodd" clip-rule="evenodd" fill="#796D5D" d="M370.185,194.055l1.814,0.131
		c-0.524-8.618-0.054-18.885-0.047-27.685c0.008-8.489-0.686-17.469,2.258-24.838c7.635-19.112,22.303-16.266,37.789-16.266
		c36,0,72,0,108,0c17.849,0,36.249-0.438,54.029,0.026c15.49,0.404,23.701,13.962,23.802,30.061
		c0.113,17.992,0.007,36.021,0.007,54.017c0,11.236,0.826,15.084-1.73,25.108c-5.501,21.579-11.682,42.429-17.222,64.318
		c-4.429,17.501-11.261,45.989-31.279,49.54c-4.593,0.814-92.83,0.355-107.607,0.355c-8.185,0-17.832,1.021-24.376-2.48
		c-5.389-2.883-9.876-8.485-13.013-13.935c-7.923-13.768-15.124-45.83-19.201-61.798c-3.53-13.826-8.47-28.965-11.468-42.594
		c-1.696-0.196-1.023-0.13-1.848,0.486l6.004,21.903c1.785,7.395,4.036,14.328,5.821,21.648
		c3.556,14.587,7.962,28.742,11.738,43.292c3.141,12.109,10.296,26.815,22.007,32.988c6.732,3.549,16.974,2.36,25.337,2.36
		l82.5-0.06c6.912-0.045,21.343,0.954,26.818-0.831c20.051-6.538,25.678-32.846,30.663-51.827l17.274-64.635
		c1.527-5.578,1.29-6.625,1.326-12.839c0.125-21.707,0.643-47.708-0.047-68.513c-0.318-9.575-3.419-14.076-7.634-19.883
		c-3.344-4.607-10.477-8.459-18.879-8.477l-164.52,0.008c-8.822,0-17.358-1.092-24.263,3.136
		C363.749,139.318,371.243,167.099,370.185,194.055L370.185,194.055z"/>
	<path fill-rule="evenodd" clip-rule="evenodd" fill="#796D5D" d="M445.14,190.432c3.423-0.753,61.588-0.26,70.36-0.262
		c8.412-0.002,13.942-0.402,16.222,7.085c0.785,2.577,0.893,29.604,0.611,35.223c-0.11,2.2-1.626,6.781-2.223,9.095
		c-2.017,7.823-7.408,30.394-10.945,36.096c-4.755,7.665-7.086,6.318-17.665,6.318c-7.834-0.001-15.667-0.009-23.5,0.001
		c-18.704,0.023-25.946,3.908-31.098-15.888c-10.115-38.867-9.378-24.317-9.293-61.6
		C437.628,198.404,438.172,191.966,445.14,190.432L445.14,190.432z M433.234,217.613c0.093,0.092,0.231,0.201,0.294,0.259
		l0.84,0.762c2.558,2.648,0.944,5.992-0.894,8.947c0.589,0.82,0.472,1.178,0.488,2.887c0.06,6.275,7.418,30.881,9.146,37.382
		c5.872,22.079,12.675,19.898,29.892,19.796c8.329-0.049,16.669-0.006,25-0.006c8.656,0,15.851,1.438,20.994-3.622
		c6.773-6.664,10.21-24.817,13.21-36.299c0.896-3.429,1.828-6.679,2.682-9.85c1.868-6.94,1.356-28.793,1.135-36.382
		c-0.216-7.418-4.086-13.381-10.397-14.667c-4.185-0.853-66.27-0.257-73.622-0.261c-15.953-0.008-18.106,5.891-18.046,19.442
		C433.964,208.056,434.502,216.022,433.234,217.613L433.234,217.613z"/>
	<path id="XMLID_78_" fill-rule="evenodd" clip-rule="evenodd" fill="#665F59" d="M247.741,111.426
		c0.169,1.722,1.353,3.154,2.411,4.938c1.109,1.871,1.594,2.936,2.655,4.848c1.671,3.012,3.204,7.216,5.06,9.875
		c16.954-1.472,24.132-4.12,32.331,9.275c4.642,7.585,3.489,19.545,3.506,29.638c0.004,1.828-0.03,3.677,0.002,5.502
		c0.107,6.043,0.342,4.451-1.132,5.206c8.463,2.644,17.334-1.091,19.36,5.317l0.974,2.747c0.051,0.096,0.143,0.258,0.235,0.373
		c-1.183-14.424-0.296-32.297-0.296-47.146c0-15.83,0.087-31.673,0.003-47.5c-0.169-31.479-0.034-63.016-0.034-94.5h-11.82
		c0,11.051,0.854,87.334-0.862,92.427c-0.827,2.454-2.761,7.357-5.305,9.464l-5.212,3.319c-0.131,0.082-0.532,0.311-0.672,0.384
		c-0.11,0.057-0.238,0.119-0.351,0.171c-0.145,0.068-0.575,0.246-0.726,0.303c-2.182,0.828-26.881,3.516-31.951,4.214
		C253.115,110.667,249.946,110.797,247.741,111.426L247.741,111.426z"/>
	<path id="XMLID_77_" fill-rule="evenodd" clip-rule="evenodd" fill="#665F59" d="M313.228,281.909
		c-0.618-20.097-0.034-40.997-0.246-61.409l2.284-0.285c-1.104-0.971-3.751-0.954-5.494-1.094c-8.043-0.647,3.876,4.265-15.47-0.598
		c0.976,2.902,2.195,4.354,3.12,7.53c4.82,16.551,10.546,35.44,14.451,51.986C312.153,279.22,312.392,280.97,313.228,281.909
		L313.228,281.909z"/>
	<path id="XMLID_76_" fill-rule="evenodd" clip-rule="evenodd" fill="#625952" d="M0,37.003v38.995
		c5.629,0,33.903-3.347,41.599-3.969c8.764-0.707,16.659-1.025,25.878-2.173l50.545-4.972c2.721-0.243,5.691-0.764,8.016-0.888
		c3.401-0.182,5.993,0.544,8.245-1.136c-2.065-4.536-3.837-6.188-6.624-9.01c-7.659-7.755-8.492-9.451-14.873-17.142l-6.619-7.906
		c-0.084-0.088-0.207-0.201-0.286-0.28l-0.628-0.55L79.217,30.38c-4.955,0.585-7.872,0.858-13.26,1.121
		c-12.165,0.595-28.512,3.039-39.47,3.506C20.124,35.277,5.223,37.003,0,37.003L0,37.003z"/>
	<path id="XMLID_75_" fill-rule="evenodd" clip-rule="evenodd" fill="#625952" d="M0,91.502v22.495
		c9.476-0.585,19.423-2.456,28.496-2.494l66.977-6.513c3.292-0.006,6.659-0.392,10.022-0.792l42.867-3.983
		c1.082-0.176,3.765-0.673,4.948-0.021l3.549-2.934c0.061-0.054,0.189-0.17,0.278-0.262c-2.379-3.643-10.458-18.514-12.895-20.315
		c0.327,2.109,0.64,0.066-0.263,1.313c-0.581-0.363-0.008-0.207-1.105-0.409l-7.913,0.522c-5.77,0.447-16.581,2.213-22.469,2.393
		l-9.572,0.543c-3.372,0.399-1.13,0.786-3.94,0.973c-7.32,0.489-6.557,0.074-13.822,1.29l-31.693,2.722
		c-5.329,0.367-12.035,1.497-17.567,1.935L0,91.502L0,91.502z"/>
	<path id="XMLID_74_" fill-rule="evenodd" clip-rule="evenodd" fill="#625952" d="M232.197,48.633
		c-0.817,0.834-4.511,10.08-4.871,11.687c-1.152,5.126-3.105,8.741-4.356,13.178c2.131,1.136,10.84-0.263,13.541-0.622
		c9.051-1.203,14.563,0.377,21.324-3.389c0.096-0.054,0.226-0.126,0.323-0.181l1.86-1.209c4.204-2.816,3.453-2.709,4.613-5.141
		l1.358-2.107c4.765-7.599,2.51-48.801,2.51-60.849h-20.154c0,10.916-0.285,21.993-0.325,33.02
		c-0.018,4.709-1.771,10.174-5.434,13.012c-3.161,2.449-5.647,3.468-10.132,3.48L232.197,48.633L232.197,48.633z"/>
	<path id="XMLID_73_" fill-rule="evenodd" clip-rule="evenodd" fill="#625952" d="M153.659,23.748l5.77,15.328
		c0.68,1.707,1.073,3.61,2.279,4.826l0.107-0.922c2.706,0.426,14.916-0.866,18.487-1.414l19.123-1.57l0.153-1.5l1.02-19.668
		c-1.129,0.914-0.683,0.93-2.238,1.246c-3.457,0.704-16.208,0.808-20.926,1.698C170.763,23.031,160.598,23.175,153.659,23.748
		L153.659,23.748z"/>
	<path id="XMLID_72_" fill-rule="evenodd" clip-rule="evenodd" fill="#625952" d="M166.439,56.002
		C166.96,58.015,177.62,84.951,178,85.42c6.83-2.662,13.46-5.382,22.244-5.666c-0.281-5.308,0.785-32.075-0.403-34.159
		c-0.63,2.217-0.338,4.981-0.338,7.405C195.014,53.03,168.587,54.941,166.439,56.002L166.439,56.002z"/>
	<path id="XMLID_71_" fill-rule="evenodd" clip-rule="evenodd" fill="#71695A" d="M640,98.833V83.892H403.5
		c-8.108,0-12.34,0.597-17.034-4.355c-2.004-2.114-2.953-3.031-4.429-6.577c-1.121-2.697-1.367-5.654-1.399-8.946L380.699,0h-11.983
		c0,15.496,0.057,31,0.057,46.5c0,9.204-1.163,38.82,1.103,45.089c2.807,7.766,8.76,8.259,14.623,8.245
		C469.647,99.629,554.897,98.833,640,98.833L640,98.833z"/>
	<path id="XMLID_70_" fill-rule="evenodd" clip-rule="evenodd" fill="#71695A" d="M640,80.281V63.125
		c-63.883,0-127.942,1.123-191.5,1.14c-8.219,0.002-32.034,1.176-38.433-0.349c-1.879-0.447-5.085-2.059-6.422-3.562
		c-7.143-8.03-5.918-9.845-5.923-22.355c-0.005-12.671-0.145-25.351-0.145-38h-13.173l-0.01,62.5
		c-0.226,20.094,12.757,17.78,24.605,17.78H640L640,80.281z"/>
	<path fill-rule="evenodd" clip-rule="evenodd" fill="#020101" d="M30.821,231.352c4.901-0.947,9.114-2.562,14.664-3.063
		c5.585-0.503,12.176,0.109,17.978-0.037c8.79-0.221,30.791-3.627,31.811-3.55c2.726,7.765,3.699,15.467,3.728,24.336
		c-8.555,2.637-14.281,3.49-23.566,4.931c-13.379,2.076-24.945,7.362-34.119,8.261c-5.425,0.531-6.712-1.681-8.469-5.588
		C28.257,246.427,30.829,242.261,30.821,231.352L30.821,231.352z M95.505,218.598l20.081-1.984
		c7.954-1.714,6.585-1.986,6.588,13.386c0.001,4.765,0.266,10.36-0.115,15.022c-6.671,2.436-12.595,5.798-20.21,7.103
		C102.344,237.19,100.8,230.35,95.505,218.598L95.505,218.598z M366.113,228.075c-9.956,0.774-21.573-4.582-30.931-6.736
		c-10.103-2.326-22.619-2.608-31.475-6.561c-0.612-6.379,1.026-19.412,3.793-24.317l24.01,3.152
		c15.998,1.557,19.619-1.964,37.932,2.962c2.791,0.75,2.274,0.955,2.392,3.882c0.281,6.968,1.713,12.297-0.719,18.652
		C368.219,226.674,368.015,224.587,366.113,228.075L366.113,228.075z M122.406,211c-0.004-5.612-0.214-9.47,0.83-14.722
		c0.847,0.676,0.262,0.036,0.938,0.956l1.507,3.102c4.568,9.82,13.054,14.967,23.368,20.616c9.179,5.027,25.564,11.47,37.158,12.999
		c-0.559,0.596-0.091,0.213-0.926,0.787c-4.02,2.767-6.497,2.913-13.789,9.255c-2.221,1.932-4.031,3.389-6.478,5.518
		c-1.692,1.472-5.092,4.363-7.015,5.378c-1.163-1.678-1.515-5.152-1.952-7.468c-2.15-11.399-13.596-21.331-22.432-27.542
		c-2.053-1.443-3.843-2.784-5.786-4.201C126.277,214.544,122.408,213.098,122.406,211L122.406,211z M373.283,201.312l3.904,0.914
		c0.324,2.428-0.413,1.948,0.912,3.582c1.134-0.566,2.791-5.953,3.927-7.28c2.229-2.604,6.376-1.636,9.625-1.217
		c5.336,0.689,16.467,0.692,19.757,3.688c0.353,3.328-1.661,5.186-4.339,6.071c-3.419,1.13-5.813-0.735-9.191,0.213
		c-1.293,1.446-1.267,4.114-2.089,5.505c-1.403,2.372-3.384,2.456-2.963,4.348c2.962,3.064,6.192-4.263,6.559-7.922
		c3.262,0.48,6.445,1.505,9.811,0.447c4.139-1.302,2.939-4.144,6.123-3.954c3.979,0.236,13.76,2.744,15.565,5.291
		c-1.39,6.161-12.627,2.318-17.126,1.737c-2.457-0.317-2.536,0.442-4.04-0.398c-0.546-0.304,0.314-0.2-1.069-0.736
		c-0.943,3.417-1.367,7.514-2.406,10.644c-1.682,5.064-3.064,4.071-6.037,6.752c2.941,2.664,5.861-0.389,7.433-3.862
		c1.264-2.792,2.575-8.166,2.808-11.357c3.343,1.563,7.84,2.442,12.106,3.143c4.166,0.684,8.64,1.463,10.948,4.077
		c-1.114,9.989-16.222,3.241-23.153,2.013c0.14,3.158,1.149,2.954,7.547,4.583c3.372,0.859,7.725,1.046,10.224,2.183l0.51,3.746
		c-7.435,4.924-18.598,1.903-27.369,0.175c-8.975-1.767-18.351-2.456-24.566-7.371c0.262-2.946,1.639-3.535-0.793-4.876
		l-1.417,4.117l-2.581-0.288c-0.106-0.398-0.171-0.255-0.055-1.052c0.051-0.356,0.289-1.057,0.421-1.41
		c0.39-1.044,0.624-1.49,0.956-2.601C375.788,211.657,374.308,208.313,373.283,201.312L373.283,201.312z M301.797,199.252
		c-1.251,6.619-0.996,11.952-1.118,18.71c-1.856-0.337-4.373-0.885-6.08-1.547c-2.38-0.923-2.31-1.854-3.281-4.234
		c-3.644-8.934-11.779-23.305-13.02-31.517c4.921,0.886,9.244,2.271,14.209,2.454c4.964,0.184,9.81,0.901,14.66,1.258
		C304.956,190.218,303.637,189.512,301.797,199.252L301.797,199.252z M253,236.896c-3.777-1.481-8.669-4.539-13.403-6.493
		c-4.789-1.977-10.388-3.516-15.533-5.028c3.152-1.496,5.293-3.952,7.658-6.139c8.539-7.895,12.329-11.307,19.944-22.067
		c7.257-10.256,4.06-8.546,9.424-18.572c1.801-3.366,3.098-5.793,4.84-9.158c2.015-3.892,1.76-7.886,3.386-11.117
		c3.636-0.472,5.408,3.012,6.599,6.278c2.293,6.291-7.873,19.521-11.411,28.902c-2.546,6.749-4.219,14.017-6.765,20.737
		C254.73,222.181,255.459,233.432,253,236.896L253,236.896z M220.239,225.612c0.653,7.255,0.943,13.831,2.119,21.12
		c0.889,5.509,3.077,15.422,3.067,20.611c-3.932-3.8-5.94-7.829-8.766-13.007c-3.561-6.527-0.601-5.18-7.911-14.594
		c-1.445-1.861-3.86-4.349-6.097-4.868c-9.213-2.136-17.733-3.309-27.439-6.092c-11.28-3.234-22.76-7.484-30.952-13.546
		c-5.367-3.971-12.028-6.546-14.764-12.783c-1.446-3.295-0.046-1.43-0.361-3.369c-0.283-1.746-1.309-0.873-1.704-3.585
		c-0.428-2.938,1.358-22.982,1.69-26.331c1.425-14.379,8.16-41.601,14.135-52.911c3.575-6.768,9.446-13.595,15.379-17.623
		c3.751-2.546,3.306-2.616,8.861-2.726c4.405-0.087,6.714-0.934,9.932,1.183c4.308,2.833,11.6,3.775,14.024,7.961
		c1.902,3.283,0.366,6.212,4.648,7.06c0.661-3.08-0.524-4.221,1.07-6.402c3.608-4.933,0.95-7.633,6.129-11.915
		c2.796-2.311,1.031-1.684,2.216-6.797c1.23-5.308,8.372-3.59,12.404-1.431c8.091,4.332,14.443,9.267,19.906,16.1
		c8.112,10.143,13.825,22.317,19.558,34.422c1.728,3.65,3.901,8.785,5.942,12.079c7.477,12.067-1.505,22.173-6.403,33.252
		c-4.016,9.081-0.447,2.484-5.994,12.012c-6.387,10.971-1.023,2.862-7.741,10.246l-8.433,9.585c-1.91,1.798-2.722,2.866-4.483,4.512
		c-0.853,0.797-1.212,1.313-2.229,2.26C225.91,222.023,221.254,224.609,220.239,225.612L220.239,225.612z M169.081,93.021
		c2.74-2.862,4.505-2.357,8.066-4.353c2.619-1.467,4.88-3.201,8.078-3.94c7.33-1.696,12.103-3.878,20.184-2.626
		c-0.781,1.834-1.741,1.676-2.693,6.096c-1.146,5.315-0.644,2.28-3.048,5.478c-2.791,3.713-1.511,9.167-5.666,11.493
		c-2.361-1.908-0.649-1.89-5.26-4.409c-2.093-1.143-3.651-2.123-5.639-3.357C177.926,94.19,176.445,93.453,169.081,93.021
		L169.081,93.021z M105.254,27.972l0.628,0.55c0.08,0.079,0.203,0.192,0.286,0.28l6.619,7.906
		c6.382,7.691,7.214,9.387,14.873,17.142c2.787,2.822,4.559,4.474,6.624,9.01c1.874,0.604,7.449,8.905,9.12,11.75
		c0.862,1.466,0.577,0.657,0.838,2.076c2.437,1.801,10.516,16.673,12.895,20.315c-0.089,0.092-0.216,0.207-0.278,0.262l-3.549,2.934
		c-2.736,1.847-7.301,6.599-9.322,9.299c-1.199,1.603-2.44,3.352-3.561,5.427c-0.689,1.275-2.245,5.208-2.837,5.836
		c-0.736,3.916-2.952,9.021-4.118,13.213c-1.279,4.599-2.357,8.632-3.351,13.417c-1.431,6.166-2.098,12.264-3.189,18.615
		c-0.172,2.253-0.021,6.325-1.108,7.938l-0.654,17.566l-3.746,0.654c-1.886,8.357-4.646,11.383-1.946,21.626l-8.163,0.891
		c-2.454,0.756-7.902,1.184-10.796,1.405c-7.008,0.534-4.547-0.592-9.602,2.921l-1.085,4.375l-3.166,0.903
		c-4.155,0.348-8.135,1.456-12.397,0.999c-1.659,1.075-22.196,0.569-26.286,0.758c-3.767,0.174-8.23,0.896-11.789,1.632
		c-5.201,1.076-7.707-0.765-7.632,5.262L24.5,233.58c-6.21-8.594-13.978-3.319-24.5-3.187v2.383
		c4.862-0.504,10.796-1.689,15.508-1.772c6.693-0.118,5.935,4.174,8.492,8.84c3.859-1.76-2.512-3.13,5.249-4.355
		c-0.834,4.984-1.694,7.436-1.07,12.96c0.529,4.686,2.297,7.565,2.881,10.932l-2.558,0.347c-0.26-0.357-0.315-0.434-0.625-1.098
		c-1.238-2.65-0.25-2.048-1.818-2.963c-1.463,1.619-0.489,2.564-0.115,4.93c-11.32,5.665-11.487,5.461-25.944,7.474v2.854
		c5.199-0.484,19.544-4.232,24.322-7.105c2.96-1.779,4.348-1.838,8.178-2.212c3.041,2.672,1.499,4.408,7.932,3.383l27.346-7.086
		c4.641-0.658,14.024-3.854,18.118-3.297c0.609-0.364,0.012-0.144,1.177-0.469c0.352-0.098,0.949-0.222,1.312-0.282
		c1.126-0.188,1.964-0.239,3.114-0.339c8.282-1.433,0.167,4.296,15.462-0.574c6.914-2.202,12.219-5.048,15.285-5.875
		c-0.179,7.418-0.437,46.811,0.103,52.094c0.803,7.864,1.478,15.633,2.409,23.525c0.638,5.415,3.354,19.431,2.993,23.606
		c1.117,1.033,1.178,3.941,1.376,5.696l1.648,8.01h5.289c-1.762-11.024-5.18-21.552-6.287-32.893
		c-0.562-5.758-1.529-11.523-2.103-17.215L126.519,272c0.118-6.366,0.775-12.736,0.435-19.005
		c-0.662-12.197-1.956-24.616-2.444-36.687c3.012,0.946,9.164,5.762,11.531,7.647c25.07,19.959,13.331,29.55,22.46,34.636
		c2.958-1.352,5.929-4.719,8.336-6.748l8.148-7.352c7.974-7.32,23.363-14.849,31.669-3.642c5.769,7.785,8.718,17.016,13.893,24.612
		c1.227,1.8,2.76,3.02,3.158,4.637c2.065,1.018,2.439,2.938,5.67,2.305c-0.227-2.985-1.535-7.323-2.138-10.628
		c-0.702-3.849-1.246-7.389-1.841-11.219c-0.592-3.817-3.878-20.776-3.165-22.74c0.131-0.041,0.335-0.207,0.403-0.074
		c0.067,0.132,0.308-0.056,0.402-0.057c0.824-0.011,0.078-0.121,1.213,0.046l15.857,4.661c4.639,2.366,9.827,6.934,16.09,6.328
		c-0.104-1.98-0.826-0.958-0.272-3.271c0.44-1.836,1.038-2.281,1.231-4.421c0.298-3.319,0.169-6.333,0.645-9.699
		c0.799-5.652,2.385-11.893,4.11-16.889c1.935-5.608,10.361-26.034,13.567-28.882c1.025,3.59,1.788,7.775,2.269,11.621
		c0.39,3.112,3.103,7.205,4.467,10.127c11.463,24.55,17.72,49.886,25.599,75.897c2.595,8.567,1.646,8.248,2.646,11.83
		c1.654,5.929,4.165,18.236,4.519,24.459c1.052,18.468,6.562,34.677,7.411,50.51h1.764c-0.264-7.922-1.804-17.044-2.805-24.945
		c-0.528-4.166-0.94-8.243-1.431-12.438c-0.409-3.498-1.716-9.012-1.71-12.246c0.395-8.236-5.278-21.816-4.978-28.462
		c-0.836-0.939-1.075-2.688-1.354-3.869c-3.905-16.547-9.631-35.435-14.451-51.986c-0.925-3.176-2.144-4.628-3.12-7.53
		c19.345,4.863,7.427-0.049,15.47,0.598c1.743,0.14,4.39,0.123,5.494,1.094l3.794,0.152l8.937,2.137
		c4.428,0.233,13.342,3.047,17.996,4.3l6.238,1.615l4.009,1.029c4.249,1.066,9.211,2.948,12.174,0.171
		c1.038-2.179,1.834-2.985,4.694-1.662c3.896,0.288,5.415,2.107,8.799,3.604c3.011,1.332,6.735,1.655,10.022,2.855
		c1.756,0.298,4.759,0.707,5.82,1.827l19.035,2.675l3.957,0.026c8.595-0.615,10.263-1.332,9.673-9.952l3.059-1.414
		c1.838-2.955,3.452-6.299,0.894-8.947l-0.84-0.762c-0.063-0.057-0.201-0.167-0.294-0.259l-1.785-1.385
		c0.872-2.565,2.293-1.381,1.387-5.569c-1.002-4.631-9.467-6.043-13.511-6.543l-5.885-1.158c-1.419-4.515-0.954-5.311-6.503-6.348
		c-3.605-0.674-7.676-0.309-11.721-1.088c-0.947-0.138-1.86-0.249-2.806-0.441c-1.7-0.345-1.268-0.027-2.304-0.779
		c-2.952,0.613-4.832-0.062-7.646,1.143c-3.051,1.306-2.533,1.89-4.459,4.044l-3.636-0.679c-0.941-2.827,0.435-3.028-2.365-4.624
		l-1.814-0.131l-1.605-0.028c-3.643-0.785-7.858-1.477-11.807-1.964l-6.057-0.35l-23.218-0.399c-1.907-0.149-3.902-0.325-5.847-0.43
		c-2.062-0.111-3.532,0.123-5.148-0.681l-3.358-1.058c-0.092-0.115-0.184-0.277-0.235-0.373l-0.974-2.747
		c-2.026-6.409-10.897-2.673-19.36-5.317c-2.662-0.194-12.882-1.294-14.454-2.311c-3.509-4.311,1.734-8.467,0.062-12.055
		c-9.959-21.367-5.394-1.528-11.019-14.511c-2.405-5.549-7.876-16.072-9.296-20.743c-1.856-2.659-3.389-6.862-5.06-9.875
		c-1.061-1.913-1.546-2.978-2.655-4.848c-1.058-1.785-2.242-3.216-2.411-4.938c-1.265-0.939-7.256-10.452-9.226-12.923
		c-2.627-3.293-1.221-2.124-4.508-4.494l-1.944-1.727c-0.045-0.18-0.188-0.193-0.272-0.299c-1.674-0.63-3.556-2.166-4.853-3.424
		c-2.766-1.439-4.322-3.103-7.688-3.987c0.214-2.458,2.479-9.962,3.719-11.075c1.251-4.437,3.204-8.052,4.356-13.178
		c0.361-1.607,4.054-10.853,4.871-11.687c0.061-2.984,5.043-19.731,6.17-24.314c1.894-7.703,4.876-16.86,6.06-24.319h-2.06
		c-0.953,11.508-7.274,32.496-10.766,43.082l-14.525,39.377c-3.502-0.435-3.699-2.685-14.125-2.803
		c-0.842-13.589-1.235-26.925-0.958-40.656c0.294-14.566,1.815-25.873,2.01-39h-2.593l-0.81,18.829l-1.02,19.668
		c0.602,2.066,0.716,4.981,0.262,7.098c1.189,2.083,0.122,28.851,0.403,34.159C191.46,80.038,184.83,82.758,178,85.42
		c-0.38-0.469-11.04-27.405-11.561-29.418c-0.918-0.487-4.709-10.832-4.73-12.1c-1.206-1.216-1.599-3.119-2.279-4.826l-5.77-15.328
		c-2.065-0.15-0.663-0.31-1.638-2.786L141.33,0h-2.03c1.483,4.281,3.413,6.5,5.434,10.266c6.029,11.24,17.93,42.324,22.573,54.925
		c1.932,5.243,7.625,17.715,8.303,22.246c-4.929,0.843-4.87,2.148-8.167,4.015c-2.218,1.255-5.607,2.712-7.942,3.575l-12.436-18.598
		C135.987,58.851,97.175,15.865,91.434,0h-1.389c0.341,2.299,9.004,18.907,11.057,21.91
		C102.197,23.512,104.924,26.129,105.254,27.972L105.254,27.972z"/>
	<path id="XMLID_59_" fill-rule="evenodd" clip-rule="evenodd" fill="#020101" d="M0,243.923l3.145-0.588
		c0.413,2.701,0.806,3.715,2.106,5.913c1.064,1.798,1.89,3.822,4.616,2.189c-0.069-2.913-0.831-0.816-2.919-4.385
		c-1.38-2.359-1.052-3.557-1.948-5.489l-5-0.22V243.923L0,243.923z"/>
	<path id="XMLID_58_" fill-rule="evenodd" clip-rule="evenodd" fill="#655E58" d="M0,270.926V360h99.118
		c-1.992-3.809-4.047-6.862-5.955-11.226c-1.193-2.73-25.027-87.004-25.385-90.869l-27.346,7.086
		c-6.433,1.025-4.89-0.711-7.932-3.383c-3.83,0.374-5.218,0.433-8.178,2.212C19.544,266.693,5.199,270.441,0,270.926L0,270.926z"/>
	<path id="XMLID_57_" fill-rule="evenodd" clip-rule="evenodd" fill="#655E58" d="M0,37.003c5.223,0,20.124-1.726,26.487-1.997
		c10.958-0.467,27.305-2.91,39.47-3.506c5.388-0.263,8.305-0.536,13.26-1.121l26.037-2.408c-0.33-1.843-3.057-4.46-4.152-6.062
		C99.049,18.906,90.386,2.299,90.045,0H0V37.003L0,37.003z"/>
	<path id="XMLID_56_" fill-rule="evenodd" clip-rule="evenodd" fill="#655E58" d="M0,113.998v24.005l38.543-4.807
		c1.685-0.262,3.044-0.119,4.694-0.329c7.935-1.009,18.764-3.165,26.268-3.357l8.065-1.299c3.197-0.427,6.237-0.3,9.248-0.771
		c1.789-0.279,1.071-0.675,3.638-0.913l13.472-1.539c6.787-0.569,20.877-3.125,25.525-3.465c1.525-0.112,3.605-0.046,5.137,0.055
		c0.964,0.064,1.445,0.055,1.547,0.021l1.454-0.84c0.592-0.629,2.148-4.562,2.837-5.836c1.121-2.075,2.362-3.823,3.561-5.427
		c2.021-2.7,6.586-7.452,9.322-9.299c-1.183-0.652-3.866-0.155-4.948,0.021l-42.867,3.983c-3.363,0.399-6.731,0.786-10.022,0.792
		l-66.977,6.513C19.423,111.542,9.476,113.413,0,113.998L0,113.998z"/>
	<path id="XMLID_55_" fill-rule="evenodd" clip-rule="evenodd" fill="#655E58" d="M0,75.997v15.505l35.898-3.536
		c5.531-0.438,12.237-1.567,17.567-1.935l31.693-2.722c7.265-1.216,6.502-0.801,13.822-1.29c2.81-0.187,0.568-0.574,3.94-0.973
		l9.572-0.543c5.887-0.18,16.698-1.946,22.469-2.393l7.913-0.522c1.097,0.203,0.524,0.047,1.105,0.409
		c0.903-1.247,0.589,0.796,0.263-1.313c-0.261-1.418,0.024-0.609-0.838-2.076c-1.671-2.845-7.246-11.145-9.12-11.75
		c-2.252,1.68-4.844,0.954-8.245,1.136c-2.326,0.124-5.295,0.645-8.016,0.888l-50.545,4.972c-9.218,1.149-17.114,1.466-25.878,2.173
		C33.903,72.65,5.629,75.997,0,75.997L0,75.997z"/>
	<path id="XMLID_54_" fill-rule="evenodd" clip-rule="evenodd" fill="#655E58" d="M222.97,73.498
		c-1.241,1.113-3.505,8.616-3.719,11.075c3.366,0.884,4.922,2.549,7.688,3.987l16.413-1.286c5.027-0.491,10.846-1.168,16.136-1.796
		c6.019-0.715,9.873,0.155,14.645-2.808c1.746-1.085,5.164-4.853,5.912-7.715c2.978-11.405,1.184-25.331,1.184-38.954
		c0-12.022-0.001-23.999-0.001-36h-12.73c0,12.048,2.255,53.25-2.51,60.849l-1.358,2.107c-1.16,2.431-0.409,2.325-4.613,5.141
		l-1.86,1.209c-0.097,0.055-0.227,0.127-0.323,0.181c-6.761,3.765-12.273,2.186-21.324,3.389
		C233.81,73.234,225.101,74.633,222.97,73.498L222.97,73.498z"/>
	<path id="XMLID_53_" fill-rule="evenodd" clip-rule="evenodd" fill="#655E58" d="M153.659,23.748
		c6.939-0.573,17.104-0.717,23.776-1.975c4.717-0.889,17.469-0.993,20.926-1.698c1.555-0.317,1.109-0.332,2.238-1.246L201.409,0
		H141.33l10.691,20.963C152.996,23.438,151.594,23.599,153.659,23.748L153.659,23.748z"/>
	<path id="XMLID_52_" fill-rule="evenodd" clip-rule="evenodd" fill="#655E58" d="M161.708,43.903
		c0.021,1.267,3.813,11.613,4.73,12.1c2.148-1.061,28.575-2.972,33.064-3.002c0-2.424-0.291-5.187,0.338-7.405
		c0.454-2.117,0.34-5.032-0.262-7.098l-0.153,1.5l-19.123,1.57c-3.571,0.547-15.781,1.84-18.487,1.414L161.708,43.903
		L161.708,43.903z"/>
	<path id="XMLID_51_" fill-rule="evenodd" clip-rule="evenodd" fill="#655E58" d="M232.197,48.633l0.256,0.879
		c4.485-0.011,6.971-1.031,10.132-3.48c3.663-2.838,5.416-8.303,5.434-13.012c0.04-11.027,0.325-22.104,0.325-33.02h-3.917
		c-1.183,7.459-4.166,16.616-6.06,24.319C237.241,28.902,232.259,45.649,232.197,48.633L232.197,48.633z"/>
	<path fill-rule="evenodd" clip-rule="evenodd" fill="#FBFBFA" d="M198.5,121.978c1.792-3.256,2.526-20.738,14.04-22.994
		c21.378-4.19,31.012,29.067,18.209,43.776c-5.435,6.245-8.308,5.739-10.339,8.151c-5.491,6.52-5.718,4.612-10.056,7.995
		c11.717-1.77,23.535-11.676,32.157-6.507c1.384,6.299,0.362,12.706-2.721,17.385c-2.861,4.342-9.501,1.737-17.275,1.309
		c-14.741-0.812-20.658,4.577-32.14,8.786c-3.719,1.362-5.073,2.089-8.18-0.087c-2.914-2.041-17.073-11.181-12.1-16.178
		c5.108-5.132,28.75-1.537,36.837-3.98c-15.058-0.323-11.56-2.883-16.893-3.757c-6.685-1.096-9.973-1.951-14.787-5.128
		c-7.037-4.645-14.417-12.958-15.037-24.855c-0.394-7.55,1.912-10.448,5.015-15.159c2.303-3.497,5.262-9.38,12.088-7.606
		c7.909,2.055,7.957,3.349,12.425,7.624C193.073,113.94,195.316,118.596,198.5,121.978L198.5,121.978z M263.327,148.171
		c-2.041-3.294-4.214-8.43-5.942-12.079c-5.733-12.105-11.446-24.279-19.558-34.422c-5.464-6.833-11.815-11.768-19.906-16.1
		c-4.032-2.159-11.174-3.877-12.404,1.431c-1.185,5.112,0.58,4.486-2.216,6.797c-5.18,4.282-2.522,6.982-6.129,11.915
		c-1.594,2.18-0.409,3.321-1.07,6.402c-4.282-0.849-2.746-3.777-4.648-7.06c-2.424-4.185-9.716-5.128-14.024-7.961
		c-3.218-2.117-5.528-1.271-9.932-1.183c-5.555,0.11-5.111,0.18-8.861,2.726c-5.933,4.028-11.804,10.855-15.379,17.623
		c-5.976,11.31-12.71,38.532-14.135,52.911c-0.332,3.349-2.118,23.393-1.69,26.331c0.396,2.711,1.421,1.839,1.704,3.585
		c0.315,1.939-1.085,0.074,0.361,3.369c2.737,6.237,9.397,8.812,14.764,12.783c8.192,6.061,19.672,10.311,30.952,13.546
		c9.706,2.783,18.226,3.956,27.439,6.092c2.237,0.519,4.652,3.007,6.097,4.868c7.31,9.413,4.35,8.067,7.911,14.594
		c2.826,5.178,4.833,9.207,8.766,13.007c0.011-5.189-2.177-15.103-3.067-20.611c-1.176-7.29-1.466-13.866-2.119-21.12
		c1.015-1.003,5.67-3.589,7.804-5.575c1.017-0.947,1.377-1.463,2.229-2.26c1.761-1.646,2.573-2.714,4.483-4.512l8.433-9.585
		c6.717-7.384,1.354,0.725,7.741-10.246c5.547-9.528,1.978-2.931,5.994-12.012C261.822,170.344,270.804,160.238,263.327,148.171
		L263.327,148.171z"/>
	<path id="XMLID_48_" fill-rule="evenodd" clip-rule="evenodd" fill="#FBFBFA" d="M139.3,0H91.434
		c5.741,15.865,44.553,58.851,55.63,76.428L159.5,95.026c2.335-0.863,5.724-2.32,7.942-3.575c3.297-1.866,3.238-3.171,8.167-4.015
		c-0.677-4.531-6.371-17.003-8.303-22.246c-4.643-12.601-16.544-43.685-22.573-54.925C142.713,6.5,140.783,4.281,139.3,0L139.3,0z"
		/>
	<path id="XMLID_47_" fill-rule="evenodd" clip-rule="evenodd" fill="#FBFBFA" d="M242.366,0h-38.364
		c-0.194,13.127-1.716,24.434-2.01,39c-0.277,13.731,0.116,27.067,0.958,40.656c10.426,0.117,10.623,2.368,14.125,2.803
		L231.6,43.082C235.092,32.496,241.413,11.508,242.366,0L242.366,0z"/>
	<path id="XMLID_46_" fill-rule="evenodd" clip-rule="evenodd" fill="#FBFBFA" d="M406.244,222.248
		c1.039-3.13,1.463-7.227,2.406-10.644c1.384,0.536,0.524,0.432,1.069,0.736c1.504,0.839,1.583,0.08,4.04,0.398
		c4.499,0.58,15.736,4.424,17.126-1.737c-1.804-2.548-11.586-5.055-15.565-5.291c-3.185-0.19-1.985,2.653-6.123,3.954
		c-3.366,1.058-6.549,0.033-9.811-0.447c-0.367,3.659-3.597,10.985-6.559,7.922c-0.421-1.892,1.56-1.976,2.963-4.348
		c0.822-1.391,0.796-4.059,2.089-5.505c3.377-0.948,5.772,0.917,9.191-0.213c2.679-0.885,4.693-2.743,4.339-6.071
		c-3.29-2.996-14.421-2.999-19.757-3.688c-3.249-0.42-7.396-1.387-9.625,1.217c-1.136,1.327-2.793,6.713-3.927,7.28
		c-1.325-1.634-0.588-1.154-0.912-3.582l-3.904-0.914c1.025,7,2.505,10.344-0.056,18.909c-0.333,1.111-0.566,1.557-0.956,2.601
		c-0.132,0.353-0.37,1.055-0.421,1.41c-0.116,0.797-0.051,0.654,0.055,1.052l2.581,0.288l1.417-4.117
		c2.431,1.34,1.055,1.929,0.793,4.876c6.216,4.915,15.592,5.603,24.566,7.371c8.771,1.727,19.934,4.749,27.369-0.175l-0.51-3.746
		c-2.499-1.137-6.852-1.324-10.224-2.183c-6.397-1.629-7.407-1.426-7.547-4.583c6.931,1.228,22.039,7.975,23.153-2.013
		c-2.307-2.614-6.782-3.392-10.948-4.077c-4.266-0.701-8.764-1.58-12.106-3.143c-0.233,3.191-1.544,8.565-2.808,11.357
		c-1.573,3.474-4.492,6.526-7.433,3.862C403.179,226.319,404.562,227.312,406.244,222.248L406.244,222.248z"/>
	<path fill-rule="evenodd" clip-rule="evenodd" fill="#FBFBFA" d="M213.933,130.644c-0.007-0.027-0.439-1.712-0.44-1.717
		c-0.162-2.851-0.008-0.805,0.417-1.63C218.204,125.551,218.557,130.379,213.933,130.644L213.933,130.644z M223,146.312
		c21.679-13.104,6.833-53.565-11.321-44.648c-4.568,2.244-6.315,6.659-8.329,11.689c-5.21,13.014,0.388,17.628,0.778,25.629
		c0.155,3.183-1.117,6.881,3.059,6.229c3.392-0.53,9.422-2.429,13.208-1.601C222.624,144.097,222.118,144.836,223,146.312
		L223,146.312z"/>
	<path fill-rule="evenodd" clip-rule="evenodd" fill="#FBFBFA" d="M189.659,127.701c-2.957,0.561-3.57-2.516-2.02-4.482
		c1.569,0.028,1.784,0.304,2.716,1.273C190.663,126.695,190.69,126.322,189.659,127.701L189.659,127.701z M173,146.37
		c3.501-2.675,4.15-5.092,11.658-6.698c5.66-1.211,11.905-0.748,17.089,0.697c-0.899-13.842-16.25-38.426-27.52-35.624
		c-5.39,1.34-11.623,12.641-11.536,20.257C162.779,132.639,168.151,143.314,173,146.37L173,146.37z"/>
	<path id="XMLID_41_" fill-rule="evenodd" clip-rule="evenodd" fill="#FBFBFA" d="M0,232.777v8.565l5,0.22
		c0.896,1.932,0.568,3.13,1.948,5.489c2.088,3.569,2.85,1.472,2.919,4.385c-2.725,1.633-3.552-0.391-4.616-2.189
		c-1.3-2.197-1.693-3.212-2.106-5.913L0,243.923v17.937c1.554,0.679,1.699,0.336,2.463,1.795L0,263.743v4.329
		c14.457-2.013,14.624-1.809,25.944-7.474c-0.374-2.367-1.349-3.312,0.115-4.93c1.568,0.915,0.58,0.313,1.818,2.963
		c0.309,0.664,0.364,0.741,0.625,1.098l2.558-0.347c-0.583-3.366-2.352-6.245-2.881-10.932c-0.624-5.524,0.236-7.977,1.07-12.96
		c-7.762,1.225-1.391,2.594-5.249,4.355c-2.556-4.666-1.799-8.958-8.492-8.84C10.796,231.088,4.862,232.273,0,232.777L0,232.777z"/>
	<path id="XMLID_40_" fill-rule="evenodd" clip-rule="evenodd" fill="#FBFBFA" d="M211.871,169.128
		c3.925,0.572,7.127,0.361,8.315-2.945c1.091-3.037,2.371-5.982,3.272-8.627c-9.432,4.402-6.444,2.141-11.739,4.15L211.871,169.128
		L211.871,169.128z"/>
	<path id="XMLID_39_" fill-rule="evenodd" clip-rule="evenodd" fill="#FBFBFA" d="M202.186,171.306
		c3.547,0.088,5.076-0.323,7.701-1.945l0.376-7.441l-11.373,1.359L202.186,171.306L202.186,171.306z"/>
	<path id="XMLID_38_" fill-rule="evenodd" clip-rule="evenodd" fill="#D3F9F9" d="M136.064,360h108.939l-1.984-17.968
		c-0.268-1.743,0.423-0.835-0.516-1.534c0-0.741,0.084-2.396,0.012-3.094c-0.169-1.644,0.492-1.422-0.579-1.045
		c-0.002,0.001-1.185,1.336-1.104,2.642c-0.123-1.027-0.159-3.068-0.183-3.363c-0.09-1.093-0.151-1.929-0.151-3.137
		c0.087,0.142,0.554,0.139,0.656,0.113c4.506-1.149-3.093,2.41,1.344-0.612l-8.495-35.285c-0.536-1.921-1.192-3.61-1.708-5.693
		l-1.297-3.52c-1.936,1.394-1.407-1.671-1.5,1.5c-0.653-2.244,0-1.224-2.42-1.534c-0.423-0.054-2.025,0.034-2.58,0.034v-3.505
		c0.213,1.296-0.579,0.933,1.065,1.106c1.609,0.169,0.983,0.469,1.708-0.983c0.895-1.793-0.01-4.293-0.273-5.618
		c-2.406,0.805-1.984-0.852-1.997,2.248l0.041-2.639c-0.008-0.104-0.037-0.256-0.054-0.363c-0.683-4.374-0.122-5.706-1.283-7.653
		c-0.398-1.617-1.931-2.836-3.158-4.637c-5.176-7.596-8.124-16.827-13.893-24.612c-8.306-11.208-23.695-3.678-31.669,3.642
		l-8.148,7.352c-2.407,2.029-5.378,5.397-8.336,6.748c-9.13-5.086,2.61-14.678-22.46-34.636c-2.367-1.885-8.518-6.701-11.531-7.647
		c0.488,12.071,1.782,24.491,2.444,36.687c0.341,6.269-0.317,12.64-0.435,19.005l1.155,37.892
		c0.573,5.692,1.541,11.457,2.103,17.215C130.883,338.448,134.302,348.976,136.064,360L136.064,360z"/>
	<path id="XMLID_37_" fill-rule="evenodd" clip-rule="evenodd" fill="#D3F9F9" d="M253,236.896
		c2.459-3.464,1.73-14.715,4.739-22.658c2.546-6.719,4.219-13.987,6.765-20.737c3.538-9.381,13.704-22.612,11.411-28.902
		c-1.191-3.265-2.963-6.749-6.599-6.278c-1.626,3.232-1.371,7.225-3.386,11.117c-1.742,3.364-3.039,5.791-4.84,9.158
		c-5.364,10.026-2.167,8.317-9.424,18.572c-7.615,10.761-11.404,14.173-19.944,22.067c-2.365,2.187-4.506,4.643-7.658,6.139
		c5.145,1.512,10.744,3.051,15.533,5.028C244.331,232.357,249.223,235.416,253,236.896L253,236.896z"/>
	<path id="XMLID_36_" fill-rule="evenodd" clip-rule="evenodd" fill="#D3F9F9" d="M133.616,219.878
		c8.836,6.21,20.282,16.143,22.432,27.542c0.437,2.316,0.789,5.79,1.952,7.468c1.922-1.015,5.323-3.905,7.015-5.378
		c2.447-2.128,4.257-3.586,6.478-5.518c7.292-6.342,9.769-6.488,13.789-9.255c0.835-0.574,0.367-0.191,0.926-0.787
		c-11.594-1.529-27.979-7.972-37.158-12.999c-10.313-5.649-18.799-10.796-23.368-20.616l-1.507-3.102
		c-0.676-0.92-0.091-0.28-0.938-0.956c-1.045,5.252-0.834,9.11-0.83,14.722c0.002,2.098,3.871,3.544,5.424,4.677
		C129.773,217.094,131.563,218.436,133.616,219.878L133.616,219.878z"/>
	<path id="XMLID_35_" fill-rule="evenodd" clip-rule="evenodd" fill="#D3F9F9" d="M95.505,218.598
		c5.295,11.752,6.839,18.592,6.343,33.527c7.615-1.304,13.54-4.666,20.21-7.103c0.381-4.662,0.116-10.257,0.115-15.022
		c-0.003-15.372,1.366-15.1-6.588-13.386L95.505,218.598L95.505,218.598z"/>
	<path id="XMLID_34_" fill-rule="evenodd" clip-rule="evenodd" fill="#D3F9F9" d="M300.679,217.962
		c0.122-6.758-0.132-12.091,1.118-18.71c1.84-9.74,3.158-9.034,5.369-14.877c-4.85-0.357-9.696-1.074-14.66-1.258
		c-4.965-0.183-9.288-1.568-14.209-2.454c1.241,8.212,9.376,22.583,13.02,31.517c0.971,2.38,0.901,3.311,3.281,4.234
		C296.306,217.077,298.823,217.626,300.679,217.962L300.679,217.962z"/>
	<path id="XMLID_33_" fill-rule="evenodd" clip-rule="evenodd" fill="#A59681" d="M371.999,194.185
		c2.8,1.596,1.423,1.797,2.365,4.624l3.636,0.679c1.926-2.154,1.408-2.738,4.459-4.044c2.814-1.205,4.694-0.53,7.646-1.143
		c1.432-0.757,0.834-2.784,0.801-4.791c-0.03-1.832-0.017-3.677-0.012-5.511c0.023-10.816-1.068-20.421,4.127-28.976
		c7.237-11.921,16.002-11.009,32.98-11.009l111,0.005c5.821,0.002,16.201-0.593,21.495,0.429
		c10.463,2.019,18.511,12.813,18.504,25.531c-0.008,14.84-0.03,29.68-0.03,44.521c0,7.326,0.68,13.939-1.286,20.719
		c-4.957,17.095-8.939,34.997-14.053,52.423c-3.779,12.879-8.506,36.475-24.814,41.63c-5.737,1.814-57.03,0.875-65.317,0.875
		c-8.772,0-37.136,1.07-43.397-1.238c-18.575-6.849-23.611-40.691-28.759-59.743c-1.6-5.92-3.077-11.474-4.666-17.358l-4.747-17.39
		c-3.286-1.2-7.01-1.523-10.022-2.855c-3.384-1.497-4.903-3.317-8.799-3.604l-1.166,0.055c2.998,13.629,7.938,28.768,11.468,42.594
		c4.077,15.969,11.278,48.03,19.201,61.798c3.137,5.45,7.623,11.052,13.013,13.935c6.544,3.501,16.191,2.48,24.376,2.48
		c14.777,0,103.014,0.459,107.607-0.355c20.018-3.552,26.85-32.039,31.279-49.54c5.539-21.889,11.721-42.739,17.222-64.318
		c2.556-10.025,1.73-13.872,1.73-25.108c0-17.996,0.106-36.024-0.007-54.017c-0.101-16.098-8.313-29.657-23.802-30.061
		c-17.78-0.464-36.18-0.026-54.029-0.026c-36,0-72,0-108,0c-15.486,0-30.154-2.847-37.789,16.266
		c-2.944,7.37-2.25,16.349-2.258,24.838C371.945,175.3,371.475,185.567,371.999,194.185L371.999,194.185z"/>
	<path id="XMLID_32_" fill-rule="evenodd" clip-rule="evenodd" fill="#A59681" d="M395.215,195.522
		c4.045,0.779,8.117,0.415,11.721,1.088c5.549,1.037,5.084,1.833,6.503,6.348l2.365,0.309c-1.045-6.455-1.255-22.058,3.528-28.422
		c6.962-9.264,13.664-7.279,25.169-7.279c9.607,0,90.988-0.872,96.501,0.424c7.642,1.795,13.043,9.553,13.287,18.989l-0.141,48.151
		c-0.731,4.248-2.071,9.194-2.91,13.632c-1.651,8.731-3.511,17.947-5.48,26.529c-2.231,9.723-2.497,17.396-8.066,24.384
		c-6.995,8.777-12.611,7.056-25.69,7.057l-65.001,0.023c-20.467-0.038-21.278-24.361-24.708-40.549
		c-1.788-8.442-4.674-19.449-5.507-27.286l-19.035-2.675l-1.632-0.332c1.144,5.288,2.965,11.224,4.45,16.5
		c4.665,16.561,8.498,33.927,13.475,50.039c2.798,9.056,10.458,21.447,18.939,23.544c5.692,1.407,72.333,0.573,84.019,0.574
		c14.813,0,23.673,2.777,32.007-10.547c6.851-10.952,8.143-17.728,11.582-30.961c2.9-11.16,5.922-22.261,9.014-33.455
		c5.066-18.342,5.706-17.842,5.706-36.105c0-14.148,0.162-28.366,0.051-42.502c-0.054-6.975-0.66-11.927-4.086-16.792
		c-7.913-11.236-17.756-8.585-33.774-8.513L431,147.71c-16.694,0.09-25.288-2.703-32.955,9.347
		c-5.017,7.886-3.363,23.421-3.494,33.452C394.512,193.58,394.173,193.902,395.215,195.522L395.215,195.522z"/>
	<path id="XMLID_31_" fill-rule="evenodd" clip-rule="evenodd" fill="#A59681" d="M445.14,190.432
		c-6.969,1.534-7.512,7.972-7.531,16.068c-0.085,37.283-0.822,22.733,9.293,61.6c5.152,19.795,12.394,15.911,31.098,15.888
		c7.834-0.01,15.667-0.002,23.5-0.001c10.579,0.001,12.91,1.348,17.665-6.318c3.536-5.702,8.927-28.273,10.945-36.096
		c0.597-2.314,2.113-6.895,2.223-9.095c0.282-5.619,0.174-32.646-0.611-35.223c-2.28-7.486-7.81-7.087-16.222-7.085
		C506.728,190.172,448.564,189.679,445.14,190.432L445.14,190.432z"/>
	<path id="XMLID_30_" fill-rule="evenodd" clip-rule="evenodd" fill="#A59681" d="M419.324,204.116
		c4.044,0.5,12.51,1.912,13.511,6.543c0.907,4.188-0.515,3.004-1.387,5.569l1.785,1.385c1.268-1.591,0.731-9.557,0.721-11.613
		c-0.06-13.551,2.093-19.45,18.046-19.442c7.352,0.004,69.438-0.592,73.622,0.261c6.311,1.287,10.181,7.25,10.397,14.667
		c0.221,7.589,0.733,29.442-1.135,36.382c-0.854,3.171-1.785,6.421-2.682,9.85c-3,11.482-6.437,29.635-13.21,36.299
		c-5.143,5.06-12.337,3.622-20.994,3.622c-8.331,0-16.671-0.043-25,0.006c-17.217,0.102-24.02,2.283-29.892-19.796
		c-1.728-6.501-9.087-31.107-9.146-37.382c-0.017-1.71,0.101-2.067-0.488-2.887l-3.059,1.414c0.59,8.62-1.078,9.337-9.673,9.952
		c0.08,3.893,9.507,47.65,10.328,50.475c1.147,3.946,2.946,7.168,5.421,9.578c3.524,3.433,5.188,4.032,11.509,4.095l61.502,0.007
		c10.839,0,20.09,1.744,25.193-5.399c4.847-6.784,5.368-14.107,7.344-23.187l7.947-38.158c1.413-6.093,0.749-37.65,0.775-45.356
		c0.027-8.219-1.903-17.652-11.279-19.514c-4.499-0.894-82.96-0.275-91.48-0.275C426.455,171.211,416.779,168.38,419.324,204.116
		L419.324,204.116z"/>
	<path id="XMLID_29_" fill-rule="evenodd" clip-rule="evenodd" fill="#D2F8F8" d="M223.705,270.096
		c1.161,1.946,0.601,3.279,1.283,7.653c0.017,0.108,0.045,0.259,0.054,0.363L225,280.751c0.014-3.1-0.409-1.443,1.997-2.248
		c0.263,1.325,1.169,3.825,0.273,5.618c-0.725,1.452-0.099,1.152-1.708,0.983c-1.643-0.173-0.852,0.19-1.065-1.106v3.505
		c0.555,0,2.157-0.087,2.58-0.034c2.42,0.309,1.767-0.71,2.42,1.534c0.093-3.171-0.436-0.106,1.5-1.5l1.297,3.52
		c0.517,2.083,1.173,3.772,1.708,5.693L242.498,332c-4.437,3.023,3.162-0.537-1.344,0.612c-0.102,0.026-0.569,0.03-0.656-0.113
		c0,1.208,0.061,2.044,0.151,3.137c0.024,0.295,0.06,2.336,0.183,3.363c-0.081-1.305,1.103-2.641,1.104-2.642
		c1.071-0.377,0.409-0.599,0.579,1.045c0.072,0.698-0.012,2.353-0.012,3.094c0.939,0.699,0.248-0.209,0.516,1.534L245.002,360
		h77.386c-0.849-15.833-6.359-32.042-7.411-50.51c-0.354-6.223-2.865-18.53-4.519-24.459c-0.999-3.582-0.051-3.263-2.646-11.83
		c-7.879-26.011-14.136-51.347-25.599-75.897c-1.364-2.923-4.077-7.015-4.467-10.127c-0.481-3.846-1.244-8.032-2.269-11.621
		c-3.207,2.847-11.632,23.274-13.567,28.882c-1.724,4.996-3.311,11.237-4.11,16.889c-0.475,3.367-0.347,6.38-0.645,9.699
		c-0.193,2.14-0.791,2.585-1.231,4.421c-0.554,2.313,0.168,1.291,0.272,3.271c-6.263,0.606-11.451-3.963-16.09-6.328l-15.857-4.661
		c-1.135-0.167-0.389-0.057-1.213-0.046c-0.094,0.001-0.335,0.189-0.402,0.057c-0.068-0.133-0.273,0.033-0.403,0.074
		c-0.713,1.965,2.573,18.924,3.165,22.74c0.595,3.83,1.139,7.37,1.841,11.219c0.602,3.305,1.91,7.644,2.138,10.628
		C226.144,273.034,225.77,271.114,223.705,270.096L223.705,270.096z"/>
	<path id="XMLID_28_" fill-rule="evenodd" clip-rule="evenodd" fill="#6E6656" d="M640,59.492v-34.99c-9.769,0-18.386-0.5-28.5-0.5
		L454,23.503c-5.869,0-8.552,0.42-12.096-2.016C434.036,16.08,435.498,9.273,435.498,0h-34.433c0,12.499,0.038,25,0.038,37.5
		c0,8.223-0.983,16.302,6.806,21.594c2.708,1.84,4.469,1.723,8.094,1.655c24.916-0.468,49.981-0.028,74.898-0.489
		c24.645-0.456,49.856-0.23,74.6-0.379C590.257,59.731,615.18,59.492,640,59.492L640,59.492z"/>
	<path id="XMLID_27_" fill-rule="evenodd" clip-rule="evenodd" fill="#655D56" d="M0,138.002v92.391
		c10.522-0.132,18.29-5.408,24.5,3.187l4.061-0.648c-0.074-6.028,2.431-4.187,7.632-5.262c3.559-0.736,8.022-1.459,11.789-1.632
		c4.09-0.189,24.627,0.317,26.286-0.758c-2.059-0.539-4.376-0.135-6.645-0.096c1.068-9.525,0.158-24.562,0.172-34.684
		c0.018-13.421,0.447-19.272,7.16-28.026c6.329-8.253,10.978-9.601,23.927-11.172l31.239-3.915
		c0.994-4.785,2.072-8.817,3.351-13.417c1.166-4.192,3.381-9.297,4.118-13.213l-1.454,0.84c-0.102,0.034-0.583,0.042-1.547-0.021
		c-1.532-0.101-3.612-0.166-5.137-0.055c-4.648,0.34-18.738,2.896-25.525,3.465l-13.472,1.539c-2.568,0.238-1.849,0.634-3.638,0.913
		c-3.011,0.471-6.051,0.344-9.248,0.771l-8.065,1.299c-7.505,0.193-18.334,2.348-26.268,3.357c-1.649,0.21-3.008,0.068-4.694,0.329
		L0,138.002L0,138.002z"/>
	<path id="XMLID_26_" fill-rule="evenodd" clip-rule="evenodd" fill="#524941" d="M327.498,191.315l23.218,0.399L350.761,0h-23.942
		l-0.028,179.5C326.791,182.92,325.851,188.607,327.498,191.315L327.498,191.315z"/>
	<path id="XMLID_25_" fill-rule="evenodd" clip-rule="evenodd" fill="#645B54" d="M231.792,91.984
		c0.084,0.106,0.226,0.119,0.272,0.299l1.944,1.727c3.287,2.37,1.881,1.201,4.508,4.494c1.97,2.471,7.961,11.984,9.226,12.923
		c2.206-0.629,5.374-0.759,8.176-1.145c5.07-0.697,29.769-3.386,31.951-4.214c0.151-0.057,0.581-0.235,0.726-0.303
		c0.113-0.053,0.241-0.114,0.351-0.171c0.141-0.073,0.541-0.302,0.672-0.384l5.212-3.319c2.544-2.106,4.479-7.01,5.305-9.464
		c1.717-5.094,0.862-81.376,0.862-92.427h-16.146c0,12.164,0,24.322,0,36.5c0,5.772-0.468,12.437-0.188,18
		c0.218,4.331,0.63,13.657-0.066,17.681c-0.862,4.979-3.618,8.797-6.653,11.746c-6.487,6.3-16.485,4.499-21.415,5.252
		L231.792,91.984L231.792,91.984z"/>
	<path id="XMLID_24_" fill-rule="evenodd" clip-rule="evenodd" fill="#544B42" d="M326.862,360h19.326l0.001-125.501
		c0.002-1.32-0.016-2.71,0.032-4.023c0.088-2.41,0.484-2.176-0.228-3.671c-4.654-1.253-13.568-4.068-17.996-4.3
		c-2.573,1.463-0.48-0.403-0.827,1.048C326.257,227.363,326.882,355.968,326.862,360L326.862,360z"/>
	<path id="XMLID_23_" fill-rule="evenodd" clip-rule="evenodd" fill="#8A8179" d="M91.498,253.518
		c-0.139,0.092-0.634,0.618-0.699,0.736c-0.545,0.983-0.724,1.017-0.483,2.723l13.458,48.719
		c3.835,12.747,7.499,38.276,24.309,42.517l-0.332-1.919c0.361-4.175-2.355-18.191-2.993-23.606
		c-0.931-7.892-1.606-15.661-2.409-23.525c-0.54-5.283-0.282-44.676-0.103-52.094c-3.066,0.827-8.371,3.673-15.285,5.875
		C91.665,257.814,99.78,252.085,91.498,253.518L91.498,253.518z"/>
	<path id="XMLID_22_" fill-rule="evenodd" clip-rule="evenodd" fill="#5F5848" d="M640,102.357v-3.524
		c-85.103,0-170.353,0.796-255.502,1c-5.862,0.014-11.815-0.479-14.623-8.245c-2.267-6.269-1.103-35.884-1.103-45.089
		c0-15.5-0.057-31.004-0.057-46.5h-3.686c0,15.666,0.03,31.333,0.03,47c0,13.228-2.531,42.436,3.474,49.439
		c1.052,1.227,1.668,2.377,2.715,3.32c1.949,1.755,5.035,3.485,8.227,3.66c7.708,0.423,16.234,0.02,24.025,0.014
		C482.302,103.375,561.263,102.357,640,102.357L640,102.357z"/>
	<path fill-rule="evenodd" clip-rule="evenodd" fill="#050101" d="M173.151,166.5c2.7-3.26,10.579-3.814,15.848-3.816
		c7.83-0.002,10.867,1.627,10.488,9.809c-2.646,1.277-12.459,5.225-15.536,4.078C180.956,175.453,175.014,169.79,173.151,166.5
		L173.151,166.5z M198.89,163.278l11.373-1.359l-0.376,7.441c-2.626,1.622-4.155,2.033-7.701,1.945L198.89,163.278L198.89,163.278z
		 M236.463,168.902l-14.594-0.56c0.652-3.931,2.519-3.444,3.488-11.535c2.567-1.24,11.273-2.734,14.542-2.784
		C240.229,161.371,239.383,163.171,236.463,168.902L236.463,168.902z M211.871,169.128l-0.152-7.422
		c5.295-2.01,2.307,0.252,11.739-4.15c-0.901,2.645-2.181,5.591-3.272,8.627C218.998,169.488,215.796,169.7,211.871,169.128
		L211.871,169.128z M193.337,154.5c0.857-1.426,2.966-2.656,4.609-3.561c6.422-3.534,14.249-5.662,21.804-4.969
		c-1.096,3.354-6.653,9.123-9.572,10.168C204.955,158.009,197,157.427,193.337,154.5L193.337,154.5z M175.269,148.681
		c1.874-7.305,15.846-8.721,24.432-6.934c-3.765,2.095-8.946-1.262-9.187,3.852c2.287-0.324,0.491-0.249,2.519-1.08
		c1.283-0.525,7.218-1.05,8.281-0.519c-2.252,2.248-4.782,0.706-6.113,4.707c1.098-0.622,3.794-2.395,4.934-2.505
		c2.266-0.219,0.419-0.283,1.257,0.298c-1.198,1.434-4.464,2.367-6.493,3.398c-3.613,1.836-2.623,2.189-4.899,4.42
		C182.794,154.217,179.83,150.843,175.269,148.681L175.269,148.681z M173,146.37c-4.848-3.056-10.221-13.731-10.309-21.369
		c-0.087-7.616,6.146-18.917,11.536-20.257c11.27-2.802,26.621,21.783,27.52,35.624c-5.184-1.444-11.428-1.907-17.089-0.697
		C177.15,141.278,176.501,143.695,173,146.37L173,146.37z M223,146.312c-0.882-1.475-0.376-2.214-2.604-2.702
		c-3.786-0.829-9.816,1.071-13.208,1.601c-4.176,0.653-2.904-3.045-3.059-6.229c-0.39-8.001-5.989-12.615-0.778-25.629
		c2.014-5.03,3.761-9.445,8.329-11.689C229.833,92.746,244.679,133.207,223,146.312L223,146.312z M198.5,121.978
		c-3.184-3.381-5.427-8.038-8.757-11.225c-4.468-4.275-4.515-5.569-12.425-7.624c-6.826-1.774-9.785,4.109-12.088,7.606
		c-3.103,4.711-5.409,7.609-5.015,15.159c0.62,11.896,8,20.209,15.037,24.855c4.814,3.178,8.102,4.032,14.787,5.128
		c5.333,0.874,1.835,3.434,16.893,3.757c-8.087,2.444-31.729-1.152-36.837,3.98c-4.973,4.997,9.186,14.137,12.1,16.178
		c3.107,2.176,4.461,1.449,8.18,0.087c11.482-4.209,17.399-9.597,32.14-8.786c7.774,0.428,14.415,3.033,17.275-1.309
		c3.083-4.678,4.104-11.085,2.721-17.385c-8.622-5.17-20.44,4.736-32.157,6.507c4.338-3.383,4.565-1.475,10.056-7.995
		c2.032-2.412,4.904-1.907,10.339-8.151c12.803-14.709,3.169-47.966-18.209-43.776C201.026,101.24,200.292,118.721,198.5,121.978
		L198.5,121.978z"/>
	<path id="XMLID_12_" fill-rule="evenodd" clip-rule="evenodd" fill="#433931" d="M360.559,360h20.196
		c-0.467-2.111,0.609-1.153-2.602-2.196c-0.105-0.034-0.346,0.027-0.423-0.147c-0.077-0.175-0.297-0.074-0.422-0.156l-0.216-25.228
		c-1.402-1.17-13.22-6.318-15.443-6.689C361.036,335.053,362.692,351.562,360.559,360L360.559,360z"/>
	<path id="XMLID_11_" fill-rule="evenodd" clip-rule="evenodd" fill="#8C8472" d="M313.228,281.909
		c-0.301,6.646,5.372,20.226,4.978,28.462c0.92-0.657,1.279,0.739,1.096-5.371l-0.031-17c-0.007-7.501-0.015-14.999-0.013-22.5
		c0.002-7.157,0.441-41.042-0.197-45.132l-3.794-0.152l-2.284,0.285C313.194,240.911,312.61,261.812,313.228,281.909
		L313.228,281.909z"/>
	<path id="XMLID_10_" fill-rule="evenodd" clip-rule="evenodd" fill="#5A514A" d="M226.938,88.56
		c1.297,1.258,3.18,2.794,4.853,3.424l24.736-2.805c4.93-0.752,14.928,1.049,21.415-5.252c3.035-2.949,5.792-6.767,6.653-11.746
		c0.696-4.024,0.285-13.35,0.066-17.681c-0.28-5.563,0.188-12.229,0.188-18c0-12.178,0-24.336,0-36.5h-3.624
		c0,12.001,0.001,23.978,0.001,36c0,13.623,1.795,27.549-1.184,38.954c-0.748,2.863-4.166,6.631-5.912,7.715
		c-4.772,2.963-8.626,2.094-14.645,2.808c-5.29,0.628-11.109,1.305-16.136,1.796L226.938,88.56L226.938,88.56z"/>
	<path id="XMLID_9_" fill-rule="evenodd" clip-rule="evenodd" fill="#5E5E5D" d="M169.081,93.021
		c7.364,0.432,8.845,1.169,14.02,4.382c1.988,1.234,3.546,2.214,5.639,3.357c4.611,2.519,2.899,2.501,5.26,4.409
		c4.156-2.325,2.875-7.78,5.666-11.493c2.404-3.198,1.903-0.163,3.048-5.478c0.952-4.42,1.912-4.263,2.693-6.096
		c-8.081-1.253-12.854,0.93-20.184,2.626c-3.198,0.739-5.459,2.473-8.078,3.94C173.586,90.664,171.82,90.159,169.081,93.021
		L169.081,93.021z"/>
	<path id="XMLID_8_" fill-rule="evenodd" clip-rule="evenodd" fill="#F8D9D8" d="M175.269,148.681
		c4.561,2.163,7.525,5.536,14.731,5.637c2.276-2.231,1.286-2.584,4.899-4.42c2.029-1.031,5.295-1.964,6.493-3.398
		c-0.839-0.581,1.009-0.516-1.257-0.298c-1.14,0.11-3.836,1.883-4.934,2.505c1.332-4.001,3.861-2.459,6.113-4.707
		c-1.063-0.531-6.998-0.006-8.281,0.519c-2.028,0.83-0.232,0.756-2.519,1.08c0.24-5.114,5.422-1.757,9.187-3.852
		C191.115,139.959,177.143,141.376,175.269,148.681L175.269,148.681z"/>
	<path id="XMLID_7_" fill-rule="evenodd" clip-rule="evenodd" fill="#F8A198" d="M193.337,154.5
		c3.663,2.927,11.618,3.509,16.841,1.638c2.919-1.045,8.476-6.814,9.572-10.168c-7.555-0.693-15.382,1.435-21.804,4.969
		C196.304,151.844,194.194,153.074,193.337,154.5L193.337,154.5z"/>
	<path id="XMLID_6_" fill-rule="evenodd" clip-rule="evenodd" fill="#746B63" d="M111.315,214.677l8.163-0.891
		c-2.7-10.243,0.06-13.269,1.946-21.626c-1.868,1.541-2.942,1.828-4.471,3.801c-1.193,1.538-2.405,2.943-3.265,4.797
		C111.329,205.838,111.255,208.478,111.315,214.677L111.315,214.677z"/>
	<path id="XMLID_5_" fill-rule="evenodd" clip-rule="evenodd" fill="#9E917D" d="M381.176,334.3
		c-1.333,1.997-0.731,21.438-0.608,23.343l8.125,0.113L381.176,334.3L381.176,334.3z"/>
	<path id="XMLID_4_" fill-rule="evenodd" clip-rule="evenodd" fill="#0F1211" d="M189.659,127.701
		c1.031-1.38,1.004-1.006,0.696-3.209c-0.932-0.968-1.147-1.244-2.716-1.273C186.089,125.186,186.702,128.262,189.659,127.701
		L189.659,127.701z"/>
	<path id="XMLID_3_" fill-rule="evenodd" clip-rule="evenodd" fill="#040404" d="M213.91,127.297
		c-0.425,0.824-0.579-1.221-0.417,1.63c0.001,0.005,0.433,1.69,0.44,1.717C218.557,130.379,218.204,125.551,213.91,127.297
		L213.91,127.297z"/>
	<path id="XMLID_2_" fill-rule="evenodd" clip-rule="evenodd" fill="#050808" d="M0,263.743l2.463-0.088
		c-0.764-1.459-0.909-1.116-2.463-1.795V263.743L0,263.743z"/>
</g>
</svg>
