<?xml version="1.0" encoding="utf-8"?>
<!-- Generator: Adobe Illustrator 19.0.0, SVG Export Plug-In . SVG Version: 6.00 Build 0)  -->
<svg version="1.1" id="Layer_1" xmlns="http://www.w3.org/2000/svg" xmlns:xlink="http://www.w3.org/1999/xlink" x="0px" y="0px"
	 viewBox="0 0 640 360" enable-background="new 0 0 640 360" xml:space="preserve">
<rect fill="#E6E8E6" width="640" height="360"/>
<g>
	<path fill="#E01325" d="M395.715,138.274c-0.213-11.845,8.644-13.233,12.379-10.245c2.348,2.134,3.522,5.763,0.64,8.644
		c-2.668,2.668-4.589,3.201-7.897,4.589c0.32,2.454,1.921,4.055,4.589,4.269c4.482,0,6.296-3.628,7.79-5.443
		c0.534-0.534,1.601-1.601,2.668-0.64c1.814,2.348-0.213,4.802-1.281,5.976c-2.134,2.454-8.644,5.122-13.019,2.988
		c-2.348-1.281-3.522-2.988-4.482-5.443c-0.534-1.174-1.067,0-1.814-1.494C394.221,139.448,395.501,138.914,395.715,138.274z
		 M483.755,232.397v3.949c0,0.854-0.213,0.64-1.174,1.601c-0.64,0.854-1.174,1.174-2.134,1.814c-1.921,1.067-4.055,1.601-6.19,2.134
		c-0.854,0.213-1.281,0.32-2.134,0.534c-2.775,0.854-5.976,1.494-8.857,1.921c-12.379,1.921-24.545,4.055-36.924,6.189
		c-2.775,0.32-6.616,0.854-9.178,1.601l-8.857,1.814c-5.336,1.067-10.458,2.348-15.687,3.308c-0.64,0-1.494,0.32-2.134,0.32
		c-6.189,1.281-11.845,2.454-18.035,3.735c-4.482,0.854-8.857,2.988-13.553,1.921c-0.64-0.213-1.174-0.534-1.921-0.854
		c-0.854-0.213-1.281-0.213-1.601-1.067c0-1.281,4.802-4.269,5.763-4.802l2.348-1.174c0.534-0.32,0.64-0.534,1.174-0.64
		c0.534-0.213,0.854-0.32,1.281-0.64l4.589-2.134c6.403-2.775,10.458-4.589,16.434-8.11c0.64-0.534,1.281-1.067,1.921-1.494
		c0.64-0.534,1.174-1.067,1.814-1.601c0.854-1.067,2.134-2.988,1.494-5.122c-0.534-1.601-1.601-3.201-3.308-3.735
		c-3.522-1.174-8.751,0.64-11.312,1.601l-4.909,2.134c-4.909,2.348-6.723,3.628-11.845,5.656c-0.854,0.32-1.494,0.64-2.454,0.854
		c0.32-0.64,3.522-4.482,3.948-4.802c1.174-1.174,2.668-1.814,3.735-2.988c1.067-1.067,2.454-1.921,3.735-2.775
		c1.601-1.174,3.628-2.348,5.443-3.308c3.949-1.814,13.446-6.616,15.901-8.431l1.814-1.494c1.494-1.174,2.454-2.668,3.522-4.269
		c0.534-1.067,0.854-1.921,0.854-3.522c0-5.443-7.257-6.189-11.739-6.189c-0.64,0-3.522,0.32-3.735,0.534
		c-0.534,0.213-1.067,0.534-1.494,0.854l-6.723,4.055c-0.534,0.213-1.067,0.534-1.494,0.64c-0.534,0.32-0.854,0.64-1.281,0.854
		c-2.988,1.601-18.142,11.312-19.422,11.312c0.534-1.494,1.174-2.988,1.814-4.055c1.067-1.494,1.921-2.775,3.201-4.055l2.134-2.134
		c0.32-0.32,0.534-0.534,0.854-0.64l11.312-9.071c1.814-1.494,4.055-3.522,5.656-4.589c1.281-1.174,6.296-6.403,5.656-8.644
		c-0.213-1.067-1.494-2.775-2.134-3.628c-3.201-3.948-8.11-3.948-12.913-2.348c-4.589,1.814-8.644,4.909-12.592,7.79l-3.201,2.668
		c-0.534,0.32-0.534,0.534-0.854,0.854c-0.32,0.213-0.534,0.32-0.854,0.534l-3.201,2.775c-0.32,0.32-0.32,0.32-0.854,0.64
		l-2.134,1.921c-0.534,0.64-1.067,0.854-1.494,1.494l-9.604,7.897c-2.775,1.921-5.763,3.948-8.644,5.763l-1.814,1.174
		c-3.201,1.814-6.403,3.628-9.711,4.589c-0.854,0.32-1.601,0.64-2.348,0.854c-0.854,0.213-1.601,0.32-2.454,0.32
		c0.213-1.174,4.802-6.403,5.763-7.47l1.921-2.348c0.213,0,0.213,0,0.213,0l8.644-9.071c1.601-1.601,9.071-9.178,10.458-10.458
		c1.814-1.601,5.656-5.763,7.577-6.723c0-1.174,0.213-6.296-0.213-6.937c-0.32-0.64-2.988-2.668-3.735-3.201
		c-1.494-0.854-3.308-1.601-5.443-1.281c-3.735,0.32-6.616,2.454-9.604,4.269c-1.281,1.067-2.454,1.921-3.948,2.988
		c-0.32,0.213-0.64,0.534-1.067,0.64l-10.885,8.431c-2.668,1.921-5.443,3.948-8.324,5.763l-8.751,5.122l-4.909,3.735
		c-1.601,1.281-3.522,2.454-5.443,3.308c-0.854,0.32-1.601,0.64-2.668,0.854c-3.308,0.534-5.763-0.534-8.324-1.921l-3.201-2.134
		c-1.921-1.601-3.628-3.522-5.336-5.122c-2.134-2.134-5.122-6.19-6.937-8.751c-1.921-2.668-3.948-5.336-5.763-8.11l-7.577-13.553
		c-3.308-5.763-7.897-11.525-14.833-13.019c-3.201-0.64-3.735-0.213-6.296,0c0,1.067-0.32,1.814-0.534,2.775
		c-0.213,0.854-0.213,1.921,0,2.988c1.067,4.589,4.909,5.122,7.043,12.379l5.122,14.193c0.64,1.601,1.174,2.988,1.814,4.589
		c1.281,3.201,2.454,6.189,3.735,9.178c2.668,6.616,5.336,13.446,7.257,20.276c0.213,0.534,0.213,1.067,0.32,1.281
		c0.64,2.668,1.281,5.122,1.281,8.11c-2.134,0-8.644-3.522-10.565-4.589c-3.201-1.814-6.403-3.735-8.857-6.403
		c-1.174-1.067-1.601-2.134-2.348-3.522c-0.213-0.534-0.32-0.854-0.64-1.281l-3.628-7.79c-0.32-1.067-0.854-1.601-1.174-2.668
		l-9.071-19.422c-1.814-3.948-3.735-7.79-5.443-11.739l-2.454-5.336c-2.134-4.269-3.948-8.644-6.19-12.913l-19.102-39.805
		c-1.814-3.308-3.308-6.937-4.909-10.245l-11.525-24.758c-0.32-0.64-2.348-4.269-2.454-5.122V77.66l5.656-1.281
		c0.32,0.534,0.854,1.067,1.281,1.601c0.64,0.64,0.64,1.067,1.814,1.494c1.281,0.64,3.201,0.854,4.589,1.494l33.936,15.901
		c8.431,3.948,16.968,7.79,25.612,11.739c5.443,2.775,11.312,5.443,16.861,7.897l21.343,9.925c2.454,1.174,1.814,1.494,4.482,0.534
		c3.308-1.067,6.296-1.814,9.178-2.988c1.281-0.64,3.308-1.601,4.482-1.921c5.336-1.174,7.043-0.854,9.604-5.976
		c0.32-0.64,0.64-1.494,1.067-2.134c0.534,0,3.948,0.32,4.909,0.32c9.711,0,25.078-3.201,34.149-5.122
		c15.687-3.522,29.88-7.577,45.034-10.885c3.201-0.854,6.19-1.494,9.071-2.134c12.379-2.668,24.758-5.443,37.137-7.577
		c5.656-1.067,14.727-2.775,20.276-2.348c0,0.213,0,0,0,0.213c0.534,1.067,4.269,16.007,4.482,16.861
		c2.348,9.071,4.589,16.861,6.403,26.145c0.854,3.948,1.067,4.802,2.134,8.644c3.308,11.312,6.189,23.157,8.857,34.362
		l13.233,51.544c0.32,1.494,0.64,2.988,1.067,4.482c0.32,0.64,0.534,1.494,0.64,2.134
		C483.435,230.903,483.755,231.757,483.755,232.397L483.755,232.397z M421.113,124.081c2.348-2.668,6.296-4.802,9.925-3.948
		c3.735,0.64,6.616,3.628,7.897,6.723c1.814,4.482-0.32,8.11-2.348,10.885c-0.854,1.067-2.775,2.775-3.735,3.628
		c-1.814,1.067-3.522,1.174-5.763,0.854c0.213,1.281,2.775,8.324,3.628,10.458c0.32,1.281,0,1.921-1.814,2.348
		c-1.601,0.32-2.134-0.64-2.668-1.921c-2.454-7.47-5.656-16.434-8.431-23.798c-1.067-2.348-2.988-5.443-2.775-6.403
		c0.32-1.174,2.454-1.174,3.522-0.854c1.281,0.534,1.494,1.494,2.348,2.348L421.113,124.081z M374.372,137.847
		c0.213,0.534,0.213,0.32,0.32,0.534c2.454-7.79,12.059-9.071,14.727,0c1.174,3.948,0.64,7.79-1.281,11.098
		c-1.067,1.281-1.921,2.775-2.988,3.628c-2.134,1.814-3.522,1.494-5.122,1.174c0,2.775-4.055,2.668-5.443-1.067
		c-0.854-2.454-1.601-5.336-2.348-7.79c-2.668-8.11-4.055-14.833-7.257-22.944c-0.854-1.814,0.64-2.454,2.348-1.814
		c2.988,1.174,4.055,6.723,4.909,9.925c0.32,1.281,0.854,2.668,1.174,3.948L374.372,137.847z"/>
	<path id="XMLID_14_" fill="#A9A9A9" d="M161.901,76.379c0.32,0.534,0.854,1.067,1.281,1.601c0.64,0.64,0.64,1.067,1.814,1.494
		c1.281,0.64,3.201,0.854,4.589,1.494l33.936,15.901c8.431,3.948,16.968,7.79,25.612,11.739c5.443,2.775,11.312,5.443,16.861,7.897
		l21.343,9.925c2.454,1.174,1.814,1.494,4.482,0.534c3.308-1.067,6.296-1.814,9.178-2.988c1.281-0.64,3.308-1.601,4.482-1.921
		c5.336-1.174,7.043-0.854,9.604-5.976c0.32-0.64,0.64-1.494,1.067-2.134c0.534,0,3.948,0.32,4.909,0.32
		c9.711,0,25.078-3.201,34.149-5.122c15.687-3.522,29.88-7.577,45.034-10.885c3.201-0.854,6.19-1.494,9.071-2.134
		c12.379-2.668,24.758-5.443,37.137-7.577c5.656-1.067,14.727-2.775,20.276-2.348c-1.067-2.348-1.281-1.067-3.522-1.601
		l-3.201-1.067c-0.64-0.32-0.213,0-0.32-0.534c-0.32-0.32-0.534-2.134-0.64-2.775c-0.64-2.775-2.988-4.802-5.336-6.296
		c-1.921-1.067-6.189-3.201-8.11-3.628c-1.067-0.213-2.134-0.213-3.201-0.32c-0.213,0-2.668,0-3.201,0.213
		c-6.296,0.534-14.193,1.814-20.276,3.201l-16.434,3.735l-15.901,4.269c-2.775,0.854-2.775,0.64-5.443,1.281
		c-1.921,0.32-3.628,0.64-5.656,1.174c-9.604,2.134-16.434,4.482-25.398,8.11c-1.601,0.64-3.201,1.281-4.589,1.921l-13.019,7.043
		c-1.921,1.174-3.949,2.668-5.976,4.055l-4.482,3.628c-0.534,0.32-0.64,0.64-1.067,1.067c-1.921,1.494-3.522,3.735-4.482,3.948
		c-0.854,0-0.854-0.213-1.281,0.213c-0.854,0.534-1.601,0.854-2.348,1.174l-1.174-3.308c-0.64-1.921-1.814-4.482-2.988-6.19
		l-3.948-5.122c-0.64-0.854-1.494-1.601-2.348-2.348l0,0l-0.534-0.32c-1.601-1.494-2.348-2.348-4.482-3.735l-2.668-1.814
		c-0.854-0.64-1.601-1.174-2.668-1.814c-2.348-1.494-9.711-5.443-11.845-6.296c-1.921-0.854-3.735-1.814-6.403-2.775l-21.343-8.11
		c-0.64-0.213-1.067-0.32-1.601-0.64l-17.181-5.443c-2.348-0.64-4.802-1.281-7.257-1.814c-1.814-0.534-5.976-1.281-7.79-1.281
		c0,1.174,0.64,4.055,0.854,5.122c0.534,1.814,1.281,2.775,1.814,4.482c-1.921,0-3.948,0-5.763,0c-6.403,0-13.98,1.174-20.169,3.201
		c-4.589,1.601-7.257,1.921-12.059,0.534C163.181,76.913,162.434,76.592,161.901,76.379z"/>
	<path id="XMLID_13_" fill="#E01325" d="M188.793,278.072c0,3.201,0,4.909,1.494,7.79c1.494,2.988,3.948,5.656,7.043,7.043
		c10.458,4.802,21.45-3.522,21.45-13.233c0-2.668-0.213-4.482-1.174-6.723c-1.601-3.522-3.628-5.443-6.937-7.257
		c-4.055-2.348-9.391-2.134-13.766-0.213C192.635,267.614,188.793,273.163,188.793,278.072z"/>
	<path id="XMLID_12_" fill="#E01325" d="M226.997,281.593c0,2.668,0.213,4.055,1.174,6.403c0.534,1.067,1.174,2.134,1.814,2.988
		c0.64,0.64,0.854,1.174,1.601,1.601c1.067,0.854,1.494,1.281,2.775,1.921c1.601,0.854,3.628,1.281,5.656,1.494h2.134
		c1.814-0.213,3.628-0.64,5.336-1.494c6.296-3.628,9.391-11.098,6.296-18.142c-4.909-11.098-20.489-10.885-25.398-0.32
		C227.638,277.431,226.997,279.673,226.997,281.593z"/>
	<path id="XMLID_11_" fill="#E01325" d="M262.213,268.361c0,6.296,4.589,10.885,10.031,10.885c3.201,0,5.443-0.64,7.577-2.988
		c2.775-2.668,3.308-4.589,3.308-8.324c0-4.909-4.909-9.711-10.031-9.711c-3.522,0-5.763,1.067-7.897,3.201
		C263.494,263.025,262.213,265.906,262.213,268.361z"/>
	<path id="XMLID_10_" fill="#E01325" d="M289.746,254.381c0,4.055,3.201,7.257,6.403,7.257c2.988,0,4.589-0.64,6.296-2.988
		c1.921-2.454,1.601-6.403-0.854-8.857c-1.814-1.921-5.122-2.775-7.577-1.601c-1.601,0.854-2.775,1.814-3.628,3.522
		C290.066,252.247,289.746,253.527,289.746,254.381z"/>
	<path id="XMLID_9_" fill="#E01325" d="M378.854,152.147c1.494-1.174,1.921-1.174,3.628-2.775c2.668-2.668,3.735-5.763,2.775-9.604
		c-0.32-1.601-0.854-3.948-2.668-3.948c-2.988,0.213-5.336,4.482-6.403,6.723c-0.534,1.174-0.32,1.174,0,2.348
		C376.719,146.705,377.68,151.08,378.854,152.147z"/>
	<path id="XMLID_8_" fill="#E01325" d="M307.888,242.856c0,3.949,4.589,5.763,7.47,3.308c2.668-2.454,1.067-7.577-3.201-7.577
		C309.702,238.587,307.888,240.935,307.888,242.856z"/>
	<path fill="#FEFEFE" d="M378.213,152.361c-1.067-1.067-1.601-5.549-1.921-7.47c-0.213-1.174-0.427-1.174,0.213-2.348
		c1.387-2.348,3.949-6.616,6.83-6.83c1.814,0,2.028,2.348,2.348,4.055c0.64,3.842-0.64,7.043-3.522,9.711
		C380.241,151.187,379.707,151.187,378.213,152.361z M379.174,154.388c1.494,0.32,2.881,0.64,5.122-1.174
		c1.067-0.854,2.134-2.348,3.201-3.735c2.241-3.415,2.988-7.257,2.134-11.312c-1.921-9.178-11.312-8.004-14.3-0.107
		c-0.213-0.213-0.213,0-0.213-0.534l-0.747-3.415c-0.213-1.281-0.64-2.775-0.854-4.055c-0.64-3.201-1.174-8.964-4.055-10.138
		c-1.494-0.64-3.095,0-2.348,1.814c2.454,8.324,3.308,15.154,5.336,23.477c0.427,2.561,1.067,5.336,1.601,7.897
		C374.905,157.056,378.96,157.163,379.174,154.388z"/>
	<path fill="#FEFEFE" d="M400.09,137.1c0.534-6.19,4.269-7.577,5.656-6.083C407.88,133.579,402.331,136.567,400.09,137.1z
		 M395.822,138.274c-0.213,0.64-1.494,1.174-0.747,3.201c0.64,1.494,1.174,0.32,1.601,1.494c0.747,2.561,1.814,4.162,3.948,5.656
		c4.162,2.241,10.778-0.427,13.019-2.988c1.281-1.174,3.415-3.735,1.707-6.083c-0.96-1.067-2.134,0.213-2.668,0.64
		c-1.494,1.814-3.628,5.549-8.004,5.549c-2.561-0.213-4.055-1.921-4.162-4.375c3.415-1.494,5.336-1.921,8.11-4.695
		c2.988-2.775,2.134-6.51,0-8.751C405.213,124.828,396.569,126.109,395.822,138.274z"/>
	<path fill="#FEFEFE" d="M438.935,126.749c-1.067-3.201-3.522-6.296-7.257-6.937c-3.522-0.854-7.47,1.281-10.031,3.948l-0.213,0.213
		c-0.747-0.854-0.854-1.814-2.028-2.348c-0.96-0.32-3.095-0.32-3.522,0.854c-0.213,1.067,1.494,4.162,2.241,6.616
		c2.134,7.47,4.482,16.754,6.296,24.331c0.427,1.281,0.854,2.348,2.348,2.028c1.814-0.32,2.134-1.067,1.921-2.348
		c-0.64-2.241-2.775-9.178-2.775-10.672c2.241,0.32,3.842,0.213,5.763-0.854c1.067-0.854,3.201-2.668,3.948-3.735
		C437.974,135.073,440.322,131.444,438.935,126.749z M429.544,137.847c-1.281,0.854-2.454,0.854-4.269,1.067v-0.107l0,0
		c-0.107-0.213-0.534-1.707-0.854-3.415c-0.64-2.561-1.174-5.549-1.281-6.19c2.454-0.854,2.348-3.842,5.656-5.122
		c2.134-0.854,3.628-0.32,4.589,0.854c0.64,0.64,1.067,1.494,1.281,2.561C435.52,131.444,432.212,135.82,429.544,137.847z"/>
	<path id="XMLID_1_" fill="#E01325" d="M399.983,137.1c2.348-0.534,7.79-3.522,5.336-5.976
		C403.825,129.737,399.983,131.018,399.983,137.1z"/>
</g>
</svg>
