<?xml version="1.0" encoding="utf-8"?>
<!-- Generator: Adobe Illustrator 19.0.0, SVG Export Plug-In . SVG Version: 6.00 Build 0)  -->
<svg version="1.1" id="Layer_1" xmlns="http://www.w3.org/2000/svg" xmlns:xlink="http://www.w3.org/1999/xlink" x="0px" y="0px"
	 viewBox="0 0 640 360" enable-background="new 0 0 640 360" xml:space="preserve">
<rect fill="#002147" width="640" height="360"/>
<g>
	<path fill="#FFFFFF" d="M513.924,169.07h-0.698c-0.116,1.163-0.465,1.86-1.046,2.791l-4.186,5.581
		c-0.465,0.465-0.814,0.465-1.395,0.698c-0.698,0.349-0.698,0.698-1.163,1.163c-0.698,0.698-1.163,0.698-2.093,1.163l-0.116,0.116
		l-1.395,0.698c-0.698,0.349-1.163,0.349-2.093,0.698c0,0-0.116,0-0.116,0.116c0,0-0.116,0-0.116,0.116c0,0-0.116,0-0.116,0.116
		c0,0-0.116,0-0.116,0.116c-0.698,0.233-0.698,0.116-1.163,0.233c-1.163,0.233-0.698,0.698-2.558,0.698
		c-1.628,0-8.023,0.465-9.419-0.233c-0.698-0.349,0.698-0.116-1.046-0.465c-1.163-0.233-1.395-0.465-2.093-1.163l-0.116-0.116
		c-0.814-0.814-1.046-0.698-1.395-1.628l-0.349-0.814l-0.116-0.116l-0.116-0.116c-0.465-0.814-0.465-40.698-0.233-49.07
		c0-2.558,1.047-1.744,8.837-1.628c0.349,0,1.86,0,2.093,0c1.163,0.349-0.698,0.349,1.628,0.698
		c1.977,0.233,0.698,0.698,3.837,0.698c0.349,0.349,0.233-0.116,0.233,0.698l1.977,0.116c0.349,0.698,0.116,0.465,0.814,0.698
		l1.86,0.698c0.465,0.233,0.233,0.116,0.698,0.349l2.558,1.744l0.116,0.116c1.628,1.86,0.698,0,2.326,1.977l0.116,0.116l0.698,0.698
		l0.116,0.116l0.116,0.116l0.814,0.698c0.698,0.698,0.233-0.233,0.698,1.163l1.395,2.209c0.116,0.465,0.116,0.349,0.233,0.698
		l0.814,1.512c0.698,1.163-0.233,1.047,1.047,1.163c0.233,3.372,0.349,2.209,0.698,3.023c0.233,0.698,0.116,0.814,0.233,1.628
		c0.233,1.163,0.465,0.233,0.698,3.023c0,0.233,0,0.698,0.116,0.698c0.349,1.163-0.116-0.698,0.349,0.698
		c0.349,0.698,0.233,2.326,0.233,3.488c0,6.395-0.698,2.558-0.698,6.744c-0.116,2.791-0.465,1.395-0.698,3.023
		c-0.465,2.558-0.349,0.814-0.698,2.093C513.924,168.14,513.924,168.605,513.924,169.07L513.924,169.07z M459.157,126.861
		c1.86,0.116,1.163,0.349,2.209,0.698c0.698,0.233,1.86,0.116,2.558,0.349c0.814,0.233,0.349,0.116,0.698,0.233l4.302,2.791
		c0.349,0.465,0.233-0.698,0.233,0.698c1.86,0.116-0.349,1.977,1.163,2.209c0.465,12.907,0.116,26.046,0.116,38.953
		c0,1.395,0,3.721-0.465,4.535l-0.116,0.349c-0.698,1.163-0.698,1.163-0.814,2.558c-0.233,0.116-0.349,0.116-0.465,0.233
		l-0.233,0.233l-0.116,0.116l-0.116,0.116l-0.116,0.116l-0.698,0.698c-0.698,0.698,0,0.465-1.163,0.698
		c-1.628,0.349-0.698,0.698-2.209,0.698c-1.977,0.233-4.302,0.233-6.395,0.116c-0.698-0.116-3.14-1.163-3.953-1.744l-0.698-0.465
		c-1.977-0.698-0.814-1.395-3.372-1.744c-0.116-1.163-0.116-0.698-0.698-1.163l-0.116-0.116l-1.163-1.163
		c-0.698-0.698-0.698-0.465-1.395-0.698l-0.698-0.349l-0.116-0.116c-0.465-0.349-0.116-0.116-0.698-0.465l-0.698-0.698
		c-0.116-0.233-0.116-0.116-0.349-0.349l-0.233-0.233l-0.116-0.116l-0.349-0.349l-0.116-0.116l-2.093-1.86
		c-0.349-0.349-0.116-0.465-0.698-0.465c-0.116-1.163,0-0.349-0.698-0.814l-0.116-0.116l-2.907-2.442l-0.116-0.116l-0.116-0.116
		l-0.233-0.233l-0.116-0.116l-0.116-0.116l-0.116-0.116l-0.698-0.698l-0.116-0.116c-0.116-0.116-0.116-0.233-0.233-0.233
		l-5.349-6.046c0,0-0.233-0.116-0.233-0.233l-1.744-1.744c0,0-0.233-0.116-0.233-0.233l-0.116-0.116l-0.116-0.116
		c-0.116-0.116-0.349-0.233-0.465-0.233v-1.628l3.023-0.698c1.163-0.349,1.512-0.698,3.023-0.698l1.046-1.163
		c1.163-0.698,1.163,0.349,1.163-1.163c1.395-0.116,0.349,0,0.698-0.349l0.116-0.116l1.163-1.163l0.116-0.116l3.023-3.953
		c0-0.116,0.116-0.233,0.116-0.349s0-0.116,0-0.233c0,0,0-0.116,0.116-0.116l0.116-0.233c0.349-0.698,0,0.698,0.349-0.698
		c0-0.116,0.116-0.698,0.116-0.698c0-0.698,0-1.395,0.116-1.977c0.233-0.116-0.233-0.233,0.698-0.233v-4.07
		c-0.814,0-0.465,0-0.698-0.233l-0.233-3.488c-1.163-0.233-0.116-0.349-1.046-1.628l-0.233-0.233l-0.116-0.116l-0.465-0.581
		l-0.116-0.116l-1.163-1.395l-0.116-0.116l-0.116-0.116l-0.698-0.698l-0.116-0.116c-0.349-0.349-0.349,0.698-0.465-0.698
		l-2.093-1.047l-0.116-0.116l-2.907-0.93c-1.86-0.233-0.233-0.349-1.512-0.698c-1.163-0.233-1.512,0.233-2.558-0.698
		c-1.163-1.047-5.581,0-7.209-0.698c-1.163-0.698,0.698,0.116-0.349-0.233c-1.163-0.349-7.093-0.116-8.023-0.116
		c-2.209,0-0.465,0.349-1.977,0.698c-1.628,0.233-5.581,0-7.442,0c-3.372,0-6.512,0.116-9.884,0.116l0.116,3.023
		c1.163,0,2.558,0,3.837,0c1.163,0.116,2.326,0.698,2.674,1.977l0.698,1.744c0.465,1.512,0.233,3.372,0.233,4.884l-0.116,50.116
		h22.674c0-0.349,0-0.814,0-1.163l-0.116-0.698c0-0.116,0-0.116-0.116-0.233c-0.698-0.233-1.047-0.116-1.628-0.233
		c-0.698-0.233,0.116-0.233-0.698-0.698c-0.698-0.233-1.163-0.116-1.744-0.233c-1.395-0.349,0.349-0.116-0.814-0.465
		c-0.465-0.116-1.163-0.116-1.628-0.116l-2.209-0.698c-0.814-0.698,0.698-0.465-0.814-0.698c-0.116-1.628-0.116,0-0.698-1.395
		c-0.116-0.233-0.116-0.349-0.233-0.698l-0.116-0.349c-0.698-1.395-0.698-3.721-0.698-5.349l0.233-45.581
		c1.047-0.116,3.837-0.233,4.884,0.116c0,0,0.116,0,0.116,0.116l0.233,0.116c0.233,0.116-0.116,0,0.465,0.233
		c0.698,0.233,1.86,0,2.558,0.349l0.233,0.116c0.698,0.349,1.046,0,1.86,0.698c0.814,0.698,1.047,0.465,1.86,1.046l0.116,0.116
		l0.698,0.698c1.163,0.698,1.163-0.116,1.395,1.047c0.814,0.116,0.698,0.349,1.163,0.814c1.744,1.744,0.465,0.814,1.395,1.977
		l0.116,0.116l0.349,0.465c0.465,0.698,0.698,1.628,0.698,2.558c0,2.093,0.698,0.698,0.698,2.326l-0.349,2.209
		c-0.349,0.698-0.233,1.512-0.698,2.209l-0.233,0.233c-0.349,0.698-0.349,1.047-0.698,1.395c-1.047,0.814-0.814,1.512-1.628,2.209
		c-0.698,0.698,0.349,0.465-0.814,0.698c-0.116,1.163-0.698,0.465-1.512,1.163l-1.512,1.163c-0.698,0.698-1.86,1.047-2.674,1.512
		l-0.698,0.349c-0.698,0.233-1.163,0.116-1.86,0.349c-1.163,0.349,0.465,0.698-3.488,0.698c0.233,1.395-0.116-0.116,0.349,0.814
		c1.046,2.209,1.046,0.698,1.163,2.093c1.395,0.116,0.233,0.465,1.163,1.628l1.977,2.209c0.465,0.698,0.465,1.047,1.046,1.628
		c1.163,0.814,0.465,1.163,1.628,1.395c0.116,1.395,0,0.116,0.349,0.698c0.698,1.163,0.698,1.512,1.628,2.558
		c0.698,0.698,1.512,1.395,2.093,2.209c0.698,1.163,0.698-0.233,0.698,1.163c1.047,0.116,0.349,0,0.814,0.698l4.07,3.953
		l0.116,0.116c0.698,0.698,1.163,0.698,1.86,1.163l0.116,0.116c0.233,0.233,0.465,0.116,0.465,0.698h0.698
		c0.116,1.512,0.465-0.116,1.744,1.512c0.698,0.698,0,0.698,1.163,0.698c0.116,1.046-0.233,0.465,0.698,0.698
		c1.395,0.465,2.209,1.512,3.488,2.093c1.395,0.698,0.349-0.116,1.163,0.465c0.465,0.349,3.023,1.86,3.721,1.977
		c0.698,0.116,1.512,0,2.209,0.349l0.116,0.116l2.209,0.349c1.628,0.116,0.698,0.233,1.163,0.349
		c1.163,0.698,34.419,0.233,38.605,0.233c4.535,0,2.093-0.349,3.837-0.698c1.977-0.116,5.233,0.349,6.86-0.116
		c0.465-0.116,0.233-0.116,0.698-0.233c0.698-0.465,2.093-0.233,2.791-0.698l0.116-0.116c0.698-0.349,1.395-0.233,2.093-0.349
		c0.698-0.814,0-0.698,1.744-0.698c0-0.698,0-0.465,0.233-0.698l1.163-0.349l0.116-0.116l0.116-0.116c0,0,0.116,0,0.116-0.116
		c0.233-0.116,0.465-0.116,0.698-0.349c1.047-0.465,1.628-1.163,2.558-1.395c0.465-0.116,0.465-0.116,0.698-0.116
		c0.116-1.047,0.698-0.698,1.86-1.512l2.093-1.86l0.116-0.116l1.86-1.744c0.698-0.698,1.395-1.512,2.093-2.209l0.349-0.349
		c0.698-0.698,0.698-0.465,1.163-1.395c0.698-1.163,0.465,0.233,0.698-1.163h0.698c0-1.163-0.116-0.814,0.465-1.744
		c0.698-0.698,0.116-0.349,0.814-0.814c0.116-0.698,0.116-1.163,0.349-1.744l0.116-0.116l0.233-0.233l0.116-0.116
		c0.698-0.698,0.698-0.349,0.814-1.744c0.465-3.14,0.349-1.86,0.698-2.674c0.465-1.163,0.233-5.698,0.233-7.209
		c0-7.442-0.465-5.233-0.698-7.093c-0.116-0.698-0.116-1.628-0.233-2.209c-0.349-0.814,0.116,0.349-0.465-0.465
		c-0.349-0.698-0.233-0.698-0.465-1.512l-1.86-3.488c-1.163-2.558-1.86-2.093-2.674-3.372l-0.116-0.233
		c-0.698-1.163,0.233-0.814-0.814-1.047c0-1.628-0.465-0.465-1.628-1.628l-1.163-1.047l-0.116-0.116l-0.233-0.233
		c-1.163-0.698-1.163,0.233-1.163-0.814c-1.512-0.116-0.233-0.233-1.395-0.698c-1.512-0.698-0.233,0.116-1.047-0.814
		c-0.465,0-0.698,0-1.047-0.233c0,0-0.116,0-0.116-0.116l-0.116-0.116l-0.116-0.116l-0.116-0.116l-1.395-0.698
		c-0.349-0.116,0.349-0.116-0.698-0.349c-2.209-0.465-1.163-0.465-1.86-0.698c-0.698-0.233-1.977-0.233-2.326-0.465
		c-0.698-0.349,0.698,0-0.698-0.349c-0.698-0.233-1.047,0-1.86-0.233c-0.698-0.233,0.349-0.349-1.163-0.465
		c-0.698-0.116-1.977,0.116-2.558-0.349l-0.465-0.349c-1.163-0.698-3.721-0.233-5.349-0.349c-1.744-0.116-0.698-0.233-1.163-0.465
		c-1.163-0.698-25.116-0.116-29.535-0.116c-1.86,0-1.628,0.349-3.023,0.698c-0.349,0-0.698,0-1.047,0L459.157,126.861
		L459.157,126.861z"/>
	<path id="XMLID_21_" fill="#FFFFFF" d="M224.273,126.861l2.209,0.698c0.814,0.349,2.674,0.349,3.023,1.628
		c1.628,0.233,0.233,0.116,0.698,0.698c0.465,0.349-0.698,0.233,0.698,0.233l-0.116,2.209c-0.698,0-0.465-0.116-0.698,0.233
		l-0.233,2.209c-1.163,0.233-0.233-0.233-0.698,0.814l-3.372,5.814c-0.465,0.698-0.349-0.698-0.465,0.814
		c-1.163,0.116-0.465,0.814-1.163,1.86c-1.047,1.163-0.465,0.698-1.163,1.86c-0.233,0.349-0.465,0.698-0.698,1.512
		c-2.674,0.233-1.163-0.465-3.14-2.558c-0.465-0.465-0.465-1.163-0.698-1.744c-0.116-0.116-0.116-0.116-0.349-0.349
		c-1.163-1.163-0.349-0.349-1.163-1.744l-0.465-0.465l-0.116-0.116l-0.698-1.163c-1.163-1.628-0.698-2.209-1.744-2.209
		c-0.116-1.512-0.116-0.465-0.349-0.698c-0.465-0.698-0.698-1.628-1.512-2.209l-0.116-0.116c-0.698-0.698,0-1.395-1.163-1.395
		c-0.116-1.395-0.116-0.116-0.698-1.744l-0.465-0.698c-0.698-0.698,0.233-0.698-0.698-0.698c0-0.698,0-0.465-0.233-0.814
		c-0.698-1.163-0.814-1.512-1.628-2.209l-0.698-0.814c-0.233-0.465-0.116-0.349-0.465-0.698c-0.349-0.233-0.116-0.233-0.698-0.349
		h-19.767c-0.233,2.791-0.698,3.488,2.558,3.721c0.698,0,1.395,0,1.977,0.116c1.046,0.233,0.698,0.116,0.698,0.349l1.977,0.814
		c1.395,0.698,0.698,0.698,1.977,1.163l0.698,0.349c0.465,0.349,0.698,0.465,0.814,1.047c1.395,0.116,0.465,0,1.163,0.698
		l0.116,0.116l0.116,0.116c0.698,0.698-0.116-0.116,0.349,0.349c0.233,0.233-0.349-0.233,0.233,0.233l0.698,0.465
		c0.698,0.465,0.465-0.698,0.698,1.047c0.698,0.116,0.698,0.116,1.628,1.163l0.116,0.116c0.465,0.698,0.349-0.465,0.465,0.814
		c1.395,0.116,0,0.465,1.977,2.326l2.674,4.884l0.116,0.116c0.349,0.698,0.349,0.116,0.465,1.047
		c0.814,0.116,0.698,0.233,0.698,1.395l0.814,0.233l0.349,1.395c0.698,1.047,0.116,1.395,1.163,1.512
		c0.116,1.163,0.233,0.465,0.465,1.163l3.488,5.581c0.349,0.465,0.349,0.698,0.349,1.512c-0.698,0.465-0.233,0-0.698,0.698
		l-1.86,2.558l-0.116,0.116l-0.698,0.814l-0.116,0.116l-0.116,0.116c0,0,0,0.116-0.116,0.116l-2.558,3.721l-0.116,0.116
		c-1.163,1.163-0.698,1.163-1.512,2.209l-0.349,0.349l-0.116,0.116l-0.349,0.349c-0.698,0.698,0.116-0.465-0.233,0.349
		c-0.233,0.465-0.233,0.698-0.349,1.163c-0.349,0.698-0.349-0.698-0.465,0.814c-1.163,0.116-0.116-0.116-0.814,0.698l-1.977,2.558
		l-0.116,0.116l-1.163,1.86c0,0-0.116,0.233-0.233,0.233c-0.698,0.698,0.233,0.465-0.814,0.698
		c-0.116,1.163-0.116,0.465-0.814,1.163l-0.116,0.116l-3.14,2.558c0,0-0.116,0-0.116,0.116l-0.116,0.116l-1.512,0.465
		c-1.163,0.349-0.465,0.349-1.512,0.698l-0.698,0.349c-0.698,0.233,0.465,0.116-0.814,0.349c-3.488,0.465-3.721-0.698-3.721,0.814
		h-1.744l0.116,2.791h21.279c1.395,0,4.186,0.349,5.349-0.349l0.116-0.116c0.465-0.233-0.465-0.116,0.698-0.233v-2.093l-3.488-1.163
		c-0.814-0.465-1.395-0.349-2.093-1.163l-0.698-0.698c-0.698-0.698-0.698-0.349-0.698-3.023c0-1.86,0.465-1.395,0.698-2.209
		l0.349-1.512c0.349-0.698,1.047-1.163,1.512-1.977l0.116-0.233l0.116-0.116l0.698-0.698c0.349-0.698,0,0.116,0.349-0.698
		l0.698-1.395c0.698-1.163,0.698-0.698,0.814-1.744c0.698-0.116,1.163-0.698,1.628-1.163l0.116-0.116l0.116-0.116l0.465-1.046
		c0.233-0.698,0-0.116,0.349-0.698l1.047-1.395c0.465-1.163-0.116-0.233,0.698-0.814l0.116-0.116l0.465-0.465l0.116-0.116
		l0.116-0.116l0.349-0.465c0.465-0.465,0.698,0.116,1.163,0.698c0.465,0.698,1.744,2.674,1.86,3.488
		c1.163,0.116,0.233,0.233,0.814,1.512c0,0.116,0.116,0.233,0.233,0.349c0.465,0.465,0.349,0.698,1.163,0.698
		c0.116,1.628,0.233,1.046,0.698,1.628c0.698,1.163-0.233,1.163,0.814,1.163c0.116,1.512,0.116,0.116,0.698,1.512
		c0.465,1.047,0.698,0.349,0.698,1.628c0.814,0.116,0.698,0.233,0.698,1.512l0.465,0.233c1.86,1.395,0.465,1.977,1.86,2.093
		c0.116,1.628,0.116,0.349,0.465,1.047l0.814,1.744c0.349,0.698,0.233,0.349,0.233,1.046c0.698,0.116,0.233,0.116,0.698,0.465
		l1.977,2.674c0.698,1.047-0.116,1.163,1.046,1.395c0.116,0.814,0.116,0.814,0.698,1.163c0.814,0.349,59.535,0.116,60.581,0.116
		c0.698-0.698-0.349-0.465,0.814-0.698l-0.116-2.093L291.948,185c0-1.163,0-0.465-0.233-0.698c-0.698,0-1.86,0-2.558-0.233
		c-1.047-0.465,0.698-0.116-0.698-0.465c-0.814-0.233-1.744,0-2.558-0.698c-1.047-0.698-1.163-0.814-1.395-1.744h-0.581
		l-0.233-2.558c-0.233-0.814-0.233,0-0.465-0.814c0-0.233-0.116-0.698-0.116-0.698c-0.349-5.349,0-13.256,0-18.953h8.023
		c0.698,0,1.163,0,1.744,0c1.047,0,1.163,0.233,1.744,0.465l0.814,0.349c0.698,0.349,0.698,0.814,1.163,1.512
		c0,0,0,0.116,0.116,0.116c0,0,0,0.116,0.116,0.116l0.116,0.116l0.465,1.744l0.698,0.116l0.116,5.233h2.674v-15.581
		c-1.163-0.233-3.023-0.116-3.837,0.233c-0.698,0.465-3.488,0.233-4.884,0.233c-3.023,0-6.279,0-9.419,0
		c-0.349-6.512-0.116-14.07-0.116-20.698l0.116-3.023h8.605c0.349,0,1.047,0,1.163,0c1.163,0.233,0.233,0.349,1.163,0.698h1.744
		c6.744,0.116,2.674,0.698,6.512,0.698c0.465,0.698,1.163,0.814,1.86,1.395c0.233,0.116,0,0.233,0.698,0.349
		c0.116,0.698,0.233,0.698,0.465,0.814c1.163,1.163,0.465,0.465,1.163,1.628c0.233,0.349,0.349,0.233,0.698,0.698
		c0.116,2.209,0.349,0.698,0.698,1.977c0.116,0.698,0.116,1.628,0.116,2.209h2.674c0.116-0.698,0-6.744-0.116-7.558
		c-0.233-1.163-0.349,0.349-0.465-1.395l-0.116-5.349h-48.605l0.116,2.674c1.163,0.116,3.372-0.116,4.302,0.465l0.116,0.116
		l1.395,0.349c0.233,0,0.349,0,0.698,0.116c0.465,0.116,0.233,0.116,0.465,0.233l2.558,1.744c0.698,0.698,0.465,0.698,0.814,1.512
		c0.349,0.698,0.116-0.698,0.465,0.814c0.116,0.698,0,1.977,0.116,2.558c0.116,0.465,0.116,0.233,0.233,0.465l0.116,0.233
		c0.465,1.047,0.233,37.326,0.116,37.442c-0.116,0.349-0.233,0.349-0.233,0.465l0-0.93c-0.465,0.698-0.116,2.093-0.698,3.023
		c-0.233,0.465,0-0.116-0.349,0.698c-0.349,0.814-0.698,0.814-0.814,1.395l-1.512,2.093c-0.465,0.465-0.814,0.465-1.512,0.698
		c-1.047,0.698-1.163,0.233-1.977,1.163c-2.674,0.116-2.326,0.698-3.837,0.698c-2.326,0.116-9.535,0.465-11.744,0
		c-1.628-0.349,0.349-0.349-1.744-0.698l-2.209-0.814c-0.814-0.465,0.233-0.465-1.163-0.698c-0.116-1.163,0.116-0.233-0.465-0.698
		l-0.116-0.116l-3.488-2.791c-0.465-0.465-0.698-1.163-1.163-1.744l-0.116-0.116l-2.209-3.023l-0.349-0.349l-1.047-1.628
		c-0.116-0.233-0.233,0.465-0.233-0.814c-1.163-0.116-0.233,0-0.698-1.047c-0.465-0.698-1.163-0.698-1.628-1.86l-1.744-3.023
		c0,0-0.116-0.233-0.233-0.233l-0.698-1.395c-0.698-0.698,0-0.233-0.814-0.698c-0.116-1.163,0.116-1.395-0.698-1.512
		c-0.116-1.512-0.116-0.349-0.349-0.698l-0.698-1.163c-0.349-0.698-0.349,0.465-0.698-1.163c-1.163-0.116-0.233-0.233-0.814-1.395
		c-0.349-0.698-0.698-0.698-0.698-1.512c-1.163-0.116-0.698-0.233-1.628-1.512l-0.116-0.116l-0.233-0.233
		c-0.698-0.814-0.233-1.86,0.233-2.326c0.698-0.814,0.698-1.163,1.163-1.977l0.116-0.116c0.349-0.465,0.233-0.698,0.465-1.047
		c0,0,0-0.116,0.116-0.116l0.698-0.814l0.116-0.116l0.116-0.116c0.233-0.465,0-0.116,0.233-0.698
		c0.349-0.814,1.163-1.046,1.395-2.093c0.349-1.163-0.349-0.814,0.698-1.047c0.116-0.698,0.116-0.465,0.349-0.698
		c0.698-0.698,0.698-1.163,1.395-1.977l0.116-0.116l0.698-0.814c1.047-1.512,0.233-0.814,1.86-2.558
		c0.698-0.698,1.163-0.814,1.163-2.093c0.698-0.116,0.465-0.116,0.698-0.349l0.465-0.465l0.116-0.116l0.116-0.116
		c0.233-0.233,0.116-0.233,0.233-0.349c0.233-0.116,0.233-0.233,0.465-0.349c0.116-0.116,0.233-0.233,0.349-0.349
		c0.698-0.698,1.744-1.163,2.326-1.512l2.209-1.163c0,0,0.116,0,0.116-0.116l0.233-0.116c0.698-0.349-0.233-0.233,1.628-0.465
		c1.395-0.233,0.698-0.698,2.093-0.698l4.651-0.698l-0.116-2.791c-6.744-0.116-20.116-0.233-26.744,0L224.273,126.861
		L224.273,126.861z"/>
	<path fill="#FFFFFF" d="M132.064,130.814c1.047-0.116,0.698-0.233,1.163-0.698l2.326-1.86l0.116-0.116
		c1.163-0.698,1.744-0.698,2.791-1.163l0.116-0.116l0.349-0.233c0.698-0.233,1.163,0,1.977-0.349c1.046-0.465-0.465,0,0.698-0.349
		c1.395-0.349,8.023-0.349,9.186,0c1.512,0.349-0.349,0.349,1.744,0.698l3.372,1.395c0.349,0.233,0.698,0.233,0.814,0.349
		l2.209,1.395c0.349,0.233,0,0,0.349,0.349l0.116,0.116l0.116,0.116c1.512,1.628,1.163,1.512,1.977,1.628
		c0.116,1.395,0,0.349,0.465,0.698c0.698,0.698,1.047,0.698,1.163,2.209c0.814,0,0.698,0.349,1.163,0.698l1.395,2.093
		c0.698,1.163,0.233,0.814,0.698,1.86l0.698,1.395c0.465,0.698,0.349,0.698,0.698,1.628c0.349,1.744,0.233-0.233,0.814,2.326
		c0.465,1.86,0.698-0.233,0.698,4.302c0,0.465,0,1.395,0,1.744c0.116,0.814,0,0.233,0.233,0.698
		c0.698,1.628,0.349,8.372,0.349,10.465c-0.116,2.674-0.349,1.86-0.698,3.023c-0.116,0.698,0,1.395-0.116,1.977
		c-0.116,1.86-0.698,0-0.698,4.535c-1.163,0.698-0.349-0.116-1.163,2.093c-0.116,0.233-0.116,0.233-0.233,0.465l-1.395,2.791
		c-0.698,1.395-0.698,0.698-0.698,1.744c-1.395,0.116,0,0.349-1.628,1.744c-0.698,0.698,0.233-0.233-0.233,0.233l-0.233,0.233
		l-0.116,0.116c-0.465,0.698-1.395,0.698-1.744,1.163c-1.395,1.163-2.674,1.163-3.953,2.209l-1.512,0.698
		c-1.046,0.465-2.558,0.349-3.721,0.465c-2.209,0.116-0.349,0.698-2.209,0.698c-1.163,0-3.372,0.349-4.302-0.233l-0.698-0.349
		c-0.698-0.349-1.628-0.116-2.326-0.465l-0.116-0.116L141.948,185c-0.698-0.349-1.628-0.349-2.209-0.349
		c0-1.163-0.465-0.698-1.628-1.163l-2.558-1.628c0,0-0.116-0.233-0.233-0.233c-0.233-0.233-0.233,0-0.349-0.698
		c-1.395-0.116-0.233,0.116-0.698-0.465l-0.814-1.047c-0.349-0.349-0.349-0.233-0.465-0.698h-0.698
		c-0.116-1.163,0-0.465-0.698-0.814l-0.233-0.233l-0.116-0.116l-3.14-5.349c-0.233-0.349-0.116,0.233-0.349-0.698
		c-0.116-0.349,0-0.465,0-0.698h-0.814c0-0.349,0-0.698-0.116-1.163c-0.116-0.465-0.116-0.233-0.349-0.698
		c-0.465-0.698-0.233-2.093-0.698-3.023c-0.349-1.163-0.233,0.349-0.465-1.163c-0.116-0.698,0-1.512-0.349-2.209l-0.116-0.116
		c-0.465-0.814-0.698-13.256,0-14.302c0.698-1.047,0.233-2.558,0.698-3.721c0.349-0.698,0.349-2.209,0.698-2.791
		c0.233-0.465,0,0.698,0.233-0.698c0.116-0.349,0-0.698,0.116-0.814h0.698c0-0.698,0-1.047,0.233-1.512
		c0.465-0.698,0.116,0.465,0.698-0.814c0.465-1.628,0.814-1.512,1.395-2.326l0.698-1.395
		C131.715,131.047,132.064,131.977,132.064,130.814L132.064,130.814z M111.831,148.605v12.558c1.047,0.116,0.698-0.233,0.698,2.209
		c0,2.093,0.465,0.698,0.698,2.791l0.349,0.814c0.349,0.465,0.116-0.116,0.465,0.698l0.698,1.744
		c0.465,1.512,1.163,2.674,2.209,4.186l0.465,0.698c0.116,0.349,0.116,0.698,0.116,0.814c1.163,0.233,1.977,1.86,2.791,2.558
		l4.419,4.186c1.628,0.698,1.628,0.698,1.744,1.628c1.163,0,1.163,0.233,1.628,0.465l3.372,1.628
		c1.512,0.698,0.698-0.233,1.395,0.698c0.465,0,1.163,0,1.512,0.116c1.163,0.465-0.233,0.698,3.488,0.698l0.116,0.698
		c6.047,0.233,11.628,0.233,17.558,0v-0.698c1.977-0.116,1.86-0.349,2.674-0.698c1.744-0.465,1.163,0.465,2.209-0.698
		c1.977-0.116,2.326-0.698,3.953-1.395l1.163-0.698c0.465-0.233,0.116,0,0.465-0.233c0.698-0.233,0.465-0.116,0.698-0.465
		c1.512-1.395,1.512-0.698,3.721-2.791l0.465-0.465l0.116-0.116l2.326-2.209c0.116-0.116,0.233-0.233,0.349-0.349l1.628-1.628
		c0.349-0.465,0,0.116,0.233-0.465c0.349-0.698,0.233-0.698,0.698-1.163l0.349-0.349c0.698-0.698,0-0.116,1.047-1.628l1.512-3.14
		c0.465-0.698,0.349-1.395,0.698-2.326c0.349-0.698,0.349-1.512,0.349-2.209l0.698-0.233c0-1.163-0.116-4.651,0.349-5.698
		c0.233-0.698,0.465,0.349,0.349-2.791c0-4.419-0.349-2.558-0.698-3.837c-0.116-1.046-0.116-3.488-0.116-4.535
		c-0.349-0.233,0.465-0.233-0.698-0.233c0-0.698,0-2.093-0.233-2.558c0-0.116-0.349-0.349-0.698-1.86
		c-0.349-1.977-0.349,0.116-0.698-1.86l-4.07-6.512c-0.698-0.698,0.116,0.349-0.233-0.349l-0.698-1.512l-0.116-0.116l-0.465-0.349
		l-0.116-0.116l-3.721-3.023c-1.047-0.814-2.093-1.395-3.023-2.093c0,0-0.233-0.116-0.233-0.233c-0.233-0.116,0.116,0-0.465-0.233
		c-2.093-0.814-1.977-0.698-2.558-1.744c-0.349,0-0.814,0-1.395-0.116c-1.163-0.233-0.465-0.233-1.047-0.465l-1.046-0.349
		l-0.116-0.116c-0.698-0.349-1.163-0.349-2.209-0.465c-0.233,0-0.814,0-1.047-0.116c-1.047-0.233-0.233-0.116-0.698-0.349
		c-1.163-0.698-2.791-0.465-4.07-0.465c-0.698,0-1.628,0.116-2.209-0.116c-1.046-0.349-2.558-0.698-4.186-0.349
		c-1.395,0.233-0.116,0-0.698,0.233c-0.465,0.116-0.233,0.116-0.814,0.116c-1.395,0.116-4.186-0.233-5.349,0.465
		c-0.698,0.349,0.349,0.116-0.698,0.349c-0.465,0.116-1.628,0.116-2.209,0.116c-0.814,0.116-0.698,0.233-1.395,0.698
		c0,0-0.116,0-0.233,0.116c-1.512,0.465-0.465-0.233-1.163,0.698c-0.349,0-1.047,0-1.395,0.116c-1.395,0.233-0.349,0-0.698,0.349
		l-1.512,0.814c-0.116,0,0.116,0-0.465,0.233l-3.721,2.209c-0.698,0.698-1.163,0.698-1.86,1.163l-0.116,0.116l-0.116,0.116
		l-2.326,2.209l-0.116,0.116c-0.349,0.349-0.116,0.116-0.349,0.349l-3.953,5.581c-0.465,0.698-0.116-0.116-0.465,0.698
		c-0.465,1.163-1.395,2.326-1.512,3.14c-0.116,0.465-0.116,1.628-0.233,2.209c-0.698,0.349-0.698,0.698-1.047,1.512
		c-0.233,0.465-0.116-0.116-0.349,0.465C112.064,147.209,113.227,148.605,111.831,148.605L111.831,148.605z"/>
	<path fill="#FFFFFF" d="M338.808,129.07c0.116-1.163-0.233-0.349,0.814-0.698l1.628-0.814l0.233-0.116l0.116-0.116l1.395-0.465
		c0.465-0.233-0.349-0.349,1.163-0.465c0.465,0,1.047,0,1.395-0.116c0.698-0.349-0.233,0,0.465-0.349
		c1.163-0.698,4.535-0.233,5.93-0.233c2.558,0,1.977,0.349,2.558,0.698c0.698,0.233,1.744,0,2.558,0.349
		c0.814,0.349-0.698,0.116,1.047,0.465c0.698,0.116,0.698,0.116,1.395,0.465l0.116,0.116c0.465,0.349,0.698,0.698,1.163,0.814
		c0.233,0.116,0.349,0.116,0.698,0.233l2.558,2.209c0,0,0.116,0,0.116,0.116l0.698,0.465c1.977,1.395,0.814,2.093,2.209,2.209
		c0,1.046,0,0.698,0.698,1.163l0.116,0.116l0.698,0.698c0.116,0.233,0.116,0.349,0.233,0.698c0.233,0.349,0.116,0.233,0.349,0.698
		l0.233,0.233l0.233,0.233c0.698,0.698,1.047,1.977,1.512,2.791c0.233,0.465,0.465,0.698,0.698,1.163
		c0.233,1.512,0.465,1.046,0.698,1.86c0,0.116,0.116,0.698,0.116,0.698c0,0.698,0,1.163,0.116,1.86l0.349,0.814
		c0.698,1.163,0.465,3.488,0.465,5c0,2.093,0.698,1.163,0.698,2.558c0,1.512,0.233,4.07,0,5.349
		c-0.233,1.047-0.349-0.116-0.465,1.163c-0.349,1.977,0.233,4.535-0.349,6.512c-0.349,1.163-0.698,0.349-0.698,3.488
		c-1.163,0.233,0,0.465-1.163,2.558c-0.233,0.349-0.116,0.349-0.349,0.698l-0.116,0.233l-0.116,0.116
		c-0.349,0.465-0.349,1.047-0.349,1.744c-1.977,0.116,0.233,1.163-1.628,1.395c-0.116,1.512-0.233,0.349-0.698,1.163
		c-0.698,1.163-0.465,1.744-1.512,1.744c-0.116,1.163-0.698,0.465-1.86,1.395l-0.116,0.116l-0.233,0.233
		c-2.093,1.977-2.326,0.465-2.326,1.977c-0.349,0-0.814,0.116-1.163,0.116c-0.116,0-0.465,0.116-0.698,0.116
		c-1.046,0.349,0.233,0.349-1.163,0.698l-1.395,0.349c-1.163,0.698-7.442,0.698-9.07,0.349c-0.698-0.116-0.698-0.465-1.628-0.698
		c-1.046-0.233-1.628-0.698-2.674-0.698l-0.233-0.698l-2.209-0.698c-0.465-0.233-0.233,0-0.698-0.349l-0.116-0.116l-0.233-0.233
		c-1.163-1.163-1.628-0.233-1.744-1.512c-1.163,0-0.698-0.116-1.163-0.698c-0.814-1.163-1.047-0.698-1.163-1.744
		c-1.163-0.116-0.349,0.233-0.698-0.698l-0.465-0.698l-0.116-0.116l-1.163-1.163l-0.349-0.116c-0.116-1.512-0.349-1.163-0.814-2.558
		l-2.093-4.884c-0.349-1.744-0.116,0.116-0.698-1.163c-0.116-0.465,0-1.163-0.116-1.86c-0.349-1.628,0.233-0.116-0.698-1.047
		l-0.116-10.233c0-9.535,0.698-6.047,1.047-8.488c0.116-0.465,0-1.047,0.116-1.628c0.349-1.163,0.233,0.465,0.698-1.163
		c0.349-1.86,0.349-1.163,0.698-1.977l1.163-3.14c0.349-0.465,0.465-1.163,0.814-1.744c0.698-0.698,0.698-0.465,1.163-1.512
		c0.349-1.046,1.163-1.046,1.395-2.209h0.698c0.233-1.163-0.116-0.116,0.698-0.698l0.698-0.465
		C337.994,129.302,337.413,129.186,338.808,129.07L338.808,129.07z M316.366,157.907c0,0.233,0.116,1.163,0.116,1.163
		c0.233,1.512,0.116,0.116,0.349,1.163c0.233,0.814,0.116,1.628,0.233,2.558c0.233,1.744,0.233,0.698,0.465,1.163
		c0.233,0.349,0.233,0.698,0.233,1.163c0.116,2.209-0.233,2.093,0.698,2.209c0.116,1.86,0.465,1.046,0.698,2.209l0.698,2.093
		c0.349,0.814-0.349,0.698,0.814,0.698c0.116,1.628,0.116,0.349,0.465,1.047c0.233,0.465,0.116,0.233,0.349,0.698
		c0.465,1.163,0.698-0.116,0.698,1.395c0.814,0.116,0.814,0.233,1.395,1.163c0.349,0.814,0.698,0.698,1.163,1.395l1.163,1.395
		c0.698,0.698-0.349-0.116,0.349,0.233c0.698,0.465,0.814-0.233,1.047,0.814c1.395,0.116,0.233-0.233,1.047,0.698
		c0,0,0.233,0.233,0.349,0.349c0.233,0.233,0.233,0.233,0.349,0.349l0.814,0.698c1.86,1.046,1.512,1.163,2.326,1.744
		c0.814,0.698,0.698,0.698,1.86,0.814c1.628,0.233,0.814,0.465,2.209,0.698c2.209,0.698,1.047,0.349,2.093,0.698
		c0.349,0.116,0.698,0.116,1.163,0.233c1.163,0.349-0.349,0.698,3.488,0.698c0,1.047-0.233,0.698,0.814,0.698
		c4.07,0.349,9.419,0.116,13.372,0c2.326-0.116,2.674,0.349,2.674-0.698c0.698,0,1.744,0,2.209-0.116
		c1.163-0.116,0.349,0,0.698-0.233c2.674-1.744,1.744-0.698,4.07-1.744c0,0,0.116,0,0.116-0.116l2.093-0.814
		c0,0,0.116,0,0.116-0.116l1.395-0.698c1.395-0.698-1.163,0.814,0.698-0.465c0.233-0.233,0-0.233,0.698-0.349
		c0.116-1.163-0.233-0.116,0.698-0.698c0.698-0.698,1.395-0.698,2.093-1.395l0.698-0.698l0.116-0.116l0.698-0.698
		c0.465-0.465,0,0,0.349-0.465c0.116-0.233,0-0.116,0.233-0.349l0.116-0.116l0.116-0.116l1.163-1.047
		c0.814-0.698,1.046-1.047,1.744-2.209l1.047-1.395l0.116-0.116l1.512-2.558c0.116-0.349,0-0.233,0.116-0.465
		c0.233-0.465,0.349-0.349,0.698-0.698l1.163-3.488c0.465-0.698,0.233-2.326,0.465-3.372c0.116-0.698,0-0.116,0.233-0.698
		c0.116-0.116,0.116,0.233,0.233-0.698c0.349-1.86,0.116-9.535,0.116-11.977l-0.349-2.326c-0.465-0.698-0.116-2.558-0.698-3.721
		c-0.465-0.698-0.233-1.395-0.698-2.209L383.227,140c-0.465-1.163-0.116-0.233-0.698-0.814l-0.698-1.046l-0.116-0.116l-0.465-1.163
		c-0.233-0.698-0.349-0.698-0.698-1.163l-0.116-0.116l-0.465-0.698c-0.116-0.349-0.116-0.349-0.233-0.698
		c-0.465-0.814-0.233-0.814-1.163-1.047c0-1.744-0.349-0.349-0.814-1.512c-0.698-1.046-0.698-0.465-0.814-1.395h-0.698
		c-0.116-1.628-0.465,0-1.744-1.628c-0.698-0.698,0-0.814-1.163-0.814c-0.116-1.163-0.349-0.698-1.86-1.512l-0.116-0.116
		l-3.023-1.86c-1.163-0.465-1.512,0.116-1.628-1.047c-0.698,0-0.698,0-1.163-0.233l-0.116-0.116l-1.744-0.698
		c-1.046-0.465,0.349-0.116-0.698-0.349c-0.698-0.233-1.86-0.116-2.558-0.233c-1.628-0.349,0.349-0.349-1.744-0.698
		c-1.512-0.233-3.372-0.116-4.884-0.233c-1.628-0.116,0.465-0.698-4.07-0.698c-1.977,0-1.628,0.465-4.302,0.698
		c-5.698,0.233-3.14,0.465-5.233,0.698c-1.86,0.349-0.814,0-1.628,0.465c-0.698,0.465-1.628,0.233-2.326,0.698l-0.698,0.349
		c-1.744,0.465-0.698-0.116-1.395,0.814c-0.233,0-0.698,0-1.047,0.116l-4.884,3.023c0,0-0.233,0.116-0.233,0.233l-1.977,1.512
		c-0.814,0.698-0.233,1.047-1.512,1.163c-0.116,1.046-0.233,0.465-0.814,1.046c0,0-0.116,0.233-0.233,0.233l-0.465,0.814
		c-0.465,0.465-0.814,0.698-1.163,1.163l-1.047,1.86c-1.628,1.977-0.814,1.395-1.628,2.209l-0.698,1.512l-0.116,0.116l-0.116,0.116
		l-2.209,5.698l-0.116,0.698c0,0.698,0,1.395-0.116,1.977c-0.349,1.628-0.233-0.116-0.465,1.512
		C316.017,152.326,316.366,155.116,316.366,157.907L316.366,157.907z"/>
	<path id="XMLID_16_" fill="#FFFFFF" d="M441.25,214.302L441.25,214.302c-0.698-0.349,0.349-0.233-0.698-0.465
		c-1.744-0.349-12.442-0.116-14.302,0l0.116,2.209l2.209,0.349l0.116,0.116c1.047,0.698,1.047,0.349,1.744,1.163
		c0.465,0.698-0.116-0.465,0.349,0.349v16.744l-1.047,0.698l-0.116,0.116c-0.814,0.814-2.209,0.698-3.837,0.814v2.093h15.465
		l-0.116-2.209c-3.837,0-2.209-0.116-3.721-0.698c-0.233-0.116-0.814-0.116-1.163-0.116c-0.465-6.047-0.233-13.023-0.233-19.302
		c0.698,0,1.628,0,2.093,0.116l1.047,0.698c0,0,0.116,0,0.116,0.116c0.349,0.116,0.116,0,0.465,0.233l0.116,0.116
		c0.698,0.349,0.698,1.163,1.628,1.163c0,0.698,0.233,3.953-0.116,4.302l-0.116,0.116l-3.721,2.791l-0.116,0
		c-0.349,0.349-0.233,0.116-0.465,0.698c0.698,1.163-0.814-1.163,0.349,0.349l2.093,3.721l0.116,0.116l0.698,1.163l0.116,0.116
		l0.116,0.116l0.116,0.116l0.814,1.744c0.698,0.698,1.512,1.163,2.209,1.977l3.488,2.558c1.163,0.698,5.349,0.465,7.209,0.349
		v-1.628c-1.163,0-1.163-0.349-2.209-0.698c-0.698-0.349-0.233,0-0.814-0.465l-0.116-0.116l-1.047-0.465l-0.116-0.116l-0.116-0.116
		c0,0-0.233-0.116-0.233-0.233l-2.558-2.791l-0.116-0.116l-0.233-0.233l-0.116-0.116l-0.698-1.163
		c-0.349-0.698-0.814-0.698-1.163-1.395c-0.698-1.977-0.814-0.698-0.698-3.372c1.395,0,1.163-0.233,2.093-1.047l1.047-0.698
		c0.116-1.977,0.465-0.814,0.698-2.209c0.233-1.047,0.233-3.372-0.116-4.186l-1.512-1.395c-0.698-0.698-1.977-1.163-2.209-1.86
		C442.645,214.535,441.948,214.535,441.25,214.302L441.25,214.302z"/>
	<path id="XMLID_15_" fill="#FFFFFF" d="M161.715,217.093C161.715,217.093,161.599,216.977,161.715,217.093
		c-0.116-0.116-0.233-0.233-0.233-0.233l-0.233-0.233c-1.046-1.047-0.814-2.558-1.977-2.791l-8.488,0.116l0.116,2.209
		c0.465,0,1.163,0,1.628,0.116l1.86,0.698c0.698,0.349,0.698,0.698,1.628,0.698c0.116,0.349,0.116,0.698,0.233,1.046
		c0.116,0.349,0.465,0.116,0.698,0.698c0.116,0.465,0.116,8.837-0.116,9.767l-0.349,0.698c-0.698,1.163,0.116,3.14-0.233,4.535
		c-0.116,0.465-0.698,0.698-0.698,1.86c-0.698,0-1.512,0-2.093,0.349l-1.395,0.698c0,0-0.116,0-0.233,0.116v1.395l14.07-0.116
		v-1.163l-0.698-0.698c-1.163,0-3.023,0.116-3.837-0.698L160.203,235l-0.116-9.07c0-0.814-0.233-2.093,0.349-2.674
		c0.698,0.465,0.116,0,0.698,0.698l4.651,4.651c0.349,0.349,0,0,0.233,0.349l1.628,1.744l0.116,0.116l3.023,3.023
		c0.465,0.698,0.698,1.163,1.047,1.86c0,0,0.233,0.116,0.233,0.233l1.163,0.698c0.465,0.465,0.233,0.233,0.465,0.698l1.395,1.628
		c0.698,0.698,1.628,0.698,2.326,0.233c0-1.86-0.233-9.767,0.116-10.93c0.698-2.209,0.233-3.023,0.349-5.233
		c0.116-1.86,0.116-3.721,0.349-5.233c0.233-0.116,0.698-0.116,0.814-0.349l0.233-0.233l0.116-0.116
		c0.698-0.465,1.512-0.349,2.209-0.349v-2.209h-13.372l0.116,2.209c0.698,0,2.209,0,2.674,0.116l1.977,0.698
		c1.047,0.349,0.814,1.046,1.395,1.977c0,0,0,0.116,0.116,0.116l0.465,1.163c0.116,1.047,0.116,9.419,0,10
		c-1.047,0-0.233,0-0.698-0.349l-1.395-1.163c0,0-0.116-0.233-0.233-0.233l-7.209-7.674l-0.116-0.116L161.715,217.093
		L161.715,217.093z"/>
	<path id="XMLID_14_" fill="#FFFFFF" d="M276.366,214.535c-0.698,0-1.512,0-2.209-0.349c-0.465-0.233,0.349-0.116-0.698-0.349
		c-1.744-0.349-12.442-0.116-14.302,0l0.116,2.209c2.326,0.116,2.674,0.349,3.023,0.465l0.233,0.233
		c0.465,0.465,0.465,0.698,0.698,1.163l0.349,0.698c0.233,0.349,0.116,0.116,0.116,0.698c0.233,2.093,0,5.233,0,7.442
		c0,2.326,0.349,6.395-0.698,8.023c-0.814,1.86-2.326,1.86-4.535,1.977v2.093h15.465l-0.116-2.209l-2.791-0.698
		c-0.698-0.349-1.86-0.349-2.093-1.047c0-0.116-0.116-0.116-0.233-0.116v-18.488c0.698,0,1.744-0.116,2.209,0.233
		c0.698,0.233,1.628,0.698,2.209,1.163c0.233,0.233,0,0,0.349,0.349l0.465,0.698l0.116,0.116l0.116,0.116
		c0.349,0.349,0.116,0.116,0.698,0.349c0,0.698,0.116,1.163,0,1.744c0,1.628-0.116,0.698-0.465,1.163
		c-0.465,0.698,0.116,0-0.698,1.163l-0.698,1.047c-1.628,0.233-0.698,0.116-1.395,0.465c-0.698,0.349-1.395,0.349-2.093,0.349
		c-0.116,0.698-0.116,0.698,0,1.046c0.465,1.163-0.698-1.163,0.233,0.465c0.698,1.163,0.116,0.698,1.163,1.512
		c0.233,2.093,0.814,1.512,1.512,2.791l0.698,1.512c0.698,1.628,2.093,2.209,3.14,3.488l0.116,0.116l0.116,0.116l0.814,0.698
		c1.163,0.465,0.814-0.349,0.814,0.814c4.535,0.233-0.698,0.698,8.256,0.698v-1.628c-0.814,0-1.163-0.116-1.744-0.465l-1.861-1.279
		c-0.698-0.698-1.163-0.465-1.977-1.163l-2.674-3.023c-0.233-0.698-0.116-0.349-0.349-0.698l-0.116-0.116
		c-1.86-2.093-0.116,0-1.395-2.209l-0.233-0.349c-0.465-1.163,0-1.977,1.047-2.326c0.698-0.233,0.814-0.233,1.163-0.698l0.698-1.046
		c0.233-0.814-0.233-0.698,0.814-0.698l-0.116-4.651c-1.047-0.116-0.698-0.698-1.163-1.395l-1.86-1.395
		C275.901,214.884,277.064,215.581,276.366,214.535L276.366,214.535z"/>
	<path id="XMLID_13_" fill="#FFFFFF" d="M249.389,217.326c0.349,0.116,0.698,0.116,0.814,0.233l0.698,1.744
		c0.233,0.698,0.233,1.395,0.233,2.093l2.209-0.116v-7.442h-20.93l0.116,2.209c0.698,0,2.209,0,2.674,0.349
		c0.698,0.349-0.698-0.465,0.233,0.233l0.698,0.698c1.163,1.163,0.814,3.023,0.814,6.047c0,3.837,0,7.674-0.116,11.395l-0.698,0.465
		l-0.116,0.116c0,0-0.116,0.233-0.233,0.233l-0.349,0.349c-0.698,0.698-1.395,0.698-3.14,0.698l-0.116,2.209l21.163-0.116
		c0-0.349,0-1.163,0.116-1.512c0.349-1.628,0-0.116,0.465-0.814c0.349-0.698,0.233-1.395,0.349-2.209
		c0.349-1.395,0.116,0,0.465-1.163c0.233-1.046,0.116-2.791,0-3.721l-1.046-0.116c-0.233,0.698,0,0.233-0.233,0.698
		c-0.349,0.814-0.116,0.233-0.349,0.698l-0.349,0.349c-0.349,0.698,0,0.465-0.698,1.395c-0.698,1.163-0.116,0.698-1.163,2.209
		l-1.512,1.395c0,0-0.116,0-0.116,0.116c-1.163,0.465,1.047-0.349-0.349,0.116c-1.977,0.698,0.116,0.465-1.977,0.698
		c-0.814,0.116-2.558,0.116-3.372-0.233c-0.233-0.116,0,0-0.233-0.233l-0.116-0.116l-0.116-0.116l-0.698-0.814
		c-0.233-0.349-0.116-0.116-0.233-0.698c-0.233-1.628-0.116-5,0-6.744c1.046,0,2.209,0,3.372,0c1.977,0.116,0.233,0.465,2.558,0.698
		l0.233,2.209c1.047,0,0.698,0.116,0.814,1.512h1.163l0.116-10.349h-1.395c0,1.163,0.233,1.163-0.698,1.395l-0.233,1.744h-5.814
		l0.116-8.14c0.698,0,1.628,0,2.326,0c2.791,0.116,1.395,0.233,2.326,0.698C248.227,217.326,248.11,216.86,249.389,217.326
		C249.273,217.326,248.924,217.209,249.389,217.326L249.389,217.326z"/>
	<path fill="#FFFFFF" d="M474.273,221.395h-2.326c-0.116,2.209-0.698,0.698-0.698,3.023h-5.93l0.116-8.023l3.721-0.116
		c1.163,0.233,0.233,0,0.698,0.349c0.814,0.465,1.163,0.116,2.209,0.349c1.628,0.349-0.465,0.349,1.628,0.698
		c0.116,1.163,0.233,1.046,0.465,1.395C474.506,219.767,474.506,220.581,474.273,221.395L474.273,221.395z M474.273,221.395
		l2.093-0.116v-7.558l-20.814,0.116v2.093c1.163,0.116,1.977-0.116,2.674,0.465l0.116,0.116l0.116,0.116
		c0.698,0.349,0.698,0.233,1.163,0.233c0.116,1.512,0,1.395,0.465,2.209c0.698,1.163,0.349,10.465,0.233,12.093
		c-0.116,5.233-0.465,1.163-0.698,4.302c-1.163,0-0.698-0.116-1.163,0.698c-0.698,0-1.977,0-2.558,0.349
		c0,0-0.233,0.116-0.233,0.233c-0.698,0.465-0.465,0.698-0.465,1.86h20.698c0-0.465,0-0.814,0.233-1.163c0,0,0-0.116,0.116-0.116
		l0.116-0.116l0.116-0.233c0.116-0.116,0.116,0,0.116-0.465c0.116-0.698,0.116-2.209,0.233-3.023h0.698v-4.651
		c-0.698,0-1.047,0.233-1.163,0.698l-0.116,0.116l-2.326,4.07l-0.116,0.116l-3.023,2.209h-3.953
		c-0.698-1.047-0.349-0.465-1.163-1.163l-0.116-0.116c-0.465-0.698-0.349-0.116-0.465-0.698v-7.093h4.884
		c0.698,0.814,0.233,0.233,0.698,0.698l0.116,0.116l0.349,0.465l0.116,0.116l0.116,0.116c0.349,0.698,0.233,1.163,0.465,2.558h1.395
		c0.698-0.814,0.698-0.465,0.698-1.86C474.157,227.558,473.924,223.023,474.273,221.395L474.273,221.395z"/>
	<path id="XMLID_10_" fill="#FFFFFF" d="M146.948,216.512c0.233-0.233,0.116-0.233,0.698-0.349c1.86-0.465,1.744,0.233,1.628-2.209
		h-12.674l0.116,2.209l2.209,0.465l0.116,0.116c0.349,0.349,0.465,0.116,0.698,0.698c1.163,0.116,0.349,0.233,0.814,0.698
		l0.116,0.116c0.698,0.814,0.349,5.349,0.349,7.209c-1.047,0-0.698-0.116-0.698,0.465c-0.233,1.744,0.349,2.209-0.465,3.488
		c-0.465,0.814-0.116,2.558-0.698,3.488l-0.698,1.395c-0.465,0.698-0.349-0.698-0.465,0.698c-1.163,0.116-0.698,0.465-2.093,0.698
		c-0.698,0.116-1.744,0.116-2.558,0.116c-2.791,0-2.791,0.233-4.186-1.047c0,0-0.233-0.116-0.233-0.233l-1.047-0.814
		c-0.233-0.233-0.465-0.698-0.465-2.326h-0.698l-0.116-5c-0.116-4.884-0.349-2.209-0.698-3.837c-0.349-1.86-0.116-6.744-0.116-9.07
		c-3.488-0.116-6.86-0.349-10.465,0v2.209c0.698,0.116,1.163,0,1.86,0.116c0.698,0.233,0,0.233,0.814,0.465
		c0.233,0.116,0.698,0.116,0.814,0.116c0.116,1.512,0.116,0.814,0.465,1.512c0.465,0.698,0.233,2.209,0.698,2.674
		c0.233,0.465,0.465-0.116,0.465,1.977c0,0.814,0.116,1.744,0.116,2.558l0.349,2.209c0.465,1.395,0,3.488,0.349,4.884l0.698,1.86
		c1.047,0.698,0.349-0.349,0.814,1.047l0.698,0.814c0.349,0.233,0.116,0.116,0.698,0.349l1.047,0.698
		c1.395,1.163,2.093,0.698,3.721,1.163c1.628,0.698,6.744,0.698,8.721-0.698l0.116-0.116l0.698-0.349
		c1.047-0.465,0.814,0.349,0.814-1.047c1.163-0.116,0.116,0,0.698-0.233c0.698-0.349,0.698-0.698,1.047-1.163l0.698-0.814
		c0.233-0.465,0.116-0.698,0.465-1.046c0.465-0.698,0.349,0.349,0.465-2.558c0.116-5.581,0.465-3.372,0.698-5.233
		c0.116-0.698-0.116-1.977,0.116-2.674l0.698-2.209c0.349-1.744,0.233-0.698,0.465-1.047c0.233-0.349,0.116-0.465,0.233-1.047
		c0.233-0.349,0.698-0.349,0.698-0.698c0.116-0.233,0.233-0.698,0.233-1.046L146.948,216.512L146.948,216.512z"/>
	<path id="XMLID_9_" fill="#FFFFFF" d="M417.878,214.535c-0.698,0-1.628-0.116-2.326-0.116c-1.628-0.116-1.163,0.116-1.977-0.349
		c-1.163-0.698-13.023-0.116-13.953-0.116v2.209c0.698,0,2.093,0,2.674,0.349l0.698,0.698l0.116,0.116l0.698,0.698
		c0.116,1.628,0.116,3.14,0.116,4.884c0,1.163,0.233,0.698,0.465,1.512v2.558c0,1.163,0.233,2.558-0.116,3.488
		c-0.698,1.86-0.349,2.674-0.465,5.233c-2.791,0.814-0.233,0.233-1.977,0.698c-0.349,0.116-1.977,0.233-2.326,0.233l0.116,2.209
		h15.465l-0.116-2.209c-5-0.116-2.791-0.116-4.07-0.698c-0.698-0.233-0.698-0.116-1.163-0.233l-0.349-1.628
		c-0.698-1.395-0.465-5.814-0.465-7.674c0-3.372,0-6.512,0-9.884c1.977-0.465,2.558-0.116,3.372,0.349c0,0,0.116,0,0.116,0.116
		c0.465,0.116,0.698,0.116,1.163,0.233c1.163,0.349,2.209,1.977,2.558,2.209c0,0,0.233,0.116,0.349,0.233
		c0,0.465,0,1.163,0.116,1.744c0.233,0.814,0.116,0.233,0.233,0.698c0.465,1.395-0.116,0.698-0.349,1.86
		c-0.116,0.349-0.116,1.163-0.116,1.512l-0.698,0.698c-0.116,0.116-0.116,0.233-0.349,0.349c-1.395,1.628-2.209,0.233-3.721,1.163
		c-0.698,0.465-0.698,0.465-0.698,1.86c3.372,0,3.023,0.233,4.651-0.698c0.698-0.349,1.163-0.349,1.86-0.349
		c0.698-0.698,0.116-0.349,1.163-0.698c0.698-0.233,0.233-0.116,0.465-0.233l0.465-0.349l0.116-0.116l1.046-1.163l0.116-0.116
		l0.116-0.116c0.349-0.349,0.116,0,0.233-0.349l0.698-1.744c0.349-1.512,0.116-4.535-1.047-5.698
		c-1.744-1.86-1.744-1.977-3.488-2.093L417.878,214.535L417.878,214.535z"/>
	<path id="XMLID_8_" fill="#FFFFFF" d="M366.366,219.535c-0.233-0.698-0.698-1.163-1.512-1.395v-1.163
		c1.395-0.698,1.047-0.698,3.023-1.046v-2.209h-12.674l0.116,2.209c0.698,0.233,0.698,0.116,1.163,0.116
		c0.233,0,0.349,0,0.698,0.116c0.465,0.116,0.349,0.116,0.465,0.233l2.558,2.558l0.116,0.116l0.233,0.233l0.116,0.116
		c0.465,0.698-0.233-0.116,0.349,0.349c0.698,0.698,0.116-0.233,0.698,0.698c0.814,1.86,0.814,1.163,1.512,2.558l0.698,0.698
		l0.116,0.116l1.047,1.744c0.698,0.814,0.465-0.116,0.698,1.628l0.814,0.233c0.116,0.814,0.349,1.163,0.698,1.628
		c0.233,0.698,0.233,1.163,0.233,1.86c0,1.395,0,2.558,0,3.837c-0.233,0.116-0.349,0.233-0.698,0.465l-2.558,1.163
		c-1.047,0.233-0.814,0.698-1.977,0.698v1.628h15.581v-1.628c-1.512,0-1.047-0.233-1.977-0.698l-1.163-0.233
		c-0.698-0.233-1.163-0.698-1.744-1.395c-0.698-1.047-0.698-6.512-0.233-7.442l1.163-2.326c0.698-1.163-0.465,0.698,0.116-0.233
		l1.977-3.023c0.465-0.814-0.116-0.465,0.698-1.163l0.233-0.233l0.116-0.116l0.116-0.116l1.512-2.209
		c0.698-0.698,1.047-0.698,1.744-1.163l1.047-0.698c0.349-0.116,1.163-0.116,1.628-0.116v-2.093h-10.349l0.116,2.209
		c1.512,0.116,1.163,0.233,1.628,0.698l0.465,0.349c0,0.233,0,0.698,0,0.698c-0.116,0.465-0.116,0.233-0.233,0.465
		c-0.233,0.349-0.116-0.465-0.465,0.698l-0.698,2.093c-0.233,0.465,0,0.233-0.233,0.698c-0.233,0.465,0-0.116-0.233,0.349
		c-0.233,0.465-0.116,0.698-0.349,1.047l-0.116,0.233l-0.116,0.116c0,0-0.116,0.116-0.233,0.465
		c-0.116,0.349-0.116,0.698-0.233,1.047c-0.233,0-0.698,0.116-0.814,0.116c-0.698-0.116-0.349,0-0.698-0.233
		c-0.698-0.698-0.698-1.512-1.163-2.209l-0.698-1.046l-0.116-0.116c0,0-0.116-0.233-0.233-0.233L366.366,219.535L366.366,219.535z"
		/>
	<path id="XMLID_7_" fill="#FFFFFF" d="M215.087,240h1.395l0.116-1.628l0.698-0.233c0.116-0.698,0.116-1.395,0.465-1.977
		l1.628-3.372c0,0,0-0.116,0.116-0.116l0.116-0.349c0.349-1.163,0.465-0.233,0.698-1.977c0.349-1.744,0.698-0.814,0.698-2.558
		c0.814-0.465,0.698,0,1.047-1.046c0,0,0-0.116,0.116-0.116c0,0,0-0.116,0.116-0.116l0.116-0.116l0.233-0.465
		c0.116-0.233,0.116-0.233,0.116-0.465c0.116-0.465,0-0.116,0.233-0.465l2.674-5.814c0,0,0-0.116,0.116-0.116l0.814-1.512
		l3.488-1.86v-2.209h-11.628v2.209c1.163,0.116,1.977,0.349,3.023,1.047c0.698,0.465-0.349,0.349,0.698,0.465l-0.698,3.14
		c-0.465,1.163-0.465,0.233-0.698,1.628c-0.116,0.349,0,0.465-0.233,0.814c-0.465,1.163,0.698-1.046-0.233,0.349
		c-0.233,0.349,0-0.233-0.233,0.465l-1.512,3.488c-0.349,1.163-0.465,2.558-1.395,3.372c-0.698,0.698,0.233,0.349-0.814,0.465
		l-1.86-4.07c0,0,0-0.116-0.116-0.116c-0.814-1.628-0.233-1.163-0.814-2.326c-0.116-0.233,0,0.233-0.349-0.698
		c-0.116-0.233-0.116-0.465-0.233-0.698c-0.233-0.698-0.698-1.628-1.395-2.093c0-0.349,0-0.814-0.116-1.395
		c-0.233-1.395-0.116-0.465-0.349-0.814c-0.349-0.698-0.233-1.395-0.233-2.093c1.163-0.116,1.163-0.233,1.744-0.698
		c0.698-0.349,1.163-0.233,1.977-0.233v-2.209H201.25l0.116,2.209l1.047,0.233c0.698,0.349,1.86,0.698,2.209,1.163l0.116,0.116
		l0.116,0.116c0.698,0.698,0.698,0.698,1.046,1.512l1.163,3.023l0.116,0.116c0,0,0,0.116,0.116,0.116l0.698,1.163
		c0.349,0.349,0.233,0.116,0.465,0.698c0.465,1.163-0.349,0.465,0.698,1.046c0.116,2.093,0.233,1.512,0.465,1.977
		c0,0,0.116,0.116,0.233,0.465l0.698,1.977c0.698,1.163-0.698-1.046,0.116,0.349l0.465,0.698c0.698,1.512,0.698,1.163,0.814,3.372
		c0.698,0.349,0.698,0.698,1.047,1.163c0.698,1.395,0.349,1.395,1.163,1.977C214.39,240.698,214.855,238.14,215.087,240L215.087,240
		z"/>
	<path id="XMLID_6_" fill="#FFFFFF" d="M489.854,222.093c-0.116-1.395-0.116-0.233-0.698-1.047l-0.465-0.814
		c0,0,0-0.116-0.116-0.116c0,0,0-0.116-0.116-0.116c-0.349-0.698-0.349-1.977,0.233-2.558l0.116-0.116l0.116-0.116
		c0.349-0.349,0.465-0.233,0.698-0.814c1.395,0,3.372-0.233,4.186,0.698c0.698,0.698,0.349-0.465,0.698,0.698
		c1.744,0.233-0.465,0.698,1.512,0.814c0,0.349,0,1.047,0.116,1.163c0.233,0.698-0.116,0,0.698,0.465l0.116,2.093l2.093-0.233
		v-7.209c-2.326-0.233-1.744-0.698-2.791-0.698c-0.349-0.116-0.698,0-1.163-0.116c-1.744-0.116-1.163-0.698-2.674-0.698
		c-1.163,0.233-0.116,0-0.698,0.349c-0.698,0.349-1.512,0.233-2.209,0.349c-1.395,0.233-0.465,0.233-1.163,0.698
		c-0.814,0.465-1.047,0.698-1.86,1.163c-0.698,0.698-0.698,0.233-0.814,1.163h-0.698c-0.116,1.512-0.698-0.349-0.698,4.186
		c0,1.163,0,1.977,0.698,2.791c0.698,1.163,0.233,0.814,1.395,1.977l1.977,1.163l0.116,0.116l1.163,0.465
		c0.465,0.233,0.698,0.698,1.512,0.698c0.116,1.163-0.116,0.465,1.163,0.814c1.512,0.698-0.465,0.465,1.163,0.698
		c0.116,1.163,0,0.233,0.465,0.698l0.465,0.465c0.465,0.698,0.233,0.698,1.163,0.814c0.233,3.837-0.349,2.093-0.698,4.302
		c-1.047,0.116-2.326,1.163-4.07,0.698c-0.698-0.233,0.116,0-0.349-0.233l-1.163-0.698c-0.698-0.465,0.698-0.349-0.698-0.465
		c-0.116-1.628-0.116-0.233-0.465-0.814c-0.465-0.698,0.116-1.163-1.163-1.163l-0.698-2.209c-0.349-0.698-0.233-1.163-0.465-2.209
		l-1.977,0.233v7.674c0.814,0.465,0.698-0.349,0.698,1.047c0.698,0,1.512,0,1.977,0.349l0.698,0.349
		c0.116,0,0.698,0.116,0.814,0.116c0.349,0,0.698,0,1.047,0.116c1.163,0.349,1.163,0.465,2.558,0.465
		c0.698,0,1.512,0.116,2.093-0.116l0.349-0.116c0,0,0.116,0,0.116-0.116c0,0,0.116,0,0.116-0.116l1.86-0.233
		c1.163-0.233,0.465-0.698,2.209-0.698c0-1.395-0.116-0.698,0.698-1.163l0.116-0.116c0.698-0.698,0.349-0.698,0.814-1.512
		c0.465-0.698,0.233,0.349,0.698-0.698V230l-0.698-0.116l-0.116-1.628c-0.698-0.349-0.698-0.465-1.163-1.047
		c-0.233-0.349-0.116,0.349-0.233-0.465c-1.163-0.116-0.233-0.233-1.163-0.698l-1.395-0.698c-1.628-0.698-2.093-0.349-2.209-1.628
		c-1.047-0.116-1.512,0-2.209-0.698l-0.465-0.349C490.203,222.093,491.366,222.093,489.854,222.093L489.854,222.093z"/>
	<path id="XMLID_5_" fill="#FFFFFF" d="M295.203,217.093c0.698-0.698,1.86-1.744,3.023-1.512c0.465,0.116,1.628,0.465,2.209,1.047
		c0.698,0.698,0.814,0.698,1.395,1.744c0.349,0.698-0.465,0.698,0.698,0.698c0,1.744,0.698,1.395,0.698,3.023h1.628
		c0-2.558,0.233-5-0.116-7.558c-1.977-0.116-1.977,0.116-2.093-0.698c-2.209-0.116-4.419-0.233-6.512-0.116
		c-0.814,0.116-1.977,0.698-2.558,1.163l-0.698,0.349c-1.395,0.465-0.349,0.698-1.512,0.698c-0.116,1.163,0.349,0.349-0.698,0.814
		c-0.116,2.093-0.698,1.628-0.698,2.558c-0.349,2.209,0.233,2.558,0.698,3.721c0.465,1.163,0.698,0.698,0.698,1.86
		c1.395,0.116,0.233,0,0.698,0.465l0.814,0.698l0.116,0.116l1.977,1.163l0.116,0.116c1.163,0.698,1.163-0.233,1.395,1.047
		l3.721,1.977c1.163,1.163,1.163,3.721,0.698,4.535c-0.349,0.349-0.349,0.233-0.698,0.465c-1.163,1.163-1.163,1.395-3.023,1.163
		c-0.698-0.116-1.628-0.698-2.209-0.698c-0.814-0.698,0.465-0.465-0.814-0.698c-0.116-1.163,0.233-0.233-0.698-1.047
		c-0.814-0.814-0.698-1.163-1.512-2.209c-0.814-1.744,0.349-3.721-2.326-3.488v7.209c0,1.512,0.698,0.233,0.698,1.628l1.628,0.465
		c0.465,0.233-0.465,0.116,0.698,0.349c2.209,0.349,1.163,0.349,2.209,0.698c1.163,0.349,5.233,0.233,6.047-0.233
		c0.814-0.465,1.744-0.349,2.326-0.698c0.814-0.698,0.698,0.233,0.698-1.047c1.163-0.116,0.116,0.116,0.698-0.349
		c1.395-1.047,1.512-2.326,1.512-4.651c0-1.744,0-2.209-0.698-3.488l-0.349-0.698c-0.116-0.233-0.465-0.698-0.465-1.163
		c-0.698-0.116-0.814-0.116-1.163-0.465l-0.465-0.465l-0.116-0.116l-0.116-0.116c-0.465-0.465-0.698-0.349-1.512-0.698l-0.233-0.233
		l-0.116-0.116l-1.163-0.465c-0.698-0.349,0.116,0-0.465-0.465l-1.86-1.163c-0.465-0.349-0.349-0.465-1.047-0.698
		c-0.116-1.163,0-0.349-0.349-0.698l-0.116-0.116l-0.465-0.465c-0.698-0.698-0.698,0-0.698-1.628L295.203,217.093L295.203,217.093z"
		/>
	<path id="XMLID_4_" fill="#FFFFFF" d="M510.901,217.093L510.901,217.093l0.233-0.233c1.512-1.163,3.023-0.698,4.884-0.698
		c0.116,1.047,0.233,0.698,0.814,1.163c0.698,0.698,0.698,1.395,0.698,2.326c1.163,0.116,0.698,0.116,0.814,2.209h2.093v-7.442
		l-2.093-0.465c-0.814-0.698-6.86-0.698-8.023,0l-0.814,0.698c0,0-0.116,0.233-0.233,0.233c-0.233,0.233-0.116,0.116-0.698,0.349
		c-0.698,0.349-1.047,0.698-1.744,1.395l-0.814,1.512l-0.116,0.116c-0.698,1.047-0.698,4.07,0,5.233l1.744,1.977
		c0.116,0.116,0.116,0.233,0.349,0.349l0.465,0.465l0.116,0.116l0.116,0.116l2.326,1.395c0.349,0.233,0.698,0.233,0.814,0.349
		l2.093,1.395c1.163,0.698,1.163-0.233,1.163,1.047c1.163,0.116,0.349-0.233,1.047,0.698c0.814,1.047,0.814,3.721,0,4.884
		c-0.698,1.046-1.047,1.163-2.326,1.163c-1.047,0-1.744,0-2.558-0.465l-1.047-0.698l-0.233-0.233l-1.512-1.977
		c-0.814-1.047-0.698-2.558-1.163-3.721l-0.349-1.395h-1.163v8.256h0.698v0.698c1.977,0.116,1.047,0.698,3.14,0.698
		c1.512,0.116,1.977,0.698,3.14,0.698c3.372,0,1.977-0.233,3.837-0.465c0.698-0.116,1.163,0,1.86-0.349l0.698-0.465
		c0.814-0.349,1.163-0.698,1.86-1.512l0.116-0.116l0.698-0.814c0.698-1.163,0.698-5.233,0-6.744l-1.977-2.209
		c-0.698-0.698-1.163-0.698-1.86-1.163l-2.209-1.512c-1.163-1.047,0.698,0.349-0.349-0.349l-1.86-0.814
		C510.436,221.628,510.668,219.767,510.901,217.093L510.901,217.093z"/>
	<path id="XMLID_3_" fill="#FFFFFF" d="M331.25,220.233c0.698-0.698,0.349,0.116,0.698-0.698c0.116-0.233,0-0.349,0.116-0.698
		c0.116-0.349,0.233-0.349,0.233-0.465l0.349-0.349c1.628-1.744,2.558-1.163,6.279-1.163l-0.116,17.326
		c-1.628,0.116,0.116-0.233-1.163,1.628l-0.349,0.698l-3.488,0.233l-0.116,2.209h15.116c0-1.163,0.116-1.512-0.698-1.977
		l-0.698-0.233c-0.116,0-0.698-0.116-0.698-0.116c-1.977-0.233-0.698,0.116-1.628-0.698l-0.116-0.116c0,0-0.233-0.116-0.233-0.233
		l-0.698-0.698c0,0-0.116,0-0.116-0.116s-0.116-0.116-0.233-0.116V216.86c4.07-0.116,1.977,0.349,3.721,0.698
		c2.674,0.349,0.465,0,3.023,1.86l0.233,2.674c0.698,0.116,0.233,0.349,0.814,0.698c0.349,0.116,0.698,0.116,1.163,0.116
		c0.116-1.163,0.349-3.023,0-4.186c-0.698-1.977-0.349-0.814-0.349-3.953c-1.512-0.116-22.442,0-22.674,0.116
		c-0.116,2.791,0.465,3.721-0.698,3.837v4.186c2.674,0.116,0.698-0.349,2.093-0.698L331.25,220.233L331.25,220.233z"/>
	<path id="XMLID_2_" fill="#FFFFFF" d="M321.482,216.977c0.349-0.116,0.698-0.116,1.047-0.233l0.698-0.465
		c0.465-0.116,1.86-0.116,2.326-0.233v-2.209h-14.767v2.209c1.628,0.116,1.163-0.116,2.326,0.465l0.233,0.116
		c0.233,0.116,0.465,0.116,0.698,0.233l0.698,0.698c1.047,1.163,0.349,15.581,0.233,17.907c-2.558,0.349,0.698,0.814-4.186,1.047
		l-0.116,2.209l15.116-0.116v-1.512c-1.86-0.116-1.163-0.233-1.744-0.465c-1.395-0.698-1.163,0.349-2.093-0.698
		c-0.814-0.814-0.465,0.233-0.698-1.163c-0.116-0.698,0.116-0.465-0.349-1.163c-0.116-0.233-0.233,0.349-0.349-0.814v-13.953
		L321.482,216.977L321.482,216.977z"/>
	<path id="XMLID_1_" fill="#FFFFFF" d="M196.483,217.093c0.465-0.465,0.698-0.698,1.395-0.814c0.233-0.116,0.698-0.116,0.698-0.116
		c0.465,0,0.814,0,1.512,0v-2.209l-15.116,0.116v2.093c0.698,0.116,2.093,0,2.558,0.233l1.512,1.163
		c0.698,0.814,0.465,3.488,0.698,4.651h0.698v10.349c-0.698,0.116-0.698-0.349-0.698,3.023c-1.86,0.233-0.698,0.465-2.093,0.698
		c-0.698,0.116-1.628,0.116-2.326,0.233v1.977c1.163,0.465,12.791,0.233,15.116,0.116v-1.628c-2.674-0.116,0-0.465-3.488-0.698
		l-1.395-2.093c-0.698-1.395-0.465-10.93-0.349-13.256C195.087,218.488,194.738,218.488,196.483,217.093L196.483,217.093z"/>
</g>
</svg>
