<?xml version="1.0" encoding="utf-8"?>
<!-- Generator: Adobe Illustrator 19.0.0, SVG Export Plug-In . SVG Version: 6.00 Build 0)  -->
<svg version="1.1" id="Layer_1" xmlns="http://www.w3.org/2000/svg" xmlns:xlink="http://www.w3.org/1999/xlink" x="0px" y="0px"
	 viewBox="0 0 640 360" enable-background="new 0 0 640 360" xml:space="preserve">
<rect id="XMLID_47_" fill="#23333D" width="640" height="360"/>
<g>
	<path fill="#0A3565" d="M291.345,304.473c1.651-4.08,7.965-4.857,12.822-6.411c4.08-1.651,11.171-3.205,16.027-2.428
		c3.205,10.394-4.08,8.742,12.822,8.742c16.027,0,9.616,1.651,12.045-8.742c3.205-0.777,16.027,1.651,17.679,2.428l7.965,3.205
		c1.651,1.651,2.428,1.651,2.428,4.857c-6.411,3.205-9.616,5.634-17.679,6.411c-17.679,2.428-44.877,4.08-60.904-4.857
		C290.568,306.124,292.996,306.901,291.345,304.473z M164.777,100.196V87.374c0-13.599,10.394-23.215,20.787-31.278
		c1.651-0.777,2.428-1.651,4.857-2.428c4.857-3.205,9.616-5.634,15.25-7.188l18.456-4.08c20.01,0,24.867-1.651,44.1,4.857
		c12.045,3.205,22.438,10.394,30.501,19.233l6.411,9.616c2.428,4.08,0.777,4.857,4.08,4.857h21.564c4.857,0,0-9.616,12.822-19.233
		l17.679-14.473c17.679-13.599,27.295-4.08,28.849-3.205c7.965,1.651,3.205-3.205,16.902,4.08
		c7.188,4.857,10.394,8.742,14.473,16.902c1.651,1.651,3.205,4.857,4.08,6.411c0.777,3.205,0.777,5.634,0.777,9.616h46.431
		c1.651,0,2.428,0.777,2.428,2.428v179.507c0,1.651-1.651,3.205-3.205,3.205H347.489v23.993c3.205,0,6.411,1.651,9.616,2.428
		c2.428,0,3.205,0,4.857,0.777c4.08,0.777,8.742,2.428,12.822,4.857c4.08,3.205,5.634,7.965,1.651,12.045
		c-7.965,6.411-28.072,9.616-36.814,9.616c-20.787,0-15.25,0.777-34.386-2.428l-10.394-3.205c-7.965-4.08-13.599-9.616-4.08-16.902
		c5.634-3.205,21.564-7.188,28.072-7.188v-23.993H191.975c-4.08,0-2.428-6.411-2.428-10.394V146.724
		c0-15.25,1.651-13.599-5.634-18.456c-4.08-2.428-9.616-7.188-12.822-11.171C166.429,109.036,164.777,105.053,164.777,100.196z
		 M323.4,265.23h18.456c0.777,0.777,1.651,34.386-0.777,36.037c-2.428,1.651-8.742,0-12.045,0.777c-7.188,0-5.634-0.777-5.634-8.742
		C323.4,287.668,322.623,269.212,323.4,265.23z M417.136,245.997l-6.411-0.777c0-0.777,3.205-10.394,4.08-12.822
		c2.428-5.634,2.428-12.045,4.857-13.599c2.428,3.205,3.205,24.867,3.205,26.421L417.136,245.997z M324.274,210.834
		c2.428,2.428,2.428,5.634,3.205,9.616l6.411,20.01c1.651,5.634,2.428,5.634-4.857,5.634c-4.08,0-5.634-2.428-7.188-5.634
		C313.783,230.747,319.417,217.148,324.274,210.834z M442.002,205.977c3.205,4.08,2.428,36.037,2.428,40.117
		c-3.205,0-6.411,0-8.742,0c-1.651,0-4.08,0-4.857,0c-6.411,0-4.08-5.634-6.411-24.867c-0.777-5.634,0-19.233-4.857-20.787
		c-2.428,4.08-4.08,19.233-7.188,23.215c0,5.634-4.857,19.233-7.965,22.438h-64.11c-1.651-2.428-11.171-36.037-12.822-42.448
		c-0.777-4.08-0.777-4.857-4.08-4.857c0,0-0.777,0-0.777,0.777v1.651c-0.777,1.651,0,1.651-0.777,4.08
		c0,0.777-1.651,3.205-2.428,4.857c-13.599,23.993-1.651,29.626-0.777,35.26h-14.473c-8.742-12.822-10.394-15.25-6.411-30.501
		c3.205-12.822,20.01-44.877,28.849-52.939c4.08-3.205,9.616-4.857,13.599-6.411c4.08-0.777,12.045-4.857,15.25-4.857l10.394,28.849
		c1.651,4.857,9.616,28.072,11.171,30.501c3.205-0.777,5.634-10.394,7.188-13.599l16.902-45.654c3.205,0,5.634,1.651,8.742,2.428
		c6.411,2.428,16.902,1.651,23.993,12.822C438.797,173.145,442.779,198.789,442.002,205.977z M361.865,152.261
		c7.965,2.428,18.456,5.634,27.295,0.777c3.205-1.651,4.08-2.428,6.411-3.205l-14.376,43.322c-2.428,5.634-1.651,4.08-3.205,4.857
		c-2.428-1.651-4.08-7.965-4.857-10.394C369.831,177.128,362.74,160.323,361.865,152.261z M364.294,134.679
		c4.08,0.777,5.634,4.857,12.822,4.857c9.616,0.777,10.394-4.08,12.045-2.428c0.777,1.651,2.428,7.965,2.428,10.394
		c-7.965,5.634-20.01,4.857-27.295,0V134.679z M448.413,245.22c-0.777-19.233,0-36.037-3.205-54.493
		c-2.428-8.742-1.651-16.027-5.634-23.215c-7.965-15.25-16.902-14.473-25.644-17.679c-4.08-0.777-5.634-2.428-9.616-4.08
		c-4.08-0.777-8.742-0.777-9.616-4.857c-4.08-12.045,15.25-0.777,28.849-34.386c0.777-2.428,0.777-3.205,1.651-4.857h28.849
		c0,44.877,0.777,94.61,0,138.613v5.634L448.413,245.22z M308.149,181.11c-30.501,52.939-11.171,53.716-10.394,64.11
		c-16.027,0.777-77.709,1.651-88.102,0v-1.651v-0.777c0,0,0-0.777-0.777-1.651l0.777-100.924c4.08,0,15.25,3.205,29.626,2.428
		c16.902,0,25.644-2.428,38.466-8.742c5.634-2.428,8.742,2.428,28.072,2.428c3.205-0.777,4.857-0.777,7.188-1.651
		c4.08-0.777,4.08-1.651,4.857-3.205c-3.205-4.08-11.171-4.08-17.679-13.599c0.777-2.428,4.08-7.188,5.634-9.616
		c1.651-5.634,0-7.188,7.188-7.188l19.233,0.777c1.651,5.634,1.651,8.742,4.08,13.599c10.394,15.25,23.215,7.965,23.993,20.01
		c0,3.205,0,5.634-0.777,7.965c-1.651,0.777-16.902,6.411-20.01,7.965c-11.171,4.08-3.205-0.777-11.171,4.857
		c-2.428,1.651-5.634,3.205-7.188,4.08L308.149,181.11z M357.883,105.053c4.857-0.777,7.188,1.651,12.822,0
		c4.08-0.777,4.08-3.205,5.634-7.188l6.411,0.777c1.651,3.205,1.651,4.857,6.411,5.634c4.08,0.777,7.965,0,12.045,0.777
		c0.777,7.188-1.651,16.027-4.857,20.787c-2.428,3.205-4.08,4.857-7.188,6.411c-7.965,4.08-15.25,7.965-26.421-6.411
		C359.437,122.635,357.883,110.59,357.883,105.053z M360.311,96.214c1.651-0.777,0-0.777,3.205-0.777c0.777,0,1.651,0,2.428,0
		c1.651,0,4.08,0,5.634,0C371.482,105.053,359.437,102.625,360.311,96.214z M399.554,99.322c-0.777,0.777,0,0.777-1.651,0.777
		c-13.599,3.205-14.473-7.965,0-7.188C399.554,96.214,401.205,96.991,399.554,99.322z M308.149,130.697
		c-6.411,4.857-23.215-2.428-27.295-2.428c-1.651,0-8.742,4.08-10.394,4.857c-26.421,12.045-84.897,6.411-99.37-26.421
		s25.644-58.476,58.476-59.253c20.01-0.777,36.814,2.428,50.511,10.394c12.045,7.188,24.867,18.456,23.993,36.037
		c0,9.616-4.08,14.473-8.742,21.564C291.345,121.08,305.818,127.394,308.149,130.697z M194.404,133.902
		c0.777,0,8.742,4.08,10.394,4.857c1.651,22.438-2.428,99.37,0.777,111.317H458.71c0.777-45.654,0-100.924,0-147.452
		c0-5.634,0.777-5.634-4.857-5.634h-28.849c-1.651-14.473,0.777-11.171,17.679-11.171c3.205,0,25.644-0.777,26.421,1.651v115.397
		c0,18.456,1.651,40.117,0,57.699c-5.634,1.651-58.476,0-68.966,0c-29.626,0-201.848,1.651-206.705,0L194.404,133.902z
		 M315.337,97.768c-5.634,0-7.188,0.777-7.188-4.08c-0.777-4.08-1.651-7.965,2.428-7.965c4.857,0,19.233-0.777,22.438,0.777
		c2.428,13.599-3.205,11.171-6.411,11.171L315.337,97.768L315.337,97.768z M378.67,93.785c0-3.205,2.428-4.08,4.857-6.411
		c4.08-4.857,2.428-4.08,6.411-4.857c2.428,0.777,0.777,0,2.428,2.428c0.777,1.651,0.777,0.777,1.651,2.428
		c-2.428,1.651-4.857,2.428-7.965,4.08C381.875,93.785,384.304,94.66,378.67,93.785z M355.454,123.412
		c-3.205-0.777-10.394-4.857-12.045-7.188c-4.08-3.205-5.634-7.965-6.411-12.822c-1.651-10.394-1.651-24.867,4.857-32.832
		c4.857-5.634,24.867-23.215,33.609-24.867c7.188-1.651,9.616,0.777,12.822,4.08c4.857,4.857,4.08-4.857,13.599,2.428
		c4.08,2.428,6.411,4.08,8.742,6.411c13.599,13.599,12.045,38.466,6.411,52.065c-2.428,5.634-8.742,14.473-15.25,16.027
		c0-4.08,2.428-9.616,3.205-14.473c4.08-16.902-6.411-24.867-10.394-30.501c-0.777-3.205-0.777-4.08-1.651-6.411
		c-5.634,0-9.616,5.634-13.599,9.616c-6.411,6.411-10.394,4.857-16.027,4.857C348.266,91.357,356.232,113.018,355.454,123.412z"/>
	<path id="XMLID_28_" fill="#F8F6EB" d="M300.184,117.875c6.411,9.616,14.473,9.616,17.679,13.599
		c-0.777,1.651-0.777,2.428-4.857,3.205c-2.428,0.777-4.08,0.777-7.188,1.651c-19.233,0-22.438-4.857-28.072-2.428
		c-12.822,6.411-21.564,8.742-38.466,8.742c-14.473,0.777-25.644-2.428-29.626-2.428l-0.777,100.924
		c0.777,0.777,0.777,1.651,0.777,1.651v0.777v1.651c10.394,1.651,72.075,0.777,88.102,0c-0.777-10.394-20.01-11.171,10.394-64.11
		l12.822-20.787c1.651-0.777,4.857-2.428,7.188-4.08c7.965-5.634,0-0.777,11.171-4.857c3.205-1.651,18.456-7.188,20.01-7.965
		c0.777-2.428,0.777-4.857,0.777-7.965c-0.777-12.045-13.599-4.857-23.993-20.01c-2.428-4.857-2.428-7.965-4.08-13.599
		l-19.233-0.777c-7.188,0-5.634,1.651-7.188,7.188C304.167,110.59,300.961,115.447,300.184,117.875z"/>
	<path id="XMLID_27_" fill="#E5B379" d="M412.376,223.656c1.651-11.171,2.428-7.188,3.205-12.822c0-3.205,0.777-3.205,0.777-5.634
		c1.651-3.205,0-4.08,3.205-6.411c2.428,0.777,4.857,0.777,4.857,7.965l4.08,37.689c3.205,1.651,11.171,1.651,14.473,0.777
		c2.428-11.171-1.651-28.849-0.777-39.243c0.777-7.188-3.205-32.832-7.965-40.117c-7.188-11.171-17.679-10.394-23.993-12.822
		c-3.205-0.777-5.634-2.428-8.742-2.428l-16.902,45.654c-1.651,3.205-4.08,12.822-7.188,13.599
		c-1.651-2.428-9.616-25.644-11.171-30.501l-10.394-28.849c-3.205,0-11.171,4.08-15.25,4.857c-4.08,1.651-9.616,3.205-13.599,6.411
		c-8.742,7.965-25.644,40.117-28.849,52.939c-4.08,15.25-2.428,17.679,6.411,30.501h14.473c-0.777-5.634-12.822-11.171,0.777-35.26
		c0.777-1.651,2.428-4.08,2.428-4.857c0.777-2.428,0-2.428,0.777-4.08v-1.651c0-0.777,0.777-0.777,0.777-0.777
		c3.205,0,3.205,0.777,4.08,4.857c1.651,6.411,11.171,40.117,12.822,42.448h64.11C407.519,242.791,412.376,229.192,412.376,223.656z
		"/>
	<path fill="#F8F6EB" d="M201.592,107.482c15.25,0,59.253-0.777,72.075,0.777v4.08h-72.075c-2.428,0-5.634,0.777-5.634-2.428
		C196.055,107.482,199.163,107.482,201.592,107.482z M211.985,94.66c-11.171,0-14.473,1.651-16.027-2.428
		c1.651-1.651-2.428-1.651,7.965-1.651h43.322c3.205,0,5.634,0,8.742,0c7.965,0,5.634,0,6.411,1.651
		c-0.777,4.08-1.651,2.428-6.411,2.428H211.985z M268.907,72.901l4.857,0.777v3.205l-4.857,0.777h-67.315
		c-7.965,0-7.965-4.857,0-4.857L268.907,72.901L268.907,72.901z M308.149,130.697c-2.428-3.205-16.902-9.616-12.822-15.25
		c4.857-7.188,8.742-12.045,8.742-21.564c0.777-17.679-12.045-28.849-23.993-36.037c-13.599-7.965-30.501-11.171-50.511-10.394
		c-32.832,0.777-72.852,26.421-58.476,59.253s72.852,38.466,99.37,26.421c1.651-0.777,8.742-4.857,10.394-4.857
		C284.934,128.269,301.738,135.457,308.149,130.697z"/>
	<path id="XMLID_22_" fill="#B8C0CF" d="M425.198,96.991h28.849c5.634,0,4.857,0,4.857,5.634c0,46.431,0.777,101.701,0,147.452
		H205.671c-3.205-12.045,0.777-88.879-0.777-111.317c-1.651-0.777-9.616-4.857-10.394-4.857l-0.777,126.568
		c4.857,1.651,177.078,0,206.705,0c10.394,0,63.332,1.651,68.966,0c1.651-17.679,0-39.243,0-57.699V87.374
		c-0.777-2.428-23.215-1.651-26.421-1.651C425.975,85.723,423.547,82.615,425.198,96.991z"/>
	<path id="XMLID_21_" fill="#FCC33B" d="M355.454,123.412c0.777-10.394-7.188-32.055,7.965-33.609c5.634,0,9.616,1.651,16.027-4.857
		c4.08-4.08,7.965-9.616,13.599-9.616c0.777,2.428,0.777,3.205,1.651,6.411c4.08,5.634,14.473,13.599,10.394,30.501
		c-0.777,4.857-3.205,10.394-3.205,14.473c6.411-1.651,12.822-10.394,15.25-16.027c5.634-13.599,7.188-38.466-6.411-52.065
		c-2.428-2.428-4.857-4.08-8.742-6.411c-9.616-7.188-8.742,2.428-13.599-2.428c-3.205-3.205-5.634-5.634-12.822-4.08
		c-8.742,1.651-28.849,19.233-33.609,24.867c-6.411,7.965-6.411,22.438-4.857,32.832c0.777,4.857,2.428,9.616,6.411,12.822
		C345.061,118.652,352.249,122.635,355.454,123.412z"/>
	<path id="XMLID_20_" fill="#F8F6EB" d="M448.413,245.22l5.634,0.777v-5.634c0.777-44.1,0-93.736,0-138.613h-28.849
		c-0.777,1.651-0.777,2.428-1.651,4.857c-13.599,33.609-32.832,22.438-28.849,34.386c0.777,4.08,5.634,4.08,9.616,4.857
		c4.08,1.651,5.634,3.205,9.616,4.08c8.742,3.205,17.679,2.428,25.644,17.679c4.08,7.188,3.205,14.473,5.634,23.215
		C448.413,209.183,447.636,225.987,448.413,245.22z"/>
	<path fill="#F5DCB7" d="M385.081,124.966c-7.965,4.857-16.027-1.651-16.902-5.634c0,0,0.777-2.428,4.857,0.777
		c10.394,7.188,7.188-0.777,15.25-0.777C388.383,123.412,387.509,123.412,385.081,124.966z M357.883,105.053
		c0,5.634,1.651,17.679,4.857,20.787c11.171,14.473,18.456,10.394,26.421,6.411c3.205-1.651,4.857-3.205,7.188-6.411
		c3.205-4.857,5.634-13.599,4.857-20.787c-4.08-0.777-7.965,0-12.045-0.777c-4.857-0.777-4.857-2.428-6.411-5.634l-6.411-0.777
		c-1.651,4.08-1.651,6.411-5.634,7.188C365.071,106.607,362.74,104.179,357.883,105.053z"/>
	<path id="XMLID_17_" fill="#B8C0CF" d="M291.345,304.473c1.651,2.428-0.777,1.651,3.205,3.205
		c16.027,8.742,43.323,7.188,60.904,4.857c7.965-0.777,11.171-3.205,17.679-6.411c0-3.205-0.777-3.205-2.428-4.857l-7.965-3.205
		c-1.651-0.777-14.473-3.205-17.679-2.428c-2.428,10.394,4.08,8.742-12.045,8.742c-16.902,0-9.616,1.651-12.822-8.742
		c-4.857-0.777-12.045,0.777-16.027,2.428C299.407,299.713,292.996,300.49,291.345,304.473z"/>
	<path id="XMLID_16_" fill="#F8F6EB" d="M361.865,152.261c0.777,7.965,7.965,24.867,11.171,35.26
		c0.777,2.428,2.428,8.742,4.857,10.394c1.651-0.777,0.777,0.777,3.205-4.857l14.473-43.323c-2.428,0.777-3.205,1.651-6.411,3.205
		C380.224,157.895,369.831,154.689,361.865,152.261z"/>
	<path id="XMLID_15_" fill="#B8C0CF" d="M323.4,265.23c-0.777,4.08,0,22.438,0,28.072c0,7.965-1.651,8.742,5.634,8.742
		c3.205-0.777,9.616,0.777,12.045-0.777c2.428-1.651,1.651-35.26,0.777-36.037H323.4z"/>
	<path id="XMLID_14_" fill="#F8F6EB" d="M324.274,210.834c-4.857,6.411-10.394,20.01-2.428,29.626
		c1.651,3.205,3.205,5.634,7.188,5.634c7.188,0,6.411,0,4.857-5.634l-6.411-20.01C326.605,216.371,326.605,213.165,324.274,210.834z
		"/>
	<path id="XMLID_13_" fill="#0A3565" d="M201.592,112.144h72.075v-4.08c-12.822-1.651-56.922-0.777-72.075-0.777
		c-2.428,0-5.634,0-5.634,2.428C196.055,113.018,199.163,112.144,201.592,112.144z"/>
	<path id="XMLID_12_" fill="#0A3565" d="M201.592,77.758h67.315l4.857-0.777v-3.205l-4.857-0.777h-67.315
		C193.627,72.901,193.627,77.758,201.592,77.758z"/>
	<path id="XMLID_11_" fill="#F5DCB7" d="M364.294,147.501c7.188,4.857,19.233,5.634,27.295,0c0-2.428-1.651-8.742-2.428-10.394
		c-1.651-1.651-2.428,3.205-12.045,2.428c-7.188,0-8.742-4.08-12.822-4.857V147.501z"/>
	<path id="XMLID_10_" fill="#0A3565" d="M196.055,92.231c1.651,4.08,4.857,2.428,16.027,2.428h44.1c4.857,0,5.634,1.651,6.411-2.428
		c-0.777-1.651,1.651-1.651-6.411-1.651c-3.205,0-5.634,0-8.742,0h-43.323C193.627,90.58,197.609,90.58,196.055,92.231z"/>
	<polygon id="XMLID_9_" fill="#B8C0CF" points="309.024,96.214 331.462,96.991 331.462,86.5 309.024,86.5 	"/>
	<path id="XMLID_8_" fill="#F8F6EB" d="M422.77,245.22c0-1.651-0.777-23.215-3.205-26.421c-2.428,1.651-2.428,7.965-4.857,13.599
		c-0.777,2.428-4.08,12.045-4.08,12.822l6.411,0.777L422.77,245.22z"/>
	<path id="XMLID_7_" fill="#676B6E" d="M412.376,223.656c3.205-4.08,4.857-19.233,7.188-23.215c4.857,1.651,4.08,15.25,4.857,20.787
		c2.428,19.233,0,24.867,6.411,24.867c0.777,0,3.205,0,4.857,0c2.428,0,5.634,0,8.742,0c0-4.08,0.777-36.037-2.428-40.117
		c-0.777,10.394,3.205,28.072,0.777,39.243c-3.205,0.777-11.171,0.777-14.473-0.777l-4.08-37.689c0-7.188-2.428-7.188-4.857-7.965
		c-3.205,2.428-1.651,3.205-3.205,6.411c0,2.428-0.777,2.428-0.777,5.634C414.804,216.371,414.027,212.388,412.376,223.656z"/>
	<path id="XMLID_6_" fill="#0A3565" d="M368.276,119.429c0.777,4.08,8.742,10.394,16.902,5.634c2.428-1.651,3.205-1.651,3.205-5.634
		c-7.965,0-4.857,7.965-15.25,0.777C369.053,117.001,368.276,119.429,368.276,119.429z"/>
	<path id="XMLID_5_" fill="#F5DCB7" d="M399.554,99.322c1.651-2.428,0-3.205-1.651-6.411c-14.473-0.777-13.599,10.394,0,7.188
		C399.554,100.196,398.777,100.196,399.554,99.322z"/>
	<path id="XMLID_4_" fill="#F5DCB7" d="M378.67,93.785c5.634,0.777,3.205,0,7.188-2.428c3.205-1.651,5.634-2.428,7.965-4.08
		c-0.777-1.651-0.777-0.777-1.651-2.428c-1.651-2.428,0-1.651-2.428-2.428c-4.08,0.777-2.428,0-6.411,4.857
		C381.098,89.803,378.67,90.58,378.67,93.785z"/>
	<path fill="#0A3565" d="M309.024,86.5h22.438v10.394l-22.438-0.777V86.5z M315.337,97.768h11.268c3.205,0,8.742,2.428,6.411-11.171
		c-3.205-1.651-17.679-0.777-22.438-0.777c-4.08,0-3.205,4.08-2.428,7.965C308.149,98.545,309.801,97.768,315.337,97.768z"/>
	<path id="XMLID_1_" fill="#F5DCB7" d="M360.311,96.214c-0.777,6.411,11.171,8.742,11.171-0.777c-1.651,0-4.08,0-5.634,0
		c-0.777,0-1.651,0-2.428,0C360.311,95.437,361.865,95.437,360.311,96.214z"/>
</g>
</svg>
