<?xml version="1.0" encoding="utf-8"?>
<!-- Generator: Adobe Illustrator 19.0.0, SVG Export Plug-In . SVG Version: 6.00 Build 0)  -->
<svg version="1.1" id="Layer_1" xmlns="http://www.w3.org/2000/svg" xmlns:xlink="http://www.w3.org/1999/xlink" x="0px" y="0px"
	 viewBox="0 0 640 360" enable-background="new 0 0 640 360" xml:space="preserve">
<rect fill="#45668E" width="640" height="360"/>
<path fill="#FEFEFE" d="M292.79,191.656c23.477,0,54.133-5.014,53.335,22.565c-0.57,25.984-30.77,22.451-53.449,22.451
	L292.79,191.656L292.79,191.656z M292.79,123.05c18.12,0,42.395-3.647,41.939,18.576C334.272,163.735,312.505,161,292.79,161V123.05
	L292.79,123.05z M356.039,170.915c0.798-1.254,3.077-1.937,4.559-2.735c11.738-6.838,19.032-17.664,20.286-31.91
	c1.823-20.172-7.522-32.024-20.172-38.748c-14.815-7.75-34.873-7.522-53.335-7.522H246.52v179.949c23.818,0.114,47.637,0,71.455,0
	c23.818,0,38.178-1.823,56.412-14.929c12.194-8.889,22.337-27.921,18.12-50.486c-2.621-14.131-12.194-24.274-23.818-29.289
	C366.866,174.448,356.723,171.257,356.039,170.915L356.039,170.915z"/>
</svg>
