<svg version="1.1" xmlns="http://www.w3.org/2000/svg" viewBox="0 0 1440 810" enable-background="new 0 0 1440 810"><rect fill="#DDE0DF" width="1440" height="810"/><path fill-rule="evenodd" clip-rule="evenodd" fill="#FEFEFE" d="M481.477,353.335c21.643,5.112,40.613,6.621,55.532,30.043c23.258,36.514-14.281,96.411,38.707,134.975c21.873,15.918,38.572,17.58,70.991,15.795l-1.446-122.908c-1.824-16.319-14.232-31.611-22.168-39.165c-13.669-13.012-20.954-16.74-45.835-17.153l0.131-58.729c-12.287-11.77-72.403-35.233-95.658-34.206L481.477,353.335L481.477,353.335z"/><path fill-rule="evenodd" clip-rule="evenodd" fill="#FEFEFE" d="M577.365,260.84l2.673-5.056c11.524,0.132,32.465,3,39.393-3.084c29.22-25.659,15.397-71.752-20.136-78.427C544.776,164.032,523.976,243.97,577.365,260.84L577.365,260.84z"/><path fill-rule="evenodd" clip-rule="evenodd" fill="#F72D17" d="M811.978,354.391c-16.102,2.082-25.826-1.59-45.464,15.961c-10.416,9.308-21.16,24.189-22.167,40.78l0.754,116.408c0.264,6.717-0.425,7.22,9.915,7.126c22.984-0.209,37.003,1.167,58.741-15.417c55.944-42.681,16.862-95.596,39.173-134.577c10.336-18.059,29.793-27.678,55.99-30.813l0.35-91.719c-28.293-1.5-65.489,16.759-88.411,29.023c-9.071,4.853-7.941,4.147-7.921,15.683C812.961,320.198,813.752,341.891,811.978,354.391L811.978,354.391z"/><path fill-rule="evenodd" clip-rule="evenodd" fill="#F72D17" d="M817.084,260.218c10.11-7.311,15.857-8.019,22.491-21.313c17.951-35.973-16.316-76.277-54.026-63.226c-46.538,16.105-30.331,75.608-8.783,80.188c12.926,2.747,27.822-3.859,37.553,2.567C816.623,259.955,812.641,259,817.084,260.218L817.084,260.218z"/><path fill-rule="evenodd" clip-rule="evenodd" fill="#0073C0" d="M811.978,354.391c1.774-12.5,0.983-34.194,0.96-47.545c-0.02-11.535-1.15-10.83,7.921-15.683c22.922-12.264,60.118-30.523,88.411-29.023l-0.35,91.719c-26.197,3.135-45.655,12.755-55.99,30.813c-22.31,38.98,16.771,91.896-39.173,134.577c-21.738,16.584-35.756,15.208-58.741,15.417c-10.34,0.094-9.651-0.409-9.915-7.126l-0.754-116.408c1.007-16.592,11.751-31.472,22.167-40.78C786.152,352.801,795.875,356.473,811.978,354.391L811.978,354.391z M481.732,261.985c23.255-1.027,83.371,22.436,95.658,34.206l-0.131,58.729c24.881,0.413,32.166,4.142,45.835,17.153c7.936,7.554,20.344,22.846,22.168,39.165l1.446,122.908c-32.42,1.785-49.119,0.123-70.991-15.795c-52.988-38.564-15.449-98.46-38.707-134.975c-14.919-23.422-33.889-24.931-55.532-30.043L481.732,261.985L481.732,261.985z M645.392,246.846c31.358,44.813,81.344,34.667,101.95-3.654c1.741,1.777,9.551,13.885,10.618,15.821c-13.184,3.074-23.421,7.69-34.076,13.951c-15.871,9.326-16.435,11.896-27.564,19.664c-4.229-2.191-4.176-2.796-8.035-5.786l-21.507-14.61c-12.042-6.885-20.435-9.538-34.093-13.918c1.843-3.005,3.316-4.085,5.368-7.009c1.548-2.206,2.958-5.129,4.804-7.643L645.392,246.846L645.392,246.846z M577.365,260.84c-53.389-16.871-32.589-96.809,21.93-86.567c35.533,6.675,49.356,52.769,20.136,78.427c-6.929,6.084-27.87,3.216-39.393,3.084L577.365,260.84L577.365,260.84z M817.084,260.218c-4.443-1.217-0.461-0.263-2.765-1.785c-9.73-6.426-24.627,0.18-37.553-2.567c-21.548-4.579-37.755-64.082,8.783-80.188c37.71-13.05,71.976,27.253,54.026,63.226C832.941,252.199,827.194,252.906,817.084,260.218L817.084,260.218z M642.857,194.905c-3.724-2.696-5.444-7.981-7.906-11.093c-23.217-29.345-65.585-28.416-87.748-0.618c-25.455,31.927-10.55,79.338,31.682,90.091l0.138,8.658c-3.541-0.535-34.696-16.286-50.162-21.557c-19.698-6.715-35.597-9.919-58.578-10.578l-0.217,114.958c30.865-0.415,58.641,12.188,62.943,39.871c4.845,31.181-7.163,58.124,9.91,91.763c10.126,19.95,30.282,38.602,55.267,46.28c19.407,5.964,73.587,3.443,98.135,3.464c24.434,0.022,78.127,2.517,97.529-3.989c24.843-8.331,44.45-26.616,54.558-47.074c16.223-32.831,2.97-59.638,9.574-92.071c6.617-32.495,38.324-36.552,62.668-38.601l-0.654-114.158c-40.638-5.244-101.442,30.557-107.631,31.291l-0.034-8.746c37.928-8.074,58.751-56.124,30.216-90.771c-9.633-11.696-29.301-23.712-53.545-18.959c-32.296,6.331-33.591,28.236-41.892,31.836l-4.56-6.402c-1.667-2.692-2.364-3.818-4.388-6.352c-2.903-3.636-6.868-7.291-11.125-10.24c-8.528-5.907-19.053-9.713-32.056-9.726C656.782,162.141,650.071,191.227,642.857,194.905L642.857,194.905z"/><path fill-rule="evenodd" clip-rule="evenodd" fill="#0073C0" d="M927.102,413.103c13.853-2.775,26.786,1.217,36.481,7.469c22.945,14.798,21.347,46.7,10.957,61.645c-18.4,26.466-76.67,25.337-81.34-18.302C890.266,436.491,901.59,418.214,927.102,413.103L927.102,413.103z M871.901,464.598c4.67,34.867,33.07,57.954,74.286,54.649c33.263-2.667,60.184-34.307,55.699-71.753c-3.833-32.004-35.288-59.774-73.889-54.723C894.92,397.099,866.777,426.34,871.901,464.598L871.901,464.598z"/><path fill-rule="evenodd" clip-rule="evenodd" fill="#0073C0" d="M416.822,414.934c6.386-3.436,10.343-9.425,19.868-13.483c8.42-3.587,19.74-4.465,28.598-2.57c15.021,3.213,31.817,16.992,32.037,33.512l-36.273,0.074c-1.724-0.019-5.046-0.102-6.639,0.09l-4.895,1.204l-0.157,17.703l47.663,0.087c0.934,15.408-17.448,29.681-32.656,32.381c-27.097,4.811-38.242-11.356-47.563-15.502l-12.797,13.545c5,8.084,19.361,17.141,30.121,20.259c20.328,5.892,44.678,3.167,61.657-9.61c33.398-25.132,37.103-90.664-18.156-111.39c-28.949-10.858-67.414,5.47-74.135,20.652L416.822,414.934L416.822,414.934z"/><path fill-rule="evenodd" clip-rule="evenodd" fill="#0073C0" d="M1097.291,429.1c7.479-3.677,10.83-9.531,20.657-13.332c28.152-10.891,59.031,7.735,59.77,31.397l-47.917,0.643l-0.148,18.383l47.68,0.104c1.098,16.31-18.409,29.66-32.645,32.232c-27.317,4.935-38.64-11.55-47.517-15.231l-13.259,13.231c13.774,17.69,44.239,30.162,75.56,19.595c49.829-16.811,59.994-96.815-1.529-120.19c-20.082-7.629-43.398-3.241-61.038,8.09c-3.203,2.058-5.224,3.56-7.707,5.678c-3.627,3.093-3.711,2.934-5.356,6.906L1097.291,429.1L1097.291,429.1z"/><path fill-rule="evenodd" clip-rule="evenodd" fill="#0073C0" d="M261,400.624l43.934-0.013l0.07-20.376c-13.251-0.017-55.18-1.683-65.533,0.737l0.295,121.016l65.165,0.044l0.022-20.457c-50.755,0.894-44.336,3.788-44.184-15.634c0.051-6.553-0.067-13.114,0.192-19.794l43.968-0.05l0.087-20.415l-44.168-0.213L261,400.624L261,400.624z"/><polygon fill-rule="evenodd" clip-rule="evenodd" fill="#0073C0" points="1031.856,415.327 1068.987,414.999 1068.996,394.987 1010.199,394.833 1010.026,516.827 1031.555,516.473 1031.856,415.327 "/><polygon fill-rule="evenodd" clip-rule="evenodd" fill="#0073C0" points="329.868,502.098 351.309,501.988 351.264,400.697 388.707,400.545 388.67,380.522 329.676,380.19 329.868,502.098 "/><path fill-rule="evenodd" clip-rule="evenodd" fill="#0073C0" d="M804.439,615.702c4.492,0.45,13.101,3.253,16.038,5.476c5.473,4.141,3.538,11.06-2.251,13.44C805.16,639.989,795.195,628.971,804.439,615.702L804.439,615.702z M819.389,603.765c-9.329-0.391-26.262-9.372-12.497-15.277c4.023-1.726,11.28-0.796,13.584,1.92C824.163,594.759,820.998,600.153,819.389,603.765L819.389,603.765z M827.726,608.511c6.396-4.504,17.564-10.63,9.995-23.321c-7.657-12.837-44.764-13.806-51.873,2.41c-5.366,12.24,3.222,18.345,7.493,22.051c1.517,1.317,1.196,0.989,2.336,2.257c-23.431,7.586-16.358,37.999,19.615,35.731C841.803,645.968,853.476,622.045,827.726,608.511L827.726,608.511z"/><path fill-rule="evenodd" clip-rule="evenodd" fill="#0073C0" d="M661.373,589.781c18.551-8.796,17.471,38.058,8.204,43.278C651.39,643.305,649.087,595.606,661.373,589.781L661.373,589.781z M636.47,619.641c1.898,20.662,14.3,31.869,36.378,27.376c18.714-3.809,22.805-21.93,20.768-43.392c-1.95-20.545-14.269-32.015-36.575-27.365C638.304,580.164,634.563,598.878,636.47,619.641L636.47,619.641z"/><path fill-rule="evenodd" clip-rule="evenodd" fill="#0073C0" d="M567.979,595.631c7.349-2.596,12.111-8.098,22.521-6.467c24.075,3.772-5.188,35.651-24.433,44.802l0.122,12.428l54.764-0.445l0.094-12.827l-30.629-0.278c8.915-8.268,31.608-21.44,26.517-42.103c-4.883-19.818-30.119-15.998-49.052-11.237L567.979,595.631L567.979,595.631z"/><path fill-rule="evenodd" clip-rule="evenodd" fill="#0073C0" d="M716.94,598.044l14.637,0.246l-0.054,35.924l-14.648,0.71l0.093,11.362l46.482,0.076l0.006-11.921l-14.405-0.743l0.063-56.807l-14.035-0.049l-3.317,4.735c-3.967,4.865-7.605,3.807-14.892,5.166L716.94,598.044L716.94,598.044z"/></svg>