<?xml version="1.0" encoding="utf-8"?>
<!-- Generator: Adobe Illustrator 19.0.0, SVG Export Plug-In . SVG Version: 6.00 Build 0)  -->
<svg version="1.1" id="Layer_1" xmlns="http://www.w3.org/2000/svg" xmlns:xlink="http://www.w3.org/1999/xlink" x="0px" y="0px"
	 viewBox="0 0 640 360" enable-background="new 0 0 640 360" xml:space="preserve">
<rect id="XMLID_1_" fill="#121217" width="640" height="360"/>
<g id="XMLID_132_">
	<path id="XMLID_265_" fill="#222C64" d="M324.936,57.262c3.025,1.426,6.13,2.93,6.13,8.079c-0.796,2.218,0,2.218-1.513,3.643
		c-6.13,4.356-17.593,1.426-15.285-6.574c0-1.426,1.513-2.218,1.513-2.93l3.025-2.218l-0.796-0.792
		c-0.796-2.93-0.796-2.218-0.796-4.356l5.334-1.426l-1.513,5.148C321.115,55.757,322.707,55.757,324.936,57.262z M317.293,52.193
		c-1.513,0.792-2.309,0.792-3.025-0.792c-0.796-2.218,0.796-2.218,2.309-3.643l0.796-5.148c0.796-0.792,0.796-0.792,1.513-1.426
		c4.617,0,2.309,1.426,7.642,3.643l1.513,2.93h-0.796l-4.617,2.218C321.115,49.975,318.885,51.401,317.293,52.193z M309.651,39.679
		c0,4.356-1.513,3.643-3.025,8.079c6.13,1.426,4.617,2.218,5.334,4.356c-4.617,0.792,1.513,1.426-4.617,0.792v3.643c0,0,0,0,0,0.792
		l0.796,0.792c2.309,1.426,3.025,1.426,3.025,5.148c0,2.93-0.796,4.356-3.025,5.148l-0.796,2.218c3.025,0.792,3.025,0,5.334,2.218
		c2.309,0.792,3.025,0.792,5.334,2.218h4.617l3.025,0.792h6.846c2.309,0,1.513,0.792,2.309-0.792
		c-2.309-2.218-1.513-6.574-1.513-10.296c0-3.643-0.796-6.574-0.796-10.93c3.821,0,5.334-0.792,6.846-2.93l-7.642,0.792l-0.796-2.93
		l1.513-2.93c-3.025-1.426-2.309-2.93-4.617-5.148c-0.796-2.218-2.309-2.93-5.334-3.643
		C315.781,33.818,311.243,38.966,309.651,39.679z"/>
	<path id="XMLID_262_" fill="#6C5C53" d="M306.626,145.81l27.544-2.218c0,0.792-3.025,5.148-4.617,5.861
		c-2.309,2.218-4.617,2.218-8.438,2.218C311.243,151.671,312.756,149.453,306.626,145.81z M305.113,145.81h1.513
		c0.796,8.791,10.667,2.93,12.976,15.365c0,3.643,6.13,13.148,6.13,21.226c0.796,0,1.513,0.792,3.025,0.792
		c5.334-0.792,1.513,0.792,3.025-2.218c-2.309-5.861,1.513-19.009,3.025-22.652c2.309-4.356,5.334-16.078,5.334-22.652l-1.513,5.148
		c-1.513,2.218-0.796,0.792-4.617,1.426c-9.951,1.426-25.236,4.356-25.952-5.861c-0.796-0.792,0.796-0.792-2.309-1.426
		c-0.796,0-2.309,0-3.025,0c0.796,3.643,1.513,5.148,3.025,8.079l6.13,2.218C310.447,145.097,305.83,144.384,305.113,145.81z"/>
	<path id="XMLID_125_" fill="#992105" d="M289.829,266.594l0.796,18.296l3.821,1.426l0.796,2.93h-0.796
		c2.309,0.792,2.309,0.792,4.617,0.792c0.796-3.643,0-8.079,0.796-13.148c0-4.356,0.796-3.643,0.796-3.643
		c1.513,6.574-0.796,16.078,0.796,20.434c5.334,0,1.513-0.792,4.617-1.426h2.309c4.617-1.426,2.309-3.643,2.309-8.791
		c2.309-0.792,2.309-0.792,3.821-2.218c-1.513-7.366-3.821-13.148-7.642-17.583c-5.334,0-5.334-2.218-13.772-1.426
		C291.341,263.663,290.545,263.663,289.829,266.594z"/>
	<path id="XMLID_124_" fill="#5C1202" d="M273.748,289.245c-2.309,5.148,0.796,1.426,6.13,15.365
		c1.513,2.218,2.309,4.356,3.821,7.366c0.796,2.931,1.513,5.861,2.309,8.791c-5.334,2.218-8.438,2.931-16.081,2.931
		c0.796,0,0.796,0.792,4.617,1.426c1.513,0,3.821,0,5.334,0c3.821-0.792,4.617-2.931,9.951-1.426
		c-1.513,3.643-0.796,2.218-4.617,2.93c-6.846,1.426-0.796,2.931-11.463,2.931c-9.951-0.792-0.796,6.574-24.439-5.148v-2.93
		c0,0-1.513,0-2.309,0.792v5.148c3.821-2.93,12.976,7.366,22.927,6.574c17.593-2.218,6.846-3.643,25.236-5.861
		c0-6.574-1.513-3.643-2.309-9.504l-4.617-24.157c0.796-4.356,0-0.792,0.796-2.931c1.513-2.931,1.513-2.931-0.796-5.148
		c-0.796,0.792-3.025,7.366-10.667,5.148c-2.309-0.792,0,0-2.309-1.426C274.544,289.245,276.853,290.75,273.748,289.245z"/>
	<path id="XMLID_123_" fill="#E3DBD9" d="M340.22,190.48c1.513,4.356,0,0.792,5.334,5.148c3.821,3.643,9.155,12.435,11.463,17.583
		c-1.513-0.792-9.155-5.148-9.951-5.861l-2.309-0.792c-1.513,3.643,0.796,3.643-0.796,6.574c2.309,2.218,6.846,5.148,9.155,5.861
		c-6.846,2.93-7.642,0.792-12.976-2.218c-3.025-1.426-7.642-4.356-12.26-2.93c-0.796,3.643-1.513,14.652,0.796,17.583
		c1.513-6.574-3.821-5.861,10.667-7.366c0,5.861,0.796,4.356-0.796,6.574c4.617-0.792,22.927-5.861,25.236-8.079
		c-0.796-4.356-5.334-12.435-8.438-16.87c-3.025-5.861-6.13-10.296-11.463-13.148c0.796-1.426,3.025-2.218,3.821-2.218v-0.792
		C344.838,189.054,342.529,189.688,340.22,190.48z"/>
	<path id="XMLID_122_" fill="#455E91" d="M318.885,192.698c6.13-3.643,2.309-0.792,5.334-2.218c0-0.792,0.796-0.792,0.796-0.792
		l0.796-0.792l0,0c4.617,2.93,4.617,0,6.13,5.148c-4.617-0.792-6.846,0.792-8.438,0c-6.13,2.218,0.796-0.792-4.617,0.792
		c-0.796,2.93-0.796,2.93,0,5.148l0,0c0,4.356-0.796,9.504,0.796,13.86h6.846c0-2.93,0-2.93,1.513-5.861l0.796,1.426l0.796-1.426
		l2.309-5.148l1.513-2.218c0.796,0,0.796-0.792,0.796-0.792l1.513-1.426c0.796,1.426-0.796,0.792,1.513,1.426
		c2.309,0.713,2.309,0,4.617,2.218c2.309,1.426,3.821,2.218,5.334,5.148c0.796,0.792,8.438,5.148,9.951,5.861
		c-2.309-5.148-7.642-13.86-11.463-17.583c-5.334-4.356-3.821-0.792-5.334-5.148c-6.846-1.426-6.13,0-8.438-5.861
		C323.423,183.906,318.885,183.906,318.885,192.698z"/>
	<path id="XMLID_121_" fill="#F8D5B6" d="M309.651,87.992l-3.821,0.792l1.513,24.157c2.309,0,6.13,0,7.642,1.426
		c6.13,0.792,8.438,5.148,12.26,7.366c1.513-1.426,0.796-5.148,0.796-9.504V77.141c-2.309-0.792-1.513-0.792-2.309-1.426
		l-3.025-0.792c1.513,3.643,0.796,12.435,0.796,16.87c-0.796,4.356-0.796,1.426-3.025,5.861c-0.796,2.218-0.796,3.643-0.796,6.574
		c-3.025,0.792-1.513,0.792-3.821,0.792l-1.513-3.643c-2.309-4.356-2.309-4.356-2.309-11.722c-0.796,0-0.796-0.792-0.796-0.792
		L309.651,87.992z"/>
	<path id="XMLID_120_" fill="#222C64" d="M305.83,245.367c0,2.931,0.796,8.079,0.796,12.435l6.13,4.356
		c4.617,3.643,1.513-0.792,5.334,3.643c0.796,1.426,0,0.792,0.796,1.426c1.513,0.792,3.025,2.218,3.821,3.643l1.513-4.356
		c0,0,0,0,0.796,0l0.796-5.861c1.513-2.931,3.821-4.356,6.846-5.861c-3.025-10.296-3.821-9.504-6.846-9.504
		c-0.796,0-2.309,0-3.025-0.792c-2.309-0.792-0.796,0.792-1.513-1.426l-11.463,0.792v0.792L305.83,245.367z"/>
	<path id="XMLID_119_" fill="#E8A89E" d="M327.244,121.653c1.513,2.218,2.309,3.643,4.617,4.356c2.309-2.218,0.796-2.93,3.025-5.861
		c0.796,1.426,0.796,0,1.513,2.218c0,1.426,0,2.218,0,3.643c0.796,2.93,0,3.643,2.309,4.356v-11.722
		c1.513-4.356,0.796-6.574,0-9.504c0-2.218,0-3.643,0-5.148c-0.796-2.93,0-2.218-1.513-4.356l-1.513-2.93
		c1.513,0.792,3.821,1.426,4.617,1.426c2.309,0,2.309-1.426,3.025-2.218c-3.821,0.792-6.13,0-9.155-1.426l-0.796-10.296
		c3.025-0.792,5.334-1.426,8.438-2.218c-3.025,0-6.13,1.426-8.438,0.792l-0.796-7.366h-6.846c0.796,0.792,0,0.792,2.309,1.426
		v35.087C328.04,116.505,328.757,120.227,327.244,121.653z"/>
	<path id="XMLID_118_" fill="#5C1202" d="M324.219,325.124c4.617-0.792,7.642-2.218,12.976-0.792l-2.309-3.643
		c1.513-5.148,1.513-10.93,3.025-16.87c1.513-6.574,1.513-8.791,4.617-14.652c0-1.426,0-1.426-0.796-2.218h-2.309l-10.667,1.426
		c-0.796,0-0.796,0-1.513-0.792c-2.309,1.426-1.513,0.792-1.513,4.356c2.309,0.792,1.513,0,1.513,2.218c0,0.792,0,2.93,0,3.643
		c0,2.93,0.796,3.643,0.796,7.366c0,5.148,0,10.296,0,16.078c-2.309,0-0.796-0.792-2.309,0.792
		C324.219,323.698,324.936,322.986,324.219,325.124z"/>
	<path id="XMLID_251_" fill="#1E2334" d="M328.757,267.306c-1.513-4.356,0.796-7.366,3.821-10.296
		c4.617,2.93,6.13,10.93-1.513,13.86L328.757,267.306z M326.528,213.924L326.528,213.924l-0.796,11.722l0.796,5.861l0.796,8.079
		l-3.025-0.792h-3.025v4.356c0.796,2.218-0.796,0.792,1.513,1.426c0.796,0.792,2.309,0.792,3.025,0.792
		c3.025,0,3.821-0.792,6.846,9.504c-3.025,1.426-5.334,2.93-6.846,5.861c0.796,2.218,0,2.93,0,6.574
		c0.796,1.426,1.513,4.356,1.513,5.861c1.513,5.148,0.796,10.296,1.513,15.365l10.667-1.426c-1.513-0.792-1.513-0.792-3.025-1.426
		c-0.796-0.792-2.309-2.218-3.025-2.931c1.513-5.148,3.025-1.426,4.617-5.861c-3.025,1.426-3.025,2.218-4.617-0.792l-0.796-2.218
		c1.513-0.792,9.951-4.356,11.463-4.356c-0.796-4.356,0.796-0.792-1.513-3.643c0-0.792-1.513-2.218-1.513-2.218
		c-2.309-2.93-1.513-2.93-3.821-5.148l-3.025-5.148l-1.513-3.643l-1.513-4.356l-2.309-8.079l-0.796-4.356l0.796-1.426
		c-2.309-2.93-1.513-13.86-0.796-17.583l0.796-4.356l-0.796-1.426C326.528,210.914,326.528,210.914,326.528,213.924z"/>
	<path id="XMLID_115_" fill="#1E2334" d="M273.748,289.245c3.025,1.426,0.796,0,1.513,0.792c2.309,1.426,0,0.792,2.309,1.426
		c7.642,2.218,9.951-4.356,10.667-5.148c-2.309-0.792-1.513,0-1.513-3.643c3.821,0.792,1.513,0,6.846,5.148l1.513,1.426
		l-0.796-2.931l-3.821-1.426l-0.796-18.296c-0.796,1.426-0.796,2.218-1.513,3.643c-13.772,0-8.438,2.218-13.772,2.931
		c-3.821,0.792-4.617-1.426-4.617-1.426c-0.796-0.792-1.513,0-0.796-2.931c0.796-1.426,1.513-1.426,2.309-2.93
		C259.976,271.742,277.569,285.681,273.748,289.245z"/>
	<path id="XMLID_114_" fill="#6C5C53" d="M298.984,94.645l1.513,0.792l-1.513,3.643c-2.309-0.792-1.513-0.792-1.513-2.93
		c-3.025,2.218-0.796,5.148,2.309,5.861c0,19.009,2.309,18.296-6.846,24.87c-2.309,2.218-2.309,0.792-1.513,2.218
		c6.13,1.426,3.025,2.218,6.13,4.356c2.309-0.792,0.796,1.426,2.309-2.218c3.821,4.356,3.821,1.426,3.821,1.426l-1.513-0.792
		c0-2.93,2.309-6.574,3.025-9.504c1.513-3.643,0-2.218,0-4.356c0.796-3.643,0-1.426,2.309-3.643l-4.617,1.426
		c0-7.366-1.513-21.226,0-27.8l7.642-0.792l5.334-0.792c-1.513-2.218,0-2.218-3.821-2.218h-9.951
		c-0.796-1.426-0.796-2.218-2.309-2.93h-0.796c0,0,0,0-0.796,0l-1.513-1.426h-0.796c-5.334-1.426-4.617-0.792-6.13,0.792
		c1.513,2.218,0,0.792,3.025,2.218c1.513,0.792,0-1.426,1.513,0.792c2.309,0,1.513,0,2.309,1.426l4.617,2.93l-0.796,3.643
		c-3.025-2.218-5.334,0-9.155-3.643c-3.025-1.426-1.513-1.426-4.617-4.356c-1.513-2.218-1.513-3.643-1.513-6.574
		c-2.309,0.792-0.796-1.426-1.513,2.93c-0.796,5.861,6.846,10.93,12.26,12.435L298.984,94.645z"/>
	<path id="XMLID_113_" fill="#222C64" d="M325.732,182.401h-2.309c-4.617-0.792-12.26,4.356-13.772,8.791
		c6.13-1.426,4.617,0,4.617,0.792c-1.513,1.426,2.309,0.792-2.309,0.792c-3.025,0-1.513-0.792-2.309-0.792l-5.334,16.87l0.796-0.792
		c0,0,0,0,0-0.792c0.796,0,0.796,0,0.796,0c3.821-5.861,0.796-8.791,7.642-8.791l-1.513,5.861l-2.309,9.504h3.025v2.218l1.513-1.426
		l5.334-0.792c-1.513-4.356-0.796-9.504-0.796-13.86l0,0c-0.796-2.218-0.796-2.218,0-5.148c5.334-1.426-1.513,1.426,4.617-0.792
		h-3.821c-0.796-0.792-0.796,0.792-0.796-1.426c0-8.791,4.617-8.791,12.976-8.079c2.309,5.861,1.513,4.356,8.438,5.861
		c2.309-0.792,4.617-1.426,7.642-0.792c-4.617-7.366-12.976-5.861-16.081-8.791c-1.513,2.93,2.309,1.426-3.025,2.218
		C327.244,183.114,326.528,182.401,325.732,182.401z"/>
	<path id="XMLID_245_" fill="#1E2334" d="M301.292,239.506c0-3.643,0-4.356,2.309-5.861c0,0.792,0,2.218-0.796,2.93
		C302.009,238.794,302.805,238.081,301.292,239.506z M303.601,229.289h-0.796c-2.309,3.643-2.309,5.148-2.309,9.504h-4.617
		l0.796-5.861c-1.513,0.792-0.796-0.792-2.309,2.218c0,0.792,0,3.643,0,4.356h1.513h5.334c1.513,2.93,0,8.079,0,11.722
		c0.796,14.652,1.513,5.861,5.334,12.435c3.821,4.356,6.13,10.296,7.642,17.583c0,0.792,0,1.426,1.513,0.792l2.309-1.426
		c-0.796-4.356-2.309-3.643-3.821-7.366c6.13,0.792,3.025,2.931,9.951,0l0.796-6.574c-0.796,0-0.796,0-0.796,0l-1.513,4.356
		c-0.796-1.426-2.309-2.931-3.821-3.643c-0.796-0.792,0,0-0.796-1.426c-3.821-4.356-0.796,0-5.334-3.643l-6.13-4.356
		c0-4.356-0.796-9.504-0.796-12.435l-3.025,1.426c0-5.148,0.796-4.356,3.821-6.574c-1.513-1.426-0.796,0-0.796-2.218
		c0,0,0-0.792,0-1.426c0.796-2.218,0.796-2.93,0.796-5.148c0-0.792,0.796-2.218,0.796-2.93c0-2.931,0.796-0.792-0.796-2.218
		C303.601,229.289,306.626,228.576,303.601,229.289z"/>
	<path id="XMLID_110_" fill="#D30D0D" d="M363.943,222.636c0.796,0.792,0,0,0.796,1.426l1.513,0.792
		c1.513,2.93,0.796,0.792,1.513,3.643l2.309,2.218l1.513,1.426v-2.93l-1.513-9.504c-5.334-10.93-9.951-22.018-19.106-27.8
		l-1.513-1.426h-1.592c-0.796,0-3.025,0.792-3.821,2.218c5.334,2.93,8.438,7.366,11.463,13.148
		C358.61,210.281,363.147,218.28,363.943,222.636z"/>
	<path id="XMLID_109_" fill="#222C64" d="M271.439,265.881c-0.796,1.426-1.513,1.426-2.309,2.931c-0.796,2.931,0,2.218,0.796,2.931
		c0,0,0.796,2.218,4.617,1.426c5.334-0.792,0-2.931,13.772-2.931c0.796-1.426,0.796-2.218,1.513-3.643
		c0.796-2.931,1.513-2.931,3.025-4.356h0.796c1.513-2.93,2.309-2.93,1.513-5.861c-3.821,0-14.489,3.643-18.31,5.861
		C274.544,262.95,272.236,263.663,271.439,265.881z"/>
	<path id="XMLID_108_" fill="#E3DBD9" d="M317.293,78.488c0,1.426,0.796,2.218,0,3.643c0,2.93,0,1.426-1.513,4.356l-5.334,0.792
		l-0.796,0.792l1.513,0.792c0,0,0,0.792,0.796,0.792c0,7.366,0,7.366,2.309,11.722l1.513,3.643c2.309,0,0.796,0,3.821-0.792
		c0-2.93,0-4.356,0.796-6.574c2.309-4.356,2.309-1.426,3.025-5.861c0-4.356,0.796-13.148-0.796-16.87h-4.617
		c-2.309,0-0.796,0-1.513,0.792L317.293,78.488z"/>
	<path id="XMLID_107_" fill="#BCA18C" d="M331.862,126.009c0.796,2.93,0.796,1.426,0,2.218v0.792
		c1.513,2.218-0.796,10.93-2.309,11.722c-2.309,2.218-8.438,0.792-10.667,0c-1.513-0.792-6.846-3.643-7.642-5.148l-3.025,0.792
		c0.796,10.296,16.081,7.366,25.952,5.861c3.821-0.792,3.025,0.792,4.617-1.426l1.513-5.148v-12.435c0-5.148,0-3.643-1.513-4.356
		v11.722c-2.309-0.792-1.513-1.426-2.309-4.356c0-1.426,0-2.218,0-3.643c-0.796-2.218-0.796-0.792-1.513-2.218
		C332.578,123.158,334.17,123.871,331.862,126.009z"/>
	<path id="XMLID_106_" fill="#992105" d="M249.309,321.481v2.93c23.723,11.722,14.489,4.356,24.439,5.148
		c10.667,0,4.617-1.426,11.463-2.931c3.821-0.792,3.025,0.792,4.617-2.93c-5.334-1.426-6.13,0.792-9.951,1.426
		c-1.513,0-3.821,0-5.334,0c-3.821-0.792-3.821-1.426-4.617-1.426C266.106,322.194,252.334,317.837,249.309,321.481z"/>
	<path id="XMLID_105_" fill="#C4BBBA" d="M358.61,246.793l-3.025,1.426h3.025c0,2.93,0,7.366-1.513,9.504
		c-0.796-2.218,0-2.218-2.309-4.356l-2.309,1.426l-0.796,0.792c2.309,0.792,1.513,0,0,2.931c-0.796,1.426-1.513,2.218-2.309,3.643
		c-1.513,2.218-3.025,3.643-3.821,5.861c3.025,1.426,2.309,2.931,7.642,1.426c2.309-1.426,5.334-7.366,6.846-9.504
		c3.025-5.861,1.513-7.366,8.438-8.791c1.513-2.218,1.513-0.792,1.513-4.356c-1.513,0.792,0,0,0,0s-0.796,0.792,0.796-0.792v-1.426
		h-1.513L358.61,246.793z"/>
	<path id="XMLID_104_" fill="#270902" d="M324.936,266.594l-0.796,6.574c-6.846,2.931-3.821,0.792-9.951,0
		c1.513,3.643,3.025,2.931,3.821,7.366l-2.309,1.426c-1.513,0.792-1.513,0-1.513-0.792c-1.513,1.426-1.513,1.426-3.821,2.218
		c0,5.148,2.309,7.366-2.309,8.791h-2.309c-3.025,0.792,0.796,1.426-4.617,1.426c-1.513-4.356,0.796-13.86-0.796-20.434
		c0,0-0.796-0.792-0.796,3.643c-0.796,5.148,0,9.504-0.796,13.148c-2.309,0-2.309,0-4.617-0.792
		c3.821,8.079,1.513-2.218,6.846,5.861l9.155-1.426c1.513-2.93,0-3.643,1.513-7.366c4.617-0.792,7.642-2.218,15.285-2.218v3.643
		c0.796,0.792,0.796,0.792,1.513,0.792c-0.796-5.148,0-10.296-1.513-15.365c0-1.426-0.796-4.356-1.513-5.861
		c0-3.643,0.796-4.356,0-6.574L324.936,266.594z"/>
	<path id="XMLID_103_" fill="#E3DBD9" d="M370.073,219.785c0,0,0.796,0,0.796,0.792l2.309,0.792c2.309,0,8.438-1.426,11.463-2.218
		c1.513,0.792,0.796,0.792,1.513,0l-7.642-12.435c-1.513-1.426-1.513-2.218-3.821-2.931c-1.513,2.218,0,4.356,0,7.366
		c0.796,4.356-0.796,4.356-5.334,5.148c0.796-3.643,1.513-6.574,1.513-9.504l-0.796-5.861c0.796-2.218,0-1.426,0.796-2.218
		c-1.513-0.792-0.796-0.792-2.309-0.792c-1.513,1.426-0.796-0.792-0.796,2.93c0,1.426,0.796,2.93,0.796,10.296
		c-2.309-1.426-11.463-21.226-17.593-19.009C360.122,197.767,364.739,208.776,370.073,219.785z"/>
	<path id="XMLID_102_" fill="#E8A89E" d="M338.708,230.715c-5.334,0.792-3.821,1.426-5.334,5.148c-3.025-0.792-0.796,0-2.309-0.792
		l-3.025-2.218l0.796,4.356c3.821,1.426,0.796,2.218,6.13,2.218c3.025-7.366,2.309,0,6.13-5.861v-0.713
		c0.796-2.218,0-1.426,3.025-2.218c0.796,0,3.025-0.792,3.821-0.792c3.821,0.792,3.821,2.218,3.821,5.861l3.025-2.218
		c0.796-1.426-1.513-0.792,0.796-0.792c2.309,0.792,0.796,0.792,2.309,0c3.025-1.426-2.309-0.792,2.309-0.792
		c0,2.931,0.796,0.792-0.796,2.931l2.309-2.218l3.025,3.643l0.796-5.148c0.796-0.792,0.796-1.426,0.796-1.426
		s0.796-0.792,0.796-1.426c0.796-0.792-1.513-1.426,0.796,0c-0.796-2.93,0-0.792-1.513-3.643l-1.513-0.792
		c-0.796-1.426,0-0.792-0.796-1.426C361.635,224.854,343.325,230.002,338.708,230.715z"/>
	<path id="XMLID_101_" fill="#992105" d="M311.243,325.916v4.356l16.797,3.643c1.513,0,5.334,0,6.846,0
		c1.513-3.643-0.796-3.643,3.025-6.574c0-2.218,0.796-2.218-0.796-2.931c-5.334-1.426-8.438,0-12.976,0.792
		C322.707,322.194,314.268,323.698,311.243,325.916z"/>
	<path id="XMLID_100_" fill="#455E91" d="M304.317,208.776c-0.796,0,0,0-0.796,1.426c-0.796,0.792-1.513,2.218-1.513,3.643
		c-1.513,4.356-6.13,16.078-5.334,19.009l-0.796,5.861h4.617c0-4.356,0-5.861,2.309-9.504h0.796
		c-0.796-3.643,6.846-23.444,8.438-24.87l1.513-5.861c-6.846,0-3.821,2.93-7.642,8.791c0,0,0,0-0.796,0c0,0.792,0,0.792,0,0.792
		L304.317,208.776z"/>
	<path id="XMLID_99_" fill="#270902" d="M337.991,327.342c-3.821,2.931-1.513,2.931-3.025,6.574c-1.513,0-5.334,0-6.846,0
		l-16.797-3.643v-4.356c-3.025,2.218-4.617,13.86,9.951,13.86C328.757,339.777,337.991,342.707,337.991,327.342z"/>
	<path id="XMLID_98_" fill="#927271" d="M369.277,244.654h1.513v1.426c2.309,3.643,2.309,7.366,2.309,11.722
		c0,1.426,0.796,4.356,0.796,5.861c0,3.643,0.796,3.643-2.309,3.643v9.504c3.025-0.792,5.334-1.426,8.438-2.218l0,0v-13.86
		c-1.513,0-0.796,0-2.309-0.792l-3.025-15.365c-0.796-3.643,0-2.218-3.025-3.643v2.218c0,0,0,0-0.796,0c0,0,0,0,0,0.792
		L369.277,244.654z"/>
	<path id="XMLID_97_" fill="#C4BBBA" d="M307.422,126.801c0,2.218,0,3.643,1.513,4.356c2.309,2.218-1.513,0,0.796,0.792h1.513l0,0
		l1.513-2.218l-0.796-2.93l2.309,0.792c4.617-0.792-0.796-2.218,4.617,0c1.513,0,3.025,0.792,4.617,1.426
		c-3.025-3.643-1.513-2.218-0.796-2.93c3.025,1.426,3.821,2.93,6.846,0.792v-0.792h-0.796c-3.821-3.643-9.155-2.93-12.26-8.079
		c3.025,0.792,2.309,0.792,4.617,2.218c-3.821-4.356-6.13-7.366-12.26-3.643C308.935,120.227,308.935,123.871,307.422,126.801z"/>
	<path id="XMLID_228_" fill="#BCA18C" d="M338.708,80.705c0.796-2.93-0.796,0,0.796-2.218c0.796-0.792,3.821-1.426,5.334-1.426
		c1.513,0.792,0.796,0.792,2.309,1.426c-1.513,0.792,0,0-2.309,1.426L338.708,80.705z M334.887,74.845
		c-0.796,1.426,0,0.792-2.309,0.792l0.796,7.366c2.309,0.792,5.334-0.792,8.438-0.792l1.513-1.426l4.617,2.93
		c0,0,0,0.792,0.796,0.792c-2.309,6.574-6.13,2.218-9.951,5.148c-1.513,1.426-0.796,0.792-2.309,2.93h3.821
		c2.309-2.218,0-0.792,3.821-2.218c3.025-1.426,4.617-0.792,8.438-4.356c3.025-2.218,6.13-6.574,4.617-10.93
		c-1.513-1.426,0,0-2.309-1.426l0.796,4.356c-6.846,2.93-3.821-1.426-9.951-2.218c-4.617,0-5.334,2.218-10.667,2.218l1.513-4.356
		C334.17,74.052,335.683,71.914,334.887,74.845z"/>
	<path id="XMLID_94_" fill="#270902" d="M295.162,328.134c-18.31,2.218-7.642,3.643-25.236,5.861
		c-9.951,0.792-19.106-9.504-22.927-6.574c4.617,8.791,9.155,8.791,21.414,8.791c9.155,0,8.438-1.426,12.976-2.93
		c2.309-0.792,3.025,0.792,6.13,0.792c3.025,0,3.821-0.792,6.846-0.792C295.162,330.272,295.162,330.985,295.162,328.134z"/>
	<path id="XMLID_93_" fill="#454B65" d="M366.968,263.663c0.796,0.792,0,7.366-0.796,8.791c0,2.931-1.513,2.218,3.025,4.356
		c0,0.792,1.513,1.426,1.513,1.426l1.513,0.792l5.334-1.426c0.796,0.792,0.796,0,0.796,1.426c0.796,0.792,0,0,0.796,1.426
		c4.617-2.218,9.951-8.079,10.667-13.86l-1.513-0.792c-2.309,2.931-4.617,6.574-8.438,8.791c-3.025,0.792-5.334,1.426-8.438,2.218
		v-9.504l-0.796-11.722C369.277,257.802,367.764,260.02,366.968,263.663z"/>
	<path id="XMLID_92_" fill="#7A87A5" d="M303.601,132.662v-1.426c0.796-3.643,2.309-7.366,3.821-9.504v5.148
		c1.513-2.93,1.513-6.574,1.513-10.296c6.13-3.643,8.438-0.792,12.26,3.643c-2.309-1.426-1.513-1.426-4.617-2.218
		c3.025,5.148,8.438,4.356,12.26,8.079h0.796v0.792c-3.025,2.218-3.821,0.792-6.846-0.792c-0.796,0.792-2.309-0.792,0.796,2.93
		c-1.513-0.792-3.025-1.426-4.617-1.426c-5.334-2.218,0-0.792-4.617,0c1.513,2.93,2.309,3.643,4.617,5.148
		c3.821-2.218-3.025,2.218,1.513-1.426c1.513-1.426-0.796-0.792,1.513-1.426c2.309,1.426,1.513,0,2.309,2.93
		c6.846-0.792,1.513-5.148,7.642-4.356c0.796-0.792,0.796,0.792,0-2.218c-2.309-0.792-3.025-2.218-4.617-4.356
		c-3.821-2.218-6.13-6.574-12.26-7.366h-7.642c-2.309,2.218-1.513,0-2.309,3.643c0,2.218,1.513,0.792,0,4.356
		c-0.796,2.93-3.025,6.574-3.025,9.504L303.601,132.662z"/>
	<path id="XMLID_91_" fill="#E3DBD9" d="M334.17,253.367l3.025,5.148c5.334,0,9.951-2.218,14.489-2.93l0.796-0.792l2.309-1.426
		c2.309,2.218,1.513,2.218,2.309,4.356c1.513-2.218,1.513-6.574,1.513-9.504h-3.025C350.967,248.298,339.504,251.941,334.17,253.367
		z"/>
	<path id="XMLID_90_" fill="#F8D5B6" d="M336.399,73.419l-1.513,4.356c5.334,0,6.13-2.218,10.667-2.218
		c6.13,0.792,3.025,5.148,9.951,2.218l-0.796-4.356C354.788,66.053,336.399,67.479,336.399,73.419z"/>
	<path id="XMLID_219_" fill="#E3DBD9" d="M314.268,233.725l1.513-4.356l3.025,0.792
		C320.398,232.933,317.293,232.933,314.268,233.725z M315.781,227.072c0-0.792,0.796-1.426,0.796-2.218
		c0.796-2.218,0-1.426,0.796-2.218l3.025,0.792C319.602,226.359,320.398,227.072,315.781,227.072z M312.756,226.359l-0.796,4.356
		l-0.796,4.356c4.617,0,9.155,0,12.26-2.218c-0.796,8.791-1.513,4.356,0.796,5.861l3.025,0.792l-0.796-8.079
		c-3.821-1.426-2.309-1.426-5.334-2.93l0.796-0.792c1.513-2.218,3.025-3.643,0.796-5.861c-0.796-1.426-3.821-2.218-6.846-1.426
		L312.756,226.359z"/>
	<path id="XMLID_86_" fill="#992105" d="M353.276,269.524c0,0.792-0.796,1.426-0.796,1.426s-0.796,1.426-1.513,1.426
		c-0.796,0.792-0.796,1.426-1.513,1.426l2.309,2.218l2.309,1.426c1.513-2.218,3.025-4.356,4.617-5.861
		c1.513-2.218,3.025-4.356,3.821-6.574c1.513-2.218,6.846-11.722,6.13-13.86c-6.846,1.426-5.334,2.93-8.438,8.791
		C358.61,262.237,355.505,268.019,353.276,269.524z"/>
	<path id="XMLID_85_" fill="#E8A89E" d="M311.243,135.593c0.796,1.426,6.13,4.356,7.642,5.148c2.309,0.792,8.438,2.218,10.667,0
		c1.513-0.792,3.821-9.504,2.309-11.722c-5.334,2.93-1.513,4.356-9.155,5.148C317.293,134.88,316.577,134.088,311.243,135.593z"/>
	<path id="XMLID_84_" fill="#BCA18C" d="M306.626,145.81c6.13,3.643,4.617,5.861,14.489,5.861c3.821,0,6.13,0,8.438-2.218
		c1.513-0.792,4.617-5.148,4.617-5.861L306.626,145.81z"/>
	<path id="XMLID_83_" fill="#F8D5B6" d="M343.325,96.071h0.796v-2.218c-1.513-2.218-1.513-2.218-3.821-1.426h-3.821
		c1.513-2.218,0.796-1.426,2.309-2.93c3.821-2.93,7.642,1.426,9.951-5.148c-0.796,0-0.796-0.792-0.796-0.792l-4.617-2.93
		l-1.513,1.426c-3.025,0.792-5.334,1.426-8.438,2.218l0.796,10.296C337.195,96.071,339.504,96.784,343.325,96.071z"/>
	<path id="XMLID_82_" fill="#7A87A5" d="M380.74,260.733h-0.796v13.86l0,0c3.821-2.218,6.13-5.861,8.438-8.791l1.513,0.792
		c0.796-1.426,1.513-2.931,1.513-5.148c0-0.792,0-1.426,0-2.218c0-1.426,0-0.792-0.796-2.218c-0.796,2.93-0.796,4.356-1.513,5.861
		c-0.796-1.426-2.309-2.93-3.025-5.148c-1.513-2.218-2.309-3.643-4.617-4.356L380.74,260.733z"/>
	<path id="XMLID_211_" fill="#F8D5B6" d="M305.113,72.627c8.438-2.218,5.334,6.574,0,5.861
		C303.601,75.557,302.805,75.557,305.113,72.627z M298.188,63.123c0,2.218,0,3.643,0.796,5.148c2.309,2.93,3.025,0.792,2.309,5.148
		l-0.796,5.148c3.025,2.218,3.025,3.643,7.642,2.93c3.025-0.792,4.617-2.218,6.13-4.356c2.309,1.426,0.796,0.792,3.025,1.426
		l-0.796-2.93c0.796-0.792-0.796-0.792,1.513-0.792c-2.309-1.426-3.025-1.426-5.334-2.218c-2.309-2.218-2.309-1.426-5.334-2.218
		l0.796-2.218c-3.025,0.792-3.821,1.426-6.13,0l-0.796-2.218c-2.309-0.792-1.513,2.218-2.309-2.218c0-1.426,0.796-1.426,0.796-2.93
		h-0.796c0,0.792,0,0.792,0,0.792C297.471,63.123,298.188,60.905,298.188,63.123z"/>
	<path id="XMLID_79_" fill="#1E2334" d="M323.423,182.401h2.309c0-8.079-6.13-17.583-6.13-21.226
		c-2.309-12.435-12.26-6.574-12.976-15.365h-1.513c0.796,6.574,9.951,15.365,16.081,25.582c1.513,3.643,2.309,6.574,3.821,10.296
		C321.911,181.689,324.936,181.689,323.423,182.401z"/>
	<path id="XMLID_78_" fill="#C4BBBA" d="M380.74,260.733l0.796-7.366c2.309,0.792,3.025,2.218,4.617,4.356
		c0.796,2.218,2.309,3.643,3.025,5.148c0.796-1.426,0.796-2.93,1.513-5.861c-0.796-4.356-3.821-7.366-4.617-10.296
		c-3.025-1.426-2.309-1.426-3.025-5.861l-2.309,0.792l-3.025,1.426C378.432,248.298,381.537,255.584,380.74,260.733z"/>
	<path id="XMLID_77_" fill="#BCA18C" d="M307.422,114.367h7.642c-1.513-1.426-5.334-1.426-7.642-1.426l-1.513-24.157l3.821-0.792
		l0.796-0.792l-7.642,0.792c-1.513,6.574,0,20.434,0,27.8L307.422,114.367z"/>
	<path id="XMLID_76_" fill="#BCA18C" d="M368.561,251.228c0.796,2.218-4.617,11.722-6.13,13.86
		c-0.796,2.218-2.309,4.356-3.821,6.574c-1.513,1.426-3.025,3.643-4.617,5.861c1.513,0.792,0.796,0,3.025-0.792
		c1.513-2.931,3.025-3.643,5.334-6.574c1.513-2.218,3.025-5.148,4.617-6.574c0.796-3.643,2.309-5.861,3.821-8.079l0.796,11.722
		c3.025,0,2.309,0,2.309-3.643c0-1.426-0.796-4.356-0.796-5.861c0-4.356,0-8.079-2.309-11.722c-1.513,1.426-0.796,0.792-0.796,0.792
		s-1.513,0.792,0,0C370.073,250.515,370.073,249.011,368.561,251.228z"/>
	<path id="XMLID_75_" fill="#FDFBFA" d="M315.781,59.479c0,1.426-0.796,2.218,0,3.643c0.796,2.93-0.796,0.792,2.309,1.426
		l1.513-0.792c0.796,2.218,0.796,0.792,0.796,2.93c-0.796,1.426,0.796,1.426-1.513,0.792c7.642,1.426,6.846-1.426,12.26-2.218
		c0-5.148-3.025-6.574-6.13-8.079h-6.13L315.781,59.479z"/>
	<path id="XMLID_74_" fill="#455E91" d="M350.967,191.906c6.13-2.218,15.285,17.583,17.593,19.009c0-7.366-0.796-8.791-0.796-10.296
		c0-3.643-0.796-1.426,0.796-2.93c-1.513-2.93-4.617-3.643-7.642-5.148c-3.821-1.426-6.13-2.218-11.463-2.218L350.967,191.906z"/>
	<path id="XMLID_73_" fill="#1E2334" d="M324.219,132.662l-2.309-1.426c-1.513,1.426-1.513,2.218-4.617,2.218
		c-1.513-0.792-2.309-1.426-3.025-2.93l-0.796,3.643c-11.463,0-3.025,0-9.951-2.93v1.426c0,0,0,2.93-3.821-1.426
		c-1.513,3.643,0,1.426-2.309,2.218c-3.025-2.218,0-2.93-6.13-4.356l1.513,2.218c3.821,3.643,1.513,4.356,8.438,4.356
		c0,2.93,0,4.356,0.796,6.574c1.513,4.356,2.309,3.643,3.025,3.643c0.796-1.426,5.334-0.792,6.846-0.792l-6.13-2.218
		c-1.513-2.93-2.309-4.356-3.025-8.079c0.796,0,2.309,0,3.025,0c3.025,0.792,1.513,0.792,2.309,1.426l3.025-0.792
		c5.334-1.426,6.13-0.792,11.463-1.426c7.642-0.792,3.821-2.218,9.155-5.148v-0.792
		C325.732,127.593,331.065,131.949,324.219,132.662z"/>
	<path id="XMLID_72_" fill="#CF4F4F" d="M384.562,218.993l0.796,5.148l2.309,2.218c0.796,2.93,0-0.792-0.796,2.93
		c-4.617-3.643-2.309-5.148-3.821-3.643c3.025,2.93-2.309,4.356-3.025,5.148c1.513,0.792,3.025,2.218,4.617,2.93
		c0,2.218,0,2.218-0.796,2.93v2.218c-3.025,0-0.796,0-3.821-0.792c0,0.792,0,0,0,0.792l0,0l0,0v0.792c-2.309-1.426,0,0-2.309-1.426
		l-1.513-2.218c1.513,2.93,0.796,2.93,1.513,5.861h3.025l2.309-0.792l6.846-1.426c0.796-0.792,0.796-0.792,0.796-0.792h0.796
		l1.513-0.792c-3.821,0-1.513,0-3.821-0.792l-0.796-0.792c-0.796,0-0.796,0-0.796,0h-0.796l0.796-1.426l0.796-5.148l0,0h2.309
		c0-2.218-0.796-3.643-1.513-5.861l-2.309-3.643c-0.796-2.218,0.796,0-0.796-1.426C385.358,219.785,386.074,219.785,384.562,218.993
		z"/>
	<path id="XMLID_71_" fill="#F8D5B6" d="M328.757,209.489l-0.796,4.356c4.617-1.426,9.155,1.426,12.26,2.931
		c5.334,2.93,6.13,5.148,12.976,2.218c-2.309-0.792-6.846-3.643-9.155-5.861c-4.617-1.426-8.438-3.643-14.489-5.148L328.757,209.489
		z"/>
	<path id="XMLID_70_" fill="#5C1202" d="M295.162,256.376c0.796,2.93,0,2.93-1.513,5.861h-0.796
		c8.438-0.792,8.438,1.426,13.772,1.426c-3.821-6.574-4.617,2.218-5.334-12.435l-2.309,2.93c-0.796-0.792-4.617-9.504-3.025-12.435
		c0-0.792,0.796-1.426,0.796-1.426c0-0.792,0.796-0.792,0.796-0.792h-1.513h-1.513c-2.309,2.93-1.513,3.643-0.796,8.079
		C294.366,249.803,295.162,253.367,295.162,256.376z"/>
	<path id="XMLID_69_" fill="#AD2D2E" d="M341.016,233.725c1.513,2.93,1.513,5.148,2.309,9.504l1.513,2.93l-4.617,4.356
		c-6.13-0.792-0.796-1.426-7.642-0.792l1.513,3.643c5.334-1.426,16.797-5.148,21.414-5.148l3.025-1.426
		c-3.025-1.426,0-2.218,1.513-3.643c-3.025-0.792-1.513,0-3.025-2.93l-1.513-3.643c-1.513,8.791,0,8.791-9.155,10.296l-3.025-6.574
		l-0.796-2.93l-1.513-4.356V233.725z"/>
	<path id="XMLID_68_" fill="#1E2334" d="M351.684,278.316c0,0,19.106,10.93,27.544,2.218c-0.796-1.426,0-0.792-0.796-1.426
		c0-1.426,0-0.792-0.796-1.426l-5.334,1.426c-1.513,0.792-6.846,0.792-8.438,0c-3.025-0.792-2.309-2.218-6.846-2.218
		c-2.309,0.792-1.513,1.426-3.025,0.792l-2.309-1.426V278.316z"/>
	<path id="XMLID_67_" fill="#FDFBFA" d="M299.78,60.905c0,1.426-0.796,1.426-0.796,2.93c0.796,4.356,0,1.426,2.309,2.218
		c0.796-1.426,0-0.792,1.513-0.792c1.513,1.426,2.309,1.426-0.796,2.93c2.309,1.426,3.025,0.792,6.13,0
		c2.309-0.792,3.025-2.218,3.025-5.148c0-3.643-0.796-3.643-3.025-5.148h-3.821c-1.513,0-1.513,0-3.025,0.792
		C298.188,60.192,299.78,59.479,299.78,60.905z"/>
	<path id="XMLID_66_" fill="#BCA18C" d="M371.586,241.011c3.025,1.426,2.309,0,3.025,3.643l3.025,15.365
		c1.513,0.792,0.796,0.792,2.309,0.792h0.796c0.796-5.148-2.309-12.435-3.025-17.583l3.025-1.426h-3.025
		c-0.796-2.93,0-2.93-1.513-5.861l-3.821-1.426L371.586,241.011z"/>
	<path id="XMLID_65_" fill="#270902" d="M333.374,276.098c1.513,2.93,1.513,2.218,4.617,0.792c4.617,2.218,5.334-1.426,7.642-4.356
		l3.821,3.643c0,0,0,0.792,0.796,0.792c-2.309,4.356-5.334,8.079-12.26,8.079c3.025-4.356,6.846-2.93,8.438-7.366
		c-4.617,1.426-5.334,6.574-12.976,5.148c0.796,0.792,2.309,2.218,3.025,2.931c1.513,0.792,1.513,0.792,3.025,1.426h2.309
		c0.796,0.792,0.796,0.792,0.796,2.218l6.846-7.366c1.513-2.218,0.796-2.218,2.309-3.643v-2.218l-2.309-2.218
		c-2.309-0.792-2.309-1.426-4.617-2.931C341.812,273.167,338.708,277.603,333.374,276.098z"/>
	<path id="XMLID_64_" fill="#F26F6F" d="M328.757,237.289l2.309,8.079c6.846,0,6.846,0,12.26-2.218
		c-0.796-4.356-0.796-6.574-2.309-9.504c-3.821,5.861-3.025-1.426-6.13,5.861C329.553,239.506,332.578,238.794,328.757,237.289z"/>
	<path id="XMLID_63_" fill="#D30D0D" d="M370.79,234.358c-3.821,2.93-2.309-0.792-5.334,5.148c-3.025-1.426,0-0.792-2.309-1.426
		c-3.821,0-2.309,3.643-3.025,5.148c-1.513,1.426-4.617,2.218-1.513,3.643l10.667-2.218l1.513-0.792c0-0.792,0-0.792,0-0.792
		c0.796,0,0.796,0,0.796,0v-2.218c-1.513-2.218,0.796-3.643,0-7.366C370.79,234.358,370.79,232.933,370.79,234.358z"/>
	<path id="XMLID_62_" fill="#222C64" d="M337.195,258.515c2.309,2.218,1.513,2.218,3.821,5.148c0,0,1.513,1.426,1.513,2.218
		c2.309,2.931,0.796-0.792,1.513,3.643l0,0l1.513-1.426c0.796-2.218,2.309-3.643,3.821-5.861c0.796-1.426,1.513-2.218,2.309-3.643
		c1.513-2.93,2.309-2.218,0-2.93C347.146,256.376,342.529,258.515,337.195,258.515z"/>
	<path id="XMLID_61_" fill="#FDFBFA" d="M329.553,208.063c6.13,1.426,9.951,3.643,14.489,5.148c1.513-2.931-0.796-2.931,0.796-6.574
		c-3.821-2.218-7.642-2.93-12.976-3.643L329.553,208.063z"/>
	<path id="XMLID_60_" fill="#E8A89E" d="M370.073,219.785l1.513,9.504l0.796,2.93c3.025-0.792,3.025,0,3.025-3.643
		c1.513,2.218-0.796,0.792,3.025,1.426c-1.513-8.079-1.513-0.792,3.025-8.079l1.513,1.426h0.796c0,0,0.796,0,0.796,0.792h0.796
		l-0.796-5.148c-3.025,0.792-9.155,2.218-11.463,2.218l-2.309-0.792C370.79,219.785,370.073,219.785,370.073,219.785z"/>
	<path id="XMLID_59_" fill="#FDFBFA" d="M328.757,231.507l-0.796,1.426l3.025,2.218c1.513,0.792-0.796,0,2.309,0.792
		c1.513-3.643,0-4.356,5.334-5.148c1.513-2.218,0.796-0.792,0.796-6.574C324.936,225.567,330.349,224.854,328.757,231.507z"/>
	<path id="XMLID_58_" fill="#AD2D2E" d="M314.268,218.993c0,2.218-0.796,1.426,1.513,1.426c3.025-0.792,6.13,0,6.846,1.426
		c2.309,2.218,0.796,3.643-0.796,5.861l-0.796,0.792c3.025,1.426,1.513,1.426,5.334,2.93l-0.796-5.861c-3.821,0-0.796,0-1.513-0.792
		c0-2.218,0-3.643,0.796-5.861c0-2.93-0.796-3.643,1.513-5.148l0,0h-6.846l-5.334,0.792c2.309-0.792,0-0.792,0.796,0.792
		L314.268,218.993z"/>
	<path id="XMLID_57_" fill="#992105" d="M337.991,276.811c-1.513,4.356-3.025,0.792-4.617,5.861
		c7.642,1.426,8.438-3.643,12.976-5.148c-1.513,4.356-5.334,2.93-8.438,7.366c6.846,0,9.951-3.643,12.26-8.079
		c-0.796,0-0.796-0.792-0.796-0.792l-3.821-3.643C343.325,275.385,342.529,279.028,337.991,276.811z"/>
	<path id="XMLID_56_" fill="#222C64" d="M357.097,276.811c4.617,0,3.821,1.426,6.846,2.218c1.513,0.792,6.846,0.792,8.438,0
		l-1.513-0.792c0,0-1.513-0.792-1.513-1.426c-4.617-2.218-3.025-1.426-3.025-4.356c0.796-1.426,1.513-8.079,0.796-8.791
		c-1.513,1.426-3.025,4.356-4.617,6.574C360.122,273.167,358.61,273.959,357.097,276.811z"/>
	<path id="XMLID_55_" fill="#222C64" d="M331.065,271.029c7.642-2.93,6.13-10.93,1.513-13.86c-3.025,2.931-5.334,5.861-3.821,10.296
		L331.065,271.029z"/>
	<path id="XMLID_54_" fill="#BCA18C" d="M303.601,229.289c3.025-0.792,0,0,3.025-2.93c0,0-0.796,0,2.309-0.792
		c1.513,0,3.025,0.792,3.821,0.792l3.025-5.861c-2.309,0-1.513,0.792-1.513-1.426c-1.513,2.218-1.513,2.218-2.309,5.861h-3.025
		l2.309-2.93h-3.821l2.309-8.079l2.309-9.504C310.447,205.845,302.805,225.567,303.601,229.289z"/>
	<path id="XMLID_53_" fill="#454B65" d="M304.317,51.401l3.025,1.426c6.13,0.792,0,0,4.617-0.792
		c-0.796-2.218,0.796-2.93-5.334-4.356c1.513-4.356,3.025-3.643,3.025-8.079c-1.513-0.792-3.025-3.643-3.821,7.366
		c-3.025-0.792-2.309-1.426-5.334-1.426c-0.796,1.426-0.796,2.93-1.513,5.148C301.292,51.401,302.009,51.401,304.317,51.401z"/>
	<path id="XMLID_52_" fill="#F8D5B6" d="M286.724,74.052c-0.796,3.643,0,0.792,0.796,4.356c3.025,0,6.846-0.792,8.438,1.426h0.796
		c1.513,0.792,0,0,0.796,0c0.796-2.93,2.309-3.643,1.513-5.861c-2.309-2.218-3.025-2.218-6.846-2.218c-0.796,0-3.025,0-3.821,0
		C284.495,73.419,286.724,72.627,286.724,74.052z"/>
	<path id="XMLID_51_" fill="#F26F6F" d="M371.586,229.289v2.93l-1.513-1.426v2.93c-2.309,0-3.025-1.426-4.617-2.218l-0.796,5.148
		l1.513-2.931c3.025,0.792,1.513,0.792,4.617,0.792c0-1.426,0,0,0.796-0.792c0.796,3.643-1.513,5.148,0,7.366l0.796-6.574
		c0.796-1.426,0.796-1.426,3.821-2.93c3.025-1.426,3.025,0,3.025-2.93l0.796,2.218c0.796-0.792,6.13-2.218,3.025-5.148
		c1.513-1.426-0.796,0,3.821,3.643c0.796-3.643,1.513,0,0.796-2.93l-2.309-2.218h-0.796c0-0.792-0.796-0.792-0.796-0.792h-0.796
		l-1.513-1.426c-4.617,7.366-4.617,0-3.025,8.079c-3.821-0.792-1.513,0.792-3.025-1.426c0,3.643,0,2.93-3.025,3.643L371.586,229.289
		z"/>
	<path id="XMLID_50_" fill="#F26F6F" d="M351.684,235.863c0,3.643,0.796,0,1.513,4.356H352.4l-0.796,2.93l-3.025,0.792
		c-0.796-1.426-0.796-2.218-0.796-4.356c-1.513,1.426-2.309,1.426-4.617,0.792l3.025,6.574c9.155-1.426,7.642-1.426,9.155-10.296
		l1.513,3.643c4.617,0.792,0.796,0.792,2.309-0.792v-3.643c-3.025,0.792-0.796,0.792-3.025,0.792l-1.513-2.93L351.684,235.863z"/>
	<path id="XMLID_49_" fill="#6C5C53" d="M303.601,131.157c6.846,2.93-1.513,2.93,9.951,2.93l0.796-3.643
		c0.796,1.426,1.513,2.218,3.025,2.93c3.025,0,3.025-0.792,4.617-2.218l2.309,1.426c-0.796-2.93,0-1.426-2.309-2.93
		c-2.309,0.792,0,0-1.513,1.426c-4.617,3.643,2.309-0.792-1.513,1.426c-2.309-1.426-3.025-2.218-4.617-5.148l-2.309-0.792
		l0.796,2.93l-1.513,2.218l0,0h-1.672c-2.309-0.792,1.513,1.426-0.796-0.792c-1.513-0.792-1.513-2.218-1.513-4.356v-5.148
		C305.83,123.871,304.317,127.593,303.601,131.157z"/>
	<path id="XMLID_48_" fill="#992105" d="M301.292,251.228c0-3.643,1.513-8.791,0-11.722h-5.334h1.513c0,0-0.796,0-0.796,0.792
		c0,0-0.796,0.792-0.796,1.426c-1.513,2.93,2.309,11.722,3.025,12.435L301.292,251.228z"/>
	<path id="XMLID_47_" fill="#D30D0D" d="M372.382,234.358l3.821,1.426l1.513,2.218c2.309,1.426,0,0,2.309,1.426v-0.792l0,0l0,0
		c0-0.792,0,0,0-0.792c3.025,0.792,0.796,0.792,3.821,0.792v-2.218c0.796-0.792,0.796-0.792,0.796-2.931
		c-1.513-0.792-3.025-2.218-4.617-2.93l-0.796-2.218c0,2.93,0,1.426-3.025,2.93C373.098,232.933,373.098,232.933,372.382,234.358z"
		/>
	<path id="XMLID_46_" fill="#AD2D2E" d="M308.935,239.506h1.513l10.667-0.792h3.025c-2.309-1.426-1.513,2.93-0.796-5.861
		c-3.025,2.218-7.642,2.218-12.26,2.218l0.796-4.356h-0.796L308.935,239.506z"/>
	<path id="XMLID_45_" fill="#E3DBD9" d="M383.049,241.011c0.796,4.356,0,4.356,3.025,5.861h3.025l3.025,5.148l-1.513-5.861
		l2.309-1.426v-6.574l-1.513,0.792h-0.796c0,0,0,0-0.796,0.792L383.049,241.011z"/>
	<path id="XMLID_44_" fill="#E8A89E" d="M374.611,203.628c-0.796-2.931-1.513-2.931-3.821-5.148c-0.796,0.792,0,0-0.796,2.218
		l0.796,5.861c0,2.93-0.796,5.861-1.513,9.504c4.617-0.792,6.13-0.792,5.334-5.148C374.611,208.063,373.098,205.845,374.611,203.628
		z"/>
	<path id="XMLID_43_" fill="#C4BBBA" d="M331.065,65.34c-5.334,0.792-4.617,3.643-12.26,2.218c2.309,0.792,0.796,0.792,1.513-0.792
		l-2.309-0.792v-1.426c-3.025-0.792-1.513,1.426-2.309-1.426c-0.796-1.426,0-2.218,0-3.643c0,0.792-1.513,1.426-1.513,2.93
		c-2.309,8.079,9.155,10.93,15.285,6.574C331.065,67.479,330.349,67.479,331.065,65.34z"/>
	<path id="XMLID_42_" fill="#C4BBBA" d="M331.065,48.47l0.796,2.93l7.642-0.792l0.796-2.93c0.796-2.93,0.796,1.426,0.796-2.93
		v-7.999c-4.617,0-0.796-0.792-2.309,1.426c2.309-1.426,0.796-0.792,1.513,0l-5.334,8.791
		C333.374,49.262,334.17,49.262,331.065,48.47z"/>
	<path id="XMLID_41_" fill="#455E91" d="M316.577,47.757c-1.513,1.426-3.025,1.426-2.309,3.643c0.796,1.426,1.513,1.426,3.025,0.792
		c1.513-0.792,3.821-2.218,5.334-2.218l4.617-2.218h0.796l-1.513-2.93C321.911,44.114,318.885,45.54,316.577,47.757z"/>
	<path id="XMLID_40_" fill="#BCA18C" d="M317.293,82.131c0.796-1.426,0-2.218,0-3.643c-2.309-0.792-0.796,0-3.025-1.426
		c-1.513,2.218-3.025,3.643-6.13,4.356c-4.617,0.792-4.617-0.792-7.642-2.93l0.796-5.148l-2.309,0.792
		c0,5.861,0.796,8.791,6.846,9.504C312.756,84.349,313.472,80.705,317.293,82.131z"/>
	<path id="XMLID_39_" fill="#CF4F4F" d="M331.065,245.367l1.513,4.356c6.846-0.792,1.513,0,7.642,0.792l4.617-4.356l-1.513-2.93
		C337.991,245.367,337.991,245.367,331.065,245.367z"/>
	<path id="XMLID_38_" fill="#927271" d="M298.984,74.052c0.796,2.218-0.796,2.93-1.513,5.861c-0.796,0,0.796,0.792-0.796,0
		l1.513,1.426c0.796,0,0.796,0,0.796,0h0.796c1.513,0.792,1.513,1.426,2.309,2.93h9.951c3.821,0,2.309,0,3.821,2.218
		c1.513-2.93,1.513-1.426,1.513-4.356c-3.821-1.426-4.617,2.218-11.463,1.426C299.78,82.923,298.984,79.993,298.984,74.052
		l2.309-0.792c0.796-4.356,0-2.218-2.309-5.148c-0.796-1.426-0.796-2.93-0.796-5.148c-2.309,0.792-0.796-1.426-1.513,2.93
		c-0.796,4.356,2.309,5.148,3.025,8.079L298.984,74.052L298.984,74.052z"/>
	<path id="XMLID_37_" fill="#AD2D2E" d="M386.074,246.793c0.796,2.93,3.821,5.861,4.617,10.296c0.796,1.426,0.796,0.792,0.796,2.218
		c0,0.792,0,1.426,0,2.218c1.513-2.218,1.513-5.148,1.513-7.366c0-2.93,0-6.574,0-9.504l-2.309,1.426l1.513,5.861l-3.025-5.148
		L386.074,246.793L386.074,246.793z"/>
	<path id="XMLID_36_" fill="#7A87A5" d="M331.862,202.915c5.334,0.792,9.155,1.426,12.976,3.643l2.309,0.792
		c-1.513-2.93-3.025-3.643-5.334-5.148c-2.309-2.218-2.309-1.426-4.617-2.218c-2.309-0.792-0.796,0-1.513-1.426l-1.513,1.426
		c0,0,0,0.792-0.796,0.792L331.862,202.915z"/>
	<polygon id="XMLID_35_" fill="#7A87A5" points="309.651,243.862 321.115,243.229 321.115,238.794 310.447,239.506 	"/>
	<path id="XMLID_34_" fill="#EACC67" d="M318.885,192.698c0,2.218,0,0.792,0.796,1.426h3.821c1.513,0.792,3.821-0.792,8.438,0
		c-1.513-5.148-1.513-2.218-6.13-5.148l0,0l-0.796,0.792c0,0-0.796,0-0.796,0.792C321.115,191.906,324.936,189.054,318.885,192.698z
		"/>
	<path id="XMLID_33_" fill="#992105" d="M333.374,276.098c5.334,1.426,8.438-2.931,11.463-5.148c0-1.426,0-0.792-0.796-1.426l0,0
		c-1.513,0-9.951,3.643-11.463,4.356L333.374,276.098z"/>
	<path id="XMLID_32_" fill="#FDFBFA" d="M341.016,232.933l1.513,4.356h2.309v-2.218c0-2.93,0-1.426,2.309-2.93
		c3.025,1.426,1.513,0,2.309,2.218v2.218l2.309-0.792c0-3.643,0-5.148-3.821-5.861c-0.796,0-3.025,0.792-3.821,0.792
		C341.016,231.507,341.812,230.715,341.016,232.933z"/>
	<path id="XMLID_31_" fill="#F8D5B6" d="M296.675,85.141c-0.796-1.426,0-1.426-2.309-1.426l-4.617-1.426
		c0,2.93,1.513,3.643,2.309,5.148c2.309,3.643,2.309,2.93,6.13,2.218C298.188,86.566,298.984,87.279,296.675,85.141z"/>
	<path id="XMLID_30_" fill="#CF4F4F" d="M359.326,235.15v0.792v3.643c-1.513,1.426,2.309,1.426-2.309,0.792
		c1.513,2.93,0,2.218,3.025,2.93c0.796-1.426-0.796-5.148,3.025-5.148c2.309,0.792-0.796,0,2.309,1.426
		c3.025-5.861,1.513-2.218,5.334-5.148c-3.025,0-1.513,0-4.617-0.792l-1.513,2.93l-3.025-3.643L359.326,235.15z"/>
	<path id="XMLID_29_" fill="#927271" d="M285.212,76.983c0,2.93,0,4.356,1.513,6.574c3.025,2.93,1.513,2.93,4.617,4.356
		c0-0.792-0.796-1.426-1.513-1.426c-0.796-2.218-0.796-1.426-1.513-2.93l1.513-1.426l0,0l4.617,1.426c-1.513-2.218,0,0-1.513-0.792
		c-3.025-1.426-1.513,0-3.025-2.218c1.513-1.426,0.796-2.218,6.13-0.792c-1.513-2.218-5.334-1.426-8.438-1.426
		c-0.796-3.643-1.513-0.792-0.796-4.356c-1.513,0.792-1.513-1.426-1.513,1.426C284.495,76.27,285.212,74.845,285.212,76.983z"/>
	<path id="XMLID_28_" fill="#270902" d="M306.626,240.219c-3.025,2.218-3.821,1.426-3.821,6.574l3.025-1.426l3.821-0.792v-0.792
		l0.796-4.356h-1.513L306.626,240.219z"/>
	<path id="XMLID_27_" fill="#E3DBD9" d="M305.113,72.627c-2.309,2.93-1.513,2.93,0,5.861
		C310.447,79.201,313.472,70.488,305.113,72.627z"/>
	<path id="XMLID_26_" fill="#F8D5B6" d="M344.838,235.15v2.218h-2.309l0.796,2.93c2.309,0.792,3.025,0.792,4.617-0.792
		c0-0.792,0.796-0.792,2.309-0.792c2.309,0.792,0.796,0.792,2.309,1.426h0.796c-0.796-4.356-1.513-0.792-1.513-4.356l-2.309,0.792
		v-2.218c-0.796,2.218-0.796,0.792-3.025,2.93L344.838,235.15z"/>
	<path id="XMLID_25_" fill="#BCA18C" d="M306.626,231.507c0,2.218,0,2.93-0.796,5.148c0,0.792,0,1.426,0,1.426
		c0,2.218-0.796,0.792,0.796,2.218l2.309-0.792l2.309-8.791L306.626,231.507z"/>
	<path id="XMLID_24_" fill="#AD2D2E" d="M393,238.081c-0.796-2.218-1.513-5.861-2.309-8.079h-2.309l0,0l-0.796,5.148l-0.796,1.426
		h0.796c0,0,0,0,0.796,0l0.796,0.792C391.487,238.081,389.179,238.081,393,238.081z"/>
	<path id="XMLID_23_" fill="#FDFBFA" d="M332.578,45.54l-1.513,2.93c3.025,0.792,2.309,0.792,3.821-1.426l5.334-8.791
		c-0.796-0.792,0.796-1.426-1.513,0C337.195,38.253,332.578,44.827,332.578,45.54z"/>
	<path id="XMLID_22_" fill="#992105" d="M306.626,231.507l4.617-0.792h0.796l0.796-4.356c-0.796,0-2.309-0.792-3.821-0.792
		c-3.025,0.792-2.309,0.792-2.309,0.792c1.513,1.426,0.796-0.792,0.796,2.218C307.422,229.289,306.626,230.715,306.626,231.507z"/>
	<path id="XMLID_21_" fill="#455E91" d="M317.293,52.193c0,2.218,0,1.426,0.796,4.356l0.796,0.792h6.13
		c-2.309-1.426-3.821-1.426-3.821-1.426l1.513-5.148L317.293,52.193z"/>
	<path id="XMLID_20_" fill="#454B65" d="M316.577,47.757c2.309-2.218,5.334-3.643,9.951-2.93c-5.334-2.218-3.025-3.643-7.642-3.643
		c-0.796,0.792-0.796,0.792-1.513,1.426L316.577,47.757z"/>
	<polygon id="XMLID_19_" fill="#1E2334" points="311.243,222.003 312.756,216.062 312.756,213.924 309.651,213.924 307.422,222.003 
			"/>
	<path id="XMLID_18_" fill="#7A87A5" d="M344.041,269.524c0.796,0.792,0.796,0,0.796,1.426c2.309,1.426,2.309,2.218,4.617,2.93
		c0.796,0,0.796-0.792,1.513-1.426c0.796,0,1.513-1.426,1.513-1.426s0.796-0.792,0.796-1.426c-5.334,1.426-4.617,0-7.642-1.426
		L344.041,269.524z"/>
	<path id="XMLID_17_" fill="#E8A89E" d="M291.341,87.992c3.821,3.643,6.13,1.426,9.155,3.643l0.796-3.643l-4.617-2.93
		c2.309,2.218,1.513,1.426,1.513,4.356c-3.821,0.792-3.821,1.426-6.13-2.218c-0.796-1.426-2.309-2.218-2.309-5.148l0,0l-1.513,1.426
		c0.796,1.426,0.796,0.792,1.513,2.93C290.545,86.566,291.341,87.279,291.341,87.992z"/>
	<path id="XMLID_16_" fill="#C4BBBA" d="M312.756,216.062l-1.513,5.861l-2.309,2.93h3.025c0.796-3.643,0.796-3.643,2.309-5.861
		l0.796-3.643c-0.796-1.426,1.513-1.426-0.796-0.792L312.756,216.062z"/>
	<path id="XMLID_15_" fill="#453B39" d="M338.708,80.705l6.13-0.792c2.309-1.426,0.796-0.792,2.309-1.426
		c-1.513-0.792-0.796-0.792-2.309-1.426c-1.513,0-4.617,0.792-5.334,1.426C337.991,80.705,339.504,77.775,338.708,80.705z"/>
	<path id="XMLID_14_" fill="#E3DBD9" d="M325.732,225.567l0.796-11.722c-2.309,1.426-1.513,2.218-1.513,5.148
		c-0.796,2.218-0.796,3.643-0.796,5.861C324.936,225.567,321.911,225.567,325.732,225.567z"/>
	<path id="XMLID_13_" fill="#CF4F4F" d="M347.863,239.506c0,2.218,0,2.93,0.796,4.356l3.025-0.792l0.796-2.93
		c-1.513-0.792,0-0.792-2.309-1.426C348.659,238.794,347.863,238.794,347.863,239.506z"/>
	<path id="XMLID_12_" fill="#1E2334" d="M304.317,57.974h3.821l-0.796-0.792c0-0.792,0-0.792,0-0.792v-3.643l-3.025-1.426V57.974z"
		/>
	<path id="XMLID_11_" fill="#E3DBD9" d="M354.788,233.725l1.513,2.93c2.309,0,0,0,3.025-0.792v-0.792
		c1.513-2.218,0.796,0,0.796-2.93c-4.617,0,0.796-0.792-2.309,0.792c-1.513,0.792,0,0.792-2.309,0
		C353.276,232.933,355.505,232.14,354.788,233.725z"/>
	<path id="XMLID_10_" fill="#453B39" d="M343.325,96.071c-0.796,0.792-0.796,2.218-3.025,2.218c-0.796,0-3.025-0.792-4.617-1.426
		l1.513,2.93c2.309,0,4.617,0,6.13-1.426c0.796,0,1.513-1.426,1.513-2.218c0.796-2.93,0-2.218-0.796-2.218v2.218h-0.716V96.071z"/>
	<path id="XMLID_9_" fill="#BCA18C" d="M344.838,235.15l1.513,2.218c2.309-2.218,2.309-0.792,3.025-2.931
		c-0.796-2.218,0.796-0.792-2.309-2.218C344.838,233.725,344.838,232.14,344.838,235.15z"/>
	<path id="XMLID_8_" fill="#FDFBFA" d="M365.456,231.507c1.513,0.792,2.309,2.218,4.617,2.218v-2.93l-2.309-2.218
		c-2.309-1.426,0-0.792-0.796,0c0,0.792-0.796,1.426-0.796,1.426S366.252,230.715,365.456,231.507z"/>
	<path id="XMLID_7_" fill="#AD2D2E" d="M314.268,233.725c3.025-0.792,6.13-0.792,4.617-3.643l-3.025-0.792L314.268,233.725z"/>
	<path id="XMLID_6_" fill="#AD2D2E" d="M315.781,227.072c4.617,0,3.821-0.792,4.617-3.643l-3.025-0.792
		c-0.796,0.792,0,0-0.796,2.218C316.577,225.567,315.781,226.359,315.781,227.072z"/>
	<path id="XMLID_5_" fill="#BCA18C" d="M297.471,96.071c0,2.218-0.796,2.218,1.513,2.93l1.513-3.643l-1.513-0.792
		C297.471,94.645,297.471,93.14,297.471,96.071z"/>
	<path id="XMLID_4_" fill="#C4BBBA" d="M309.651,191.272v0.792c0.796,0-0.796,0.792,2.309,0.792c4.617,0,0.796,0.792,2.309-0.792
		C314.268,191.272,315.781,189.688,309.651,191.272z"/>
	<path id="XMLID_3_" fill="#270902" d="M318.089,64.548v1.426l2.309,0.792c0-2.218,0-0.792-0.796-2.93L318.089,64.548z"/>
	<path id="XMLID_2_" fill="#270902" d="M302.009,68.271c3.025-1.426,2.309-1.426,0.796-2.93c-1.513,0-0.796-0.792-1.513,0.792
		L302.009,68.271z"/>
</g>
</svg>
