<?xml version="1.0" encoding="utf-8"?>
<!-- Generator: Adobe Illustrator 19.0.0, SVG Export Plug-In . SVG Version: 6.00 Build 0)  -->
<svg version="1.1" id="Layer_1" xmlns="http://www.w3.org/2000/svg" xmlns:xlink="http://www.w3.org/1999/xlink" x="0px" y="0px"
	 viewBox="0 0 640 360" enable-background="new 0 0 640 360" xml:space="preserve">
<rect id="XMLID_1_" fill="#981E32" stroke="#000000" stroke-miterlimit="10" width="640" height="360"/>
<path id="XMLID_33_" fill="#FFFFFF" d="M342.301,174.379l-21.021,14.989l-21.021-14.989c-14.989-10.236-27.784-19.01-34.456-32.354
	c5.575,25.042,29.978,34.365,55.477,54.381c25.591-20.016,49.994-29.429,55.477-54.381
	C370.085,155.277,357.198,164.143,342.301,174.379z"/>
<path id="XMLID_32_" fill="#FFFFFF" d="M262.878,52v2.65c1.645,0.548,2.193,1.097,2.376,3.473v60.413
	c0,33.634,27.327,42.499,56.117,65.074c28.79-22.575,56.117-31.44,56.117-65.074V57.392c0.183-1.828,0.823-2.285,2.285-2.742V52
	C379.59,52,262.878,52,262.878,52z"/>
<g>
	<g>
		<g>
			<path id="XMLID_31_" fill="#981E32" d="M332.613,150.433c0,0,4.661-2.011,7.22-9.688c2.285,4.753,1.645,9.597,1.645,9.597
				C339.467,150.799,332.613,150.433,332.613,150.433z"/>
			<path id="XMLID_30_" fill="#981E32" d="M357.655,106.198c0,0,2.833,15.537-7.22,16.086c-9.688,0.548-14.349-14.166-14.349-14.166
				s2.376,28.698,15.994,26.779C367.434,132.794,357.655,106.198,357.655,106.198z"/>
		</g>
	</g>
	<path id="XMLID_29_" fill="#981E32" d="M283.624,146.778C283.716,146.778,283.716,146.778,283.624,146.778
		c11.424-2.559,20.107-15.903,22.666-21.204l1.645-3.382l1.005,3.656c0.091,0.183,1.097,4.204,1.097,9.414c0,0.548,0,1.188,0,1.828
		c3.93,0.183,6.672-0.64,8.5-2.468c2.468-2.559,3.29-7.494,2.285-14.989c-0.457-3.564-1.737-9.322-2.925-14.349
		c-0.64-2.559-1.188-5.027-1.462-6.763c-2.194-11.059,0.548-17.822,3.199-21.661c0.457-0.64,0.914-1.188,1.371-1.737
		c-7.86,2.65-14.441,6.763-21.295,13.618l4.753,5.575l1.919-1.828c1.828,6.946,0.548,13.252,0.548,13.252
		c-2.559-3.839-5.484-6.946-5.484-6.946l1.28-2.193l-4.296-5.027l-0.548-0.548c-5.301,7.312-7.037,13.252-7.037,13.252l3.747,3.473
		l2.194,2.011l0.731-2.102c4.021,7.586,0.366,14.715,0.366,14.715c-0.64-2.559-3.29-6.398-3.29-6.398l1.005-3.473l-5.575-5.118
		c-5.849,18.279-13.618,24.129-13.618,24.129s8.408-1.554,13.07-3.107C289.474,128.407,289.382,138.004,283.624,146.778z"/>
	<path fill="#981E32" d="M368.623,80.973l-13.435,0.548c0,1.554-0.183,3.199-0.731,4.753c1.28,5.484,0.366,8.5,0.366,8.5
		c-2.285-5.21-4.021-6.672-4.021-6.672c-12.338-5.484-19.285,6.946-18.553,14.989c0.64,6.58,3.016,15.355,4.844,29.064
		c1.554,11.516-4.296,16.543-10.968,17.731c-0.183,0-0.274,0.091-0.457,0.091h-0.091c-1.097,0.183-2.285,0.183-3.473,0.183h-0.091
		c-0.091,0-0.274,0-0.366,0c-0.548,0-1.005-0.091-1.554-0.183c-5.21-0.731-16.908-2.833-28.973-3.107
		c7.129-4.204,12.613-11.333,15.72-16.451c0.183,1.462,0.366,3.107,0.366,5.027c0,0.914,0,1.919-0.091,2.925l-0.091,1.371
		l1.371,0.091c5.575,0.457,9.505-0.548,12.064-3.199c3.199-3.29,4.113-8.774,3.107-17.274c-0.457-3.747-1.828-9.505-3.016-14.623
		c-0.64-2.559-1.188-4.935-1.462-6.672c-2.011-10.054,0.366-16.177,2.742-19.467c1.828-2.65,4.387-4.57,7.22-5.484
		c0.091,0,0.091,0,0.183,0l4.57-14.166h1.462l-3.107,13.618c0.731-0.091,1.462-0.274,2.194-0.366l3.93-12.521h1.462l-2.559,12.156
		c4.113-0.548,8.591-0.914,13.435-1.28c0.823,0.366,1.645,1.28,2.376,2.559l12.978-4.021l0.457,1.371l-12.338,4.844
		c0.091,0.274,0.183,0.548,0.274,0.823l13.527-1.645l0.183,1.462l-13.161,2.65c0.091,0.274,0.091,0.457,0.091,0.731l13.618,0.457
		L368.623,80.973z M329.688,87.005c2.742-1.919,7.312-3.382,11.607-3.016c1.097,0.091,2.011-0.183,0.823-0.823
		c-3.199-1.737-10.785-1.097-13.435,0.731c-4.296,2.925-3.564,8.134-3.473,8.226C326.124,90.569,327.586,88.467,329.688,87.005z"/>
</g>
<g>
	<g>
		<path fill="#FFFFFF" d="M377.122,282.318c-4.387-3.29-7.403-5.118-7.403-8.134c0-3.199,2.285-4.57,4.753-4.57
			c3.473,0,5.118,2.468,5.484,5.484h1.097v-5.667c0-0.183,0-0.366-0.274-0.457c-1.737-0.64-4.204-0.823-6.124-0.823
			c-5.027,0-9.322,3.107-9.322,7.038c0,2.102,0.548,3.656,1.462,4.753l0,0c0,0,0,0,0.091,0.091c1.097,1.371,2.468,2.285,3.747,3.199
			c6.489,4.296,8.043,6.581,8.043,9.414c0.091,6.306-11.607,9.597-19.376-2.468l-4.021-6.124c3.199-1.188,5.758-4.113,5.758-8.408
			c0-4.844-4.113-6.946-8.317-6.946h-11.973v1.097c3.656,0.457,3.564,0.274,3.564,4.021v18.462c0,3.839,0.183,3.656-3.564,4.021
			v1.097h11.059v-1.097c-3.656-0.457-3.564-0.274-3.564-4.021v-7.586h3.839c4.935,8.226,6.215,11.79,8.683,12.704
			c0.548,0.183,7.037,2.285,11.516,2.285c5.21,0,10.785-2.833,10.785-8.043C383.246,287.984,381.784,285.699,377.122,282.318z
			 M351.714,283.78h-3.382v-13.344h3.199c3.016,0,5.484,1.554,5.484,6.032C356.924,281.038,355.279,283.78,351.714,283.78z"/>
		<path id="XMLID_24_" fill="#FFFFFF" d="M269.184,297.307c0,0,0,0-20.107-23.763v18.188c0,0.823,0.183,1.554,0.274,2.194
			c0.183,1.462,1.645,2.102,4.296,2.285v1.097h-10.145v-1.097c2.011-0.183,3.382-0.823,3.564-2.285
			c0.091-0.64,0.274-1.371,0.274-2.194v-19.467c-1.188-1.462-2.468-2.833-4.753-2.833v-1.097h7.494
			c6.124,7.494,12.521,15.08,18.645,22.575h0.091v-17c0-0.823-0.183-1.554-0.274-2.193c-0.183-1.462-1.554-2.011-4.296-2.285v-1.097
			h10.145v1.097c-1.919,0.183-3.382,0.823-3.564,2.285c-0.091,0.64-0.274,1.371-0.274,2.193v23.306h-1.371V297.307z"/>
		<path id="XMLID_23_" fill="#FFFFFF" d="M285.361,292.097c0,3.839-0.183,3.656,3.564,4.113v1.097h-11.059v-1.097
			c3.747-0.457,3.564-0.274,3.564-4.113v-18.553c0-3.839,0.183-3.656-3.564-4.113v-1.097h11.059v1.097
			c-3.747,0.457-3.564,0.274-3.564,4.113C285.361,273.544,285.361,292.097,285.361,292.097z"/>
		<path id="XMLID_22_" fill="#FFFFFF" d="M337.822,289.904c-1.919,4.387-1.645,6.124-7.586,6.124c-3.747,0-5.301-0.274-5.301-3.839
			v-9.322h3.473c2.742,0,3.747,1.462,3.747,3.839h1.097v-8.774h-1.097c-0.091,2.559-1.188,3.564-3.747,3.564h-3.473v-11.79h6.581
			c2.925,0,3.839,2.285,4.204,5.301h1.097v-6.672h-19.01h-8.134v1.097c2.833,0,3.839,1.28,2.833,3.839
			c-2.559,6.306-5.118,12.613-7.677,19.01c-2.102-6.306-4.57-13.344-6.124-18.188c-1.371-3.93,0.274-4.661,2.559-4.661v-1.097
			h-10.511v1.097c2.011,0,2.559,1.28,4.021,5.667c2.468,7.038,5.301,14.989,7.86,22.118h2.102c3.473-8.5,6.946-16.908,10.419-25.317
			c0.823-2.102,1.462-2.468,2.65-2.468c3.747,0.457,3.199,0.274,3.199,4.113v18.553c0,3.839,0.548,3.656-3.199,4.113v1.097h19.924
			l1.28-7.403H337.822L337.822,289.904z"/>
		<path id="XMLID_21_" fill="#FFFFFF" d="M393.117,292.097c0,3.839-0.183,3.656,3.564,4.113v1.097h-11.059v-1.097
			c3.747-0.457,3.564-0.274,3.564-4.113v-18.553c0-3.839,0.183-3.656-3.564-4.113v-1.097h11.059v1.097
			c-3.747,0.457-3.564,0.274-3.564,4.113V292.097z"/>
		<path id="XMLID_20_" fill="#FFFFFF" d="M435.25,268.426v1.097c2.468,0,3.747,1.188,2.376,3.747l-5.667,10.328l-5.027-10.328
			c-1.005-2.102-1.28-3.747,1.828-3.747v-1.097h-6.946h-2.833h-19.193l-1.097,6.306h1.005c1.371-2.742,2.194-5.027,5.758-5.027
			h3.382v22.392c0,3.839,0.183,3.656-3.564,4.113v1.097h11.059v-1.097c-3.747-0.457-3.564-0.274-3.564-4.113v-22.392h3.382
			c3.382,0,5.667,2.011,7.038,4.57l5.849,11.516v6.306c0,3.839,0.183,3.656-3.564,4.113v1.097h11.059v-1.097
			c-3.747-0.457-3.564-0.274-3.564-4.113v-4.661c0-1.005,0.091-2.193,0.457-3.016l6.855-12.521c1.097-2.011,2.194-2.468,3.382-2.468
			v-1.097L435.25,268.426L435.25,268.426z"/>
		<path id="XMLID_19_" fill="#FFFFFF" d="M242.588,268.426h-12.978v1.097c2.559,0.274,4.478,1.462,4.753,3.382
			c0.091,0.914,0.366,1.828,0.366,3.016v15.446c0,8.865-4.021,13.984-11.607,13.984c-8.226,0-10.785-5.941-10.785-13.709v-16.268
			c0-5.118,0.183-5.21,5.118-5.849v-1.097h-14.898v1.097c5.027,0.64,4.753,0.731,4.753,5.849v16.543
			c0,10.054,3.656,16.086,15.446,16.086c7.129,0,14.806-4.478,14.806-16.36v-15.629c0-0.091,0-0.183,0-0.274
			c-0.091-4.844,1.828-5.484,4.935-6.032L242.588,268.426z"/>
	</g>
	<g>
		<path id="XMLID_18_" fill="#FFFFFF" d="M214.712,247.77c0,3.839-0.183,3.656,3.564,4.021v1.097h-11.059v-1.097
			c3.656-0.457,3.564-0.274,3.564-4.021v-18.462c0-3.839-1.737-3.564-5.484-4.021v-1.097h12.978v1.097
			c-3.656,0.457-3.564,0.274-3.564,4.021v7.129h14.441v-7.129c0-3.839,0.183-3.564-3.564-4.021v-1.097h11.059v1.097
			c-3.656,0.457-3.564,0.274-3.564,4.021v18.462c0,3.839-0.183,3.656,3.564,4.021v1.097h-11.059v-1.097
			c3.656-0.457,3.564-0.274,3.564-4.021v-9.688h-14.441L214.712,247.77L214.712,247.77z"/>
		<path id="XMLID_17_" fill="#FFFFFF" d="M248.62,247.77c0,3.839-0.183,3.656,3.564,4.021v1.097h-11.059v-1.097
			c3.656-0.457,3.564-0.274,3.564-4.021v-18.462c0-3.839,0.183-3.564-3.564-4.021v-1.097h11.059v1.097
			c-3.656,0.457-3.564,0.274-3.564,4.021V247.77z"/>
		<path id="XMLID_16_" fill="#FFFFFF" d="M282.802,252.888c-6.489-7.677-13.344-15.811-20.016-23.672v18.188
			c0,0.823,0.183,1.554,0.274,2.193c0.183,1.462,1.554,2.011,4.296,2.285v1.097h-10.054v-1.188c2.011-0.183,3.29-0.823,3.564-2.285
			c0.091-0.64,0.274-1.371,0.274-2.193v-19.376c-1.188-1.462-2.468-2.833-4.753-2.833v-1.097h7.494
			c6.124,7.403,12.521,14.989,18.645,22.392h0.091v-16.908c0-0.823-0.183-1.554-0.274-2.193c-0.183-1.462-1.645-2.011-4.296-2.285
			v-1.097h10.054v1.097c-1.919,0.183-3.29,0.731-3.564,2.285c-0.091,0.64-0.274,1.371-0.274,2.193v23.215L282.802,252.888
			L282.802,252.888z"/>
		<path id="XMLID_15_" fill="#FFFFFF" d="M288.834,238.356c0-6.306,5.301-14.715,16.451-14.715c4.021,0,5.849,0.731,7.86,1.371
			c1.188,0.366,1.645,0.914,1.645,1.554v5.301h-1.097c-0.091-3.29-2.193-6.855-8.774-6.855c-8.591,0-11.424,5.941-11.424,12.887
			c0,6.489,3.199,13.892,11.607,13.892c5.118,0,5.575-1.919,5.575-5.118v-2.468c0-3.839,0.183-3.656-4.387-4.021v-1.097h11.881
			v1.097c-3.656,0.457-3.564,0.274-3.564,4.021v7.129c-2.65,1.005-6.124,1.919-9.779,1.919
			C296.42,253.345,288.834,249.324,288.834,238.356z"/>
		<path id="XMLID_14_" fill="#FFFFFF" d="M332.338,247.77c0,3.839-0.183,3.656,3.564,4.021v1.097h-11.15v-1.097
			c3.656-0.457,3.564-0.274,3.564-4.021v-22.301h-3.29c-3.564,0-4.387,2.285-5.758,4.935h-1.005l1.097-6.306h21.935l1.097,6.306
			h-1.005c-1.371-2.742-2.194-4.935-5.758-4.935h-3.29L332.338,247.77L332.338,247.77z"/>
		<path fill="#FFFFFF" d="M342.392,238.996c0-8.865,6.855-15.446,15.446-15.446c8.865,0,14.075,7.677,14.075,13.984
			c0,8.683-6.489,15.72-15.537,15.72C348.516,253.345,342.392,247.039,342.392,238.996z M367.252,238.905
			c0-9.779-5.301-13.801-10.328-13.801c-6.946,0-9.871,6.215-9.871,11.79c0,9.962,5.118,15.08,10.419,15.08
			C365.15,251.883,367.252,244.388,367.252,238.905z"/>
		<path id="XMLID_11_" fill="#FFFFFF" d="M398.418,252.888c-6.581-7.677-13.344-15.811-20.016-23.672v18.188
			c0,0.823,0.183,1.554,0.274,2.193c0.183,1.462,1.554,2.011,4.296,2.285v1.097h-10.054v-1.188c2.011-0.183,3.29-0.823,3.564-2.285
			c0.091-0.64,0.274-1.371,0.274-2.193v-19.376c-1.188-1.462-2.376-2.833-4.753-2.833v-1.097h7.494
			c6.124,7.403,12.521,14.989,18.645,22.392h0.091v-16.908c0-0.823-0.183-1.554-0.274-2.193c-0.183-1.462-1.554-2.011-4.296-2.285
			v-1.097h10.054v1.097c-1.919,0.183-3.29,0.731-3.564,2.285c-0.091,0.64-0.274,1.371-0.274,2.193v23.215L398.418,252.888
			L398.418,252.888z"/>
		<path id="XMLID_10_" fill="#FFFFFF" d="M168.466,218.615L168.466,218.615h-11.15v1.371c4.296,0.091,5.027,1.554,3.839,4.844
			l-8.408,22.849h-0.457l-9.871-28.607h-2.468l-10.419,28.607H128.8l-7.494-22.758c-1.097-3.564,0.457-4.935,3.747-4.935v-1.371
			h-13.07v1.371c2.833,0,3.29,2.193,5.118,7.312l9.597,28.333h2.559l10.236-28.881l10.054,28.881h2.833
			c4.296-11.516,10.419-28.516,12.613-33.085c0.823-1.737,2.376-2.559,3.747-2.559v-1.371H168.466L168.466,218.615z"/>
		<path fill="#FFFFFF" d="M197.986,237.442c-4.296-3.199-7.312-5.027-7.312-8.043c0-3.199,2.285-4.478,4.753-4.478
			c3.473,0,5.118,2.468,5.484,5.484h1.097v-5.667c0-0.183,0-0.366-0.274-0.457c-1.737-0.64-4.204-0.823-6.032-0.823
			c-4.935,0-9.322,3.107-9.322,6.946c0,2.102,0.548,3.564,1.462,4.753l0,0c0,0,0,0,0.091,0c1.005,1.371,2.468,2.285,3.747,3.107
			c6.489,4.296,7.951,6.581,7.951,9.414c0,2.65-1.919,5.21-5.575,5.484c-3.656,0.274-8.5-1.554-10.419-6.672
			c-1.737-4.935-5.392-15.446-7.86-22.666h-2.376c-3.382,9.048-8.043,22.392-9.779,25.956c-0.64,1.371-1.828,2.011-2.925,2.011
			v1.097h1.737h5.667v-1.097c-1.828,0-2.559-1.371-2.011-2.925l1.919-5.484h10.511l1.737,5.301l1.371,4.113
			c0,0,7.312,1.919,12.156,1.919c5.21,0,10.419-2.833,10.419-7.951C204.019,243.017,202.556,240.824,197.986,237.442z
			 M168.466,241.738l4.844-13.344h0.091l4.387,13.344H168.466z"/>
	</g>
	<g>
		<path id="XMLID_7_" fill="#FFFFFF" d="M431.96,226.018c-0.457-3.839-2.559-6.946-6.946-6.946c-3.199,0-6.489,1.645-6.489,5.758
			c0,3.839,3.839,6.215,9.414,10.328c5.849,4.387,7.769,7.22,7.769,11.79c0,6.581-6.398,10.236-12.978,10.236
			c-3.564,0-6.581-0.64-9.414-1.737c-0.183-0.091-0.366-0.366-0.366-0.731v-7.951h1.462c0.64,6.124,4.661,8.591,8.865,8.591
			c3.93,0,7.494-3.016,7.494-7.038c0-3.564-1.919-6.489-10.236-11.973c-3.016-2.011-6.672-4.113-6.672-10.145
			c0-5.027,5.118-8.865,11.516-8.865c2.376,0,5.484,0.274,7.769,1.097c0.366,0.091,0.366,0.366,0.366,0.64v7.22L431.96,226.018
			L431.96,226.018z"/>
		<path id="XMLID_6_" fill="#FFFFFF" d="M449.691,247.77c0,3.839-0.183,3.564,3.564,4.113v1.097h-11.059v-1.097
			c3.656-0.457,3.564-0.274,3.564-4.113v-22.301h-3.29c-3.564,0-4.387,2.285-5.758,4.935h-1.005l1.097-6.306h21.935l1.097,6.306
			h-1.005c-1.371-2.742-2.194-4.935-5.758-4.935h-3.29v22.301H449.691z"/>
		<path fill="#FFFFFF" d="M463.949,243.383l-1.919,5.484c-0.548,1.645,0.274,2.925,2.011,2.925v1.097h-7.494v-1.097
			c1.097,0,2.285-0.731,2.925-2.102c1.737-3.656,6.581-17.091,9.962-26.139h2.285c2.833,8.226,6.946,20.93,8.408,24.586
			c0.914,2.285,1.554,3.656,3.29,3.656v1.097h-9.597v-1.097c2.559,0,2.833-1.371,2.193-3.199l-1.737-5.301h-10.328V243.383z
			 M473.911,241.829l-4.387-13.344h-0.091l-4.935,13.344H473.911z"/>
		<path id="XMLID_3_" fill="#FFFFFF" d="M494.84,247.77c0,3.839-0.183,3.564,3.564,4.113v1.097h-11.059v-1.097
			c3.656-0.457,3.564-0.274,3.564-4.113v-22.301h-3.29c-3.564,0-4.387,2.285-5.758,4.935h-1.005l1.097-6.306h21.935l1.097,6.306
			h-1.097c-1.371-2.742-2.194-4.935-5.758-4.935h-3.29V247.77L494.84,247.77z"/>
		<path id="XMLID_2_" fill="#FFFFFF" d="M506.905,251.883c3.747-0.457,3.199-0.274,3.199-4.113v-18.462
			c0-3.839,0.548-3.656-3.199-4.021v-1.097h18.005v6.581h-1.097c-0.366-3.016-1.188-5.301-4.204-5.301h-5.575v11.79h3.473
			c2.559,0,3.656-1.005,3.747-3.564h1.097v8.774h-1.097c-0.091-2.468-1.005-3.839-3.747-3.839h-3.473v9.322
			c0,3.473,1.645,3.839,5.301,3.839c5.941,0,5.667-1.737,7.586-6.124h1.097l-1.28,7.403h-19.833V251.883L506.905,251.883z"/>
	</g>
</g>
</svg>
