<?xml version="1.0" encoding="utf-8"?>
<!-- Generator: Adobe Illustrator 19.0.0, SVG Export Plug-In . SVG Version: 6.00 Build 0)  -->
<svg version="1.1" id="Layer_1" xmlns="http://www.w3.org/2000/svg" xmlns:xlink="http://www.w3.org/1999/xlink" x="0px" y="0px"
	 viewBox="0 0 640 360" enable-background="new 0 0 640 360" xml:space="preserve">
<rect id="XMLID_1_" fill="#00BDF2" width="640" height="360"/>
<g>
	<path id="XMLID_49_" fill="#FFFFFF" d="M343.02,116.672c0,11.734-8.062,21.945-21.318,21.945
		c-13.615,0-21.318-10.211-21.318-21.945s8.062-21.945,21.318-21.945C334.959,94.458,343.02,104.669,343.02,116.672"/>
	<path id="XMLID_48_" fill="#FFFFFF" d="M386.015,116.672c0-19.169-8.062-36.815-21.677-48.549v48.549
		c0,23.826-16.123,44.249-42.995,44.249s-42.726-20.691-42.726-44.249s15.765-44.249,42.995-44.249
		c8.33,0,15.496,1.881,21.318,5.285V55.404C336.392,53.254,329.047,52,321.612,52c-38.069,0-64.672,29.38-64.672,64.672
		s26.603,64.672,64.672,64.672C359.412,181.075,386.015,151.695,386.015,116.672"/>
</g>
<g>
	<path id="XMLID_47_" fill="#FFFFFF" d="M240.907,213.859h25.349v6.36h-17.915v6.628h15.765v6.628h-15.765v6.897h18.094v6.628
		h-25.26V213.68h-0.269V213.859z"/>
	<path id="XMLID_46_" fill="#FFFFFF" d="M270.287,221.652h7.166v3.762c1.612-2.15,3.762-4.031,7.435-4.031
		c5.643,0,8.778,3.762,8.778,9.584v16.571H286.5v-14.421c0-3.493-1.612-5.374-4.299-5.374s-4.568,1.881-4.568,5.374v14.421h-7.166
		v-25.887L270.287,221.652L270.287,221.652z"/>
	<path fill="#FFFFFF" d="M298.234,252.286l2.418-5.374c2.687,1.612,5.374,2.418,8.509,2.418c5.106,0,7.166-2.418,7.166-6.897v-1.344
		c-2.15,2.687-4.568,4.3-8.241,4.3c-5.912,0-11.465-4.3-11.465-12.003s5.643-12.003,11.465-12.003c4.031,0,6.36,1.612,8.241,3.762
		v-3.493h7.166v19.706c0,4.568-1.075,7.972-3.225,10.122c-2.15,2.418-5.912,3.493-10.659,3.493
		C305.489,254.973,301.458,253.898,298.234,252.286 M316.686,233.117c0-3.493-2.687-6.091-6.091-6.091
		c-3.493,0-6.091,2.418-6.091,5.912s2.687,5.912,6.091,5.912C313.999,239.208,316.686,236.521,316.686,233.117"/>
	<path id="XMLID_43_" fill="#FFFFFF" d="M328.957,212.246h7.166v34.934h-7.166V212.246z"/>
	<path fill="#FFFFFF" d="M341.229,212.246h7.703v6.36h-7.703V212.246z M341.498,221.652h7.166v25.618h-7.166V221.652z"/>
	<path id="XMLID_40_" fill="#FFFFFF" d="M351.619,243.776l2.956-4.837c2.687,2.15,5.643,2.956,7.972,2.956
		c2.15,0,2.956-0.806,2.956-1.881c0-1.612-2.418-2.15-5.374-2.956c-3.493-1.075-7.703-2.687-7.703-7.703
		c0-5.374,4.299-7.972,9.316-7.972c3.225,0,6.628,1.075,9.584,2.956l-2.687,5.106c-2.418-1.612-5.106-2.418-6.897-2.418
		c-1.881,0-2.687,0.806-2.687,1.881c0,1.344,2.418,2.15,5.374,2.956c3.493,1.075,7.703,2.956,7.703,7.435
		c0,5.643-4.299,8.241-9.853,8.241C358.785,247.717,354.844,246.463,351.619,243.776"/>
	<path id="XMLID_39_" fill="#FFFFFF" d="M375.625,212.246h7.166v12.809c1.612-2.15,3.762-4.031,7.435-4.031
		c5.643,0,8.778,3.762,8.778,9.584v16.571h-7.166v-14.421c0-3.493-1.612-5.374-4.299-5.374s-4.568,1.881-4.568,5.374v14.421h-7.166
		v-34.934H375.625z"/>
	<path fill="#FFFFFF" d="M130.642,277.635L130.642,277.635c0-6.897-5.106-13.078-12.809-13.078s-12.809,6.091-12.809,13.078
		s5.106,13.078,12.809,13.078C125.268,290.712,130.642,284.532,130.642,277.635 M127.686,277.903c0,5.643-4.031,10.391-9.853,10.391
		c-5.822,0-9.853-4.837-9.853-10.391s4.031-10.391,9.853-10.391C123.387,267.244,127.686,271.992,127.686,277.903"/>
	<path id="XMLID_36_" fill="#FFFFFF" d="M132.792,290.444h3.225l5.912-7.703l5.643,7.703h3.225l-7.166-9.584l6.897-9.047h-2.956
		l-5.643,7.166l-5.643-7.166h-3.225l7.166,9.047L132.792,290.444"/>
	<path id="XMLID_35_" fill="#FFFFFF" d="M154.917,290.444h2.687v-16.302h5.912v-2.418h-5.912v-1.612
		c0-2.687,1.075-4.031,3.225-4.031c1.075,0,1.612,0.269,2.687,0.537v-2.418c-0.806-0.269-1.881-0.537-2.956-0.537
		c-1.612,0-2.956,0.537-4.031,1.344c-1.075,1.075-1.612,2.687-1.612,4.837v1.612h-2.687v2.418h2.687V290.444"/>
	<path fill="#FFFFFF" d="M183.401,281.128c0-5.374-4.031-9.584-9.584-9.584s-9.584,4.568-9.584,9.584
		c0,5.374,4.031,9.584,9.584,9.584C179.191,290.712,183.401,286.413,183.401,281.128 M180.535,281.128
		c0,4.031-2.956,7.166-6.897,7.166c-4.031,0-6.897-3.225-6.897-7.166c0-4.031,2.687-7.166,6.897-7.166
		C177.579,273.873,180.535,277.097,180.535,281.128"/>
	<path id="XMLID_32_" fill="#FFFFFF" d="M186.894,290.444h2.687v-7.524c0-5.643,3.225-8.509,7.435-8.509h0.269v-2.956
		c-3.493-0.269-6.091,2.15-7.435,5.106v-4.837h-2.687v18.631h-0.269"/>
	<path fill="#FFFFFF" d="M217.08,290.444V264.02h-2.687v11.197c-1.344-2.15-3.762-4.031-7.166-4.031
		c-4.568,0-8.778,3.493-8.778,9.584c0,6.091,4.568,9.584,8.778,9.584c3.493,0,5.643-1.881,7.166-4.299v3.762h2.687V290.444
		 M214.393,281.128c0,4.299-3.225,7.166-6.628,7.166s-6.628-2.956-6.628-7.166c0-4.568,2.956-7.166,6.628-7.166
		C211.169,273.873,214.393,276.829,214.393,281.128"/>
	<path fill="#FFFFFF" d="M366.668,277.903c0-7.166-5.643-12.54-13.346-12.54h-8.778v25.081h8.778
		C361.383,290.444,366.668,284.801,366.668,277.903 M363.712,277.903c0,5.643-4.031,9.853-10.39,9.853h-5.912v-19.975h5.912
		C359.77,267.782,363.712,272.26,363.712,277.903"/>
	<path id="XMLID_27_" fill="#FFFFFF" d="M370.967,267.782h3.225v-3.225h-3.225V267.782"/>
	<path id="XMLID_26_" fill="#FFFFFF" d="M370.967,290.444h2.956v-18.631h-2.956V290.444"/>
	<path id="XMLID_25_" fill="#FFFFFF" d="M387.18,290.981c3.493,0,5.643-1.612,7.435-3.493l-1.881-1.612
		c-1.612,1.612-3.225,2.687-5.643,2.687c-4.031,0-6.897-3.225-6.897-7.166c0-4.031,2.956-7.166,6.628-7.166
		c2.418,0,4.299,1.344,5.643,2.956l1.881-1.881c-1.612-1.881-4.031-3.225-7.435-3.225c-5.374,0-9.584,4.568-9.584,9.584
		C377.596,286.413,381.895,290.981,387.18,290.981"/>
	<path id="XMLID_24_" fill="#FFFFFF" d="M404.288,290.712c1.344,0,2.418-0.269,3.493-0.806v-2.418
		c-1.075,0.537-1.881,0.537-2.687,0.537c-1.881,0-3.225-0.806-3.225-3.225v-10.928h5.912v-2.418h-5.912v-5.554h-2.687v5.643h-2.687
		v2.418h2.687v11.197C398.914,289.369,401.064,290.712,404.288,290.712"/>
	<path id="XMLID_23_" fill="#FFFFFF" d="M411.185,267.782h3.225v-3.225h-3.225V267.782"/>
	<path id="XMLID_22_" fill="#FFFFFF" d="M411.185,290.444h2.956v-18.631h-2.956V290.444"/>
	<path fill="#FFFFFF" d="M437.341,281.128c0-5.374-4.031-9.584-9.584-9.584c-5.554,0-9.584,4.568-9.584,9.584
		c0,5.374,4.031,9.584,9.584,9.584C433.131,290.981,437.341,286.413,437.341,281.128 M434.385,281.128
		c0,4.031-2.956,7.166-6.897,7.166c-4.031,0-6.897-3.225-6.897-7.166c0-4.031,2.687-7.166,6.897-7.166
		C431.519,273.873,434.385,277.097,434.385,281.128"/>
	<path id="XMLID_19_" fill="#FFFFFF" d="M440.834,290.444h2.687v-10.659c0-3.493,2.418-5.912,5.643-5.912
		c3.225,0,5.106,2.15,5.106,5.643v10.928h2.687v-11.465c0-4.568-2.687-7.435-7.166-7.435c-3.225,0-5.106,1.612-6.36,3.762v-3.225
		h-2.687v18.362H440.834"/>
	<path fill="#FFFFFF" d="M476.574,290.444v-11.465c0-2.418-0.537-4.299-1.881-5.643s-3.493-2.15-6.091-2.15
		s-4.837,0.537-6.628,1.612l0.806,2.418c1.612-0.806,3.493-1.344,5.643-1.344c3.493,0,5.643,1.612,5.643,5.106v0.537
		c-1.612-0.537-3.225-0.806-5.643-0.806c-4.837,0-7.972,2.15-7.972,6.091c0,3.762,3.493,5.912,6.897,5.912
		c3.225,0,5.374-1.612,6.628-3.225v2.687h2.687L476.574,290.444 M473.887,283.457c0,2.956-2.687,5.106-6.091,5.106
		c-2.418,0-4.837-1.344-4.837-3.762c0-2.15,1.881-3.762,5.374-3.762c2.15,0,4.031,0.269,5.374,0.806v1.612L473.887,283.457"/>
	<path id="XMLID_16_" fill="#FFFFFF" d="M481.142,290.444h2.687v-7.524c0-5.643,3.225-8.509,7.435-8.509h0.269v-2.956
		c-3.493-0.269-6.091,2.15-7.435,5.106v-4.837h-2.687v18.631h-0.269"/>
	<path id="XMLID_15_" fill="#FFFFFF" d="M494.13,267.782h3.225v-3.225h-3.225V267.782"/>
	<path id="XMLID_14_" fill="#FFFFFF" d="M494.399,290.444h2.687v-18.631h-2.687V290.444"/>
	<path fill="#FFFFFF" d="M518.673,281.397c0-5.643-3.225-9.853-8.778-9.853c-5.106,0-8.778,4.299-8.778,9.584
		c0,5.912,4.299,9.584,9.316,9.584c3.493,0,5.912-1.344,7.703-3.493l-1.612-1.612c-1.612,1.612-3.225,2.687-5.912,2.687
		c-3.225,0-6.091-2.418-6.628-6.091h14.69C518.673,281.934,518.673,281.666,518.673,281.397 M515.807,280.053h-12.003
		c0.269-3.493,2.956-6.091,6.091-6.091C513.657,273.604,515.538,276.56,515.807,280.053"/>
	<path id="XMLID_11_" fill="#FFFFFF" d="M528.347,290.712c3.762,0,6.628-2.15,6.628-5.643s-3.225-4.568-5.912-5.374
		c-2.418-0.806-4.837-1.344-4.837-3.225c0-1.612,1.344-2.687,3.493-2.687c1.881,0,3.762,0.806,5.643,1.881l1.344-2.15
		c-1.881-1.344-4.568-2.15-6.628-2.15c-3.762,0-6.36,2.15-6.36,5.374c0,3.493,3.225,4.568,6.091,5.374
		c2.418,0.806,4.568,1.344,4.568,3.225s-1.612,2.956-3.762,2.956s-4.568-0.806-6.36-2.418l-1.344,1.881
		C522.704,289.638,525.66,290.712,528.347,290.712"/>
	<path fill="#FFFFFF" d="M334.959,273.335c0-0.269-0.269-0.269-0.269-0.537c-0.537-1.075-1.612-1.612-2.956-1.612
		c-0.537,0-1.075,0.269-1.612,0.269c-1.075,0.269-2.15,0.537-2.956,1.075c-1.344,0.806-2.687,1.612-4.031,2.687
		c-0.806,0.806-1.881,1.612-2.687,2.687c-0.537,0.806-1.344,1.612-1.881,2.418c-0.806,1.075-1.344,2.418-1.881,3.762
		c-0.269,0.537-0.269,0.806-0.269,1.344s-0.269,1.075-0.269,1.612c0,1.075,0.269,1.881,0.806,2.687
		c0.269,0.269,0.537,0.269,0.806,0.537c0.806,0.269,1.612,0.269,2.15-0.269c0.537-0.269,1.075-0.806,1.881-1.075
		c1.612-1.075,2.956-2.687,4.299-4.031c0.537-0.806,1.075-1.344,1.881-2.15c0.269-0.269,0.269-0.269,0.537-0.537
		c0.269-0.269,0.269,0,0.269,0.269v0.269c0,0.269,0,0.537-0.269,0.806c-0.269,1.075-0.537,2.15-0.806,2.956
		c-0.537,1.612-0.806,3.493-1.344,5.106c-0.269,0.806-0.269,1.612-0.537,2.15c-0.269,0.806-0.537,1.881-1.075,2.687
		c-0.269,0.806-0.537,1.612-1.075,2.15c-0.537,1.075-1.344,2.15-1.881,3.225c-0.806,1.075-1.881,2.15-3.225,2.956
		c-0.806,0.537-1.881,1.075-2.956,1.075s-1.881,0-2.687-0.537c-0.269-0.269-0.537-0.537-0.806-0.806s-0.537-0.537-1.075-0.806
		c-0.269,0-0.537,0-0.806,0c-0.537,0.269-1.075,0.269-1.344,0.806c-0.269,0.269-0.537,0.537-0.806,0.806s-0.269,0.537,0,0.806
		c0,0.269,0.269,0.537,0.537,0.537c0.537,0.537,1.075,0.806,1.881,0.806s1.344,0,2.15,0.269c0.537,0,1.075,0.269,1.612,0.269
		c0.806,0,1.612,0,2.15-0.269c0.806-0.269,1.612-0.537,2.418-0.806c1.612-0.806,3.225-1.881,4.568-3.225
		c1.881-1.881,3.225-4.031,4.031-6.36c0.806-2.15,1.612-4.568,2.15-6.628c0.269-1.612,0.806-3.225,1.075-4.568
		c0.537-2.15,1.075-4.031,1.612-6.091c0.269-0.537,0.269-1.075,0.537-1.881c0-0.269,0.269-0.806,0-1.075c0-0.269,0-0.269,0-0.269
		c0.269,0,0.269-0.269,0.537-0.269c0.537-0.537,1.075-1.075,1.344-1.612S334.959,273.873,334.959,273.335 M332.272,276.291
		c-0.269,0.269-0.537,0.537-0.806,0.537c-0.806,0-1.075,0.537-1.612,1.075c-0.537,0.537-0.806,1.344-1.344,1.881
		c-0.537,0.806-1.075,1.344-1.612,2.15c-0.269,0.269-0.806,0.806-1.075,1.075c-0.806,1.075-1.881,1.881-2.956,2.956
		c-0.537,0.537-1.344,0.806-1.881,1.344c-0.269,0-0.537,0.269-0.806,0.269c-0.537,0-0.806-0.269-0.806-0.806
		c0-0.269,0-0.269,0-0.269c0-0.806,0-1.344,0.269-1.881c0.806-2.15,1.612-3.762,2.956-5.643c0.537-0.806,1.344-1.612,2.15-2.15
		c0.806-0.806,1.881-1.344,2.687-1.881c0.537-0.269,1.344-0.537,1.881-0.806c0.806-0.269,1.612,0,2.418,0.537
		C332.54,274.948,332.809,275.485,332.272,276.291"/>
	<path id="XMLID_8_" fill="#FFFFFF" d="M309.878,290.712c-1.075-0.269-1.881-0.806-2.15-1.881c-0.269-0.806-0.537-1.344-0.537-2.15
		c0-1.075,0-1.881,0.269-2.956c0.269-1.075,0.537-1.881,0.806-2.956c0.269-1.075,0.537-1.881,1.075-2.956
		c0-0.269,0.269-0.806,0.269-1.075c0-0.269,0-0.269,0-0.537c0,0,0-0.269-0.269-0.269h-0.269c-0.537,0.269-1.075,0.537-1.612,1.075
		c-1.344,1.344-2.687,2.418-3.762,4.031c-1.075,1.075-1.881,2.418-2.687,3.762s-1.612,2.687-2.418,4.031
		c-0.269,0.537-0.537,0.806-0.806,1.344c0,0.269-0.269,0.269-0.537,0.537c-0.269,0.269-0.537,0.269-0.806,0
		s-0.537-0.269-0.537-0.537s0-0.269,0-0.537c0-0.537,0-0.806,0-1.344c0.269-1.612,0.806-3.225,1.075-4.568
		c0.269-1.075,0.537-2.15,0.806-2.956c0.269-1.075,0.537-2.15,0.806-2.956s0.537-1.881,0.806-2.687
		c0.269-0.806,0.806-1.612,1.344-2.418c0.269-0.269,0.269-0.269,0.537-0.537c0.269-0.269,0.806-0.269,1.075-0.269
		s0.269,0,0.537,0.269c0.537,0.269,0.806,0.806,0.806,1.344c0,0.269,0,0.269,0,0.537s0,0.269-0.269,0.537c0,0,0,0-0.269,0
		s-0.537,0.269-0.806,0.537c-0.269,0.537-0.806,1.075-0.806,1.612c-0.269,0.806-0.537,1.612-0.806,2.418
		c-0.269,1.075-0.537,1.881-0.806,2.956v0.269v0.269h0.269l0.269-0.269c1.075-1.344,2.15-2.687,3.493-3.762
		c1.075-1.075,2.15-2.15,3.225-3.225c0.806-0.806,1.612-1.344,2.418-1.881c0.269-0.269,0.806-0.269,1.075-0.537
		c0.269,0,0.537-0.269,0.806-0.269s0.269-0.269,0.537-0.537c0-0.269,0.269-0.269,0.537-0.537c0.269-0.537,0.806-0.269,1.075,0
		s0.537,0.537,0.806,0.806s0,0.806,0,1.075c-0.269,0.537-0.269,0.806-0.537,1.075c-0.269,0.269-0.269,0.537-0.537,0.537
		c-0.537,0.806-0.806,1.612-1.344,2.418c-0.269,0.806-0.806,1.612-1.075,2.15c-0.537,1.075-1.075,2.418-1.344,3.762
		c-0.269,0.806-0.269,1.612-0.269,2.418c0,0.537,0,1.075,0.269,1.344c0.269,0.537,0.806,0.806,1.344,1.075
		c0.537,0,1.075,0,1.612-0.269c0.269,0,0.537-0.269,0.537-0.269c0.537-0.269,0.806-0.537,1.344-0.806
		c0.269-0.269,0.537,0,0.537,0.269C315.163,287.757,312.028,290.981,309.878,290.712"/>
	<path id="XMLID_7_" fill="#FFFFFF" d="M229.083,287.219c0-0.537,0-1.344,0.269-1.881c0.269-1.344,0.537-2.687,1.075-4.031
		c0.537-1.881,1.075-3.762,1.881-5.374c0.537-1.344,1.075-2.687,1.612-4.031c0.537-1.612,1.344-3.225,1.881-4.837
		c0.537-1.344,1.344-2.956,1.881-4.299c0.269-0.537,0.806-1.344,1.075-1.881c0.269-0.269,0.269-0.269,0.537-0.537
		c0.269-0.269,0.537-0.269,0.806,0c0,0,0.269,0,0.269,0.269c0.537,0.537,0.806,1.344,0.537,2.15c0,0.269-0.269,0.806-0.537,1.075
		c-0.537,1.075-1.075,2.15-1.612,3.225s-1.075,2.418-1.612,3.762c-0.806,1.612-1.344,3.225-2.15,4.837
		c-0.537,1.612-1.344,3.493-1.881,5.106c-0.269,1.075-0.537,2.15-0.806,2.956c-0.269,0.537-0.269,1.344-0.269,1.881s0,0.806,0,1.344
		v0.269c0,0.269,0.537,0.537,0.806,0.537c0.269,0,0.806-0.269,1.075-0.269c1.075-0.269,2.15-0.806,3.225-1.344
		c1.612-0.806,3.225-1.344,4.568-2.15c1.075-0.537,2.15-1.075,3.225-1.881c0.806-0.537,1.881-1.075,2.687-1.881
		c0.269-0.269,0.537-0.537,0.537-0.537l0.269-0.269c0.269-0.269,0.537,0,0.537,0.269s0,0.806-0.269,1.075
		c-0.269,0.269-0.537,0.806-0.806,1.075c-0.537,0.537-1.075,1.075-1.881,1.612c-2.15,1.612-4.568,2.956-6.897,4.299
		c-1.075,0.537-2.15,1.075-3.225,1.612c-1.344,0.537-2.418,1.075-3.762,1.344c-0.537,0.269-1.075,0.269-1.881,0.269
		c-0.537,0-0.806-0.269-1.075-0.537s-0.537-0.806-0.537-1.075C229.083,288.563,229.083,288.025,229.083,287.219"/>
	<path id="XMLID_6_" fill="#FFFFFF" d="M269.302,274.141c0,0.269,0,0.537,0,0.806c0,0.537,0,1.075-0.269,1.344
		s-0.269,0.537-0.537,0.806c-0.537,0.806-1.075,1.881-1.344,2.956c-0.537,1.075-0.806,2.418-0.806,3.762
		c0,0.537-0.269,1.344-0.269,1.881c0,0.269,0,0.806,0,1.344c0,0.269,0,0.537,0.269,0.537c0,0.269,0.269,0.269,0.537,0.269
		s0.269,0,0.537-0.269c0.806-0.269,1.612-0.806,2.418-1.075c0.537-0.269,0.806-0.537,1.344-0.806
		c0.537-0.537,1.344-1.075,1.881-1.612c1.075-1.075,2.418-2.15,3.225-3.225c0.537-0.806,1.075-1.344,1.612-2.418
		c0.269-0.269,0.269-0.537,0.537-0.806c0,0,0,0,0-0.269s0-0.537-0.269-0.806c-0.269-0.537-0.537-0.806-0.806-1.344
		c0-0.269,0-0.537,0-0.806s0-0.269,0-0.537c0.269-0.537,0.806-1.075,1.344-1.612c0.269-0.269,0.537-0.269,0.806-0.269
		s0.537,0,0.806,0.269s0.269,0.537,0.537,0.806c0.269,0.537,0.269,0.806,0.269,1.344v0.269c0,0.269,0.269,0.537,0.537,0.806
		c0,0,0.269,0,0.269,0.269c0.269,0,0.537,0.269,0.806,0.269c0.269,0,0.269,0,0.537,0c0.269,0,0.537,0.269,1.075,0.269
		c0.269,0,0.269,0.269,0.269,0.269c0,0.269-0.806,1.344-2.418,1.344c-0.269,0-0.537,0-0.806,0c-0.269,0-0.269,0-0.537,0.269
		c0,0,0,0.269-0.269,0.269c-0.269,0.537-0.537,1.075-0.806,1.612c-0.269,0.537-0.806,1.344-1.344,1.881
		c-1.344,1.612-2.687,2.956-4.299,4.299c-0.806,0.806-1.881,1.344-2.687,1.881c-1.344,0.806-2.687,1.612-4.031,2.418
		c-0.269,0.269-0.806,0.269-1.075,0.537c-0.269,0-0.537,0.269-0.806,0.269c-0.269,0-0.537,0-0.806-0.269
		c-0.269-0.269-0.537-0.806-0.537-1.075c-0.269-0.806-0.269-1.612-0.269-2.687c0-0.806,0-1.881,0.269-2.687
		c0-0.269,0-0.537,0.269-1.075c0-0.537,0.269-1.075,0.269-1.612c0-0.537,0.269-1.075,0.269-1.344
		c0.269-0.537,0.269-1.075,0.537-1.612c0,0,0.269-0.269,0-0.537l-0.269-0.269c-0.269-0.269-0.269-0.269-0.269-0.537
		c0-0.269,0-0.537,0.269-0.806c0.269-1.075,0.806-2.15,1.612-2.956c0.269-0.269,0.537-0.806,1.075-1.075
		c0.269-0.269,0.537-0.269,0.806-0.269s0.537,0,0.806,0.269s0.269,0.806,0.269,1.075
		C269.302,273.604,269.302,273.873,269.302,274.141"/>
	<path id="XMLID_5_" fill="#FFFFFF" d="M259.449,287.757c-0.269,0.269-1.344,1.344-3.762,2.687
		c-0.537,0.269-1.075,0.537-1.612,0.537c-0.269,0-0.537,0-0.806,0c-0.269,0-0.537-0.269-0.806-0.537
		c-0.806-0.537-1.075-1.344-1.344-2.418c0-0.537,0-1.075,0-1.612c0-0.269,0.269-0.806,0.269-1.075
		c0.537-1.344,0.806-2.418,1.344-3.762c0.269-0.806,0.537-1.344,0.806-2.15v-0.269c0-0.269,0.269-0.806,0-1.075
		c-0.269-0.537,0-1.075,0.269-1.612c0.269-0.537,0.537-1.075,0.806-1.612c0.537-0.806,1.075-1.612,1.881-2.418
		c0.269-0.269,0.537-0.537,1.075-0.806c0.269,0,0.269-0.269,0.537-0.269c0.269-0.269,0.806,0,1.075,0.269
		c0.269,0.269,0.537,0.806,0.537,1.075s0,0.537-0.269,0.806c-0.269,0.269-0.269,0.537-0.537,1.075
		c-0.806,1.344-1.612,2.956-2.15,4.299c-0.806,1.612-1.344,3.225-1.881,4.837c-0.269,0.537-0.537,1.344-0.537,1.881
		c0,0.269,0,0.537,0,0.806s0,0.269,0,0.537s0.269,0.537,0.806,0.537c0.269,0,0.537,0,0.806,0c0.537,0,1.075-0.269,1.344-0.537
		c0.537-0.269,1.075-0.537,1.612-0.806s1.075-0.537,1.612-0.537h0.269C260.792,286.144,259.449,287.488,259.449,287.757"/>
	<path id="XMLID_4_" fill="#FFFFFF" d="M293.307,285.069c0.537,0,0,1.075,0,1.344c-0.269,0.537-1.612,2.15-4.299,3.762
		c-0.537,0.269-1.075,0.537-1.881,0.537c-1.075,0-1.612-0.269-2.15-1.075c-0.269-0.537-0.537-1.075-0.537-1.612
		c0-0.806,0-1.612,0.269-2.418c0.269-1.075,0.806-2.418,1.075-3.493s0.537-1.881,1.075-2.956c0.269-0.537,0-1.881,0.269-2.687
		c0.269-1.075,1.612-2.418,1.881-2.687s0.269-0.269,0.537-0.537c0.269-0.269,0.537-0.537,0.806-0.537l0.269-0.269
		c0.269-0.269,0.537-0.537,0.806-0.806s0.269-0.269,0.537-0.269c0.269,0,0.269,0,0.269,0.269c0.269,0.269,0.537,0.537,0.537,1.075
		c0,0.269,0,0.806-0.269,1.075c0,0.269-0.269,0.537-0.269,0.806c-0.806,1.344-1.612,2.956-2.15,4.568
		c-0.806,1.612-1.344,3.225-1.881,4.837c-0.269,0.806-0.537,1.612-0.537,2.418c0,0.269,0,0.806,0,1.075c0,0.269,0,0.269,0,0.537
		s0.269,0.537,0.806,0.537c0.269,0,0.537,0,0.806-0.269c0.537-0.269,1.344-0.537,1.881-1.075c0.806-0.537,1.344-1.075,1.881-1.612
		C293.038,285.338,293.038,285.069,293.307,285.069"/>
	<path id="XMLID_3_" fill="#FFFFFF" d="M257.836,264.02c0.269,0,0.537,0,0.806,0.269c0.537,0.269,0.806,0.537,0.806,1.344v0.269
		c-0.269,1.075-0.269,2.418-0.269,3.493c0,0.269,0,0.269,0,0.537c0,0.269-0.269,0.537-0.537,0.537c-0.537,0-0.806-0.269-1.075-0.537
		c-0.537-0.269-0.806-0.806-0.806-1.612c-0.269-0.537-0.269-1.344-0.269-2.15c0-0.537,0-0.806,0.269-1.344
		c0.269-0.537,0.537-0.537,0.806-0.806C257.568,264.02,257.568,264.02,257.836,264.02"/>
	<path id="XMLID_2_" fill="#FFFFFF" d="M292.501,268.588c0,0.269,0,0.537,0,0.806s0,0.269,0,0.537s-0.269,0.269-0.269,0.269
		c-0.269,0-0.269,0-0.537,0c-0.806-0.269-1.344-0.806-1.612-1.612c-0.269-0.269-0.269-0.806-0.269-1.344c0-0.806,0-1.344,0-2.15
		c0-0.269,0-0.269,0.269-0.537c0.269-0.269,0.537-0.537,0.806-0.537s0.806,0,1.075,0c0.537,0.269,0.806,0.537,0.806,1.344
		c0,0.269,0,0.269,0,0.537c0,0.269,0,0.269,0,0.537C292.501,266.976,292.501,267.782,292.501,268.588"/>
</g>
</svg>
