<?xml version="1.0" encoding="utf-8"?>
<!-- Generator: Adobe Illustrator 19.0.0, SVG Export Plug-In . SVG Version: 6.00 Build 0)  -->
<svg version="1.1" id="Layer_1" xmlns="http://www.w3.org/2000/svg" xmlns:xlink="http://www.w3.org/1999/xlink" x="0px" y="0px"
	 viewBox="0 0 640 360" enable-background="new 0 0 640 360" xml:space="preserve">
<rect fill="#17556C" width="640" height="360"/>
<g>
	<path id="XMLID_7_" fill="#FFFFFF" d="M416.072,171.333c0-2.134,0.449-4.718-1.011-6.516c-0.449-1.123-0.449-1.91-1.123-3.145
		l-0.674-1.011c-2.134-3.37-3.595-5.055-6.628-7.639l-6.516-4.044c-0.674-0.449-1.011-0.449-1.685-1.011l-3.37-1.46
		c-2.134-1.123-11.458-2.584-14.267-2.134c-2.584,0.225-5.055,1.011-7.639,1.685c-1.46,0.449-0.674,0.225-1.685,0.674
		c-0.674,0.225-1.46,0.225-1.91,0.449c-1.46,0.674,0.225,0.449-1.685,1.011l-4.269,2.134c-0.225,0-0.225,0-0.225,0l-1.46,1.123
		c-0.674,1.011-1.46,2.584-2.921,1.91c0-0.225-1.123-1.011-1.123-1.123c-0.225,0-0.225,0-0.225-0.225L356.533,151
		c-1.123-0.449-0.449-0.225-1.123-1.011c-1.011-0.674-3.37-1.46-4.269-1.91c-1.123-0.449-0.674-1.011-2.134-1.123
		c-3.819-0.674-4.044-1.91-12.357-2.134l-7.19,0.449c-4.269,0.449-3.37,0.674-5.168,1.685c-0.674,0.225-1.46,0-2.134,0.225
		c-1.123,0.449-0.225,0.225-1.46,1.011c-1.685,1.123-3.819,1.91-5.505,3.145l-2.921,2.471c-2.584,2.584-1.91,2.134-3.595,4.044
		l-1.46,2.134c-0.674,0.674-0.674,1.123-1.123,2.471c-0.225,0.674-0.449,0.449-0.674,1.685c-0.225,0.674-0.225,1.123-0.225,1.91
		c-0.225,0.674-0.449,1.123-0.674,2.134c-0.449,3.145,0,45.384,0,49.878c0,2.471-0.225,4.493,0.674,6.628
		c0.449,1.46,1.011,1.685,2.471,2.471c0.449,0.225,0.674,0.449,1.685,0.449c2.921,0.225,6.179,0.449,8.313-1.46
		c0.449-0.449,0.225-0.225,0.449-0.674l0.225-0.225l0.449-0.449c0.449-0.674,0.449-0.674,0.674-1.46
		c0.674-2.134,0.225-6.628,0.225-9.324c0-12.694,0-25.388,0-37.97c0-1.91,0-7.414,1.011-8.65l0.449-0.449
		c0.225,0,0.225-0.225,0.225-0.225c1.123-1.685,1.685-3.37,3.37-4.494l6.179-3.37c1.011-0.449,8.088-0.449,9.099-0.225l4.044,1.91
		c1.123,1.011,1.46,0.449,3.145,1.91c3.37,2.921,3.145,3.37,4.044,6.516c0.449,1.123,0.449,0.674,1.011,1.46
		c0.449,1.685,0,37.97,0,42.913c0,3.145-1.011,8.762,1.011,11.234l1.91,1.91c0,0,0,0,0.225,0c3.37,2.471,11.009,1.685,12.245-2.921
		c0.449-2.471,0.225-49.204,0.225-52.349c0-1.91,1.46-5.055,2.921-6.628l0,0c0.225,0,0.225-0.225,0.225-0.225l2.584-2.584h0.225
		c0.225-0.449,0-0.225,0.674-0.449c0.225-0.225,0.449-0.225,0.674-0.449l0,0c0.225,0,0.225-0.225,0.225-0.225
		c4.044-1.91,13.144-1.685,16.963,0.449c2.471,1.123,5.055,3.595,5.954,6.179c1.011,3.145,1.123,0.674,1.123,5.729v66.841
		c0,3.819-0.449,7.864,2.584,10.56l0.225,0.225c1.123,1.011,2.134,1.123,4.044,1.123c8.65,0,8.088-1.91,9.324-5.055
		c0.674-1.46,0.449-2.471,0.449-4.269v-28.646c0-6.516,0-12.694,0-19.097c0-3.595,0.449-2.584,1.011-3.819
		c0.674-1.011,1.011-2.134,1.91-3.145l1.123-1.123c0.674-1.011,0.225-0.449,1.011-1.123l2.471-1.46
		c0.674-0.674,1.46-0.674,2.584-1.011c0.674-0.225,0.674-0.449,1.46-0.674c3.145-1.011,7.864,0.225,10.784,1.123
		c1.685,0.449,0.225,0,1.46,0.674c1.123,0.674,1.685,0.674,2.921,1.91c1.011,1.011,1.46,1.123,2.134,2.584
		c2.134,3.145,1.685,2.134,2.921,6.516c0,0.449,0.225,1.123,0.225,2.134c0.449,14.155,0,30.781,0,45.16
		c0,2.134-0.449,5.055,1.011,6.516c1.685,1.685,2.134,2.471,4.718,2.471c1.46,0,3.37,0.225,4.718,0
		c1.46-0.449,0.449-0.449,1.46-1.011c1.011-0.449,0.674-0.225,1.685-1.011c0.674-0.674,1.685-1.685,1.91-2.921
		c0.225-2.584,0-42.464,0-47.743c0-1.685,0-3.145,0.225-4.493c0.225-0.674,1.011-2.921,1.123-3.595
		c0.674-1.46,1.46-2.134,2.471-3.37c1.123-1.123,1.46-0.674,2.471-1.46c0.674-0.449,0-0.449,1.46-1.123
		c1.011-0.449,0.449-0.225,1.46-0.674c1.011-0.674,7.639-2.134,10.223-1.123c3.819,1.46,1.91-0.225,5.168,1.91
		c3.819,2.134,4.718,3.595,6.965,7.414c1.011,2.134,0.449,6.179,0.449,9.099v43.25c0,2.584,0.225,1.46,1.011,3.595
		c0.225,1.123,0,1.123,0.674,1.91c1.46,1.123,2.921,1.685,5.055,1.91c2.584,0,5.729,0.225,7.864-1.685
		c1.011-0.674,1.011-1.91,1.46-2.921c0.674-1.123,0.449-3.145,0.449-4.718v-47.519c0-1.91-0.449-2.471-0.674-4.044
		c-1.123-4.044-1.91-6.179-4.493-9.773c-1.011-1.46-2.584-2.471-3.595-3.819c-0.674-1.011,0-0.449-1.123-1.011l-4.269-3.145
		c0,0,0,0-0.225,0l-0.225-0.225v-0.225c-0.674-0.449,0,0-0.674-0.449c-0.674-0.225-1.011-0.225-1.685-1.011
		c-1.011-0.674-2.471-0.674-3.595-1.011c-0.674-0.449-1.011-0.674-1.46-0.674c-1.123-0.225-1.123,0-2.134-0.449l-0.674-0.225
		c-0.449-0.225-0.674-0.225-1.011-0.225c-4.044-0.225-8.762-1.011-12.919,0.225c-1.011,0.225-3.145,0.225-3.819,0.674
		c-2.134,1.46-2.471,0.449-3.595,1.123c-1.011,0.449-0.225,0.449-1.46,1.123c-0.674,0.225-1.011,0.225-1.685,0.674l-4.044,2.921
		c-0.225,0.225-0.225,0.225-0.449,0.449l0,0l-1.91,1.123c-1.011,0.225-1.91-1.011-2.584-1.685l-1.011-0.449
		c-2.134-1.123-2.471-2.134-4.269-2.921c-2.134-0.674-1.46-1.123-3.145-1.46c-1.91-0.449-2.134-1.123-3.595-1.46
		c-2.921-0.449-5.729-0.225-8.762-0.674c-3.819-0.674-7.414,0.449-11.009,0.674C419.442,169.761,418.655,171.333,416.072,171.333z"
		/>
	<path id="XMLID_6_" fill="#FFFFFF" d="M271.268,169.761c-2.584-0.449-1.685-0.449-3.595-1.46c-0.449-0.225-0.674-0.225-1.46-0.449
		c-3.145-1.011-0.449-0.449-5.505-1.46c-2.134-0.225-1.685-0.674-3.595-1.011c-2.921-0.449-5.954,0.225-8.65-0.225
		c-4.269-0.449-5.055-1.011-8.313-2.584c-1.91-1.011-3.37-2.921-5.055-4.044l-0.674-0.674c-0.449-0.674-0.449-1.685-0.674-2.471
		c-0.449-1.123-0.225-0.449-0.674-1.685c-1.011-4.044-0.449-12.919-0.449-17.188c0-15.053-1.46-13.144,4.718-13.144
		c5.505,0,40.666,0.225,42.014-0.225c2.584-1.011,2.921-0.225,5.055-1.91c1.123-1.011,1.685-1.011,2.134-2.471
		c0.225-1.011,0.225-2.921,0.225-4.269c-0.225-1.685-0.449-2.471-1.123-3.37c-1.123-1.685-0.674-1.123-2.921-1.91l-3.595-1.011
		c-4.269-0.449-46.508,0-53.248,0c-3.819,0-4.718,0.225-7.639,1.46c-1.123,0.449-1.011,0.449-1.91,1.46l-0.337,0.786
		c-0.674,1.123-1.123,1.46-1.46,3.145c0,3.819-0.225,38.195,0.225,40.105c0.225,0.449,0.449,1.011,0.674,1.46
		c0.225,1.011,0,1.011,0.449,1.91c0.225,0.449,0.225,0.674,0.449,1.46c0.449,1.011,0.449,0.674,0.674,1.685l1.011,1.46
		c1.123,1.685,1.91,3.595,3.37,5.168c0.449,0.449,0.225,0,0.674,0.449c1.685,1.91,1.46,1.123,3.145,2.584
		c0.449,0.449,0.225,0.225,0.449,0.449c0,0,0,0.225,0.225,0.225l1.123,0.674c0.449,0.449,0,0.225,0.449,0.449l5.954,3.145
		c1.011,0.225,1.011,0,1.91,0.449l1.46,0.674c1.46,0.225,2.134,0.225,3.37,1.011c5.168,1.91,11.908-0.449,19.322,2.921
		c2.584,1.123,6.179,3.819,7.414,6.179l1.46,3.145c0.449,1.685,0,28.646,0,31.005c0,5.729-0.225,2.584-1.011,5.954
		c-0.225,1.123-0.674,1.91-1.685,2.584c-1.46,1.011-2.134,2.471-3.595,3.145c-1.46,1.011-4.718,2.471-6.516,2.584
		c-2.471,0.449-5.729,0.225-8.65,0.225c-2.584-0.225-6.516-1.685-8.65-3.37l-2.921-2.921l0,0l-1.91-3.145
		c-0.449-1.123-0.674-1.91-1.123-3.37c-0.225-1.123,0-2.584-0.225-4.044c-0.225-1.91-3.37-3.819-4.718-4.044
		c-1.123-0.225-3.37,0-4.493,0c-0.674,0-1.685,0-2.471,0c-1.46,0-3.595,1.123-4.493,2.134l-1.011,1.123
		c-1.123,1.685-1.011,4.269-0.674,5.954c0,1.46,0.449,2.471,1.011,3.595c0.449,1.46,0.225,1.91,1.011,3.37
		c0.225,0.674,0.449,0.674,0.449,1.685c0.225,1.011,0,0.674,0.674,1.46l2.584,3.145c3.819,4.269,2.471,2.471,6.179,5.729
		c0,0,0.225,0,0.225,0.225l2.584,1.685c1.91,1.123,3.595,1.46,5.505,2.584l5.729,1.685c0.674,0.225,1.685,0.225,2.471,0.225
		c4.718,0,16.401,1.123,20.558-1.123c1.685-0.674,1.685-0.449,3.595-0.674c1.011-1.685,0-0.449,2.134-1.46
		c1.91-0.674,3.819-1.46,5.168-2.921c1.46-1.123,3.37-2.134,4.493-3.595c1.011-1.123,1.685-1.46,2.584-2.584
		c0.225-0.674,1.011-1.91,1.123-2.134c1.011-1.011,0.225,0.674,1.011-1.123c0.225-0.674-0.225-0.449,0.225-1.123l1.123-2.584
		c0.674-1.46,1.011-1.011,1.123-2.471c0.674-3.145,0.225-13.593,0.225-17.412c0-7.19,0.225-14.267,0-21.344
		c-0.225-2.584-0.674-1.123-1.123-2.921c0-0.225,0-1.011-0.225-1.46c-0.225-1.011,0-0.449-0.449-1.123
		c-1.123-1.685-0.449-1.685-1.91-3.37c-0.225-0.674-0.225-0.449-0.449-1.123c-0.674-1.123-1.011-1.123-1.685-1.91l-4.493-4.269
		c-0.225-0.449-0.449-0.449-1.011-0.674c-1.46-1.011-1.685-1.46-1.91-1.685C271.83,170.21,272.055,171.67,271.268,169.761z"/>
	<path id="XMLID_5_" fill="#FFFFFF" d="M156.01,123.815c3.145-0.225,4.718-1.123,6.179-1.123c1.685,0,3.819-0.225,5.168,0.225
		c1.011,0.225,0,0,1.123,0.449c1.011,0.225,2.471,0.225,3.37,0.449c1.123,0.225,0.674,0.674,2.471,1.123
		c1.123,0.449,3.145,1.91,4.044,2.921l1.685,1.91c1.011,1.011,2.134,3.819,2.471,5.055c0.225,2.471,0,14.829,0,17.749
		c0,1.685-1.123,4.044-1.91,5.505l-1.91,2.471c-1.685,1.91-3.819,3.145-6.179,3.819c-2.471,0.449-1.46,1.123-5.729,1.123
		c-8.65,0.225-5.505-1.011-9.324,1.685c-2.471,1.685-3.145,5.505-1.91,8.088c0.225,0.449,1.011,1.91,1.46,2.471
		c2.134,1.123,0.674-0.674,1.91,1.46c2.921,0.225,8.313,0,11.009,1.011c1.123,0.674,1.46,0.449,3.145,0.674
		c1.011,0.225-0.225,0,1.011,0.674c0.449,0.449,1.011,0.449,1.46,0.674l4.269,3.37c1.011,1.685,0.225,1.685,1.91,1.91
		c0,1.91,0.449,2.134,1.011,3.595c0.225,1.91,0,32.69,0,33.701c-0.449,1.685-2.471,5.729-3.819,6.628l-1.123,1.011
		c-4.269,3.145-2.921,1.46-5.168,3.145l-7.414,1.123c-5.505,0-6.179-0.225-11.009-2.471c-1.91-1.011-2.134-1.123-3.595-2.584
		c-1.011-1.011-2.134-2.134-2.471-3.595c-0.449-1.685-0.674-0.674-1.123-1.91c-1.011-1.91,0.449-4.044-1.46-7.414
		c-0.449-1.011-0.449-1.011-1.46-1.685c-3.595-2.134-0.674-1.91-6.965-1.91c-4.044,0-5.055-0.225-7.414,2.921l-0.449,0.449
		c-2.134,2.921-0.674,11.683,1.46,14.829c0.449,0.674,0.449,0.674,0.674,1.685c1.685,2.584,4.044,4.718,4.493,5.505
		c0.449,0.674,1.123,1.123,1.91,1.685l4.269,2.921c1.91,1.46,1.011,0.674,2.584,1.46c1.011,0.674-0.449,0.225,1.123,1.011
		l6.965,2.921c1.685,0.225,3.145-0.225,4.493,0.225c2.921,1.123,6.628,0.674,9.549,0.674l9.773-1.123
		c1.46-0.449,0.674-0.674,1.685-1.123c1.011-0.225,1.46-0.225,2.134-0.674l4.718-1.91c1.011-0.449,0.674-0.674,1.685-1.123
		l1.685-1.011c0.674-0.674,0-0.225,1.011-0.674c0.225,0,0.674-0.225,1.011-0.449c1.011-0.674,2.134-2.134,2.584-2.584l1.91-2.134
		c0.449-0.674,0.225-0.674,1.46-1.011l0.674-1.91c0.225-0.449,0.674-0.674,1.011-1.123l1.123-3.145
		c0.674-2.921,1.123-4.718,1.123-7.864v-28.983c0-2.471-0.225-2.584-0.449-4.269c-0.674-2.921-0.674-2.134-1.011-3.145
		c-0.674-3.595-1.46-3.145-2.471-5.505c-1.011-1.685-4.044-5.168-5.505-6.516c-0.674-0.449-1.685-1.011-2.471-1.685
		c0.225-1.123,1.46-1.46,2.134-2.134l3.819-4.269c0.449-0.449,0.449-0.449,1.011-1.011c1.46-1.685,2.921-4.493,3.595-6.628
		c0.449-2.471,1.123-3.819,1.123-6.628V137.07c0-3.819-1.011-4.269-1.46-6.628c0-0.674,0-0.674-0.225-1.46l-1.123-2.584
		c-1.685-3.595-2.134-2.921-2.584-3.819c-1.46-2.134-3.819-4.269-5.729-5.954l-6.628-4.044c-1.011-0.674-0.674-0.225-1.91-0.674
		c-1.46-0.449-0.225,0-1.685-1.011c-1.123-0.674-2.921-0.449-4.269-1.011c-1.685-0.449,0-0.449-2.134-0.449
		c-1.011-0.225-1.46,0-2.471-0.225c-3.145-0.674-13.368-0.674-15.727,0.449c-1.123,0.449-1.91,0.225-3.145,0.674
		c-1.685,0.449-0.449,1.011-4.044,1.123c-0.674,1.123-0.674,1.123-2.134,1.46c-2.134,0.674-1.123,0.674-3.819,2.471l-2.134,1.685
		c-1.685,1.011-5.729,5.055-6.965,6.628c-0.225,0.674-0.449,1.011-0.674,1.123c-1.123,2.134-1.123,1.011-1.91,3.819
		c-0.449,1.685-1.011,1.123-1.123,2.584c-0.449,4.718-1.685,11.458,4.269,12.694c1.46,0.225,0.449,0.225,1.46,0.449
		c2.471,1.46,9.099-0.225,10.56-1.91c0.449-0.449,1.685-2.584,1.685-3.37c0.449-1.91-0.449-5.055,1.011-6.628
		c0.225-0.449,0,0.225,0.449-0.674l1.685-2.134c0.225-0.225,0.225-0.225,0.225-0.225s0-0.225,0.225-0.225l0.225-0.449
		c1.123-1.011,2.584-2.134,4.269-2.921C155.336,125.05,155.336,124.826,156.01,123.815z"/>
	<path id="XMLID_4_" fill="#F26320" d="M429.889,131.678c-0.225,0.225-1.91,0.225-2.584,0.449c-2.471,1.011-5.055,2.921-6.179,5.055
		c-0.449,1.011-1.91,2.584-2.471,4.718c-0.225,1.011-0.449,6.628,0.225,8.313l1.123,2.584c1.46,2.584,1.011,1.91,2.471,3.145
		c0.449,0.674,1.123,1.46,1.91,1.91l1.91,1.46c0.674,0.449,2.134,0.449,3.145,0.674c1.685,0.674,4.718,0.674,6.965,0.225
		c1.91-0.225,4.044-1.123,5.505-2.471l3.37-3.145c2.921-3.145,3.819-11.234,1.685-15.053c-1.685-2.584,0.449-1.685-5.055-5.954
		l-1.91-1.123c-1.46-0.674-2.134-0.449-3.37-1.011c-1.46-0.449-0.674-0.449-3.37-0.449L429.889,131.678z"/>
	<path id="XMLID_3_" fill="#8BC53D" d="M335.076,108.537c-2.471-0.225-3.145-0.449-4.718,0.449c-0.674,0.449-0.674,0.449-1.46,0.674
		c-2.471,0.674-0.449,0.225-2.584,1.685l-0.449,0.449c-0.225,0.225-1.011,0.674-1.123,1.011c-0.449,0.674-0.225,0.449-0.449,1.011
		c-0.674,0.674-1.46,1.685-2.471,3.595c0,0.225,0,0-0.225,0.449c0,0.449,0,0.449,0,1.011c-0.225,2.134-0.449,6.179-0.225,8.65
		c0.449,1.91,3.595,7.19,5.055,7.639l5.055,2.471c1.91,0.449,8.65,0.674,10.223-0.449l4.493-3.595c0-0.225,0-0.225,0-0.225
		c1.011-1.011,2.921-3.145,3.145-4.269l0.449-2.134c1.011-1.46,0.674-1.123,0.674-4.044c0-3.595-0.225-3.37-1.46-5.954l-2.584-3.819
		c-1.46-1.685-2.921-2.584-4.718-3.37c-1.123-0.449-1.685-0.674-2.921-1.011C337.772,108.312,336.312,108.537,335.076,108.537z"/>
	<path id="XMLID_2_" fill="#FDC10E" d="M396.525,114.603c-2.134-0.449,0,0.449-2.584-1.91l-1.011-1.011v-0.225l-5.055-2.921
		c-1.46-0.449-7.864-0.449-9.549,0.225c-1.573,0.674-2.134,0.674-2.921,1.685c-1.46,1.46-1.011,0.449-3.145,2.921
		c-1.011,1.011-0.449,0.449-1.123,1.91l-2.134,4.044c-0.449,1.46-0.449,6.516,0.225,8.088c0.674,1.46,0.225,1.011,0.674,2.471
		c0.449,1.123,0.449,0.225,1.46,1.46c1.123,1.685,0,1.011,2.134,2.471c0.225,0.225,0,0,0.449,0.449l0.449,0.449h0.225
		c1.91,1.123,0.449,0.225,1.123,1.123c0.449,0.225,3.37,1.685,4.269,1.91c1.123,0,7.19,0.225,8.313-0.449
		c1.46-1.011-0.674-0.225,2.134-1.46l3.145-2.471c0.674-0.674,3.37-4.493,3.819-5.505c0.674-2.471,0.674-8.65-0.449-11.009
		C396.637,115.726,396.525,116.737,396.525,114.603z"/>
	<path id="XMLID_1_" fill="#00ACED" d="M465.725,138.643c-0.449,5.168-1.011,0.674-1.011,7.639c0,4.269-0.225,2.471,0.674,4.493
		c0.674,1.685-0.449,0,1.123,2.471c0.674,1.011,0.225,0.225,0.674,1.123c0.674,1.685,0,0.449,0.674,1.123l0.674,0.449
		c1.011,1.011,2.134,2.921,4.493,3.595c7.19,2.134,7.19,1.011,11.908,0c1.123-0.225,2.584-1.685,3.37-2.471l1.011-0.674
		c0.225-0.225,0.449-0.449,0.674-0.674c0.225-0.225,0.674-1.011,0.674-1.011c1.011-1.011,0.225,0.225,0.674-1.011
		c0.674-1.123-0.225-0.449,1.011-1.91c0-0.225,0.225-0.449,0.225-0.674c1.123-2.471,1.011-9.549,0-11.458
		c-2.584-5.055-2.471-2.921-5.055-5.505c-1.123-1.46-3.37-2.471-5.168-2.584c-1.685-0.225-3.819-0.674-5.729-0.225
		c-1.46,0.225-3.819,0.674-5.055,1.46c-2.921,1.91-3.145,1.91-4.493,4.269C466.96,138.194,466.736,138.194,465.725,138.643z"/>
</g>
</svg>
