<?xml version="1.0" encoding="utf-8"?>
<!-- Generator: Adobe Illustrator 19.0.0, SVG Export Plug-In . SVG Version: 6.00 Build 0)  -->
<svg version="1.1" id="Layer_1" xmlns="http://www.w3.org/2000/svg" xmlns:xlink="http://www.w3.org/1999/xlink" x="0px" y="0px"
	 viewBox="0 0 640 360" enable-background="new 0 0 640 360" xml:space="preserve">
<rect id="XMLID_13_" fill="#282828" stroke="#000000" stroke-miterlimit="10" width="640" height="360"/>
<path id="XMLID_12_" fill="#FF0000" d="M232.545,144.238c-1.702-6.382-6.737-11.417-13.142-13.142
	C207.822,128,161.353,128,161.353,128s-46.445,0-58.051,3.096c-6.382,1.702-11.417,6.737-13.142,13.142
	C87.063,155.82,87.063,180,87.063,180s0,24.18,3.096,35.762c1.702,6.382,6.737,11.415,13.142,13.142
	C114.907,232,161.353,232,161.353,232s46.469,0,58.051-3.096c6.382-1.702,11.417-6.737,13.142-13.142
	c3.096-11.582,3.096-35.762,3.096-35.762S235.643,155.82,232.545,144.238z"/>
<polygon id="XMLID_11_" fill="#FFFFFF" points="146.51,202.289 185.108,180 146.51,157.711 "/>
<path fill="#FFFFFF" d="M302.722,222.617c-2.931-1.985-5.034-5.058-6.264-9.242c-1.229-4.184-1.867-9.738-1.867-16.688v-9.455
	c0-7.02,0.71-12.645,2.128-16.9c1.418-4.255,3.64-7.35,6.642-9.29c3.002-1.937,6.949-2.93,11.842-2.93
	c4.822,0,8.674,0.993,11.582,2.978c2.908,1.985,5.034,5.082,6.382,9.29c1.347,4.207,2.009,9.833,2.009,16.828v9.455
	c0,6.949-0.661,12.527-1.962,16.734c-1.299,4.207-3.427,7.304-6.382,9.242c-2.931,1.937-6.925,2.93-11.961,2.93
	C309.718,225.595,305.652,224.602,302.722,222.617z M319.196,212.405c0.804-2.128,1.229-5.601,1.229-10.401v-20.304
	c0-4.68-0.401-8.084-1.229-10.258c-0.804-2.152-2.246-3.239-4.302-3.239c-1.985,0-3.379,1.087-4.207,3.239
	c-0.804,2.152-1.229,5.578-1.229,10.258v20.304c0,4.821,0.378,8.297,1.158,10.401c0.78,2.128,2.198,3.191,4.254,3.191
	C316.951,215.596,318.369,214.533,319.196,212.405z"/>
<path fill="#FFFFFF" d="M528.378,196.853v3.285c0,4.184,0.118,7.304,0.378,9.408c0.236,2.08,0.756,3.616,1.536,4.562
	c0.78,0.946,1.985,1.442,3.616,1.442c2.198,0,3.711-0.851,4.515-2.553c0.804-1.702,1.253-4.538,1.324-8.509l12.645,0.733
	c0.07,0.568,0.095,1.347,0.095,2.34c0,6.027-1.654,10.519-4.94,13.497c-3.285,2.978-7.942,4.467-13.968,4.467
	c-7.232,0-12.291-2.268-15.197-6.807c-2.908-4.538-4.35-11.534-4.35-21.036v-11.369c0-9.785,1.512-16.9,4.515-21.415
	c3.002-4.49,8.154-6.737,15.459-6.737c5.034,0,8.887,0.922,11.582,2.766c2.695,1.844,4.585,4.703,5.696,8.604
	c1.087,3.9,1.654,9.29,1.654,16.144v11.157h-24.557L528.378,196.853L528.378,196.853z M530.245,169.435
	c-0.733,0.922-1.229,2.435-1.49,4.515c-0.26,2.08-0.378,5.271-0.378,9.502v4.68h10.731v-4.68c0-4.184-0.142-7.35-0.425-9.502
	s-0.804-3.687-1.536-4.562c-0.733-0.874-1.891-1.324-3.451-1.324C532.136,168.04,530.978,168.513,530.245,169.435z"/>
<path id="XMLID_6_" fill="#FFFFFF" d="M267.03,195.623l-16.688-60.249h14.56l5.838,27.3c1.49,6.737,2.577,12.456,3.285,17.207h0.425
	c0.496-3.404,1.584-9.1,3.285-17.113l6.051-27.418h14.56l-16.876,60.273v28.907h-14.441L267.03,195.623L267.03,195.623
	L267.03,195.623z"/>
<path id="XMLID_5_" fill="#FFFFFF" d="M382.518,159.39v65.118h-11.463l-1.276-7.966h-0.307c-3.121,6.027-7.799,9.029-14.016,9.029
	c-4.325,0-7.516-1.418-9.573-4.254c-2.056-2.836-3.073-7.256-3.073-13.284V159.39h14.654v47.817c0,2.908,0.307,4.988,0.945,6.217
	s1.702,1.867,3.191,1.867c1.276,0,2.505-0.378,3.664-1.159c1.158-0.78,2.033-1.773,2.6-2.978v-51.764L382.518,159.39L382.518,159.39
	z"/>
<path id="XMLID_4_" fill="#FFFFFF" d="M457.73,159.39v65.118h-11.463l-1.276-7.966h-0.307c-3.121,6.027-7.8,9.029-14.016,9.029
	c-4.325,0-7.516-1.418-9.573-4.254c-2.056-2.836-3.073-7.256-3.073-13.284V159.39h14.654v47.817c0,2.908,0.307,4.988,0.945,6.217
	c0.638,1.229,1.702,1.867,3.191,1.867c1.276,0,2.505-0.378,3.664-1.159c1.159-0.78,2.033-1.773,2.6-2.978v-51.764L457.73,159.39
	L457.73,159.39z"/>
<path id="XMLID_3_" fill="#FFFFFF" d="M422.369,147.169h-14.56v77.339h-14.348v-77.339h-14.56v-11.795h43.443v11.795H422.369
	L422.369,147.169z"/>
<path fill="#FFFFFF" d="M506.255,169.812c-0.898-4.113-2.317-7.091-4.302-8.935c-1.985-1.844-4.703-2.766-8.179-2.766
	c-2.695,0-5.2,0.756-7.54,2.292c-2.34,1.512-4.137,3.522-5.413,6.004h-0.118v-34.32h-14.135v92.441h12.101l1.49-6.169h0.307
	c1.135,2.198,2.836,3.923,5.106,5.2s4.775,1.915,7.54,1.915c4.963,0,8.604-2.292,10.944-6.855c2.34-4.562,3.498-11.7,3.498-21.415
	V186.9C507.578,179.622,507.129,173.926,506.255,169.812z M492.806,196.38c0,4.751-0.188,8.462-0.591,11.157
	c-0.378,2.695-1.041,4.609-1.962,5.744c-0.922,1.135-2.15,1.702-3.711,1.702c-1.206,0-2.317-0.283-3.357-0.851
	c-1.016-0.568-1.867-1.418-2.505-2.553v-36.991c0.497-1.773,1.347-3.214,2.553-4.35c1.206-1.135,2.505-1.702,3.923-1.702
	c1.49,0,2.647,0.591,3.451,1.749c0.804,1.158,1.371,3.143,1.702,5.886c0.307,2.766,0.473,6.689,0.473,11.795v8.415L492.806,196.38
	L492.806,196.38z"/>
</svg>
