<?xml version="1.0" encoding="utf-8"?>
<!-- Generator: Adobe Illustrator 19.0.0, SVG Export Plug-In . SVG Version: 6.00 Build 0)  -->
<svg version="1.1" id="Layer_1" xmlns="http://www.w3.org/2000/svg" xmlns:xlink="http://www.w3.org/1999/xlink" x="0px" y="0px"
	 viewBox="0 0 640 360" enable-background="new 0 0 640 360" xml:space="preserve">
<rect fill="#BF2E1A" width="640" height="360"/>
<g>
	<g>
		<path id="XMLID_10_" fill="#FFFFFF" d="M192.115,161.827c0,0,0.538-8.885-11.577-9.423h-11.577v20.731h9.827
			C178.923,173,192.115,173,192.115,161.827z"/>
		<path id="XMLID_9_" fill="#FFFFFF" d="M184.173,185.923h-15.077V208h15.077c0,0,15.077,0.808,15.077-11.577
			C199.25,196.423,199.923,185.923,184.173,185.923z"/>
		<path fill="#FFFFFF" d="M123.462,124v112h118.731V124L123.462,124L123.462,124z M214.462,197.635
			c0,22.75-27.192,22.75-27.192,22.75h-32.577v-80.365h28.269c25.577,2.288,23.827,21.538,23.827,21.538
			c0,11.712-10.365,16.288-10.365,16.288C214.731,181.885,214.462,197.635,214.462,197.635z"/>
	</g>
	<g>
		<path id="XMLID_6_" fill="#FFFFFF" d="M329.288,161.827c0,0,0.538-8.885-11.577-9.423h-11.577v20.731h9.827
			C316.096,173,329.288,173,329.288,161.827z"/>
		<path id="XMLID_5_" fill="#FFFFFF" d="M321.346,185.923h-15.077V208h15.077c0,0,15.077,0.808,15.077-11.577
			C336.423,196.423,336.827,185.923,321.346,185.923z"/>
		<path fill="#FFFFFF" d="M260.635,124v112h118.731V124L260.635,124L260.635,124z M351.096,197.635
			c0,22.75-27.058,22.75-27.058,22.75h-32.577v-80.365H320c25.577,2.288,23.827,21.538,23.827,21.538
			c0,11.712-10.365,16.288-10.365,16.288C351.904,181.885,351.096,197.635,351.096,197.635z"/>
	</g>
	<path fill="#FFFFFF" d="M397.808,124v112h118.731V124L397.808,124L397.808,124z M493.115,213.923c0,0-24.365,14.538-52.635,3.365
		c0,0-23.827-8.75-24.635-37.288c0,0-1.077-29.346,30.827-38.904c0,0,8.346-3.365,23.827-1.75c0,0,9.288,0.808,22.346,6.462v14.808
		c0,0-14.538-8.885-30.423-9.288c0,0-29.885-0.538-31.365,28.538c0,0-1.077,26.923,30.827,28.538c0,0,13.462,1.75,31.635-10.096
		L493.115,213.923L493.115,213.923z"/>
</g>
</svg>
