<?xml version="1.0" encoding="utf-8"?>
<!-- Generator: Adobe Illustrator 19.0.0, SVG Export Plug-In . SVG Version: 6.00 Build 0)  -->
<svg version="1.1" id="Layer_1" xmlns="http://www.w3.org/2000/svg" xmlns:xlink="http://www.w3.org/1999/xlink" x="0px" y="0px"
	 viewBox="0 0 640 360" enable-background="new 0 0 640 360" xml:space="preserve">
<rect id="XMLID_1_" fill="#231F20" stroke="#231F20" stroke-miterlimit="10" width="640" height="360"/>
<g id="XMLID_26_">
	<path id="XMLID_25_" fill-rule="evenodd" clip-rule="evenodd" fill="#231F20" d="M398.013,208.388
		c4.798,0.557,6.744-1.141,6.81-5.885c0.068-4.961-2.095-6.184-6.942-5.899c-0.281,1.098-0.191,8.135-0.16,10.24L398.013,208.388
		L398.013,208.388z"/>
	<path id="XMLID_24_" fill-rule="evenodd" clip-rule="evenodd" fill="#231F20" d="M573.735,144.965
		c4.862-0.096,7.066-0.891,7.063-5.995c-0.002-4.386-2.185-6.781-6.851-6.18L573.735,144.965L573.735,144.965z"/>
	<path id="XMLID_23_" fill-rule="evenodd" clip-rule="evenodd" fill="#231F20" d="M454.531,148.511l8.133,0.065
		c-0.152-0.665-2.911-11.173-3.555-12.077L454.531,148.511L454.531,148.511z"/>
	<path id="XMLID_22_" fill-rule="evenodd" clip-rule="evenodd" fill="#FDFDFD" d="M109.82,196.977l6.071,0.001
		c0.436,7.04,0.002,18.91,0.068,26.943c0.013,1.605-0.031,2.768-1.565,3.127c-1.154,0.27-3.166,0.087-4.432,0.115l-0.024,11.564
		l29.283,0.119l0.353-11.696c-2.51,0.025-3.075,0.389-4.915-0.754c0.818-3.238,12.897-11.186,16.925-13.429l0.165,14.158
		l-4.591,0.272c-0.506,3.66-0.229,7.628-0.141,11.327l28.725,0.088l0.194-11.427l-5.893-0.386l-0.034-29.802l5.828-0.37
		l0.037-11.279c-1.265-0.29-27.419-0.409-28.741-0.133l-0.336,11.563l4.899,0.002c-0.326,3.383-3.245,4.081-7.812,7.323
		c-1.938,1.376-6.724,5.249-9.255,5.984l0.003-12.588c2.208-1.056,2.177-0.768,4.888-0.72l-0.092-11.706l-29.209,0.026
		L109.82,196.977L109.82,196.977z"/>
	<path id="XMLID_21_" fill-rule="evenodd" clip-rule="evenodd" fill="#FDFDFD" d="M242.782,196.003
		c1.353,0.734,4.162,0.805,5.888,0.944l0.012,30.181l-5.748,0.028c-0.369,1.497-0.123,9.613-0.045,11.666l29.108,0.015
		c0.106-3.497,0.445-9.014-0.624-12.127c-2.03,0.115-0.903,0.88-2.841,0.871c-1.106-2.677-0.927-7.203-0.927-10.441
		c4.583,0,10.296-0.253,14.608-0.105l0.338,9.306l-4.914,0.805l0.018,11.541c0.994,0.295,27.14,0.35,29.104,0.069l0.339-11.602
		l-5.719-0.125l-0.016-29.824l5.676-0.282l-0.069-11.57l-29.09-0.061l-0.315,10.712l1.701,0.655
		c4.127,1.127,3.348,1.741,3.225,9.396l-14.854-0.016c-0.243-1.806-0.124-6.286-0.076-8.415c3.038-1.01,0.559-0.701,4.691-0.648
		l-0.077-11.685c-8.651-0.23-18.32,0.125-27.152-0.006c-2.287-0.034-2.035-0.241-2.06,2.044
		C242.931,190.191,242.721,193.16,242.782,196.003L242.782,196.003z"/>
	<path id="XMLID_20_" fill-rule="evenodd" clip-rule="evenodd" fill="#FDFDFD" d="M39.078,196.978H44.9l0.066,30.173h-5.779
		c-0.367,1.705-0.093,9.446-0.019,11.665c3.657,0.126,27.279,0.412,29.152-0.124c0.292-2.566,0.621-5.966,0.522-8.526
		c-0.189-4.855-3.394-1.545-5.022-4.082l0.026-28.926l14.931-0.206c0.082,4.536,0.448,27.447-0.128,30.184
		c-1.371,0.329-3.211,0.022-4.771,0.013l0.075,11.684h29.076l-0.98-11.24l-4.495-0.474l-0.088-30.142l5.89-0.001l-0.137-11.625
		l-63.754-0.055C39.091,186.563,39.032,195.171,39.078,196.978L39.078,196.978z"/>
	<path id="XMLID_19_" fill-rule="evenodd" clip-rule="evenodd" fill="#FDFDFD" d="M313.546,196.201l5.734,0.788l0.002,30.128
		l-5.7,0.041l0.075,11.62l52.871,0.061l0.348-22.017l-12.791,0.075l-0.003,10.255l-15.939-0.016l0.062-9.988
		c2.77-0.66,8.42,0.503,11.338-0.085l0.377-11.119l-11.777,0.184l0.004-9.135l15.323,0.012l0.072,8.985l12.541,0.293l0.137-20.819
		l-52.413-0.181L313.546,196.201L313.546,196.201z"/>
	<path fill-rule="evenodd" clip-rule="evenodd" fill="#FDFDFD" d="M207.914,196.346c7.077-1.213,9.947,7.26,10.174,13.844
		c0.244,7.088-1.606,15.152-7.886,16.17c-7.4,1.2-10.097-6.94-10.279-13.752C199.736,205.632,201.555,197.436,207.914,196.346
		L207.914,196.346z M205.857,184.121c-8.72,1.032-15.072,4.719-19.146,9.361c-4.203,4.789-7.227,13.091-6.163,21.772
		c1.89,15.41,14.421,26.427,32.013,24.536c9.052-0.973,15.221-4.287,19.275-9.104c9.937-11.808,7.87-32.435-3.396-40.946
		C222.682,185.388,214.926,183.047,205.857,184.121L205.857,184.121z"/>
	<path fill-rule="evenodd" clip-rule="evenodd" fill="#FDFDFD" d="M397.721,206.844c-0.031-2.105-0.122-9.142,0.16-10.24
		c4.846-0.285,7.01,0.938,6.942,5.899c-0.066,4.744-2.011,6.442-6.81,5.885L397.721,206.844L397.721,206.844z M373.891,185.573
		l-0.168,11.176l5.477,0.272c0.193,2.477,0.215,28.93-0.081,30.119l-5.385,0.116l0.063,11.401l31.121,0.179l0.292-11.684
		l-7.108-0.115l0.074-6.576c1.997-0.697,10.012-0.529,13.131-1.075c4.032-0.705,7.662-2.554,9.432-4.747
		c4.059-5.03,6.554-15.368,2.046-21.753c-3.88-5.496-11.461-7.591-20.67-7.596C397.55,185.288,376.607,184.565,373.891,185.573
		L373.891,185.573z"/>
	<path id="XMLID_14_" fill-rule="evenodd" clip-rule="evenodd" fill="#FF0096" d="M105.962,132.833
		c5.714-0.003,6.484-2.484,6.224,12.138c-0.061,3.415,0.057,15.363-0.58,17.897l-5.532,0.507l-0.146,11.569l29.668-0.001
		l-1.33-10.935c-0.183-0.346-1.082-0.57-1.606-0.682c-0.674-0.144-1.268-0.225-1.898-0.532c-0.113-3.472,3.399-4.246,7.665-7.506
		c2.029-1.551,6.408-5.136,9.158-5.934l0.051,13.652c-1.346,0.126-3.902,0.154-4.776,0.837c-0.504,0.926-0.299,8.951-0.135,10.581
		c4.218,1.383,23.969,0.67,29.292,0.291l-0.041-11.137l-5.559-0.362l-0.345-30.203l5.89-0.279l0.002-11.09l-29.266-0.389
		l0.029,10.256c0.338,0.704-0.007,0.396,1.005,0.763c1.004,0.364,2.977,0.725,3.758,1.403c-1.207,2.821-13.029,10.825-16.653,12.934
		c-0.335-2.691-0.381-6.316-0.434-9.084c-0.103-5.335,0.501-4.5,5.12-4.645l0.073-11.609l-29.527-0.01L105.962,132.833
		L105.962,132.833z"/>
	<path id="XMLID_13_" fill-rule="evenodd" clip-rule="evenodd" fill="#FF0096" d="M178.435,132.889l5.868,0.144l0.071,30
		l-5.748,0.315l-0.148,11.596l29.707-0.03l0.009-10.227c-0.027-1.116,0.137-1.012-0.903-1.199c-2.981-0.537-3.571,0.394-3.797-1.407
		c-0.035-0.277-0.029-0.894-0.036-1.204c-0.02-0.886-0.056-1.772-0.085-2.657c-0.056-1.682-0.119-3.331-0.162-5.018l14.999-0.064
		l-0.092,9.765l-4.591,0.791l-0.045,10.814c4.074,0.683,26.382,1.241,29.258,0.08c0.147-1.475,0.089-10.02-0.211-11.19l-5.411-0.178
		c-0.302-2.667-0.273-28.428,0.183-29.281c0.814-1.468,3.463-0.905,5.428-1.362l0.045-11.039l-29.207-0.317l-0.062,10.722
		l4.335,0.978l0.388,9.277l-14.802,0.067l0.128-9.187c1.366-0.512,3.171-0.25,4.646-0.369c0.012-1.978,0.191-10.076-0.324-11.398
		l-28.911-0.076L178.435,132.889L178.435,132.889z"/>
	<path id="XMLID_12_" fill-rule="evenodd" clip-rule="evenodd" fill="#FF0096" d="M370.189,132.799l5.495,0.075l0.421,23.422
		c0.015,1.252,0.013,2.56-0.078,3.808c-0.353,4.854-2.518,2.838-5.76,3.32l-0.034,11.465l53.106,0.052l0.128-21.893l-12.553,0.026
		c-0.52,1.305-0.356,8.264-0.391,10.199l-15.359,0.027l-0.473-10.08l11.868,0.028l0.004-11.192l-11.798,0.166l0.064-9.319
		l14.96,0.004l0.358,8.899l12.716,0.591l-0.03-21.017l-52.097-0.156L370.189,132.799L370.189,132.799z"/>
	<path id="XMLID_59_" fill-rule="evenodd" clip-rule="evenodd" fill="#FF0096" d="M274.268,132.699
		c12.4-3.845,13.853,27.375,3.353,30.194c-3.889,1.044-6.746-1.714-8.047-3.712C265.665,153.177,265.619,135.382,274.268,132.699
		L274.268,132.699z M274.383,120.089c-17.107,1.094-27.981,11.555-26.803,29.776c1.095,16.939,12.646,27.287,30.892,26.002
		c12.696-0.894,21.172-7.063,25.057-17.603c3.947-10.708,0.798-25.005-7.665-31.64C289.506,121.639,283.19,119.526,274.383,120.089
		L274.383,120.089z"/>
	<path id="XMLID_58_" fill-rule="evenodd" clip-rule="evenodd" fill="#FF0096" d="M459.109,136.499
		c0.644,0.904,3.403,11.412,3.555,12.077l-8.133-0.065L459.109,136.499L459.109,136.499z M428.261,163.928
		c-0.292,2.441-0.083,6.618-0.082,9.242c0,1.91,0.931,1.385,3.026,1.544c7.615,0.579,15.159,0.349,22.775-0.018
		c0.441-1.292,0.255-8.94,0.116-10.699c-0.619-0.445-1.486-0.63-2.204-0.954c-1.147-0.517-1.07-0.274-1.328-1.694
		c1.417-1.759,5.625-1.284,8.077-1.292c4.186-0.013,4.924-0.471,8.488,1.012l-0.452,1.831c-1.388,0.374-1.857-0.436-2.305,1.313
		c-0.234,0.914-0.324,2.255-0.387,3.246c-0.156,2.425-0.174,5.003-0.174,7.46l26.908,0.03l-0.042-11.195
		c-1.357-0.562-3.356-0.291-4.35-1.008c-0.728-0.934-6.51-18.013-7.42-20.708c-0.972-2.878-6.579-19.369-7.393-20.753
		c-4.828-0.02-17.584-0.309-21.305-0.124c-1.656,0.083-1.973,1.253-2.629,2.653l-13.492,35.108
		C431.44,165.822,431.483,162.029,428.261,163.928L428.261,163.928z"/>
	<path id="XMLID_57_" fill-rule="evenodd" clip-rule="evenodd" fill="#FF0096" d="M573.947,132.79
		c4.667-0.601,6.849,1.794,6.851,6.18c0.002,5.104-2.202,5.899-7.063,5.995L573.947,132.79L573.947,132.79z M549.631,121.281
		l-0.04,11.622l5.457,0.028l0.171,30.28l-5.33,0.165l-0.375,11.565l31.628,0.003l-0.097-11.696l-6.892-0.04l-0.037-6.87
		c7.148-0.009,14.23,0.412,19.471-3.168c4.046-2.764,7.606-7.935,7.406-15.411c-0.434-16.23-17.643-17.064-32.183-16.903
		L549.631,121.281L549.631,121.281z"/>
	<path id="XMLID_5_" fill-rule="evenodd" clip-rule="evenodd" fill="#FF0096" d="M489.382,142.099l12.503,0.336l0.102-9.293
		l5.53-0.125c0.117,6.155,0.044,12.342,0.113,18.467c0.033,2.931,0.221,6.532,0.058,9.391c-0.225,3.943-3.129,1.812-6.35,3.001
		l0.003,10.545c3.665,1.246,26.049,0.855,30.984,0.485l0.087-11.534l-5.817-0.163l-0.286-30.126l5.797-0.107l0.171,9.411
		l12.334,0.017c0-2.978,0.199-19.62-0.155-21.14h-54.936L489.382,142.099L489.382,142.099z"/>
	<path id="XMLID_4_" fill-rule="evenodd" clip-rule="evenodd" fill="#FF0096" d="M309.855,142.227
		c1.091,0.252,11.406,0.303,12.55,0.077l0.142-9.357l5.647,0.09c0.35,2.813,0.135,29.3-0.063,30.095l-6.314,0.365l0.009,11.158
		l31.244,0.311l-0.001-11.68l-5.908-0.038l-0.381-30.356l5.582,0.017l0.366,8.797c0.956,0.482,11.149,0.894,12.495,0.64
		l0.046-21.005c-4.423-0.343-29.208-0.037-35.082-0.037c-3.364,0-6.741-0.03-10.103,0.011c-2.361,0.029-8.355-0.284-10.247,0.139
		L309.855,142.227L309.855,142.227z"/>
	<path id="XMLID_3_" fill-rule="evenodd" clip-rule="evenodd" fill="#FF0096" d="M39.088,132.881
		c2.369-0.002,3.714-0.347,5.714,0.648l0.023,29.337l-5.646,0.484l-0.096,11.561l29.898-0.11l-0.01-11.233
		c-6.454-0.726-5.33,2.49-5.33-15.453c0-17.592-1.147-14.922,5.287-15.462l-0.014-10.899L39.1,121.418L39.088,132.881
		L39.088,132.881z"/>
	<path id="XMLID_2_" fill-rule="evenodd" clip-rule="evenodd" fill="#FF0096" d="M100.196,173.6l0.231-9.839
		c-7.613-1.982-6.131,1.53-10.351-5.251c-2.066-3.319-4.168-6.032-6.154-9.484c-1.655-2.877-1.592-2.516,0.023-5.168
		c1.019-1.673,2.011-3.424,3.02-4.922c4.377-6.495,3.99-5.173,10.327-5.572l1.16-10.538c-4.242-0.663-8.41-3.045-13.326-2.549
		c-4.596,0.464-7.043,4.061-8.942,6.913c-2.114,3.175-4.074,6.52-6.11,9.771c-6.086,9.718-6.108,12.834,0.348,22.677
		c2.149,3.277,4.121,6.474,6.358,9.76c2.393,3.514,3.639,5.846,9.497,6.339C91.397,176.17,95.893,175.177,100.196,173.6
		L100.196,173.6z"/>
</g>
</svg>
