<svg version="1.1" xmlns="http://www.w3.org/2000/svg" viewBox="0 0 1440 810" enable-background="new 0 0 1440 810"><rect fill="#1AB7EA" width="1440" height="810"/><path fill="#FFFFFF" d="M873.394,332.944c-1.35,29.869-22.106,71.044-62.606,123.356c-42.019,54.844-77.288,82.013-106.144,82.013c-17.888,0-32.906-16.538-45.394-49.781c-5.569-20.081-13.838-50.794-24.806-91.463c-9.113-33.075-18.9-49.781-29.531-49.781c-2.194,0-10.125,4.725-23.963,14.513l-14.513-18.563c2.869-2.7,9.787-8.775,20.25-18.394c10.631-9.45,18.731-16.706,24.637-21.938c19.575-17.381,34.763-26.663,45.394-27.675c11.981-1.181,21.6,2.194,28.856,10.631c7.256,8.1,12.487,21.094,15.356,38.813c5.569,36.281,9.787,59.738,12.488,70.875c6.919,31.556,14.513,47.419,22.612,47.419c6.244,0,16.031-10.125,29.194-30.544c12.656-20.419,19.575-35.944,20.588-46.575c1.519-17.719-5.231-26.325-20.588-26.325c-7.256,0-14.681,1.519-22.781,5.063c15.187-49.781,44.044-73.913,86.569-72.394C860.569,272.194,875.419,292.781,873.394,332.944z"/></svg>