<svg version="1.1" xmlns="http://www.w3.org/2000/svg" viewBox="0 0 1440 810" enable-background="new 0 0 1440 810"><rect fill="#282828" stroke="#000000" stroke-miterlimit="10" width="1440" height="810"/><path fill="#FF0000" d="M611.849,360.775c-2.105-7.892-8.331-14.119-16.252-16.252c-14.323-3.829-71.789-3.829-71.789-3.829s-57.437,0-71.789,3.829c-7.892,2.105-14.119,8.331-16.252,16.252c-3.829,14.323-3.829,44.225-3.829,44.225s0,29.902,3.829,44.225c2.105,7.892,8.331,14.117,16.252,16.252c14.352,3.829,71.789,3.829,71.789,3.829s57.466,0,71.789-3.829c7.892-2.105,14.119-8.331,16.252-16.252c3.829-14.323,3.829-44.225,3.829-44.225S615.679,375.098,611.849,360.775z"/><polygon fill="#FFFFFF" points="505.453,432.564 553.185,405 505.453,377.436 "/><path fill="#FFFFFF" d="M698.633,457.702c-3.624-2.455-6.225-6.255-7.746-11.429c-1.52-5.174-2.309-12.043-2.309-20.637v-11.692c0-8.681,0.878-15.638,2.631-20.9c1.754-5.262,4.501-9.09,8.214-11.488c3.713-2.396,8.594-3.624,14.645-3.624c5.963,0,10.727,1.228,14.323,3.683c3.596,2.455,6.225,6.285,7.892,11.488c1.666,5.203,2.485,12.16,2.485,20.811v11.692c0,8.594-0.818,15.491-2.426,20.694c-1.607,5.203-4.238,9.032-7.892,11.429c-3.624,2.396-8.564,3.624-14.791,3.624C707.285,461.385,702.257,460.157,698.633,457.702z M719.006,445.074c0.994-2.631,1.52-6.927,1.52-12.862v-25.109c0-5.788-0.496-9.997-1.52-12.686c-0.994-2.661-2.777-4.005-5.32-4.005c-2.455,0-4.179,1.344-5.203,4.005c-0.994,2.661-1.52,6.898-1.52,12.686v25.109c0,5.962,0.468,10.26,1.432,12.862c0.965,2.631,2.718,3.946,5.261,3.946C716.23,449.02,717.983,447.705,719.006,445.074z"/><path fill="#FFFFFF" d="M977.691,425.841v4.063c0,5.174,0.146,9.032,0.468,11.634c0.292,2.572,0.935,4.472,1.9,5.642c0.965,1.17,2.455,1.783,4.472,1.783c2.718,0,4.589-1.052,5.583-3.157c0.994-2.105,1.55-5.612,1.637-10.523l15.637,0.906c0.087,0.702,0.117,1.666,0.117,2.894c0,7.453-2.046,13.008-6.109,16.691s-9.821,5.524-17.274,5.524c-8.944,0-15.2-2.805-18.794-8.418c-3.596-5.612-5.379-14.264-5.379-26.014v-14.06c0-12.101,1.87-20.9,5.583-26.483c3.713-5.553,10.084-8.331,19.117-8.331c6.225,0,10.99,1.14,14.323,3.42c3.333,2.28,5.67,5.816,7.044,10.64c1.344,4.823,2.046,11.488,2.046,19.965v13.797h-30.369L977.691,425.841L977.691,425.841z M980,391.935c-0.906,1.14-1.52,3.011-1.842,5.583c-0.322,2.572-0.468,6.518-0.468,11.751v5.788h13.271v-5.788c0-5.174-0.176-9.09-0.526-11.751c-0.35-2.661-0.994-4.56-1.9-5.642c-0.906-1.081-2.339-1.637-4.268-1.637C982.339,390.209,980.907,390.794,980,391.935z"/><path fill="#FFFFFF" d="M654.495,424.32l-20.637-74.507h18.006l7.22,33.761c1.842,8.331,3.187,15.404,4.063,21.279h0.526c0.613-4.209,1.959-11.254,4.063-21.163l7.483-33.906h18.006l-20.87,74.537v35.748h-17.859v-35.75H654.495z"/><path fill="#FFFFFF" d="M797.313,379.512v80.529h-14.176l-1.578-9.851h-0.38c-3.859,7.453-9.645,11.166-17.333,11.166c-5.349,0-9.295-1.754-11.838-5.261s-3.8-8.973-3.8-16.428v-60.155h18.122v59.133c0,3.596,0.38,6.168,1.169,7.688c0.789,1.52,2.105,2.309,3.946,2.309c1.578,0,3.098-0.468,4.531-1.433c1.432-0.965,2.514-2.192,3.215-3.683v-64.014H797.313z"/><path fill="#FFFFFF" d="M890.324,379.512v80.529h-14.176l-1.578-9.851h-0.38c-3.859,7.453-9.646,11.166-17.333,11.166c-5.349,0-9.295-1.754-11.838-5.261c-2.542-3.507-3.8-8.973-3.8-16.428v-60.155h18.122v59.133c0,3.596,0.38,6.168,1.169,7.688c0.789,1.52,2.105,2.309,3.946,2.309c1.578,0,3.098-0.468,4.531-1.433c1.433-0.965,2.514-2.192,3.215-3.683v-64.014H890.324z"/><path fill="#FFFFFF" d="M846.595,364.4h-18.006v95.641h-17.743V364.4h-18.006v-14.586h53.724V364.4L846.595,364.4L846.595,364.4z"/><path fill="#FFFFFF" d="M950.333,392.401c-1.111-5.086-2.865-8.769-5.32-11.049c-2.455-2.28-5.816-3.42-10.114-3.42c-3.333,0-6.431,0.935-9.325,2.835c-2.894,1.87-5.116,4.355-6.694,7.425h-0.146V345.75h-17.48v114.318h14.965l1.842-7.629h0.38c1.403,2.718,3.507,4.852,6.314,6.431s5.905,2.368,9.325,2.368c6.138,0,10.64-2.835,13.534-8.477c2.894-5.642,4.326-14.469,4.326-26.483v-12.745C951.969,404.532,951.414,397.488,950.333,392.401z M933.701,425.257c0,5.875-0.233,10.464-0.731,13.797c-0.468,3.333-1.287,5.7-2.426,7.103c-1.14,1.403-2.659,2.105-4.589,2.105c-1.491,0-2.865-0.35-4.151-1.052c-1.257-0.702-2.309-1.754-3.098-3.157v-45.745c0.615-2.192,1.666-3.975,3.157-5.379c1.491-1.403,3.098-2.105,4.852-2.105c1.842,0,3.274,0.731,4.268,2.163c0.994,1.432,1.696,3.887,2.105,7.279c0.38,3.42,0.585,8.272,0.585,14.586v10.406H933.701z"/></svg>