<?xml version="1.0" encoding="utf-8"?>
<!-- Generator: Adobe Illustrator 19.0.0, SVG Export Plug-In . SVG Version: 6.00 Build 0)  -->
<svg version="1.1" id="Layer_1" xmlns="http://www.w3.org/2000/svg" xmlns:xlink="http://www.w3.org/1999/xlink" x="0px" y="0px"
	 viewBox="0 0 640 360" enable-background="new 0 0 640 360" xml:space="preserve">
<rect id="XMLID_1_" fill="#192F5D" width="640" height="360"/>
<g id="XMLID_12_">
	<path fill="#FFFFFF" d="M180.195,172.436v-17.377c0.087-0.786,0.349-1.659,0.349-2.445c0.437-6.025,1.397-11.876,3.056-17.639
		c3.755-13.186,10.217-24.887,18.949-35.453c3.493-4.192,7.422-8.034,11.265-11.876c8.994-9.082,19.124-16.504,30.389-22.442
		c11.614-6.2,23.839-10.566,36.588-13.448c9.256-2.096,18.687-3.318,28.205-3.58C314.586,48,320.087,48,325.676,48
		c6.025,0,11.963,0.349,17.989,1.048c7.335,0.873,14.583,2.183,21.743,4.104c15.282,4.104,29.603,10.391,42.701,19.211
		c11.09,7.51,20.608,16.766,29.341,26.896c8.732,10.13,15.107,21.744,18.949,34.667c1.746,5.938,2.969,11.963,3.231,18.251
		c0,0.262,0.087,0.524,0.175,0.786v21.569c-0.087,0.349-0.175,0.699-0.175,1.048c0,0.611,0,1.31-0.087,2.008
		c-0.524,5.239-1.484,10.391-2.969,15.456c-3.842,13.186-10.391,24.974-19.211,35.453c-3.668,4.366-7.684,8.296-11.701,12.313
		c-4.192,4.191-8.732,8.121-13.622,11.614c-13.186,9.693-27.769,16.591-43.487,21.132c-8.034,2.358-16.155,4.017-24.538,4.89
		c-4.191,0.437-8.383,0.873-12.575,0.961c-7.248,0.175-14.583,0.087-21.831,0.087c-1.484,0-2.882-0.087-4.366-0.175
		c-0.699-0.087-1.223,0.087-1.746,0.611c-13.797,13.36-30.127,22.093-48.639,26.896c-9.606,2.445-19.386,3.755-29.166,4.541
		c-7.684,0.524-15.369,0.699-23.053,0.611c-0.524,0-0.961-0.175-1.397-0.524c-1.397-1.397-2.794-2.794-4.192-4.191
		c-0.349-0.349-0.524-0.699-0.524-1.135c0-5.239,0-10.479,0-15.718c0-0.524,0.175-0.873,0.524-1.223
		c1.397-1.397,2.707-2.707,4.104-4.104c0.437-0.349,0.873-0.699,1.31-0.961c3.406-1.746,6.811-3.755,9.868-6.025
		c2.008-1.484,4.104-2.882,5.763-4.715c4.279-4.628,7.51-9.955,9.256-16.068c0.437-1.484,0.699-2.969,1.048-4.366
		c-0.437-0.349-0.786-0.611-1.048-0.786c-2.358-1.921-4.803-3.842-7.161-5.763c-4.366-3.755-8.383-7.946-12.4-12.051
		c-4.454-4.541-8.383-9.431-11.876-14.758c-8.994-13.535-14.408-28.293-15.456-44.535
		C180.457,173.92,180.283,173.222,180.195,172.436L180.195,172.436z M314.586,268.754v-210.1c-8.994,0.349-17.727,1.31-26.372,3.144
		c-0.087,0.175-0.087,0.262-0.087,0.262v0.087c0,0.087,0,0.175,0,0.175v92.388v0.087v0.087v0.087c0,0,0,0.087-0.087,0.087
		c0,0-0.087,0-0.175,0.175h-96.667c-0.087,1.659-0.262,3.231-0.349,4.803c-0.262,5.851,0.087,11.701,1.048,17.465
		c1.397,8.907,4.192,17.377,8.208,25.411c0.437,0.786,0.873,1.135,1.834,1.135c11.177,0,22.442,0,33.619,0h51.084
		c0.437,0,0.961,0,1.484,0.087v73.614c0.175,0,0.262,0,0.349,0c0.349-0.175,0.611-0.437,0.961-0.699
		c3.406-2.707,6.724-5.501,9.78-8.645c0.524-0.524,1.048-0.699,1.746-0.611c0.437,0.087,0.961,0.175,1.397,0.175
		c2.882,0.262,5.763,0.524,8.645,0.699C312.141,268.841,313.363,268.754,314.586,268.754L314.586,268.754z M433.258,135.76
		c0-0.087,0.087-0.175,0.087-0.262h4.279c0.611-1.397,0.873-2.882,1.572-4.366c0.524,1.572,0.961,2.969,1.397,4.279
		c1.31,0.175,3.144,0.175,3.842-0.087c-0.524-2.882-6.113-14.845-7.597-16.329c-0.437,0.262-0.873,0.611-1.31,0.873
		c0-0.699,0.175-1.223,0.349-1.746c0.175-0.524,0.087-0.873-0.175-1.397c-1.223-1.746-2.358-3.58-3.58-5.327
		c-0.786-1.223-1.746-2.358-2.707-3.668c0,0.349-0.087,0.524-0.087,0.786c-1.223-0.873-2.445-1.746-3.668-2.62
		c-1.223,0.873-2.358,1.746-3.58,2.532c-0.087-0.087-0.087-0.087-0.175-0.175c0.437-1.397,0.873-2.794,1.31-4.192
		c-1.135-0.961-2.358-1.659-3.406-2.707c1.31-0.175,2.62-0.087,3.93-0.175c-1.31-1.921-7.859-8.208-8.994-8.645
		c0.262,1.572,0.961,2.882,1.31,4.628c-1.397-0.961-2.62-1.834-3.842-2.707c-0.611,0.437-1.223,0.873-1.834,1.31
		s-1.223,0.786-1.746,1.223c-0.087-0.087-0.087-0.087-0.175-0.175c0.437-1.397,0.873-2.707,1.31-4.192
		c-0.611-0.437-1.223-0.873-1.746-1.31c-0.611-0.437-1.223-0.786-1.834-1.572h4.366c0.524-0.611,0.262-0.961-0.175-1.223
		c-2.794-2.008-5.589-4.104-8.383-6.113c-0.087-0.087-0.175-0.087-0.437-0.175c0.349,1.135,0.699,2.183,0.961,3.144
		c-0.087,0-0.087,0.087-0.175,0.087c-1.223-0.873-2.358-1.659-3.58-2.532c-1.223,0.873-2.358,1.746-3.58,2.532
		c-0.087-0.437,0-0.786,0.087-1.048c0.262-0.873,0.524-1.746,0.873-2.62c0.175-0.437,0.087-0.786-0.349-1.048
		c-0.873-0.611-1.659-1.223-2.532-1.834c-0.175-0.087-0.262-0.262-0.524-0.524c0.873,0,1.572-0.087,2.27-0.087
		c-0.262-0.349-0.524-0.524-0.786-0.699c-3.056-1.572-6.025-3.144-9.082-4.803c-0.699-0.349-1.223-0.349-1.746,0.175
		c-0.524,0.437-1.048,0.786-1.572,1.135c0-0.087-0.087-0.087-0.175-0.175c0.262-0.786,0.437-1.572,0.699-2.358
		c-3.406-2.096-21.045-8.208-23.315-8.034c0.349,0.961,0.611,1.921,0.873,2.882c0.087,0.437,0.437,0.524,0.786,0.524
		c0.961,0,1.834,0,2.794,0c0.349,0,0.611,0,0.961,0.087l0.087,0.175c-1.135,0.873-2.27,1.746-3.493,2.62
		c0.437,1.397,0.873,2.794,1.31,4.192c-0.087,0-0.087,0.087-0.175,0.087c-1.223-0.873-2.358-1.659-3.58-2.532
		c-0.611,0.437-1.223,0.873-1.834,1.31c-0.611,0.437-1.135,0.873-2.008,1.31c0.524-1.659,0.961-2.969,1.397-4.453
		c-0.611-0.437-1.223-0.873-1.746-1.31c-0.611-0.437-1.223-0.786-1.746-1.31c0-0.087,0.087-0.175,0.087-0.175h4.366
		c0.349-1.048,0.699-2.096,0.961-3.056c0.087-0.175,0.087-0.437,0.087-0.611c-3.93-1.921-29.166-5.414-32.921-4.541
		c-0.175,1.31-0.175,112.123,0.087,112.822c1.048,0.175,122.602,0.175,123.475-0.087c1.048-12.051-0.349-23.927-4.192-35.628
		c-1.135,0.786-2.183,1.572-3.144,2.27c0.349,1.484,0.961,2.794,1.223,4.192l-0.175,0.087c-1.135-0.873-2.358-1.659-3.493-2.532
		c-1.31,0.786-2.358,1.834-3.668,2.445c0.262-1.135,0.611-2.183,0.961-3.231c0.349-1.048,0.349-1.048-0.524-1.659
		C435.005,136.983,434.132,136.371,433.258,135.76L433.258,135.76z M271.71,227.537c-11.527,5.763-22.791,11.439-34.231,17.115
		c0.262,0.175,0.349,0.349,0.524,0.437c0.611,0.349,0.873,0.786,0.873,1.485c0,0.786,0.175,1.572,0.262,2.358
		c0.437,4.803,0.087,9.431-1.397,14.059c-2.008,6.025-5.327,11.177-9.518,15.893c-5.763,6.375-12.575,11.265-20.172,15.194
		c-0.349,0.175-0.699,0.349-1.135,0.611c0,2.27,0,4.453,0,6.637c0.349,0,0.524,0.087,0.611,0c3.58-0.175,7.248-0.262,10.828-0.524
		c7.684-0.437,15.282-1.31,22.791-2.707c8.82-1.659,17.377-4.191,25.673-7.772c1.572-0.699,3.231-1.485,4.803-2.183L271.71,227.537
		L271.71,227.537z M214.339,103.101c19.124,9.606,38.16,19.124,57.284,28.729V66.163C249.443,73.586,230.057,85.374,214.339,103.101
		L214.339,103.101z M325.501,204.309h112.473c0.175,0,0.437,0,0.611,0c0.611,0.087,0.961-0.175,1.223-0.699
		c2.358-4.715,4.279-9.518,5.851-14.583c0.087-0.262,0.087-0.524,0.087-0.786c-0.175-0.087-0.262-0.087-0.437-0.087
		c-39.732,0-79.377,0-119.109,0c-0.175,0-0.349,0-0.524,0.087c0,0-0.087,0-0.087,0.087c0,0-0.087,0-0.175,0.087L325.501,204.309
		L325.501,204.309z M325.589,236.88h39.208c15.718,0,31.436,0,47.155,0c0.611,0,1.135-0.087,1.659-0.524
		c5.239-4.541,10.042-9.431,14.408-14.845c0.175-0.175,0.262-0.437,0.437-0.699c-1.746-0.175-102.256-0.087-102.954,0.087
		C325.414,221.774,325.327,235.745,325.589,236.88L325.589,236.88z M325.501,268.841c0.524,0,0.873,0,1.223,0
		c3.58-0.262,7.161-0.437,10.741-0.786c6.2-0.611,12.313-1.659,18.425-3.144c10.566-2.445,20.783-6.113,30.651-10.828
		c0.349-0.175,0.699-0.349,1.223-0.611c-3.755-0.262-61.301-0.175-62.262,0.087C325.501,258.537,325.501,263.689,325.501,268.841
		L325.501,268.841z M230.057,239.151c12.313-6.113,24.538-12.313,36.763-18.425c-0.175-0.175-0.349-0.175-0.524-0.175
		c-11.527,0-23.053,0-34.58,0c-0.524,0-1.048,0.175-1.484,0.349c-4.017,2.008-8.121,4.017-12.138,6.025
		c-0.262,0.175-0.524,0.262-0.786,0.437C218.53,229.371,227.175,237.317,230.057,239.151L230.057,239.151z M194.516,138.729h35.89
		c0-0.087,0-0.087,0.087-0.175c-9.955-4.977-19.822-9.955-29.865-14.932C198.009,128.512,196.088,133.402,194.516,138.729
		L194.516,138.729z"/>
	<path id="XMLID_81_" fill="#BB3F47" d="M314.673,268.754c-1.223,0-2.445,0.087-3.668,0c-2.882-0.175-5.763-0.437-8.645-0.699
		c-0.437,0-0.961-0.087-1.397-0.175c-0.699-0.175-1.223,0.087-1.746,0.611c-3.056,3.056-6.375,5.938-9.78,8.645
		c-0.262,0.262-0.611,0.437-0.961,0.699c0,0-0.087,0-0.349,0v-73.701c-0.611,0-1.048-0.087-1.485-0.087h-51.084
		c-11.177,0-22.442,0-33.619,0c-0.961,0-1.397-0.262-1.834-1.135c-3.93-8.121-6.724-16.591-8.208-25.411
		c-0.961-5.763-1.223-11.614-1.048-17.465c0.087-1.572,0.262-3.144,0.349-4.803h96.58c0.175-0.087,0.175-0.175,0.175-0.175
		s0-0.087,0.087-0.087v-0.087v-0.087v-0.087v-0.087v-0.175v-0.262V62.408v-0.087c0-0.087,0-0.175,0-0.175v-0.087
		c0,0,0-0.087,0.087-0.262c8.558-1.834,17.377-2.794,26.372-3.144C314.673,128.687,314.673,198.72,314.673,268.754L314.673,268.754z
		"/>
	<path fill="#1A305C" d="M433.346,135.76l2.62,1.921c0.873,0.611,0.873,0.611,0.524,1.659c-0.349,1.048-0.699,2.096-0.961,3.231
		c1.31-0.699,2.358-1.659,3.668-2.445c1.135,0.873,2.358,1.659,3.493,2.532l0.175-0.087c-0.262-1.397-0.873-2.707-1.223-4.192
		c1.048-0.699,2.008-1.484,3.144-2.27c3.842,11.701,5.327,23.49,4.191,35.628c-0.873,0.262-122.427,0.262-123.475,0.087
		c-0.175-0.699-0.262-111.512-0.087-112.822c3.755-0.786,28.991,2.707,32.921,4.541c0,0.175-0.087,0.437-0.087,0.611
		c-0.349,0.961-0.611,1.921-0.961,3.056h-4.366c0,0.087-0.087,0.175-0.087,0.175c0.437,0.524,1.135,0.873,1.746,1.31
		c0.611,0.437,1.135,0.873,1.746,1.31c-0.437,1.397-0.873,2.794-1.397,4.453c0.873-0.437,1.397-0.961,2.008-1.31
		c0.611-0.437,1.135-0.873,1.834-1.31c1.223,0.873,2.445,1.746,3.58,2.532c0.087,0,0.087-0.087,0.175-0.087
		c-0.437-1.397-0.873-2.794-1.31-4.192c1.223-0.873,2.358-1.746,3.493-2.62l-0.087-0.175c-0.349,0-0.611-0.087-0.961-0.087
		c-0.961,0-1.834,0-2.794,0c-0.349,0-0.699-0.087-0.786-0.524c-0.262-0.961-0.611-1.921-0.873-2.882
		c2.358-0.087,19.91,6.025,23.315,8.034c-0.262,0.786-0.437,1.572-0.699,2.358c0,0.087,0.087,0.087,0.175,0.175
		c0.524-0.349,1.135-0.699,1.572-1.135c0.611-0.524,1.048-0.524,1.746-0.175c2.969,1.572,6.025,3.144,9.082,4.803
		c0.262,0.175,0.524,0.349,0.786,0.699c-0.699,0-1.397,0.087-2.27,0.087c0.262,0.262,0.349,0.437,0.524,0.524
		c0.786,0.611,1.659,1.223,2.532,1.834c0.437,0.262,0.524,0.611,0.349,1.048c-0.349,0.873-0.611,1.746-0.873,2.62
		c-0.087,0.349-0.175,0.611-0.087,1.048c1.135-0.873,2.358-1.659,3.58-2.532c1.223,0.873,2.445,1.746,3.58,2.532
		c0.087,0,0.087-0.087,0.175-0.087c-0.349-1.048-0.611-2.008-0.961-3.144c0.262,0.087,0.349,0.087,0.437,0.175
		c2.794,2.008,5.589,4.104,8.383,6.113c0.437,0.262,0.699,0.611,0.175,1.223h-4.366c0.611,0.786,1.223,1.048,1.834,1.572
		c0.611,0.437,1.135,0.873,1.746,1.31c-0.437,1.397-0.873,2.794-1.31,4.192c0.087,0.087,0.087,0.087,0.175,0.175
		c0.611-0.437,1.223-0.786,1.746-1.223c0.611-0.437,1.135-0.873,1.834-1.31c1.223,0.873,2.445,1.746,3.842,2.707
		c-0.349-1.746-1.048-3.056-1.31-4.628c1.223,0.437,7.684,6.811,8.994,8.645c-1.31,0.175-2.62,0-3.93,0.175
		c1.048,1.048,2.27,1.746,3.406,2.707c-0.437,1.397-0.873,2.794-1.31,4.192c0.087,0.087,0.087,0.087,0.175,0.175
		c1.223-0.873,2.358-1.659,3.58-2.532c1.223,0.873,2.358,1.746,3.668,2.62c0-0.262,0.087-0.437,0.087-0.786
		c0.961,1.31,1.834,2.445,2.707,3.668c1.223,1.746,2.358,3.58,3.58,5.327c0.262,0.437,0.349,0.873,0.175,1.397
		c-0.175,0.524-0.349,1.048-0.349,1.746c0.437-0.262,0.873-0.611,1.31-0.873c1.484,1.484,7.073,13.448,7.597,16.329
		c-0.699,0.262-2.532,0.262-3.842,0.087c-0.437-1.31-0.873-2.707-1.397-4.279c-0.699,1.484-0.961,2.969-1.572,4.366h-4.279
		C433.433,135.498,433.346,135.585,433.346,135.76L433.346,135.76z M385.667,94.456c1.223,0.873,2.445,1.746,3.58,2.532l0.175-0.087
		c-0.437-1.397-0.873-2.794-1.31-4.192c1.223-0.873,2.358-1.746,3.493-2.62l-0.087-0.175c-1.484,0-2.882,0-4.366-0.087
		c-0.524-1.484-0.961-2.794-1.485-4.366c-0.175,0.349-0.262,0.611-0.349,0.786c-0.262,0.786-0.524,1.659-0.786,2.445
		c-0.349,1.048-0.087,1.135-1.572,1.135c-0.873,0-1.746,0-2.62,0c-0.175,0-0.437,0.087-0.786,0.175
		c1.31,0.961,2.445,1.834,3.668,2.707c-0.437,1.484-0.873,2.882-1.31,4.279c0.087,0,0.087,0.087,0.175,0.087
		C383.309,96.115,384.445,95.329,385.667,94.456L385.667,94.456z M372.394,74.11h-0.175c-0.437,1.397-0.961,2.794-1.397,4.192
		c-0.786,0-1.484,0-2.183,0s-1.484-0.175-2.27,0.175c1.223,0.961,2.358,1.746,3.58,2.62c-0.349,1.484-0.961,2.794-1.31,4.453
		c1.31-0.961,2.532-1.834,3.755-2.707c1.223,0.873,2.445,1.746,3.58,2.532c0.087,0,0.087-0.087,0.175-0.087
		c-0.437-1.397-0.873-2.794-1.31-4.279c0.611-0.437,1.223-0.873,1.746-1.31c0.611-0.437,1.223-0.786,1.746-1.31
		c0-0.087-0.087-0.175-0.087-0.262h-4.366C373.267,76.904,372.831,75.507,372.394,74.11L372.394,74.11z M328.296,74.022
		c0.087,0.087,0.087,0.087,0.175,0.175c1.223-0.873,2.358-1.746,3.58-2.532c1.223,0.873,2.445,1.746,3.58,2.532
		c0.087-0.087,0.087-0.087,0.175-0.175c-0.437-1.397-0.873-2.794-1.31-4.192c1.223-0.873,2.358-1.746,3.58-2.62
		c0-0.087,0-0.175-0.087-0.175c-1.484,0-2.969-0.087-4.453-0.087c-0.262-0.786-0.524-1.484-0.699-2.183
		c-0.262-0.699-0.437-1.31-0.699-2.008c-0.087,0-0.087,0-0.175,0c-0.437,1.397-0.961,2.794-1.397,4.279H326.2
		c0,0.087-0.087,0.175-0.087,0.175c1.135,0.873,2.358,1.746,3.493,2.62C329.169,71.228,328.732,72.625,328.296,74.022
		L328.296,74.022z M358.946,85.636h-0.175c-0.437,1.397-0.961,2.707-1.397,4.192h-2.27h-2.096c0,0.087,0,0.175-0.087,0.175
		l3.493,2.62c-0.437,1.484-0.873,2.794-1.31,4.192c0.087,0,0.087,0.087,0.175,0.175c1.223-0.873,2.358-1.659,3.58-2.532
		c1.223,0.873,2.445,1.746,3.58,2.532c0.087,0,0.087-0.087,0.175-0.175c-0.437-1.397-0.873-2.794-1.31-4.192
		c1.223-0.873,2.358-1.746,3.493-2.62c-0.437-0.175-0.699-0.262-1.048-0.262c-0.961,0-1.834,0-2.794,0
		c-0.437,0-0.699-0.175-0.786-0.611c-0.262-0.873-0.524-1.746-0.873-2.62C359.208,86.248,359.121,85.898,358.946,85.636
		L358.946,85.636z M332.225,85.549h-0.175c-0.437,1.397-0.961,2.794-1.397,4.192c-1.485,0.262-2.969-0.087-4.628,0.175
		c1.397,0.961,2.532,1.834,3.668,2.707c-0.437,1.484-0.873,2.882-1.31,4.192c0.087,0,0.087,0.087,0.175,0.087
		c1.223-0.873,2.358-1.659,3.58-2.532c1.223,0.873,2.358,1.746,3.58,2.532c0.087,0,0.087-0.087,0.175-0.175
		c-0.437-1.397-0.873-2.794-1.31-4.192c1.223-0.873,2.358-1.746,3.493-2.62l-0.087-0.175c-1.484,0-2.882-0.087-4.366-0.087
		C333.099,88.256,332.662,86.946,332.225,85.549L332.225,85.549z M341.743,85.374c0.087,0.087,0.087,0.087,0.175,0.175
		c1.223-0.873,2.358-1.659,3.58-2.532c1.223,0.873,2.358,1.746,3.58,2.532l0.175-0.087c-0.437-1.397-0.873-2.794-1.31-4.192
		c0.611-0.437,1.223-0.873,1.746-1.31c0.611-0.437,1.223-0.786,1.834-1.572h-4.541c-0.524-1.484-0.961-2.794-1.397-4.192h-0.175
		c-0.437,1.397-0.961,2.707-1.397,4.192c-0.786,0-1.484,0-2.183,0s-1.484-0.175-2.27,0.175c1.048,0.786,1.921,1.397,2.882,2.096
		c0.786,0.611,0.786,0.611,0.437,1.484C342.442,83.279,342.093,84.327,341.743,85.374L341.743,85.374z M435.529,165.363
		c0.087,0,0.087,0.087,0.175,0.087c1.223-0.873,2.445-1.746,3.58-2.62c0.699,0.524,1.31,0.961,1.834,1.31
		c0.611,0.437,1.135,0.786,1.746,1.223c0.087-0.087,0.087-0.087,0.175-0.175c-0.437-1.397-0.873-2.707-1.31-4.104
		c0.611-0.437,1.223-0.873,1.746-1.31c0.524-0.437,1.31-0.699,1.834-1.572h-4.453c-0.611-1.397-0.873-2.882-1.397-4.192
		c-0.087,0-0.175,0-0.175,0c-0.437,1.397-0.961,2.794-1.397,4.104c-1.572,0.175-2.969-0.087-4.541,0.175
		c0.349,0.262,0.524,0.437,0.786,0.611c0.786,0.524,1.485,1.135,2.27,1.659c0.524,0.349,0.611,0.699,0.349,1.223
		c-0.175,0.437-0.349,0.961-0.524,1.484C435.878,163.965,435.703,164.664,435.529,165.363L435.529,165.363z M399.115,105.808
		c1.223,0.873,2.445,1.746,3.58,2.62l0.175-0.087c-0.437-1.397-0.873-2.794-1.31-4.192c1.135-0.961,2.445-1.746,3.493-2.707
		c0-0.087-0.087-0.175-0.087-0.175h-4.279c-0.611-1.397-0.873-2.882-1.572-4.366c-0.524,1.572-0.961,2.969-1.485,4.453h-4.366
		c0.961,0.961,1.921,1.659,2.969,2.358c0.437,0.262,0.524,0.611,0.349,1.048c-0.175,0.524-0.349,1.135-0.524,1.659
		c-0.175,0.611-0.437,1.31-0.611,1.921c0.087,0,0.087,0.087,0.175,0.087C396.67,107.555,397.805,106.769,399.115,105.808
		L399.115,105.808z M385.754,131.219h-0.262c-0.437,1.397-0.961,2.794-1.397,4.192c-1.484,0.087-2.969,0-4.366,0.087
		c0,0.087,0,0.175-0.087,0.175c1.135,0.873,2.27,1.659,3.493,2.532c-0.437,1.484-0.873,2.882-1.31,4.279l0.175,0.087
		c1.223-0.873,2.358-1.659,3.58-2.62c1.223,0.873,2.358,1.659,3.58,2.532c0.087,0,0.087-0.087,0.175-0.175
		c-0.437-1.397-0.873-2.794-1.31-4.192c1.135-0.961,2.358-1.659,3.493-2.62c0-0.087-0.087-0.175-0.087-0.262h-4.192
		C386.715,134.014,386.278,132.616,385.754,131.219L385.754,131.219z M373.791,146.937c-0.524-1.484-0.961-2.882-1.484-4.279
		c-0.087,0-0.087,0-0.175,0c-0.437,1.397-0.961,2.794-1.397,4.192c-1.485,0.175-2.969-0.087-4.628,0.175
		c1.31,0.961,2.445,1.834,3.668,2.707c-0.437,1.484-0.873,2.882-1.31,4.279c0.087,0,0.087,0.087,0.175,0.087
		c1.223-0.873,2.358-1.746,3.58-2.62c1.223,0.873,2.445,1.746,3.58,2.62l0.175-0.087c-0.437-1.397-0.873-2.794-1.31-4.192
		c1.135-0.961,2.445-1.659,3.406-2.882C376.76,146.937,375.363,146.937,373.791,146.937L373.791,146.937z M395.273,153.923
		c0.087,0,0.087,0.087,0.175,0.087c1.223-0.873,2.358-1.659,3.58-2.532c0.611,0.437,1.223,0.873,1.834,1.31s1.135,0.873,2.008,1.31
		c-0.524-1.659-0.961-2.969-1.397-4.366c1.223-0.873,2.358-1.746,3.493-2.62c0-0.087,0-0.175-0.087-0.175h-4.366
		c-0.524-1.484-0.961-2.882-1.397-4.192c-0.087,0-0.175,0-0.262,0c-0.437,1.397-0.961,2.794-1.397,4.279h-4.366
		c0,0.087-0.087,0.175-0.087,0.175c1.135,0.873,2.358,1.746,3.493,2.62C396.146,151.216,395.709,152.526,395.273,153.923z
		 M335.631,165.45c0.087,0,0.087-0.087,0.175-0.087c-0.437-1.397-0.873-2.794-1.31-4.279c1.223-0.873,2.358-1.746,3.493-2.62
		l-0.087-0.175h-4.366c-0.524-1.484-0.961-2.882-1.397-4.279c-0.087,0-0.087,0-0.175,0c-0.437,1.397-0.961,2.794-1.397,4.192
		c-1.572,0.087-2.969-0.087-4.628,0.175c1.397,1.048,2.532,1.834,3.668,2.707c-0.437,1.484-0.873,2.794-1.31,4.192
		c0.087,0,0.087,0.087,0.175,0.175c1.223-0.873,2.445-1.746,3.58-2.62C333.36,163.791,334.496,164.664,335.631,165.45
		L335.631,165.45z M379.816,158.289c0,0.087-0.087,0.175-0.087,0.262c1.135,0.873,2.358,1.746,3.493,2.532
		c-0.437,1.484-0.873,2.882-1.31,4.192c0.087,0.087,0.087,0.087,0.175,0.175c1.223-0.873,2.445-1.746,3.58-2.62
		c1.223,0.873,2.358,1.746,3.58,2.532c0.087-0.087,0.087-0.087,0.175-0.175c-0.437-1.397-0.873-2.707-1.31-4.104
		c0.611-0.437,1.223-0.873,1.746-1.31c0.524-0.437,1.31-0.699,1.746-1.572h-4.366c-0.611-1.397-0.873-2.882-1.659-4.192
		c-0.437,1.397-0.961,2.794-1.397,4.192L379.816,158.289L379.816,158.289z M361.304,161.084c1.223-0.873,2.358-1.746,3.493-2.62
		c0-0.087-0.087-0.175-0.087-0.175h-4.366c-0.524-1.484-0.961-2.882-1.397-4.192c-0.087,0-0.175,0-0.175,0
		c-0.437,1.397-0.961,2.794-1.397,4.192h-2.183h-2.096c0,0.087,0,0.175-0.087,0.175c1.135,0.873,2.358,1.746,3.493,2.62
		c-0.437,1.484-0.873,2.794-1.31,4.192c0.087,0,0.087,0.087,0.175,0.087c1.223-0.873,2.358-1.659,3.58-2.532
		c1.223,0.873,2.358,1.746,3.58,2.532c0.087,0,0.087-0.087,0.175-0.175C362.177,163.965,361.828,162.568,361.304,161.084
		L361.304,161.084z M388.112,115.501c1.223-0.873,2.358-1.746,3.493-2.532l-0.087-0.262c-1.484,0-2.882,0-4.366-0.087
		c-0.524-1.484-0.961-2.882-1.397-4.192c-0.437,0.786-0.699,1.572-1.048,2.445c-0.786,2.183-0.087,1.746-2.532,1.834
		c-0.786,0-1.572,0-2.445,0c0,0.087-0.087,0.175-0.087,0.262c1.135,0.873,2.358,1.746,3.493,2.62
		c-0.437,1.484-0.873,2.794-1.31,4.192c0.087,0,0.087,0.087,0.175,0.087c1.223-0.873,2.358-1.659,3.58-2.532
		c1.223,0.873,2.358,1.746,3.58,2.532c0.087,0,0.087-0.087,0.175-0.087C388.985,118.295,388.549,116.985,388.112,115.501
		L388.112,115.501z M334.496,138.292c0.611-0.437,1.223-0.873,1.834-1.31c0.524-0.437,1.31-0.699,1.746-1.484
		c-0.349,0-0.699,0-0.961,0c-0.786,0-1.572,0-2.358,0c-1.31,0-1.135,0.087-1.484-1.048c-0.262-0.699-0.437-1.397-0.699-2.096
		c-0.087-0.349-0.262-0.699-0.524-1.31c-0.175,0.611-0.349,0.961-0.437,1.31c-0.262,0.873-0.611,1.659-0.786,2.532
		c-0.087,0.437-0.349,0.611-0.786,0.611c-0.961,0-1.921,0-2.882,0c-0.262,0-0.611,0-0.873,0.087c0,0.087,0,0.087-0.087,0.175
		c1.223,0.873,2.358,1.746,3.493,2.62c-0.437,1.484-0.873,2.882-1.31,4.279c0.087,0,0.087,0.087,0.175,0.087
		c1.223-0.873,2.358-1.746,3.58-2.532c1.223,0.873,2.358,1.746,3.58,2.532l0.175-0.087
		C335.456,141.174,335.02,139.777,334.496,138.292L334.496,138.292z M362.439,142.659c0.087,0,0.175-0.087,0.175-0.175
		c-0.437-1.397-0.873-2.794-1.31-4.192c1.223-0.961,2.445-1.746,3.493-2.62c0-0.087-0.087-0.175-0.087-0.175h-4.279
		c-0.611-1.397-0.873-2.882-1.572-4.454c-0.524,1.659-0.961,3.056-1.484,4.366c-1.572,0.087-2.969-0.087-4.366,0.349
		c1.135,0.873,2.27,1.746,3.406,2.532c-0.349,1.484-0.961,2.794-1.31,4.453c1.397-0.961,2.532-1.834,3.755-2.707
		C360.081,140.912,361.304,141.785,362.439,142.659L362.439,142.659z M404.966,124.321c0-0.087-0.087-0.175-0.087-0.262h-4.279
		c-0.611-1.397-0.873-2.882-1.572-4.366c-0.524,1.572-0.961,2.969-1.484,4.366c-0.786,0-1.485,0-2.183,0s-1.484-0.175-2.27,0.175
		c1.223,0.961,2.445,1.746,3.58,2.62c-0.437,1.484-0.873,2.882-1.31,4.192c0.087,0,0.087,0.087,0.175,0.087
		c1.223-0.873,2.358-1.659,3.58-2.532c1.223,0.786,2.358,1.746,3.58,2.532c0.087-0.087,0.087-0.087,0.175-0.175
		c-0.437-1.397-0.873-2.707-1.31-4.192C402.695,125.98,403.83,125.194,404.966,124.321L404.966,124.321z M368.552,131.132
		c0.087,0,0.087,0.087,0.175,0.087c1.135-0.873,2.358-1.659,3.58-2.532c1.223,0.873,2.358,1.746,3.58,2.532
		c0.087,0,0.087-0.087,0.175-0.175c-0.437-1.397-0.873-2.794-1.31-4.192c1.223-0.873,2.358-1.746,3.493-2.62
		c0-0.087-0.087-0.175-0.087-0.262c-0.873,0-1.746,0-2.62,0c-2.096,0-1.572,0.262-2.27-1.572c-0.349-0.873-0.611-1.746-0.961-2.882
		c-0.175,0.524-0.349,0.699-0.437,0.961c-0.262,0.873-0.611,1.746-0.873,2.62c-0.262,0.786-0.262,0.786-1.135,0.786
		c-0.786,0-1.572,0-2.358,0c-0.349,0-0.699,0-1.048,0.087l-0.087,0.175c1.135,0.873,2.27,1.659,3.493,2.532
		C369.425,128.337,368.988,129.735,368.552,131.132L368.552,131.132z M406.625,158.289c0,0.087-0.087,0.175-0.087,0.262
		c1.135,0.873,2.358,1.746,3.493,2.62c-0.349,1.484-0.961,2.794-1.31,4.453c1.397-0.961,2.532-1.834,3.755-2.707
		c0.611,0.437,1.223,0.873,1.834,1.31s1.135,0.873,2.008,1.31c-0.524-1.659-0.961-3.056-1.397-4.453
		c1.223-0.961,2.445-1.746,3.493-2.62l-0.087-0.175h-4.366c-0.524-1.484-0.961-2.882-1.397-4.192c-0.087,0-0.175,0-0.175,0
		c-0.437,1.397-0.961,2.794-1.397,4.192C409.506,158.289,408.022,158.289,406.625,158.289z M345.498,105.808
		c1.223,0.873,2.445,1.746,3.58,2.532c0.087,0,0.087-0.087,0.175-0.087c-0.437-1.397-0.873-2.794-1.31-4.192
		c1.135-0.961,2.445-1.746,3.493-2.707c0-0.087-0.087-0.175-0.087-0.175h-4.366c-0.524-1.484-0.961-2.794-1.484-4.453
		c-0.175,0.524-0.349,0.699-0.437,0.961c-0.262,0.873-0.524,1.659-0.786,2.532c-0.262,0.873-0.262,0.873-1.223,0.873
		c-0.961,0-1.834,0-2.794,0c-0.175,0-0.437,0.087-0.786,0.087c0.349,0.262,0.524,0.437,0.786,0.611
		c0.699,0.524,1.397,1.048,2.096,1.484c0.786,0.524,0.786,0.611,0.437,1.484c-0.262,0.786-0.524,1.572-0.786,2.358
		c-0.087,0.349-0.175,0.611-0.262,0.961c0.087,0,0.087,0.087,0.175,0.087C343.053,107.555,344.276,106.681,345.498,105.808
		L345.498,105.808z M416.056,142.659c0.087-0.087,0.087-0.087,0.175-0.175c-0.349-1.135-0.786-2.358-1.135-3.493
		c-0.175-0.437-0.087-0.786,0.349-1.048c0.873-0.611,1.659-1.223,2.532-1.834c0.175-0.087,0.262-0.262,0.524-0.611h-4.453
		c-0.611-1.397-0.873-2.882-1.572-4.454c-0.524,1.572-0.961,2.969-1.484,4.366c-1.484,0.262-2.969-0.087-4.628,0.175
		c1.31,0.961,2.532,1.834,3.668,2.707c-0.437,1.484-0.873,2.794-1.31,4.192l0.175,0.087c1.223-0.873,2.358-1.659,3.58-2.532
		C413.698,140.999,414.921,141.785,416.056,142.659L416.056,142.659z M419.985,146.85c0,0.087-0.087,0.175-0.087,0.262
		c1.223,0.873,2.358,1.746,3.493,2.532c-0.437,1.484-0.873,2.882-1.31,4.192c0.087,0,0.087,0.087,0.175,0.175
		c1.223-0.873,2.358-1.746,3.58-2.62c0.611,0.437,1.223,0.873,1.834,1.31s1.135,0.961,1.921,1.223
		c-0.524-1.572-0.961-2.969-1.397-4.366c0.699-0.524,1.223-0.873,1.834-1.31c0.524-0.437,1.135-0.873,1.659-1.223
		c0-0.087-0.087-0.175-0.087-0.262h-4.366c-0.524-1.484-0.961-2.882-1.485-4.454c-0.175,0.437-0.349,0.699-0.437,0.961
		c-0.262,0.873-0.611,1.746-0.873,2.62c-0.262,0.873-0.262,0.873-1.135,0.873C422.343,146.85,421.208,146.85,419.985,146.85
		L419.985,146.85z M343.053,149.732c-0.437,1.484-0.873,2.882-1.31,4.192c0.087,0,0.087,0.087,0.175,0.087
		c1.223-0.873,2.358-1.659,3.58-2.532c1.223,0.873,2.358,1.746,3.58,2.532c0.087-0.087,0.087-0.087,0.175-0.175
		c-0.437-1.397-0.873-2.794-1.31-4.192c0.699-0.524,1.223-0.873,1.834-1.31c0.524-0.437,1.135-0.873,1.659-1.223
		c0-0.087-0.087-0.175-0.087-0.262h-4.279c-0.524-1.484-0.961-2.794-1.397-4.192c-0.087,0-0.175,0-0.262,0
		c-0.437,1.397-0.961,2.794-1.397,4.104c-1.572,0.087-2.969-0.087-4.453,0.262C340.696,147.985,341.831,148.771,343.053,149.732
		L343.053,149.732z M355.104,119.692c0.087,0,0.087,0.087,0.175,0.087c1.223-0.873,2.358-1.659,3.58-2.532
		c1.31,0.786,2.358,1.834,3.668,2.445c-0.262-1.223-0.699-2.445-1.048-3.58c-0.175-0.437-0.087-0.786,0.349-1.048
		c0.873-0.611,1.659-1.223,2.532-1.834c0.175-0.087,0.262-0.262,0.611-0.611h-4.541c-0.611-1.397-0.873-2.882-1.572-4.366
		c-0.524,1.659-0.961,2.969-1.484,4.366c-0.786,0-1.484,0-2.183,0s-1.485-0.175-2.27,0.175c1.223,0.961,2.445,1.746,3.58,2.62
		C355.977,116.985,355.541,118.295,355.104,119.692z M366.456,101.267c0,0.087,0,0.175-0.087,0.262
		c1.135,0.873,2.358,1.659,3.493,2.532c-0.262,0.786-0.437,1.484-0.699,2.183c-0.175,0.699-0.437,1.397-0.611,2.008
		c0.087,0,0.087,0.087,0.175,0.175c1.223-0.873,2.358-1.746,3.58-2.532c0.611,0.437,1.223,0.873,1.834,1.31
		c0.611,0.437,1.135,0.961,2.008,1.223c-0.524-1.572-0.961-2.969-1.397-4.366c0.699-0.524,1.31-0.961,1.834-1.31
		c0.524-0.437,1.135-0.873,1.659-1.223c-0.349-0.175-0.611-0.175-0.873-0.175c-0.786,0-1.659,0-2.445,0
		c-1.048,0-1.048,0-1.397-0.961c-0.262-0.873-0.524-1.746-0.873-2.532c-0.087-0.262-0.175-0.437-0.437-0.873
		c-0.524,1.572-0.961,2.969-1.484,4.366h-4.279V101.267z M428.281,126.853c1.223-0.873,2.358-1.746,3.493-2.62
		c0-0.087-0.087-0.175-0.087-0.262c-0.873,0-1.746,0-2.62,0c-2.096,0-1.572,0.349-2.27-1.659c-0.262-0.873-0.611-1.746-0.961-2.794
		c-0.175,0.437-0.349,0.611-0.349,0.873c-0.262,0.786-0.524,1.659-0.786,2.445c-0.437,1.223-0.175,1.135-1.484,1.135
		c-0.873,0-1.834,0-2.707,0c-0.175,0-0.437,0.087-0.786,0.175c1.31,0.961,2.445,1.834,3.58,2.62
		c-0.349,1.484-0.961,2.794-1.048,4.366c1.135-0.873,2.358-1.659,3.493-2.532c1.223,0.873,2.358,1.746,3.58,2.532
		c0.087-0.087,0.087-0.087,0.175-0.175C429.154,129.647,428.718,128.337,428.281,126.853L428.281,126.853z M341.743,131.132
		c0.087,0,0.087,0.087,0.175,0.175c1.223-0.873,2.358-1.659,3.58-2.532c0.611,0.437,1.223,0.873,1.746,1.31
		c0.611,0.437,1.223,0.786,1.746,1.223c0.087-0.087,0.087-0.087,0.175-0.175c-0.437-1.397-0.873-2.707-1.31-4.192
		c0.611-0.437,1.223-0.873,1.746-1.31c0.524-0.437,1.31-0.699,1.746-1.572h-4.454c-0.524-1.484-0.961-2.794-1.397-4.192
		c-0.087,0-0.175,0-0.175,0c-0.437,1.397-0.961,2.794-1.397,4.192c-1.485,0.175-2.969-0.087-4.628,0.175
		c1.048,0.786,1.921,1.397,2.707,2.008c1.135,0.786,1.048,0.611,0.611,1.921C342.355,129.123,342.005,130.084,341.743,131.132z
		 M406.625,112.619c0,0.087,0,0.175-0.087,0.262c1.135,0.873,2.358,1.659,3.493,2.532c-0.437,1.484-0.873,2.882-1.31,4.192
		l0.175,0.087c1.223-0.873,2.358-1.659,3.58-2.532c0.611,0.437,1.223,0.873,1.834,1.31s1.135,0.873,2.008,1.31
		c-0.437-1.397-0.786-2.62-1.223-3.755c-0.175-0.437-0.087-0.786,0.349-1.048c0.873-0.611,1.659-1.223,2.532-1.834
		c0.175-0.087,0.262-0.262,0.611-0.611h-4.541c-0.611-1.397-0.873-2.882-1.572-4.366c-0.524,1.572-0.961,2.969-1.484,4.453
		L406.625,112.619L406.625,112.619z M332.138,108.166c-0.175,0.437-0.349,0.699-0.437,0.961c-0.349,0.961-0.611,1.921-0.961,2.882
		c-0.175,0.524-0.437,0.611-0.873,0.611c-1.048,0-2.096,0-3.144,0c-0.175,0-0.437,0.087-0.786,0.175
		c1.31,0.961,2.445,1.834,3.58,2.707c-0.349,1.484-0.961,2.794-1.31,4.453c1.397-0.961,2.532-1.834,3.755-2.707
		c1.223,0.873,2.358,1.746,3.58,2.532c0.087-0.087,0.087-0.087,0.175-0.175c-0.437-1.397-0.873-2.794-1.31-4.192
		c0.699-0.524,1.223-0.873,1.834-1.31c0.524-0.437,1.223-0.699,1.746-1.484h-4.453C333.099,111.135,332.662,109.738,332.138,108.166
		L332.138,108.166z M271.797,227.537v60.602c-1.572,0.699-3.144,1.484-4.803,2.183c-8.296,3.58-16.853,6.113-25.673,7.772
		c-7.51,1.397-15.107,2.358-22.791,2.707c-3.58,0.175-7.248,0.349-10.828,0.524c-0.175,0-0.349,0-0.611,0c0-2.183,0-4.366,0-6.637
		c0.349-0.175,0.699-0.437,1.135-0.611c7.597-3.93,14.408-8.82,20.172-15.194c4.192-4.628,7.51-9.868,9.518-15.893
		c1.484-4.541,1.921-9.256,1.397-14.059c-0.087-0.786-0.175-1.572-0.262-2.358c0-0.699-0.262-1.223-0.873-1.485
		c-0.175-0.087-0.262-0.175-0.524-0.437C248.919,238.976,260.271,233.3,271.797,227.537L271.797,227.537z M214.426,103.101
		c15.718-17.727,35.104-29.515,57.284-37.025v65.667C252.586,122.225,233.55,112.707,214.426,103.101L214.426,103.101z"/>
	<path fill="#BB3F47" d="M325.589,204.309v-15.98c0.087-0.087,0.087-0.087,0.175-0.087l0.087-0.087c0.175,0,0.349-0.087,0.524-0.087
		c39.732,0,79.377,0,119.109,0c0.087,0,0.175,0.087,0.437,0.087c0,0.262,0,0.524-0.087,0.786c-1.484,5.065-3.493,9.868-5.851,14.583
		c-0.262,0.524-0.611,0.786-1.223,0.699c-0.175,0-0.437,0-0.611,0H327.248C326.637,204.309,326.2,204.309,325.589,204.309
		L325.589,204.309z M325.676,236.88c-0.262-1.135-0.175-15.107,0-15.98c0.786-0.175,101.208-0.262,102.954-0.087
		c-0.175,0.262-0.262,0.524-0.437,0.699c-4.366,5.414-9.169,10.304-14.408,14.845c-0.524,0.437-1.048,0.524-1.659,0.524
		c-15.718,0-31.436,0-47.155,0H325.676L325.676,236.88z M325.589,268.841v-15.282c0.873-0.262,58.507-0.349,62.262-0.087
		c-0.524,0.262-0.873,0.524-1.223,0.611c-9.78,4.803-19.997,8.383-30.651,10.828c-6.113,1.397-12.225,2.532-18.425,3.144
		c-3.58,0.349-7.161,0.524-10.741,0.786C326.462,268.841,326.113,268.841,325.589,268.841L325.589,268.841z M230.144,239.151
		c-2.794-1.834-11.439-9.868-12.662-11.701c0.262-0.175,0.524-0.349,0.786-0.437c4.017-2.008,8.034-4.017,12.138-6.025
		c0.437-0.175,0.961-0.349,1.484-0.349c11.527,0,23.053,0,34.58,0c0.175,0,0.349,0,0.524,0.175
		C254.595,226.926,242.37,233.038,230.144,239.151L230.144,239.151z M194.604,138.729c1.572-5.327,3.58-10.217,6.025-15.107
		c10.042,4.977,19.91,9.955,29.865,14.932c0,0.087,0,0.087-0.087,0.175H194.604z"/>
	<path fill="#FFFFFF" d="M385.667,94.456c-1.223,0.873-2.358,1.746-3.58,2.532c-0.087,0-0.087-0.087-0.175-0.087
		c0.437-1.397,0.873-2.794,1.31-4.279c-1.135-0.873-2.358-1.746-3.668-2.707c0.349-0.087,0.611-0.175,0.786-0.175
		c0.873,0,1.746,0,2.62,0c1.484,0,1.223-0.087,1.572-1.135c0.262-0.786,0.524-1.659,0.786-2.445
		c0.087-0.175,0.175-0.437,0.349-0.786c0.524,1.572,0.961,2.882,1.484,4.366c1.484,0,2.969,0,4.366,0.087l0.087,0.175
		c-1.135,0.873-2.27,1.746-3.493,2.62c0.437,1.397,0.873,2.794,1.31,4.192l-0.175,0.087
		C388.112,96.115,386.89,95.329,385.667,94.456L385.667,94.456z M372.394,74.11c0.437,1.397,0.873,2.707,1.397,4.192h4.366
		c0,0.087,0.087,0.175,0.087,0.262c-0.524,0.524-1.135,0.873-1.746,1.31c-0.611,0.437-1.135,0.873-1.746,1.31
		c0.437,1.484,0.873,2.882,1.31,4.279c-0.087,0-0.087,0.087-0.175,0.087c-1.223-0.873-2.358-1.659-3.58-2.532
		c-1.223,0.873-2.358,1.746-3.755,2.707c0.262-1.659,0.961-2.969,1.31-4.453c-1.135-0.873-2.27-1.659-3.58-2.62
		c0.873-0.349,1.572-0.175,2.27-0.175c0.699,0,1.397,0,2.183,0c0.524-1.484,0.961-2.882,1.397-4.192
		C372.219,74.197,372.307,74.197,372.394,74.11L372.394,74.11z M328.296,74.022c0.437-1.397,0.873-2.707,1.31-4.192
		c-1.223-0.873-2.358-1.746-3.493-2.62c0-0.087,0.087-0.175,0.087-0.175h4.366c0.524-1.484,0.961-2.882,1.397-4.279
		c0.087,0,0.087,0,0.175,0c0.262,0.699,0.437,1.31,0.699,2.008c0.262,0.699,0.437,1.397,0.699,2.183
		c1.484,0,2.969,0.087,4.453,0.087c0,0.087,0,0.175,0.087,0.175c-1.135,0.873-2.358,1.659-3.58,2.62
		c0.437,1.397,0.873,2.794,1.31,4.192c-0.087,0.087-0.087,0.087-0.175,0.175c-1.135-0.786-2.358-1.659-3.58-2.532
		c-1.223,0.873-2.358,1.746-3.58,2.532C328.47,74.11,328.383,74.022,328.296,74.022L328.296,74.022z M358.946,85.636
		c0.087,0.262,0.262,0.611,0.349,0.873c0.262,0.873,0.611,1.746,0.873,2.62c0.087,0.437,0.349,0.611,0.786,0.611
		c0.961,0,1.834,0,2.794,0c0.349,0,0.699,0,1.048,0.262c-1.135,0.873-2.27,1.659-3.493,2.62c0.437,1.397,0.873,2.794,1.31,4.192
		c-0.087,0-0.087,0.087-0.175,0.175c-1.223-0.873-2.358-1.659-3.58-2.532c-1.223,0.873-2.358,1.659-3.58,2.532
		c-0.087,0-0.087-0.087-0.175-0.175c0.437-1.397,0.873-2.707,1.31-4.192c-1.223-0.873-2.358-1.746-3.493-2.62
		c0-0.087,0-0.175,0.087-0.175c0.699,0,1.397,0,2.096,0s1.397,0,2.27,0c0.524-1.397,0.961-2.794,1.397-4.192
		C358.859,85.636,358.859,85.636,358.946,85.636L358.946,85.636z M332.225,85.549c0.437,1.397,0.873,2.707,1.397,4.192
		c1.397,0,2.882,0.087,4.366,0.087l0.087,0.175c-1.135,0.873-2.27,1.659-3.493,2.62c0.437,1.397,0.873,2.794,1.31,4.192
		c-0.087,0-0.087,0.087-0.175,0.175c-1.135-0.786-2.358-1.659-3.58-2.532c-1.223,0.873-2.358,1.659-3.58,2.532
		c-0.087,0-0.087-0.087-0.175-0.087c0.437-1.397,0.873-2.794,1.31-4.192c-1.223-0.873-2.358-1.746-3.668-2.707
		c1.659-0.262,3.144,0,4.628-0.175c0.437-1.397,0.961-2.794,1.397-4.192L332.225,85.549L332.225,85.549z M341.743,85.374
		c0.349-1.048,0.699-2.183,1.048-3.231c0.262-0.961,0.262-0.961-0.437-1.484c-0.873-0.699-1.834-1.31-2.882-2.096
		c0.873-0.349,1.572-0.175,2.27-0.175c0.699,0,1.397,0,2.183,0c0.524-1.484,0.961-2.794,1.397-4.192h0.175
		c0.437,1.397,0.873,2.707,1.397,4.192h4.541c-0.611,0.786-1.31,1.135-1.834,1.572c-0.611,0.437-1.135,0.873-1.746,1.31
		c0.437,1.484,0.873,2.794,1.31,4.192l-0.175,0.087c-1.135-0.873-2.358-1.659-3.58-2.532c-1.223,0.873-2.358,1.746-3.58,2.532
		C341.831,85.549,341.743,85.462,341.743,85.374L341.743,85.374z M435.529,165.363c0.175-0.699,0.437-1.397,0.611-2.008
		c0.175-0.524,0.262-0.961,0.524-1.484c0.175-0.524,0.087-0.873-0.349-1.223c-0.786-0.524-1.484-1.048-2.27-1.659
		c-0.175-0.175-0.437-0.349-0.786-0.611c1.572-0.175,2.969,0,4.541-0.175c0.437-1.397,0.873-2.794,1.397-4.104
		c0.087,0,0.175,0,0.175,0c0.524,1.31,0.873,2.794,1.397,4.192h4.454c-0.524,0.786-1.223,1.048-1.834,1.572
		c-0.524,0.437-1.135,0.873-1.746,1.31c0.437,1.397,0.873,2.794,1.31,4.104c-0.087,0.087-0.087,0.087-0.175,0.175
		c-0.611-0.437-1.135-0.786-1.746-1.223c-0.611-0.437-1.135-0.873-1.834-1.31c-1.223,0.873-2.445,1.746-3.58,2.62
		C435.616,165.45,435.529,165.45,435.529,165.363L435.529,165.363z M399.115,105.808c-1.223,0.873-2.445,1.746-3.58,2.62
		c-0.087,0-0.087-0.087-0.175-0.087c0.175-0.611,0.437-1.31,0.611-1.921c0.175-0.524,0.349-1.135,0.524-1.659
		c0.175-0.437,0.087-0.786-0.349-1.048c-1.048-0.699-2.008-1.484-2.969-2.358h4.366c0.524-1.484,0.961-2.882,1.484-4.453
		c0.786,1.484,0.961,2.969,1.572,4.366h4.279c0,0.087,0.087,0.175,0.087,0.175c-1.048,0.961-2.358,1.659-3.493,2.707
		c0.437,1.397,0.873,2.794,1.31,4.192l-0.175,0.087C401.473,107.555,400.337,106.681,399.115,105.808L399.115,105.808z
		 M385.754,131.219l1.397,4.192h4.279c0,0.087,0.087,0.175,0.087,0.262c-1.048,0.961-2.27,1.659-3.493,2.62
		c0.437,1.397,0.873,2.794,1.31,4.192c-0.087,0-0.087,0.087-0.175,0.175c-1.223-0.873-2.358-1.659-3.58-2.532
		c-1.223,0.873-2.445,1.746-3.58,2.62l-0.175-0.087c0.437-1.397,0.873-2.794,1.31-4.279c-1.223-0.873-2.358-1.746-3.493-2.532
		c0-0.087,0-0.175,0.087-0.175c1.397-0.087,2.882,0,4.366-0.087c0.437-1.397,0.961-2.794,1.397-4.192
		C385.667,131.307,385.754,131.307,385.754,131.219L385.754,131.219z M373.791,146.937h4.279c-0.961,1.135-2.27,1.834-3.406,2.882
		c0.437,1.397,0.873,2.794,1.31,4.192l-0.087,0.087c-1.223-0.873-2.358-1.659-3.58-2.62c-1.223,0.873-2.358,1.746-3.58,2.62
		c-0.087,0-0.087-0.087-0.175-0.087c0.437-1.397,0.873-2.794,1.31-4.279c-1.135-0.873-2.358-1.746-3.668-2.707
		c1.572-0.262,3.056,0,4.628-0.175c0.437-1.397,0.961-2.794,1.397-4.192c0.087,0,0.087,0,0.175,0
		C372.831,144.056,373.355,145.453,373.791,146.937L373.791,146.937z M395.273,153.923c0.437-1.397,0.873-2.707,1.31-4.192
		c-1.135-0.873-2.358-1.746-3.493-2.62c0-0.087,0.087-0.175,0.087-0.175h4.366c0.524-1.484,0.961-2.882,1.397-4.279
		c0.087,0,0.175,0,0.262,0c0.437,1.397,0.961,2.794,1.397,4.192h4.366c0,0.087,0,0.175,0.087,0.175
		c-1.135,0.873-2.27,1.659-3.493,2.62c0.437,1.397,0.873,2.794,1.397,4.366c-0.873-0.437-1.397-0.961-2.008-1.31
		c-0.611-0.437-1.135-0.873-1.834-1.31c-1.223,0.873-2.445,1.746-3.58,2.532C395.447,154.011,395.36,154.011,395.273,153.923
		L395.273,153.923z M335.631,165.45c-1.135-0.873-2.358-1.659-3.58-2.62c-1.223,0.873-2.358,1.746-3.58,2.62
		c-0.087,0-0.087-0.087-0.175-0.175c0.437-1.397,0.873-2.794,1.31-4.192c-1.223-0.873-2.358-1.746-3.668-2.707
		c1.659-0.175,3.056,0,4.628-0.175c0.437-1.397,0.961-2.794,1.397-4.192c0.087,0,0.087,0,0.175,0
		c0.437,1.397,0.961,2.794,1.397,4.279h4.366l0.087,0.175c-1.135,0.873-2.358,1.746-3.493,2.62c0.437,1.484,0.873,2.882,1.31,4.279
		C335.806,165.363,335.718,165.45,335.631,165.45L335.631,165.45z M379.816,158.289h4.279c0.437-1.397,0.961-2.794,1.397-4.192
		c0.786,1.31,1.048,2.707,1.659,4.192h4.453c-0.437,0.786-1.223,1.135-1.746,1.572c-0.524,0.437-1.135,0.873-1.746,1.31
		c0.437,1.397,0.873,2.794,1.31,4.104c-0.087,0.087-0.087,0.087-0.175,0.175c-1.223-0.786-2.27-1.659-3.58-2.532
		c-1.223,0.873-2.358,1.746-3.58,2.62c-0.087-0.087-0.087-0.087-0.175-0.175c0.437-1.397,0.873-2.707,1.31-4.192
		c-1.135-0.873-2.358-1.746-3.493-2.532C379.729,158.464,379.816,158.377,379.816,158.289L379.816,158.289z M361.304,161.084
		c0.437,1.484,0.873,2.882,1.31,4.192c-0.087,0-0.087,0.087-0.175,0.175c-1.135-0.873-2.358-1.659-3.58-2.532
		c-1.223,0.873-2.358,1.659-3.58,2.532c-0.087,0-0.087-0.087-0.175-0.087c0.437-1.397,0.873-2.707,1.31-4.192
		c-1.135-0.873-2.358-1.746-3.493-2.62c0-0.087,0-0.175,0.087-0.175c0.699,0,1.397,0,2.096,0s1.397,0,2.183,0
		c0.437-1.397,0.961-2.794,1.397-4.192c0.087,0,0.175,0,0.175,0c0.437,1.397,0.961,2.794,1.397,4.192h4.366
		c0,0.087,0.087,0.175,0.087,0.175C363.662,159.425,362.526,160.211,361.304,161.084L361.304,161.084z M388.112,115.501
		c0.437,1.484,0.873,2.882,1.31,4.192c-0.087,0-0.087,0.087-0.175,0.087c-1.135-0.873-2.358-1.659-3.58-2.532
		c-1.223,0.873-2.445,1.746-3.58,2.532c-0.087,0-0.087-0.087-0.175-0.087c0.437-1.397,0.873-2.707,1.31-4.192
		c-1.135-0.873-2.358-1.746-3.493-2.62c0-0.087,0.087-0.175,0.087-0.262c0.786,0,1.572,0,2.445,0c2.358,0,1.746,0.349,2.532-1.834
		c0.262-0.786,0.524-1.659,1.048-2.445c0.437,1.397,0.873,2.707,1.397,4.192c1.397,0,2.882,0,4.366,0.087l0.087,0.262
		C390.47,113.755,389.335,114.628,388.112,115.501z M334.496,138.292c0.437,1.484,0.873,2.882,1.31,4.192l-0.175,0.087
		c-1.135-0.786-2.358-1.659-3.58-2.532c-1.223,0.873-2.358,1.746-3.58,2.532c-0.087,0-0.087-0.087-0.175-0.087
		c0.437-1.397,0.873-2.794,1.31-4.279c-1.135-0.873-2.358-1.746-3.493-2.62c0-0.087,0-0.087,0.087-0.175
		c0.262,0,0.611-0.087,0.873-0.087c0.961,0,1.921,0,2.882,0c0.437,0,0.699-0.175,0.786-0.611c0.262-0.873,0.524-1.746,0.786-2.532
		c0.087-0.349,0.262-0.699,0.437-1.31c0.175,0.611,0.349,0.961,0.524,1.31c0.262,0.699,0.437,1.397,0.699,2.096
		c0.349,1.135,0.175,1.048,1.484,1.048h2.358c0.262,0,0.524,0,0.961,0c-0.437,0.699-1.223,1.048-1.746,1.484
		C335.718,137.419,335.194,137.856,334.496,138.292L334.496,138.292z M362.439,142.659c-1.135-0.873-2.358-1.659-3.58-2.532
		c-1.223,0.873-2.358,1.659-3.755,2.707c0.349-1.659,0.961-2.969,1.31-4.454c-1.135-0.873-2.27-1.659-3.406-2.532
		c1.397-0.349,2.882-0.175,4.366-0.349c0.437-1.397,0.873-2.794,1.484-4.366c0.699,1.572,0.961,2.969,1.572,4.454h4.279
		c0,0.087,0.087,0.175,0.087,0.175c-1.048,0.961-2.27,1.659-3.493,2.62c0.437,1.397,0.873,2.794,1.31,4.192
		C362.614,142.571,362.526,142.571,362.439,142.659L362.439,142.659z M404.966,124.321c-1.135,0.873-2.27,1.659-3.493,2.532
		c0.437,1.397,0.873,2.794,1.31,4.192c-0.087,0.087-0.087,0.087-0.175,0.175c-1.223-0.786-2.358-1.746-3.58-2.532
		c-1.223,0.873-2.358,1.746-3.58,2.532c-0.087,0-0.087-0.087-0.175-0.087c0.437-1.397,0.873-2.707,1.31-4.192
		c-1.135-0.873-2.358-1.659-3.58-2.62c0.786-0.349,1.572-0.175,2.27-0.175s1.397,0,2.183,0c0.437-1.397,0.961-2.794,1.485-4.366
		c0.786,1.484,0.961,2.969,1.572,4.366h4.279C404.966,124.146,404.966,124.233,404.966,124.321L404.966,124.321z M368.552,131.132
		c0.437-1.397,0.873-2.794,1.31-4.192c-1.135-0.873-2.358-1.746-3.493-2.532l0.087-0.175c0.349,0,0.699-0.087,1.048-0.087
		c0.786,0,1.572,0,2.358,0c0.873,0,0.873,0,1.135-0.786c0.262-0.873,0.611-1.746,0.873-2.62c0.087-0.262,0.175-0.524,0.437-0.961
		c0.349,1.135,0.611,2.008,0.961,2.882c0.699,1.921,0.175,1.572,2.27,1.572c0.873,0,1.746,0,2.62,0c0,0.087,0.087,0.175,0.087,0.262
		c-1.135,0.873-2.27,1.659-3.493,2.62c0.437,1.397,0.873,2.794,1.31,4.192c-0.087,0-0.087,0.087-0.175,0.175
		c-1.223-0.873-2.358-1.659-3.58-2.532c-1.223,0.873-2.358,1.746-3.58,2.532C368.639,131.132,368.552,131.132,368.552,131.132
		L368.552,131.132z M406.625,158.289h4.279c0.437-1.397,0.961-2.794,1.397-4.192c0.087,0,0.175,0,0.175,0
		c0.437,1.397,0.961,2.794,1.397,4.192h4.366l0.087,0.175c-1.048,0.873-2.27,1.659-3.493,2.62c0.437,1.397,0.873,2.794,1.397,4.453
		c-0.786-0.437-1.397-0.873-2.008-1.31c-0.611-0.437-1.223-0.873-1.834-1.31c-1.223,0.873-2.358,1.659-3.755,2.707
		c0.349-1.659,0.961-2.969,1.31-4.453c-1.135-0.873-2.27-1.746-3.493-2.62C406.625,158.464,406.625,158.377,406.625,158.289
		L406.625,158.289z M345.498,105.808c-1.223,0.873-2.358,1.746-3.58,2.62c-0.087,0-0.087-0.087-0.175-0.087
		c0.087-0.349,0.175-0.611,0.262-0.961c0.262-0.786,0.524-1.572,0.786-2.358c0.349-0.961,0.349-0.961-0.437-1.484
		c-0.699-0.524-1.397-1.048-2.096-1.484c-0.175-0.175-0.437-0.349-0.786-0.611c0.349-0.087,0.611-0.087,0.786-0.087
		c0.961,0,1.834,0,2.794,0c0.961,0,0.961,0,1.223-0.873c0.262-0.873,0.524-1.659,0.786-2.532c0.087-0.262,0.175-0.524,0.437-0.961
		c0.524,1.572,0.961,2.969,1.484,4.453h4.366c0,0.087,0.087,0.175,0.087,0.175c-1.048,0.961-2.358,1.659-3.493,2.707
		c0.437,1.397,0.873,2.794,1.31,4.192c-0.087,0-0.087,0.087-0.175,0.087C347.856,107.555,346.721,106.681,345.498,105.808z
		 M416.056,142.659c-1.135-0.873-2.358-1.659-3.58-2.532c-1.223,0.873-2.358,1.659-3.58,2.532l-0.175-0.087
		c0.437-1.397,0.873-2.707,1.31-4.192c-1.135-0.873-2.27-1.659-3.668-2.707c1.659-0.262,3.144,0,4.628-0.175
		c0.437-1.397,0.873-2.707,1.484-4.366c0.699,1.572,0.961,3.056,1.572,4.453h4.453c-0.262,0.262-0.437,0.437-0.524,0.611
		c-0.786,0.611-1.659,1.223-2.532,1.834c-0.437,0.262-0.524,0.611-0.349,1.048c0.437,1.135,0.786,2.358,1.135,3.493
		C416.143,142.484,416.143,142.571,416.056,142.659L416.056,142.659z M419.985,146.85c1.135,0,2.358,0,3.493,0
		c0.873,0,0.873,0,1.135-0.873c0.262-0.873,0.611-1.746,0.873-2.62c0.087-0.262,0.175-0.437,0.437-0.961
		c0.524,1.572,0.961,2.969,1.484,4.453h4.366c0,0.087,0.087,0.175,0.087,0.262c-0.524,0.437-1.135,0.873-1.659,1.223
		c-0.611,0.437-1.135,0.873-1.834,1.31c0.437,1.397,0.873,2.794,1.397,4.366c-0.786-0.349-1.397-0.873-1.921-1.223
		c-0.611-0.437-1.223-0.873-1.834-1.31c-1.223,0.873-2.445,1.746-3.58,2.62c-0.087,0-0.087-0.087-0.175-0.175
		c0.437-1.397,0.873-2.707,1.31-4.192c-1.135-0.873-2.358-1.746-3.493-2.532C419.985,147.025,419.985,146.937,419.985,146.85
		L419.985,146.85z M343.053,149.732c-1.223-0.873-2.358-1.746-3.493-2.532c1.485-0.349,2.882-0.175,4.453-0.262
		c0.437-1.397,0.873-2.794,1.397-4.104c0.087,0,0.175,0,0.262,0c0.437,1.397,0.961,2.707,1.397,4.192h4.279
		c0,0.087,0.087,0.175,0.087,0.262c-0.524,0.437-1.135,0.873-1.659,1.223c-0.611,0.437-1.135,0.873-1.834,1.31
		c0.437,1.397,0.873,2.794,1.31,4.192c-0.087,0.087-0.087,0.087-0.175,0.175c-1.135-0.786-2.27-1.659-3.58-2.532
		c-1.223,0.873-2.358,1.659-3.58,2.532c-0.087,0-0.087-0.087-0.175-0.087C342.18,152.526,342.617,151.129,343.053,149.732
		L343.053,149.732z M355.104,119.692c0.437-1.397,0.873-2.707,1.31-4.192c-1.135-0.873-2.27-1.659-3.58-2.62
		c0.786-0.349,1.572-0.175,2.27-0.175s1.397,0,2.183,0c0.437-1.397,0.961-2.794,1.485-4.366c0.699,1.484,0.961,2.969,1.572,4.366
		h4.541c-0.349,0.349-0.437,0.524-0.611,0.611c-0.786,0.611-1.659,1.223-2.532,1.834c-0.437,0.262-0.524,0.611-0.349,1.048
		c0.437,1.135,0.786,2.358,1.048,3.58c-1.31-0.611-2.358-1.659-3.668-2.445c-1.223,0.873-2.358,1.659-3.58,2.532
		C355.279,119.78,355.191,119.692,355.104,119.692z M366.456,101.267h4.279c0.524-1.484,0.961-2.882,1.484-4.366
		c0.175,0.437,0.349,0.611,0.437,0.873c0.262,0.873,0.524,1.659,0.873,2.532c0.349,0.961,0.349,0.961,1.397,0.961h2.445
		c0.262,0,0.524,0,0.873,0.175c-0.524,0.437-1.135,0.873-1.659,1.223c-0.611,0.437-1.135,0.873-1.834,1.31
		c0.437,1.397,0.873,2.794,1.397,4.366c-0.873-0.262-1.397-0.873-2.008-1.223c-0.611-0.437-1.223-0.873-1.834-1.31
		c-1.223,0.873-2.358,1.746-3.58,2.532c-0.087,0-0.087-0.087-0.175-0.175c0.175-0.699,0.437-1.397,0.611-2.008
		c0.175-0.699,0.437-1.397,0.699-2.183c-1.135-0.873-2.27-1.659-3.493-2.532C366.369,101.442,366.456,101.355,366.456,101.267
		L366.456,101.267z M428.281,126.853c0.437,1.397,0.873,2.794,1.31,4.192c-0.087,0.087-0.087,0.087-0.175,0.175
		c-1.223-0.786-2.358-1.746-3.58-2.532c-1.223,0.873-2.358,1.659-3.493,2.532c0.087-1.484,0.699-2.794,1.048-4.366
		c-1.135-0.786-2.27-1.659-3.58-2.62c0.349-0.087,0.524-0.175,0.786-0.175c0.873,0,1.834,0,2.707,0c1.223,0,1.048,0.087,1.485-1.135
		c0.262-0.786,0.524-1.659,0.786-2.445c0.087-0.175,0.175-0.437,0.349-0.873c0.349,1.048,0.611,1.921,0.961,2.794
		c0.699,1.921,0.175,1.572,2.27,1.659c0.873,0,1.746,0,2.62,0c0,0.087,0.087,0.175,0.087,0.262
		C430.639,125.107,429.504,125.98,428.281,126.853L428.281,126.853z M341.743,131.132c0.349-1.048,0.699-2.008,0.961-3.056
		c0.437-1.31,0.524-1.048-0.611-1.921c-0.786-0.611-1.659-1.223-2.707-2.008c1.659-0.262,3.144,0,4.628-0.175
		c0.437-1.397,0.961-2.794,1.397-4.192c0.087,0,0.175,0,0.175,0c0.437,1.397,0.873,2.707,1.397,4.192h4.453
		c-0.524,0.786-1.223,1.048-1.746,1.572c-0.524,0.437-1.135,0.873-1.746,1.31c0.437,1.397,0.873,2.794,1.31,4.192
		c-0.087,0.087-0.087,0.087-0.175,0.175c-0.611-0.437-1.223-0.786-1.746-1.223c-0.611-0.437-1.135-0.873-1.746-1.31
		c-1.223,0.873-2.445,1.746-3.58,2.532C341.831,131.219,341.743,131.132,341.743,131.132z M406.625,112.619h4.279
		c0.524-1.484,0.961-2.794,1.485-4.453c0.699,1.484,0.961,2.969,1.572,4.366h4.541c-0.349,0.349-0.437,0.524-0.611,0.611
		c-0.786,0.611-1.659,1.223-2.532,1.834c-0.437,0.262-0.524,0.611-0.349,1.048c0.437,1.135,0.786,2.358,1.223,3.755
		c-0.873-0.437-1.397-0.873-2.008-1.31c-0.611-0.437-1.135-0.873-1.834-1.31c-1.223,0.873-2.358,1.659-3.58,2.532l-0.175-0.087
		c0.437-1.397,0.873-2.707,1.31-4.192c-1.135-0.873-2.27-1.659-3.493-2.532C406.625,112.881,406.625,112.794,406.625,112.619
		L406.625,112.619z M332.138,108.166c0.524,1.572,0.961,2.969,1.484,4.453h4.454c-0.524,0.786-1.223,1.048-1.746,1.484
		c-0.524,0.437-1.135,0.873-1.834,1.31c0.437,1.397,0.873,2.794,1.31,4.192c-0.087,0.087-0.087,0.087-0.175,0.175
		c-1.223-0.786-2.358-1.746-3.58-2.532c-1.223,0.873-2.358,1.659-3.755,2.707c0.349-1.659,0.961-2.969,1.31-4.453
		c-1.135-0.873-2.27-1.746-3.58-2.707c0.349-0.087,0.611-0.175,0.786-0.175c1.048,0,2.096,0,3.144,0
		c0.524,0,0.786-0.175,0.873-0.611c0.262-0.961,0.611-1.921,0.961-2.882C331.789,108.864,331.963,108.69,332.138,108.166
		L332.138,108.166z"/>
</g>
</svg>
