<?xml version="1.0" encoding="utf-8"?>
<!-- Generator: Adobe Illustrator 19.0.0, SVG Export Plug-In . SVG Version: 6.00 Build 0)  -->
<svg version="1.1" id="Layer_1" xmlns="http://www.w3.org/2000/svg" xmlns:xlink="http://www.w3.org/1999/xlink" x="0px" y="0px"
	 viewBox="0 0 640 360" enable-background="new 0 0 640 360" xml:space="preserve">
<rect fill="#0C0C0C" width="640" height="360"/>
<g>
	<path id="XMLID_18_" fill="#FFFFFF" d="M222.391,154.687c3.322-1.146,1.146-1.146,6.645-4.354
		c8.822-6.645,16.498-1.146,21.997-1.146c0,7.676,0,16.498,0,24.174c0,17.643,1.146,13.175-5.499,19.82
		c-3.322-2.177-5.499-3.322-7.676-6.645c-3.322-6.645-3.322-10.998-3.322-17.643c0-10.998,5.499-14.321,9.853-19.82
		c-10.998,2.177-19.82,10.998-21.997,23.142c-6.645,40.786,55.107,48.462,62.783,13.175l-1.146-9.853
		c-6.645,6.645-4.354,19.82-33.11,19.82c-12.144,0,13.175-8.822,13.175-14.321v-28.642c14.321,0,20.851,0,27.496-13.175
		c-9.853,2.177-3.322,2.177-15.352,2.177c-16.498,0-31.85-12.144-47.431,0C225.714,143.689,222.391,149.188,222.391,154.687z"/>
	<path id="XMLID_17_" fill="#FFFFFF" d="M51.687,154.687c3.322-1.146,1.146-1.146,6.645-4.354
		c8.822-6.645,16.498-1.146,21.997-1.146v39.64c-2.177,1.146-4.354,3.322-6.645,4.354c-10.998-9.853-9.853-13.175-9.853-26.35
		c0-7.676,7.676-14.321,9.853-17.643c-6.645,1.146-10.998,4.354-15.352,8.822c-16.498,17.643-4.354,48.462,24.174,50.639
		c16.498,1.146,31.85-10.998,31.85-34.141l-4.354,6.645c-1.146,3.322-3.322,4.354-5.499,6.645
		c-8.822,7.676-14.321,7.676-24.174,7.676c-7.676,0-1.146-3.322,3.322-6.645c12.144-7.676,9.853,1.146,9.853-36.432
		c14.321,0,20.851,0,27.496-13.175c-9.853,2.177-3.322,2.177-15.352,2.177c-16.498,0-31.85-12.144-47.431,0
		C55.009,143.689,51.687,149.188,51.687,154.687z"/>
	<path fill="#FFFFFF" d="M396.418,164.654c9.853,1.146,6.645,9.853,6.645,30.818c0,4.354,0,0-1.146,3.322
		c-4.354-1.146-2.177-1.146-5.499-3.322V164.654z M383.243,170.154c0,25.319-3.322,29.673,8.822,37.463
		c3.322-2.177,8.822-6.645,12.144-7.676c6.645,3.322,8.822,5.499,8.822,15.352c-5.499,0-10.998-6.645-19.82-6.645
		c-7.676,0-15.352,4.354-16.498,10.998c12.144-3.322,15.352-4.354,28.642,4.354c4.354-7.676,17.643-8.822,17.643-20.851
		c0-6.645-3.322-5.499-5.499-9.853c-2.177-5.499,2.177-21.997-1.146-27.496c0-1.146-6.645-7.676-7.676-7.676
		S383.243,164.654,383.243,170.154z"/>
	<path id="XMLID_14_" fill="#FFFFFF" d="M114.469,151.479c2.177-1.146,3.322-1.146,6.645-1.146v46.285
		c0,3.322,8.822,8.822,10.998,10.998c3.322-2.177,5.499-6.645,9.853-7.676v-2.177c-9.853,0-6.645-6.645-6.645-29.673
		c8.822-2.177,8.822-5.499,8.822,17.643c0,9.853-2.177,14.321,9.853,21.997c1.146-1.146,4.354-3.322,5.499-4.354
		c3.322-2.177,2.177-3.322,6.645-4.354v-2.177c-12.144,2.177-8.822-5.499-8.822-17.643c0-14.321,1.146-15.352-7.676-20.851
		c-5.499,1.146-9.853,5.499-14.321,7.676c0-14.321,2.177-17.643-8.822-25.319L114.469,151.479z"/>
	<path id="XMLID_13_" fill="#FFFFFF" d="M537.45,151.479c2.177-1.146,3.322-1.146,6.645-1.146v46.285
		c0,3.322,8.822,8.822,10.998,10.998c3.323-2.177,5.499-6.645,9.853-7.676v-2.177c-9.853,0-6.645-6.645-6.645-29.673
		c8.822-2.177,8.822-5.499,8.822,17.643c0,9.853-2.177,14.321,9.853,21.997c6.645-4.354,7.676-7.676,12.144-8.822v-2.177
		c-12.144,2.177-8.822-5.499-8.822-17.643c0-14.321,1.146-15.352-7.676-20.851c-5.499,1.146-9.853,5.499-14.321,7.676
		c0-14.321,2.177-17.643-8.822-25.319L537.45,151.479z"/>
	<path fill="#FFFFFF" d="M515.453,166.831c10.998-2.177,8.822-1.146,8.822,29.673c0,3.322-2.177,3.322-5.499,3.322
		c-5.499,0-3.322-8.822-3.322-14.321C515.453,178.975,515.453,173.476,515.453,166.831z M495.518,165.686v2.177
		c3.322-1.146,6.645-2.177,6.645,2.177v40.786c0,3.322-1.146,1.146-2.177,5.499c3.322,2.177,6.645,5.499,9.853,7.676
		c2.177-3.322,4.354-6.645,8.822-7.676v-2.177c-4.354-1.146-3.322,0-3.322-13.175c3.322,2.177,7.676,4.354,10.998,6.645
		c14.321-9.853,10.998-3.322,10.998-40.786c0-2.177-6.645-8.822-8.822-8.822c-1.146,0-10.998,5.499-13.175,6.645l-7.676-6.645
		C502.163,159.155,501.018,164.654,495.518,165.686z"/>
	<path fill="#FFFFFF" d="M471.345,164.654c5.499,0,3.322,1.146,6.645,3.322v29.673c-8.822,2.177-6.645-3.322-6.645-12.144
		C471.345,178.975,471.345,171.185,471.345,164.654z M457.024,170.154c0,29.673-3.322,28.642,9.853,37.463
		c4.354-2.177,6.645-5.499,10.998-7.676l9.853,7.676c2.177-1.146,3.322-3.322,5.499-4.354c3.322-2.177,4.354-3.322,5.499-6.645
		c-9.853,4.354-7.676-8.822-7.676-17.643c0-4.354,1.146-9.853-1.146-14.321c0-1.146-5.499-6.645-6.645-6.645
		c-3.322,0-10.998,3.322-14.321,4.354C462.523,165.686,457.024,165.686,457.024,170.154z"/>
	<path fill="#FFFFFF" d="M361.132,182.183v-16.498c3.322,2.177,5.499,7.676,6.645,12.144
		C363.308,178.975,364.454,180.006,361.132,182.183z M346.811,167.977c0,36.432-4.354,28.642,15.352,39.64
		c3.322-2.177,4.354-3.322,7.676-6.645c2.177-1.146,2.177-1.146,4.354-2.177c3.322-3.322,2.177-1.146,3.322-4.354
		c-4.354,1.146-3.322,3.322-8.822,3.322c-2.177,0-3.322-2.177-7.676-3.322v-9.853l18.674-10.998
		c-3.322-5.499-5.499-10.998-8.822-16.498C360.1,162.478,346.811,161.332,346.811,167.977z"/>
	<path fill="#FFFFFF" d="M303.848,182.183v-16.498c1.146,1.146,0,0,2.177,2.177l4.354,8.822L303.848,182.183z M289.527,164.654
		v35.287c3.322,1.146,12.144,5.499,15.352,7.676c2.177-2.177,5.499-4.354,7.676-6.645c5.499-3.322,6.645-3.322,7.676-6.645
		c-3.322,1.146-4.354,3.322-7.676,3.322c-9.853,0-8.822-6.645-8.822-10.998c0-5.499,13.175-8.822,17.643-14.321
		c-1.146-2.177-6.645-14.321-8.822-14.321C308.316,158.01,293.995,163.509,289.527,164.654z"/>
	<path fill="#FFFFFF" d="M180.574,182.183V164.54l3.322,5.499c1.146,2.177,2.177,3.322,3.322,6.645
		C186.073,178.975,182.751,181.152,180.574,182.183z M167.285,164.654v35.287c5.499,2.177,9.853,4.354,14.321,7.676
		c3.322-2.177,14.321-9.853,16.498-13.175c-3.322,1.146-6.645,3.322-8.822,3.322s-5.499-2.177-8.822-3.322v-9.853
		c6.645-3.322,12.144-7.676,18.674-10.998c-1.146-4.354-6.645-12.144-8.822-16.498L167.285,164.654z"/>
	<path id="XMLID_2_" fill="#FFFFFF" d="M319.315,150.334h2.177c3.322,0,4.354-1.146,4.354,9.853v37.463
		c1.146,4.354,5.499,6.645,9.853,9.853c2.177-2.177,3.322-2.177,5.499-4.354c3.322-3.322,3.322-1.146,4.354-5.499
		c-7.676,0-6.645-3.322-6.645-10.998v-36.318c-1.146-4.354-5.499-7.676-8.822-9.853C328.136,141.512,320.46,148.157,319.315,150.334
		z"/>
	<path id="XMLID_1_" fill="#FFFFFF" d="M419.561,167.977c7.676-2.177,7.676-6.645,7.676,18.674c0,12.144-2.177,13.175,9.853,20.851
		c3.322-2.177,9.853-7.676,10.998-10.998c-10.998,5.499-7.676-10.998-7.676-29.673c4.354,1.146,2.177,2.177,8.822,5.499
		c5.499-5.499,8.822-6.645,9.853-9.853c-10.998,2.177-6.645-2.177-13.175-4.354l-7.676,6.645l-6.645-6.645
		C428.382,159.155,420.592,165.686,419.561,167.977z"/>
</g>
</svg>
