<?xml version="1.0" encoding="utf-8"?>
<!-- Generator: Adobe Illustrator 19.0.0, SVG Export Plug-In . SVG Version: 6.00 Build 0)  -->
<svg version="1.1" id="Layer_1" xmlns="http://www.w3.org/2000/svg" xmlns:xlink="http://www.w3.org/1999/xlink" x="0px" y="0px"
	 viewBox="0 0 640 360" enable-background="new 0 0 640 360" xml:space="preserve">
<rect fill="#107C94" width="640" height="360"/>
<g>
	<path fill="#FAFEFA" d="M381.583,214.657c-2.075-9.453,8.07-11.989,16.485-9.799C402.218,214.657,389.191,217.194,381.583,214.657
		L381.583,214.657z M385.041,186.183c-4.496-9.568,4.265-13.719,9.453-9.453C399.797,180.88,396.224,189.872,385.041,186.183
		L385.041,186.183z M402.449,169.351l-3.804-2.536l-3.458,3.689c-7.609-1.614-14.526-0.231-17.062,5.764
		c-3.458,8.531,2.075,11.989,5.879,15.448c-7.493,5.303-5.764,5.188-1.614,9.914c-15.448,7.032-7.493,26.4,15.217,16.831
		c5.188-2.19,11.067-9.223,6.341-15.563c-5.303-7.147-15.217-0.346-18.676-6.225c1.729-5.418,10.145-2.421,14.641-7.609
		c4.381-5.072,3.113-11.644-0.461-15.794L402.449,169.351L402.449,169.351z"/>
	<path fill="#FAFEFA" d="M296.159,212.006c-2.536,3.574-22.134,6.686-16.024-3.458c1.499-2.421,5.879-4.381,10.03-4.727
		C296.043,203.475,299.617,207.395,296.159,212.006L296.159,212.006z M285.783,175.577c8.531-2.767,12.335,8.646,5.303,11.413
		C281.864,190.563,277.253,178.343,285.783,175.577L285.783,175.577z M293.623,170.62c-8.07-1.383-14.41-0.576-17.292,5.764
		c-3.689,8.07,2.075,12.22,5.879,15.448c-2.421,1.614-8.185,3.113-2.651,9.223l1.038,1.153c-13.373,4.15-9.799,25.708,13.603,17.177
		c5.418-2.075,12.796-7.032,8.877-15.217c-3.343-6.686-14.18-2.882-19.483-6.225c1.038-6.917,9.453-2.882,14.295-8.3
		c4.727-5.303,3.228-11.413,0-16.024l2.651-3.574c-1.614-1.499-1.499-1.845-3.92-2.997L293.623,170.62L293.623,170.62z"/>
	<path id="XMLID_17_" fill="#029EE3" d="M90.611,193.561c3.458,3.574,7.032,4.035,13.257,4.842
		c1.96-7.954,12.912-27.668,17.753-35.737c2.19-3.689,5.188-8.07,6.686-11.989l-14.41,0.231c-4.15,5.995-8.3,13.142-12.22,20.059
		c-5.072,8.877-5.879,12.22-9.453,19.829L90.611,193.561L90.611,193.561z"/>
	<path id="XMLID_16_" fill="#FAFEFA" d="M535.946,203.014l6.686,0.231v-16.946c7.954,2.882,12.105,8.646,15.678,16.831l7.147,0.231
		c-1.153-4.15-3.228-7.609-5.534-10.952c-3.458-4.957-5.995-4.496-8.531-8.3c2.19-2.306,3.92-4.381,6.11-7.147
		c1.96-2.421,4.381-5.764,5.995-7.609c-8.646-1.383-8.416,0.692-12.105,5.649l-8.877,10.606l0.115-34.124l-6.341-0.115
		L535.946,203.014L535.946,203.014z"/>
	<path fill="#FAFEFA" d="M415.361,182.609c1.153-5.534,2.997-8.07,8.531-8.877c6.456-0.922,8.185,3.113,8.416,8.992L415.361,182.609
		L415.361,182.609z M438.186,199.786v-5.764c-5.303,2.075-21.673,11.759-23.518-6.802l23.518,0.115
		c4.496-22.365-22.941-24.44-28.821-8.07C401.411,200.939,425.851,210.738,438.186,199.786L438.186,199.786z"/>
	<path fill="#FAFEFA" d="M362.1,187.105l-0.231,8.761C351.609,205.55,344.116,191.255,362.1,187.105L362.1,187.105z
		 M345.154,179.842c2.075-1.845,5.649-4.381,10.03-4.957c7.147-0.807,6.571,1.845,6.686,7.954
		c-7.378,1.614-16.37,5.418-17.753,12.335c-2.075,11.067,12.335,10.375,16.601,5.649c0.231,0.115,0.346,0.231,0.576,0.346
		l2.997,2.075c1.729,0.692,2.651,0.692,4.496,0.231c4.265-0.922,4.842-2.075,4.611-5.995c-6.686,3.113-4.842-1.153-4.727-8.531
		c0-4.265,0.461-11.298-1.038-15.102c-3.574-9.338-16.139-5.072-22.826-1.614L345.154,179.842L345.154,179.842z"/>
	<path fill="#FAFEFA" d="M222.839,187.22c0.461,2.767,1.153,7.609-0.807,9.914c-1.268,1.383-6.341,2.997-8.531,1.153
		C207.622,193.1,218.804,188.142,222.839,187.22L222.839,187.22z M206.239,179.957c3.92-2.421,4.035-4.381,9.684-4.957
		c6.917-0.692,7.147,1.729,7.263,7.609c-5.303,2.306-15.563,4.727-17.523,12.22c-2.997,11.643,10.837,10.145,16.946,6.225
		c5.303,3.458,12.22,5.303,12.22-3.343l-4.265,1.383c-2.767-9.684,2.997-23.863-4.957-28.821c-3.689-2.19-9.453-2.421-13.603-1.153
		C205.778,171.311,206.239,173.271,206.239,179.957L206.239,179.957z"/>
	<path id="XMLID_9_" fill="#FAFEFA" d="M329.36,199.671l1.614,3.574l5.418-0.231l0.115-33.778l-6.686-0.346
		c-0.115,7.032,0.461,15.217,0,21.904c-0.346,5.995-7.839,9.914-13.373,6.225c-3.228-2.536-1.845-22.941-1.96-28.014l-6.686,0.231
		c-0.231,20.405-3.458,34.469,10.606,34.7C323.826,204.051,325.556,202.322,329.36,199.671L329.36,199.671z"/>
	<path id="XMLID_8_" fill="#FAFEFA" d="M508.509,173.156l-1.153-3.92h-6.341v34.239l6.686-0.115c0.346-6.917-0.231-13.949,0-20.751
		c0.231-8.416,9.453-9.914,13.142-7.839c5.303,3.92,2.075,20.981,2.767,28.821l6.456-0.231c0.231-5.995,0.692-24.67-1.153-29.051
		C525.57,166.354,512.889,167.392,508.509,173.156L508.509,173.156z"/>
	<path id="XMLID_7_" fill="#FAFEFA" d="M247.394,173.271c-0.231-0.346-0.231-0.922-0.576-1.614
		c-0.115-0.231-0.231-0.461-0.231-0.576l-0.576-1.153c-0.115-0.231-0.231-0.461-0.231-0.692h-5.764v34.124h6.571
		c0.576-6.341,0.115-13.488,0.115-19.944c0.115-6.686,4.381-10.03,11.644-9.453c6.571,4.727,3.458,20.174,3.804,29.051l6.571,0.231
		c0.115-6.11,0.692-24.67-1.153-29.051C264.11,165.432,252.352,168.544,247.394,173.271L247.394,173.271z"/>
	<path id="XMLID_6_" fill="#FAFEFA" d="M172.922,151.367c-1.153,4.15-0.807,45.191-0.346,51.877l29.512-0.346l-0.115-5.879h-22.365
		l-0.231-45.652L172.922,151.367L172.922,151.367z"/>
	<polygon id="XMLID_5_" fill="#FAFEFA" points="454.787,203.244 484.299,203.244 484.299,197.019 461.819,197.019 461.473,151.367 
		454.787,151.483 	"/>
	<path id="XMLID_4_" fill="#FFFFFF" d="M117.702,217.078c-6.225-0.692-9.799-1.153-13.257-4.842
		c-11.182-11.759,19.829-51.992,23.633-61.561l-14.526,0.461c-7.378,15.909-53.376,72.167,1.038,76.317
		c8.416,0.692,31.357,1.268,38.504-1.845l0.461-9.453C141.104,217.078,130.152,218.577,117.702,217.078L117.702,217.078z"/>
	<path id="XMLID_3_" fill="#FAFEFA" d="M103.983,198.403c-6.225-0.692-9.799-1.153-13.257-4.842
		c-11.298-11.759,19.829-51.992,23.518-61.561l-14.526,0.461c-7.378,15.909-53.376,72.167,1.038,76.317
		c8.416,0.692,31.357,1.268,38.504-1.845l0.461-9.453C127.386,198.403,116.319,199.901,103.983,198.403L103.983,198.403z"/>
	<g>
		<path fill="#FFFFFF" d="M489.372,162.665v-6.686h6.341v6.686H489.372L489.372,162.665z M489.372,203.244v-34.124h6.341v34.124
			H489.372z"/>
	</g>
</g>
</svg>
