<?xml version="1.0" encoding="utf-8"?>
<!-- Generator: Adobe Illustrator 19.0.0, SVG Export Plug-In . SVG Version: 6.00 Build 0)  -->
<svg version="1.1" id="Layer_1" xmlns="http://www.w3.org/2000/svg" xmlns:xlink="http://www.w3.org/1999/xlink" x="0px" y="0px"
	 viewBox="0 0 640 360" enable-background="new 0 0 640 360" xml:space="preserve">
<rect fill="#C7002B" width="640" height="360"/>
<path fill="#FFFFFF" d="M451.512,243.997c-21.508,0.105-28.747-2.833-37.98-10.072c-9.233-7.134-13.534-18.675-14.269-33.258h29.376
	c1.364,15.003,9.652,20.983,23.711,20.773c10.806,0,20.773-2.623,19.514-13.534c-0.734-11.331-18.15-9.442-40.602-18.99
	c-15.842-4.721-30.845-17.101-29.481-36.616c1.993-26.439,25.809-36.196,48.261-36.301c26.649,0,47.107,13.01,47.527,40.393
	l-28.852-0.42c-0.105-16.157-18.046-16.157-20.249-16.157c-11.646-0.42-17.416,5.875-16.996,11.016
	c0.105,9.442,11.855,12.065,23.291,15.737c21.613,6.924,46.897,11.016,47.002,39.763c-0.21,11.436-3.462,19.934-13.114,27.698
	C481.098,239.591,468.403,243.892,451.512,243.997L451.512,243.997z M123.755,121.036h93.48v24.655h-63.054v22.662h63.054v24.026
	h-63.054v24.76h63.054v24.865h-93.48V121.036z M229.3,121.036h30.845v94.949h56.969v26.019H229.3L229.3,121.036L229.3,121.036z
	 M294.453,121.036h100.824v24.655H360.34v96.313H329.6v-96.313h-35.042L294.453,121.036z M494.318,135.2v-11.96h-4.092v-2.413
	h11.016v2.413h-4.092v11.96H494.318z M502.816,135.2v-14.373h4.197l2.518,9.862l2.518-9.862h4.197V135.2h-2.623v-11.331
	l-2.728,11.331h-2.728l-2.728-11.331V135.2H502.816z"/>
</svg>
