<?xml version="1.0" encoding="utf-8"?>
<!-- Generator: Adobe Illustrator 19.0.0, SVG Export Plug-In . SVG Version: 6.00 Build 0)  -->
<svg version="1.1" id="Layer_1" xmlns="http://www.w3.org/2000/svg" xmlns:xlink="http://www.w3.org/1999/xlink" x="0px" y="0px"
	 viewBox="0 0 640 360" enable-background="new 0 0 640 360" xml:space="preserve">
<rect id="XMLID_1_" fill="#BF4131" width="640" height="360"/>
<g id="XMLID_67_">
	<path id="XMLID_66_" fill="#722B2D" d="M267.759,94.356l0.491-2.294c6.553-1.229,13.516-1.884,20.069-3.113
		c5.898-1.147,13.926-3.44,19.414-3.932l-10.649,3.113c-0.328,0.164-1.884,0.41-1.884,0.41c-0.164,0-0.328,0.164-0.492,0.164
		l-1.884,0.901c14.171,2.048,24.165-0.41,35.961-7.29c2.785-1.72,6.553-4.833,8.683-5.734c-1.802,12.123-4.096,16.055-2.13,29.571
		c2.294-2.785,0.655-1.802,1.884-1.229l0.328,2.785l2.785-0.655c1.147,3.113-0.41,2.539-2.457,3.686l1.065,11.304
		c2.785-6.881,1.802-8.273,6.389-13.516c-2.457,10.731-4.997,16.792-4.997,28.997c1.065-0.328,0.655,1.474,0.901-1.229
		c0.164-2.457,2.13-20.724,4.751-22.608c5.406-2.294,6.963,4.014,6.635,8.765c1.229-1.065,4.997-7.946,5.406-9.502
		c0.819,8.355-6.881,21.215-9.912,26.949c-3.768,7.29-8.028,20.724-7.209,30.39c5.406,2.457,9.338,4.751,13.844,7.946
		c7.209,4.833,5.57,4.178,7.29,14.99c9.83-1.474,13.844-10.239,15.236-20.396c0.819-6.635,0.655-28.096,3.686-31.946l-0.328,6.881
		c1.884-2.13,5.816-21.297,6.389-24.001c3.113-13.106,9.666-34.24-6.553-44.97c-6.553-4.423-13.434-7.618-23.346-4.751l-6.717-6.717
		c-1.474-1.065-2.212-0.819-3.113-1.556c-2.212-1.802-0.164-1.802-4.833-4.014c-16.219-7.7-30.554-6.389-47.675-3.44
		c-16.956,2.785-33.012,13.106-30.964,34.404c0.655,0.328,0.655,0.41,1.474,0.819C267.103,94.356,266.038,93.864,267.759,94.356
		L267.759,94.356z"/>
	<path id="XMLID_139_" fill="#EBCAA7" d="M296.265,144.569c2.13,0.164,1.393-0.164,2.13-0.737l-2.621-0.491
		c0.41-0.164,1.556-0.164,2.048-0.164c1.556,0.164,0.328-0.164,1.556,0.819c2.539,0.328,0.737,0.164,1.474-0.737
		c-2.949-0.737-1.556-0.164-1.147-0.737c2.949-0.41,0.901-0.328,2.048,0.819c1.229,0.41,0.901,0.655,0.901-0.655
		c-1.884-1.474-1.72,0.328-0.41-0.737c1.147-0.901,0.737-0.164,1.147,0.491v0.328c0.901-0.328,0.737,0,0.655-0.901
		c0.164-0.164,0.492-0.164,0.655-0.164c0,0-0.164,0.164-0.164,0c0-0.164-0.164,0-0.164,0.164l-0.328,0.164h0.328
		c-0.901-0.737-2.212-0.491,2.457-2.13c0.164,3.113-7.29,12.123-13.106,13.106c-8.11,1.393-13.598-3.768-14.335-10.731
		c2.294,0.41,4.014,1.556,8.028,1.802C292.661,144.241,294.627,142.357,296.265,144.569L296.265,144.569z M337.878,110.902
		c-4.751,1.065-9.093,3.113-13.27,4.751c-3.113,1.147-6.553,5.816-11.714,5.324c-0.164,0.164-0.328,0.164-0.491,0.164
		c-0.164,0.164-0.328,0.164-0.492,0.164c-2.785,1.147,2.13-0.491-0.901,0.41c-3.44,1.065-9.666,0.41-13.106-1.393
		c-3.932-2.13-4.505-7.454-9.666-6.635c-3.686,4.505-1.393,7.045-8.519,9.338c-4.423,1.393-10.403,0.901-14.499-0.737
		c-1.72,12.287,3.768,21.461,8.355,29.734c2.294,4.178,3.686,8.437,6.389,12.615c3.604,5.324,6.963,4.341,13.844,5.406
		c1.72-0.41,4.014-0.901,5.816-1.802c0.164,3.113,1.474,8.437-0.41,11.386c-1.72,2.621-4.423,4.505-5.406,8.355
		c-0.819,3.113,0.164,22.69,1.474,24.574c-1.393-0.491-0.901-0.737-0.901,0.737c1.229-0.164,1.147,0.328,0.901-0.737
		c2.457-0.164,10.567-3.604,11.96-5.488l-0.819,0.164c4.751-6.635,9.174-19.495,10.895-22.69l7.7-12.778
		c-1.065-2.212-2.294-1.802-2.539-5.898c-0.164-2.785,0-5.406,0.41-7.946c-1.229-1.065-0.737,1.229-0.737-1.884
		c0-2.13,1.474-3.44,2.621-4.505l14.663-13.188c0.164-0.164,0.328-0.164,0.328-0.164l0.737-0.41c0-12.123,2.539-18.267,4.997-28.997
		c-4.669,5.161-3.686,6.635-6.389,13.516L337.878,110.902L337.878,110.902z"/>
	<path id="XMLID_136_" fill="#9DB47E" d="M345.087,222.14l1.884,27.031c-1.393,1.474-4.669,4.997-6.389,5.734L345.087,222.14
		L345.087,222.14z M316.334,203.136l2.785-0.328c3.44,3.44,6.635,18.512,9.338,24.41c2.621,0.164,3.277-0.491,4.423,1.72
		c1.72,3.44,2.048,11.714-0.328,14.007c-1.065-0.164-0.819-0.328-0.41,0.737l0.41-0.737c1.393,0.819,0.737,0.164,1.474,1.474
		c0.164,0.164,0.41,1.474,0.491,1.802l1.72,10.321c-0.491,1.229,0.737,1.229-1.474,0.655l-0.41-0.901l0.41,0.901
		c-0.901,1.474-2.539,1.229-4.178,2.13c-1.556,0.491,0.164,0.737-2.13-0.737c0.491,2.539,1.065,0.491-1.065,1.802
		c0,0-2.048,0.737-2.212,0.819c-1.556,0.491-3.113,1.229-4.997,1.556l-0.164,13.925l19.168-4.751c0.328,0.819,0.41,1.556,0.655,2.13
		c1.229,3.113,0.164,1.147,1.802,2.294c1.556-3.113-0.901-3.113,1.147-5.079c5.161-2.13,10.649-1.229,17.448-7.454
		c9.011-8.273,2.457-58.814,1.72-70.445c-1.556-10.731-0.164-10.157-7.29-14.99c-4.669-3.113-8.519-5.406-13.844-7.946
		c-1.556-0.41-2.785-1.065-3.768-1.884c0.655,6.062,0.164,25.557-1.393,31.291c-4.751-1.229-7.618-5.898-12.615-8.109
		C322.56,194.044,318.464,200.188,316.334,203.136L316.334,203.136z"/>
	<path id="XMLID_61_" fill="#9DB47E" d="M278.981,311.016c3.113,1.474,9.912,3.768,13.516,4.341l1.802-4.505l1.065,1.556
		c4.669,9.666,22.117,1.72,30.554,1.065l1.556-0.901l0.655,0.164l1.393-0.737l0.655,0.328c1.474-1.229,18.84-6.881,22.281-7.372
		l-8.355-28.342c-4.342,1.474-0.819,1.229-4.423,2.785c-1.229,0.491-4.014,1.229-5.406,1.802c-3.44,1.065-7.29,2.785-10.567,2.785
		l-1.229,0.491c-3.113,1.556-8.847,3.113-12.615,4.341l-12.779,3.932l-4.014-8.765l0.819-0.328l-0.819,0.328
		c-1.147,0.655-2.13,1.147-4.014,1.147c-0.491-0.819-0.491-1.393-1.065-2.294c-1.065-1.884-0.328-0.41-1.393-1.72
		c-2.048-2.457-1.147-3.44-2.457-6.389c-1.229-2.949-3.277-3.686,1.556-5.079l-0.737-2.539l3.277-1.884l20.233-14.007l-4.341-10.731
		l-22.609,10.485c-1.393,1.229-1.802,1.474-3.277,1.884l-9.175-19.905l-0.41-0.328c-1.147,2.294-1.229,16.137-1.393,19.741
		c-0.164,5.898-1.556,15.563,0.655,20.069c4.014,1.147,6.389-0.737,10.567-1.065c0.737,5.324,2.212,15.072,2.294,19.905
		c0.164,7.618-4.751,13.188-4.669,17.611C277.097,309.869,277.425,310.115,278.981,311.016L278.981,311.016z"/>
	<path id="XMLID_131_" fill="#414143" d="M272.755,360h52.669v-22.227c-0.166-1.893-0.166-4.034,0-5.927l-0.166-16.794l0.912-1.729
		c-8.543,0.659-26.21,8.562-30.938-1.07l-1.078-1.564l-1.825,4.528c-3.732-0.494-10.451-2.964-13.686-4.363
		C275.41,327.4,273.668,342.959,272.755,360L272.755,360z M328.659,312.829l-0.664-0.165c1.078,1.07-0.912,0.906,2.24,0.906
		C329.406,312.582,330.152,313.158,328.659,312.829L328.659,312.829z M330.733,312.417l-0.664-0.329
		c0.829,0.823-1.161,0.741,2.074,0.823L330.733,312.417L330.733,312.417z"/>
	<path id="XMLID_57_" fill="#696A6D" d="M330.014,312.408l1.393,0.491c-3.113,0-1.065,0.164-2.048-0.819l-1.393,0.737
		c1.474,0.41,0.737-0.164,1.556,0.737c-3.113-0.164-1.147,0-2.212-0.901l-1.556,0.901l-0.901,1.72l0.164,16.71
		c-0.164,1.884-0.164,4.014,0,5.898V360h34.896c1.147-9.174,1.556-20.724,0.164-29.898c-0.655-4.423-2.048-8.519-3.277-12.778
		c-1.229-4.014-3.277-8.437-4.341-12.123C348.855,305.528,331.489,311.18,330.014,312.408L330.014,312.408z"/>
	<path id="XMLID_127_" fill="#EBCAA7" d="M298.886,102.301c-0.164-0.328-0.164-0.328,0.164-0.901
		c0.328-0.655,0.655-0.819,1.065-1.147c6.062-5.161,12.451-5.898,19.496-2.539c2.048,0.901,1.884,0.901,2.621,1.884
		c-3.113-0.737-9.011-2.457-12.943-1.474C305.276,98.943,300.934,102.875,298.886,102.301L298.886,102.301z M267.759,94.356
		l-0.655,6.062c0.737,1.556-0.491,1.065,0.901,0.328l0.491-0.655l0.655-0.491l0.491-0.491c7.045-3.44,16.956,5.57,10.977,4.423
		c-0.328-0.164-3.44-2.212-6.062-2.949c-5.079-1.393-4.997,1.393-8.028,2.539l-0.328,0.328l-0.164,4.341l-0.164,1.72
		c6.963-0.655,10.895,0.41,17.448,1.884c1.147,0.164,8.847,0.328,9.994,0.164c2.457-0.41,3.932-2.457,7.7-2.949
		c2.294-1.065,17.612-4.014,21.298-1.884c2.212,1.229,1.147,3.604,1.884,5.816c3.113,0.164,10.403-3.44,12.943-4.751l-0.328-2.785
		c-1.229-0.491,0.491-1.474-1.884,1.229c-2.048-13.516,0.164-17.447,2.13-29.571c-2.13,0.819-5.816,4.014-8.683,5.734
		c-11.796,6.881-21.789,9.174-35.961,7.29l1.884-0.901c0.164-0.164,0.328-0.164,0.491-0.164c0,0,1.72-0.41,1.884-0.41l10.649-3.113
		c-5.57,0.491-13.516,2.785-19.414,3.932c-6.635,1.229-13.516,1.884-20.069,3.113L267.759,94.356L267.759,94.356z"/>
	<path id="XMLID_54_" fill="#00743C" d="M322.888,232.789c-2.048-5.734-5.079-18.512-8.028-22.117
		c-2.621,0.164-17.12,7.045-19.742,8.437l-0.655,0.328c-3.604,1.147-8.437,3.686-11.632,5.161
		c-10.403,4.833-4.178,2.048-10.567,6.225l9.093,19.905l22.772-10.567l-2.212-6.881c3.604,0.328,11.222,0.737,13.68,2.457
		l5.161-1.556l-5.324-16.219c-0.737-2.212-0.819-3.686-2.294-5.324c-5.57,0.655-29.981,14.253-38.172,16.71
		c1.802-2.13,7.209-3.932,9.666-4.997c3.686-1.556,6.062-2.785,9.83-4.341c7.29-3.113,13.106-6.553,20.233-9.01
		c0.328,2.048,1.147,4.014,1.802,6.062l0.328,0.819c0,0.164,0.164,0.328,0.164,0.41c0.164,0.41,0.328,0.819,0.41,1.229l3.604,10.649
		c0.328,0.901,0.492,1.556,1.065,2.785L322.888,232.789L322.888,232.789z"/>
	<path id="XMLID_53_" fill="#F8F7F9" d="M307.078,207.068c2.621-0.164,7.29-2.212,9.174-3.932c2.13-2.949,6.226-9.092,7.045-11.632
		c4.833,2.212,7.7,6.881,12.615,8.109c1.474-5.734,2.048-25.065,1.393-31.291c-0.41-6.225-0.737-5.161-5.161-7.782
		c-4.751-2.785-3.277-2.294-9.502-2.621c-0.41,2.539-0.491,5.161-0.41,7.946c0.164,4.096,1.474,3.686,2.539,5.898l-7.7,12.778
		c-1.72,3.113-6.062,16.055-10.895,22.69L307.078,207.068L307.078,207.068z"/>
	<path id="XMLID_113_" fill="#9DB47E" d="M271.609,224.434c-0.737,0.819-0.737,0.901-0.41,1.802l16.383-8.109
		C284.142,217.881,275.95,222.714,271.609,224.434L271.609,224.434z M292.988,213.949c-1.884-0.164-1.147,0.737-1.802-2.785
		c-0.164-1.147-0.41-2.294-0.655-3.604l-4.178-20.806c-1.147,0.901-3.113,2.294-4.669,3.44c-0.737-1.065-0.737,1.474-0.492-1.802
		c-1.556,2.785,1.393,0.737-1.556,3.686c-2.294,2.294-7.454,8.027-8.683,11.058c-0.819,2.539-2.621,21.215-1.884,23.181
		c0.819-1.393-0.819,0.164,1.065-1.393c1.72-1.229,0-0.328,1.72-0.819l0.737-0.41C276.933,221.403,291.104,215.833,292.988,213.949
		L292.988,213.949z M297.166,214.932c-0.737-1.393-0.164-0.819-1.802-1.393l-5.734,2.785c-2.294,0.901,0.164,0.41-2.621,0.737
		c2.13,1.229,1.229,0.737,2.539,0.491C290.941,217.553,294.053,215.096,297.166,214.932L297.166,214.932z M297.576,214.031
		l0.655-0.164l0.655-0.41l0.655-0.164l0.655-0.491h0.655c2.294-2.13,1.229-0.328,0-1.556l-4.505,1.72
		C297.248,214.604,296.265,214.277,297.576,214.031L297.576,214.031z M301.999,210.754l-0.41-0.164
		c1.72,1.065-0.737,1.147,0.901,0.655C304.211,210.672,303.474,211.983,301.999,210.754L301.999,210.754z M306.095,208.87
		l-3.277,1.229c0.901,1.393,0.328,1.229,2.785,0.328C309.208,208.952,306.832,209.444,306.095,208.87L306.095,208.87z
		 M307.324,208.379l-0.655-0.164c1.72,1.065-0.737,1.229,0.901,0.655C309.535,208.215,308.716,209.689,307.324,208.379
		L307.324,208.379z M308.716,207.805l-0.492-0.164c1.72,1.065-0.655,1.147,0.901,0.655
		C311.01,207.724,310.109,209.198,308.716,207.805L308.716,207.805z M312.648,205.921l-3.277,1.229
		c0.901,1.393,0.491,1.393,2.785,0.41C316.007,206.003,313.385,206.495,312.648,205.921L312.648,205.921z M313.959,205.43
		l-0.491-0.164c1.474,0.901-0.492,1.229,0.901,0.655C316.007,205.102,315.597,206.822,313.959,205.43L313.959,205.43z
		 M317.727,205.43c-1.802-0.737-0.491-0.41-1.229-0.901l-1.72,0.41C316.252,205.921,313.877,206.085,317.727,205.43L317.727,205.43z
		"/>
	<path id="XMLID_41_" fill="#00743C" d="M318.464,246.223c-0.328,1.72-2.539,3.113-4.096,4.423
		c-1.556,1.474-2.785,2.785-4.505,3.604l-1.147-3.277l-20.233,14.007l1.229,3.44c6.717-0.328,15.564,1.229,21.134-1.393
		c0.819-3.113,2.048-2.949,4.423-4.423c2.048-1.229,3.932-2.949,5.816-3.604l-0.492,3.44c1.72-0.328,3.44-1.065,4.997-1.556
		c0.164-0.164,2.212-0.819,2.212-0.819c2.13-1.229,1.474,0.737,1.065-1.802l-4.751-15.4L318.464,246.223L318.464,246.223z"/>
	<path id="XMLID_40_" fill="#EBCAA7" d="M316.498,204.447c0.655,0.491-0.491,0.164,1.229,0.901l8.437,23.509
		c-0.655,0.901-1.147,1.72-1.72,2.294c-1.065,1.229-0.164,0.655-1.556,1.556l-0.819,0.655c-0.491-1.147-0.737-1.802-1.065-2.785
		l-3.604-10.649c-0.164-0.41-0.328-0.819-0.41-1.229c0-0.164-0.164-0.328-0.164-0.41l-0.328-0.819
		c-0.655-2.048-1.474-4.014-1.802-6.062c-7.209,2.457-12.943,5.816-20.233,9.01c-3.686,1.556-6.062,2.785-9.83,4.341
		c-2.294,1.065-7.782,2.785-9.666,4.997c8.273-2.457,32.602-16.055,38.172-16.71c1.474,1.556,1.556,3.113,2.294,5.324l5.406,16.219
		l-5.161,1.556c0.737,3.113,1.802,9.01,2.785,10.321l5.406-3.113l4.751,15.4c2.294,1.474,0.492,1.229,2.13,0.737l-5.324-16.137
		c4.751-0.491,5.324,0.41,6.553,4.014c1.065,2.949,1.802,6.062,2.621,9.092l0.41,0.901c2.212,0.655,1.065,0.655,1.474-0.655
		c-0.328-3.44-2.785-9.502-4.178-12.942c-0.41-1.065-0.655-0.819,0.41-0.737c2.294-2.294,2.13-10.567,0.328-14.007
		c-1.147-2.212-1.802-1.474-4.423-1.72l-1.065,0.901c-1.065-1.229-7.454-21.052-8.519-24.41L316.498,204.447L316.498,204.447z"/>
	<path id="XMLID_39_" fill="#F8F7F9" d="M293.644,170.043c-1.147,2.048-2.294,2.048-3.932,3.932
		c-0.901,1.147-2.457,3.113-3.44,4.423c-1.474,2.212-4.423,7.782-5.324,10.239c-0.164,3.277-0.164,0.737,0.491,1.802
		c1.72-1.147,3.44-2.457,4.669-3.44l4.178,20.806c0.164,1.229,0.41,2.457,0.655,3.604c0.655,3.44-0.164,2.621,1.802,2.785
		l1.229-0.655c0-1.474-0.328-1.229,0.901-0.737c-1.147-1.802-2.212-21.543-1.474-24.574c0.901-3.768,3.686-5.734,5.406-8.355
		c1.802-2.949,0.492-8.355,0.41-11.386C297.658,169.061,295.446,169.552,293.644,170.043L293.644,170.043z"/>
	<path id="XMLID_38_" fill="#EBCAA7" d="M289.384,268.503l-3.768,1.147c-4.833,1.474-2.785,2.13-1.556,5.079
		c1.393,3.113,0.491,4.014,2.457,6.389c1.065,1.229,0.164-0.164,1.393,1.72c0.491,0.901,0.491,1.393,1.065,2.294
		c1.884,0,2.785-0.491,4.014-1.147l0.819-0.328l2.294-0.819c2.212-1.474,4.505-2.457,6.635-3.768
		c5.079-2.949,2.621-1.72,8.683-2.048c-0.164,1.065-0.492,0.819,0.491,0.819c0.164-1.229,0.655-1.147-0.491-0.819l-0.819-9.911
		C305.112,269.896,296.265,268.175,289.384,268.503L289.384,268.503z"/>
	<path id="XMLID_37_" fill="#570101" d="M295.446,213.621c0-1.065-0.328-0.901,0.737-0.655l4.505-1.72
		c0-1.147-0.328-0.901,0.737-0.655l0.41,0.164c0-1.147-0.328-0.901,0.901-0.655l3.277-1.229c0-1.065-0.328-0.901,0.655-0.655
		l0.655,0.164c0-1.147-0.328-0.901,0.737-0.655l0.491,0.164c0-1.065-0.164-0.819,0.819-0.655l3.277-1.229
		c0-1.065-0.328-0.901,0.737-0.655l0.491,0.164c0-1.147-0.164-0.819,0.901-0.655l1.72-0.41l2.539-0.655
		c1.065,3.44,7.454,23.181,8.519,24.41l1.065-0.901c-2.785-5.898-5.898-21.052-9.338-24.41l-2.785,0.328
		c-2.048,1.72-6.635,3.768-9.175,3.932c-1.393,1.884-9.338,5.406-11.96,5.488c0.164,1.065,0.328,0.655-0.901,0.737l-1.229,0.655
		c-1.802,1.884-16.137,7.454-20.397,9.911c0,0.819,0.164,0.655-0.737,0.41l-0.164,0.164c4.342-1.802,12.615-6.553,15.892-6.389
		l-16.383,8.109l-2.13,0.164l-2.048,1.474l1.556,4.669l0.41,0.328l9.093,19.905c1.474-0.41,1.884-0.655,3.277-1.884l-9.011-19.905
		c6.226-4.178,0.164-1.393,10.567-6.225c3.113-1.474,8.028-4.096,11.632-5.161l0.655-0.328c1.393-1.393,2.048-0.737,2.785-2.457
		c0.737-1.229-1.556-1.556,0.164-1.065c0.164-0.164,0.164-0.164,0.164-0.328l1.72-1.229c0.164-0.164,0.491-0.655,0.655-0.737v-0.491
		h-0.573c0.328,1.065,0.41,0.819-0.655,0.491l-0.655,0.164c0.41,1.147,0.491,0.819-0.655,0.41l-0.655,0.164
		c-0.164,1.147,0.737,0.491-0.41,0.901c-3.113,0.164-6.389,2.621-7.618,2.785c-1.229,0.164-0.41,0.737-2.539-0.491
		c2.785-0.328,0.164,0.164,2.621-0.737L295.446,213.621L295.446,213.621z"/>
	<path id="XMLID_105_" fill="#414143" d="M283.322,119.421c-0.901,1.147-1.556,1.802-3.604,2.048
		c-2.13,2.13-6.881,1.556-9.994,1.065c-4.423-0.737-5.57-1.556-7.209-4.997c0.41-0.819,0.164-1.065,1.556-2.048
		c1.556-1.065,0.901,0.164,2.621-1.474l4.505-2.048c4.341,0,5.161,1.229,8.273,2.785l0.655,0.164
		c1.065,1.393,1.393,1.556,2.13,3.113l0.328,0.491c1.884-2.621-2.785-5.734-4.178-7.045
		C282.34,112.459,287.009,114.424,283.322,119.421L283.322,119.421z M266.12,109.592c-7.618,2.13-5.324,1.884-6.389,9.174
		c2.785,1.229,2.785,2.13,5.406,3.44c4.014,1.72,10.158,2.212,14.499,0.737c7.045-2.294,4.833-4.751,8.519-9.338
		c5.161-0.819,5.816,4.505,9.666,6.635c3.44,1.802,9.666,2.457,13.106,1.393c3.113-0.901-1.72,0.737,0.901-0.41
		c0.164-0.164,0.328-0.164,0.491-0.164c0.164-0.164,0.328-0.164,0.491-0.164l-0.655-0.41c-3.768,0.41-7.618,1.229-11.304-0.164
		c-2.212-0.901-4.833-4.505-5.161-7.29c1.393-2.13,2.048-1.884,4.833-3.113l0.737-1.147c-3.768,0.491-5.324,2.621-7.7,2.949
		c-1.147,0.164-8.847,0.164-9.994-0.164C276.933,110.083,273.165,109.018,266.12,109.592L266.12,109.592z"/>
	<path id="XMLID_34_" fill="#F8F7F9" d="M304.211,240.325l4.341,10.731l1.147,3.277c1.802-0.819,2.949-2.212,4.505-3.604
		c1.556-1.393,3.768-2.785,4.096-4.423c-0.901-1.474-1.884-7.29-2.785-10.321c-2.539-1.72-10.158-2.13-13.68-2.457L304.211,240.325
		L304.211,240.325z"/>
	<path id="XMLID_33_" fill="#570101" d="M320.266,283.165c-2.294-0.328-4.341,0.41-6.963,0.491l-1.393-4.751
		c-2.785,0.737-5.406,1.802-8.028,2.539c-1.474,0.41-2.785,0.819-4.341,1.229c-2.294,0.655-2.13,0.901-3.44,0.164l-2.294,0.819
		l-0.819,0.328l4.014,8.765l12.779-3.932c3.686-1.147,9.338-2.785,12.615-4.341c0-1.474-0.328-1.065,1.229-0.491
		c-1.556-0.491-0.901-0.41-2.457,0.164l-0.164-0.655C320.84,283.575,321.659,283.739,320.266,283.165L320.266,283.165z"/>
	<path id="XMLID_32_" fill="#F8F7F9" d="M310.682,267.274l0.819,9.911c1.065-0.328,0.737-0.41,0.491,0.819v0.901l1.393,4.751
		c2.621-0.164,4.505-0.819,6.963-0.491c0.164-0.164,1.065-1.393,1.065-1.474l-1.065-5.161l0.164-13.925l0.491-3.44
		c-1.884,0.655-3.768,2.294-5.816,3.604C312.648,264.244,311.501,264.08,310.682,267.274L310.682,267.274z"/>
	<path id="XMLID_97_" fill="#722B2D" d="M313.385,205.266c-1.065-0.328-0.737-0.41-0.737,0.655c0.737,0.655,3.44,0.164-0.41,1.72
		c-2.294,0.901-1.884,0.901-2.785-0.41c-1.065-0.164-0.819-0.491-0.819,0.655c1.474,1.393,2.294-0.164,0.41,0.491
		c-1.556,0.491,0.655,0.41-0.901-0.655c-1.065-0.328-0.737-0.491-0.737,0.655c1.474,1.393,2.13-0.164,0.41,0.491
		c-1.72,0.655,0.655,0.41-0.901-0.655c-0.901-0.328-0.655-0.328-0.655,0.655c0.737,0.655,3.113,0.164-0.492,1.556
		c-2.457,0.901-1.802,1.065-2.785-0.328c-1.147-0.328-0.901-0.491-0.901,0.655c1.474,1.147,2.294-0.164,0.492,0.41
		c-1.72,0.491,0.737,0.491-0.901-0.655c-1.065-0.328-0.737-0.491-0.737,0.655c1.229,1.229,2.294-0.491,0,1.556v0.491
		c0,0.164-0.492,0.655-0.655,0.737l-1.72,1.229c-0.164,0-0.164,0.164-0.164,0.328c-1.802-0.491,0.491-0.164-0.164,1.065
		c-0.819,1.556-1.474,1.065-2.785,2.457l-0.655,0.328l0.655-0.328c2.539-1.393,16.956-8.273,19.742-8.437
		c2.949,3.686,5.898,16.383,8.028,22.117c1.393-1.065,0.491-0.328,1.556-1.556c0.491-0.655,1.065-1.393,1.72-2.294l-8.437-23.509
		c-3.932,0.819-1.474,0.655-2.949-0.491c-1.147-0.164-0.901-0.491-0.901,0.655c1.802,1.474,2.212-0.164,0.492,0.491
		C312.894,206.495,314.942,206.167,313.385,205.266L313.385,205.266z M296.265,212.966c-1.065-0.328-0.737-0.491-0.737,0.655
		c1.556,0.41,1.065,0,1.802,1.393c1.065-0.491,0.328,0.164,0.41-0.901C296.265,214.277,297.248,214.604,296.265,212.966
		L296.265,212.966z M298.231,213.785c1.147,0.41,1.147,0.737,0.655-0.41L298.231,213.785L298.231,213.785z M299.46,213.294
		c1.065,0.328,0.901,0.491,0.655-0.491L299.46,213.294L299.46,213.294z"/>
	<path id="XMLID_27_" fill="#EBCAA7" d="M341.4,136.459c3.604-1.474,6.226-1.065,8.273-3.932c1.72-2.457,2.785-6.062,3.113-9.83
		c0.328-4.751-1.147-11.058-6.635-8.765C343.448,115.653,341.564,134.002,341.4,136.459L341.4,136.459z"/>
	<path id="XMLID_26_" fill="#722B2D" d="M320.266,276.612l1.065,5.161c-0.164,0.164-1.065,1.393-1.065,1.474
		c1.393,0.491,0.655,0.41,0.655,0.41l0.164,0.655c1.474-0.655,0.819-0.737,2.457-0.164c-1.474-0.491-1.229-0.901-1.229,0.491
		l1.229-0.491c3.277-0.164,7.209-1.802,10.567-2.785c1.393-0.41,4.096-1.229,5.406-1.802c3.686-1.556,0.164-1.229,4.423-2.785
		c0.328-2.785,0-3.113-0.819-5.488c-2.13,1.884,0.41,1.884-1.147,5.079c-1.72-1.065-0.491,0.737-1.802-2.294
		c-0.164-0.491-0.328-1.229-0.655-2.13L320.266,276.612L320.266,276.612z"/>
	<path id="XMLID_25_" fill="#1E2124" d="M301.344,108.772l-0.737,1.147l4.014-0.901c-0.164,0.164-0.164,0.164-0.328,0.41
		c-0.164,0.491-3.768,2.539-4.505,4.178c-1.065,2.539-0.819,0.901,0.164,1.474c0.491-1.065,2.457-2.212,3.932-2.949l1.147-0.328
		c0.819-0.901,0.491-0.901,2.294-1.474c1.556-0.491,2.13-0.164,2.785,0.164c3.277,1.802,1.229,2.048,3.44,4.423
		c0.328-3.44-0.655-3.113-1.556-5.488l5.734,1.065c2.13-0.41,4.178-2.048,4.997,0.655c0.328,1.147-0.655,3.768-1.229,4.833
		c-1.393,2.294-5.57,3.44-9.011,4.423l0.655,0.41c5.161,0.41,8.683-4.096,11.714-5.324c4.178-1.72,8.519-3.686,13.27-4.751
		c2.13-1.147,3.604-0.491,2.457-3.686l-2.785,0.655c-2.457,1.229-9.83,4.833-12.943,4.751c-0.737-2.212,0.328-4.505-1.884-5.816
		C318.956,104.759,303.719,107.626,301.344,108.772L301.344,108.772z"/>
	<path id="XMLID_89_" fill="#722B2D" d="M303.146,142.93c-0.655,1.474-2.785,2.621-4.505,3.44
		c-6.963,3.44-12.943,2.539-17.939-2.457c6.389,1.065,9.666,0.164,15.564,0.655c-1.72-2.294-3.686-0.41-9.338-0.655
		c-3.932-0.164-5.734-1.393-8.028-1.802c0.819,6.963,6.389,12.123,14.335,10.731c5.816-0.901,13.188-9.911,13.106-13.106
		c-4.505,1.72-3.44,1.393-2.457,2.13v-0.164c0.164,0,0.164-0.164,0.164-0.164h0.164c0,0-0.41,0.164-0.655,0.164
		C304.047,142.93,304.129,142.685,303.146,142.93L303.146,142.93z M302.491,142.766l0.737-0.164c-0.41-0.655,0-1.556-1.147-0.491
		C300.934,143.094,300.607,141.292,302.491,142.766L302.491,142.766z M300.77,143.258l0.819,0.164
		c-1.065-1.065,0.901-1.147-2.048-0.819C299.214,143.258,297.821,142.685,300.77,143.258L300.77,143.258z M298.395,143.913
		l0.901,0.164c-1.229-1.065,0-0.655-1.556-0.819c-0.41-0.164-1.474,0.164-2.048,0.164L298.395,143.913L298.395,143.913z"/>
	<path id="XMLID_20_" fill="#EBCAA7" d="M300.607,109.919c-2.785,1.147-3.44,0.901-4.833,3.113c0.328,2.785,2.949,6.389,5.161,7.29
		c3.768,1.474,7.454,0.655,11.304,0.164c3.44-0.901,7.7-2.212,9.011-4.423c0.655-1.065,1.556-3.686,1.229-4.833
		c-0.819-2.621-2.785-1.065-4.997-0.655c1.474,6.225-11.059,14.99-19.004,6.389l1.474-1.802c-1.065-0.655-1.229,1.065-0.164-1.474
		c0.655-1.556,4.341-3.686,4.505-4.178c0.164-0.164,0.164-0.164,0.328-0.41L300.607,109.919L300.607,109.919z"/>
	<path id="XMLID_19_" fill="#722B2D" d="M330.669,259.165c1.802-0.901,3.277-0.737,4.178-2.13l-0.41-0.901
		c-0.819-2.949-1.556-6.062-2.621-9.092c-1.229-3.604-1.802-4.423-6.553-4.014L330.669,259.165L330.669,259.165z"/>
	<path id="XMLID_18_" fill="#F8F7F9" d="M313.385,114.998c-0.901,2.621-0.491,2.294-2.949,3.604
		c-4.669,0.491-7.045-1.72-6.553-6.389c-1.474,0.655-3.44,1.802-3.932,2.949l-1.474,1.802c7.946,8.519,20.561-0.164,19.004-6.389
		l-5.734-1.065C312.73,111.967,313.631,111.476,313.385,114.998L313.385,114.998z"/>
	<path id="XMLID_17_" fill="#2A4397" d="M271.363,112.049c-1.72,2.949-2.212,7.372,2.212,8.273c5.161,0.901,5.324-3.277,6.062-5.488
		l0.655,0.164l-0.655-0.164C276.605,113.36,275.704,112.049,271.363,112.049L271.363,112.049z"/>
	<path id="XMLID_82_" fill="#F8F7F9" d="M303.801,142.029l0.328-0.164v0.164H303.801L303.801,142.029z M302.491,142.766
		c0,1.229,0.328,0.901-0.901,0.655l-0.819-0.164c-0.737,0.819,1.065,0.901-1.474,0.737l-0.901-0.164
		c-0.655,0.491,0,0.819-2.13,0.737c-5.816-0.41-9.093,0.41-15.564-0.655c4.997,4.997,10.895,6.062,17.939,2.457
		c1.556-0.819,3.768-2.048,4.505-3.44v-0.328L302.491,142.766L302.491,142.766z"/>
	<path id="XMLID_14_" fill="#F8F7F9" d="M266.858,114.015c-0.901,3.113,1.147,5.898,3.113,6.881c3.113,1.474,6.553,0.819,9.666,0.41
		c2.048-0.164,2.621-0.819,3.604-2.048c-1.065,0.819-0.737,0.737-0.491-0.655l-0.328-0.491c-0.737-1.556-1.065-1.802-2.13-3.113
		l-0.655-0.164c-0.819,2.212-0.901,6.389-6.062,5.488c-4.423-0.819-3.932-5.324-2.212-8.273L266.858,114.015L266.858,114.015z"/>
	<path id="XMLID_13_" fill="#F7A81E" d="M255.144,99.271l-0.819,1.065c1.72,2.13,3.113,2.13,5.57,3.932
		c1.884,1.393,4.096,2.785,6.226,3.686l0.164-4.341c-2.13-0.819-0.737-0.164-2.457-1.556c-1.72-1.229-1.229-0.819-2.949-1.802
		c-1.393-0.737-4.178-2.785-5.079-3.604L255.144,99.271L255.144,99.271z"/>
	<path id="XMLID_12_" fill="#722B2D" d="M298.886,102.301c2.13,0.655,6.389-3.44,10.321-4.341c4.014-0.901,9.83,0.737,12.943,1.474
		c-0.737-0.901-0.655-0.901-2.621-1.884c-7.045-3.44-13.598-2.621-19.496,2.539c-0.328,0.328-0.737,0.491-1.065,1.147
		C298.559,101.974,298.723,101.974,298.886,102.301L298.886,102.301z"/>
	<path id="XMLID_11_" fill="#2A4397" d="M305.112,111.803c0.901,2.048,1.065,2.048,2.13,3.44c0.41,0.655,0.819,1.474,1.147,1.802
		c1.802,2.048,0.491,0.655,2.13,1.393c2.457-1.393,2.048-0.901,2.949-3.604c-2.13-2.457-0.164-2.621-3.44-4.423
		c-0.655-0.328-1.065-0.737-2.785-0.164C305.44,110.902,305.931,110.902,305.112,111.803L305.112,111.803z"/>
	<path id="XMLID_10_" fill="#EBCAA7" d="M279.718,121.469c-3.113,0.41-6.635,1.065-9.666-0.41c-2.048-0.901-4.096-3.932-3.113-6.881
		c-1.72,1.556-1.065,0.41-2.621,1.474c-1.474,1.065-1.147,1.147-1.556,2.048c1.556,3.277,2.785,4.178,7.209,4.997
		C272.837,123.025,277.588,123.435,279.718,121.469L279.718,121.469z"/>
	<path id="XMLID_9_" fill="#00743C" d="M296.101,282.838c1.393,0.819,1.147,0.41,3.44-0.164c1.474-0.41,2.785-0.819,4.341-1.229
		c2.785-0.737,5.406-1.802,8.028-2.539v-0.901c-1.065,0-0.737,0.164-0.491-0.819c-6.062,0.328-3.604-0.901-8.683,2.048
		C300.607,280.462,298.313,281.445,296.101,282.838L296.101,282.838z"/>
	<path id="XMLID_8_" fill="#722B2D" d="M269.806,99.189l-0.492,0.491l-0.655,0.491l-0.491,0.655l-1.229,2.457
		c3.113-1.229,2.949-3.932,8.028-2.539c2.785,0.737,5.734,2.785,6.062,2.949C286.763,104.759,276.933,95.748,269.806,99.189
		L269.806,99.189z"/>
	<path id="XMLID_7_" fill="#095CAC" d="M310.436,118.602c-1.556-0.737-0.328,0.655-2.13-1.393c-0.328-0.328-0.737-1.147-1.147-1.802
		c-1.065-1.474-1.065-1.474-2.13-3.44l-1.147,0.328C303.392,116.964,305.767,119.094,310.436,118.602L310.436,118.602z"/>
	<path id="XMLID_6_" fill="#CD9888" d="M251.376,98.451c0.737-2.13,0.164-0.819,1.147-1.474c0,0,0.41-0.164,1.147,0.328
		c2.785,1.884,0.492-0.164,1.556,1.884l0.655-2.539c-2.13-1.393-2.457-1.884-5.079-2.785c-1.147,0.901-0.901,0.491-1.802,2.13
		l1.229,1.147C251.13,98.124,250.474,97.305,251.376,98.451L251.376,98.451z"/>
	<path id="XMLID_5_" fill="#EBCAA7" d="M282.831,118.848l-0.328-0.491L282.831,118.848c-0.164,1.393-0.491,1.474,0.491,0.655
		c3.686-4.997-0.901-6.963-4.833-7.7C279.882,113.114,284.715,116.145,282.831,118.848L282.831,118.848z"/>
	<polygon id="XMLID_4_" fill="#570101" points="285.616,269.65 289.384,268.503 288.319,265.063 284.879,267.111 	"/>
	<path id="XMLID_3_" fill="#1E2124" d="M332.308,243.601c1.474,3.277,3.932,9.338,4.178,12.942l-1.72-10.321
		c-0.164-0.328-0.41-1.556-0.491-1.802c-0.737-1.393-0.164-0.655-1.474-1.474L332.308,243.601L332.308,243.601z"/>
	<path id="XMLID_2_" fill="#696A6D" d="M251.376,98.451l3.113,1.884l0.819-1.065c-1.065-2.048,1.229,0.164-1.556-1.884
		c-0.737-0.491-1.147-0.328-1.147-0.328C251.539,97.632,252.031,96.322,251.376,98.451L251.376,98.451z"/>
</g>
</svg>
