<svg version="1.1" xmlns="http://www.w3.org/2000/svg" x="0px" y="0px" width="640px" height="480px" viewBox="0 0 640 480" enable-background="new 0 0 640 480"><rect fill="#9DABC6" width="640" height="480"/><g><g><path fill="#1A2D7A" d="M0,114.4c2.5,0,2.3-0.8,4.4-0.8c1.5-0.2,3.4,0.2,5.4,0.2c2.3,0,5.6-0.2,7.8,0.2c0.6,0,0.8,0,1,0.2l0.8,1c1.4-0.2,1.8,0.4,2.5,2.1l1.8,3.4c0.4,0.8,0.6,0.8,1.1,1.4c1,1.4-0.4,0.8,3.3,4.2c0.2,0.2,0.4,0.4,0.6,0.6l3.7,2.7c1.1,0.8,0.6,0.4,1.4,1.1c0.8,0.6,1.1,0.4,3,1.8c1.1,0.8,2.3,1,3.3,1.5c1.9,0.4,5.6,2.1,8.2,2.7c2.6,0.6,6.2,1.1,9,1.5c6.3,0.8,13.4,0.8,20.3,0.8c3,0,10.2-1.1,11.7-1.9c3.3-1.8,1.5-0.4,4-1.1l8.2-4.8c1-0.6,0.8-0.6,1.5-1.1c3.3-2.3,3.7-1.5,3.8-3.7c2.1-0.2,1.4-0.4,3.3-2.3l2.5-3c0.6-0.8,0.2-1,1-1.9c2.3-2.7,1-2.5,2.1-3.7c0.4-0.6,0.6-0.4,0.8-1.5l-7.5-1.4c-1.1-0.4-0.8-0.4-1.8-0.6c-0.6-0.2-1.4-0.4-1.8-0.4c-1-0.2-1-0.2-1.8-0.6c-0.8-0.4-0.2-0.4-1.8-0.6c-0.2-2.1,0.2-1-1.1-1.8c-1.1-0.6-0.6-0.2-1.1-1.5c-0.4-1.1-0.8-0.8-1.8-3.7c-0.8-1.8-0.4-1.9,0-3.3l1-1.9c0.2-0.4,0.2-0.8,0.4-1l0.8-1.5c2.1-0.2,1.4,0.2,2.3-0.8c0.8-0.6-0.2-0.2,1.1-0.6c0.4,0,0.2,0,0.6-0.2c0.2,0,0.4,0,0.6,0c1.8-0.8,8.5-0.6,11-0.6l4.2,0.2c1.1,0.4,0.6,0,1,0.6c0.2,0,1.4,0.4,1.5,0.6c4.8,1.5,5.8,5.2,7.7,5.4l0.4-0.8c0,0,0-0.2,0.2-0.2c0.2-0.8-0.2-0.2,1-1.4c1.5-1.4,0.2-0.8,2.7-2.5c2.1-1.5,2.3-1.1,2.5-2.3c1.9,0,3.8,0,5.8,0c2.7-0.2,8.5,0.6,10.6,0.6c1.8,0.2,3.3,0.6,4.6,1.1c1.9,1,4,4.4,4.8,6.6c0.6,2.1,0.4,5.8-1.1,7.1l-1.9,1.4c-3.4,3.3-7.1,4-11.9,2.1l-1.5-0.8c-0.6-0.2-1.1-0.4-2.1,0c-0.4,1.1-0.2,1.8,0,3c0.2,0.6,0.2,1,0.4,1.5c1.4,4,3.8,7.5,6.3,10.7l3.7,3.7c3.3,1.8,0.8,1.1,3.4,2.1c2.1,0.8,1.5,0.8,2.1,1.5c0.8,0.6,0.6,0.2,1.4,0.6c1,0.6,1.5,1.1,2.3,1.5l5.4,2.3c1.5,0.6,4,2.1,5.2,1.9c4.2-0.2,14.6,2.1,21,0.6c3.3-0.8,6.3,0.2,9.6-1.5c1.8-0.8,5.8-1.8,6.2-2.1c2.5-1.5,0.4-0.4,3.4-1.8c0.8-0.4,1-0.8,1.8-1.1c1.8-0.6,0.4,0.4,1.9-1c0.2,0,0.2-0.2,0.2-0.2l3.7-2.7c2.7-1.5,1.1-0.8,2.9-2.7l0.4-0.4c1.1-1,1.1-0.4,1.8-1.4l2.3-3.3c1-1,0.6,0.2,1.1-1.5c0.6-1.4,1.4-2.5,2.5-3c0.6-0.6,0.8-0.8,1.5-1.4c1-0.8,0.6,0.2,1-1.1c2.3,0,10.7-0.4,12.5,0.2c0.4,0.2,1.5,0.6,1.8,0.8c0.2,0,0.6,0.2,0.8,0.4c2.9,1.8,3.7,1.1,3.3,4.8c0,1.5,0,3.4,0,5c0,39.8,0.2,80.2,0,120c0,10,0.4,4,1.4,9l3.7,7.7c1.5,2.7,2.7,5.4,3.8,8.2c0.4,0.8,0.4,1,0.8,1.9c0.6,1.8,0.4,0.4,1.1,1.9c0.2,0.8,0.4,1.4,0.8,1.9c0.2,0.8,0.6,1.5,0.8,2.3c0.8,1.8,1.4,2.1,1.8,4c0.4,1.5,1,2.9,1.8,4.4c1,2.3,0,2.5,1.5,5.6l2.9,10.6c0,1.4-0.2,1.5,0.4,2.7c0.8,2.3,0.6,8.2-0.2,10.6c-1.1,4.2,0.2,2.7-2.5,7.7c-0.2,0.4-0.4,0.8-0.6,1.4l-0.2,1c1.9,0.6,0.8,0.6,1.5,1.9c4.6,1.1,16.7,0.8,22.2,0.6c0-1.4,0-2.9,0-4.4l-1.5-12.1c-1.4-0.6-1,1-1.5-5.8c0-1,0-1.4-0.2-2.3l-0.4-1.5c0,0,0,0,0-0.2l-1.5-9.6c-0.4-0.2-0.6-0.4-1-0.6l-0.4-11.7c-1.8-1.1-1-0.8-1.4-3.3c-0.2-2.3,0-2.1-0.6-4c-0.4-1.4,0-3-0.2-4.6c0-1.4-0.2-1-0.6-1.8c-0.4-1.4,0.4-9.6-0.2-11.7c-0.4-1.8-1,0-1-3.7c0-0.8,0-1.9,0-2.5l-0.2-1.1c-1-2.5-0.4-4.8-0.8-6.3l-0.2-0.4c0,0,0,0,0-0.2c0,0,0,0,0-0.2c-0.4-1.1,0-1.1-0.6-2.1l-0.4-0.6c-0.2-0.6-0.2,0-0.2-0.8l-0.4-16.3c0-2.1,0-8.5,0.4-9.2c-1.1-0.6-1.1-0.8-1.9-1.5c-1.8-1.5-0.4,0.8-2.5-2.9c-0.4-0.6-0.4-0.8-0.8-1.4c-0.6-1-1-1.1-1-2.9c-0.2-3,0.4-2.9,1.1-4.2c2.1-3.3,2.3-1.9,7.3-2.5c0-2.1,0.4-3.4,1.4-4.8c1.8-2.7,1.8,0,2.9-3.3c1.1,0,4.6-0.2,5.6,0.2c2.1,0.6-0.2,1.4,3.4,1.9c2.5,0.4,2.9-0.8,3.8-1.4c1.4-0.6,3.8-0.2,5.4-0.2c1.9,2.3,0,0.4,2.1,1.8l1.9,1.9c0.8,1,0.6,0.4,1,1.5c1.5,0.2,3,0,4.4,0.2c1.8,0.2,1.5,0.8,3.7,1l0.6,1.4l1.8,0.2c0.4,1.1,1,1.9,1.8,2.7c0.2,0.6,0.8,1.1,1.1,1.8c1,1.5-0.4,0.6,1.1,1.9c1.1,1,0.8,1.5,0.8,4.8c0,2.3-0.4,2.9-1.1,4.4c-0.6,1-0.4,1.5-0.8,2.3c-0.8,1.4-2.9,1.1,0.2,4.8c0.6,0.6,1,0.6,1.4,1.1c0.4,1.1-0.2,0.8,0.6,1.9c0.2,0.2,0.8,1,1,1.1l1.1,1.9c1.4,1.5,1.1,0.4,1.4,2.9c1.1,0.2,1.5,0.4,2.7,0.4c0,1.9,0.2,2.1,0.4,3.7c1.8,0,1.1-0.4,2.3,1l0.6,1.5c0.6,1,0.4-0.2,2.3,3.3c2.5,0.2,2.5,0,4.6-0.6c1-0.2,1.4,0,2.1-0.4c1-0.4,0-0.6,2.1-0.8c1.9-0.2,0.8-0.2,1.9-0.6c1.4-0.6,1,0.2,2.9-0.6c1.5-0.8,2.7-0.2,3.7-0.4c1.8-0.8-1.1,0.8,0.4-0.4l3.3-1.1c1.8,0,3.3,0,5,0l1.1-1.4c0.8-0.6,1.4-2.5,1.8-3.4c0.4-1.1,0.8-4.6,1.5-5.8c1-1.5,0.6-1,0.8-4.4l1-0.6c0.6-0.6,0.2-0.8,0.6-1.4c0.4-0.8,0.4-0.4,1-1c1-0.8,0.2,0,0.8-1.1l2.9-4.8h1.1c1-0.6,1-1.4,1.5-1.9c0.8-0.8,1-0.8,1.8-1.5l2.5-2.5c1.8-1.4,1.1-1.1,2.7-2.5c0.8-0.8-0.2,0,1-0.8l1.9-1.5c0,0,0,0,0.2,0c1.1-1,1.8-0.6,2.7-2.1c2.1-0.2,1.8,0,2.9-1.1c0.2-0.4,0-0.2,0.4-0.4c0-0.2,0.6-0.6,0.6-0.6l1.4-0.6c0-1.4-1-2.1-1.8-3c-0.2-0.4,0,0-0.4-0.4c-0.2-0.2-0.2-0.2-0.6-0.4c-0.6-0.6-1-1-1.8-1.5c-1.8-1.4-7.8-6.3-9.4-6.9c-1.8-0.6-2.5-1.5-4.2-2.1c-1-0.4-1.4-0.4-2.7-0.6c-1.1-0.4-1.4-0.8-2.3-1.1c-1.8-0.6-3.8,0-5.8-0.8c-1.1-0.4,0.2-0.2-1-0.4l-7.1-1c-0.8,0-4.6-1.1-8.6-1.5c-2.1-0.2-5.2-1.5-6.2-1.8l-2.5-0.8c-2.1-1-3.8-0.2-6.2-1.9c-0.8-0.8-1.4-0.6-2.3-1l-8.6-4.4c-1.4-0.8-0.2-1-2.3-1.1c-0.2-1.4-0.4-1.8-1.4-2.5l-1.5-2.1c-0.6-1.5-1.4-5.4-0.6-7.1c0,0,0.2,0,0.2-0.2c0.6-1.4,0.4-2.3,1.1-3.4l4.6-5.4c1.5-1.9,2.5-1.5,4.8-2.7c2.9-1.8,10-1.5,13.8-1.5c2.5,0,0.4,0.4,4.2,0.6c1.8,0.2,1.5,0.8,1.9,1c0.8,0.4,3,0.6,4,1c1.1,0.2,2.3,1.1,3.7,1.5l6.2,1.5c1.1,0.6,0.4,0.4,1.1,1.5c3.4,0.2,2.3,0.6,4.6,1.5c0.8,0.4,1.4,0.6,2.1,1c3.3,1.5,4.4,2.9,5.8,3.7c3.4,1.9,3.4,3.4,5,4.4l1.4,0.8c0.6,0.6,0.2,0.8,1.5,1.5l1.4,1.1c1.9,1.9,2.3,1.5,4,4c0.8,1.1,2.3,1.1,3,2.5c1.4,1.9,3.3,3.4,4.8,5.2l6.3,8.6c0.6,1.4,1.5,1.8,2.1,3.3c0.6,1.9,1.1,2.1,1.8,2.7c1.9,1.8,0.4,4.6,5,4.8c2.3,0,3.4,0.4,5.9,0.2c1-2.9-0.6-6.3-0.6-9.6c0-5-0.4-12.5,1.1-17.1l0.4-1.4c0.4-1.1,0.4-3.3,0.8-4.2c0.8-1.1,0.8,0,1-1.9l5.2-11.4c1.1-1,0.6,0.4,1-1.8c0.6-2.1,1.9-2.9,3-5.4c0.8-1.4,2.1-2.5,3.4-4.8l1.1-1.8c0,0,0,0,0.2-0.2l2.5-2.5c1-1.5,0.8-2.1,2.7-2.9c0.4-2.3,0.4-1.1,1.5-2.5c0,0,0.2-0.4,0.4-0.4l0.4-0.6c0,0,0.2-0.2,0.4-0.4c1.9-1.9,1.4-2.1,3.7-2.7c0.6-2.7,2.3-2.5,5.2-4.4c0.6-0.4,0.4-0.2,0.8-0.6c1.4-1.1,0-0.8,2.5-1.4l4.6-1.8c1.4-0.4,1.9-1.1,3.4-1.1c1.5-0.2,2.3-0.2,3.7-0.4c3-0.6,6.9-0.6,10.2-0.6l10.4,2.9c0,0,0.8,0.8,1,0.8c2.7,1.8,1,0.6,2.5,3.3c0.6,0.8,0.8,1.8,1,2.7c0.4,1.9,0,0.2,0.6,1.4c0.4,0.8,0.2,2.3,0.2,3.3c-0.2,0.4-0.2,1.1-0.4,1.8c-1,4-0.2,2.1-2.1,5.4l-1,1.5c-0.4,0.4-0.2,0.2-0.4,0.6l-0.6,0.8c-0.4,0.6,0,0.6-1,1.5c-1.1,1-2.1,0.2-6.3,2.9c-0.2,0.2-0.8,0.4-1,0.6c-1,0.6,0,0.2-1.4,0.6c-2.5,0.6-1.8,1.1-5,2.7c-1.5,0.8-0.6,1-2.1,1.5c-2.1,1.1-2.7,2.3-5.4,2.3c0,2.1-2.1,2.3-3.4,3.3c-0.6,0.4-0.8,0.8-1.4,1.1l-8.5,5.9c-1,1-2.5,2.1-3.4,3.4c-2.3,3-2.1,0.4-2.7,4.8c-2.3,1-1.1,0.8-2.1,2.7c-0.6,1.4-1.1,2.1-1.8,3.4c-0.4,1.1-0.6,2.5-1.1,3.7c-0.8,1.5-0.6,0-1,1.8l-1.8,5.8c-0.6,3.7-0.8,1.1-1.1,3.8c-0.4,2.9-1.4,5.6-1.4,8.6c1.8,1,3,1,4.2,2.7c1.8,0.2,1.5,0,2.5,0.8c1.8,1.1,3.3,1.5,5.4,2.3c0,0.2,0,0.2,0,0.2c1.8,1,1.9,1.5,4.2,3c0.8,0.6,0.2,0,0.6,1c0.6,1.8,2.5,2.9,3.3,4.4l0.8,1c2.5,1.8,1.8,3,3.3,5.2l2.1,3.8c0.6,0.8,1,1.1,1.4,2.1c1.1,3,1.4,0.4,2.1,4.8l0.8,0.2l11.4,0.2c1.4,0.4,0.2,0.2,1.1,0.6c1.8,0.6,4-0.6,5.8,0.4c0.8,0.6,0,0.4,1.1,0.6h5l0.6,1.5c5,0,2.3-0.4,4.4,6.3c0.2,0.6,0.6,3.8-0.6,6.3c-0.6,1-0.4,1.1-0.4,2.5l-1.4,0.4c-0.2,3.8-1,3.7-1.4,4.6c-0.2,0.6,0,0.4-0.2,1l-0.2,0.4c-0.4,0.4-0.6,0.2-0.8,2.3c0,2.1,0.2,1.5-1.4,2.1c-0.2,1.4-0.2,1.5-1,2.9l-0.2,0.6h-0.2c-0.2,0.6-0.4,1.4-1,1.9c-0.6,0.6-1,0.6-1.5,1c-0.2,4.8-1.1,0.4-1.1,5.9c2.9,0.2,2.9-0.4,3.4-1.1l2.5-1.9c0.2,0,0.2-0.2,0.2-0.2h0.2l2.1-1.4c0.6-0.6,0.4-0.2,0.4-1.4c5.2-0.6,3.3-2.9,4.2-3.7c1-0.4,1.5-0.4,2.1-1.4c0.8-1.4,0.2-1.5,2.1-1.8v-1.4c2.1-0.2,1.9-0.6,1.9-2.5c2.3-0.4,1.1,0,1.9-1.5c0.2-0.2-0.2-0.8,2.1-1.1c0.4-3.3,1.4-3.3,1.9-4.6c0.2-0.4,0.4-0.8,0.6-1.4c0.8-1.8-0.4,0.2,0.8-0.8c0.6-0.6,2.1-3.7,2.3-4.6c0.8-2.7,0.8-0.8,1.4-2.1c0.6-1.1-0.2-0.2,1-2.1c0.8-1,0.8-1.9,1-3c0.8-0.8,0.4-0.2,1.1-0.6l0.6-1.9c0.6-1,0.6-3,1.5-4c0.4-0.4,1.1-0.6,1.8-0.8c0.2-4.8,0.6-2.1,1.1-4.2c0.4-1.1,0-2.1,1.5-3.8c0.4-0.4,0.2-0.2,0.4-0.6l0.4-1.4l0.2-0.2c1-2.9,0.6-1.5,1.8-3.3c0.4-0.4,0.8-1.4,0.8-1.9c-0.2-2.1-2.5-2.9-2.9-4c-1.4-2.7,0-0.2-1.5-2.1c-0.4-0.6-0.6-0.6-0.6-1.5c-0.2-1.1,0-2.9,0-4c0.2-5.8,0-2.7,1.9-6.9c0.6-1,1.1-1.5,1.8-2.5c0.8-1.1,0.8-1.4,2.7-1.4c0.8-1.5-0.4-1,1.1-1.4c2.3-0.6,2.1-0.2,4.6-1.1c0.4,0,0,0.2,0.8-0.2c0.2-1.1,0.6-2.5,1.4-3.3c1-0.8,0.8,0,2.9-1.5c2.3-1.8,5.6-0.6,8.2-0.6c1.4-1.5,0.4-0.4,1.9-1.1c2.5-1.5-0.2-2.1,8.1-1.9c0.2,0.6,0.4,0.8,1,1.1c0,0.2,0,0.2,0.2,0.2v0.2l0.4,0.2c3,2.3,1,0,1.9,2.9c0.8,2.3,3.3,1.8,5.9,1.8l2.9,2.9l1,3c0.2,1.9-1.4,5.9-2.7,7.1c-0.8,0.8-0.6,0.6-0.8,1.9l-0.2,2.1c0.2,0.2,0.2,0,0.4,0.2c0.2,1,1.1-1.5,1.4,5.4c0,1,0,0.8,0.2,1.5l1.1,4.2c0.4,4.4,0.2,9.8,0.4,14.6l1.1,0.4c0,2.3-0.2,10.7,0.2,12.3c0.6,2.1,0.4,2.5,0.4,5.6c0,1.9,0.2,3.7,0.4,5.8c0,0.6,0,0.8,0.2,1.4c0.8,3,0.4,7.1,0.4,10.4c0,3.8,0.2,7.7,0.2,11.9c0,16.3,0.2,32.5-0.2,48.4c-0.4,0.2-0.8,0.4-1.4,0.6c-0.2,6.9,0.2,5.4-1,11.5c-0.2,1.1-0.4,0.4-0.4,2.1c-0.2,1.8-0.4,3-0.4,4.8c-0.4,0.4-0.8,0.6-1.4,1c0,1.4,0,2.7,0,4c0,0.8,0,1,0.2,1.8c0,0.2,0.4,1.1,0.6,1.4l-2.5,0.2l4.2,0.6c1.5,0.2,2.7,0.4,4.4,0.6c1.5,0.2,2.7,0.4,4.4,0.6l8.6,1c1.5,0,3,0.4,4.4,0.6c3.3,0.2,5.9,0.6,9.2,1c1.1,0.2,2.9,0.4,3.8,0.6l9.4,1c3.4,0.4,2.7,0.6,3.8,0.8c2.9,0.4,6.3,0.8,9.2,1c1.9,0.2,5.8,1.1,8.6,1.1V0H0V114.4z"/><path fill="#DEE7EE" d="M235.2,260c1,0,1.1,0.2,1.9,0.6c3,1,2.7,0.2,5.6,2.5c4.6,4,3.4,11.4,0.6,4.8c-1.5-3.4-4.8-3.4-8.8-5.2C234.5,261.3,234.6,261,235.2,260z M73.9,344.2l5.6,3.4c0.6,0.4,0.4,0.2,0.6,0.8c-1.5,1.8-7.8,3.8-9.4,4.6c-0.4,0.2,0,0-0.6,0.2c0,0,0,0.2-0.2,0.2c0,0,0,0-0.2,0l-1.9,1.4c-0.8,0.4-1.5,0.6-2.3,0.8c-0.8,0.6-1,1-1.9,1.4l-0.4,0.2c-1.1,0.4-0.6,0-1.8,0.8l-4.4,2.5c0,0,0,0.2-0.2,0.2c-1.5,1.5-3.8,2.3-4.8,3.3c-1.8,1.8-0.8,0-3,2.1l-2.3,2.1c-0.6,0.4-1.1,0.8-1.8,1.4c-4,3-9.8,8.5-12.9,12.1c-0.2,0.2-0.4,0.4-0.6,0.8c-1.4,1.1-6.3,7.5-7.7,10l-4.8,7.7c-0.6,1.9-0.4,0.8-1.4,3c-1.5,3.4-2.7,5-3.3,7.8c-0.4,1.4-2.5,4.4-2.5,6.9c-0.2,7.7,0.4,46.5-0.6,49.8c-0.6,2.1-0.2,9.6-0.2,12.5h120.4c0.2-2.1,1-3.7,1.5-5.4c0.4-1.4,0-0.4,1.1-1.1c0-1,0-1.9,0.4-2.5c0.4-1.4,0.4-0.2,1.1-2.9l1.5-3c0.4-1.1,1-3,1.5-4c1-1.1,0.4,0.2,0.8-1.9l4.8-9.6c0.6-1.1,0.6-0.8,1.4-1.5c0.8-0.8,1.4-2.7,2.1-3.7c0.4-0.8,0.6-1.1,1.1-1.9c1.4-2.5,3.4-4.2,4.6-6.7c0.8-1.4,1.8-2.1,2.5-3.4l2.5-3.3c1.1-1.4,1-2.1,3.7-4.6l2.1-2.5l0.2-0.2v-0.2l0.4-0.2c1.1-1,2.1-1.4,3-2.9c0,0,0,0,0-0.2c0,0,0.2,0,0.2-0.2l8.5-8.8c0.2-0.4,0-0.2,0.2-0.4c0.6-1,1.9-1.4,2.5-1.9l3.3-2.7c1-0.6,1.1-1.4,2.1-2.1l1.5-1.1c2.5-1.5,3-2.9,5.6-4.2c0.2,0,0.2-0.2,0.2-0.2c0.8-0.4,1.1-0.8,1.9-1.1c1.5-1.1,3-2.9,4.8-3.4c1.9-0.8,3-2.1,5.4-3.7c1.8-1,3.3-2.5,5-3.4l9.2-5.4c0.6-0.4,1-0.8,1.5-1.1c0.8-0.4,1.4-0.4,2.1-0.8c1.1-0.6,2.7-1.1,3.7-1.9l1.8-1.1c0.4-0.2,0.4-0.2,1-0.6c1.1-0.6,0.2-0.2,0.8-0.6c0.8-0.6,0-0.2,1-0.6l2.9-1.5c0.8-0.4,0.2-0.2,1-0.4c0.6-0.4-0.2-0.2,1-0.6l20.2-8.6c1-0.4,1-0.6,1.8-1l4-1.8c1.4-0.6,2.9-1,4.4-1.5l9.4-3.4c0.8-0.2-0.2,0,0.8-0.4l4.6-1.4c1.5-0.4,1-0.6,2.3-0.8c2.9-0.8,2.1-1.1,4-1.8c1.8-0.6,4.8-1.8,6.3-1.9c1.5-0.2,1.1-0.2,2.3-0.8c2.3-1.4,6.7-1.4,9.2-2.3c1.8-0.8,8.1-1.8,9.2-2.3l11.5-3c1.4,0,1.1-0.2,2.1-0.4l5-1c1.1-0.4,0.2-0.6,1.9-0.8l5.8-1.1c3.4-1.1,7.5-1.8,11-2.3l4.8-1.1c1.5-0.4,4-0.2,5.2-0.6c-2.3-1.1-26.9-0.6-32.5-0.6c-3.7,0-7.3-0.2-10.7-0.2c-3.8,0-7.5,0-11.1,0c-3.8,0-7.3-0.4-10.7-0.4c-7.3,0-14.8,0.2-21.9-0.2c-0.2,1.4,0.2,3.3,0,5.4c-1.9,1.1-0.4-0.4-1.5,1.8c-0.8,1.1-2.1,1.4-2.9,2.3l-0.4,0.8c-1.1,1-0.6-0.4-1.4,1.5c-3.3,0.4-1.9,1-3.7,1.8l-1.8,1.1c-0.8,0.8-0.6,0.2-1.8,0.8c-1.4,0.6-0.4,0.8-2.5,1.1c0,0.6-0.8,0.2-1.8,0.4c-1.1,0.4,0,0.4-1.5,1c-1.5,0.4-3,0.2-4.4,0.6c-1,0.2-0.8,0.6-1.9,0.8c-3.3,0.4-4,0.2-7.1,0.2c-1.8,0-3.3,0.2-4.8-0.2c-1.5-0.3-2.7-0.8-4.2-0.8c-5-0.6-1.9-1.8-7.7-2.1c0,0,0,0-0.2-0.2l-0.6-1c-1.9-0.2-1.9,0-2.7-0.8c-1.4-1.4,0.8,0.6-0.4-0.4c-1-0.8-3.7-1.8-4.8-2.9s-0.6-1.1-2.7-1.4c-0.4-1-1.5-2.7-2.3-3.4c-3-3.4-1.1-1.4-3-5.8c-0.4-0.6-0.8-1-1-1.8c-1.4-1.9,0.2-2.7-1.9-3.3l-0.4-3.4c-1.1-1.1-1.4-0.4-1.5-2.7c0-1.4,0-1.4-0.6-2.3v-0.5c-0.8-1.4-1-2.3-1-4.2l-1.4-7.5v-12.5c0.2-3,0.8-1.8,1.1-3.3l5.5-11.7l7.1-5.4l0,0c0.8-1.1,1.9-1.8,3-2.3c-0.4-4-1.9-3.4-3.7-3.3c-1,0-2.1,1.5-2.5,2.3l-0.6,1l-2.1-0.2c-0.4-1.1,0.4-2.3,1-3c1.1-1.1,1-1.5,2.7-2.1c0.4-0.2,2.1-1.1,2.5-1.1c0-1.1,0-1.1-0.6-1.8l-3.3-3.3c-0.8-0.8-4-3.4-4.2-4.2c0.8-0.6,1.5-0.8,2.7-0.4c1.5,0.4,4.2,0.8,5.4,1.8c1.1,0.8,1.1,1,2.5,1.5c-0.2-1.1-0.4-1.1-0.6-4c-0.2-1.9-3.7-15.4-4.2-17.1c-0.4-1.4-1.8-5-1.8-6.3c2.1-0.4,2.7,1.1,4.8,4.2c2.7,3.4,6.3,12.3,7.7,16.9c0.2,1,0.2,1.1,0.8,1.5c0.2-0.4,0.2,0,0.4-0.8l0.4-2.7c0.2-1.4,0.2-2.7,0.2-4c0-5.6-0.8-6.6,1.8-6.3c0.8,1.4,1.9,6.3,2.1,8.6c0.8,4,0.6,7.5,1,10c1.4,0,5-3.3,6.2-3.4c1-0.2,3.8-0.4,2.9,1.4c-0.2,0-1,0.8-1,0.8l-5.2,4.8c-1,0.8-4.4,7.3-4.4,8.8c0.8,0.6,1.9,0.2,3,0.4c1.1,0,1.1,0.4,2.5,0.4c1.9,0.4,4-0.2,5,1c2.1,0.8,5,5,5.2,7.7c1.8,3.3-0.6,10.4-0.6,11.1c0,1.4,0.2,1,0,2.7c-0.4,1.8-0.6,0.8-0.8,2.3l-0.8,4.4c-0.2,0.8,0.2,0.2-0.4,1c-1,1.5,1.4,3.3-0.2,5.6c-0.8,1.5-0.6,3-0.6,5.4c0,1.9,0.2,3.8,0.2,5.6l0.2,0.6c0.2,0,0.2,0.2,0.2,0.2c0.8,1.9-0.2,0.6,1.4,1.9c0.2,2.9,0.4,2.1,1,2.9c1.5,2.1,0.6,1.9,3.7,3.3c0.8,0.4,0.6,0.2,1,0.8c0,0,0.4,0.2,0.6,0.4c0.2,0.2,0-0.2,0.4,0.6c1.9,0,0.8,0.4,2.1,0.8l8.6-0.2c3.4-0.4,7.3-1,11.1-0.8c0-0.2-0.4-0.8,0.6-1.1c0.2-0.6,0.4-1,0.6-1.4c2.7-5,1.4-3.4,2.5-7.7c0.8-2.3,1-8.2,0.2-10.6c-0.6-1.1-0.4-1.4-0.4-2.7l-2.9-10.6c-1.5-3-0.6-3.3-1.5-5.6c-0.8-1.5-1.4-2.9-1.8-4.4c-0.4-1.9-1-2.3-1.8-4c-0.2-0.8-0.6-1.5-0.8-2.3c-0.4-0.6-0.6-1.1-0.8-1.9c-0.8-1.5-0.6-0.2-1.1-1.9c-0.4-1-0.4-1.1-0.8-1.9c-1.1-2.9-2.3-5.6-3.8-8.2l-3.7-7.7c-0.4-0.2-1,0-0.6-1c-1-0.4-0.6,0-1.1-1l-0.4-1.1l-5-10.2c-0.2-0.2-0.2-0.2-0.2-0.2s0-0.2-0.2-0.2l-3.3-6.3c0-0.2-0.2-0.2-0.2-0.2c-0.8-1.5-0.4,0.6-1.4-2.7c-0.2-1.4-0.8-0.6-1-2.3c-0.4-1.5,0.6-5.9,1-7.1c0.2-0.4,0.2-0.6,0.4-1.1c1-4.2,3-7.1-4.4-5.6c-2.7,0.6-6.6,3-8.6,4.6c-1.1,0.6-2.9,2.1-4,2.3c-1.5,0.2-15.8-1.1-17.8-1.8c-1.9-0.2-3.8-0.6-5.9-0.6c-4,0-1.9,0-4.4-0.4l-14.4-0.4c-2.3,0-4-0.4-6.2-0.4c-8.1,0-17.8-0.4-25.9,0c-4,0.2-8.5,0.4-12.9,0.4l-18.6,1.1c-2.1,0.4-3.7,0.2-5.9,0.4c-1,0-1.9,0.2-2.9,0.4l-22.1,2.5c-0.6,0-1,0-1.8,0c-2.3,0.2-2.5,0-4,0.8l-6.9,1.1c-1.4,0.2-1.8,0-3,0.2c-6.7,1.8-6.6,0-11-1c-1.4-0.2-1.8-0.4-2.7-0.8l-1.9-0.6c-1.4-0.6-5-0.6-6.7-0.4c-2.3,0.2-2.1,1.4-2.5,3.4c-0.6,4,0.2,7.8,1,11.1l1.4,5.4c1,2.5,0.4,24,0.2,29.2c-0.2,1.1-0.4,1.4-0.4,2.7c-0.2,4.2,0,8.8,0,13s1.1,16.5,2.7,20.3c0.2,0,1.8,8.1,3.4,11.4c1.5,2.3,0.4,1.8,1.4,3.4c0.4,0.6,0.8,1.4,1.4,1.9c1.8,2.3,0.8,1.9,2.3,4.2c0.2,0.4,1,1.8,1.1,1.9l4.8,5c1,0.6,1,1,1.5,1.8l4.4,4C73.9,343.8,73.8,343.5,73.9,344.2z"/><path fill="#9DABC6" d="M128.6,132.5c0-1.1,0.6-1.4,2.1-3l0.8-1c0.4-0.6,0.4-0.8,0.6-1.4l1.4-3.7c1,0,0.8,0,1.1,0.8c0.4,0.2,0,0,0.6,0.6l0.6,0.6c0,0,0,0,0,0.2c0.8,0.8,0.2,1.1,1,2.3c0.8,0.8,0.4,0.2,1,1c0.8,1.1,0.2,0.8,1.4,1.9c1,1,1,1.9-1,1.9h-4.2C132.3,132.6,129.8,133,128.6,132.5z M39.9,134c-1-0.6-2.1-0.8-3.3-1.5c-1.9-1.4-2.3-1.1-3-1.8c-0.8-0.8-0.2-0.4-1.4-1.1l-3.7-2.7c-0.2-0.2-0.4-0.4-0.6-0.6c-3.7-3.4-2.3-2.9-3.3-4.2c-0.6-0.6-0.8-0.6-1.1-1.4l-1.8-3.4c-0.8-1.8-1.1-2.3-2.5-2.1c-1.1-0.4-1.1-1-4.2-0.8c-1.4,0-2.5,0.4-3.7,0.8c-0.4,9.6,0,19.8,0,29.4v191.2c0,2.9-0.6,12.5,0.2,14c1-0.4-0.6-0.4,3.3-1.4l20.6-4.2c1.9-0.6,6.7-1.5,8.6-1.5c0.2-1,0-0.4,0.4-1c6.6-0.2,4.6-0.8,8.6-1.1c6.7-0.8,2.1-1.4,5.8-1.4c5.9-0.2,3.4-0.8,6.2-1.1c1.9-0.2,2.5,0.8,3.4,1.9c0.6,0.6,0.4,0.4,1.1,1c0.2,0.2,0.2,0.2,0.6,0.6l2.1,1.8c0.6,0.4,0.8,0.6,1.5,1c-0.2-0.8,0-0.4-0.6-0.8l-4.4-4c-0.6-0.8-0.6-1.1-1.5-1.8l-4.8-5c-0.2-0.2-1-1.5-1.1-1.9c-1.5-2.3-0.6-1.9-2.3-4.2c-0.6-0.6-1-1.4-1.4-1.9c-1-1.8,0.2-1.1-1.4-3.4c-1.8-3.3-3.3-11.4-3.4-11.4c-1.5-3.8-2.7-16.2-2.7-20.3c0-4.2-0.2-8.8,0-13c0-1.4,0.2-1.5,0.4-2.7c0.2-5.2,0.8-26.7-0.2-29.2l-1.4-5.4c-0.8-3.3-1.5-7.1-1-11.1c0.4-2.1,0.2-3.3,2.5-3.4c1.8-0.2,5.4-0.2,6.7,0.4l1.9,0.6c1,0.4,1.4,0.6,2.7,0.8c4.4,1,4.2,2.7,11,1c1.4-0.2,1.8,0,3-0.2l6.9-1.1c1.5-0.8,1.8-0.6,4-0.8c0.8,0,1.1,0,1.8,0l22.1-2.5c1-0.2,1.9-0.4,2.9-0.4c2.3-0.2,3.8,0,5.9-0.4l18.6-1.1c4.4,0,8.8-0.2,12.9-0.4c8.1-0.4,17.8,0,25.9,0c2.1,0,3.8,0.4,6.2,0.4l14.4,0.4c2.5,0.4,0.4,0.4,4.4,0.4c2.1,0,4,0.4,5.9,0.6c2.1,0.6,16.3,1.9,17.8,1.8c1.1-0.2,2.9-1.8,4-2.3c2.1-1.5,5.9-4,8.6-4.6c7.5-1.5,5.4,1.4,4.4,5.6c-0.2,0.6-0.2,0.8-0.4,1.1c-0.4,1.1-1.4,5.6-1,7.1c0.2,1.8,0.8,1,1,2.3c1,3.3,0.6,1.1,1.4,2.7c0,0,0.2,0,0.2,0.2l3.3,6.3c0.2,0,0.2,0.2,0.2,0.2s0,0,0.2,0.2l5,10.2l0.4,1.1c0.6,1,0.2,0.6,1.1,1c-2.3-4.8-1.4-11.1-1.4-16.5c0-5.6,0-11.1,0-16.9c0-33.6,0.4-68.3,0-101.9c-0.8-0.4-1.1-0.8-1.9-1.4c-2.1-1.1-1.1-1.1-2.1-1.4c-2.5-0.8-7.3-1.4-8.8,0.2c-2.1,1.9-4.6,6.7-6.7,8.6l-0.4,0.4c-0.6,0.6-0.2,0.2-0.8,1c-0.2,0.4,0,0.2-0.4,0.6c-0.4,0.4,0,0.2-0.6,0.4c-1.1,1-0.4,0.6-1,1.4c-0.4,0.6,0,0.2-0.4,0.6l-2.3,1.4c-0.8,0.6-0.2,0-0.8,0.8c-0.6,1.1-0.6,0.8-1.8,1.8c-1.1,1-1.4,1.1-2.1,1.5c-2.7,0.8-1.5,1.5-4.2,2.7l-5.2,1.9c-4,1.9-9.4,3-14,3.3c-2.5,0-12.1,0.2-13.8-0.2c-0.2,0-0.2-0.2-0.2-0.2c-0.2,0-0.2,0-0.2,0c-0.2,0-0.2,0-0.2,0l-5.4-1c-1.4-0.2-1-0.4-2.9-0.6c-1.1-0.2-1.9-0.2-2.7-1c-1.1,0.2-3.7-1.4-5.2-1.9l-5.4-2.3c-0.8-0.4-1.4-1-2.3-1.5c-0.8-0.4-0.6,0-1.4-0.6c-0.6-0.8,0-0.8-2.1-1.5c-2.7-1-0.2-0.4-3.4-2.1l-3.7-3.7c-2.5-3.3-5-6.7-6.3-10.7c-0.2-0.6-0.2-1-0.4-1.5c-0.2-1.4-0.4-1.9,0-3c1-0.4,1.5-0.2,2.1,0l1.5,0.8c4.8,1.9,8.5,1.1,11.9-2.1c0.6-1.8,2.9-2.1,2.9-5.6c0-2.9-1.4-4-2.3-5.8c-1-2.1-0.4-1.1-1.9-2.3c-1.4-1-0.2-0.6-2.3-1.4c-2.1-0.8-5.4-0.8-7.7-0.6c-1.4,0.2-0.6,0.4-3,1c-1.5,0.6,0,0.2-2.3,1.5c-3.3,1.9-5.6,5.9-6.9,9.2c-0.8,2.1-0.2,4-1.1,5l-1.1,0.6c-0.8-1.1-0.2-1.9-1.5-5.2c-3.3-6.9-0.8-1.9-4-6.6c-1-1.8-4.8-3.4-5.6-5c-0.2-0.2-1.4-0.6-1.5-0.6c-1.9,0.2-4.6-0.2-6.7,0c-2.1,0-4,0.8-5.6,2.1c0,0.2-0.4,0.4-0.6,0.4c-1.4,1.4-3.4,5.4-2.3,8.8l1.8,3l0.2,0.2c1.8,1.5-0.2,1,1.9,1.9c1.4,0.6,0.8,0.6,1.5,1c0,0,0.6,0.2,0.6,0.4c3,1,7.7,1,9.6-0.8c2.9-2.5,3,0.8,2.3,3.8c-1,2.9-1.8,4.4-1.9,5.9c-1.8,0.4-1.1,0.4-1.9,1.8c-1.4,2.3-2.1,2.5-2.9,3.8c-0.6,1,0.2,0.4-0.8,1s0-0.4-1.4,1l-2.5,1.9c-2.3,1.1-1.4,1.4-2.7,2.1l-1.4,1h-0.2l-3,1.5c-1.9,0.6-0.4,0.2-2.1,1.1c-1.8,1-1.5,0.4-3.4,1.1l-6.3,2.3c-1.4,0.2-1.5,0.6-2.7,0.6c-1.1,0.2-2.3,0-3.4,0c-6.3,0.2-12.1,0.8-19.2-0.4c-5.6-0.8-6.2-1-12.3-1.5l-7.9-1.5c-0.8-0.4-1.8-0.6-2.5-0.8C42.8,135.8,40.9,135.2,39.9,134z"/><path fill="#0D0D0D" d="M545.5,249.4c-1,0.2-0.4-0.2-1.1,0.4c-0.2,5.9-1.9,8.1-2.5,12.9c0,1.1-0.4,2.1-0.6,3.3c-0.6,1.9-0.6,4.8-1.1,6.7c-0.4,0.8-0.2,0.8-0.4,1.5c-0.2,1-0.4,0.8-0.6,1.4c-0.8,1.9-1,4-1.8,5.9c-0.6,1-0.2,0.6-0.4,1.8c-0.4,1.5,0,0-0.6,1.1c-0.6,0.8-0.4,2.1-1.5,4.4l-3,6.6c-1,2.1-0.4,2.5-1.9,4.6c-0.6,0.8-0.6,1.8-1,2.5l-3,4.6c-0.6,0.6-0.4-0.2-0.8,1l-2.1,3.8c-0.8,1-0.6,1.5-1.5,2.3c0,0.2-0.2,0.2-0.4,0.6c-1.1,1.1-1.8,2.9-2.9,4c-1,0.8-1.8,2.1-2.5,3.3l-1.5,2.3c-0.6,1-0.4,0.8-1.4,1.4c-0.8,0.2-0.2-0.2-0.8,0.4c-1.8,1.1-2.5,3-3.8,3.8c-1.9,1.4,0,1.1-1.9,1.9l-1.4,0.8c-1,0.4-0.4,0.4-1.8,0.2c0-1.4,1-2.9,1.5-3.8c0.6-0.8,0.4-0.2,0.8-1.1l3.3-4.6c0.8-0.8,1.1-1.4,1.8-2.1c1.9-2.3,1.5-0.8,3.4-4.6c0.6-1.1,1.9-1.9,2.7-3l0.4-1.4c1-1.4,0.4,0.2,1.8-3l1.4-1.5c1-1,1.4-2.7,2.1-4c0,0,0.6-0.8,0.8-1c0.6-1,0.2-0.8,0.8-1.4c0.8-0.8,0.8,0,1.8-2.1c0.2-0.6,0.2-0.8,0.4-1.5c0.6-1.5,1-0.6,1.1-2.9c1.9-0.6,1.1-0.8,1.9-2.7c0.6-1.8,1-1.1,1.1-3.7c1.4-0.6,1,0.4,1.1-1.8c0.2-1,0.2-1.8,0.6-2.5l1.4-3.3c0.4-1.5,0-0.4,0.6-1.1c1.5-1.9,1.8-6.6,1.9-7.3c0.2-0.6,0.6-1.1,1-2.3c0.2-1.9,0.4-0.6,0.8-2.3c0.2-1,0.2-1.8,0.4-2.7l1.8-7.7c0.2-1.4,0.4-1,0.6-2.9c0-2.1,0.8-3.3,1.1-5c0.4-1.5,0-2.7,0.6-3.8c0.8-1.1,2.5-10.2,2.7-11.5c0.6-3.3,1-7.1,1.9-10.4c0.6-1.5,0-4.4,0.6-5.9c0.8-1.4,0.6,0.2,0.8-2.1l1.5-8.5c1.4,0.8,1,3.4,0.8,4.6c-0.4,1.9-0.4,3.4-0.6,5.4l-0.8,5c-0.4,5.2-1.5,10.2-2.1,16.2c-0.2,1.9-1,2.9-1,5C545.5,245.4,545.5,247.3,545.5,249.4z M557.4,203.7c0.8,1.1,1,0,1.5,1.9c0.4,1.1,0.8,1.5,1.1,2.7c1.8,4,2.5,15.5,2.7,20.3c0.2,1.9,0.2,5,0.4,7.1c0.2,1.4,0.4,1.5,0.4,3.3c0,1.4-0.2,2.7,0.2,3.8c0.4,1.5,0.4,0,0.4,3V267c0,1.8-0.2,1.4-0.2,1.5c0,0-0.2,0.2-0.4,0.8v3c0,4.4-0.6,9.8-1,14l-5.2,17.4c-0.6,1.8-0.8,1.5-1.5,2.9c0,0.2,0,0.2,0,0.2c-0.8,1.1-1,1.1-1.8,1.5c-0.6,0.4-2.1,1.5-2.1-0.2c0-1,0.2-0.6,0.8-1.1c1-0.8,0.4,0.2,0.6-1.4c0.4-1.1,1-1.5,1.4-2.5c0.4-0.8,0.8-1.9,1.1-2.9c0.4-1,0.6-1.5,1-2.5l1.8-5.9c0.2-0.6,0.6-1,0.6-1.4c0.2-0.6,0.2-1.1,0.2-1.8c0.4-1.9,0.6-0.4,1-2.7c0-1,0-2.3,0.2-3.7l0.6-18.8c0-1.5,0.2-2.1,0.2-3.7l-0.2-15c0-0.6,0-1.1,0-1.5c-0.6-2.1-0.8,0.8-0.8-5.2l-0.4-12.9c0-1.4-0.2-1.5-0.4-1.8c-0.4-1.1-0.4-5.6-0.6-7.3c0-1.1-0.4-1.5-0.6-2.7c-0.2-1.8,0-4.8-0.8-7.1C557.2,205.3,557,205.6,557.4,203.7z M535.5,198.7c0.2,2.5-0.2,5.4-2.1,6.2c-2.3,1.1-3.4-1.1-4.4-2.7c-1.9-2.7-2.1-2.5-1.8-6.6c0.2-2.3,0.6-4.4,1.9-6.3c1.5-2.1,2.5-2.5,5.8-2.5c3.4,0,3.8,0,5.2,2.7c1,2.1,0.8,4.8-1,5.9c-1.5,1-5.2,0.8-7.3,0.8c0.6,1.8,1.9,1.8,3.3,2.3L535.5,198.7z M565.5,183.8c1.4-1,3-0.4,4,0.4c1.9,1.8,1.1,6.3,0.2,8.1c-2.3,4.2-10.4,3.3-7.7-1.9C563.8,186.6,563.2,185.3,565.5,183.8z M543.6,179.7c0.8-0.2,2.1-0.2,3,0.2c6.2,1.9,4.6,13.8,0.2,15.9c-0.8,0.4-2.3,0.8-3.4,0.4c-2.3-1,1.1-3-1.5-8.2c-2.5-5-3-2.9-0.2-6.7C542.5,180.1,542.1,180.1,543.6,179.7z M553,186.4c0-2.7-0.8-3.3-1-5.2c-0.2-3.8,7.1-7.7,9.2-1.1c1,3.3-0.6,5.6-1.9,8.1c-0.6,1-1.8,2.5-2.5,3c-1.1,1.1-2.3,1.5-4.2,1.4L553,186.4z M529.8,207.9c1.4,0.2,1,0.2,1.9-0.2c0.4,0,0.2,0,0.6,0c1-0.2,1.4-0.6,2.1-0.4c0.6,0,0.4,0,0.6,0.2c-0.4,1.8-1.1,0.8-2.5,1.4c-0.4,0.2-1.5,1.5-1.9,1.9c-1.1,1.4-0.8,0.8-1.4,2.5c-2.5,6.9-1.8,3.8-2.5,5.2c-0.4,0.6-0.6,2.3-1,3.3c-0.2,0.8-0.8,1.8-1.1,2.7c-0.6,1.1-0.6,2.5-1.4,3.7c-0.6,0.8,0-0.4-0.4,0.6c-1,1.5-1.1,1.4-1.5,2.5c-0.2,0.4-0.2,0.8-0.6,1.4c-0.4,0.8-0.2,0.4-0.8,1.1l-2.3,4.6c-0.4,0.6-0.2,0.2-0.4,0.6l-3.7,6.2c-0.6,1.1-0.8,0.6-1.5,2.7c-0.6,1.5-2.1,2.7-3,4c-1,1.1-2.1,2.1-2.9,3.4l-5.4,6.6c-0.8,1-0.4,0.4-1.1,1l-6.2,5.4c-1.4,1.4-1.5,0.6-2.7,1.5c-1.9,1.8-2.9,1.8-5,3c-0.8,0.4-1.4,1-2.3,1.5c-1.4,0.8-1.5,0.6-2.9,1.1c-1,0.4-0.8,1.1-1.9,1.1c-1.5-0.2-0.6,0-1.1-0.6c0.2-1.9,0.8-0.8,1.9-1.9c1.4-1.1,1.5-1.4,3.4-2.3c3.4-1.5,0.6-2.9,1.8-6.3c0-0.4,0-0.4,0.2-0.6c0.2-0.6,0.2-1.8,0.6-2.5c0.6-0.8,0.6,0.2,0.8-1.1c0.2-0.4,0.2-1,0.4-1.5c0.4-1.1,1-1.8,1.4-2.5l2.9-4.8c0.6-1,0.6-1.8,1.4-2.5c1-1,0.4,0.4,0.8-1.4c0.2-0.6,0-1.1,0.2-1.5l1.4-4.2c0.8-1.4,1.1-8.6,0-9l-2.5-0.2c-1.1,0.2-2.3,0.2-3.3,0.2c-2.1,0-1.4,0.2-2.7,0.6c-2.9,0.8-5.6,0.8-8.6,1.4c-1.1,0.2-1.5,0.6-2.5,0.8c-3,0.8-7.7,1.5-10.2,2.9l-3.4,1.5c-3,1.5-3.4,0.4-7.8,3.8c0,1.5,1,2.1,1.8,3.3l4.8,8.5c0.6,1.4,1.4,2.7,2.3,3.7c0.2,2.1,0.4,2.5,1,4.2c0.6,1.8,1,2.3,1,4c0,0.8,0,1.5,0.2,2.3c0.2,2.1-0.4,1.1,0.2,3.3c0.4,1.5,0.6,13.8,0.4,15.5c-0.2,2.1-0.4,0.4-0.8,1.8c0,0.2,0.4,3.4,0.4,4.6c0,6.3,0.6,13,0.6,19.4l-0.4,16.9c0,1.5,0.4,1.4-0.8,1.9c1.4,1.1,0.6,1,0.2,2.3c0.6,0.2,0.4,0,0.8,0.4h1c1.5,0.4,0.6,0,1.5,0.8c1.8,0,4.8,0.6,6.3,0.2c3.4,0,8.1,0.6,10.4,0.4l-1.9-7.5c-0.8-1.5-0.2-2.7-0.8-4c-0.6-1-0.8-2.7-0.2-3.8c1.4,0,0.8-0.2,1.1,1.1l2.1,8.5c0.2,0.8,2.1,1.9,2.1,5.8c0.6,0.2,1.4,0.4,1.8,0.6c0.6,0.2,1.4,0.2,1.9,0.8c3.7,0.6,9.8,0.8,13.6,1c6.6,0.6,16.5,1.9,22.6,2.3c2.5,0,4.8,0.8,9.2,0.8c2.1,0.2,2.1,0.6,4.4,0.6c1.9,0.2,2.9-0.2,4.4,0.6c1,0.6,3,0.4,4.4,0.4l4.4,0.8c1.5,0.2,8.5,0.8,9.4,0.4c1.8,0,3.3,0.6,5,0l0.2-1c0-0.4,0-0.8,0-1.1l1.1-6.3c1.1-3.3,2.9-23.2,2.9-26.9c0-0.8-0.2-1.8,0-2.3c0-1.1,0.2-0.8,0.6-1.8c0.4-1.1,0.6-41.4,0.2-44.2c-0.4-3.4,0.4-4-0.6-6.9c-0.2-0.8,0-1.4,0-2.3c0-1.9-0.2-3-0.4-4.4l-0.2-9.8c0-1.8-0.6-2.3-0.6-6.6V231c-1-3.4-0.6-1.4-0.6-5.2c0-3.3-0.6-6.2-0.6-9.4c-0.2-3.8,0.2-8.5-0.6-12.1c-0.4-1.8,0.2-4.4-0.6-5.9c-0.2-0.2-0.2,0-0.4-0.8c0.8-1.1-0.2-1,1.5-1.8c0.2-1.4,0-1.1,0.8-1.9c1.4-1.1,2.9-5.2,2.7-7.1l-1-3l-2.9-2.9c-2.7,0-5.2,0.6-5.9-1.8c-1-2.9,1.1-0.6-1.9-2.9l-0.4-0.2v-0.2c-0.2,0-0.2,0-0.2-0.2c-0.6-0.4-0.8-0.6-1-1.1c-8.2-0.2-5.6,0.4-8.1,1.9c-1.5,0.8-0.6-0.4-1.9,1.1c-2.7,0-5.9-1.1-8.2,0.6c-2.1,1.5-1.9,0.8-2.9,1.5c-0.8,0.8-1.1,2.1-1.4,3.3c-0.8,0.4-0.4,0.2-0.8,0.2c-2.5,1-2.3,0.6-4.6,1.1c-1.5,0.4-0.4-0.2-1.1,1.4c-1.9,0-1.9,0.2-2.7,1.4c-0.6,1-1.1,1.5-1.8,2.5c-1.9,4.2-1.8,1.1-1.9,6.9c0,1.1-0.2,2.9,0,4c0,1,0.2,1,0.6,1.5c1.5,1.9,0.2-0.6,1.5,2.1C527.3,205,529.6,205.8,529.8,207.9z"/><path fill="#0D0D0D" d="M401.4,293.2c0.2-0.8,0.6-0.8,1.4-1.4c1-0.6,0.6-0.6,1.9-0.6c4.4-0.2,5,1.8,5.6,2.9c0.8,1.4,1.1,1.1,1,4.6c0,2.3-0.4,1.1-0.8,2.1c-2.3,5-10.7,1.9-10.6-2.7C400,295.3,400,293.9,401.4,293.2z M318,322.2c-1,0.8-2.1,0.6-3-0.2l0,0c-2.1-1.5-0.4-1.8-2.9-2.1c-0.6-2.5-0.4-1.4-1-2.3c-0.2-0.2-0.2-0.2-0.2-0.2c-1.9-2.7-1.1-1-2.3-3.4c-0.4-0.8-1-1.1-1.5-2.5c0-0.2,0-0.4-0.2-0.6c-0.4-1.1-0.6-0.8-1-1.8c-0.2-0.4-0.4-1-0.6-1.4c-0.8-1.5-0.6-0.4-1.1-2.7l-1.1-3.7c-0.4-0.8-0.6-0.6-1-2.1c-0.2-1-0.2-2.5-0.4-3.3c-0.6-3.3-0.8-2.1-1.1-6.6c-0.2-1.9-0.6-0.8-1-3c-0.2-1.8-0.8-1.5-0.8-2.7l-2.5-12.9c-0.4-1.1-0.4-2.3-0.6-3.4c-0.2-2.1-0.6-1.4-0.6-3c-0.2-4.6-0.8-5.6-1-11c0-5.6-1.1-8.1-1.1-14c0-3.3-0.2-2.1-0.4-3.4c-0.2-0.8,0-2.7,0-3.8c0-1.9-0.4-9.2,0.6-11c0,0,0,0,0-0.2l0.6-1.1c0.2-0.8,0.2-0.8,0.2-1.8h1.1c0,1.5-0.4,1.9-0.4,3.4c0.2,1.9,0.6,2.1,0.6,3.4c0.2,1.1,0,2.7,0,3.8l0.6,7.7c0.4,1.5,0.2,4.6,0.6,7.3c0.2,2.1-0.2,3.3,0.4,7.7l1.4,10.6c0.8,2.7,1.4,8.5,1.9,11.9c0.2,1.8,0,0.4,0.6,1.8c0.4,1.5-0.2,4,0.4,5.4c0.2,1,0.2,0.4,0.6,1.4c0,0.2,0,0.4,0,0.8l0.2,0.6c0,0.2,0.2,0.2,0.2,0.4c0.2,0.6,0.2,0.6,0.4,1.4c0,0.6,0,1.5,0.2,1.8c0.2,0.8,0.6,0.8,0.8,1.5c0.4,1.8-0.4,0.6,0.8,3c0.6,1.4,0,1.9,0.8,3.4c0.2,0.4,0.4,0.6,0.6,1.4l0.4,1.5c0.4,1.4,0.2,2.1,0.6,3.4c0.6,1.4,0.6,1.8,1,3c0.8,2.1,0.2-0.6,1.5,2.5c1,2.7,1.8,2.9,2.5,5.6l1.4,2.3c1,1.1,0.6,1.5,1.5,2.7c0,0.2,0,0.2,0,0.2l1.9,2.5C318,322.6,317.6,320.2,318,322.2z M318.6,208.2c-2.1-1.5-7.7,2.3-9-2.3c-0.4-2.1,0-5.4,1.8-6.6c1-0.6,7.3-1.8,9.4,1.8c0.8,1.4,1.9,4,2.5,5.8c1.1,3.7,0.6,3.3-0.8,6.3c-1,1.8-1.8,4.6-4.8,2.5c-1-0.6-1.4-1.1-1.9-2.3C313.4,209.1,318,210.1,318.6,208.2z M281.1,200.8c3-1.4,4.6,2.1,5.8,4.2c0.4,0.6,1.9,2.9,2.1,3.3c1,3.3-6.3,5.6-9.4-0.4C278.1,204.9,278.2,202,281.1,200.8z M308.6,208.2c-0.4,1.5-2.7,2.3-4.8,1.5c-3.7-1.1-7.5-9.8-3.8-14.2c3.8-4.8,9-0.2,9,1.8C308.8,197.8,305,205.3,308.6,208.2z M296.1,201.2c0.4,0.4,0.2,0,0.4,0.8l1.4,5.9c-2.5,1-5-0.6-6.2-2.1c-0.8-1.1-3.8-3.4-3.7-5.2c-0.8-0.2-0.6,0.4-1-0.8c-0.4-0.8-0.4-4.2,0.2-5.2c0-0.2,0.2-0.2,0.2-0.2c0.8-1.4,2.1-2.5,4-2.3c1.4,0.2,2.5,0.6,3.3,1.5l1,0.8c1.8,1.4,0.8,1.9,0.4,3.7C295.9,199.1,296.1,200.2,296.1,201.2z M400.2,194.3c-1.8-2.7-1.8-2.7-3.8-4.8c-2.7-2.5-6.6-5-9.6-7.1c-10.2-6.6-19.2-6.7-32.2-9.2c-1.9-0.4-5-1.1-6.9-1.4c-2.5-0.2-4.4-1-6.9-1.5l-11.1-5.4c-3.7-2.1-6.7-4.6-7.7-9c-0.8-3.4,1.4-7.3,3.7-8.8c1-0.6,1.5-1.1,2.5-1.5c8.2-4.6,19-3,27.7,0.2c0.8,0.4,1,0.2,1.8,0.6c1.8,0.4,12.9,5.8,15.2,7.5c2.5,1.8,7.3,5.2,9.4,7.3l11.4,11.5c4.8,4.8,6.7,7.7,10.4,12.5c0.6,0.6,1.4,1.5,1.8,2.3c0.6,0.8,1.1,1.5,1.9,2.3c1.4,1.9,1.4,1.5,1.4,2.9c-0.4,0.2-3.3,0.6-4.4,0.8C402.6,193.8,401.7,194.3,400.2,194.3z M422.5,178.2c0-8.5,1.1-14,4-21.5c0.4-1,0.8-2.1,1.1-2.9c0.6-1.1,0.8-1.9,1.4-2.9c0.8-1.9,1.8-4,2.5-5.9c1.8-3.7,1.5-2.7,3-5.4c2.9-5.2,4-5,7.5-9.2c1.5-1.9,2.5-2.5,4.4-4.2c3.3-3,11-8.1,15-9.8c7.3-3.3,17.1-2.9,24.8,0.6c0.6,0.4,1.8,1.5,2.1,1.9c2.1,2.3,1.9,3,1.5,6.7c-0.2,2.9-0.8,4-2.3,5.9c-2.5,3-9.2,6.2-12.9,8.1l-7.7,4.8c-5.6,3.8-6.3,3-12.5,8.6c-2.1,1.9-6.3,5.4-8.2,8.2c-0.8,1-1.1,1.5-1.8,2.5c-2.3,4.2-5.4,11.4-6.7,16.2l-1.1,5c-1.1,3.4-1.4,6.9-1.9,8.6l-0.8,1.4l-10.4-2.5C423.2,188,422.5,182.6,422.5,178.2z M377,211.2c-0.4,0.6-0.6,1-1.1,1.5c-1,1.1-1.9,2.3-2.7,3.7c-0.8,1.1-1.1,0.8-1.8,2.3l-1.8,5.8c-0.6,2.3-1,2.1-1.5,3.8c-0.6,2.1-1.5,5.6-1.9,7.8c0,1.5-0.8,2.5-2.3,2.7c-1.4,0.2-3.7,0.2-4.8,0.6c-0.8,0.2-0.6,0.4-1.8,0.6c-1.8,0.4-7.1,1.1-8.5,1.9l-1.9,0.6c-2.3,0.2-0.2,0.2-1.9,0.6c-1,0.4-1.4,0-2.3,0.4c-1.5,0.6-1.4,0.8-3.4,1.5c-1.8,0.4-5.4,2.5-6.2,3.8c0.8,0.8,3.7,1.8,4.8,2.7l1.4,1c0.8,1,2.3,1.8,3.8,1.9c0.2,1.5,0.2,1.1,1.4,1.9c0.8,0.4,1.1,1,1.8,1.5l4.4,5.4c0.8,1.4,0.8,0.6,1.5,1.4l3,5.2c0.2,0.6,0.2,0.4,0.6,1c1,1.4,0.4,1.4,1.1,2.7l1.4,2.1c0,0,0.2,0,0.2,0.2c2.1,3.7,2.5,4.8,2.7,9.4c0,0.4,0,1.4-0.2,1.8l-0.4,1.1c-1.1-0.4-0.6-0.2-1.1-1.5c-1.4-2.7-1.9-3-2.5-4.4l-2.3-4.4c-0.6-0.8-0.4,0-0.8-1.5c-0.6-1-1.5-1.8-1.9-2.9c-0.6-1.4-1-1.5-1.8-2.7c-1.8-2.5-1.4-2.7-3.8-5.4l-1-1.5c-0.8-1.5,0,0-2.3-2.3c-0.2-0.4-0.8-1-1.1-1.1l-1.5-1c0,0-0.4-0.4-0.6-0.6c-1.9-2.7-3.4-2.7-5.6-4.6c-2.3-1.9-2.1-1.1-4.2-2.7c-1.5-1.1-3.7-1.4-3.4-3c0.4-0.2,0.6-0.2,1.1-0.6c3.4-1.9,0.4-1.5,4.6-3.3c1.5-0.6,1.8-1,3.8-1.5c0.2-2.1-0.6-2.5-1.5-3.4c-1-1.1-0.6-1.1-1-1.9c-0.4-0.6-1-0.6-1.5-1.1c-0.6-0.6-0.2-0.2-0.6-0.8l-1.4-2.1c-0.2,0-0.2,0-0.2-0.2l-0.6-0.6c-1.8-1.5,0.4-0.8-1.8-2.7l-1.1-1.5c-1.1-2.3-1.4-0.4-2.1-3.3c-0.6-2.1-0.6-1-1.9-2.3l-1.5-1.8c0,0,0,0-0.2,0l-1-0.6c-0.4-0.2,0.2,0-0.6-0.4c-0.2,0-1.8,0.2-2.1-0.8c0.4-1,1.8-0.8,2.9-0.8c2.7,0,2.3-0.4,2.9-1.1l2.7-5c0.4-1.1,0.8-1.8,0.8-3c-0.2-6.2-1-3.7-1.8-5.8l-1.1-2.7c-0.8-0.8-1.4-1.5-1.8-2.7l-1.8-0.2l-0.6-1.4c-2.1-0.2-1.9-0.8-3.7-1c-1.4-0.2-2.9,0-4.4-0.2c-0.4-1.1-0.2-0.6-1-1.5l-1.9-1.9c-2.1-1.4-0.2,0.6-2.1-1.8c-1.5,0-4-0.4-5.4,0.2c-1,0.6-1.4,1.8-3.8,1.4c-3.7-0.6-1.4-1.4-3.4-1.9c-1-0.4-4.4-0.2-5.6-0.2c-1.1,3.3-1.1,0.6-2.9,3.3c-1,1.4-1.4,2.7-1.4,4.8c-5,0.6-5.2-0.8-7.3,2.5c-0.8,1.4-1.4,1.1-1.1,4.2c0,1.8,0.4,1.9,1,2.9c0.4,0.6,0.4,0.8,0.8,1.4c2.1,3.7,0.8,1.4,2.5,2.9c0.8,0.8,0.8,1,1.9,1.5c2.1,1.8,1.5,1.1,1.5,6.7c0,2.9,0.4,5.2,0.6,7.7l2.1,23c0,1.4,0.2,2.5,0.2,3.8c0.2,1.9,0.8,0.8,0.8,3.3c0,4.2,1,8.6,1.1,15.5c0,2.3,0.6,1.4,0.8,3c0.2,3.3-0.2,5.6,1,9.4c0.4,1,0.4,4.2,0.8,5.6c0.2,0.8,0-0.2,0.2,0.8l0.6,2.7c0,0.6,0.6,7.5,1,9.2c0.6,1.9,0.8,3.8,1.8,6.7l1,5.4c0.2,1.8,1.1,3.8,1.4,4.6l1.1,5.4c0.4,1.1,1,1.5,0.6,3.4l1.5,0.8l42.8,0.4c3-0.2,14.2,0.8,15.9-0.2c-1.5-1.1-1.4,0-2.7-1.8c-0.6-1.1,0.2-0.4-1.1-1.1c-1.8-0.8-1.9-2.1-3.3-3l-1-1c-0.4-0.4,0,0-0.6-0.6l-3.4-3.4c-1-0.6-0.4-0.6-1-1.1c-1-1-0.6,0.2-1.4-1.1c-0.4-0.6-0.2-0.6-0.8-1.4l-2.1-2.7c-0.6-0.6-0.6-0.8-1.1-1.5c-0.6-0.8-0.4,0-1-1.1c-1-2.1-0.6,0-1.8-2.7L332,301c0-0.2,0-0.2,0-0.2c-0.8-0.8-0.8-1.5-1.1-2.5l-3.7-5.8c-0.6-1.8-1-1.9-1-3.8c-1.9-1.1-1.4-0.6-2.3-3.3c-0.4-1.5-1-0.8-1.4-2.7c-0.6-1.9-1.5-3.3-2.3-5c-0.6-0.8-0.2-1.5-0.8-2.5c-1.1-1.5-1.1-4.4-2.1-5.9l-1-1.9c-0.2-1-0.2-1.4-0.6-2.3c-0.6-1.4-0.8-3-1.4-4.6c-0.4-0.6-0.6-1-1-1.9c-0.2-0.8-0.2-1.5-0.8-2.1c-0.6-1-0.4-1.8-1.4-4.2l-0.6-2.1c-0.4-1.4-1-3.3-1.5-4.2l-2.1-6.7c-0.4-2.3-0.6-1.4-1.4-4.6c-0.4-2.1-1.9-5.2-2.7-8.6c-0.2-1.1-0.8-2.5-0.4-3.7c0.2-1.1,0-0.6,0.8-0.8c0.4,1,0.2,1.9,0.8,3c0.8,1.4,1,1.4,1.4,2.9c0.2,1.4,0.6,2.1,1,3.3c0.4,1.2,0.6,1.9,1.1,3c1,1.8,0.4,1.5,0.8,3.3c0.6,1.9,0.8,0.6,1.4,2.7c0.6,1.9,1.5,4.8,2.3,6.3c0.8,1.5,1,3,1.5,4.6c0.4,1,0.6,0.8,0.8,1.5c0.6,1,0.6,2.5,1.5,4.6l0.6,1.4c0.8,1.9,1.4,4.6,2.3,6.6c1,1.1,1.4,2.9,2.1,4.2c1,2.1,0.6,2.3,2.1,4.4c0.4,0.6,0.8,2.3,1,3c0.4,1.4,0.8,1.8,1.4,2.9c1.1,2.7,2.1,5.9,3.7,8.8c0.6,1,1,1.8,1.5,2.7l1.5,2.7c0.8,1.4,0.8,1.9,1.4,2.9c0.2,0.4,0.6,1,0.8,1.1l4.4,6.6c0.6,0.8,1.1,1.4,1.8,2.5c0.4,1-0.2,0.2,0.8,1c1.1,1,1.9,2.3,2.9,3.4c1.4,1.1,1.4,1,1.8,2.7c1.5,0.4,1.5,0.8,2.5,1.5c0.8,1,1.8,1.5,2.5,2.7c2.7,3.8,1.1,1,4.4,5c1,1.4,3.4,3.4,4.8,4.4c0.8,0.4,0.8,0.2,1.4,0.8c0.8,0.8,1.8,1,2.1,1.5c0.2,0.6,0,0.6,0.2,1c0.4,0.6,1,0.6,1.9,0.6c0-3.3-1.8-5.8-0.8-8.8c0-0.6,0-0.2,0.2-0.6c1,1.9,1,7.1,1.8,9.4c1.4,0.6,1.4,0.8,2.9,0.2c-0.2-1.8-0.8-2.9-1-4.4c-0.2-1-0.2-1.1-0.4-1.9c-0.4-1-0.4-1-0.4-2.1l-1.9-12.3c-0.2-1.8-1.4-11.9-1-13c1.4-0.4,13.6,0,16.2,0c1.8-0.2,1.9,0,3.3,0.4c1,0.2,3,0,4.2,0c2.5,0,4.4,1,6.7,1.5c3.4,0.8,1,0.6,4,3.8c2.5,2.7,5.2,3,8.8,2.7c1.8-0.2,1.8-0.8,2.7-1.5c1-0.7,1.5-1,2.1-1.9c1.8-3-0.8-3,2.3-3.7c1.5-0.4,0.2,0,1.1-0.4l25-5.2c0.8-0.2,2.1-0.2,2.9-0.4c3.3-0.8,11.9-2.5,14.8-1.9l1.8-0.4l1.4-1c-0.4-2.3-0.4-14.8-0.6-15.4c-4.2-0.6-14.4,3.4-17.8,3.4s-17.3,5.2-21.1,7.1c-1.4,0.8-7.1,2.7-8.6,4c-0.8,0.6-1.1,1-2.1,1.1c-1,0-1.8-0.4-2.5-0.8c-1.8-0.4-6.3-0.4-8.5,0.6c0,0-0.4,1.1-2.5,0c-3.7-2.1-6.9-3.7-11.1-4.6c-3-0.6-7.3-1.5-10.7-1.8c-1.8,0-11.5,0.4-11.9-0.6l-0.4-0.8c-0.2-1.4,0.2-12.3,0.2-12.6c0.8-3.4,0.4-8.8,1-12.9l2.3-14.8c1.8-7.8,3-17.1,7.3-23.6c1.1-1.8,1.8-2.9,3-3.7c5-3.3,8.1-3.8,12.1,0.6c1.4,1.5,2.5,6.3,2.9,6.9c0.8-0.2,1-1.1,1.5-2.1c0.6-0.8,1.1-1.5,1.8-2.1c4.2-5.4,6.9-6.9,12.5-10c6.3-3.3,19.6-2.7,26.5-0.6c10.6,3,12.9,4,21.5,8.8c2.3,1.1,5.2,6.6,6.2,8.6l5,9.6l1.4,1.4l1.8-0.6c1.4-0.8-0.2-0.2,1.5-0.6c2.1-0.4,0.6-0.2,1.5-0.8c1.5-0.6,6.9-1.1,8.2-2.1c-1.8-1.5-10.4-1-12.3-0.8c-0.8-1-1.4-2.3-1.8-3.4l-0.8-0.2c-0.8-4.4-1-1.8-2.1-4.8c-0.4-1-0.8-1.4-1.4-2.1l-2.1-3.8c-1.5-2.1-0.8-3.4-3.3-5.2l-0.8-1c-0.8-1.5-2.7-2.7-3.3-4.4c-0.4-1,0.2-0.4-0.6-1c-2.3-1.5-2.5-2.1-4.2-3c0,0,0,0,0-0.2c-2.1-0.8-3.7-1.1-5.4-2.3c-1-0.8-0.8-0.6-2.5-0.8c-1.1-1.8-2.5-1.8-4.2-2.7c0-3,1-5.8,1.4-8.6c0.4-2.7,0.6-0.2,1.1-3.8l1.8-5.8c0.4-1.8,0.2-0.2,1-1.8c0.6-1.1,0.8-2.5,1.1-3.7c0.6-1.4,1.1-2.1,1.8-3.4c1-1.9-0.2-1.8,2.1-2.7c0.6-4.4,0.4-1.8,2.7-4.8c1-1.4,2.5-2.5,3.4-3.4l8.5-5.9c0.6-0.4,0.8-0.8,1.4-1.1c1.4-1,3.4-1.1,3.4-3.3c2.7,0,3.3-1.1,5.4-2.3c1.5-0.6,0.6-0.8,2.1-1.5c3.3-1.5,2.5-2.1,5-2.7c1.4-0.4,0.4,0,1.4-0.6c0.2-0.2,0.8-0.4,1-0.6c4.2-2.7,5.2-1.9,6.3-2.9c1-1,0.6-1,1-1.5l0.6-0.8c0.2-0.4,0-0.2,0.4-0.6l1-1.5c1.9-3.3,1.1-1.4,2.1-5.4c0.2-0.6,0.2-1.4,0.4-1.8c0-1,0.2-2.5-0.2-3.3c-0.6-1.1-0.2,0.6-0.6-1.4c-0.2-1-0.4-1.9-1-2.7c-1.5-2.7,0.2-1.5-2.5-3.3c-0.2,0-1-0.8-1-0.8l-10.4-2.9c-3.3,0-7.1,0-10.2,0.6c-1.4,0.2-2.1,0.2-3.7,0.4c-1.5,0-2.1,0.8-3.4,1.1l-4.6,1.8c-2.5,0.6-1.1,0.2-2.5,1.4c-0.4,0.4-0.2,0.2-0.8,0.6c-2.9,1.9-4.6,1.8-5.2,4.4c-2.3,0.6-1.8,0.8-3.7,2.7c-0.2,0.2-0.4,0.4-0.4,0.4l-0.4,0.6c-0.2,0-0.4,0.4-0.4,0.4c-1.1,1.4-1.1,0.2-1.5,2.5c-1.9,0.8-1.8,1.4-2.7,2.9l-2.5,2.5c-0.2,0.2-0.2,0.2-0.2,0.2l-1.1,1.8c-1.4,2.3-2.7,3.4-3.4,4.8c-1.1,2.5-2.5,3.3-3,5.4c-0.4,2.1,0.2,0.8-1,1.8l-5.2,11.4c-0.2,1.9-0.2,0.8-1,1.9c-0.4,1-0.4,3-0.8,4.2l-0.4,1.4c-1.5,4.6-1.1,12.1-1.1,17.1c0,3.3,1.5,6.7,0.6,9.6c-2.5,0.2-3.7-0.2-5.9-0.2c-4.6-0.2-3-3-5-4.8c-0.6-0.6-1.1-0.8-1.8-2.7c-0.6-1.5-1.5-1.9-2.1-3.3l-6.3-8.6c-1.5-1.8-3.4-3.3-4.8-5.2c-0.8-1.4-2.3-1.4-3-2.5c-1.8-2.5-2.1-2.1-4-4l-1.4-1.1c-1.4-0.8-1-1-1.5-1.5l-1.4-0.8c-1.5-1-1.5-2.5-5-4.4c-1.4-0.8-2.5-2.1-5.8-3.7c-0.8-0.4-1.4-0.6-2.1-1c-2.3-1-1.1-1.4-4.6-1.5c-0.8-1.1,0-1-1.1-1.5l-6.2-1.5c-1.4-0.4-2.5-1.4-3.7-1.5c-1-0.4-3.3-0.6-4-1c-0.4-0.2-0.2-0.8-1.9-1c-3.8-0.2-1.8-0.6-4.2-0.6c-3.8,0-11-0.2-13.8,1.5c-2.3,1.1-3.3,0.8-4.8,2.7l-4.6,5.4c-0.8,1.1-0.6,2.1-1.1,3.4c0,0.2-0.2,0.2-0.2,0.2c-0.8,1.8,0,5.6,0.6,7.1l1.5,2.1c1,0.8,1.1,1.1,1.4,2.5c2.1,0.2,1,0.4,2.3,1.1l8.6,4.4c1,0.4,1.5,0.2,2.3,1c2.3,1.8,4,1,6.2,1.9l2.5,0.8c1,0.2,4,1.5,6.2,1.8c4,0.4,7.8,1.5,8.6,1.5l7.1,1c1.1,0.2-0.2,0,1,0.4c1.9,0.8,4,0.2,5.8,0.8c1,0.4,1.1,0.8,2.3,1.1c1.4,0.2,1.8,0.2,2.7,0.6c1.8,0.6,2.5,1.5,4.2,2.1c1.5,0.6,7.7,5.6,9.4,6.9c0.8,0.6,1.1,1,1.8,1.5c0.4,0.2,0.4,0.2,0.6,0.4c0.4,0.4,0.2,0,0.4,0.4c0.8,1,1.8,1.8,1.8,3l-1.4,0.6c0,0-0.6,0.4-0.6,0.6c-0.4,0.2-0.2,0-0.4,0.4c-1.1,1.1-0.8,1-2.9,1.1c-1,1.5-1.5,1.1-2.7,2.1c-0.2,0-0.2,0-0.2,0l-1.9,1.5c-1.1,0.8-0.2,0-1,0.8c-1.5,1.4-1,1.1-2.7,2.5l-2.5,2.5c-0.8,0.8-1,0.8-1.8,1.5C377.9,209.8,377.9,210.6,377,211.2z"/><path fill="#6A689A" d="M0,114.4V480h11.1c0-2.9-0.4-10.4,0.2-12.5c1-3.3,0.4-42.1,0.6-49.8c0-2.5,2.1-5.6,2.5-6.9c0.6-2.9,1.8-4.4,3.3-7.8c1-2.3,0.8-1.1,1.4-3l4.8-7.7c1.4-2.5,6.3-8.8,7.7-10c0.2-0.4,0.4-0.6,0.6-0.8c3-3.7,8.8-9,12.9-12.1c0.6-0.6,1.1-1,1.8-1.4L49,366c2.3-2.1,1.4-0.4,3-2.1c1-1,3.3-1.8,4.8-3.3c0.2,0,0.2-0.2,0.2-0.2l4.4-2.5c1.1-0.8,0.6-0.4,1.8-0.8l0.4-0.2c1-0.4,1.1-0.8,1.9-1.4c0.8-0.2,1.5-0.4,2.3-0.8l1.9-1.4c0.2,0,0.2,0,0.2,0c0.2,0,0.2-0.2,0.2-0.2c0.6-0.2,0.2,0,0.6-0.2c1.5-0.8,7.8-2.9,9.4-4.6c-0.2-0.6,0-0.4-0.6-0.8l-5.6-3.4c-0.8-0.4-1-0.6-1.5-1l-2.1-1.8c-0.4-0.4-0.4-0.4-0.6-0.6c-0.8-0.6-0.6-0.4-1.1-1c-1-1.1-1.5-2.1-3.4-1.9c-2.7,0.4-0.2,1-6.2,1.1c-3.7,0,1,0.6-5.8,1.4c-4,0.4-2.1,1-8.6,1.1c-0.4,0.6-0.2,0-0.4,1c-1.9,0-6.7,1-8.6,1.5L15,348.5c-3.8,1-2.3,1-3.3,1.4c-0.8-1.5-0.2-11.1-0.2-14V144.6c0-9.6-0.4-19.8,0-29.4c1.1-0.4,2.3-0.8,3.7-0.8c3-0.2,3,0.4,4.2,0.8l-0.8-1c-0.2-0.2-0.4-0.2-1-0.2c-2.3-0.4-5.6-0.2-7.8-0.2c-1.9,0-3.8-0.4-5.4-0.2C2.3,113.7,2.5,114.4,0,114.4z"/><path fill="#DEE7EE" d="M382.1,232.2c0,0.8,0.4,1.9,0.4,3c1.9,2.3-0.6,3.7,0.2,5.4l1.1-0.6c1.1,0,0.8-0.2,1.1-0.4c0.6-0.4,0.4-0.4,1.1-0.6l0.2-0.2h0.2l8.8-1.9c4.6-0.6,10.4,0,14.8,0.4c-0.8-2.5-2.1-4.4-2.1-7.7c0-1.4-0.2-3.3,0.6-4.4c0.8-1.1,2.3-1.1,3.3-0.4c1,1,3.3,7.7,1.9,11.1c-0.8,1.5-1.5,1.5-3.3,1.5c0,2.3,0,2.5-1.5,3.8c-1.9,1.8-6.2,5.9-9.6,6.6l-0.6,1l1.8-0.2c4.4,0.4,25.1-10.4,30.7-13c0.8-0.4,1.1-0.6,1.9-1c0.4-0.2,0.2-0.2,0.8-0.6c2.1-1.5,4.2-1.9,6.7-1.4c0.8,2.1,0.6,2.1,0.4,4.8c0,1.4,0,5-1,5.9c0,4.6-3,12.5-5.8,16.2c-1.8,2.3-5.6,5.4-8.2,6.7c-1.8,1-3.7,1.5-5.2,2.3c-0.8,0.4-1.4,1-2.1,1.5c-3,1.8-6.9,1.5-10,1.5l-10.7,0.2c-1.4,0.2-1.5,0.6-3.3,0.8c-5.6,0.8-6.2-0.4-8.1-2.9c-0.8-1-1.4-1.1-2.1-1.8c-1.1-1.1-2.5-2.7-3.4-4c-2.3-2.5-8.2-13-6.7-14.8c1.1-1.4,8.1,0.2,9.8,0.2c2.7,0,5.2,0.2,7.8,0.2c0,0-0.2-0.4-0.2-0.2l-0.2-0.2c-0.2,0-0.2-0.2-0.4-0.2l-3.8-1c-0.6-0.2-0.8-0.4-1.5-0.6l-1.8-0.6l0,0c-2.1-1.1-2.3-0.8-3-2.9c-0.2-1-0.6-0.8-0.2-2.1c0.8-0.8,0.2-0.2,0.6-1h-2.1c-0.6-1.5-0.8-0.2-1.8-4.4c-0.8-3.7,0.4-3.4,0.6-5.9c-0.8-0.8-0.4-0.4-1.9-0.8c-0.6,0-1.1-0.2-1.5-0.6l-0.8-0.6c-0.6-0.6-0.6-1.4-0.4-2.5c0-0.2,0.2-0.4,0.2-0.4c1.9-1.1-0.8,0.2,0.6-0.2c1.1-0.4,0.6,0.2,1.5,0.6c1.4,0.6,6.3,0,7.8-0.2h1c1.5,0.2,0.8,3-1.4,3.7c-1,0.2-1,0-1.8,0.6L382.1,232.2z M421.8,208.9c1.8,3.3-7.7,10.7-11.5,12.5c-1.8,0.8-4.2,1.9-6.2-0.4c-0.6-0.8-1.1-2.1,0-2.5c2.1-0.8,1,3,8.8-2.1l6.3-5.8C420.6,209.4,420.3,208.7,421.8,208.9z M443.8,277.4c1.4-1.5,10.2-2.9,12.5-3.4c1.4-0.4,3.4-0.4,4.8-1c0-0.2,0-0.2,0-0.2l0.2-0.2v-1.9c-0.2-4.8-2.5-10-4.6-14.2c-0.6-1.1-1.5-1.9-2.1-3.3c-0.8-1.4-3.3-4.6-4.4-5.9c-1.1-1.3-2.1-1.8-1.9-3.8c1.1-0.4,1-0.4,2.1-1.1c0.8-0.4,1.9-0.6,2.5-1c0.8-0.4,1.5-0.8,2.3-1.1c1-0.2,1.8-0.8,2.5-1c1.9-0.8,3.4-1.1,5.2-1.9c1-0.4,4.8-1.4,5.4-1.8l-0.2-1.5l-5-9.6c-1-2.1-3.8-7.5-6.2-8.6c-8.6-4.8-11-5.8-21.5-8.8c-6.9-2.1-20.2-2.7-26.5,0.6c-5.6,3-8.2,4.6-12.5,10c-0.6,0.6-1.1,1.4-1.8,2.1c-0.6,1-0.8,1.9-1.5,2.1c-0.4-0.6-1.5-5.4-2.9-6.9c-4-4.4-7.1-3.8-12.1-0.6c-1.4,0.8-1.9,1.9-3,3.7c-4.2,6.6-5.6,15.8-7.3,23.6l-2.3,14.8c-0.6,4-0.2,9.4-1,12.9c0,0.4-0.4,11.4-0.2,12.6l0.4,0.8c0.4,1,10.2,0.6,11.9,0.6c3.4,0.2,7.7,1.1,10.7,1.8c4.2,1,7.5,2.5,11.1,4.6c2.1,1.1,2.5,0,2.5,0c2.1-1,6.7-1,8.5-0.6c0.8,0.4,1.5,0.8,2.5,0.8c1-0.2,1.4-0.6,2.1-1.1c1.5-1.4,7.3-3.3,8.6-4C426.5,282.6,440.3,277.4,443.8,277.4z"/><path fill="#DEE7EE" d="M367.9,322.6c0.4,0.6,0,0,0.4,0.8l1.8,7.5c1.8,1.4,2.5,0.8,5,1l17.1,1c9.6,0.4,19.8,0.6,29.2,1.4c1.8,0,0.6,0.4,5.6,0.4c4.6,0.2,13.6,1.1,17.1,1.1c1,0,2.1,0,3,0c1.1,0.2,1.4,0.4,2.9,0.6l11.5,0.4c0.6-6.3,0.4-26.1,0.4-34.6v-11.4h-2.7c-2.9-0.6-11.5,1.1-14.8,1.9c-0.8,0.2-2.1,0.2-2.9,0.4l-25,5.2c-1,0.4,0.4,0-1.1,0.4c-3,0.6-0.6,0.6-2.3,3.7c-0.6,1-1.1,1.1-2.1,1.9c-1,0.8-1,1.4-2.7,1.5c-3.7,0.4-6.3,0-8.8-2.7c-3-3.3-0.6-3-4-3.8c-2.3-0.6-4.2-1.5-6.7-1.5c-1.1,0-3.3,0.2-4.2,0c-1.4-0.4-1.5-0.6-3.3-0.4c-2.5,0-14.8-0.4-16.2,0c-0.4,1.1,0.8,11.4,1,13L367.9,322.6z"/><path fill="#6A689A" d="M369.6,331c-0.4,1,0.2,1-1.5,0.8l-4.8-0.6c-2.1-0.4-4.8,0-6.9,0c-1.4,0-12.6,0.2-14-0.4l-42.8-0.4l-5.2-0.2c-5.6,0.2-17.7,0.6-22.2-0.6v0.8l1.5,0.2c7.1,0.4,14.6,0.2,21.9,0.2c3.4,0,6.9,0.4,10.7,0.4c3.7,0,7.3,0,11.1,0c3.4,0,7.1,0.2,10.7,0.2c5.6,0,30.2-0.6,32.5,0.6c-1.1,0.4-3.7,0.2-5.2,0.6l-4.8,1.1c-3.4,0.6-7.5,1.1-11,2.3l-5.8,1.1c-1.8,0.2-0.8,0.4-1.9,0.8l-5,1c-1,0.2-0.8,0.4-2.1,0.4l-11.5,3c-1.1,0.6-7.5,1.5-9.2,2.3c-2.5,1-6.9,1-9.2,2.3c-1.1,0.6-0.8,0.6-2.3,0.8c-1.5,0.2-4.6,1.4-6.3,1.9c-1.9,0.6-1.1,1-4,1.8c-1.4,0.2-0.8,0.4-2.3,0.8l-4.6,1.4c-1,0.4,0,0.2-0.8,0.4l-9.4,3.4c-1.5,0.6-3,1-4.4,1.5l-4,1.8c-0.8,0.4-0.8,0.6-1.8,1l-20.2,8.6c-1.1,0.4-0.4,0.2-1,0.6c-0.8,0.2-0.2,0-1,0.4l-2.9,1.5c-1,0.4-0.2,0-1,0.6c-0.6,0.4,0.4,0-0.8,0.6c-0.6,0.4-0.6,0.4-1,0.6l-1.8,1.1c-1,0.8-2.5,1.4-3.7,1.9c-0.8,0.4-1.4,0.4-2.1,0.8c-0.6,0.4-1,0.8-1.5,1.1l-9.2,5.4c-1.8,1-3.3,2.5-5,3.4c-2.3,1.5-3.4,2.9-5.4,3.7c-1.8,0.6-3.3,2.3-4.8,3.4c-0.8,0.4-1.1,0.8-1.9,1.1c0,0,0,0.2-0.2,0.2c-2.5,1.4-3,2.7-5.6,4.2l-1.5,1.1c-1,0.8-1.1,1.5-2.1,2.1l-3.3,2.7c-0.6,0.6-1.9,1-2.5,1.9c-0.2,0.2,0,0-0.2,0.4l-8.5,8.8c0,0.2-0.2,0.2-0.2,0.2c0,0.2,0,0.2,0,0.2c-1,1.5-1.9,1.9-3,2.9l-0.4,0.2v0.2l-0.2,0.2l-2.1,2.5c-2.7,2.5-2.5,3.3-3.7,4.6l-2.5,3.3c-0.8,1.4-1.8,2.1-2.5,3.4c-1.1,2.5-3.3,4.2-4.6,6.7c-0.6,0.8-0.8,1.1-1.1,1.9c-0.8,1-1.4,2.9-2.1,3.7c-0.8,0.8-0.8,0.4-1.4,1.5l-4.8,9.6c-0.4,2.1,0.2,0.8-0.8,1.9c-0.6,1-1.1,2.9-1.5,4l-1.5,3c-0.8,2.7-0.8,1.5-1.1,2.9c-0.4,0.6-0.4,1.5-0.4,2.5c-1.1,0.8-0.8-0.2-1.1,1.1c-0.6,1.8-1.4,3.3-1.5,5.4h16.7c0-1,0.2-2.1,0.6-2.9c0,0,0-0.2,0.2-0.2c0.8-1.1,1-2.1,1.4-3.4c1-4.2,1-2.7,2.1-5.6l1-2.3c0.2-1,0.4-0.8,0.6-1.5l2.1-4.2c0.2-0.8,0.6-1,0.8-1.5l1.5-2.7c1.1-2.1,0.8,0,1.5-2.7l4.6-7.5c0.2-0.2,0.2-0.2,0.4-0.4c0.2-0.4,0.2-0.4,0.4-0.8l0.8-1.5c0.4-1.1,1-1,1.4-2.1c0.8-1.4,1.9-2.5,2.5-3.7c0.8-1.4,1.9-1.4,2.5-2.3v-0.2l1.4-2.1c0.2-0.2,0,0,0.4-0.4c0,0,0,0,0-0.2l5.2-6.2c0.4-0.2,0.2,0,0.6-0.4l1.1-1.1c0.6-1,0.8-1.1,1.5-1.9l3-2.9l0.4-0.2c0.6-0.6-0.2,0.2,0.4-0.6l0.8-1c0.4-0.2,0.2-0.2,0.4-0.4l1-0.8c0.2-0.2,0.8-0.6,1-0.8l0.6-0.8c0.6-1,1.1-1,1.8-1.8c0.8-1.1,0-0.4,0.8-1l1.8-1.5c1.1-1.4,0.8-0.6,2.1-1.4c1-0.6,1.9-1.9,2.7-2.3l6.3-5.4c0.4-0.4,1.1-0.8,1.9-1.4l2.7-2.1l0.2-0.2l0.8-0.6c0.6-0.8,2.1-1.4,3-1.9l4-2.7c1.5-1,0.8-0.4,1.5-1.8c0.4-0.6-0.2,0,0.4-0.4l2.7-1.5c1.4-0.6,0.8-1,2.1-1.8c1.4-0.8,2.7-1,4-1.8l0.4-0.2l0.2-0.2c0.4-0.2,0.2,0,0.4-0.4c1.9-1.8,1.1-0.4,2.1-1.4c0.6-0.8-0.4-0.6,1.9-1.4c0,0,0.8-0.6,1-0.6l3-1.5h0.2l6.6-3.7c0.4-0.2,0.8-0.4,1.4-0.6c4.8-1.9,2.5-1.5,5-3c1-0.4-0.2,0,1.1-0.4c1.8-0.6,1-0.8,2.3-1.1c1.8-0.4,1.1-0.4,2.5-1c0.6-0.4,1.5-0.6,2.3-1l0.2-0.2c0.2-0.2,0.2-0.2,0.2-0.2c0.6-0.4-0.2,0,0.6-0.4c0.6-0.2,0.8,0,1.4-0.2c1-0.4,0.6-0.6,1.5-1c0.2,0,0.4-0.2,0.6-0.2l2.9-1.5c0.4-0.2,0,0,0.6-0.2c1.1-0.4,2.7-0.6,3.8-1.1l4.2-2.3c0.8-0.4,1.9-0.6,2.7-0.8l4.6-1.9c1.1-0.4,1.1-0.8,2.5-1c1.1-0.2,1.5-0.2,2.5-0.8c1.5-1.1,0.4-0.4,2.3-1c0.6-0.2,4.8-2.1,7.3-2.7c1.5-0.4,2.7-0.6,3.7-1.4c1-1,2.5-0.8,4.2-1.1c2.7-0.6,1.1-0.2,2.5-1.1c0.6-0.4,1.8-0.2,3.3-1l5.4-1.8c0.4,0,0.4,0,0.8-0.2l1.9-0.8c2.3-0.4,0.8-0.8,2.5-1.1c1-0.2,2.3-0.2,3.4-0.4c1.5-0.4,1.5-1,2.5-1.4c1.1-0.4,1.5,0,2.9-0.8l3-0.6c3.8-0.6,2.1-1.1,4.2-1.4c1.5-0.4,1.5-0.6,2.9-1l1.4-0.4c1.4-0.4,1.9-0.2,3.4-0.6c1.5-0.2,1-1,2.3-1.1c2.9-0.2,5.8-0.6,8.2-1.8c1.8-0.6,3-0.6,4.6-1.1c3.7-1,5.9-1,6.9-1.4c0.4,0,0.8-0.4,1.4-0.4c1.5-0.4,3.8-0.4,4.8-1c-1.9-1-2.7,1-3.3-1.8l-1.8-7.5c-0.4-0.8,0-0.2-0.4-0.8c0,1.1,0,1.1,0.4,2.1c0.2,0.8,0.2,1,0.4,1.9C368.9,328.2,369.4,329.3,369.6,331z"/><path fill="#DEE7EE" d="M422.5,178.2c0,4.4,0.8,9.8,1.1,14.2l10.4,2.5l0.8-1.4c0.6-1.8,0.8-5.2,1.9-8.6l1.1-5c1.4-4.8,4.4-11.9,6.7-16.2c0.6-1,1-1.5,1.8-2.5c1.9-2.9,6.2-6.3,8.2-8.2c6.2-5.6,6.9-4.8,12.5-8.6l7.7-4.8c3.7-1.9,10.4-5,12.9-8.1c1.5-1.9,2.1-3,2.3-5.9c0.4-3.7,0.6-4.4-1.5-6.7c-0.4-0.4-1.5-1.5-2.1-1.9c-7.7-3.4-17.4-3.8-24.8-0.6c-4,1.8-11.7,6.7-15,9.8c-1.9,1.8-2.9,2.3-4.4,4.2c-3.4,4.2-4.6,4-7.5,9.2c-1.5,2.7-1.4,1.8-3,5.4c-0.8,1.9-1.8,4-2.5,5.9c-0.6,1-0.8,1.8-1.4,2.9c-0.4,0.8-0.8,1.9-1.1,2.9C423.6,164.2,422.5,169.8,422.5,178.2z"/><path fill="#DEE7EE" d="M400.2,194.3c1.5,0,2.5-0.6,4-1c1.1-0.2,4-0.6,4.4-0.8c0-1.4,0-1-1.4-2.9c-0.8-0.8-1.4-1.5-1.9-2.3c-0.4-0.8-1.1-1.8-1.8-2.3c-3.7-4.8-5.6-7.7-10.4-12.5L381.8,161c-2.1-2.1-6.9-5.6-9.4-7.3c-2.3-1.8-13.4-7.1-15.2-7.5c-0.8-0.4-1-0.2-1.8-0.6c-8.6-3.3-19.4-4.8-27.7-0.2c-1,0.4-1.5,1-2.5,1.5c-2.3,1.5-4.4,5.4-3.7,8.8c1,4.4,4,6.9,7.7,9l11.1,5.4c2.5,0.6,4.4,1.4,6.9,1.5c1.9,0.2,5,1,6.9,1.4c13,2.5,22.1,2.7,32.2,9.2c3,2.1,6.9,4.6,9.6,7.1C398.4,191.6,398.4,191.6,400.2,194.3z"/><path fill="#FC9502" d="M250.4,340.2c-0.2-0.8,0-0.2-0.2-0.8c-0.8-1.5-0.8-3,0.4-4.4c0.6-0.8,0.8-1,1.9-1.1v6.2c0.8,0.6,1,1,1,2.3h-2.1L250.4,340.2z M240.6,343.8l-2.3,0.6c-0.8-1.9-1.4-1.5-0.6-5.9l2.3-5.4l2.9-0.4c0.2,1.8-0.2,1.5-0.8,2.3l-0.6,1.1C240.6,338.3,241.4,341.4,240.6,343.8z M231.9,334.6c-2.5,0-1.4,0-2.5,1.8s-0.2-0.2-1.4,2.1c-0.4,0.6,0,0.2-0.4,0.6c-1,1.4-0.6,0.6-0.6,2.5c-4.2,0-2.5-2.3-2.1-3.7c0.2-1.1,0.4-2.3,0.8-3l0.6-0.8c1.5-2.3,1.1-0.8,2.3-2.1c0.4-0.4,0.4-0.6,0.4-0.6l0.8-0.6c0,0,1-1.5,2.7-2.7c1.1-0.8,1.9-2.7,5.2-1.4l0.2,1.5c-2.7,0.4,0,0.6-2.3,1.9l-0.5,0.2c0,0,0,0.2-0.2,0.2l-0.2,0.2c-0.2,0-0.2,0.2-0.2,0.2c-1.9,1.4-0.6,0.4-1.5,1.4C231.9,333.7,231.9,332.3,231.9,334.6z M231.4,313.8l-0.8,1.1c-0.4,1-0.6,1.9-1,2.9l-0.2,0.2c-1.1,1.9-1.5,3.3-3.8,5.2c-2.5,2.1-5.8-0.6-7.7-2.3l-1.5-1.9c-1-1.4-2.1-3-2.9-4.6c-0.8-1.4-0.8-1-1-2.7c-0.8-4.4-1-5.8,0-10.2c0.6-2.9,0.8-3.3,2.9-4.4c0.2-1.9-0.2-1.5-1-2.7c-0.4-0.6-1-1.9-1.1-2.5c-0.6-1-0.6-1.4-1.1-2.5c-0.2-1-0.8-1.8-1-2.3l-1.4-2.7c-0.4-1.8,0.4-1.5-0.8-3L209,281c-0.6-0.6,0.4-2.3,0.6-2.5c-0.8,0.8-1.1,1.4-0.6,2.7h-0.2c-0.2,0.2-0.6,0-1.1,1.1l-0.6,1c-1.1,1.9-0.2,0.2-1,2.1c-0.6,1.4-0.2,0.4-1.1,1.4c-0.8,0.8,0,1.8-0.8,3.4c-0.8,1.8-0.4,11.7-0.4,14c0.2,4.6,0.6,1.4,1,3.7c0.2,0.8,0,3.7,0,4.8c0.4,1.9,0.2,0,0.8,1.4l0.6,3.3c0.2,0.4,0.2,1.1,0.2,1.8c0.2,1.5,0.6-0.2,1.5,3c0.2,0.8,0.2,1.1,0.4,1.8c0.4,1.4,0,0.4,0.8,1.4c0.8,1,0.6,2.1,1.1,3.4c0.8,1.1,1,1.5,1,3.4c3.8,1.8,1.8,1.9,4.2,4.2c0.2,0.2,0.2,0.2,0.4,0.4c2.1,2.1,0.4-0.6,2.3,2.3c0,0,0.4,0.6,0.4,0.8l0.8,1c0.8,0.8,1.4,0.6,2.5,1.1l4.4,2.3c1.9,0.8,1,0,1.5,1.1c6.2,0.4,4.2,1.1,6.2,1.8c1.4,0.4,5.9,0.2,7.7,0.2c2.3,0,5.6,0.4,7.7-0.4l2.7-1c1.4-0.6,2.3-0.6,3.8-0.6c1.5-1.5,0.6-0.6,2.3-1.1l6.9-4c0.8-1-0.4-0.2,0.8-0.8c0.4-0.2,1.1-0.4,1.5-0.4l0.6-0.2c0.8-0.4,0,0,0.4-0.4c0,0,0.4-0.4,0.4-0.6c0.2-0.2,0.4-0.4,0.6-0.6c1.4-1.8,1.8-2.5,1.4-5.8l-1.1-1.1c-0.4-0.8,0.6-0.4-0.4-0.6c-1.5-0.8-5.2,0.4-5.8,0.8c-0.8,0.2,0.2,0.6-2.9,0.6c-4.4,0-10.2,0.8-13.8-1c-1.4-0.8-1.5-0.6-3-0.8c-0.4-1.1-0.4-1.1-1-1.9l-0.4-0.4c-0.4-0.4,0,0-0.4-0.4c-2.7-1.9-0.8-1-2.1-2.7c-0.6-0.6-1-0.2-1.1-1.8c0-0.4,0-0.8,0-1.1c-0.6-2.3-1.8-1.1-1.5-9C233.1,312,233.3,313.8,231.4,313.8z"/><path fill="#2E2E2E" d="M529.8,207.9c0,0.6-0.4,1.5-0.8,1.9c-1.1,1.8-0.8,0.4-1.8,3.3l-0.2,0.2l-0.4,1.4c-0.2,0.4,0,0.2-0.4,0.6c-1.5,1.8-1.1,2.7-1.5,3.8c-0.6,2.1-1-0.6-1.1,4.2c-0.6,0.2-1.4,0.4-1.8,0.8c-1,1-1,3-1.5,4l-0.6,1.9c-0.8,0.4-0.4-0.2-1.1,0.6c-0.2,1.1-0.2,2.1-1,3c-1.1,1.9-0.4,1-1,2.1c-0.6,1.4-0.6-0.6-1.4,2.1c-0.2,1-1.8,4-2.3,4.6c-1.1,1,0-1-0.8,0.8c-0.2,0.6-0.4,1-0.6,1.4c-0.6,1.4-1.5,1.4-1.9,4.6c-2.3,0.4-1.9,1-2.1,1.1c-0.8,1.5,0.4,1.1-1.9,1.5c0,1.9,0.2,2.3-1.9,2.5v1.5c-1.9,0.2-1.4,0.4-2.1,1.8c-0.6,1-1.1,1-2.1,1.4c-1,0.8,1,3-4.2,3.7c0,1.1,0.2,0.8-0.4,1.4l-2.1,1.4h-0.2c0,0,0,0.2-0.2,0.2l-2.5,1.9c-0.6,0.8-0.6,1.4-3.4,1.1c0-5.6,1-1.1,1.1-5.9c0.6-0.4,1-0.4,1.5-1c0.6-0.6,0.8-1.4,1-1.9h0.2l0.2-0.6c0.8-1.4,0.8-1.5,1-2.9c1.5-0.6,1.4,0,1.4-2.1c0.2-2.1,0.4-1.9,0.8-2.3l0.2-0.4c0.2-0.6,0-0.4,0.2-1c0.4-1,1.1-0.8,1.4-4.6l1.4-0.4c0-1.4-0.2-1.5,0.4-2.5c1.1-2.5,0.8-5.8,0.6-6.3c-2.1-6.7,0.6-6.3-4.4-6.3l-0.6-1.5h-5c-1.1-0.2-0.4,0-1.1-0.6c-1.8-1-4,0.2-5.8-0.4c-1-0.4,0.2-0.2-1.1-0.6l-11.4-0.2c0.4,1.1,1,2.5,1.8,3.4c1.9-0.2,10.6-0.8,12.3,0.8c-1.4,1-6.7,1.5-8.2,2.1c-1,0.6,0.6,0.4-1.5,0.8c-1.8,0.4-0.2-0.2-1.5,0.6l-1.8,0.6l-1.4-1.4l0.2,1.5c-0.6,0.4-4.4,1.4-5.4,1.8c-1.8,0.8-3.3,1.1-5.2,1.9c-0.8,0.2-1.5,0.8-2.5,1c-0.8,0.4-1.5,0.8-2.3,1.1c-0.6,0.4-1.8,0.6-2.5,1c-1.1,0.8-1,0.8-2.1,1.1c-0.2,2.1,0.8,2.5,1.9,3.8c1.1,1.4,3.7,4.6,4.4,5.9c0.6,1.4,1.5,2.1,2.1,3.3c2.1,4.2,4.4,9.4,4.6,14.2v1.9l-0.2,0.2c0,0,0,0,0,0.2c-1.4,0.6-3.4,0.6-4.8,1c-2.3,0.6-11.1,1.9-12.5,3.4c3.4,0,13.6-4,17.8-3.4c0.2,0.6,0.2,13,0.6,15.4l-1.4,1c1.9-0.2,2.1,0.2,1.5,4c-0.4,3.7-0.4,42.2-0.4,42.2l2.3,0.6c1,0,1.9,0,3,0.2c-1-0.8,0-0.4-1.5-0.8h-1c-0.4-0.4-0.2-0.2-0.8-0.4c0.4-1.4,1.1-1.1-0.2-2.3c1.1-0.6,0.8-0.4,0.8-1.9l0.4-16.9c0-6.3-0.6-13-0.6-19.4c0-1.1-0.4-4.4-0.4-4.6c0.4-1.4,0.6,0.4,0.8-1.8c0.2-1.8,0-14-0.4-15.5c-0.6-2.1,0-1.1-0.2-3.3c-0.2-0.8-0.2-1.5-0.2-2.3c0-1.8-0.4-2.3-1-4c-0.6-1.8-0.8-2.1-1-4.2c-1-1-1.8-2.3-2.3-3.7l-4.8-8.5c-0.8-1.1-1.8-1.8-1.8-3.3c4.4-3.4,4.8-2.3,7.8-3.8l3.4-1.5c2.5-1.4,7.1-2.1,10.2-2.9c1-0.2,1.4-0.6,2.5-0.8c3-0.6,5.8-0.6,8.6-1.4c1.4-0.4,0.6-0.6,2.7-0.6c1,0,2.1,0,3.3-0.2l2.5,0.2c1.1,0.4,0.8,7.7,0,9l-1.4,4.2c-0.2,0.4,0,1-0.2,1.5c-0.4,1.8,0.2,0.4-0.8,1.4c-0.8,0.8-0.8,1.5-1.4,2.5l-2.9,4.8c-0.4,0.8-1,1.4-1.4,2.5c-0.2,0.6-0.2,1.1-0.4,1.5c-0.2,1.4-0.2,0.4-0.8,1.1c-0.4,0.8-0.4,1.9-0.6,2.5c-0.2,0.2-0.2,0.2-0.2,0.6c-1.1,3.4,1.8,4.8-1.8,6.3c-1.9,1-2.1,1.1-3.4,2.3c-1.1,1.1-1.8,0-1.9,1.9c0.6,0.6-0.4,0.4,1.1,0.6c1.1,0,1-0.8,1.9-1.1c1.4-0.6,1.5-0.4,2.9-1.1c1-0.6,1.5-1.1,2.3-1.5c2.1-1.4,3-1.4,5-3c1.1-1,1.4-0.2,2.7-1.5l6.2-5.4c0.8-0.6,0.4,0,1.1-1l5.4-6.6c0.8-1.4,1.9-2.3,2.9-3.4c1-1.4,2.5-2.5,3-4c0.8-2.1,1-1.5,1.5-2.7l3.7-6.2c0.2-0.4,0,0,0.4-0.6l2.3-4.6c0.6-0.8,0.4-0.4,0.8-1.1c0.4-0.6,0.4-1,0.6-1.4c0.4-1.1,0.6-1,1.5-2.5c0.4-1-0.2,0.2,0.4-0.6c0.8-1.1,0.8-2.5,1.4-3.7c0.4-1,1-1.9,1.1-2.7c0.4-1,0.6-2.7,1-3.3c0.8-1.4,0,1.8,2.5-5.2c0.6-1.8,0.2-1.1,1.4-2.5c0.4-0.4,1.5-1.8,1.9-1.9c1.4-0.6,2.1,0.4,2.5-1.4c-0.2-0.2,0-0.2-0.6-0.2c-0.8-0.2-1.1,0.2-2.1,0.4c-0.4,0-0.2,0-0.6,0C530.7,208.2,531.1,208.2,529.8,207.9z"/><path fill="#60191F" d="M415.8,246.3c-1.5,0-4.6,1.9-6.6,2.7c-1,0.2-1,0.4-2.1,0.6c-0.2,4.6-0.4,2.9-0.6,4.8c0,0.4,0,0.8,0,1.1c-0.4,1.8-0.8,0.6-1.1,3.3c-1.4,0.6-4,1.5-5.8,1.8c-2.9,0.6-5.8,1.1-6.6,0.8c-0.6-0.4-0.2-0.2-0.6-0.4l-1.1-1.5c-1.8-2.3,0-1.9-1.8-3.7c-0.8-0.6-0.2,0.2-0.8-1.1c-0.6-1-1-1.5-1.1-2.5c-0.8-0.2-1.9,0-2.7-0.2c-1.5-0.2-0.2-0.4-2.3-0.6c-1.8,0-3-0.6-5.2-0.6c-0.4,3.8,1,4.6,2.7,7.3l2.7,4c0.8,1,0.6,0.4,1.4,1.9c0.4,0.6,0.2,0.4,0.8,1c3.7,4.6,4,1.1,5.8-0.2l6.2-2.3c6.9-0.2,5,0.6,7.1,0.8c2.9,0.2,1.5-0.8,4.8-1c1.4,0,5.6-0.2,6.7,0.4l5.6,3.8c0.6-0.2-0.2,0.2,0.4-0.2c1.4-0.8,6.6-3.4,7.1-4.2c1-1.4-0.2-0.4,1.4-1.4c0.4-0.4,1-0.8,1.1-1.1l1.1-1.8c0.6-1.5-0.2-0.6,0.6-1.9c1-1.4,0.6-1.9,1.1-2.7c0.6-0.6,1,0.2,1.4-2.3c0.2-1.5,0.8-3.4,1.1-5.4l1-9c-1.1,0-1.8,0.2-2.7,0.6l-1.1,1c-0.2,0-0.2,0-0.2,0l-1.4,0.8c0,0,0,0-0.2,0l-0.8,0.6c-0.2,0.2-0.4,0.2-0.6,0.2l-0.6,0.4c-1.4,0.6-1.1,0.4-2.3,0.8c-2.9,1.1-2.7,1.5-3.7,2.1c-1.1,0.4-2.1,0.2-2.9,1c-0.4,0.4-0.2,0.8-1,1.1L415.8,246.3z"/><path fill="#0D0D0D" d="M400.4,266.9c1.5,0.8,2.5-1.8,8.8-2.5c1.9-0.2,4,0,5.6,0.4c1.4,0.4,0.8,0.6,1.9,1.1c0.8,0.4,1.1,0.4,1.5,1.5h-0.2c0,0.2-0.2,0.2-0.2,0.2c-3.7,1.8-1,0.8-3.8,1.4c-2.3,0.4,0.2,0.8-5.2,0.8c-2.3,0-12.9-0.2-14.6,0.2c-0.8,0.2-1.4,0.6-2.5,0.4c-3.8-0.4,0.8-4.6,3.3-5.4c1.4-0.4,4.8-0.2,6.2-0.2C401,266.7,400.6,265.8,400.4,266.9z M395.4,252.5c0.4,1.4,1.4,5.9,1.1,6.9l-3.4-0.2c-0.8-1-3-5.6-3-6.9L395.4,252.5z M404.4,250.6c0.2,1.8-0.2,5.8-0.8,7.1l-2.3,0.8c-1.5,0.4-1.9,0.4-2.5,0c-0.4-0.6-1.4-5.6-1.4-6.3L404.4,250.6z M432.2,257.8l-1.1,1.8c-0.2,0.4-0.8,0.8-1.1,1.1c-1.5,1-0.4,0-1.4,1.4c-0.6,0.8-5.8,3.4-7.1,4.2c-0.6,0.4,0.2,0-0.4,0.2l-5.6-3.8c-1.1-0.6-5.4-0.4-6.7-0.4c-3.3,0.2-1.9,1.1-4.8,1c-2.1-0.2-0.2-1-7.1-0.8l-6.2,2.3c-1.8,1.4-2.1,4.8-5.8,0.2c-0.6-0.6-0.4-0.4-0.8-1c-0.8-1.5-0.6-1-1.4-1.9l-2.7-4c-1.8-2.7-3-3.4-2.7-7.3c2.1,0,3.4,0.6,5.2,0.6c2.1,0.2,0.8,0.4,2.3,0.6c0.8,0.2,1.9,0,2.7,0.2c0.2,1,0.6,1.5,1.1,2.5c0.6,1.4,0,0.6,0.8,1.1c1.8,1.8,0,1.4,1.8,3.7l1.1,1.5c0.4,0.2,0,0,0.6,0.4c0.8,0.4,3.7-0.2,6.6-0.8c1.8-0.2,4.4-1.1,5.8-1.8c0.4-2.7,0.8-1.5,1.1-3.3c0-0.4,0-0.8,0-1.1c0.2-1.9,0.4-0.2,0.6-4.8c1.1-0.2,1.1-0.4,2.1-0.6c1.9-0.8,5-2.7,6.6-2.7c1.1-1.5,1-1,2.7-1.5l1.8-1.1l0,0c1.4-1,0.6,0,2.5-0.6l6.3-3.7c1.1-0.4,1.9-0.6,2.7-1.1c0.2,0,0.2-0.2,0.2-0.2l0.4-0.2c1-0.8,1-0.8,2.1-1c1.1-0.4,1.9-0.6,2.1-1.8h1.9c0,1,0.2,2.7,0,3.7c0,0.8,0,0.4-0.2,0.8c0,0,0,0.4-0.2,0.6l-1.1,4.2c-0.4,4.2-1.4,5.8-1.9,9.2c-0.2,1.8,0.2,0.4-0.6,1.4l-0.4,0.8C432.8,257.1,433,257.3,432.2,257.8z M433.2,234.6c-0.8,0.4-1.1,0.6-1.9,1c-5.6,2.7-26.3,13.4-30.7,13l-1.5,0.8l-12.9,0.6c-1.8,0-1.9-0.6-1.9-0.6c-1.8,0-8.6-1.5-9.8-0.2c-1.5,1.8,4.4,12.3,6.7,14.8c1,1.4,2.3,2.9,3.4,4c0.8,0.6,1.4,0.8,2.1,1.8c1.9,2.5,2.5,3.7,8.1,2.9c1.8-0.2,1.9-0.6,3.3-0.8l10.7-0.2c3,0,6.9,0.2,10-1.5c0.8-0.6,1.4-1.1,2.1-1.5c1.5-0.8,3.4-1.4,5.2-2.3c2.7-1.4,6.6-4.4,8.2-6.7c2.7-3.7,5.8-11.5,5.8-16.2c0-2.1,1.1-8.6,0.4-10.2C438,231.8,435.3,234.1,433.2,234.6z"/><path fill="#ED6C11" d="M257.9,347.1c0.4-1.9,1.4-1.1,2.7-1.9c1.5-0.8-0.2-0.4,1.1-1c0.2,0,1.1-0.2,1.5-0.6c0.4-0.2,0.2,0,0.6-0.6c1-1.1,0.8-0.4,1.8-1c0.2,0,0.2-0.2,0.2-0.2s0.2,0,0.2-0.2l1.9-1.4c1.1-0.6,0-0.4,1.1-1.1c1-0.8,0.4,0.4,1.1-0.8c0.4-0.6-0.2-0.2,0.8-1.1c1.8-1.5,0.4-0.4,1.4-1.9c0.4-0.6,0,0,0.4-0.4c1.1-1.5-0.2-3.3-0.6-4.6v-0.8c-0.8-1.4,0.4-1.4-1.5-1.9l0.2-1c-1,0.4-0.6,1-0.6,1.1c-3.8-0.2-7.7,0.4-11.1,0.8l-8.6,0.2c-1.4-0.4-0.2-0.8-2.1-0.8c-3.3-0.2-1.4-0.8-3.7-1.5c-2.5-1-0.4,0-2.3-2.5c-1-0.8-0.6-1.1-1.5-2.9l-0.4-1c-0.6-1.1-0.4-1.4-0.4-2.7c0-1.8-0.2-3.7-0.2-5.6c0-2.3-0.2-3.8,0.6-5.4l-2.1,1.9c-1,1-0.6,1.5-1.5,2.3c-1.9,1.5-4.2,0.4-5.4,2.9c1.9,0,1.8-1.8,5.4-1.5c-0.2,7.8,1,6.7,1.5,9c0,0.4,0,0.8,0,1.1c0.2,1.5,0.6,1.1,1.1,1.8c1.4,1.8-0.6,0.8,2.1,2.7c0.4,0.4,0,0,0.4,0.4l0.4,0.4c0.6,0.8,0.6,0.8,1,1.9c1.5,0.2,1.8,0,3,0.8c3.7,1.8,9.4,1,13.8,1c3,0,2.1-0.4,2.9-0.6c0.6-0.4,4.2-1.5,5.8-0.8c1,0.2,0-0.2,0.4,0.6l1.1,1.1c0.4,3.3,0,4-1.4,5.8c-0.2,0.2-0.4,0.4-0.6,0.6c0,0.2-0.4,0.6-0.4,0.6c-0.4,0.4,0.4,0-0.4,0.4L267,339c-0.4,0-1.1,0.2-1.5,0.4c-1.1,0.6,0-0.2-0.8,0.8l-6.9,4c-1.8,0.6-0.8-0.4-2.3,1.1c-1.5,0-2.5,0-3.8,0.6l-2.7,1c-2.1,0.8-5.4,0.4-7.7,0.4c-1.8,0-6.3,0.2-7.7-0.2c-1.9-0.6,0-1.4-6.2-1.8c-0.6-1.1,0.4-0.4-1.5-1.1l-4.4-2.3c-1.1-0.6-1.8-0.4-2.5-1.1l-0.8-1c0-0.2-0.4-0.8-0.4-0.8c-1.9-2.9-0.2-0.2-2.3-2.3c-0.2-0.2-0.2-0.2-0.4-0.4c-2.5-2.3-0.4-2.5-4.2-4.2c0-1.9-0.2-2.3-1-3.4c-0.6-1.4-0.4-2.5-1.1-3.4c-0.8-1-0.4,0-0.8-1.4c-0.2-0.6-0.2-1-0.4-1.8c-1-3.3-1.4-1.5-1.5-3c0-0.6,0-1.4-0.2-1.8l-0.6-3.3c-0.6-1.4-0.4,0.6-0.8-1.4c0-1.1,0.2-4,0-4.8c-0.4-2.3-0.8,1-1-3.7c0-2.3-0.4-12.3,0.4-14c0.8-1.8,0-2.7,0.8-3.4c1-1,0.6,0,1.1-1.4c0.8-1.9-0.2-0.2,1-2.1l0.6-1c0.6-1.1,1-1,1.1-1.1h0.2c-0.6-1.4-0.2-1.9,0.6-2.7c-0.2,0.2-1.1,1.9-0.6,2.5l0.2,0.2c1.1,1.5,0.4,1.4,0.8,3l1.4,2.7c0-0.8,0-1.8-0.2-2.3c-0.2-0.4-0.4-1-0.6-1.8c-0.4-2.3,0.6-5.9,1.8-7.5v-0.2c1.1-1.4,0.6-1.1,1.4-2.3l-7,5.6l-5.2,11.7c-0.4,1.5-1,0.2-1.1,3.3v12.5l1.4,7.5c0,1.9,0.2,2.9,1,4.2v0.2c0.6,1,0.6,1,0.6,2.3c0.2,2.3,0.4,1.5,1.5,2.7l0.4,3.4c2.1,0.6,0.6,1.4,1.9,3.3c0.2,0.8,0.6,1.1,1,1.8c1.9,4.4,0,2.3,3,5.8c0.8,0.8,1.9,2.5,2.3,3.4c2.1,0.2,1.5,0.2,2.7,1.4c1.1,1.1,3.8,2.1,4.8,2.9c1.1,1-1-1,0.4,0.4c0.8,0.8,0.8,0.6,2.7,0.8l0.6,1c0.2,0.2,0.2,0.2,0.2,0.2c5.8,0.4,2.7,1.5,7.7,2.1c1.5,0,2.7,0.4,4.2,0.8c1.5,0.4,3,0.2,4.8,0.2c3,0,3.8,0.2,7.1-0.2c1.1-0.2,1-0.6,1.9-0.8c1.4-0.4,2.9-0.2,4.4-0.6c1.5-0.6,0.4-0.6,1.5-1C257.1,347.4,257.9,347.7,257.9,347.1z"/><path fill="#0D0D0D" d="M226.8,306.8l-0.8,0.8c-0.4,0.6-0.2,0-0.4,0.8l-1.4,0.2c-0.2,0.8-1.8,3.4-2.3,4.6c-1.9-0.8-0.8-4.4-0.6-4.8c0.2-0.8,0-0.4,0.6-0.8c0.2-1.4,1-2.3,1.9-3.3c4.4-4.4,11-0.4,12.6-0.6c-0.2-1.4-0.8,0.2-1.1-2.1c1.1,0,1.5,0,2.7,1c1.1,0.6,1,1.1,1,2.5c-1,3-6.3,2.1-8.6,1.9C229,306.8,227.9,307,226.8,306.8z M235.2,309.5c-0.4,1-0.4,0.8-1.4,1c-4,0.6-3.8,2.1-6.2,5.8c-0.8,1.1-0.4,1-0.8,1.9l-1,1.4c-1.1,1.9-2.5,4-5.6,1.1c-2.3-2.1-3.7-5.6-4.6-7.5l-0.4-0.4c0-0.2,0-0.2-0.2-0.2l-1.4-7.3c0-2.1,0.2-1,0.6-1.8c0.4-0.8,0-1.1,0.2-2.1c0.2-0.8,0.4-0.4,1-1.4c0.4-0.6,0.6-1.1,1.1-1.4c1.4-0.8,6.6-0.6,8.5,0.4c2.3,1,1-0.2,3.7,0.4c1.5,0.4,1.1,0,1.5,1c-1.5,0.6-5,0-6.9,1l-0.4,0.2c-1.1,0.8-3.4,3.8-4,5.8l-0.6,5.4c0.2-0.2,0.8-0.8,1.1-0.6l0.8,2.3c0.4,0.6,0.6,1,1,1.8h1.4c1.5-2.7,1-2.7,1.4-4.2c0-0.4,0.2-0.4,0.6-0.8l1.9-1.9C228.9,308,233.7,308.6,235.2,309.5z M230,298c-3.7-0.4-3.7-0.6-3.8-1.9c1.8-1.1,2.5,0.6,6.3,0.6c0.2,0,1,0,1.1,0c1.5,0.2,0.4,0,1,0.4c-0.4,0.4-0.2,0.4-0.8,0.8c-0.4,0-1,0.2-1.4,0.2C231.8,298,230.8,298,230,298z M212.6,281.8c0-2.7,0-5.2,2.7-7.3c1.9-1.8,5.4-1.9,7.7-0.4c4,2.7,7.5,7.7,6.3,13c-0.6,2.3-1.5,5.4-3.3,6.7c-1.8,1.5-5,2.9-7.3,1.4C215.3,292.8,212.6,285.3,212.6,281.8z M239.3,276.3c1.5,1.1,2.3,3.7,2.5,5.6c0,1.9,0.6,5.2-1.4,6.3c0.2,1-1,2.3-1.5,3c-0.8,1.1-1.1,1.5-2.3,2.3c-2.1,1.4-5.2,1.5-6.9,0c-0.2-1.9,3.3-3.8,0.8-13.3c-0.4-1.8-1.1-3-1.4-4C229.4,273.6,237,271.7,239.3,276.3z M217.2,270.9c-0.6,0.4-1,0.6-1.8,1c-0.6,0.4-0.4,0.2-0.8,0.6l-1.1,0.6l0,0c-0.8,1.1-0.2,1-1.4,2.3v0.2c-1.1,1.5-2.1,5.2-1.8,7.5c0.2,0.8,0.4,1.4,0.6,1.8c0.2,0.6,0.2,1.5,0.2,2.3c0.2,0.6,0.8,1.4,1,2.3c0.6,1.1,0.6,1.5,1.1,2.5c0.2,0.6,0.8,1.9,1.1,2.5c0.8,1.1,1.1,0.8,1,2.7c-2.1,1.1-2.3,1.5-2.9,4.4c-1,4.4-0.8,5.8,0,10.2c0.2,1.8,0.2,1.4,1,2.7c0.8,1.5,1.9,3.3,2.9,4.6l1.5,1.9c1.9,1.8,5.2,4.4,7.7,2.3c2.3-1.9,2.7-3.3,3.8-5.2l0.2-0.2c0.4-1,0.6-1.9,1-2.9l0.8-1.1c1.1-2.5,3.4-1.4,5.4-2.9c1-0.8,0.6-1.4,1.5-2.3l2.1-1.9c1.5-2.3-0.8-4,0.2-5.6c-0.8,0-1.5,0.2-2.1-0.2c-1.8-0.8-0.6-1.9-0.4-5.9c2.3-1.5,1-0.8,2.7-2.5c2.9-2.9,2.5-9,2.3-12.9c-0.2-2.7-3-6.9-5.2-7.7c-1.9-0.6-3.7-1-5.9-0.4c-1.8,0.6-1,0.6-1.9,1.4c-2.3,2.3-2.7,1-6.3-1.4c-1.8-0.2-0.8-0.6-2.7-0.8c-1.8-0.2-1.5-0.4-2.9-0.6L217.2,270.9z"/><path fill="#2E2E2E" d="M562.8,346c0.6,0.4,0.8,0.4,1.8,0.6c2.5,0.2,2.5,0.4,5.2,0.4l2.5-0.2c-0.2-0.2-0.6-1.1-0.6-1.4c-0.2-0.8-0.2-1-0.2-1.8c0-1.4,0-2.7,0-4c0.6-0.4,1-0.6,1.4-1c0-1.8,0.2-3,0.4-4.8c0-1.8,0.2-1,0.4-2.1c1.1-6.2,0.8-4.6,1-11.5c0.6-0.2,1-0.4,1.4-0.6c0.4-15.9,0.2-32.1,0.2-48.4c0-4.2-0.2-8.1-0.2-11.9c0-3.3,0.4-7.3-0.4-10.4c-0.2-0.6-0.2-0.8-0.2-1.4c-0.2-2.1-0.4-3.8-0.4-5.8c0-3,0.2-3.4-0.4-5.6c-0.4-1.5-0.2-10-0.2-12.3l-1.1-0.4c-0.2-4.8,0-10.2-0.4-14.6l-1.1-4.2c-0.2-0.8-0.2-0.6-0.2-1.5c-0.2-6.9-1.1-4.4-1.4-5.4c-0.2-0.2-0.2,0-0.4-0.2l0.2-2.1c-1.8,0.8-0.8,0.6-1.5,1.8c0.2,0.8,0.2,0.6,0.4,0.8c0.8,1.5,0.2,4.2,0.6,5.9c0.8,3.7,0.4,8.2,0.6,12.1c0,3.3,0.6,6.2,0.6,9.4c0,3.8-0.4,1.8,0.6,5.2v1.8c0,4.2,0.6,4.8,0.6,6.6l0.2,9.8c0.2,1.4,0.4,2.5,0.4,4.4c0,1-0.2,1.5,0,2.3c1,2.9,0.2,3.4,0.6,6.9c0.4,2.7,0.2,43-0.2,44.2c-0.4,1-0.6,0.6-0.6,1.8c-0.2,0.6,0,1.5,0,2.3c0,3.7-1.8,23.6-2.9,26.9l-1.1,6.3c0,0.4,0,0.8,0,1.1l-0.2,1C566.1,346.6,564.6,346,562.8,346z"/><path fill="#2E2E2E" d="M545.5,249.4c0-2.1,0-4,0.2-6.2c0-2.1,0.8-3,1-5c0.6-5.9,1.8-11,2.1-16.2l0.8-5c0.2-1.9,0.2-3.4,0.6-5.4c0.2-1.1,0.6-3.8-0.8-4.6l-1.5,8.5c-0.2,2.3,0,0.8-0.8,2.1c-0.6,1.5,0,4.4-0.6,5.9c-1,3.3-1.4,7.1-1.9,10.4c-0.2,1.4-1.9,10.4-2.7,11.5c-0.6,1.1-0.2,2.3-0.6,3.8c-0.4,1.8-1.1,2.9-1.1,5c-0.2,1.9-0.4,1.5-0.6,2.9l-1.8,7.7c-0.2,1-0.2,1.8-0.4,2.7c-0.4,1.8-0.6,0.4-0.8,2.3c-0.4,1.1-0.8,1.8-1,2.3c-0.2,0.8-0.4,5.4-1.9,7.3c-0.6,0.8-0.2-0.4-0.6,1.1l-1.4,3.3c-0.4,0.8-0.4,1.5-0.6,2.5c-0.2,2.1,0.2,1.1-1.1,1.8c-0.2,2.5-0.6,1.9-1.1,3.7c-0.8,1.9,0,2.1-1.9,2.7c-0.2,2.3-0.6,1.4-1.1,2.9c-0.2,0.8-0.2,1-0.4,1.5c-1,2.1-1,1.4-1.8,2.1c-0.6,0.6-0.2,0.4-0.8,1.4c-0.2,0.2-0.8,1-0.8,1c-0.8,1.4-1.1,3-2.1,4l-1.4,1.5c-1.4,3.3-0.8,1.8-1.8,3l-0.4,1.4c-0.8,1.1-2.1,1.9-2.7,3c-1.9,3.8-1.5,2.3-3.4,4.6c-0.6,0.8-1,1.4-1.8,2.1l-3.3,4.6c-0.4,1-0.2,0.4-0.8,1.1c-0.6,1-1.5,2.5-1.5,3.8c1.4,0.2,0.8,0.2,1.8-0.2l1.4-0.8c1.9-0.8,0-0.6,1.9-1.9c1.4-0.8,2.1-2.7,3.8-3.8c0.6-0.6,0-0.2,0.8-0.4c1-0.6,0.8-0.4,1.4-1.4l1.5-2.3c0.8-1.1,1.5-2.5,2.5-3.3c1.1-1.1,1.8-2.9,2.9-4c0.2-0.4,0.4-0.4,0.4-0.6c1-0.8,0.8-1.4,1.5-2.3l2.1-3.8c0.4-1.1,0.2-0.4,0.8-1l3-4.6c0.4-0.8,0.4-1.8,1-2.5c1.5-2.1,1-2.5,1.9-4.6l3-6.6c1.1-2.3,1-3.7,1.5-4.4c0.6-1.1,0.2,0.4,0.6-1.1c0.2-1.1-0.2-0.8,0.4-1.8c0.8-1.9,1-4,1.8-5.9c0.2-0.6,0.4-0.4,0.6-1.4c0.2-0.8,0-0.8,0.4-1.5c0.6-1.9,0.6-4.8,1.1-6.7c0.2-1.1,0.6-2.1,0.6-3.3c0.6-4.8,2.3-6.9,2.5-12.9C545.1,249.2,544.6,249.6,545.5,249.4z"/><path fill="#2E2E2E" d="M377,211.2h-1.1L373,216c-0.6,1.1,0.2,0.4-0.8,1.1c-0.6,0.6-0.6,0.2-1,1c-0.4,0.6,0,0.8-0.6,1.4l-1,0.6c-0.2,3.4,0.2,2.9-0.8,4.4c-0.8,1.1-1.1,4.6-1.5,5.8c-0.4,1-1,2.9-1.8,3.4l-1.1,1.4c-1.8,0-3.3,0-5,0l-3.3,1.1c-1.5,1.1,1.4-0.4-0.4,0.4c-1,0.2-2.1-0.4-3.7,0.4c-1.9,0.8-1.5,0-2.9,0.6c-1.1,0.4,0,0.4-1.9,0.6c-2.1,0.2-1.1,0.4-2.1,0.8c-0.8,0.4-1.1,0.2-2.1,0.4c-2.1,0.6-2.1,0.8-4.6,0.6c-1.9-3.4-1.8-2.3-2.3-3.3l-0.6-1.5c-1.1-1.4-0.6-1-2.3-1c-0.2-1.5-0.4-1.8-0.4-3.7c-1.1,0-1.5-0.2-2.7-0.4c-0.2-2.5,0-1.4-1.4-2.9l-1.1-1.9c-0.2-0.2-0.8-1-1-1.1c-0.8-1.1-0.2-0.8-0.6-1.9c-0.4-0.6-0.8-0.6-1.4-1.1c-3-3.7-1-3.4-0.2-4.8c0.4-0.8,0.2-1.4,0.8-2.3c0.8-1.5,1.1-2.1,1.1-4.4c0-3.3,0.4-3.8-0.8-4.8c-1.5-1.4-0.2-0.4-1.1-1.9c-0.4-0.6-1-1.1-1.1-1.8l1.1,2.7c0.8,2.1,1.5-0.4,1.8,5.8c0,1.4-0.4,1.9-0.8,3l-2.7,5c-0.6,0.8-0.2,1.1-2.9,1.1c-1.1,0-2.5-0.2-2.9,0.8c0.4,1,1.9,0.8,2.1,0.8c0.8,0.4,0.2,0.2,0.6,0.4l1,0.6c0.2,0,0.2,0,0.2,0l1.5,1.8c1.4,1.4,1.4,0.2,1.9,2.3c0.8,2.9,1,1,2.1,3.3l1.1,1.5c2.1,1.9,0,1.1,1.8,2.7l0.6,0.6c0,0.2,0,0.2,0.2,0.2l1.4,2.1c0.4,0.6,0,0.2,0.6,0.8c0.6,0.6,1.1,0.6,1.5,1.1c0.4,0.8,0,0.8,1,1.9c1,1,1.8,1.4,1.5,3.4c-2.1,0.6-2.3,1-3.8,1.5c-4.2,1.8-1.1,1.4-4.6,3.3c-0.6,0.4-0.8,0.4-1.1,0.6c-0.2,1.8,1.9,1.9,3.4,3c2.1,1.5,1.9,0.8,4.2,2.7c2.1,1.9,3.7,1.9,5.6,4.6c0.2,0.2,0.6,0.6,0.6,0.6l1.5,1c0.4,0.2,1,0.8,1.1,1.1c2.3,2.3,1.5,0.8,2.3,2.3l1,1.5c2.5,2.7,2.1,2.9,3.8,5.4c0.8,1.1,1.1,1.4,1.8,2.7c0.4,1.1,1.4,1.9,1.9,2.9c0.4,1.5,0.2,0.8,0.8,1.5l2.3,4.4c0.6,1.4,1.1,1.8,2.5,4.4c0.6,1.4,0,1.1,1.1,1.5l0.4-1.1c0.2-0.4,0.2-1.4,0.2-1.8c-0.2-4.6-0.6-5.8-2.7-9.4c0-0.2-0.2-0.2-0.2-0.2l-1.4-2.1c-0.8-1.4-0.2-1.4-1.1-2.7c-0.4-0.6-0.4-0.4-0.6-1l-3-5.2c-0.8-0.8-0.8,0-1.5-1.4l-4.4-5.4c-0.6-0.6-1-1.1-1.8-1.5c-1.1-0.8-1.1-0.4-1.4-1.9c-1.5-0.2-3-1-3.8-1.9l-1.4-1c-1.1-1-4-1.9-4.8-2.7c0.8-1.4,4.4-3.4,6.2-3.8c2.1-0.8,1.9-1,3.4-1.5c1-0.4,1.4,0,2.3-0.4c1.8-0.4-0.4-0.4,1.9-0.6l1.9-0.6c1.4-0.8,6.7-1.5,8.5-1.9c1.1-0.2,1-0.4,1.8-0.6c1.1-0.4,3.4-0.4,4.8-0.6c1.5-0.2,2.3-1.1,2.3-2.7c0.4-2.3,1.4-5.8,1.9-7.8c0.6-1.8,1-1.5,1.5-3.8l1.8-5.8c0.6-1.5,1-1.1,1.8-2.3c0.8-1.4,1.8-2.5,2.7-3.7C376.3,212.2,376.6,211.8,377,211.2z"/><path fill="#6A689A" d="M39.9,134c1,1.1,2.9,1.8,4.8,2.3c0.8,0.2,1.8,0.4,2.5,0.8l8.2,1.5c6.2,0.6,6.7,0.8,12.3,1.5c7.1,1.1,12.9,0.6,19.2,0.4c1.1,0,2.3,0.2,3.4,0c1.1,0,1.4-0.4,2.7-0.6l6.3-2.3c1.9-0.8,1.8-0.2,3.4-1.1c1.8-1,0.2-0.6,2.1-1.1l3-1.5h0.2l1.4-1c1.4-0.8,0.4-1,2.7-2.1l2.5-1.9c1.4-1.4,0.4-0.4,1.4-1c1-0.6,0.2,0,0.8-1c0.8-1.4,1.5-1.5,2.9-3.8c0.8-1.4,0.2-1.4,1.9-1.8c0.2-1.5,1-3,1.9-5.9c0.8-3,0.6-6.3-2.3-3.8c-1.9,1.8-6.6,1.8-9.6,0.8c0-0.2-0.6-0.4-0.6-0.4c-0.8-0.4-0.2-0.4-1.5-1c-2.1-1-0.2-0.4-1.9-1.9l-0.2-0.2l-1.8-3c-1.1-3.4,1-7.5,2.3-8.8c0.2,0,0.6-0.2,0.6-0.4c1.5-1.4,3.4-2.1,5.6-2.1c2.1-0.2,4.8,0.2,6.7,0c-0.4-0.6,0.2-0.2-1-0.6l-4.2-0.2c-2.5,0-9.2-0.2-11,0.6c-0.2,0-0.4,0-0.6,0c-0.4,0.2-0.2,0.2-0.6,0.2c-1.4,0.4-0.4,0-1.1,0.6c-1,1-0.2,0.6-2.3,0.8l-0.8,1.5c-0.2,0.2-0.2,0.6-0.4,1l-1,1.9c-0.4,1.4-0.8,1.5,0,3.3c1,2.9,1.4,2.5,1.8,3.7c0.6,1.4,0,1,1.1,1.5c1.4,0.8,1-0.4,1.1,1.8c1.5,0.2,1,0.2,1.8,0.6c0.8,0.4,0.8,0.4,1.8,0.6c0.4,0,1.1,0.2,1.8,0.4c1,0.2,0.6,0.2,1.8,0.6l7.5,1.4c-0.2,1.1-0.4,1-0.8,1.5c-1.1,1.1,0.2,1-2.1,3.7c-0.8,1-0.4,1.1-1,1.9l-2.5,3c-1.9,1.9-1.1,2.1-3.3,2.3c-0.2,2.1-0.6,1.4-3.8,3.7c-0.8,0.6-0.6,0.6-1.5,1.1l-8.2,4.8c-2.5,0.8-0.8-0.6-4,1.1c-1.5,0.8-8.6,1.9-11.7,1.9c-6.9,0-14,0-20.3-0.8c-2.9-0.4-6.3-1-9-1.5S41.8,134.4,39.9,134z"/><path fill="#0A520B" d="M213.9,264.2c1.9-0.4,5.2-0.2,7.3,0v2.5c-1.8,0.2-3.7,0.4-5.2,0.2c0.6,1.4,1.4,2.1,1.1,4l1-0.8c1.4,0.2,1.1,0.4,2.9,0.6c1.9,0.2,1,0.6,2.7,0.8c-0.4-1.8-0.2-0.4,0.2-1c1.9,0,2.1,0.4,3.4-0.4c0-1.5,3.4-8.1,4.4-8.8l5.2-4.8c0,0,0.8-0.8,1-0.8c1-1.8-1.9-1.5-2.9-1.4c-1.1,0.2-4.8,3.4-6.2,3.4c-0.4-2.5-0.2-5.9-1-10c-0.2-2.3-1.4-7.3-2.1-8.6c-2.5-0.2-1.8,0.8-1.8,6.3c0,1.4,0,2.7-0.2,4l-0.4,2.7c-0.2,0.8-0.2,0.4-0.4,0.8c-0.6-0.4-0.6-0.6-0.8-1.5c-1.4-4.6-5-13.4-7.7-16.9c-2.1-3-2.7-4.6-4.8-4.2c0,1.4,1.4,5,1.8,6.3c0.6,1.8,4,15.2,4.2,17.1c0.2,2.9,0.4,2.9,0.6,4c-1.4-0.6-1.4-0.8-2.5-1.5c-1.1-1-3.8-1.4-5.4-1.8c-1.1-0.4-1.9-0.2-2.7,0.4c0.2,0.8,3.4,3.4,4.2,4.2l3.3,3.3C213.9,263,213.9,263,213.9,264.2z"/><path fill="#2E2E2E" d="M342.4,330.8c1.4,0.6,12.6,0.4,14,0.4c2.1,0,4.8-0.4,6.9,0l4.8,0.6c1.8,0.2,1.1,0.2,1.5-0.8c-1.5,0.6-1.5,0.4-2.9-0.2c-0.8-2.3-0.8-7.5-1.8-9.4c-0.2,0.4-0.2,0-0.2,0.6c-1,3,0.8,5.6,0.8,8.8c-1,0-1.5,0-1.9-0.6c-0.2-0.4,0-0.4-0.2-1c-0.4-0.6-1.4-0.8-2.1-1.5c-0.6-0.6-0.6-0.4-1.4-0.8c-1.4-1-3.8-3-4.8-4.4c-3.3-4-1.8-1.1-4.4-5c-0.8-1.1-1.8-1.8-2.5-2.7c-1-0.8-1-1.1-2.5-1.5c-0.4-1.8-0.4-1.5-1.8-2.7c-1-1.1-1.8-2.5-2.9-3.4c-1-0.8-0.4,0-0.8-1c-0.6-1.1-1.1-1.8-1.8-2.5l-4.4-6.6c-0.2-0.2-0.6-0.8-0.8-1.1c-0.6-1-0.6-1.5-1.4-2.9l-1.5-2.7c-0.6-1-1-1.8-1.5-2.7c-1.5-2.9-2.5-6.2-3.7-8.8c-0.6-1.1-1-1.5-1.4-2.9c-0.2-0.8-0.6-2.5-1-3c-1.5-2.1-1.1-2.3-2.1-4.4c-0.8-1.4-1.1-3-2.1-4.2c-1-1.9-1.5-4.6-2.3-6.6l-0.6-1.4c-1-2.1-1-3.7-1.5-4.6c-0.2-0.8-0.4-0.6-0.8-1.5c-0.6-1.5-0.8-3-1.5-4.6c-0.8-1.5-1.8-4.4-2.3-6.3c-0.6-2.1-0.8-0.8-1.4-2.7c-0.4-1.8,0.2-1.5-0.8-3.3c-0.6-1.1-0.8-1.9-1.1-3s-0.8-1.9-1-3.3c-0.4-1.5-0.6-1.5-1.4-2.9c-0.6-1.1-0.4-2.1-0.8-3c-0.8,0.2-0.6-0.4-0.8,0.8c-0.4,1.1,0.2,2.5,0.4,3.7c0.8,3.4,2.3,6.6,2.7,8.6c0.8,3.3,1,2.3,1.4,4.6l2.1,6.7c0.6,1,1.1,2.9,1.5,4.2l0.6,2.1c1,2.5,0.8,3.3,1.4,4.2c0.6,0.6,0.6,1.4,0.8,2.1c0.4,1,0.6,1.4,1,1.9c0.6,1.5,0.8,3.3,1.4,4.6c0.4,1,0.4,1.4,0.6,2.3l1,1.9c1,1.5,1,4.4,2.1,5.9c0.6,1,0.2,1.8,0.8,2.5c0.8,1.8,1.8,3,2.3,5c0.4,1.9,1,1.1,1.4,2.7c1,2.7,0.4,2.1,2.3,3.3c0,1.9,0.4,2.1,1,3.8l3.7,5.8c0.4,1,0.4,1.8,1.1,2.5c0,0,0,0,0,0.2l5.2,7.3c1.1,2.7,0.8,0.6,1.8,2.7c0.6,1.1,0.4,0.4,1,1.1c0.6,0.8,0.6,1,1.1,1.5l2.1,2.7c0.6,0.8,0.4,0.8,0.8,1.4c0.8,1.4,0.4,0.2,1.4,1.1c0.6,0.6,0,0.6,1,1.1l3.4,3.4c0.6,0.6,0.2,0.2,0.6,0.6l1,1c1.4,1,1.5,2.3,3.3,3c1.4,0.8,0.6,0,1.1,1.1c1.4,1.8,1.1,0.6,2.7,1.8C356.6,331.6,345.4,330.6,342.4,330.8z"/><path fill="#6A689A" d="M174.2,140.3c0.8,0.8,1.5,0.8,2.7,1c1.9,0.2,1.5,0.4,2.9,0.6l5.4,1c0,0,0,0,0.2,0c0,0,0,0,0.2,0c0,0,0,0.2,0.2,0.2c1.8,0.4,11.4,0.2,13.8,0.2c4.6-0.2,10-1.4,14-3.3l5.2-1.9c2.7-1.1,1.5-1.9,4.2-2.7c0.8-0.4,1-0.6,2.1-1.5s1.1-0.6,1.8-1.8c0.6-0.8,0-0.2,0.8-0.8l2.3-1.4c0.4-0.4,0,0,0.4-0.6c0.6-0.8-0.2-0.4,1-1.4c0.6-0.2,0.2,0,0.6-0.4s0.2-0.2,0.4-0.6c0.6-0.8,0.2-0.4,0.8-1l0.4-0.4c2.1-1.9,4.6-6.7,6.7-8.6c1.5-1.5,6.3-1,8.8-0.2c1,0.2,0,0.2,2.1,1.4c0.8,0.6,1.1,1,1.9,1.4c0.4,33.6,0,68.3,0,101.9c0,5.8,0,11.4,0,16.9c0,5.4-1,11.7,1.4,16.5c-0.4,1,0.2,0.8,0.6,1c-1-5-1.4,1-1.4-9c0.2-39.8,0-80.2,0-120c0-1.5,0-3.4,0-5c0.4-3.7-0.4-3-3.3-4.8c-0.2-0.2-0.6-0.4-0.8-0.4c-0.2-0.2-1.4-0.6-1.8-0.8c-1.8-0.6-10.2-0.2-12.5-0.2c-0.4,1.4,0,0.4-1,1.1c-0.8,0.6-1,0.8-1.5,1.4c-1.1,0.6-1.9,1.8-2.5,3c-0.6,1.8-0.2,0.6-1.1,1.5l-2.3,3.3c-0.6,1-0.6,0.4-1.8,1.4l-0.4,0.4c-1.8,1.9-0.2,1.1-2.9,2.7L218,133c0,0,0,0.2-0.2,0.2c-1.5,1.4-0.2,0.4-1.9,1c-0.8,0.4-1,0.8-1.8,1.1c-3,1.4-1,0.2-3.4,1.8c-0.4,0.4-4.4,1.4-6.2,2.1c-3.3,1.8-6.3,0.8-9.6,1.5C188.7,142.5,178.4,140.2,174.2,140.3z"/><path fill="#2E2E2E" d="M318,322.2c-0.4-1.9,0,0.4-1.8-1.8l-1.9-2.5c0,0,0,0,0-0.2c-1-1.1-0.6-1.5-1.5-2.7l-1.4-2.3c-0.8-2.7-1.5-2.9-2.5-5.6c-1.4-3-0.8-0.4-1.5-2.5c-0.4-1.4-0.4-1.8-1-3c-0.4-1.4-0.2-2.1-0.6-3.4l-0.4-1.5c-0.2-0.8-0.4-1-0.6-1.4c-0.8-1.5-0.2-2.1-0.8-3.4c-1.1-2.5-0.4-1.4-0.8-3c-0.2-0.8-0.6-0.8-0.8-1.5c-0.2-0.2-0.2-1.1-0.2-1.8c-0.2-0.8-0.2-0.8-0.4-1.4c0-0.2-0.2-0.2-0.2-0.4l-0.2-0.6c0-0.4,0-0.6,0-0.8c-0.4-1-0.4-0.4-0.6-1.4c-0.6-1.4,0-3.8-0.4-5.4c-0.6-1.4-0.4,0-0.6-1.8c-0.6-3.4-1.1-9.2-1.9-11.9l-1.4-10.6c-0.6-4.4-0.2-5.6-0.4-7.7c-0.4-2.7-0.2-5.8-0.6-7.3l-0.6-7.7c0-1.1,0.2-2.7,0-3.8c0-1.4-0.4-1.5-0.6-3.4c0-1.5,0.4-1.9,0.4-3.4h-1.1c0,1,0,1-0.2,1.8l-0.6,1.1c0,0.2,0,0.2,0,0.2c-1,1.8-0.6,9-0.6,11c0,1.1-0.2,3,0,3.8c0.2,1.4,0.4,0.2,0.4,3.4c0,5.9,1.1,8.5,1.1,14c0.2,5.4,0.8,6.3,1,11c0,1.8,0.4,1,0.6,3c0.2,1.1,0.2,2.3,0.6,3.4l2.5,12.9c0,1.1,0.6,1,0.8,2.7c0.4,2.3,0.8,1.1,1,3c0.4,4.4,0.6,3.3,1.1,6.6c0.2,0.8,0.2,2.3,0.4,3.3c0.4,1.5,0.6,1.4,1,2.1l1.1,3.7c0.6,2.3,0.4,1.1,1.1,2.7c0.2,0.4,0.4,1,0.6,1.4c0.4,1,0.6,0.6,1,1.8c0.2,0.2,0.2,0.4,0.2,0.6c0.6,1.4,1.1,1.8,1.5,2.5c1.1,2.5,0.4,0.8,2.3,3.4c0,0,0,0,0.2,0.2c0.6,1,0.4-0.2,1,2.3c2.5,0.4,0.8,0.6,2.9,2.1l0,0C315.8,322.7,317,323,318,322.2z"/><path fill="#2E2E2E" d="M562.8,228.6c-0.2-4.8-1-16.3-2.7-20.3c-0.4-1.1-0.8-1.5-1.1-2.7c-0.6-1.9-0.8-0.8-1.5-1.9c-0.4,1.9-0.2,1.5,0.2,3c0.8,2.3,0.6,5.4,0.8,7.1c0.2,1.1,0.6,1.5,0.6,2.7c0.2,1.8,0.2,6.2,0.6,7.3c0.2,0.2,0.4,0.4,0.4,1.8l0.4,12.9c0,5.9,0.2,3,0.8,5.2c0,0.4,0,1,0,1.5l0.2,15c0,1.5-0.2,2.1-0.2,3.7l-0.6,18.8c-0.2,1.4-0.2,2.7-0.2,3.7c-0.4,2.3-0.6,0.8-1,2.7c0,0.6,0,1.1-0.2,1.8c0,0.4-0.4,0.8-0.6,1.4l-1.8,5.9c-0.4,1-0.6,1.5-1,2.5c-0.4,1-0.8,2.1-1.1,2.9c-0.4,1-1,1.4-1.4,2.5c-0.2,1.5,0.4,0.6-0.6,1.4c-0.6,0.6-0.8,0.2-0.8,1.1c0,1.8,1.5,0.6,2.1,0.2c0.8-0.4,1-0.4,1.8-1.5c0,0,0,0,0-0.2c0.8-1.4,1-1.1,1.5-2.9l5.2-17.4c0.4-4.2,1-9.6,1-14v-3c0.2-0.6,0.4-0.8,0.4-0.8c0-0.2,0.2,0.2,0.2-1.5v-21.1c0-3,0-1.5-0.4-3c-0.4-1.1-0.2-2.5-0.2-3.8c0-1.8-0.2-1.9-0.4-3.3C563,233.7,563,230.6,562.8,228.6z"/><path fill="#DEE7EE" d="M221.4,282.4c0-1.5-0.4-2.9,1-3.4c1.5-0.8,2.5,0.2,3.3,0.6c0.4,3.4,0.2,3.7-3.3,3.7C222.2,282.8,221.8,282.6,221.4,282.4z M212.6,281.8c0,3.4,2.7,11,6.2,13.4c2.3,1.5,5.6,0.2,7.3-1.4c1.8-1.4,2.7-4.4,3.3-6.7c1.1-5.4-2.3-10.4-6.3-13c-2.3-1.5-5.8-1.4-7.7,0.4C212.6,276.6,212.6,279.2,212.6,281.8z"/><path fill="#2E2E2E" d="M294.4,330.2l5.2,0.2l-1.5-0.8c0.4-1.9-0.2-2.3-0.6-3.4l-1.1-5.4c-0.2-0.8-1.1-2.9-1.4-4.6l-1-5.4c-1-2.9-1.1-4.8-1.8-6.7c-0.4-1.8-1-8.6-1-9.2l-0.6-2.7c-0.2-1,0,0-0.2-0.8c-0.4-1.4-0.4-4.6-0.8-5.6c-1.1-3.8-0.8-6.2-1-9.4c-0.2-1.8-0.8-0.8-0.8-3c-0.2-6.9-1.1-11.4-1.1-15.5c0-2.5-0.6-1.4-0.8-3.3c0-1.4-0.2-2.5-0.2-3.8l-2.1-23c-0.2-2.5-0.6-4.8-0.6-7.7c0-5.6,0.6-5-1.5-6.7c-0.4,0.8-0.4,7.1-0.4,9.2l0.4,16.3c0,0.8,0,0.2,0.2,0.8l0.4,0.6c0.6,1,0.2,1,0.6,2.1c0,0.2,0,0.2,0,0.2c0,0.2,0,0.2,0,0.2l0.2,0.4c0.4,1.5-0.2,3.8,0.8,6.3l0.2,1.1c0,0.6,0,1.8,0,2.5c0,3.7,0.6,1.9,1,3.7c0.6,2.1-0.2,10.4,0.2,11.7c0.4,0.8,0.6,0.4,0.6,1.8c0.2,1.5-0.2,3.3,0.2,4.6c0.6,1.9,0.4,1.8,0.6,4c0.4,2.5-0.4,2.1,1.4,3.3l0.4,11.7c0.4,0.2,0.6,0.4,1,0.6l1.5,9.6c0,0.2,0,0.2,0,0.2l0.4,1.5c0.2,1,0.2,1.4,0.2,2.3c0.6,6.7,0.2,5.2,1.5,5.8l1.5,12.1C294.4,327.4,294.4,328.9,294.4,330.2z"/><path fill="#0D0D0D" d="M384.2,242.7c1.8-1.4,7.7-2.7,10.2-2.9c1.4-0.2,1.8-0.4,2.9-0.6h9.8c0,1.5,0,1.1-1.5,2.5c-0.8,0.8-1.5,1.1-2.3,2.1c-1.9,1.8-2.5,1.5-4.4,1.9c-1,0.2-0.6,0.2-1.5,0.6c-1.1,0.2-6.9,0.4-8.5,0C387.7,246.2,384.4,243.7,384.2,242.7z M383.8,240c-0.4,0.6,0,0.2-0.6,0.8c-0.2,0.2-0.4,0.2-0.8,0.4c-0.8,0.6-0.6,0.6-1.5,0.8c-0.4,1.4,0,1.1,0.2,2.1c1.5,0.8,1.5,2.5,7.7,3.8c3,0.8,3.7,1.1,7.8,0.8c1.5-0.2,1.1-0.6,2.7-0.8c3.4-0.6,7.7-4.8,9.6-6.6c1.5-1.4,1.5-1.5,1.5-3.8c1.8,0,2.5,0,3.3-1.5c1.4-3.4-1-10.2-1.9-11.1c-1-0.8-2.5-0.8-3.3,0.4c-0.8,1.1-0.6,3-0.6,4.4c0,3.3,1.4,5.2,2.1,7.7c-4.4-0.4-10.2-1-14.8-0.4l-8.8,1.9h-0.2l-0.2,0.2c-0.8,0.2-0.6,0.2-1.1,0.6C384.6,239.8,385,240,383.8,240z"/><path fill="#60191F" d="M235.2,309.5c-1.5-1-6.3-1.5-8.6-0.2l-1.9,1.9c-0.4,0.4-0.6,0.4-0.6,0.8c-0.4,1.5,0.2,1.5-1.4,4.2h-1.4c-0.4-0.8-0.6-1.1-1-1.8l-0.8-2.3c-0.4-0.2-1,0.4-1.1,0.6l0.6-5.4c0.6-1.9,2.9-5,4-5.8l0.4-0.2c1.9-1,5.4-0.4,6.9-1c-0.4-1,0-0.6-1.5-1c-2.7-0.6-1.4,0.6-3.7-0.4c-1.9-1-7.1-1.1-8.5-0.4c-0.6,0.2-0.8,0.8-1.1,1.4c-0.6,1-0.8,0.6-1,1.4c-0.2,1,0.2,1.4-0.2,2.1s-0.6-0.4-0.6,1.8l1.4,7.3c0.2,0,0.2,0,0.2,0.2l0.4,0.4c1,1.9,2.3,5.4,4.6,7.5c3,2.9,4.4,0.8,5.6-1.1l1-1.4c0.4-1,0-0.8,0.8-1.9c2.3-3.7,2.1-5.2,6.2-5.8C234.8,310.2,234.8,310.5,235.2,309.5z"/><path fill="#DEE7EE" d="M240.4,288.2c0.6-2.1,1.9-5.6,0.4-7.8c-1.4,0.8-0.4,1.1-1.8,2.1c-0.6,0.4-0.8,0.2-1.8-0.2l-0.8-0.6c-0.4-0.2-0.2,0-0.6-0.4c-0.4-0.6-0.4-1.5,0-2.3l0.2-0.2c0,0,0.2,0,0.2-0.2c1-1,1.8-0.6,3.4-0.4l-0.6-1.9c-2.3-4.6-9.8-2.7-10.2,0c0.2,1,1,2.3,1.4,4c2.5,9.4-1,11.4-0.8,13.3c1.8,1.5,4.8,1.4,6.9,0c1.1-0.8,1.5-1.1,2.3-2.3C239.4,290.5,240.6,289.1,240.4,288.2z"/><path fill="#DEE7EE" d="M535.5,198.7l-0.4-0.2c-1.4-0.6-2.7-0.6-3.3-2.3c2.1,0,5.8,0.2,7.3-0.8c1.8-1.1,1.9-3.8,1-5.9c-1.4-2.7-1.8-2.7-5.2-2.7c-3.3,0-4.2,0.4-5.8,2.5c-1.4,1.9-1.8,4-1.9,6.3c-0.4,4-0.2,3.8,1.8,6.6c1,1.5,2.1,3.8,4.4,2.7C535.4,204.1,535.8,201.2,535.5,198.7z"/><path fill="#DEE7EE" d="M318.6,208.2c-0.6,1.9-5.2,1-2.9,5.2c0.6,1.1,1,1.8,1.9,2.3c3,2.1,3.8-0.8,4.8-2.5c1.4-3,1.9-2.7,0.8-6.3c-0.6-1.8-1.8-4.4-2.5-5.8c-2.1-3.4-8.5-2.3-9.4-1.8c-1.8,1.1-2.1,4.4-1.8,6.6C310.9,210.4,316.5,206.6,318.6,208.2z"/><path fill="#6A689A" d="M122.5,95c0.8,1.5,4.6,3.3,5.6,5c3.3,4.6,0.8-0.4,4,6.6c1.4,3.3,0.8,4,1.5,5.2l1.1-0.6c1-1,0.4-2.9,1.1-5c1.4-3.3,3.7-7.3,6.9-9.2c2.3-1.4,0.8-1,2.3-1.5c2.5-0.6,1.8-0.8,3-1c2.3-0.2,5.6-0.2,7.7,0.6c2.1,0.8,1,0.4,2.3,1.4c1.5,1.1,1,0.2,1.9,2.3c1,1.8,2.3,2.9,2.3,5.8c0,3.4-2.3,3.8-2.9,5.6l1.9-1.4c1.5-1.4,1.8-5,1.1-7.1c-0.8-2.1-2.9-5.6-4.8-6.6c-1.4-0.6-2.9-1-4.6-1.1c-2.1,0-7.8-0.8-10.6-0.6c-1.9,0-3.8,0-5.8,0c-0.2,1.1-0.4,0.8-2.5,2.3c-2.5,1.8-1.1,1.1-2.7,2.5c-1.1,1.1-0.8,0.6-1,1.4c-0.2,0-0.2,0.2-0.2,0.2l-0.4,0.8C128.2,100.2,127.3,96.6,122.5,95z"/><path fill="#DEE7EE" d="M543.6,179.7c-1.5,0.4-1.1,0.4-1.9,1.5c-2.9,3.8-2.3,1.8,0.2,6.7c2.7,5.2-0.8,7.3,1.5,8.2c1.1,0.4,2.7,0,3.4-0.4c4.4-2.1,5.9-14-0.2-15.9C545.7,179.5,544.4,179.5,543.6,179.7z"/><path fill="#DEE7EE" d="M308.6,208.2c-3.7-2.9,0.2-10.4,0.4-11c0-1.9-5.2-6.6-9-1.8c-3.7,4.4,0.2,13,3.8,14.2C305.9,210.4,308.2,209.7,308.6,208.2z"/><path fill="#E69D9A" d="M400.4,266.9c0.2-1.1,0.6-0.2,0.8-2.1c-1.4,0-4.8-0.2-6.2,0.2c-2.5,0.8-7.1,5-3.3,5.4c1.1,0.2,1.8-0.2,2.5-0.4c1.8-0.4,12.3-0.2,14.6-0.2c5.4,0,2.9-0.4,5.2-0.8c2.9-0.6,0.2,0.4,3.8-1.4c0,0,0.2,0,0.2-0.2h0.2c-0.4-1.1-0.8-1.1-1.5-1.5c-1.1-0.6-0.6-0.8-1.9-1.1c-1.5-0.4-3.7-0.6-5.6-0.4C402.9,265.1,401.9,267.7,400.4,266.9z"/><path fill="#F2BDC5" d="M384.2,242.7c0.2,1,3.4,3.4,4.6,3.7c1.5,0.4,7.3,0.2,8.5,0c1-0.4,0.6-0.4,1.5-0.6c1.9-0.4,2.5-0.2,4.4-1.9c0.8-1,1.5-1.4,2.3-2.1c1.5-1.4,1.5-1,1.5-2.5h-9.8c-1.1,0.2-1.5,0.4-2.9,0.6C391.9,240,385.9,241.4,384.2,242.7z"/><path fill="#DEE7EE" d="M553,186.4l-0.4,6.2c1.9,0.2,3-0.2,4.2-1.4c0.8-0.6,1.9-2.1,2.5-3c1.4-2.5,2.9-4.8,1.9-8.1c-2.1-6.6-9.4-2.7-9.2,1.1C552.2,183.2,553,183.8,553,186.4z"/><path fill="#DEE7EE" d="M288,200.6c-0.2,1.8,2.9,4,3.7,5.2c2.9,1.1,1.5,1.9,5.8,1.9c-0.2-1.9-1.4-4-1.4-6.6c0-1-0.2-2.1,0-3c0.4-1.8,1.4-2.3-0.4-3.7l-1-0.8c-1,0-4-2.3-6.3,0C287,195.3,286.9,198.3,288,200.6z"/><path fill="#A77345" d="M401.4,293.2c-0.2,2.9-1.4,2.7-0.8,6.9c-0.2,0,1.1,0.8,1.5,1.4c3.7,3.4,7.7-0.4,8.2-0.6c0.4-1,0.8,0.2,0.8-2.1c0.2-3.4-0.2-3.3-1-4.6c-0.6-1.1-1.1-3-5.6-2.9c-1.4,0-1,0-1.9,0.6C401.9,292.4,401.5,292.4,401.4,293.2z"/><path fill="#DEE7EE" d="M565.5,183.8c-2.3,1.5-1.8,2.9-3.4,6.6c-2.7,5.2,5.4,6.2,7.7,1.9c1-1.8,1.8-6.3-0.2-8.1C568.6,183.4,566.9,182.8,565.5,183.8z"/><path fill="#DEE7EE" d="M281.1,200.8c-2.9,1.1-3,4-1.5,7.1c3,5.9,10.4,3.7,9.4,0.4c-0.2-0.4-1.8-2.7-2.1-3.3C285.8,203,284.2,199.5,281.1,200.8z"/><path fill="#E69D9A" d="M222,307.6c-0.2,1-0.2,1-0.4,1.9v1.1c0.2,1.1-0.2,0.4,0.6,1c1-1.8,1.9-4.4,4.6-4.8c1.1,0.2,2.3,0,3.7,0.2c2.3,0.2,7.7,1.1,8.6-1.9c0-1.4,0.2-1.9-1-2.5c-1.1-1-1.5-1-2.7-1c0.4,2.3,1,0.8,1.1,2.1c-1.8,0.2-8.2-3.8-12.6,0.6C223,305.3,222.2,306.2,222,307.6z"/><path fill="#ED6C11" d="M231.9,334.6c0-2.3,0-1,1.1-2.3c1-1-0.4,0,1.5-1.4c0,0,0-0.2,0.2-0.2l0.2-0.2c0.2,0,0.2-0.2,0.2-0.2l0.4-0.2c2.3-1.4-0.4-1.5,2.3-1.9l-0.2-1.5c-3.3-1.4-4,0.6-5.2,1.4c-1.8,1.1-2.7,2.7-2.7,2.7l-0.8,0.6c0,0,0,0.2-0.4,0.6c-1.1,1.4-0.8-0.2-2.3,2.1l-0.6,0.8c-0.4,0.8-0.6,1.9-0.8,3c-0.4,1.4-2.1,3.7,2.1,3.7c0-1.9-0.4-1.1,0.6-2.5c0.4-0.4,0,0,0.4-0.6c1.1-2.3,0.2-0.4,1.4-2.1C230.6,334.6,229.4,334.6,231.9,334.6z"/><path fill="#0D0D0D" d="M421.8,208.9c-1.5-0.2-1.4,0.6-2.5,1.8l-6.3,5.8c-7.8,5.2-6.7,1.4-8.8,2.1c-1.1,0.4-0.6,1.8,0,2.5c1.9,2.3,4.4,1.1,6.2,0.4C414.2,219.7,423.6,212.2,421.8,208.9z"/><path fill="#6A689A" d="M128.6,132.5c1.1,0.6,3.7,0.2,5.2,0.2h4.2c1.9,0,1.9-1,1-1.9c-1.1-1.1-0.6-0.8-1.4-1.9c-0.6-0.8-0.2-0.2-1-1c-0.8-1.1-0.2-1.5-1-2.3c0-0.2,0-0.2,0-0.2l-0.6-0.6c-0.6-0.6-0.2-0.4-0.6-0.6c-0.4-0.8-0.2-0.8-1.1-0.8l-1.4,3.7c-0.2,0.6-0.2,0.8-0.6,1.4l-0.8,1C129.2,131.1,128.6,131.4,128.6,132.5z"/><path fill="#DEE7EE" d="M397.4,252.1c0,0.8,1,5.8,1.4,6.3c0.6,0.4,1,0.4,2.5,0l2.3-0.8c0.6-1.4,1-5.4,0.8-7.1L397.4,252.1z"/><path fill="#2E2E2E" d="M473.7,337.5c0.4,0.4,0,0.2,0.8,0.4l11.4,1c1.5,0.2,2.5,0.4,4.4,0.4c-0.6-0.6-1.4-0.6-1.9-0.8c-0.4-0.2-1.1-0.4-1.8-0.6c0-3.8-1.9-5-2.1-5.8l-2.1-8.5c-0.4-1.4,0.2-1.1-1.1-1.1c-0.6,1.1-0.4,2.9,0.2,3.8c0.6,1.4,0,2.5,0.8,4l1.9,7.5C481.8,338.1,477.2,337.5,473.7,337.5z"/><path fill="#0D0D0D" d="M234.5,262.6c4,1.8,7.3,1.8,8.8,5.2c2.9,6.6,4-0.8-0.6-4.8c-2.9-2.3-2.5-1.5-5.6-2.5c-0.8-0.4-1-0.6-1.9-0.6C234.6,261,234.5,261.3,234.5,262.6z"/><path fill="#0D0D0D" d="M382.5,235.2c0-1.1-0.4-2.3-0.4-3l-0.4-0.2c-0.6-1-0.2-0.8-0.6-1.1c-1.5-1.4-2.9,0.6-3.3,2.9c-0.2,1.9,1,5.2,1.8,6.9l2.1-0.2C382.9,238.5,382.5,237.9,382.5,235.2z"/><path fill="#ED6C11" d="M240.6,343.8c0.8-2.5,0-5.6,1-7.7l0.6-1.1c0.6-0.8,1-0.6,0.8-2.3l-2.9,0.4l-2.3,5.4c-0.8,4.4-0.2,4,0.6,5.9L240.6,343.8z"/><path fill="#0D0D0D" d="M211.4,265.4c-1,1.5-3,2.9-3.3,4.8c1,0.2,1.5-0.2,2.3-0.4c0.4-0.8,1.5-2.3,2.5-2.3c0.6-1.1,2.1-0.8,3-0.6c1.5,0.2,3.4,0,5.2-0.2v-2.5c-2.1-0.2-5.4-0.4-7.3,0C213.5,264.2,211.8,265.1,211.4,265.4z"/><path fill="#ED6C11" d="M240.6,301c0.6-0.8,0.2-0.2,0.4-1l0.8-4.4c0.2-1.5,0.4-0.6,0.8-2.3c0.2-1.8,0-1.4,0-2.7c0-0.8,2.3-7.8,0.6-11.1c0.2,3.8,0.6,10-2.3,12.9c-1.8,1.8-0.4,1-2.7,2.5c-0.2,4-1.4,5.2,0.4,5.9C239,301.3,239.8,301,240.6,301z"/><path fill="#DEE7EE" d="M393,259.2l3.4,0.2c0.2-1-0.8-5.6-1.1-6.9l-5.4-0.2C390,253.6,392.3,258.2,393,259.2z"/><path fill="#2E2E2E" d="M415.8,246.3l4.4-1.4c0.8-0.4,0.6-0.8,1-1.1c0.8-0.8,1.8-0.6,2.9-1c1-0.6,0.8-1,3.7-2.1c1.1-0.4,1-0.2,2.3-0.8l0.6-0.4c0.2,0,0.4,0,0.6-0.2l0.8-0.6c0.2,0,0.2,0,0.2,0l1.4-0.8c0,0,0,0,0.2,0l1.1-1c1-0.4,1.5-0.6,2.7-0.6l-1,9c-0.4,1.9-1,3.8-1.1,5.4c-0.4,2.5-0.8,1.8-1.4,2.3c-0.6,0.8-0.2,1.4-1.1,2.7c-0.8,1.4,0,0.4-0.6,1.9c0.8-0.6,0.6-0.8,1.8-2.1l0.4-0.8c0.8-1,0.4,0.4,0.6-1.4c0.6-3.4,1.5-5,1.9-9.2l1.1-4.2c0.2-0.2,0.2-0.6,0.2-0.6c0.2-0.4,0.2,0,0.2-0.8c0.2-1,0-2.7,0-3.7h-1.9c-0.2,1.1-1,1.4-2.1,1.8c-1.1,0.2-1.1,0.2-2.1,1l-0.4,0.2c0,0,0,0.2-0.2,0.2c-0.8,0.6-1.5,0.8-2.7,1.1l-6.3,3.7c-1.9,0.6-1.1-0.4-2.5,0.6l0,0l-1.8,1.2C416.7,245.4,416.9,244.8,415.8,246.3z"/><path fill="#9F9E94" d="M374.1,226.6c1.5-0.2,1.5,0.2,2.7,0.4c3,0.4,5.9-0.6,7.5-0.4l0.4,0.2c1.1,3-3.8,2.7-5.2,2.7C376.3,229.4,374.2,229.8,374.1,226.6z M381,241.9c1-0.2,0.8-0.2,1.5-0.8c0.4-0.2,0.6-0.2,0.8-0.4c0.6-0.6,0.2-0.2,0.6-0.8l-1.1,0.6c-0.8-1.8,1.8-3-0.2-5.4c0,2.7,0.4,3.3-0.8,5.2l-2.1,0.2c-0.8-1.8-1.9-5-1.8-6.9c0.4-2.3,1.8-4.2,3.3-2.9c0.4,0.4,0,0.2,0.6,1.1l0.4,0.2l-0.4-1.9c0.8-0.6,0.8-0.4,1.8-0.6c2.1-0.6,2.9-3.4,1.4-3.7h-1c-1.5,0.2-6.6,0.8-7.8,0.2c-1-0.4-0.4-1-1.5-0.6c-1.4,0.4,1.4-1-0.6,0.2c0,0-0.2,0.2-0.2,0.4c-0.2,1.1-0.2,1.9,0.4,2.5l0.8,0.6c0.4,0.4,1,0.6,1.5,0.6c1.5,0.4,1.1,0,1.9,0.8c-0.2,2.5-1.4,2.3-0.6,5.9c1,4.2,1.1,2.9,1.8,4.4h2.1C381.1,241.8,381.8,241.1,381,241.9z"/><path fill="#0D0D0D" d="M374.1,226.6c0.2,3.3,2.3,2.9,5.4,2.9c1.4,0,6.3,0.4,5.2-2.7l-0.4-0.2c-1.5-0.2-4.4,0.8-7.5,0.4C375.6,226.7,375.6,226.4,374.1,226.6z"/><path fill="#ED6C11" d="M223.7,271.5c3.7,2.3,4,3.7,6.3,1.4c1-0.8,0.2-0.8,1.9-1.4c2.3-0.6,4-0.2,5.9,0.4c-1-1.1-3-0.6-5-1c-1.4,0-1.4-0.4-2.5-0.4c-1.1-0.2-2.3,0.2-3-0.4c-1.4,0.8-1.5,0.4-3.4,0.4C223.5,271.1,223.3,269.8,223.7,271.5z"/><path fill="#E5975F" d="M257.9,347.1c2.1-0.4,1.1-0.6,2.5-1.1c1.1-0.6,1,0,1.8-0.8l1.8-1.1c1.8-0.8,0.4-1.4,3.7-1.8c0.8-1.9,0.2-0.6,1.4-1.5l0.4-0.8c0.8-1,2.1-1.1,2.9-2.3c1.1-2.1-0.4-0.6,1.5-1.8c0.2-2.1-0.2-4,0-5.4l-1.5-0.2c0.4,1.4,1.8,3,0.6,4.6c-0.4,0.4,0-0.2-0.4,0.4c-1,1.5,0.4,0.4-1.4,1.9c-1,1-0.4,0.6-0.8,1.1c-0.8,1.1-0.2,0-1.1,0.8c-1.1,0.8,0,0.6-1.1,1.1l-1.9,1.4c0,0.2-0.2,0.2-0.2,0.2s0,0.2-0.2,0.2c-1,0.6-0.8-0.2-1.8,1c-0.4,0.6-0.2,0.4-0.6,0.6c-0.4,0.4-1.4,0.6-1.5,0.6c-1.4,0.6,0.4,0.2-1.1,1C259.2,346,258.2,345.2,257.9,347.1z"/><path fill="#ED6C11" d="M251.4,342.3h2.1c0-1.4-0.2-1.8-1-2.3v-6.2c-1.1,0.2-1.4,0.4-1.9,1.1c-1.1,1.4-1.1,2.9-0.4,4.4c0.2,0.6,0,0,0.2,0.8L251.4,342.3z"/><path fill="#9F9E94" d="M384.2,249.4c0,0,0.2,0.6,1.9,0.6l12.9-0.6l1.5-0.8l-1.8,0.2l0.6-1c-1.5,0.2-1.1,0.6-2.7,0.8c-4.2,0.4-4.8,0-7.8-0.8c-6.2-1.4-6.2-3-7.7-3.8c0.8,2.1,1,1.8,3,2.9l0,0l1.8,0.6c0.8,0.2,1,0.4,1.5,0.6l3.8,1c0.2,0,0.2,0.2,0.4,0.2l0.2,0.2c0-0.2,0.2,0.2,0.2,0.2C389.4,249.6,386.9,249.4,384.2,249.4z"/><path fill="#A77345" d="M226.2,296.1c0.2,1.4,0.2,1.5,3.8,1.9c0.8,0,1.8,0,2.5,0c0.4,0,1-0.2,1.4-0.2c0.6-0.4,0.4-0.4,0.8-0.8c-0.6-0.4,0.6-0.2-1-0.4c-0.2,0-1,0-1.1,0C228.7,296.6,227.9,294.9,226.2,296.1z"/><path fill="#9DABC6" d="M236,281.3c0.2-1.5,0-2.9,1.8-2.9c2.1-0.2,2.3,1.1,1.9,2.9C238.1,282.6,237.5,281.7,236,281.3z M236,281.3c0.4,0.4,0.2,0.2,0.6,0.4l0.8,0.6c1,0.4,1.1,0.6,1.8,0.2c1.4-1,0.4-1.4,1.8-2.1c1.5,2.3,0.2,5.8-0.4,7.8c1.9-1.1,1.4-4.4,1.4-6.3c-0.2-1.9-1-4.4-2.5-5.6l0.6,1.9c-1.8-0.2-2.5-0.6-3.4,0.4c0,0.2-0.2,0.2-0.2,0.2l-0.2,0.2C235.6,279.8,235.6,280.7,236,281.3z"/><path fill="#F2BDC5" d="M248.3,328.2c-0.4-0.8-0.2-0.4-0.4-0.6c-0.2-0.2-0.6-0.4-0.6-0.4c-0.4-0.6-0.2-0.4-1-0.8c-3-1.4-2.1-1.1-3.7-3.3c-0.6-0.8-0.8,0-1-2.9c-1.5-1.4-0.6,0-1.4-1.9c0,0,0-0.2-0.2-0.2l-0.2-0.6c0,1.4-0.2,1.5,0.4,2.7l0.4,1c1,1.8,0.6,2.1,1.5,2.9c1.9,2.5-0.2,1.5,2.3,2.5C247,327.4,245,327.9,248.3,328.2z"/><path fill="#0D0D0D" d="M236,281.3c1.5,0.4,2.1,1.4,3.7,0c0.4-1.8,0.2-3-1.9-2.9C236,278.4,236.2,279.8,236,281.3z"/><path fill="#664A2E" d="M410.3,300.9c-0.6,0.2-4.6,4-8.2,0.6c-0.4-0.6-1.8-1.4-1.5-1.4c-0.6-4.2,0.6-4,0.8-6.9c-1.4,0.8-1.4,2.1-1.5,5C399.6,302.8,408.1,305.8,410.3,300.9z"/><path fill="#0D0D0D" d="M221.8,280.2c-0.2,1.9,0.6,2.7,2.5,2.3c1.9-0.4,1.1-2.1,0.2-3C223,279.2,223,279,221.8,280.2z"/><path fill="#9F9E94" d="M433.2,234.6c2.1-0.6,4.8-2.9,7.3-1.4c0.8,1.5-0.4,8.1-0.4,10.2c1-1,1-4.6,1-5.9c0.2-2.7,0.4-2.7-0.4-4.8c-2.5-0.6-4.6-0.2-6.7,1.4C433.4,234.4,433.6,234.4,433.2,234.6z"/><path fill="#A77345" d="M222,307.6c-0.6,0.4-0.4,0-0.6,0.8c-0.2,0.4-1.4,4,0.6,4.8c0.6-1.1,2.1-3.8,2.3-4.6l1.4-0.2c0.2-0.8,0-0.2,0.4-0.8l0.8-0.8c-2.7,0.4-3.7,3-4.6,4.8c-0.8-0.6-0.4,0.2-0.6-1v-1.1C221.8,308.6,221.8,308.6,222,307.6z"/><path fill="#9F9E94" d="M288,200.6c-1.1-2.3-1-5.4,0.4-6.9c2.3-2.3,5.4,0,6.3,0c-0.8-1-1.9-1.4-3.3-1.5c-1.9-0.2-3.3,1-4,2.3c0,0-0.2,0-0.2,0.2c-0.6,1-0.6,4.4-0.2,5.2C287.4,201,287.3,200.5,288,200.6z"/><path fill="#9DABC6" d="M221.8,280.2c1.1-1.1,1.1-1,2.7-0.8c1,1,1.8,2.7-0.2,3C222.3,282.8,221.6,282.1,221.8,280.2z M221.4,282.4c0.4,0.2,0.8,0.4,1,0.8c3.4,0,3.7-0.2,3.3-3.7c-0.8-0.4-1.8-1.4-3.3-0.6C221,279.5,221.4,280.9,221.4,282.4z"/><path fill="#9F9E94" d="M213,267.4c1.8-0.2,3.3-0.8,3.7,3.3c-1.1,0.6-2.3,1.1-3,2.3l1.1-0.6c0.4-0.4,0.2-0.2,0.8-0.6c0.8-0.4,1.1-0.6,1.8-1c0.2-1.9-0.6-2.7-1.1-4C215,266.7,213.5,266.3,213,267.4z"/><path fill="#6A689A" d="M291.7,205.8c1.1,1.5,3.7,3,6.2,2.1l-1.4-5.9c-0.2-0.8,0-0.4-0.4-0.8c0,2.5,1.1,4.6,1.4,6.6C293.2,207.8,294.6,207,291.7,205.8z"/><path fill="#9F9E94" d="M210.5,269.8c-0.8,0.2-1.4,0.6-2.3,0.4c0.2-1.9,2.3-3.3,3.3-4.8c-1.8,0.6-1.5,1-2.7,2.1c-0.6,0.8-1.4,1.9-1,3l2.1,0.2L210.5,269.8z"/></g></g></svg>
