<svg version="1.1" xmlns="http://www.w3.org/2000/svg" x="0px" y="0px" width="640px" height="480px" viewBox="0 0 640 480" enable-background="new 0 0 640 480"><rect fill="#0C0C0C" width="640" height="480"/><g><path fill="#FFFFFF" d="M234.8,217.8c2.9-1,1-1,5.8-3.8c7.7-5.8,14.4-1,19.2-1c0,6.7,0,14.4,0,21.1c0,15.4,1,11.5-4.8,17.3c-2.9-1.9-4.8-2.9-6.7-5.8c-2.9-5.8-2.9-9.6-2.9-15.4c0-9.6,4.8-12.5,8.6-17.3c-9.6,1.9-17.3,9.6-19.2,20.2c-5.8,35.6,48.1,42.3,54.8,11.5l-1-8.6c-5.8,5.8-3.8,17.3-28.9,17.3c-10.6,0,11.5-7.7,11.5-12.5v-25c12.5,0,18.2,0,24-11.5c-8.6,1.9-2.9,1.9-13.4,1.9c-14.4,0-27.8-10.6-41.4,0C237.7,208.2,234.8,213,234.8,217.8z"/><path fill="#FFFFFF" d="M85.8,217.8c2.9-1,1-1,5.8-3.8c7.7-5.8,14.4-1,19.2-1v34.6c-1.9,1-3.8,2.9-5.8,3.8c-9.6-8.6-8.6-11.5-8.6-23c0-6.7,6.7-12.5,8.6-15.4c-5.8,1-9.6,3.8-13.4,7.7c-14.4,15.4-3.8,42.3,21.1,44.2c14.4,1,27.8-9.6,27.8-29.8l-3.8,5.8c-1,2.9-2.9,3.8-4.8,5.8c-7.7,6.7-12.5,6.7-21.1,6.7c-6.7,0-1-2.9,2.9-5.8c10.6-6.7,8.6,1,8.6-31.8c12.5,0,18.2,0,24-11.5c-8.6,1.9-2.9,1.9-13.4,1.9c-14.4,0-27.8-10.6-41.4,0C88.7,208.2,85.8,213,85.8,217.8z"/><path fill="#FFFFFF" d="M386.7,226.5c8.6,1,5.8,8.6,5.8,26.9c0,3.8,0,0-1,2.9c-3.8-1-1.9-1-4.8-2.9V226.5z M375.2,231.3c0,22.1-2.9,25.9,7.7,32.7c2.9-1.9,7.7-5.8,10.6-6.7c5.8,2.9,7.7,4.8,7.7,13.4c-4.8,0-9.6-5.8-17.3-5.8c-6.7,0-13.4,3.8-14.4,9.6c10.6-2.9,13.4-3.8,25,3.8c3.8-6.7,15.4-7.7,15.4-18.2c0-5.8-2.9-4.8-4.8-8.6c-1.9-4.8,1.9-19.2-1-24c0-1-5.8-6.7-6.7-6.7S375.2,226.5,375.2,231.3z"/><path fill="#FFFFFF" d="M140.6,215c1.9-1,2.9-1,5.8-1v40.4c0,2.9,7.7,7.7,9.6,9.6c2.9-1.9,4.8-5.8,8.6-6.7v-1.9c-8.6,0-5.8-5.8-5.8-25.9c7.7-1.9,7.7-4.8,7.7,15.4c0,8.6-1.9,12.5,8.6,19.2c1-1,3.8-2.9,4.8-3.8c2.9-1.9,1.9-2.9,5.8-3.8v-1.9c-10.6,1.9-7.7-4.8-7.7-15.4c0-12.5,1-13.4-6.7-18.2c-4.8,1-8.6,4.8-12.5,6.7c0-12.5,1.9-15.4-7.7-22.1L140.6,215z"/><path fill="#FFFFFF" d="M509.8,215c1.9-1,2.9-1,5.8-1v40.4c0,2.9,7.7,7.7,9.6,9.6c2.9-1.9,4.8-5.8,8.6-6.7v-1.9c-8.6,0-5.8-5.8-5.8-25.9c7.7-1.9,7.7-4.8,7.7,15.4c0,8.6-1.9,12.5,8.6,19.2c5.8-3.8,6.7-6.7,10.6-7.7v-1.9c-10.6,1.9-7.7-4.8-7.7-15.4c0-12.5,1-13.4-6.7-18.2c-4.8,1-8.6,4.8-12.5,6.7c0-12.5,1.9-15.4-7.7-22.1L509.8,215z"/><path fill="#FFFFFF" d="M490.6,228.4c9.6-1.9,7.7-1,7.7,25.9c0,2.9-1.9,2.9-4.8,2.9c-4.8,0-2.9-7.7-2.9-12.5C490.6,239,490.6,234.2,490.6,228.4z M473.2,227.4v1.9c2.9-1,5.8-1.9,5.8,1.9v35.6c0,2.9-1,1-1.9,4.8c2.9,1.9,5.8,4.8,8.6,6.7c1.9-2.9,3.8-5.8,7.7-6.7v-1.9c-3.8-1-2.9,0-2.9-11.5c2.9,1.9,6.7,3.8,9.6,5.8c12.5-8.6,9.6-2.9,9.6-35.6c0-1.9-5.8-7.7-7.7-7.7c-1,0-9.6,4.8-11.5,5.8l-6.7-5.8C479,221.7,478,226.5,473.2,227.4z"/><path fill="#FFFFFF" d="M452.1,226.5c4.8,0,2.9,1,5.8,2.9v25.9c-7.7,1.9-5.8-2.9-5.8-10.6C452.1,239,452.1,232.2,452.1,226.5z M439.6,231.3c0,25.9-2.9,25,8.6,32.7c3.8-1.9,5.8-4.8,9.6-6.7l8.6,6.7c1.9-1,2.9-2.9,4.8-3.8c2.9-1.9,3.8-2.9,4.8-5.8c-8.6,3.8-6.7-7.7-6.7-15.4c0-3.8,1-8.6-1-12.5c0-1-4.8-5.8-5.8-5.8c-2.9,0-9.6,2.9-12.5,3.8C444.4,227.4,439.6,227.4,439.6,231.3z"/><path fill="#FFFFFF" d="M355.9,241.8v-14.4c2.9,1.9,4.8,6.7,5.8,10.6C357.8,239,358.8,239.9,355.9,241.8z M343.4,229.4c0,31.8-3.8,25,13.4,34.6c2.9-1.9,3.8-2.9,6.7-5.8c1.9-1,1.9-1,3.8-1.9c2.9-2.9,1.9-1,2.9-3.8c-3.8,1-2.9,2.9-7.7,2.9c-1.9,0-2.9-1.9-6.7-2.9v-8.6l16.3-9.6c-2.9-4.8-4.8-9.6-7.7-14.4C355,224.6,343.4,223.6,343.4,229.4z"/><path fill="#FFFFFF" d="M305.9,241.8v-14.4c1,1,0,0,1.9,1.9l3.8,7.7L305.9,241.8z M293.4,226.5v30.8c2.9,1,10.6,4.8,13.4,6.7c1.9-1.9,4.8-3.8,6.7-5.8c4.8-2.9,5.8-2.9,6.7-5.8c-2.9,1-3.8,2.9-6.7,2.9c-8.6,0-7.7-5.8-7.7-9.6c0-4.8,11.5-7.7,15.4-12.5c-1-1.9-5.8-12.5-7.7-12.5C309.8,220.7,297.3,225.5,293.4,226.5z"/><path fill="#FFFFFF" d="M198.3,241.8v-15.4l2.9,4.8c1,1.9,1.9,2.9,2.9,5.8C203.1,239,200.2,240.9,198.3,241.8z M186.7,226.5v30.8c4.8,1.9,8.6,3.8,12.5,6.7c2.9-1.9,12.5-8.6,14.4-11.5c-2.9,1-5.8,2.9-7.7,2.9s-4.8-1.9-7.7-2.9v-8.6c5.8-2.9,10.6-6.7,16.3-9.6c-1-3.8-5.8-10.6-7.7-14.4L186.7,226.5z"/><path fill="#FFFFFF" d="M319.4,214h1.9c2.9,0,3.8-1,3.8,8.6v32.7c1,3.8,4.8,5.8,8.6,8.6c1.9-1.9,2.9-1.9,4.8-3.8c2.9-2.9,2.9-1,3.8-4.8c-6.7,0-5.8-2.9-5.8-9.6V214c-1-3.8-4.8-6.7-7.7-8.6C327.1,206.3,320.4,212.1,319.4,214z"/><path fill="#FFFFFF" d="M406.9,229.4c6.7-1.9,6.7-5.8,6.7,16.3c0,10.6-1.9,11.5,8.6,18.2c2.9-1.9,8.6-6.7,9.6-9.6c-9.6,4.8-6.7-9.6-6.7-25.9c3.8,1,1.9,1.9,7.7,4.8c4.8-4.8,7.7-5.8,8.6-8.6c-9.6,1.9-5.8-1.9-11.5-3.8l-6.7,5.8l-5.8-5.8C414.6,221.7,407.8,227.4,406.9,229.4z"/></g></svg>