<svg version="1.1" xmlns="http://www.w3.org/2000/svg" x="0px" y="0px" width="640px" height="480px" viewBox="0 0 640 480" enable-background="new 0 0 640 480"><rect fill="#52796F" width="640" height="480"/><g><path d="M214.7,53.3v373.3h210.7V53.3H214.7z M303.7,64.4h32.8v1.9h-32.8V64.4z M319.1,410.3l-6.9,1.6v-7.1l6.9-1.3V410.3z M319.1,401.7l-6.9,1.3v-6.7l6.9-1.6V401.7z M327.9,408.4l-6.9,1.6v-6.8l6.9-1.3V408.4z M327.9,400.1l-6.9,1.3v-6.9l6.9-1.6V400.1z M409.9,374.3H230.1V75.9h180.1L409.9,374.3L409.9,374.3z"/><rect x="229.9" y="75.5" fill="#F1F1F1" width="180.8" height="298.8"/><rect x="240" y="183.3" fill="#E74856" width="160.3" height="83.6"/><path fill="#FFFFFF" d="M318.4,231.1c-0.9,0.4-2,0.7-3.3,0.7c-1.2,0-2.1-0.3-3.1-0.8c-0.9-0.5-1.6-1.2-2.1-2.3c-0.5-0.9-0.8-2-0.8-3.2c0-1.3,0.3-2.4,0.8-3.5s1.2-1.9,2.3-2.4c0.9-0.5,2-0.8,3.3-0.8c1.1,0,2,0.1,2.8,0.5v1.2c-0.9-0.4-1.9-0.7-2.9-0.7c-1.1,0-2,0.3-2.7,0.7c-0.7,0.4-1.3,1.2-1.7,2c-0.4,0.8-0.7,1.9-0.7,2.9c0,1.1,0.1,2,0.5,2.7c0.4,0.8,0.9,1.5,1.6,1.9c0.8,0.4,1.6,0.7,2.5,0.7c1.2,0,2.3-0.3,3.2-0.8L318.4,231.1L318.4,231.1z"/><path fill="#FFFFFF" d="M323.5,223.5v8h-1.2v-8h-2.7v-0.9h6.5v0.9H323.5z"/><path fill="#FFFFFF" d="M332.8,231.5v-1.6l0,0c-0.3,0.5-0.7,1.1-1.2,1.3c-0.5,0.4-1.1,0.4-1.7,0.4c-0.8,0-1.6-0.3-2-0.7c-0.5-0.4-0.8-1.1-0.8-1.9c0-1.6,1.1-2.5,3.1-2.9l2.7-0.4c0-1.7-0.7-2.5-2-2.5c-1.1,0-2,0.4-2.9,1.2v-1.2c0.4-0.3,0.8-0.4,1.3-0.7c0.5-0.1,1.1-0.3,1.6-0.3c1.1,0,1.7,0.3,2.3,0.8c0.5,0.5,0.8,1.5,0.8,2.5v5.9L332.8,231.5L332.8,231.5z M328.5,229.1c0,0.5,0.1,0.9,0.5,1.2s0.8,0.4,1.3,0.4c0.8,0,1.5-0.3,2-0.8c0.5-0.5,0.8-1.3,0.8-2.1v-0.9l-2.4,0.4c-0.8,0.1-1.5,0.4-1.9,0.7C328.5,228,328.5,228.4,328.5,229.1z"/><path fill="#FFFFFF" d="M339.5,223.5v8h-1.2v-8h-2.7v-0.9h6.5v0.9H339.5z"/><path fill="#FFFFFF" d="M350.3,228.7c0,0.8-0.3,1.5-0.8,2s-1.2,0.8-2,0.8h-3.7v-8.9h1.2v3.6h2.5c0.9,0,1.6,0.3,2.1,0.7C350.3,227.2,350.3,227.9,350.3,228.7z M349.3,228.7c0-0.5-0.1-0.9-0.5-1.2c-0.4-0.3-0.8-0.4-1.5-0.4h-2.3v3.5h2.3c0.7,0,1.1-0.1,1.5-0.4C348.9,229.7,349.3,229.3,349.3,228.7z"/><path fill="#FFFFFF" d="M358.7,231.5v-7.3l-0.3,0.4l-4.9,6.9h-1.1v-8.9h1.1v7.3c0-0.1,0.1-0.4,0.4-0.7l4.8-6.7h1.1v8.9H358.7L358.7,231.5z"/><path fill="#FFFFFF" d="M302,234c-0.3-0.4-2.1-3.9,0-5.9c0.1-0.1,0.3-0.4,0.1-0.8c-0.1-0.3-0.4-0.4-0.7-0.4h-20.7c-0.4,0-0.7,0.3-0.7,0.7v6.8c0,0.4,0.3,0.7,0.7,0.7h20.7l0,0c0.4,0,0.7-0.4,0.7-0.7C302.4,234.3,302.4,234.1,302,234z M281.2,233.9v-5.7h19.3c-0.4,0.8-0.5,1.6-0.5,2.4h-14.7c-0.3,0-0.4,0.3-0.4,0.4c0,0.3,0.3,0.4,0.4,0.4H300c0.1,0.9,0.4,1.7,0.8,2.4L281.2,233.9L281.2,233.9z"/><path fill="#FFFFFF" d="M283.9,225.2h6.4c0.1,0,0.3-0.1,0.3-0.3v-2.8h1.2v2.8c0,0.1,0.1,0.3,0.3,0.3h6.4c0.1,0,0.3-0.1,0.3-0.3v-4v-0.1l-3.1-5.3c0-0.1-0.1-0.1-0.3-0.1c-0.1,0-0.3,0.1-0.3,0.3l-0.1,0.9c0,0,0,0.1,0,0.3l2.1,3.9h-12.1l2.1-3.9c0,0,0-0.1,0-0.3l-0.3-0.9c0-0.1-0.1-0.3-0.3-0.3c-0.1,0-0.3,0-0.3,0.1l-3.1,5.3v0.1v4C283.6,225.2,283.6,225.2,283.9,225.2z M292.9,221.7h4.8v2.5h-4.8V221.7z M284.9,221.7h4.8v2.5h-4.8V221.7z"/><path fill="#363636" d="M292.3,134.4c-0.7,0.4-1.3,0.5-2.4,0.5c-0.8,0-1.5-0.1-2-0.5c-0.5-0.4-1.1-0.8-1.3-1.5c-0.4-0.7-0.5-1.3-0.5-2.1c0-0.8,0.1-1.6,0.5-2.4c0.4-0.7,0.8-1.2,1.6-1.6c0.7-0.4,1.3-0.5,2.3-0.5c0.8,0,1.5,0.1,2,0.4v1.1c-0.7-0.4-1.2-0.5-2-0.5c-0.7,0-1.2,0.1-1.7,0.4c-0.5,0.3-0.8,0.7-1.2,1.2c-0.3,0.5-0.4,1.2-0.4,1.9s0.1,1.2,0.4,1.7s0.7,0.9,1.1,1.2c0.4,0.3,0.9,0.4,1.6,0.4c0.8,0,1.6-0.1,2.1-0.5L292.3,134.4L292.3,134.4z"/><path fill="#363636" d="M299.3,131.7c0,0.9-0.3,1.7-0.8,2.3c-0.5,0.5-1.2,0.8-2.1,0.8s-1.6-0.3-2.1-0.8s-0.8-1.3-0.8-2.3s0.3-1.7,0.8-2.4c0.5-0.5,1.3-0.8,2.3-0.8s1.6,0.3,2.1,0.8C299.1,130,299.3,130.8,299.3,131.7z M298.4,131.7c0-0.8-0.1-1.3-0.5-1.7c-0.4-0.4-0.8-0.7-1.5-0.7c-0.7,0-1.1,0.3-1.5,0.7s-0.5,0.9-0.5,1.7s0.1,1.2,0.5,1.6c0.4,0.4,0.8,0.7,1.5,0.7c0.7,0,1.1-0.1,1.5-0.5C298.4,133.1,298.4,132.5,298.4,131.7z"/><path fill="#363636" d="M306,136.9h-0.7v-2.1h-4.4v2.1H300v-3.1h0.5c1.1-1.5,1.6-3.2,1.6-5.2h3.1v5.2h0.9L306,136.9L306,136.9z M304,133.9v-4.3h-1.3c-0.1,1.6-0.5,3.1-1.3,4.3H304z"/><path fill="#363636" d="M312,132h-4.3c0,0.7,0.1,1.2,0.5,1.6c0.4,0.4,0.8,0.5,1.5,0.5c0.7,0,1.3-0.3,1.9-0.7v0.9c-0.5,0.4-1.2,0.5-2.1,0.5c-0.8,0-1.6-0.3-2-0.8c-0.4-0.5-0.8-1.3-0.8-2.3c0-0.5,0.1-1.2,0.4-1.6c0.3-0.5,0.5-0.8,0.9-1.2c0.4-0.3,0.9-0.4,1.5-0.4c0.8,0,1.3,0.3,1.9,0.8c0.4,0.5,0.7,1.2,0.7,2.1L312,132L312,132z M311.1,131.2c0-0.5-0.1-0.9-0.4-1.3c-0.3-0.3-0.7-0.4-1.1-0.4c-0.4,0-0.8,0.1-1.2,0.4c-0.4,0.3-0.5,0.8-0.5,1.2L311.1,131.2L311.1,131.2z"/><path fill="#363636" d="M319.1,131.6c0,1.1-0.3,1.9-0.8,2.4s-1.2,0.9-2,0.9c-0.8,0-1.3-0.4-1.7-1.1l0,0v3.6h-1.2v-8.7h0.9v1.1l0,0c0.4-0.8,1.2-1.2,2-1.2c0.8,0,1.3,0.3,1.7,0.8C318.7,129.9,319.1,130.7,319.1,131.6z M318,131.6c0-0.7-0.1-1.2-0.4-1.6c-0.3-0.4-0.8-0.5-1.2-0.5c-0.5,0-0.9,0.1-1.3,0.5c-0.4,0.4-0.5,0.8-0.5,1.5v0.8c0,0.5,0.1,0.9,0.5,1.2c0.4,0.4,0.8,0.5,1.2,0.5c0.5,0,1.1-0.3,1.3-0.7C317.7,132.9,318,132.4,318,131.6z"/><path fill="#363636" d="M328.1,134.8h-1.3l-2.7-2.9l0,0v2.9h-0.9v-2.9l0,0l-2.7,2.9h-1.2l2.9-3.1l-2.8-2.9h1.2l2.5,2.8l0,0v-2.8h0.9v2.8l0,0l2.5-2.8h1.2l-2.8,2.9L328.1,134.8z"/><path fill="#363636" d="M333.5,134.8h-0.9v-0.9l0,0c-0.4,0.8-1.1,1.1-1.9,1.1c-0.5,0-1.1-0.1-1.3-0.4c-0.4-0.3-0.5-0.8-0.5-1.2c0-1.2,0.7-1.7,2-2l1.7-0.3c0-1.1-0.4-1.6-1.2-1.6c-0.8,0-1.3,0.3-2,0.8v-0.9c0.1-0.1,0.4-0.3,0.9-0.4c0.4-0.1,0.8-0.1,1.2-0.1c1.5,0,2.1,0.8,2.1,2.3L333.5,134.8L333.5,134.8z M332.5,131.7l-1.5,0.3c-0.5,0-0.8,0.1-1.1,0.4c-0.3,0.3-0.3,0.4-0.3,0.8c0,0.3,0.1,0.5,0.4,0.8c0.3,0.1,0.5,0.3,0.8,0.3c0.4,0,0.8-0.1,1.2-0.5c0.3-0.4,0.4-0.8,0.4-1.2L332.5,131.7L332.5,131.7z"/><path fill="#363636" d="M340.1,134.8h-0.9v-2.7h-3.1v2.7h-0.9v-6h0.9v2.4h3.1v-2.4h0.9V134.8z"/><path fill="#363636" d="M347.3,134.8h-0.8V130c0,0.1-0.3,0.4-0.4,0.7l-2.7,4h-0.9v-6h0.8v4.7l0.4-0.5l2.8-4.1h0.9L347.3,134.8L347.3,134.8z"/><path fill="#363636" d="M354,132h-4.3c0,0.7,0.1,1.2,0.5,1.6c0.4,0.4,0.8,0.5,1.5,0.5c0.7,0,1.3-0.3,1.9-0.7v0.9c-0.5,0.4-1.2,0.5-2.1,0.5c-0.8,0-1.6-0.3-2-0.8c-0.4-0.5-0.8-1.3-0.8-2.3c0-0.5,0.1-1.2,0.4-1.6c0.3-0.5,0.5-0.8,0.9-1.2c0.4-0.3,0.9-0.4,1.5-0.4c0.8,0,1.3,0.3,1.9,0.8c0.4,0.5,0.7,1.2,0.7,2.1L354,132L354,132z M352.9,131.2c0-0.5-0.1-0.9-0.4-1.3c-0.3-0.3-0.7-0.4-1.1-0.4c-0.4,0-0.8,0.1-1.2,0.4c-0.4,0.3-0.5,0.8-0.5,1.2L352.9,131.2L352.9,131.2z"/><rect x="240" y="280.1" fill="#744DA9" width="160.3" height="83.6"/><path fill="#FFFFFF" d="M314.7,316.7v11.5h-1.2v-11.5h-3.6v-1.1h8.4v1.1H314.7z"/><path fill="#FFFFFF" d="M319.1,323.9c0,1.1,0.3,2,0.8,2.7s1.3,0.9,2.3,0.9c1.1,0,2-0.4,2.8-1.1v1.1c-0.8,0.7-1.9,0.9-3.1,0.9s-2.3-0.4-2.9-1.2s-1.1-2-1.1-3.5c0-0.8,0.1-1.6,0.5-2.4s0.8-1.3,1.5-1.7s1.3-0.7,2.1-0.7c1.2,0,2,0.4,2.7,1.2c0.7,0.8,0.9,1.9,0.9,3.2v0.5L319.1,323.9L319.1,323.9z M324.5,322.8c0-0.9-0.3-1.6-0.7-2.1c-0.4-0.5-1.1-0.8-1.7-0.8c-0.8,0-1.5,0.3-1.9,0.8c-0.5,0.5-0.8,1.2-0.9,2.1H324.5L324.5,322.8z"/><path fill="#FFFFFF" d="M333.9,327.7c-0.7,0.4-1.5,0.7-2.4,0.7c-0.8,0-1.6-0.1-2.1-0.5c-0.7-0.4-1.2-0.9-1.5-1.6c-0.4-0.7-0.5-1.5-0.5-2.3c0-0.9,0.1-1.7,0.5-2.5c0.4-0.8,0.9-1.3,1.6-1.7c0.7-0.4,1.5-0.7,2.4-0.7c0.8,0,1.5,0.1,2,0.4v1.2c-0.7-0.4-1.3-0.7-2.1-0.7c-0.7,0-1.2,0.1-1.7,0.4c-0.5,0.4-0.9,0.8-1.2,1.3c-0.3,0.5-0.4,1.2-0.4,2c0,1.1,0.3,2,0.8,2.7s1.3,1.1,2.3,1.1c0.8,0,1.6-0.3,2.3-0.8L333.9,327.7L333.9,327.7z"/><path fill="#FFFFFF" d="M338.5,320.1v8h-1.1v-8h-2.7v-0.9h6.5v0.9H338.5L338.5,320.1z"/><path fill="#FFFFFF" d="M349.3,325.3c0,0.8-0.3,1.5-0.8,2s-1.2,0.8-2,0.8h-3.6v-8.9h1.2v3.6h2.5c0.9,0,1.6,0.3,2.1,0.7C349.3,323.9,349.3,324.5,349.3,325.3z M348.3,325.3c0-0.5-0.1-0.9-0.5-1.2c-0.4-0.3-0.8-0.4-1.5-0.4H344v3.5h2.3c0.7,0,1.1-0.1,1.5-0.4C348,326.4,348.3,326,348.3,325.3z M351.3,328.1v-8.9h1.2v8.9H351.3z"/><path fill="#FFFFFF" d="M298.4,324.9c-1.3,1.1-2.4,2.4-3.6,3.6c-0.4-0.5-0.9-1.1-1.2-1.7c-0.4-0.8-1.6,0.4-1.2,1.1c0.4,0.9,1.1,1.6,1.7,2.3c0.3,0.3,0.8,0,0.9-0.3c1.2-1.5,2.4-2.8,3.9-4C299.7,325.5,299.3,324.3,298.4,324.9z"/><path fill="#FFFFFF" d="M302.4,312.5h-3.5c-0.3-0.3-0.5-0.4-0.9-0.4h-1.3v-0.3c0-0.4-0.7-0.9-1.2-0.9s-1.2,0.4-1.2,0.9v0.3h-1.3c-0.4,0-0.8,0.1-0.9,0.4h-3.5c-0.4,0-0.7,0.3-0.7,0.7v19.1c0,0.4,0.3,0.7,0.7,0.7h14c0.4,0,0.7-0.3,0.7-0.7v-19.1C303.1,312.8,302.7,312.5,302.4,312.5z M301.7,331.6h-12.5v-17.7h1.9l0,0h0.7c0.1,0.5,0.7,0.9,1.2,0.9h2.5h2.5c0.5,0,1.1-0.4,1.2-0.9h0.7l0,0h1.9L301.7,331.6L301.7,331.6z"/><rect x="290.3" y="316.1" fill="#FFFFFF" width="10.1" height="1.1"/><rect x="290.3" y="318.3" fill="#FFFFFF" width="10.1" height="1.1"/><rect x="290.3" y="320.5" fill="#FFFFFF" width="10.1" height="1.1"/><rect x="290.3" y="322.8" fill="#FFFFFF" width="10.1" height="1.1"/><rect x="240" y="151.2" fill="#FFFFFF" width="160.3" height="17.1"/><path fill="#363636" d="M265.1,160.7c0,0.5-0.1,0.9-0.5,1.2c-0.4,0.3-0.8,0.4-1.3,0.4h-1.6v-5.6h2.9v0.7h-2.1v1.7h1.1c0.5,0,0.9,0.1,1.3,0.4C264.8,159.9,265.1,160.3,265.1,160.7z M264.4,160.7c0-0.7-0.4-1.1-1.2-1.1h-0.8v2h0.9c0.4,0,0.7-0.1,0.9-0.3C264.1,161.3,264.4,161.1,264.4,160.7z"/><path fill="#363636" d="M269.1,161.1c0,0.4-0.1,0.7-0.4,0.9s-0.5,0.4-0.9,0.4H266v-4h0.7v1.6h1.1c0.4,0,0.8,0.1,0.9,0.4C268.8,160.5,269.1,160.7,269.1,161.1z M268.4,161.1c0-0.4-0.3-0.7-0.8-0.7h-0.9v1.3h0.9C268.1,161.9,268.4,161.6,268.4,161.1z M270.4,162.4h-0.7v-4h0.7V162.4z"/><path fill="#363636" d="M274.5,162.3c-0.3,0.1-0.7,0.3-1.1,0.3s-0.7,0-0.9-0.3s-0.5-0.4-0.7-0.7c-0.1-0.3-0.3-0.7-0.3-1.1c0-0.7,0.1-1.2,0.5-1.6c0.4-0.4,0.8-0.7,1.5-0.7c0.4,0,0.7,0,0.9,0.3v0.7c-0.3-0.3-0.7-0.3-0.9-0.3c-0.4,0-0.8,0.1-1.1,0.4c-0.3,0.3-0.4,0.7-0.4,1.2c0,0.4,0.1,0.8,0.4,1.1c0.3,0.3,0.5,0.4,0.9,0.4c0.4,0,0.7-0.1,0.9-0.4L274.5,162.3L274.5,162.3z"/><path fill="#363636" d="M277.9,158.9h-1.2v3.5H276v-3.5h-1.2v-0.5h3.1V158.9L277.9,158.9z"/><path fill="#363636" d="M282.3,160.3c0,0.7-0.1,1.2-0.5,1.6c-0.4,0.4-0.8,0.7-1.3,0.7s-0.9-0.3-1.2-0.7l0,0v2.4h-0.7v-5.9h0.7v0.7l0,0c0.4-0.5,0.8-0.8,1.3-0.8s0.9,0.1,1.2,0.5C282.3,159.1,282.3,159.6,282.3,160.3z M281.6,160.3c0-0.4-0.1-0.8-0.3-1.1c-0.1-0.3-0.4-0.4-0.8-0.4c-0.4,0-0.7,0.1-0.9,0.4c-0.3,0.3-0.4,0.5-0.4,0.9v0.5c0,0.4,0.1,0.7,0.4,0.8c0.3,0.3,0.5,0.4,0.8,0.4c0.4,0,0.7-0.1,0.9-0.4C281.6,161.2,281.6,160.8,281.6,160.3z"/><path fill="#363636" d="M286.3,161.1c0,0.4-0.1,0.7-0.4,0.9s-0.5,0.4-0.9,0.4h-1.7v-4h0.7v1.6h1.1c0.4,0,0.8,0.1,0.9,0.4C286.3,160.5,286.3,160.7,286.3,161.1z M285.6,161.1c0-0.4-0.3-0.7-0.8-0.7h-0.9v1.3h0.9C285.6,161.9,285.6,161.6,285.6,161.1z M287.6,162.4h-0.7v-4h0.7V162.4z"/><path fill="#363636" d="M292.3,162.4h-0.4v-3.2c0,0.1-0.1,0.3-0.3,0.4l-1.9,2.7h-0.5v-4h0.5v3.1l0.3-0.4l1.9-2.7h0.7v4.1H292.3z M292.3,156.4c0,0.1,0,0.4-0.1,0.4c0,0.1-0.1,0.3-0.3,0.4c-0.1,0.1-0.3,0.1-0.4,0.3c-0.1,0-0.4,0.1-0.5,0.1s-0.4,0-0.5,0s-0.3-0.1-0.4-0.3s-0.3-0.3-0.3-0.4c0-0.1-0.1-0.3-0.1-0.5h0.7c0,0.1,0,0.1,0,0.3s0,0.1,0.1,0.3c0,0,0.1,0.1,0.3,0.1c0.1,0,0.3,0,0.4,0s0.3,0,0.3,0s0.1-0.1,0.3-0.1c0,0,0.1-0.1,0.1-0.3s0-0.1,0-0.3H292.3z"/><path fill="#363636" d="M299.1,162.4h-0.7v-3.5h-2v3.5h-0.7v-4h3.3V162.4L299.1,162.4z"/><path fill="#363636" d="M303.3,160.5h-2.8c0,0.4,0.1,0.8,0.4,1.1c0.3,0.3,0.5,0.4,0.9,0.4c0.4,0,0.8-0.1,1.2-0.4v0.5c-0.4,0.3-0.8,0.4-1.3,0.4s-1.1-0.1-1.3-0.5c-0.3-0.4-0.4-0.8-0.4-1.6c0-0.4,0-0.8,0.3-1.1c0.1-0.4,0.4-0.5,0.7-0.8s0.5-0.3,0.9-0.3c0.5,0,0.9,0.1,1.2,0.5c0.3,0.4,0.4,0.8,0.4,1.5L303.3,160.5L303.3,160.5z M302.7,160c0-0.4-0.1-0.7-0.3-0.8c-0.1-0.1-0.4-0.3-0.8-0.3c-0.3,0-0.5,0.1-0.8,0.4c-0.3,0.3-0.4,0.5-0.4,0.8L302.7,160L302.7,160z"/><path fill="#363636" d="M308,160.3c0,0.7-0.1,1.2-0.5,1.6c-0.4,0.4-0.8,0.7-1.3,0.7s-0.9-0.3-1.2-0.7l0,0v2.4h-0.7v-5.9h0.7v0.7l0,0c0.4-0.5,0.8-0.8,1.3-0.8s0.9,0.1,1.2,0.5C307.7,159.1,308,159.6,308,160.3z M307.3,160.3c0-0.4-0.1-0.8-0.3-1.1s-0.4-0.4-0.8-0.4c-0.4,0-0.7,0.1-0.9,0.4c-0.3,0.3-0.4,0.5-0.4,0.9v0.5c0,0.4,0.1,0.7,0.4,0.8c0.3,0.1,0.5,0.4,0.8,0.4c0.4,0,0.7-0.1,0.9-0.4S307.3,160.8,307.3,160.3z"/><path fill="#363636" d="M312.4,160.5h-3.1c0,0.4,0.1,0.8,0.4,1.1c0.3,0.3,0.5,0.4,0.9,0.4c0.4,0,0.8-0.1,1.2-0.4v0.5c-0.4,0.3-0.8,0.4-1.3,0.4s-1.1-0.1-1.3-0.5c-0.3-0.4-0.4-0.8-0.4-1.6c0-0.4,0-0.8,0.3-1.1c0.1-0.4,0.4-0.5,0.7-0.8c0.3-0.3,0.5-0.3,0.9-0.3c0.5,0,0.9,0.1,1.2,0.5s0.4,0.8,0.4,1.5L312.4,160.5L312.4,160.5z M311.7,160c0-0.4-0.1-0.7-0.3-0.8c-0.1-0.1-0.4-0.3-0.8-0.3c-0.3,0-0.5,0.1-0.8,0.4c-0.3,0.3-0.4,0.5-0.4,0.8L311.7,160L311.7,160z"/><path fill="#363636" d="M316,158.4l-1.3,2l1.3,2h-0.8l-0.8-1.3l-0.1-0.3l0,0l-0.9,1.6h-0.7l1.3-2l-1.3-2h0.8c0.5,0.9,0.8,1.6,0.9,1.6l0,0l1.1-1.6H316z"/><path fill="#363636" d="M320.5,160.4c0,0.7-0.1,1.2-0.5,1.6c-0.4,0.4-0.8,0.5-1.5,0.5c-0.5,0-1.1-0.1-1.5-0.5s-0.5-0.8-0.5-1.5c0-0.7,0.1-1.2,0.5-1.6s0.8-0.5,1.5-0.5c0.5,0,1.1,0.1,1.3,0.5C320.1,159.3,320.5,159.7,320.5,160.4z M319.7,160.4c0-0.5-0.1-0.9-0.4-1.2c-0.3-0.3-0.5-0.4-0.9-0.4s-0.8,0.1-0.9,0.4c-0.3,0.3-0.4,0.7-0.4,1.2c0,0.4,0.1,0.8,0.4,1.2c0.3,0.3,0.5,0.4,0.9,0.4c0.4,0,0.8-0.1,0.9-0.4C319.7,161.2,319.7,160.9,319.7,160.4z"/><path fill="#363636" d="M324.8,163.7h-0.7v-1.5h-2.9v1.5h-0.5v-2h0.4c0.7-0.9,1.1-2.1,1.1-3.5h2v3.5h0.5L324.8,163.7L324.8,163.7z M323.5,161.9v-2.9h-0.9c0,1.1-0.4,2-0.9,2.9H323.5z"/><path fill="#363636" d="M330.8,162.4h-0.9l-1.7-1.9l0,0v1.9h-0.7v-4h0.7v1.9l0,0l1.6-1.9h0.8l-1.9,2L330.8,162.4z"/><path fill="#363636" d="M336.1,162.3c-0.3,0.1-0.7,0.3-1.1,0.3c-0.4,0-0.7,0-0.9-0.3c-0.3-0.3-0.5-0.4-0.7-0.7s-0.3-0.7-0.3-1.1c0-0.7,0.1-1.2,0.5-1.6c0.4-0.4,0.8-0.7,1.5-0.7c0.4,0,0.7,0,0.9,0.3v0.7c-0.3-0.3-0.7-0.3-0.9-0.3c-0.4,0-0.8,0.1-1.1,0.4s-0.4,0.7-0.4,1.2c0,0.4,0.1,0.8,0.4,1.1c0.3,0.3,0.5,0.4,0.9,0.4c0.4,0,0.7-0.1,0.9-0.4L336.1,162.3L336.1,162.3z"/><path fill="#363636" d="M339.5,158.9h-1.2v3.5h-0.7v-3.5h-1.2v-0.5h3.1V158.9L339.5,158.9z"/><path fill="#363636" d="M344,160.3c0,0.7-0.1,1.2-0.5,1.6c-0.4,0.4-0.8,0.7-1.3,0.7s-0.9-0.3-1.2-0.7l0,0v2.4h-0.7v-5.9h0.7v0.7l0,0c0.4-0.5,0.8-0.8,1.3-0.8s0.9,0.1,1.2,0.5C344,159.1,344,159.6,344,160.3z M343.2,160.3c0-0.4-0.1-0.8-0.3-1.1c-0.1-0.3-0.4-0.4-0.8-0.4c-0.4,0-0.7,0.1-0.9,0.4c-0.3,0.3-0.4,0.5-0.4,0.9v0.5c0,0.4,0.1,0.7,0.4,0.8c0.3,0.3,0.5,0.4,0.8,0.4c0.4,0,0.7-0.1,0.9-0.4C343.2,161.2,343.2,160.8,343.2,160.3z"/><path fill="#363636" d="M348,162.4h-0.7v-0.7l0,0c-0.3,0.4-0.7,0.8-1.2,0.8c-0.4,0-0.7-0.1-0.9-0.4c-0.3-0.3-0.4-0.5-0.4-0.8c0-0.8,0.4-1.2,1.3-1.3l1.2-0.1c0-0.7-0.3-1.1-0.8-1.1c-0.4,0-0.9,0.1-1.3,0.5v-0.7c0.1-0.1,0.4-0.1,0.7-0.3c0.3,0,0.5-0.1,0.8-0.1c0.9,0,1.5,0.5,1.5,1.5L348,162.4L348,162.4z M347.3,160.4l-0.9,0.1c-0.4,0-0.5,0.1-0.7,0.3c-0.1,0.1-0.1,0.3-0.1,0.5c0,0.3,0,0.4,0.3,0.4c0.1,0.1,0.4,0.1,0.5,0.1c0.4,0,0.5-0.1,0.8-0.4c0.3-0.3,0.3-0.5,0.3-0.8L347.3,160.4L347.3,160.4z"/><path fill="#363636" d="M352.3,162.4h-0.7v-1.9h-2v1.9h-0.7v-4h0.7v1.6h2v-1.6h0.7V162.4z"/><path fill="#363636" d="M356.9,162.4h-0.7v-3.2c0,0.1-0.1,0.3-0.3,0.4l-1.9,2.7h-0.5v-4h0.5v3.1l0.3-0.4l1.9-2.7h0.7V162.4z"/><path fill="#363636" d="M362,163.7h-0.4v-1.5h-3.3v-4h0.7v3.5h2v-3.5h0.7v3.5h0.5v2H362z"/><path fill="#363636" d="M366,162.4h-0.7v-0.7l0,0c-0.3,0.4-0.7,0.8-1.2,0.8c-0.4,0-0.7-0.1-0.9-0.4c-0.3-0.3-0.4-0.5-0.4-0.8c0-0.8,0.4-1.2,1.3-1.3l1.2-0.1c0-0.7-0.3-1.1-0.8-1.1c-0.4,0-0.9,0.1-1.3,0.5v-0.7c0.1-0.1,0.4-0.1,0.7-0.3c0.3-0.1,0.5-0.1,0.8-0.1c0.9,0,1.5,0.5,1.5,1.5L366,162.4L366,162.4z M365.3,160.4l-0.9,0.1c-0.4,0-0.5,0.1-0.7,0.3c-0.1,0.1-0.1,0.3-0.1,0.5c0,0.3,0,0.4,0.3,0.4c0.1,0.1,0.4,0.1,0.5,0.1c0.4,0,0.5-0.1,0.8-0.4c0.3-0.3,0.3-0.5,0.3-0.8L365.3,160.4L365.3,160.4z"/><path fill="#363636" d="M371.5,162.4h-0.7v-3.3l-0.3,0.8l-1.1,2.5h-0.5l-1.1-2.5c0-0.1-0.1-0.4-0.3-0.8v3.3h-0.5v-4h0.8l1.1,2.7c0,0.1,0.1,0.4,0.3,0.8l0.3-0.8l1.1-2.7h0.8L371.5,162.4L371.5,162.4z"/><path fill="#363636" d="M373.5,162c0,0.1,0,0.3-0.1,0.3c0,0-0.1,0.1-0.3,0.1s-0.3,0-0.3-0.1c0,0-0.1-0.1-0.1-0.3s0-0.3,0.1-0.3c0-0.1,0.1-0.1,0.3-0.1s0.3,0,0.3,0.1C373.5,161.9,373.5,161.9,373.5,162z M375.5,162c0,0.1,0,0.3-0.1,0.3c0,0-0.1,0.1-0.3,0.1s-0.3,0-0.3-0.1c0,0-0.1-0.1-0.1-0.3s0-0.3,0.1-0.3c0-0.1,0.1-0.1,0.3-0.1s0.3,0,0.3,0.1C375.5,161.9,375.5,161.9,375.5,162z M377.5,162c0,0.1,0,0.3-0.1,0.3c0,0-0.1,0.1-0.3,0.1s-0.3,0-0.3-0.1c0,0-0.1-0.1-0.1-0.3s0-0.3,0.1-0.3c0-0.1,0.1-0.1,0.3-0.1s0.3,0,0.3,0.1S377.5,161.9,377.5,162z"/><path fill="#565656" d="M390.1,158.8l0.3-0.3l1.7,1.7l1.7-1.7l0.3,0.3l-2,2L390.1,158.8z"/><path fill="#848484" d="M246,157.2v-1.7h1.7v1.7H246z M246,159.5v-1.7h1.7v1.7H246z M246,161.7V160h1.7v1.7H246z M246,164v-1.7h1.7v1.7H246z M246.7,156v0.5h0.5V156H246.7z M246.7,158.4v0.5h0.5v-0.5H246.7z M246.7,160.7v0.5h0.5v-0.5H246.7z M246.7,162.9v0.5h0.5v-0.5H246.7z M248.9,156h6.3v0.5h-6.3V156z M248.9,158.9v-0.5h5.1v0.5H248.9z M253.1,160.7v0.5h-4v-0.5H253.1z M248.9,163.5v-0.5h5.1v0.5H248.9z"/><rect x="257.5" y="75.5" fill="#E3E3E3" width="27.5" height="27.3"/><path fill="#848484" d="M266.4,88.4c0.1,0,0.3,0,0.3,0c0.1,0,0.1,0.1,0.3,0.1c0,0,0.1,0.1,0.1,0.3s0,0.1,0,0.3s0,0.3,0,0.3s-0.1,0.1-0.1,0.3c0,0-0.1,0.1-0.3,0.1c-0.1,0-0.1,0-0.3,0c-0.1,0-0.3,0-0.3,0c-0.1,0-0.1-0.1-0.3-0.1c-0.1,0-0.1-0.1-0.1-0.3c0,0,0-0.1,0-0.3s0-0.3,0-0.3c0-0.1,0.1-0.1,0.1-0.3c0,0,0.1-0.1,0.3-0.1H266.4z M270.8,88.4c0.1,0,0.3,0,0.3,0c0.1,0,0.1,0.1,0.3,0.1s0.1,0.1,0.1,0.3s0,0.1,0,0.3s0,0.3,0,0.3c0,0.1-0.1,0.1-0.1,0.3c0,0-0.1,0.1-0.3,0.1c-0.1,0-0.1,0-0.3,0c-0.1,0-0.3,0-0.3,0c-0.1,0-0.1-0.1-0.3-0.1c0,0-0.1-0.1-0.1-0.3s0-0.1,0-0.3s0-0.3,0-0.3c0-0.1,0.1-0.1,0.1-0.3c0,0,0.1-0.1,0.3-0.1C270.8,88.4,270.8,88.4,270.8,88.4z M275.6,88.4c0.1,0,0.3,0,0.3,0c0.1,0,0.1,0.1,0.3,0.1c0,0,0.1,0.1,0.1,0.3s0,0.1,0,0.3s0,0.3,0,0.3c0,0.1-0.1,0.1-0.1,0.3c0,0-0.1,0.1-0.3,0.1s-0.1,0-0.3,0c-0.1,0-0.3,0-0.3,0c-0.1,0-0.1-0.1-0.3-0.1c0,0-0.1-0.1-0.1-0.3s0-0.1,0-0.3s0-0.3,0-0.3c0-0.1,0.1-0.1,0.1-0.3c0,0,0.1-0.1,0.3-0.1C275.6,88.4,275.6,88.4,275.6,88.4z"/><rect x="229.9" y="75.5" fill="#E3E3E3" width="27.5" height="27.3"/><path fill="#848484" d="M237.3,86.5v-0.8h12.3v0.8H237.3z M237.3,89.6v-0.8h12.3v0.8H237.3z M237.3,92.7v-0.8h12.3v0.8H237.3z"/></g></svg>