<svg version="1.1" xmlns="http://www.w3.org/2000/svg" x="0px" y="0px" width="640px" height="480px" viewBox="0 0 640 480" enable-background="new 0 0 640 480"><rect fill="#0177BF" width="640" height="480"/><path fill="#FFFFFF" d="M351.8,357h0.8l4.2,3.4c14.2,8.3,25,4.2,36.7-6.7c10.9-10,13.4-13.4,21.7-24.2c0.8-1.7,1.7-3.4,2.5-5l1.7-2.5c0.8-0.8,0.8-0.8,0.8-0.8c0.8-0.8,0.8-0.8,1.7-1.7c-3.4,11.7-25,42.6-43.4,47.6c-10.9,3.4-16.7-2.5-23.4-5.8c-5.8,1.7-6.7,3.4-14.2,3.4c-5,0-7.5,1.7-12.6,1.7c-15,0-24.2,0-39.3-4.2c-16.7-4.2-26.7-7.5-39.3-16.7c-37.6-25.9-61-69.4-56.8-114.5c0.8-12.6,5-37.6,12.6-44.2c3.4-2.5,5.8-3.4,8.3-5.8c9.2-9.2,30.9-22.6,42.6-28.4c5-3.4,15-5.8,22.6-5c1.7,9.2-0.8,15.8-3.4,23.4l-25.9,80.2c-1.7,5.8-4.2,13.4-5.8,20.1c-2.5,8.3-11.7,37.6-10.9,41.8l19.2-0.8c1.7-5.8,3.4-13.4,5-20.1c2.5-5,5-13.4,6.7-19.2l12.6-38.4c5.8-15,1.7-15.8,15.8-34.2c7.5-10,22.6-18.4,35.1-15c2.5,10.9-0.8,23.4-3.4,34.2c-3.4,10.9-28.4,88.6-27.6,93.6c2.5,0,17.5,0.8,19.2-0.8c0.8-0.8,20.1-62.6,22.6-69.4c1.7-6.7,3.4-12.6,5.8-17.5c1.7-4.2,4.2-7.5,6.7-10.9c10.9-15.8,36.7-14.2,36.7-11.7c0.8,4.2,0,5.8-1.7,10c-0.8,3.4-1.7,5.8-2.5,9.2l-30.9,94.4c-1.7,7.5-4.2,12.6-5,20.9C346.8,352,351.8,351.1,351.8,357z M371,347c-5-9.2,0-20.1,1.7-27.6l56.8-167.9c0.8-2.5,0.8-4.2,1.7-6.7c2.5-5,1.7-4.2,5-3.4c3.4,6.7-7.5,21.7-7.5,28.4c-0.8,4.2,4.2,9.2,5.8,12.6c6.7,14.2,10.9,31.8,12.6,46.8c0.8,12.6,0,25-2.5,36.7c-1.7,10-5.8,20.1-10,28.4c-8.3,15.8-3.4,8.3-15,23.4c-5,7.5-11.7,14.2-19.2,20.1c-5,4.2-5.8,5-12.6,6.7C381,347,378.6,348.6,371,347z M214,171.5c0.8-6.7,14.2-20.1,18.4-24.2c15-14.2,32.6-24.2,52.6-30.1c36.7-11.7,81.8-3.4,112.8,20.9c4.2,3.4,10,5.8,7.5,11.7c-0.8,5-3.4,10-4.2,15.8c-1.7,5-2.5,10.9-5,15c-5.8,0.8-8.3,0-13.4,1.7c-17.5,4.2-15,4.2-25.9,12.6c-1.7,1.7-1.7,1.7-4.2,1.7c-0.8-8.3,0-16.7-0.8-25c-0.8-10.9-20.1-14.2-32.6-6.7c-9.2,5-10.9,9.2-15.8,9.2c-0.8-15,3.4-34.2-2.5-41c0,0-1.7-0.8-1.7-1.7c-1.7-0.8,1.7,0.8-0.8-0.8c-13.4-3.4-37.6,6.7-48.5,14.2l-26.9,20.9C220.6,168.2,218.2,170.7,214,171.5z"/></svg>