<svg version="1.1" xmlns="http://www.w3.org/2000/svg" x="0px" y="0px" width="640px" height="480px" viewBox="0 0 640 480" enable-background="new 0 0 640 480"><rect fill="#D5D5D5" width="640" height="480"/><g><path fill="#0070BA" d="M342.6,222.1c3,3.6,0.8,12.9,2.5,17.6c1.9,5.5,4.7,9.1,6.3,15.2h-17.1c1.4-5.3,4.1-9.7,6.1-14.8C342.6,234.3,340.2,226.6,342.6,222.1L342.6,222.1z M234.9,230.9c10.5-0.8,5.8-1.9,14-17c1.6-2.8,4.6-7.4,5-9.6c1.9-7.5-2.5-10,5-10.8c2.8,3.8,0.8,7.5,2.7,12.2l9.7,19.1c2.7,6.4,1.6,5.3,9.1,5.5c-3.3,1.9-2.2,0-5.3,2l6.3,18.2c-5.3-5-6.6-13.2-11.5-19l-10.5-0.5c-0.6,4.9,0.3,6.4-1.6,9.9c-0.2-0.3-0.5-1.1-0.5-0.9l-1.4-8.5c-11.9-1.7-11-0.5-15.2,7.8c-2.2,4.2-7.2,11.6-7.7,15.2l7.1-22.4L234.9,230.9L234.9,230.9z M283.4,220.7c5.5,2.2,21,30.9,23.2,38.6c-1.4-1.1-0.9-0.5-2.2-1.9C300.7,253.3,280.3,224.3,283.4,220.7L283.4,220.7z M331.8,200c0,0-0.9-3.1,5.3-1.1c0.5,0.2,5,2.7,5.5,3c5-1.9,5-4.2,11.9-3c1.3,6.7-1.3,7.4-3,12.1c0.3,0.6,2.2,3.6,2.5,4.4c2.5,6.1-0.2,6-0.8,6.4c0,0,0.6,2.4-4.9,0.5c-1.7-0.6-3.8-2-5.8-2.8c-12.9,6.3-14.8,4.1-8.5-8.5c-0.9-2-1.9-3.3-2.5-5C328.3,197.6,331.8,200,331.8,200L331.8,200z M399.6,221.6c0,12.6-2,19.8,2.4,26.7c0.3,0.6,1.3,1.9,1.7,3c1.6,3.3,1.1-0.9,1.1,3.3l-48.3,0.3c-0.3-3.5,0.9-3.8,1.7-8l27.8-0.2l0.2-16.3c-17,0,9.7,4.9-24.2,4.7c-0.2-0.3-0.5-1.1-0.5-0.9c-0.2,0.3-3.5-4.4-3.8-7.8c1.3-0.8,0.6-0.8,3.1-1.3c1.4-0.3,2-0.3,3.5-0.5l21.5,0.2c0.9-6.1,0.9-4.6-2.4-7.7c-2.4-2.2-3.9-3.3-7.4-4.6c-2,4.6-2.2,3.9-5.7,7.5c-4.2-1.1-8.2-4.4-9.9-8.2c2-3.8,3.5-4.4,5.3-8.5c-6.1-5.5-15.5-10.5-11.9-14.4c4.4-4.7,5.5,1.1,9.1,2.7c6.7,2.7,1.7-3.9,8.5,0.9c0.6,0.5,8,6.7,8,6.7c5.8,7.1-3.9,1.9,3.3,8.6C387.9,212.5,395.3,216.7,399.6,221.6L399.6,221.6z M448.1,170.6c14,14.3,24,49.4,24.8,75.2c0.9,30.8-8,58.9-21.2,80c-63.4,101.5-208.9,90.4-262.3,0.6c-13.3-22.4-22.6-47.4-21.8-79.4c0.6-25.9,10.8-62,25-76.4c25.7,9.3,18.2,13.5,14.8,22.3c-3.8,9.7,3.1,8,0.9,15.2c-1.7,5.5-3.9,9.9-5.3,16.6c-11.1,48.8,10.4,95.3,49.1,121.6c17.4,11.8,41.7,20.2,67.8,20.4c54.5,0.5,92.4-32,109.6-67c15.2-31.1,14.4-58.2,3.5-90.7c-2.8-8.3,3.9-6,0.9-15.2C430.8,185.2,420.7,180,448.1,170.6L448.1,170.6z M275.6,182.5l31.4,0.2v61.7C302.4,238.9,279,191.5,275.6,182.5L275.6,182.5z M397,192.7c44.7,5.7,13.2-17.7,24.5-25.3c3.8-2.5,16.6-6.6,22.1-9.4c11.9-6.1,13.2-9.9,17.3-12.6c6.1,11.1,3.5,14.1-7.1,19.3c-6.6,3.3-15.7,7.2-21.8,10.8c-11.8,7.2,0.5,14.1-0.3,22.9c-0.5,5.2-3.8,6.6-8.5,8.5c-3.8,1.6-7.7,3.1-11.8,3.6L400,196.8c-0.5-0.6-1.3-1.3-1.7-1.9C397,192.9,398.6,194.9,397,192.7L397,192.7z M179.4,145.3c4.9,3.3,4.6,6,17.4,12.6c5.5,2.8,18.2,6.7,22.1,9.4c11.8,7.8-20.9,30.1,24.6,25.3c-1.4,2-0.2,0.3-1.7,2c-0.9,0.9-1.4,1.4-2.4,2.5c-1.6,1.7-2.5,2.7-4.1,4.4c-3.1,3.5-4.7,6.4-7.8,8.8c-41.3-10.5-0.2-23.9-20.2-35.2c-7.2-4.1-15.2-7.4-21.8-10.8C175.1,158.7,173.7,156.5,179.4,145.3L179.4,145.3z M415.3,134.5c-4.6,3.9-11.3,4.7-13.5,10.5c-2,5.3,4.9,17.3-5,10.7c-12.7-8.5-1.3-21,6.6-28.6C408,129.2,410.9,132.1,415.3,134.5L415.3,134.5z M225.3,134.5c4.1-2.4,6.9-5.2,11.9-7.4c10.5,11.3,17,17.3,9.1,26.2c-0.9,0.9-2.7,2.8-3.9,3.1c-9.3,2.8,1.3-6.6-5.7-14.3C234.1,139.2,229,137.6,225.3,134.5L225.3,134.5z M332.9,123.4l4.4,0.6l6.7-2c1.7,1.6,1.4-3,1.6,3c9.4,2.2,16,3.6,24,8.2c9.6,5.3,9.6,7.1,14.3,17.3c0.2-0.2,0.5-0.5,0.6-0.6c0.2-0.2,0.5-0.5,0.6-0.6l3.3-3.1c1.6,7.1,6.4,15.9,15.7,12.2c3.8-13.7-11.6-11,17.4-22.4c16.3-6.4,11.9-9.4,20.1-20.2c2.5,4.2,7.8,11.1,8.8,15.4c-10.5,15.5-37.4,20.7-39.7,25.4c-0.9,9.3,4.6,6.9,4.1,15.2c-5.2,5.5-12.4,5.8-21.5,3.3c-9.3-2.5-10-5.7-14.3-12.6c-3.1,3.9-4.2,9.1-5.8,11.1c-2,2.8-0.5,3-6.4,0.8c1.1-9.1,9.7-15.2-3.3-22.9c-5.8-3.5-17-7.4-25.4-7.4c-1.3,2.5-1.1,1.4,3.5,2.5c29.5,6.6,28.6,9.7,23.1,25.9c-5.7-0.8-12.2-3.6-18.4-5c-6.9-1.6-13.2-2.2-20.4-2.7l-0.2,97.9l103.1-0.2c0.9-25.6-10.2-37.2-14.3-49.3l15.4-6.3c6.4,22.6,11.6,34.1,7.4,60.7c-15.5,97.5-145.2,134-211.7,50.7c-9.9-12.4-18.5-30-21.7-49.6c-4.6-27.6,0.5-38.6,7.1-61.7l15.5,5.8c-6,16.3-14,19.6-14.6,50.4h104.2v-97.9L315,165c-16-0.9-25.7,5.2-38.9,7.4c-4.7-12.9-7.7-21.5,25.3-26.5l-1.9-1.9c-10.7,1.6-33,6.9-28.9,21.3c2.2,8,6.4,6.1-0.6,10.4c-5-2.5-3.6-7.5-8.3-13.2c-4.4,6.7-5.7,10.2-15.2,12.6c-9.6,2.4-16.2,1.9-20.7-4.1c0.6-8,5-5.8,4.2-14.4c-2.5-5.2-27.9-8.9-40.2-25.7l9.4-15.1c4.7,6.3,3.3,14.1,21,20.6c27.6,10.2,13.3,9.9,16.5,22.1c8.5,3.8,14.3-4.9,15.7-12.4c0.3,0.3,0.6,0.6,0.9,0.8l3.6,3.8c4.2-9.6,4.7-11.8,13.5-17c5.2-3,14.3-6.6,21.3-7.7c1.3-7.8,6.4-15.2,14-16.3c12.4-1.7,8.8,11.3,18,8.3c1.3-1.1,0.8-3.6,0-5.3l-7.5-11.9c-13.8-0.9-32.5,3.3-44.1,7.8c-21.8,8.5-20.6,14.6-28.6,22.3c-4.1-7.2-15.9-11.8-3.8-23.1c38.8-36.1,129.8-33.1,162.4,1.3c8.6,9.1-0.6,17.3-6,22c-4.6-11.5-16.2-18.8-28.7-23.4c-10.8-3.9-31.2-8.5-43.5-6.4C328.1,105.9,338.2,112.5,332.9,123.4L332.9,123.4z M474.6,267.9v-33.6c-1.1-2.8-3-19.9-8.8-35.3c-4.6-11.8-9.6-20.1-14.9-29.5c3.9-3.8,12.7-5.7,15.1-11.3c3.3-8.2-9.4-23.5-16.2-34.1c-2.5-3.9-7.4-12.1-10-14.8c-3,11.5-5.2,16.5-13.5,21.5c-7.1,4.2-9.4,4.6-21-6.1c5-10.5,3.3-13-4.4-19.6C375.1,82.7,347.8,84,339,80h-38.6c-9.9,4.6-35.9,3.3-61.7,25.7c-2.2,1.9-5.3,4.9-6.3,8.5c-1.6,7.2,1.6,5.7,2.5,11.6c-11.3,5.5-10.4,12.1-21.7,4.6c-8-5.3-9.9-9.9-12.6-21.2l-20.4,31.1c-15.7,24.6,0.5,19.5,9.4,29.2c-11.1,20.1-19.5,34.7-23.1,62.6c-3.5,26.7,0.9,53.4,10.5,75.2c16.6,38.1,48.3,69.2,90.6,83.8c80.8,28.1,169.2-12.6,198.2-89C469.2,292.7,472.1,273.6,474.6,267.9L474.6,267.9z"/><path fill="#FEFEFE" d="M317.6,388.3c-0.3-4.9-1.1-10.2,0.3-14.8c5.5-0.2,5.3,2.8,6.6,6.9l1.4-2.5c3.3-6.6,0.5-4.6,6.6-4.9v15.1c-3.9,0-1.7-0.3-4.4-0.3L317.6,388.3L317.6,388.3z M301.5,387.2c-1.6-3.8-0.5-12.4,1.4-15.1c3.9,1.3,1.9,2.4,4.6,5.7c1.6-3.5,1.3-4.2,6.1-4.4c1.6,3.9,0.2,11.8-1.1,15.1c-5.2-1.1-2,0-3.5-2.4c-0.2-0.3-0.5-1.4-0.6-1.7c0-0.2-0.3-0.5-0.3-0.8s-0.2-0.6-0.5-0.8C305.9,386.1,305.9,387,301.5,387.2L301.5,387.2z M283.3,369.2c2.4,14.4-10.4,16-13.5,8.9C266,369.9,274.3,361.8,283.3,369.2L283.3,369.2z M381.4,373.9l-0.9,2.5c-6.6-0.8-0.8-1.7-7.4-0.8c-2,4.6,0.5,2.5-3.6,4.4c-1.9-2.8-1.4-3.9-1.6-8.3c0-10.2,2.5-9.7,7.7-3.8C377.3,370.1,379.9,372.4,381.4,373.9L381.4,373.9z M346.4,371.3l2.5,12.2c-0.5,3,0.2,0.8-1.3,2.5c-3.5-1.4-1.9,0.9-3.3-5.2c-1.3-5.7,0.9-3.6-2.8-5.3c-4.4,5.7,3.6,8.3-2.4,11.9c-3.8-2.7-3.6-10.4-4.1-15.1L346.4,371.3L346.4,371.3z M283.4,384.1c1.9-8.2,3.3,2,5.8-14.1l9.9,2c0,4.6-0.5,12.6-4.9,14.8c-3.6-5,1.4-6.7-1.3-11.3C290.3,381.4,290.6,385.6,283.4,384.1L283.4,384.1z M364.2,382.2c-4.2-1.3-2.4-0.8-4.2-5.2c-0.8,1.4-1.4,3.8-1.7,4.2c-1.4,2.7-0.5,1.9-3.5,3.1c-2.8-3.1-5.3-11.3-4.1-15.1c3.3,0.6,1.4-0.2,3.5,1.7c0.3,0.3,0.8,1.4,0.9,1.6l0.9,1.7c1.6-4.7,0.3-5.7,4.7-7.4C363,369.3,366.9,378.3,364.2,382.2L364.2,382.2z M246.8,366.6c0.2-0.2,0.5-0.5,0.6-0.6c3.6-4.7,3-15.7,15.1-5.2c-0.8,3-2,5-3.3,7.4c-2.4,4.2-2.4,4.1-5,5.2c-1.7-2.8-0.9-3.8-0.5-6c-3.9,2-3.8,3.3-7.8,0.6L246.8,366.6L246.8,366.6z M381.4,373.9c1.4-8.9-0.9-6.9-2.5-14.6l8.6-3.5c2.4,3,3,5.7,5.5,7.8c2,1.7,1.7-0.5,3.3,2.8c2.7,5.2-0.5,3.9-0.6,4.1c-4.1,1.1,0.2-3.1-6.1,0.6c-5.7,3.5,0.8,1.9-4.6,5.7c-0.3-0.2-0.6-0.5-0.8-0.6L381.4,373.9L381.4,373.9z M232.6,359.6c0.9-3.1,17.9-18.8,13.2-0.2c-0.2,0.9-1.1,4.2-1.4,4.7c-1.4,2.8-0.6,1.4-2.2,2.4c-1.7-1.6-0.9-1.1-1.7-2.5C234.8,353.8,240.7,364.4,232.6,359.6L232.6,359.6z M401.4,361.3c-0.9,2.2-0.5,3-3,4.7c-2.8-2.8-5-11.9-3.9-15.4c3.5-1.4,8,2,11.3,5c2.2,1.9,1.6,0.8,2.4,3.8C402.2,362.2,403.3,356.8,401.4,361.3L401.4,361.3z M221.9,351.1c1.6-4.7,6-8.9,9.4-11.6c2.7,1.7,0.9,1.1,1.9,2.4c3.8,4.4,2.4,1.1,6.3,4.6c-1.4,1.6,1.3,0.8-3.6,2c-0.6,0.2-3.5,0.3-4.4,0.5c0.2,4.7,1.3,6.3-1.3,9.1c-3.8-2.5-2.4-0.9-2.8-7.2C223.8,353.1,225.7,353.3,221.9,351.1L221.9,351.1z M222.7,342.5c-2.8,9.6-16-1.1-8.2-9.1c7.2-7.4,17.7,2.2,10.7,8.3c-4.1-2.7-1.4-1.1-2.2-6.6c-4.7,0.3-5.7,0.8-6.6,5.2L222.7,342.5L222.7,342.5z M413.1,334.3c6.3-0.6,5.2,2.8,11.1,6.1c-1.7-8.9-5.5-3.8-6.4-11.1c5-0.3,8.2,3.5,12.4,9.9l-11,11.8c-3.8-1.6-4.4-2.8-7.1-5.3c-2.8-2.7-3.9-2.4-3.8-6.3c7.5-0.9,4.7,5.3,11.3,5.2C417.3,338.2,413.5,340.6,413.1,334.3L413.1,334.3z M431.1,324.7l9.3,0.2c-1.4,3.9-1.9,3.5-6.7,4.4c1.6,2.2,1.9,2.2,1.4,5.2c-5-0.6-11-5.3-13-8.6c2-2.4,1.3-2.2,4.4-1.4c-0.2-6-1.1-4.6,2.4-6.9C430.8,320.5,429.9,320.3,431.1,324.7L431.1,324.7z M200.2,326.5c0.8-3.5,3.1-4.2,6-6.6c5.7-4.4,3.8-1.7,8.9-3.5l4.7,6.6c-2.8,4.2-0.6,3-6,7.2c-10,8-8.2,3-8.5,2.8c-0.2-1.3-0.5-0.6,0.6-2.2l2.5-2.8C203.2,328,203.7,328.8,200.2,326.5L200.2,326.5z M431.3,316.1c-0.5-6,0.5-6.6,3-9.9C454.5,304,448.4,331.6,431.3,316.1L431.3,316.1z M191.6,312.3c0.8-4.4-1.6-0.9,2-3.8c2.8-2.2,8.6-4.7,11.5-4.1c1.1,4.9,0.3,1.9-3.8,5.8l8.2,1.4c-1.1,5.2-2.4,4.2-6.4,6.3c-5.5,2.8-10.7,3.6-5.7-2.4c0.2-0.2,0.6-0.3,0.8-0.8c0.2-0.5,0.6-0.5,0.8-0.5L191.6,312.3L191.6,312.3z M440.5,291.3c5.3,0.6,12.6,3,14.4,6.4c-3.5,4.2-0.5,1.6-11.9-1.4c3.5,5.5,10.5,4.6,7.5,12.1c-6.7-2.2,0-1.3-5.8-5c-2.4-1.6-4.1-1.7-7.1-3.5L440.5,291.3L440.5,291.3z M194.9,303.9c-8.2,6.4-13.8-9.9-3-12.7c8.5-2.2,14,8.6,5.8,12.2c-1.7-3-0.2-3.6-0.6-7.7c-5-0.5-5.2-1.1-7.2,3.5C193.3,304.2,191.8,298.2,194.9,303.9L194.9,303.9z M451.2,279.4l6.9,1.1c1.3,4.9,0.5,6-0.8,11c-4.7,0.5-11.9-0.9-14.8-4.6c2.8-4.1,0.2-1.7,5.7-2L451.2,279.4L451.2,279.4z M180.8,280.9c11-12.2,22.4,3.1,11.8,7.8c-1.9-3.1-0.2-4.2-0.3-8l-7.2,0.9c1.1,10,1.7-0.8,4.1,7.7C182.6,292.4,180.6,287.4,180.8,280.9L180.8,280.9z M181.7,261.2c10.2-5.2,16.3,8.5,7.4,12.7C179.5,278.4,172,266,181.7,261.2L181.7,261.2z M451.2,270.4c0.2-0.5,0.6-0.3,0.9-0.5l-2.7-2.7c-1.7-2.2-0.9,1.9-1.7-3.9c8.8,0.3,12.9,0.5,15.1,4.2c-2.5,3.1,0.6,0.9-3.3,1.7l-2.4,0.3c-0.2-0.3-0.5,0.2-0.8,0.3c1.1,3.6,0.3,0.8,3,3.3c2.4,2.2,0.9-0.6,2,2.8c-3,1.9-13.7,1.4-15.1-3.3C449.6,269.6,450.3,272.6,451.2,270.4L451.2,270.4z M453.4,255.8c0.2-0.5,0.6-0.3,0.9-0.5c-3-1.3-9.6-5.2-3.8-6.9c2.7-0.8,11,0,13.3,0.3c-1.3,7.2,0,1.7-6,5c3.3,1.9,5.8,2.2,5.3,7.1c-5.5,0.6-12.4,1.3-14.9-1.9c1.3-2.5-0.2-0.8,2.4-2L453.4,255.8L453.4,255.8z M180.8,251.6c-3.8-3.8-3.8,3.3-3.6-4.7c12.2-3.9,18.5-0.3,13.2,11l-6.3-0.2C182.6,256,182,252.8,180.8,251.6L180.8,251.6z M455.1,238.1c3.8-3.1,2.5-4.4,7.5-5.8c-0.2,5.7,0.8,3.5-2.5,6.1c6,6.9-0.8-4.2,2.8,3.1l0.3,2.4c-4.6,0.9-10.8,1.9-14.1,0.8c-1.4-3.6-1.9-2.2,2-4.4c-2.7-2.4-3.1-2.5-3.1-7.1L455.1,238.1L455.1,238.1z M191.9,233.1c1.4,4.2,0.6,7.7-0.2,11.5c-4.1-1.3-2.2,0.2-3.5-3.5c-0.6-1.7,0.9-0.2-0.6-3.5c-2.4,5.3,1.6,3.8-3.6,5.7c-2.8-4.2,0.3-2.7-2.2-6.7c-2.2,6.3,0.5,5.3-3.8,7.1c-1.9-3.5-1.1-7.7,0-11.5L191.9,233.1L191.9,233.1z M448.8,231.2c-7.4-9.9-0.9-16.3,10.2-13.3C464.4,227.1,461.1,232.4,448.8,231.2L448.8,231.2z M184.1,229c-9.9-2.5-5-15.7,5.8-12.2c7.1,2.2,7.7,15.1-3,13c1.4-6.7,0.8-0.5,4.1-5.8c-2.2-3.6-3.5-3.9-7.7-2.2C183.6,228.2,186.3,223.5,184.1,229L184.1,229z M441.9,207c3-3,7.2-5,12.4-4.9c1.6,2.5,3.1,5.5,3.8,10.2l-14.3,4.6C442.7,212.8,441.6,212,441.9,207L441.9,207z M183.9,212.2c-0.8-5.2-0.2-7.4,2.7-11.6c4.7,0.6,10,2.5,13.5,5.2c-0.8,4.2-1.9,6.7-4.4,9.4L183.9,212.2L183.9,212.2z M448.1,170.6c-27.2,9.6-17.1,14.8-14.4,23.1c3,9.3-3.8,6.9-0.9,15.2c11,32.5,11.8,59.5-3.5,90.7c-17.1,35-55.1,67.5-109.6,67c-26.1-0.2-50.4-8.6-67.8-20.4c-38.8-26.4-60.1-72.8-49.1-121.6c1.6-6.6,3.8-11.1,5.3-16.6c2.2-7.2-4.6-5.5-0.9-15.2c3.3-8.8,11-13-14.8-22.3c-14.1,14.3-24.3,50.5-25,76.4c-0.8,32,8.3,57,21.8,79.4c53.4,89.8,198.9,100.8,262.3-0.6c13.2-21.2,22.3-49.3,21.2-80C472.1,220,461.9,184.9,448.1,170.6L448.1,170.6z"/><path fill="#FEFEFE" d="M291.6,125.7c1.1,9.9,3.3,11.8,8,18l1.9,1.9c-33.1,5-30,13.7-25.3,26.5c13.2-2.2,22.9-8.3,38.9-7.4l1.1-1.1V158l-4.7-2.4c-3.5-1.7-0.3,1.3-3.3-2.2c3-3.3,5.8-2,11.6-2c4.9,0,9.3-0.3,13.3,0.6c-1.4,6.6-0.9,0.8-7.1,5.8l-0.2,6.3c7.4,0.5,13.7,1.3,20.4,2.7c6.1,1.4,12.7,4.2,18.4,5c5.7-16.2,6.4-19.3-23.1-25.9c-4.6-0.9-4.9,0-3.5-2.5c3.1-7.2,5.5-8.6,7.4-19c-0.2-6,0.3-1.4-1.6-3l-6.7,2l1.3,2.4c-5.7,3.3-9.7,10.8-17.4,12.1c1.9-4.6,3-4.7,6.1-7.8c2.8-2.8,3.5-4.4,6-7.4c5.5-10.8-4.7-17.4-8.9-22.6c12.2-2,32.6,2.5,43.5,6.4c12.7,4.6,24.3,11.9,28.7,23.4c5.3-4.7,14.6-12.9,6-22c-32.8-34.4-123.7-37.4-162.4-1.3c-12.1,11.3-0.3,15.9,3.8,23.1c7.8-7.7,6.7-13.8,28.6-22.3c11.6-4.6,30.3-8.6,44.1-7.8l7.5,11.9c0.8,1.7,1.3,4.2,0,5.3c-9.1,2.8-5.5-10-18-8.3C298,110.5,292.8,117.9,291.6,125.7L291.6,125.7z"/><path fill="#FEFEFE" d="M325.2,361.3l-0.2-88.4c7.2-1.7,88.8-0.6,103.1-0.6C423.7,325.5,367.7,363.8,325.2,361.3L325.2,361.3z M212.3,272.2h103.6v89.3C262.5,360,216.9,321.8,212.3,272.2L212.3,272.2z M428.6,262.3c-1.6,1.3-0.5,1.4-6,1.4l-19.5-0.2c-16.2,0-69.4,1.1-78-0.5c-3-8.3-0.5-81.9-1.1-97.9l-8-0.2v97.9H211.8c0.6-30.8,8.6-34.1,14.6-50.4l-15.5-5.8c-6.6,23.1-11.6,34.1-7.1,61.7c3.1,19.8,11.8,37.2,21.7,49.6c66.4,83.3,196,46.8,211.7-50.7c4.2-26.8-0.8-38.1-7.4-60.7l-15.4,6.3C418.6,225.1,429.5,236.7,428.6,262.3L428.6,262.3z"/><path fill="#0070BA" d="M339.8,317h-0.6c-2.5-0.2-1.9,0.5-1.4-2.4c-0.9-7.1-2.7-9.9-0.8-17.7c-0.3-5.2-0.5-1.7,1.1-3c1.6-4.2,2.5-6.1,5.7-8.2c-0.6-5.2-0.5-1.7,1.4-2.8l6.3-3.6c0.3-0.3,0.8-0.6,0.9-0.8l2-1.1c3.8-1.6,0-0.2,3.1-0.6l14.3,1.4l-6.1-3.5c0.3-0.2,0.6-0.2,0.8-0.3c10.2-1.7,26.8,11.9,26.1,30.4c-1.1,26.1-26.4,26.5-28.9,30.3c2.5,7.2,6.7-0.2,13.7,6.6H347c5-5.2,9.6-1.9,14.4-5.5c-3.1-7.5-9.3,1.9-24.2-16C340.2,314.8,339.9,323.6,339.8,317L339.8,317z M325.2,361.3c42.4,2.7,98.4-35.8,103-89c-14.4,0-95.9-1.1-103.1,0.6L325.2,361.3L325.2,361.3z"/><path fill="#0070BA" d="M234.8,307.5c2.7-5.7,8.5-11.9,12.4-17c3.5-4.4,7.8-11.5,12.1-15.2c13.2,4.2,24.3,6.7,27,16c11.9,0.5,19,14.3,25.4,25.7c-2.5,4.4-21,26.2-24.5,29.2c-4.2-2-8.8-7.1-12.1-11c-9.4-11.5-6.1-5.3-12.7-10.4c-3.1-2.4-1.9-3.3-6.3-6C248.9,314.7,241.2,314.1,234.8,307.5L234.8,307.5z M212.3,272.2c4.6,49.6,50.4,87.7,103.7,89.3v-89.3H212.3L212.3,272.2z"/><path fill="#FEFEFE" d="M272.7,324.1c-2.7-4.7-2.2-36.6-2-37.4c0.8-3.9-0.5-2.4,3-3.6C275.7,286.6,276,321.3,272.7,324.1L272.7,324.1z M234.8,307.5c6.4,6.4,14.3,7.1,21.3,11.5c4.4,2.7,3.1,3.6,6.3,6c6.6,5,3.1-1.3,12.7,10.4c3.1,3.9,7.7,8.9,12.1,11c3.6-3,22-24.8,24.5-29.2c-6.3-11.6-13.5-25.3-25.4-25.7c-2.7-9.3-13.8-11.8-27-16c-4.2,3.8-8.6,10.8-12.1,15.2C243.2,295.7,237.4,301.8,234.8,307.5L234.8,307.5z"/><path fill="#FEFEFE" d="M401.9,248.3c-4.2-7.1-2.2-14.1-2.4-26.7c-4.2-4.7-11.6-8.9-16.6-13.7c-7.2-6.6,2.5-1.6-3.3-8.6c0,0-7.5-6.3-8-6.7c-6.7-4.9-1.9,1.7-8.5-0.9c-3.6-1.4-4.7-7.4-9.1-2.7c-3.6,3.9,6,8.9,11.9,14.4c-1.9,4.1-3.3,4.7-5.3,8.5c1.9,3.9,5.8,7.1,9.9,8.2c3.5-3.5,3.6-3,5.7-7.5c3.5,1.1,5,2.4,7.4,4.6c3.3,3,3.3,1.4,2.4,7.7l-21.5-0.2c-1.6,0.2-2,0.2-3.5,0.5c-2.5,0.6-1.9,0.5-3.1,1.3c0.5,3.5,3.6,8.3,3.8,7.8c0.2-0.2,0.3,0.5,0.5,0.9c33.7,0.2,7.2-4.9,24.2-4.7l-0.2,16.3l-27.8,0.2c-0.8,4.2-2,4.6-1.7,8l48.3-0.3c0-4.2,0.5,0-1.1-3.3C403.2,250.2,402.2,248.9,401.9,248.3L401.9,248.3z"/><path fill="#FEFEFE" d="M261.8,162.3l-4.9-11.9l-3.6-3.8c-0.3-0.2-0.6-0.6-0.9-0.8c-1.6,7.5-7.2,16.2-15.7,12.4c-3.3-12.4,11.1-11.9-16.5-22.1c-17.6-6.6-16.2-14.3-21-20.6l-9.4,15.1c12.4,16.8,37.7,20.6,40.2,25.7c0.9,8.8-3.6,6.6-4.2,14.4c4.6,6,11.1,6.4,20.7,4.1C256.1,172.5,257.2,169,261.8,162.3L261.8,162.3z"/><path fill="#FEFEFE" d="M383.7,150.4l-4.7,11.8c4.2,6.9,5,9.9,14.3,12.6c9.1,2.5,16.3,2.2,21.5-3.3c0.5-8.3-4.9-6-4.1-15.2c2.4-4.6,29.2-9.9,39.7-25.4c-0.9-4.2-6.3-11.1-8.8-15.4c-8.2,10.8-3.8,14-20.1,20.2c-29,11.5-13.8,8.8-17.4,22.4c-9.3,3.5-14.3-5.2-15.7-12.2l-3.3,3.1c-0.2,0.2-0.5,0.5-0.6,0.6C384.2,149.7,383.9,150,383.7,150.4L383.7,150.4z"/><path fill="#D9251D" d="M397,192.7c1.6,2.2,0,0.2,1.6,2c0.5,0.6,1.1,1.3,1.7,1.9l11.5,13.8c4.1-0.5,7.8-2,11.8-3.6c4.7-1.9,8-3.3,8.5-8.5c0.8-8.8-11.5-15.7,0.3-22.9c6.1-3.8,15.2-7.5,21.8-10.8c10.4-5.2,13-8.2,7.1-19.3c-4.2,2.7-5.5,6.4-17.3,12.6c-5.5,2.8-18.5,6.9-22.1,9.4C410.2,175,441.8,198.2,397,192.7L397,192.7z"/><path fill="#D9251D" d="M241.8,194.6c1.6-1.7,0.2,0,1.7-2c-45.5,4.9-12.9-17.4-24.6-25.3c-3.9-2.7-16.6-6.6-22.1-9.4c-12.7-6.6-12.6-9.4-17.4-12.6c-5.8,11.1-4.4,13.3,6.1,19c6.6,3.5,14.4,6.6,21.8,10.8c20.1,11.5-21.2,24.6,20.2,35.2c3.1-2.4,4.7-5.3,7.8-8.8c1.6-1.7,2.4-2.7,4.1-4.4C240.6,196.2,241,195.7,241.8,194.6L241.8,194.6z"/><path fill="#D9251D" d="M338,143.8c8.3,0,19.6,3.9,25.4,7.4c13.2,7.7,4.4,13.8,3.3,22.9c6,2.2,4.4,1.9,6.4-0.8c1.6-2,2.5-7.2,5.8-11.1l4.7-11.8c-4.7-10.2-4.7-12.1-14.3-17.3c-8-4.4-14.6-5.8-24-8.2C343.5,135.3,341.2,136.5,338,143.8L338,143.8z"/><path fill="#FEFEFE" d="M287.7,190.1h11.8v22.1c-3.1-2.5-4.2-5.8-6.3-10C291.3,198.1,289.4,194.6,287.7,190.1L287.7,190.1z M275.6,182.5c3.3,8.9,26.7,56.3,31.4,61.7v-61.7H275.6L275.6,182.5z"/><path fill="#D9251D" d="M256.9,150.4l4.9,11.9c4.7,5.7,3.3,10.8,8.3,13.2c7.1-4.2,3-2.2,0.6-10.4c-4.1-14.4,18-19.8,28.9-21.3c-4.7-6.3-6.9-8.2-8-18c-7.1,1.1-16,4.6-21.3,7.7C261.4,138.6,261.1,140.8,256.9,150.4L256.9,150.4z"/><path fill="#FEFEFE" d="M344.9,324.3c-5.2-2.5-3.3-1.7,0.5-3.6L344.9,324.3L344.9,324.3z M371.5,278.3c2.4,0.5,4.2,0.8,5.8,1.9c3.1,2,2.2,2.5,2.7,3.3l2.4,0.6l0.2,1.9c1.6,0.9,0.6,0,2.2,1.4c0.3,0.2,1.6,1.7,1.7,1.9c1.7,2.8,0.9,1.6,1.1,5c3.8,4.9,2.8,14,0.2,20.6c-0.3,0.8-1.1,2.4-1.7,3.1c-1.6,1.9-0.6,0.8-2.5,2.2l3.6-8l-6.6-6.1l-3.6,2.7l-2.4,5l7.8,7.8c0.2-0.2,0.5,0.3,0.6,0.6l-3.6,0.3c-1.6-3.3-3.8-4.2-6.3-7.4l-4.6,2.2l-3.6,4.7l5.8,6.3l5.3-0.8c-7.2,5.5-25.7,5.5-31.1-3.3c6.3,2.2,10.2-0.6,15.9-3l-15.2-15.9c-3,5.5-3,8.8-5.8,11.5c0.2,6.6,0.6-2.2-2.7,3.6c14.9,17.9,21,8.5,24.2,16c-4.9,3.6-9.4,0.2-14.4,5.5h30.3c-6.9-6.7-11.3,0.6-13.7-6.6c2.5-3.8,27.8-4.2,28.9-30.3c0.8-18.7-15.9-32.2-26.1-30.4c-0.2,0-0.6,0.2-0.8,0.3L371.5,278.3L371.5,278.3z"/><path fill="#FEFEFE" d="M256.4,229.8l-10.2,0.3l10.2-20.7c4.6,1.1,1.3-3,7.2,8.8c2.2,4.4,4.2,7.2,5.7,12.1h-10c-0.2-4.6,0.6-5.5-1.3-8.8c-0.2,0.3-0.5,0.3-0.5,0.8C257.2,224,256.3,221.3,256.4,229.8L256.4,229.8z M240.3,232.4l-7.1,22.4c0.5-3.6,5.5-11,7.7-15.2c4.2-8.5,3.3-9.7,15.2-7.8l1.4,8.5c0-0.2,0.3,0.6,0.5,0.9c1.9-3.5,0.9-5,1.6-9.9l10.5,0.5c4.7,5.8,6.1,14,11.5,19l-6.3-18.2c3.1-2.2,2-0.2,5.3-2c-7.4-0.2-6.3,1.1-9.1-5.5l-9.7-19.1c-1.9-4.7,0.2-8.3-2.7-12.2c-7.5,0.8-3.3,3.3-5,10.8c-0.6,2.4-3.5,6.9-5,9.6c-8.2,15.1-3.6,16.2-14,17L240.3,232.4L240.3,232.4z"/><path fill="#0070BA" d="M362.4,322.2l6.3,6.7c-6.7,1.1-12.2,1.3-17.4-1.9L362.4,322.2L362.4,322.2z M368.3,317.2l-6.4,2.4c-3.6-4.7-6.4-3.6-5.2-10.2c-5.3,1.6-6.7-1.9-9.7-5.5c0.9-3,3.6-6.3,5.2-8.3c6,2.7,6.7,6.6,9.3,9.1c0.9,0.9,3.5,2.5,5.3,4.2c1.9,1.9,2.5,2.5,3.9,4.6c-0.2,0.2-1.3,1.7-1.6,2.2L368.3,317.2L368.3,317.2z M343.5,285.7l7.5,8.5c-2.2,3.1-3.3,4.6-5.8,7.4c-3.3-2-5.5-4.1-7.2-7.7c-1.4,1.3-1.3-2.2-1.1,3l7.1,6.9c-0.8,2.4-1.6,4.1-2.4,6.3c-1.4,3.6-0.5,5.3-3.9,4.6c-0.5,2.8-1.1,2.2,1.4,2.4h0.6c2.8-2.8,2.8-6,5.8-11.5l15.2,15.9c-5.7,2.4-9.6,5-15.9,3c5.2,8.8,23.7,8.8,31.1,3.3l-5.3,0.6l-5.8-6.3l3.6-4.7l4.6-2.2c2.7,3,4.7,3.9,6.3,7.4l3.6-0.3c-0.3-0.2-0.6-0.8-0.8-0.6l-7.8-7.8l2.4-5c-0.3,0.2-0.6,0.3-0.8,0.5c-0.2,0.2-0.6,0.3-0.8,0.5l-1.3,1.1c-2,1.6,0.2,0.3-1.9,1.4c-6.3-7.4-7.7-4.6-6.6-11.1c-5.2,1.4-7.4-2.5-10.5-6.7l3.8-4.9l-5.8,3c-3.1-2.7-6.3-4.6-7.7-9.4C342.9,283.9,342.7,280.5,343.5,285.7L343.5,285.7z"/><path fill="#0070BA" d="M316.1,163.9L315,165l1.1,0.3l8,0.2c0.6,16-1.9,89.6,1.1,97.9c8.6,1.6,61.8,0.5,78,0.5l19.5,0.2c5.7-0.2,4.4-0.2,6-1.4l-103.1,0.2l0.2-97.9l0.2-6.3c-0.2,0.3-0.3,0.8-0.5,0.9L316.1,163.9L316.1,163.9z"/><path fill="#FEFEFE" d="M415.3,134.5c-4.2-2.4-7.2-5.3-12.1-7.4c-7.8,7.5-19.5,20.1-6.6,28.6c10,6.6,3-5.3,5-10.7C404,139.2,410.7,138.4,415.3,134.5L415.3,134.5z"/><path fill="#FEFEFE" d="M225.3,134.5c3.6,3,8.8,4.6,11.5,7.7c6.9,7.7-3.6,17.1,5.7,14.3c1.4-0.5,3.1-2.2,3.9-3.1c7.8-8.8,1.4-14.9-9.1-26.2C232.2,129.5,229.4,132.1,225.3,134.5L225.3,134.5z"/><path fill="#FEFEFE" d="M353.4,221.6l-8.6-3.3c1.7-3.9,1.4-3.5,5.2-5.7C352.8,216.1,353.1,216,353.4,221.6L353.4,221.6z M335.7,212.4l5.3,5.3C331.9,223.3,330.2,221.3,335.7,212.4L335.7,212.4z M344.9,203.6c2.8-2.8,3.9-3.5,8.2-3.5c0,4.4-0.6,5.5-3.3,8L344.9,203.6L344.9,203.6z M331.8,200c5.5,0.5,5.5,0.6,8.9,3.5c-3.6,6.3-2.4,3.8-5.7,5.2L331.8,200L331.8,200z M353.4,221.6c0.6-0.5,3.3-0.3,0.8-6.4c-0.3-0.8-2.2-3.8-2.5-4.4c1.9-4.7,4.2-5.2,3-12.1c-7.1-1.1-7.1,1.3-11.9,3c-0.3-0.2-5-2.8-5.5-3c-6.4-2-5.3,1.1-5.3,1.1c-0.2,0.2-3.6-2.4-0.2,5.7c0.8,1.7,1.6,3,2.5,5c-6.3,12.6-4.6,14.8,8.5,8.5c2,0.9,4.1,2.4,5.8,2.8C353.9,223.8,353.4,221.6,353.4,221.6L353.4,221.6z"/><path fill="#FEFEFE" d="M368.3,317.2l0.8-1.6c0.3-0.5,1.4-1.9,1.6-2.2c-1.4-2.2-1.9-2.7-3.9-4.6c-1.9-1.9-4.4-3.3-5.3-4.2c-2.5-2.5-3.3-6.3-9.3-9.1c-1.6,2-4.2,5.3-5.2,8.3c3,3.6,4.4,7.1,9.7,5.5c-1.1,6.6,1.7,5.5,5.2,10.2L368.3,317.2L368.3,317.2z"/><path fill="#0070BA" d="M256.4,229.8c0-8.5,0.9-6,1.1-7.5c0-0.5,0.3-0.6,0.5-0.8c1.9,3.3,1.1,4.2,1.3,8.8h10c-1.4-4.9-3.5-7.7-5.7-12.1c-6.1-11.8-2.7-7.7-7.2-8.8l-10.2,20.7L256.4,229.8L256.4,229.8z"/><path fill="#FEFEFE" d="M358.3,289.3l-3.8,4.9c3.1,4.2,5.3,8,10.5,6.7c-1.1,6.6,0.3,3.8,6.6,11.1c2-1.1,0,0.2,1.9-1.4l1.3-1.1c0.2-0.2,0.6-0.3,0.8-0.5c0.2-0.2,0.5-0.3,0.8-0.5l1.6-4.4c-1.4-2.7-0.8-2.2-3.3-4.6c-3.9-3.6-3.3-0.6-11.3-11.5L358.3,289.3L358.3,289.3z"/><path fill="#FEFEFE" d="M342.6,222.1c-2.5,4.6-0.2,12.2-2.2,17.9c-1.9,5.2-4.7,9.4-6.1,14.8h17.1c-1.4-6.1-4.2-9.7-6.3-15.2C343.5,235,345.6,225.5,342.6,222.1L342.6,222.1z"/><path fill="#0070BA" d="M424.2,340.4c-6-3.3-4.9-6.7-11.1-6.1c0.3,6.3,4.2,3.9,6.6,10.2c-6.4,0.2-3.8-6.1-11.3-5.2c0,4.1,0.9,3.6,3.8,6.3c2.7,2.5,3.3,3.8,7.1,5.3l11-11.8c-4.2-6.6-7.4-10.4-12.4-9.9C418.7,336.7,422.5,331.5,424.2,340.4L424.2,340.4z"/><path fill="#FEFEFE" d="M366.8,284.6c-0.2,0.2-0.5,0.3-0.5,0.6l-1.6,2.8c5,3.3,3.3,5.8,9.1,4.4c-0.6,4.7-0.8,4.1,6,9.6c3.6-6.4,5.3-9.1,2.8-16l-3,0.5l0.3-3C372.9,280.9,373.8,283.8,366.8,284.6L366.8,284.6z"/><path fill="#0070BA" d="M317.6,388.3l10.5-0.5c2.5,0,0.5,0.3,4.4,0.3v-15.1c-6.1,0.3-3.3-1.7-6.6,4.9l-1.4,2.5c-1.3-4.1-1.1-7.1-6.6-6.9C316.5,378.1,317.2,383.4,317.6,388.3L317.6,388.3z"/><path fill="#0070BA" d="M387.5,294.3c0,6.3,2,8.5-0.2,15.7l-6.1-6.3l4.1-11.1C387,295.5,386.1,292.7,387.5,294.3L387.5,294.3z M351.2,279.2c6.7,1.4,5,2.7,9.6,6.3l-2.4,3.8l5-1.3c8,11,7.4,7.8,11.3,11.5c2.5,2.4,1.9,1.9,3.3,4.6l-1.6,4.4l3.6-2.7l6.6,6.1l-3.6,8c1.9-1.4,1.1-0.2,2.5-2.2c0.6-0.8,1.4-2.5,1.7-3.1c2.8-6.6,3.6-15.7-0.2-20.6c-0.2-3.5,0.6-2-1.1-5c-0.2-0.2-1.4-1.7-1.7-1.9c-1.6-1.4-0.6-0.5-2.2-1.4c2.5,6.9,0.8,9.6-2.8,16c-6.7-5.5-6.6-4.7-6-9.6c-5.7,1.4-4.1-1.1-9.1-4.4l1.6-2.8c0-0.3,0.3-0.5,0.5-0.6l-4.4,0.6l-6.3-5.7l1.1-2.7c-3,0.5,0.6-1.1-3.1,0.6l-2,1.1C351.8,278.7,351.5,279.1,351.2,279.2L351.2,279.2z"/><path fill="#0070BA" d="M384.6,361c2.5,1.9,4.6,3.8,2.8,6.7C385.4,365.4,385.4,364.8,384.6,361L384.6,361z M381.4,373.9l2.8,2.5c0.2,0.2,0.5,0.3,0.8,0.6c5.3-3.8-1.1-2.2,4.6-5.7c6.3-3.8,2,0.5,6.1-0.6c0-0.2,3.1,1.3,0.6-4.1c-1.6-3.3-1.3-0.9-3.3-2.8c-2.7-2.4-3.1-4.9-5.5-7.8l-8.6,3.5C380.4,367,382.8,364.9,381.4,373.9L381.4,373.9z"/><path fill="#0070BA" d="M214,322.1c-1.7,1.3-1.3,1.7-3.9-0.3C212,320.7,213.1,321.6,214,322.1L214,322.1z M200.2,326.5c3.5,2.2,3,1.4,8.5,1.4l-2.5,2.8c-0.9,1.6-0.8,0.9-0.6,2.2c0.3,0.2-1.6,5.2,8.5-2.8c5.3-4.1,3-3,6-7.2l-4.7-6.6c-5.3,1.7-3.3-0.9-8.9,3.5C203.4,322.2,201,323.2,200.2,326.5L200.2,326.5z"/><path fill="#0070BA" d="M193.8,209.4l-0.5,0.3C193.5,209.5,193.8,209.4,193.8,209.4L193.8,209.4z M189.4,207.6c-0.9,3.5,0.6,0-2.2,1.7l1.7-3.6C189.6,207,190.2,205.1,189.4,207.6L189.4,207.6z M183.9,212.2l11.6,3c2.5-2.7,3.6-5.2,4.4-9.4c-3.3-2.7-8.6-4.4-13.5-5.2C183.6,205,183.1,207,183.9,212.2L183.9,212.2z"/><path fill="#FEFEFE" d="M306.6,259.3c-2.2-7.7-17.6-36.4-23.2-38.6c-3.3,3.6,17.3,32.6,21,36.7C305.7,258.8,305.2,258.2,306.6,259.3L306.6,259.3z"/><path fill="#0070BA" d="M316.1,163.9l9.4-4.7c0.2-0.2,0.3-0.6,0.5-0.9c6.1-5,5.7,0.8,7.1-5.8c-4.1-0.9-8.5-0.6-13.3-0.6c-5.8,0-8.6-1.3-11.6,2c2.8,3.6-0.2,0.5,3.3,2.2l4.7,2.4V163.9L316.1,163.9z"/><path fill="#0070BA" d="M301.5,387.2c4.2-0.3,4.4-1.1,6.3-4.6c0.2,0.3,0.3,0.3,0.5,0.8c0,0.5,0.3,0.6,0.3,0.8c0.2,0.2,0.5,1.4,0.6,1.7c1.4,2.4-1.7,1.3,3.5,2.4c1.3-3.3,2.7-11.1,1.1-15.1c-4.9,0.2-4.6,0.9-6.1,4.4c-2.5-3.1-0.5-4.4-4.6-5.7C301.1,375,299.9,383.4,301.5,387.2L301.5,387.2z"/><path fill="#0070BA" d="M445.5,208.3c2.7,2,1.4,0.2,2.7,3.9C444.4,210.3,446.2,212.7,445.5,208.3L445.5,208.3z M452,206.2l1.6,3.9C450.7,208.4,450.1,209.2,452,206.2L452,206.2z M441.9,207c-0.2,5,0.8,5.8,1.9,10l14.3-4.6c-0.6-4.7-2.2-7.8-3.8-10.2C449.2,202,444.8,204,441.9,207L441.9,207z"/><path fill="#0070BA" d="M356.1,374.3l-0.9-1.7c-0.2-0.2-0.8-1.3-0.9-1.6c-2-1.9-0.2-0.9-3.5-1.7c-1.3,3.8,1.3,11.9,4.1,15.1c3-1.3,2-0.6,3.5-3.1c0.3-0.6,0.9-2.8,1.7-4.2c1.9,4.4,0,3.9,4.2,5.2c2.7-3.9-1.3-12.9-3.5-15.1C356.4,368.7,357.7,369.8,356.1,374.3L356.1,374.3z"/><path fill="#0070BA" d="M454.3,255.5c-0.3,0.2-0.8,0-0.9,0.5l-2.7,1.1c-2.5,1.4-1.1-0.3-2.4,2c2.5,3.3,9.4,2.5,14.9,1.9c0.5-4.9-2-5-5.3-7.1c6-3.3,4.7,2.2,6-5c-2.4-0.3-10.7-1.1-13.3-0.3C444.8,250.3,451.4,254.3,454.3,255.5L454.3,255.5z"/><path fill="#0070BA" d="M272.7,324.1c3.3-2.8,3-37.5,0.9-41c-3.5,1.3-2.4-0.3-3,3.6C270.4,287.5,270.1,319.4,272.7,324.1L272.7,324.1z"/><path fill="#0070BA" d="M191.6,312.3l7.4,2.2c-0.2,0-0.6,0-0.8,0.5c-0.2,0.5-0.6,0.6-0.8,0.8c-5,6,0.2,5.2,5.7,2.4c4.1-2,5.5-1.3,6.4-6.3l-8.2-1.4c4.1-3.9,4.7-0.9,3.8-5.8c-2.8-0.6-8.6,1.9-11.5,4.1C190.2,311.5,192.4,307.9,191.6,312.3L191.6,312.3z"/><path fill="#0070BA" d="M450.4,222.7c2.5-1.4-1.7-1.3,3.5-1.3c5.7,0,0.5-0.2,2.8,1.1C458.7,228.7,448.1,229.1,450.4,222.7L450.4,222.7z M448.8,231.2c12.1,1.3,15.4-3.9,10.2-13.3C447.9,214.9,441.5,221.3,448.8,231.2L448.8,231.2z"/><path fill="#0070BA" d="M274,377.5c-0.9-6.1-0.2-6.6,5-7.2C279.8,375.4,280,377.9,274,377.5L274,377.5z M283.3,369.2c-8.9-7.2-17.1,0.8-13.5,8.9C272.9,385.2,285.5,383.4,283.3,369.2L283.3,369.2z"/><path fill="#0070BA" d="M442.7,314.8c-3.5,3.3-7.4,2.8-6.7-3.6C440.2,309.4,441.5,311.4,442.7,314.8L442.7,314.8z M431.3,316.1c17.1,15.4,23.2-12.1,3-9.9C431.7,309.5,431,310.1,431.3,316.1L431.3,316.1z"/><path fill="#0070BA" d="M181.7,268.7c0.3-2.4-1.3-3,2.5-3.9c4.2-1.3,4.4,1.3,5,1.6C189.1,266.3,190,274.4,181.7,268.7L181.7,268.7z M181.7,261.2c-9.6,4.9-2.2,17.3,7.4,12.7C198,269.6,191.8,256,181.7,261.2L181.7,261.2z"/><path fill="#0070BA" d="M257.5,362.9c-4.9,2.5-2.5,0.5-3.9-2.4C257.8,362.1,255.2,359.7,257.5,362.9L257.5,362.9z M245.9,368.1c4.1,2.7,4.1,1.4,7.8-0.6c-0.5,2-1.3,3.1,0.5,6c2.7-1.1,2.7-0.9,5-5.2c1.4-2.4,2.5-4.4,3.3-7.4c-12.1-10.5-11.6,0.6-15.1,5.2c-0.2,0.2-0.5,0.5-0.6,0.6L245.9,368.1L245.9,368.1z"/><path fill="#0070BA" d="M287.7,190.1c1.7,4.6,3.6,8,5.5,12.1c2,4.2,3.1,7.5,6.3,10v-22.1L287.7,190.1L287.7,190.1z"/><path fill="#0070BA" d="M452.1,270c-0.3,0.2-0.8,0-0.9,0.5c-0.9,2.2-1.6-0.8-5,2.2c1.4,4.7,12.2,5.2,15.1,3.3c-0.9-3.3,0.5-0.5-2-2.8c-2.7-2.5-1.9,0.3-3-3.3c0.3-0.2,0.6-0.5,0.8-0.3l2.4-0.3c3.9-0.9,0.8,1.4,3.3-1.7c-2.2-3.8-6.3-3.9-15.1-4.2c0.8,5.8,0,1.9,1.7,3.9L452.1,270L452.1,270z"/><path fill="#0070BA" d="M177.9,243.6c4.2-1.7,1.6-0.8,3.8-7.1c2.5,4.1-0.6,2.4,2.2,6.7c5.2-1.9,1.3-0.2,3.6-5.7c1.4,3.1,0,1.6,0.6,3.5c1.4,3.8-0.6,2.4,3.5,3.5c0.8-3.8,1.6-7.2,0.2-11.5l-13.8-1.1C177,235.9,176.1,240.1,177.9,243.6L177.9,243.6z"/><path fill="#0070BA" d="M283.4,384.1c7.2,1.7,6.9-2.5,9.6-8.6c2.7,4.6-2.5,6.3,1.3,11.3c4.4-2.2,4.9-10.2,4.9-14.8l-9.9-2C286.7,385.9,285.3,375.9,283.4,384.1L283.4,384.1z"/><path fill="#0070BA" d="M437.7,300.1c2.8,1.7,4.7,1.9,7.1,3.5c5.8,3.8-0.9,2.8,5.8,5c3-7.5-4.2-6.6-7.5-12.1c11.5,3,8.5,5.7,11.9,1.4c-1.9-3.5-9.1-5.8-14.4-6.4L437.7,300.1L437.7,300.1z"/><path fill="#0070BA" d="M222.7,342.5l-6.3-2.2c0.9-4.4,1.7-4.9,6.6-5.2c0.8,5.5-2,3.9,2.2,6.6c7.1-6.1-3.5-15.7-10.7-8.3C206.7,341.4,219.8,352,222.7,342.5L222.7,342.5z"/><path fill="#0070BA" d="M184.1,229c2.2-5.5-0.5-0.8-0.9-7.2c4.2-1.7,5.5-1.4,7.7,2.2c-3.1,5.5-2.7-0.9-4.1,5.8c10.7,2,10.2-10.7,3-13C179,213.5,174.2,226.6,184.1,229L184.1,229z"/><path fill="#0070BA" d="M334.9,372.6c0.5,4.7,0.3,12.4,4.1,15.1c6-3.8-2-6.3,2.4-11.9c3.6,1.6,1.6-0.5,2.8,5.3c1.3,6.1-0.2,3.9,3.3,5.2c1.4-1.7,0.8,0.5,1.3-2.5l-2.5-12.2L334.9,372.6L334.9,372.6z"/><path fill="#0070BA" d="M221.9,351.1c3.8,2.2,1.9,2,5.7-0.3c0.3,6.1-0.9,4.6,2.8,7.2c2.5-3,1.4-4.6,1.3-9.1c0.9-0.2,3.9-0.3,4.4-0.5c4.7-1.1,2-0.3,3.6-2c-3.9-3.5-2.5-0.2-6.3-4.6c-0.9-1.1,0.8-0.5-1.9-2.4C227.7,342.3,223.5,346.5,221.9,351.1L221.9,351.1z"/><path fill="#0070BA" d="M186.1,253.9l0.3-3.3c2,2.2,0.8-1.4,0.9,2C187.8,256.5,188,252.4,186.1,253.9L186.1,253.9z M177,247c-0.2,7.8-0.2,0.9,3.6,4.7c1.3,1.3,1.9,4.2,3.1,6.1l6.3,0.2C195.7,246.7,189.4,243,177,247L177,247z"/><path fill="#0070BA" d="M194.9,303.9c-3.1-5.7-1.6,0.3-4.9-4.9c2-4.4,2.2-3.9,7.2-3.5c0.3,4.1-1.3,4.9,0.6,7.7c8.2-3.6,2.7-14.4-5.8-12.2C181.1,294,186.7,310.3,194.9,303.9L194.9,303.9z"/><path fill="#0070BA" d="M426.4,324.3c-3.3-0.6-2.4-0.8-4.4,1.4c2,3.5,8,8.2,13,8.6c0.5-3,0.2-3-1.4-5.2c4.9-0.8,5.3-0.5,6.7-4.4l-9.3-0.2c-1.3-4.4-0.2-4.2-2.4-7.4C425.1,319.6,426.2,318.1,426.4,324.3L426.4,324.3z"/><path fill="#0070BA" d="M455.1,238.1l-7.1-4.9c0,4.6,0.5,4.7,3.1,7.1c-3.9,2.2-3.5,0.8-2,4.4c3.3,1.1,9.6,0.3,14.1-0.8l-0.3-2.4c-3.6-7.4,3.1,3.8-2.8-3.1c3.5-2.7,2.5-0.6,2.5-6.1C457.6,233.7,458.9,234.8,455.1,238.1L455.1,238.1z"/><path fill="#0070BA" d="M180.8,280.9c-0.2,6.4,1.9,11.5,8.3,8.5c-2.4-8.5-3,2.4-4.1-7.7l7.2-0.9c0.2,3.9-1.6,5,0.3,8C203.2,284.1,191.8,268.7,180.8,280.9L180.8,280.9z"/><path fill="#FEFEFE" d="M344.9,282.8c1.4,4.9,4.4,6.7,7.7,9.4l5.8-3l2.4-3.8c-4.6-3.6-2.8-4.9-9.6-6.3L344.9,282.8L344.9,282.8z"/><path fill="#0070BA" d="M232.6,359.6c8.2,4.9,2.2-5.8,7.8,4.4c0.8,1.4,0,0.9,1.7,2.5c1.6-0.9,0.8,0.5,2.2-2.4c0.3-0.5,1.1-3.9,1.4-4.7C250.5,340.7,233.5,356.4,232.6,359.6L232.6,359.6z"/><path fill="#0070BA" d="M381.4,373.9c-1.4-1.4-4.1-3.8-6-6c-5.2-6-7.7-6.6-7.7,3.8c0,4.4-0.5,5.5,1.6,8.3c4.1-1.9,1.6,0.2,3.6-4.4c6.7-0.9,0.8,0,7.4,0.8L381.4,373.9L381.4,373.9z"/><path fill="#0070BA" d="M394.4,350.8c-1.3,3.5,1.1,12.6,3.9,15.4c2.5-1.9,2.2-2.7,3-4.7c1.9-4.6,0.8,0.9,6.7-1.7c-0.6-3-0.2-2-2.4-3.8C402.4,352.8,398,349.4,394.4,350.8L394.4,350.8z"/><path fill="#0070BA" d="M454.8,283.8c0.2,5.2,1.3,1.7-3.1,4.2C452.6,283.5,450.7,284.7,454.8,283.8L454.8,283.8z M448.4,284.9c-5.5,0.3-2.8-2-5.7,2c3,3.6,10,5,14.8,4.6c1.1-5,2-6.1,0.8-11l-6.9-1.1L448.4,284.9L448.4,284.9z"/><path fill="#FEFEFE" d="M337.9,294c1.7,3.8,3.9,5.7,7.2,7.7c2.7-2.8,3.8-4.4,5.8-7.4l-7.5-8.5C340.4,287.7,339.4,289.7,337.9,294L337.9,294z"/><path fill="#FEFEFE" d="M366.8,284.6c1.1-1.1-1.3-0.2,2.8-2.2c2-0.9,3-0.9,4.6-1.6c-5-2.5-0.5-0.3-2.5-2.4l-14.3-1.4l-1.1,2.7l6.3,5.7L366.8,284.6L366.8,284.6z"/><path fill="#D9251D" d="M337.1,124l-4.4-0.6c-2.5,3-3.1,4.6-6,7.4c-3,3.1-4.1,3.1-6.1,7.8c7.8-1.4,11.9-8.8,17.4-12.1L337.1,124L337.1,124z"/><path fill="#FEFEFE" d="M337.6,314.7c3.3,0.8,2.5-0.9,3.9-4.6c0.8-2.2,1.6-3.8,2.4-6.3l-7.1-6.9C335.1,304.8,336.8,307.6,337.6,314.7L337.6,314.7z"/><path fill="#FEFEFE" d="M387.5,294.3c-1.4-1.4-0.5,1.3-2.2-1.7l-4.1,11.1l6.1,6.3C389.5,302.8,387.5,300.6,387.5,294.3L387.5,294.3z"/><path fill="#FEFEFE" d="M351.4,327.1c5,3.3,10.7,3,17.4,1.9l-6.3-6.7L351.4,327.1L351.4,327.1z"/><path fill="#0070BA" d="M331.8,200l3.1,8.6c3.5-1.4,2.2,1.1,5.7-5.2C337.2,200.6,337.4,200.4,331.8,200L331.8,200z"/><path fill="#0070BA" d="M353.4,221.6c-0.3-5.7-0.5-5.5-3.5-8.9c-3.8,2.2-3.5,1.7-5.2,5.7L353.4,221.6L353.4,221.6z"/><path fill="#0070BA" d="M350,208.1c2.7-2.7,3.3-3.8,3.3-8c-4.2,0.2-5.3,0.6-8.2,3.5L350,208.1L350,208.1z"/><path fill="#0070BA" d="M335.7,212.4c-5.5,8.9-3.8,11,5.3,5.3L335.7,212.4L335.7,212.4z"/><path fill="#FEFEFE" d="M181.7,268.7c8.5,5.5,7.4-2.4,7.4-2.4c-0.5-0.3-0.6-2.8-5-1.6C180.5,265.9,182,266.3,181.7,268.7L181.7,268.7z"/><path fill="#FEFEFE" d="M274,377.5c6,0.6,5.8-2,5-7.2C273.7,370.7,272.9,371.3,274,377.5L274,377.5z"/><path fill="#FEFEFE" d="M450.4,222.7c-2.4,6.3,8.3,6,6.3-0.2c-2.4-1.3,3-1.1-2.8-1.1C448.7,221.6,452.9,221.3,450.4,222.7L450.4,222.7z"/><path fill="#FEFEFE" d="M436,311.1c-0.5,6.4,3.5,6.9,6.7,3.6C441.5,311.4,440.2,309.4,436,311.1L436,311.1z"/><path fill="#0070BA" d="M366.8,284.6c7.1-0.8,6.1-3.6,13.2-1.1c-0.5-0.8,0.5-1.3-2.7-3.3c-1.6-0.9-3.5-1.4-5.8-1.9c2,2-2.5-0.2,2.5,2.4c-1.6,0.6-2.5,0.6-4.6,1.6C365.3,284.4,367.9,283.3,366.8,284.6L366.8,284.6z"/><path fill="#FEFEFE" d="M387.5,367.7c1.7-3-0.3-4.9-2.8-6.7C385.4,364.8,385.4,365.4,387.5,367.7L387.5,367.7z"/><path fill="#0070BA" d="M451.7,288.2c4.4-2.7,3.3,0.9,3.1-4.2C450.7,284.7,452.6,283.5,451.7,288.2L451.7,288.2z"/><path fill="#FEFEFE" d="M257.5,362.9c-2.4-3.1,0.3-0.8-3.9-2.4C255,363.3,252.7,365.4,257.5,362.9L257.5,362.9z"/><path fill="#0070BA" d="M344.9,324.3l0.5-3.6C341.6,322.5,339.6,321.8,344.9,324.3L344.9,324.3z"/><polygon fill="#0070BA" points="382.5,286 382.3,284.1 379.9,283.5 379.5,286.4 "/><path fill="#0070BA" d="M448.2,212.2c-1.3-3.8,0-1.9-2.7-3.9C446.2,212.7,444.4,210.3,448.2,212.2L448.2,212.2z"/><path fill="#FEFEFE" d="M210.3,321.9c2.7,2,2,1.6,3.9,0.3C213.1,321.6,212,320.7,210.3,321.9L210.3,321.9z"/><path fill="#FEFEFE" d="M453.6,210.2l-1.6-3.9C450.1,209.2,450.7,208.4,453.6,210.2L453.6,210.2z"/><path fill="#FEFEFE" d="M187.2,209.4c2.8-1.6,1.3,1.9,2.2-1.7c0.6-2.5,0.2-0.6-0.6-2L187.2,209.4L187.2,209.4z"/><path fill="#FEFEFE" d="M186.1,253.9c1.9-1.7,1.7,2.5,1.4-1.4c-0.3-3.3,0.9,0.2-0.9-2L186.1,253.9L186.1,253.9z"/><path fill="#FEFEFE" d="M193.3,209.7l0.5-0.3C193.8,209.4,193.5,209.5,193.3,209.7L193.3,209.7z"/></g></svg>