<svg version="1.1" xmlns="http://www.w3.org/2000/svg" x="0px" y="0px" width="640px" height="480px" viewBox="0 0 640 480" enable-background="new 0 0 640 480"><rect fill="#C7002B" width="640" height="480"/><path fill="#FFFFFF" d="M445.4,301c-20.5,0.1-27.4-2.7-36.2-9.6c-8.8-6.8-12.9-17.8-13.6-31.7h28c1.3,14.3,9.2,20,22.6,19.8c10.3,0,19.8-2.5,18.6-12.9c-0.7-10.8-17.3-9-38.7-18.1c-15.1-4.5-29.4-16.3-28.1-34.9c1.9-25.2,24.6-34.5,46-34.6c25.4,0,44.9,12.4,45.3,38.5l-27.5-0.4c-0.1-15.4-17.2-15.4-19.3-15.4c-11.1-0.4-16.6,5.6-16.2,10.5c0.1,9,11.3,11.5,22.2,15c20.6,6.6,44.7,10.5,44.8,37.9c-0.2,10.9-3.3,19-12.5,26.4C473.6,296.8,461.5,300.9,445.4,301L445.4,301z M133,183.8h89.1v23.5H162v21.6h60.1v22.9H162v23.6h60.1v23.7H133V183.8z M233.6,183.8H263v90.5h54.3v24.8h-83.7L233.6,183.8L233.6,183.8z M295.7,183.8h96.1v23.5h-33.3v91.8h-29.3v-91.8h-33.4L295.7,183.8z M486.2,197.3v-11.4h-3.9v-2.3h10.5v2.3h-3.9v11.4H486.2z M494.3,197.3v-13.7h4l2.4,9.4l2.4-9.4h4v13.7h-2.5v-10.8l-2.6,10.8h-2.6l-2.6-10.8v10.8H494.3z"/></svg>
