<svg version="1.1" xmlns="http://www.w3.org/2000/svg" xmlns:xlink="http://www.w3.org/1999/xlink" x="0px" y="0px" viewBox="0 0 640 480" enable-background="new 0 0 640 480" xml:space="preserve"><rect fill="#2787F5" width="640" height="480"/><path fill="#FFFFFF" d="M245.1,177H222c-6.6,0-8,3.1-8,6.6c0,6.1,7.9,36.6,36.6,77c19.2,27.5,46.2,42.5,70.7,42.5c14.7,0,16.6-3.3,16.6-9v-20.8c0-6.6,1.4-8,6.1-8c3.4,0,9.3,1.7,23.1,15c15.7,15.7,18.3,22.8,27.2,22.8h23.2c6.6,0,9.9-3.3,8-9.9c-2.1-6.5-9.6-16-19.6-27.2c-5.4-6.4-13.5-13.3-16-16.7c-3.4-4.4-2.5-6.4,0-10.3c0,0,28.3-39.8,31.2-53.4c1.5-4.9,0-8.5-7-8.5h-23.2c-5.9,0-8.6,3.1-10.1,6.6c0,0-11.8,28.8-28.5,47.5c-5.4,5.4-7.9,7.1-10.8,7.1c-1.5,0-3.6-1.7-3.6-6.6v-46c0-5.9-1.7-8.5-6.6-8.5h-36.4c-3.7,0-5.9,2.7-5.9,5.3c0,5.6,8.4,6.9,9.2,22.6v34.2c0,7.5-1.4,8.9-4.3,8.9c-7.9,0-27-28.9-38.3-62C253.3,179.6,251.1,177,245.1,177z"/></svg>
