<svg version="1.1" xmlns="http://www.w3.org/2000/svg" x="0px" y="0px" width="640px" height="480px" viewBox="0 0 640 480" enable-background="new 0 0 640 480"><rect fill="#981E32" stroke="#000000" stroke-miterlimit="10" width="640" height="480"/><path fill="#FFFFFF" d="M344.2,234.3l-23,16.4l-23-16.4c-16.4-11.2-30.4-20.8-37.7-35.4c6.1,27.4,32.8,37.6,60.7,59.5c28-21.9,54.7-32.2,60.7-59.5C374.6,213.4,360.5,223.1,344.2,234.3z"/><path fill="#FFFFFF" d="M257.3,100.4v2.9c1.8,0.6,2.4,1.2,2.6,3.8v66.1c0,36.8,29.9,46.5,61.4,71.2c31.5-24.7,61.4-34.4,61.4-71.2v-66.9c0.2-2,0.9-2.5,2.5-3v-2.9C385,100.4,257.3,100.4,257.3,100.4z"/><g><g><g><path fill="#981E32" d="M333.6,208.1c0,0,5.1-2.2,7.9-10.6c2.5,5.2,1.8,10.5,1.8,10.5C341.1,208.5,333.6,208.1,333.6,208.1z"/><path fill="#981E32" d="M361,159.7c0,0,3.1,17-7.9,17.6c-10.6,0.6-15.7-15.5-15.7-15.5s2.6,31.4,17.5,29.3C371.7,188.8,361,159.7,361,159.7z"/></g></g><path fill="#981E32" d="M280,204.1C280.1,204.1,280.1,204.1,280,204.1c12.5-2.8,22-17.4,24.8-23.2l1.8-3.7l1.1,4c0.1,0.2,1.2,4.6,1.2,10.3c0,0.6,0,1.3,0,2c4.3,0.2,7.3-0.7,9.3-2.7c2.7-2.8,3.6-8.2,2.5-16.4c-0.5-3.9-1.9-10.2-3.2-15.7c-0.7-2.8-1.3-5.5-1.6-7.4c-2.4-12.1,0.6-19.5,3.5-23.7c0.5-0.7,1-1.3,1.5-1.9c-8.6,2.9-15.8,7.4-23.3,14.9l5.2,6.1l2.1-2c2,7.6,0.6,14.5,0.6,14.5c-2.8-4.2-6-7.6-6-7.6l1.4-2.4l-4.7-5.5l-0.6-0.6c-5.8,8-7.7,14.5-7.7,14.5l4.1,3.8l2.4,2.2l0.8-2.3c4.4,8.3,0.4,16.1,0.4,16.1c-0.7-2.8-3.6-7-3.6-7l1.1-3.8l-6.1-5.6c-6.4,20-14.9,26.4-14.9,26.4s9.2-1.7,14.3-3.4C286.4,184,286.3,194.5,280,204.1z"/><path fill="#981E32" d="M373,132.1l-14.7,0.6c0,1.7-0.2,3.5-0.8,5.2c1.4,6,0.4,9.3,0.4,9.3c-2.5-5.7-4.4-7.3-4.4-7.3c-13.5-6-21.1,7.6-20.3,16.4c0.7,7.2,3.3,16.8,5.3,31.8c1.7,12.6-4.7,18.1-12,19.4c-0.2,0-0.3,0.1-0.5,0.1c0,0-0.1,0-0.1,0c-1.2,0.2-2.5,0.2-3.8,0.2c0,0-0.1,0-0.1,0c-0.1,0-0.3,0-0.4,0c-0.6,0-1.1-0.1-1.7-0.2c-5.7-0.8-18.5-3.1-31.7-3.4c7.8-4.6,13.8-12.4,17.2-18c0.2,1.6,0.4,3.4,0.4,5.5c0,1,0,2.1-0.1,3.2l-0.1,1.5l1.5,0.1c6.1,0.5,10.4-0.6,13.2-3.5c3.5-3.6,4.5-9.6,3.4-18.9c-0.5-4.1-2-10.4-3.3-16c-0.7-2.8-1.3-5.4-1.6-7.3c-2.2-11,0.4-17.7,3-21.3c2-2.9,4.8-5,7.9-6c0.1,0,0.1,0,0.2,0l5-15.5h1.6l-3.4,14.9c0.8-0.1,1.6-0.3,2.4-0.4l4.3-13.7h1.6l-2.8,13.3c4.5-0.6,9.4-1,14.7-1.4c0.9,0.4,1.8,1.4,2.6,2.8l14.2-4.4l0.5,1.5l-13.5,5.3c0.1,0.3,0.2,0.6,0.3,0.9l14.8-1.8l0.2,1.6l-14.4,2.9c0.1,0.3,0.1,0.5,0.1,0.8l14.9,0.5L373,132.1z M330.4,138.7c3-2.1,8-3.7,12.7-3.3c1.2,0.1,2.2-0.2,0.9-0.9c-3.5-1.9-11.8-1.2-14.7,0.8c-4.7,3.2-3.9,8.9-3.8,9C326.5,142.6,328.1,140.3,330.4,138.7z"/></g><g><g><path fill="#FFFFFF" d="M382.3,352.4c-4.8-3.6-8.1-5.6-8.1-8.9c0-3.5,2.5-5,5.2-5c3.8,0,5.6,2.7,6,6h1.2v-6.2c0-0.2,0-0.4-0.3-0.5c-1.9-0.7-4.6-0.9-6.7-0.9c-5.5,0-10.2,3.4-10.2,7.7c0,2.3,0.6,4,1.6,5.2h0c0,0,0,0,0.1,0.1c1.2,1.5,2.7,2.5,4.1,3.5c7.1,4.7,8.8,7.2,8.8,10.3c0.1,6.9-12.7,10.5-21.2-2.7l-4.4-6.7c3.5-1.3,6.3-4.5,6.3-9.2c0-5.3-4.5-7.6-9.1-7.6h-13.1v1.2c4,0.5,3.9,0.3,3.9,4.4v20.2c0,4.2,0.2,4-3.9,4.4v1.2h12.1v-1.2c-4-0.5-3.9-0.3-3.9-4.4v-8.3h4.2c5.4,9,6.8,12.9,9.5,13.9c0.6,0.2,7.7,2.5,12.6,2.5c5.7,0,11.8-3.1,11.8-8.8C389,358.6,387.4,356.1,382.3,352.4z M354.5,354h-3.7v-14.6h3.5c3.3,0,6,1.7,6,6.6C360.2,351,358.4,354,354.5,354z"/><path fill="#FFFFFF" d="M264.2,368.8c0,0,0,0-22-26v19.9c0,0.9,0.2,1.7,0.3,2.4c0.2,1.6,1.8,2.3,4.7,2.5v1.2h-11.1v-1.2c2.2-0.2,3.7-0.9,3.9-2.5c0.1-0.7,0.3-1.5,0.3-2.4v-21.3c-1.3-1.6-2.7-3.1-5.2-3.1v-1.2h8.2c6.7,8.2,13.7,16.5,20.4,24.7h0.1v-18.6c0-0.9-0.2-1.7-0.3-2.4c-0.2-1.6-1.7-2.2-4.7-2.5v-1.2h11.1v1.2c-2.1,0.2-3.7,0.9-3.9,2.5c-0.1,0.7-0.3,1.5-0.3,2.4v25.5H264.2z"/><path fill="#FFFFFF" d="M281.9,363.1c0,4.2-0.2,4,3.9,4.5v1.2h-12.1v-1.2c4.1-0.5,3.9-0.3,3.9-4.5v-20.3c0-4.2,0.2-4-3.9-4.5v-1.2h12.1v1.2c-4.1,0.5-3.9,0.3-3.9,4.5C281.9,342.8,281.9,363.1,281.9,363.1z"/><path fill="#FFFFFF" d="M339.3,360.7c-2.1,4.8-1.8,6.7-8.3,6.7c-4.1,0-5.8-0.3-5.8-4.2V353h3.8c3,0,4.1,1.6,4.1,4.2h1.2v-9.6h-1.2c-0.1,2.8-1.3,3.9-4.1,3.9h-3.8v-12.9h7.2c3.2,0,4.2,2.5,4.6,5.8h1.2v-7.3h-20.8h-8.9v1.2c3.1,0,4.2,1.4,3.1,4.2c-2.8,6.9-5.6,13.8-8.4,20.8c-2.3-6.9-5-14.6-6.7-19.9c-1.5-4.3,0.3-5.1,2.8-5.1v-1.2h-11.5v1.2c2.2,0,2.8,1.4,4.4,6.2c2.7,7.7,5.8,16.4,8.6,24.2h2.3c3.8-9.3,7.6-18.5,11.4-27.7c0.9-2.3,1.6-2.7,2.9-2.7c4.1,0.5,3.5,0.3,3.5,4.5v20.3c0,4.2,0.6,4-3.5,4.5v1.2h21.8l1.4-8.1L339.3,360.7L339.3,360.7z"/><path fill="#FFFFFF" d="M399.8,363.1c0,4.2-0.2,4,3.9,4.5v1.2h-12.1v-1.2c4.1-0.5,3.9-0.3,3.9-4.5v-20.3c0-4.2,0.2-4-3.9-4.5v-1.2h12.1v1.2c-4.1,0.5-3.9,0.3-3.9,4.5V363.1z"/><path fill="#FFFFFF" d="M445.9,337.2v1.2c2.7,0,4.1,1.3,2.6,4.1l-6.2,11.3l-5.5-11.3c-1.1-2.3-1.4-4.1,2-4.1v-1.2h-7.6h-3.1h-21l-1.2,6.9h1.1c1.5-3,2.4-5.5,6.3-5.5h3.7v24.5c0,4.2,0.2,4-3.9,4.5v1.2h12.1v-1.2c-4.1-0.5-3.9-0.3-3.9-4.5v-24.5h3.7c3.7,0,6.2,2.2,7.7,5l6.4,12.6v6.9c0,4.2,0.2,4-3.9,4.5v1.2h12.1v-1.2c-4.1-0.5-3.9-0.3-3.9-4.5v-5.1c0-1.1,0.1-2.4,0.5-3.3l7.5-13.7c1.2-2.2,2.4-2.7,3.7-2.7v-1.2L445.9,337.2L445.9,337.2z"/><path fill="#FFFFFF" d="M235.1,337.2l-14.2,0v1.2c2.8,0.3,4.9,1.6,5.2,3.7c0.1,1,0.4,2,0.4,3.3v16.9c0,9.7-4.4,15.3-12.7,15.3c-9,0-11.8-6.5-11.8-15v-17.8c0-5.6,0.2-5.7,5.6-6.4v-1.2h-16.3v1.2c5.5,0.7,5.2,0.8,5.2,6.4v18.1c0,11,4,17.6,16.9,17.6c7.8,0,16.2-4.9,16.2-17.9v-17.1c0-0.1,0-0.2,0-0.3c-0.1-5.3,2-6,5.4-6.6L235.1,337.2z"/></g><g><path fill="#FFFFFF" d="M204.6,314.6c0,4.2-0.2,4,3.9,4.4v1.2h-12.1V319c4-0.5,3.9-0.3,3.9-4.4v-20.2c0-4.2-1.9-3.9-6-4.4v-1.2h14.2v1.2c-4,0.5-3.9,0.3-3.9,4.4v7.8h15.8v-7.8c0-4.2,0.2-3.9-3.9-4.4v-1.2h12.1v1.2c-4,0.5-3.9,0.3-3.9,4.4v20.2c0,4.2-0.2,4,3.9,4.4v1.2h-12.1V319c4-0.5,3.9-0.3,3.9-4.4V304h-15.8V314.6z"/><path fill="#FFFFFF" d="M241.7,314.6c0,4.2-0.2,4,3.9,4.4v1.2h-12.1V319c4-0.5,3.9-0.3,3.9-4.4v-20.2c0-4.2,0.2-3.9-3.9-4.4v-1.2h12.1v1.2c-4,0.5-3.9,0.3-3.9,4.4V314.6z"/><path fill="#FFFFFF" d="M279.1,320.2c-7.1-8.4-14.6-17.3-21.9-25.9v19.9c0,0.9,0.2,1.7,0.3,2.4c0.2,1.6,1.7,2.2,4.7,2.5v1.2h-11V319c2.2-0.2,3.6-0.9,3.9-2.5c0.1-0.7,0.3-1.5,0.3-2.4v-21.2c-1.3-1.6-2.7-3.1-5.2-3.1v-1.2h8.2c6.7,8.1,13.7,16.4,20.4,24.5h0.1v-18.5c0-0.9-0.2-1.7-0.3-2.4c-0.2-1.6-1.8-2.2-4.7-2.5v-1.2h11v1.2c-2.1,0.2-3.6,0.8-3.9,2.5c-0.1,0.7-0.3,1.5-0.3,2.4v25.4L279.1,320.2L279.1,320.2z"/><path fill="#FFFFFF" d="M285.7,304.3c0-6.9,5.8-16.1,18-16.1c4.4,0,6.4,0.8,8.6,1.5c1.3,0.4,1.8,1,1.8,1.7v5.8h-1.2c-0.1-3.6-2.4-7.5-9.6-7.5c-9.4,0-12.5,6.5-12.5,14.1c0,7.1,3.5,15.2,12.7,15.2c5.6,0,6.1-2.1,6.1-5.6v-2.7c0-4.2,0.2-4-4.8-4.4v-1.2h13v1.2c-4,0.5-3.9,0.3-3.9,4.4v7.8c-2.9,1.1-6.7,2.1-10.7,2.1C294,320.7,285.7,316.3,285.7,304.3z"/><path fill="#FFFFFF" d="M333.3,314.6c0,4.2-0.2,4,3.9,4.4v1.2H325V319c4-0.5,3.9-0.3,3.9-4.4v-24.4h-3.6c-3.9,0-4.8,2.5-6.3,5.4h-1.1l1.2-6.9h24l1.2,6.9h-1.1c-1.5-3-2.4-5.4-6.3-5.4h-3.6L333.3,314.6L333.3,314.6z"/><path fill="#FFFFFF" d="M344.3,305c0-9.7,7.5-16.9,16.9-16.9c9.7,0,15.4,8.4,15.4,15.3c0,9.5-7.1,17.2-17,17.2C351,320.7,344.3,313.8,344.3,305z M371.5,304.9c0-10.7-5.8-15.1-11.3-15.1c-7.6,0-10.8,6.8-10.8,12.9c0,10.9,5.6,16.5,11.4,16.5C369.2,319.1,371.5,310.9,371.5,304.9z"/><path fill="#FFFFFF" d="M405.6,320.2c-7.2-8.4-14.6-17.3-21.9-25.9v19.9c0,0.9,0.2,1.7,0.3,2.4c0.2,1.6,1.7,2.2,4.7,2.5v1.2h-11V319c2.2-0.2,3.6-0.9,3.9-2.5c0.1-0.7,0.3-1.5,0.3-2.4v-21.2c-1.3-1.6-2.6-3.1-5.2-3.1v-1.2h8.2c6.7,8.1,13.7,16.4,20.4,24.5h0.1v-18.5c0-0.9-0.2-1.7-0.3-2.4c-0.2-1.6-1.7-2.2-4.7-2.5v-1.2h11v1.2c-2.1,0.2-3.6,0.8-3.9,2.5c-0.1,0.7-0.3,1.5-0.3,2.4v25.4L405.6,320.2L405.6,320.2z"/><path fill="#FFFFFF" d="M154,282.7L154,282.7l-12.2,0v1.5c4.7,0.1,5.5,1.7,4.2,5.3l-9.2,25h-0.5l-10.8-31.3h-2.7l-11.4,31.3h-0.8l-8.2-24.9c-1.2-3.9,0.5-5.4,4.1-5.4v-1.5H92.2v1.5c3.1,0,3.6,2.4,5.6,8l10.5,31h2.8l11.2-31.6l11,31.6h3.1c4.7-12.6,11.4-31.2,13.8-36.2c0.9-1.9,2.6-2.8,4.1-2.8v-1.5L154,282.7L154,282.7z"/><path fill="#FFFFFF" d="M186.3,303.3c-4.7-3.5-8-5.5-8-8.8c0-3.5,2.5-4.9,5.2-4.9c3.8,0,5.6,2.7,6,6h1.2v-6.2c0-0.2,0-0.4-0.3-0.5c-1.9-0.7-4.6-0.9-6.6-0.9c-5.4,0-10.2,3.4-10.2,7.6c0,2.3,0.6,3.9,1.6,5.2h0c0,0,0,0,0.1,0c1.1,1.5,2.7,2.5,4.1,3.4c7.1,4.7,8.7,7.2,8.7,10.3c0,2.9-2.1,5.7-6.1,6c-4,0.3-9.3-1.7-11.4-7.3c-1.9-5.4-5.9-16.9-8.6-24.8h-2.6c-3.7,9.9-8.8,24.5-10.7,28.4c-0.7,1.5-2,2.2-3.2,2.2v1.2h1.9h6.2V319c-2,0-2.8-1.5-2.2-3.2l2.1-6h11.5l1.9,5.8l1.5,4.5c0,0,8,2.1,13.3,2.1c5.7,0,11.4-3.1,11.4-8.7C192.9,309.4,191.3,307,186.3,303.3z M154,308l5.3-14.6h0.1l4.8,14.6H154z"/></g><g><path fill="#FFFFFF" d="M442.3,290.8c-0.5-4.2-2.8-7.6-7.6-7.6c-3.5,0-7.1,1.8-7.1,6.3c0,4.2,4.2,6.8,10.3,11.3c6.4,4.8,8.5,7.9,8.5,12.9c0,7.2-7,11.2-14.2,11.2c-3.9,0-7.2-0.7-10.3-1.9c-0.2-0.1-0.4-0.4-0.4-0.8v-8.7h1.6c0.7,6.7,5.1,9.4,9.7,9.4c4.3,0,8.2-3.3,8.2-7.7c0-3.9-2.1-7.1-11.2-13.1c-3.3-2.2-7.3-4.5-7.3-11.1c0-5.5,5.6-9.7,12.6-9.7c2.6,0,6,0.3,8.5,1.2c0.4,0.1,0.4,0.4,0.4,0.7v7.9L442.3,290.8L442.3,290.8z"/><path fill="#FFFFFF" d="M461.7,314.6c0,4.2-0.2,3.9,3.9,4.5v1.2h-12.1v-1.2c4-0.5,3.9-0.3,3.9-4.5v-24.4h-3.6c-3.9,0-4.8,2.5-6.3,5.4h-1.1l1.2-6.9h24l1.2,6.9h-1.1c-1.5-3-2.4-5.4-6.3-5.4h-3.6V314.6z"/><path fill="#FFFFFF" d="M477.3,309.8l-2.1,6c-0.6,1.8,0.3,3.2,2.2,3.2v1.2h-8.2v-1.2c1.2,0,2.5-0.8,3.2-2.3c1.9-4,7.2-18.7,10.9-28.6h2.5c3.1,9,7.6,22.9,9.2,26.9c1,2.5,1.7,4,3.6,4v1.2h-10.5v-1.2c2.8,0,3.1-1.5,2.4-3.5l-1.9-5.8H477.3z M488.2,308.1l-4.8-14.6h-0.1l-5.4,14.6H488.2z"/><path fill="#FFFFFF" d="M511.1,314.6c0,4.2-0.2,3.9,3.9,4.5v1.2h-12.1v-1.2c4-0.5,3.9-0.3,3.9-4.5v-24.4h-3.6c-3.9,0-4.8,2.5-6.3,5.4h-1.1l1.2-6.9h24l1.2,6.9H521c-1.5-3-2.4-5.4-6.3-5.4h-3.6L511.1,314.6L511.1,314.6z"/><path fill="#FFFFFF" d="M524.3,319.1c4.1-0.5,3.5-0.3,3.5-4.5v-20.2c0-4.2,0.6-4-3.5-4.4v-1.2H544v7.2h-1.2c-0.4-3.3-1.3-5.8-4.6-5.8h-6.1v12.9h3.8c2.8,0,4-1.1,4.1-3.9h1.2v9.6H540c-0.1-2.7-1.1-4.2-4.1-4.2h-3.8v10.2c0,3.8,1.8,4.2,5.8,4.2c6.5,0,6.2-1.9,8.3-6.7h1.2l-1.4,8.1h-21.7L524.3,319.1L524.3,319.1z"/></g></g></svg>
