<svg version="1.1" xmlns="http://www.w3.org/2000/svg" x="0px" y="0px" width="640px" height="480px" viewBox="0 0 640 480" enable-background="new 0 0 640 480"><defs></defs><rect fill="#192F5D" width="640" height="480"/><path fill="#FFFFFF" d="M160,231.4v-19.9c0.1-0.9,0.4-1.9,0.4-2.8c0.5-6.9,1.6-13.6,3.5-20.2c4.3-15.1,11.7-28.5,21.7-40.6c4-4.8,8.5-9.2,12.9-13.6c10.3-10.4,21.9-18.9,34.8-25.7c13.3-7.1,27.3-12.1,41.9-15.4c10.6-2.4,21.4-3.8,32.3-4.1c6.4-0.2,12.7-0.2,19.1-0.2c6.9,0,13.7,0.4,20.6,1.2c8.4,1,16.7,2.5,24.9,4.7c17.5,4.7,33.9,11.9,48.9,22c12.7,8.6,23.6,19.2,33.6,30.8s17.3,24.9,21.7,39.7c2,6.8,3.4,13.7,3.7,20.9c0,0.3,0.1,0.6,0.2,0.9v24.7c-0.1,0.4-0.2,0.8-0.2,1.2c0,0.7,0,1.5-0.1,2.3c-0.6,6-1.7,11.9-3.4,17.7c-4.4,15.1-11.9,28.6-22,40.6c-4.2,5-8.8,9.5-13.4,14.1c-4.8,4.8-10,9.3-15.6,13.3c-15.1,11.1-31.8,19-49.8,24.2c-9.2,2.7-18.5,4.6-28.1,5.6c-4.8,0.5-9.6,1-14.4,1.1c-8.3,0.2-16.7,0.1-25,0.1c-1.7,0-3.3-0.1-5-0.2c-0.8-0.1-1.4,0.1-2,0.7c-15.8,15.3-34.5,25.3-55.7,30.8c-11,2.8-22.2,4.3-33.4,5.2c-8.8,0.6-17.6,0.8-26.4,0.7c-0.6,0-1.1-0.2-1.6-0.6c-1.6-1.6-3.2-3.2-4.8-4.8c-0.4-0.4-0.6-0.8-0.6-1.3c0-6,0-12,0-18c0-0.6,0.2-1,0.6-1.4c1.6-1.6,3.1-3.1,4.7-4.7c0.5-0.4,1-0.8,1.5-1.1c3.9-2,7.8-4.3,11.3-6.9c2.3-1.7,4.7-3.3,6.6-5.4c4.9-5.3,8.6-11.4,10.6-18.4c0.5-1.7,0.8-3.4,1.2-5c-0.5-0.4-0.9-0.7-1.2-0.9c-2.7-2.2-5.5-4.4-8.2-6.6c-5-4.3-9.6-9.1-14.2-13.8c-5.1-5.2-9.6-10.8-13.6-16.9c-10.3-15.5-16.5-32.4-17.7-51C160.3,233.1,160.1,232.3,160,231.4L160,231.4z M313.9,341.7V101.1c-10.3,0.4-20.3,1.5-30.2,3.6c-0.1,0.2-0.1,0.3-0.1,0.3v0.1c0,0.1,0,0.2,0,0.2v105.8v0.1v0.1v0.1c0,0,0,0.1-0.1,0.1c0,0-0.1,0-0.2,0.2H172.6c-0.1,1.9-0.3,3.7-0.4,5.5c-0.3,6.7,0.1,13.4,1.2,20c1.6,10.2,4.8,19.9,9.4,29.1c0.5,0.9,1,1.3,2.1,1.3c12.8,0,25.7,0,38.5,0h58.5c0.5,0,1.1,0,1.7,0.1V352c0.2,0,0.3,0,0.4,0c0.4-0.2,0.7-0.5,1.1-0.8c3.9-3.1,7.7-6.3,11.2-9.9c0.6-0.6,1.2-0.8,2-0.7c0.5,0.1,1.1,0.2,1.6,0.2c3.3,0.3,6.6,0.6,9.9,0.8C311.1,341.8,312.5,341.7,313.9,341.7L313.9,341.7z M449.8,189.4c0-0.1,0.1-0.2,0.1-0.3h4.9c0.7-1.6,1-3.3,1.8-5c0.6,1.8,1.1,3.4,1.6,4.9c1.5,0.2,3.6,0.2,4.4-0.1c-0.6-3.3-7-17-8.7-18.7c-0.5,0.3-1,0.7-1.5,1c0-0.8,0.2-1.4,0.4-2s0.1-1-0.2-1.6c-1.4-2-2.7-4.1-4.1-6.1c-0.9-1.4-2-2.7-3.1-4.2c0,0.4-0.1,0.6-0.1,0.9c-1.4-1-2.8-2-4.2-3c-1.4,1-2.7,2-4.1,2.9c-0.1-0.1-0.1-0.1-0.2-0.2c0.5-1.6,1-3.2,1.5-4.8c-1.3-1.1-2.7-1.9-3.9-3.1c1.5-0.2,3-0.1,4.5-0.2c-1.5-2.2-9-9.4-10.3-9.9c0.3,1.8,1.1,3.3,1.5,5.3c-1.6-1.1-3-2.1-4.4-3.1c-0.7,0.5-1.4,1-2.1,1.5c-0.7,0.5-1.4,0.9-2,1.4c-0.1-0.1-0.1-0.1-0.2-0.2c0.5-1.6,1-3.1,1.5-4.8c-0.7-0.5-1.4-1-2-1.5c-0.7-0.5-1.4-0.9-2.1-1.8h5c0.6-0.7,0.3-1.1-0.2-1.4c-3.2-2.3-6.4-4.7-9.6-7c-0.1-0.1-0.2-0.1-0.5-0.2c0.4,1.3,0.8,2.5,1.1,3.6c-0.1,0-0.1,0.1-0.2,0.1c-1.4-1-2.7-1.9-4.1-2.9c-1.4,1-2.7,2-4.1,2.9c-0.1-0.5,0-0.9,0.1-1.2c0.3-1,0.6-2,1-3c0.2-0.5,0.1-0.9-0.4-1.2c-1-0.7-1.9-1.4-2.9-2.1c-0.2-0.1-0.3-0.3-0.6-0.6c1,0,1.8-0.1,2.6-0.1c-0.3-0.4-0.6-0.6-0.9-0.8c-3.5-1.8-6.9-3.6-10.4-5.5c-0.8-0.4-1.4-0.4-2,0.2c-0.6,0.5-1.2,0.9-1.8,1.3c0-0.1-0.1-0.1-0.2-0.2c0.3-0.9,0.5-1.8,0.8-2.7c-3.9-2.4-24.1-9.4-26.7-9.2c0.4,1.1,0.7,2.2,1,3.3c0.1,0.5,0.5,0.6,0.9,0.6c1.1,0,2.1,0,3.2,0c0.4,0,0.7,0,1.1,0.1l0.1,0.2c-1.3,1-2.6,2-4,3c0.5,1.6,1,3.2,1.5,4.8c-0.1,0-0.1,0.1-0.2,0.1c-1.4-1-2.7-1.9-4.1-2.9c-0.7,0.5-1.4,1-2.1,1.5c-0.7,0.5-1.3,1-2.3,1.5c0.6-1.9,1.1-3.4,1.6-5.1c-0.7-0.5-1.4-1-2-1.5c-0.7-0.5-1.4-0.9-2-1.5c0-0.1,0.1-0.2,0.1-0.2h5c0.4-1.2,0.8-2.4,1.1-3.5c0.1-0.2,0.1-0.5,0.1-0.7c-4.5-2.2-33.4-6.2-37.7-5.2c-0.2,1.5-0.2,128.4,0.1,129.2c1.2,0.2,140.4,0.2,141.4-0.1c1.2-13.8-0.4-27.4-4.8-40.8c-1.3,0.9-2.5,1.8-3.6,2.6c0.4,1.7,1.1,3.2,1.4,4.8l-0.2,0.1c-1.3-1-2.7-1.9-4-2.9c-1.5,0.9-2.7,2.1-4.2,2.8c0.3-1.3,0.7-2.5,1.1-3.7c0.4-1.2,0.4-1.2-0.6-1.9C451.8,190.8,450.8,190.1,449.8,189.4L449.8,189.4z M264.8,294.5c-13.2,6.6-26.1,13.1-39.2,19.6c0.3,0.2,0.4,0.4,0.6,0.5c0.7,0.4,1,0.9,1,1.7c0,0.9,0.2,1.8,0.3,2.7c0.5,5.5,0.1,10.8-1.6,16.1c-2.3,6.9-6.1,12.8-10.9,18.2c-6.6,7.3-14.4,12.9-23.1,17.4c-0.4,0.2-0.8,0.4-1.3,0.7c0,2.6,0,5.1,0,7.6c0.4,0,0.6,0.1,0.7,0c4.1-0.2,8.3-0.3,12.4-0.6c8.8-0.5,17.5-1.5,26.1-3.1c10.1-1.9,19.9-4.8,29.4-8.9c1.8-0.8,3.7-1.7,5.5-2.5L264.8,294.5L264.8,294.5z M199.1,152c21.9,11,43.7,21.9,65.6,32.9v-75.2C239.3,118.2,217.1,131.7,199.1,152L199.1,152z M326.4,267.9h128.8c0.2,0,0.5,0,0.7,0c0.7,0.1,1.1-0.2,1.4-0.8c2.7-5.4,4.9-10.9,6.7-16.7c0.1-0.3,0.1-0.6,0.1-0.9c-0.2-0.1-0.3-0.1-0.5-0.1c-45.5,0-90.9,0-136.4,0c-0.2,0-0.4,0-0.6,0.1c0,0-0.1,0-0.1,0.1c0,0-0.1,0-0.2,0.1L326.4,267.9L326.4,267.9z M326.5,305.2h44.9c18,0,36,0,54,0c0.7,0,1.3-0.1,1.9-0.6c6-5.2,11.5-10.8,16.5-17c0.2-0.2,0.3-0.5,0.5-0.8c-2-0.2-117.1-0.1-117.9,0.1C326.3,287.9,326.2,303.9,326.5,305.2L326.5,305.2z M326.4,341.8c0.6,0,1,0,1.4,0c4.1-0.3,8.2-0.5,12.3-0.9c7.1-0.7,14.1-1.9,21.1-3.6c12.1-2.8,23.8-7,35.1-12.4c0.4-0.2,0.8-0.4,1.4-0.7c-4.3-0.3-70.2-0.2-71.3,0.1C326.4,330,326.4,335.9,326.4,341.8L326.4,341.8z M217.1,307.8c14.1-7,28.1-14.1,42.1-21.1c-0.2-0.2-0.4-0.2-0.6-0.2c-13.2,0-26.4,0-39.6,0c-0.6,0-1.2,0.2-1.7,0.4c-4.6,2.3-9.3,4.6-13.9,6.9c-0.3,0.2-0.6,0.3-0.9,0.5C203.9,296.6,213.8,305.7,217.1,307.8L217.1,307.8z M176.4,192.8h41.1c0-0.1,0-0.1,0.1-0.2c-11.4-5.7-22.7-11.4-34.2-17.1C180.4,181.1,178.2,186.7,176.4,192.8L176.4,192.8z"/><path fill="#BB3F47" d="M313.9,341.7c-1.4,0-2.8,0.1-4.2,0c-3.3-0.2-6.6-0.5-9.9-0.8c-0.5,0-1.1-0.1-1.6-0.2c-0.8-0.2-1.4,0.1-2,0.7c-3.5,3.5-7.3,6.8-11.2,9.9c-0.3,0.3-0.7,0.5-1.1,0.8c0,0-0.1,0-0.4,0v-84.4c-0.7,0-1.2-0.1-1.7-0.1h-58.5c-12.8,0-25.7,0-38.5,0c-1.1,0-1.6-0.3-2.1-1.3c-4.5-9.3-7.7-19-9.4-29.1c-1.1-6.6-1.4-13.3-1.2-20c0.1-1.8,0.3-3.6,0.4-5.5h110.6c0.2-0.1,0.2-0.2,0.2-0.2s0-0.1,0.1-0.1v-0.1v-0.1v-0.1V211v-0.2v-0.3V105.4v-0.1c0-0.1,0-0.2,0-0.2V105c0,0,0-0.1,0.1-0.3c9.8-2.1,19.9-3.2,30.2-3.6C313.9,181.3,313.9,261.5,313.9,341.7L313.9,341.7z"/><path fill="#1A305C" d="M449.8,189.4l3,2.2c1,0.7,1,0.7,0.6,1.9s-0.8,2.4-1.1,3.7c1.5-0.8,2.7-1.9,4.2-2.8c1.3,1,2.7,1.9,4,2.9l0.2-0.1c-0.3-1.6-1-3.1-1.4-4.8c1.2-0.8,2.3-1.7,3.6-2.6c4.4,13.4,6.1,26.9,4.8,40.8c-1,0.3-140.2,0.3-141.4,0.1c-0.2-0.8-0.3-127.7-0.1-129.2c4.3-0.9,33.2,3.1,37.7,5.2c0,0.2-0.1,0.5-0.1,0.7c-0.4,1.1-0.7,2.2-1.1,3.5h-5c0,0.1-0.1,0.2-0.1,0.2c0.5,0.6,1.3,1,2,1.5s1.3,1,2,1.5c-0.5,1.6-1,3.2-1.6,5.1c1-0.5,1.6-1.1,2.3-1.5c0.7-0.5,1.3-1,2.1-1.5c1.4,1,2.8,2,4.1,2.9c0.1,0,0.1-0.1,0.2-0.1c-0.5-1.6-1-3.2-1.5-4.8c1.4-1,2.7-2,4-3l-0.1-0.2c-0.4,0-0.7-0.1-1.1-0.1c-1.1,0-2.1,0-3.2,0c-0.4,0-0.8-0.1-0.9-0.6c-0.3-1.1-0.7-2.2-1-3.3c2.7-0.1,22.8,6.9,26.7,9.2c-0.3,0.9-0.5,1.8-0.8,2.7c0,0.1,0.1,0.1,0.2,0.2c0.6-0.4,1.3-0.8,1.8-1.3c0.7-0.6,1.2-0.6,2-0.2c3.4,1.8,6.9,3.6,10.4,5.5c0.3,0.2,0.6,0.4,0.9,0.8c-0.8,0-1.6,0.1-2.6,0.1c0.3,0.3,0.4,0.5,0.6,0.6c0.9,0.7,1.9,1.4,2.9,2.1c0.5,0.3,0.6,0.7,0.4,1.2c-0.4,1-0.7,2-1,3c-0.1,0.4-0.2,0.7-0.1,1.2c1.3-1,2.7-1.9,4.1-2.9c1.4,1,2.8,2,4.1,2.9c0.1,0,0.1-0.1,0.2-0.1c-0.4-1.2-0.7-2.3-1.1-3.6c0.3,0.1,0.4,0.1,0.5,0.2c3.2,2.3,6.4,4.7,9.6,7c0.5,0.3,0.8,0.7,0.2,1.4h-5c0.7,0.9,1.4,1.2,2.1,1.8c0.7,0.5,1.3,1,2,1.5c-0.5,1.6-1,3.2-1.5,4.8c0.1,0.1,0.1,0.1,0.2,0.2c0.7-0.5,1.4-0.9,2-1.4c0.7-0.5,1.3-1,2.1-1.5c1.4,1,2.8,2,4.4,3.1c-0.4-2-1.2-3.5-1.5-5.3c1.4,0.5,8.8,7.8,10.3,9.9c-1.5,0.2-3,0-4.5,0.2c1.2,1.2,2.6,2,3.9,3.1c-0.5,1.6-1,3.2-1.5,4.8c0.1,0.1,0.1,0.1,0.2,0.2c1.4-1,2.7-1.9,4.1-2.9c1.4,1,2.7,2,4.2,3c0-0.3,0.1-0.5,0.1-0.9c1.1,1.5,2.1,2.8,3.1,4.2c1.4,2,2.7,4.1,4.1,6.1c0.3,0.5,0.4,1,0.2,1.6s-0.4,1.2-0.4,2c0.5-0.3,1-0.7,1.5-1c1.7,1.7,8.1,15.4,8.7,18.7c-0.8,0.3-2.9,0.3-4.4,0.1c-0.5-1.5-1-3.1-1.6-4.9c-0.8,1.7-1.1,3.4-1.8,5H450C449.9,189.1,449.8,189.2,449.8,189.4L449.8,189.4z M395.2,142.1c1.4,1,2.8,2,4.1,2.9l0.2-0.1c-0.5-1.6-1-3.2-1.5-4.8c1.4-1,2.7-2,4-3l-0.1-0.2c-1.7,0-3.3,0-5-0.1c-0.6-1.7-1.1-3.2-1.7-5c-0.2,0.4-0.3,0.7-0.4,0.9c-0.3,0.9-0.6,1.9-0.9,2.8c-0.4,1.2-0.1,1.3-1.8,1.3c-1,0-2,0-3,0c-0.2,0-0.5,0.1-0.9,0.2c1.5,1.1,2.8,2.1,4.2,3.1c-0.5,1.7-1,3.3-1.5,4.9c0.1,0,0.1,0.1,0.2,0.1C392.5,144,393.8,143.1,395.2,142.1L395.2,142.1z M380,118.8h-0.2c-0.5,1.6-1.1,3.2-1.6,4.8c-0.9,0-1.7,0-2.5,0s-1.7-0.2-2.6,0.2c1.4,1.1,2.7,2,4.1,3c-0.4,1.7-1.1,3.2-1.5,5.1c1.5-1.1,2.9-2.1,4.3-3.1c1.4,1,2.8,2,4.1,2.9c0.1,0,0.1-0.1,0.2-0.1c-0.5-1.6-1-3.2-1.5-4.9c0.7-0.5,1.4-1,2-1.5c0.7-0.5,1.4-0.9,2-1.5c0-0.1-0.1-0.2-0.1-0.3h-5C381,122,380.5,120.4,380,118.8L380,118.8z M329.5,118.7c0.1,0.1,0.1,0.1,0.2,0.2c1.4-1,2.7-2,4.1-2.9c1.4,1,2.8,2,4.1,2.9c0.1-0.1,0.1-0.1,0.2-0.2c-0.5-1.6-1-3.2-1.5-4.8c1.4-1,2.7-2,4.1-3c0-0.1,0-0.2-0.1-0.2c-1.7,0-3.4-0.1-5.1-0.1c-0.3-0.9-0.6-1.7-0.8-2.5c-0.3-0.8-0.5-1.5-0.8-2.3c-0.1,0-0.1,0-0.2,0c-0.5,1.6-1.1,3.2-1.6,4.9h-5c0,0.1-0.1,0.2-0.1,0.2c1.3,1,2.7,2,4,3C330.5,115.5,330,117.1,329.5,118.7L329.5,118.7z M364.6,132h-0.2c-0.5,1.6-1.1,3.1-1.6,4.8h-2.6h-2.4c0,0.1,0,0.2-0.1,0.2l4,3c-0.5,1.7-1,3.2-1.5,4.8c0.1,0,0.1,0.1,0.2,0.2c1.4-1,2.7-1.9,4.1-2.9c1.4,1,2.8,2,4.1,2.9c0.1,0,0.1-0.1,0.2-0.2c-0.5-1.6-1-3.2-1.5-4.8c1.4-1,2.7-2,4-3c-0.5-0.2-0.8-0.3-1.2-0.3c-1.1,0-2.1,0-3.2,0c-0.5,0-0.8-0.2-0.9-0.7c-0.3-1-0.6-2-1-3C364.9,132.7,364.8,132.3,364.6,132L364.6,132z M334,131.9h-0.2c-0.5,1.6-1.1,3.2-1.6,4.8c-1.7,0.3-3.4-0.1-5.3,0.2c1.6,1.1,2.9,2.1,4.2,3.1c-0.5,1.7-1,3.3-1.5,4.8c0.1,0,0.1,0.1,0.2,0.1c1.4-1,2.7-1.9,4.1-2.9c1.4,1,2.7,2,4.1,2.9c0.1,0,0.1-0.1,0.2-0.2c-0.5-1.6-1-3.2-1.5-4.8c1.4-1,2.7-2,4-3l-0.1-0.2c-1.7,0-3.3-0.1-5-0.1C335,135,334.5,133.5,334,131.9L334,131.9z M344.9,131.7c0.1,0.1,0.1,0.1,0.2,0.2c1.4-1,2.7-1.9,4.1-2.9c1.4,1,2.7,2,4.1,2.9l0.2-0.1c-0.5-1.6-1-3.2-1.5-4.8c0.7-0.5,1.4-1,2-1.5c0.7-0.5,1.4-0.9,2.1-1.8h-5.2c-0.6-1.7-1.1-3.2-1.6-4.8h-0.2c-0.5,1.6-1.1,3.1-1.6,4.8c-0.9,0-1.7,0-2.5,0s-1.7-0.2-2.6,0.2c1.2,0.9,2.2,1.6,3.3,2.4c0.9,0.7,0.9,0.7,0.5,1.7C345.7,129.3,345.3,130.5,344.9,131.7L344.9,131.7z M452.3,223.3c0.1,0,0.1,0.1,0.2,0.1c1.4-1,2.8-2,4.1-3c0.8,0.6,1.5,1.1,2.1,1.5c0.7,0.5,1.3,0.9,2,1.4c0.1-0.1,0.1-0.1,0.2-0.2c-0.5-1.6-1-3.1-1.5-4.7c0.7-0.5,1.4-1,2-1.5s1.5-0.8,2.1-1.8h-5.1c-0.7-1.6-1-3.3-1.6-4.8c-0.1,0-0.2,0-0.2,0c-0.5,1.6-1.1,3.2-1.6,4.7c-1.8,0.2-3.4-0.1-5.2,0.2c0.4,0.3,0.6,0.5,0.9,0.7c0.9,0.6,1.7,1.3,2.6,1.9c0.6,0.4,0.7,0.8,0.4,1.4c-0.2,0.5-0.4,1.1-0.6,1.7C452.7,221.7,452.5,222.5,452.3,223.3L452.3,223.3z M410.6,155.1c1.4,1,2.8,2,4.1,3l0.2-0.1c-0.5-1.6-1-3.2-1.5-4.8c1.3-1.1,2.8-2,4-3.1c0-0.1-0.1-0.2-0.1-0.2h-4.9c-0.7-1.6-1-3.3-1.8-5c-0.6,1.8-1.1,3.4-1.7,5.1h-5c1.1,1.1,2.2,1.9,3.4,2.7c0.5,0.3,0.6,0.7,0.4,1.2c-0.2,0.6-0.4,1.3-0.6,1.9c-0.2,0.7-0.5,1.5-0.7,2.2c0.1,0,0.1,0.1,0.2,0.1C407.8,157.1,409.1,156.2,410.6,155.1L410.6,155.1z M395.3,184.2H395c-0.5,1.6-1.1,3.2-1.6,4.8c-1.7,0.1-3.4,0-5,0.1c0,0.1,0,0.2-0.1,0.2c1.3,1,2.6,1.9,4,2.9c-0.5,1.7-1,3.3-1.5,4.9l0.2,0.1c1.4-1,2.7-1.9,4.1-3c1.4,1,2.7,1.9,4.1,2.9c0.1,0,0.1-0.1,0.2-0.2c-0.5-1.6-1-3.2-1.5-4.8c1.3-1.1,2.7-1.9,4-3c0-0.1-0.1-0.2-0.1-0.3H397C396.4,187.4,395.9,185.8,395.3,184.2L395.3,184.2z M381.6,202.2c-0.6-1.7-1.1-3.3-1.7-4.9c-0.1,0-0.1,0-0.2,0c-0.5,1.6-1.1,3.2-1.6,4.8c-1.7,0.2-3.4-0.1-5.3,0.2c1.5,1.1,2.8,2.1,4.2,3.1c-0.5,1.7-1,3.3-1.5,4.9c0.1,0,0.1,0.1,0.2,0.1c1.4-1,2.7-2,4.1-3c1.4,1,2.8,2,4.1,3l0.2-0.1c-0.5-1.6-1-3.2-1.5-4.8c1.3-1.1,2.8-1.9,3.9-3.3C385,202.2,383.4,202.2,381.6,202.2L381.6,202.2z M406.2,210.2c0.1,0,0.1,0.1,0.2,0.1c1.4-1,2.7-1.9,4.1-2.9c0.7,0.5,1.4,1,2.1,1.5c0.7,0.5,1.3,1,2.3,1.5c-0.6-1.9-1.1-3.4-1.6-5c1.4-1,2.7-2,4-3c0-0.1,0-0.2-0.1-0.2h-5c-0.6-1.7-1.1-3.3-1.6-4.8c-0.1,0-0.2,0-0.3,0c-0.5,1.6-1.1,3.2-1.6,4.9h-5c0,0.1-0.1,0.2-0.1,0.2c1.3,1,2.7,2,4,3C407.2,207.1,406.7,208.6,406.2,210.2z M337.9,223.4c0.1,0,0.1-0.1,0.2-0.1c-0.5-1.6-1-3.2-1.5-4.9c1.4-1,2.7-2,4-3l-0.1-0.2h-5c-0.6-1.7-1.1-3.3-1.6-4.9c-0.1,0-0.1,0-0.2,0c-0.5,1.6-1.1,3.2-1.6,4.8c-1.8,0.1-3.4-0.1-5.3,0.2c1.6,1.2,2.9,2.1,4.2,3.1c-0.5,1.7-1,3.2-1.5,4.8c0.1,0,0.1,0.1,0.2,0.2c1.4-1,2.8-2,4.1-3C335.3,221.5,336.6,222.5,337.9,223.4L337.9,223.4z M388.5,215.2c0,0.1-0.1,0.2-0.1,0.3c1.3,1,2.7,2,4,2.9c-0.5,1.7-1,3.3-1.5,4.8c0.1,0.1,0.1,0.1,0.2,0.2c1.4-1,2.8-2,4.1-3c1.4,1,2.7,2,4.1,2.9c0.1-0.1,0.1-0.1,0.2-0.2c-0.5-1.6-1-3.1-1.5-4.7c0.7-0.5,1.4-1,2-1.5s1.5-0.8,2-1.8h-5c-0.7-1.6-1-3.3-1.9-4.8c-0.5,1.6-1.1,3.2-1.6,4.8L388.5,215.2L388.5,215.2z M367.3,218.4c1.4-1,2.7-2,4-3c0-0.1-0.1-0.2-0.1-0.2h-5c-0.6-1.7-1.1-3.3-1.6-4.8c-0.1,0-0.2,0-0.2,0c-0.5,1.6-1.1,3.2-1.6,4.8h-2.5h-2.4c0,0.1,0,0.2-0.1,0.2c1.3,1,2.7,2,4,3c-0.5,1.7-1,3.2-1.5,4.8c0.1,0,0.1,0.1,0.2,0.1c1.4-1,2.7-1.9,4.1-2.9c1.4,1,2.7,2,4.1,2.9c0.1,0,0.1-0.1,0.2-0.2C368.3,221.7,367.9,220.1,367.3,218.4L367.3,218.4z M398,166.2c1.4-1,2.7-2,4-2.9l-0.1-0.3c-1.7,0-3.3,0-5-0.1c-0.6-1.7-1.1-3.3-1.6-4.8c-0.5,0.9-0.8,1.8-1.2,2.8c-0.9,2.5-0.1,2-2.9,2.1c-0.9,0-1.8,0-2.8,0c0,0.1-0.1,0.2-0.1,0.3c1.3,1,2.7,2,4,3c-0.5,1.7-1,3.2-1.5,4.8c0.1,0,0.1,0.1,0.2,0.1c1.4-1,2.7-1.9,4.1-2.9c1.4,1,2.7,2,4.1,2.9c0.1,0,0.1-0.1,0.2-0.1C399,169.4,398.5,167.9,398,166.2L398,166.2z M336.6,192.3c0.7-0.5,1.4-1,2.1-1.5c0.6-0.5,1.5-0.8,2-1.7c-0.4,0-0.8,0-1.1,0c-0.9,0-1.8,0-2.7,0c-1.5,0-1.3,0.1-1.7-1.2c-0.3-0.8-0.5-1.6-0.8-2.4c-0.1-0.4-0.3-0.8-0.6-1.5c-0.2,0.7-0.4,1.1-0.5,1.5c-0.3,1-0.7,1.9-0.9,2.9c-0.1,0.5-0.4,0.7-0.9,0.7c-1.1,0-2.2,0-3.3,0c-0.3,0-0.7,0-1,0.1c0,0.1,0,0.1-0.1,0.2c1.4,1,2.7,2,4,3c-0.5,1.7-1,3.3-1.5,4.9c0.1,0,0.1,0.1,0.2,0.1c1.4-1,2.7-2,4.1-2.9c1.4,1,2.7,2,4.1,2.9l0.2-0.1C337.7,195.6,337.2,194,336.6,192.3L336.6,192.3z M368.6,197.3c0.1,0,0.2-0.1,0.2-0.2c-0.5-1.6-1-3.2-1.5-4.8c1.4-1.1,2.8-2,4-3c0-0.1-0.1-0.2-0.1-0.2h-4.9c-0.7-1.6-1-3.3-1.8-5.1c-0.6,1.9-1.1,3.5-1.7,5c-1.8,0.1-3.4-0.1-5,0.4c1.3,1,2.6,2,3.9,2.9c-0.4,1.7-1.1,3.2-1.5,5.1c1.6-1.1,2.9-2.1,4.3-3.1C365.9,195.3,367.3,196.3,368.6,197.3L368.6,197.3z M417.3,176.3c0-0.1-0.1-0.2-0.1-0.3h-4.9c-0.7-1.6-1-3.3-1.8-5c-0.6,1.8-1.1,3.4-1.7,5c-0.9,0-1.7,0-2.5,0s-1.7-0.2-2.6,0.2c1.4,1.1,2.8,2,4.1,3c-0.5,1.7-1,3.3-1.5,4.8c0.1,0,0.1,0.1,0.2,0.1c1.4-1,2.7-1.9,4.1-2.9c1.4,0.9,2.7,2,4.1,2.9c0.1-0.1,0.1-0.1,0.2-0.2c-0.5-1.6-1-3.1-1.5-4.8C414.7,178.2,416,177.3,417.3,176.3L417.3,176.3z M375.6,184.1c0.1,0,0.1,0.1,0.2,0.1c1.3-1,2.7-1.9,4.1-2.9c1.4,1,2.7,2,4.1,2.9c0.1,0,0.1-0.1,0.2-0.2c-0.5-1.6-1-3.2-1.5-4.8c1.4-1,2.7-2,4-3c0-0.1-0.1-0.2-0.1-0.3c-1,0-2,0-3,0c-2.4,0-1.8,0.3-2.6-1.8c-0.4-1-0.7-2-1.1-3.3c-0.2,0.6-0.4,0.8-0.5,1.1c-0.3,1-0.7,2-1,3c-0.3,0.9-0.3,0.9-1.3,0.9c-0.9,0-1.8,0-2.7,0c-0.4,0-0.8,0-1.2,0.1l-0.1,0.2c1.3,1,2.6,1.9,4,2.9C376.6,180.9,376.1,182.5,375.6,184.1L375.6,184.1z M419.2,215.2c0,0.1-0.1,0.2-0.1,0.3c1.3,1,2.7,2,4,3c-0.4,1.7-1.1,3.2-1.5,5.1c1.6-1.1,2.9-2.1,4.3-3.1c0.7,0.5,1.4,1,2.1,1.5c0.7,0.5,1.3,1,2.3,1.5c-0.6-1.9-1.1-3.5-1.6-5.1c1.4-1.1,2.8-2,4-3l-0.1-0.2h-5c-0.6-1.7-1.1-3.3-1.6-4.8c-0.1,0-0.2,0-0.2,0c-0.5,1.6-1.1,3.2-1.6,4.8C422.5,215.2,420.8,215.2,419.2,215.2z M349.2,155.1c1.4,1,2.8,2,4.1,2.9c0.1,0,0.1-0.1,0.2-0.1c-0.5-1.6-1-3.2-1.5-4.8c1.3-1.1,2.8-2,4-3.1c0-0.1-0.1-0.2-0.1-0.2h-5c-0.6-1.7-1.1-3.2-1.7-5.1c-0.2,0.6-0.4,0.8-0.5,1.1c-0.3,1-0.6,1.9-0.9,2.9c-0.3,1-0.3,1-1.4,1c-1.1,0-2.1,0-3.2,0c-0.2,0-0.5,0.1-0.9,0.1c0.4,0.3,0.6,0.5,0.9,0.7c0.8,0.6,1.6,1.2,2.4,1.7c0.9,0.6,0.9,0.7,0.5,1.7c-0.3,0.9-0.6,1.8-0.9,2.7c-0.1,0.4-0.2,0.7-0.3,1.1c0.1,0,0.1,0.1,0.2,0.1C346.4,157.1,347.8,156.1,349.2,155.1L349.2,155.1z M430,197.3c0.1-0.1,0.1-0.1,0.2-0.2c-0.4-1.3-0.9-2.7-1.3-4c-0.2-0.5-0.1-0.9,0.4-1.2c1-0.7,1.9-1.4,2.9-2.1c0.2-0.1,0.3-0.3,0.6-0.7h-5.1c-0.7-1.6-1-3.3-1.8-5.1c-0.6,1.8-1.1,3.4-1.7,5c-1.7,0.3-3.4-0.1-5.3,0.2c1.5,1.1,2.9,2.1,4.2,3.1c-0.5,1.7-1,3.2-1.5,4.8l0.2,0.1c1.4-1,2.7-1.9,4.1-2.9C427.3,195.4,428.7,196.3,430,197.3L430,197.3z M434.5,202.1c0,0.1-0.1,0.2-0.1,0.3c1.4,1,2.7,2,4,2.9c-0.5,1.7-1,3.3-1.5,4.8c0.1,0,0.1,0.1,0.2,0.2c1.4-1,2.7-2,4.1-3c0.7,0.5,1.4,1,2.1,1.5c0.7,0.5,1.3,1.1,2.2,1.4c-0.6-1.8-1.1-3.4-1.6-5c0.8-0.6,1.4-1,2.1-1.5c0.6-0.5,1.3-1,1.9-1.4c0-0.1-0.1-0.2-0.1-0.3h-5c-0.6-1.7-1.1-3.3-1.7-5.1c-0.2,0.5-0.4,0.8-0.5,1.1c-0.3,1-0.7,2-1,3s-0.3,1-1.3,1C437.2,202.1,435.9,202.1,434.5,202.1L434.5,202.1z M346.4,205.4c-0.5,1.7-1,3.3-1.5,4.8c0.1,0,0.1,0.1,0.2,0.1c1.4-1,2.7-1.9,4.1-2.9c1.4,1,2.7,2,4.1,2.9c0.1-0.1,0.1-0.1,0.2-0.2c-0.5-1.6-1-3.2-1.5-4.8c0.8-0.6,1.4-1,2.1-1.5c0.6-0.5,1.3-1,1.9-1.4c0-0.1-0.1-0.2-0.1-0.3H351c-0.6-1.7-1.1-3.2-1.6-4.8c-0.1,0-0.2,0-0.3,0c-0.5,1.6-1.1,3.2-1.6,4.7c-1.8,0.1-3.4-0.1-5.1,0.3C343.7,203.4,345,204.3,346.4,205.4L346.4,205.4z M360.2,171c0.1,0,0.1,0.1,0.2,0.1c1.4-1,2.7-1.9,4.1-2.9c1.5,0.9,2.7,2.1,4.2,2.8c-0.3-1.4-0.8-2.8-1.2-4.1c-0.2-0.5-0.1-0.9,0.4-1.2c1-0.7,1.9-1.4,2.9-2.1c0.2-0.1,0.3-0.3,0.7-0.7h-5.2c-0.7-1.6-1-3.3-1.8-5c-0.6,1.9-1.1,3.4-1.7,5c-0.9,0-1.7,0-2.5,0s-1.7-0.2-2.6,0.2c1.4,1.1,2.8,2,4.1,3C361.2,167.9,360.7,169.4,360.2,171z M373.2,149.9c0,0.1,0,0.2-0.1,0.3c1.3,1,2.7,1.9,4,2.9c-0.3,0.9-0.5,1.7-0.8,2.5c-0.2,0.8-0.5,1.6-0.7,2.3c0.1,0,0.1,0.1,0.2,0.2c1.4-1,2.7-2,4.1-2.9c0.7,0.5,1.4,1,2.1,1.5c0.7,0.5,1.3,1.1,2.3,1.4c-0.6-1.8-1.1-3.4-1.6-5c0.8-0.6,1.5-1.1,2.1-1.5c0.6-0.5,1.3-1,1.9-1.4c-0.4-0.2-0.7-0.2-1-0.2c-0.9,0-1.9,0-2.8,0c-1.2,0-1.2,0-1.6-1.1c-0.3-1-0.6-2-1-2.9c-0.1-0.3-0.2-0.5-0.5-1c-0.6,1.8-1.1,3.4-1.7,5h-4.9V149.9z M444,179.2c1.4-1,2.7-2,4-3c0-0.1-0.1-0.2-0.1-0.3c-1,0-2,0-3,0c-2.4,0-1.8,0.4-2.6-1.9c-0.3-1-0.7-2-1.1-3.2c-0.2,0.5-0.4,0.7-0.4,1c-0.3,0.9-0.6,1.9-0.9,2.8c-0.5,1.4-0.2,1.3-1.7,1.3c-1,0-2.1,0-3.1,0c-0.2,0-0.5,0.1-0.9,0.2c1.5,1.1,2.8,2.1,4.1,3c-0.4,1.7-1.1,3.2-1.2,5c1.3-1,2.7-1.9,4-2.9c1.4,1,2.7,2,4.1,2.9c0.1-0.1,0.1-0.1,0.2-0.2C445,182.4,444.5,180.9,444,179.2L444,179.2z M344.9,184.1c0.1,0,0.1,0.1,0.2,0.2c1.4-1,2.7-1.9,4.1-2.9c0.7,0.5,1.4,1,2,1.5c0.7,0.5,1.4,0.9,2,1.4c0.1-0.1,0.1-0.1,0.2-0.2c-0.5-1.6-1-3.1-1.5-4.8c0.7-0.5,1.4-1,2-1.5s1.5-0.8,2-1.8h-5.1c-0.6-1.7-1.1-3.2-1.6-4.8c-0.1,0-0.2,0-0.2,0c-0.5,1.6-1.1,3.2-1.6,4.8c-1.7,0.2-3.4-0.1-5.3,0.2c1.2,0.9,2.2,1.6,3.1,2.3c1.3,0.9,1.2,0.7,0.7,2.2C345.6,181.8,345.2,182.9,344.9,184.1z M419.2,162.9c0,0.1,0,0.2-0.1,0.3c1.3,1,2.7,1.9,4,2.9c-0.5,1.7-1,3.3-1.5,4.8l0.2,0.1c1.4-1,2.7-1.9,4.1-2.9c0.7,0.5,1.4,1,2.1,1.5c0.7,0.5,1.3,1,2.3,1.5c-0.5-1.6-0.9-3-1.4-4.3c-0.2-0.5-0.1-0.9,0.4-1.2c1-0.7,1.9-1.4,2.9-2.1c0.2-0.1,0.3-0.3,0.7-0.7h-5.2c-0.7-1.6-1-3.3-1.8-5c-0.6,1.8-1.1,3.4-1.7,5.1H419.2L419.2,162.9z M333.9,157.8c-0.2,0.5-0.4,0.8-0.5,1.1c-0.4,1.1-0.7,2.2-1.1,3.3c-0.2,0.6-0.5,0.7-1,0.7c-1.2,0-2.4,0-3.6,0c-0.2,0-0.5,0.1-0.9,0.2c1.5,1.1,2.8,2.1,4.1,3.1c-0.4,1.7-1.1,3.2-1.5,5.1c1.6-1.1,2.9-2.1,4.3-3.1c1.4,1,2.7,2,4.1,2.9c0.1-0.1,0.1-0.1,0.2-0.2c-0.5-1.6-1-3.2-1.5-4.8c0.8-0.6,1.4-1,2.1-1.5c0.6-0.5,1.4-0.8,2-1.7h-5.1C335,161.2,334.5,159.6,333.9,157.8L333.9,157.8z M264.8,294.5v69.4c-1.8,0.8-3.6,1.7-5.5,2.5c-9.5,4.1-19.3,7-29.4,8.9c-8.6,1.6-17.3,2.7-26.1,3.1c-4.1,0.2-8.3,0.4-12.4,0.6c-0.2,0-0.4,0-0.7,0c0-2.5,0-5,0-7.6c0.4-0.2,0.8-0.5,1.3-0.7c8.7-4.5,16.5-10.1,23.1-17.4c4.8-5.3,8.6-11.3,10.9-18.2c1.7-5.2,2.2-10.6,1.6-16.1c-0.1-0.9-0.2-1.8-0.3-2.7c0-0.8-0.3-1.4-1-1.7c-0.2-0.1-0.3-0.2-0.6-0.5C238.6,307.6,251.6,301.1,264.8,294.5L264.8,294.5z M199.1,152c18-20.3,40.2-33.8,65.6-42.4v75.2C242.8,173.9,221,163,199.1,152L199.1,152z"/><path fill="#BB3F47" d="M326.4,267.9v-18.3c0.1-0.1,0.1-0.1,0.2-0.1l0.1-0.1c0.2,0,0.4-0.1,0.6-0.1c45.5,0,90.9,0,136.4,0c0.1,0,0.2,0.1,0.5,0.1c0,0.3,0,0.6-0.1,0.9c-1.7,5.8-4,11.3-6.7,16.7c-0.3,0.6-0.7,0.9-1.4,0.8c-0.2,0-0.5,0-0.7,0h-127C327.6,267.9,327.1,267.9,326.4,267.9L326.4,267.9z M326.5,305.2c-0.3-1.3-0.2-17.3,0-18.3c0.9-0.2,115.9-0.3,117.9-0.1c-0.2,0.3-0.3,0.6-0.5,0.8c-5,6.2-10.5,11.8-16.5,17c-0.6,0.5-1.2,0.6-1.9,0.6c-18,0-36,0-54,0H326.5L326.5,305.2z M326.4,341.8v-17.5c1-0.3,67-0.4,71.3-0.1c-0.6,0.3-1,0.6-1.4,0.7c-11.2,5.5-22.9,9.6-35.1,12.4c-7,1.6-14,2.9-21.1,3.6c-4.1,0.4-8.2,0.6-12.3,0.9C327.4,341.8,327,341.8,326.4,341.8L326.4,341.8z M217.1,307.8c-3.2-2.1-13.1-11.3-14.5-13.4c0.3-0.2,0.6-0.4,0.9-0.5c4.6-2.3,9.2-4.6,13.9-6.9c0.5-0.2,1.1-0.4,1.7-0.4c13.2,0,26.4,0,39.6,0c0.2,0,0.4,0,0.6,0.2C245.1,293.8,231.1,300.8,217.1,307.8L217.1,307.8z M176.4,192.8c1.8-6.1,4.1-11.7,6.9-17.3c11.5,5.7,22.8,11.4,34.2,17.1c0,0.1,0,0.1-0.1,0.2H176.4z"/><path fill="#FFFFFF" d="M395.2,142.1c-1.4,1-2.7,2-4.1,2.9c-0.1,0-0.1-0.1-0.2-0.1c0.5-1.6,1-3.2,1.5-4.9c-1.3-1-2.7-2-4.2-3.1c0.4-0.1,0.7-0.2,0.9-0.2c1,0,2,0,3,0c1.7,0,1.4-0.1,1.8-1.3c0.3-0.9,0.6-1.9,0.9-2.8c0.1-0.2,0.2-0.5,0.4-0.9c0.6,1.8,1.1,3.3,1.7,5c1.7,0,3.4,0,5,0.1l0.1,0.2c-1.3,1-2.6,2-4,3c0.5,1.6,1,3.2,1.5,4.8l-0.2,0.1C398,144,396.6,143.1,395.2,142.1L395.2,142.1z M380,118.8c0.5,1.6,1,3.1,1.6,4.8h5c0,0.1,0.1,0.2,0.1,0.3c-0.6,0.6-1.3,1-2,1.5s-1.3,1-2,1.5c0.5,1.7,1,3.3,1.5,4.9c-0.1,0-0.1,0.1-0.2,0.1c-1.4-1-2.7-1.9-4.1-2.9c-1.4,1-2.7,2-4.3,3.1c0.3-1.9,1.1-3.4,1.5-5.1c-1.3-1-2.6-1.9-4.1-3c1-0.4,1.8-0.2,2.6-0.2s1.6,0,2.5,0c0.6-1.7,1.1-3.3,1.6-4.8C379.8,118.9,379.9,118.9,380,118.8L380,118.8z M329.5,118.7c0.5-1.6,1-3.1,1.5-4.8c-1.4-1-2.7-2-4-3c0-0.1,0.1-0.2,0.1-0.2h5c0.6-1.7,1.1-3.3,1.6-4.9c0.1,0,0.1,0,0.2,0c0.3,0.8,0.5,1.5,0.8,2.3s0.5,1.6,0.8,2.5c1.7,0,3.4,0.1,5.1,0.1c0,0.1,0,0.2,0.1,0.2c-1.3,1-2.7,1.9-4.1,3c0.5,1.6,1,3.2,1.5,4.8c-0.1,0.1-0.1,0.1-0.2,0.2c-1.3-0.9-2.7-1.9-4.1-2.9c-1.4,1-2.7,2-4.1,2.9C329.7,118.8,329.6,118.7,329.5,118.7L329.5,118.7z M364.6,132c0.1,0.3,0.3,0.7,0.4,1c0.3,1,0.7,2,1,3c0.1,0.5,0.4,0.7,0.9,0.7c1.1,0,2.1,0,3.2,0c0.4,0,0.8,0,1.2,0.3c-1.3,1-2.6,1.9-4,3c0.5,1.6,1,3.2,1.5,4.8c-0.1,0-0.1,0.1-0.2,0.2c-1.4-1-2.7-1.9-4.1-2.9c-1.4,1-2.7,1.9-4.1,2.9c-0.1,0-0.1-0.1-0.2-0.2c0.5-1.6,1-3.1,1.5-4.8c-1.4-1-2.7-2-4-3c0-0.1,0-0.2,0.1-0.2c0.8,0,1.6,0,2.4,0c0.8,0,1.6,0,2.6,0c0.6-1.6,1.1-3.2,1.6-4.8C364.5,132,364.5,132,364.6,132L364.6,132z M334,131.9c0.5,1.6,1,3.1,1.6,4.8c1.6,0,3.3,0.1,5,0.1l0.1,0.2c-1.3,1-2.6,1.9-4,3c0.5,1.6,1,3.2,1.5,4.8c-0.1,0-0.1,0.1-0.2,0.2c-1.3-0.9-2.7-1.9-4.1-2.9c-1.4,1-2.7,1.9-4.1,2.9c-0.1,0-0.1-0.1-0.2-0.1c0.5-1.6,1-3.2,1.5-4.8c-1.4-1-2.7-2-4.2-3.1c1.9-0.3,3.6,0,5.3-0.2c0.5-1.6,1.1-3.2,1.6-4.8L334,131.9L334,131.9z M344.9,131.7c0.4-1.2,0.8-2.5,1.2-3.7c0.3-1.1,0.3-1.1-0.5-1.7c-1-0.8-2.1-1.5-3.3-2.4c1-0.4,1.8-0.2,2.6-0.2s1.6,0,2.5,0c0.6-1.7,1.1-3.2,1.6-4.8h0.2c0.5,1.6,1,3.1,1.6,4.8h5.2c-0.7,0.9-1.5,1.3-2.1,1.8c-0.7,0.5-1.3,1-2,1.5c0.5,1.7,1,3.2,1.5,4.8l-0.2,0.1c-1.3-1-2.7-1.9-4.1-2.9c-1.4,1-2.7,2-4.1,2.9C345,131.9,344.9,131.8,344.9,131.7L344.9,131.7z M452.3,223.3c0.2-0.8,0.5-1.6,0.7-2.3c0.2-0.6,0.3-1.1,0.6-1.7c0.2-0.6,0.1-1-0.4-1.4c-0.9-0.6-1.7-1.2-2.6-1.9c-0.2-0.2-0.5-0.4-0.9-0.7c1.8-0.2,3.4,0,5.2-0.2c0.5-1.6,1-3.2,1.6-4.7c0.1,0,0.2,0,0.2,0c0.6,1.5,1,3.2,1.6,4.8h5.1c-0.6,0.9-1.4,1.2-2.1,1.8c-0.6,0.5-1.3,1-2,1.5c0.5,1.6,1,3.2,1.5,4.7c-0.1,0.1-0.1,0.1-0.2,0.2c-0.7-0.5-1.3-0.9-2-1.4s-1.3-1-2.1-1.5c-1.4,1-2.8,2-4.1,3C452.4,223.4,452.3,223.4,452.3,223.3L452.3,223.3z M410.6,155.1c-1.4,1-2.8,2-4.1,3c-0.1,0-0.1-0.1-0.2-0.1c0.2-0.7,0.5-1.5,0.7-2.2c0.2-0.6,0.4-1.3,0.6-1.9c0.2-0.5,0.1-0.9-0.4-1.2c-1.2-0.8-2.3-1.7-3.4-2.7h5c0.6-1.7,1.1-3.3,1.7-5.1c0.9,1.7,1.1,3.4,1.8,5h4.9c0,0.1,0.1,0.2,0.1,0.2c-1.2,1.1-2.7,1.9-4,3.1c0.5,1.6,1,3.2,1.5,4.8l-0.2,0.1C413.3,157.1,412,156.1,410.6,155.1L410.6,155.1z M395.3,184.2l1.6,4.8h4.9c0,0.1,0.1,0.2,0.1,0.3c-1.2,1.1-2.6,1.9-4,3c0.5,1.6,1,3.2,1.5,4.8c-0.1,0-0.1,0.1-0.2,0.2c-1.4-1-2.7-1.9-4.1-2.9c-1.4,1-2.8,2-4.1,3l-0.2-0.1c0.5-1.6,1-3.2,1.5-4.9c-1.4-1-2.7-2-4-2.9c0-0.1,0-0.2,0.1-0.2c1.6-0.1,3.3,0,5-0.1c0.5-1.6,1.1-3.2,1.6-4.8C395.2,184.3,395.3,184.3,395.3,184.2L395.3,184.2z M381.6,202.2h4.9c-1.1,1.3-2.6,2.1-3.9,3.3c0.5,1.6,1,3.2,1.5,4.8l-0.1,0.1c-1.4-1-2.7-1.9-4.1-3c-1.4,1-2.7,2-4.1,3c-0.1,0-0.1-0.1-0.2-0.1c0.5-1.6,1-3.2,1.5-4.9c-1.3-1-2.7-2-4.2-3.1c1.8-0.3,3.5,0,5.3-0.2c0.5-1.6,1.1-3.2,1.6-4.8c0.1,0,0.1,0,0.2,0C380.5,198.9,381.1,200.5,381.6,202.2L381.6,202.2z M406.2,210.2c0.5-1.6,1-3.1,1.5-4.8c-1.3-1-2.7-2-4-3c0-0.1,0.1-0.2,0.1-0.2h5c0.6-1.7,1.1-3.3,1.6-4.9c0.1,0,0.2,0,0.3,0c0.5,1.6,1.1,3.2,1.6,4.8h5c0,0.1,0,0.2,0.1,0.2c-1.3,1-2.6,1.9-4,3c0.5,1.6,1,3.2,1.6,5c-1-0.5-1.6-1.1-2.3-1.5c-0.7-0.5-1.3-1-2.1-1.5c-1.4,1-2.8,2-4.1,2.9C406.4,210.3,406.3,210.3,406.2,210.2L406.2,210.2z M337.9,223.4c-1.3-1-2.7-1.9-4.1-3c-1.4,1-2.7,2-4.1,3c-0.1,0-0.1-0.1-0.2-0.2c0.5-1.6,1-3.2,1.5-4.8c-1.4-1-2.7-2-4.2-3.1c1.9-0.2,3.5,0,5.3-0.2c0.5-1.6,1.1-3.2,1.6-4.8c0.1,0,0.1,0,0.2,0c0.5,1.6,1.1,3.2,1.6,4.9h5l0.1,0.2c-1.3,1-2.7,2-4,3c0.5,1.7,1,3.3,1.5,4.9C338.1,223.3,338,223.4,337.9,223.4L337.9,223.4z M388.5,215.2h4.9c0.5-1.6,1.1-3.2,1.6-4.8c0.9,1.5,1.2,3.1,1.9,4.8h5.1c-0.5,0.9-1.4,1.3-2,1.8s-1.3,1-2,1.5c0.5,1.6,1,3.2,1.5,4.7c-0.1,0.1-0.1,0.1-0.2,0.2c-1.4-0.9-2.6-1.9-4.1-2.9c-1.4,1-2.7,2-4.1,3c-0.1-0.1-0.1-0.1-0.2-0.2c0.5-1.6,1-3.1,1.5-4.8c-1.3-1-2.7-2-4-2.9C388.4,215.4,388.5,215.3,388.5,215.2L388.5,215.2z M367.3,218.4c0.5,1.7,1,3.3,1.5,4.8c-0.1,0-0.1,0.1-0.2,0.2c-1.3-1-2.7-1.9-4.1-2.9c-1.4,1-2.7,1.9-4.1,2.9c-0.1,0-0.1-0.1-0.2-0.1c0.5-1.6,1-3.1,1.5-4.8c-1.3-1-2.7-2-4-3c0-0.1,0-0.2,0.1-0.2c0.8,0,1.6,0,2.4,0c0.8,0,1.6,0,2.5,0c0.5-1.6,1.1-3.2,1.6-4.8c0.1,0,0.2,0,0.2,0c0.5,1.6,1.1,3.2,1.6,4.8h5c0,0.1,0.1,0.2,0.1,0.2C370,216.5,368.7,217.4,367.3,218.4L367.3,218.4z M398,166.2c0.5,1.7,1,3.3,1.5,4.8c-0.1,0-0.1,0.1-0.2,0.1c-1.3-1-2.7-1.9-4.1-2.9c-1.4,1-2.8,2-4.1,2.9c-0.1,0-0.1-0.1-0.2-0.1c0.5-1.6,1-3.1,1.5-4.8c-1.3-1-2.7-2-4-3c0-0.1,0.1-0.2,0.1-0.3c0.9,0,1.8,0,2.8,0c2.7,0,2,0.4,2.9-2.1c0.3-0.9,0.6-1.9,1.2-2.8c0.5,1.6,1,3.1,1.6,4.8c1.6,0,3.3,0,5,0.1l0.1,0.3C400.7,164.2,399.4,165.2,398,166.2z M336.6,192.3c0.5,1.7,1,3.3,1.5,4.8l-0.2,0.1c-1.3-0.9-2.7-1.9-4.1-2.9c-1.4,1-2.7,2-4.1,2.9c-0.1,0-0.1-0.1-0.2-0.1c0.5-1.6,1-3.2,1.5-4.9c-1.3-1-2.7-2-4-3c0-0.1,0-0.1,0.1-0.2c0.3,0,0.7-0.1,1-0.1c1.1,0,2.2,0,3.3,0c0.5,0,0.8-0.2,0.9-0.7c0.3-1,0.6-2,0.9-2.9c0.1-0.4,0.3-0.8,0.5-1.5c0.2,0.7,0.4,1.1,0.6,1.5c0.3,0.8,0.5,1.6,0.8,2.4c0.4,1.3,0.2,1.2,1.7,1.2h2.7c0.3,0,0.6,0,1.1,0c-0.5,0.8-1.4,1.2-2,1.7C338,191.3,337.4,191.8,336.6,192.3L336.6,192.3z M368.6,197.3c-1.3-1-2.7-1.9-4.1-2.9c-1.4,1-2.7,1.9-4.3,3.1c0.4-1.9,1.1-3.4,1.5-5.1c-1.3-1-2.6-1.9-3.9-2.9c1.6-0.4,3.3-0.2,5-0.4c0.5-1.6,1-3.2,1.7-5c0.8,1.8,1.1,3.4,1.8,5.1h4.9c0,0.1,0.1,0.2,0.1,0.2c-1.2,1.1-2.6,1.9-4,3c0.5,1.6,1,3.2,1.5,4.8C368.8,197.2,368.7,197.2,368.6,197.3L368.6,197.3z M417.3,176.3c-1.3,1-2.6,1.9-4,2.9c0.5,1.6,1,3.2,1.5,4.8c-0.1,0.1-0.1,0.1-0.2,0.2c-1.4-0.9-2.7-2-4.1-2.9c-1.4,1-2.7,2-4.1,2.9c-0.1,0-0.1-0.1-0.2-0.1c0.5-1.6,1-3.1,1.5-4.8c-1.3-1-2.7-1.9-4.1-3c0.9-0.4,1.8-0.2,2.6-0.2s1.6,0,2.5,0c0.5-1.6,1.1-3.2,1.7-5c0.9,1.7,1.1,3.4,1.8,5h4.9C417.3,176.1,417.3,176.2,417.3,176.3L417.3,176.3z M375.6,184.1c0.5-1.6,1-3.2,1.5-4.8c-1.3-1-2.7-2-4-2.9l0.1-0.2c0.4,0,0.8-0.1,1.2-0.1c0.9,0,1.8,0,2.7,0c1,0,1,0,1.3-0.9c0.3-1,0.7-2,1-3c0.1-0.3,0.2-0.6,0.5-1.1c0.4,1.3,0.7,2.3,1.1,3.3c0.8,2.2,0.2,1.8,2.6,1.8c1,0,2,0,3,0c0,0.1,0.1,0.2,0.1,0.3c-1.3,1-2.6,1.9-4,3c0.5,1.6,1,3.2,1.5,4.8c-0.1,0-0.1,0.1-0.2,0.2c-1.4-1-2.7-1.9-4.1-2.9c-1.4,1-2.7,2-4.1,2.9C375.7,184.1,375.6,184.1,375.6,184.1L375.6,184.1z M419.2,215.2h4.9c0.5-1.6,1.1-3.2,1.6-4.8c0.1,0,0.2,0,0.2,0c0.5,1.6,1.1,3.2,1.6,4.8h5l0.1,0.2c-1.2,1-2.6,1.9-4,3c0.5,1.6,1,3.2,1.6,5.1c-0.9-0.5-1.6-1-2.3-1.5s-1.4-1-2.1-1.5c-1.4,1-2.7,1.9-4.3,3.1c0.4-1.9,1.1-3.4,1.5-5.1c-1.3-1-2.6-2-4-3C419.2,215.4,419.2,215.3,419.2,215.2L419.2,215.2z M349.2,155.1c-1.4,1-2.7,2-4.1,3c-0.1,0-0.1-0.1-0.2-0.1c0.1-0.4,0.2-0.7,0.3-1.1c0.3-0.9,0.6-1.8,0.9-2.7c0.4-1.1,0.4-1.1-0.5-1.7c-0.8-0.6-1.6-1.2-2.4-1.7c-0.2-0.2-0.5-0.4-0.9-0.7c0.4-0.1,0.7-0.1,0.9-0.1c1.1,0,2.1,0,3.2,0c1.1,0,1.1,0,1.4-1c0.3-1,0.6-1.9,0.9-2.9c0.1-0.3,0.2-0.6,0.5-1.1c0.6,1.8,1.1,3.4,1.7,5.1h5c0,0.1,0.1,0.2,0.1,0.2c-1.2,1.1-2.7,1.9-4,3.1c0.5,1.6,1,3.2,1.5,4.8c-0.1,0-0.1,0.1-0.2,0.1C351.9,157.1,350.6,156.1,349.2,155.1z M430,197.3c-1.3-1-2.7-1.9-4.1-2.9c-1.4,1-2.7,1.9-4.1,2.9l-0.2-0.1c0.5-1.6,1-3.1,1.5-4.8c-1.3-1-2.6-1.9-4.2-3.1c1.9-0.3,3.6,0,5.3-0.2c0.5-1.6,1-3.1,1.7-5c0.8,1.8,1.1,3.5,1.8,5.1h5.1c-0.3,0.3-0.5,0.5-0.6,0.7c-0.9,0.7-1.9,1.4-2.9,2.1c-0.5,0.3-0.6,0.7-0.4,1.2c0.5,1.3,0.9,2.7,1.3,4C430.1,197.1,430.1,197.2,430,197.3L430,197.3z M434.5,202.1c1.3,0,2.7,0,4,0c1,0,1,0,1.3-1s0.7-2,1-3c0.1-0.3,0.2-0.5,0.5-1.1c0.6,1.8,1.1,3.4,1.7,5.1h5c0,0.1,0.1,0.2,0.1,0.3c-0.6,0.5-1.3,1-1.9,1.4c-0.7,0.5-1.3,1-2.1,1.5c0.5,1.6,1,3.2,1.6,5c-0.9-0.4-1.6-1-2.2-1.4c-0.7-0.5-1.4-1-2.1-1.5c-1.4,1-2.8,2-4.1,3c-0.1,0-0.1-0.1-0.2-0.2c0.5-1.6,1-3.1,1.5-4.8c-1.3-1-2.7-2-4-2.9C434.5,202.3,434.5,202.2,434.5,202.1L434.5,202.1z M346.4,205.4c-1.4-1-2.7-2-4-2.9c1.7-0.4,3.3-0.2,5.1-0.3c0.5-1.6,1-3.2,1.6-4.7c0.1,0,0.2,0,0.3,0c0.5,1.6,1.1,3.1,1.6,4.8h4.9c0,0.1,0.1,0.2,0.1,0.3c-0.6,0.5-1.3,1-1.9,1.4c-0.7,0.5-1.3,1-2.1,1.5c0.5,1.6,1,3.2,1.5,4.8c-0.1,0.1-0.1,0.1-0.2,0.2c-1.3-0.9-2.6-1.9-4.1-2.9c-1.4,1-2.7,1.9-4.1,2.9c-0.1,0-0.1-0.1-0.2-0.1C345.4,208.6,345.9,207,346.4,205.4L346.4,205.4z M360.2,171c0.5-1.6,1-3.1,1.5-4.8c-1.3-1-2.6-1.9-4.1-3c0.9-0.4,1.8-0.2,2.6-0.2s1.6,0,2.5,0c0.5-1.6,1.1-3.2,1.7-5c0.8,1.7,1.1,3.4,1.8,5h5.2c-0.4,0.4-0.5,0.6-0.7,0.7c-0.9,0.7-1.9,1.4-2.9,2.1c-0.5,0.3-0.6,0.7-0.4,1.2c0.5,1.3,0.9,2.7,1.2,4.1c-1.5-0.7-2.7-1.9-4.2-2.8c-1.4,1-2.7,1.9-4.1,2.9C360.4,171.1,360.3,171,360.2,171z M373.2,149.9h4.9c0.6-1.7,1.1-3.3,1.7-5c0.2,0.5,0.4,0.7,0.5,1c0.3,1,0.6,1.9,1,2.9c0.4,1.1,0.4,1.1,1.6,1.1h2.8c0.3,0,0.6,0,1,0.2c-0.6,0.5-1.3,1-1.9,1.4c-0.7,0.5-1.3,1-2.1,1.5c0.5,1.6,1,3.2,1.6,5c-1-0.3-1.6-1-2.3-1.4c-0.7-0.5-1.4-1-2.1-1.5c-1.4,1-2.7,2-4.1,2.9c-0.1,0-0.1-0.1-0.2-0.2c0.2-0.8,0.5-1.6,0.7-2.3c0.2-0.8,0.5-1.6,0.8-2.5c-1.3-1-2.6-1.9-4-2.9C373.1,150.1,373.2,150,373.2,149.9L373.2,149.9z M444,179.2c0.5,1.6,1,3.2,1.5,4.8c-0.1,0.1-0.1,0.1-0.2,0.2c-1.4-0.9-2.7-2-4.1-2.9c-1.4,1-2.7,1.9-4,2.9c0.1-1.7,0.8-3.2,1.2-5c-1.3-0.9-2.6-1.9-4.1-3c0.4-0.1,0.6-0.2,0.9-0.2c1,0,2.1,0,3.1,0c1.4,0,1.2,0.1,1.7-1.3c0.3-0.9,0.6-1.9,0.9-2.8c0.1-0.2,0.2-0.5,0.4-1c0.4,1.2,0.7,2.2,1.1,3.2c0.8,2.2,0.2,1.8,2.6,1.9c1,0,2,0,3,0c0,0.1,0.1,0.2,0.1,0.3C446.7,177.2,445.4,178.2,444,179.2L444,179.2z M344.9,184.1c0.4-1.2,0.8-2.3,1.1-3.5c0.5-1.5,0.6-1.2-0.7-2.2c-0.9-0.7-1.9-1.4-3.1-2.3c1.9-0.3,3.6,0,5.3-0.2c0.5-1.6,1.1-3.2,1.6-4.8c0.1,0,0.2,0,0.2,0c0.5,1.6,1,3.1,1.6,4.8h5.1c-0.6,0.9-1.4,1.2-2,1.8c-0.6,0.5-1.3,1-2,1.5c0.5,1.6,1,3.2,1.5,4.8c-0.1,0.1-0.1,0.1-0.2,0.2c-0.7-0.5-1.4-0.9-2-1.4c-0.7-0.5-1.3-1-2-1.5c-1.4,1-2.8,2-4.1,2.9C345,184.2,344.9,184.1,344.9,184.1z M419.2,162.9h4.9c0.6-1.7,1.1-3.2,1.7-5.1c0.8,1.7,1.1,3.4,1.8,5h5.2c-0.4,0.4-0.5,0.6-0.7,0.7c-0.9,0.7-1.9,1.4-2.9,2.1c-0.5,0.3-0.6,0.7-0.4,1.2c0.5,1.3,0.9,2.7,1.4,4.3c-1-0.5-1.6-1-2.3-1.5s-1.3-1-2.1-1.5c-1.4,1-2.7,1.9-4.1,2.9l-0.2-0.1c0.5-1.6,1-3.1,1.5-4.8c-1.3-1-2.6-1.9-4-2.9C419.2,163.2,419.2,163.1,419.2,162.9L419.2,162.9z M333.9,157.8c0.6,1.8,1.1,3.4,1.7,5.1h5.1c-0.6,0.9-1.4,1.2-2,1.7s-1.3,1-2.1,1.5c0.5,1.6,1,3.2,1.5,4.8c-0.1,0.1-0.1,0.1-0.2,0.2c-1.4-0.9-2.7-2-4.1-2.9c-1.4,1-2.7,1.9-4.3,3.1c0.4-1.9,1.1-3.4,1.5-5.1c-1.3-1-2.6-2-4.1-3.1c0.4-0.1,0.7-0.2,0.9-0.2c1.2,0,2.4,0,3.6,0c0.6,0,0.9-0.2,1-0.7c0.3-1.1,0.7-2.2,1.1-3.3C333.5,158.6,333.7,158.4,333.9,157.8L333.9,157.8z"/></svg>