<svg version="1.1" xmlns="http://www.w3.org/2000/svg" x="0px" y="0px" width="640px" height="480px" viewBox="0 0 640 480" enable-background="new 0 0 640 480"><rect fill="#107C94" width="640" height="480"/><g><path fill="#FAFEFA" d="M373.5,270.1c-1.8-8.2,7-10.4,14.3-8.5C391.4,270.1,380.1,272.3,373.5,270.1L373.5,270.1z M376.5,245.4c-3.9-8.3,3.7-11.9,8.2-8.2C389.3,240.8,386.2,248.6,376.5,245.4L376.5,245.4z M391.6,230.8l-3.3-2.2l-3,3.2c-6.6-1.4-12.6-0.2-14.8,5c-3,7.4,1.8,10.4,5.1,13.4c-6.5,4.6-5,4.5-1.4,8.6c-13.4,6.1-6.5,22.9,13.2,14.6c4.5-1.9,9.6-8,5.5-13.5c-4.6-6.2-13.2-0.3-16.2-5.4c1.5-4.7,8.8-2.1,12.7-6.6c3.8-4.4,2.7-10.1-0.4-13.7L391.6,230.8L391.6,230.8z"/><path fill="#FAFEFA" d="M299.4,267.8c-2.2,3.1-19.2,5.8-13.9-3c1.3-2.1,5.1-3.8,8.7-4.1C299.3,260.4,302.4,263.8,299.4,267.8L299.4,267.8z M290.4,236.2c7.4-2.4,10.7,7.5,4.6,9.9C287,249.2,283,238.6,290.4,236.2L290.4,236.2z M297.2,231.9c-7-1.2-12.5-0.5-15,5c-3.2,7,1.8,10.6,5.1,13.4c-2.1,1.4-7.1,2.7-2.3,8l0.9,1c-11.6,3.6-8.5,22.3,11.8,14.9c4.7-1.8,11.1-6.1,7.7-13.2c-2.9-5.8-12.3-2.5-16.9-5.4c0.9-6,8.2-2.5,12.4-7.2c4.1-4.6,2.8-9.9,0-13.9l2.3-3.1c-1.4-1.3-1.3-1.6-3.4-2.6L297.2,231.9L297.2,231.9z"/><path fill="#029EE3" d="M121.1,251.8c3,3.1,6.1,3.5,11.5,4.2c1.7-6.9,11.2-24,15.4-31c1.9-3.2,4.5-7,5.8-10.4l-12.5,0.2c-3.6,5.2-7.2,11.4-10.6,17.4c-4.4,7.7-5.1,10.6-8.2,17.2L121.1,251.8L121.1,251.8z"/><path fill="#FAFEFA" d="M507.4,260l5.8,0.2v-14.7c6.9,2.5,10.5,7.5,13.6,14.6l6.2,0.2c-1-3.6-2.8-6.6-4.8-9.5c-3-4.3-5.2-3.9-7.4-7.2c1.9-2,3.4-3.8,5.3-6.2c1.7-2.1,3.8-5,5.2-6.6c-7.5-1.2-7.3,0.6-10.5,4.9l-7.7,9.2l0.1-29.6l-5.5-0.1L507.4,260L507.4,260z"/><path fill="#FAFEFA" d="M402.8,242.3c1-4.8,2.6-7,7.4-7.7c5.6-0.8,7.1,2.7,7.3,7.8L402.8,242.3L402.8,242.3z M422.6,257.2v-5c-4.6,1.8-18.8,10.2-20.4-5.9l20.4,0.1c3.9-19.4-19.9-21.2-25-7C390.7,258.2,411.9,266.7,422.6,257.2L422.6,257.2z"/><path fill="#FAFEFA" d="M356.6,246.2l-0.2,7.6C347.5,262.2,341,249.8,356.6,246.2L356.6,246.2z M341.9,239.9c1.8-1.6,4.9-3.8,8.7-4.3c6.2-0.7,5.7,1.6,5.8,6.9c-6.4,1.4-14.2,4.7-15.4,10.7c-1.8,9.6,10.7,9,14.4,4.9c0.2,0.1,0.3,0.2,0.5,0.3l2.6,1.8c1.5,0.6,2.3,0.6,3.9,0.2c3.7-0.8,4.2-1.8,4-5.2c-5.8,2.7-4.2-1-4.1-7.4c0-3.7,0.4-9.8-0.9-13.1c-3.1-8.1-14-4.4-19.8-1.4L341.9,239.9L341.9,239.9z"/><path fill="#FAFEFA" d="M235.8,246.3c0.4,2.4,1,6.6-0.7,8.6c-1.1,1.2-5.5,2.6-7.4,1C222.6,251.4,232.3,247.1,235.8,246.3L235.8,246.3z M221.4,240c3.4-2.1,3.5-3.8,8.4-4.3c6-0.6,6.2,1.5,6.3,6.6c-4.6,2-13.5,4.1-15.2,10.6c-2.6,10.1,9.4,8.8,14.7,5.4c4.6,3,10.6,4.6,10.6-2.9l-3.7,1.2c-2.4-8.4,2.6-20.7-4.3-25c-3.2-1.9-8.2-2.1-11.8-1C221,232.5,221.4,234.2,221.4,240L221.4,240z"/><path fill="#FAFEFA" d="M328.2,257.1l1.4,3.1l4.7-0.2l0.1-29.3l-5.8-0.3c-0.1,6.1,0.4,13.2,0,19c-0.3,5.2-6.8,8.6-11.6,5.4c-2.8-2.2-1.6-19.9-1.7-24.3l-5.8,0.2c-0.2,17.7-3,29.9,9.2,30.1C323.4,260.9,324.9,259.4,328.2,257.1L328.2,257.1z"/><path fill="#FAFEFA" d="M483.6,234.1l-1-3.4h-5.5v29.7l5.8-0.1c0.3-6-0.2-12.1,0-18c0.2-7.3,8.2-8.6,11.4-6.8c4.6,3.4,1.8,18.2,2.4,25l5.6-0.2c0.2-5.2,0.6-21.4-1-25.2C498.4,228.2,487.4,229.1,483.6,234.1L483.6,234.1z"/><path fill="#FAFEFA" d="M257.1,234.2c-0.2-0.3-0.2-0.8-0.5-1.4c-0.1-0.2-0.2-0.4-0.2-0.5l-0.5-1c-0.1-0.2-0.2-0.4-0.2-0.6h-5v29.6h5.7c0.5-5.5,0.1-11.7,0.1-17.3c0.1-5.8,3.8-8.7,10.1-8.2c5.7,4.1,3,17.5,3.3,25.2l5.7,0.2c0.1-5.3,0.6-21.4-1-25.2C271.6,227.4,261.4,230.1,257.1,234.2L257.1,234.2z"/><path fill="#FAFEFA" d="M192.5,215.2c-1,3.6-0.7,39.2-0.3,45l25.6-0.3l-0.1-5.1h-19.4l-0.2-39.6H192.5L192.5,215.2z"/><polygon fill="#FAFEFA" points="437,260.2 462.6,260.2 462.6,254.8 443.1,254.8 442.8,215.2 437,215.3 "/><path fill="#FFFFFF" d="M144.6,272.2c-5.4-0.6-8.5-1-11.5-4.2c-9.7-10.2,17.2-45.1,20.5-53.4l-12.6,0.4c-6.4,13.8-46.3,62.6,0.9,66.2c7.3,0.6,27.2,1.1,33.4-1.6l0.4-8.2C164.9,272.2,155.4,273.5,144.6,272.2L144.6,272.2z"/><path fill="#FAFEFA" d="M132.7,256c-5.4-0.6-8.5-1-11.5-4.2c-9.8-10.2,17.2-45.1,20.4-53.4l-12.6,0.4c-6.4,13.8-46.3,62.6,0.9,66.2c7.3,0.6,27.2,1.1,33.4-1.6l0.4-8.2C153,256,143.4,257.3,132.7,256L132.7,256z"/><g><path fill="#FFFFFF" d="M467,225v-5.8h5.5v5.8L467,225L467,225z M467,260.2v-29.6h5.5v29.6H467z"/></g></g></svg>