<svg version="1.1" xmlns="http://www.w3.org/2000/svg" x="0px" y="0px" viewBox="0 0 136 64" enable-background="new 0 0 136 64">
<rect fill="none" width="136" height="64"></rect>
<path fill="#F03B4C" d="M21,12C10,12,1,21,1,32s9,20,20,20s20-9,20-20S32,12,21,12z"></path>
<path fill="#191919" d="M25.958,43.875c-0.365,0-0.721-0.06-1.075-0.179c-1.555-0.531-2.237-1.758-1.922-3.455c0.251-1.326,0.778-2.574,1.287-3.782l0.018-0.042c0.353-0.833,0.703-1.684,1.041-2.506c0.242-0.589,0.484-1.178,0.729-1.765c0.044-0.107,0.074-0.221,0.105-0.343c0.011-0.042,0.021-0.083,0.033-0.125h0c-0.112,0.108-0.225,0.214-0.339,0.321c-0.222,0.208-0.452,0.424-0.667,0.649c-0.577,0.612-1.152,1.227-1.726,1.843c-0.944,1.012-1.92,2.059-2.898,3.072c-0.689,0.713-1.534,1.508-2.589,2.001c-0.629,0.306-1.198,0.386-1.738,0.246c-0.985-0.259-1.513-1.088-1.449-2.275c0.054-1.105,0.429-2.131,0.827-3.076c0.411-0.97,0.853-1.943,1.281-2.884c0.202-0.445,0.405-0.89,0.604-1.336c0.202-0.448,0.405-0.896,0.608-1.344c0.559-1.234,1.138-2.51,1.677-3.774c0.168-0.386,0.279-0.807,0.387-1.214c0.049-0.183,0.097-0.366,0.15-0.546c0.022-0.073,0.024-0.157,0.027-0.246c0-0.011,0.001-0.023,0.001-0.034c-0.038,0.037-0.076,0.074-0.115,0.111c-0.131,0.125-0.267,0.254-0.371,0.396c-0.775,1.089-1.543,2.179-2.311,3.269c-0.219,0.308-0.437,0.616-0.654,0.924c-0.595,0.844-1.209,1.716-1.852,2.546c-0.352,0.45-0.819,0.858-1.348,1.182c-0.455,0.284-0.962,0.341-1.428,0.16c-0.507-0.197-0.902-0.654-1.083-1.253c-0.276-0.916,0.015-1.729,0.336-2.403c0.307-0.639,0.643-1.277,0.968-1.895c0.267-0.508,0.544-1.032,0.803-1.556c0.28-0.565,0.55-1.174,0.506-1.869c-0.025-0.428-0.208-0.78-0.544-1.047c-0.204-0.157-0.438-0.154-0.779,0.01c-0.529,0.248-0.984,0.656-1.479,1.324c-0.242,0.327-0.573,0.429-0.864,0.264c-0.186-0.111-0.31-0.27-0.352-0.448c-0.04-0.17-0.004-0.351,0.104-0.521c0.629-0.992,1.37-1.643,2.264-1.99c1.044-0.409,1.994-0.038,2.672,1.043c0.47,0.754,0.573,1.571,0.306,2.43c-0.244,0.795-0.575,1.549-0.894,2.253c-0.216,0.47-0.453,0.938-0.683,1.392c-0.217,0.427-0.441,0.87-0.644,1.307c-0.141,0.315-0.185,0.682-0.227,1.036c-0.013,0.1,0.053,0.244,0.141,0.327c0.049-0.002,0.187-0.056,0.239-0.115c0.097-0.104,0.194-0.205,0.292-0.306c0.349-0.362,0.709-0.736,0.993-1.152c0.544-0.796,1.078-1.617,1.595-2.411c0.429-0.658,0.872-1.339,1.318-2.003c0.493-0.726,1.034-1.444,1.61-2.134c0.458-0.537,0.916-0.835,1.442-0.939c0.42-0.081,0.846,0.028,1.198,0.306c0.395,0.312,0.642,0.795,0.679,1.325c0.054,0.705-0.033,1.381-0.258,2.01c-0.487,1.341-0.991,2.727-1.563,4.07c-0.437,1.034-0.899,2.076-1.346,3.084c-0.445,1.004-0.906,2.043-1.341,3.072c-0.23,0.55-0.392,1.141-0.549,1.712c-0.056,0.205-0.112,0.409-0.171,0.611c-0.028,0.09-0.032,0.199-0.038,0.337c-0.001,0.017-0.001,0.034-0.002,0.052c0.053-0.031,0.103-0.059,0.153-0.087c0.174-0.098,0.324-0.183,0.458-0.286c1.024-0.775,1.906-1.753,2.685-2.617c1.232-1.367,2.667-2.953,4.119-4.487c0.534-0.568,1.091-0.967,1.703-1.217c0.597-0.243,1.199-0.229,1.694,0.041c0.492,0.268,0.837,0.767,0.973,1.404c0.134,0.608,0.04,1.2-0.069,1.699c-0.248,1.14-0.695,2.228-1.127,3.28c-0.121,0.296-0.243,0.591-0.36,0.889c-0.461,1.176-0.918,2.38-1.395,3.679c-0.073,0.207-0.11,0.438-0.146,0.661c-0.019,0.116-0.037,0.231-0.06,0.345c-0.012,0.063-0.004,0.115,0.023,0.148c0.028,0.034,0.071,0.038,0.101,0.037c0.284-0.009,0.566-0.018,0.804-0.111c0.814-0.334,1.465-0.937,2.094-1.521c0.332-0.315,0.657-0.645,0.972-0.964c0.132-0.134,0.263-0.267,0.396-0.4c0.412-0.413,0.764-0.416,1.178-0.01c0.275,0.273,0.587,0.583,0.884,0.896c0.17,0.154,0.264,0.337,0.268,0.526c0.004,0.179-0.074,0.354-0.226,0.505l-0.172,0.172c-1.118,1.121-2.273,2.279-3.703,3.059C27.359,43.664,26.643,43.875,25.958,43.875z"></path>
<path fill="#191919" d="M58.724,15.214c0,0.62-0.155,1.177-0.465,1.671s-0.75,0.878-1.319,1.152s-1.222,0.41-1.955,0.41h-1.162v3.527h-1.627v-9.803h3.028c1.126,0,1.99,0.262,2.594,0.786C58.422,13.482,58.724,14.234,58.724,15.214z M57.015,15.269c0-0.551-0.177-0.977-0.529-1.275c-0.354-0.298-0.867-0.448-1.542-0.448h-1.121v3.527h1.046c0.675,0,1.201-0.153,1.579-0.458S57.015,15.861,57.015,15.269z"></path>
<path fill="#191919" d="M60.515,18.94c0.032,0.638,0.226,1.124,0.581,1.456s0.863,0.499,1.524,0.499c0.396,0,0.777-0.063,1.142-0.188s0.684-0.286,0.957-0.482v1.333c-0.265,0.173-0.62,0.314-1.066,0.424s-0.918,0.164-1.415,0.164c-1.062,0-1.885-0.318-2.468-0.954s-0.875-1.519-0.875-2.649c0-0.748,0.145-1.401,0.435-1.962c0.289-0.561,0.689-0.997,1.203-1.309c0.512-0.312,1.076-0.468,1.691-0.468c0.966,0,1.717,0.296,2.252,0.889c0.536,0.592,0.804,1.413,0.804,2.461v0.786H60.515z M63.708,17.75c0-0.556-0.13-0.98-0.39-1.271s-0.624-0.438-1.094-0.438c-0.429,0-0.8,0.158-1.114,0.475s-0.513,0.728-0.595,1.234H63.708z"></path>
<path fill="#191919" d="M71.404,21.975v-5.729h-3.103v5.729h-1.579v-7h6.261v7H71.404z"></path>
<path fill="#191919" d="M76.176,18.94c0.032,0.638,0.226,1.124,0.581,1.456s0.863,0.499,1.524,0.499c0.396,0,0.777-0.063,1.142-0.188s0.684-0.286,0.957-0.482v1.333c-0.265,0.173-0.62,0.314-1.066,0.424s-0.918,0.164-1.415,0.164c-1.062,0-1.885-0.318-2.468-0.954s-0.875-1.519-0.875-2.649c0-0.748,0.145-1.401,0.435-1.962c0.289-0.561,0.689-0.997,1.203-1.309c0.512-0.312,1.076-0.468,1.691-0.468c0.966,0,1.717,0.296,2.252,0.889c0.536,0.592,0.804,1.413,0.804,2.461v0.786H76.176z M79.368,17.75c0-0.556-0.13-0.98-0.39-1.271s-0.624-0.438-1.094-0.438c-0.429,0-0.8,0.158-1.114,0.475s-0.513,0.728-0.595,1.234H79.368z"></path>
<path fill="#191919" d="M84.994,16.247v5.729h-1.579v-5.729h-1.928v-1.271h5.435v1.271H84.994z"></path>
<path fill="#191919" d="M93.088,21.975v-4.908l-3.623,4.908h-1.347v-7h1.497v4.771l3.514-4.771h1.442v7H93.088z"></path>
<path fill="#191919" d="M99.274,16.247v5.729h-1.579v-5.729h-1.928v-1.271h5.435v1.271H99.274z"></path>
<path fill="#191919" d="M108.742,18.407c0,1.135-0.328,2.042-0.984,2.721s-1.547,1.019-2.673,1.019c-1.08,0-1.94-0.322-2.581-0.967c-0.64-0.645-0.96-1.519-0.96-2.622c0-1.162,0.328-2.078,0.984-2.748s1.565-1.005,2.728-1.005c1.094,0,1.948,0.32,2.563,0.96S108.742,17.286,108.742,18.407z M107.102,18.461c0-0.775-0.172-1.363-0.516-1.764c-0.345-0.401-0.817-0.602-1.419-0.602c-0.62,0-1.105,0.209-1.456,0.629s-0.526,1.012-0.526,1.777c0,0.743,0.176,1.32,0.526,1.733s0.841,0.619,1.47,0.619c0.634,0,1.112-0.203,1.436-0.608S107.102,19.245,107.102,18.461z"></path>
<path fill="#191919" d="M117.116,18.291c0,1.176-0.289,2.112-0.868,2.81s-1.362,1.046-2.352,1.046c-0.848,0-1.506-0.351-1.976-1.053h-0.027v4.102h-1.579v-10.22h1.579v1.121h0.027c0.556-0.861,1.331-1.292,2.324-1.292c0.894,0,1.595,0.312,2.105,0.937S117.116,17.215,117.116,18.291z M115.476,18.263c0-0.674-0.154-1.204-0.461-1.589c-0.309-0.385-0.737-0.578-1.289-0.578s-0.997,0.194-1.336,0.581c-0.34,0.387-0.51,0.889-0.51,1.504v0.896c0,0.515,0.162,0.94,0.485,1.275s0.727,0.502,1.21,0.502c0.602,0,1.068-0.223,1.401-0.67S115.476,19.097,115.476,18.263z"></path>
<path fill="#191919" d="M55.737,36.975v-0.964h-0.027c-0.487,0.757-1.178,1.135-2.071,1.135c-0.688,0-1.23-0.187-1.627-0.561c-0.396-0.373-0.595-0.879-0.595-1.518c0-0.656,0.193-1.183,0.581-1.579s0.957-0.642,1.709-0.738l2.044-0.28c0-0.953-0.442-1.429-1.326-1.429c-0.429,0-0.845,0.071-1.247,0.212c-0.404,0.141-0.763,0.331-1.077,0.567v-1.395c0.251-0.16,0.628-0.303,1.132-0.431c0.503-0.127,0.955-0.191,1.356-0.191c0.897,0,1.573,0.233,2.026,0.701c0.454,0.467,0.681,1.145,0.681,2.034v4.436H55.737z M52.968,34.903c0,0.301,0.109,0.541,0.328,0.722c0.219,0.18,0.497,0.27,0.834,0.27c0.47,0,0.856-0.16,1.162-0.481s0.458-0.726,0.458-1.214V33.57l-1.511,0.198c-0.479,0.068-0.811,0.188-0.994,0.355C53.06,34.293,52.968,34.553,52.968,34.903z"></path>
<path fill="#191919" d="M63.714,36.975V33.96h-3.104v3.015h-1.579v-7h1.579v2.714h3.104v-2.714h1.579v7H63.714z"></path>
<path fill="#191919" d="M68.964,31.247v5.728h-1.579v-7h4.087v1.271H68.964z"></path>
<path fill="#191919" d="M76.251,36.975v-5.728h-1.6c-0.15,1.522-0.341,2.689-0.57,3.5c-0.23,0.812-0.531,1.399-0.902,1.764c-0.372,0.365-0.86,0.547-1.467,0.547c-0.328,0-0.565-0.027-0.711-0.082v-1.148c0.109,0.037,0.244,0.055,0.403,0.055c0.347,0,0.637-0.193,0.872-0.581c0.234-0.387,0.436-0.993,0.604-1.818c0.169-0.824,0.326-1.993,0.472-3.506h4.478v7H76.251z"></path>
<path fill="#191919" d="M84.892,36.975v-4.908l-3.623,4.908h-1.347v-7h1.497v4.771l3.514-4.771h1.442v7H84.892z"></path>
<path fill="#191919" d="M93.437,36.975v-4.908l-3.623,4.908h-1.347v-7h1.497v4.771l3.514-4.771h1.442v7H93.437z M94.38,26.981c-0.036,0.283-0.113,0.549-0.229,0.8c-0.117,0.25-0.281,0.469-0.492,0.656c-0.213,0.187-0.474,0.334-0.783,0.441s-0.675,0.161-1.094,0.161c-0.405,0-0.764-0.054-1.073-0.161s-0.572-0.254-0.786-0.441s-0.381-0.406-0.499-0.656s-0.191-0.517-0.219-0.8h1.258c0.05,0.355,0.185,0.626,0.403,0.813s0.528,0.28,0.93,0.28h0.014c0.396,0,0.704-0.097,0.923-0.291s0.349-0.461,0.39-0.803H94.38z"></path>
<path fill="#191919" d="M101.954,36.681c-0.538,0.311-1.201,0.465-1.989,0.465c-0.675,0-1.274-0.146-1.802-0.438c-0.525-0.291-0.936-0.706-1.23-1.244c-0.293-0.537-0.44-1.139-0.44-1.805c0-0.761,0.151-1.433,0.454-2.016c0.304-0.583,0.743-1.036,1.32-1.357c0.576-0.321,1.245-0.482,2.006-0.482c0.296,0,0.604,0.033,0.923,0.099s0.572,0.151,0.759,0.256v1.497c-0.515-0.374-1.053-0.561-1.613-0.561c-0.656,0-1.188,0.22-1.596,0.66c-0.408,0.44-0.612,1.026-0.612,1.76c0,0.729,0.196,1.302,0.588,1.716c0.392,0.415,0.923,0.622,1.593,0.622c0.241,0,0.513-0.052,0.813-0.157c0.301-0.104,0.576-0.248,0.827-0.431V36.681z"></path>
<path fill="#191919" d="M107.881,36.975l-2.748-3.363h-0.027v3.363h-1.579v-7h1.579v3.192h0.027l2.604-3.192h2.003l-2.994,3.342l3.22,3.657H107.881z"></path>
<path fill="#191919" d="M117.226,33.406c0,1.135-0.328,2.042-0.984,2.721c-0.656,0.68-1.547,1.019-2.673,1.019c-1.08,0-1.94-0.322-2.581-0.967c-0.64-0.646-0.96-1.519-0.96-2.622c0-1.162,0.328-2.078,0.984-2.748s1.565-1.005,2.728-1.005c1.094,0,1.948,0.32,2.563,0.96S117.226,32.286,117.226,33.406z M115.585,33.461c0-0.774-0.172-1.362-0.516-1.763c-0.345-0.401-0.817-0.602-1.419-0.602c-0.62,0-1.105,0.209-1.456,0.629s-0.526,1.012-0.526,1.777c0,0.743,0.176,1.32,0.526,1.733c0.351,0.412,0.841,0.618,1.47,0.618c0.634,0,1.112-0.202,1.436-0.608C115.423,34.84,115.585,34.245,115.585,33.461z"></path>
<path fill="#191919" d="M120.377,31.247v5.728h-1.579v-7h4.088v1.271H120.377z"></path>
<path fill="#191919" d="M130.487,33.406c0,1.135-0.328,2.042-0.984,2.721c-0.656,0.68-1.547,1.019-2.673,1.019c-1.08,0-1.94-0.322-2.581-0.967c-0.64-0.646-0.96-1.519-0.96-2.622c0-1.162,0.328-2.078,0.984-2.748s1.565-1.005,2.728-1.005c1.094,0,1.948,0.32,2.563,0.96S130.487,32.286,130.487,33.406z M128.847,33.461c0-0.774-0.172-1.362-0.516-1.763c-0.345-0.401-0.817-0.602-1.419-0.602c-0.62,0-1.105,0.209-1.456,0.629s-0.526,1.012-0.526,1.777c0,0.743,0.176,1.32,0.526,1.733c0.351,0.412,0.841,0.618,1.47,0.618c0.634,0,1.112-0.202,1.436-0.608C128.685,34.84,128.847,34.245,128.847,33.461z"></path>
<path fill="#191919" d="M58.027,49.903c0,0.643-0.207,1.148-0.622,1.518s-0.986,0.554-1.716,0.554h-3.657v-7h3.445c0.752,0,1.323,0.143,1.712,0.428c0.391,0.284,0.585,0.707,0.585,1.268c0,0.41-0.129,0.76-0.386,1.049c-0.258,0.29-0.587,0.476-0.988,0.558c0.501,0.06,0.897,0.235,1.189,0.53C57.881,49.1,58.027,49.466,58.027,49.903z M56.133,46.896c0-0.273-0.087-0.477-0.26-0.608s-0.474-0.198-0.902-0.198h-1.36v1.757h1.278c0.396,0,0.703-0.078,0.919-0.236C56.025,47.453,56.133,47.215,56.133,46.896z M56.373,49.903c0-0.647-0.449-0.971-1.347-0.971h-1.415v1.9h1.518c0.415,0,0.726-0.073,0.934-0.219C56.269,50.469,56.373,50.231,56.373,49.903z"></path>
<path fill="#191919" d="M66.585,43.573v8.401h-1.641v-8.401h-2.81v-1.401h7.266v1.401H66.585z"></path>
<path fill="#191919" d="M69.805,55.263c-0.392,0-0.716-0.036-0.97-0.109v-1.347c0.25,0.114,0.507,0.171,0.772,0.171c0.561,0,0.971-0.299,1.23-0.896l0.479-1.107l-2.802-7h1.777l1.798,5.407h0.027l1.859-5.407h1.606l-3.035,7.841c-0.319,0.848-0.706,1.468-1.162,1.859S70.401,55.263,69.805,55.263z"></path>
<path fill="#191919" d="M76.641,51.975v-7h1.579v5.729h2.386v-5.729h1.579v5.729h2.386v-5.729h1.579v7H76.641z"></path>
<path fill="#191919" d="M93.211,51.975v-4.908l-3.623,4.908h-1.347v-7h1.497v4.771l3.514-4.771h1.442v7H93.211z"></path>
<path fill="#191919" d="M101.469,51.975V48.96h-3.104v3.015h-1.579v-7h1.579v2.714h3.104v-2.714h1.579v7H101.469z"></path>
<path fill="#191919" d="M111.818,48.406c0,1.135-0.328,2.042-0.984,2.721s-1.547,1.019-2.673,1.019c-1.08,0-1.94-0.322-2.581-0.968c-0.64-0.645-0.96-1.519-0.96-2.621c0-1.162,0.328-2.078,0.984-2.748s1.565-1.005,2.728-1.005c1.094,0,1.948,0.32,2.563,0.96C111.511,46.404,111.818,47.285,111.818,48.406z M110.178,48.461c0-0.774-0.172-1.362-0.516-1.764c-0.345-0.401-0.817-0.602-1.419-0.602c-0.62,0-1.105,0.21-1.456,0.629s-0.526,1.012-0.526,1.777c0,0.743,0.176,1.32,0.526,1.732c0.351,0.413,0.841,0.619,1.47,0.619c0.634,0,1.112-0.203,1.436-0.608S110.178,49.245,110.178,48.461z"></path>
</svg>
