<svg version="1.1" xmlns="http://www.w3.org/2000/svg" x="0px" y="0px" width="640px" height="480px" viewBox="0 0 640 480" enable-background="new 0 0 640 480"><rect fill="#23333D" width="640" height="480"/><g><path fill="#0A3565" d="M290.7,368.2c1.7-4.2,8.2-5,13.2-6.6c4.2-1.7,11.5-3.3,16.5-2.5c3.3,10.7-4.2,9,13.2,9c16.5,0,9.9,1.7,12.4-9c3.3-0.8,16.5,1.7,18.2,2.5l8.2,3.3c1.7,1.7,2.5,1.7,2.5,5c-6.6,3.3-9.9,5.8-18.2,6.6c-18.2,2.5-46.2,4.2-62.7-5C289.9,369.9,292.4,370.7,290.7,368.2z M160.4,157.9v-13.2c0-14,10.7-23.9,21.4-32.2c1.7-0.8,2.5-1.7,5-2.5c5-3.3,9.9-5.8,15.7-7.4l19-4.2c20.6,0,25.6-1.7,45.4,5c12.4,3.3,23.1,10.7,31.4,19.8l6.6,9.9c2.5,4.2,0.8,5,4.2,5h22.2c5,0,0-9.9,13.2-19.8l18.2-14.9c18.2-14,28.1-4.2,29.7-3.3c8.2,1.7,3.3-3.3,17.4,4.2c7.4,5,10.7,9,14.9,17.4c1.7,1.7,3.3,5,4.2,6.6c0.8,3.3,0.8,5.8,0.8,9.9h47.8c1.7,0,2.5,0.8,2.5,2.5v184.8c0,1.7-1.7,3.3-3.3,3.3H348.5v24.7c3.3,0,6.6,1.7,9.9,2.5c2.5,0,3.3,0,5,0.8c4.2,0.8,9,2.5,13.2,5c4.2,3.3,5.8,8.2,1.7,12.4c-8.2,6.6-28.9,9.9-37.9,9.9c-21.4,0-15.7,0.8-35.4-2.5l-10.7-3.3c-8.2-4.2-14-9.9-4.2-17.4c5.8-3.3,22.2-7.4,28.9-7.4v-24.7H188.4c-4.2,0-2.5-6.6-2.5-10.7V205.8c0-15.7,1.7-14-5.8-19c-4.2-2.5-9.9-7.4-13.2-11.5C162.1,167,160.4,162.9,160.4,157.9z M323.7,327.8h19c0.8,0.8,1.7,35.4-0.8,37.1c-2.5,1.7-9,0-12.4,0.8c-7.4,0-5.8-0.8-5.8-9C323.7,350.9,322.9,331.9,323.7,327.8z M420.2,308l-6.6-0.8c0-0.8,3.3-10.7,4.2-13.2c2.5-5.8,2.5-12.4,5-14c2.5,3.3,3.3,25.6,3.3,27.2L420.2,308z M324.6,271.8c2.5,2.5,2.5,5.8,3.3,9.9l6.6,20.6c1.7,5.8,2.5,5.8-5,5.8c-4.2,0-5.8-2.5-7.4-5.8C313.8,292.3,319.6,278.3,324.6,271.8z M445.8,266.8c3.3,4.2,2.5,37.1,2.5,41.3c-3.3,0-6.6,0-9,0c-1.7,0-4.2,0-5,0c-6.6,0-4.2-5.8-6.6-25.6c-0.8-5.8,0-19.8-5-21.4c-2.5,4.2-4.2,19.8-7.4,23.9c0,5.8-5,19.8-8.2,23.1h-66c-1.7-2.5-11.5-37.1-13.2-43.7c-0.8-4.2-0.8-5-4.2-5c0,0-0.8,0-0.8,0.8v1.7c-0.8,1.7,0,1.7-0.8,4.2c0,0.8-1.7,3.3-2.5,5c-14,24.7-1.7,30.5-0.8,36.3h-14.9c-9-13.2-10.7-15.7-6.6-31.4c3.3-13.2,20.6-46.2,29.7-54.5c4.2-3.3,9.9-5,14-6.6c4.2-0.8,12.4-5,15.7-5l10.7,29.7c1.7,5,9.9,28.9,11.5,31.4c3.3-0.8,5.8-10.7,7.4-14l17.4-47c3.3,0,5.8,1.7,9,2.5c6.6,2.5,17.4,1.7,24.7,13.2C442.5,233,446.6,259.4,445.8,266.8z M363.3,211.5c8.2,2.5,19,5.8,28.1,0.8c3.3-1.7,4.2-2.5,6.6-3.3l-14.8,44.6c-2.5,5.8-1.7,4.2-3.3,5c-2.5-1.7-4.2-8.2-5-10.7C371.5,237.1,364.2,219.8,363.3,211.5z M365.8,193.4c4.2,0.8,5.8,5,13.2,5c9.9,0.8,10.7-4.2,12.4-2.5c0.8,1.7,2.5,8.2,2.5,10.7c-8.2,5.8-20.6,5-28.1,0V193.4z M452.4,307.2c-0.8-19.8,0-37.1-3.3-56.1c-2.5-9-1.7-16.5-5.8-23.9c-8.2-15.7-17.4-14.9-26.4-18.2c-4.2-0.8-5.8-2.5-9.9-4.2c-4.2-0.8-9-0.8-9.9-5c-4.2-12.4,15.7-0.8,29.7-35.4c0.8-2.5,0.8-3.3,1.7-5h29.7c0,46.2,0.8,97.4,0,142.7v5.8L452.4,307.2z M308,241.2c-31.4,54.5-11.5,55.3-10.7,66c-16.5,0.8-80,1.7-90.7,0v-1.7v-0.8c0,0,0-0.8-0.8-1.7l0.8-103.9c4.2,0,15.7,3.3,30.5,2.5c17.4,0,26.4-2.5,39.6-9c5.8-2.5,9,2.5,28.9,2.5c3.3-0.8,5-0.8,7.4-1.7c4.2-0.8,4.2-1.7,5-3.3c-3.3-4.2-11.5-4.2-18.2-14c0.8-2.5,4.2-7.4,5.8-9.9c1.7-5.8,0-7.4,7.4-7.4l19.8,0.8c1.7,5.8,1.7,9,4.2,14c10.7,15.7,23.9,8.2,24.7,20.6c0,3.3,0,5.8-0.8,8.2c-1.7,0.8-17.4,6.6-20.6,8.2c-11.5,4.2-3.3-0.8-11.5,5c-2.5,1.7-5.8,3.3-7.4,4.2L308,241.2z M359.2,162.9c5-0.8,7.4,1.7,13.2,0c4.2-0.8,4.2-3.3,5.8-7.4l6.6,0.8c1.7,3.3,1.7,5,6.6,5.8c4.2,0.8,8.2,0,12.4,0.8c0.8,7.4-1.7,16.5-5,21.4c-2.5,3.3-4.2,5-7.4,6.6c-8.2,4.2-15.7,8.2-27.2-6.6C360.8,181,359.2,168.6,359.2,162.9z M361.7,153.8c1.7-0.8,0-0.8,3.3-0.8c0.8,0,1.7,0,2.5,0c1.7,0,4.2,0,5.8,0C373.2,162.9,360.8,160.4,361.7,153.8z M402.1,157c-0.8,0.8,0,0.8-1.7,0.8c-14,3.3-14.9-8.2,0-7.4C402.1,153.8,403.8,154.6,402.1,157z M308,189.3c-6.6,5-23.9-2.5-28.1-2.5c-1.7,0-9,4.2-10.7,5c-27.2,12.4-87.4,6.6-102.3-27.2s26.4-60.2,60.2-61c20.6-0.8,37.9,2.5,52,10.7c12.4,7.4,25.6,19,24.7,37.1c0,9.9-4.2,14.9-9,22.2C290.7,179.4,305.6,185.9,308,189.3z M190.9,192.6c0.8,0,9,4.2,10.7,5c1.7,23.1-2.5,102.3,0.8,114.6H463c0.8-47,0-103.9,0-151.8c0-5.8,0.8-5.8-5-5.8h-29.7c-1.7-14.9,0.8-11.5,18.2-11.5c3.3,0,26.4-0.8,27.2,1.7v118.8c0,19,1.7,41.3,0,59.4c-5.8,1.7-60.2,0-71,0c-30.5,0-207.8,1.7-212.8,0L190.9,192.6z M315.4,155.4c-5.8,0-7.4,0.8-7.4-4.2c-0.8-4.2-1.7-8.2,2.5-8.2c5,0,19.8-0.8,23.1,0.8c2.5,14-3.3,11.5-6.6,11.5L315.4,155.4L315.4,155.4z M380.6,151.3c0-3.3,2.5-4.2,5-6.6c4.2-5,2.5-4.2,6.6-5c2.5,0.8,0.8,0,2.5,2.5c0.8,1.7,0.8,0.8,1.7,2.5c-2.5,1.7-5,2.5-8.2,4.2C383.9,151.3,386.4,152.2,380.6,151.3z M356.7,181.8c-3.3-0.8-10.7-5-12.4-7.4c-4.2-3.3-5.8-8.2-6.6-13.2c-1.7-10.7-1.7-25.6,5-33.8c5-5.8,25.6-23.9,34.6-25.6c7.4-1.7,9.9,0.8,13.2,4.2c5,5,4.2-5,14,2.5c4.2,2.5,6.6,4.2,9,6.6c14,14,12.4,39.6,6.6,53.6c-2.5,5.8-9,14.9-15.7,16.5c0-4.2,2.5-9.9,3.3-14.9c4.2-17.4-6.6-25.6-10.7-31.4c-0.8-3.3-0.8-4.2-1.7-6.6c-5.8,0-9.9,5.8-14,9.9c-6.6,6.6-10.7,5-16.5,5C349.3,148.8,357.5,171.1,356.7,181.8z"/><path fill="#F8F6EB" d="M299.8,176.1c6.6,9.9,14.9,9.9,18.2,14c-0.8,1.7-0.8,2.5-5,3.3c-2.5,0.8-4.2,0.8-7.4,1.7c-19.8,0-23.1-5-28.9-2.5c-13.2,6.6-22.2,9-39.6,9c-14.9,0.8-26.4-2.5-30.5-2.5L205.8,303c0.8,0.8,0.8,1.7,0.8,1.7v0.8v1.7c10.7,1.7,74.2,0.8,90.7,0c-0.8-10.7-20.6-11.5,10.7-66l13.2-21.4c1.7-0.8,5-2.5,7.4-4.2c8.2-5.8,0-0.8,11.5-5c3.3-1.7,19-7.4,20.6-8.2c0.8-2.5,0.8-5,0.8-8.2c-0.8-12.4-14-5-24.7-20.6c-2.5-5-2.5-8.2-4.2-14l-19.8-0.8c-7.4,0-5.8,1.7-7.4,7.4C303.9,168.6,300.6,173.6,299.8,176.1z"/><path fill="#E5B379" d="M415.3,285c1.7-11.5,2.5-7.4,3.3-13.2c0-3.3,0.8-3.3,0.8-5.8c1.7-3.3,0-4.2,3.3-6.6c2.5,0.8,5,0.8,5,8.2l4.2,38.8c3.3,1.7,11.5,1.7,14.9,0.8c2.5-11.5-1.7-29.7-0.8-40.4c0.8-7.4-3.3-33.8-8.2-41.3c-7.4-11.5-18.2-10.7-24.7-13.2c-3.3-0.8-5.8-2.5-9-2.5l-17.4,47c-1.7,3.3-4.2,13.2-7.4,14c-1.7-2.5-9.9-26.4-11.5-31.4l-10.7-29.7c-3.3,0-11.5,4.2-15.7,5c-4.2,1.7-9.9,3.3-14,6.6c-9,8.2-26.4,41.3-29.7,54.5c-4.2,15.7-2.5,18.2,6.6,31.4h14.9c-0.8-5.8-13.2-11.5,0.8-36.3c0.8-1.7,2.5-4.2,2.5-5c0.8-2.5,0-2.5,0.8-4.2v-1.7c0-0.8,0.8-0.8,0.8-0.8c3.3,0,3.3,0.8,4.2,5c1.7,6.6,11.5,41.3,13.2,43.7h66C410.3,304.7,415.3,290.7,415.3,285z"/><path fill="#F8F6EB" d="M198.3,165.4c15.7,0,61-0.8,74.2,0.8v4.2h-74.2c-2.5,0-5.8,0.8-5.8-2.5C192.6,165.4,195.8,165.4,198.3,165.4z M209,152.2c-11.5,0-14.9,1.7-16.5-2.5c1.7-1.7-2.5-1.7,8.2-1.7h44.6c3.3,0,5.8,0,9,0c8.2,0,5.8,0,6.6,1.7c-0.8,4.2-1.7,2.5-6.6,2.5H209z M267.6,129.8l5,0.8v3.3l-5,0.8h-69.3c-8.2,0-8.2-5,0-5L267.6,129.8L267.6,129.8z M308,189.3c-2.5-3.3-17.4-9.9-13.2-15.7c5-7.4,9-12.4,9-22.2c0.8-18.2-12.4-29.7-24.7-37.1c-14-8.2-31.4-11.5-52-10.7c-33.8,0.8-75,27.2-60.2,61s75,39.6,102.3,27.2c1.7-0.8,9-5,10.7-5C284.1,186.8,301.4,194.2,308,189.3z"/><path fill="#B8C0CF" d="M428.5,154.6h29.7c5.8,0,5,0,5,5.8c0,47.8,0.8,104.7,0,151.8H202.5c-3.3-12.4,0.8-91.5-0.8-114.6c-1.7-0.8-9.9-5-10.7-5l-0.8,130.3c5,1.7,182.3,0,212.8,0c10.7,0,65.2,1.7,71,0c1.7-18.2,0-40.4,0-59.4V144.7c-0.8-2.5-23.9-1.7-27.2-1.7C429.3,143,426.8,139.8,428.5,154.6z"/><path fill="#FCC33B" d="M356.7,181.8c0.8-10.7-7.4-33,8.2-34.6c5.8,0,9.9,1.7,16.5-5c4.2-4.2,8.2-9.9,14-9.9c0.8,2.5,0.8,3.3,1.7,6.6c4.2,5.8,14.9,14,10.7,31.4c-0.8,5-3.3,10.7-3.3,14.9c6.6-1.7,13.2-10.7,15.7-16.5c5.8-14,7.4-39.6-6.6-53.6c-2.5-2.5-5-4.2-9-6.6c-9.9-7.4-9,2.5-14-2.5c-3.3-3.3-5.8-5.8-13.2-4.2c-9,1.7-29.7,19.8-34.6,25.6c-6.6,8.2-6.6,23.1-5,33.8c0.8,5,2.5,9.9,6.6,13.2C346,176.9,353.4,181,356.7,181.8z"/><path fill="#F8F6EB" d="M452.4,307.2l5.8,0.8v-5.8c0.8-45.4,0-96.5,0-142.7h-29.7c-0.8,1.7-0.8,2.5-1.7,5c-14,34.6-33.8,23.1-29.7,35.4c0.8,4.2,5.8,4.2,9.9,5c4.2,1.7,5.8,3.3,9.9,4.2c9,3.3,18.2,2.5,26.4,18.2c4.2,7.4,3.3,14.9,5.8,23.9C452.4,270.1,451.6,287.4,452.4,307.2z"/><path fill="#F5DCB7" d="M387.2,183.4c-8.2,5-16.5-1.7-17.4-5.8c0,0,0.8-2.5,5,0.8c10.7,7.4,7.4-0.8,15.7-0.8C390.6,181.8,389.7,181.8,387.2,183.4z M359.2,162.9c0,5.8,1.7,18.2,5,21.4c11.5,14.9,19,10.7,27.2,6.6c3.3-1.7,5-3.3,7.4-6.6c3.3-5,5.8-14,5-21.4c-4.2-0.8-8.2,0-12.4-0.8c-5-0.8-5-2.5-6.6-5.8l-6.6-0.8c-1.7,4.2-1.7,6.6-5.8,7.4C366.6,164.5,364.2,162,359.2,162.9z"/><path fill="#B8C0CF" d="M290.7,368.2c1.7,2.5-0.8,1.7,3.3,3.3c16.5,9,44.6,7.4,62.7,5c8.2-0.8,11.5-3.3,18.2-6.6c0-3.3-0.8-3.3-2.5-5l-8.2-3.3c-1.7-0.8-14.9-3.3-18.2-2.5c-2.5,10.7,4.2,9-12.4,9c-17.4,0-9.9,1.7-13.2-9c-5-0.8-12.4,0.8-16.5,2.5C299,363.3,292.4,364.1,290.7,368.2z"/><path fill="#F8F6EB" d="M363.3,211.5c0.8,8.2,8.2,25.6,11.5,36.3c0.8,2.5,2.5,9,5,10.7c1.7-0.8,0.8,0.8,3.3-5l14.9-44.6c-2.5,0.8-3.3,1.7-6.6,3.3C382.2,217.3,371.5,214,363.3,211.5z"/><path fill="#B8C0CF" d="M323.7,327.8c-0.8,4.2,0,23.1,0,28.9c0,8.2-1.7,9,5.8,9c3.3-0.8,9.9,0.8,12.4-0.8c2.5-1.7,1.7-36.3,0.8-37.1H323.7z"/><path fill="#F8F6EB" d="M324.6,271.8c-5,6.6-10.7,20.6-2.5,30.5c1.7,3.3,3.3,5.8,7.4,5.8c7.4,0,6.6,0,5-5.8l-6.6-20.6C327,277.5,327,274.2,324.6,271.8z"/><path fill="#0A3565" d="M198.3,170.2h74.2v-4.2c-13.2-1.7-58.6-0.8-74.2-0.8c-2.5,0-5.8,0-5.8,2.5C192.6,171.1,195.8,170.2,198.3,170.2z"/><path fill="#0A3565" d="M198.3,134.8h69.3l5-0.8v-3.3l-5-0.8h-69.3C190.1,129.8,190.1,134.8,198.3,134.8z"/><path fill="#F5DCB7" d="M365.8,206.6c7.4,5,19.8,5.8,28.1,0c0-2.5-1.7-9-2.5-10.7c-1.7-1.7-2.5,3.3-12.4,2.5c-7.4,0-9-4.2-13.2-5V206.6z"/><path fill="#0A3565" d="M192.6,149.7c1.7,4.2,5,2.5,16.5,2.5h45.4c5,0,5.8,1.7,6.6-2.5c-0.8-1.7,1.7-1.7-6.6-1.7c-3.3,0-5.8,0-9,0h-44.6C190.1,148,194.2,148,192.6,149.7z"/><polygon fill="#B8C0CF" points="308.9,153.8 332,154.6 332,143.8 308.9,143.8 "/><path fill="#F8F6EB" d="M426,307.2c0-1.7-0.8-23.9-3.3-27.2c-2.5,1.7-2.5,8.2-5,14c-0.8,2.5-4.2,12.4-4.2,13.2l6.6,0.8L426,307.2z"/><path fill="#676B6E" d="M415.3,285c3.3-4.2,5-19.8,7.4-23.9c5,1.7,4.2,15.7,5,21.4c2.5,19.8,0,25.6,6.6,25.6c0.8,0,3.3,0,5,0c2.5,0,5.8,0,9,0c0-4.2,0.8-37.1-2.5-41.3c-0.8,10.7,3.3,28.9,0.8,40.4c-3.3,0.8-11.5,0.8-14.9-0.8l-4.2-38.8c0-7.4-2.5-7.4-5-8.2c-3.3,2.5-1.7,3.3-3.3,6.6c0,2.5-0.8,2.5-0.8,5.8C417.8,277.5,417,273.4,415.3,285z"/><path fill="#0A3565" d="M369.9,177.7c0.8,4.2,9,10.7,17.4,5.8c2.5-1.7,3.3-1.7,3.3-5.8c-8.2,0-5,8.2-15.7,0.8C370.7,175.2,369.9,177.7,369.9,177.7z"/><path fill="#F5DCB7" d="M402.1,157c1.7-2.5,0-3.3-1.7-6.6c-14.9-0.8-14,10.7,0,7.4C402.1,157.9,401.3,157.9,402.1,157z"/><path fill="#F5DCB7" d="M380.6,151.3c5.8,0.8,3.3,0,7.4-2.5c3.3-1.7,5.8-2.5,8.2-4.2c-0.8-1.7-0.8-0.8-1.7-2.5c-1.7-2.5,0-1.7-2.5-2.5c-4.2,0.8-2.5,0-6.6,5C383.1,147.2,380.6,148,380.6,151.3z"/><path fill="#0A3565" d="M308.9,143.8H332v10.7l-23.1-0.8V143.8z M315.4,155.4H327c3.3,0,9,2.5,6.6-11.5c-3.3-1.7-18.2-0.8-23.1-0.8c-4.2,0-3.3,4.2-2.5,8.2C308,156.2,309.7,155.4,315.4,155.4z"/><path fill="#F5DCB7" d="M361.7,153.8c-0.8,6.6,11.5,9,11.5-0.8c-1.7,0-4.2,0-5.8,0c-0.8,0-1.7,0-2.5,0C361.7,153,363.3,153,361.7,153.8z"/></g></svg>