<!-- Generated by IcoMoon.io -->
<svg version="1.1" xmlns="http://www.w3.org/2000/svg" width="32" height="32" viewBox="0 0 32 32">
<title>englishextra</title>
<path d="M21.87 30.143c-0.446 0-0.886-0.071-1.325-0.216-1.896-0.63-2.755-2.163-2.361-4.2 0.305-1.568 0.93-3.029 1.538-4.438 0.434-1.009 0.837-1.973 1.239-2.943 0.289-0.693 0.579-1.387 0.871-2.080 0.004-0.009 0.009-0.021 0.014-0.030-0.264 0.243-0.529 0.491-0.789 0.752-0.679 0.707-1.355 1.423-2.032 2.141-1.118 1.184-2.277 2.407-3.443 3.586-0.809 0.829-1.813 1.759-3.109 2.355-0.77 0.37-1.473 0.464-2.145 0.293-1.245-0.323-1.907-1.35-1.816-2.813 0.054-1.216 0.43-2.336 0.982-3.643 0.48-1.113 0.993-2.227 1.489-3.305 0.25-0.541 0.496-1.079 0.741-1.62l0.607-1.334c0.707-1.543 1.414-3.088 2.098-4.643 0.195-0.443 0.33-0.934 0.461-1.407 0.045-0.168 0.093-0.336 0.141-0.502-0.1 0.098-0.193 0.195-0.268 0.3-0.895 1.279-1.804 2.557-2.714 3.821-0.277 0.38-0.552 0.766-0.825 1.15-0.684 0.959-1.395 1.952-2.136 2.902-0.452 0.555-1.014 1.043-1.636 1.405-0.589 0.357-1.241 0.423-1.834 0.184-0.623-0.252-1.107-0.816-1.327-1.545-0.354-1.13 0.029-2.148 0.398-2.909 0.354-0.727 0.745-1.452 1.118-2.157 0.329-0.618 0.661-1.236 0.975-1.862 0.32-0.648 0.63-1.343 0.579-2.093-0.025-0.459-0.218-0.834-0.58-1.111-0.193-0.146-0.421-0.143-0.782 0.025-0.754 0.345-1.291 0.952-1.714 1.5-0.325 0.438-0.78 0.568-1.186 0.343-0.266-0.157-0.436-0.379-0.491-0.627-0.054-0.236-0.004-0.482 0.143-0.714 0.727-1.168 1.645-1.966 2.729-2.375 1.3-0.491 2.514-0.027 3.334 1.279 0.57 0.893 0.704 1.918 0.386 2.959-0.296 0.954-0.709 1.873-1.075 2.648-0.246 0.529-0.516 1.052-0.784 1.577-0.268 0.523-0.537 1.050-0.784 1.579-0.145 0.318-0.191 0.679-0.237 1.059l-0.016 0.114c-0.004 0.037 0.027 0.118 0.082 0.191 0.050-0.018 0.109-0.045 0.13-0.068 0.132-0.143 0.261-0.277 0.391-0.407 0.391-0.405 0.796-0.821 1.12-1.28 0.618-0.898 1.225-1.807 1.83-2.72 0.536-0.805 1.073-1.616 1.623-2.418 0.629-0.902 1.271-1.743 1.911-2.493 0.579-0.657 1.145-1.018 1.786-1.136 0.546-0.105 1.102 0.043 1.555 0.409 0.479 0.388 0.779 0.979 0.825 1.62 0.075 0.843-0.030 1.634-0.318 2.414l-0.179 0.479c-0.527 1.402-1.073 2.854-1.668 4.243-0.516 1.2-1.050 2.387-1.586 3.577-0.539 1.195-1.075 2.393-1.595 3.595-0.286 0.673-0.486 1.4-0.679 2.105-0.054 0.195-0.107 0.393-0.162 0.587-0.016 0.045-0.023 0.098-0.029 0.155 0.182-0.102 0.341-0.193 0.477-0.295 1.17-0.879 2.182-1.971 3.164-3.030 1.543-1.691 3.2-3.493 4.875-5.229 0.627-0.664 1.321-1.15 2.064-1.445 0.755-0.298 1.518-0.271 2.139 0.071 0.604 0.334 1.027 0.943 1.202 1.714 0.159 0.736 0.039 1.477-0.082 2.041-0.3 1.355-0.839 2.65-1.366 3.902-0.136 0.33-0.275 0.657-0.409 0.991-0.67 1.695-1.177 3.018-1.648 4.288-0.082 0.223-0.12 0.47-0.163 0.73-0.020 0.141-0.043 0.279-0.073 0.414l0.113 0.030c0.282-0.009 0.571-0.020 0.795-0.114 0.941-0.377 1.702-1.073 2.436-1.75 0.505-0.47 1.009-0.977 1.495-1.466l0.123-0.123c0.543-0.536 1.048-0.538 1.577-0.016 0.384 0.37 0.718 0.693 1.052 1.048 0.218 0.23 0.332 0.491 0.329 0.752-0.002 0.245-0.109 0.48-0.305 0.68l-0.198 0.195c-1.33 1.316-2.704 2.68-4.429 3.598-0.943 0.502-1.805 0.754-2.639 0.754z"></path>
</svg>
