<!-- Generated by IcoMoon.io -->
<svg version="1.1" xmlns="http://www.w3.org/2000/svg" width="32" height="32" viewBox="0 0 32 32">
<title>FavoriteList</title>
<path d="M32 12v2h-13.72c-0.375-1.229-0.752-2.445-1.132-3.648s-0.762-2.42-1.148-3.648c-0.386 1.229-0.768 2.445-1.148 3.648s-0.757 2.42-1.132 3.648h-7.845c1.063 0.813 2.114 1.625 3.157 2.438 1.041 0.813 2.098 1.62 3.171 2.421-0.416 1.291-0.823 2.575-1.22 3.852s-0.791 2.561-1.188 3.852c1.041-0.802 2.075-1.598 3.102-2.391s2.061-1.589 3.102-2.391v2.532l-10 7.688 3.875-12.407-9.875-7.593h12.25l3.75-12 3.75 12h12.25zM18 18h14v2h-14v-2zM18 24h14v2h-14v-2zM18 30h14v2h-14v-2z"></path>
</svg>
