<!-- Generated by IcoMoon.io -->
<svg version="1.1" xmlns="http://www.w3.org/2000/svg" width="32" height="32" viewBox="0 0 32 32">
<title>More</title>
<path d="M4 14c0.282 0 0.541 0.052 0.782 0.157 0.239 0.104 0.45 0.248 0.632 0.43s0.325 0.393 0.43 0.632 0.157 0.5 0.157 0.782-0.052 0.541-0.157 0.782-0.248 0.45-0.43 0.632-0.393 0.325-0.632 0.43c-0.239 0.104-0.5 0.157-0.782 0.157s-0.541-0.052-0.782-0.157-0.45-0.248-0.632-0.43-0.325-0.393-0.43-0.632-0.157-0.5-0.157-0.782 0.052-0.541 0.157-0.782 0.248-0.45 0.43-0.632 0.393-0.325 0.632-0.43 0.502-0.157 0.782-0.157zM16 14c0.282 0 0.541 0.052 0.782 0.157s0.45 0.248 0.632 0.43 0.325 0.393 0.43 0.632 0.157 0.5 0.157 0.782-0.052 0.541-0.157 0.782-0.248 0.45-0.43 0.632-0.393 0.325-0.632 0.43-0.5 0.157-0.782 0.157-0.541-0.052-0.782-0.157-0.45-0.248-0.632-0.43-0.325-0.393-0.43-0.632-0.157-0.5-0.157-0.782 0.052-0.541 0.157-0.782 0.248-0.45 0.43-0.632 0.393-0.325 0.632-0.43 0.502-0.157 0.782-0.157zM28 14c0.282 0 0.541 0.052 0.782 0.157s0.45 0.248 0.632 0.43 0.325 0.393 0.43 0.632 0.157 0.5 0.157 0.782-0.052 0.541-0.157 0.782-0.248 0.45-0.43 0.632-0.393 0.325-0.632 0.43-0.5 0.157-0.782 0.157-0.541-0.052-0.782-0.157-0.45-0.248-0.632-0.43-0.325-0.393-0.43-0.632-0.157-0.5-0.157-0.782 0.052-0.541 0.157-0.782 0.248-0.45 0.43-0.632 0.393-0.325 0.632-0.43 0.502-0.157 0.782-0.157z"></path>
</svg>
