<!-- Generated by IcoMoon.io -->
<svg version="1.1" xmlns="http://www.w3.org/2000/svg" width="32" height="32" viewBox="0 0 32 32">
<title>qr-scanner</title>
<path d="M3.693 5.861c0-0.534 0.402-0.936 0.936-0.936h5.218v-3.693h-5.141c-2.573 0-4.705 2.055-4.705 4.629v5.218h3.693v-5.218z"></path>
<path d="M27.352 1.232h-5.198v3.693h5.171c0.534 0 0.984 0.402 0.984 0.936v5.218h3.691v-5.218c0-2.573-2.075-4.629-4.648-4.629z"></path>
<path d="M28.307 26.063c0 0.534-0.402 0.936-0.936 0.936h-5.218v3.77h5.218c2.573 0 4.629-2.132 4.629-4.705v-5.141h-3.693v5.141z"></path>
<path d="M4.629 26.998c-0.534 0-0.936-0.402-0.936-0.936v-5.141h-3.693v5.141c0 2.573 2.132 4.705 4.705 4.705h5.141v-3.77h-5.218z"></path>
</svg>
