<svg version="1.1" xmlns="http://www.w3.org/2000/svg" x="0px" y="0px" viewBox="0 0 16 16" enable-background="new 0 0 16 16"><rect fill="none" width="16" height="16"/><path fill="#191919" d="M10.204,13.25c-0.162,0-0.321-0.027-0.478-0.079c-0.691-0.235-0.994-0.777-0.854-1.528c0.112-0.586,0.346-1.138,0.572-1.672l0.008-0.019c0.157-0.369,0.312-0.745,0.463-1.108c0.108-0.26,0.215-0.521,0.324-0.78c0.02-0.047,0.033-0.098,0.047-0.151c0.005-0.018,0.009-0.037,0.015-0.055l0,0c-0.05,0.048-0.1,0.095-0.151,0.142C10.05,8.092,9.948,8.187,9.852,8.287c-0.257,0.27-0.512,0.543-0.767,0.815c-0.42,0.448-0.854,0.91-1.288,1.358c-0.306,0.315-0.682,0.667-1.151,0.885c-0.28,0.135-0.532,0.171-0.772,0.109c-0.438-0.114-0.672-0.481-0.644-1.006c0.024-0.488,0.191-0.942,0.367-1.36C5.78,8.658,5.977,8.228,6.167,7.813c0.09-0.197,0.18-0.393,0.269-0.59c0.09-0.198,0.18-0.396,0.27-0.594c0.249-0.546,0.506-1.11,0.746-1.669c0.074-0.171,0.124-0.357,0.172-0.537C7.645,4.341,7.666,4.261,7.69,4.181C7.7,4.149,7.701,4.112,7.702,4.072c0-0.005,0-0.01,0-0.015C7.686,4.074,7.669,4.09,7.651,4.106C7.593,4.161,7.533,4.219,7.487,4.281C7.142,4.763,6.801,5.245,6.459,5.727C6.362,5.863,6.265,5.999,6.169,6.135C5.905,6.508,5.631,6.894,5.346,7.261C5.189,7.459,4.982,7.64,4.746,7.783C4.544,7.909,4.319,7.934,4.112,7.854C3.886,7.767,3.711,7.565,3.631,7.3C3.508,6.895,3.637,6.536,3.78,6.238C3.916,5.955,4.066,5.673,4.21,5.4c0.119-0.224,0.242-0.456,0.357-0.688c0.124-0.25,0.244-0.519,0.225-0.826C4.781,3.697,4.7,3.541,4.55,3.423C4.46,3.354,4.356,3.355,4.204,3.427c-0.235,0.11-0.438,0.29-0.657,0.585C3.44,4.157,3.293,4.202,3.163,4.13C3.081,4.081,3.025,4.01,3.007,3.932c-0.018-0.075-0.002-0.155,0.046-0.23c0.28-0.439,0.609-0.726,1.006-0.88c0.464-0.181,0.886-0.017,1.187,0.461c0.209,0.333,0.255,0.695,0.136,1.074C5.275,4.709,5.127,5.042,4.986,5.353C4.89,5.561,4.784,5.768,4.682,5.968C4.586,6.157,4.487,6.353,4.396,6.546C4.334,6.686,4.314,6.848,4.295,7.004C4.29,7.049,4.319,7.112,4.358,7.149C4.38,7.148,4.441,7.124,4.464,7.098c0.043-0.046,0.086-0.09,0.13-0.135c0.155-0.16,0.315-0.326,0.441-0.509c0.242-0.352,0.479-0.715,0.709-1.066c0.19-0.291,0.387-0.592,0.586-0.885c0.219-0.321,0.46-0.638,0.716-0.943C7.249,3.322,7.453,3.19,7.687,3.144c0.187-0.036,0.376,0.012,0.532,0.135c0.175,0.138,0.285,0.351,0.302,0.586c0.024,0.311-0.015,0.611-0.115,0.889c-0.217,0.593-0.44,1.206-0.695,1.8c-0.194,0.457-0.4,0.918-0.598,1.364C6.916,8.361,6.711,8.82,6.518,9.275c-0.102,0.243-0.174,0.504-0.244,0.757c-0.025,0.09-0.05,0.181-0.076,0.27c-0.012,0.04-0.014,0.088-0.017,0.149c0,0.007-0.001,0.015-0.001,0.023c0.023-0.013,0.046-0.026,0.068-0.038c0.077-0.043,0.144-0.081,0.203-0.127c0.455-0.343,0.847-0.775,1.193-1.157c0.547-0.604,1.185-1.306,1.831-1.984C9.712,6.917,9.96,6.741,10.232,6.63c0.265-0.108,0.533-0.101,0.753,0.018c0.219,0.119,0.372,0.339,0.432,0.621c0.06,0.269,0.018,0.53-0.031,0.751c-0.11,0.504-0.309,0.985-0.501,1.45c-0.054,0.131-0.108,0.261-0.16,0.393c-0.205,0.52-0.408,1.052-0.62,1.627c-0.033,0.091-0.049,0.193-0.065,0.292c-0.008,0.051-0.016,0.102-0.027,0.153c-0.005,0.028-0.002,0.051,0.01,0.065c0.013,0.015,0.032,0.017,0.045,0.016c0.126-0.004,0.252-0.008,0.357-0.049c0.362-0.148,0.651-0.414,0.931-0.672c0.148-0.139,0.292-0.285,0.432-0.426c0.059-0.059,0.117-0.118,0.176-0.177c0.183-0.183,0.34-0.184,0.524-0.004c0.122,0.121,0.261,0.258,0.393,0.396c0.075,0.068,0.117,0.149,0.119,0.232c0.002,0.079-0.033,0.156-0.1,0.223l-0.076,0.076c-0.497,0.495-1.01,1.008-1.646,1.352C10.826,13.157,10.508,13.25,10.204,13.25z"/></svg>
