<svg version="1.1" xmlns="http://www.w3.org/2000/svg" x="0px" y="0px" width="640px" height="336px" viewBox="0 0 640 336" enable-background="new 0 0 640 336"><rect fill="#901C3B" width="640" height="336"/><g><path fill="#FFFFFF" d="M218.1,134.6c4.6-0.9,5.8,0.9,5.9,5c0.2,4,0.2,19-0.1,22.7c-0.5,6.2-3.2,4.9-6.1,4.9v1.9h16.1v-1.9c-1.4,0-2.1,0.4-3.7-0.1c-3.4-1.1-2.9-6.4-2.9-9.8c0-2.8-0.1-15.2,0.1-16.9c2.4,3.7,13.2,27.7,13.6,28.3h2.5c0.5-1.9,2.2-5.4,3.1-7.3l6.5-14.3c1-2.2,2.2-5.1,3.4-7.1c0.2,2.4,0,13.4,0,16.7c0,2.3,0,5.7-0.5,7.7c-0.8,2.9-2.4,3-5.5,2.6v2h20.8v-2c-4.6,0.3-6.2,0.4-6.7-4.5c-0.3-2.4-0.3-20.6-0.1-23c0.4-4.8,1.4-5.6,6.5-5v-2h-14.5l-5.9,13.2c-1,2.2-2,4.4-3,6.7c-0.9,2.1-2.1,4.8-3.2,6.5l-9.7-19.7c-0.5-1-2.7-6-3.2-6.6h-13.2L218.1,134.6L218.1,134.6z"/><path fill="#FFFFFF" d="M170.9,169.4l1.3-11.5l-3.3-0.4c-0.5,3.8-3.6,8.7-6.8,11c-10,7.2-28.2,2.8-29.5-17.7c-0.6-9.2,4.1-19.3,13.3-22.1c9.4-2.9,20.4,3.1,21.9,12.4l3.3-0.6l-2.3-12c-1-0.7-5.5-2.2-7-2.7c-8.2-2.6-17.6-2.5-25.1,0.7c-8.4,3.6-15.1,12.4-14.1,24.9c1.8,22,23.7,28.4,41.7,21.2C165.7,172.1,170,170.2,170.9,169.4L170.9,169.4z"/><path fill="#FFFFFF" d="M331.1,135c5.9-2.4,11.2,0.9,11.2,6.9c0,3.2-1.2,5.6-3.1,6.8c-1.7,1.1-5.8,2.1-8.1,1.2V135L331.1,135z M316.4,132.6v2c4.4-0.5,6.8-0.2,7.4,4.3c0.3,2.4,0.3,21.8,0,24.2c-0.6,4.5-3.4,4.7-7.9,4v2h22.9v-2c-1.6,0.3-3.6,0.5-5.1-0.1c-1.4-0.6-2-1.8-2.3-3.6c-0.5-3.2-0.2-7.9-0.2-11.3c3.8,0,5.6,1.9,7,4.2c1.4,2.2,2.7,4.6,4,7.1c3,5.9,4.7,6.1,10.6,5.8c1.8-0.1,3.7,0,5.6,0v-2c-3.7,0.2-4.4-0.3-6.2-2.3c-1.3-1.5-2.3-3.2-3.3-5.1c-5.4-9.8-5.6-6.8-7.8-9.3c4.6-0.9,7.7-2.3,8.8-6.5c1.3-4.8-0.6-8.7-4.2-10.3c-3.9-1.7-9.4-1.4-14-1.2C326.5,132.7,321.4,132.5,316.4,132.6L316.4,132.6z"/><path fill="#FFFFFF" d="M403.6,135.8c0.3-0.5,0.9-0.6,1.6-0.7c0.7-0.2,1.2-0.3,1.9-0.4c4.2-0.5,7.5,0.3,10.6,2.6c7.2,5.2,6.8,27.5-6.3,29.6c-2,0.3-6.2,0.1-7.8-0.9L403.6,135.8L403.6,135.8z M388.2,132.6v2c4.8,0,7-0.9,7.7,4.6c0.3,2.9,0.3,21.4-0.1,24.1c-0.7,4.9-3.5,4.3-8,4v2c5,0,10.2,0,15.1,0.1c5.4,0,9,0.4,14-1.2c7.3-2.3,12.9-8.2,13.6-17c0.8-10.4-3.9-16.3-12.5-18c-4.5-0.9-9.9-0.7-14.7-0.5C398.3,132.7,393,132.3,388.2,132.6L388.2,132.6z"/><path fill="#FFFFFF" d="M290.2,151c6.6-1,12.9,0.8,12.4,8c-0.2,3.2-1.8,5.5-3.7,6.7c-2.7,1.7-5.3,1.3-8.7,0.7L290.2,151L290.2,151z M290.2,135.2c2.8-0.9,5-1.4,7.9,0.1c1.9,1,3.7,3,3.4,6.1c-0.4,5.2-5.4,8.7-11.4,7.2L290.2,135.2L290.2,135.2z M275.3,132.6v2c3.1,0.1,6.7-1.5,7.3,4.5c0.3,3.3,0.4,21-0.1,24.1c-0.7,4.9-3.3,4.2-7.8,4v2c5.5,0,10.9,0,16.3,0.1c5.2,0.1,10.2,0,14.3-2.2c4-2.2,5.8-6.6,4.8-11.2c-1-4.5-4.8-6.1-10-6.6c0.8-0.4,1.8-0.6,2.7-1c0.9-0.4,1.6-0.7,2.4-1.3c5.1-3.3,5.2-11.2-1.2-13.7c-3.8-1.5-9.4-0.8-13.9-0.7C285.5,132.7,279.8,132.3,275.3,132.6L275.3,132.6z"/><path fill="#FFFFFF" d="M473.7,167.2l-0.1-10.2c0-4.4,1.2-5,5.5-4.6l0.1-2.3h-18.3v2.2c3.8-0.2,5.2,0,5.3,4.1c0,2.9,0.2,6.8-0.1,9.7c-6.9,2.4-13.1,0.4-16.7-3.8c-7.3-8.5-5.7-27.3,8.6-28.4c10.7-0.8,12.2,7.7,13.4,9.4c0.9-0.1,2-0.2,2.7-0.6c-0.2-2.1-1.1-5.7-1.5-8.2c-0.3-1.7-0.2-1.1-4.3-1.7c-5-0.7-9.1-1.5-14.4-0.8c-16.1,2.1-19.7,18.1-14.7,28.2c4,8,12.6,10.7,21.4,9.6c2.3-0.3,4.5-0.8,6.7-1.2c1.1-0.2,2.1-0.5,3.2-0.7C471.1,167.8,473.1,167.5,473.7,167.2L473.7,167.2z"/><path fill="#FFFFFF" d="M481.4,134.6c3.2,0,6.7-1.4,7.4,4.3c0.4,3,0.4,21,0,24c-0.7,5-3.2,4.7-7.9,4.3v2H514l3.5-9.8l-2.4-0.9c-1.6,3.2-2.3,5.9-5.9,6.9c-2.5,0.7-9.7,0.6-12.6,0.5V151c2.3-0.1,5.7-0.2,7.9,0.1c3,0.3,3.2,1.9,3,4.9h2.3v-12.5h-2.3c0.5,2.9-0.1,4.5-2.8,4.8c-2,0.2-5.9,0.1-8,0l0.3-12.6c0.7-0.3-0.4,0.1,0.3-0.1c2.3-0.7,7.8-0.6,10-0.2c3.8,0.6,5,2.1,5.8,5.6c0.7,0.1,1.7-0.1,2.2-0.4l-1.3-7.8l-32.4-0.1L481.4,134.6L481.4,134.6z"/><path fill="#FFFFFF" d="M192,142.2c0.5,0.4,0.6,0.9,0.8,1.6l1.9,4.8c0.7,1.9,1.9,4.5,2.4,6.4l-9.8-0.2L192,142.2L192,142.2z M173.2,167.2v2h16.1v-2c-7.5,1.1-5.7-2.6-4.1-6.5c0.2-0.5,0.9-3,1.5-3.1h12c0.4,0.7,2.1,5.4,2.4,6.4c1.1,3.7-2,3.7-4.8,3.3v2h20.3v-2c-4.5,0.3-5.4-0.2-8.2-5.9c-2.8-5.8-5.9-14.2-8.4-20.4l-4.1-10.5h-1.8c-0.6,0.9-1.6,3.8-2.2,5.1c-0.7,1.7-1.4,3.4-2.1,5.1c-1.8,4.3-8.9,22.6-11,25C177.2,167.4,176,167.5,173.2,167.2L173.2,167.2z"/><path fill="#FFFFFF" d="M360.6,134.7c1.6-0.4,4-0.5,5.4,0.3c1.4,0.7,1.8,2.3,2,4.2c0.3,3.3,0.3,20.9-0.1,24.1c-0.6,5.1-3.4,4.2-7.9,4v2h24.1v-2c-4.5,0.1-7.3,1-8-3.9c-0.4-3-0.4-21.2-0.1-24.4c0.5-5.1,3.2-4.6,7.8-4.3l0.1-2h-23.4L360.6,134.7L360.6,134.7z"/><path fill="#FFFFFF" d="M268.2,188.8c2-0.4,3.5-0.8,5.3,0.3c1.4,0.9,2,2.4,2,4.2c0,5.3-3.9,5.4-7.3,5.3V188.8L268.2,188.8z M258.7,188.5c0.2,0.1,0.1,0.1,0.4,0.1c0.7,0.1,1.8-0.4,3,0.2c2.2,1.2,1.5,7.3,1.5,10.4c0,8.9,1.1,11.1-5.2,10.6v1.4h15l-0.1-1.3c-2.6,0.1-4.3,0.3-4.8-2.4c-0.3-2-0.1-5.1-0.1-7.3c4-0.3,5.6,4.4,7.1,7.2c2.6,4.7,2.8,3.9,10.6,3.8v-1.3c-2.4-0.2-2.8,0-4-1.5c-1.5-1.8-2.9-5.1-4.2-6.7c-1.3-1.7-2.3-1.9-2.9-2.6c2.9-0.6,4.9-1.5,5.6-4.2c0.9-3.4-0.6-5.8-2.9-6.8c-2.6-1.1-6.1-0.8-9.1-0.7c-3.2,0.1-6.6,0-9.8,0.1L258.7,188.5L258.7,188.5z"/><path fill="#FFFFFF" d="M426.8,188.9c1.5-0.7,3.9-0.7,5.2,0.2c1.2,0.8,2.1,2.3,2,4.3c0,4-3,6-7.3,5.2L426.8,188.9L426.8,188.9z M417.1,188.7c6-0.7,4.9,2.5,4.9,10.7c0,6.9,1.3,11.6-5.2,10.4l-0.1,1.4h15l-0.1-1.3c-5.2,0-5.2-0.4-4.9-9.8c4,0.1,5.3,3.8,7.1,7.3c2.7,5.1,3.8,3.6,10.5,3.8l-0.1-1.4c-3.5,0.6-4.8-2.5-6.1-4.8c-3.3-6.1-3.7-4.5-5-6c2.9-0.8,4.9-1.5,5.6-4.4c0.7-3.2-0.5-5.6-2.8-6.6c-3.1-1.4-14.6-0.5-19-0.7L417.1,188.7L417.1,188.7z"/><path fill="#FFFFFF" d="M156.1,188.6c2.4,0.2,4.2-0.7,4.7,2.6c0.2,1.3,0.2,13.7,0.1,15.4c-0.2,3.4-1.4,3.2-4.4,3.3v1.3h10.7v-1.4c-4.4,1.2-4.2-3-4.2-6.4c0-3.5-0.2-7.5,0-10.9l15.5,19.5l2.2-1.2c0-2.6-0.2-17.9,0.2-20c0.5-2.5,2.1-2.3,3.5-2.3c0.5,0-0.4,0.1,0.3,0c0.3,0,0.3,0,0.4-0.1v-1.1h-10.7v1.3c4.1-0.4,4.3,1.2,4.3,5.2c0,3.3,0.1,6.7,0,10c-0.4-0.3-0.2-0.1-0.5-0.4L177,202c-1.4-1.7-11-13.4-11.6-14.6c-1.5-0.1-8.2-0.2-9.3,0.1L156.1,188.6L156.1,188.6z"/><path fill="#FFFFFF" d="M455.8,189.4c2.2-0.4,4.7-0.6,6.9-0.2c2.8,0.6,2.9,1.3,3.7,3.7l1.3-0.2c0.2-0.6-0.5-4.6-0.8-5.2c-1.5-0.2-20-0.2-21.1,0v1.1c1.1,0.1,4.4-0.9,4.9,2.7v15.8c-0.3,2.9-2.4,2.9-5.2,2.7v1.3h21.6l2.2-6.5l-1.6-0.5c-1,2.1-1.5,3.8-3.9,4.5c-1.5,0.4-6.3,0.3-8.1,0.2v-9.6c6.8-0.3,7-0.2,7,3.2h1.4v-8.2l-1.4,0.1c-0.1,1.6,0.4,2.9-1.9,3.1c-1.4,0.1-3.7,0-5.2,0L455.8,189.4L455.8,189.4z"/><path fill="#FFFFFF" d="M242,189.4c2.2-0.4,4.7-0.6,6.9-0.2c2.6,0.5,3,1.4,3.7,3.7l1.4-0.3l-0.9-5.1c-1.3-0.2-20.1-0.2-21.1,0v1.2c1.6,0.1,4.3-1,4.8,2.7c0.2,1.3,0.2,14.3,0,15.7c-0.4,3.1-2.2,3-5.1,2.7v1.3h21.6l2.2-6.5l-1.6-0.5c-0.9,1.5-1.1,3.7-3.9,4.5c-1.4,0.4-6.4,0.4-8.1,0.2l0.1-9.6c5.8,0.1,7-0.9,6.9,3.3h1.5l-0.1-8.2l-1.4,0.1c-0.1,3.4-0.1,3.3-7,3.1L242,189.4L242,189.4z"/><path fill="#FFFFFF" d="M140.9,209.5c-6,0-6.7-3.8-6.7-9.4c0-2.7,0-5.4,0-8.1c0.1-3.9,2.2-3.4,4.2-3.3v-1.3h-13.2v1.1l0.6,0.1c0.1,0,0.3,0,0.4,0c3-0.1,2.8,2.9,2.8,5.4c0,3.2-0.1,6.4,0,9.5c0.1,5.8,4.7,8.5,10.7,8.3c11.9-0.3,9.7-9.1,9.8-18.7c0.1-6.4,3.2-3.9,4.7-4.6v-1.1h-11.1v1.3c3.1-0.2,4.3-0.2,4.5,3.3c0.1,2.6,0,5.5,0,8.1c0,3,0.3,4.8-1.2,6.9C145.4,208.5,143.4,209.5,140.9,209.5L140.9,209.5z"/><path fill="#FFFFFF" d="M401.4,189.1c1.4-0.8,3.9-0.8,5.2,0.1c3.8,2.3,2.9,11.3-5.2,9.4V189.1L401.4,189.1z M391.9,188.7c2.7-0.1,4.3-0.5,4.8,2.7c0.2,1.3,0.2,14.2,0,15.6c-0.3,2.8-1.8,3.2-4.8,2.9v1.3h14.5l-0.1-1.3c-2.4,0-4.2,0.3-4.7-2.3c-0.3-1.5-0.2-5.4-0.1-7.2c5.3,0.6,11.1-0.3,12.2-5.7c0.4-1.7,0.1-3.7-0.8-4.9c-1.9-2.6-5.4-2.7-9.5-2.5c-3.8,0.1-7.9-0.1-11.6,0.1L391.9,188.7L391.9,188.7z"/><path fill="#FFFFFF" d="M496.9,210.5c0,0,0.1,0,0.1,0.1l0.8,0.3c2.2,0.5,4.3,0.9,6.7,0.8c2.6-0.1,5-0.9,6.6-2.1c1.5-1.2,2.8-3.1,2.6-6.1c-0.4-4.4-5.4-6-9.2-7.9c-7.1-3.5-1.3-8.4,3.3-6.6c2.4,0.9,2.6,2.5,3.3,5.1h1.4V188c-2.6-0.3-4.9-1.1-7.7-1c-5.8,0.2-9.2,4.4-7.6,8.6c0.7,1.9,2.5,3,4.4,4c1.8,1,3.8,1.9,5.4,3c4.8,3.4-0.6,9.4-5.5,6.5c-1.7-1-2.8-2.8-3-5.5l-1.6,0.1L496.9,210.5L496.9,210.5z"/><path fill="#FFFFFF" d="M476.1,203.6l-1.5,0.1l-0.2,7c3.6,0.4,9.5,2.5,14-0.9c3.5-2.7,4.4-8-0.4-11.2c-3.9-2.6-10.9-3.8-8.9-8c1.2-2.5,7.4-3.6,9.1,1.6l0.5,1.7c0,0,0,0.1,0.1,0.1h1.3v-6.2c-1.9,0.1-9.5-2.8-13.8,1.4c-1.2,1.2-2.4,3.9-1.4,6.4c1.2,3.2,6.7,4.8,9.9,7c4.8,3.3-0.5,9.3-5.5,6.5C477.2,208.1,476.5,206.4,476.1,203.6L476.1,203.6z"/><path fill="#FFFFFF" d="M289.7,210.6c5,1,10,2.1,14.1-0.9c1.6-1.2,2.8-3,2.8-5.9c-0.2-7.9-15.4-7.4-12.1-13.3c1-1.8,3.8-2.5,6.2-1.6c2.4,0.9,2.7,3.1,3.1,4.4c0.2,0.7-0.2,0.7,1.6,0.7l-0.1-6.2c-1.9,0.1-3.6-1-7.6-0.9c-5.7,0.2-9.3,4.3-7.6,8.7c1.7,4.5,11,5.5,11.6,9.5c0.9,5.4-9.1,7.9-10.2-1.4h-1.6L289.7,210.6L289.7,210.6z"/><path fill="#FFFFFF" d="M364.4,193.8c-0.5-0.7-2.8-3.7-2.5-4.5c0.6-1.1,1.3-0.7,2.6-0.6l-0.1-1.3c-2.3-0.1-5,0-7.3,0c-6.4,0-5.7-0.4-5.8,1.3c1.7,0.1,2.5-0.5,4,0.6c1,0.7,5.1,7,6.1,8.3c2.6,3.7,2.2,2.6,2.1,7.5c-0.1,3.3-0.3,5.6-4.3,4.8l-0.1,1.4h13.6l-0.1-1.4c-3.8,0.9-4.2-1.6-4.2-4.8c0-0.9-0.1-4.1,0.1-4.7l5.5-8.4c0.5-0.8,1.4-2.2,2.1-2.7c1.7-1.2,2.8-0.4,3.6-0.7v-1.1h-9.8v1.3c4.5-0.5,2.7,1.6,0.3,5.2c-0.8,1.2-1.9,3.4-2.8,4.3C366.5,197.3,365.2,195.1,364.4,193.8L364.4,193.8z"/><path fill="#FFFFFF" d="M219.2,204c-0.5-0.8-1.4-3.4-1.8-4.4c-0.5-1.4-1.1-2.9-1.6-4.3c-2.2-5.7-3.2-6.9,1.3-6.5v-1.3h-13.3v1.3c3.9-0.5,4.2,0.7,5.4,3.6l5.2,13.1c0.6,1.5,1.8,5.4,2.6,6.5h1.6l4.9-13c0.8-2.2,1.6-4.3,2.5-6.5c1.1-2.7,1.4-4.2,5-3.7v-1.3h-9.8v1.3c1.4-0.1,2-0.5,3.1,0.4C224.9,190,219.5,203.5,219.2,204L219.2,204z"/><path fill="#FFFFFF" d="M328.9,193.9h1.6c0.6-5.4,1.4-4.7,6.6-4.7c0.1,4.1,0,8.3,0,12.5s0.9,9-4.2,8.1l-0.1,1.4h13.6l-0.1-1.4c-2.2,0.4-3.5,0.1-3.9-1.9c-0.5-2-0.3-16.7-0.2-18.7c5.2-0.1,6.1-0.4,6.7,4.7h1.5l-0.6-6.4c-1.2-0.3-8.9-0.1-10.2-0.1c-1.7,0-9.2-0.2-10.3,0.1L328.9,193.9L328.9,193.9z"/><path fill="#FFFFFF" d="M203.2,211.2v-1.3c-6.1-0.1-5.4,0.2-5.4-10.7c0-9.3-1-11.1,5.2-10.5v-1.3h-15.2v1.1c0.2,0.1,0.1,0.1,0.4,0.1c0.6,0.1,4.1-0.9,4.4,2.9c0.2,2.5,0.1,5.2,0.1,7.7c0,9.4,0.9,10.9-5.3,10.6v1.3L203.2,211.2L203.2,211.2z"/><path fill="#FFFFFF" d="M327,209.8c-2.9,0.2-5,0.3-5.3-2.7c-0.2-1.5-0.2-14.8,0.1-16.1c0.5-2.8,2.5-2.4,5.2-2.4v-1.3h-15.3v1.3c3-0.2,4.4-0.3,4.8,2.9c0.2,1.7,0.2,14.3,0,15.8c-0.6,3.3-2.4,2.3-5.1,2.5l-0.1,1.3H327V209.8L327,209.8z"/></g></svg>