<svg version="1.1" xmlns="http://www.w3.org/2000/svg" x="0px" y="0px" viewBox="0 0 1792 1792" enable-background="new 0 0 1792 1792"><g><path d="M206.8,328.2c0-29.9,22.5-52.4,52.4-52.4h292.2V69H263.5C119.4,69,0,184.1,0,328.2v292.2h206.8V328.2z"/><path d="M1531.7,69h-291.1v206.8h289.6c29.9,0,55.1,22.5,55.1,52.4v292.2H1792V328.2C1792,184.1,1675.8,69,1531.7,69z"/><path d="M1585.2,1459.5c0,29.9-22.5,52.4-52.4,52.4h-292.2V1723h292.2c144.1,0,259.2-119.4,259.2-263.5v-287.9h-206.8V1459.5z"/><path d="M259.2,1511.9c-29.9,0-52.4-22.5-52.4-52.4v-287.9H0v287.9C0,1603.6,119.4,1723,263.5,1723h287.9v-211.1H259.2z"/></g></svg>
