<svg version="1.1" xmlns="http://www.w3.org/2000/svg" x="0px" y="0px" viewBox="0 0 24 24" enable-background="new 0 0 24 24">
<path fill="currentColor" d="M12.141,2.137C12.313,2,12.416,2,12.965,2c0.275,0,0.687,0.034,0.927,0.069c1.133,0.137,1.855,0.309,2.851,0.79c0.996,0.481,1.614,0.927,2.473,1.717c0.79,0.756,1.202,1.339,1.683,2.267c0.653,1.271,0.996,2.748,1.065,4.396c0.034,0.55,0,0.687-0.137,0.859c-0.24,0.309-0.79,0.275-0.996-0.103c-0.069-0.103-0.069-0.206-0.103-0.653c-0.034-0.687-0.069-1.133-0.172-1.683c-0.378-2.095-1.408-3.778-3.057-4.98c-1.374-0.996-2.576-1.374-4.43-1.511c-0.653,0-0.756,0-0.893-0.137C11.9,2.859,11.9,2.378,12.141,2.137"></path>
<path fill="currentColor" d="M15.541,6.43c-0.653-0.378-1.649-0.687-2.542-0.756c-0.309-0.034-0.515-0.103-0.618-0.24c-0.206-0.172-0.206-0.481-0.069-0.687c0.172-0.275,0.446-0.309,1.236-0.172c1.992,0.275,3.538,1.202,4.568,2.679c0.584,0.824,0.927,1.82,1.03,2.851c0.034,0.378,0.034,1.065,0,1.202c-0.034,0.103-0.172,0.275-0.309,0.309c-0.137,0.069-0.412,0.069-0.55-0.034c-0.24-0.137-0.343-0.309-0.343-0.859c0-0.824-0.206-1.717-0.618-2.404C16.915,7.53,16.297,6.877,15.541,6.43"></path>
<path fill="currentColor" d="M16.4,10.964c-0.206,0.172-0.55,0.172-0.756,0c-0.172-0.103-0.206-0.24-0.24-0.584c-0.034-0.446-0.137-0.756-0.24-1.03c-0.275-0.618-0.79-0.927-1.649-1.03c-0.412-0.034-0.515-0.103-0.653-0.24c-0.24-0.275-0.137-0.721,0.172-0.893c0.137-0.069,0.172-0.069,0.446-0.034c0.172,0,0.412,0.034,0.55,0.069c0.653,0.137,1.133,0.378,1.58,0.756c0.55,0.515,0.859,1.099,0.962,1.992C16.64,10.552,16.606,10.792,16.4,10.964"></path>
<path fill="currentColor" d="M21.929,18.28c0-0.309-0.103-0.55-0.309-0.79c-0.206-0.24-1.614-1.374-2.301-1.82c-0.515-0.343-1.305-0.824-1.649-0.996c-0.481-0.24-0.962-0.275-1.408-0.137c-0.103,0.034-0.172,0.069-0.24,0.103c-0.206,0.103-0.378,0.309-0.79,0.79c-0.275,0.343-0.515,0.653-0.55,0.653c0,0-0.034,0-0.034,0.034c-0.034,0.034-0.137,0.069-0.206,0.103l0,0l0,0c-0.446,0.206-1.03,0.069-1.992-0.378c-0.756-0.378-1.408-0.824-2.164-1.511c-0.653-0.584-1.305-1.305-1.649-1.889c-0.481-0.756-0.824-1.717-0.824-2.267c0-0.24,0.103-0.55,0.206-0.721l0,0l0.034-0.034c0,0,0,0,0.034-0.034s0.069-0.069,0.103-0.069C8.329,9.212,8.5,9.041,8.672,8.903c0.79-0.618,0.962-0.824,1.065-1.168c0.103-0.343,0-0.79-0.343-1.408C8.775,5.194,7.058,3.03,6.44,2.618C6.337,2.55,6.165,2.481,6.062,2.412C5.787,2.343,5.409,2.309,5.203,2.343C4.894,2.412,4.516,2.653,3.658,3.271c-0.515,0.378-1.202,1.03-1.374,1.305C1.906,5.228,1.94,5.744,2.387,7.014c0.412,1.133,0.962,2.267,1.58,3.366l0,0l0.034,0.034c0.137,0.206,0.275,0.446,0.412,0.653c0,0.034,0.034,0.034,0.034,0.069c0.137,0.206,0.275,0.446,0.412,0.653c0.069,0.069,0.103,0.172,0.172,0.24c0.103,0.172,0.206,0.309,0.343,0.481c0.172,0.24,0.343,0.481,0.55,0.721c1.958,2.542,4.224,4.602,6.903,6.285c0.034,0.034,0.069,0.034,0.103,0.069c0.412,0.24,0.824,0.481,1.236,0.721c0.069,0.034,0.103,0.069,0.172,0.103c0.412,0.24,0.859,0.446,1.305,0.653c0.034,0.034,0.103,0.034,0.137,0.069c0.446,0.206,0.927,0.412,1.408,0.618c0.584,0.24,0.79,0.275,1.236,0.24c0.206,0,0.412-0.034,0.584-0.103c0.275-0.069,0.515-0.206,0.824-0.412c0.069-0.034,0.103-0.069,0.172-0.103c0.069-0.034,0.137-0.103,0.206-0.172c0.378-0.309,0.79-0.79,1.133-1.236c0.24-0.309,0.412-0.618,0.515-0.859C21.895,18.76,21.929,18.52,21.929,18.28"></path>
</svg>