<svg version="1.1" xmlns="http://www.w3.org/2000/svg" xmlns:xlink="http://www.w3.org/1999/xlink" x="0px" y="0px" viewBox="0 0 96 96" enable-background="new 0 0 96 96" xml:space="preserve"><path fill="#FFFFFF" d="M26.2,69.8v8.8h-8.8v-8.8H26.2z M26.2,17.4v8.8h-8.8v-8.8H26.2z M78.6,17.4v8.8h-8.8v-8.8H78.6z M8.8,87.2H35V61H8.8V87.2z M8.8,35H35V8.8H8.8V35z M61,35h26.2V8.8H61V35z M43.6,52.4V96H0V52.4H43.6z M78.6,87.2V96h-8.8v-8.8H78.6z M96,87.2V96h-8.8v-8.8H96z M96,52.4v26.2H69.8v-8.8H61V96h-8.8V52.4h26.2v8.8h8.8v-8.8H96z M43.6,0v43.6H0V0H43.6z M96,0v43.6H52.4V0H96z"/></svg>