<svg version="1.1" xmlns="http://www.w3.org/2000/svg" xmlns:xlink="http://www.w3.org/1999/xlink" x="0px" y="0px" viewBox="0 0 96 96" enable-background="new 0 0 96 96" xml:space="preserve"><rect id="XMLID_5_" fill="#0073D2" width="96" height="96"/><path id="XMLID_4_" fill="none" d="M48,54c3.3,0,6-2.7,6-6s-2.7-6-6-6s-6,2.7-6,6S44.7,54,48,54L48,54z"/><g id="XMLID_6_"><path fill="#FFFFFF" d="M48,24c-13.3,0-24,10.7-24,24s10.7,24,24,24s24-10.7,24-24S61.3,24,48,24z M48,68.3c-11.2,0-20.3-9.1-20.3-20.3S36.8,27.7,48,27.7S68.3,36.8,68.3,48S59.2,68.3,48,68.3z"/><path id="XMLID_1_" fill="#FFFFFF" d="M48,53.5c-3.1,0-5.5-2.5-5.5-5.5c0-3.1,2.5-5.5,5.5-5.5c3.7,0,16.6,5.5,16.6,5.5S51.7,53.5,48,53.5L48,53.5z"/></g></svg>
