<svg version="1.1" xmlns="http://www.w3.org/2000/svg" xmlns:xlink="http://www.w3.org/1999/xlink" x="0px" y="0px" viewBox="0 0 96 96" enable-background="new 0 0 96 96" xml:space="preserve"><rect id="XMLID_2_" fill="none" width="96" height="96"/><rect id="XMLID_1_" fill="none" width="96" height="96"/><g id="XMLID_3_"><path id="XMLID_4_" fill="#FFFFFF" d="M71.1,37.3c0,3.3-1.3,6-3.8,7.9C64.8,47,61.5,48,57.2,48c-3.4,0-6.4-0.6-9.2-1.6v-8.1c3.2,2,6.2,3,9.1,3c3.1,0,4.6-1,4.6-3c0-0.7-0.1-1.2-0.4-1.5c-0.3-0.4-0.8-0.8-1.6-1.2c-0.8-0.4-2.1-1-4-1.7c-2.7-1-4.7-2.3-5.9-3.7c-1.2-1.5-1.8-3.4-1.8-5.8c0-3.1,1.2-5.6,3.7-7.5c2.4-1.9,5.7-2.8,9.7-2.8c2.6,0,5.2,0.4,7.9,1.3v7.8c-2.4-1.5-5-2.2-7.7-2.2c-2.6,0-3.9,0.9-3.9,2.7c0,0.7,0.1,1.2,0.4,1.6c0.3,0.4,0.7,0.8,1.4,1.2c0.7,0.4,1.7,0.8,3.1,1.4c3.1,1.2,5.3,2.5,6.6,4C70.5,33.1,71.1,35,71.1,37.3z"/><path id="XMLID_6_" fill="#FFFFFF" d="M96,46.8c-1.4,0.8-3.6,1.2-6.5,1.2c-6.9,0-10.3-3.7-10.3-11V22.1H74v-7.4h5.1v-7l9.8-2.9v9.9H96v7.4h-7.1v13.2c0,3.4,1.3,5.1,3.9,5.1c1,0,2.1-0.3,3.2-0.9L96,46.8L96,46.8z"/></g><polygon id="XMLID_12_" fill="#FFFFFF" points="14.4,81.6 14.4,48 33.5,48 33.5,33.6 14.4,33.6 14.4,14.4 38.3,14.4 38.3,0 14.3,0 9.6,0 0,0 0,96 9.6,96 14.3,96 43,96 43,81.6 "/></svg>
