<svg version="1.1" xmlns="http://www.w3.org/2000/svg" x="0px" y="0px" width="640px" height="336px" viewBox="0 0 640 336" enable-background="new 0 0 640 336"><rect y="0" fill="#1AB7EA" width="640" height="336"/><g><path fill="#FFFFFF" d="M395.1,82.5c20.6,0.5,30.7,12.1,30.9,35c0,1.5,0,3.1-0.1,4.7c-0.9,19.4-15.2,45.7-43.1,78.9c-28.7,34.8-53.2,52.3-73.2,52.5c-12.4,0-22.8-10.7-31.1-32l-8.7-29.2L261,163c-6.4-21.2-13.1-31.8-20.4-31.8c-1.6,0-7.1,3.1-16.6,9.2l-10-11.9l15.6-12.9l15.4-12.8c13.8-11.1,24.2-17,31.4-17.9c0.9-0.1,1.9-0.1,2.9-0.1c14.7,0,23.9,10.5,27.5,31.8c2,12,3.7,21.9,5.1,29.5c1.3,7.6,2.4,12.8,3.3,15.9c4.8,20,10.2,30,15.8,30.2c4.3,0,11-6.5,20-19.6c8.8-13.3,13.5-23.4,14.2-29.8c0.1-1.3,0.3-2.5,0.3-3.7c0-8.8-4.8-13.1-14.4-13.1c-4.8,0-10,1.1-15.6,3.1c10-30.7,29.1-46.1,57.4-46.2C393.7,82.5,394.3,82.5,395.1,82.5z"/></g></svg>