<svg version="1.1" xmlns="http://www.w3.org/2000/svg" x="0px" y="0px" width="640px" height="336px" viewBox="0 0 640 336" enable-background="new 0 0 640 336"><rect y="0" fill="#2F79B6" width="640" height="336"/><g><path fill="#FFFFFF" d="M405.8,200.5H426V132c0,0,1.3-19.1-13.7-19.1c-15,0-55.1,0-55.1,0V92.6c0,0,1-9.9-11.4-9.9s-36.9,0-51.5,0c-12.7,0-11.3,13.5-11.3,13.5V113c0,0-35.1,0-54.6,0c-16.9,0-14.1,20.4-14.1,20.4v67.2h24.3v-19.1H260v19.1h-21.5v10.1h-24.3v42.7H426v-42.8h-20.2V200.5L405.8,200.5z M260,228h-21.5v-17.4H260V228z M300.7,95.4h38.8V113h-38.8V95.4z M405.8,226.9h-21.5v-16.3h21.5V226.9z M405.8,200.5h-21.5v10.1H260v-10.1h124.3v-20.2h21.5L405.8,200.5L405.8,200.5z"/></g></svg>
