<svg version="1.1" xmlns="http://www.w3.org/2000/svg" x="0px" y="0px" width="640px" height="336px" viewBox="0 0 640 336" enable-background="new 0 0 640 336"><rect fill="#006F94" width="640" height="336"/><g><path fill="#FFFFFF" d="M286.1,192.8V170c-5.9,2.7-11,4-15.5,4c-4.2,0-7.5-1.1-9.7-3.3s-3.4-5.3-3.4-9.4v-19h4.7V161c0,2.8,0.8,5,2.3,6.5c1.5,1.6,3.8,2.4,6.7,2.4c4.3,0,9.3-1.3,14.9-3.8v-23.8h4.7v50.4L286.1,192.8L286.1,192.8z"/><path fill="#FFFFFF" d="M313.7,160.7v32.1h-4.5v-32.1h-10.8v-3.9h26.1v3.9H313.7z"/><path fill="#FFFFFF" d="M332.1,175.6c0,4.5,1.2,7.9,3.3,10.4s5.1,3.7,8.9,3.7c4.1,0,7.9-1.4,11.5-4.3v4.4c-3.4,2.5-7.6,3.7-12.5,3.7c-4.9,0-8.8-1.7-11.7-5c-2.8-3.3-4.3-8-4.3-13.9c0-3.5,0.7-6.7,2.1-9.6c1.4-2.9,3.4-5.2,5.9-6.8c2.5-1.6,5.3-2.4,8.4-2.4c4.5,0,8.1,1.5,10.6,4.6c2.5,3.1,3.8,7.3,3.8,12.8v2.3L332.1,175.6L332.1,175.6z M353.4,171.7c-0.1-3.8-1-6.7-2.7-8.7c-1.7-2.1-4.1-3.1-7.1-3.1c-3.1,0-5.6,1-7.6,3.1c-2,2.1-3.3,5-3.8,8.7H353.4z"/><path fill="#FFFFFF" d="M391.2,192.8V176h-19.8v16.8h-4.5v-36h4.5v15.3h19.8v-15.3h4.5v36H391.2z"/><path fill="#FFFFFF" d="M432.2,192.8v-29.4l-1,1.6l-19.8,27.8h-4.1v-36h4.3v29.1c0.3-0.7,0.7-1.5,1.3-2.4l19.3-26.7h4.3v36L432.2,192.8L432.2,192.8z"/><path fill="#FFFFFF" d="M450.2,175.6c0,4.5,1.2,7.9,3.3,10.4s5.1,3.7,8.9,3.7c4.1,0,7.9-1.4,11.5-4.3v4.4c-3.4,2.5-7.6,3.7-12.5,3.7c-4.9,0-8.8-1.7-11.7-5c-2.8-3.3-4.3-8-4.3-13.9c0-3.5,0.7-6.7,2.1-9.6c1.4-2.9,3.4-5.2,5.9-6.8s5.3-2.4,8.4-2.4c4.5,0,8.1,1.5,10.6,4.6c2.5,3.1,3.8,7.3,3.8,12.8v2.3L450.2,175.6L450.2,175.6z M471.6,171.7c-0.1-3.8-1-6.7-2.7-8.7c-1.7-2.1-4.1-3.1-7.1-3.1c-3.1,0-5.6,1-7.6,3.1s-3.3,5-3.8,8.7H471.6z"/></g><g><path fill="#FFFFFF" d="M227,124h-60.7c-1.4,0-2.5,1.1-2.5,2.5v83c0,1.4,1.1,2.5,2.5,2.5H227c1.4,0,2.5-1.1,2.5-2.5v-83C229.5,125.1,228.4,124,227,124z M208.9,178h-5.8v-12.3v-2.6h-6V178h-2.5v-14.9h-6V178H186v-14.9h-6V178h-2.2v-14.9h-6V178h-3v-22.1h55.8V178h-11.2l1.8-0.9l-6.6-14l-5.4,2.6L208.9,178z M219.9,149.8l4.7-11.4v11.4H219.9z M224.5,129v8.1l-5.1-2.1l-5.9,14.3l1.2,0.5h-11.6v-15.5h-6v15.5h-2.7v-15.5h-6v15.5h-2.2v-15.5h-6v15.5h-2.1v-15.5h-6v15.5h-3.4V129L224.5,129L224.5,129z M168.8,184h55.8v9.8l-4.8-2.2l-6.3,14.1l2.6,1.2h-12.9v-14.7h-6V207h-2.5v-14.7h-6V207H186v-14.7h-6V207h-2.2v-14.7h-6V207h-3L168.8,184L168.8,184z M219.4,207l5.1-11.4V207H219.4z"/></g></svg>
