<svg version="1.1" xmlns="http://www.w3.org/2000/svg" x="0px" y="0px" width="640px" height="336px" viewBox="0 0 640 336" enable-background="new 0 0 640 336"><rect fill="#364156" width="640" height="336"/><g><path d="M465.1,28H174.9c-6.1,0-11,4.9-11,11v185.5l0,0v28.3c0,3.6,2.9,6.5,6.5,6.5h114.9c-0.6,12.8-3.4,38.3-16.6,43.9c0,0-5.1,4.8,9.2,4.8h24.6h33.9H361c14.4,0,9.2-4.8,9.2-4.8c-13.2-5.6-16.1-31.2-16.6-43.9h116.1c3.6,0,6.3-2.9,6.3-6.5v-28c0-0.1,0-0.2,0-0.3V39C476.1,33,471.2,28,465.1,28z M312.4,237.1c0-4.2,3.4-7.6,7.6-7.6s7.6,3.4,7.6,7.6c0,4.2-3.4,7.6-7.6,7.6C315.8,244.7,312.4,241.3,312.4,237.1z M466.7,217.2H173.2V39c0-0.9,0.7-1.6,1.6-1.6h290.3c0.9,0,1.6,0.7,1.6,1.6L466.7,217.2L466.7,217.2z"/><rect x="173.2" y="37.5" fill="#F9F9F9" width="293.4" height="179.7"/><path fill="#464445" d="M273,79.8c0,0.2,0,0.3-0.1,0.4s-0.2,0.1-0.5,0.2c-0.2,0-0.5,0-0.9,0s-0.7,0-0.9,0c-0.2,0-0.4,0-0.5-0.1s-0.2-0.1-0.2-0.1s-0.1-0.1-0.1-0.2l-1-3H263l-0.9,2.9c0,0.1-0.1,0.2-0.1,0.3c0,0.1-0.1,0.1-0.2,0.2c-0.1,0-0.3,0.1-0.5,0.1s-0.5,0-0.8,0c-0.4,0-0.6,0-0.8,0c-0.2,0-0.3-0.1-0.4-0.2s-0.1-0.2-0.1-0.4c0-0.1,0.1-0.4,0.2-0.6l4.6-13.4c0-0.1,0.1-0.2,0.2-0.3c0-0.1,0.2-0.1,0.3-0.2c0.1,0,0.3-0.1,0.6-0.1c0.2,0,0.6,0,1,0c0.5,0,0.8,0,1.1,0c0.3,0,0.5,0,0.6,0.1c0.2,0,0.3,0.1,0.3,0.2c0.1,0.1,0.1,0.2,0.2,0.4l4.7,13.4C272.9,79.4,272.9,79.6,273,79.8z M265.8,68l-2.1,6.4h4.3L265.8,68L265.8,68z"/><path fill="#464445" d="M284.7,80.1c0,0-0.1,0.1-0.2,0.1s-0.3,0.1-0.5,0.1s-0.4,0-0.7,0c-0.3,0-0.5,0-0.7,0s-0.4,0-0.5-0.1c-0.1,0-0.2-0.1-0.2-0.1c0-0.1-0.1-0.1-0.1-0.2v-4.1h-4.2v4.1c0,0.1,0,0.1-0.1,0.2c0,0-0.1,0.1-0.2,0.1s-0.3,0.1-0.5,0.1s-0.4,0-0.7,0s-0.5,0-0.7,0s-0.3,0-0.5-0.1c-0.1,0-0.2-0.1-0.2-0.1c0-0.1-0.1-0.1-0.1-0.2V69.5c0-0.1,0-0.1,0.1-0.2c0,0,0.1-0.1,0.2-0.1s0.3-0.1,0.5-0.1s0.4,0,0.7,0s0.5,0,0.7,0s0.3,0,0.5,0.1c0.1,0,0.2,0.1,0.2,0.1c0,0.1,0.1,0.1,0.1,0.2v3.9h4.2v-3.9c0-0.1,0-0.1,0.1-0.2c0,0,0.1-0.1,0.2-0.1s0.3-0.1,0.5-0.1s0.4,0,0.7,0c0.3,0,0.5,0,0.7,0s0.3,0,0.5,0.1c0.1,0,0.2,0.1,0.2,0.1c0,0.1,0.1,0.1,0.1,0.2v10.4C284.8,79.9,284.8,80,284.7,80.1z"/><path fill="#464445" d="M294.5,71c0,0.2,0,0.3-0.1,0.4c0,0.1-0.1,0.2-0.1,0.2s-0.1,0.1-0.2,0.1h-3.4v8.2c0,0.1,0,0.1-0.1,0.2c0,0-0.1,0.1-0.2,0.1s-0.3,0.1-0.5,0.1s-0.4,0-0.7,0c-0.3,0-0.5,0-0.7,0s-0.3,0-0.5-0.1c-0.1,0-0.2-0.1-0.2-0.1c0-0.1-0.1-0.1-0.1-0.2V70c0-0.3,0.1-0.6,0.2-0.7s0.3-0.2,0.6-0.2h5.5c0.1,0,0.1,0,0.2,0.1c0,0,0.1,0.1,0.1,0.2s0.1,0.2,0.1,0.4c0,0.2,0,0.4,0,0.6S294.5,70.8,294.5,71z"/><path fill="#464445" d="M305.7,80.1c0,0-0.1,0.1-0.2,0.1s-0.3,0.1-0.5,0.1s-0.4,0-0.7,0c-0.3,0-0.5,0-0.7,0s-0.3,0-0.5-0.1c-0.1,0-0.2-0.1-0.2-0.1c0-0.1-0.1-0.1-0.1-0.2v-8.4h-2.1c-0.1,1.2-0.3,2.3-0.5,3.2c-0.2,0.9-0.4,1.7-0.6,2.4c-0.2,0.6-0.5,1.2-0.8,1.7c-0.3,0.4-0.6,0.8-1,1.1c-0.4,0.3-0.7,0.5-1.1,0.6s-0.8,0.2-1.3,0.2c-0.1,0-0.2,0-0.3,0c-0.1,0-0.1-0.1-0.2-0.2c0-0.1-0.1-0.2-0.1-0.4c0-0.1,0-0.4,0-0.7s0-0.5,0-0.7s0-0.3,0-0.4s0.1-0.2,0.1-0.2s0.1,0,0.2,0c0.2,0,0.4,0,0.6-0.1s0.4-0.3,0.6-0.5s0.4-0.5,0.5-0.9s0.3-0.9,0.4-1.4c0.1-0.6,0.3-1.2,0.4-2.1c0.1-0.8,0.2-1.7,0.3-2.8c0-0.3,0.1-0.6,0.2-0.7s0.3-0.2,0.6-0.2h6c0.3,0,0.5,0.1,0.6,0.2s0.2,0.4,0.2,0.7v9.8C305.8,79.9,305.8,80,305.7,80.1z"/><path fill="#464445" d="M319.1,80.1c0,0-0.1,0.1-0.2,0.1s-0.3,0-0.4,0.1c-0.2,0-0.4,0-0.7,0s-0.5,0-0.7,0s-0.4,0-0.5-0.1c-0.1,0-0.2-0.1-0.3-0.1c0,0-0.1-0.1-0.1-0.2v-4.6c0-0.3,0-0.6,0-1s0-0.7,0.1-1c-0.2,0.3-0.4,0.6-0.6,1s-0.5,0.6-0.6,1l-3.5,4.8c-0.1,0.1-0.1,0.2-0.2,0.2c0,0.1-0.1,0.1-0.2,0.1s-0.2,0.1-0.4,0.1c-0.1,0-0.3,0-0.6,0c-0.3,0-0.5,0-0.7,0s-0.3,0-0.4-0.1s-0.2-0.1-0.2-0.1c0-0.1-0.1-0.1-0.1-0.2V69.5c0-0.1,0-0.1,0.1-0.2c0,0,0.1-0.1,0.2-0.1s0.3-0.1,0.5-0.1s0.4,0,0.7,0c0.6,0,1,0,1.1,0.1c0.2,0.1,0.3,0.2,0.3,0.3v4.6c0,0.3,0,0.6,0,1s0,0.7-0.1,1c0.2-0.3,0.4-0.6,0.6-0.9s0.4-0.6,0.6-0.9l3.5-4.8c0-0.1,0.1-0.1,0.2-0.2c0.1,0,0.2-0.1,0.3-0.1c0.1,0,0.2,0,0.4-0.1c0.1,0,0.3,0,0.6,0s0.5,0,0.7,0s0.3,0,0.4,0.1c0.1,0,0.2,0.1,0.2,0.1s0,0.1,0,0.2L319.1,80.1C319.1,80,319.1,80,319.1,80.1z"/><path fill="#464445" d="M332.3,80.1c0,0-0.1,0.1-0.2,0.1s-0.3,0-0.4,0.1c-0.2,0-0.4,0-0.7,0c-0.3,0-0.5,0-0.7,0s-0.4,0-0.5-0.1c-0.1,0-0.2-0.1-0.3-0.1c0,0-0.1-0.1-0.1-0.2v-4.6c0-0.3,0-0.6,0-1s0-0.7,0.1-1c-0.2,0.3-0.4,0.6-0.6,1c-0.2,0.3-0.5,0.6-0.6,1l-3.5,4.8c-0.1,0.1-0.1,0.2-0.2,0.2c0,0.1-0.1,0.1-0.2,0.1s-0.2,0.1-0.4,0.1c-0.1,0-0.3,0-0.6,0c-0.3,0-0.5,0-0.7,0s-0.3,0-0.4-0.1s-0.2-0.1-0.2-0.1c0-0.1-0.1-0.1-0.1-0.2V69.5c0-0.1,0-0.1,0.1-0.2c0,0,0.1-0.1,0.2-0.1s0.3-0.1,0.5-0.1s0.4,0,0.7,0c0.6,0,1,0,1.1,0.1c0.2,0.1,0.3,0.2,0.3,0.3v4.6c0,0.3,0,0.6,0,1s0,0.7-0.1,1c0.2-0.3,0.4-0.6,0.6-0.9s0.4-0.6,0.6-0.9l3.5-4.8c0-0.1,0.1-0.1,0.2-0.2c0.1,0,0.2-0.1,0.3-0.1c0.1,0,0.2,0,0.4-0.1c0.1,0,0.3,0,0.6,0c0.3,0,0.5,0,0.7,0s0.3,0,0.4,0.1c0.1,0,0.2,0.1,0.2,0.1s0,0.1,0,0.2L332.3,80.1C332.4,80,332.4,80,332.3,80.1z M331.3,65.8c-0.1,0.4-0.4,0.8-0.7,1.1c-0.3,0.3-0.8,0.6-1.3,0.7c-0.6,0.2-1.2,0.3-2,0.3s-1.4-0.1-1.9-0.2s-1-0.4-1.3-0.7c-0.4-0.3-0.6-0.6-0.7-1.1s-0.2-0.9-0.2-1.4c0-0.1,0-0.2,0.1-0.3c0-0.1,0.1-0.1,0.2-0.2c0.1,0,0.2-0.1,0.4-0.1c0.2,0,0.4,0,0.6,0s0.5,0,0.6,0s0.3,0,0.4,0.1c0.1,0,0.1,0.1,0.2,0.2c0,0.1,0,0.1,0,0.3c0,0.2,0,0.4,0.1,0.6s0.2,0.3,0.3,0.5c0.1,0.1,0.3,0.2,0.6,0.3c0.2,0.1,0.5,0.1,0.7,0.1s0.5,0,0.7-0.1c0.2,0,0.4-0.2,0.5-0.3c0.1-0.1,0.3-0.3,0.3-0.5c0.1-0.2,0.1-0.4,0.1-0.6c0-0.1,0-0.2,0-0.2s0.1-0.1,0.2-0.2s0.2-0.1,0.4-0.1c0.2,0,0.4,0,0.6,0c0.3,0,0.5,0,0.7,0s0.3,0,0.4,0.1s0.2,0.1,0.2,0.2s0.1,0.2,0.1,0.3C331.5,65,331.5,65.4,331.3,65.8z"/><path fill="#464445" d="M343.2,78.7c0,0.1,0,0.2,0,0.3c0,0.1,0,0.2-0.1,0.2c0,0.1-0.1,0.1-0.2,0.2s-0.3,0.2-0.5,0.3c-0.2,0.1-0.5,0.2-0.8,0.3c-0.3,0.1-0.6,0.2-1,0.2c-0.3,0-0.7,0.1-1.1,0.1c-0.8,0-1.5-0.1-2.1-0.4c-0.6-0.2-1.1-0.6-1.6-1.1c-0.4-0.5-0.7-1.1-1-1.8c-0.2-0.7-0.3-1.5-0.3-2.4c0-1.1,0.1-1.9,0.4-2.7c0.3-0.8,0.6-1.4,1.1-1.9s1-0.9,1.7-1.1s1.3-0.4,2.1-0.4c0.3,0,0.6,0,0.9,0.1c0.3,0,0.6,0.1,0.8,0.2c0.3,0.1,0.5,0.2,0.7,0.3c0.2,0.1,0.4,0.2,0.4,0.3c0,0.1,0.1,0.1,0.2,0.2c0,0,0.1,0.1,0.1,0.2s0,0.2,0,0.3c0,0.1,0,0.3,0,0.5c0,0.5,0,0.8-0.1,1s-0.2,0.3-0.3,0.3c-0.1,0-0.3,0-0.4-0.2c-0.1-0.1-0.3-0.2-0.5-0.4c-0.2-0.1-0.5-0.3-0.7-0.4c-0.3-0.1-0.6-0.2-1-0.2c-0.8,0-1.3,0.3-1.7,0.9c-0.4,0.6-0.6,1.4-0.6,2.6c0,0.6,0,1.1,0.1,1.5s0.2,0.8,0.5,1.1c0.2,0.3,0.5,0.5,0.7,0.6c0.3,0.1,0.6,0.2,1.1,0.2c0.4,0,0.8,0,1.1-0.2c0.3-0.1,0.6-0.2,0.8-0.4s0.4-0.3,0.6-0.4c0.1-0.1,0.3-0.2,0.4-0.2s0.1,0,0.2,0c0,0,0.1,0.1,0.1,0.2s0,0.2,0,0.4s0,0.4,0,0.6C343.2,78.4,343.2,78.6,343.2,78.7z"/><path fill="#464445" d="M355,80.1c0,0-0.1,0.1-0.2,0.1s-0.3,0-0.5,0.1c-0.2,0-0.4,0-0.7,0c-0.3,0-0.6,0-0.8,0c-0.2,0-0.4,0-0.5-0.1s-0.2,0-0.3-0.1c0-0.1-0.1-0.1-0.1-0.2l-1-2.5c-0.1-0.3-0.2-0.6-0.4-0.8s-0.3-0.4-0.5-0.6c-0.2-0.1-0.4-0.2-0.6-0.3c-0.2,0-0.5-0.1-0.7-0.1h-0.6v4.2c0,0,0,0.1-0.1,0.1c0,0-0.1,0.1-0.3,0.1c-0.1,0-0.3,0.1-0.5,0.1s-0.4,0-0.7,0c-0.3,0-0.5,0-0.7,0s-0.3,0-0.5-0.1c-0.1,0-0.2-0.1-0.3-0.1l-0.1-0.1V69.3c0,0,0-0.1,0.1-0.2c0,0,0.1-0.1,0.3-0.1c0.1,0,0.3-0.1,0.5-0.1s0.4,0,0.7,0c0.3,0,0.5,0,0.7,0s0.3,0,0.5,0.1c0.1,0,0.2,0.1,0.3,0.1c0,0,0.1,0.1,0.1,0.2v4h0.6c0.2,0,0.5,0,0.6-0.1c0.2-0.1,0.4-0.2,0.5-0.3c0.2-0.1,0.3-0.3,0.5-0.6c0.1-0.2,0.3-0.5,0.4-0.8l0.9-2.3c0-0.1,0-0.1,0.1-0.2c0,0,0.1-0.1,0.2-0.1s0.3,0,0.5-0.1c0.2,0,0.5,0,0.8,0s0.5,0,0.7,0s0.3,0,0.5,0.1c0.1,0,0.2,0.1,0.2,0.1v0.1c0,0.1,0,0.2,0,0.3c0,0.1-0.1,0.3-0.2,0.5l-0.8,2c-0.2,0.4-0.3,0.7-0.5,1s-0.4,0.5-0.6,0.7s-0.4,0.3-0.6,0.4s-0.4,0.2-0.6,0.3l0,0c0.2,0.1,0.5,0.2,0.7,0.3c0.2,0.1,0.4,0.3,0.6,0.5s0.4,0.4,0.6,0.7c0.2,0.3,0.4,0.6,0.5,1l1,2.3c0,0.1,0.1,0.2,0.1,0.3c0,0.1,0,0.1,0,0.2s0,0.1,0,0.1v0.1C355.1,80,355.1,80.1,355,80.1z"/><path fill="#464445" d="M367.4,80.1c0,0-0.1,0.1-0.2,0.1s-0.3,0-0.4,0.1c-0.2,0-0.4,0-0.7,0c-0.3,0-0.5,0-0.7,0s-0.4,0-0.5-0.1c-0.1,0-0.2-0.1-0.3-0.1c0,0-0.1-0.1-0.1-0.2v-4.6c0-0.3,0-0.6,0-1s0-0.7,0.1-1c-0.2,0.3-0.4,0.6-0.6,1c-0.2,0.3-0.5,0.6-0.6,1l-3.5,4.8c-0.1,0.1-0.1,0.2-0.2,0.2c0,0.1-0.1,0.1-0.2,0.1s-0.2,0.1-0.4,0.1c-0.1,0-0.3,0-0.6,0c-0.3,0-0.5,0-0.7,0s-0.3,0-0.4-0.1s-0.2-0.1-0.2-0.1c0-0.1-0.1-0.1-0.1-0.2V69.5c0-0.1,0-0.1,0.1-0.2c0,0,0.1-0.1,0.2-0.1s0.3-0.1,0.5-0.1s0.4,0,0.7,0c0.6,0,1,0,1.1,0.1c0.2,0.1,0.3,0.2,0.3,0.3v4.6c0,0.3,0,0.6,0,1s0,0.7-0.1,1c0.2-0.3,0.4-0.6,0.6-0.9s0.4-0.6,0.6-0.9l3.5-4.8c0-0.1,0.1-0.1,0.2-0.2c0.1,0,0.2-0.1,0.3-0.1c0.1,0,0.2,0,0.4-0.1c0.1,0,0.3,0,0.6,0c0.3,0,0.5,0,0.7,0s0.3,0,0.4,0.1c0.1,0,0.2,0.1,0.2,0.1s0,0.1,0,0.2L367.4,80.1C367.5,80,367.5,80,367.4,80.1z"/><path fill="#464445" d="M380.7,80.1c0,0-0.1,0.1-0.2,0.1s-0.3,0-0.4,0.1c-0.2,0-0.4,0-0.7,0c-0.3,0-0.5,0-0.7,0s-0.4,0-0.5-0.1c-0.1,0-0.2-0.1-0.3-0.1c0,0-0.1-0.1-0.1-0.2v-4.6c0-0.3,0-0.6,0-1s0-0.7,0.1-1c-0.2,0.3-0.4,0.6-0.6,1c-0.2,0.3-0.5,0.6-0.6,1l-3.5,4.8c-0.1,0.1-0.1,0.2-0.2,0.2c0,0.1-0.1,0.1-0.2,0.1s-0.2,0.1-0.4,0.1c-0.1,0-0.3,0-0.6,0c-0.3,0-0.5,0-0.7,0s-0.3,0-0.4-0.1s-0.2-0.1-0.2-0.1c0-0.1-0.1-0.1-0.1-0.2V69.5c0-0.1,0-0.1,0.1-0.2c0,0,0.1-0.1,0.2-0.1s0.3-0.1,0.5-0.1s0.4,0,0.7,0c0.6,0,1,0,1.1,0.1c0.2,0.1,0.3,0.2,0.3,0.3v4.6c0,0.3,0,0.6,0,1s0,0.7-0.1,1c0.2-0.3,0.4-0.6,0.6-0.9s0.4-0.6,0.6-0.9l3.5-4.8c0-0.1,0.1-0.1,0.2-0.2c0.1,0,0.2-0.1,0.3-0.1c0.1,0,0.2,0,0.4-0.1c0.1,0,0.3,0,0.6,0c0.3,0,0.5,0,0.7,0s0.3,0,0.4,0.1c0.1,0,0.2,0.1,0.2,0.1s0,0.1,0,0.2L380.7,80.1C380.8,80,380.8,80,380.7,80.1z M379.7,65.8c-0.1,0.4-0.4,0.8-0.7,1.1c-0.3,0.3-0.8,0.6-1.3,0.7c-0.6,0.2-1.2,0.3-2,0.3s-1.4-0.1-1.9-0.2s-1-0.4-1.3-0.7c-0.4-0.3-0.6-0.6-0.7-1.1c-0.1-0.4-0.2-0.9-0.2-1.4c0-0.1,0-0.2,0.1-0.3c0-0.1,0.1-0.1,0.2-0.2c0.1,0,0.2-0.1,0.4-0.1c0.2,0,0.4,0,0.6,0s0.5,0,0.6,0s0.3,0,0.4,0.1c0.1,0,0.1,0.1,0.2,0.2c0,0.1,0,0.1,0,0.3c0,0.2,0,0.4,0.1,0.6s0.2,0.3,0.3,0.5c0.1,0.1,0.3,0.2,0.6,0.3c0.2,0.1,0.5,0.1,0.7,0.1s0.5,0,0.7-0.1c0.2,0,0.4-0.2,0.5-0.3c0.1-0.1,0.3-0.3,0.3-0.5c0.1-0.2,0.1-0.4,0.1-0.6c0-0.1,0-0.2,0-0.2s0.1-0.1,0.2-0.2s0.2-0.1,0.4-0.1c0.2,0,0.4,0,0.6,0c0.3,0,0.5,0,0.7,0s0.3,0,0.4,0.1s0.2,0.1,0.2,0.2s0.1,0.2,0.1,0.3C380,65,379.9,65.4,379.7,65.8z"/><path fill="#464445" d="M273.7,91.7c0.8-1.1,1.7-1.7,2.4-1.7c0.2,0,0.3,0.2,0.3,0.4c0,0.5-0.4,1.7-0.6,2.7c0.7,0,2.1,0,2.5-0.1c0.3-1.1,0.6-2.1,0.8-2.8c0.3,0,0.9,0,1.1-0.1c-0.1,0.2-0.2,0.6-0.5,1.5c-0.4,1.2-0.8,2.8-1.1,3.8c-0.1,0.4-0.1,0.6,0,0.6c0.2,0,0.6-0.3,1.4-1.3l0.3,0.3c-0.7,1.2-1.7,2-2.5,2c-0.6,0-0.5-0.6-0.2-1.6c0.2-0.8,0.4-1.3,0.6-1.9c-0.6,0.1-1.7,0.1-2.5,0.1l-1,3.3c-0.4,0-0.9-0.1-1.1-0.2c0.4-1.4,1.2-3.9,1.5-5.1c0.1-0.4,0.1-0.6,0-0.6c-0.2,0-0.6,0.2-1.2,0.9L273.7,91.7z"/><path fill="#464445" d="M287.9,95c-0.7,1.3-1.8,2-2.4,2c-0.3,0-0.6-0.2-0.6-0.6s0.2-0.9,0.6-2.6c-0.6,1.1-1.1,1.8-1.9,2.4c-0.5,0.4-1.1,0.7-1.5,0.7c-0.6,0-0.9-0.4-0.9-1.3c0-1.5,0.9-3.4,2-4.5c0.6-0.6,1.2-1,2-1c0.6,0,1,0.3,1.2,0.7l0.2-0.7h1.1c-0.4,1.2-1.2,4-1.6,5.5c-0.1,0.3-0.1,0.5,0.1,0.5s0.8-0.5,1.3-1.3L287.9,95z M285.4,90.6c-0.6,0-1.1,0.5-1.7,1.3c-0.7,1.1-1.2,2.6-1.2,3.6c0,0.5,0.1,0.7,0.4,0.7c0.8,0,2.3-1.9,2.9-3.4c0.2-0.6,0.3-1.1,0.3-1.3C286.1,90.7,285.7,90.6,285.4,90.6z"/><path fill="#464445" d="M296.4,94.9c-0.7,1.2-1.7,2.1-2.8,2.1c-1,0-1.6-0.6-1.6-1.9c0-1.2,0.6-2.9,1.7-4c0.6-0.6,1.4-1,2.1-1c1.1,0,1.4,0.6,1.4,0.9c0,0.5-0.4,0.7-0.6,0.7s-0.4-0.1-0.6-0.4c-0.2-0.4-0.4-0.6-0.5-0.6s-0.1,0-0.2,0c-1.1,0-2.1,2.4-2.1,4.2c0,0.9,0.4,1.3,0.9,1.3s1.1-0.3,2-1.5L296.4,94.9z"/><path fill="#464445" d="M297.7,91.7c0.6-1,1.7-1.7,2.4-1.7c0.3,0,0.4,0.2,0.4,0.5c0,0.5-0.6,2.5-0.9,3.4c0.6-0.8,1.3-1.6,2.2-2.5c1-1.1,1.6-1.3,2-1.3s0.6,0.2,0.6,0.5c0,0.5-0.5,0.9-0.7,0.9c-0.1,0-0.2-0.1-0.3-0.2c-0.1-0.1-0.2-0.2-0.4-0.2c-0.2,0-0.4,0.1-1,0.6c-0.4,0.4-0.8,0.9-1.1,1.3c0.3,0.1,0.5,0.5,0.7,1.1c0.2,0.4,0.2,0.7,0.4,1.1c0.3,0.8,0.4,0.9,0.6,0.9c0.3,0,0.6-0.5,1.1-1.1l0.2,0.3c-0.6,1.1-1.3,1.7-1.9,1.7c-0.4,0-0.6-0.2-1-1.3c-0.2-0.6-0.3-1.2-0.4-1.5c-0.1-0.5-0.2-0.6-0.3-0.6c0,0-0.1,0-0.3,0.2c-0.6,0.7-0.8,1.3-1,1.9l-0.4,1.2c-0.4,0-0.9-0.1-1.1-0.2c0.4-1.4,1.2-4,1.5-5.1c0.1-0.4,0.1-0.6,0-0.6c-0.2,0-0.6,0.3-1.2,1L297.7,91.7z"/><path fill="#464445" d="M310.7,92.2c0,1.4-0.7,3.1-2,4.1c-0.6,0.4-1.2,0.6-1.9,0.6c-1.3,0-1.9-0.9-1.9-2.1c0-1.4,0.8-3.3,2.2-4.3c0.5-0.3,1.1-0.6,1.7-0.6C310.3,90.1,310.7,91.3,310.7,92.2z M309.6,91.8c0-0.7-0.2-1.2-0.8-1.2c-1.4,0-2.6,2.7-2.6,4.7c0,0.9,0.3,1.2,0.9,1.2C308.5,96.5,309.6,93.4,309.6,91.8z"/><path fill="#464445" d="M311.8,91.5c0.5-0.5,1.2-0.8,2-1.1c0.2-0.6,0.3-1.1,0.5-1.6c0.2,0,0.8,0,1.1,0c-0.1,0.3-0.3,0.8-0.4,1.4c0.2,0,0.4,0,0.7,0c1.4,0,2.3,0.6,2.3,1.9c0,2.4-2.3,5-4.1,5c-0.3,0-0.6,0-0.9-0.2c-0.2,0.6-0.4,1.4-0.6,2.2c-0.1,0.6,0,0.6,1.2,0.7l-0.1,0.4c-1.4,0-2.9,0.1-3.6,0.2l0.1-0.5c0.9-0.1,1.1-0.2,1.3-0.7c0.5-1.5,1.5-5.2,2.4-8.1c-0.5,0.1-1.2,0.6-1.7,0.9L311.8,91.5z M313.4,95.3c0,0.2-0.1,0.4-0.1,0.5c0,0.5,0.4,0.7,0.7,0.7c1.2,0,2.7-2.7,2.7-4.2c0-1.1-0.4-1.6-1.5-1.6c-0.1,0-0.4,0-0.5,0C314.2,92.3,313.7,94.3,313.4,95.3z"/><path fill="#464445" d="M318.8,92.2c0.8-1.5,1.6-2.1,2.1-2.1c0.4,0,0.6,0.5,0.7,1.4c0.1,1.4,0.2,3.4,0.2,4.7c1.6-2.5,1.9-4,1.9-4.6c0-0.4-0.1-0.8-0.1-0.9s0.4-0.6,0.9-0.6c0.2,0,0.2,0.2,0.2,0.6c0,0.2,0,0.5-0.1,0.9c-0.4,2-2.4,5.1-3.8,6.7c-1,1.1-2,2-2.7,2c-0.5,0-0.8-0.3-0.8-0.7s0.5-1,0.8-1c0.1,0,0.2,0,0.4,0.2c0.2,0.3,0.3,0.4,0.5,0.4s0.6-0.2,1-0.8c0.6-0.8,0.8-1.3,0.8-3c0-0.8,0-2.3-0.3-3.6c0-0.5-0.2-0.7-0.3-0.7c-0.3,0-0.6,0.4-1.1,1.3L318.8,92.2z"/><path fill="#464445" d="M325.7,91.7c0.8-1,1.7-1.7,2.4-1.7c0.2,0,0.3,0.2,0.3,0.4c0,0.5-0.4,1.7-0.6,2.7c0.5,0,1.2,0,1.6,0c0.3-0.9,0.9-1.9,1.8-2.5c0.5-0.4,1.1-0.6,1.7-0.6c1.5,0,1.9,1.2,1.9,2.2c0,1.4-0.7,3.1-1.9,4c-0.6,0.5-1.3,0.7-2,0.7c-1.3,0-1.8-0.9-1.8-2c0-0.4,0-0.9,0.2-1.3c-0.5,0-1.1,0-1.6,0l-1,3.3c-0.3,0-0.9-0.1-1.1-0.2c0.4-1.4,1.2-3.9,1.5-5.1c0.1-0.4,0.1-0.6,0-0.6c-0.2,0-0.6,0.2-1.2,0.9L325.7,91.7z M333.6,91.8c0-0.7-0.2-1.2-0.8-1.2c-1.4,0-2.5,2.6-2.5,4.6c0,0.8,0.3,1.3,0.9,1.3C332.5,96.5,333.6,93.4,333.6,91.8z"/><path fill="#464445" d="M338.9,91.5c0.5-0.5,1.2-0.8,2-1.1c0.2-0.6,0.3-1.1,0.5-1.6c0.2,0,0.8,0,1.1,0c-0.1,0.3-0.3,0.8-0.4,1.4c0.2,0,0.4,0,0.7,0c1.4,0,2.3,0.6,2.3,1.9c0,2.4-2.3,5-4.1,5c-0.3,0-0.6,0-0.9-0.2c-0.2,0.6-0.4,1.4-0.6,2.2c-0.1,0.6,0,0.6,1.2,0.7l-0.1,0.4c-1.4,0-2.9,0.1-3.6,0.2l0.1-0.5c0.9-0.1,1.1-0.2,1.3-0.7c0.5-1.5,1.5-5.2,2.4-8.1c-0.5,0.1-1.2,0.6-1.7,0.9L338.9,91.5z M340.5,95.3c0,0.2-0.1,0.4-0.1,0.5c0,0.5,0.4,0.7,0.7,0.7c1.2,0,2.7-2.7,2.7-4.2c0-1.1-0.4-1.6-1.5-1.6c-0.1,0-0.4,0-0.5,0C341.4,92.3,340.8,94.3,340.5,95.3z"/><path fill="#464445" d="M346,92.2c0.8-1.5,1.6-2.1,2.1-2.1c0.4,0,0.6,0.5,0.7,1.4c0.1,1.4,0.2,3.4,0.2,4.7c1.6-2.5,1.9-4,1.9-4.6c0-0.4-0.1-0.8-0.1-0.9s0.4-0.6,0.9-0.6c0.2,0,0.2,0.2,0.2,0.6c0,0.2,0,0.5-0.1,0.9c-0.4,2-2.4,5.1-3.8,6.7c-1,1.1-2,2-2.7,2c-0.5,0-0.8-0.3-0.8-0.7s0.5-1,0.8-1c0.1,0,0.2,0,0.4,0.2c0.2,0.3,0.3,0.4,0.5,0.4s0.6-0.2,1-0.8c0.6-0.8,0.8-1.3,0.8-3c0-0.8,0-2.3-0.3-3.6c0-0.5-0.2-0.7-0.3-0.7c-0.3,0-0.6,0.4-1.1,1.3L346,92.2z"/><path fill="#464445" d="M352.8,91.7c0.6-1,1.7-1.7,2.4-1.7c0.3,0,0.4,0.2,0.4,0.5c0,0.5-0.6,2.5-0.9,3.4c0.6-0.8,1.3-1.6,2.2-2.5c1-1.1,1.6-1.3,2-1.3s0.6,0.2,0.6,0.5c0,0.5-0.5,0.9-0.7,0.9c-0.1,0-0.2-0.1-0.3-0.2c-0.1-0.1-0.2-0.2-0.4-0.2c-0.2,0-0.4,0.1-1,0.6c-0.4,0.4-0.8,0.9-1.1,1.3c0.3,0.1,0.5,0.5,0.7,1.1c0.2,0.4,0.2,0.7,0.4,1.1c0.3,0.8,0.4,0.9,0.6,0.9c0.3,0,0.6-0.5,1.1-1.1l0.2,0.3c-0.6,1.1-1.3,1.7-1.9,1.7c-0.4,0-0.6-0.2-1-1.3c-0.2-0.6-0.3-1.2-0.4-1.5c-0.1-0.5-0.2-0.6-0.3-0.6c0,0-0.1,0-0.3,0.2c-0.6,0.7-0.8,1.3-1,1.9l-0.4,1.2c-0.4,0-0.9-0.1-1.1-0.2c0.4-1.4,1.2-4,1.5-5.1c0.1-0.4,0.1-0.6,0-0.6c-0.2,0-0.6,0.3-1.2,1L352.8,91.7z"/><path fill="#464445" d="M360.3,92.2c0.8-1.5,1.6-2.1,2.1-2.1c0.4,0,0.6,0.5,0.7,1.4c0.1,1.4,0.2,3.4,0.2,4.7c1.6-2.5,1.9-4,1.9-4.6c0-0.4-0.1-0.8-0.1-0.9s0.4-0.6,0.9-0.6c0.2,0,0.2,0.2,0.2,0.6c0,0.2,0,0.5-0.1,0.9c-0.4,2-2.4,5.1-3.8,6.7c-1,1.1-2,2-2.7,2c-0.5,0-0.8-0.3-0.8-0.7s0.5-1,0.8-1c0.1,0,0.2,0,0.4,0.2c0.2,0.3,0.3,0.4,0.5,0.4s0.6-0.2,1-0.8c0.6-0.8,0.8-1.3,0.8-3c0-0.8,0-2.3-0.3-3.6c0-0.5-0.2-0.7-0.3-0.7c-0.3,0-0.6,0.4-1.1,1.3L360.3,92.2z"/><path fill="#464445" d="M270.4,128.1L270.4,128.1c0,0.1,0,0.1,0,0.2c0,0,0,0,0,0.1c0,0-0.1,0.1-0.2,0.1s-0.2,0.1-0.4,0.2c-0.1,0-0.3,0.1-0.5,0.1s-0.4,0-0.6,0c-0.4,0-0.7,0-1-0.2c-0.3-0.1-0.6-0.3-0.8-0.6c-0.2-0.2-0.4-0.6-0.5-0.9c-0.1-0.4-0.2-0.8-0.2-1.2c0-0.5,0-0.9,0.2-1.3c0.1-0.4,0.3-0.7,0.5-1s0.5-0.5,0.8-0.6s0.6-0.2,1.1-0.2c0.2,0,0.3,0,0.5,0c0.1,0,0.3,0.1,0.5,0.1c0.1,0,0.3,0.1,0.4,0.2s0.2,0.1,0.2,0.1s0,0.1,0.1,0.1c0,0,0,0,0,0.1c0,0,0,0,0,0.1s0,0.1,0,0.1v0.1v0.1l0,0l0,0c0,0-0.1,0-0.2-0.1c-0.1,0-0.2-0.1-0.3-0.2c-0.1,0-0.3-0.1-0.4-0.2c-0.2,0-0.4-0.1-0.6-0.1c-0.3,0-0.5,0-0.7,0.1s-0.4,0.3-0.6,0.5s-0.3,0.5-0.4,0.7c-0.1,0.3-0.1,0.6-0.1,1s0,0.7,0.1,1s0.2,0.5,0.3,0.7s0.3,0.3,0.6,0.4c0.2,0.1,0.5,0.1,0.7,0.1s0.4,0,0.6-0.1c0.2,0,0.3-0.1,0.5-0.2c0.1,0,0.2-0.1,0.3-0.2c0.1,0,0.1-0.1,0.2-0.1l0,0l0,0c0,0,0,0,0,0.1c0,0,0,0.1,0,0.2C270.4,128,270.4,128.1,270.4,128.1z"/><path fill="#464445" d="M275,127.5c-0.1,0.3-0.2,0.5-0.4,0.7c-0.2,0.2-0.4,0.4-0.6,0.5c-0.3,0.1-0.6,0.2-0.9,0.2s-0.6,0-0.9-0.1c-0.2-0.1-0.5-0.3-0.6-0.5c-0.2-0.2-0.3-0.5-0.4-0.8s-0.1-0.7-0.1-1.1s0-0.7,0-1s0.1-0.6,0.1-0.8c0-0.2,0.1-0.5,0.2-0.6c0.1-0.2,0.2-0.3,0.3-0.4c0.1-0.1,0.2-0.2,0.3-0.2c0.1,0,0.2-0.1,0.3-0.2c0.1,0,0.2-0.1,0.4-0.1c0.1,0,0.3-0.1,0.5-0.1l1.4-0.2h0.1c0,0,0,0,0.1,0c0,0,0,0,0,0.1s0,0.1,0,0.2v0.1v0.1l0,0c0,0,0,0-0.1,0l-1.3,0.2c-0.1,0-0.2,0-0.4,0.1c-0.1,0-0.2,0-0.3,0.1c-0.1,0-0.1,0-0.2,0.1c0,0-0.1,0.1-0.2,0.1c0,0-0.1,0.1-0.2,0.2c0,0.1-0.1,0.2-0.1,0.3c0,0.1,0,0.2-0.1,0.4c0,0.1,0,0.3,0,0.5c0.1-0.1,0.2-0.2,0.3-0.3c0.1-0.1,0.2-0.1,0.4-0.2c0.1-0.1,0.2-0.1,0.4-0.1c0.1,0,0.3,0,0.4,0c0.3,0,0.6,0,0.8,0.1s0.4,0.2,0.6,0.4c0.1,0.2,0.2,0.4,0.3,0.6s0.1,0.6,0.1,0.8C275.1,126.9,275.1,127.2,275,127.5z M274.3,126.1c0-0.2-0.1-0.3-0.2-0.5s-0.2-0.2-0.3-0.3c-0.1-0.1-0.3-0.1-0.5-0.1c-0.1,0-0.2,0-0.4,0c-0.1,0-0.2,0.1-0.3,0.1c-0.1,0-0.2,0.1-0.3,0.2c-0.1,0.1-0.2,0.2-0.3,0.3c0,0,0,0.1,0,0.2v0.2c0,0.3,0,0.6,0,0.9c0,0.2,0.1,0.5,0.2,0.6s0.2,0.3,0.4,0.4c0.1,0.1,0.3,0.1,0.6,0.1c0.2,0,0.4,0,0.5-0.1c0.1-0.1,0.3-0.2,0.4-0.3c0.1-0.1,0.2-0.3,0.2-0.5s0.1-0.4,0.1-0.6C274.3,126.5,274.3,126.3,274.3,126.1z"/><path fill="#464445" d="M279.8,127.5c-0.1,0.3-0.2,0.5-0.4,0.7c-0.2,0.2-0.4,0.4-0.6,0.5c-0.3,0.1-0.6,0.2-0.9,0.2s-0.6,0-0.9-0.1c-0.2-0.1-0.5-0.2-0.6-0.4s-0.3-0.4-0.4-0.7c-0.1-0.3-0.1-0.6-0.1-0.9s0-0.6,0.1-0.9s0.2-0.5,0.4-0.7c0.2-0.2,0.4-0.4,0.6-0.5c0.3-0.1,0.6-0.2,0.9-0.2s0.6,0,0.9,0.1c0.2,0.1,0.5,0.2,0.6,0.4c0.1,0.2,0.3,0.4,0.4,0.7c0.1,0.3,0.1,0.6,0.1,0.9C280,126.9,279.9,127.2,279.8,127.5z M279.2,126c0-0.2-0.1-0.4-0.2-0.5s-0.2-0.3-0.4-0.4c-0.1-0.1-0.4-0.1-0.6-0.1s-0.4,0-0.6,0.1c-0.1,0.1-0.3,0.2-0.4,0.3c-0.1,0.1-0.2,0.3-0.2,0.5s-0.1,0.4-0.1,0.6s0,0.4,0,0.6s0.1,0.4,0.2,0.5s0.2,0.3,0.4,0.4c0.1,0.1,0.4,0.1,0.6,0.1s0.4,0,0.6-0.1c0.1-0.1,0.3-0.2,0.4-0.3c0.1-0.1,0.2-0.3,0.2-0.5s0.1-0.4,0.1-0.6S279.2,126.2,279.2,126z"/><path fill="#464445" d="M284.7,127.5c-0.1,0.3-0.2,0.5-0.3,0.7c-0.1,0.2-0.3,0.4-0.6,0.5c-0.2,0.1-0.5,0.1-0.7,0.1c-0.1,0-0.2,0-0.3,0c-0.1,0-0.2,0-0.3-0.1c-0.1,0-0.2-0.1-0.3-0.2c-0.1,0-0.2-0.2-0.3-0.3v2l0,0l0,0c0,0,0,0-0.1,0s-0.1,0-0.2,0s-0.1,0-0.2,0h-0.1l0,0l0,0v-5.6l0,0l0,0c0,0,0,0,0.1,0s0.1,0,0.1,0h0.1h0.1l0,0l0,0v0.6c0.1-0.1,0.2-0.2,0.4-0.3c0.1-0.1,0.2-0.2,0.4-0.2c0.1,0,0.2-0.1,0.4-0.1c0.1,0,0.2,0,0.4,0c0.3,0,0.6,0,0.7,0.2s0.4,0.3,0.5,0.5s0.2,0.4,0.3,0.7c0,0.3,0.1,0.6,0.1,0.8C284.8,126.9,284.8,127.2,284.7,127.5z M284,126.1c0-0.2-0.1-0.4-0.2-0.5s-0.2-0.3-0.3-0.4c-0.1-0.1-0.3-0.1-0.5-0.1c-0.1,0-0.2,0-0.3,0c-0.1,0-0.2,0.1-0.3,0.1s-0.2,0.1-0.3,0.2c-0.1,0.1-0.2,0.2-0.3,0.4v1.6c0.2,0.2,0.4,0.5,0.6,0.6s0.4,0.2,0.6,0.2s0.4,0,0.5-0.1c0.1-0.1,0.2-0.2,0.3-0.4s0.1-0.3,0.2-0.5c0-0.2,0-0.4,0-0.6S284,126.3,284,126.1z"/><path fill="#464445" d="M289.3,128.7L289.3,128.7c0,0-0.1,0-0.1,0.1c0,0-0.1,0-0.2,0s-0.1,0-0.2,0h-0.1l0,0l0,0V127h-2.1v1.8l0,0l0,0c0,0,0,0-0.1,0c0,0-0.1,0-0.2,0s-0.1,0-0.2,0s-0.1,0-0.1,0l0,0l0,0v-4l0,0l0,0c0,0,0,0,0.1,0c0,0,0.1,0,0.2,0s0.1,0,0.2,0s0.1,0,0.1,0l0,0l0,0v1.7h2.1v-1.7l0,0l0,0c0,0,0,0,0.1,0s0.1,0,0.2,0s0.1,0,0.2,0h0.1l0,0l0,0V128.7C289.4,128.7,289.4,128.7,289.3,128.7z"/><path fill="#464445" d="M294.4,128.7L294.4,128.7c-0.1,0-0.1,0-0.1,0.1c0,0-0.1,0-0.2,0s-0.1,0-0.2,0h-0.1l0,0l0,0v-2.3c0-0.1,0-0.2,0-0.4c0-0.1,0-0.2,0-0.4c0,0.1-0.1,0.2-0.2,0.4c-0.1,0.1-0.2,0.2-0.2,0.3l-1.7,2.3l0,0l0,0c0,0,0,0-0.1,0h-0.1c0,0-0.1,0-0.2,0h-0.1l0,0l0,0v-4l0,0l0,0c0,0,0,0,0.1,0s0.1,0,0.2,0s0.2,0,0.3,0c0,0,0.1,0,0.1,0.1v2.3c0,0.1,0,0.2,0,0.4s0,0.2,0,0.4c0-0.1,0.1-0.2,0.2-0.3c0-0.1,0.1-0.2,0.2-0.3l1.7-2.4l0,0c0,0,0,0,0.1,0c0,0,0,0,0.1,0s0.1,0,0.1,0s0.1,0,0.2,0h0.1l0,0l0,0L294.4,128.7L294.4,128.7z"/><path fill="#464445" d="M299,128.8L299,128.8c-0.1,0-0.1,0-0.1,0s-0.1,0-0.2,0s-0.1,0-0.2,0h-0.1c0,0,0,0-0.1,0l0,0l-0.4-1.1c0-0.1-0.1-0.2-0.2-0.4c0-0.1-0.1-0.2-0.2-0.2s-0.2-0.1-0.3-0.1s-0.2,0-0.4,0h-0.3v1.8l0,0l0,0c0,0,0,0-0.1,0s-0.1,0-0.2,0s-0.1,0-0.2,0h-0.1l0,0l0,0v-4.1l0,0l0,0c0,0,0,0,0.1,0c0,0,0.1,0,0.2,0s0.1,0,0.2,0h0.1l0,0l0,0v1.7h0.3c0.1,0,0.2,0,0.3,0s0.2-0.1,0.3-0.1c0.1,0,0.1-0.1,0.2-0.2c0-0.1,0.1-0.2,0.2-0.3l0.4-0.9l0,0l0,0c0,0,0,0,0.1,0c0,0,0.1,0,0.2,0s0.1,0,0.2,0h0.1l0,0l0,0c0,0,0,0,0,0.1s0,0,0,0.1l-0.4,0.9c0,0.1-0.1,0.3-0.2,0.4s-0.1,0.2-0.2,0.3c-0.1,0-0.1,0.1-0.2,0.1s-0.1,0-0.2,0.1l0,0c0.1,0,0.2,0.1,0.3,0.1s0.2,0.1,0.2,0.2c0.1,0.1,0.1,0.2,0.2,0.3c0,0.1,0.1,0.2,0.2,0.4L299,128.8L299,128.8L299,128.8L299,128.8C299.1,128.7,299.1,128.7,299,128.8C299.1,128.7,299,128.8,299,128.8z"/><path fill="#464445" d="M305.4,128.8L305.4,128.8c-0.1,0-0.1,0-0.1,0s-0.1,0-0.2,0s-0.1,0-0.2,0h-0.1c0,0,0,0-0.1,0l0,0l-0.4-1.1c0-0.1-0.1-0.2-0.2-0.4c0-0.1-0.1-0.2-0.2-0.2s-0.2-0.1-0.3-0.1s-0.2,0-0.4,0h-0.3v1.8l0,0l0,0c0,0,0,0-0.1,0s-0.1,0-0.2,0s-0.1,0-0.2,0h-0.1l0,0l0,0v-4.1l0,0l0,0c0,0,0,0,0.1,0c0,0,0.1,0,0.2,0s0.1,0,0.2,0h0.1l0,0l0,0v1.7h0.3c0.1,0,0.2,0,0.3,0c0.1,0,0.2-0.1,0.3-0.1c0.1,0,0.1-0.1,0.2-0.2c0-0.1,0.1-0.2,0.2-0.3l0.4-0.9l0,0l0,0c0,0,0,0,0.1,0c0,0,0.1,0,0.2,0s0.1,0,0.2,0h0.1l0,0l0,0c0,0,0,0,0,0.1s0,0,0,0.1l-0.4,0.9c0,0.1-0.1,0.3-0.2,0.4s-0.1,0.2-0.2,0.3c-0.1,0-0.1,0.1-0.2,0.1s-0.1,0-0.2,0.1l0,0c0.1,0,0.2,0.1,0.3,0.1s0.2,0.1,0.2,0.2c0.1,0.1,0.1,0.2,0.2,0.3c0,0.1,0.1,0.2,0.2,0.4L305.4,128.8L305.4,128.8L305.4,128.8L305.4,128.8C305.4,128.7,305.4,128.7,305.4,128.8C305.4,128.7,305.4,128.8,305.4,128.8z"/><path fill="#464445" d="M310,127.5c-0.1,0.3-0.2,0.5-0.3,0.7c-0.1,0.2-0.3,0.4-0.6,0.5c-0.2,0.1-0.5,0.1-0.7,0.1c-0.1,0-0.2,0-0.3,0c-0.1,0-0.2,0-0.3-0.1c-0.1,0-0.2-0.1-0.3-0.2c-0.1,0-0.2-0.2-0.3-0.3v2l0,0l0,0c0,0,0,0-0.1,0s-0.1,0-0.2,0s-0.1,0-0.2,0h-0.1l0,0l0,0v-5.6l0,0l0,0c0,0,0,0,0.1,0h0.1h0.1h0.1l0,0l0,0v0.6c0.1-0.1,0.2-0.2,0.4-0.3c0.1-0.1,0.2-0.2,0.4-0.2c0.1,0,0.2-0.1,0.4-0.1c0.1,0,0.2,0,0.4,0c0.3,0,0.6,0,0.7,0.2c0.2,0.1,0.4,0.3,0.5,0.5s0.2,0.4,0.3,0.7c0,0.3,0.1,0.6,0.1,0.8C310,126.9,310,127.2,310,127.5z M309.2,126.1c0-0.2-0.1-0.4-0.2-0.5s-0.2-0.3-0.3-0.4c-0.1-0.1-0.3-0.1-0.5-0.1c-0.1,0-0.2,0-0.3,0c-0.1,0-0.2,0.1-0.3,0.1s-0.2,0.1-0.3,0.2c-0.1,0.1-0.2,0.2-0.3,0.4v1.6c0.2,0.2,0.4,0.5,0.6,0.6s0.4,0.2,0.6,0.2s0.4,0,0.5-0.1c0.1-0.1,0.2-0.2,0.3-0.4s0.1-0.3,0.2-0.5c0-0.2,0-0.4,0-0.6S309.3,126.3,309.2,126.1z"/><path fill="#464445" d="M314.1,128.8L314.1,128.8c-0.1,0-0.2,0-0.3,0s-0.1,0-0.2,0h-0.1c0,0,0,0,0-0.1v-0.4c-0.2,0.2-0.4,0.3-0.6,0.5c-0.2,0.1-0.5,0.1-0.7,0.1s-0.4,0-0.6-0.1c-0.2,0-0.3-0.1-0.5-0.2c-0.1-0.1-0.2-0.2-0.3-0.4c0-0.1-0.1-0.3-0.1-0.5s0-0.4,0.1-0.6s0.2-0.3,0.4-0.4c0.2-0.1,0.4-0.2,0.6-0.2s0.6-0.1,0.8-0.1h0.6V126c0-0.1,0-0.3,0-0.4s-0.1-0.2-0.2-0.3c-0.1-0.1-0.2-0.1-0.3-0.2c-0.1,0-0.3,0-0.4,0c-0.2,0-0.4,0-0.5,0s-0.3,0.1-0.4,0.1s-0.2,0.1-0.3,0.1c-0.1,0-0.1,0-0.2,0l0,0l0,0c0,0,0,0,0-0.1v-0.1c0-0.1,0-0.1,0-0.2c0,0,0-0.1,0.1-0.1c0,0,0.1-0.1,0.2-0.1s0.2-0.1,0.3-0.1c0.1,0,0.3-0.1,0.4-0.1s0.3,0,0.5,0c0.3,0,0.6,0,0.7,0.1c0.2,0,0.4,0.2,0.5,0.3c0.1,0.1,0.2,0.3,0.3,0.5c0,0.2,0.1,0.4,0.1,0.6v2.7C314.2,128.7,314.2,128.8,314.1,128.8z M312.9,126.8c-0.2,0-0.4,0-0.6,0c-0.1,0-0.3,0.1-0.4,0.1c-0.1,0.1-0.2,0.1-0.2,0.2s0,0.2,0,0.3c0,0.2,0,0.4,0.2,0.5c0.1,0.1,0.3,0.2,0.6,0.2c0.2,0,0.4,0,0.6-0.1c0.2-0.1,0.3-0.2,0.5-0.5v-0.9L312.9,126.8L312.9,126.8z"/><path fill="#464445" d="M318.4,125C318.4,125,318.4,125.1,318.4,125c0,0.1-0.1,0.1-0.1,0.1l0,0h-1.2v3.5l0,0l0,0c0,0,0,0-0.1,0c0,0-0.1,0-0.2,0s-0.1,0-0.2,0s-0.1,0-0.1,0l0,0l0,0v-3.5h-1.2l0,0l0,0c0,0,0,0,0-0.1v-0.1v-0.1v-0.1l0,0l0,0h3.2l0,0l0,0c0,0,0,0,0,0.1L318.4,125C318.4,124.9,318.4,124.9,318.4,125z"/><path fill="#464445" d="M322.4,128.8L322.4,128.8c-0.1,0-0.1,0-0.1,0s-0.1,0-0.2,0s-0.1,0-0.2,0h-0.1c0,0,0,0-0.1,0l0,0l-0.4-1.1c0-0.1-0.1-0.2-0.2-0.4c0-0.1-0.1-0.2-0.2-0.2s-0.2-0.1-0.3-0.1s-0.2,0-0.4,0h-0.3v1.8l0,0l0,0c0,0,0,0-0.1,0s-0.1,0-0.2,0s-0.1,0-0.2,0s-0.1,0-0.1,0l0,0l0,0v-4.1l0,0l0,0c0,0,0,0,0.1,0c0,0,0.1,0,0.2,0s0.1,0,0.2,0s0.1,0,0.1,0l0,0l0,0v1.7h0.3c0.1,0,0.2,0,0.3,0s0.2-0.1,0.3-0.1c0.1,0,0.1-0.1,0.2-0.2c0-0.1,0.1-0.2,0.2-0.3l0.4-0.9l0,0l0,0c0,0,0,0,0.1,0c0,0,0.1,0,0.2,0s0.1,0,0.2,0h0.1l0,0l0,0c0,0,0,0,0,0.1s0,0,0,0.1l-0.4,0.9c0,0.1-0.1,0.3-0.2,0.4s-0.1,0.2-0.2,0.3c-0.1,0-0.1,0.1-0.2,0.1s-0.1,0-0.2,0.1l0,0c0.1,0,0.2,0.1,0.3,0.1c0.1,0,0.2,0.1,0.2,0.2c0.1,0.1,0.1,0.2,0.2,0.3c0,0.1,0.1,0.2,0.2,0.4L322.4,128.8L322.4,128.8L322.4,128.8L322.4,128.8C322.4,128.7,322.4,128.7,322.4,128.8C322.4,128.7,322.4,128.8,322.4,128.8z"/><path fill="#464445" d="M327,128.7L327,128.7c-0.1,0-0.1,0-0.1,0.1c0,0-0.1,0-0.2,0s-0.1,0-0.2,0h-0.1l0,0l0,0v-2.3c0-0.1,0-0.2,0-0.4c0-0.1,0-0.2,0-0.4c0,0.1-0.1,0.2-0.2,0.4c-0.1,0.1-0.2,0.2-0.2,0.3l-1.7,2.3l0,0l0,0c0,0,0,0-0.1,0h-0.1c0,0-0.1,0-0.2,0h-0.1l0,0l0,0v-4l0,0l0,0c0,0,0,0,0.1,0s0.1,0,0.2,0s0.2,0,0.3,0c0,0,0.1,0,0.1,0.1v2.3c0,0.1,0,0.2,0,0.4s0,0.2,0,0.4c0-0.1,0.1-0.2,0.2-0.3c0-0.1,0.1-0.2,0.2-0.3l1.7-2.4l0,0c0,0,0,0,0.1,0c0,0,0,0,0.1,0s0.1,0,0.1,0s0.1,0,0.2,0h0.1l0,0l0,0L327,128.7L327,128.7z"/><path fill="#464445" d="M331.5,128.7C331.5,128.8,331.5,128.8,331.5,128.7c-0.1,0-0.1,0.1-0.2,0.1c0,0-0.1,0-0.2,0s-0.2,0-0.2,0h-0.1c0,0,0,0-0.1,0l0,0l-1-1.6l-1,1.6l0,0c0,0,0,0-0.1,0s-0.1,0-0.1,0s-0.1,0-0.2,0s-0.1,0-0.2,0H328l0,0c0,0,0,0,0-0.1l1.2-2l-1.2-1.9v-0.1c0,0,0,0,0-0.1h0.1c0,0,0.1,0,0.2,0s0.1,0,0.2,0h0.1l0,0l0,0l0.9,1.5l0.9-1.5l0,0l0,0c0,0,0,0,0.1,0s0.1,0,0.2,0s0.1,0,0.2,0h0.1l0,0c0,0,0,0,0,0.1l-1.2,1.9l1.2,2C331.5,128.6,331.5,128.7,331.5,128.7z"/><path fill="#464445" d="M337.8,128.7L337.8,128.7c0,0-0.1,0-0.1,0.1c0,0-0.1,0-0.2,0s-0.1,0-0.2,0s-0.1,0-0.1,0l0,0l0,0v-3.5h-1.9v3.5l0,0l0,0c0,0,0,0-0.1,0c0,0-0.1,0-0.2,0s-0.1,0-0.2,0h-0.1l0,0l0,0v-3.9c0-0.1,0-0.1,0-0.2c0,0,0.1,0,0.2,0h2.9c0.1,0,0.1,0,0.2,0s0,0.1,0,0.2v3.9C337.8,128.7,337.8,128.7,337.8,128.7z"/><path fill="#464445" d="M342.8,127.5c-0.1,0.3-0.2,0.5-0.4,0.7c-0.2,0.2-0.4,0.4-0.6,0.5c-0.3,0.1-0.6,0.2-0.9,0.2s-0.6,0-0.9-0.1c-0.2-0.1-0.5-0.2-0.6-0.4s-0.3-0.4-0.4-0.7c-0.1-0.3-0.1-0.6-0.1-0.9s0-0.6,0.1-0.9s0.2-0.5,0.4-0.7c0.2-0.2,0.4-0.4,0.6-0.5c0.3-0.1,0.6-0.2,0.9-0.2s0.6,0,0.9,0.1s0.5,0.2,0.6,0.4s0.3,0.4,0.4,0.7c0.1,0.3,0.1,0.6,0.1,0.9S342.9,127.2,342.8,127.5z M342.1,126c0-0.2-0.1-0.4-0.2-0.5s-0.2-0.3-0.4-0.4c-0.1-0.1-0.4-0.1-0.6-0.1s-0.4,0-0.6,0.1c-0.1,0.1-0.3,0.2-0.4,0.3c-0.1,0.1-0.2,0.3-0.2,0.5s-0.1,0.4-0.1,0.6s0,0.4,0,0.6s0.1,0.4,0.2,0.5s0.2,0.3,0.4,0.4c0.1,0.1,0.4,0.1,0.6,0.1s0.4,0,0.6-0.1c0.1-0.1,0.3-0.2,0.4-0.3c0.1-0.1,0.2-0.3,0.2-0.5s0.1-0.4,0.1-0.6C342.2,126.4,342.2,126.2,342.1,126z"/><path fill="#464445" d="M344.1,130.2C344.1,130.2,344,130.2,344.1,130.2H344h-0.1h-0.1h-0.1l0,0l0,0v-1.8c0-0.1,0-0.1,0-0.1h0.1h0.3c0.1-0.1,0.2-0.3,0.3-0.5s0.2-0.4,0.3-0.6c0.1-0.3,0.2-0.6,0.2-1s0.1-0.8,0.2-1.3v-0.1c0,0,0,0,0-0.1c0,0,0,0,0.1,0c0,0,0,0,0.1,0h2.3c0.1,0,0.1,0,0.2,0s0,0.1,0,0.2v3.4h0.6h0.1v0.1v1.8l0,0l0,0c0,0,0,0-0.1,0h-0.1h-0.1h-0.1l0,0l0,0v-1.3h-3.6v1.3C344.1,130.2,344.1,130.2,344.1,130.2z M345.6,125.1c0,0.5-0.1,0.9-0.2,1.2c-0.1,0.3-0.1,0.6-0.2,0.8c-0.1,0.2-0.1,0.4-0.2,0.6c-0.1,0.1-0.2,0.3-0.3,0.4h2.2v-3L345.6,125.1L345.6,125.1z"/><path fill="#464445" d="M352,128.2C352,128.3,352,128.3,352,128.2c0,0.1,0,0.1,0,0.2c0,0,0,0-0.1,0.1c0,0-0.1,0.1-0.2,0.1s-0.2,0.1-0.3,0.1c-0.1,0-0.2,0.1-0.4,0.1c-0.1,0-0.3,0-0.4,0c-0.3,0-0.6,0-0.8-0.1s-0.4-0.2-0.6-0.4c-0.1-0.2-0.3-0.4-0.4-0.7s-0.1-0.6-0.1-0.9c0-0.4,0-0.7,0.1-1s0.2-0.5,0.4-0.7s0.4-0.3,0.6-0.4s0.5-0.1,0.7-0.1c0.1,0,0.2,0,0.4,0c0.1,0,0.2,0,0.3,0.1c0.1,0,0.2,0.1,0.3,0.1c0.1,0,0.1,0.1,0.2,0.1c0,0,0,0,0.1,0.1c0,0,0,0,0,0.1c0,0,0,0,0,0.1s0,0.1,0,0.1c0,0.1,0,0.2,0,0.2s0,0.1-0.1,0.1c0,0-0.1,0-0.1-0.1c0,0-0.1-0.1-0.2-0.2s-0.2-0.1-0.3-0.2c-0.1,0-0.3-0.1-0.5-0.1c-0.4,0-0.6,0.1-0.8,0.4c-0.2,0.3-0.3,0.7-0.3,1.2c0,0.3,0,0.5,0.1,0.7s0.1,0.4,0.2,0.5s0.2,0.2,0.4,0.3s0.3,0.1,0.5,0.1s0.3,0,0.5-0.1s0.2-0.1,0.3-0.2c0.1,0,0.2-0.1,0.2-0.2l0.1-0.1l0,0l0,0c0,0,0,0,0,0.1s0,0.1,0,0.1C352,128.1,352,128.2,352,128.2z"/><path fill="#464445" d="M356.3,128.8L356.3,128.8c-0.1,0-0.1,0-0.1,0s-0.1,0-0.2,0s-0.1,0-0.2,0h-0.1c0,0,0,0-0.1,0l0,0l-0.4-1.1c0-0.1-0.1-0.2-0.2-0.4c0-0.1-0.1-0.2-0.2-0.2s-0.2-0.1-0.3-0.1s-0.2,0-0.4,0h-0.3v1.8l0,0l0,0c0,0,0,0-0.1,0s-0.1,0-0.2,0s-0.1,0-0.2,0h-0.1l0,0l0,0v-4.1l0,0l0,0c0,0,0,0,0.1,0c0,0,0.1,0,0.2,0s0.1,0,0.2,0h0.1l0,0l0,0v1.7h0.3c0.1,0,0.2,0,0.3,0c0.1,0,0.2-0.1,0.3-0.1c0.1,0,0.1-0.1,0.2-0.2c0-0.1,0.1-0.2,0.2-0.3l0.4-0.9l0,0l0,0c0,0,0,0,0.1,0c0,0,0.1,0,0.2,0s0.1,0,0.2,0h0.1l0,0l0,0c0,0,0,0,0,0.1s0,0,0,0.1l-0.4,0.9c0,0.1-0.1,0.3-0.2,0.4s-0.1,0.2-0.2,0.3c-0.1,0-0.1,0.1-0.2,0.1s-0.1,0-0.2,0.1l0,0c0.1,0,0.2,0.1,0.3,0.1s0.2,0.1,0.2,0.2c0.1,0.1,0.1,0.2,0.2,0.3c0,0.1,0.1,0.2,0.2,0.4L356.3,128.8L356.3,128.8L356.3,128.8L356.3,128.8C356.3,128.7,356.3,128.7,356.3,128.8C356.3,128.7,356.3,128.8,356.3,128.8z"/><path fill="#464445" d="M360.3,128.8L360.3,128.8c-0.1,0-0.2,0-0.3,0s-0.1,0-0.2,0h-0.1c0,0,0,0,0-0.1v-0.4c-0.2,0.2-0.4,0.3-0.6,0.5c-0.2,0.1-0.5,0.1-0.7,0.1s-0.4,0-0.6-0.1c-0.2,0-0.3-0.1-0.5-0.2s-0.2-0.2-0.3-0.4c0-0.1-0.1-0.3-0.1-0.5s0-0.4,0.1-0.6s0.2-0.3,0.4-0.4c0.2-0.1,0.4-0.2,0.6-0.2s0.6-0.1,0.8-0.1h0.6V126c0-0.1,0-0.3,0-0.4s-0.1-0.2-0.2-0.3c-0.1-0.1-0.2-0.1-0.3-0.2c-0.1,0-0.3,0-0.4,0c-0.2,0-0.4,0-0.5,0s-0.3,0.1-0.4,0.1s-0.2,0.1-0.3,0.1c-0.1,0-0.1,0-0.2,0l0,0l0,0c0,0,0,0,0-0.1v-0.1c0-0.1,0-0.1,0-0.2c0,0,0-0.1,0.1-0.1c0,0,0.1-0.1,0.2-0.1s0.2-0.1,0.3-0.1c0.1,0,0.3-0.1,0.4-0.1s0.3,0,0.5,0c0.3,0,0.6,0,0.7,0.1c0.2,0,0.4,0.2,0.5,0.3c0.1,0.1,0.2,0.3,0.3,0.5c0,0.2,0.1,0.4,0.1,0.6v2.7C360.3,128.7,360.3,128.8,360.3,128.8z M359,126.8c-0.2,0-0.4,0-0.6,0c-0.1,0-0.3,0.1-0.4,0.1c-0.1,0.1-0.2,0.1-0.2,0.2s0,0.2,0,0.3c0,0.2,0,0.4,0.2,0.5c0.1,0.1,0.3,0.2,0.6,0.2c0.2,0,0.4,0,0.6-0.1c0.2-0.1,0.3-0.2,0.5-0.5v-0.9L359,126.8L359,126.8z"/><path fill="#464445" d="M364.4,128.1c-0.1,0.2-0.2,0.3-0.4,0.4c-0.1,0.1-0.3,0.2-0.6,0.3c-0.2,0.1-0.5,0.1-0.7,0.1c-0.1,0-0.3,0-0.5,0c-0.1,0-0.3,0-0.4-0.1c-0.1,0-0.2-0.1-0.3-0.1c-0.1,0-0.1-0.1-0.2-0.1c0,0,0,0,0-0.1c0,0,0,0,0-0.1c0,0,0,0,0-0.1s0-0.1,0-0.1v-0.1c0,0,0,0,0-0.1l0,0l0,0h0.1c0,0,0.1,0.1,0.2,0.1s0.2,0.1,0.4,0.1c0.1,0,0.3,0,0.6,0c0.1,0,0.3,0,0.4,0s0.2-0.1,0.3-0.1c0.1,0,0.1-0.1,0.2-0.2c0-0.1,0-0.2,0-0.3c0-0.1,0-0.2,0-0.3c0-0.1-0.1-0.1-0.2-0.2c-0.1,0-0.2-0.1-0.4-0.1c-0.1,0-0.3,0-0.6,0H362c0,0,0,0-0.1,0l0,0c0,0,0,0,0-0.1v-0.1v-0.1c0,0,0,0,0-0.1s0,0,0,0l0,0h0.4c0.2,0,0.4,0,0.5,0s0.2-0.1,0.3-0.1c0.1,0,0.2-0.1,0.2-0.2s0-0.2,0-0.3c0-0.1,0-0.2,0-0.3c0-0.1-0.1-0.1-0.2-0.2c0,0-0.1-0.1-0.3-0.1c-0.1,0-0.2,0-0.3,0c-0.2,0-0.4,0-0.5,0s-0.3,0.1-0.4,0.1s-0.2,0.1-0.3,0.1h-0.1l0,0l0,0c0,0,0,0,0-0.1s0-0.1,0-0.1c0-0.1,0-0.1,0-0.2s0-0.1,0.1-0.1c0,0,0.1-0.1,0.2-0.1s0.2-0.1,0.3-0.1c0.1,0,0.2-0.1,0.4-0.1c0.1,0,0.3,0,0.4,0c0.2,0,0.4,0,0.6,0.1c0.2,0,0.3,0.1,0.5,0.2c0.1,0.1,0.2,0.2,0.3,0.4c0.1,0.1,0.1,0.3,0.1,0.5c0,0.1,0,0.2,0,0.3c0,0.1-0.1,0.2-0.1,0.3c0,0.1-0.1,0.1-0.2,0.2s-0.2,0.1-0.3,0.1l0,0c0.1,0,0.2,0,0.4,0.1c0.1,0,0.2,0.1,0.3,0.2c0.1,0.1,0.2,0.2,0.2,0.3c0,0.1,0.1,0.3,0.1,0.4C364.5,127.7,364.4,127.9,364.4,128.1z"/><path fill="#464445" d="M369.2,127.5c-0.1,0.3-0.2,0.5-0.4,0.7c-0.2,0.2-0.4,0.4-0.6,0.5c-0.3,0.1-0.6,0.2-0.9,0.2s-0.6,0-0.9-0.1c-0.2-0.1-0.5-0.2-0.6-0.4s-0.3-0.4-0.4-0.7c-0.1-0.3-0.1-0.6-0.1-0.9s0-0.6,0.1-0.9s0.2-0.5,0.4-0.7c0.2-0.2,0.4-0.4,0.6-0.5c0.3-0.1,0.6-0.2,0.9-0.2s0.6,0,0.9,0.1c0.2,0.1,0.5,0.2,0.6,0.4c0.1,0.2,0.3,0.4,0.4,0.7c0.1,0.3,0.1,0.6,0.1,0.9C369.3,126.9,369.3,127.2,369.2,127.5z M368.5,126c0-0.2-0.1-0.4-0.2-0.5s-0.2-0.3-0.4-0.4c-0.1-0.1-0.4-0.1-0.6-0.1s-0.4,0-0.6,0.1c-0.1,0.1-0.3,0.2-0.4,0.3c-0.1,0.1-0.2,0.3-0.2,0.5s-0.1,0.4-0.1,0.6s0,0.4,0,0.6s0.1,0.4,0.2,0.5s0.2,0.3,0.4,0.4c0.1,0.1,0.4,0.1,0.6,0.1s0.4,0,0.6-0.1c0.1-0.1,0.3-0.2,0.4-0.3c0.1-0.1,0.2-0.3,0.2-0.5s0.1-0.4,0.1-0.6C368.6,126.4,368.6,126.2,368.5,126z"/><path fill="#464445" d="M373.7,128.8L373.7,128.8c-0.1,0-0.1,0-0.1,0s-0.1,0-0.2,0s-0.1,0-0.2,0s-0.1,0-0.1,0s0,0-0.1,0l0,0l-0.4-1.1c0-0.1-0.1-0.2-0.2-0.4c0-0.1-0.1-0.2-0.2-0.2s-0.2-0.1-0.3-0.1s-0.2,0-0.4,0h-0.3v1.8l0,0l0,0c0,0,0,0-0.1,0s-0.1,0-0.2,0s-0.1,0-0.2,0h-0.1l0,0l0,0v-4.1l0,0l0,0c0,0,0,0,0.1,0c0,0,0.1,0,0.2,0s0.1,0,0.2,0h0.1l0,0l0,0v1.7h0.3c0.1,0,0.2,0,0.3,0s0.2-0.1,0.3-0.1c0.1,0,0.1-0.1,0.2-0.2c0-0.1,0.1-0.2,0.2-0.3l0.4-0.9l0,0l0,0c0,0,0,0,0.1,0c0,0,0.1,0,0.2,0s0.1,0,0.2,0h0.1l0,0l0,0c0,0,0,0,0,0.1s0,0,0,0.1l-0.4,0.9c0,0.1-0.1,0.3-0.2,0.4s-0.1,0.2-0.2,0.3c-0.1,0-0.1,0.1-0.2,0.1s-0.1,0-0.2,0.1l0,0c0.1,0,0.2,0.1,0.3,0.1c0.1,0,0.2,0.1,0.2,0.2c0.1,0.1,0.1,0.2,0.2,0.3c0,0.1,0.1,0.2,0.2,0.4L373.7,128.8L373.7,128.8L373.7,128.8L373.7,128.8C373.8,128.7,373.8,128.7,373.7,128.8C373.8,128.7,373.8,128.8,373.7,128.8z"/><path fill="#464445" d="M264.9,138.4L264.9,138.4c0,0-0.1,0-0.1,0.1c0,0-0.1,0-0.2,0s-0.1,0-0.2,0h-0.1l0,0l0,0V135h-1.9v3.5l0,0l0,0c0,0,0,0-0.1,0c0,0-0.1,0-0.2,0s-0.1,0-0.2,0s-0.1,0-0.1,0l0,0l0,0v-3.9c0-0.1,0-0.1,0-0.2c0,0,0.1,0,0.2,0h2.9c0.1,0,0.1,0,0.2,0c0,0,0,0.1,0,0.2v3.9C264.9,138.4,264.9,138.4,264.9,138.4z"/><path fill="#464445" d="M269.9,137.2c-0.1,0.3-0.2,0.5-0.4,0.7c-0.2,0.2-0.4,0.4-0.6,0.5c-0.3,0.1-0.6,0.2-0.9,0.2s-0.6,0-0.9-0.1c-0.2-0.1-0.5-0.2-0.6-0.4s-0.3-0.4-0.4-0.7s-0.1-0.6-0.1-0.9s0-0.6,0.1-0.9c0.1-0.3,0.2-0.5,0.4-0.7c0.2-0.2,0.4-0.4,0.6-0.5c0.3-0.1,0.6-0.2,0.9-0.2s0.6,0,0.9,0.1c0.2,0.1,0.5,0.2,0.6,0.4s0.3,0.4,0.4,0.7s0.1,0.6,0.1,0.9C270.1,136.6,270,136.9,269.9,137.2z M269.1,135.7c0-0.2-0.1-0.4-0.2-0.5s-0.2-0.3-0.4-0.4c-0.1-0.1-0.4-0.1-0.6-0.1s-0.4,0-0.6,0.1c-0.1,0.1-0.3,0.2-0.4,0.3s-0.2,0.3-0.2,0.5s-0.1,0.4-0.1,0.6c0,0.2,0,0.4,0,0.6c0,0.2,0.1,0.4,0.2,0.5s0.2,0.3,0.4,0.4c0.1,0.1,0.4,0.1,0.6,0.1s0.4,0,0.6-0.1c0.1-0.1,0.3-0.2,0.4-0.3s0.2-0.3,0.2-0.5s0.1-0.4,0.1-0.6C269.3,136.1,269.2,135.9,269.1,135.7z"/><path fill="#464445" d="M274.5,139.9c0,0,0,0.1-0.1,0.1s-0.2,0-0.3,0c-0.1,0-0.1,0-0.2,0s-0.1,0-0.1,0s0,0,0-0.1s0,0,0-0.1l0.6-1.4c0,0,0,0-0.1,0c0,0,0,0,0-0.1l-1.4-3.9v-0.1c0,0,0,0,0-0.1c0,0,0,0,0.1,0c0,0,0.1,0,0.2,0s0.2,0,0.2,0h0.1l0,0c0,0,0,0,0,0.1l1.1,3.3l0,0l1.1-3.3v-0.1c0,0,0,0,0.1,0c0,0,0.1,0,0.2,0s0.1,0,0.2,0s0.1,0,0.1,0s0,0,0,0.1v0.1l-1.5,4L274.5,139.9z"/><path fill="#464445" d="M280.8,138.4L280.8,138.4c0,0-0.1,0-0.1,0.1c0,0-0.1,0-0.2,0s-0.1,0-0.2,0s-0.1,0-0.1,0l0,0l0,0V135h-2v3.5l0,0l0,0c0,0,0,0-0.1,0s-0.1,0-0.2,0s-0.1,0-0.2,0h-0.1l0,0l0,0v-3.9c0-0.1,0-0.1,0-0.2c0,0,0.1,0,0.2,0h2.9c0.1,0,0.1,0,0.2,0c0,0,0,0.1,0,0.2L280.8,138.4L280.8,138.4z"/><path fill="#464445" d="M285.8,137.2c-0.1,0.3-0.2,0.5-0.4,0.7c-0.2,0.2-0.4,0.4-0.6,0.5c-0.3,0.1-0.6,0.2-0.9,0.2s-0.6,0-0.9-0.1c-0.2-0.1-0.5-0.2-0.6-0.4s-0.3-0.4-0.4-0.7s-0.1-0.6-0.1-0.9s0-0.6,0.1-0.9c0.1-0.3,0.2-0.5,0.4-0.7c0.2-0.2,0.4-0.4,0.6-0.5c0.3-0.1,0.6-0.2,0.9-0.2s0.6,0,0.9,0.1c0.2,0.1,0.5,0.2,0.6,0.4s0.3,0.4,0.4,0.7s0.1,0.6,0.1,0.9C285.9,136.6,285.9,136.9,285.8,137.2z M285.1,135.7c0-0.2-0.1-0.4-0.2-0.5s-0.2-0.3-0.4-0.4c-0.1-0.1-0.4-0.1-0.6-0.1s-0.4,0-0.6,0.1c-0.1,0.1-0.3,0.2-0.4,0.3s-0.2,0.3-0.2,0.5s-0.1,0.4-0.1,0.6c0,0.2,0,0.4,0,0.6c0,0.2,0.1,0.4,0.2,0.5s0.2,0.3,0.4,0.4c0.1,0.1,0.4,0.1,0.6,0.1s0.4,0,0.6-0.1c0.1-0.1,0.3-0.2,0.4-0.3s0.2-0.3,0.2-0.5s0.1-0.4,0.1-0.6C285.1,136.1,285.1,135.9,285.1,135.7z"/><path fill="#464445" d="M289.8,134.6C289.8,134.7,289.8,134.7,289.8,134.6c0,0.1-0.1,0.1-0.1,0.1l0,0h-1.2v3.5l0,0l0,0c0,0,0,0-0.1,0c0,0-0.1,0-0.2,0s-0.1,0-0.2,0s-0.1,0-0.1,0l0,0l0,0v-3.5h-1.2l0,0l0,0c0,0,0,0,0-0.1v-0.1v-0.1v-0.1l0,0l0,0h3.2l0,0l0,0c0,0,0,0,0,0.1v0.1C289.8,134.5,289.8,134.6,289.8,134.6z"/><path fill="#464445" d="M294.2,137.2c-0.1,0.3-0.2,0.5-0.3,0.7c-0.1,0.2-0.3,0.4-0.6,0.5c-0.2,0.1-0.5,0.1-0.7,0.1c-0.1,0-0.2,0-0.3,0c-0.1,0-0.2,0-0.3-0.1c-0.1,0-0.2-0.1-0.3-0.2c-0.1,0-0.2-0.2-0.3-0.3v2l0,0l0,0c0,0,0,0-0.1,0c0,0-0.1,0-0.2,0s-0.1,0-0.2,0h-0.1l0,0l0,0v-5.6l0,0l0,0c0,0,0,0,0.1,0h0.1h0.1h0.1l0,0l0,0v0.6c0.1-0.1,0.2-0.2,0.4-0.3c0.1-0.1,0.2-0.2,0.4-0.2c0.1,0,0.2-0.1,0.4-0.1c0.1,0,0.2,0,0.4,0c0.3,0,0.6,0,0.7,0.2c0.2,0.1,0.4,0.3,0.5,0.5s0.2,0.4,0.3,0.7c0,0.3,0.1,0.6,0.1,0.8C294.3,136.6,294.2,136.9,294.2,137.2z M293.4,135.7c0-0.2-0.1-0.4-0.2-0.5s-0.2-0.3-0.3-0.4c-0.1-0.1-0.3-0.1-0.5-0.1c-0.1,0-0.2,0-0.3,0s-0.2,0.1-0.3,0.1c-0.1,0-0.2,0.1-0.3,0.2c-0.1,0.1-0.2,0.2-0.3,0.4v1.6c0.2,0.2,0.4,0.5,0.6,0.6s0.4,0.2,0.6,0.2s0.4,0,0.5-0.1s0.2-0.2,0.3-0.4s0.1-0.3,0.2-0.5c0-0.2,0-0.4,0-0.6C293.5,136.1,293.5,135.9,293.4,135.7z"/><path fill="#464445" d="M298.7,136.4c0,0-0.1,0.1-0.2,0.1h-2.7c0,0.2,0,0.4,0,0.6c0,0.2,0.1,0.3,0.2,0.5c0.1,0.1,0.2,0.2,0.4,0.3s0.4,0.1,0.6,0.1s0.4,0,0.5,0s0.3,0,0.4-0.1s0.2-0.1,0.3-0.1c0.1,0,0.1,0,0.2,0l0,0l0,0c0,0,0,0,0,0.1s0,0.1,0,0.1v0.1c0,0,0,0,0,0.1s0,0,0,0l0,0c0,0,0,0-0.1,0.1s-0.2,0.1-0.3,0.1s-0.3,0-0.5,0.1c-0.2,0-0.4,0-0.6,0c-0.3,0-0.6,0-0.9-0.1s-0.5-0.2-0.6-0.4c-0.2-0.2-0.3-0.4-0.4-0.7c0-0.3-0.1-0.6-0.1-1s0-0.6,0.1-0.9c0.1-0.3,0.2-0.5,0.4-0.7c0.2-0.2,0.4-0.3,0.6-0.5c0.2-0.1,0.5-0.1,0.8-0.1s0.6,0,0.8,0.1s0.4,0.2,0.6,0.4c0.1,0.2,0.2,0.4,0.3,0.6c0.1,0.2,0.1,0.5,0.1,0.7v0.1C298.8,136.2,298.8,136.3,298.7,136.4z M297.8,135c-0.2-0.2-0.5-0.3-0.8-0.3c-0.2,0-0.3,0-0.5,0.1c-0.1,0-0.2,0.2-0.4,0.3c-0.1,0.1-0.2,0.2-0.2,0.4c0,0.1-0.1,0.3-0.1,0.5h2.2C298.1,135.5,298,135.2,297.8,135z"/><path fill="#464445" d="M303.6,137.2c-0.1,0.3-0.2,0.5-0.4,0.7c-0.2,0.2-0.4,0.4-0.6,0.5c-0.3,0.1-0.6,0.2-0.9,0.2s-0.6,0-0.9-0.1c-0.2-0.1-0.5-0.3-0.6-0.5c-0.2-0.2-0.3-0.5-0.4-0.8s-0.1-0.7-0.1-1.1c0-0.4,0-0.7,0-1s0.1-0.6,0.1-0.8s0.1-0.5,0.2-0.6c0.1-0.2,0.2-0.3,0.3-0.4c0.1-0.1,0.2-0.2,0.3-0.2c0.1,0,0.2-0.1,0.3-0.2c0.1,0,0.2-0.1,0.4-0.1c0.1,0,0.3-0.1,0.5-0.1l1.4-0.2h0.1c0,0,0,0,0.1,0c0,0,0,0,0,0.1s0,0.1,0,0.2v0.1v0.1l0,0c0,0,0,0-0.1,0l-1.3,0.2c-0.1,0-0.2,0-0.4,0.1c-0.1,0-0.2,0-0.3,0.1c-0.1,0-0.1,0-0.2,0.1c0,0-0.1,0.1-0.2,0.1c0,0-0.1,0.1-0.2,0.2c0,0.1-0.1,0.2-0.1,0.3s0,0.2-0.1,0.4c0,0.1,0,0.3,0,0.5c0.1-0.1,0.2-0.2,0.3-0.3c0.1-0.1,0.2-0.1,0.4-0.2s0.2-0.1,0.4-0.1c0.1,0,0.3,0,0.4,0c0.3,0,0.6,0,0.8,0.1s0.4,0.2,0.6,0.4c0.1,0.2,0.2,0.4,0.3,0.6c0.1,0.2,0.1,0.6,0.1,0.8C303.7,136.6,303.7,136.9,303.6,137.2z M302.9,135.7c0-0.2-0.1-0.3-0.2-0.5c-0.1-0.1-0.2-0.2-0.3-0.3c-0.1-0.1-0.3-0.1-0.5-0.1c-0.1,0-0.2,0-0.4,0c-0.1,0-0.2,0.1-0.3,0.1c-0.1,0-0.2,0.1-0.3,0.2s-0.2,0.2-0.3,0.3c0,0,0,0.1,0,0.2v0.2c0,0.3,0,0.6,0,0.9c0,0.2,0.1,0.5,0.2,0.6s0.2,0.3,0.4,0.4c0.1,0.1,0.3,0.1,0.6,0.1c0.2,0,0.4,0,0.5-0.1s0.3-0.2,0.4-0.3s0.2-0.3,0.2-0.5s0.1-0.4,0.1-0.6C302.9,136.1,302.9,135.9,302.9,135.7z"/><path fill="#464445" d="M308.1,138.4L308.1,138.4c0,0-0.1,0-0.1,0.1c0,0-0.1,0-0.2,0s-0.1,0-0.2,0h-0.1l0,0l0,0V135h-1.1c0,0.5-0.1,0.9-0.2,1.3s-0.1,0.7-0.2,1s-0.2,0.5-0.3,0.7c-0.1,0.2-0.2,0.3-0.3,0.5c-0.1,0.1-0.3,0.2-0.4,0.2s-0.3,0.1-0.5,0.1c0,0,0,0-0.1,0l0,0c0,0,0,0,0-0.1c0,0,0-0.1,0-0.2c0-0.1,0-0.1,0-0.2v-0.1l0,0l0,0c0.1,0,0.2,0,0.3,0c0.1,0,0.2-0.1,0.2-0.2c0.1-0.1,0.1-0.2,0.2-0.4c0-0.2,0.1-0.4,0.2-0.6c0-0.3,0.1-0.6,0.2-0.9c0-0.3,0.1-0.7,0.1-1.1c0-0.1,0-0.1,0-0.2h0.1h2.1c0.1,0,0.1,0,0.2,0c0,0,0,0.1,0,0.2L308.1,138.4L308.1,138.4z"/><path fill="#464445" d="M312.9,136.4c0,0-0.1,0.1-0.2,0.1H310c0,0.2,0,0.4,0,0.6c0,0.2,0.1,0.3,0.2,0.5c0.1,0.1,0.2,0.2,0.4,0.3s0.4,0.1,0.6,0.1s0.4,0,0.5,0s0.3,0,0.4-0.1s0.2-0.1,0.3-0.1c0.1,0,0.1,0,0.2,0l0,0l0,0c0,0,0,0,0,0.1s0,0.1,0,0.1v0.1c0,0,0,0,0,0.1s0,0,0,0l0,0c0,0,0,0-0.1,0.1s-0.2,0.1-0.3,0.1c-0.1,0-0.3,0-0.5,0.1c-0.2,0-0.4,0-0.6,0c-0.3,0-0.6,0-0.9-0.1s-0.5-0.2-0.6-0.4c-0.2-0.2-0.3-0.4-0.4-0.7c0-0.3-0.1-0.6-0.1-1s0-0.6,0.1-0.9c0.1-0.3,0.2-0.5,0.4-0.7c0.2-0.2,0.4-0.3,0.6-0.5c0.2-0.1,0.5-0.1,0.8-0.1s0.6,0,0.8,0.1s0.4,0.2,0.6,0.4c0.1,0.2,0.2,0.4,0.3,0.6c0.1,0.2,0.1,0.5,0.1,0.7v0.1C313,136.2,313,136.3,312.9,136.4z M311.9,135c-0.2-0.2-0.5-0.3-0.8-0.3c-0.2,0-0.3,0-0.5,0.1c-0.1,0-0.2,0.2-0.4,0.3c-0.1,0.1-0.2,0.2-0.2,0.4c0,0.1-0.1,0.3-0.1,0.5h2.2C312.2,135.5,312.1,135.2,311.9,135z"/><path fill="#464445" d="M317.6,138.4L317.6,138.4c0,0-0.1,0-0.1,0.1c0,0-0.1,0-0.2,0s-0.1,0-0.2,0s-0.1,0-0.1,0l0,0l0,0v-1.8h-2.1v1.8l0,0l0,0c0,0,0,0-0.1,0s-0.1,0-0.2,0s-0.1,0-0.2,0h-0.1l0,0l0,0v-4l0,0l0,0c0,0,0,0,0.1,0s0.1,0,0.2,0s0.1,0,0.2,0h0.1l0,0l0,0v1.7h2.1v-1.7l0,0l0,0c0,0,0,0,0.1,0s0.1,0,0.2,0s0.1,0,0.2,0h0.1l0,0l0,0V138.4L317.6,138.4z"/><path fill="#464445" d="M322.6,138.4L322.6,138.4c-0.1,0-0.1,0-0.1,0.1c0,0-0.1,0-0.2,0s-0.1,0-0.2,0H322l0,0l0,0V136c0-0.1,0-0.2,0-0.4s0-0.2,0-0.4c0,0.1-0.1,0.2-0.2,0.4c-0.1,0.1-0.2,0.2-0.2,0.3l-1.7,2.3l0,0l0,0c0,0,0,0-0.1,0s-0.1,0-0.1,0s-0.1,0-0.2,0s-0.1,0-0.1,0l0,0l0,0v-4l0,0l0,0c0,0,0,0,0.1,0c0,0,0.1,0,0.2,0s0.2,0,0.3,0c0,0,0.1,0,0.1,0.1v2.3c0,0.1,0,0.2,0,0.4s0,0.2,0,0.4c0-0.1,0.1-0.2,0.2-0.3c0-0.1,0.1-0.2,0.2-0.3l1.7-2.4l0,0c0,0,0,0,0.1,0c0,0,0,0,0.1,0h0.1c0,0,0.1,0,0.2,0h0.1l0,0l0,0L322.6,138.4L322.6,138.4z"/><path fill="#464445" d="M329.3,137.2c-0.1,0.3-0.2,0.5-0.4,0.7c-0.2,0.2-0.4,0.4-0.6,0.5s-0.5,0.2-0.8,0.2s-0.6,0-0.8-0.1c-0.2-0.1-0.4-0.2-0.6-0.4c-0.1-0.2-0.3-0.4-0.4-0.6c-0.1-0.2-0.1-0.6-0.1-0.8h-0.9v1.8l0,0l0,0c0,0,0,0-0.1,0s-0.1,0-0.2,0s-0.1,0-0.2,0h-0.1l0,0l0,0v-4l0,0l0,0c0,0,0,0,0.1,0c0,0,0.1,0,0.2,0s0.1,0,0.2,0h0.1l0,0l0,0v1.7h0.9c0-0.3,0.1-0.5,0.2-0.7s0.2-0.4,0.4-0.6c0.2-0.2,0.4-0.3,0.6-0.4s0.5-0.1,0.8-0.1s0.6,0,0.8,0.1c0.2,0.1,0.5,0.2,0.6,0.4s0.3,0.4,0.4,0.7s0.1,0.6,0.1,0.9C329.5,136.6,329.4,136.9,329.3,137.2z M328.6,135.7c0-0.2-0.1-0.4-0.2-0.5s-0.2-0.3-0.4-0.4c-0.1-0.1-0.4-0.1-0.6-0.1s-0.4,0-0.6,0.1s-0.3,0.2-0.4,0.3s-0.2,0.3-0.2,0.5s-0.1,0.4-0.1,0.6c0,0.2,0,0.5,0,0.6c0,0.2,0.1,0.4,0.2,0.5s0.2,0.3,0.4,0.3c0.1,0.1,0.3,0.1,0.6,0.1c0.2,0,0.4,0,0.5-0.1s0.3-0.2,0.4-0.3s0.2-0.3,0.2-0.5s0.1-0.4,0.1-0.7C328.7,136.1,328.7,135.9,328.6,135.7z"/><path fill="#464445" d="M335,134.6C335,134.7,335,134.7,335,134.6c0,0.1-0.1,0.1-0.1,0.1l0,0h-1.5v3.5l0,0l0,0c0,0,0,0-0.1,0c0,0-0.1,0-0.2,0s-0.1,0-0.2,0s-0.1,0-0.1,0l0,0l0,0v-3.9c0-0.1,0-0.1,0-0.2c0,0,0.1,0,0.2,0h2l0,0l0,0c0,0,0,0,0,0.1s0,0.1,0,0.1L335,134.6z"/><path fill="#464445" d="M339.4,137.2c-0.1,0.3-0.2,0.5-0.3,0.7c-0.1,0.2-0.3,0.4-0.6,0.5c-0.2,0.1-0.5,0.1-0.7,0.1c-0.1,0-0.2,0-0.3,0c-0.1,0-0.2,0-0.3-0.1c-0.1,0-0.2-0.1-0.3-0.2c-0.1,0-0.2-0.2-0.3-0.3v2l0,0l0,0c0,0,0,0-0.1,0c0,0-0.1,0-0.2,0s-0.1,0-0.2,0s-0.1,0-0.1,0l0,0l0,0v-5.6l0,0l0,0c0,0,0,0,0.1,0h0.1h0.1h0.1l0,0l0,0v0.6c0.1-0.1,0.2-0.2,0.4-0.3c0.1-0.1,0.2-0.2,0.4-0.2c0.1,0,0.2-0.1,0.4-0.1c0.1,0,0.2,0,0.4,0c0.3,0,0.6,0,0.7,0.2c0.2,0.1,0.4,0.3,0.5,0.5s0.2,0.4,0.3,0.7c0,0.3,0.1,0.6,0.1,0.8C339.5,136.6,339.5,136.9,339.4,137.2z M338.7,135.7c0-0.2-0.1-0.4-0.2-0.5s-0.2-0.3-0.3-0.4c-0.1-0.1-0.3-0.1-0.5-0.1c-0.1,0-0.2,0-0.3,0c-0.1,0-0.2,0.1-0.3,0.1c-0.1,0-0.2,0.1-0.3,0.2c-0.1,0.1-0.2,0.2-0.3,0.4v1.6c0.2,0.2,0.4,0.5,0.6,0.6s0.4,0.2,0.6,0.2s0.4,0,0.5-0.1s0.2-0.2,0.3-0.4c0.1-0.1,0.1-0.3,0.2-0.5c0-0.2,0-0.4,0-0.6C338.8,136.1,338.7,135.9,338.7,135.7z"/><path fill="#464445" d="M343.7,138.4C343.7,138.4,343.6,138.4,343.7,138.4c-0.1,0-0.2,0-0.3,0s-0.1,0-0.2,0h-0.1c0,0,0,0,0-0.1v-0.4c-0.2,0.2-0.4,0.3-0.6,0.5c-0.2,0.1-0.5,0.1-0.7,0.1s-0.4,0-0.6-0.1c-0.2,0-0.3-0.1-0.5-0.2s-0.2-0.2-0.3-0.4c0-0.1-0.1-0.3-0.1-0.5s0-0.4,0.1-0.6c0.1-0.2,0.2-0.3,0.4-0.4c0.2-0.1,0.4-0.2,0.6-0.2s0.6-0.1,0.8-0.1h0.6v-0.3c0-0.1,0-0.3,0-0.4c0-0.1-0.1-0.2-0.2-0.3s-0.2-0.1-0.3-0.2c-0.1,0-0.3,0-0.4,0c-0.2,0-0.4,0-0.5,0s-0.3,0.1-0.4,0.1s-0.2,0.1-0.3,0.1c-0.1,0-0.1,0-0.2,0l0,0l0,0c0,0,0,0,0-0.1v-0.1c0-0.1,0-0.1,0-0.2c0,0,0-0.1,0.1-0.1c0,0,0.1-0.1,0.2-0.1s0.2-0.1,0.3-0.1c0.1,0,0.3-0.1,0.4-0.1s0.3,0,0.5,0c0.3,0,0.6,0,0.7,0.1c0.2,0,0.4,0.2,0.5,0.3s0.2,0.3,0.3,0.5c0,0.2,0.1,0.4,0.1,0.6v2.7C343.7,138.4,343.7,138.4,343.7,138.4z M342.3,136.5c-0.2,0-0.4,0-0.6,0c-0.1,0-0.3,0.1-0.4,0.1c-0.1,0.1-0.2,0.1-0.2,0.2c0,0.1,0,0.2,0,0.3c0,0.2,0,0.4,0.2,0.5c0.1,0.1,0.3,0.2,0.6,0.2c0.2,0,0.4,0,0.6-0.1s0.3-0.2,0.5-0.5v-0.9L342.3,136.5L342.3,136.5z"/><path fill="#464445" d="M350.1,138.4c0,0-0.1,0-0.3,0c-0.1,0-0.1,0-0.2,0h-0.1l0,0l0,0l-0.3-2.3c0-0.1,0-0.2,0-0.3s0-0.2,0-0.3v-0.3c0-0.1,0-0.2,0-0.3v-0.1c0,0.1,0,0.2-0.1,0.3c0,0.1,0,0.2-0.1,0.3c0,0.1-0.1,0.2-0.1,0.3s0,0.2-0.1,0.3l-0.8,2.4c0,0,0,0,0,0.1c0,0,0,0-0.1,0s0,0-0.1,0s-0.1,0-0.1,0h-0.1h-0.1l0,0c0,0,0,0,0-0.1l-0.8-2.4c0-0.1,0-0.2-0.1-0.3s0-0.2-0.1-0.3c0-0.1,0-0.2-0.1-0.3s0-0.2-0.1-0.3v0.1c0,0.1,0,0.2,0,0.3s0,0.2,0,0.3s0,0.2,0,0.3s0,0.2,0,0.3l-0.3,2.3c0,0,0,0,0,0.1l0,0c0,0,0,0-0.1,0c0,0-0.1,0-0.2,0s-0.1,0-0.2,0h-0.1l0,0c0,0,0,0,0-0.1l0.5-3.8c0-0.1,0-0.2,0.1-0.2c0,0,0.1-0.1,0.2-0.1h0.4c0.1,0,0.2,0,0.2,0h0.1l0.1,0.1c0,0,0,0.1,0.1,0.2l0.6,1.7c0,0.1,0,0.2,0.1,0.3c0,0.1,0.1,0.2,0.1,0.3s0,0.2,0.1,0.3c0,0.1,0,0.2,0.1,0.3l0,0c0-0.1,0-0.2,0.1-0.3c0-0.1,0-0.2,0.1-0.3s0-0.2,0.1-0.3c0-0.1,0-0.2,0.1-0.3l0.6-1.7c0-0.1,0-0.1,0.1-0.2c0,0,0-0.1,0.1-0.1c0,0,0.1,0,0.1-0.1c0,0,0.1,0,0.2,0h0.4c0.1,0,0.2,0,0.2,0s0.1,0.1,0.1,0.2l0.5,3.8C350.1,138.4,350.1,138.4,350.1,138.4z"/><path fill="#464445" d="M356.3,138.4c0,0-0.1,0-0.3,0c-0.1,0-0.1,0-0.2,0h-0.1l0,0l0,0l-0.3-2.3c0-0.1,0-0.2,0-0.3s0-0.2,0-0.3v-0.3c0-0.1,0-0.2,0-0.3v-0.1c0,0.1,0,0.2-0.1,0.3c0,0.1,0,0.2-0.1,0.3c0,0.1-0.1,0.2-0.1,0.3s0,0.2-0.1,0.3l-0.8,2.4c0,0,0,0,0,0.1c0,0,0,0-0.1,0c0,0,0,0-0.1,0h-0.1h-0.1h-0.1l0,0c0,0,0,0,0-0.1l-0.8-2.4c0-0.1,0-0.2-0.1-0.3s0-0.2-0.1-0.3c0-0.1,0-0.2-0.1-0.3c0-0.1,0-0.2-0.1-0.3v0.1c0,0.1,0,0.2,0,0.3s0,0.2,0,0.3s0,0.2,0,0.3s0,0.2,0,0.3l-0.3,2.3c0,0,0,0,0,0.1l0,0c0,0,0,0-0.1,0c0,0-0.1,0-0.2,0s-0.1,0-0.2,0h-0.1l0,0c0,0,0,0,0-0.1l0.5-3.8c0-0.1,0-0.2,0.1-0.2c0,0,0.1-0.1,0.2-0.1h0.4c0.1,0,0.2,0,0.2,0h0.1l0.1,0.1c0,0,0,0.1,0.1,0.2l0.6,1.7c0,0.1,0,0.2,0.1,0.3s0.1,0.2,0.1,0.3s0,0.2,0.1,0.3c0,0.1,0,0.2,0.1,0.3l0,0c0-0.1,0-0.2,0.1-0.3c0-0.1,0-0.2,0.1-0.3s0-0.2,0.1-0.3c0-0.1,0-0.2,0.1-0.3l0.6-1.7c0-0.1,0-0.1,0.1-0.2c0,0,0-0.1,0.1-0.1c0,0,0.1,0,0.1-0.1c0,0,0.1,0,0.2,0h0.4c0.1,0,0.2,0,0.2,0s0.1,0.1,0.1,0.2l0.5,3.8C356.4,138.4,356.3,138.4,356.3,138.4z"/><path fill="#464445" d="M360.5,138.4C360.5,138.4,360.4,138.4,360.5,138.4c-0.1,0-0.2,0-0.3,0s-0.1,0-0.2,0s-0.1,0-0.1,0s0,0,0-0.1v-0.4c-0.2,0.2-0.4,0.3-0.6,0.5c-0.2,0.1-0.5,0.1-0.7,0.1s-0.4,0-0.6-0.1c-0.2,0-0.3-0.1-0.5-0.2s-0.2-0.2-0.3-0.4c0-0.1-0.1-0.3-0.1-0.5s0-0.4,0.1-0.6c0.1-0.2,0.2-0.3,0.4-0.4c0.2-0.1,0.4-0.2,0.6-0.2s0.6-0.1,0.8-0.1h0.6v-0.3c0-0.1,0-0.3,0-0.4c0-0.1-0.1-0.2-0.2-0.3s-0.2-0.1-0.3-0.2c-0.1,0-0.3,0-0.4,0c-0.2,0-0.4,0-0.5,0s-0.3,0.1-0.4,0.1s-0.2,0.1-0.3,0.1c-0.1,0-0.1,0-0.2,0l0,0l0,0c0,0,0,0,0-0.1v-0.1c0-0.1,0-0.1,0-0.2c0,0,0-0.1,0.1-0.1c0,0,0.1-0.1,0.2-0.1s0.2-0.1,0.3-0.1c0.1,0,0.3-0.1,0.4-0.1s0.3,0,0.5,0c0.3,0,0.6,0,0.7,0.1c0.2,0,0.4,0.2,0.5,0.3s0.2,0.3,0.3,0.5c0,0.2,0.1,0.4,0.1,0.6v2.7C360.5,138.4,360.5,138.4,360.5,138.4z M359.2,136.5c-0.2,0-0.4,0-0.6,0c-0.1,0-0.3,0.1-0.4,0.1c-0.1,0.1-0.2,0.1-0.2,0.2c0,0.1,0,0.2,0,0.3c0,0.2,0,0.4,0.2,0.5c0.1,0.1,0.3,0.2,0.6,0.2c0.2,0,0.4,0,0.6-0.1s0.3-0.2,0.5-0.5v-0.9L359.2,136.5L359.2,136.5z"/><path fill="#464445" d="M364.7,134.6C364.7,134.7,364.7,134.7,364.7,134.6c0,0.1-0.1,0.1-0.1,0.1l0,0h-1.2v3.5l0,0l0,0c0,0,0,0-0.1,0c0,0-0.1,0-0.2,0s-0.1,0-0.2,0h-0.1l0,0l0,0v-3.5h-1.2l0,0l0,0c0,0,0,0,0-0.1v-0.1v-0.1v-0.1l0,0l0,0h3.2l0,0l0,0c0,0,0,0,0,0.1v0.1C364.7,134.5,364.7,134.6,364.7,134.6z"/><path fill="#464445" d="M369,138.4L369,138.4c-0.1,0-0.1,0-0.1,0.1c0,0-0.1,0-0.2,0s-0.1,0-0.2,0h-0.1l0,0l0,0V136c0-0.1,0-0.2,0-0.4s0-0.2,0-0.4c0,0.1-0.1,0.2-0.2,0.4c-0.1,0.1-0.2,0.2-0.2,0.3l-1.7,2.3l0,0l0,0c0,0,0,0-0.1,0s-0.1,0-0.1,0s-0.1,0-0.2,0s-0.1,0-0.1,0l0,0l0,0v-4l0,0l0,0c0,0,0,0,0.1,0c0,0,0.1,0,0.2,0s0.2,0,0.3,0c0,0,0.1,0,0.1,0.1v2.3c0,0.1,0,0.2,0,0.4s0,0.2,0,0.4c0-0.1,0.1-0.2,0.2-0.3c0-0.1,0.1-0.2,0.2-0.3l1.7-2.4l0,0c0,0,0,0,0.1,0c0,0,0,0,0.1,0h0.1c0,0,0.1,0,0.2,0h0.1l0,0l0,0L369,138.4L369,138.4z"/><path fill="#464445" d="M373.7,138.4L373.7,138.4c-0.1,0-0.1,0-0.1,0s-0.1,0-0.2,0s-0.1,0-0.2,0s-0.1,0-0.1,0s0,0-0.1,0l0,0l-0.4-1.1c0-0.1-0.1-0.2-0.2-0.4c0-0.1-0.1-0.2-0.2-0.2s-0.2-0.1-0.3-0.1s-0.2,0-0.4,0h-0.3v1.8l0,0l0,0c0,0,0,0-0.1,0s-0.1,0-0.2,0s-0.1,0-0.2,0h-0.1l0,0l0,0v-4.1l0,0l0,0c0,0,0,0,0.1,0c0,0,0.1,0,0.2,0s0.1,0,0.2,0h0.1l0,0l0,0v1.7h0.3c0.1,0,0.2,0,0.3,0c0.1,0,0.2-0.1,0.3-0.1c0.1,0,0.1-0.1,0.2-0.2c0-0.1,0.1-0.2,0.2-0.3l0.4-0.9l0,0l0,0c0,0,0,0,0.1,0c0,0,0.1,0,0.2,0s0.1,0,0.2,0h0.1l0,0l0,0c0,0,0,0,0,0.1s0,0,0,0.1l-0.4,0.9c0,0.1-0.1,0.3-0.2,0.4c-0.1,0.1-0.1,0.2-0.2,0.3c-0.1,0-0.1,0.1-0.2,0.1s-0.1,0-0.2,0.1l0,0c0.1,0,0.2,0.1,0.3,0.1c0.1,0,0.2,0.1,0.2,0.2c0.1,0.1,0.1,0.2,0.2,0.3c0,0.1,0.1,0.2,0.2,0.4l0.5,1l0,0l0,0L373.7,138.4C373.7,138.3,373.7,138.4,373.7,138.4L373.7,138.4z"/><path fill="#464445" d="M378.2,138.4L378.2,138.4c-0.1,0-0.1,0-0.1,0.1c0,0-0.1,0-0.2,0s-0.1,0-0.2,0h-0.1l0,0l0,0V136c0-0.1,0-0.2,0-0.4s0-0.2,0-0.4c0,0.1-0.1,0.2-0.2,0.4c-0.1,0.1-0.2,0.2-0.2,0.3l-1.7,2.3l0,0l0,0c0,0,0,0-0.1,0s-0.1,0-0.1,0s-0.1,0-0.2,0s-0.1,0-0.1,0l0,0l0,0v-4l0,0l0,0c0,0,0,0,0.1,0c0,0,0.1,0,0.2,0s0.2,0,0.3,0c0,0,0.1,0,0.1,0.1v2.3c0,0.1,0,0.2,0,0.4s0,0.2,0,0.4c0-0.1,0.1-0.2,0.2-0.3c0-0.1,0.1-0.2,0.2-0.3l1.7-2.4l0,0c0,0,0,0,0.1,0c0,0,0,0,0.1,0h0.1c0,0,0.1,0,0.2,0h0.1l0,0l0,0L378.2,138.4L378.2,138.4z"/><path fill="#464445" d="M288,148C288,148,287.9,148.1,288,148c-0.1,0-0.2,0-0.3,0s-0.1,0-0.2,0h-0.1c0,0,0,0,0-0.1v-0.4c-0.2,0.2-0.4,0.3-0.6,0.5c-0.2,0.1-0.5,0.1-0.7,0.1s-0.4,0-0.6-0.1c-0.2,0-0.3-0.1-0.5-0.2s-0.2-0.2-0.3-0.4c0-0.1-0.1-0.3-0.1-0.5s0-0.4,0.1-0.6c0.1-0.2,0.2-0.3,0.4-0.4s0.4-0.2,0.6-0.2s0.6-0.1,0.8-0.1h0.6v-0.3c0-0.1,0-0.3,0-0.4c0-0.1-0.1-0.2-0.2-0.3s-0.2-0.1-0.3-0.2c-0.1,0-0.3,0-0.4,0c-0.2,0-0.4,0-0.5,0s-0.3,0.1-0.4,0.1s-0.2,0.1-0.3,0.1c-0.1,0-0.1,0-0.2,0l0,0l0,0c0,0,0,0,0-0.1v-0.1c0-0.1,0-0.1,0-0.2c0,0,0-0.1,0.1-0.1c0,0,0.1-0.1,0.2-0.1s0.2-0.1,0.3-0.1c0.1,0,0.3-0.1,0.4-0.1s0.3,0,0.5,0c0.3,0,0.6,0,0.7,0.1c0.2,0,0.4,0.2,0.5,0.3s0.2,0.3,0.3,0.5c0,0.2,0.1,0.4,0.1,0.6v2.7C288.1,148,288,148,288,148z M286.7,146.1c-0.2,0-0.4,0-0.6,0c-0.1,0-0.3,0.1-0.4,0.1c-0.1,0.1-0.2,0.1-0.2,0.2c0,0.1,0,0.2,0,0.3c0,0.2,0,0.4,0.2,0.5c0.1,0.1,0.3,0.2,0.6,0.2c0.2,0,0.4,0,0.6-0.1s0.3-0.2,0.5-0.5v-0.9L286.7,146.1L286.7,146.1z"/><path fill="#464445" d="M292.9,148L292.9,148c0,0-0.1,0-0.1,0.1c0,0-0.1,0-0.2,0s-0.1,0-0.2,0s-0.1,0-0.1,0l0,0l0,0v-1.8h-2.1v1.8l0,0l0,0c0,0,0,0-0.1,0c0,0-0.1,0-0.2,0s-0.1,0-0.2,0s-0.1,0-0.1,0l0,0l0,0v-4l0,0l0,0c0,0,0,0,0.1,0c0,0,0.1,0,0.2,0s0.1,0,0.2,0s0.1,0,0.1,0l0,0l0,0v1.7h2.1v-1.7l0,0l0,0c0,0,0,0,0.1,0c0,0,0.1,0,0.2,0s0.1,0,0.2,0h0.1l0,0l0,0V148L292.9,148z"/><path fill="#464445" d="M296.7,144.3C296.7,144.3,296.7,144.4,296.7,144.3c0,0.1-0.1,0.1-0.1,0.1l0,0H295v3.5l0,0l0,0c0,0,0,0-0.1,0s-0.1,0-0.2,0s-0.1,0-0.2,0h-0.1l0,0l0,0V144c0-0.1,0-0.1,0-0.2c0,0,0.1,0,0.2,0h2l0,0l0,0c0,0,0,0,0,0.1s0,0.1,0,0.1S296.7,144.2,296.7,144.3z"/><path fill="#464445" d="M300.8,148L300.8,148c0,0-0.1,0-0.1,0.1c0,0-0.1,0-0.2,0s-0.1,0-0.2,0s-0.1,0-0.1,0l0,0l0,0v-3.5H299c0,0.5-0.1,0.9-0.2,1.3s-0.1,0.7-0.2,1s-0.2,0.5-0.3,0.7c-0.1,0.2-0.2,0.3-0.3,0.5c-0.1,0.1-0.3,0.2-0.4,0.2s-0.3,0.1-0.5,0.1c0,0,0,0-0.1,0l0,0c0,0,0,0,0-0.1c0,0,0-0.1,0-0.2c0-0.1,0-0.1,0-0.2v-0.1l0,0l0,0c0.1,0,0.2,0,0.3,0c0.1,0,0.2-0.1,0.2-0.2c0.1-0.1,0.1-0.2,0.2-0.4c0-0.2,0.1-0.4,0.2-0.6c0-0.3,0.1-0.6,0.2-0.9c0-0.3,0.1-0.7,0.1-1.1c0-0.1,0-0.1,0-0.2h0.1h2.1c0.1,0,0.1,0,0.2,0s0,0.1,0,0.2L300.8,148L300.8,148z"/><path fill="#464445" d="M305.7,148L305.7,148c-0.1,0-0.1,0-0.1,0.1c0,0-0.1,0-0.2,0s-0.1,0-0.2,0s-0.1,0-0.1,0l0,0l0,0v-2.3c0-0.1,0-0.2,0-0.4s0-0.2,0-0.4c0,0.1-0.1,0.2-0.2,0.4c-0.1,0.1-0.2,0.2-0.2,0.3L303,148l0,0l0,0c0,0,0,0-0.1,0h-0.1c0,0-0.1,0-0.2,0h-0.1l0,0l0,0v-4l0,0l0,0c0,0,0,0,0.1,0c0,0,0.1,0,0.2,0s0.2,0,0.3,0c0,0,0.1,0,0.1,0.1v2.3c0,0.1,0,0.2,0,0.4s0,0.2,0,0.4c0-0.1,0.1-0.2,0.2-0.3c0-0.1,0.1-0.2,0.2-0.3l1.7-2.4l0,0c0,0,0,0,0.1,0s0,0,0.1,0h0.1c0,0,0.1,0,0.2,0s0.1,0,0.1,0l0,0l0,0L305.7,148C305.8,148,305.8,148,305.7,148z"/><path fill="#464445" d="M310.7,148L310.7,148c-0.1,0-0.1,0-0.1,0.1c0,0-0.1,0-0.2,0s-0.1,0-0.2,0h-0.1l0,0l0,0v-2.3c0-0.1,0-0.2,0-0.4s0-0.2,0-0.4c0,0.1-0.1,0.2-0.2,0.4c-0.1,0.1-0.2,0.2-0.2,0.3L308,148l0,0l0,0c0,0,0,0-0.1,0h-0.1c0,0-0.1,0-0.2,0h-0.1l0,0l0,0v-4l0,0l0,0c0,0,0,0,0.1,0s0.1,0,0.2,0s0.2,0,0.3,0c0,0,0.1,0,0.1,0.1v2.3c0,0.1,0,0.2,0,0.4s0,0.2,0,0.4c0-0.1,0.1-0.2,0.2-0.3c0-0.1,0.1-0.2,0.2-0.3l1.7-2.4l0,0c0,0,0,0,0.1,0c0,0,0,0,0.1,0s0.1,0,0.1,0s0.1,0,0.2,0h0.1l0,0l0,0L310.7,148L310.7,148z M310.2,142.5c0,0.1-0.1,0.3-0.2,0.4c-0.1,0.1-0.2,0.2-0.4,0.3c-0.2,0-0.4,0.1-0.6,0.1s-0.4,0-0.6-0.1c-0.2,0-0.3-0.1-0.4-0.2c-0.1-0.1-0.2-0.2-0.3-0.4c0-0.1-0.1-0.3-0.1-0.5c0,0,0,0,0-0.1l0,0c0,0,0,0,0.1,0c0,0,0.1,0,0.2,0s0.1,0,0.2,0h0.1l0,0c0,0,0,0,0,0.1s0,0.2,0,0.3s0.1,0.1,0.1,0.2c0,0,0.1,0.1,0.2,0.1s0.2,0,0.3,0c0.1,0,0.2,0,0.3,0c0.1,0,0.1-0.1,0.2-0.1s0.1-0.1,0.1-0.2c0-0.1,0-0.2,0-0.3c0,0,0,0,0-0.1l0,0c0,0,0,0,0.1,0c0,0,0.1,0,0.2,0s0.1,0,0.2,0h0.1l0,0c0,0,0,0,0,0.1C310.3,142.2,310.3,142.4,310.2,142.5z"/><path fill="#464445" d="M315,147.5L315,147.5c0,0.1,0,0.1,0,0.2c0,0,0,0-0.1,0.1c0,0-0.1,0.1-0.2,0.1s-0.2,0.1-0.3,0.1c-0.1,0-0.2,0.1-0.4,0.1s-0.3,0-0.4,0c-0.3,0-0.6,0-0.8-0.1c-0.2-0.1-0.4-0.2-0.6-0.4c-0.1-0.2-0.3-0.4-0.4-0.7s-0.1-0.6-0.1-0.9c0-0.4,0-0.7,0.1-1s0.2-0.5,0.4-0.7c0.2-0.2,0.4-0.3,0.6-0.4c0.2-0.1,0.5-0.1,0.7-0.1c0.1,0,0.2,0,0.4,0c0.1,0,0.2,0,0.3,0.1s0.2,0.1,0.3,0.1c0.1,0,0.1,0.1,0.2,0.1c0,0,0,0,0.1,0.1c0,0,0,0,0,0.1c0,0,0,0,0,0.1s0,0.1,0,0.1c0,0.1,0,0.2,0,0.2s0,0.1-0.1,0.1c0,0-0.1,0-0.1-0.1c0,0-0.1-0.1-0.2-0.2s-0.2-0.1-0.3-0.2c-0.1,0-0.3-0.1-0.5-0.1c-0.4,0-0.6,0.1-0.8,0.4s-0.3,0.7-0.3,1.2c0,0.3,0,0.5,0.1,0.7c0,0.2,0.1,0.4,0.2,0.5s0.2,0.2,0.4,0.3c0.1,0,0.3,0.1,0.5,0.1s0.3,0,0.5-0.1c0.1,0,0.2-0.1,0.3-0.2c0.1,0,0.2-0.1,0.2-0.2l0.1-0.1l0,0l0,0c0,0,0,0,0,0.1s0,0.1,0,0.1C315,147.4,315,147.4,315,147.5z"/><path fill="#464445" d="M319.3,148L319.3,148c-0.1,0-0.1,0-0.1,0s-0.1,0-0.2,0s-0.1,0-0.2,0h-0.1c0,0,0,0-0.1,0l0,0l-0.4-1.1c0-0.1-0.1-0.2-0.2-0.4c0-0.1-0.1-0.2-0.2-0.2s-0.2-0.1-0.3-0.1s-0.2,0-0.4,0h-0.3v1.8l0,0l0,0c0,0,0,0-0.1,0s-0.1,0-0.2,0s-0.1,0-0.2,0s-0.1,0-0.1,0l0,0l0,0v-4.1l0,0l0,0c0,0,0,0,0.1,0c0,0,0.1,0,0.2,0s0.1,0,0.2,0s0.1,0,0.1,0l0,0l0,0v1.7h0.3c0.1,0,0.2,0,0.3,0c0.1,0,0.2-0.1,0.3-0.1c0.1,0,0.1-0.1,0.2-0.2c0-0.1,0.1-0.2,0.2-0.3l0.4-0.9l0,0l0,0c0,0,0,0,0.1,0c0,0,0.1,0,0.2,0s0.1,0,0.2,0h0.1l0,0l0,0c0,0,0,0,0,0.1s0,0,0,0.1l-0.4,0.9c0,0.1-0.1,0.3-0.2,0.4c-0.1,0.1-0.1,0.2-0.2,0.3c-0.1,0-0.1,0.1-0.2,0.1s-0.1,0-0.2,0.1l0,0c0.1,0,0.2,0.1,0.3,0.1c0.1,0,0.2,0.1,0.2,0.2c0.1,0.1,0.1,0.2,0.2,0.3c0,0.1,0.1,0.2,0.2,0.4l0.5,1l0,0l0,0L319.3,148L319.3,148L319.3,148z"/><path fill="#464445" d="M323.9,146.8c-0.1,0.3-0.2,0.5-0.4,0.7c-0.2,0.2-0.4,0.4-0.6,0.5c-0.3,0.1-0.6,0.2-0.9,0.2s-0.6,0-0.9-0.1c-0.2-0.1-0.5-0.2-0.6-0.4s-0.3-0.4-0.4-0.7s-0.1-0.6-0.1-0.9s0-0.6,0.1-0.9c0.1-0.3,0.2-0.5,0.4-0.7c0.2-0.2,0.4-0.4,0.6-0.5c0.3-0.1,0.6-0.2,0.9-0.2s0.6,0,0.9,0.1c0.2,0.1,0.5,0.2,0.6,0.4s0.3,0.4,0.4,0.7s0.1,0.6,0.1,0.9S324,146.5,323.9,146.8z M323.1,145.3c0-0.2-0.1-0.4-0.2-0.5s-0.2-0.3-0.4-0.4c-0.1-0.1-0.4-0.1-0.6-0.1s-0.4,0-0.6,0.1c-0.1,0.1-0.3,0.2-0.4,0.3s-0.2,0.3-0.2,0.5s-0.1,0.4-0.1,0.6c0,0.2,0,0.4,0,0.6c0,0.2,0.1,0.4,0.2,0.5s0.2,0.3,0.4,0.4c0.1,0.1,0.4,0.1,0.6,0.1s0.4,0,0.6-0.1c0.1-0.1,0.3-0.2,0.4-0.3s0.2-0.3,0.2-0.5s0.1-0.4,0.1-0.6C323.2,145.7,323.2,145.5,323.1,145.3z"/><path fill="#464445" d="M327.5,144.3C327.5,144.3,327.5,144.4,327.5,144.3c0,0.1-0.1,0.1-0.1,0.1l0,0h-1.5v3.5l0,0l0,0c0,0,0,0-0.1,0s-0.1,0-0.2,0s-0.1,0-0.2,0h-0.1l0,0l0,0V144c0-0.1,0-0.1,0-0.2c0,0,0.1,0,0.2,0h2l0,0l0,0c0,0,0,0,0,0.1s0,0.1,0,0.1S327.5,144.2,327.5,144.3z"/><path fill="#464445" d="M331.9,146.8c-0.1,0.3-0.2,0.5-0.4,0.7c-0.2,0.2-0.4,0.4-0.6,0.5c-0.3,0.1-0.6,0.2-0.9,0.2s-0.6,0-0.9-0.1c-0.2-0.1-0.5-0.2-0.6-0.4s-0.3-0.4-0.4-0.7s-0.1-0.6-0.1-0.9s0-0.6,0.1-0.9c0.1-0.3,0.2-0.5,0.4-0.7c0.2-0.2,0.4-0.4,0.6-0.5c0.3-0.1,0.6-0.2,0.9-0.2s0.6,0,0.9,0.1c0.2,0.1,0.5,0.2,0.6,0.4s0.3,0.4,0.4,0.7s0.1,0.6,0.1,0.9S332,146.5,331.9,146.8z M331.1,145.3c0-0.2-0.1-0.4-0.2-0.5s-0.2-0.3-0.4-0.4c-0.1-0.1-0.4-0.1-0.6-0.1s-0.4,0-0.6,0.1c-0.1,0.1-0.3,0.2-0.4,0.3s-0.2,0.3-0.2,0.5s-0.1,0.4-0.1,0.6c0,0.2,0,0.4,0,0.6c0,0.2,0.1,0.4,0.2,0.5s0.2,0.3,0.4,0.4c0.1,0.1,0.4,0.1,0.6,0.1s0.4,0,0.6-0.1c0.1-0.1,0.3-0.2,0.4-0.3s0.2-0.3,0.2-0.5s0.1-0.4,0.1-0.6C331.2,145.7,331.2,145.5,331.1,145.3z"/><path fill="#464445" d="M338.2,148L338.2,148c-0.1,0-0.1,0-0.1,0.1c0,0-0.1,0-0.2,0s-0.1,0-0.2,0h-0.1l0,0l0,0v-1.7h-0.4c-0.2,0-0.3,0-0.4,0s-0.2,0.1-0.3,0.1c-0.1,0-0.1,0.1-0.2,0.3c0,0.1-0.1,0.2-0.2,0.4l-0.3,0.8v0.1c0,0,0,0-0.1,0h-0.1c0,0-0.1,0-0.2,0s-0.1,0-0.1,0h-0.1l0,0l0,0c0,0,0,0,0-0.1c0,0,0-0.1,0.1-0.2l0.3-0.8c0.1-0.2,0.2-0.4,0.3-0.5c0.1-0.1,0.3-0.2,0.4-0.3c-0.3,0-0.5-0.2-0.7-0.4s-0.3-0.4-0.3-0.7c0-0.2,0-0.4,0.1-0.6c0.1-0.1,0.2-0.3,0.4-0.4c0.1-0.1,0.4-0.2,0.6-0.2s0.5-0.1,0.8-0.1c0.1,0,0.1,0,0.2,0s0.2,0,0.3,0s0.2,0,0.3,0s0.2,0,0.2,0c0.1,0,0.1,0,0.2,0.1c0,0,0,0.1,0,0.2v3.8C338.2,148,338.2,148,338.2,148z M337.1,144.3c-0.1,0-0.2,0-0.3,0c-0.2,0-0.4,0-0.5,0s-0.2,0.1-0.3,0.1c-0.1,0-0.1,0.1-0.2,0.2c0,0.1,0,0.2,0,0.3s0,0.2,0,0.3s0.1,0.2,0.2,0.2s0.2,0.1,0.3,0.1c0.1,0,0.3,0,0.6,0h0.6v-1.4C337.3,144.3,337.2,144.3,337.1,144.3z"/><path fill="#464445" d="M342.2,147.4c-0.1,0.2-0.2,0.3-0.4,0.4c-0.1,0.1-0.3,0.2-0.6,0.3c-0.2,0.1-0.5,0.1-0.7,0.1c-0.1,0-0.3,0-0.5,0c-0.1,0-0.3,0-0.4-0.1c-0.1,0-0.2-0.1-0.3-0.1c-0.1,0-0.1-0.1-0.2-0.1c0,0,0,0,0-0.1c0,0,0,0,0-0.1c0,0,0,0,0-0.1s0-0.1,0-0.1v-0.1c0,0,0,0,0-0.1l0,0l0,0h0.1c0,0,0.1,0.1,0.2,0.1s0.2,0.1,0.4,0.1c0.1,0,0.3,0,0.6,0c0.1,0,0.3,0,0.4,0s0.2-0.1,0.3-0.1c0.1,0,0.1-0.1,0.2-0.2c0-0.1,0-0.2,0-0.3s0-0.2,0-0.3s-0.1-0.1-0.2-0.2c-0.1,0-0.2-0.1-0.4-0.1c-0.1,0-0.3,0-0.6,0h-0.5c0,0,0,0-0.1,0l0,0c0,0,0,0,0-0.1v-0.1V146c0,0,0,0,0-0.1l0,0l0,0h0.4c0.2,0,0.4,0,0.5,0s0.2-0.1,0.3-0.1c0.1,0,0.2-0.1,0.2-0.2c0-0.1,0-0.2,0-0.3s0-0.2,0-0.3s-0.1-0.1-0.2-0.2c0,0-0.1-0.1-0.3-0.1c-0.1,0-0.2,0-0.3,0c-0.2,0-0.4,0-0.5,0s-0.3,0.1-0.4,0.1s-0.2,0.1-0.3,0.1h-0.1l0,0l0,0c0,0,0,0,0-0.1s0-0.1,0-0.1c0-0.1,0-0.1,0-0.2s0-0.1,0.1-0.1c0,0,0.1-0.1,0.2-0.1s0.2-0.1,0.3-0.1c0.1,0,0.2-0.1,0.4-0.1c0.1,0,0.3,0,0.4,0c0.2,0,0.4,0,0.6,0.1c0.2,0,0.3,0.1,0.5,0.2c0.1,0.1,0.2,0.2,0.3,0.4c0.1,0.1,0.1,0.3,0.1,0.5c0,0.1,0,0.2,0,0.3s-0.1,0.2-0.1,0.3s-0.1,0.1-0.2,0.2c-0.1,0.1-0.2,0.1-0.3,0.1l0,0c0.1,0,0.2,0,0.4,0.1c0.1,0,0.2,0.1,0.3,0.2c0.1,0.1,0.2,0.2,0.2,0.3s0.1,0.3,0.1,0.4C342.3,147,342.3,147.2,342.2,147.4z"/><path fill="#464445" d="M344.5,145.3c0.1,0,0.2,0,0.4,0c0.3,0,0.6,0,0.8,0.1c0.2,0,0.4,0.1,0.6,0.3c0.1,0.1,0.3,0.3,0.3,0.4c0,0.2,0.1,0.4,0.1,0.6c0,0.2,0,0.4-0.1,0.6c-0.1,0.2-0.2,0.3-0.4,0.5c-0.1,0.1-0.4,0.2-0.6,0.3s-0.6,0.1-0.9,0.1c-0.1,0-0.2,0-0.2,0c-0.1,0-0.2,0-0.2,0c-0.1,0-0.1,0-0.2,0s-0.1,0-0.2,0s-0.2,0-0.3-0.1c0-0.1-0.1-0.2-0.1-0.3V144l0,0l0,0c0,0,0,0,0.1,0c0,0,0.1,0,0.2,0s0.2,0,0.3,0c0,0,0.1,0,0.1,0.1v1.4C344.2,145.3,344.4,145.3,344.5,145.3z M345.8,146.4c0-0.1-0.1-0.2-0.2-0.3c-0.1,0-0.2-0.1-0.3-0.2c-0.1,0-0.3,0-0.5,0c-0.1,0-0.2,0-0.3,0c-0.1,0-0.2,0-0.3,0v1.6c0.1,0,0.2,0,0.3,0c0.1,0,0.2,0,0.4,0c0.4,0,0.6-0.1,0.8-0.2c0.2-0.1,0.3-0.4,0.3-0.6C345.9,146.6,345.8,146.5,345.8,146.4z M348.1,148L348.1,148c0,0-0.1,0-0.1,0.1c0,0-0.1,0-0.2,0s-0.1,0-0.2,0s-0.1,0-0.1,0l0,0l0,0v-4l0,0l0,0c0,0,0,0,0.1,0c0,0,0.1,0,0.2,0s0.1,0,0.2,0s0.1,0,0.1,0l0,0l0,0V148L348.1,148z"/><path fill="#464445" d="M352.8,148L352.8,148c-0.1,0-0.1,0-0.1,0s-0.1,0-0.2,0s-0.1,0-0.2,0h-0.1c0,0,0,0-0.1,0l0,0l-0.4-1.1c0-0.1-0.1-0.2-0.2-0.4c0-0.1-0.1-0.2-0.2-0.2s-0.2-0.1-0.3-0.1s-0.2,0-0.4,0h-0.3v1.8l0,0l0,0c0,0,0,0-0.1,0s-0.1,0-0.2,0s-0.1,0-0.2,0s-0.1,0-0.1,0l0,0l0,0v-4.1l0,0l0,0c0,0,0,0,0.1,0c0,0,0.1,0,0.2,0s0.1,0,0.2,0s0.1,0,0.1,0l0,0l0,0v1.7h0.3c0.1,0,0.2,0,0.3,0s0.2-0.1,0.3-0.1c0.1,0,0.1-0.1,0.2-0.2c0-0.1,0.1-0.2,0.2-0.3l0.4-0.9l0,0l0,0c0,0,0,0,0.1,0c0,0,0.1,0,0.2,0s0.1,0,0.2,0h0.1l0,0l0,0c0,0,0,0,0,0.1s0,0,0,0.1l-0.4,0.9c0,0.1-0.1,0.3-0.2,0.4c-0.1,0.1-0.1,0.2-0.2,0.3c-0.1,0-0.1,0.1-0.2,0.1s-0.1,0-0.2,0.1l0,0c0.1,0,0.2,0.1,0.3,0.1c0.1,0,0.2,0.1,0.2,0.2c0.1,0.1,0.1,0.2,0.2,0.3c0,0.1,0.1,0.2,0.2,0.4l0.5,1l0,0l0,0L352.8,148C352.9,148,352.9,148,352.8,148C352.9,148,352.9,148,352.8,148z"/><path fill="#464445" d="M356.8,148C356.8,148,356.8,148.1,356.8,148c-0.1,0-0.2,0-0.3,0s-0.1,0-0.2,0h-0.1c0,0,0,0,0-0.1v-0.4c-0.2,0.2-0.4,0.3-0.6,0.5c-0.2,0.1-0.5,0.1-0.7,0.1s-0.4,0-0.6-0.1c-0.2,0-0.3-0.1-0.5-0.2c-0.1-0.1-0.2-0.2-0.3-0.4c0-0.1-0.1-0.3-0.1-0.5s0-0.4,0.1-0.6c0.1-0.2,0.2-0.3,0.4-0.4s0.4-0.2,0.6-0.2s0.6-0.1,0.8-0.1h0.6v-0.3c0-0.1,0-0.3,0-0.4c0-0.1-0.1-0.2-0.2-0.3s-0.2-0.1-0.3-0.2c-0.1,0-0.3,0-0.4,0c-0.2,0-0.4,0-0.5,0s-0.3,0.1-0.4,0.1s-0.2,0.1-0.3,0.1s-0.1,0-0.2,0l0,0l0,0c0,0,0,0,0-0.1v-0.1c0-0.1,0-0.1,0-0.2c0,0,0-0.1,0.1-0.1c0,0,0.1-0.1,0.2-0.1s0.2-0.1,0.3-0.1c0.1,0,0.3-0.1,0.4-0.1s0.3,0,0.5,0c0.3,0,0.6,0,0.7,0.1c0.2,0,0.4,0.2,0.5,0.3s0.2,0.3,0.3,0.5c0,0.2,0.1,0.4,0.1,0.6v2.7C356.9,148,356.9,148,356.8,148z M355.5,146.1c-0.2,0-0.4,0-0.6,0c-0.1,0-0.3,0.1-0.4,0.1c-0.1,0.1-0.2,0.1-0.2,0.2c0,0.1,0,0.2,0,0.3c0,0.2,0,0.4,0.2,0.5s0.3,0.2,0.6,0.2c0.2,0,0.4,0,0.6-0.1s0.3-0.2,0.5-0.5v-0.9L355.5,146.1L355.5,146.1z"/><rect x="288.2" y="176.7" fill="#F03B4C" width="14.7" height="14.7"/><path fill="#FFFFFF" d="M297.3,183.7c-0.1,0.1-0.3,0.2-0.4,0.4c-0.6,0.6-1.1,1.1-1.7,1.7c-0.3,0.3-0.6,0.6-0.9,0.7c-0.2,0.1-0.4,0.1-0.6,0.1c-0.3-0.1-0.5-0.4-0.5-0.8c0-0.4,0.1-0.7,0.3-1.1c0.2-0.5,0.5-1,0.7-1.5c0.3-0.6,0.6-1.2,0.8-1.8c0.1-0.2,0.1-0.4,0.2-0.6v-0.1l0,0c-0.1,0.1-0.1,0.1-0.2,0.2c-0.3,0.4-0.6,0.8-0.8,1.1c-0.3,0.4-0.6,0.8-0.9,1.2c-0.1,0.1-0.3,0.3-0.5,0.4c-0.4,0.2-0.7,0-0.9-0.4c-0.1-0.3,0-0.6,0.1-0.8c0.2-0.4,0.4-0.8,0.6-1.2c0.1-0.2,0.2-0.4,0.2-0.6c0-0.1-0.1-0.3-0.2-0.4s-0.2,0-0.3,0c-0.2,0.1-0.4,0.3-0.6,0.5c-0.1,0.1-0.2,0.1-0.3,0.1c-0.1-0.1-0.1-0.2-0.1-0.3c0.2-0.3,0.5-0.6,0.8-0.7c0.4-0.1,0.7,0,0.9,0.4c0.2,0.3,0.2,0.6,0.1,0.8c-0.1,0.3-0.2,0.6-0.3,0.8c-0.1,0.3-0.3,0.6-0.5,0.9c0,0.1-0.1,0.3-0.1,0.4c0,0,0,0.1,0.1,0.1h0.1c0.1-0.2,0.3-0.3,0.5-0.5c0.4-0.5,0.7-1.1,1.1-1.6c0.2-0.3,0.4-0.5,0.6-0.7c0.1-0.1,0.3-0.3,0.5-0.3c0.3,0,0.6,0.2,0.6,0.6c0,0.2,0,0.5-0.1,0.7c-0.2,0.5-0.4,1-0.6,1.4c-0.3,0.7-0.6,1.4-1,2.2c-0.1,0.3-0.2,0.6-0.3,0.8c0,0,0,0.1,0,0.2c0.1,0,0.2-0.1,0.3-0.1c0.4-0.3,0.6-0.6,1-0.9c0.5-0.6,1-1.1,1.5-1.6c0.2-0.2,0.4-0.3,0.6-0.4c0.4-0.2,0.8,0,0.9,0.5c0,0.2,0,0.4,0,0.6c-0.1,0.5-0.3,1-0.6,1.4c-0.2,0.4-0.3,0.9-0.5,1.3c0,0.1,0,0.2-0.1,0.4c0,0,0,0.1,0.1,0.1s0.2,0,0.3,0c0.3-0.1,0.6-0.3,0.8-0.6c0.2-0.1,0.3-0.3,0.5-0.5c0.1-0.1,0.3-0.1,0.4,0s0.2,0.2,0.3,0.3c0.1,0.1,0.1,0.2,0,0.3c-0.4,0.4-0.8,0.8-1.4,1.1c-0.4,0.2-0.7,0.3-1.1,0.1c-0.6-0.2-0.8-0.6-0.6-1.1c0.1-0.5,0.3-0.9,0.5-1.3c0.2-0.5,0.4-1,0.6-1.5C297.2,183.9,297.2,183.8,297.3,183.7C297.3,183.8,297.3,183.7,297.3,183.7z"/><path fill="#454545" d="M311,182.3h-0.5v-0.5l0,0c-0.2,0.4-0.5,0.5-0.9,0.5c-0.3,0-0.5-0.1-0.7-0.2c-0.1-0.1-0.2-0.4-0.2-0.6c0-0.6,0.3-0.9,1-1l0.9-0.1c0-0.5-0.2-0.7-0.6-0.7s-0.7,0.1-1,0.4v-0.5c0.1-0.1,0.2-0.1,0.4-0.2c0.2,0,0.4-0.1,0.6-0.1c0.7,0,1,0.4,1,1.1L311,182.3L311,182.3z M310.6,180.8l-0.7,0.1c-0.2,0-0.4,0.1-0.5,0.1c-0.1,0.1-0.1,0.2-0.1,0.4c0,0.1,0,0.3,0.1,0.4c0.1,0.1,0.2,0.1,0.4,0.1c0.2,0,0.4-0.1,0.6-0.2c0.1-0.1,0.2-0.4,0.2-0.6V180.8L310.6,180.8z"/><path fill="#454545" d="M314.3,182.3h-0.5V181h-1.5v1.3h-0.5v-2.9h0.5v1.2h1.5v-1.2h0.5V182.3z"/><path fill="#454545" d="M316.9,179.8h-1.1v2.5h-0.5v-2.9h1.6V179.8L316.9,179.8z"/><path fill="#454545" d="M319.4,182.3H319v-2.5h-0.7c-0.1,0.9-0.2,1.5-0.4,2c-0.2,0.4-0.4,0.6-0.8,0.6c-0.1,0-0.2,0-0.2,0V182c0.1,0,0.1,0,0.2,0c0.4,0,0.7-0.9,0.8-2.6h1.5V182.3z"/><path fill="#454545" d="M322.7,182.3h-0.4V180l-1.5,2.3h-0.5v-2.9h0.4v2.3l1.5-2.3h0.5V182.3L322.7,182.3z"/><path fill="#454545" d="M326.1,182.3h-0.4V180l-1.5,2.3h-0.5v-2.9h0.4v2.3l1.5-2.3h0.5V182.3L326.1,182.3z M325.9,178c0,0.1,0,0.2-0.1,0.4c0,0.1-0.1,0.2-0.2,0.3s-0.2,0.1-0.3,0.2c-0.1,0-0.2,0.1-0.4,0.1c-0.1,0-0.3,0-0.4-0.1c-0.1,0-0.2-0.1-0.3-0.1c-0.1-0.1-0.1-0.1-0.2-0.3c0-0.1-0.1-0.2-0.1-0.4h0.5c0,0.1,0,0.1,0,0.2c0,0.1,0,0.1,0.1,0.1l0.1,0.1c0.1,0,0.1,0,0.2,0s0.1,0,0.2,0s0.1-0.1,0.1-0.1l0.1-0.1c0-0.1,0-0.1,0-0.2L325.9,178L325.9,178z"/><path fill="#454545" d="M329,182.2c-0.2,0.1-0.5,0.2-0.8,0.2s-0.5-0.1-0.7-0.2c-0.2-0.1-0.4-0.3-0.5-0.5s-0.2-0.5-0.2-0.7c0-0.5,0.1-0.9,0.4-1.2s0.6-0.4,1.1-0.4c0.2,0,0.5,0,0.7,0.1v0.5c-0.2-0.1-0.4-0.2-0.7-0.2c-0.3,0-0.6,0.1-0.7,0.3c-0.2,0.2-0.3,0.5-0.3,0.8c0,0.4,0.1,0.6,0.3,0.8c0.2,0.2,0.4,0.3,0.7,0.3c0.2,0,0.5-0.1,0.7-0.2V182.2L329,182.2z"/><path fill="#454545" d="M332.1,182.3h-0.6l-1.3-1.4l0,0v1.4h-0.5v-2.9h0.5v1.3l0,0l1.2-1.3h0.6l-1.4,1.4L332.1,182.3z"/><path fill="#454545" d="M335,182.3h-0.4V180l-1.5,2.3h-0.5v-2.9h0.4v2.3l1.5-2.3h0.5V182.3L335,182.3z"/><path fill="#454545" d="M338.4,182.3H338V180l-1.5,2.3H336v-2.9h0.4v2.3l1.5-2.3h0.5V182.3L338.4,182.3z M338.2,178c0,0.1,0,0.2-0.1,0.4c0,0.1-0.1,0.2-0.2,0.3c0,0.1-0.2,0.1-0.3,0.2c-0.1,0-0.2,0.1-0.4,0.1c-0.2,0-0.3,0-0.4-0.1c-0.1,0-0.2-0.1-0.3-0.1c-0.1-0.1-0.1-0.1-0.2-0.3c0-0.1-0.1-0.2-0.1-0.4h0.5c0,0.1,0,0.1,0,0.2c0,0,0,0.1,0.1,0.1l0.1,0.1c0.1,0,0.1,0,0.2,0s0.1,0,0.2,0s0.1-0.1,0.1-0.1l0.1-0.1c0-0.1,0-0.1,0-0.2L338.2,178L338.2,178z"/><path fill="#454545" d="M311.6,187.4c0,0.3,0,0.6-0.1,0.8s-0.3,0.4-0.5,0.5s-0.4,0.2-0.7,0.2c-0.4,0-0.8-0.1-1-0.5s-0.4-0.8-0.4-1.4c0-1.2,0.3-1.9,0.9-2.2c0.1,0,0.2-0.1,0.4-0.1c0.1,0,0.3-0.1,0.4-0.1s0.3,0,0.4-0.1c0.1,0,0.3-0.1,0.4-0.1v0.4c-0.1,0-0.2,0.1-0.3,0.1s-0.2,0-0.4,0.1c-0.1,0-0.2,0-0.4,0.1c-0.1,0-0.2,0.1-0.3,0.1c-0.3,0.1-0.5,0.6-0.5,1.2l0,0c0.1-0.1,0.2-0.3,0.4-0.4s0.4-0.1,0.6-0.1s0.5,0.1,0.7,0.2c0.2,0.1,0.4,0.3,0.5,0.5C311.5,186.8,311.6,187.1,311.6,187.4z M311.1,187.4c0-0.4-0.1-0.6-0.2-0.8s-0.4-0.3-0.7-0.3c-0.4,0-0.7,0.2-0.9,0.6v0.3c0,0.4,0.1,0.7,0.2,1c0.1,0.2,0.4,0.4,0.7,0.4s0.5-0.1,0.6-0.3C311,187.9,311.1,187.7,311.1,187.4z"/><path fill="#454545" d="M314.6,187.4h-2.1c0,0.3,0.1,0.6,0.3,0.7c0.1,0.1,0.4,0.3,0.7,0.3s0.6-0.1,0.9-0.3v0.4c-0.2,0.2-0.6,0.3-1,0.3s-0.7-0.1-1-0.4c-0.2-0.3-0.4-0.6-0.4-1.1c0-0.3,0-0.6,0.1-0.8s0.3-0.4,0.5-0.6s0.4-0.2,0.7-0.2c0.4,0,0.7,0.1,0.9,0.4c0.2,0.2,0.3,0.6,0.3,1v0.3L314.6,187.4L314.6,187.4z M314.1,187c0-0.3-0.1-0.5-0.2-0.6s-0.3-0.2-0.6-0.2s-0.4,0.1-0.6,0.2c-0.1,0.1-0.2,0.4-0.3,0.6H314.1L314.1,187z"/><path fill="#454545" d="M317.2,188c0,0.3-0.1,0.5-0.3,0.6c-0.2,0.1-0.5,0.2-0.9,0.2s-0.7,0-0.9-0.1v-0.5c0.2,0.1,0.6,0.2,0.9,0.2c0.5,0,0.8-0.1,0.8-0.5s-0.3-0.5-0.9-0.5h-0.3V187h0.3c0.5,0,0.7-0.1,0.7-0.5c0-0.1,0-0.2-0.1-0.3s-0.3-0.1-0.5-0.1c-0.3,0-0.6,0.1-0.9,0.2v-0.4c0.3-0.1,0.6-0.2,0.9-0.2c0.7,0,1.1,0.3,1.1,0.8c0,0.1,0,0.3-0.1,0.4c-0.1,0.1-0.2,0.2-0.4,0.2l0,0c0.2,0,0.4,0.1,0.5,0.2C317.1,187.6,317.2,187.8,317.2,188z"/><path fill="#454545" d="M321.9,187.2c0,0.5-0.1,0.9-0.4,1.2c-0.2,0.3-0.6,0.4-1,0.4s-0.7-0.1-0.9-0.5l0,0v1.8h-0.5v-4.3h0.5v0.5l0,0c0.2-0.4,0.6-0.6,1-0.6s0.7,0.1,0.9,0.4C321.8,186.4,321.9,186.8,321.9,187.2z M321.4,187.2c0-0.3-0.1-0.6-0.2-0.7c-0.1-0.2-0.4-0.3-0.6-0.3c-0.3,0-0.5,0.1-0.7,0.3s-0.2,0.4-0.2,0.7v0.4c0,0.2,0.1,0.4,0.2,0.6c0.1,0.1,0.4,0.2,0.6,0.2c0.3,0,0.5-0.1,0.7-0.3S321.4,187.6,321.4,187.2z"/><path fill="#454545" d="M324.9,187.4h-2.1c0,0.3,0.1,0.6,0.3,0.7c0.1,0.1,0.4,0.3,0.7,0.3s0.6-0.1,0.9-0.3v0.4c-0.2,0.2-0.6,0.3-1,0.3s-0.7-0.1-1-0.4c-0.2-0.3-0.4-0.6-0.4-1.1c0-0.3,0-0.6,0.1-0.8s0.3-0.4,0.5-0.6s0.4-0.2,0.7-0.2c0.4,0,0.7,0.1,0.9,0.4c0.2,0.2,0.3,0.6,0.3,1v0.3L324.9,187.4L324.9,187.4z M324.4,187c0-0.3-0.1-0.5-0.2-0.6s-0.3-0.2-0.6-0.2s-0.4,0.1-0.6,0.2c-0.1,0.1-0.2,0.4-0.3,0.6H324.4L324.4,187z"/><path fill="#454545" d="M327.2,186.3H326v2.5h-0.5v-2.9h1.6v0.4H327.2z"/><path fill="#454545" d="M330.2,188.7h-0.4v-2.3l-1.5,2.3h-0.5v-2.9h0.4v2.3l1.5-2.3h0.5V188.7L330.2,188.7z"/><path fill="#454545" d="M333.2,188.6c-0.2,0.1-0.5,0.2-0.8,0.2s-0.5-0.1-0.7-0.2c-0.2-0.1-0.4-0.3-0.5-0.5s-0.2-0.5-0.2-0.7c0-0.5,0.1-0.9,0.4-1.2s0.6-0.4,1.1-0.4c0.2,0,0.5,0,0.7,0.1v0.5c-0.2-0.1-0.4-0.2-0.7-0.2c-0.3,0-0.6,0.1-0.7,0.3c-0.2,0.2-0.3,0.5-0.3,0.8c0,0.4,0.1,0.6,0.3,0.8c0.2,0.2,0.4,0.3,0.7,0.3c0.2,0,0.5-0.1,0.7-0.2V188.6L333.2,188.6z"/><path fill="#454545" d="M335.7,186.3h-0.9v2.5h-0.5v-2.5h-0.9v-0.4h2.3V186.3L335.7,186.3z"/><path fill="#454545" d="M338.9,187.2c0,0.5-0.1,0.9-0.4,1.2c-0.2,0.3-0.6,0.4-1,0.4s-0.7-0.1-0.9-0.5l0,0v1.8h-0.5v-4.3h0.5v0.5l0,0c0.2-0.4,0.6-0.6,1-0.6s0.7,0.1,0.9,0.4C338.8,186.4,338.9,186.8,338.9,187.2z M338.4,187.2c0-0.3-0.1-0.6-0.2-0.7c-0.1-0.2-0.4-0.3-0.6-0.3c-0.3,0-0.5,0.1-0.7,0.3c-0.1,0.2-0.2,0.4-0.2,0.7v0.4c0,0.2,0.1,0.4,0.2,0.6c0.1,0.1,0.4,0.2,0.6,0.2c0.3,0,0.5-0.1,0.7-0.3C338.3,187.9,338.4,187.6,338.4,187.2z"/><path fill="#454545" d="M341.6,188.7h-0.5v-0.5l0,0c-0.2,0.4-0.5,0.5-0.9,0.5c-0.3,0-0.5-0.1-0.7-0.2c-0.1-0.1-0.2-0.4-0.2-0.6c0-0.6,0.3-0.9,1-1l0.9-0.1c0-0.5-0.2-0.7-0.6-0.7s-0.7,0.1-1,0.4V186c0.1-0.1,0.2-0.1,0.4-0.2c0.2-0.1,0.4-0.1,0.6-0.1c0.7,0,1,0.4,1,1.1L341.6,188.7L341.6,188.7z M341.1,187.3l-0.7,0.1c-0.2,0-0.4,0.1-0.5,0.1c-0.1,0.1-0.1,0.2-0.1,0.4c0,0.1,0,0.3,0.1,0.4s0.2,0.1,0.4,0.1c0.2,0,0.4-0.1,0.6-0.2c0.1-0.1,0.2-0.4,0.2-0.6V187.3L341.1,187.3z"/><path fill="#454545" d="M345.3,189.8h-0.4v-1.1h-2.4v-2.9h0.5v2.5h1.5v-2.5h0.5v2.5h0.4v1.5H345.3z"/><path fill="#454545" d="M348.4,188.7H348v-2.3l-1.5,2.3H346v-2.9h0.4v2.3l1.5-2.3h0.5V188.7L348.4,188.7z"/><path fill="#454545" d="M351.7,188.7h-0.4v-2.3l-1.5,2.3h-0.5v-2.9h0.4v2.3l1.5-2.3h0.5V188.7L351.7,188.7z"/></g></svg>