<svg version="1.1" xmlns="http://www.w3.org/2000/svg" x="0px" y="0px" width="640px" height="336px" viewBox="0 0 640 336" enable-background="new 0 0 640 336"><rect fill="#002147" width="640" height="336"/><g><path fill="#FFFFFF" d="M477.2,158.4h-0.6c-0.1,1-0.4,1.5-0.8,2.3l-3.4,4.5c-0.4,0.4-0.7,0.4-1.1,0.6c-0.5,0.3-0.6,0.6-0.9,1c-0.6,0.6-1,0.6-1.7,0.9l-0.1,0.1l-1.1,0.6c-0.6,0.3-1,0.3-1.7,0.5c0,0-0.1,0-0.1,0.1c0,0-0.1,0-0.1,0.1c0,0-0.1,0-0.1,0.1c0,0-0.1,0-0.1,0.1c-0.5,0.2-0.6,0.1-1,0.2c-0.9,0.2-0.6,0.5-2.1,0.5c-1.3,0-6.5,0.4-7.6-0.2c-0.6-0.3,0.5-0.1-0.8-0.4c-1-0.2-1.1-0.4-1.7-0.9l-0.1-0.1c-0.7-0.7-0.8-0.5-1.1-1.3l-0.3-0.7l-0.1-0.1l-0.1-0.1c-0.4-0.7-0.4-33-0.2-39.8c0-2,0.8-1.4,7.2-1.3c0.3,0,1.5,0,1.7,0c1,0.3-0.6,0.3,1.3,0.6c1.6,0.2,0.5,0.5,3.1,0.6c0.3,0.3,0.2-0.1,0.2,0.6l1.6,0.1c0.3,0.5,0.1,0.4,0.7,0.6l1.5,0.6c0.4,0.2,0.2,0.1,0.5,0.3l2.1,1.4l0.1,0.1c1.3,1.5,0.6,0,1.9,1.6l0.1,0.1l0.5,0.5l0.1,0.1l0.1,0.1l0.7,0.6c0.6,0.6,0.2-0.2,0.6,0.9l1.1,1.8c0.1,0.4,0.1,0.3,0.2,0.5l0.7,1.2c0.5,0.9-0.2,0.8,0.8,0.9c0.2,2.7,0.3,1.8,0.6,2.4c0.2,0.5,0.1,0.7,0.2,1.3c0.2,0.9,0.4,0.2,0.5,2.5c0,0.2,0,0.6,0.1,0.6c0.3,1-0.1-0.5,0.3,0.6c0.3,0.6,0.2,1.9,0.2,2.9c0,5.2-0.5,2.1-0.6,5.4c-0.1,2.3-0.4,1.1-0.6,2.4c-0.4,2-0.3,0.7-0.6,1.7C477.2,157.7,477.2,158.1,477.2,158.4L477.2,158.4z M432.8,124.2c1.5,0.1,1,0.3,1.8,0.5c0.6,0.2,1.5,0.1,2,0.3c0.7,0.2,0.3,0.1,0.5,0.2l3.5,2.3c0.3,0.4,0.2-0.5,0.2,0.6c1.5,0.1-0.3,1.6,1,1.8c0.4,10.5,0.1,21.1,0.1,31.6c0,1.1,0,3-0.4,3.7l-0.1,0.3c-0.5,1-0.6,0.9-0.7,2c-0.2,0.1-0.3,0.1-0.4,0.2l-0.2,0.2L440,168l-0.1,0.1l-0.1,0.1l-0.6,0.6c-0.5,0.5,0,0.4-1,0.6c-1.3,0.3-0.6,0.5-1.8,0.6c-1.6,0.2-3.5,0.2-5.2,0.1c-0.6-0.1-2.6-0.9-3.2-1.4l-0.6-0.4c-1.6-0.6-0.7-1.1-2.7-1.4c-0.1-0.9-0.1-0.5-0.6-0.9l-0.1-0.1l-1-0.9c-0.5-0.5-0.6-0.4-1.1-0.6l-0.5-0.3l-0.1-0.1c-0.4-0.3-0.1-0.1-0.5-0.4l-0.5-0.5c-0.1-0.2-0.1-0.1-0.3-0.3l-0.2-0.2l-0.1-0.1l-0.3-0.3l-0.1-0.1l-1.7-1.5c-0.3-0.3-0.1-0.4-0.6-0.4c-0.1-1,0-0.3-0.5-0.7l-0.1-0.1l-2.3-2.3L414,157l-0.1-0.1l-0.2-0.2l-0.1-0.1l-0.1-0.1l-0.1-0.1l-0.6-0.6l-0.1-0.1c-0.1-0.1-0.1-0.2-0.2-0.2l-4.3-4.9c0,0-0.2-0.1-0.2-0.2l-1.4-1.4c0,0-0.2-0.1-0.2-0.2l-0.1-0.1l-0.1-0.1c-0.1-0.1-0.3-0.2-0.4-0.2v-1.1l2.4-0.6c0.9-0.3,1.2-0.6,2.4-0.6l0.8-0.9c1-0.6,1,0.3,1-0.9c1.1-0.1,0.3,0,0.6-0.3l0.1-0.1l1-0.9l0.1-0.1l2.4-3.2c0-0.1,0.1-0.2,0.1-0.3s0-0.1,0-0.2c0,0,0-0.1,0.1-0.1l0.1-0.2c0.3-0.6,0,0.6,0.3-0.6c0-0.1,0.1-0.6,0.1-0.6c0-0.6,0-1.1,0.1-1.6c0.2-0.1-0.2-0.2,0.6-0.2v-3.2c-0.7,0-0.4,0-0.6-0.2l-0.2-2.8c-1-0.2-0.1-0.3-0.8-1.3l-0.2-0.2l-0.1-0.1l-0.4-0.4l-0.1-0.1l-1-1.1l-0.1-0.1l-0.1-0.1l-0.5-0.5l-0.1-0.1c-0.3-0.3-0.3,0.5-0.4-0.6l-1.7-0.8l-0.1-0.1l-2.3-0.8c-1.5-0.2-0.2-0.3-1.2-0.6c-1-0.2-1.2,0.2-2-0.5c-1-0.8-4.5,0-5.8-0.6c-1-0.6,0.5,0.1-0.3-0.2c-0.9-0.3-5.7-0.1-6.5-0.1c-1.8,0-0.4,0.3-1.6,0.5c-1.3,0.2-4.5,0-6,0c-2.7,0-5.3,0.1-8,0.1l0.1,2.5c1,0,2.1,0,3.1,0c0.9,0.1,1.9,0.6,2.2,1.6l0.6,1.4c0.4,1.2,0.2,2.7,0.2,3.9l-0.1,40.7h18.4c0-0.3,0-0.7,0-0.9l-0.1-0.6c0-0.1,0-0.1-0.1-0.2c-0.6-0.2-0.8-0.1-1.3-0.2c-0.6-0.2,0.1-0.2-0.6-0.5c-0.5-0.2-0.9-0.1-1.4-0.2c-1.1-0.3,0.3-0.1-0.7-0.4c-0.4-0.1-0.9-0.1-1.3-0.1l-1.8-0.6c-0.7-0.5,0.5-0.4-0.7-0.5c-0.1-1.3-0.1,0-0.6-1.1c-0.1-0.2-0.1-0.3-0.2-0.6l-0.1-0.3c-0.6-1.1-0.5-3-0.5-4.3l0.2-37c0.8-0.1,3.1-0.2,3.9,0.1c0,0,0.1,0,0.1,0.1l0.2,0.1c0.2,0.1-0.1,0,0.4,0.2c0.6,0.2,1.5,0,2,0.3l0.2,0.1c0.6,0.3,0.8,0,1.5,0.5s0.8,0.4,1.5,0.8l0.1,0.1l0.6,0.5c0.9,0.6,1-0.1,1.1,0.8c0.7,0.1,0.5,0.3,1,0.7c1.4,1.4,0.4,0.7,1.1,1.6l0.1,0.1l0.3,0.4c0.4,0.6,0.6,1.3,0.6,2.1c0,1.7,0.5,0.6,0.5,1.9l-0.3,1.8c-0.3,0.6-0.2,1.2-0.6,1.8l-0.2,0.2c-0.3,0.5-0.3,0.8-0.6,1.1c-0.8,0.7-0.7,1.2-1.3,1.8c-0.6,0.6,0.3,0.4-0.7,0.5c-0.1,0.9-0.5,0.4-1.2,1l-1.2,1c-0.5,0.6-1.5,0.8-2.2,1.2l-0.6,0.3c-0.6,0.2-1,0.1-1.5,0.3c-1,0.3,0.4,0.5-2.9,0.6c0.2,1.1-0.1-0.1,0.3,0.7c0.8,1.8,0.8,0.6,0.9,1.7c1.1,0.1,0.2,0.4,1,1.3l1.6,1.8c0.4,0.6,0.4,0.8,0.8,1.3c0.9,0.7,0.4,1,1.3,1.1c0.1,1.1,0,0.1,0.3,0.6c0.6,0.9,0.5,1.2,1.3,2c0.6,0.6,1.2,1.1,1.7,1.8c0.5,0.9,0.5-0.2,0.6,1c0.8,0.1,0.3,0,0.7,0.6l3.3,3.2l0.1,0.1c0.5,0.5,1,0.6,1.5,0.9l0.1,0.1c0.2,0.2,0.4,0.1,0.4,0.6h0.6c0.1,1.2,0.4-0.1,1.4,1.2c0.5,0.6,0,0.6,1,0.6c0.1,0.8-0.2,0.4,0.6,0.6c1.1,0.4,1.8,1.2,2.8,1.7c1.1,0.5,0.3-0.1,0.9,0.4c0.4,0.3,2.4,1.5,3,1.6s1.2,0,1.8,0.3l0.1,0.1l1.8,0.3c1.3,0.1,0.5,0.2,0.9,0.3c1,0.5,27.9,0.2,31.3,0.2c3.7,0,1.7-0.3,3.1-0.5c1.6-0.1,4.2,0.3,5.6-0.1c0.4-0.1,0.2-0.1,0.5-0.2c0.6-0.4,1.7-0.2,2.3-0.6l0.1-0.1c0.5-0.3,1.1-0.2,1.7-0.3c0.6-0.7,0-0.6,1.4-0.6c0-0.6,0-0.4,0.2-0.6l1-0.3l0.1-0.1l0.1-0.1c0,0,0.1,0,0.1-0.1c0.2-0.1,0.4-0.1,0.6-0.3c0.8-0.4,1.3-0.9,2-1.1c0.4-0.1,0.4-0.1,0.6-0.1c0.1-0.8,0.6-0.6,1.5-1.2l1.7-1.5l0.1-0.1l1.5-1.4c0.6-0.6,1.1-1.2,1.7-1.8l0.3-0.3c0.6-0.6,0.6-0.4,0.9-1.1c0.5-1,0.4,0.2,0.5-0.9h0.6c0-1-0.1-0.7,0.4-1.4c0.5-0.6,0.1-0.3,0.7-0.7c0.1-0.6,0.1-1,0.3-1.4l0.1-0.1l0.2-0.2l0.1-0.1c0.5-0.6,0.6-0.3,0.7-1.4c0.4-2.6,0.3-1.5,0.6-2.2c0.4-0.9,0.2-4.6,0.2-5.9c0-6-0.4-4.2-0.6-5.7c-0.1-0.6-0.1-1.3-0.2-1.8c-0.3-0.7,0.1,0.3-0.4-0.4c-0.3-0.5-0.2-0.6-0.4-1.2l-1.5-2.9c-0.9-2.1-1.5-1.7-2.2-2.7l-0.1-0.2c-0.5-1,0.2-0.7-0.7-0.8c0-1.3-0.4-0.4-1.3-1.3l-0.9-0.8l-0.1-0.1l-0.2-0.2c-0.9-0.6-0.9,0.2-1-0.7c-1.2-0.1-0.2-0.2-1.1-0.6c-1.2-0.5-0.2,0.1-0.8-0.7c-0.4,0-0.5,0-0.8-0.2c0,0-0.1,0-0.1-0.1l-0.1-0.1l-0.1-0.1l-0.1-0.1l-1.1-0.5c-0.3-0.1,0.3-0.1-0.6-0.3c-1.8-0.4-1-0.4-1.5-0.6c-0.6-0.2-1.6-0.2-1.9-0.4c-0.6-0.3,0.5,0-0.5-0.3c-0.6-0.2-0.8,0-1.5-0.2c-0.5-0.2,0.3-0.3-0.9-0.4c-0.6-0.1-1.6,0.1-2.1-0.3l-0.4-0.3c-1-0.5-3-0.2-4.3-0.3c-1.4-0.1-0.6-0.2-1-0.4c-1-0.5-20.4-0.1-23.9-0.1c-1.5,0-1.3,0.3-2.5,0.5c-0.3,0-0.6,0-0.8,0L432.8,124.2L432.8,124.2z"/><path fill="#FFFFFF" d="M242.2,124.2l1.8,0.5c0.7,0.3,2.2,0.3,2.4,1.3c1.3,0.2,0.2,0.1,0.6,0.5c0.4,0.3-0.6,0.2,0.6,0.2l-0.1,1.8c-0.6,0-0.4-0.1-0.6,0.2l-0.2,1.8c-0.9,0.2-0.2-0.2-0.6,0.7l-2.7,4.7c-0.4,0.5-0.3-0.6-0.4,0.7c-0.9,0.1-0.4,0.7-1,1.5c-0.8,0.9-0.4,0.5-0.9,1.5c-0.2,0.3-0.4,0.6-0.5,1.2c-2.2,0.2-1-0.4-2.6-2.1c-0.4-0.4-0.4-0.9-0.6-1.4c-0.1-0.1-0.1-0.1-0.3-0.3c-0.9-1-0.3-0.3-0.9-1.4l-0.4-0.4l-0.1-0.1l-0.6-1c-1-1.3-0.5-1.8-1.4-1.8c-0.1-1.2-0.1-0.4-0.3-0.6c-0.4-0.6-0.6-1.3-1.2-1.8l-0.1-0.1c-0.6-0.6,0-1.1-0.9-1.1c-0.1-1.1-0.1-0.1-0.6-1.4l-0.4-0.6c-0.5-0.6,0.2-0.5-0.6-0.6c0-0.6,0-0.4-0.2-0.7c-0.5-0.9-0.7-1.2-1.3-1.8l-0.5-0.7c-0.2-0.4-0.1-0.3-0.4-0.6c-0.3-0.2-0.1-0.2-0.5-0.3h-16c-0.2,2.3-0.5,2.8,2,3c0.5,0,1.1,0,1.6,0.1c0.8,0.2,0.5,0.1,0.6,0.3l1.6,0.7c1.1,0.5,0.6,0.5,1.6,0.9l0.5,0.3c0.4,0.3,0.6,0.4,0.7,0.8c1.1,0.1,0.4,0,0.9,0.6l0.1,0.1l0.1,0.1c0.5,0.5-0.1-0.1,0.3,0.3c0.2,0.2-0.3-0.2,0.2,0.2l0.5,0.4c0.5,0.4,0.4-0.5,0.5,0.8c0.6,0.1,0.5,0.1,1.3,1l0.1,0.1c0.4,0.5,0.3-0.4,0.4,0.7c1.1,0.1,0,0.4,1.6,1.9l2.2,3.9l0.1,0.1c0.3,0.5,0.3,0.1,0.4,0.8c0.7,0.1,0.6,0.2,0.6,1.1l0.7,0.2l0.3,1.1c0.5,0.8,0.1,1.1,0.9,1.2c0.1,1,0.2,0.4,0.4,0.9l2.9,4.5c0.3,0.4,0.3,0.6,0.3,1.2c-0.6,0.4-0.2,0-0.6,0.5l-1.5,2l-0.1,0.1l-0.5,0.7l-0.1,0.1l-0.1,0.1c0,0,0,0.1-0.1,0.1l-2,3L229,156c-0.9,0.9-0.6,0.9-1.2,1.8l-0.3,0.3l-0.1,0.1l-0.3,0.3c-0.6,0.6,0.1-0.4-0.2,0.3c-0.2,0.4-0.2,0.6-0.3,0.9c-0.3,0.6-0.3-0.6-0.4,0.7c-1,0.1-0.1-0.1-0.7,0.5l-1.6,2l-0.1,0.1l-1,1.5c0,0-0.1,0.2-0.2,0.2c-0.5,0.5,0.2,0.4-0.7,0.5c-0.1,0.9-0.1,0.4-0.7,0.9l-0.1,0.1l-2.6,2.1c0,0-0.1,0-0.1,0.1l-0.1,0.1l-1.2,0.4c-0.9,0.3-0.4,0.3-1.2,0.6l-0.6,0.3c-0.5,0.2,0.4,0.1-0.7,0.3c-2.9,0.4-3-0.5-3,0.7h-1.3l0.1,2.3h17.3c1.1,0,3.4,0.3,4.4-0.3l0.1-0.1c0.4-0.2-0.4-0.1,0.5-0.2v-1.7l-2.8-1c-0.7-0.4-1.1-0.3-1.7-0.9l-0.6-0.6c-0.6-0.6-0.6-0.3-0.5-2.4c0-1.5,0.4-1.1,0.6-1.8l0.3-1.2c0.3-0.6,0.8-1,1.2-1.6l0.1-0.2l0.1-0.1l0.6-0.6c0.3-0.5,0,0.1,0.3-0.6l0.6-1.1c0.5-1,0.6-0.5,0.7-1.4c0.6-0.1,1-0.6,1.3-1l0.1-0.1l0.1-0.1l0.4-0.8c0.2-0.5,0-0.1,0.3-0.5l0.8-1.1c0.4-0.9-0.1-0.2,0.5-0.7l0.1-0.1l0.4-0.4l0.1-0.1l0.1-0.1l0.3-0.4c0.4-0.4,0.6,0.1,0.9,0.6c0.4,0.6,1.4,2.2,1.5,2.8c1,0.1,0.2,0.2,0.7,1.2c0,0.1,0.1,0.2,0.2,0.3c0.4,0.4,0.3,0.5,0.9,0.5c0.1,1.3,0.2,0.8,0.5,1.3c0.6,1-0.2,0.9,0.7,1c0.1,1.2,0.1,0.1,0.6,1.2c0.4,0.8,0.5,0.3,0.6,1.3c0.7,0.1,0.6,0.2,0.6,1.2l0.4,0.2c1.5,1.1,0.4,1.6,1.5,1.7c0.1,1.3,0.1,0.3,0.4,0.8l0.7,1.4c0.3,0.5,0.2,0.3,0.2,0.8c0.6,0.1,0.2,0.1,0.6,0.4l1.6,2.2c0.5,0.8-0.1,1,0.8,1.1c0.1,0.7,0.1,0.7,0.6,0.9c0.7,0.3,48.3,0.1,49.1,0.1c0.5-0.6-0.3-0.4,0.7-0.5l-0.1-1.7l-2.4-0.2c0-0.9,0-0.4-0.2-0.6c-0.6,0-1.5,0-2-0.2c-0.8-0.4,0.5-0.1-0.6-0.4c-0.7-0.2-1.4,0-2-0.5c-0.8-0.6-1-0.7-1.1-1.4h-0.6l-0.2-2c-0.2-0.7-0.2,0-0.4-0.7c0-0.2-0.1-0.5-0.1-0.6c-0.3-4.4,0-10.8,0-15.4h6.5c0.5,0,0.9,0,1.4,0c0.8,0,0.9,0.2,1.4,0.4l0.7,0.3c0.6,0.3,0.6,0.7,0.9,1.2c0,0,0,0.1,0.1,0.1c0,0,0,0.1,0.1,0.1l0.1,0.1l0.4,1.4l0.6,0.1l0.1,4.2h2.2V144c-0.9-0.2-2.4-0.1-3.1,0.2c-0.6,0.4-2.9,0.2-3.9,0.2c-2.5,0-5.1,0-7.6,0c-0.3-5.3-0.1-11.4-0.1-16.8l0.1-2.5h7c0.3,0,0.8,0,1,0c1,0.2,0.2,0.3,0.9,0.5h1.4c5.4,0.1,2.2,0.6,5.3,0.6c0.4,0.6,0.9,0.7,1.5,1.1c0.2,0.1,0,0.2,0.5,0.3c0.1,0.5,0.2,0.5,0.4,0.7c0.9,0.9,0.4,0.4,0.9,1.3c0.2,0.3,0.3,0.2,0.6,0.5c0.1,1.8,0.3,0.5,0.6,1.6c0.1,0.5,0.1,1.3,0.1,1.8h2.2c0.1-0.6,0-5.4-0.1-6.1c-0.2-0.9-0.3,0.3-0.4-1.1l-0.1-4.3h-39.4l0.1,2.2c1,0.1,2.7-0.1,3.5,0.4l0.1,0.1l1.1,0.3c0.2,0,0.3,0,0.5,0.1c0.4,0.1,0.2,0.1,0.4,0.2l2,1.4c0.5,0.5,0.4,0.5,0.7,1.2c0.3,0.6,0.1-0.5,0.4,0.7c0.1,0.6,0,1.6,0.1,2s0.1,0.2,0.2,0.4l0.1,0.2c0.4,0.8,0.2,30.3,0.1,30.4c-0.1,0.3-0.2,0.3-0.2,0.4l-0.1,0.1c-0.4,0.6-0.1,1.7-0.5,2.4c-0.2,0.4,0-0.1-0.3,0.6c-0.3,0.7-0.6,0.7-0.7,1.1l-1.2,1.7c-0.4,0.4-0.7,0.4-1.2,0.6c-0.8,0.5-1,0.2-1.6,0.9c-2.2,0.1-1.9,0.6-3.1,0.6c-1.9,0.1-7.8,0.4-9.5,0c-1.3-0.3,0.3-0.3-1.4-0.6l-1.8-0.7c-0.7-0.4,0.2-0.4-0.9-0.5c-0.1-0.9,0.1-0.2-0.4-0.6l-0.1-0.1l-2.8-2.3c-0.4-0.4-0.5-1-0.9-1.4l-0.1-0.1l-1.8-2.4l-0.3-0.3l-0.8-1.3c-0.1-0.2-0.2,0.4-0.2-0.7c-1-0.1-0.2,0-0.6-0.8c-0.4-0.6-0.9-0.6-1.3-1.5l-1.4-2.4c0,0-0.1-0.2-0.2-0.2l-0.6-1.1c-0.6-0.6,0-0.2-0.7-0.6c-0.1-1,0.1-1.1-0.6-1.2c-0.1-1.2-0.1-0.3-0.3-0.6l-0.5-0.9c-0.3-0.6-0.3,0.4-0.5-0.9c-0.9-0.1-0.2-0.2-0.7-1.1c-0.3-0.5-0.5-0.6-0.6-1.2c-0.9-0.1-0.5-0.2-1.3-1.2l-0.1-0.1l-0.2-0.2c-0.5-0.7-0.2-1.5,0.2-1.9c0.6-0.7,0.6-1,1-1.6l0.1-0.1c0.3-0.4,0.2-0.5,0.4-0.8c0,0,0-0.1,0.1-0.1l0.6-0.7l0.1-0.1l0.1-0.1c0.2-0.4,0-0.1,0.2-0.5c0.3-0.7,0.9-0.8,1.1-1.7c0.3-0.9-0.3-0.7,0.6-0.8c0.1-0.6,0.1-0.4,0.3-0.6c0.5-0.6,0.6-1,1.1-1.6l0.1-0.1l0.6-0.7c0.8-1.2,0.2-0.7,1.5-2c0.6-0.6,0.9-0.7,0.9-1.7c0.5-0.1,0.4-0.1,0.5-0.3l0.4-0.4l0.1-0.1l0.1-0.1c0.2-0.2,0.1-0.2,0.2-0.3c0.1-0.1,0.2-0.2,0.4-0.3c0.1-0.1,0.2-0.2,0.3-0.3c0.6-0.6,1.4-0.9,1.9-1.2l1.8-0.9c0,0,0.1,0,0.1-0.1l0.2-0.1c0.6-0.3-0.2-0.2,1.3-0.4c1.1-0.2,0.6-0.5,1.7-0.6l3.8-0.6l-0.1-2.3c-5.4-0.1-16.3-0.2-21.7,0L242.2,124.2L242.2,124.2z"/><path fill="#FFFFFF" d="M167.4,127.4c0.8-0.1,0.6-0.2,0.9-0.6l1.9-1.5l0.1-0.1c0.9-0.6,1.4-0.6,2.3-1l0.1-0.1l0.3-0.2c0.6-0.2,1,0,1.6-0.3c0.8-0.4-0.4,0,0.6-0.3c1.1-0.3,6.5-0.3,7.5,0c1.2,0.3-0.3,0.3,1.4,0.5l2.7,1.1c0.3,0.2,0.5,0.2,0.7,0.3l1.8,1.1c0.3,0.2,0,0,0.3,0.3l0.1,0.1l0.1,0.1c1.2,1.3,0.9,1.2,1.6,1.3c0.1,1.1,0,0.3,0.4,0.6c0.6,0.6,0.8,0.6,0.9,1.8c0.7,0,0.6,0.3,0.9,0.6l1.1,1.7c0.6,1,0.2,0.7,0.6,1.5l0.6,1.1c0.4,0.6,0.3,0.5,0.5,1.3c0.3,1.4,0.2-0.2,0.7,1.9c0.4,1.5,0.5-0.2,0.6,3.5c0,0.4,0,1.1,0,1.4c0.1,0.7,0,0.2,0.2,0.5c0.6,1.3,0.3,6.8,0.3,8.5c-0.1,2.2-0.3,1.5-0.5,2.5c-0.1,0.5,0,1.1-0.1,1.6c-0.1,1.5-0.5,0-0.6,3.7c-0.9,0.5-0.3-0.1-1,1.7c-0.1,0.2-0.1,0.2-0.2,0.4l-1.1,2.3c-0.6,1.1-0.6,0.6-0.6,1.4c-1.1,0.1,0,0.3-1.3,1.4c-0.6,0.6,0.2-0.2-0.2,0.2l-0.2,0.2l-0.1,0.1c-0.4,0.5-1.1,0.6-1.4,0.9c-1.1,0.9-2.2,1-3.2,1.8l-1.2,0.6c-0.8,0.4-2,0.3-3,0.4c-1.8,0.1-0.3,0.5-1.8,0.5c-1,0-2.7,0.3-3.5-0.2l-0.5-0.3c-0.6-0.3-1.3-0.1-1.9-0.4l-0.1-0.1l-0.1-0.1c-0.5-0.3-1.3-0.3-1.8-0.3c0-1-0.4-0.5-1.3-1l-2-1.3c0,0-0.1-0.2-0.2-0.2c-0.2-0.2-0.2,0-0.3-0.5c-1.1-0.1-0.2,0.1-0.6-0.4l-0.7-0.8c-0.3-0.3-0.3-0.2-0.4-0.6h-0.6c-0.1-1,0-0.4-0.5-0.7l-0.2-0.2l-0.1-0.1l-2.6-4.4c-0.2-0.3-0.1,0.2-0.3-0.6c-0.1-0.3,0-0.4,0-0.6h-0.6c0-0.3,0-0.6-0.1-0.9c-0.1-0.4-0.1-0.2-0.3-0.5c-0.4-0.6-0.2-1.7-0.5-2.5c-0.3-1-0.2,0.3-0.4-0.9c-0.1-0.6,0-1.2-0.3-1.8l-0.1-0.1c-0.4-0.7-0.5-10.8,0-11.6s0.2-2,0.6-3c0.3-0.6,0.3-1.8,0.6-2.3c0.2-0.4,0,0.5,0.2-0.5c0.1-0.3,0-0.5,0.1-0.7h0.6c0-0.6,0-0.8,0.2-1.2c0.4-0.6,0.1,0.4,0.5-0.7c0.4-1.3,0.7-1.2,1.1-1.9l0.6-1.1C167.1,127.6,167.4,128.4,167.4,127.4L167.4,127.4z M151,141.9v10.2c0.8,0.1,0.6-0.2,0.6,1.8c0,1.7,0.4,0.6,0.6,2.3l0.3,0.7c0.3,0.4,0.1-0.1,0.4,0.6l0.6,1.4c0.4,1.2,1,2.2,1.8,3.4l0.4,0.6c0.1,0.3,0.1,0.5,0.1,0.7c1,0.2,1.6,1.5,2.3,2.1l3.6,3.4c1.3,0.6,1.3,0.6,1.4,1.3c1,0,0.9,0.2,1.3,0.4l2.7,1.3c1.2,0.5,0.6-0.2,1.1,0.6c0.4,0,0.9,0,1.2,0.1c1,0.4-0.2,0.5,2.9,0.6l0.1,0.6c4.9,0.2,9.4,0.2,14.3,0v-0.6c1.6-0.1,1.5-0.3,2.2-0.5c1.4-0.4,0.9,0.4,1.8-0.6c1.6-0.1,1.9-0.6,3.2-1.1l1-0.6c0.4-0.2,0.1,0,0.4-0.2c0.5-0.2,0.4-0.1,0.6-0.4c1.2-1.1,1.2-0.6,3-2.3l0.4-0.4l0.1-0.1l1.9-1.8c0.1-0.1,0.2-0.2,0.3-0.3l1.3-1.3c0.3-0.4,0,0.1,0.2-0.4c0.3-0.6,0.2-0.6,0.6-1l0.3-0.3c0.6-0.6,0-0.1,0.8-1.3l1.2-2.6c0.4-0.6,0.3-1.1,0.6-1.9c0.3-0.6,0.3-1.2,0.3-1.8l0.6-0.2c0-1-0.1-3.8,0.3-4.6c0.2-0.5,0.4,0.3,0.3-2.3c0-3.6-0.3-2.1-0.5-3.1c-0.1-0.8-0.1-2.8-0.1-3.7c-0.3-0.2,0.4-0.2-0.6-0.2c0-0.5,0-1.7-0.2-2c0-0.1-0.3-0.3-0.5-1.5c-0.3-1.6-0.3,0.1-0.6-1.5l-3.3-5.3c-0.5-0.6,0.1,0.3-0.2-0.3l-0.6-1.2l-0.1-0.1l-0.4-0.3l-0.1-0.1l-3-2.5c-0.8-0.7-1.7-1.1-2.4-1.7c0,0-0.2-0.1-0.2-0.2c-0.2-0.1,0.1,0-0.4-0.2c-1.7-0.7-1.6-0.5-2-1.4c-0.3,0-0.7,0-1.1-0.1c-1-0.2-0.4-0.2-0.8-0.4l-0.8-0.3l-0.1-0.1c-0.6-0.3-0.9-0.3-1.8-0.4c-0.2,0-0.7,0-0.8-0.1c-0.8-0.2-0.2-0.1-0.6-0.3c-0.9-0.5-2.3-0.4-3.3-0.4c-0.6,0-1.3,0.1-1.8-0.1c-0.8-0.3-2.1-0.5-3.4-0.3c-1.1,0.2-0.1,0-0.6,0.2c-0.4,0.1-0.2,0.1-0.7,0.1c-1.1,0.1-3.4-0.2-4.4,0.4c-0.6,0.3,0.3,0.1-0.6,0.3c-0.4,0.1-1.3,0.1-1.8,0.1c-0.7,0.1-0.6,0.2-1.1,0.5c0,0-0.1,0-0.2,0.1c-1.2,0.4-0.4-0.2-1,0.6c-0.3,0-0.8,0-1.1,0.1c-1.1,0.2-0.3,0-0.6,0.3l-1.2,0.7c-0.1,0,0.1,0-0.4,0.2l-3,1.8c-0.5,0.5-1,0.6-1.5,1l-0.1,0.1l-0.1,0.1l-1.9,1.8l-0.1,0.1c-0.3,0.3-0.1,0.1-0.3,0.3l-3.2,4.5c-0.4,0.5-0.1-0.1-0.4,0.6c-0.4,0.9-1.1,1.9-1.2,2.6c-0.1,0.4-0.1,1.3-0.2,1.8c-0.6,0.3-0.6,0.6-0.8,1.2c-0.2,0.4-0.1-0.1-0.3,0.4C151.2,140.7,152.2,141.9,151,141.9L151,141.9z"/><path fill="#FFFFFF" d="M335.1,126c0.1-0.9-0.2-0.3,0.7-0.6l1.3-0.7l0.2-0.1l0.1-0.1l1.1-0.4c0.4-0.2-0.3-0.3,1-0.4c0.4,0,0.8,0,1.1-0.1c0.6-0.3-0.2,0,0.4-0.3c1-0.5,3.7-0.2,4.8-0.2c2.1,0,1.6,0.3,2,0.5c0.6,0.2,1.4,0,2,0.3s-0.5,0.1,0.8,0.4c0.5,0.1,0.6,0.1,1.1,0.4l0.1,0.1c0.4,0.3,0.6,0.6,1,0.7c0.2,0.1,0.3,0.1,0.6,0.2l2.1,1.8c0,0,0.1,0,0.1,0.1l0.6,0.4c1.6,1.1,0.7,1.7,1.8,1.8c0,0.8,0,0.6,0.5,0.9l0.1,0.1l0.6,0.6c0.1,0.2,0.1,0.3,0.2,0.6c0.2,0.3,0.1,0.2,0.3,0.5l0.2,0.2l0.2,0.2c0.6,0.5,0.8,1.6,1.2,2.3c0.2,0.4,0.4,0.5,0.5,0.9c0.2,1.2,0.4,0.8,0.5,1.5c0,0.1,0.1,0.6,0.1,0.6c0,0.5,0,1,0.1,1.5l0.3,0.7c0.6,1,0.4,2.9,0.4,4.1c0,1.7,0.5,0.9,0.5,2.1c0,1.2,0.2,3.3,0,4.3c-0.2,0.8-0.3-0.1-0.4,0.9c-0.3,1.6,0.2,3.7-0.3,5.3c-0.3,1-0.5,0.3-0.6,2.9c-0.9,0.2,0,0.4-0.9,2c-0.2,0.3-0.1,0.3-0.3,0.6l-0.1,0.2l-0.1,0.1c-0.3,0.4-0.3,0.8-0.3,1.4c-1.6,0.1,0.2,1-1.3,1.1c-0.1,1.2-0.2,0.3-0.6,1c-0.6,1-0.4,1.4-1.2,1.4c-0.1,1-0.6,0.4-1.5,1.1L356,169l-0.2,0.2c-1.7,1.6-1.9,0.4-1.9,1.6c-0.3,0-0.7,0.1-1,0.1c-0.1,0-0.4,0.1-0.5,0.1c-0.8,0.3,0.2,0.3-1,0.5l-1.1,0.3c-1,0.6-6,0.5-7.4,0.3c-0.6-0.1-0.5-0.4-1.3-0.6c-0.8-0.2-1.3-0.6-2.2-0.6l-0.2-0.6l-1.8-0.6c-0.4-0.2-0.2,0-0.5-0.3l-0.1-0.1l-0.2-0.2c-0.9-1-1.3-0.2-1.4-1.2c-1,0-0.6-0.1-1-0.6c-0.7-0.9-0.8-0.6-0.9-1.4c-0.9-0.1-0.3,0.2-0.6-0.6l-0.4-0.6l-0.1-0.1l-1-0.9l-0.3-0.1c-0.1-1.2-0.3-1-0.7-2l-1.7-4c-0.3-1.4-0.1,0.1-0.5-1c-0.1-0.4,0-0.9-0.1-1.5c-0.3-1.3,0.2-0.1-0.6-0.8l-0.1-8.3c0-7.7,0.6-4.9,0.8-6.9c0.1-0.4,0-0.8,0.1-1.3c0.3-1,0.2,0.4,0.5-0.9c0.3-1.5,0.3-0.9,0.6-1.6l0.9-2.6c0.3-0.4,0.4-1,0.7-1.4c0.6-0.6,0.6-0.4,0.9-1.2s1-0.8,1.1-1.8h0.6c0.2-1-0.1-0.1,0.5-0.6l0.5-0.4C334.5,126.2,334,126.1,335.1,126L335.1,126z M316.9,149.4c0,0.2,0.1,0.9,0.1,1c0.2,1.2,0.1,0.1,0.3,0.9c0.2,0.7,0.1,1.3,0.2,2c0.2,1.4,0.2,0.5,0.4,0.9c0.2,0.3,0.2,0.6,0.2,1c0.1,1.8-0.2,1.7,0.6,1.8c0.1,1.5,0.4,0.8,0.6,1.8l0.6,1.7c0.3,0.7-0.3,0.6,0.7,0.6c0.1,1.3,0.1,0.3,0.4,0.8c0.2,0.4,0.1,0.2,0.3,0.6c0.4,1,0.5-0.1,0.6,1.1c0.7,0.1,0.7,0.2,1.1,1c0.3,0.7,0.5,0.6,1,1.1l1,1.1c0.5,0.5-0.3-0.1,0.3,0.2c0.6,0.4,0.7-0.2,0.8,0.7c1.1,0.1,0.2-0.2,0.8,0.5c0,0,0.2,0.2,0.3,0.3c0.2,0.2,0.2,0.2,0.3,0.3l0.7,0.5c1.5,0.8,1.2,1,1.9,1.4c0.7,0.5,0.6,0.6,1.5,0.7c1.3,0.2,0.7,0.4,1.8,0.6c1.8,0.5,0.8,0.3,1.7,0.6c0.3,0.1,0.6,0.1,1,0.2c0.9,0.3-0.3,0.5,2.9,0.6c0,0.8-0.2,0.6,0.7,0.6c3.3,0.3,7.6,0.1,10.9,0c1.9-0.1,2.2,0.3,2.2-0.6c0.6,0,1.4,0,1.8-0.1c0.9-0.1,0.3,0,0.6-0.2c2.2-1.4,1.4-0.5,3.3-1.4c0,0,0.1,0,0.1-0.1l1.7-0.7c0,0,0.1,0,0.1-0.1l1.1-0.6c1.1-0.6-0.9,0.7,0.5-0.4c0.2-0.2,0-0.2,0.6-0.3c0.1-0.9-0.2-0.1,0.6-0.6c0.6-0.5,1.1-0.6,1.7-1.1l0.5-0.5l0.1-0.1l0.6-0.5c0.4-0.4,0,0,0.3-0.4c0.1-0.2,0-0.1,0.2-0.3l0.1-0.1l0.1-0.1l0.9-0.8c0.7-0.6,0.8-0.8,1.4-1.8l0.8-1.1l0.1-0.1l1.2-2c0.1-0.3,0-0.2,0.1-0.4c0.2-0.4,0.3-0.3,0.6-0.5l0.9-2.9c0.4-0.6,0.2-1.9,0.4-2.7c0.1-0.5,0-0.1,0.2-0.5c0.1-0.1,0.1,0.2,0.2-0.5c0.3-1.5,0.1-7.7,0.1-9.7l-0.3-1.9c-0.4-0.6-0.1-2.1-0.6-3c-0.4-0.6-0.2-1.1-0.5-1.8l-0.5-0.9c-0.4-1-0.1-0.2-0.5-0.7l-0.5-0.8l-0.1-0.1l-0.4-0.9c-0.2-0.6-0.3-0.6-0.6-0.9l-0.1-0.1l-0.4-0.5c-0.1-0.3-0.1-0.3-0.2-0.5c-0.4-0.7-0.2-0.7-0.9-0.8c0-1.4-0.3-0.3-0.7-1.2c-0.5-0.8-0.6-0.4-0.7-1.1h-0.6c-0.1-1.3-0.4,0-1.4-1.3c-0.5-0.6,0-0.7-1-0.7c-0.1-0.9-0.3-0.5-1.5-1.2l-0.1-0.1l-2.5-1.5c-1-0.4-1.2,0.1-1.3-0.8c-0.5,0-0.6,0-0.9-0.2l-0.1-0.1l-1.4-0.6c-0.8-0.4,0.3-0.1-0.6-0.3c-0.5-0.2-1.5-0.1-2-0.2c-1.3-0.3,0.3-0.3-1.4-0.5c-1.2-0.2-2.7-0.1-3.9-0.2c-1.3-0.1,0.4-0.5-3.3-0.5c-1.6,0-1.3,0.4-3.5,0.5c-4.6,0.2-2.6,0.4-4.2,0.6c-1.5,0.3-0.7,0-1.3,0.4c-0.6,0.4-1.3,0.2-1.9,0.6l-0.6,0.3c-1.4,0.4-0.5-0.1-1.1,0.7c-0.2,0-0.6,0-0.8,0.1l-4,2.4c0,0-0.2,0.1-0.2,0.2l-1.6,1.2c-0.7,0.6-0.2,0.8-1.2,0.9c-0.1,0.8-0.2,0.4-0.7,0.8c0,0-0.1,0.2-0.2,0.2L323,129c-0.4,0.4-0.7,0.6-0.9,1l-0.8,1.5c-1.3,1.6-0.7,1.1-1.3,1.8l-0.6,1.2l-0.1,0.1l-0.1,0.1l-1.8,4.6c0,0-0.1,0.5-0.1,0.6c0,0.5,0,1.1-0.1,1.6c-0.3,1.3-0.2-0.1-0.4,1.2C316.7,144.9,316.9,147.2,316.9,149.4L316.9,149.4z"/><path fill="#FFFFFF" d="M418.3,195.2L418.3,195.2c-0.5-0.3,0.3-0.2-0.6-0.4c-1.4-0.3-10.1-0.1-11.6,0l0.1,1.8l1.8,0.3l0.1,0.1c0.8,0.5,0.8,0.3,1.4,0.9c0.4,0.5-0.1-0.4,0.3,0.3v13.6l-0.8,0.6l-0.1,0.1c-0.7,0.7-1.8,0.6-3.1,0.7v1.7h12.5l-0.1-1.8c-3.1,0-1.8-0.1-3-0.6c-0.2-0.1-0.7-0.1-0.9-0.1c-0.4-4.9-0.2-10.6-0.2-15.7c0.5,0,1.3,0,1.7,0.1l0.8,0.5c0,0,0.1,0,0.1,0.1c0.3,0.1,0.1,0,0.4,0.2l0.1,0.1c0.5,0.3,0.6,0.9,1.3,0.9c0,0.6,0.2,3.2-0.1,3.5l-0.1,0.1l-3,2.3l-0.1,0.1c-0.3,0.3-0.2,0.1-0.4,0.5c0.6,1-0.7-0.9,0.3,0.3l1.7,3l0.1,0.1l0.6,1l0.1,0.1l0.1,0.1l0.1,0.1l0.7,1.4c0.5,0.6,1.2,1,1.8,1.6l2.8,2.1c1,0.6,4.4,0.4,5.9,0.3v-1.3c-0.9,0-1-0.3-1.8-0.6c-0.6-0.3-0.2,0-0.7-0.4l-0.1-0.1l-0.8-0.4l-0.1-0.1l-0.1-0.1c0,0-0.2-0.1-0.2-0.2l-2.1-2.3l-0.1-0.1l-0.2-0.2l-0.1-0.1l-0.6-1c-0.3-0.5-0.7-0.6-1-1.1c-0.6-1.6-0.7-0.6-0.6-2.7c1.1,0,1-0.2,1.7-0.8l0.8-0.6c0.1-1.6,0.4-0.7,0.6-1.8c0.2-0.8,0.2-2.7-0.1-3.4l-1.2-1.1c-0.6-0.5-1.6-1-1.8-1.5C419.4,195.3,418.8,195.3,418.3,195.2L418.3,195.2z"/><path fill="#FFFFFF" d="M191.5,197.4C191.5,197.4,191.4,197.3,191.5,197.4c-0.1-0.1-0.2-0.2-0.2-0.2l-0.2-0.2c-0.8-0.8-0.7-2-1.6-2.3l-6.9,0.1l0.1,1.8c0.4,0,0.9,0,1.3,0.1l1.5,0.6c0.6,0.3,0.6,0.5,1.3,0.5c0.1,0.3,0.1,0.6,0.2,0.8c0.1,0.3,0.4,0.1,0.5,0.6c0.1,0.4,0.1,7.2-0.1,7.9l-0.3,0.6c-0.5,1,0.1,2.6-0.2,3.7c-0.1,0.4-0.6,0.5-0.6,1.5c-0.6,0-1.2,0-1.7,0.3l-1.1,0.6c0,0-0.1,0-0.2,0.1v1.1l11.4-0.1v-1l-0.6-0.6c-1,0-2.5,0.1-3.1-0.6l-0.9-0.9l-0.1-7.4c0-0.7-0.2-1.7,0.3-2.2c0.6,0.4,0.1,0,0.6,0.5l3.8,3.8c0.3,0.3,0,0,0.2,0.3l1.3,1.4l0.1,0.1l2.5,2.5c0.4,0.5,0.5,1,0.8,1.5c0,0,0.2,0.1,0.2,0.2l0.9,0.6c0.4,0.4,0.2,0.2,0.4,0.5l1.1,1.3c0.6,0.5,1.3,0.5,1.9,0.2c0-1.5-0.2-7.9,0.1-8.9c0.5-1.8,0.2-2.4,0.3-4.2c0.1-1.5,0.1-3,0.3-4.2c0.2-0.1,0.5-0.1,0.7-0.3l0.2-0.2l0.1-0.1c0.6-0.4,1.2-0.3,1.8-0.3v-1.8h-10.9l0.1,1.8c0.5,0,1.8,0,2.2,0.1l1.6,0.6c0.8,0.3,0.7,0.8,1.1,1.6c0,0,0,0.1,0.1,0.1l0.4,1c0.1,0.8,0.1,7.6,0,8.1c-0.8,0-0.2,0-0.6-0.3l-1.1-1c0,0-0.1-0.2-0.2-0.2l-5.8-6.3l-0.1-0.1L191.5,197.4L191.5,197.4z"/><path fill="#FFFFFF" d="M284.5,195.3c-0.6,0-1.2,0-1.8-0.3c-0.4-0.2,0.3-0.1-0.6-0.3c-1.4-0.3-10.1-0.1-11.6,0l0.1,1.8c1.9,0.1,2.2,0.3,2.4,0.4l0.2,0.2c0.4,0.4,0.4,0.6,0.6,1l0.3,0.5c0.2,0.3,0.1,0.1,0.1,0.6c0.2,1.7,0,4.2,0,6c0,1.9,0.3,5.2-0.5,6.5c-0.7,1.5-1.9,1.5-3.7,1.6v1.7h12.5l-0.1-1.8l-2.3-0.5c-0.5-0.3-1.5-0.3-1.7-0.8c0-0.1-0.1-0.1-0.2-0.1v-15c0.6,0,1.4-0.1,1.8,0.2c0.5,0.2,1.3,0.6,1.8,1c0.2,0.2,0,0,0.3,0.3l0.4,0.6l0.1,0.1l0.1,0.1c0.3,0.3,0.1,0.1,0.5,0.3c0,0.5,0.1,1,0,1.4c0,1.3-0.1,0.5-0.4,0.9c-0.4,0.6,0.1,0-0.5,1l-0.5,0.8c-1.3,0.2-0.6,0.1-1.1,0.4c-0.5,0.3-1.1,0.3-1.7,0.3c-0.1,0.5-0.1,0.5,0,0.8c0.4,1-0.6-0.9,0.2,0.4c0.6,0.9,0.1,0.6,0.9,1.2c0.2,1.7,0.7,1.2,1.2,2.3l0.6,1.2c0.5,1.3,1.7,1.8,2.6,2.9l0.1,0.1l0.1,0.1l0.7,0.6c0.9,0.4,0.7-0.3,0.7,0.7c3.7,0.2-0.6,0.6,6.7,0.6v-1.4c-0.7,0-0.9-0.1-1.4-0.4L290,212c-0.6-0.6-0.9-0.4-1.6-1l-2.2-2.5c-0.2-0.5-0.1-0.3-0.3-0.6l-0.1-0.1c-1.5-1.7-0.1,0-1.1-1.8l-0.2-0.3c-0.4-0.9,0-1.6,0.8-1.9c0.5-0.2,0.7-0.2,1-0.6l0.5-0.8c0.2-0.7-0.2-0.6,0.7-0.6l-0.1-3.8c-0.8-0.1-0.5-0.5-1-1.1l-1.5-1.1C284.1,195.6,285.1,196.2,284.5,195.3L284.5,195.3z"/><path fill="#FFFFFF" d="M262.6,197.6c0.3,0.1,0.5,0.1,0.7,0.2l0.6,1.4c0.2,0.5,0.2,1.1,0.2,1.7l1.8-0.1v-6h-17l0.1,1.8c0.6,0,1.8,0,2.2,0.3c0.6,0.3-0.5-0.4,0.2,0.2l0.5,0.5c1,1,0.7,2.4,0.7,4.9c0,3.1,0,6.2-0.1,9.3l-0.5,0.4l-0.1,0.1c0,0-0.1,0.2-0.2,0.2l-0.3,0.3c-0.6,0.6-1.1,0.6-2.6,0.6l-0.1,1.8l17.1-0.1c0-0.3,0-0.9,0.1-1.2c0.3-1.3,0-0.1,0.4-0.7c0.3-0.6,0.2-1.1,0.3-1.8c0.3-1.1,0.1,0,0.4-0.9c0.2-0.8,0.1-2.3,0-3l-0.8-0.1c-0.2,0.5,0,0.2-0.2,0.6c-0.3,0.7-0.1,0.2-0.3,0.5l-0.3,0.3c-0.3,0.5,0,0.4-0.5,1.1c-0.6,1-0.1,0.6-1,1.8l-1.2,1.1c0,0-0.1,0-0.1,0.1c-0.9,0.4,0.8-0.3-0.3,0.1c-1.6,0.6,0.1,0.4-1.6,0.6c-0.7,0.1-2,0.1-2.7-0.2c-0.2-0.1,0,0-0.2-0.2l-0.1-0.1l-0.1-0.1l-0.6-0.7c-0.2-0.3-0.1-0.1-0.2-0.6c-0.2-1.3-0.1-4.1,0-5.4c0.8,0,1.8,0,2.7,0c1.6,0.1,0.2,0.4,2,0.6l0.2,1.8c0.8,0,0.6,0.1,0.7,1.2h1l0.1-8.4h-1.2c0,1,0.2,1-0.6,1.1l-0.2,1.4h-4.7l0.1-6.6c0.6,0,1.3,0,1.9,0c2.3,0.1,1.1,0.2,1.9,0.5C261.7,197.6,261.5,197.2,262.6,197.6C262.5,197.6,262.2,197.5,262.6,197.6L262.6,197.6z"/><path fill="#FFFFFF" d="M445.1,200.9h-1.9c-0.1,1.8-0.6,0.6-0.6,2.5h-4.8l0.1-6.5l3-0.1c1,0.2,0.2,0,0.6,0.3c0.7,0.4,1,0.1,1.8,0.3c1.3,0.3-0.4,0.3,1.3,0.6c0.1,1,0.2,0.8,0.4,1.1C445.2,199.6,445.2,200.2,445.1,200.9L445.1,200.9z M445.1,200.9l1.7-0.1v-6.1l-16.9,0.1v1.7c1,0.1,1.6-0.1,2.2,0.4l0.1,0.1l0.1,0.1c0.5,0.3,0.6,0.2,1,0.2c0.1,1.2,0,1.1,0.4,1.8c0.5,0.9,0.3,8.5,0.2,9.8c-0.1,4.2-0.4,1-0.5,3.5c-1,0-0.5-0.1-0.9,0.6c-0.6,0-1.6,0-2.1,0.3c0,0-0.2,0.1-0.2,0.2c-0.5,0.4-0.4,0.5-0.4,1.5h16.8c0-0.4,0-0.7,0.2-1c0,0,0-0.1,0.1-0.1l0.1-0.1l0.1-0.2c0.1-0.1,0.1,0,0.1-0.4c0.1-0.5,0.1-1.8,0.2-2.4h0.6V207c-0.5,0-0.8,0.2-1,0.6l-0.1,0.1L445,211l-0.1,0.1l-2.5,1.8h-3.3c-0.6-0.8-0.3-0.4-0.9-0.9l-0.1-0.1c-0.4-0.5-0.3-0.1-0.4-0.5v-5.7h4c0.6,0.7,0.2,0.2,0.6,0.6l0.1,0.1l0.3,0.4l0.1,0.1l0.1,0.1c0.3,0.6,0.2,1,0.4,2.1h1.1c0.5-0.7,0.6-0.4,0.6-1.5C445,205.9,444.8,202.3,445.1,200.9L445.1,200.9z"/><path fill="#FFFFFF" d="M179.5,196.9c0.2-0.2,0.1-0.2,0.5-0.3c1.5-0.4,1.4,0.2,1.3-1.8H171l0.1,1.8l1.8,0.4l0.1,0.1c0.3,0.3,0.4,0.1,0.5,0.6c0.9,0.1,0.3,0.2,0.7,0.6l0.1,0.1c0.6,0.7,0.3,4.4,0.3,5.9c-0.8,0-0.5-0.1-0.6,0.4c-0.2,1.4,0.3,1.8-0.4,2.9c-0.4,0.7-0.1,2.1-0.5,2.9l-0.6,1.1c-0.4,0.5-0.3-0.6-0.4,0.6c-1,0.1-0.6,0.4-1.7,0.6c-0.5,0.1-1.4,0.1-2,0.1c-2.3,0-2.3,0.2-3.4-0.8c0,0-0.2-0.1-0.2-0.2l-0.8-0.7c-0.2-0.2-0.4-0.6-0.4-1.9H163l-0.1-4.1c-0.1-3.9-0.3-1.8-0.5-3.1c-0.3-1.5-0.1-5.5-0.1-7.3c-2.8-0.1-5.6-0.3-8.5,0v1.8c0.6,0.1,1,0,1.5,0.1c0.5,0.2,0,0.2,0.7,0.4c0.2,0.1,0.6,0.1,0.7,0.1c0.1,1.2,0.1,0.7,0.4,1.2c0.4,0.6,0.2,1.8,0.5,2.2c0.2,0.4,0.4-0.1,0.4,1.6c0,0.7,0.1,1.4,0.1,2.1l0.3,1.8c0.4,1.1,0,2.8,0.3,3.9l0.6,1.5c0.8,0.6,0.3-0.3,0.7,0.8l0.6,0.7c0.3,0.2,0.1,0.1,0.5,0.3l0.8,0.6c1.1,1,1.7,0.5,3,1c1.3,0.6,5.4,0.5,7.1-0.5l0.1-0.1l0.5-0.3c0.8-0.4,0.7,0.3,0.7-0.8c1-0.1,0.1,0,0.6-0.2c0.5-0.3,0.6-0.5,0.8-0.9l0.5-0.7c0.2-0.4,0.1-0.5,0.4-0.8c0.4-0.6,0.3,0.3,0.4-2c0.1-4.5,0.4-2.7,0.6-4.2c0.1-0.6-0.1-1.6,0.1-2.2l0.5-1.8c0.3-1.4,0.2-0.5,0.4-0.8s0.1-0.4,0.2-0.8c0.2-0.3,0.5-0.3,0.6-0.5s0.2-0.6,0.2-0.8L179.5,196.9L179.5,196.9z"/><path fill="#FFFFFF" d="M399.3,195.3c-0.6,0-1.3-0.1-1.9-0.1c-1.3-0.1-0.9,0.1-1.6-0.3c-0.9-0.5-10.6-0.1-11.3-0.1v1.8c0.6,0,1.7,0,2.2,0.3l0.6,0.6l0.1,0.1l0.5,0.5c0.1,1.3,0.1,2.6,0.1,3.9c0,1,0.2,0.6,0.4,1.2v2.1c0,0.9,0.2,2.1-0.1,2.9c-0.5,1.5-0.3,2.2-0.4,4.2c-2.3,0.7-0.2,0.2-1.6,0.6c-0.3,0.1-1.6,0.2-1.9,0.2l0.1,1.8H397l-0.1-1.8c-4.1-0.1-2.3-0.1-3.3-0.6c-0.5-0.2-0.5-0.1-0.9-0.2l-0.3-1.3c-0.6-1.1-0.4-4.7-0.4-6.3c0-2.7,0-5.3,0-8c1.6-0.4,2-0.1,2.7,0.3c0,0,0.1,0,0.1,0.1c0.4,0.1,0.6,0.1,0.9,0.2c1,0.3,1.8,1.6,2.1,1.8c0,0,0.2,0.1,0.3,0.2c0,0.4,0,1,0.1,1.4c0.2,0.7,0.1,0.2,0.2,0.6c0.4,1.1-0.1,0.6-0.3,1.5c-0.1,0.3-0.1,0.9-0.1,1.2l-0.5,0.5c-0.1,0.1-0.1,0.2-0.3,0.3c-1.1,1.3-1.8,0.2-3,1c-0.6,0.4-0.5,0.4-0.5,1.5c2.7,0,2.5,0.2,3.8-0.5c0.5-0.3,0.9-0.3,1.5-0.3c0.6-0.6,0.1-0.3,1-0.6c0.6-0.2,0.2-0.1,0.4-0.2l0.4-0.3l0.1-0.1l0.8-0.9l0.1-0.1l0.1-0.1c0.3-0.3,0.1,0,0.2-0.3l0.6-1.4c0.3-1.2,0.1-3.7-0.8-4.6c-1.4-1.5-1.4-1.6-2.8-1.7L399.3,195.3L399.3,195.3z"/><path fill="#FFFFFF" d="M357.5,199.4c-0.2-0.6-0.6-0.9-1.2-1.1v-0.9c1.1-0.6,0.8-0.6,2.4-0.8v-1.8h-10.3l0.1,1.8c0.5,0.2,0.5,0.1,0.9,0.1c0.2,0,0.3,0,0.5,0.1c0.4,0.1,0.3,0.1,0.4,0.2l2.1,2l0.1,0.1l0.2,0.2l0.1,0.1c0.4,0.5-0.2-0.1,0.3,0.3c0.6,0.6,0.1-0.2,0.6,0.6c0.7,1.5,0.7,0.9,1.2,2l0.5,0.6l0.1,0.1l0.8,1.4c0.5,0.7,0.4-0.1,0.5,1.3l0.7,0.2c0.1,0.7,0.3,1,0.5,1.3c0.2,0.5,0.2,0.9,0.2,1.5c0,1.1,0,2.1,0,3.1c-0.2,0.1-0.3,0.2-0.5,0.4l-2.1,1c-0.8,0.2-0.7,0.5-1.6,0.6v1.3h12.6v-1.4c-1.2,0-0.8-0.2-1.6-0.5l-0.9-0.2c-0.6-0.2-0.9-0.6-1.4-1.1c-0.6-0.8-0.6-5.3-0.2-6l1-1.9c0.6-1-0.4,0.6,0.1-0.2l1.6-2.5c0.4-0.7-0.1-0.4,0.5-0.9l0.2-0.2l0.1-0.1l0.1-0.1l1.2-1.8c0.5-0.5,0.8-0.6,1.4-0.9l0.8-0.5c0.3-0.1,0.9-0.1,1.3-0.1v-1.8h-8.4l0.1,1.8c1.2,0.1,1,0.2,1.3,0.5l0.4,0.3c0,0.2,0,0.5,0,0.6c-0.1,0.4-0.1,0.2-0.2,0.4c-0.2,0.3-0.1-0.4-0.4,0.6l-0.6,1.7c-0.2,0.4,0,0.2-0.2,0.5c-0.2,0.4,0-0.1-0.2,0.3c-0.2,0.4-0.1,0.5-0.3,0.8l-0.1,0.2l-0.1,0.1c0,0-0.1,0.1-0.2,0.4c-0.1,0.3-0.1,0.6-0.2,0.8c-0.2,0-0.6,0.1-0.7,0.1c-0.5-0.1-0.3,0-0.5-0.2c-0.6-0.5-0.6-1.2-0.9-1.8l-0.6-0.8l-0.1-0.1c0,0-0.1-0.2-0.2-0.2L357.5,199.4L357.5,199.4z"/><path fill="#FFFFFF" d="M234.8,216h1.1l0.1-1.3l0.6-0.2c0.1-0.6,0.1-1.1,0.4-1.6l1.3-2.7c0,0,0-0.1,0.1-0.1l0.1-0.3c0.3-0.9,0.4-0.2,0.6-1.6c0.3-1.4,0.6-0.7,0.6-2.1c0.7-0.4,0.5,0,0.8-0.8c0,0,0-0.1,0.1-0.1c0,0,0-0.1,0.1-0.1l0.1-0.1l0.2-0.4c0.1-0.2,0.1-0.2,0.1-0.4c0.1-0.4,0-0.1,0.2-0.4l2.2-4.7c0,0,0-0.1,0.1-0.1l0.7-1.2l2.9-1.5v-1.8h-9.4v1.8c1,0.1,1.6,0.3,2.4,0.8c0.6,0.4-0.3,0.3,0.6,0.4l-0.6,2.6c-0.4,0.9-0.4,0.2-0.6,1.3c-0.1,0.3,0,0.4-0.2,0.7c-0.4,1,0.5-0.8-0.2,0.3c-0.2,0.3,0-0.2-0.2,0.4l-1.2,2.8c-0.3,1-0.4,2-1.1,2.7c-0.5,0.5,0.2,0.3-0.7,0.4l-1.5-3.3c0,0,0-0.1-0.1-0.1c-0.7-1.3-0.2-1-0.7-1.9c-0.1-0.2,0,0.2-0.3-0.5c-0.1-0.2-0.1-0.4-0.2-0.6c-0.2-0.5-0.5-1.3-1.1-1.7c0-0.3,0-0.7-0.1-1.1c-0.2-1.1-0.1-0.4-0.3-0.7c-0.3-0.5-0.2-1.1-0.2-1.7c0.9-0.1,0.9-0.2,1.4-0.5s0.9-0.2,1.6-0.2v-1.8h-10.9l0.1,1.8l0.8,0.2c0.6,0.3,1.5,0.6,1.8,0.9l0.1,0.1l0.1,0.1c0.5,0.5,0.6,0.5,0.8,1.2l0.9,2.4l0.1,0.1c0,0,0,0.1,0.1,0.1l0.5,0.9c0.3,0.3,0.2,0.1,0.4,0.6c0.4,0.9-0.3,0.4,0.6,0.8c0.1,1.7,0.2,1.2,0.4,1.6c0,0,0.1,0.1,0.2,0.4l0.6,1.6c0.5,0.9-0.5-0.8,0.1,0.3l0.4,0.6c0.6,1.2,0.6,1,0.7,2.7c0.6,0.3,0.6,0.5,0.8,1c0.6,1.1,0.3,1.1,0.9,1.6C234.2,216.5,234.6,214.5,234.8,216L234.8,216z"/><path fill="#FFFFFF" d="M457.7,201.4c-0.1-1.1-0.1-0.2-0.5-0.8l-0.4-0.7c0,0,0-0.1-0.1-0.1c0,0,0-0.1-0.1-0.1c-0.3-0.6-0.3-1.6,0.2-2.1l0.1-0.1l0.1-0.1c0.3-0.3,0.4-0.2,0.5-0.7c1.1,0,2.7-0.2,3.4,0.5c0.6,0.5,0.3-0.4,0.5,0.6c1.4,0.2-0.4,0.6,1.2,0.7c0,0.3,0,0.8,0.1,1c0.2,0.5-0.1,0,0.5,0.4l0.1,1.7l1.7-0.2v-5.9c-1.9-0.2-1.4-0.5-2.3-0.6c-0.3-0.1-0.6,0-0.9-0.1c-1.4-0.1-0.9-0.6-2.2-0.5c-1,0.2-0.1,0-0.6,0.3s-1.2,0.2-1.8,0.3c-1.1,0.2-0.4,0.2-0.9,0.5c-0.7,0.4-0.8,0.5-1.5,1c-0.6,0.5-0.6,0.2-0.7,0.9h-0.6c-0.1,1.2-0.6-0.3-0.6,3.4c0,0.9,0,1.6,0.5,2.3c0.6,1,0.2,0.7,1.1,1.6l1.6,1l0.1,0.1l0.9,0.4c0.4,0.2,0.6,0.5,1.2,0.5c0.1,0.9-0.1,0.4,0.9,0.7c1.2,0.5-0.4,0.4,1,0.6c0.1,0.9,0,0.2,0.4,0.6l0.4,0.4c0.4,0.5,0.2,0.6,0.9,0.7c0.2,3.1-0.3,1.7-0.6,3.5c-0.8,0.1-1.9,1-3.3,0.6c-0.6-0.2,0.1,0-0.3-0.2l-1-0.6c-0.5-0.4,0.6-0.3-0.6-0.4c-0.1-1.3-0.1-0.2-0.4-0.7c-0.4-0.6,0.1-0.9-0.9-1l-0.5-1.8c-0.3-0.6-0.2-1-0.4-1.8l-1.6,0.2v6.3c0.7,0.4,0.6-0.3,0.6,0.8c0.6,0,1.2,0,1.6,0.3l0.6,0.3c0.1,0,0.6,0.1,0.7,0.1c0.3,0,0.6,0,0.8,0.1c1,0.3,1,0.4,2.1,0.4c0.6,0,1.2,0.1,1.7-0.1l0.3-0.1c0,0,0.1,0,0.1-0.1c0,0,0.1,0,0.1-0.1l1.5-0.2c1-0.2,0.4-0.6,1.8-0.6c0-1.1-0.1-0.5,0.6-1l0.1-0.1c0.6-0.5,0.3-0.6,0.7-1.2c0.4-0.6,0.2,0.3,0.5-0.5v-3.8l-0.6-0.1l-0.1-1.3c-0.6-0.3-0.6-0.4-1-0.8c-0.2-0.3-0.1,0.3-0.2-0.4c-1-0.1-0.2-0.2-0.9-0.6l-1.1-0.6c-1.3-0.6-1.7-0.3-1.8-1.3c-0.8-0.1-1.2,0-1.8-0.6l-0.4-0.3C458,201.4,458.9,201.5,457.7,201.4L457.7,201.4z"/><path fill="#FFFFFF" d="M299.8,197.4c0.6-0.5,1.5-1.4,2.5-1.2c0.4,0.1,1.3,0.4,1.8,0.8c0.6,0.6,0.7,0.6,1.1,1.4c0.3,0.6-0.4,0.5,0.6,0.6c0,1.4,0.6,1.1,0.6,2.5h1.3c0-2,0.2-4.1-0.1-6.1c-1.6-0.1-1.6,0.1-1.7-0.6c-1.8-0.1-3.6-0.2-5.3-0.1c-0.7,0.1-1.6,0.6-2,1L298,196c-1.1,0.4-0.3,0.6-1.2,0.6c-0.1,1,0.3,0.3-0.6,0.7c-0.1,1.7-0.5,1.3-0.6,2.1c-0.3,1.8,0.2,2.1,0.5,3c0.4,1,0.6,0.6,0.6,1.5c1.1,0.1,0.2,0,0.6,0.4l0.7,0.6l0.1,0.1l1.6,0.9l0.1,0.1c0.9,0.6,0.9-0.2,1.1,0.8l3,1.6c1,1,0.9,3,0.6,3.7c-0.3,0.3-0.3,0.2-0.5,0.4c-0.9,0.9-0.9,1.1-2.5,1c-0.6-0.1-1.3-0.5-1.8-0.6c-0.7-0.5,0.4-0.4-0.7-0.5c-0.1-1,0.2-0.2-0.5-0.8c-0.7-0.7-0.6-1-1.2-1.8c-0.7-1.4,0.3-3-1.9-2.8v5.8c0,1.2,0.5,0.2,0.6,1.3l1.3,0.4c0.4,0.2-0.4,0.1,0.6,0.3c1.8,0.3,1,0.3,1.8,0.6c0.9,0.3,4.2,0.2,4.9-0.2s1.4-0.3,1.9-0.6c0.7-0.5,0.6,0.2,0.6-0.8c1-0.1,0.1,0.1,0.6-0.3c1.1-0.8,1.2-1.9,1.2-3.8c0-1.4,0-1.8-0.6-2.9l-0.3-0.5c-0.1-0.2-0.4-0.5-0.4-1c-0.6-0.1-0.7-0.1-1-0.4l-0.4-0.4l-0.1-0.1l-0.1-0.1c-0.4-0.4-0.6-0.3-1.2-0.6l-0.2-0.2l-0.1-0.1l-0.9-0.4c-0.5-0.3,0.1,0-0.4-0.4l-1.5-0.9c-0.4-0.3-0.3-0.4-0.8-0.5c-0.1-1,0-0.3-0.3-0.6l-0.1-0.1l-0.4-0.4c-0.5-0.5-0.5,0-0.5-1.3L299.8,197.4L299.8,197.4z"/><path fill="#FFFFFF" d="M474.8,197.4L474.8,197.4l0.2-0.2c1.2-1,2.5-0.6,4-0.6c0.1,0.8,0.2,0.5,0.7,0.9c0.6,0.5,0.6,1.1,0.6,1.9c0.9,0.1,0.6,0.1,0.7,1.8h1.7v-6l-1.7-0.4c-0.7-0.5-5.6-0.6-6.5,0l-0.7,0.6c0,0-0.1,0.2-0.2,0.2c-0.2,0.2-0.1,0.1-0.5,0.3c-0.6,0.3-0.8,0.6-1.4,1.1l-0.7,1.2l-0.1,0.1c-0.5,0.8-0.6,3.3,0,4.2l1.4,1.6c0.1,0.1,0.1,0.2,0.3,0.3l0.4,0.4l0.1,0.1l0.1,0.1l1.9,1.1c0.3,0.2,0.6,0.2,0.7,0.3l1.7,1.1c0.9,0.6,0.9-0.2,0.9,0.8c1,0.1,0.3-0.2,0.8,0.5c0.7,0.8,0.7,3,0,3.9c-0.6,0.8-0.8,1-1.9,1c-0.8,0-1.4,0-2-0.4l-0.8-0.5l-0.2-0.2l-1.2-1.6c-0.7-0.8-0.5-2-0.9-3l-0.3-1.1h-1.1v6.7h0.6v0.6c1.6,0.1,0.8,0.5,2.6,0.6c1.2,0.1,1.6,0.5,2.6,0.5c2.7,0,1.6-0.2,3.1-0.4c0.5-0.1,1,0,1.5-0.3l0.6-0.4c0.7-0.3,0.9-0.6,1.5-1.2l0.1-0.1l0.6-0.7c0.6-1,0.6-4.2,0-5.4l-1.6-1.8c-0.5-0.5-1-0.6-1.5-0.9l-1.8-1.2c-1-0.8,0.6,0.3-0.3-0.3l-1.5-0.7C474.4,201.1,474.6,199.6,474.8,197.4L474.8,197.4z"/><path fill="#FFFFFF" d="M329,199.9c0.6-0.5,0.3,0.1,0.5-0.6c0.1-0.2,0-0.3,0.1-0.5c0.1-0.3,0.2-0.3,0.2-0.4l0.3-0.3c1.3-1.4,2-0.9,5.1-0.9l-0.1,14c-1.3,0.1,0.1-0.2-1,1.3l-0.3,0.5l-2.9,0.2l-0.1,1.8H343c0-1,0.1-1.2-0.5-1.6l-0.5-0.2c-0.1,0-0.5-0.1-0.5-0.1c-1.6-0.2-0.6,0.1-1.3-0.5l-0.1-0.1c0,0-0.2-0.1-0.2-0.2l-0.6-0.5c0,0-0.1,0-0.1-0.1s-0.1-0.1-0.2-0.1v-14.4c3.3-0.1,1.6,0.3,3,0.5c2.2,0.3,0.4,0,2.4,1.5l0.2,2.2c0.6,0.1,0.2,0.3,0.7,0.5c0.3,0.1,0.6,0.1,0.9,0.1c0.1-0.9,0.3-2.5,0-3.4c-0.5-1.6-0.3-0.7-0.3-3.2c-1.2-0.1-18.2,0-18.4,0.1c-0.1,2.3,0.4,3-0.6,3.1v3.4c2.2,0.1,0.5-0.3,1.7-0.5L329,199.9L329,199.9z"/><path fill="#FFFFFF" d="M321.1,197.3c0.3-0.1,0.6-0.1,0.8-0.2l0.6-0.4c0.4-0.1,1.5-0.1,1.9-0.2v-1.8h-12v1.8c1.3,0.1,1-0.1,1.9,0.4l0.2,0.1c0.2,0.1,0.4,0.1,0.6,0.2l0.6,0.6c0.8,1,0.3,12.6,0.2,14.5c-2.1,0.3,0.6,0.7-3.4,0.8l-0.1,1.8l12.2-0.1v-1.2c-1.5-0.1-0.9-0.2-1.4-0.4c-1.1-0.6-0.9,0.3-1.7-0.6c-0.7-0.7-0.4,0.2-0.6-1c-0.1-0.6,0.1-0.4-0.3-1c-0.1-0.2-0.2,0.3-0.3-0.7v-11.1L321.1,197.3L321.1,197.3z"/><path fill="#FFFFFF" d="M219.7,197.4c0.4-0.4,0.5-0.6,1.1-0.7c0.2-0.1,0.5-0.1,0.6-0.1c0.4,0,0.7,0,1.2,0v-1.8l-12.2,0.1v1.7c0.6,0.1,1.7,0,2.1,0.2l1.2,0.9c0.6,0.7,0.4,2.8,0.5,3.8h0.6v8.4c-0.6,0.1-0.6-0.3-0.6,2.5c-1.5,0.2-0.6,0.4-1.7,0.6c-0.6,0.1-1.3,0.1-1.9,0.2v1.6c1,0.4,10.4,0.2,12.2,0.1v-1.3c-2.2-0.1,0-0.4-2.8-0.6l-1.1-1.7c-0.6-1.1-0.4-8.9-0.3-10.7C218.5,198.6,218.3,198.6,219.7,197.4L219.7,197.4z"/></g></svg>