<svg version="1.1" xmlns="http://www.w3.org/2000/svg" xmlns:xlink="http://www.w3.org/1999/xlink" x="0px" y="0px" width="640px" height="336px" viewBox="0 0 640 336" enable-background="new 0 0 640 336" xml:space="preserve"><rect fill="#D8DDE6" width="640" height="336"/><g><path fill="#0070BA" d="M255.5,167.8c0-4.5-0.2-9.2,0-13.7c0.1-2.5,0.9-2.8,2.6-4c6.3-4.5,16.5-8.5,24.9-8l-0.3,25.8c-7.6,0.8-11.9,4.2-14.5,9c-7.3,13.2,8.3,40.7-29.7,40.8c-0.5-9-0.7-24.4,0-33.3c0.4-5.4,2.8-8.6,5.6-11.2C250.4,167.2,253.9,170.3,255.5,167.8L255.5,167.8z M196.2,116h0.2c4.5,0,8.9,1.8,11.8,6.1c1,1.5,0.9,2.2,2.2,3.1c1.1-4.7,7.2-9.3,13.2-9.3c7.2,0,13.8,4.9,14.2,9.3c1.9-1.4,1.8-3.4,5.2-6c2.5-1.9,5.3-3,8.1-3.3h2.7c3.3,0.3,6.6,1.8,9.3,4.5c9.6,9.5,2.1,22.8-6.2,24.8v3.4c4-2.7,7.4-4.6,12.3-6.3c4.9-1.8,7.1-1.8,11.7-2c2.2-0.1,1.8-0.4,3.9-0.5v29.8c-4.3,0-7.2,0.5-10.8,3.3c-9.4,7.5-4.9,19.1-6.9,28.3c-3,13.7-12.1,18.2-28.7,18.2h-28.8c-38,0-25.2-29.9-30.1-40.2c-1.7-3.5-2.3-4.3-5.2-6.5c-3.6-2.7-6-3.1-10.6-3.1v-28.3c0-2.1,1.9-1.3,3-1.2c1.7,0.2,3,0.1,4.7,0.3c9.7,1.3,13.7,4.5,20.6,8.2v-3.4c-5.3-1.2-10.7-6.6-10.7-13.2v-2.9C181.1,121.5,188.6,116.1,196.2,116L196.2,116z M165.6,142c10.7-0.3,21.4,4.8,27.4,10.1l0.1,16.4c9.7,1.4,16.4,6.1,17,16.3c0.6,9.2,0.5,23.5,0,32.8c-16.3,0.2-25.7-4.5-27.2-20.2c-1-9.9,3.4-26.4-17.3-29.6V142L165.6,142z M210.4,136.5c2.9,12.4,24.2,12.1,27.3,0.5h1c0.7,2.8,2.2,2.7,2.9,5.4c-4.9,1.1-14.8,6.3-17.1,9.8c-5.6-3.8-4.1-4.1-12.9-8.1c-1.9-0.9-3.5-1.2-5.2-2.1L210.4,136.5L210.4,136.5z M254.8,141.1c-4.4,0.1-9,1.9-11.5-0.4c-7.8-7.1-4.1-21.3,7.1-22.8c16.9-2.3,20.8,22,5.3,25.7c-0.3-0.7-0.2-0.7-0.4-1.2C255.1,141.5,255.1,141.6,254.8,141.1L254.8,141.1z M192.3,143.6c-16.5-5.5-9.8-28.6,6.3-25.6c11.6,2.2,13.9,16.9,5.7,23.2c-2.2,1.7-7.7-0.1-11,0c-0.4,0.8-0.2,0.6-0.4,1.3C192.4,143.7,192.7,143,192.3,143.6L192.3,143.6z"/><path fill="#0070BA" d="M399.4,151.2c0,12,1,11.5,8.1,7.6c5.4-2.9,14-3.9,19.2-1.8c1.4,0.6,4,2.3,4.9,3.4c2,2.2,4.7,7.3,4.8,11.3h-27.8c-4.5,0-4.9,4.7-4.7,8.1c0.3,5.1,0.7,7,6.1,7c9,0,17.9,0,26.9,0c-0.9,4.1-0.8,7.6-4.1,12c-6.1,8-19.6,6.5-27.2,1.7c-6-3.7-7.5,0.9-7.2,6.2c0.2,3.5,1,6.8,3.3,8.5c7.9,5.8,26.1,6.3,35.9,1.5c12.7-6.2,18.1-19.6,18.9-33v-6.4c-0.6-10.3-3.7-19.9-8.2-25.4c-3-3.6-5.6-6-10-8.1C425.2,137.5,399.4,140,399.4,151.2L399.4,151.2z"/><path fill="#0070BA" d="M294.9,147.7v65c0,3.2,1.8,5.9,4.9,5.9h39.1c3.6,0,4.9-14.7-1-14.7H313v-18.1h21.5c4.1,0,4.1-14.2,0-14.2H313v-15.1h24.4c4.9,0,3.9-5.6,3.9-10.7c0-1.5-0.9-3.9-2.4-3.9h-39.1C296.7,141.9,294.9,144.6,294.9,147.7L294.9,147.7z"/><path fill="#FEFEFE" d="M165.5,167.7c20.7,3.2,16.4,19.8,17.3,29.6c1.5,15.8,10.9,20.4,27.2,20.2c0.5-9.3,0.6-23.5,0-32.8c-0.6-10.2-7.4-14.9-17-16.3l-0.1-16.4c-5.9-5.3-16.7-10.4-27.4-10.1V167.7L165.5,167.7z"/><path fill="#EB1B23" d="M255.5,167.8c-1.6,2.5-5.2-0.5-11.4,5.4c-2.8,2.6-5.2,5.8-5.6,11.2c-0.6,8.9-0.5,24.3,0,33.3c38-0.1,22.4-27.6,29.7-40.8c2.6-4.7,6.9-8.2,14.5-9l0.3-25.8c-8.4-0.5-18.6,3.5-24.9,8c-1.7,1.2-2.6,1.5-2.6,4C255.4,158.5,255.5,163.3,255.5,167.8L255.5,167.8z"/><path fill="#0070BA" d="M349.6,148.2v66.4c0,5.1,6.7,4.4,10.7,4.4c3.9,0,7.8-0.5,7.8-4.4V157h23.4c4.4,0,4.6-15.1,0-15.1h-37.1C351.3,141.9,349.6,145,349.6,148.2L349.6,148.2z"/><path fill="#EB1B23" d="M254.8,141.1c0.3,0.5,0.3,0.4,0.6,1.2c0.2,0.5,0.1,0.6,0.4,1.2c15.4-3.7,11.6-27.9-5.3-25.7c-11.3,1.5-15,15.6-7.1,22.8C245.8,143,250.4,141.2,254.8,141.1L254.8,141.1z"/><path fill="#FEFEFE" d="M192.3,143.6c0.4-0.6,0.1,0.1,0.6-1.2c0.3-0.6,0-0.4,0.4-1.3c3.3-0.1,8.8,1.7,11,0c8.1-6.3,5.8-21-5.7-23.2C182.5,115,175.8,138.1,192.3,143.6L192.3,143.6z"/></g></svg>