<svg version="1.1" xmlns="http://www.w3.org/2000/svg" xmlns:xlink="http://www.w3.org/1999/xlink" x="0px" y="0px" width="640px" height="336px" viewBox="0 0 640 336" enable-background="new 0 0 640 336" xml:space="preserve"><rect fill="#E74856" width="640" height="336"/><g><path fill="#FFFFFF" d="M314.2,191.3c-3.9,1.8-8.3,2.7-13.3,2.7c-4.6,0-8.7-1.1-12.3-3.2c-3.6-2.1-6.4-5.1-8.4-8.9c-2-3.8-3-8.2-3-13c0-5.2,1.1-9.8,3.2-14c2.1-4.1,5.1-7.4,9-9.6c3.9-2.3,8.3-3.4,13.2-3.4c4.3,0,8.1,0.7,11.5,2v5c-3.6-1.8-7.5-2.7-11.6-2.7c-4.1,0-7.7,0.9-10.8,2.8c-3.1,1.8-5.5,4.5-7.1,7.9c-1.7,3.4-2.5,7.4-2.5,11.8c0,4.1,0.8,7.8,2.4,11c1.6,3.2,3.8,5.8,6.7,7.5s6.3,2.6,10.1,2.6c4.9,0,9.1-1,12.8-3.1V191.3z"/><path fill="#FFFFFF" d="M333.4,161.1v32.1h-4.5v-32.1h-10.8v-3.9h26.1v3.9H333.4z"/><path fill="#FFFFFF" d="M371.7,193.2v-6.4h-0.1c-1.2,2.3-2.8,4.1-4.8,5.3s-4.3,1.9-6.9,1.9c-3.4,0-6.2-0.9-8.2-2.8s-3.1-4.4-3.1-7.5c0-6.5,4.1-10.4,12.2-11.6l10.9-1.6c0-6.9-2.7-10.4-8.1-10.4c-4.2,0-8.1,1.5-11.7,4.6v-4.9c1.5-1.1,3.3-1.9,5.5-2.6s4.4-1,6.5-1c4,0,7,1.1,9.1,3.4c2.1,2.3,3.1,5.6,3.1,10.1v23.4L371.7,193.2L371.7,193.2z M353.2,183.5c0,2,0.7,3.6,2,4.8c1.4,1.2,3.2,1.8,5.4,1.8c3.2,0,5.8-1.1,7.9-3.4c2.1-2.3,3.1-5.2,3.1-8.8v-3.6l-9.3,1.3c-3.5,0.5-5.9,1.3-7.2,2.5C353.9,179.4,353.2,181.1,353.2,183.5z"/><path fill="#FFFFFF" d="M397.5,161.1v32.1H393v-32.1h-10.8v-3.9h26.1v3.9H397.5z"/><path fill="#FFFFFF" d="M441.2,182.2c0,3.3-1.1,6-3.2,8c-2.1,2-4.8,3-8.1,3h-14.9v-36h4.5v14.3h10c3.6,0,6.4,0.9,8.5,2.8C440.1,176.2,441.2,178.8,441.2,182.2z M436.5,182.2c0-2.1-0.6-3.7-2-4.9c-1.3-1.2-3.3-1.8-5.9-1.8h-9.1v13.8h9.2c2.5,0,4.4-0.6,5.8-1.8S436.5,184.5,436.5,182.2z"/><path fill="#FFFFFF" d="M474.8,193.2v-29.4l-1,1.6L454,193.2h-4.1v-36h4.3v29.1c0.3-0.7,0.7-1.5,1.3-2.4l19.3-26.7h4.3v36L474.8,193.2L474.8,193.2z"/></g><g><g><path fill="#FFFFFF" d="M248.4,203.4c-1.2-1.9-8.7-15.3-0.2-23.8c0.8-0.7,1-1.9,0.6-2.9c-0.4-1-1.4-1.7-2.5-1.7h-82.6c-1.5,0-2.6,1.2-2.6,2.6v27.4c0,1.4,1.2,2.6,2.6,2.6h82.6l0,0c1.5,0,2.8-1.3,2.7-2.6C249,204.4,248.8,204,248.4,203.4z M165.4,202.8v-23h77c-1.7,3.1-2.3,6.4-2.3,9.6h-58.2c-1,0-1.9,0.9-1.9,1.9c0,1,0.9,1.9,1.9,1.9h58.5c0.6,3.7,1.8,7,2.9,9.5L165.4,202.8L165.4,202.8z"/><path fill="#FFFFFF" d="M175.8,168.3h25.5c0.6,0,1.2-0.6,1.2-1.2v-11.3h5v11.3c0,0.6,0.6,1.2,1.2,1.2h25.5c0.6,0,1.2-0.6,1.2-1.2v-16.3c0-0.2-0.1-0.4-0.2-0.6l-12.1-21.5c-0.2-0.4-0.7-0.6-1.2-0.6c-0.5,0.1-0.9,0.5-1,1l-0.7,3.9c-0.1,0.2,0,0.6,0.2,0.8l8.6,15.5h-48l8.6-15.5c0.2-0.2,0.2-0.5,0.2-0.8l-0.8-3.9c-0.1-0.5-0.5-0.9-1-1c-0.5-0.1-1,0.2-1.2,0.6l-12.1,21.5c-0.1,0.2-0.2,0.4-0.2,0.6v16.3C174.7,167.8,175.1,168.3,175.8,168.3z M211.8,153.8H231V164h-19.2V153.8z M179,153.8h19.2V164H179V153.8z"/></g></g></svg>