<svg version="1.1" xmlns="http://www.w3.org/2000/svg" x="0px" y="0px" width="640px" height="336px" viewBox="0 0 640 336" enable-background="new 0 0 640 336"><rect fill="#2E9FFF" width="640" height="336"/><path fill="#FDFFFF" d="M339.4,181.5c-2.2,0.5-3.4,1-6,1c-2.1,0-4.1-0.4-5.9-1.1c-14.7-6-12.3-30.2,3.8-32c4.3-0.5,8.3,0.9,10.9,2.8c2.4,1.7,4.5,4.5,5.8,8.1c1,2.9,1.5,9.1-0.2,11.6c-0.3-0.2-1.9-1.6-2.2-1.9c-1.7-1.5-4.5-4.3-6-5.4c-0.4,0.4-0.7,0.7-1.1,1.2l-7.4,8.4l6.3,5.4C338.1,180.3,338.8,180.6,339.4,181.5L339.4,181.5z M360.7,183.2c1.9-2.2,3.8-6.9,4.6-10.4c4.8-21.2-11.8-40.3-34.9-38.7c-9.1,0.7-16.2,4.8-20.8,9.2c-11.7,11.3-12.6,30-1.7,43.2l3.9,3.7c1,0.9,3,2.2,4.5,3c12.2,6.4,24.2,5.4,35.3-1.1c0.7,0.4,1.1,0.8,1.7,1.5c0.6,0.6,1.1,0.9,1.7,1.4c0.7,0.7,1.1,0.9,1.7,1.6c0.7,0.7,1,0.9,1.6,1.4l5.4-5.9c0.4-0.4,0.7-0.6,1-1.1c0.4-0.5,0.6-0.8,1.1-1.3c0.6-0.6,0.6-0.5,1-1.1C365.8,187.6,361.2,183.9,360.7,183.2L360.7,183.2z"/><path fill="#FDFFFF" d="M160.6,181.3l0-31c6.3-0.1,12-0.4,17,2.5c9.1,5.4,9,20.8,0.1,26C172.6,181.7,167.1,181.4,160.6,181.3L160.6,181.3z M143.7,196.3c5,0.3,17.5,0,23.3,0c7.8,0,16.4-1.9,22.4-6.3c3.2-2.3,2.6-2,5.1-4.5c3-3,5.4-8.4,6.4-12.8c1.2-5.6,1-11.9-0.7-17.1c-3-9.4-10-15.6-19.8-18.5c-7.7-2.3-18.5-1.8-27.1-1.8c-2.9,0-6.8-0.2-9.6,0L143.7,196.3L143.7,196.3z"/><path fill="#FDFFFF" d="M376.3,169.2c0,18.7,9.9,28.3,28.5,28.3c18.6,0,28.3-10.1,28.3-28.7v-33.5H416v33.9c0,7.8-3.3,13-11.3,13c-8,0-11.2-5.5-11.2-13.4v-33.5h-17.2L376.3,169.2L376.3,169.2z"/><path fill="#FDFFFF" d="M492.3,142.4c-0.7-0.9-3.5-2.6-4.9-3.4c-9.9-5.6-27.1-7.2-36.7,0.1c-0.4,0.3-0.7,0.5-1,0.7c-0.4,0.3-0.5,0.6-0.8,0.9c-0.3,0.3-0.6,0.5-0.9,0.8c-4.8,5.5-6.2,16.3-1.2,22.3c4.2,5,10.8,7.1,19.1,9c3.2,0.7,8.6,2,10.3,3.8c2,2.2,1,6.6-5.9,6.6c-8.3,0-15-3.4-19.9-7.2c-0.7,0.4-1.9,2.1-2.5,2.7l-4.7,5.7c-0.7,0.8-1.8,1.9-2.2,2.8c3.4,2.9,6.9,5.3,12.1,7.2c12.6,4.7,33,4.9,39.4-8.9c1.9-4.1,2.3-9.9,0.7-14.3c-3-8.2-13-11.1-20.9-12.8c-3.6-0.8-10.8-2-11.4-5.4c-1-6,7.9-5,11.5-4.2c5.3,1.2,7.4,2.9,11.5,5.3L492.3,142.4L492.3,142.4z"/><path fill="#FDFFFF" d="M281.8,154.2c0.8-0.8,1.5-2.1,2.2-3c2-2.7,4.2-6.2,6.2-8.7c-0.9-1.2-4.8-3.5-6.6-4.4c-12.2-5.8-33.2-6.1-39.8,6.6c-2.6,5-3.3,12.3-0.4,17.4c6.2,10.6,23.1,9.8,29.5,13.9c3.5,2.2,3.4,9.2-10.1,7c-8.8-1.4-12.9-6-14.8-6.8c-0.9,0.9-1.6,1.9-2.4,2.8l-6.9,8.4c8.9,8.3,28,13.7,42.1,7.5c2.9-1.3,4.6-2.7,6.3-4.5c3.5-3.6,5.8-9.7,4.5-16.5c-1.2-6.3-5.3-9.3-10.3-11.7c-9.6-4.6-23.1-3.9-22.7-10.1c0.2-3.1,3.9-3.9,7.2-3.7c4.3,0.2,9,1.8,12.6,3.8L281.8,154.2L281.8,154.2z"/><polygon fill="#FDFFFF" points="213,196.3 230,196.3 230,135.2 213,135.2 "/></svg>