<svg version="1.1" xmlns="http://www.w3.org/2000/svg" xmlns:xlink="http://www.w3.org/1999/xlink" x="0px" y="0px" width="640px" height="336px" viewBox="0 0 640 336" enable-background="new 0 0 640 336" xml:space="preserve"><rect fill="#585578" width="640" height="336"/><g><path d="M241.4,28v280h157.1V28H241.4z M307.8,36.3h24.5v1.4h-24.5V36.3z M319.3,295.7l-5.2,1.2v-5.3l5.2-1V295.7z M319.3,289.3l-5.2,1v-5l5.2-1.2V289.3z M325.8,294.3l-5.2,1.2v-5.1l5.2-1V294.3z M325.8,288.1l-5.2,1v-5.2l5.2-1.2V288.1z M387,268.7H252.9V44.9h134.3L387,268.7L387,268.7z"/><rect x="252.7" y="44.6" fill="#F1F1F1" width="134.8" height="224.1"/><rect x="260.3" y="125.5" fill="#E74856" width="119.5" height="62.7"/><path fill="#FFFFFF" d="M318.8,161.3c-0.7,0.3-1.5,0.5-2.5,0.5c-0.9,0-1.6-0.2-2.3-0.6c-0.7-0.4-1.2-0.9-1.6-1.7c-0.4-0.7-0.6-1.5-0.6-2.4c0-1,0.2-1.8,0.6-2.6s0.9-1.4,1.7-1.8c0.7-0.4,1.5-0.6,2.5-0.6c0.8,0,1.5,0.1,2.1,0.4v0.9c-0.7-0.3-1.4-0.5-2.2-0.5c-0.8,0-1.5,0.2-2,0.5s-1,0.9-1.3,1.5s-0.5,1.4-0.5,2.2s0.1,1.5,0.4,2c0.3,0.6,0.7,1.1,1.2,1.4c0.6,0.3,1.2,0.5,1.9,0.5c0.9,0,1.7-0.2,2.4-0.6L318.8,161.3L318.8,161.3z"/><path fill="#FFFFFF" d="M322.5,155.6v6h-0.9v-6h-2v-0.7h4.9v0.7H322.5z"/><path fill="#FFFFFF" d="M329.5,161.6v-1.2l0,0c-0.2,0.4-0.5,0.8-0.9,1c-0.4,0.3-0.8,0.3-1.3,0.3c-0.6,0-1.2-0.2-1.5-0.5c-0.4-0.3-0.6-0.8-0.6-1.4c0-1.2,0.8-1.9,2.3-2.2l2-0.3c0-1.3-0.5-1.9-1.5-1.9c-0.8,0-1.5,0.3-2.2,0.9v-0.9c0.3-0.2,0.6-0.3,1-0.5c0.4-0.1,0.8-0.2,1.2-0.2c0.8,0,1.3,0.2,1.7,0.6s0.6,1.1,0.6,1.9v4.4L329.5,161.6L329.5,161.6z M326.3,159.8c0,0.4,0.1,0.7,0.4,0.9s0.6,0.3,1,0.3c0.6,0,1.1-0.2,1.5-0.6c0.4-0.4,0.6-1,0.6-1.6v-0.7l-1.8,0.3c-0.6,0.1-1.1,0.3-1.4,0.5C326.3,159,326.3,159.3,326.3,159.8z"/><path fill="#FFFFFF" d="M334.5,155.6v6h-0.9v-6h-2v-0.7h4.9v0.7H334.5z"/><path fill="#FFFFFF" d="M342.5,159.5c0,0.6-0.2,1.1-0.6,1.5s-0.9,0.6-1.5,0.6h-2.8v-6.7h0.9v2.7h1.9c0.7,0,1.2,0.2,1.6,0.5C342.5,158.4,342.5,158.9,342.5,159.5z M341.8,159.5c0-0.4-0.1-0.7-0.4-0.9s-0.6-0.3-1.1-0.3h-1.7v2.6h1.7c0.5,0,0.8-0.1,1.1-0.3C341.5,160.3,341.8,160,341.8,159.5z"/><path fill="#FFFFFF" d="M348.8,161.6v-5.5l-0.2,0.3l-3.7,5.2h-0.8v-6.7h0.8v5.5c0-0.1,0.1-0.3,0.3-0.5l3.6-5h0.8v6.7H348.8L348.8,161.6z"/><path fill="#FFFFFF" d="M306.5,163.5c-0.2-0.3-1.6-2.9,0-4.4c0.1-0.1,0.2-0.3,0.1-0.6c-0.1-0.2-0.3-0.3-0.5-0.3h-15.4c-0.3,0-0.5,0.2-0.5,0.5v5.1c0,0.3,0.2,0.5,0.5,0.5h15.4l0,0c0.3,0,0.5-0.3,0.5-0.5C306.8,163.7,306.8,163.6,306.5,163.5z M291,163.4v-4.3h14.4c-0.3,0.6-0.4,1.2-0.4,1.8h-10.9c-0.2,0-0.3,0.2-0.3,0.3c0,0.2,0.2,0.3,0.3,0.3H305c0.1,0.7,0.3,1.3,0.6,1.8L291,163.4L291,163.4z"/><path fill="#FFFFFF" d="M293,156.9h4.8c0.1,0,0.2-0.1,0.2-0.2v-2.1h0.9v2.1c0,0.1,0.1,0.2,0.2,0.2h4.8c0.1,0,0.2-0.1,0.2-0.2v-3v-0.1l-2.3-4c0-0.1-0.1-0.1-0.2-0.1s-0.2,0.1-0.2,0.2l-0.1,0.7c0,0,0,0.1,0,0.2l1.6,2.9h-9l1.6-2.9c0,0,0-0.1,0-0.2l-0.2-0.7c0-0.1-0.1-0.2-0.2-0.2s-0.2,0-0.2,0.1l-2.3,4v0.1v3C292.8,156.9,292.8,156.9,293,156.9z M299.8,154.3h3.6v1.9h-3.6V154.3z M293.8,154.3h3.6v1.9h-3.6V154.3z"/><path fill="#363636" d="M299.3,88.8c-0.5,0.3-1,0.4-1.8,0.4c-0.6,0-1.1-0.1-1.5-0.4s-0.8-0.6-1-1.1c-0.3-0.5-0.4-1-0.4-1.6s0.1-1.2,0.4-1.8c0.3-0.5,0.6-0.9,1.2-1.2c0.5-0.3,1-0.4,1.7-0.4c0.6,0,1.1,0.1,1.5,0.3v0.8c-0.5-0.3-0.9-0.4-1.5-0.4c-0.5,0-0.9,0.1-1.3,0.3c-0.4,0.2-0.6,0.5-0.9,0.9c-0.2,0.4-0.3,0.9-0.3,1.4s0.1,0.9,0.3,1.3s0.5,0.7,0.8,0.9c0.3,0.2,0.7,0.3,1.2,0.3c0.6,0,1.2-0.1,1.6-0.4L299.3,88.8L299.3,88.8z"/><path fill="#363636" d="M304.5,86.8c0,0.7-0.2,1.3-0.6,1.7c-0.4,0.4-0.9,0.6-1.6,0.6s-1.2-0.2-1.6-0.6s-0.6-1-0.6-1.7s0.2-1.3,0.6-1.8c0.4-0.4,1-0.6,1.7-0.6s1.2,0.2,1.6,0.6C304.3,85.5,304.5,86.1,304.5,86.8z M303.8,86.8c0-0.6-0.1-1-0.4-1.3s-0.6-0.5-1.1-0.5s-0.8,0.2-1.1,0.5c-0.3,0.3-0.4,0.7-0.4,1.3c0,0.6,0.1,0.9,0.4,1.2c0.3,0.3,0.6,0.5,1.1,0.5s0.8-0.1,1.1-0.4C303.8,87.8,303.8,87.4,303.8,86.8z"/><path fill="#363636" d="M309.5,90.7H309v-1.6h-3.3v1.6H305v-2.3h0.4c0.8-1.1,1.2-2.4,1.2-3.9h2.3v3.9h0.7L309.5,90.7L309.5,90.7z M308,88.4v-3.2h-1c-0.1,1.2-0.4,2.3-1,3.2H308z"/><path fill="#363636" d="M314,87h-3.2c0,0.5,0.1,0.9,0.4,1.2c0.3,0.3,0.6,0.4,1.1,0.4s1-0.2,1.4-0.5v0.7c-0.4,0.3-0.9,0.4-1.6,0.4c-0.6,0-1.2-0.2-1.5-0.6s-0.6-1-0.6-1.7c0-0.4,0.1-0.9,0.3-1.2c0.2-0.4,0.4-0.6,0.7-0.9c0.3-0.2,0.7-0.3,1.1-0.3c0.6,0,1,0.2,1.4,0.6c0.3,0.4,0.5,0.9,0.5,1.6L314,87L314,87z M313.3,86.4c0-0.4-0.1-0.7-0.3-1c-0.2-0.2-0.5-0.3-0.8-0.3s-0.6,0.1-0.9,0.3c-0.3,0.2-0.4,0.6-0.4,0.9L313.3,86.4L313.3,86.4z"/><path fill="#363636" d="M319.3,86.7c0,0.8-0.2,1.4-0.6,1.8s-0.9,0.7-1.5,0.7s-1-0.3-1.3-0.8l0,0v2.7H315v-6.5h0.7v0.8l0,0c0.3-0.6,0.9-0.9,1.5-0.9s1,0.2,1.3,0.6C319,85.4,319.3,86,319.3,86.7z M318.5,86.7c0-0.5-0.1-0.9-0.3-1.2c-0.2-0.3-0.6-0.4-0.9-0.4c-0.4,0-0.7,0.1-1,0.4s-0.4,0.6-0.4,1.1v0.6c0,0.4,0.1,0.7,0.4,0.9c0.3,0.3,0.6,0.4,0.9,0.4c0.4,0,0.8-0.2,1-0.5C318.3,87.7,318.5,87.3,318.5,86.7z"/><path fill="#363636" d="M326,89.1h-1l-2-2.2l0,0v2.2h-0.7v-2.2l0,0l-2,2.2h-0.9l2.2-2.3l-2.1-2.2h0.9l1.9,2.1l0,0v-2.1h0.7v2.1l0,0l1.9-2.1h0.9l-2.1,2.2L326,89.1z"/><path fill="#363636" d="M330,89.1h-0.7v-0.7l0,0c-0.3,0.6-0.8,0.8-1.4,0.8c-0.4,0-0.8-0.1-1-0.3c-0.3-0.2-0.4-0.6-0.4-0.9c0-0.9,0.5-1.3,1.5-1.5l1.3-0.2c0-0.8-0.3-1.2-0.9-1.2s-1,0.2-1.5,0.6V85c0.1-0.1,0.3-0.2,0.7-0.3c0.3-0.1,0.6-0.1,0.9-0.1c1.1,0,1.6,0.6,1.6,1.7L330,89.1L330,89.1z M329.3,86.8l-1.1,0.2c-0.4,0-0.6,0.1-0.8,0.3c-0.2,0.2-0.2,0.3-0.2,0.6c0,0.2,0.1,0.4,0.3,0.6c0.2,0.1,0.4,0.2,0.6,0.2c0.3,0,0.6-0.1,0.9-0.4c0.2-0.3,0.3-0.6,0.3-0.9L329.3,86.8L329.3,86.8z"/><path fill="#363636" d="M335,89.1h-0.7v-2H332v2h-0.7v-4.5h0.7v1.8h2.3v-1.8h0.7V89.1z"/><path fill="#363636" d="M340.3,89.1h-0.6v-3.6c0,0.1-0.2,0.3-0.3,0.5l-2,3h-0.7v-4.5h0.6V88l0.3-0.4l2.1-3.1h0.7L340.3,89.1L340.3,89.1z"/><path fill="#363636" d="M345.3,87h-3.2c0,0.5,0.1,0.9,0.4,1.2c0.3,0.3,0.6,0.4,1.1,0.4s1-0.2,1.4-0.5v0.7c-0.4,0.3-0.9,0.4-1.6,0.4c-0.6,0-1.2-0.2-1.5-0.6s-0.6-1-0.6-1.7c0-0.4,0.1-0.9,0.3-1.2c0.2-0.4,0.4-0.6,0.7-0.9c0.3-0.2,0.7-0.3,1.1-0.3c0.6,0,1,0.2,1.4,0.6c0.3,0.4,0.5,0.9,0.5,1.6L345.3,87L345.3,87z M344.5,86.4c0-0.4-0.1-0.7-0.3-1c-0.2-0.2-0.5-0.3-0.8-0.3s-0.6,0.1-0.9,0.3c-0.3,0.2-0.4,0.6-0.4,0.9L344.5,86.4L344.5,86.4z"/><rect x="260.3" y="198.1" fill="#744DA9" width="119.5" height="62.7"/><path fill="#FFFFFF" d="M316,225.5v8.6h-0.9v-8.6h-2.7v-0.8h6.3v0.8H316z"/><path fill="#FFFFFF" d="M319.3,230.9c0,0.8,0.2,1.5,0.6,2s1,0.7,1.7,0.7c0.8,0,1.5-0.3,2.1-0.8v0.8c-0.6,0.5-1.4,0.7-2.3,0.7s-1.7-0.3-2.2-0.9c-0.5-0.6-0.8-1.5-0.8-2.6c0-0.6,0.1-1.2,0.4-1.8s0.6-1,1.1-1.3s1-0.5,1.6-0.5c0.9,0,1.5,0.3,2,0.9c0.5,0.6,0.7,1.4,0.7,2.4v0.4L319.3,230.9L319.3,230.9z M323.3,230.1c0-0.7-0.2-1.2-0.5-1.6c-0.3-0.4-0.8-0.6-1.3-0.6c-0.6,0-1.1,0.2-1.4,0.6c-0.4,0.4-0.6,0.9-0.7,1.6H323.3L323.3,230.1z"/><path fill="#FFFFFF" d="M330.3,233.8c-0.5,0.3-1.1,0.5-1.8,0.5c-0.6,0-1.2-0.1-1.6-0.4c-0.5-0.3-0.9-0.7-1.1-1.2c-0.3-0.5-0.4-1.1-0.4-1.7c0-0.7,0.1-1.3,0.4-1.9c0.3-0.6,0.7-1,1.2-1.3s1.1-0.5,1.8-0.5c0.6,0,1.1,0.1,1.5,0.3v0.9c-0.5-0.3-1-0.5-1.6-0.5c-0.5,0-0.9,0.1-1.3,0.3c-0.4,0.3-0.7,0.6-0.9,1s-0.3,0.9-0.3,1.5c0,0.8,0.2,1.5,0.6,2s1,0.8,1.7,0.8c0.6,0,1.2-0.2,1.7-0.6L330.3,233.8L330.3,233.8z"/><path fill="#FFFFFF" d="M333.8,228.1v6H333v-6h-2v-0.7h4.9v0.7H333.8L333.8,228.1z"/><path fill="#FFFFFF" d="M341.8,232c0,0.6-0.2,1.1-0.6,1.5s-0.9,0.6-1.5,0.6H337v-6.7h0.9v2.7h1.9c0.7,0,1.2,0.2,1.6,0.5C341.8,230.9,341.8,231.4,341.8,232z M341,232c0-0.4-0.1-0.7-0.4-0.9s-0.6-0.3-1.1-0.3h-1.7v2.6h1.7c0.5,0,0.8-0.1,1.1-0.3C340.8,232.8,341,232.5,341,232z M343.3,234.1v-6.7h0.9v6.7H343.3z"/><path fill="#FFFFFF" d="M303.8,231.7c-1,0.8-1.8,1.8-2.7,2.7c-0.3-0.4-0.7-0.8-0.9-1.3c-0.3-0.6-1.2,0.3-0.9,0.8c0.3,0.7,0.8,1.2,1.3,1.7c0.2,0.2,0.6,0,0.7-0.2c0.9-1.1,1.8-2.1,2.9-3C304.8,232.1,304.5,231.2,303.8,231.7z"/><path fill="#FFFFFF" d="M306.8,222.4h-2.6c-0.2-0.2-0.4-0.3-0.7-0.3h-1v-0.2c0-0.3-0.5-0.7-0.9-0.7s-0.9,0.3-0.9,0.7v0.2h-1c-0.3,0-0.6,0.1-0.7,0.3h-2.6c-0.3,0-0.5,0.2-0.5,0.5v14.3c0,0.3,0.2,0.5,0.5,0.5h10.4c0.3,0,0.5-0.2,0.5-0.5v-14.3C307.3,222.6,307,222.4,306.8,222.4z M306.3,236.7H297v-13.3h1.4l0,0h0.5c0.1,0.4,0.5,0.7,0.9,0.7h1.9h1.9c0.4,0,0.8-0.3,0.9-0.7h0.5l0,0h1.4L306.3,236.7L306.3,236.7z"/><rect x="297.8" y="225.1" fill="#FFFFFF" width="7.6" height="0.8"/><rect x="297.8" y="226.7" fill="#FFFFFF" width="7.6" height="0.8"/><rect x="297.8" y="228.4" fill="#FFFFFF" width="7.6" height="0.8"/><rect x="297.8" y="230.1" fill="#FFFFFF" width="7.6" height="0.8"/><rect x="260.3" y="101.4" fill="#FFFFFF" width="119.5" height="12.8"/><path fill="#363636" d="M279,108.5c0,0.4-0.1,0.7-0.4,0.9s-0.6,0.3-1,0.3h-1.2v-4.2h2.2v0.5H277v1.3h0.8c0.4,0,0.7,0.1,1,0.3C278.8,107.9,279,108.2,279,108.5z M278.5,108.5c0-0.5-0.3-0.8-0.9-0.8H277v1.5h0.7c0.3,0,0.5-0.1,0.7-0.2C278.3,109,278.5,108.8,278.5,108.5z"/><path fill="#363636" d="M282,108.8c0,0.3-0.1,0.5-0.3,0.7s-0.4,0.3-0.7,0.3h-1.3v-3h0.5v1.2h0.8c0.3,0,0.6,0.1,0.7,0.3C281.8,108.4,282,108.5,282,108.8z M281.5,108.8c0-0.3-0.2-0.5-0.6-0.5h-0.7v1h0.7C281.3,109.4,281.5,109.2,281.5,108.8z M283,109.8h-0.5v-3h0.5V109.8z"/><path fill="#363636" d="M286,109.7c-0.2,0.1-0.5,0.2-0.8,0.2s-0.5,0-0.7-0.2s-0.4-0.3-0.5-0.5s-0.2-0.5-0.2-0.8c0-0.5,0.1-0.9,0.4-1.2c0.3-0.3,0.6-0.5,1.1-0.5c0.3,0,0.5,0,0.7,0.2v0.5c-0.2-0.2-0.5-0.2-0.7-0.2c-0.3,0-0.6,0.1-0.8,0.3c-0.2,0.2-0.3,0.5-0.3,0.9c0,0.3,0.1,0.6,0.3,0.8c0.2,0.2,0.4,0.3,0.7,0.3s0.5-0.1,0.7-0.3L286,109.7L286,109.7z"/><path fill="#363636" d="M288.5,107.2h-0.9v2.6h-0.5v-2.6h-0.9v-0.4h2.3V107.2L288.5,107.2z"/><path fill="#363636" d="M291.8,108.2c0,0.5-0.1,0.9-0.4,1.2c-0.3,0.3-0.6,0.5-1,0.5s-0.7-0.2-0.9-0.5l0,0v1.8H289v-4.4h0.5v0.5l0,0c0.3-0.4,0.6-0.6,1-0.6s0.7,0.1,0.9,0.4C291.8,107.3,291.8,107.7,291.8,108.2z M291.3,108.2c0-0.3-0.1-0.6-0.2-0.8c-0.1-0.2-0.3-0.3-0.6-0.3c-0.3,0-0.5,0.1-0.7,0.3c-0.2,0.2-0.3,0.4-0.3,0.7v0.4c0,0.3,0.1,0.5,0.3,0.6c0.2,0.2,0.4,0.3,0.6,0.3c0.3,0,0.5-0.1,0.7-0.3C291.3,108.9,291.3,108.6,291.3,108.2z"/><path fill="#363636" d="M294.8,108.8c0,0.3-0.1,0.5-0.3,0.7s-0.4,0.3-0.7,0.3h-1.3v-3h0.5v1.2h0.8c0.3,0,0.6,0.1,0.7,0.3C294.8,108.4,294.8,108.5,294.8,108.8z M294.3,108.8c0-0.3-0.2-0.5-0.6-0.5H293v1h0.7C294.3,109.4,294.3,109.2,294.3,108.8z M295.8,109.8h-0.5v-3h0.5V109.8z"/><path fill="#363636" d="M299.3,109.8H299v-2.4c0,0.1-0.1,0.2-0.2,0.3l-1.4,2H297v-3h0.4v2.3l0.2-0.3l1.4-2h0.5v3.1H299.3z M299.3,105.3c0,0.1,0,0.3-0.1,0.3c0,0.1-0.1,0.2-0.2,0.3c-0.1,0.1-0.2,0.1-0.3,0.2c-0.1,0-0.3,0.1-0.4,0.1s-0.3,0-0.4,0s-0.2-0.1-0.3-0.2s-0.2-0.2-0.2-0.3c0-0.1-0.1-0.2-0.1-0.4h0.5c0,0.1,0,0.1,0,0.2s0,0.1,0.1,0.2c0,0,0.1,0.1,0.2,0.1s0.2,0,0.3,0s0.2,0,0.2,0s0.1-0.1,0.2-0.1c0,0,0.1-0.1,0.1-0.2s0-0.1,0-0.2H299.3z"/><path fill="#363636" d="M304.3,109.8h-0.5v-2.6h-1.5v2.6h-0.5v-3h2.5V109.8L304.3,109.8z"/><path fill="#363636" d="M307.5,108.4h-2.1c0,0.3,0.1,0.6,0.3,0.8c0.2,0.2,0.4,0.3,0.7,0.3c0.3,0,0.6-0.1,0.9-0.3v0.4c-0.3,0.2-0.6,0.3-1,0.3s-0.8-0.1-1-0.4s-0.3-0.6-0.3-1.2c0-0.3,0-0.6,0.2-0.8c0.1-0.3,0.3-0.4,0.5-0.6s0.4-0.2,0.7-0.2c0.4,0,0.7,0.1,0.9,0.4c0.2,0.3,0.3,0.6,0.3,1.1L307.5,108.4L307.5,108.4z M307,108c0-0.3-0.1-0.5-0.2-0.6s-0.3-0.2-0.6-0.2c-0.2,0-0.4,0.1-0.6,0.3s-0.3,0.4-0.3,0.6L307,108L307,108z"/><path fill="#363636" d="M311,108.2c0,0.5-0.1,0.9-0.4,1.2c-0.3,0.3-0.6,0.5-1,0.5s-0.7-0.2-0.9-0.5l0,0v1.8h-0.5v-4.4h0.5v0.5l0,0c0.3-0.4,0.6-0.6,1-0.6s0.7,0.1,0.9,0.4C310.8,107.3,311,107.7,311,108.2z M310.5,108.2c0-0.3-0.1-0.6-0.2-0.8c-0.1-0.2-0.3-0.3-0.6-0.3s-0.5,0.1-0.7,0.3c-0.2,0.2-0.3,0.4-0.3,0.7v0.4c0,0.3,0.1,0.5,0.3,0.6s0.4,0.3,0.6,0.3c0.3,0,0.5-0.1,0.7-0.3C310.5,108.9,310.5,108.6,310.5,108.2z"/><path fill="#363636" d="M314.3,108.4H312c0,0.3,0.1,0.6,0.3,0.8c0.2,0.2,0.4,0.3,0.7,0.3c0.3,0,0.6-0.1,0.9-0.3v0.4c-0.3,0.2-0.6,0.3-1,0.3s-0.8-0.1-1-0.4s-0.3-0.6-0.3-1.2c0-0.3,0-0.6,0.2-0.8c0.1-0.3,0.3-0.4,0.5-0.6s0.4-0.2,0.7-0.2c0.4,0,0.7,0.1,0.9,0.4c0.2,0.3,0.3,0.6,0.3,1.1L314.3,108.4L314.3,108.4z M313.8,108c0-0.3-0.1-0.5-0.2-0.6s-0.3-0.2-0.6-0.2c-0.2,0-0.4,0.1-0.6,0.3s-0.3,0.4-0.3,0.6L313.8,108L313.8,108z"/><path fill="#363636" d="M317,106.8l-1,1.5l1,1.5h-0.6l-0.6-1l-0.1-0.2l0,0l-0.7,1.2h-0.5l1-1.5l-1-1.5h0.6c0.4,0.7,0.6,1.2,0.7,1.2l0,0l0.8-1.2H317z"/><path fill="#363636" d="M320.3,108.3c0,0.5-0.1,0.9-0.4,1.2c-0.3,0.3-0.6,0.4-1.1,0.4c-0.4,0-0.8-0.1-1.1-0.4s-0.4-0.6-0.4-1.1s0.1-0.9,0.4-1.2c0.3-0.3,0.6-0.4,1.1-0.4c0.4,0,0.8,0.1,1,0.4C320,107.5,320.3,107.8,320.3,108.3z M319.8,108.3c0-0.4-0.1-0.7-0.3-0.9c-0.2-0.2-0.4-0.3-0.7-0.3c-0.3,0-0.6,0.1-0.7,0.3c-0.2,0.2-0.3,0.5-0.3,0.9c0,0.3,0.1,0.6,0.3,0.9c0.2,0.2,0.4,0.3,0.7,0.3s0.6-0.1,0.7-0.3C319.8,108.9,319.8,108.7,319.8,108.3z"/><path fill="#363636" d="M323.5,110.8H323v-1.1h-2.2v1.1h-0.4v-1.5h0.3c0.5-0.7,0.8-1.6,0.8-2.6h1.5v2.6h0.4L323.5,110.8L323.5,110.8z M322.5,109.4v-2.2h-0.7c0,0.8-0.3,1.5-0.7,2.2H322.5z"/><path fill="#363636" d="M328,109.8h-0.7l-1.3-1.4l0,0v1.4h-0.5v-3h0.5v1.4l0,0l1.2-1.4h0.6l-1.4,1.5L328,109.8z"/><path fill="#363636" d="M332,109.7c-0.2,0.1-0.5,0.2-0.8,0.2s-0.5,0-0.7-0.2s-0.4-0.3-0.5-0.5s-0.2-0.5-0.2-0.8c0-0.5,0.1-0.9,0.4-1.2c0.3-0.3,0.6-0.5,1.1-0.5c0.3,0,0.5,0,0.7,0.2v0.5c-0.2-0.2-0.5-0.2-0.7-0.2c-0.3,0-0.6,0.1-0.8,0.3c-0.2,0.2-0.3,0.5-0.3,0.9c0,0.3,0.1,0.6,0.3,0.8c0.2,0.2,0.4,0.3,0.7,0.3s0.5-0.1,0.7-0.3L332,109.7L332,109.7z"/><path fill="#363636" d="M334.5,107.2h-0.9v2.6h-0.5v-2.6h-0.9v-0.4h2.3V107.2L334.5,107.2z"/><path fill="#363636" d="M337.8,108.2c0,0.5-0.1,0.9-0.4,1.2c-0.3,0.3-0.6,0.5-1,0.5s-0.7-0.2-0.9-0.5l0,0v1.8H335v-4.4h0.5v0.5l0,0c0.3-0.4,0.6-0.6,1-0.6s0.7,0.1,0.9,0.4C337.8,107.3,337.8,107.7,337.8,108.2z M337.3,108.2c0-0.3-0.1-0.6-0.2-0.8c-0.1-0.2-0.3-0.3-0.6-0.3c-0.3,0-0.5,0.1-0.7,0.3c-0.2,0.2-0.3,0.4-0.3,0.7v0.4c0,0.3,0.1,0.5,0.3,0.6c0.2,0.2,0.4,0.3,0.6,0.3c0.3,0,0.5-0.1,0.7-0.3C337.3,108.9,337.3,108.6,337.3,108.2z"/><path fill="#363636" d="M340.8,109.8h-0.5v-0.5l0,0c-0.2,0.3-0.5,0.6-0.9,0.6c-0.3,0-0.5-0.1-0.7-0.3c-0.2-0.2-0.3-0.4-0.3-0.6c0-0.6,0.3-0.9,1-1l0.9-0.1c0-0.5-0.2-0.8-0.6-0.8c-0.3,0-0.7,0.1-1,0.4V107c0.1-0.1,0.3-0.1,0.5-0.2c0.2,0,0.4-0.1,0.6-0.1c0.7,0,1.1,0.4,1.1,1.1L340.8,109.8L340.8,109.8z M340.3,108.3l-0.7,0.1c-0.3,0-0.4,0.1-0.5,0.2s-0.1,0.2-0.1,0.4s0,0.3,0.2,0.3c0.1,0.1,0.3,0.1,0.4,0.1c0.3,0,0.4-0.1,0.6-0.3c0.2-0.2,0.2-0.4,0.2-0.6L340.3,108.3L340.3,108.3z"/><path fill="#363636" d="M344,109.8h-0.5v-1.4H342v1.4h-0.5v-3h0.5v1.2h1.5v-1.2h0.5V109.8z"/><path fill="#363636" d="M347.5,109.8H347v-2.4c0,0.1-0.1,0.2-0.2,0.3l-1.4,2H345v-3h0.4v2.3l0.2-0.3l1.4-2h0.5V109.8z"/><path fill="#363636" d="M351.3,110.8H351v-1.1h-2.5v-3h0.5v2.6h1.5v-2.6h0.5v2.6h0.4v1.5H351.3z"/><path fill="#363636" d="M354.3,109.8h-0.5v-0.5l0,0c-0.2,0.3-0.5,0.6-0.9,0.6c-0.3,0-0.5-0.1-0.7-0.3c-0.2-0.2-0.3-0.4-0.3-0.6c0-0.6,0.3-0.9,1-1l0.9-0.1c0-0.5-0.2-0.8-0.6-0.8c-0.3,0-0.7,0.1-1,0.4V107c0.1-0.1,0.3-0.1,0.5-0.2s0.4-0.1,0.6-0.1c0.7,0,1.1,0.4,1.1,1.1L354.3,109.8L354.3,109.8z M353.8,108.3l-0.7,0.1c-0.3,0-0.4,0.1-0.5,0.2s-0.1,0.2-0.1,0.4s0,0.3,0.2,0.3c0.1,0.1,0.3,0.1,0.4,0.1c0.3,0,0.4-0.1,0.6-0.3c0.2-0.2,0.2-0.4,0.2-0.6L353.8,108.3L353.8,108.3z"/><path fill="#363636" d="M358.3,109.8h-0.5v-2.5l-0.2,0.6l-0.8,1.9h-0.4l-0.8-1.9c0-0.1-0.1-0.3-0.2-0.6v2.5H355v-3h0.6l0.8,2c0,0.1,0.1,0.3,0.2,0.6l0.2-0.6l0.8-2h0.6L358.3,109.8L358.3,109.8z"/><path fill="#363636" d="M359.8,109.5c0,0.1,0,0.2-0.1,0.2c0,0-0.1,0.1-0.2,0.1s-0.2,0-0.2-0.1c0,0-0.1-0.1-0.1-0.2s0-0.2,0.1-0.2c0-0.1,0.1-0.1,0.2-0.1s0.2,0,0.2,0.1C359.8,109.4,359.8,109.4,359.8,109.5z M361.3,109.5c0,0.1,0,0.2-0.1,0.2c0,0-0.1,0.1-0.2,0.1s-0.2,0-0.2-0.1c0,0-0.1-0.1-0.1-0.2s0-0.2,0.1-0.2c0-0.1,0.1-0.1,0.2-0.1s0.2,0,0.2,0.1C361.3,109.4,361.3,109.4,361.3,109.5z M362.8,109.5c0,0.1,0,0.2-0.1,0.2c0,0-0.1,0.1-0.2,0.1s-0.2,0-0.2-0.1c0,0-0.1-0.1-0.1-0.2s0-0.2,0.1-0.2c0-0.1,0.1-0.1,0.2-0.1s0.2,0,0.2,0.1S362.8,109.4,362.8,109.5z"/><path fill="#565656" d="M372.3,107.1l0.2-0.2l1.3,1.3l1.3-1.3l0.2,0.2l-1.5,1.5L372.3,107.1z"/><path fill="#848484" d="M264.8,105.9v-1.3h1.3v1.3H264.8z M264.8,107.6v-1.3h1.3v1.3H264.8z M264.8,109.3V108h1.3v1.3H264.8z M264.8,111v-1.3h1.3v1.3H264.8z M265.3,105v0.4h0.4V105H265.3z M265.3,106.8v0.4h0.4v-0.4H265.3z M265.3,108.5v0.4h0.4v-0.4H265.3z M265.3,110.2v0.4h0.4v-0.4H265.3z M267,105h4.7v0.4H267V105z M267,107.2v-0.4h3.8v0.4H267z M270,108.5v0.4h-3v-0.4H270z M267,110.6v-0.4h3.8v0.4H267z"/><rect x="273.3" y="44.6" fill="#E3E3E3" width="20.5" height="20.5"/><path fill="#848484" d="M280,54.3c0.1,0,0.2,0,0.2,0c0.1,0,0.1,0.1,0.2,0.1c0,0,0.1,0.1,0.1,0.2c0,0.1,0,0.1,0,0.2s0,0.2,0,0.2s-0.1,0.1-0.1,0.2c0,0-0.1,0.1-0.2,0.1s-0.1,0-0.2,0s-0.2,0-0.2,0c-0.1,0-0.1-0.1-0.2-0.1s-0.1-0.1-0.1-0.2c0,0,0-0.1,0-0.2s0-0.2,0-0.2c0-0.1,0.1-0.1,0.1-0.2c0,0,0.1-0.1,0.2-0.1H280z M283.3,54.3c0.1,0,0.2,0,0.2,0c0.1,0,0.1,0.1,0.2,0.1s0.1,0.1,0.1,0.2c0,0.1,0,0.1,0,0.2s0,0.2,0,0.2c0,0.1-0.1,0.1-0.1,0.2c0,0-0.1,0.1-0.2,0.1s-0.1,0-0.2,0s-0.2,0-0.2,0c-0.1,0-0.1-0.1-0.2-0.1c0,0-0.1-0.1-0.1-0.2c0-0.1,0-0.1,0-0.2s0-0.2,0-0.2c0-0.1,0.1-0.1,0.1-0.2c0,0,0.1-0.1,0.2-0.1C283.3,54.3,283.3,54.3,283.3,54.3z M286.8,54.3c0.1,0,0.2,0,0.2,0c0.1,0,0.1,0.1,0.2,0.1c0,0,0.1,0.1,0.1,0.2c0,0.1,0,0.1,0,0.2s0,0.2,0,0.2c0,0.1-0.1,0.1-0.1,0.2c0,0-0.1,0.1-0.2,0.1s-0.1,0-0.2,0s-0.2,0-0.2,0c-0.1,0-0.1-0.1-0.2-0.1c0,0-0.1-0.1-0.1-0.2c0-0.1,0-0.1,0-0.2s0-0.2,0-0.2c0-0.1,0.1-0.1,0.1-0.2c0,0,0.1-0.1,0.2-0.1C286.8,54.3,286.8,54.3,286.8,54.3z"/><rect x="252.7" y="44.6" fill="#E3E3E3" width="20.5" height="20.5"/><path fill="#848484" d="M258.3,52.9v-0.6h9.1v0.6H258.3z M258.3,55.2v-0.6h9.1v0.6H258.3z M258.3,57.5v-0.6h9.1v0.6H258.3z"/></g></svg>