<svg version="1.1" xmlns="http://www.w3.org/2000/svg" xmlns:xlink="http://www.w3.org/1999/xlink" x="0px" y="0px" width="640px" height="336px" viewBox="0 0 640 336" enable-background="new 0 0 640 336" xml:space="preserve"><rect fill="#0099BC" width="640" height="336"/><g><path fill="#FAFEFA" d="M366.3,194c-1.6-7.1,6-9,12.4-7.4C381.8,194.1,372,196,366.3,194L366.3,194z M368.8,172.6c-3.4-7.2,3.2-10.3,7.2-7.1C380,168.7,377.3,175.5,368.8,172.6L368.8,172.6z M382,160.1l-2.9-1.9l-2.6,2.8c-5.7-1.2-10.9-0.2-12.8,4.4c-2.6,6.4,1.6,9,4.5,11.6c-5.6,4-4.3,3.9-1.1,7.4c-11.6,5.2-5.6,19.8,11.4,12.7c3.9-1.6,8.3-6.9,4.8-11.7c-3.9-5.3-11.5-0.3-14.1-4.6c1.3-4.1,7.6-1.8,11-5.7c3.3-3.8,2.3-8.8-0.3-11.8L382,160.1L382,160.1z"/><path fill="#FAFEFA" d="M302.2,192.1c-2,2.7-16.6,5-12.1-2.6c1.1-1.8,4.5-3.3,7.5-3.5C302.1,185.7,304.7,188.6,302.2,192.1L302.2,192.1z M294.4,164.6c6.4-2.1,9.3,6.5,4,8.6C291.4,176,288,166.7,294.4,164.6L294.4,164.6z M300.3,161c-6.1-1-10.8-0.4-13,4.3c-2.8,6.1,1.5,9.2,4.5,11.6c-1.8,1.2-6.1,2.3-2,6.9l0.8,0.8c-10.1,3.1-7.4,19.3,10.2,12.9c4.1-1.5,9.6-5.3,6.6-11.4c-2.5-5.1-10.6-2.2-14.6-4.7c0.8-5.2,7.1-2.2,10.7-6.2c3.5-3.9,2.4-8.6,0-12l2-2.7c-1.2-1.1-1.1-1.4-3-2.3L300.3,161L300.3,161z"/><path fill="#029EE3" d="M147.9,178.3c2.7,2.7,5.3,3,10,3.6c1.4-5.9,9.7-20.8,13.3-26.9c1.7-2.8,3.9-6,5-9l-10.8,0.2c-3.1,4.5-6.2,9.8-9.2,15.1c-3.8,6.7-4.4,9.1-7,14.9L147.9,178.3L147.9,178.3z"/><path fill="#FAFEFA" d="M482.1,185.3l5,0.2l0-12.7c6,2.1,9.1,6.5,11.8,12.7l5.3,0.1c-0.9-3.1-2.4-5.7-4.1-8.2c-2.5-3.7-4.5-3.4-6.4-6.2c1.7-1.7,3-3.3,4.6-5.3c1.5-1.8,3.2-4.3,4.5-5.7c-6.5-1.1-6.3,0.5-9.1,4.2l-6.6,8l0-25.6l-4.8-0.1L482.1,185.3L482.1,185.3z"/><path fill="#FAFEFA" d="M391.6,170c0.8-4.1,2.2-6.1,6.4-6.7c4.9-0.7,6.2,2.3,6.3,6.8L391.6,170L391.6,170z M408.8,182.9l0-4.4c-3.9,1.6-16.3,8.8-17.7-5.1l17.7,0.1c3.4-16.8-17.2-18.4-21.7-6.1C381.2,183.7,399.5,191.1,408.8,182.9L408.8,182.9z"/><path fill="#FAFEFA" d="M351.7,173.4l-0.1,6.6C343.8,187.2,338.2,176.4,351.7,173.4L351.7,173.4z M339,168c1.6-1.4,4.2-3.3,7.6-3.7c5.4-0.6,4.9,1.4,5.1,5.9c-5.6,1.2-12.3,4.1-13.3,9.3c-1.6,8.3,9.3,7.8,12.4,4.3c0.1,0.1,0.3,0.2,0.4,0.3l2.3,1.6c1.3,0.5,2,0.5,3.4,0.2c3.2-0.7,3.6-1.5,3.5-4.5c-5,2.3-3.6-0.9-3.6-6.4c0-3.2,0.4-8.5-0.7-11.4c-2.7-7-12.1-3.8-17.1-1.3L339,168L339,168z"/><path fill="#FAFEFA" d="M247.1,173.5c0.3,2.1,0.9,5.8-0.6,7.4c-1,1-4.8,2.3-6.4,0.9C235.7,177.9,244.1,174.1,247.1,173.5L247.1,173.5z M234.6,168c2.9-1.8,3-3.3,7.3-3.8c5.2-0.5,5.3,1.3,5.4,5.7c-4,1.7-11.7,3.5-13.2,9.2c-2.2,8.7,8.1,7.6,12.7,4.7c4,2.5,9.1,3.9,9.2-2.5l-3.2,1.1c-2.1-7.3,2.3-17.9-3.8-21.6c-2.8-1.7-7-1.8-10.2-0.8C234.3,161.5,234.6,163,234.6,168L234.6,168z"/><path fill="#FAFEFA" d="M327.1,182.8l1.3,2.7l4.1-0.1l0-25.3l-5-0.3c-0.1,5.3,0.3,11.4,0,16.5c-0.3,4.5-5.9,7.4-10,4.6c-2.4-2-1.4-17.2-1.4-21l-5,0.1c-0.1,15.3-2.6,25.9,7.9,26C323,186.1,324.2,184.7,327.1,182.8L327.1,182.8z"/><path fill="#FAFEFA" d="M461.6,162.9l-0.8-3l-4.8,0l0,25.7l5,0c0.3-5.2-0.1-10.5,0-15.6c0.2-6.3,7.1-7.5,9.8-5.9c4,2.9,1.6,15.7,2.1,21.6l4.9-0.1c0.1-4.5,0.6-18.5-0.8-21.8C474.4,157.8,464.9,158.6,461.6,162.9L461.6,162.9z"/><path fill="#FAFEFA" d="M265.6,162.9c-0.1-0.2-0.2-0.7-0.4-1.2c0-0.1-0.1-0.3-0.2-0.4l-0.4-0.9c0-0.1-0.1-0.3-0.2-0.5l-4.4,0l0,25.6h4.9c0.4-4.8,0.1-10.1,0.1-15c0-5.1,3.3-7.6,8.8-7c4.9,3.6,2.6,15.2,2.9,21.8l4.9,0.2c0.1-4.6,0.5-18.5-0.8-21.8C278.1,157.1,269.3,159.4,265.6,162.9L265.6,162.9z"/><path fill="#FAFEFA" d="M209.6,146.6c-0.9,3.1-0.6,33.9-0.3,39l22.2-0.3l-0.1-4.4l-16.9,0l-0.1-34.2L209.6,146.6L209.6,146.6z"/><polygon fill="#FAFEFA" points="421.3,185.5 443.4,185.4 443.4,180.8 426.6,180.8 426.3,146.6 421.3,146.6 "/><path fill="#FFFFFF" d="M168.2,195.9c-4.7-0.6-7.3-0.9-10-3.6c-8.4-8.8,14.9-39.1,17.7-46.3l-10.9,0.3c-5.6,11.9-40.1,54.2,0.8,57.2c6.3,0.5,23.6,0.9,28.8-1.4l0.3-7.1C185.8,195.9,177.5,197,168.2,195.9L168.2,195.9z"/><path fill="#FAFEFA" d="M157.9,181.8c-4.7-0.6-7.3-0.9-10-3.6c-8.4-8.8,14.9-39.1,17.7-46.3l-10.9,0.3c-5.6,11.9-40.1,54.2,0.7,57.2c6.3,0.5,23.6,0.9,28.8-1.4l0.4-7.1C175.5,181.9,167.2,183,157.9,181.8L157.9,181.8z"/><g><path fill="#FFFFFF" d="M447.1,155v-5h4.8v5H447.1z M447.1,185.4v-25.6h4.8v25.6H447.1z"/></g></g></svg>