<svg version="1.1" xmlns="http://www.w3.org/2000/svg" x="0px" y="0px" width="640px" height="336px" viewBox="0 0 640 336" enable-background="new 0 0 640 336"><rect fill="#D5D5D5" width="640" height="336"/><g><path fill="#0070BA" d="M334.4,156.6c1.9,2.3,0.5,8.2,1.6,11.2c1.2,3.5,3,5.8,4,9.7h-10.9c0.9-3.4,2.6-6.2,3.9-9.4C334.4,164.4,332.9,159.5,334.4,156.6L334.4,156.6z M265.8,162.2c6.7-0.5,3.7-1.2,8.9-10.8c1-1.8,2.9-4.7,3.2-6.1c1.2-4.8-1.6-6.4,3.2-6.9c1.8,2.4,0.5,4.8,1.7,7.8l6.2,12.2c1.7,4.1,1,3.4,5.8,3.5c-2.1,1.2-1.4,0-3.4,1.3l4,11.6c-3.4-3.2-4.2-8.4-7.3-12.1l-6.7-0.3c-0.4,3.1,0.2,4.1-1,6.3c-0.1-0.2-0.3-0.7-0.3-0.6l-0.9-5.4c-7.6-1.1-7-0.3-9.7,5c-1.4,2.7-4.6,7.4-4.9,9.7l4.5-14.3L265.8,162.2L265.8,162.2z M296.7,155.7c3.5,1.4,13.4,19.7,14.8,24.6c-0.9-0.7-0.6-0.3-1.4-1.2C307.7,176.5,294.7,158,296.7,155.7L296.7,155.7z M327.5,142.5c0,0-0.6-2,3.4-0.7c0.3,0.1,3.2,1.7,3.5,1.9c3.2-1.2,3.2-2.7,7.6-1.9c0.8,4.3-0.8,4.7-1.9,7.7c0.2,0.4,1.4,2.3,1.6,2.8c1.6,3.9-0.1,3.8-0.5,4.1c0,0,0.4,1.5-3.1,0.3c-1.1-0.4-2.4-1.3-3.7-1.8c-8.2,4-9.4,2.6-5.4-5.4c-0.6-1.3-1.2-2.1-1.6-3.2C325.3,141,327.5,142.5,327.5,142.5L327.5,142.5z M370.7,156.3c0,8-1.3,12.6,1.5,17c0.2,0.4,0.8,1.2,1.1,1.9c1,2.1,0.7-0.6,0.7,2.1l-30.8,0.2c-0.2-2.2,0.6-2.4,1.1-5.1l17.7-0.1l0.1-10.4c-10.8,0,6.2,3.1-15.4,3c-0.1-0.2-0.3-0.7-0.3-0.6c-0.1,0.2-2.2-2.8-2.4-5c0.8-0.5,0.4-0.5,2-0.8c0.9-0.2,1.3-0.2,2.2-0.3l13.7,0.1c0.6-3.9,0.6-2.9-1.5-4.9c-1.5-1.4-2.5-2.1-4.7-2.9c-1.3,2.9-1.4,2.5-3.6,4.8c-2.7-0.7-5.2-2.8-6.3-5.2c1.3-2.4,2.2-2.8,3.4-5.4c-3.9-3.5-9.9-6.7-7.6-9.2c2.8-3,3.5,0.7,5.8,1.7c4.3,1.7,1.1-2.5,5.4,0.6c0.4,0.3,5.1,4.3,5.1,4.3c3.7,4.5-2.5,1.2,2.1,5.5C363.3,150.5,368,153.2,370.7,156.3L370.7,156.3z M401.6,123.8c8.9,9.1,15.3,31.5,15.8,47.9c0.6,19.6-5.1,37.5-13.5,51c-40.4,64.7-133.1,57.6-167.1,0.4c-8.5-14.3-14.4-30.2-13.9-50.6c0.4-16.5,6.9-39.5,15.9-48.7c16.4,5.9,11.6,8.6,9.4,14.2c-2.4,6.2,2,5.1,0.6,9.7c-1.1,3.5-2.5,6.3-3.4,10.6c-7.1,31.1,6.6,60.7,31.3,77.5c11.1,7.5,26.6,12.9,43.2,13c34.7,0.3,58.9-20.4,69.8-42.7c9.7-19.8,9.2-37.1,2.2-57.8c-1.8-5.3,2.5-3.8,0.6-9.7C390.6,133.1,384.2,129.8,401.6,123.8L401.6,123.8z M291.7,131.4l20,0.1v39.3C308.8,167.3,293.9,137.1,291.7,131.4L291.7,131.4z M369.1,137.9c28.5,3.6,8.4-11.3,15.6-16.1c2.4-1.6,10.6-4.2,14.1-6c7.6-3.9,8.4-6.3,11-8c3.9,7.1,2.2,9-4.5,12.3c-4.2,2.1-10,4.6-13.9,6.9c-7.5,4.6,0.3,9-0.2,14.6c-0.3,3.3-2.4,4.2-5.4,5.4c-2.4,1-4.9,2-7.5,2.3l-7.3-8.8c-0.3-0.4-0.8-0.8-1.1-1.2C369.1,138,370.1,139.3,369.1,137.9L369.1,137.9z M230.4,107.7c3.1,2.1,2.9,3.8,11.1,8c3.5,1.8,11.6,4.3,14.1,6c7.5,5-13.3,19.2,15.7,16.1c-0.9,1.3-0.1,0.2-1.1,1.3c-0.6,0.6-0.9,0.9-1.5,1.6c-1,1.1-1.6,1.7-2.6,2.8c-2,2.2-3,4.1-5,5.6c-26.3-6.7-0.1-15.2-12.9-22.4c-4.6-2.6-9.7-4.7-13.9-6.9C227.7,116.2,226.8,114.8,230.4,107.7L230.4,107.7z M380.7,100.8c-2.9,2.5-7.2,3-8.6,6.7c-1.3,3.4,3.1,11-3.2,6.8c-8.1-5.4-0.8-13.4,4.2-18.2C376.1,97.4,377.9,99.3,380.7,100.8L380.7,100.8z M259.7,100.8c2.6-1.5,4.4-3.3,7.6-4.7c6.7,7.2,10.8,11,5.8,16.7c-0.6,0.6-1.7,1.8-2.5,2c-5.9,1.8,0.8-4.2-3.6-9.1C265.3,103.8,262,102.8,259.7,100.8L259.7,100.8z M328.2,93.7l2.8,0.4l4.3-1.3c1.1,1,0.9-1.9,1,1.9c6,1.4,10.2,2.3,15.3,5.2c6.1,3.4,6.1,4.5,9.1,11c0.1-0.1,0.3-0.3,0.4-0.4s0.3-0.3,0.4-0.4l2.1-2c1,4.5,4.1,10.1,10,7.8c2.4-8.7-7.4-7,11.1-14.3c10.4-4.1,7.6-6,12.8-12.9c1.6,2.7,5,7.1,5.6,9.8c-6.7,9.9-23.8,13.2-25.3,16.2c-0.6,5.9,2.9,4.4,2.6,9.7c-3.3,3.5-7.9,3.7-13.7,2.1c-5.9-1.6-6.4-3.6-9.1-8c-2,2.5-2.7,5.8-3.7,7.1c-1.3,1.8-0.3,1.9-4.1,0.5c0.7-5.8,6.2-9.7-2.1-14.6c-3.7-2.2-10.8-4.7-16.2-4.7c-0.8,1.6-0.7,0.9,2.2,1.6c18.8,4.2,18.2,6.2,14.7,16.5c-3.6-0.5-7.8-2.3-11.7-3.2c-4.4-1-8.4-1.4-13-1.7l-0.1,62.4l65.7-0.1c0.6-16.3-6.5-23.7-9.1-31.4l9.8-4c4.1,14.4,7.4,21.7,4.7,38.7c-9.9,62.1-92.5,85.4-134.9,32.3c-6.3-7.9-11.8-19.1-13.8-31.6c-2.9-17.6,0.3-24.6,4.5-39.3l9.9,3.7c-3.8,10.4-8.9,12.5-9.3,32.1h66.4v-62.4l-0.7-0.2c-10.2-0.6-16.4,3.3-24.8,4.7c-3-8.2-4.9-13.7,16.1-16.9l-1.2-1.2c-6.8,1-21,4.4-18.4,13.6c1.4,5.1,4.1,3.9-0.4,6.6c-3.2-1.6-2.3-4.8-5.3-8.4c-2.8,4.3-3.6,6.5-9.7,8c-6.1,1.5-10.3,1.2-13.2-2.6c0.4-5.1,3.2-3.7,2.7-9.2c-1.6-3.3-17.8-5.7-25.6-16.4l6-9.6c3,4,2.1,9,13.4,13.1c17.6,6.5,8.5,6.3,10.5,14.1c5.4,2.4,9.1-3.1,10-7.9c0.2,0.2,0.4,0.4,0.6,0.5l2.3,2.4c2.7-6.1,3-7.5,8.6-10.8c3.3-1.9,9.1-4.2,13.6-4.9c0.8-5,4.1-9.7,8.9-10.4c7.9-1.1,5.6,7.2,11.5,5.3c0.8-0.7,0.5-2.3,0-3.4l-4.8-7.6c-8.8-0.6-20.7,2.1-28.1,5c-13.9,5.4-13.1,9.3-18.2,14.2c-2.6-4.6-10.1-7.5-2.4-14.7c24.7-23,82.7-21.1,103.5,0.8c5.5,5.8-0.4,11-3.8,14c-2.9-7.3-10.3-12-18.3-14.9c-6.9-2.5-19.9-5.4-27.7-4.1C325.2,82.6,331.6,86.8,328.2,93.7L328.2,93.7z M418.5,185.8v-21.4c-0.7-1.8-1.9-12.7-5.6-22.5c-2.9-7.5-6.1-12.8-9.5-18.8c2.5-2.4,8.1-3.6,9.6-7.2c2.1-5.2-6-15-10.3-21.7c-1.6-2.5-4.7-7.7-6.4-9.4c-1.9,7.3-3.3,10.5-8.6,13.7c-4.5,2.7-6,2.9-13.4-3.9c3.2-6.7,2.1-8.3-2.8-12.5c-16.4-14.3-33.8-13.5-39.4-16h-24.6c-6.3,2.9-22.9,2.1-39.3,16.4c-1.4,1.2-3.4,3.1-4,5.4c-1,4.6,1,3.6,1.6,7.4c-7.2,3.5-6.6,7.7-13.8,2.9c-5.1-3.4-6.3-6.3-8-13.5l-13,19.8c-10,15.7,0.3,12.4,6,18.6c-7.1,12.8-12.4,22.1-14.7,39.9c-2.2,17,0.6,34,6.7,47.9c10.6,24.3,30.8,44.1,57.7,53.4c51.5,17.9,107.8-8,126.3-56.7C415.1,201.6,416.9,189.4,418.5,185.8L418.5,185.8z"/><path fill="#FEFEFE" d="M318.5,262.5c-0.2-3.1-0.7-6.5,0.2-9.4c3.5-0.1,3.4,1.8,4.2,4.4l0.9-1.6c2.1-4.2,0.3-2.9,4.2-3.1v9.6c-2.5,0-1.1-0.2-2.8-0.2L318.5,262.5L318.5,262.5z M308.2,261.8c-1-2.4-0.3-7.9,0.9-9.6c2.5,0.8,1.2,1.5,2.9,3.6c1-2.2,0.8-2.7,3.9-2.8c1,2.5,0.1,7.5-0.7,9.6c-3.3-0.7-1.3,0-2.2-1.5c-0.1-0.2-0.3-0.9-0.4-1.1c0-0.1-0.2-0.3-0.2-0.5s-0.1-0.4-0.3-0.5C311,261.1,311,261.7,308.2,261.8L308.2,261.8z M296.6,250.3c1.5,9.2-6.6,10.2-8.6,5.7C285.6,250.8,290.9,245.6,296.6,250.3L296.6,250.3z M359.1,253.3l-0.6,1.6c-4.2-0.5-0.5-1.1-4.7-0.5c-1.3,2.9,0.3,1.6-2.3,2.8c-1.2-1.8-0.9-2.5-1-5.3c0-6.5,1.6-6.2,4.9-2.4C356.5,250.9,358.2,252.4,359.1,253.3L359.1,253.3z M336.8,251.7l1.6,7.8c-0.3,1.9,0.1,0.5-0.8,1.6c-2.2-0.9-1.2,0.6-2.1-3.3c-0.8-3.6,0.6-2.3-1.8-3.4c-2.8,3.6,2.3,5.3-1.5,7.6c-2.4-1.7-2.3-6.6-2.6-9.6L336.8,251.7L336.8,251.7z M296.7,259.8c1.2-5.2,2.1,1.3,3.7-9l6.3,1.3c0,2.9-0.3,8-3.1,9.4c-2.3-3.2,0.9-4.3-0.8-7.2C301.1,258.1,301.3,260.8,296.7,259.8L296.7,259.8z M348.2,258.6c-2.7-0.8-1.5-0.5-2.7-3.3c-0.5,0.9-0.9,2.4-1.1,2.7c-0.9,1.7-0.3,1.2-2.2,2c-1.8-2-3.4-7.2-2.6-9.6c2.1,0.4,0.9-0.1,2.2,1.1c0.2,0.2,0.5,0.9,0.6,1l0.6,1.1c1-3,0.2-3.6,3-4.7C347.4,250.4,349.9,256.1,348.2,258.6L348.2,258.6z M273.4,248.7c0.1-0.1,0.3-0.3,0.4-0.4c2.3-3,1.9-10,9.6-3.3c-0.5,1.9-1.3,3.2-2.1,4.7c-1.5,2.7-1.5,2.6-3.2,3.3c-1.1-1.8-0.6-2.4-0.3-3.8c-2.5,1.3-2.4,2.1-5,0.4L273.4,248.7L273.4,248.7z M359.1,253.3c0.9-5.7-0.6-4.4-1.6-9.3l5.5-2.2c1.5,1.9,1.9,3.6,3.5,5c1.3,1.1,1.1-0.3,2.1,1.8c1.7,3.3-0.3,2.5-0.4,2.6c-2.6,0.7,0.1-2-3.9,0.4c-3.6,2.2,0.5,1.2-2.9,3.6c-0.2-0.1-0.4-0.3-0.5-0.4L359.1,253.3L359.1,253.3z M264.3,244.2c0.6-2,11.4-12,8.4-0.1c-0.1,0.6-0.7,2.7-0.9,3c-0.9,1.8-0.4,0.9-1.4,1.5c-1.1-1-0.6-0.7-1.1-1.6C265.7,240.5,269.5,247.3,264.3,244.2L264.3,244.2z M371.9,245.3c-0.6,1.4-0.3,1.9-1.9,3c-1.8-1.8-3.2-7.6-2.5-9.8c2.2-0.9,5.1,1.3,7.2,3.2c1.4,1.2,1,0.5,1.5,2.4C372.4,245.9,373.1,242.4,371.9,245.3L371.9,245.3z M257.5,238.8c1-3,3.8-5.7,6-7.4c1.7,1.1,0.6,0.7,1.2,1.5c2.4,2.8,1.5,0.7,4,2.9c-0.9,1,0.8,0.5-2.3,1.3c-0.4,0.1-2.2,0.2-2.8,0.3c0.1,3,0.8,4-0.8,5.8c-2.4-1.6-1.5-0.6-1.8-4.6C258.7,240.1,259.9,240.2,257.5,238.8L257.5,238.8z M258,233.3c-1.8,6.1-10.2-0.7-5.2-5.8c4.6-4.7,11.3,1.4,6.8,5.3c-2.6-1.7-0.9-0.7-1.4-4.2c-3,0.2-3.6,0.5-4.2,3.3L258,233.3L258,233.3z M379.3,228.1c4-0.4,3.3,1.8,7.1,3.9c-1.1-5.7-3.5-2.4-4.1-7.1c3.2-0.2,5.2,2.2,7.9,6.3l-7,7.5c-2.4-1-2.8-1.8-4.5-3.4c-1.8-1.7-2.5-1.5-2.4-4c4.8-0.6,3,3.4,7.2,3.3C382,230.6,379.6,232.1,379.3,228.1L379.3,228.1z M390.8,222l5.9,0.1c-0.9,2.5-1.2,2.2-4.3,2.8c1,1.4,1.2,1.4,0.9,3.3c-3.2-0.4-7-3.4-8.3-5.5c1.3-1.5,0.8-1.4,2.8-0.9c-0.1-3.8-0.7-2.9,1.5-4.4C390.6,219.3,390,219.2,390.8,222L390.8,222z M243.7,223.1c0.5-2.2,2-2.7,3.8-4.2c3.6-2.8,2.4-1.1,5.7-2.2l3,4.2c-1.8,2.7-0.4,1.9-3.8,4.6c-6.4,5.1-5.2,1.9-5.4,1.8c-0.1-0.8-0.3-0.4,0.4-1.4l1.6-1.8C245.6,224.1,245.9,224.6,243.7,223.1L243.7,223.1z M390.9,216.5c-0.3-3.8,0.3-4.2,1.9-6.3C405.7,208.8,401.8,226.4,390.9,216.5L390.9,216.5z M238.2,214.1c0.5-2.8-1-0.6,1.3-2.4c1.8-1.4,5.5-3,7.3-2.6c0.7,3.1,0.2,1.2-2.4,3.7l5.2,0.9c-0.7,3.3-1.5,2.7-4.1,4c-3.5,1.8-6.8,2.3-3.6-1.5c0.1-0.1,0.4-0.2,0.5-0.5s0.4-0.3,0.5-0.3L238.2,214.1L238.2,214.1z M396.8,200.7c3.4,0.4,8,1.9,9.2,4.1c-2.2,2.7-0.3,1-7.6-0.9c2.2,3.5,6.7,2.9,4.8,7.7c-4.3-1.4,0-0.8-3.7-3.2c-1.5-1-2.6-1.1-4.5-2.2L396.8,200.7L396.8,200.7z M240.3,208.7c-5.2,4.1-8.8-6.3-1.9-8.1c5.4-1.4,8.9,5.5,3.7,7.8c-1.1-1.9-0.1-2.3-0.4-4.9c-3.2-0.3-3.3-0.7-4.6,2.2C239.3,208.9,238.3,205.1,240.3,208.7L240.3,208.7z M403.6,193.1l4.4,0.7c0.8,3.1,0.3,3.8-0.5,7c-3,0.3-7.6-0.6-9.4-2.9c1.8-2.6,0.1-1.1,3.6-1.3L403.6,193.1L403.6,193.1z M231.3,194.1c7-7.8,14.3,2,7.5,5c-1.2-2-0.1-2.7-0.2-5.1l-4.6,0.6c0.7,6.4,1.1-0.5,2.6,4.9C232.5,201.4,231.2,198.2,231.3,194.1L231.3,194.1z M231.9,181.5c6.5-3.3,10.4,5.4,4.7,8.1C230.5,192.5,225.7,184.6,231.9,181.5L231.9,181.5z M403.6,187.4c0.1-0.3,0.4-0.2,0.6-0.3l-1.7-1.7c-1.1-1.4-0.6,1.2-1.1-2.5c5.6,0.2,8.2,0.3,9.6,2.7c-1.6,2,0.4,0.6-2.1,1.1l-1.5,0.2c-0.1-0.2-0.3,0.1-0.5,0.2c0.7,2.3,0.2,0.5,1.9,2.1c1.5,1.4,0.6-0.4,1.3,1.8c-1.9,1.2-8.7,0.9-9.6-2.1C402.6,186.9,403,188.8,403.6,187.4L403.6,187.4z M405,178.1c0.1-0.3,0.4-0.2,0.6-0.3c-1.9-0.8-6.1-3.3-2.4-4.4c1.7-0.5,7,0,8.5,0.2c-0.8,4.6,0,1.1-3.8,3.2c2.1,1.2,3.7,1.4,3.4,4.5c-3.5,0.4-7.9,0.8-9.5-1.2c0.8-1.6-0.1-0.5,1.5-1.3L405,178.1L405,178.1z M231.3,175.4c-2.4-2.4-2.4,2.1-2.3-3c7.8-2.5,11.8-0.2,8.4,7l-4-0.1C232.5,178.2,232.1,176.2,231.3,175.4L231.3,175.4z M406.1,166.8c2.4-2,1.6-2.8,4.8-3.7c-0.1,3.6,0.5,2.2-1.6,3.9c3.8,4.4-0.5-2.7,1.8,2l0.2,1.5c-2.9,0.6-6.9,1.2-9,0.5c-0.9-2.3-1.2-1.4,1.3-2.8c-1.7-1.5-2-1.6-2-4.5L406.1,166.8L406.1,166.8z M238.4,163.6c0.9,2.7,0.4,4.9-0.1,7.3c-2.6-0.8-1.4,0.1-2.2-2.2c-0.4-1.1,0.6-0.1-0.4-2.2c-1.5,3.4,1,2.4-2.3,3.6c-1.8-2.7,0.2-1.7-1.4-4.3c-1.4,4,0.3,3.4-2.4,4.5c-1.2-2.2-0.7-4.9,0-7.3L238.4,163.6L238.4,163.6z M402.1,162.4c-4.7-6.3-0.6-10.4,6.5-8.5C412,159.8,409.9,163.2,402.1,162.4L402.1,162.4z M233.4,161c-6.3-1.6-3.2-10,3.7-7.8c4.5,1.4,4.9,9.6-1.9,8.3c0.9-4.3,0.5-0.3,2.6-3.7c-1.4-2.3-2.2-2.5-4.9-1.4C233.1,160.5,234.8,157.5,233.4,161L233.4,161z M397.7,147c1.9-1.9,4.6-3.2,7.9-3.1c1,1.6,2,3.5,2.4,6.5l-9.1,2.9C398.2,150.7,397.5,150.2,397.7,147L397.7,147z M233.3,150.3c-0.5-3.3-0.1-4.7,1.7-7.4c3,0.4,6.4,1.6,8.6,3.3c-0.5,2.7-1.2,4.3-2.8,6L233.3,150.3L233.3,150.3z M401.6,123.8c-17.3,6.1-10.9,9.4-9.2,14.7c1.9,5.9-2.4,4.4-0.6,9.7c7,20.7,7.5,37.9-2.2,57.8c-10.9,22.3-35.1,43-69.8,42.7c-16.6-0.1-32.1-5.5-43.2-13c-24.7-16.8-38.3-46.4-31.3-77.5c1-4.2,2.4-7.1,3.4-10.6c1.4-4.6-2.9-3.5-0.6-9.7c2.1-5.6,7-8.3-9.4-14.2c-9,9.1-15.5,32.2-15.9,48.7c-0.5,20.4,5.3,36.3,13.9,50.6c34,57.2,126.7,64.2,167.1-0.4c8.4-13.5,14.2-31.4,13.5-51C416.9,155.3,410.4,132.9,401.6,123.8L401.6,123.8z"/><path fill="#FEFEFE" d="M301.9,95.2c0.7,6.3,2.1,7.5,5.1,11.5l1.2,1.2c-21.1,3.2-19.1,8.7-16.1,16.9c8.4-1.4,14.6-5.3,24.8-4.7l0.7-0.7v-3.6l-3-1.5c-2.2-1.1-0.2,0.8-2.1-1.4c1.9-2.1,3.7-1.3,7.4-1.3c3.1,0,5.9-0.2,8.5,0.4c-0.9,4.2-0.6,0.5-4.5,3.7l-0.1,4c4.7,0.3,8.7,0.8,13,1.7c3.9,0.9,8.1,2.7,11.7,3.2c3.6-10.3,4.1-12.3-14.7-16.5c-2.9-0.6-3.1,0-2.2-1.6c2-4.6,3.5-5.5,4.7-12.1c-0.1-3.8,0.2-0.9-1-1.9l-4.3,1.3l0.8,1.5c-3.6,2.1-6.2,6.9-11.1,7.7c1.2-2.9,1.9-3,3.9-5c1.8-1.8,2.2-2.8,3.8-4.7c3.5-6.9-3-11.1-5.7-14.4c7.8-1.3,20.8,1.6,27.7,4.1c8.1,2.9,15.5,7.6,18.3,14.9c3.4-3,9.3-8.2,3.8-14C351.6,62,293.7,60.1,269,83.1c-7.7,7.2-0.2,10.1,2.4,14.7c5-4.9,4.3-8.8,18.2-14.2c7.4-2.9,19.3-5.5,28.1-5l4.8,7.6c0.5,1.1,0.8,2.7,0,3.4c-5.8,1.8-3.5-6.4-11.5-5.3C306,85.5,302.7,90.2,301.9,95.2L301.9,95.2z"/><path fill="#FEFEFE" d="M323.3,245.3l-0.1-56.3c4.6-1.1,56.6-0.4,65.7-0.4C386.1,222.5,350.4,246.9,323.3,245.3L323.3,245.3z M251.4,188.5h66v56.9C283.4,244.5,254.3,220.1,251.4,188.5L251.4,188.5z M389.2,182.2c-1,0.8-0.3,0.9-3.8,0.9L373,183c-10.3,0-44.2,0.7-49.7-0.3c-1.9-5.3-0.3-52.2-0.7-62.4l-5.1-0.1v62.4h-66.4c0.4-19.6,5.5-21.7,9.3-32.1l-9.9-3.7c-4.2,14.7-7.4,21.7-4.5,39.3c2,12.6,7.5,23.7,13.8,31.6c42.3,53.1,124.9,29.8,134.9-32.3c2.7-17.1-0.5-24.3-4.7-38.7l-9.8,4C382.8,158.5,389.8,165.9,389.2,182.2L389.2,182.2z"/><path fill="#0070BA" d="M332.6,217.1h-0.4c-1.6-0.1-1.2,0.3-0.9-1.5c-0.6-4.5-1.7-6.3-0.5-11.3c-0.2-3.3-0.3-1.1,0.7-1.9c1-2.7,1.6-3.9,3.6-5.2c-0.4-3.3-0.3-1.1,0.9-1.8l4-2.3c0.2-0.2,0.5-0.4,0.6-0.5l1.3-0.7c2.4-1,0-0.1,2-0.4l9.1,0.9l-3.9-2.2c0.2-0.1,0.4-0.1,0.5-0.2c6.5-1.1,17.1,7.6,16.6,19.4c-0.7,16.6-16.8,16.9-18.4,19.3c1.6,4.6,4.3-0.1,8.7,4.2h-19.3c3.2-3.3,6.1-1.2,9.2-3.5c-2-4.8-5.9,1.2-15.4-10.2C332.9,215.7,332.7,221.3,332.6,217.1L332.6,217.1z M323.3,245.3c27,1.7,62.7-22.8,65.6-56.7c-9.2,0-61.1-0.7-65.7,0.4L323.3,245.3L323.3,245.3z"/><path fill="#0070BA" d="M265.7,211c1.7-3.6,5.4-7.6,7.9-10.8c2.2-2.8,5-7.3,7.7-9.7c8.4,2.7,15.5,4.3,17.2,10.2c7.6,0.3,12.1,9.1,16.2,16.4c-1.6,2.8-13.4,16.7-15.6,18.6c-2.7-1.3-5.6-4.5-7.7-7c-6-7.3-3.9-3.4-8.1-6.6c-2-1.5-1.2-2.1-4-3.8C274.7,215.6,269.8,215.2,265.7,211L265.7,211z M251.4,188.5c2.9,31.6,32.1,55.9,66.1,56.9v-56.9H251.4L251.4,188.5z"/><path fill="#FEFEFE" d="M289.9,221.6c-1.7-3-1.4-23.3-1.3-23.8c0.5-2.5-0.3-1.5,1.9-2.3C291.8,197.7,292,219.8,289.9,221.6L289.9,221.6z M265.7,211c4.1,4.1,9.1,4.5,13.6,7.3c2.8,1.7,2,2.3,4,3.8c4.2,3.2,2-0.8,8.1,6.6c2,2.5,4.9,5.7,7.7,7c2.3-1.9,14-15.8,15.6-18.6c-4-7.4-8.6-16.1-16.2-16.4c-1.7-5.9-8.8-7.5-17.2-10.2c-2.7,2.4-5.5,6.9-7.7,9.7C271.1,203.5,267.4,207.4,265.7,211L265.7,211z"/><path fill="#FEFEFE" d="M372.2,173.3c-2.7-4.5-1.4-9-1.5-17c-2.7-3-7.4-5.7-10.6-8.7c-4.6-4.2,1.6-1-2.1-5.5c0,0-4.8-4-5.1-4.3c-4.3-3.1-1.2,1.1-5.4-0.6c-2.3-0.9-3-4.7-5.8-1.7c-2.3,2.5,3.8,5.7,7.6,9.2c-1.2,2.6-2.1,3-3.4,5.4c1.2,2.5,3.7,4.5,6.3,5.2c2.2-2.2,2.3-1.9,3.6-4.8c2.2,0.7,3.2,1.5,4.7,2.9c2.1,1.9,2.1,0.9,1.5,4.9l-13.7-0.1c-1,0.1-1.3,0.1-2.2,0.3c-1.6,0.4-1.2,0.3-2,0.8c0.3,2.2,2.3,5.3,2.4,5c0.1-0.1,0.2,0.3,0.3,0.6c21.5,0.1,4.6-3.1,15.4-3l-0.1,10.4l-17.7,0.1c-0.5,2.7-1.3,2.9-1.1,5.1l30.8-0.2c0-2.7,0.3,0-0.7-2.1C373,174.5,372.4,173.7,372.2,173.3L372.2,173.3z"/><path fill="#FEFEFE" d="M282.9,118.5l-3.1-7.6l-2.3-2.4c-0.2-0.1-0.4-0.4-0.6-0.5c-1,4.8-4.6,10.3-10,7.9c-2.1-7.9,7.1-7.6-10.5-14.1c-11.2-4.2-10.3-9.1-13.4-13.1l-6,9.6c7.9,10.7,24,13.1,25.6,16.4c0.6,5.6-2.3,4.2-2.7,9.2c2.9,3.8,7.1,4.1,13.2,2.6C279.3,125,280,122.8,282.9,118.5L282.9,118.5z"/><path fill="#FEFEFE" d="M360.6,110.9l-3,7.5c2.7,4.4,3.2,6.3,9.1,8c5.8,1.6,10.4,1.4,13.7-2.1c0.3-5.3-3.1-3.8-2.6-9.7c1.5-2.9,18.6-6.3,25.3-16.2c-0.6-2.7-4-7.1-5.6-9.8c-5.2,6.9-2.4,8.9-12.8,12.9c-18.5,7.3-8.8,5.6-11.1,14.3c-5.9,2.2-9.1-3.3-10-7.8l-2.1,2c-0.1,0.1-0.3,0.3-0.4,0.4C360.9,110.5,360.7,110.7,360.6,110.9L360.6,110.9z"/><path fill="#D9251D" d="M369.1,137.9c1,1.4,0,0.1,1,1.3c0.3,0.4,0.7,0.8,1.1,1.2l7.3,8.8c2.6-0.3,5-1.3,7.5-2.3c3-1.2,5.1-2.1,5.4-5.4c0.5-5.6-7.3-10,0.2-14.6c3.9-2.4,9.7-4.8,13.9-6.9c6.6-3.3,8.3-5.2,4.5-12.3c-2.7,1.7-3.5,4.1-11,8c-3.5,1.8-11.8,4.4-14.1,6C377.5,126.6,397.6,141.4,369.1,137.9L369.1,137.9z"/><path fill="#D9251D" d="M270.2,139.1c1-1.1,0.1,0,1.1-1.3c-29,3.1-8.2-11.1-15.7-16.1c-2.5-1.7-10.6-4.2-14.1-6c-8.1-4.2-8-6-11.1-8c-3.7,7.1-2.8,8.5,3.9,12.1c4.2,2.2,9.2,4.2,13.9,6.9c12.8,7.3-13.5,15.7,12.9,22.4c2-1.5,3-3.4,5-5.6c1-1.1,1.5-1.7,2.6-2.8C269.4,140.1,269.7,139.8,270.2,139.1L270.2,139.1z"/><path fill="#D9251D" d="M331.5,106.7c5.3,0,12.5,2.5,16.2,4.7c8.4,4.9,2.8,8.8,2.1,14.6c3.8,1.4,2.8,1.2,4.1-0.5c1-1.3,1.6-4.6,3.7-7.1l3-7.5c-3-6.5-3-7.7-9.1-11c-5.1-2.8-9.3-3.7-15.3-5.2C335,101.3,333.5,102.1,331.5,106.7L331.5,106.7z"/><path fill="#FEFEFE" d="M299.4,136.2h7.5v14.1c-2-1.6-2.7-3.7-4-6.4C301.7,141.3,300.5,139.1,299.4,136.2L299.4,136.2z M291.7,131.4c2.1,5.7,17,35.9,20,39.3v-39.3H291.7L291.7,131.4z"/><path fill="#D9251D" d="M279.8,110.9l3.1,7.6c3,3.6,2.1,6.9,5.3,8.4c4.5-2.7,1.9-1.4,0.4-6.6c-2.6-9.2,11.5-12.6,18.4-13.6c-3-4-4.4-5.2-5.1-11.5c-4.5,0.7-10.2,2.9-13.6,4.9C282.7,103.4,282.5,104.8,279.8,110.9L279.8,110.9z"/><path fill="#FEFEFE" d="M335.9,221.7c-3.3-1.6-2.1-1.1,0.3-2.3L335.9,221.7L335.9,221.7z M352.8,192.4c1.5,0.3,2.7,0.5,3.7,1.2c2,1.3,1.4,1.6,1.7,2.1l1.5,0.4l0.1,1.2c1,0.6,0.4,0,1.4,0.9c0.2,0.1,1,1.1,1.1,1.2c1.1,1.8,0.6,1,0.7,3.2c2.4,3.1,1.8,8.9,0.1,13.1c-0.2,0.5-0.7,1.5-1.1,2c-1,1.2-0.4,0.5-1.6,1.4l2.3-5.1l-4.2-3.9l-2.3,1.7l-1.5,3.2l5,5c0.1-0.1,0.3,0.2,0.4,0.4l-2.3,0.2c-1-2.1-2.4-2.7-4-4.7l-2.9,1.4l-2.3,3l3.7,4l3.4-0.5c-4.6,3.5-16.4,3.5-19.8-2.1c4,1.4,6.5-0.4,10.1-1.9l-9.7-10.1c-1.9,3.5-1.9,5.6-3.7,7.3c0.1,4.2,0.4-1.4-1.7,2.3c9.5,11.4,13.4,5.4,15.4,10.2c-3.1,2.3-6,0.1-9.2,3.5h19.3c-4.4-4.3-7.2,0.4-8.7-4.2c1.6-2.4,17.7-2.7,18.4-19.3c0.5-11.9-10.1-20.5-16.6-19.4c-0.1,0-0.4,0.1-0.5,0.2L352.8,192.4L352.8,192.4z"/><path fill="#FEFEFE" d="M279.5,161.5l-6.5,0.2l6.5-13.2c2.9,0.7,0.8-1.9,4.6,5.6c1.4,2.8,2.7,4.6,3.6,7.7h-6.4c-0.1-2.9,0.4-3.5-0.8-5.6c-0.1,0.2-0.3,0.2-0.3,0.5C280,157.8,279.4,156.1,279.5,161.5L279.5,161.5z M269.2,163.2l-4.5,14.3c0.3-2.3,3.5-7,4.9-9.7c2.7-5.4,2.1-6.2,9.7-5l0.9,5.4c0-0.1,0.2,0.4,0.3,0.6c1.2-2.2,0.6-3.2,1-6.3l6.7,0.3c3,3.7,3.9,8.9,7.3,12.1l-4-11.6c2-1.4,1.3-0.1,3.4-1.3c-4.7-0.1-4,0.7-5.8-3.5l-6.2-12.2c-1.2-3,0.1-5.3-1.7-7.8c-4.8,0.5-2.1,2.1-3.2,6.9c-0.4,1.5-2.2,4.4-3.2,6.1c-5.2,9.6-2.3,10.3-8.9,10.8L269.2,163.2L269.2,163.2z"/><path fill="#0070BA" d="M347,220.4l4,4.3c-4.3,0.7-7.8,0.8-11.1-1.2L347,220.4L347,220.4z M350.8,217.2l-4.1,1.5c-2.3-3-4.1-2.3-3.3-6.5c-3.4,1-4.3-1.2-6.2-3.5c0.6-1.9,2.3-4,3.3-5.3c3.8,1.7,4.3,4.2,5.9,5.8c0.6,0.6,2.2,1.6,3.4,2.7c1.2,1.2,1.6,1.6,2.5,2.9c-0.1,0.1-0.8,1.1-1,1.4L350.8,217.2L350.8,217.2z M335,197.1l4.8,5.4c-1.4,2-2.1,2.9-3.7,4.7c-2.1-1.3-3.5-2.6-4.6-4.9c-0.9,0.8-0.8-1.4-0.7,1.9l4.5,4.4c-0.5,1.5-1,2.6-1.5,4c-0.9,2.3-0.3,3.4-2.5,2.9c-0.3,1.8-0.7,1.4,0.9,1.5h0.4c1.8-1.8,1.8-3.8,3.7-7.3l9.7,10.1c-3.6,1.5-6.1,3.2-10.1,1.9c3.3,5.6,15.1,5.6,19.8,2.1l-3.4,0.4l-3.7-4l2.3-3l2.9-1.4c1.7,1.9,3,2.5,4,4.7l2.3-0.2c-0.2-0.1-0.4-0.5-0.5-0.4l-5-5l1.5-3.2c-0.2,0.1-0.4,0.2-0.5,0.3s-0.4,0.2-0.5,0.3l-0.8,0.7c-1.3,1,0.1,0.2-1.2,0.9c-4-4.7-4.9-2.9-4.2-7.1c-3.3,0.9-4.7-1.6-6.7-4.3l2.4-3.1l-3.7,1.9c-2-1.7-4-2.9-4.9-6C334.6,196,334.5,193.8,335,197.1L335,197.1z"/><path fill="#0070BA" d="M317.5,119.5l-0.7,0.7l0.7,0.2l5.1,0.1c0.4,10.2-1.2,57.1,0.7,62.4c5.5,1,39.4,0.3,49.7,0.3l12.4,0.1c3.6-0.1,2.8-0.1,3.8-0.9l-65.7,0.1l0.1-62.4l0.1-4c-0.1,0.2-0.2,0.5-0.3,0.6L317.5,119.5L317.5,119.5z"/><path fill="#FEFEFE" d="M380.7,100.8c-2.7-1.5-4.6-3.4-7.7-4.7c-5,4.8-12.4,12.8-4.2,18.2c6.4,4.2,1.9-3.4,3.2-6.8C373.5,103.8,377.8,103.3,380.7,100.8L380.7,100.8z"/><path fill="#FEFEFE" d="M259.7,100.8c2.3,1.9,5.6,2.9,7.3,4.9c4.4,4.9-2.3,10.9,3.6,9.1c0.9-0.3,2-1.4,2.5-2c5-5.6,0.9-9.5-5.8-16.7C264.1,97.6,262.3,99.3,259.7,100.8L259.7,100.8z"/><path fill="#FEFEFE" d="M341.3,156.3l-5.5-2.1c1.1-2.5,0.9-2.2,3.3-3.6C340.9,152.8,341.1,152.7,341.3,156.3L341.3,156.3z M330,150.4l3.4,3.4C327.6,157.4,326.5,156.1,330,150.4L330,150.4z M335.9,144.8c1.8-1.8,2.5-2.2,5.2-2.2c0,2.8-0.4,3.5-2.1,5.1L335.9,144.8L335.9,144.8z M327.5,142.5c3.5,0.3,3.5,0.4,5.7,2.2c-2.3,4-1.5,2.4-3.6,3.3L327.5,142.5L327.5,142.5z M341.3,156.3c0.4-0.3,2.1-0.2,0.5-4.1c-0.2-0.5-1.4-2.4-1.6-2.8c1.2-3,2.7-3.3,1.9-7.7c-4.5-0.7-4.5,0.8-7.6,1.9c-0.2-0.1-3.2-1.8-3.5-1.9c-4.1-1.3-3.4,0.7-3.4,0.7c-0.1,0.1-2.3-1.5-0.1,3.6c0.5,1.1,1,1.9,1.6,3.2c-4,8-2.9,9.4,5.4,5.4c1.3,0.6,2.6,1.5,3.7,1.8C341.6,157.7,341.3,156.3,341.3,156.3L341.3,156.3z"/><path fill="#FEFEFE" d="M350.8,217.2l0.5-1c0.2-0.3,0.9-1.2,1-1.4c-0.9-1.4-1.2-1.7-2.5-2.9c-1.2-1.2-2.8-2.1-3.4-2.7c-1.6-1.6-2.1-4-5.9-5.8c-1,1.3-2.7,3.4-3.3,5.3c1.9,2.3,2.8,4.5,6.2,3.5c-0.7,4.2,1.1,3.5,3.3,6.5L350.8,217.2L350.8,217.2z"/><path fill="#0070BA" d="M279.5,161.5c0-5.4,0.6-3.8,0.7-4.8c0-0.3,0.2-0.4,0.3-0.5c1.2,2.1,0.7,2.7,0.8,5.6h6.4c-0.9-3.1-2.2-4.9-3.6-7.7c-3.9-7.5-1.7-4.9-4.6-5.6l-6.5,13.2L279.5,161.5L279.5,161.5z"/><path fill="#FEFEFE" d="M344.4,199.4l-2.4,3.1c2,2.7,3.4,5.1,6.7,4.3c-0.7,4.2,0.2,2.4,4.2,7.1c1.3-0.7,0,0.1,1.2-0.9l0.8-0.7c0.1-0.1,0.4-0.2,0.5-0.3s0.3-0.2,0.5-0.3l1-2.8c-0.9-1.7-0.5-1.4-2.1-2.9c-2.5-2.3-2.1-0.4-7.2-7.3L344.4,199.4L344.4,199.4z"/><path fill="#FEFEFE" d="M334.4,156.6c-1.6,2.9-0.1,7.8-1.4,11.4c-1.2,3.3-3,6-3.9,9.4H340c-0.9-3.9-2.7-6.2-4-9.7C335,164.8,336.3,158.8,334.4,156.6L334.4,156.6z"/><path fill="#0070BA" d="M386.4,232c-3.8-2.1-3.1-4.3-7.1-3.9c0.2,4,2.7,2.5,4.2,6.5c-4.1,0.1-2.4-3.9-7.2-3.3c0,2.6,0.6,2.3,2.4,4c1.7,1.6,2.1,2.4,4.5,3.4l7-7.5c-2.7-4.2-4.7-6.6-7.9-6.3C382.9,229.6,385.3,226.3,386.4,232L386.4,232z"/><path fill="#FEFEFE" d="M349.8,196.4c-0.1,0.1-0.3,0.2-0.3,0.4l-1,1.8c3.2,2.1,2.1,3.7,5.8,2.8c-0.4,3-0.5,2.6,3.8,6.1c2.3-4.1,3.4-5.8,1.8-10.2l-1.9,0.3l0.2-1.9C353.7,194.1,354.3,195.9,349.8,196.4L349.8,196.4z"/><path fill="#0070BA" d="M318.5,262.5l6.7-0.3c1.6,0,0.3,0.2,2.8,0.2v-9.6c-3.9,0.2-2.1-1.1-4.2,3.1l-0.9,1.6c-0.8-2.6-0.7-4.5-4.2-4.4C317.8,256,318.2,259.4,318.5,262.5L318.5,262.5z"/><path fill="#0070BA" d="M363,202.6c0,4,1.3,5.4-0.1,10l-3.9-4l2.6-7.1C362.7,203.4,362.1,201.6,363,202.6L363,202.6z M339.9,193c4.3,0.9,3.2,1.7,6.1,4l-1.5,2.4l3.2-0.8c5.1,7,4.7,5,7.2,7.3c1.6,1.5,1.2,1.2,2.1,2.9l-1,2.8l2.3-1.7l4.2,3.9l-2.3,5.1c1.2-0.9,0.7-0.1,1.6-1.4c0.4-0.5,0.9-1.6,1.1-2c1.8-4.2,2.3-10-0.1-13.1c-0.1-2.2,0.4-1.3-0.7-3.2c-0.1-0.1-0.9-1.1-1.1-1.2c-1-0.9-0.4-0.3-1.4-0.9c1.6,4.4,0.5,6.1-1.8,10.2c-4.3-3.5-4.2-3-3.8-6.1c-3.6,0.9-2.6-0.7-5.8-2.8l1-1.8c0-0.2,0.2-0.3,0.3-0.4l-2.8,0.4l-4-3.6l0.7-1.7c-1.9,0.3,0.4-0.7-2,0.4l-1.3,0.7C340.3,192.7,340.1,192.9,339.9,193L339.9,193z"/><path fill="#0070BA" d="M361.2,245.1c1.6,1.2,2.9,2.4,1.8,4.3C361.7,247.9,361.7,247.5,361.2,245.1L361.2,245.1z M359.1,253.3l1.8,1.6c0.1,0.1,0.3,0.2,0.5,0.4c3.4-2.4-0.7-1.4,2.9-3.6c4-2.4,1.3,0.3,3.9-0.4c0-0.1,2,0.8,0.4-2.6c-1-2.1-0.8-0.6-2.1-1.8c-1.7-1.5-2-3.1-3.5-5l-5.5,2.2C358.5,248.9,360,247.6,359.1,253.3L359.1,253.3z"/><path fill="#0070BA" d="M252.5,220.3c-1.1,0.8-0.8,1.1-2.5-0.2C251.2,219.4,251.9,220,252.5,220.3L252.5,220.3z M243.7,223.1c2.2,1.4,1.9,0.9,5.4,0.9l-1.6,1.8c-0.6,1-0.5,0.6-0.4,1.4c0.2,0.1-1,3.3,5.4-1.8c3.4-2.6,1.9-1.9,3.8-4.6l-3-4.2c-3.4,1.1-2.1-0.6-5.7,2.2C245.7,220.4,244.2,221,243.7,223.1L243.7,223.1z"/><path fill="#0070BA" d="M239.6,148.5l-0.3,0.2C239.4,148.6,239.6,148.5,239.6,148.5L239.6,148.5z M236.8,147.4c-0.6,2.2,0.4,0-1.4,1.1l1.1-2.3C236.9,147,237.3,145.8,236.8,147.4L236.8,147.4z M233.3,150.3l7.4,1.9c1.6-1.7,2.3-3.3,2.8-6c-2.1-1.7-5.5-2.8-8.6-3.3C233.1,145.7,232.8,147,233.3,150.3L233.3,150.3z"/><path fill="#FEFEFE" d="M311.5,180.3c-1.4-4.9-11.2-23.2-14.8-24.6c-2.1,2.3,11,20.8,13.4,23.4C310.9,180,310.6,179.6,311.5,180.3L311.5,180.3z"/><path fill="#0070BA" d="M317.5,119.5l6-3c0.1-0.1,0.2-0.4,0.3-0.6c3.9-3.2,3.6,0.5,4.5-3.7c-2.6-0.6-5.4-0.4-8.5-0.4c-3.7,0-5.5-0.8-7.4,1.3c1.8,2.3-0.1,0.3,2.1,1.4l3,1.5V119.5L317.5,119.5z"/><path fill="#0070BA" d="M308.2,261.8c2.7-0.2,2.8-0.7,4-2.9c0.1,0.2,0.2,0.2,0.3,0.5c0,0.3,0.2,0.4,0.2,0.5c0.1,0.1,0.3,0.9,0.4,1.1c0.9,1.5-1.1,0.8,2.2,1.5c0.8-2.1,1.7-7.1,0.7-9.6c-3.1,0.1-2.9,0.6-3.9,2.8c-1.6-2-0.3-2.8-2.9-3.6C308,254,307.2,259.4,308.2,261.8L308.2,261.8z"/><path fill="#0070BA" d="M400,147.8c1.7,1.3,0.9,0.1,1.7,2.5C399.3,149.1,400.4,150.6,400,147.8L400,147.8z M404.1,146.5l1,2.5C403.3,147.9,402.9,148.4,404.1,146.5L404.1,146.5z M397.7,147c-0.1,3.2,0.5,3.7,1.2,6.4l9.1-2.9c-0.4-3-1.4-5-2.4-6.5C402.3,143.8,399.5,145.1,397.7,147L397.7,147z"/><path fill="#0070BA" d="M343,253.6l-0.6-1.1c-0.1-0.1-0.5-0.8-0.6-1c-1.3-1.2-0.1-0.6-2.2-1.1c-0.8,2.4,0.8,7.6,2.6,9.6c1.9-0.8,1.3-0.4,2.2-2c0.2-0.4,0.6-1.8,1.1-2.7c1.2,2.8,0,2.5,2.7,3.3c1.7-2.5-0.8-8.2-2.2-9.6C343.2,250,344,250.7,343,253.6L343,253.6z"/><path fill="#0070BA" d="M405.6,177.9c-0.2,0.1-0.5,0-0.6,0.3l-1.7,0.7c-1.6,0.9-0.7-0.2-1.5,1.3c1.6,2.1,6,1.6,9.5,1.2c0.3-3.1-1.3-3.2-3.4-4.5c3.8-2.1,3,1.4,3.8-3.2c-1.5-0.2-6.8-0.7-8.5-0.2C399.5,174.6,403.7,177.1,405.6,177.9L405.6,177.9z"/><path fill="#0070BA" d="M289.9,221.6c2.1-1.8,1.9-23.9,0.6-26.1c-2.2,0.8-1.5-0.2-1.9,2.3C288.4,198.3,288.2,218.6,289.9,221.6L289.9,221.6z"/><path fill="#0070BA" d="M238.2,214.1l4.7,1.4c-0.1,0-0.4,0-0.5,0.3s-0.4,0.4-0.5,0.5c-3.2,3.8,0.1,3.3,3.6,1.5c2.6-1.3,3.5-0.8,4.1-4l-5.2-0.9c2.6-2.5,3-0.6,2.4-3.7c-1.8-0.4-5.5,1.2-7.3,2.6C237.3,213.6,238.7,211.3,238.2,214.1L238.2,214.1z"/><path fill="#0070BA" d="M403.1,157c1.6-0.9-1.1-0.8,2.2-0.8c3.6,0,0.3-0.1,1.8,0.7C408.4,160.8,401.6,161.1,403.1,157L403.1,157z M402.1,162.4c7.7,0.8,9.8-2.5,6.5-8.5C401.5,152,397.4,156.1,402.1,162.4L402.1,162.4z"/><path fill="#0070BA" d="M290.7,255.6c-0.6-3.9-0.1-4.2,3.2-4.6C294.4,254.3,294.5,255.9,290.7,255.6L290.7,255.6z M296.6,250.3c-5.7-4.6-10.9,0.5-8.6,5.7C290,260.5,298,259.4,296.6,250.3L296.6,250.3z"/><path fill="#0070BA" d="M398.2,215.7c-2.2,2.1-4.7,1.8-4.3-2.3C396.6,212.2,397.4,213.5,398.2,215.7L398.2,215.7z M390.9,216.5c10.9,9.8,14.8-7.7,1.9-6.3C391.2,212.3,390.7,212.7,390.9,216.5L390.9,216.5z"/><path fill="#0070BA" d="M231.9,186.3c0.2-1.5-0.8-1.9,1.6-2.5c2.7-0.8,2.8,0.8,3.2,1C236.6,184.8,237.2,189.9,231.9,186.3L231.9,186.3z M231.9,181.5c-6.1,3.1-1.4,11,4.7,8.1C242.3,186.9,238.3,178.2,231.9,181.5L231.9,181.5z"/><path fill="#0070BA" d="M280.2,246.3c-3.1,1.6-1.6,0.3-2.5-1.5C280.4,245.8,278.7,244.3,280.2,246.3L280.2,246.3z M272.8,249.6c2.6,1.7,2.6,0.9,5-0.4c-0.3,1.3-0.8,2,0.3,3.8c1.7-0.7,1.7-0.6,3.2-3.3c0.9-1.5,1.6-2.8,2.1-4.7c-7.7-6.7-7.4,0.4-9.6,3.3c-0.1,0.1-0.3,0.3-0.4,0.4L272.8,249.6L272.8,249.6z"/><path fill="#0070BA" d="M299.4,136.2c1.1,2.9,2.3,5.1,3.5,7.7c1.3,2.7,2,4.8,4,6.4v-14.1L299.4,136.2L299.4,136.2z"/><path fill="#0070BA" d="M404.2,187.1c-0.2,0.1-0.5,0-0.6,0.3c-0.6,1.4-1-0.5-3.2,1.4c0.9,3,7.8,3.3,9.6,2.1c-0.6-2.1,0.3-0.3-1.3-1.8c-1.7-1.6-1.2,0.2-1.9-2.1c0.2-0.1,0.4-0.3,0.5-0.2l1.5-0.2c2.5-0.6,0.5,0.9,2.1-1.1c-1.4-2.4-4-2.5-9.6-2.7c0.5,3.7,0,1.2,1.1,2.5L404.2,187.1L404.2,187.1z"/><path fill="#0070BA" d="M229.5,170.3c2.7-1.1,1-0.5,2.4-4.5c1.6,2.6-0.4,1.5,1.4,4.3c3.3-1.2,0.8-0.1,2.3-3.6c0.9,2,0,1,0.4,2.2c0.9,2.4-0.4,1.5,2.2,2.2c0.5-2.4,1-4.6,0.1-7.3l-8.8-0.7C228.9,165.4,228.3,168.1,229.5,170.3L229.5,170.3z"/><path fill="#0070BA" d="M296.7,259.8c4.6,1.1,4.4-1.6,6.1-5.5c1.7,2.9-1.6,4,0.8,7.2c2.8-1.4,3.1-6.5,3.1-9.4l-6.3-1.3C298.8,261,297.9,254.6,296.7,259.8L296.7,259.8z"/><path fill="#0070BA" d="M395,206.3c1.8,1.1,3,1.2,4.5,2.2c3.7,2.4-0.6,1.8,3.7,3.2c1.9-4.8-2.7-4.2-4.8-7.7c7.3,1.9,5.4,3.6,7.6,0.9c-1.2-2.2-5.8-3.7-9.2-4.1L395,206.3L395,206.3z"/><path fill="#0070BA" d="M258,233.3l-4-1.4c0.6-2.8,1.1-3.1,4.2-3.3c0.5,3.5-1.3,2.5,1.4,4.2c4.5-3.9-2.2-10-6.8-5.3C247.8,232.6,256.2,239.4,258,233.3L258,233.3z"/><path fill="#0070BA" d="M233.4,161c1.4-3.5-0.3-0.5-0.6-4.6c2.7-1.1,3.5-0.9,4.9,1.4c-2,3.5-1.7-0.6-2.6,3.7c6.8,1.3,6.5-6.8,1.9-8.3C230.2,151.1,227.1,159.5,233.4,161L233.4,161z"/><path fill="#0070BA" d="M329.5,252.5c0.3,3,0.2,7.9,2.6,9.6c3.8-2.4-1.3-4,1.5-7.6c2.3,1,1-0.3,1.8,3.4c0.8,3.9-0.1,2.5,2.1,3.3c0.9-1.1,0.5,0.3,0.8-1.6l-1.6-7.8L329.5,252.5L329.5,252.5z"/><path fill="#0070BA" d="M257.5,238.8c2.4,1.4,1.2,1.3,3.6-0.2c0.2,3.9-0.6,2.9,1.8,4.6c1.6-1.9,0.9-2.9,0.8-5.8c0.6-0.1,2.5-0.2,2.8-0.3c3-0.7,1.3-0.2,2.3-1.3c-2.5-2.2-1.6-0.1-4-2.9c-0.6-0.7,0.5-0.3-1.2-1.5C261.2,233.2,258.5,235.9,257.5,238.8L257.5,238.8z"/><path fill="#0070BA" d="M234.7,176.9l0.2-2.1c1.3,1.4,0.5-0.9,0.6,1.3C235.8,178.5,235.9,175.9,234.7,176.9L234.7,176.9z M228.9,172.5c-0.1,5-0.1,0.6,2.3,3c0.8,0.8,1.2,2.7,2,3.9l4,0.1C240.8,172.3,236.8,169.9,228.9,172.5L228.9,172.5z"/><path fill="#0070BA" d="M240.3,208.7c-2-3.6-1,0.2-3.1-3.1c1.3-2.8,1.4-2.5,4.6-2.2c0.2,2.6-0.8,3.1,0.4,4.9c5.2-2.3,1.7-9.2-3.7-7.8C231.5,202.4,235.1,212.8,240.3,208.7L240.3,208.7z"/><path fill="#0070BA" d="M387.8,221.7c-2.1-0.4-1.5-0.5-2.8,0.9c1.3,2.2,5.1,5.2,8.3,5.5c0.3-1.9,0.1-1.9-0.9-3.3c3.1-0.5,3.4-0.3,4.3-2.8l-5.9-0.1c-0.8-2.8-0.1-2.7-1.5-4.7C387,218.7,387.7,217.8,387.8,221.7L387.8,221.7z"/><path fill="#0070BA" d="M406.1,166.8l-4.5-3.1c0,2.9,0.3,3,2,4.5c-2.5,1.4-2.2,0.5-1.3,2.8c2.1,0.7,6.1,0.2,9-0.5l-0.2-1.5c-2.3-4.7,2,2.4-1.8-2c2.2-1.7,1.6-0.4,1.6-3.9C407.7,164,408.5,164.7,406.1,166.8L406.1,166.8z"/><path fill="#0070BA" d="M231.3,194.1c-0.1,4.1,1.2,7.3,5.3,5.4c-1.5-5.4-1.9,1.5-2.6-4.9l4.6-0.6c0.1,2.5-1,3.2,0.2,5.1C245.6,196.1,238.3,186.3,231.3,194.1L231.3,194.1z"/><path fill="#FEFEFE" d="M335.9,195.3c0.9,3.1,2.8,4.3,4.9,6l3.7-1.9l1.5-2.4c-2.9-2.3-1.8-3.1-6.1-4L335.9,195.3L335.9,195.3z"/><path fill="#0070BA" d="M264.3,244.2c5.2,3.1,1.4-3.7,5,2.8c0.5,0.9,0,0.6,1.1,1.6c1-0.6,0.5,0.3,1.4-1.5c0.2-0.3,0.7-2.5,0.9-3C275.7,232.2,264.9,242.2,264.3,244.2L264.3,244.2z"/><path fill="#0070BA" d="M359.1,253.3c-0.9-0.9-2.6-2.4-3.8-3.8c-3.3-3.8-4.9-4.2-4.9,2.4c0,2.8-0.3,3.5,1,5.3c2.6-1.2,1,0.1,2.3-2.8c4.3-0.6,0.5,0,4.7,0.5L359.1,253.3L359.1,253.3z"/><path fill="#0070BA" d="M367.4,238.6c-0.8,2.2,0.7,8,2.5,9.8c1.6-1.2,1.4-1.7,1.9-3c1.2-2.9,0.5,0.6,4.3-1.1c-0.4-1.9-0.1-1.3-1.5-2.4C372.5,239.9,369.7,237.7,367.4,238.6L367.4,238.6z"/><path fill="#0070BA" d="M405.9,195.9c0.1,3.3,0.8,1.1-2,2.7C404.5,195.7,403.3,196.5,405.9,195.9L405.9,195.9z M401.8,196.6c-3.5,0.2-1.8-1.3-3.6,1.3c1.9,2.3,6.4,3.2,9.4,2.9c0.7-3.2,1.3-3.9,0.5-7l-4.4-0.7L401.8,196.6L401.8,196.6z"/><path fill="#FEFEFE" d="M331.4,202.4c1.1,2.4,2.5,3.6,4.6,4.9c1.7-1.8,2.4-2.8,3.7-4.7l-4.8-5.4C333,198.4,332.4,199.7,331.4,202.4L331.4,202.4z"/><path fill="#FEFEFE" d="M349.8,196.4c0.7-0.7-0.8-0.1,1.8-1.4c1.3-0.6,1.9-0.6,2.9-1c-3.2-1.6-0.3-0.2-1.6-1.5l-9.1-0.9l-0.7,1.7l4,3.6L349.8,196.4L349.8,196.4z"/><path fill="#D9251D" d="M330.9,94.1l-2.8-0.4c-1.6,1.9-2,2.9-3.8,4.7c-1.9,2-2.6,2-3.9,5c5-0.9,7.6-5.6,11.1-7.7L330.9,94.1L330.9,94.1z"/><path fill="#FEFEFE" d="M331.2,215.6c2.1,0.5,1.6-0.6,2.5-2.9c0.5-1.4,1-2.4,1.5-4l-4.5-4.4C329.6,209.3,330.7,211.1,331.2,215.6L331.2,215.6z"/><path fill="#FEFEFE" d="M363,202.6c-0.9-0.9-0.3,0.8-1.4-1.1l-2.6,7.1l3.9,4C364.3,208,363,206.6,363,202.6L363,202.6z"/><path fill="#FEFEFE" d="M340,223.5c3.2,2.1,6.8,1.9,11.1,1.2l-4-4.3L340,223.5L340,223.5z"/><path fill="#0070BA" d="M327.5,142.5l2,5.5c2.2-0.9,1.4,0.7,3.6-3.3C331,142.9,331.1,142.8,327.5,142.5L327.5,142.5z"/><path fill="#0070BA" d="M341.3,156.3c-0.2-3.6-0.3-3.5-2.2-5.7c-2.4,1.4-2.2,1.1-3.3,3.6L341.3,156.3L341.3,156.3z"/><path fill="#0070BA" d="M339.1,147.7c1.7-1.7,2.1-2.4,2.1-5.1c-2.7,0.1-3.4,0.4-5.2,2.2L339.1,147.7L339.1,147.7z"/><path fill="#0070BA" d="M330,150.4c-3.5,5.7-2.4,7,3.4,3.4L330,150.4L330,150.4z"/><path fill="#FEFEFE" d="M231.9,186.3c5.4,3.5,4.7-1.5,4.7-1.5c-0.3-0.2-0.4-1.8-3.2-1C231.1,184.5,232.1,184.8,231.9,186.3L231.9,186.3z"/><path fill="#FEFEFE" d="M290.7,255.6c3.8,0.4,3.7-1.3,3.2-4.6C290.5,251.3,290,251.7,290.7,255.6L290.7,255.6z"/><path fill="#FEFEFE" d="M403.1,157c-1.5,4,5.3,3.8,4-0.1c-1.5-0.8,1.9-0.7-1.8-0.7C402,156.3,404.7,156.1,403.1,157L403.1,157z"/><path fill="#FEFEFE" d="M393.9,213.3c-0.3,4.1,2.2,4.4,4.3,2.3C397.4,213.5,396.6,212.2,393.9,213.3L393.9,213.3z"/><path fill="#0070BA" d="M349.8,196.4c4.5-0.5,3.9-2.3,8.4-0.7c-0.3-0.5,0.3-0.8-1.7-2.1c-1-0.6-2.2-0.9-3.7-1.2c1.3,1.3-1.6-0.1,1.6,1.5c-1,0.4-1.6,0.4-2.9,1C348.9,196.3,350.5,195.6,349.8,196.4L349.8,196.4z"/><path fill="#FEFEFE" d="M363,249.4c1.1-1.9-0.2-3.1-1.8-4.3C361.7,247.5,361.7,247.9,363,249.4L363,249.4z"/><path fill="#0070BA" d="M403.9,198.7c2.8-1.7,2.1,0.6,2-2.7C403.3,196.5,404.5,195.7,403.9,198.7L403.9,198.7z"/><path fill="#FEFEFE" d="M280.2,246.3c-1.5-2,0.2-0.5-2.5-1.5C278.6,246.6,277.1,247.9,280.2,246.3L280.2,246.3z"/><path fill="#0070BA" d="M335.9,221.7l0.3-2.3C333.8,220.6,332.5,220.1,335.9,221.7L335.9,221.7z"/><polygon fill="#0070BA" points="359.8,197.3 359.7,196.1 358.2,195.7 357.9,197.6 "/><path fill="#0070BA" d="M401.7,150.3c-0.8-2.4,0-1.2-1.7-2.5C400.4,150.6,399.3,149.1,401.7,150.3L401.7,150.3z"/><path fill="#FEFEFE" d="M250.1,220.2c1.7,1.3,1.3,1,2.5,0.2C251.9,220,251.2,219.4,250.1,220.2L250.1,220.2z"/><path fill="#FEFEFE" d="M405.1,149l-1-2.5C402.9,148.4,403.3,147.9,405.1,149L405.1,149z"/><path fill="#FEFEFE" d="M235.4,148.5c1.8-1,0.8,1.2,1.4-1.1c0.4-1.6,0.1-0.4-0.4-1.3L235.4,148.5L235.4,148.5z"/><path fill="#FEFEFE" d="M234.7,176.9c1.2-1.1,1.1,1.6,0.9-0.9c-0.2-2.1,0.6,0.1-0.6-1.3L234.7,176.9L234.7,176.9z"/><path fill="#FEFEFE" d="M239.3,148.7l0.3-0.2C239.6,148.5,239.4,148.6,239.3,148.7L239.3,148.7z"/></g></svg>