<svg version="1.1" xmlns="http://www.w3.org/2000/svg" xmlns:xlink="http://www.w3.org/1999/xlink" x="0px" y="0px" width="640px" height="336px" viewBox="0 0 640 336" enable-background="new 0 0 640 336" xml:space="preserve"><rect fill="#847545" width="640" height="336"/><g><path fill="#FFFFFF" d="M309.3,186.6v-50.4h24.6v4.3H314V159h18.4v4.2H314v19.2h21v4.3H309.3z"/><path fill="#FFFFFF" d="M390.5,199.8v-13.1h-45.7v-36h4.5v32.1h15.4v-32.1h4.5v32.1h15.4v-32.1h4.5v32.1h5.5v17L390.5,199.8L390.5,199.8z"/><path fill="#FFFFFF" d="M404.3,169.5c0,4.5,1.2,7.9,3.3,10.4s5.1,3.7,8.9,3.7c4.1,0,7.9-1.4,11.5-4.3v4.4c-3.4,2.5-7.6,3.7-12.5,3.7c-4.9,0-8.8-1.7-11.7-5c-2.8-3.3-4.3-8-4.3-13.9c0-3.5,0.7-6.7,2.1-9.6c1.4-2.9,3.4-5.2,5.9-6.8c2.5-1.6,5.3-2.4,8.4-2.4c4.5,0,8.1,1.5,10.6,4.6c2.5,3.1,3.8,7.3,3.8,12.8v2.3L404.3,169.5L404.3,169.5z M425.7,165.5c-0.1-3.8-1-6.7-2.7-8.7c-1.7-2.1-4.1-3.1-7.1-3.1c-3.1,0-5.6,1-7.6,3.1c-2,2.1-3.3,5-3.8,8.7L425.7,165.5L425.7,165.5z"/><path fill="#FFFFFF" d="M443.6,187.3c-0.9,0-1.7-0.3-2.4-1c-0.7-0.6-1-1.4-1-2.4c0-1,0.3-1.8,1-2.4c0.7-0.6,1.5-1,2.4-1c0.9,0,1.7,0.3,2.4,1c0.7,0.7,1,1.5,1,2.4s-0.3,1.7-1,2.4C445.3,187,444.5,187.3,443.6,187.3z M445.4,172.5h-3.9l-0.5-36.2h4.9L445.4,172.5z"/></g><g><g><path fill="#FFFFFF" d="M280.4,206.3c-1.2-1.9-8.8-15.4-0.2-24c0.8-0.8,1-1.9,0.6-2.9c-0.4-1-1.4-1.6-2.5-1.6h-82.6c-1.5,0-2.7,1.2-2.7,2.7V208c0,1.5,1.2,2.7,2.7,2.7h82.6c0,0,0,0,0,0c1.5,0,2.7-1.2,2.7-2.7C281.1,207.3,280.8,206.7,280.4,206.3z M196.8,205.7v-23.2h77.7c-1.7,3.2-2.3,6.5-2.3,9.7h-58.7c-1.1,0-1.9,0.9-1.9,1.9c0,1.1,0.8,1.9,1.9,1.9h59c0.6,3.8,1.8,7.2,2.9,9.6L196.8,205.7L196.8,205.7z"/><path fill="#FFFFFF" d="M231.4,175.2c0.4,0,3.1,0,6.1,0c12.1,0,19.4-14.2,19.4-24.7c0.7-11.6-11-15.4-21-13.3c-0.1-0.2-0.4-0.6-0.7-1.1c6.8,2.1,14.7-1.8,17.2-8.4c-6.6-2.2-14.7,1.6-17.3,8.2c-1.1-2-2.9-5.7-3.7-10.7l-2.4,0.4c0.8,5.2,2.6,9.1,3.9,11.3c-9.7-1.5-20.3,2.5-19.6,13.6C213.2,160.7,219.9,174.4,231.4,175.2z"/></g></g></svg>