<svg version="1.1" xmlns="http://www.w3.org/2000/svg" xmlns:xlink="http://www.w3.org/1999/xlink" x="0px" y="0px" width="640px" height="336px" viewBox="0 0 640 336" enable-background="new 0 0 640 336" xml:space="preserve"><rect fill="#2D7D9A" width="640" height="336"/><g><path fill="#FFFFFF" d="M201.4,138.9v46.1h-4.7v-50.4h24.9v4.4L201.4,138.9L201.4,138.9z"/><path fill="#FFFFFF" d="M227.6,179.1v22.4h-4.5v-52.6h4.5v6.9h0.1c1.3-2.5,3.1-4.4,5.4-5.7c2.2-1.3,4.8-2,7.6-2c4.5,0,8.1,1.6,10.7,4.7c2.6,3.1,3.9,7.5,3.9,13c0,6-1.5,10.9-4.4,14.5c-3,3.6-6.9,5.5-11.8,5.5c-5.1,0-8.8-2.2-11.4-6.6L227.6,179.1L227.6,179.1z M227.6,170c0,3.4,1.1,6.2,3.2,8.5c2.1,2.3,4.8,3.5,8.1,3.5c3.6,0,6.5-1.5,8.6-4.4c2.1-2.9,3.2-6.9,3.2-11.8c0-4.2-1-7.5-2.9-10c-2-2.5-4.6-3.7-8-3.7c-2.4,0-4.5,0.6-6.3,1.7c-1.9,1.1-3.3,2.7-4.3,4.8c-1,2-1.5,4.3-1.5,6.7L227.6,170L227.6,170z"/><path fill="#FFFFFF" d="M284.2,184.9v-6.4H284c-1.2,2.3-2.8,4.1-4.8,5.3c-2,1.3-4.3,1.9-6.9,1.9c-3.4,0-6.2-0.9-8.2-2.8s-3.1-4.4-3.1-7.5c0-6.5,4.1-10.4,12.2-11.6l10.9-1.6c0-6.9-2.7-10.4-8.1-10.4c-4.2,0-8.1,1.5-11.7,4.6v-4.9c1.5-1.1,3.3-1.9,5.5-2.6c2.2-0.7,4.4-1,6.5-1c4,0,7,1.1,9.1,3.4c2.1,2.3,3.1,5.6,3.1,10.1v23.4L284.2,184.9L284.2,184.9z M265.7,175.2c0,2,0.7,3.6,2,4.8c1.4,1.2,3.2,1.8,5.4,1.8c3.2,0,5.8-1.1,7.9-3.4s3.1-5.2,3.1-8.8v-3.6l-9.3,1.3c-3.5,0.5-5.9,1.3-7.2,2.5C266.4,171.1,265.7,172.9,265.7,175.2z"/><path fill="#FFFFFF" d="M331.6,184.9v-30.4l-0.4,1l-2.1,5.6l-9.4,23.8h-3.9l-9.9-23.8l-2.5-6.6v30.4h-4v-36h5.6l10.2,24.2c0.8,1.8,1.5,3.6,2.1,5.4l0.5,1.4l2.6-6.8l9.7-24.4h5.8v36H331.6z"/><path fill="#FFFFFF" d="M379.7,184.9v-30.4l-0.4,1l-2.1,5.6l-9.4,23.8H364l-9.9-23.8l-2.5-6.6v30.4h-4v-36h5.6l10.2,24.2c0.8,1.8,1.5,3.6,2.1,5.4l0.5,1.4l2.6-6.8l9.7-24.4h5.8v36L379.7,184.9L379.7,184.9z"/><path fill="#FFFFFF" d="M416.5,184.9v-6.4h-0.1c-1.2,2.3-2.8,4.1-4.8,5.3c-2,1.3-4.3,1.9-6.9,1.9c-3.4,0-6.2-0.9-8.2-2.8c-2-1.9-3.1-4.4-3.1-7.5c0-6.5,4.1-10.4,12.2-11.6l10.9-1.6c0-6.9-2.7-10.4-8.1-10.4c-4.2,0-8.1,1.5-11.7,4.6v-4.9c1.5-1.1,3.3-1.9,5.5-2.6c2.2-0.7,4.4-1,6.5-1c4,0,7,1.1,9.1,3.4c2.1,2.3,3.1,5.6,3.1,10.1v23.4L416.5,184.9L416.5,184.9z M398.1,175.2c0,2,0.7,3.6,2,4.8c1.4,1.2,3.2,1.8,5.4,1.8c3.2,0,5.8-1.1,7.9-3.4c2.1-2.3,3.1-5.2,3.1-8.8v-3.6l-9.3,1.3c-3.5,0.5-5.9,1.3-7.2,2.5C398.7,171.1,398.1,172.9,398.1,175.2z"/><path fill="#FFFFFF" d="M442.4,152.9v32.1h-4.5v-32.1H427v-3.9h26.1v3.9H442.4z"/><path fill="#FFFFFF" d="M484.8,184.9v-29.4l-1,1.6L464,184.9h-4.1v-36h4.3V178c0.3-0.7,0.7-1.5,1.3-2.4l19.3-26.7h4.3v36L484.8,184.9L484.8,184.9z"/><path fill="#FFFFFF" d="M521.7,184.9l-16.4-17.5h-0.1v17.5h-4.5v-36h4.5v16.8h0.1l15.9-16.8h5.9L510,166.4l18,18.5H521.7z"/><path fill="#FFFFFF" d="M554.9,184.9v-6.4h-0.1c-1.2,2.3-2.8,4.1-4.8,5.3c-2,1.3-4.3,1.9-6.9,1.9c-3.4,0-6.2-0.9-8.2-2.8s-3.1-4.4-3.1-7.5c0-6.5,4.1-10.4,12.2-11.6l10.9-1.6c0-6.9-2.7-10.4-8.1-10.4c-4.2,0-8.1,1.5-11.7,4.6v-4.9c1.5-1.1,3.3-1.9,5.5-2.6c2.2-0.7,4.4-1,6.5-1c4,0,7,1.1,9.1,3.4s3.1,5.6,3.1,10.1v23.4L554.9,184.9L554.9,184.9z M536.5,175.2c0,2,0.7,3.6,2,4.8c1.4,1.2,3.2,1.8,5.4,1.8c3.2,0,5.8-1.1,7.9-3.4c2.1-2.3,3.1-5.2,3.1-8.8v-3.6l-9.3,1.3c-3.5,0.5-5.9,1.3-7.2,2.5C537.1,171.1,536.5,172.9,536.5,175.2z"/></g><g><g><path fill="#FFFFFF" d="M122.3,173.1c0.2-0.1,0.4-0.2,0.5-0.3c-0.3,1.2,0.2,2.3,2,1.9c7.3-1.6,10.7-7.6,9.5-14.5c-0.3-1.7-2.2-1.2-3.3-0.5c-2.3,1.6-4.5,3.4-6.5,5.4c0.2-5.5,0.7-11.1,1.8-16.5c0.3-1.2-1-2-2.1-1.7c-1.4,0.4-2.2,1.6-2.5,2.9c-1.4,7-2,14-1.9,21.2c-3.5-0.3-5.2-2.3-5.6-5.1c0.2-1.3,0.3-2.6,0.2-3.8c0.7-0.7,1.2-1.6,1.1-2.6c-0.2-1.3-1.7-1.5-2.7-0.9c-4.2,2.5-9.1,5.5-11.1,10.1c-1,2.2-0.6,4.9,2,5.8c2.6,0.8,5.4-0.7,7.3-2.4c1.6,2.4,4.3,4,8.3,3.9C120.6,175.8,121.8,174.4,122.3,173.1z M129.8,165.4c-0.2,2.4-1.5,4-4.7,4.7l0,0C126.5,168.4,128.1,166.8,129.8,165.4z M108.6,169c-0.4,0.5-1.5,0.8-2.2,0.6c-0.5-0.1-0.4-0.2-0.6-0.4c0.1,0.1,0-0.1,0.4-0.7c0.7-1.3,2-2.4,3.3-3.4c-0.1,0.7-0.1,1.4,0,2.1C109.4,167.9,109.1,168.5,108.6,169z"/><path fill="#FFFFFF" d="M146.1,172.4c2.4-1.2,2.5-5.8-0.8-4.2c-1.4,0.7-5.1,2.3-5.6-0.2c-0.5-2.2,1.7-4.5,3.3-5.8c0.9-0.7,1.8-2.2,1.1-3.4c-0.7-1.2-2.2-0.7-3.1-0.1c-3.4,2.7-7,7.3-5.9,11.8C136.4,175.8,142.7,174.1,146.1,172.4z"/><path fill="#FFFFFF" d="M167.6,136.9c-0.6-0.5-1.4-0.6-2.1-0.4c-3,0.7-7.8,1.8-10.2,2.1v-5c0-4.1-2.4-6.6-6.5-6.6c-6.7,0-19.2,7.7-24.3,11.5c-5.1-3.8-17.6-11.5-24.3-11.5c-4.1,0-6.5,2.5-6.5,6.6v5c-2.4-0.4-7.2-1.4-10.2-2.1c-0.7-0.2-1.5,0-2.1,0.4c-0.6,0.5-0.9,1.2-0.9,1.9v62.9c0,0.7,0.3,1.4,0.9,1.8c0.5,0.5,1.3,0.7,2,0.6c24.3-2.1,37.6,3.2,41.2,4.9c3.6-1.8,16.9-7,41.2-4.9c0.7,0.1,1.4-0.1,2-0.6c0.5-0.5,0.8-1.1,0.8-1.8v-62.9C168.6,138.1,168.2,137.4,167.6,136.9z M100.3,131.9c5.7,0,18.2,7.7,21.8,10.3l2.5,1.7l2.5-1.7c3.6-2.7,16.1-10.3,21.8-10.3c1.1,0,1.5,0.1,1.5,1.8h0v48.1c-15.7,0.5-23.3,3.6-25.8,4.9c-2.6-1.3-10.2-4.4-25.8-4.9v-48.1l0,0C98.7,131.9,99.2,131.9,100.3,131.9z M163.6,194.5c-24-2.9-35.7,2-39.1,3.8c-3.4-1.8-15-6.7-39.1-3.8v-52.6c2.6,0.6,6.3,1.4,8.3,1.6v43h2.8c6.6,0,18.8,0.7,26.7,5.1l1.2,0.7l1.2-0.7c7.9-4.4,20.1-5.1,26.7-5.1h2.8v-43c2-0.2,5.6-1,8.3-1.6L163.6,194.5L163.6,194.5z"/></g></g></svg>