<svg version="1.1" xmlns="http://www.w3.org/2000/svg" xmlns:xlink="http://www.w3.org/1999/xlink" x="0px" y="0px" width="640px" height="336px" viewBox="0 0 640 336" enable-background="new 0 0 640 336" xml:space="preserve"><rect fill="#1CAFF6" width="320" height="168"/><g><path fill="#FFFFFF" d="M118.2,81.2c0,0.1,0,0.1,0,0.2c0,1.9-0.1,3.1-0.3,3.6c-0.3,0.8-0.7,1.4-1.4,1.8c-0.6,0.4-1.3,0.6-2.2,0.6c-0.9,0-1.6-0.2-2.2-0.6s-1-1-1.3-1.8c-0.3-0.7-0.4-1.9-0.4-3.7c0-0.1,0-0.2,0-0.4V71h-5.3v8.7c0,0.6,0,1.2,0,1.7c0.1,2.4,0.3,4.1,0.6,5.2c0.6,1.8,1.6,3.2,3,4.3c1.4,1,3.3,1.5,5.5,1.5c2.1,0,3.8-0.4,5.2-1.3c1.4-0.9,2.4-2.1,3.1-3.8c0.5-1.1,0.8-3.1,0.8-5.9c0-0.5,0-1,0-1.6V71h-5.2L118.2,81.2C118.1,81.2,118.2,81.2,118.2,81.2z M102.7,64h-5.2v8.1c-0.1,0-0.2-0.1-0.3-0.1c-1.7-1-3.6-1.5-5.5-1.5c-2.7,0-5.1,0.9-7.2,2.8c-2.4,2.2-3.6,4.9-3.6,8.1l0,0l0,0c0,3,1.1,5.6,3.2,7.7s4.7,3.2,7.6,3.2c2,0,3.9-0.5,5.6-1.4c1.7-1,3-2.3,4-4c0.9-1.5,1.3-3.1,1.4-4.8l0,0c0-0.2,0-0.5,0-0.7s0-0.5,0-0.7V64z M95.8,85.8c-1.1,1.1-2.4,1.7-4.1,1.7c-1.6,0-3-0.6-4-1.7c-1.1-1.1-1.6-2.6-1.6-4.4l0,0l0,0c0-1.7,0.5-3.2,1.6-4.3c1.1-1.1,2.4-1.7,4-1.7c1.7,0,3,0.6,4.1,1.7s1.6,2.6,1.6,4.3l0,0C97.4,83.2,96.9,84.7,95.8,85.8z M145.6,76c-1-1.7-2.3-3-4-4s-3.6-1.5-5.5-1.5c-2.7,0-5.1,0.9-7.2,2.8c-2.4,2.2-3.6,4.8-3.6,8.1l0,0c0,3,1.1,5.6,3.2,7.7s4.7,3.2,7.6,3.2c2,0,3.9-0.5,5.6-1.4c1.7-1,3-2.3,4-4s1.5-3.5,1.5-5.5C147,79.5,146.6,77.7,145.6,76z M140.2,85.8c-1.1,1.1-2.4,1.7-4.1,1.7c-1.7,0-3-0.6-4-1.7c-1.1-1.1-1.6-2.6-1.6-4.4l0,0c0-1.7,0.5-3.2,1.6-4.3c1.1-1.1,2.4-1.7,4-1.7c1.7,0,3,0.6,4.1,1.7s1.6,2.6,1.6,4.3l0,0C141.8,83.2,141.2,84.7,140.2,85.8z"/><path fill="#FFFFFF" d="M165.2,92h5.3V71.9h-5.3V92z M156.2,86.6c-0.6-0.4-1.1-1-1.3-1.8c-0.2-0.6-0.3-1.8-0.3-3.6V64h-5.2v15.5c0,0.6,0,1.1,0,1.6c0.1,2.8,0.3,4.7,0.8,5.9c0.7,1.6,1.7,2.9,3.1,3.8c1.4,0.9,3.1,1.3,5.2,1.3h4v-4.9h-4.1C157.5,87.2,156.8,87,156.2,86.6z M191.1,75.8c-0.7-1.6-1.7-2.9-3.1-3.8c-1.4-0.9-3.1-1.3-5.2-1.3c-2.3,0-4.1,0.5-5.5,1.5s-2.4,2.4-3,4.3c-0.3,1-0.5,2.8-0.6,5.2c0,0.5,0,1.1,0,1.7V92h5.3V82c0-0.1,0-0.2,0-0.4c0-1.7,0.1-3,0.4-3.7c0.3-0.8,0.7-1.3,1.3-1.8c0.6-0.4,1.3-0.6,2.2-0.6s1.6,0.2,2.2,0.6c0.6,0.4,1.1,1,1.4,1.8c0.2,0.6,0.3,1.8,0.3,3.6c0,0.1,0,0.1,0,0.2V92h5.2v-8.8c0-0.6,0-1.1,0-1.6C191.9,78.9,191.6,76.9,191.1,75.8z M167.7,64.4c-1.5,0-2.8,1.3-2.8,2.8s1.2,2.8,2.8,2.8c1.5,0,2.8-1.2,2.8-2.8S169.2,64.4,167.7,64.4z M237.6,76.2c-1-1.7-2.3-3-4-4s-3.5-1.4-5.6-1.4c-3,0-5.5,1.1-7.6,3.2s-3.2,4.7-3.2,7.7l0,0c0,3.2,1.2,5.9,3.6,8.1c2.1,1.9,4.5,2.8,7.2,2.8c2,0,3.8-0.5,5.5-1.5s3.1-2.3,4-4c1-1.7,1.5-3.5,1.5-5.4C239.1,79.7,238.6,77.9,237.6,76.2z M233.8,81.7c0,1.8-0.5,3.2-1.6,4.3c-1.1,1.1-2.4,1.7-4.1,1.7c-1.6,0-3-0.6-4-1.7c-1.1-1.1-1.6-2.6-1.6-4.3l0,0c0-1.8,0.5-3.3,1.6-4.4s2.4-1.7,4-1.7s3,0.6,4.1,1.7S233.8,79.9,233.8,81.7C233.8,81.6,233.8,81.6,233.8,81.7z M215.4,80.8c-0.1-1.7-0.6-3.2-1.4-4.7c-1-1.7-2.3-3-3.9-4c-1.7-1-3.5-1.4-5.5-1.4c-3,0-5.5,1-7.6,3.2c-2.1,2.1-3.1,4.7-3.1,7.7l0,0l0,0c0,3.2,1.2,5.9,3.5,8c2.1,1.9,4.4,2.8,7.1,2.8c1.9,0,3.8-0.5,5.5-1.5c0.1-0.1,0.2-0.1,0.3-0.2v2.4c0,1.8-0.6,3.2-1.6,4.3c-1.1,1.1-2.4,1.7-4,1.7s-2.9-0.5-4-1.6l-3.4,3.6l0.1,0.1c2.1,1.9,4.5,2.8,7.1,2.8c1.9,0,3.8-0.5,5.5-1.5s3-2.3,4-4s1.4-3.5,1.4-5.4V82.2c0-0.2,0-0.4,0-0.7l0,0C215.5,81.3,215.5,81,215.4,80.8L215.4,80.8z M210.3,81.5L210.3,81.5c0,1.8-0.5,3.2-1.6,4.3c-1.1,1.1-2.4,1.7-4,1.7s-2.9-0.6-4-1.7s-1.6-2.5-1.6-4.3l0,0l0,0c0-1.8,0.5-3.2,1.6-4.4c1.1-1.1,2.4-1.7,4-1.7s3,0.6,4,1.7C209.7,78.3,210.3,79.7,210.3,81.5L210.3,81.5z"/></g><rect x="320" fill="#081F2D" width="320" height="168"/><g><path fill="#FEFEFE" d="M502.1,63.1c-0.9,0-0.8-0.1-1.5-0.4l-2.3-0.5c-0.9-0.1-3.2-0.4-3.7-0.8c-0.9-0.5-2.5-0.5-3.6-0.9s-2.4-0.7-3.6-0.9c-0.9-0.1-2-0.5-2.7-0.8c-4-0.8-2-0.1-4.9-0.1c-2.3,0-5.2-0.5-6.2-2.8c-0.7-1.3,0.1-2.1,1.1-3.1c0.3-0.3,0.9-0.8,1.3-0.9c1.1-0.4,2.7-0.8,3.7-0.8c1.9,0,3.9,0.4,5.3,1.3l1.2,1.1c0.3,0.1,0.5,0.1,0.9,0.3l2.5,0.8c0.5,0.1,1.2,0.3,1.7,0.5l1.7,0.5c0.7,0.3,1.2,0.3,1.7,0.5l5.2,1.7c1.1,0.4,2.4,0.7,3.3,1.1c0.4,0.1,0.5,0.1,0.9,0.3c0.4,0.1,0.1,0.1,0.8,0.4c0.8,0.3,2.1,0.7,2.9,0.4l2.1-1.2c1.6-0.8,5.5-2.3,4-4.7c-0.7-1.1-1.5-1.3-2.7-1.9l-16-8.9c-1.2-0.5-7.4-3.9-8.4-4.7c-0.8-0.5-3.3-2-4-2.1c-2-0.7-4.9-0.7-6.8,0.3l-3.6,2c-0.3,0.1-0.5,0.3-0.8,0.4l-7.6,4.3c-0.1,0-0.3,0.1-0.3,0.1c-0.4,0.3-0.4,0.1-0.8,0.4c-0.8,0.4-1.5,0.8-2.3,1.2l-0.5,0.3c0,0,0,0-0.1,0l-1.6,0.9c-0.5,0.3-0.9,0.5-1.5,0.8l-5.3,2.9c-0.5,0.3-1.2,0.4-1.6,0.8l-0.3,0.3c-0.5,0.4-1.6,0.8-2.3,1.2c-2,1.2-3.5,2.5-1.2,4.7c0.5,0.5,2.3,1.2,2.9,1.6c1.5,0.8,2.8,1.7,4.4,2.4c0.4,0.3,1.1,0.5,1.6,0.8c0.4,0.1,0.3,0.1,0.7,0.4l4.8,2.5c0.5,0.5,3.9,2.1,4.7,2.7l8.8,4.9c1.5,0.8,1.1,0.8,3.1,1.5c1.2,0.4,2.8,0.4,4.3,0.3c1.9-0.3,1.1-0.3,1.6-0.5c0.4-0.1,0.4,0,0.8-0.3l9.4-5.2c1.6-0.8,3.5-2.1,5.2-2.8c0.8-0.3,0.1-0.1,0.5-0.5l2.1-1.2C501.8,63.6,501.9,63.5,502.1,63.1L502.1,63.1z"/><path fill="#FEFEFE" d="M458.3,70.4c-1.2-0.4-0.7-0.5-1.3-0.4c0,0.5,0.3,1.2,0.4,1.9c0.1,0.9,0,0.1,0.4,0.8l0.7,1.7c0.3,0.4,0.1,0.3,0.4,0.7c0.9,1.6,1.6,2.7,3.3,3.9c2.1,1.6,3.5,1.9,4,2.3l0.3,0.1c0.1,0.1,0.1,0.1,0.3,0.3l2.5,1.2c0.3,0.1,0.5,0.1,0.8,0.4l4.7,2.5c2,1.1,4.7,3.1,6.8,2.3c0.7-0.3,1.1-0.4,1.7-0.7l7.7-4c0.4-0.3,0.5-0.1,0.9-0.4l4-2c0.7-0.4,1.9-1.7,2.1-2.4c0.3-0.9,1.1-5.1,1.1-6c-0.5,0-1.3,0.3-1.6,0.5l-5.8,2.9c-0.9,0.5-2.7,1.1-2.8,1.2l-1.2,0.7c-0.3,0.1-0.4,0.3-0.7,0.3c-0.5,0.3-0.8,0.4-1.3,0.5c-0.3,0.1-0.4,0.3-0.7,0.3c-0.3,0.1-0.4,0.3-0.5,0.4l-4,1.9c-0.8,0.1-2.7-1.1-3.3-1.5l-2-0.9c-0.7-0.3-0.8-0.3-1.2-0.7l-3.7-1.9c-0.4-0.3-2.1-0.9-2.7-1.2c-0.8-0.5-1.7-0.8-2.7-1.2l-4.5-2.3c-0.3-0.1-0.3-0.1-0.5-0.3C459.3,70.8,458.6,70.5,458.3,70.4L458.3,70.4z"/><path fill="#FEFEFE" d="M450.1,112.4c0.7,0.3,0.9,0.8,1.2,1.3c1.2,2.3,0.7,1.7-4,1.7c-4,0-4.5-0.5-4.5,0.8c0,2.5-0.3,2.1,2.3,2.1c1.1,0,6.2-0.1,6.5,0.1c0.5,0.4-0.5,2.9-1.9,3.3c-1.3,1.1-3.3,1.3-5.3,0.8c-2.3-0.5-0.5,0-2.5-0.8c-0.1,0-0.3-0.1-0.4-0.1l-1.5-0.9c-0.3,0,0,0-0.3,0c-0.3,0.3-0.1,3.3-0.1,3.6c0.3,0.7,0.8,0.3,1.6,0.8s0.4,0,1.7,0.5c1.7,0.8,5.3,0.5,7-0.1c0.3-0.1,0.4-0.1,0.8-0.3c0.3-0.1,0,0,0.4-0.1c0.3-0.1,0,0,0.3-0.1c0.4-0.1,0.3-0.1,0.7-0.3c1.5-0.9,0.7-0.3,1.5-1.1c0.9-1.1,1.6-1.9,2.1-3.3c0.1-0.4,0.3-0.9,0.4-1.3c0.4-1.9,0.1-4.7-0.7-6.2c-1.1-2-2.5-3.6-4.8-4.4c-0.7-0.3-0.5-0.4-1.3-0.4c-0.9-0.1-2.3-0.4-3.3-0.3c-1.6,0.1-4.5,0.7-5.8,1.5v3.3c1.1,0.1,2-1.2,5.1-1.5c1.5-0.1,1.6,0.1,2.3,0.3C449.6,111.6,449,111.8,450.1,112.4L450.1,112.4z"/><path fill="#FEFEFE" d="M480.9,117.6c1.1-0.9,1.7-1.2,3.3-0.8c0.5,0.1,0.7,0.3,0.9,0.5c0.9,0.9,1.3,3.3,0.4,4.5c-0.5,0.7-0.4,0.9-1.6,1.3c-0.9,0.3-1.7,0-2.5-0.3s-0.5-1.2-0.5-2.3C480.9,119.6,480.9,118.5,480.9,117.6L480.9,117.6z M481.1,125.4c1.1,0.1,0.9,0.9,3.5,0.8c0.9,0,2.5-0.4,3.2-0.9c1.7-1.3,2.5-3.3,2.4-5.7c0-1.9-0.5-3.3-1.7-4.4c-1.2-1.2-2.5-1.6-4.5-1.6c-1.7,0-2.1,1.1-2.9,1.1c-0.1-0.1-0.1-0.3-0.1-0.4l-0.1-0.3c0,0,0,0,0-0.1c-0.4,0-3.1-0.1-3.3,0.1c-0.3,0.3-0.1,14-0.1,16.4c0,2-0.5,1.6,2.5,1.6c0.7,0,0.9,0.1,1.2-0.1C481.2,131.4,481.1,126.5,481.1,125.4L481.1,125.4z"/><path fill="#FEFEFE" d="M412.1,125.8c0.5,0.1,10.6,0.1,11.6,0V123c-1.9-0.1-4.3,0-6.2,0c-1.5,0-1.6,0-1.6-1.5c0-1.1,0-2.1,0-3.2l7.3-0.3v-2.8c-1.3-0.3-5.5,0.3-7.2-0.1v-3.9c1.7-0.3,6.5,0.1,7.6-0.1v-2.8c-0.9-0.1-10.6-0.1-11.6,0C412.1,110.4,411.9,125.3,412.1,125.8L412.1,125.8z"/><path fill="#FEFEFE" d="M538.9,118.2c0-0.9,0.1-1.3,0.9-1.5c2.3-0.5,4,0.4,4,2.8c0,1.9-0.1,2.7-1.5,3.3s-2.3,0.4-3.5-0.4L538.9,118.2L538.9,118.2z M538.9,125.3c0.8,0,3.3,2.1,6.4,0.1c0.3-0.1,0.8-0.7,1.2-0.9c0.1-0.1,0.1-0.1,0.3-0.3c0.8-0.8,1.3-2.9,1.3-4.3c0-3.7-2.3-6.4-6.1-6.4c-2.3,0-2.3,0.9-3.1,1.1c-0.3-0.3-0.3-0.4-0.4-0.8H535v18.1c0.8,0,2.9,0.3,3.5-0.1L538.9,125.3L538.9,125.3z"/><path fill="#FEFEFE" d="M503,62.9c-0.1,0.9,0.4,1.1,0.9,2.7c0.3,0.9,0.5,1.6,0.7,2.7c0.5,4.9,0.3,8.1-0.3,12.9c-0.1,0.9-0.7,2.1,0.4,2.7c0.4,0.3,0.8,0.4,1.3,0.5c3.3,0.4,2.8-1.6,3.2-5.5c0.3-2.1,0.3-4.4,0.3-6.6c0-2.7-0.3-6.9-0.9-9.4c-0.1-0.4-0.3-0.8-0.4-1.3s-0.3-0.7-0.5-1.1c-0.8,0-1.7,0.7-2.4,1.1L503,62.9L503,62.9z"/><path fill="#FEFEFE" d="M427.1,125.8c0.7,0.3,3.7,0.1,4.4,0c0.3-3.3-0.3-12.4,0.1-14.4c1.2-0.1,6.4,0.1,6.9-0.1c0.3-0.4,0.1-2.4,0.1-3.1c-0.5-0.1-10.9-0.1-11.4,0L427.1,125.8L427.1,125.8z"/><path fill="#FEFEFE" d="M529.2,118.8c-0.9,0.1-2.4,0-3.5,0c-0.7,0-2,0.1-0.4-1.9c0.3-0.4,0.5-0.5,1.1-0.7c0.5-0.1,1.2-0.1,1.6,0.1C528.7,116.6,529.3,117.8,529.2,118.8L529.2,118.8z M532.6,122.5c-0.7,0.1-2.7,1.7-5.3,1.2c-0.4-0.1-0.5-0.3-0.8-0.4c-0.9-0.4-1.1-0.3-1.5-1.3c-0.3-0.5-0.7-0.4-0.4-1.1c0.1-0.4,0.1-0.3,0.8-0.3h6.5c0.8,0,1.5,0.3,1.3-0.7c-0.1-1.3-0.3-2.3-0.9-3.3c-1.2-2.3-2.9-3.1-5.5-3.1c-0.8,0-1.5,0.1-2.1,0.3c-1.1,0.3-2.8,1.7-3.3,2.9c-0.5,1.2-0.7,2-0.5,3.7c0.1,1.7,0.9,3.7,2.4,4.7l0.1,0.1c1.2,0.8,3.2,0.9,4.7,0.8c1.3,0,2.4-0.4,3.5-0.8c0.4-0.1,1.1-0.4,1.2-0.9v-1.9C532.6,122.6,532.6,122.6,532.6,122.5L532.6,122.5L532.6,122.5z"/><path fill="#FEFEFE" d="M495.7,118.8c-0.1-0.7,0.3-1.5,0.7-1.9c1.7-1.6,4.1-0.1,4,1.9H495.7L495.7,118.8z M503.1,122.5c-0.1,0.7,0,0.1-0.5,0.5c-0.8,0.5,0,0.1-0.9,0.4c-0.5,0.1-0.1,0.1-0.5,0.3c-0.7,0.3-2.1,0.1-2.9,0.1s-0.7-0.1-1.2-0.4c-0.4-0.1-0.3,0-0.5-0.3l-0.3-0.3c-0.3-0.3-0.4-0.5-0.7-0.9c-0.1-0.3-0.3-0.5-0.1-0.9c0.1-0.4,0.1-0.1,0.1-0.3c0.4-0.3,6.8,0,8.4-0.1c0.1-0.4-0.1-1.2,0-1.9c-0.3-2.1-2.3-4.4-4.1-4.8c-0.9-0.1-1.7-0.3-2.7-0.1c-1.6,0.1-3.1,0.8-4,1.9c-1.1,1.2-1.5,2.7-1.5,4.4c0,0.9,0.1,1.9,0.4,2.5c0.4,0.8,0.4,1.1,1.1,1.9c2.1,2.5,6.5,2.3,9.2,1.2c1.1-0.4,1.5-0.7,1.5-1.5c0-0.3,0-1.3,0-1.5C503.8,122.2,503.4,122.1,503.1,122.5L503.1,122.5z"/><path fill="#FEFEFE" d="M509.6,125.8c0.1-0.5,0-2.8,0-3.6c0-0.8-0.1-1.2,0.5-1.3h3.9c0.9,0.1,0.1,2.9,0.5,5.1h3.3v-10.6c0-1.3,0.5-0.9-3.3-1.1c-0.3,1.2,0.1,3.7-0.3,4.5c-0.5,0.1-4,0.1-4.5,0c-0.5-0.9,0-3.2-0.3-4.5h-3.3c0,3.5-0.1,8.4,0,11.6C507.1,125.9,509.1,125.9,509.6,125.8L509.6,125.8z"/><path fill="#FEFEFE" d="M468.8,125.8h3.2v-8.6c0-0.8,0-0.4,0.4-0.9h3.5c0-0.4,0-0.8,0-1.1c0-0.4,0.1-0.9-0.3-0.9c-0.1,0-0.1,0-0.3,0h-10v2.1c4.3,0.3,3.7-1.3,3.7,4.8C468.8,122.2,468.6,124.7,468.8,125.8L468.8,125.8z"/></g><rect y="168" fill="#7A4420" width="320" height="168"/><rect x="320" y="168" fill="#BF2E1A" width="320" height="168"/><g><g><path fill="#FFFFFF" d="M434.3,245.5c0,0,0.2-3.2-4.1-3.4h-4.1v7.4h3.5C429.6,249.5,434.3,249.5,434.3,245.5z"/><path fill="#FFFFFF" d="M431.5,254.1h-5.4v7.9h5.4c0,0,5.4,0.3,5.4-4.1C436.9,257.9,437.1,254.1,431.5,254.1z"/><path fill="#FFFFFF" d="M409.8,232v40h42.4v-40H409.8z M442.3,258.3c0,8.1-9.7,8.1-9.7,8.1H421v-28.7h10.1c9.1,0.8,8.5,7.7,8.5,7.7c0,4.2-3.7,5.8-3.7,5.8C442.4,252.7,442.3,258.3,442.3,258.3z"/></g><g><path fill="#FFFFFF" d="M483.3,245.5c0,0,0.2-3.2-4.1-3.4h-4.1v7.4h3.5C478.6,249.5,483.3,249.5,483.3,245.5z"/><path fill="#FFFFFF" d="M480.5,254.1h-5.4v7.9h5.4c0,0,5.4,0.3,5.4-4.1C485.9,257.9,486,254.1,480.5,254.1z"/><path fill="#FFFFFF" d="M458.8,232v40h42.4v-40H458.8z M491.1,258.3c0,8.1-9.7,8.1-9.7,8.1h-11.6v-28.7H480c9.1,0.8,8.5,7.7,8.5,7.7c0,4.2-3.7,5.8-3.7,5.8C491.4,252.7,491.1,258.3,491.1,258.3z"/></g><path fill="#FFFFFF" d="M507.8,232v40h42.4v-40H507.8z M541.8,264.1c0,0-8.7,5.2-18.8,1.2c0,0-8.5-3.1-8.8-13.3c0,0-0.4-10.5,11-13.9c0,0,3-1.2,8.5-0.6c0,0,3.3,0.3,8,2.3v5.3c0,0-5.2-3.2-10.9-3.3c0,0-10.7-0.2-11.2,10.2c0,0-0.4,9.6,11,10.2c0,0,4.8,0.6,11.3-3.6L541.8,264.1L541.8,264.1z"/></g><g><path fill="#CCCCCC" d="M153.9,246.1c0.7-0.2,10.4-0.1,11.4,0c0.8,0.1,1.4,0.6,1.8,1.1c0.3,0.3,0.8,1.5,0.8,2.1c0,1.4,0.2,1.5-0.5,2.5s-0.6,0.7-1.5,1.4c-0.2,1.5,1.5,3,1.6,4.3c-0.5,0.2-1.5,0.2-2.1,0.2c-0.8,0-1,0-1.3-0.5c-0.1-0.2-0.1-0.1-0.1-0.3l-1.4-3.2c-0.9-0.1-5.6-0.2-6,0.1c-0.2,0.3,0,2.2-0.1,3c0,0.3,0,0.7-0.2,0.8c-0.3,0.1-2.2,0.1-2.5,0c-0.3-0.5-0.1-4.8-0.1-5.7C153.8,250.6,153.6,246.9,153.9,246.1L153.9,246.1z M171.5,257.6c-0.2-1.3-0.2-10.8,0.1-11.7c0.7-0.1,9.7-0.1,11.1,0c0.8,0,1.6,0.2,2.2,0.6c1.1,0.8,0.8,0.9,1.1,1.6s0.3,1.4,0,2.2c-0.6,1.5-0.9,1-1.3,1.4c0.1,0.5,0.5,0.5,0.8,0.7s0.1,0,0.2,0.5c0.6,1.7,0.7,1.3,0.2,2.6c-0.1,0.3-0.2,0.7-0.5,1c-0.2,0.5-0.5,0.3-0.8,0.6c-0.8,0.5-1,0.5-2.2,0.6C181.3,257.7,172.4,257.9,171.5,257.6L171.5,257.6z M136.3,246.1c3.3-0.1,8.7-0.1,12.2,0c1.1,0,1.6-0.1,1.6,0.3c0.1,0.5,0.1,1.5-0.1,1.9c-0.5,0.6-10.2-0.2-11,0.2l-0.1,1.9c1,0.2,3.7,0.1,4.9,0.1c1.6,0,3.2,0,4.8,0c0.1,0.5,0.3,1.9-0.1,2.2c-0.6,0.3-8.6-0.2-9.5,0.2c-0.1,0.3-0.1,0.7-0.1,1.1l0.1,0.7c0.1,0.1,0,0.1,0.1,0.2c0.7,0.3,10.4-0.2,11.1,0.2c0.2,0.2,0.1,0.1,0.2,0.5c0,0.1,0,0.5,0,0.7c0,0.5,0,0.8-0.1,1.3c-1.1,0.2-13.8,0.2-14.3,0c-0.3-0.6-0.1-4.7-0.1-5.7C136.2,250.6,136.1,246.8,136.3,246.1L136.3,246.1z M200,253.3c-2.6-0.3-5.4-0.2-7.9-0.6c-1.5-0.2-2.1-0.7-2.7-1.5c-0.8-0.9-0.6-2.4,0.1-3.2c0.8-1.1,3-2.1,4.3-2.1c1.3-0.1,1.3-0.2,1.7-0.3c1.5-0.1,3.1,0.5,3.7,0.5c1.1,0,2.4,0.5,3.2,0.9c0,0.6-0.1,0.7-0.3,1.1c-0.2,0.5-0.2,0.6-0.3,1c-0.8,0.1-2.6-0.9-5.4-0.9c-1.9,0-2.5,0-4,0.7c-0.5,0.2-0.6,0.5-0.5,1c0.6,0.6,2.7,0.5,3.9,0.6c1.5,0.2,4.6,0,5.7,0.7c1.7,1,2.3,3.1,1.3,4.5c-1.3,1.6-2.6,1.8-4.5,2.2c-0.6,0.1-0.5,0.2-0.9,0.2c-0.3,0-0.7,0.1-0.9,0.1c-1.4,0.1-2.7-0.1-4-0.3c-0.5-0.1-0.6-0.2-0.8-0.2c-0.5-0.1-0.6,0-1-0.1c-0.2-0.1-0.5-0.3-0.7-0.5c-0.2-0.1-0.5-0.2-0.6-0.3c0.1-0.6,0.2-0.7,0.5-1c0.6-1-0.1-1.4,1.8-0.6c1.1,0.5,2.6,0.5,3,0.6c0.5,0.1,0.9,0.2,1.5,0.2s0.9-0.2,1.6-0.2c0.7,0,0.9-0.1,1.4-0.3C199.7,254.8,200.4,254.5,200,253.3L200,253.3z M119.6,249.6l-1-1.9c-0.6-1-0.8-1.1-0.7-1.6c0.5-0.2,1.5-0.1,2.1-0.1c1.1,0,0.9,0,1.3,0.8c0.1,0.2,0.3,0.3,0.5,0.7c0.1,0.2,0.2,0.5,0.3,0.7c0.3,0.6,3.2,6.5,3.4,6.9c0.5,0,0.3-0.1,0.6-0.6c0.1-0.2,0.2-0.5,0.3-0.7c0.2-0.3,1.6-3.3,2.2-4.1c0.3-0.5,0.3-0.9,0.7-1.5c1.3-1.9,0.6-2.1,2.1-2.1c0.7,0,1.4,0,2.1,0c0,0.5-0.1,0.7-0.3,0.9c-0.2,0.3-0.2,0.5-0.3,0.8c-0.2,0.6-0.6,1-0.8,1.6l-1.7,3.1c-0.5,0.8-1.5,3-2.1,4c-0.1,0.2-0.3,0.6-0.5,0.7c-0.3,0.5-1.3,0.3-2.1,0.3c-1.4,0-1.7,0.1-2.1-0.6l-3.3-6.3c-0.2-0.5-0.2-0.5-0.3-0.9C119.7,249.6,119.7,249.8,119.6,249.6L119.6,249.6z M206.8,229.4c0.5-0.1,2.5-0.2,2.7,0s0.1,2.4,0.1,2.9v4.7c0,0.2,0,0.5,0,0.8s0,0.5,0.1,0.7c0.5,0.2,5.5,0.1,6.5,0.1s2.2,0,3.2,0c0.6,0,0.5,0.5,0.5,1c0,0.6,0,0.9-0.1,1.4c-1.6,0.3-4.3,0.1-6.2,0.1c-2.1,0-4.2,0.1-6.3,0.1c-0.6,0-0.8-0.1-0.8-0.8c0-0.5,0-1,0-1.6C206.7,236.5,206.5,231,206.8,229.4L206.8,229.4z M187.2,240.9c0-1,2.9-5.6,3.4-6.5l2.7-4.8c0.3-0.3,1.5-0.1,2.2-0.2c0.9-0.1,1.5-0.3,1.9,0.3c0.7,1.3,2.1,3.8,2.7,4.7l2.7,4.8c0.5,0.9,0.7,1,0.8,1.7h-3l-1-1.9c-0.6-0.7-1.5-0.3-2.5-0.3c-1-0.1-1.9,0-3,0c-0.9,0-2.2-0.1-3,0l-1.4,2.3C189.3,241,188,241,187.2,240.9L187.2,240.9z M152.1,240.8c0-0.5,0.3-0.7,0.7-1.6c0.2-0.7,0.6-0.9,0.8-1.4c0.7-1.3,0.3-0.9,1.1-2.2c0.1-0.2,0.2-0.5,0.3-0.7c0.6-1,1.1-1.8,1.6-2.9c0.2-0.5,0.6-1.1,0.8-1.4s0.7-1.1,0.8-1.4h3.8l4.9,8.6c0.8,1.8,1.4,2.1,1.5,3h-2.9c-0.3-0.6-0.7-1-1-1.6c-0.6-0.8-0.6-0.7-1.8-0.7h-4.2c-1.7,0-2.4-0.3-3,0.7c-0.5,0.8-0.2,0.6-0.9,1.6C154.4,241,152.6,241,152.1,240.8L152.1,240.8z M117.4,240.9c-0.2-1.5-0.1-7.4-0.1-9.4c0-0.6-0.2-1.8,0.2-2.1c0.2-0.1,1.9-0.1,2.3,0c0.7,0.1,0.3,1.4,0.3,1.9c0,0.8,0,1.5,0.1,2.3h8.2c0.6-0.8-0.2-3.5,0.3-4.1c0.3-0.3,2.2-0.2,2.6-0.1c0.1,0.6,0.1,10.9,0,11.3c-0.6,0.2-2.1,0.2-2.7,0c-0.3-0.7,0-3.4-0.1-4.5c-0.7-0.3-3.4-0.2-4.3-0.2c-1.3,0-3.3-0.1-4.3,0.2c0,1.4,0.2,3.3,0,4.6C119.5,241,118.1,241.1,117.4,240.9L117.4,240.9z M135.4,229.5c0.7-0.2,10.8-0.2,11.7,0c0.6,0.1,1.4,0.8,1.7,1.3c0.6,0.9,1.1,2.4,0.6,3.4c-0.3,0.9-0.1,1.4-1.9,2.5c-0.1,0.8,0.8,1.8,1.4,3.2c0.3,0.9,0.3,0.5,0.5,1h-2.9c-0.3-0.3-0.9-1.5-1.1-1.9c-0.2-0.8-0.7-1.3-1-1.9c-1,0-5.2-0.2-5.8,0.1c0,0.1,0,0-0.1,0.2c-0.1,0.5,0,2.7,0,3.5c-0.5,0.3-2.3,0.2-3,0.1C135.2,239.9,135.2,229.9,135.4,229.5L135.4,229.5z M102.8,241c-0.6,0.2-1.3,0.1-1.8,0.1c-1.4,0-1,0.2-1-4.5c0-1.3,0-6.4,0.1-7.2c2.6-0.2,5.7,0,8.5,0c1.4,0,2.6-0.1,3.8,0.5c2.3,1.1,2.6,3.9,1.4,5.6c-1.9,2.9-8.1,0.8-10.8,1.7C102.8,238.1,103.1,240.5,102.8,241L102.8,241z M171.2,239.9c0-0.5,0.3-0.8,0.5-1.3c0.6-1.7,0.3-0.9,1.6-0.6c0.3,0.1,0.8,0.2,1.3,0.3c1.6,0.5,7.1,0.9,7.8-0.9c0.9-2.4-8.2-0.3-10.1-2.4l-0.5-0.3c-0.2-0.1-0.2-0.1-0.3-0.3c-1.4-2.6,1.3-3.9,2.6-4.6c1.7-0.9,4.9-0.7,7-0.6l3.8,1c0,0.6-0.2,0.8-0.3,1.3c-0.1,0.6,0,0.3-0.1,0.7l-0.2,0.3c-0.1,0.1-0.1,0.1-0.1,0.2c-0.7,0-1.6-0.7-2.5-0.7c-1-0.1-1.7-0.5-2.9-0.3c-0.9,0.1-1.8,0.3-2.7,0.3c-0.9,0.1-1.9,0.2-1.8,1.3c0.7,0.8,2.6,0.7,3.8,0.7c2.5,0,3.4-0.1,5.8,0.7c1.7,0.6,2.2,2.7,1.3,4.3c-0.7,1.3-2.9,2.1-4.3,2.3c-2.6,0.3-3,0.3-5.7-0.2C173.6,240.8,171.7,240.6,171.2,239.9L171.2,239.9z M160.1,216.2c-1.1,0.1-2.6,2.3-3.2,3.2l-1.1,2.1l-0.7,0.9c-0.3,0.2-1,0.1-1-0.3l1.7-3.1c0.2-0.3,0.2-0.2,0.3-0.5c0.1-0.2,0.1-0.3,0.2-0.5c0.3-0.7,0.8-1.4,1.1-1.9c0.5-0.7,0.8-1.3,1.3-1.9c0.5-0.7,0.8-1.3,1.3-1.9c1.3-1.9,1-1.5,1.9-2.7c0.5-0.7,1.9-1.7,2.5-2.3c1-0.9,2.9-1.8,4.8-1.6c3.1,0.3,2.7,3.3,2.3,3.7c-0.6-0.2,0-0.9-1.4-1.8c-1.6-1-3.4-0.6-5,0.2c-0.9,0.5-2.9,2.2-3.3,2.9c-0.8,1.1-3.2,5-3.3,6c0.5,0,0.8-0.5,1.7-1c0.3-0.2,1.5-0.9,1.8-0.6c0.3,0.3-0.1,0.8-0.3,1.1c-1.1,1.8-0.9,1.5-1.8,3.4c-0.5,0.9-0.9,2.1,0.1,2.5c0.8,0.3,1.9-0.6,2.4-0.9l1.8-1.6c0.2-0.3,0.3-0.8,0.6-1.1c0.5-0.7,1.8-2.4,2.5-2.7c0.8-0.5,1.8-0.7,2.6-0.2c0.1,1-0.5,2.1-1.4,2.6c-0.5,0.2-0.9,0.3-1.4,0.6c-0.7,0.3-1.4,0.3-1.5,0.5c-0.3,0.7-0.6,2.3,0.1,2.9s2.2,0,2.7-0.3c0.7-0.5,1.4-1,2.1-1.5c1.1-0.9,1.1-1.6,1.8-1.6c0,0.7-0.3,0.8-0.7,1.3c-0.3,0.3-0.6,0.7-0.9,1c-0.3,0.3-0.7,0.6-1.1,0.8c-1.4,0.9-2.4,1.6-4.3,1.5c-1.1,0-1.5-0.5-1.5-1.4c0-0.2,0-0.6-0.1-0.9c-0.3,0.1-0.2,0.2-0.6,0.6c-0.7,0.6-2.6,1.9-3.5,2.1c-0.6,0.1-1.4,0-1.7-0.5c-0.3-0.7-0.2-1,0-1.7l1.4-3C159.8,217.3,160.2,216.9,160.1,216.2L160.1,216.2z M147.6,207.5c3.1-0.1,6.4-0.1,9.6,0c0.9,0,1.4,0,2.2-0.2c0.2,0,0.9-0.1,1-0.1c0.6-0.2-0.2-0.1,0.8-0.3c1.1-0.2,1.5-0.9,1.7-1.4c0.2-0.3,0.1,0,0.2-0.3c0.1-0.5-0.1-0.6,0.2-0.9c0.5,0,1,0.9,1,1.4c0,0.3-0.6,1.3-0.9,1.5c-1,0.7-2.3,0.8-3.8,0.9c-2.6,0.1-2.4-0.5-3.5,1.1c-0.8,1-2.9,4.3-3.5,5.7c-0.6,0.9-1,1.9-1.7,3c-0.3,0.6-1.4,2.3-1.5,3.2c-0.1,1.3,1.1,1.4,2.3,1.4c0.5,0,0.7-0.1,0.8,0.2c-0.5,0.5-2.5,0.2-3.2,0.2c-0.9,0-2.2-0.1-2.2-1.3c0-0.8,1.9-3.8,2.4-4.6c0.3-0.7,5-8.2,5-8.8c-1.8-0.5-5.5,0.1-7,0.8c-1.1,0.5-2.3,2.2-2.9,3.2c-0.2,0.5-0.2,1.1-0.7,1.1c-0.2-0.8,0.9-2.6,1.3-3.3c0.2-0.6,0.7-0.8,1-1.3C147.4,207.5,147.1,208.2,147.6,207.5L147.6,207.5z M126.2,265.1c2.5,0.1,5.3,0,7.8,0h54.6c1.3,0,2.6,0,3.9,0c1.5,0,1-0.9,1.9-1.9c0.5-0.6,1.5-1.3,2.4-1.6c1.1-0.3,2.1-0.5,3.4-0.5c5.2,0,10.3,0,15.5,0c1.7,0,8.4,0.2,9.6-0.1c0.5-0.1,1.9-1,2.4-1.6c1.8-2.7,2.4-3.1,2.4-7.3c0-3.3-0.2-5.7,1.1-8.6c0.2-0.5,0.7-0.9,0.8-1.1c0.2-0.5-0.3-0.8-0.6-1.1c-0.7-1.1-1.1-3.3-1.3-4.6c-0.1-2.3,0-5.3,0-7.8c0-1,0.1-2.7-0.3-3.5c-0.3-0.7-0.3-1.4-1.3-2.6c-2.4-3.4-4.3-3-8.8-3c-2.6,0-5.2,0.1-7.7,0.1h-19.5c-3.5,0-1.9,0.2-5.4-0.5c-0.5-0.1-0.9-0.5-1.3-0.7c-1.4-0.9-0.9-0.5-1.9-1.9c-0.9-1.3-0.5-5.5-0.5-7.3c0-1.1-0.1-2.5-0.3-3.5c-0.2-1.1-0.8-1.7-1.5-2.4c-0.9-1-2.2-1.8-3.5-2.3c-1.4-0.5-0.8-0.1-1.5-0.5c-0.8-0.5-5.3-1.3-6.5-1.3c-4,0-6.1,0.3-8.7-3c-0.2-0.3-0.5-0.8-0.8-1.1c-0.6-0.8-0.5-0.9-0.7-1.1c-0.5,0.1-0.3,0-0.6,0.5l-1,1.7c-1.1,1.7-2.3,2.3-4.2,3.1c-0.7,0.2-2.6,0.1-3.4,0.1c-0.5,0-3.9,0.2-4.2,0.5c-0.9,0.3-2.7,0.1-6.3,1.8c-0.8,0.3-2.4,1.8-2.9,2.6c-0.1,0.3-0.1,0.5-0.2,0.7c-0.3,0.7-0.5,0.5-0.7,1.9c-0.2,2.3-0.1,4.9-0.1,7.2c0,1.6-0.1,1.8-0.9,2.9c-0.3,0.3-0.5,0.7-0.9,1c-2.6,1.7-3.9,1.6-7.4,1.6c-4.9,0-9.7,0.1-14.5,0.1s-9.5,0-14.3-0.1c-0.7,0-2.7-0.2-3.4,0.2c-0.3,0.2-0.2,0.1-0.7,0.2c-0.3,0-0.3,0.1-0.6,0.3c-2.4,1.6-0.7,0.6-1.9,1.7c-0.5,0.3-0.3,0.7-0.7,1.1c-0.3,0.5-0.3,0.8-0.6,1.3c-0.5,0.6-0.3,0.6-0.3,1.4c-0.1,0.7-0.2,0.1-0.2,1.6c0,0.6,0,1.3,0,1.8v7.2c0,2.6-0.2,1.7-0.5,2.4c-0.1,0.2,0,0.6,0,0.8c-0.3,0.3-0.2,0-0.3,0.7c-0.1,0.3-0.1,0.5-0.2,0.7c-0.8,1.7-0.8,1,0,2.6c0.2,0.5,0.3,0.9,0.6,1.4c0.3,1.1,0.6,1.9,0.6,3.3c0,1.5-0.2,6.5,0.3,7.4c0.3,0.5,0.3,0.8,0.6,1.4c0.3,0.6,1.9,2.7,2.6,3.1c1.1,0.7,1.5,0.9,3,0.9c1.3,0,2.5,0,3.8,0c5,0,10.4-0.2,15.5,0c1.3,0,2.6,0,3.9,0c2.1-0.1,2.1,0.2,2.5,0.2c0.8,0.1,2.6,0.9,3.2,1.5C125.1,263.1,126.1,264.5,126.2,265.1L126.2,265.1z"/><path d="M143.1,276.1l-0.1,0.5h-1.1c0-0.8,1.1-2.3,1.4-2.7l1.4-2.6c0.2-0.3,0.9-0.3,1.4-0.2c0.5,0,0.7,0.1,0.9,0.5c0.3,0.6,0.7,1.1,1,1.7l1.4,2.5c0.2,0.3,0.5,0.5,0.5,0.9c-0.5,0.2-0.8,0.1-1.3,0.1c-0.9-1.4-0.5-1-2.4-1.1c-0.6,0-1.1,0-1.7,0C143.3,275.6,143.8,275.7,143.1,276.1L143.1,276.1z M170.1,276.5H169c-0.1-0.6-0.2-5.3,0-5.5c0,0,1.1-0.5,1.3,0.3L170.1,276.5L170.1,276.5z M167,276.9c-0.3,0.1-1,0.1-1.4-0.1c-0.2-0.6,0-1.4-0.1-2.1c-0.6-0.2-3.2-0.2-4,0c-0.3,1,0.6,2.4-1.3,2.1c-0.5-0.1-0.2,0-0.3-0.1c-0.2-0.2-0.1-3.1-0.1-3.7c0-0.8-0.3-2.3,1.3-1.9c0.9,0.2,0.1,1.6,0.5,1.9l0.1,0.1c0.5,0.1,2.9,0.2,3.4,0.1c1.1-0.2-0.1-1.8,0.8-2.2c1-0.3,1.3,0.2,1.3,1C167.2,272.6,167.1,276.5,167,276.9L167,276.9z M173.5,276.9l-1.1-0.1c-0.2-0.6-0.3-5-0.1-5.7c1.5-0.3,1.8,0.5,2.3,1c0.6,0.6,1.4,1.1,2.4,2.3c0.2,0.2,0.2,0.3,0.7,0.5c0.1-1-0.1-2.9,0.1-3.5c0.3-0.1,0.8-0.1,1.3-0.1c0.1,0.8,0.5,5.4-0.2,5.7c-1.1,0.5-1.8-0.8-2.7-1.5l-1.3-1c-0.5-0.3-0.7-0.9-1.4-1V276.9L173.5,276.9z M136.5,276.7H135c-0.5-1.3-0.3-0.9-0.9-1.9c-0.5-0.7-0.5-1.6-1.1-1.9c0,1.3,0.3,3.8-0.3,4c-1.4,0.3-1.1-0.6-1.1-2.2l0.1-3.7c0.5-0.1,1.5-0.1,1.9,0c0.8,0.1,0.7,0.6,1,1.1c0.5,0.7,1,2.6,1.4,2.9c0.5-0.2,0.3-0.9,1-1.9c0.5-0.8,0.6-1.3,1-1.9c0.6,0,2.1-0.3,2.3,0.2c0.1,0.5,0.1,4.9,0,5.4c-0.3,0.1-0.9,0.1-1.4,0c-0.1-0.8,0.2-3.3-0.2-3.9C137.9,273.2,137,275.9,136.5,276.7L136.5,276.7z M157.3,274.6c0.2,0.1,0.1,0.1,0.3,0.2c0.1,0.1,0.2,0.1,0.5,0.2c0,0.8-0.7,1.1-1.4,1.5c-1.5,0.7-6,0.3-6-2.7c0-1.7,1.5-2.6,3.1-3c1.1-0.2,3,0.1,3.7,0.7c0.3,0.2,0.7,0.5,0.8,0.8c-0.2,0.3-0.8,0.8-1.4,0.6c-0.3-0.1-0.2-0.6-1.4-0.7c-1.3-0.2-2.7,0.1-3.1,1c-0.7,1.8,1.8,2.9,3.5,2.1C156.7,275.1,156.8,274.7,157.3,274.6L157.3,274.6z M187.9,272.4h-5.4v0.8c1,0.1,4.3-0.1,4.9,0.2c0.2,1.9-1.5,0.8-4.9,1.1c-0.1,0.8-0.1,1,0.7,1c0.9,0,4.6-0.2,4.8,0.1c0.2,0.3,0.2,0.8,0.1,1.3c-0.8,0.1-6.6,0.1-7.2,0c-0.1-0.7-0.2-5.2,0-5.6c0.2-0.2,5.8-0.2,6.5-0.1C188.5,271,188.2,272,187.9,272.4L187.9,272.4z M126.2,265.1c-0.2-0.6-1.1-1.9-1.5-2.3c-0.6-0.6-2.3-1.4-3.2-1.5c-0.5,0-0.5-0.3-2.5-0.2c-1.3,0-2.6,0-3.9,0c-5-0.2-10.3,0.1-15.5,0c-1.3,0-2.5,0-3.8,0c-1.5,0-1.8-0.2-3-0.9c-0.7-0.5-2.3-2.5-2.6-3.1c-0.2-0.6-0.2-0.9-0.6-1.4c-0.6-0.9-0.3-6-0.3-7.4s-0.1-2.2-0.6-3.3c-0.1-0.5-0.2-0.9-0.6-1.4c-0.9-1.6-0.8-0.9,0-2.6c0.1-0.3,0.1-0.3,0.2-0.7c0.1-0.6,0-0.2,0.3-0.7c0-0.2,0-0.6,0-0.8c0.2-0.6,0.3,0.3,0.5-2.4v-7.2c0-0.6,0-1.3,0-1.8c0-1.5,0.1-0.9,0.2-1.6c0.1-0.8-0.1-0.9,0.3-1.4c0.3-0.3,0.3-0.8,0.6-1.3c0.3-0.6,0.2-0.8,0.7-1.1c1.3-1.1-0.5-0.1,1.9-1.7c0.2-0.1,0.3-0.2,0.6-0.3c0.5-0.1,0.3,0.1,0.7-0.2c0.7-0.5,2.7-0.2,3.4-0.2c4.7,0,9.5,0.1,14.3,0.1c4.9,0,9.7-0.1,14.5-0.1c3.5,0,4.8,0.1,7.4-1.6c0.3-0.2,0.6-0.6,0.9-1c0.8-1,0.9-1.3,0.9-2.9c0-2.3-0.1-4.9,0.1-7.2c0.2-1.5,0.3-1.3,0.7-1.9c0.1-0.2,0.1-0.3,0.2-0.7c0.5-0.8,2.1-2.3,2.9-2.6c3.5-1.7,5.4-1.5,6.3-1.8c0.3-0.1,3.8-0.5,4.2-0.5c0.8,0,2.7,0.1,3.4-0.1c2.1-0.7,3.1-1.4,4.2-3.1l1-1.7c0.2-0.5,0.1-0.3,0.6-0.5c0.2,0.2,0.1,0.3,0.7,1.1c0.2,0.3,0.5,0.8,0.8,1.1c2.6,3.3,4.7,3,8.7,3c1.3,0,5.7,0.8,6.5,1.3c0.7,0.3,0.1,0,1.5,0.5s2.6,1.3,3.5,2.3c0.7,0.7,1.3,1.3,1.5,2.4c0.2,1,0.3,2.5,0.3,3.5c0,1.8-0.5,6.1,0.5,7.3c1,1.5,0.7,1,1.9,1.9c0.3,0.2,0.8,0.6,1.3,0.7c3.4,0.7,1.8,0.5,5.4,0.5h19.5c2.6,0,5.2-0.1,7.7-0.1c4.3,0,6.4-0.5,8.8,3c0.9,1.3,0.9,2.1,1.3,2.6c0.5,0.8,0.3,2.5,0.3,3.5c0,2.5-0.1,5.5,0,7.8c0.1,1.4,0.6,3.4,1.3,4.6c0.2,0.5,0.8,0.7,0.6,1.1c-0.1,0.2-0.6,0.8-0.8,1.1c-1.4,2.7-1.1,5.3-1.1,8.6c0,4.1-0.6,4.6-2.4,7.3c-0.3,0.6-1.8,1.4-2.4,1.6c-1.3,0.3-7.9,0.1-9.6,0.1c-5.2,0-10.3,0-15.5,0c-1.4,0-2.2,0.1-3.4,0.5c-0.9,0.2-1.8,1-2.4,1.6c-0.9,1-0.5,1.9-1.9,1.9c-1.3,0-2.6,0-3.9,0h-54.6C131.5,265.1,128.9,265.2,126.2,265.1L126.2,265.1z M160.6,191c-0.7-0.1-1.3-0.1-1.6,0.3l-0.6,1.3c-0.2,1.3-1.3,2.7-2.1,3.7c-0.5,0.5-1.7,1.3-2.3,1.4c-0.7,0.1-0.9,0.2-1.6,0.2c-3.7,0-6.6,0.3-10,1.3c-0.6,0.2-2.2,0.8-2.6,1c-0.3,0.2-0.2,0.1-0.7,0.3c-0.2,0.1-0.3,0.2-0.6,0.3c-0.2,0.2-0.3,0.2-0.6,0.3c-0.6,0.3-1.8,1.9-2.2,2.5c-1.6,2.7-1,7-1,10.3c0,1.4-0.2,1.9-1,2.6c-1.5,1.3-1.6,0.8-2.5,1.3c-0.7,0.3-0.1,0.2-1.6,0.2h-9.5c-7.4,0-15-0.1-22.4-0.1c-3.3,0-3.5-0.3-6,1.6c-1.6,1.1-2.3,2.7-3.1,4.5c-0.3,0.7-0.7,2.3-0.5,3.1c0.1,0.5-0.1,7.8-0.1,9.2c0,1.3,0,0.9-0.3,1.5c0.5,0.7,0,0.8-0.2,1.5c-0.6,1.7-0.5,1.5-1.7,2.2c-0.5,0.2-0.5,0.9-0.1,1.4c0.7,0.3,0.7,0.1,1.1,0.7c0.8,1,1.1,2.5,1.4,3.9c0.1,0.8,0,2.6,0,3.5c0,3.4,0,5.5,2.1,8.4c1.5,2.2,1.8,1.7,3,2.7c0.1,0.1,0.1,0.1,0.2,0.2c0.2,0.2,0.3,0.1,0.7,0.1l0.1,0.3c0.9,0,1.8-0.1,2.9-0.1c1,0,2.1,0,3.1,0c2.1,0,4,0.3,6,0.1c3.9-0.3,8.1,0,12-0.2c0.9,0,2.2,0,3,0.1c0.7,0.1,0.5,0.2,1.3,0.3c0.5,0,0.7,0.2,1,0.5c1.4,1,1.7,2.1,2.1,4c0.5,2.7,0.5,5.8,0.5,8.7c0.1,3.2,0.9,3.9,3.3,5.8c0.3,0.2,0.6,0.5,0.9,0.7c0.3,0.3,0,0.1,0.5,0.2l1.7,0.7c1,0.5,1.8,0.6,2.3,0.8c1.1,0.5,2.4,0.6,3.7,0.9c0.9,0.2,1.7,0.2,2.5,0.5c1.6,0.5,6.8,0.7,8.5,0.7c1.9,0.1,4-0.1,5.5,0.6c0.2,0.1,0.3,0.1,0.6,0.2l1.1,1c3.4,4,1.5,5.4,4,5c0.5-0.8,0.5-1.7,0.9-2.5c0.8-1.5,1.6-2.9,3.1-3.8c1-0.6,1.1-0.7,2.6-0.7c4.3-0.1,8.5-0.2,12.6-0.9c0.7-0.1,2.3-0.3,2.9-0.6c0.6-0.2,1.8-0.3,2.7-0.6c2.5-0.9,4.8-1.7,6.6-3.5c1.3-1.3,1.7-2.3,1.7-4.1c0-0.7,0.1-0.1,0.1-0.6c0,0-0.1-1.3-0.1-1.5c0-0.7,0.1-0.9,0.2-1.5v-2.6c0-0.6,0.1-0.3,0.1-0.8c0-0.3-0.1-0.6,0-0.9l0.3-2.2c0.2-0.8,0.6-1.9,1-2.4c0.9-1.1,0.8-0.9,2.1-1.3c1-0.3,1.6-0.5,2.9-0.5h6.5c1,0.1,2.2,0.1,3.3,0.1c4.5,0,8.9,0,13.3,0.1c3.5,0,4.3-1.5,6.2-3.1c0.3-0.2,0.1-0.1,0.2-0.6c0.1-0.2,0.5-0.7,0.7-1c0.5-0.7,0.2-0.6,0.6-0.6c0.1,0,0.1,0,0.2,0c-0.2-0.3-0.5-0.5-0.1-1c0.3-0.5,0.1-0.5,0.2-1c0-0.3,0.2-0.6,0.2-0.9c0-0.3-0.1-0.6,0-1c0.2-1.1-0.1-1-0.1-2.1l0.2-4.7c0.9-4.1,2.1-3,2.2-3.8c0.3-1.3-0.5-1.1-0.7-1.4c-0.5-0.3-0.9-1.1-1.1-1.7c-1.1-2.9-0.3-9.6-0.6-13c-0.1-2.2-0.2-1.4-0.6-2.4c-0.1-0.2-0.1-0.5-0.2-0.7c-0.9-1.9-2.5-4.1-4.7-4.9c-1.4-0.5-1.9-0.5-3.5-0.3c-1.3,0-2.6,0-3.9,0c-2.6,0-5.2,0.1-7.7,0.1c-5.2,0-10.3,0-15.5,0c-1.3,0-2.6,0-3.9,0c-2.1,0.1-4.6-0.1-6.1-1.8c-0.9-1-0.7-1.6-0.8-3.1c-0.1-5.3,1-8.6-3.4-12.1c-2.6-2.2-8-3.2-12.2-3.2c-1.3,0-2.5,0-3.7-0.3c-1-0.3-1.6-1-2.3-1.6C161.8,194.8,161.3,192.6,160.6,191L160.6,191z"/><path fill="#CCCCCC" d="M160.6,191c0.7,1.7,1.3,3.9,2.7,5c0.7,0.6,1.3,1.3,2.3,1.6c1.1,0.3,2.4,0.2,3.7,0.3c4.2,0.1,9.6,1.1,12.2,3.2c4.3,3.5,3.2,6.9,3.4,12.1c0,1.6-0.1,2.1,0.8,3.1c1.4,1.7,4,1.8,6.1,1.8c1.3,0,2.6,0,3.9,0c5.2,0,10.3,0,15.5,0c2.6,0,5.2-0.1,7.7-0.1c1.3,0,2.6,0.1,3.9,0c1.5,0,2.2-0.1,3.5,0.3c2.2,0.8,3.8,3.1,4.7,4.9c0.1,0.2,0.1,0.5,0.2,0.7c0.3,1,0.3,0.2,0.6,2.4c0.2,3.4-0.6,10.2,0.6,13c0.2,0.6,0.7,1.4,1.1,1.7c0.3,0.2,1.1,0.1,0.7,1.4c-0.2,0.8-1.4-0.3-2.2,3.8l-0.2,4.7c0,1,0.3,0.9,0.1,2.1c-0.1,0.5,0,0.7,0,1s-0.2,0.6-0.2,0.9c-0.1,0.6,0.1,0.6-0.2,1c-0.3,0.5-0.1,0.7,0.1,1c-0.1,0.1-0.1,0-0.2,0c-0.3,0-0.1-0.1-0.6,0.6c-0.1,0.2-0.6,0.8-0.7,1c-0.2,0.5,0,0.2-0.2,0.6c-1.8,1.7-2.6,3.2-6.2,3.1c-4.3-0.1-8.8,0-13.3-0.1c-1,0-2.3,0-3.3-0.1h-6.5c-1.3,0-1.8,0.1-2.9,0.5c-1.3,0.5-1.1,0.2-2.1,1.3c-0.5,0.6-0.8,1.6-1,2.4l-0.3,2.2c-0.1,0.3,0,0.6,0,0.9c0,0.5-0.1,0.2-0.1,0.8v2.6c0,0.6-0.2,0.8-0.2,1.5c0,0.2,0.1,1.5,0.1,1.5c-0.1,0.5-0.2-0.1-0.1,0.6c0,1.8-0.5,2.9-1.7,4.1c-1.8,1.8-4.1,2.6-6.6,3.5c-0.8,0.3-2.2,0.3-2.7,0.6c-0.6,0.3-2.1,0.5-2.9,0.6c-4.1,0.8-8.2,0.9-12.6,0.9c-1.4,0-1.6,0.1-2.6,0.7c-1.5,0.8-2.3,2.3-3.1,3.8c-0.5,0.8-0.6,1.7-0.9,2.5c-2.5,0.3-0.6-1-4-5l-1.1-1c-0.2-0.1-0.3-0.2-0.6-0.2c-1.6-0.8-3.7-0.6-5.5-0.6c-1.7-0.1-6.9-0.2-8.5-0.7c-0.9-0.2-1.7-0.2-2.5-0.5c-1.3-0.3-2.5-0.3-3.7-0.9c-0.5-0.2-1.3-0.3-2.3-0.8l-1.7-0.7c-0.5-0.1-0.1,0-0.5-0.2c-0.2-0.2-0.6-0.5-0.9-0.7c-2.3-1.9-3.2-2.6-3.3-5.8c-0.1-2.9,0-6-0.5-8.7c-0.3-2.1-0.8-3.1-2.1-4c-0.3-0.2-0.6-0.5-1-0.5c-0.7-0.1-0.6-0.2-1.3-0.3c-0.8-0.1-2.1-0.1-3-0.1c-4,0.2-8.2-0.1-12,0.2c-1.9,0.1-3.9-0.1-6-0.1c-1,0-2.1,0-3.1,0s-1.9,0.1-2.9,0.1l-0.1-0.3c-0.5-0.1-0.5,0-0.7-0.1c0,0-0.1-0.1-0.2-0.2c-1.1-1-1.5-0.6-3-2.7c-2.1-2.9-2.1-4.8-2.1-8.4c0-0.9,0.1-2.7,0-3.5c-0.2-1.4-0.7-2.9-1.4-3.9c-0.5-0.6-0.5-0.3-1.1-0.7c-0.2-0.5-0.2-1.1,0.1-1.4c1.3-0.7,1.1-0.6,1.7-2.2c0.2-0.7,0.6-0.8,0.2-1.5c0.3-0.6,0.3-0.2,0.3-1.5c0-1.4,0.2-8.6,0.1-9.2c-0.2-0.8,0.1-2.4,0.5-3.1c0.8-1.7,1.5-3.2,3.1-4.5c2.5-1.9,2.7-1.6,6-1.6c7.4,0,15,0.1,22.4,0.1h9.5c1.5,0,0.9,0.1,1.6-0.2c0.9-0.5,1.1,0,2.5-1.3c0.8-0.7,1-1.3,1-2.6c0-3.2-0.6-7.6,1-10.3c0.3-0.6,1.6-2.2,2.2-2.5c0.2-0.1,0.3-0.2,0.6-0.3c0.2-0.2,0.2-0.2,0.6-0.3c0.5-0.2,0.3,0,0.7-0.3c0.5-0.3,2.1-0.9,2.6-1c3.3-1,6.4-1.3,10-1.3c0.8,0,0.9-0.1,1.6-0.2c0.7-0.1,1.8-0.9,2.3-1.4c0.9-0.9,1.8-2.4,2.1-3.7l0.6-1.3C159.3,190.9,159.9,190.9,160.6,191L160.6,191z M158.2,297.1c0.8,0,1.7,0,2.5,0c0.9,0,1.5,0.1,2.2-0.5c0.5-0.3,0.8-0.8,1.3-1.4c0.5-0.7,0.5-1,0.8-1.8l0.9-1.6c1.6-2.1,3.7-1.6,6.1-1.6c0.9,0,1.6,0,2.4-0.1s1.6-0.1,2.5-0.1c3.9-0.2,9.5-1.4,12.8-2.7c2.6-1,4.2-2.5,6-4.5c0.6-0.7,1.6-2.2,1.7-3.5l0.1-5.2l0.5-4.7c0.3-1.8,0.6-2.5,2.2-3c2.1-0.6,7.7-0.1,10.1-0.1c3.4,0,6.9,0,10.3,0c2.7,0.1,6.8,0.5,9-1.1c1.6-1.1,3.8-3.4,4.7-5.6c0.7-1.7,0.9-2.1,1-4.2c0.1-1.9-0.1-3.8,0-5c0.2-5.4,1.8-3.4,4.8-5.5c0.6-0.3,0.8-0.8,0.8-1.8s-0.5-1.3-0.7-1.9c-0.2-0.6-0.2-0.5-0.6-0.7c-0.8-0.6-1-0.5-1.7-0.8c-0.2-0.1-0.7-0.2-1-0.2c-0.9-0.1-1.4-0.1-1.5-1.1c-0.1-0.8,0.1-1.7,0-2.5c-0.6-3.9,0.7-8.7-0.6-12.4c-0.1-0.2-0.1-0.2-0.2-0.5s0-0.3-0.1-0.6c-0.2-0.6-0.2,0.1-0.3-0.9c-0.2-0.1-0.6-0.5-0.7-0.7c-0.5-0.9-3.1-3.5-4-4.2l-0.3-0.2c-0.2-0.1,0,0-0.2-0.1c-2.3-1.4-5.3-0.9-8.1-0.9c-9.8,0-19.7,0.1-29.6,0c-0.8,0-1.4-0.1-1.9-0.5c-0.2-0.1-0.2-0.2-0.6-0.3l-0.1-7.3c0-1.4,0-1.1-0.2-2.4c-0.1-0.7-0.5-1.3-0.7-1.8c-0.1-0.3-0.1-0.2-0.3-0.6c-0.9-1.3-2.1-2.5-3.2-3.5c-0.6-0.5-2.3-1.6-3.1-1.9c-0.3-0.1-0.6-0.1-0.9-0.3c-0.5-0.2-0.6-0.2-1-0.3c-1.6-0.7-4.7-1-6.5-1.1c-2.7-0.2-5.3,0.7-7.1-1.7c-0.2-0.3-0.1-0.2-0.5-0.8l-0.2-0.6c-0.2-0.3-0.2-0.7-0.5-1.3c-0.2-0.3-0.3-0.5-0.5-0.8c-0.1-0.3-0.3-0.5-0.6-0.7c-0.3-0.3-0.8-1-1.5-1s-1.7,0-2.5,0c-1,0-1.5-0.2-2.1,0.5c-1.3,1.4-1,1-1.7,2.7c-0.3,0.9-0.8,2.1-1.6,2.7c-0.2,0.2-0.6,0.3-0.8,0.5c-1.7,0.9-4.9,0.3-7,0.7c-0.8,0.1-1.5,0.1-2.2,0.3c-0.5,0.1-0.6,0.1-1,0.2c-0.5,0-0.7,0.2-1,0.2c-1.5,0.2-4.7,1.7-6,2.9c-0.2,0.2-0.1,0.2-0.2,0.3c-0.3,0.5-1.8,1.4-2.6,3c-1.6,3.1-1.1,5.2-1.1,8.9c0,0.9,0.3,2.7-0.6,3.3c-0.3,0.2-0.3,0.3-0.8,0.3c-0.7,0-0.7,0.2-2.2,0.2l-7.6,0.1c-8.5,0.1-16.9,0-25.3,0c-1.1,0-2.6-0.1-3.5,0.6l-0.7,0.3c-1.8,1.5-3.8,3.2-4.8,5.4c-1.5,3.1-1.3,5.2-1.3,8.9c0,1.7,0,3.3,0,5c0,3-1.6,3-3.4,4.2c-1.9,1.3-1.1,1-1.7,1.4c-0.2,0.1-0.2,0.1-0.3,0.2c-0.2,0.2-0.3,0.6-0.3,0.9c-0.1,0.9,0.5,1.3,0.9,1.7c0.8,0.9,1.1,1,2.3,1.5c0.5,0.2,1.3,0.6,1.5,1c0.1,0.1,0.1,0.3,0.3,0.9c0.2,0.5,0.1,0.5,0.5,0.8c0.2,0.3,0.2,0.5,0.3,1c0.1,1.7-0.2,5.8,0.1,7.3c0.1,0.5,0.1,0.6,0.2,1c0.2,1,1.1,2.9,1.8,3.8c0.1,0.1,0.2,0.2,0.2,0.3c0.7,0.9,1.7,1.8,2.5,2.6c0.5,0.6,1.3,0.9,1.7,1.3c0.1,0.1,0,0,0.1,0.1c0.2,0.1,0,0,0.2,0.1c0.5,0.1,0.3,0.2,0.9,0.3c2.4,0.5,12.4,0.2,15.1,0.2c3.2,0,6.9-0.2,10.1-0.1c0.8,0,2.4,0.1,3.2,0.6c0.2,0.1,0.8,1,0.8,1.7c0.1,1.3,0.3,1.5,0.3,3.4l0.3,7.2c0,0.8,0.3,1.4,0.7,1.9c0.6,1.1,1.4,1.8,2.3,2.7l0.2,0.2c0.1,0.1,0,0,0.1,0.1l1,0.9c0.6,0.6,1.5,1.1,2.3,1.5c0.6,0.3,0.3,0.2,0.9,0.3c0.3,0.1,0.1,0.1,0.5,0.3c0.5,0.1,0.5,0.2,0.7,0.3c0.1,0.1,0.3,0,0.6,0.1c0.8,0.2,2.1,0.8,2.9,0.9c0.5,0.1,0.6,0,1,0.2c2.2,0.9,11.3,1.4,13.7,1.5c2.1,0,3.8,0,4.8,1.6c0.6,0.8,0.8,1.7,1.3,2.7c0.1,0.3,1.4,2.1,1.6,2.2s0.3,0.1,0.5,0.1C158.2,297,157.7,296.9,158.2,297.1L158.2,297.1z"/><path d="M174.4,255c-0.2-0.3-0.1-1.3-0.1-1.8c2.2-0.1,4.8-0.1,7.1-0.1c0.9,0,1.7-0.1,1.6,0.9c0,1.3-0.1,1-1.4,1.1c-0.8,0-1.7,0-2.5,0.1l-4.5-0.1C174.4,255,174.5,255,174.4,255L174.4,255z M174.4,248.6c0.9-0.1,7.3-0.3,8.2,0c0.8,0.3,0.8,1.4,0.3,1.9c-0.3,0.3-4.6,0.3-5.4,0.3C174.3,250.9,174,251.2,174.4,248.6L174.4,248.6z M171.5,257.6c0.8,0.1,9.8,0.1,11.1,0c1.1-0.1,1.4-0.1,2.2-0.6c0.3-0.2,0.6-0.1,0.8-0.6c0.1-0.2,0.2-0.7,0.5-1c0.5-1.3,0.3-0.9-0.2-2.6c-0.1-0.5,0-0.2-0.2-0.5c-0.3-0.2-0.7-0.2-0.8-0.7c0.3-0.3,0.7,0.1,1.3-1.4c0.3-0.8,0.5-1.5,0-2.2c-0.3-0.7,0-0.8-1.1-1.6c-0.6-0.3-1.4-0.6-2.2-0.6c-1.4,0-10.3,0-11.1,0C171.2,246.9,171.2,256.4,171.5,257.6L171.5,257.6z"/><path d="M136.3,246.1c-0.3,0.7-0.1,4.6-0.1,5.7c0,1-0.2,5.3,0.1,5.7c0.5,0.2,13.2,0.2,14.3,0c0.1-0.5,0.1-0.8,0.1-1.3c0-0.2,0-0.5,0-0.7c0-0.3,0-0.3-0.2-0.5c-0.7-0.3-10.4,0.2-11.1-0.2c-0.1-0.1,0,0-0.1-0.2l-0.1-0.7c0-0.5,0-0.8,0.1-1.1c0.9-0.5,8.8,0.1,9.5-0.2c0.3-0.2,0.2-1.7,0.1-2.2c-1.6,0-3.2,0-4.8,0c-1.3,0-3.8,0.1-4.9-0.1l0.1-1.9c0.7-0.5,10.4,0.3,11-0.2c0.2-0.3,0.1-1.4,0.1-1.9c-0.1-0.6-0.5-0.3-1.6-0.3C145.1,246,139.6,246,136.3,246.1L136.3,246.1z"/><path d="M162.5,248.5c0.9,0,1.9-0.1,2.4,0.5c0.5,0.7,0.2,1.7-0.3,2.1c-0.7,0.3-7.4,0.2-7.8,0.1c-0.1-0.5-0.1-2.1,0-2.5L162.5,248.5L162.5,248.5z M153.9,246.1c-0.3,0.8-0.1,4.6-0.1,5.7c0,0.9-0.1,5.3,0.1,5.7c0.3,0.1,2.2,0.1,2.5,0c0.2-0.1,0.2-0.3,0.2-0.8c0-0.8-0.2-2.7,0.1-3c0.5-0.3,5-0.2,6-0.1l1.4,3.2c0.1,0.2,0,0.2,0.1,0.3c0.2,0.5,0.5,0.5,1.3,0.5c0.7,0,1.6,0.1,2.1-0.2c-0.1-1.4-1.8-3-1.6-4.3c0.9-0.7,0.8-0.5,1.5-1.4c0.7-1,0.5-1.1,0.5-2.5c0-0.7-0.6-1.7-0.8-2.1c-0.5-0.6-1-1-1.8-1.1C164.4,246,154.6,245.8,153.9,246.1L153.9,246.1z"/><path d="M138.3,231.9c1.1-0.3,4.1-0.1,5.5-0.1c0.8,0,1.9-0.1,2.5,0.3c0.6,0.5,0.6,1.4,0.1,1.9c-0.6,0.6-1.5,0.5-2.4,0.5c-0.7,0-5.3,0.1-5.6-0.1C138,234.2,138.1,232.3,138.3,231.9L138.3,231.9z M135.4,229.5c-0.2,0.6-0.1,10.4,0,11.6c0.8,0,2.5,0.2,3-0.1c0.1-0.8,0-3.2,0-3.5c0.1-0.2,0-0.1,0.1-0.2c0.7-0.2,4.8-0.1,5.8-0.1c0.3,0.7,0.7,1.1,1,1.9c0.1,0.5,0.8,1.6,1.1,1.9h2.9c0-0.6-0.1-0.1-0.5-1c-0.5-1.4-1.4-2.4-1.4-3.2c1.8-1,1.6-1.6,1.9-2.5c0.5-1,0-2.6-0.6-3.4c-0.3-0.5-1.1-1.1-1.7-1.3C146.2,229.2,136.1,229.2,135.4,229.5L135.4,229.5z"/><path d="M171.2,239.9c0.5,0.7,2.5,0.8,3.3,1c2.7,0.7,3.1,0.7,5.7,0.2c1.5-0.2,3.7-1,4.3-2.3c1-1.6,0.5-3.8-1.3-4.3c-2.4-0.8-3.3-0.7-5.8-0.7c-1.1,0-3.1,0.1-3.8-0.7c-0.1-1,0.9-1.3,1.8-1.3c0.9-0.1,1.8-0.3,2.7-0.3c1.1-0.1,1.8,0.2,2.9,0.3c0.9,0.1,1.7,0.7,2.5,0.7c0.1-0.1,0.1-0.1,0.1-0.2l0.2-0.3c0.1-0.3,0-0.1,0.1-0.7c0.1-0.5,0.3-0.7,0.3-1.3l-3.8-1c-2.1-0.2-5.3-0.3-7,0.6c-1.4,0.8-4,2.1-2.6,4.6c0.1,0.2,0.1,0.2,0.3,0.3l0.5,0.3c1.8,2.2,11,0.1,10.1,2.4c-0.7,1.8-6.2,1.4-7.8,0.9c-0.5-0.1-0.8-0.2-1.3-0.3c-1.3-0.3-1-1.1-1.6,0.6C171.5,239.1,171.2,239.5,171.2,239.9L171.2,239.9z"/><path d="M200,253.3c0.5,1.3-0.2,1.5-1.1,1.9c-0.5,0.2-0.7,0.3-1.4,0.3s-1,0.1-1.6,0.2c-0.6,0-1,0-1.5-0.2c-0.3-0.1-1.8-0.1-3-0.6c-1.9-0.7-1.3-0.5-1.8,0.6c-0.2,0.3-0.3,0.6-0.5,1c0.2,0.1,0.3,0.2,0.6,0.3s0.5,0.3,0.7,0.5c0.3,0.2,0.6,0,1,0.1c0.3,0.1,0.3,0.2,0.8,0.2c1.3,0.2,2.6,0.5,4,0.3c0.3,0,0.6-0.1,0.9-0.1c0.5-0.1,0.3-0.1,0.9-0.2c1.8-0.2,3.2-0.5,4.5-2.2c1-1.4,0.5-3.4-1.3-4.5c-1.1-0.7-4.2-0.5-5.7-0.7c-1.1-0.1-3.2,0-3.9-0.6c-0.1-0.6,0.1-0.9,0.5-1c1.5-0.7,2.1-0.7,4-0.7c2.7,0,4.7,1,5.4,0.9c0.2-0.5,0.1-0.6,0.3-1c0.2-0.3,0.3-0.6,0.3-1.1c-0.8-0.5-2.2-0.9-3.2-0.9c-0.7,0-2.2-0.6-3.7-0.5c-0.5,0-0.5,0.2-1.7,0.3c-1.4,0.1-3.4,1-4.3,2.1c-0.6,0.8-0.8,2.3-0.1,3.2c0.7,0.8,1.4,1.3,2.7,1.5C194.6,253,197.3,252.9,200,253.3L200,253.3z"/><path d="M102.9,234.4c-0.3-3.1-0.2-2.5,3-2.5c1.3,0,4.6-0.2,5.2,0.3c0.6,0.6,0.5,1.6-0.2,1.9C110.1,234.7,103.7,234.5,102.9,234.4L102.9,234.4z M102.8,241c0.2-0.6,0-3,0.1-3.9c2.6-0.8,8.8,1.1,10.8-1.7c1.3-1.7,0.9-4.5-1.4-5.6c-1.3-0.6-2.4-0.5-3.8-0.5c-2.7,0-5.8-0.2-8.5,0c-0.2,0.8-0.1,6-0.1,7.2c0,4.7-0.3,4.5,1,4.5C101.6,241,102.2,241.1,102.8,241L102.8,241z"/><path d="M117.4,240.9c0.6,0.2,2.1,0.1,2.7,0c0.3-1.3,0-3.2,0-4.6c0.9-0.3,3.1-0.2,4.3-0.2c0.9,0,3.7-0.2,4.3,0.2c0.2,1-0.2,3.9,0.1,4.5c0.6,0.2,2.2,0.2,2.7,0c0.1-0.5,0.1-10.8,0-11.3c-0.5-0.1-2.4-0.2-2.6,0.1c-0.7,0.6,0.2,3.2-0.3,4.1h-8.2c-0.1-0.8-0.1-1.5-0.1-2.3c0-0.6,0.3-1.8-0.3-1.9c-0.3-0.1-1.9-0.1-2.3,0c-0.5,0.2-0.2,1.6-0.2,2.1C117.3,233.5,117.2,239.4,117.4,240.9L117.4,240.9z"/><path d="M158.9,236.3c-1.5,0-1.4,0-0.1-2.1c0.2-0.3,0.2-0.2,0.5-0.6c0.3-0.6,0.6-1.6,1.1-1.8c0.2,0.2,0.9,1.6,1.4,2.2l1.1,2.1c0,0.5,0,0.1-0.1,0.2C162.5,236.5,159.5,236.3,158.9,236.3L158.9,236.3z M152.1,240.8c0.5,0.2,2.3,0.1,2.9,0c0.7-1.1,0.5-0.8,0.9-1.6c0.6-0.9,1.1-0.7,3-0.7h4.2c1.1,0,1.3-0.2,1.8,0.7c0.3,0.5,0.7,1,1,1.6h2.9c-0.1-1-0.7-1.3-1.5-3l-4.9-8.6h-3.8c-0.1,0.2-0.6,1.1-0.8,1.4c-0.2,0.3-0.6,0.9-0.8,1.4c-0.6,0.9-1.1,1.8-1.6,2.9c-0.1,0.2-0.2,0.6-0.3,0.7c-0.8,1.3-0.5,0.8-1.1,2.2c-0.2,0.5-0.6,0.8-0.8,1.4C152.5,240.2,152.1,240.5,152.1,240.8L152.1,240.8z"/><path d="M198.1,236.2h-5c0-0.7,0.2-0.8,0.6-1.3c0.2-0.5,0-0.1,0.6-1.1c0.8-1.1,0.9-2.2,1.4-2.2s1,1.7,1.3,2.2C197.2,234.3,198,235.7,198.1,236.2L198.1,236.2z M187.2,240.9c0.8,0.1,2.1,0.1,2.7,0l1.4-2.3c0.8-0.1,2.1,0,3,0c1,0,1.9-0.1,3,0c1,0.1,1.9-0.2,2.5,0.3l1,1.9h3c-0.1-0.6-0.3-0.7-0.8-1.7l-2.7-4.8c-0.6-0.9-2.1-3.4-2.7-4.7c-0.5-0.7-1-0.5-1.9-0.3c-0.7,0.1-1.8-0.2-2.2,0.2l-2.7,4.8C190.2,235.3,187.2,239.9,187.2,240.9L187.2,240.9z"/><path d="M117.9,246.1c-0.1,0.3,0.2,0.5,0.7,1.6l1,1.9c0.1,0.2,0.1,0,0.2,0.3s0.1,0.5,0.3,0.9l3.3,6.3c0.2,0.7,0.7,0.6,2.1,0.6c0.8,0,1.7,0.1,2.1-0.3c0.1-0.1,0.3-0.6,0.5-0.7c0.6-1,1.5-3.2,2.1-4l1.7-3.1c0.2-0.6,0.6-1,0.8-1.6c0.1-0.3,0.1-0.5,0.3-0.8s0.3-0.5,0.3-0.9c-0.7,0-1.4,0-2.1,0c-1.5,0-0.8,0.1-2.1,2.1c-0.3,0.5-0.3,1-0.7,1.5c-0.6,0.8-1.9,3.8-2.2,4.1c-0.2,0.2-0.2,0.3-0.3,0.7c-0.1,0.3-0.1,0.5-0.6,0.6c-0.3-0.3-3.1-6.2-3.4-6.9c-0.1-0.2-0.2-0.5-0.3-0.7c-0.1-0.2-0.3-0.3-0.5-0.7c-0.3-0.8-0.1-0.8-1.3-0.8C119.3,246.1,118.3,246,117.9,246.1L117.9,246.1z"/><path d="M206.8,229.4c-0.2,1.6,0,7-0.1,9.4c0,0.5,0,1,0,1.6c0,0.7,0.2,0.8,0.8,0.8c2.1,0.1,4.2-0.1,6.3-0.1c1.7,0,4.6,0.2,6.2-0.1c0.1-0.5,0.1-0.8,0.1-1.4c0-0.6,0.1-1-0.5-1c-1,0-2.2,0-3.2,0c-0.9,0-6.1,0.1-6.5-0.1c-0.1-0.1-0.1-0.3-0.1-0.7c0-0.2,0-0.5,0-0.8v-4.7c0-0.5,0.1-2.6-0.1-2.9C209.3,229.1,207.3,229.4,206.8,229.4L206.8,229.4z"/><path d="M166.4,217.9c0-0.7,0-0.6,0.3-0.9c0.3-0.6,1-1.6,1.9-1.5C169,216.3,168.2,218,166.4,217.9L166.4,217.9z M160.1,216.2c0.1,0.7-0.3,1.1-0.6,1.6l-1.4,3c-0.2,0.7-0.3,1,0,1.7c0.2,0.5,1.1,0.6,1.7,0.5c0.9-0.1,2.9-1.4,3.5-2.1c0.3-0.2,0.2-0.5,0.6-0.6c0.2,0.2,0.1,0.6,0.1,0.9c0,0.9,0.3,1.3,1.5,1.4c1.9,0.1,3-0.6,4.3-1.5c0.5-0.2,0.8-0.5,1.1-0.8s0.6-0.6,0.9-1c0.3-0.3,0.8-0.6,0.7-1.3c-0.7,0.1-0.7,0.7-1.8,1.6c-0.7,0.5-1.4,1-2.1,1.5c-0.6,0.3-2.1,0.9-2.7,0.3c-0.7-0.6-0.5-2.1-0.1-2.9c0.1-0.1,0.8-0.2,1.5-0.5c0.5-0.2,0.9-0.3,1.4-0.6c0.9-0.5,1.5-1.5,1.4-2.6c-0.8-0.3-1.8-0.1-2.6,0.2c-0.7,0.3-2.1,2.1-2.5,2.7c-0.2,0.3-0.3,0.9-0.6,1.1l-1.8,1.6c-0.5,0.3-1.7,1.3-2.4,0.9c-1-0.5-0.6-1.6-0.1-2.5c1-1.9,0.7-1.6,1.8-3.4c0.2-0.3,0.7-0.9,0.3-1.1c-0.3-0.3-1.5,0.3-1.8,0.6c-0.9,0.5-1.3,0.9-1.7,1c0.2-0.9,2.5-4.8,3.3-6c0.5-0.7,2.4-2.4,3.3-2.9c1.6-0.8,3.4-1.3,5-0.2c1.4,0.9,0.8,1.6,1.4,1.8c0.5-0.3,0.8-3.2-2.3-3.7c-1.9-0.2-3.8,0.7-4.8,1.6c-0.6,0.6-2.1,1.6-2.5,2.3c-0.9,1.3-0.8,0.9-1.9,2.7c-0.5,0.7-0.8,1.3-1.3,1.9c-0.5,0.7-0.8,1.3-1.3,1.9c-0.3,0.6-0.9,1.3-1.1,1.9c-0.1,0.1-0.1,0.3-0.2,0.5c-0.1,0.2-0.1,0.2-0.3,0.5l-1.7,3.1c0,0.5,0.7,0.7,1,0.3l0.7-0.9l1.1-2.1C157.5,218.5,159,216.2,160.1,216.2L160.1,216.2z"/><path d="M147.6,207.5c-0.7,0.7-0.2,0-1.3,1c-0.5,0.5-0.8,0.7-1,1.3c-0.3,0.7-1.5,2.5-1.3,3.3c0.5,0,0.5-0.7,0.7-1.1c0.6-1,1.8-2.6,2.9-3.2c1.5-0.7,5.2-1.3,7-0.8c-0.1,0.6-4.7,8.1-5,8.8c-0.5,0.7-2.4,3.7-2.4,4.6c0,1,1.1,1.1,2.2,1.3c0.8,0,2.7,0.2,3.2-0.2c-0.2-0.3-0.3-0.2-0.8-0.2c-1.1,0-2.3,0-2.3-1.4c0-0.9,1-2.6,1.5-3.2c0.6-0.9,1.1-2.1,1.7-3c0.8-1.3,2.7-4.6,3.5-5.7c1.1-1.5,0.9-0.9,3.5-1.1c1.5-0.1,2.6-0.2,3.8-0.9c0.3-0.2,0.9-1,0.9-1.5s-0.6-1.4-1-1.4c-0.3,0.5-0.1,0.5-0.2,0.9c-0.1,0.5,0,0.1-0.2,0.3c-0.2,0.5-0.6,1.1-1.7,1.4c-1,0.2-0.2,0.1-0.8,0.3c-0.1,0-0.8,0.1-1,0.1c-0.8,0.1-1.3,0.2-2.2,0.2C154.1,207.4,150.9,207.4,147.6,207.5L147.6,207.5z"/><path fill="#CCCCCC" d="M136.5,276.7c0.6-0.8,1.5-3.5,1.9-3.9c0.3,0.5,0,3,0.2,3.9c0.5,0.1,1,0.1,1.4,0c0.1-0.5,0.2-4.9,0-5.4c-0.2-0.6-1.7-0.3-2.3-0.2c-0.5,0.6-0.6,1.1-1,1.9c-0.6,1-0.6,1.8-1,1.9c-0.3-0.2-0.9-2.1-1.4-2.9c-0.3-0.6-0.2-1-1-1.1c-0.6-0.1-1.5-0.1-1.9,0l-0.1,3.7c0,1.6-0.2,2.5,1.1,2.2c0.8-0.2,0.5-2.7,0.3-4c0.7,0.3,0.7,1.3,1.1,1.9c0.6,1.1,0.5,0.8,0.9,1.9L136.5,276.7L136.5,276.7z"/><path fill="#CCCCCC" d="M187.9,272.4c0.1-0.2,0.6-1.3-0.3-1.4c-0.7-0.1-6.2-0.1-6.5,0.1c-0.2,0.5-0.2,4.9,0,5.6c0.6,0.2,6.3,0.1,7.2,0c0-0.5,0-0.9-0.1-1.3c-0.3-0.3-3.9-0.1-4.8-0.1c-0.8,0-0.8-0.2-0.7-1c3.4-0.3,5.2,0.8,4.9-1.1c-0.6-0.3-3.9-0.1-4.9-0.2v-0.8L187.9,272.4L187.9,272.4z"/><path fill="#CCCCCC" d="M167,276.9c0.1-0.3,0.1-4.1,0.1-4.8c0-0.9-0.2-1.4-1.3-1c-0.9,0.2,0.3,1.9-0.8,2.2c-0.5,0.1-2.9,0-3.4-0.1l-0.1-0.1c-0.3-0.5,0.5-1.8-0.5-1.9c-1.7-0.3-1.4,1.1-1.3,1.9c0,0.6,0,3.4,0.1,3.7c0.1,0.1-0.1,0.1,0.3,0.1c1.8,0.3,0.9-1,1.3-2.1c0.7-0.1,3.3-0.2,4,0c0.2,0.7-0.1,1.5,0.1,2.1C166,276.9,166.6,276.9,167,276.9L167,276.9z"/><path fill="#CCCCCC" d="M173.6,273.1c0.7,0.1,0.9,0.7,1.4,1l1.3,1c0.9,0.8,1.6,2.1,2.7,1.5c0.7-0.3,0.3-4.9,0.2-5.7c-0.5,0-0.9,0-1.3,0.1c-0.2,0.7,0,2.6-0.1,3.5c-0.5,0-0.5-0.2-0.7-0.5c-1.1-1.1-1.8-1.7-2.4-2.3c-0.6-0.6-0.8-1.4-2.3-1c-0.2,0.7-0.2,5.2,0.1,5.7l1.1,0.1V273.1L173.6,273.1z"/><path fill="#CCCCCC" d="M138.3,231.9c-0.1,0.5-0.2,2.3,0.1,2.5c0.2,0.2,4.8,0.1,5.6,0.1c0.9,0,1.8,0.1,2.4-0.5c0.6-0.6,0.5-1.5-0.1-1.9c-0.6-0.5-1.7-0.3-2.5-0.3C142.4,231.8,139.4,231.6,138.3,231.9L138.3,231.9z"/><path fill="#CCCCCC" d="M102.9,234.4c0.8,0.1,7.2,0.3,8-0.2c0.6-0.5,0.8-1.4,0.2-1.9c-0.7-0.7-4-0.3-5.2-0.3C102.8,231.9,102.7,231.3,102.9,234.4L102.9,234.4z"/><path fill="#CCCCCC" d="M156.7,248.5c-0.1,0.5-0.1,2.2,0,2.5c0.3,0.1,7.1,0.2,7.8-0.1c0.6-0.3,0.9-1.4,0.3-2.1c-0.5-0.6-1.5-0.5-2.4-0.5L156.7,248.5L156.7,248.5z"/><path fill="#CCCCCC" d="M157.3,274.6c-0.6,0.1-0.6,0.6-1.3,0.8c-1.7,0.8-4.2-0.2-3.5-2.1c0.3-0.9,1.8-1.3,3.1-1c1.1,0.2,1.1,0.6,1.4,0.7c0.6,0.2,1.1-0.2,1.4-0.6c-0.2-0.3-0.6-0.6-0.8-0.8c-0.7-0.6-2.5-0.9-3.7-0.7c-1.6,0.2-3.1,1.3-3.1,3c-0.1,3.1,4.5,3.4,6,2.7c0.7-0.3,1.4-0.7,1.4-1.5c-0.2-0.1-0.3-0.1-0.5-0.2C157.5,274.7,157.6,274.7,157.3,274.6L157.3,274.6z"/><path fill="#CCCCCC" d="M174.4,248.6c-0.3,2.6-0.1,2.3,3.1,2.3c0.8,0,5,0.1,5.4-0.3c0.6-0.6,0.5-1.6-0.3-1.9C181.6,248.2,175.2,248.4,174.4,248.6L174.4,248.6z"/><path fill="#CCCCCC" d="M144.4,274.5c-0.1-0.7,0.6-1.4,0.8-1.9c0.2-0.3,0.1-0.3,0.5-0.3c0.1,0.1,0.5,0.9,0.7,1.1c0.2,0.3,0.6,0.8,0.6,1C146.5,274.6,145,274.5,144.4,274.5L144.4,274.5z M143.1,276.1c0.7-0.3,0.2-0.5,1.3-0.5c0.6,0,1.1,0,1.7,0c1.9,0,1.5-0.2,2.4,1.1c0.5,0,0.8,0.1,1.3-0.1c0-0.5-0.2-0.6-0.5-0.9l-1.4-2.5c-0.3-0.6-0.7-1.1-1-1.7c-0.2-0.3-0.5-0.5-0.9-0.5c-0.5,0-1-0.1-1.4,0.2l-1.4,2.6c-0.2,0.5-1.4,1.9-1.4,2.7h1.1L143.1,276.1L143.1,276.1z"/><path fill="#CCCCCC" d="M174.4,255c0.1,0.1,0,0,0.2,0.1l4.5,0.1c0.8,0,1.7,0,2.5-0.1c1.1,0,1.3,0.2,1.4-1.1c0-1-0.7-0.9-1.6-0.9c-2.3,0-4.9,0-7.1,0.1C174.3,253.7,174.2,254.5,174.4,255L174.4,255z"/><path fill="#CCCCCC" d="M158.9,236.3c0.7,0,3.5,0.1,4-0.1c0.1-0.1,0.1,0.2,0.1-0.2l-1.1-2.1c-0.3-0.6-1.1-1.9-1.4-2.2c-0.6,0.2-0.8,1.3-1.1,1.8c-0.2,0.5-0.3,0.3-0.5,0.6C157.5,236.3,157.4,236.3,158.9,236.3L158.9,236.3z"/><path fill="#CCCCCC" d="M198.1,236.2c-0.1-0.6-0.9-1.9-1.3-2.4c-0.3-0.5-0.8-2.2-1.3-2.2s-0.6,0.9-1.4,2.2c-0.7,1-0.3,0.7-0.6,1.1c-0.2,0.5-0.6,0.6-0.6,1.3L198.1,236.2L198.1,236.2z"/><path fill="#CCCCCC" d="M170.3,271.5c-0.1-0.8-1.3-0.3-1.3-0.3c-0.2,0.2-0.1,4.9,0,5.5h1.1L170.3,271.5L170.3,271.5z"/><path d="M144.4,274.5c0.6,0,2.1,0.1,2.4-0.1c0-0.3-0.3-0.7-0.6-1c-0.1-0.2-0.5-1-0.7-1.1c-0.3,0.1-0.2,0-0.5,0.3C145,273.1,144.3,273.7,144.4,274.5L144.4,274.5z"/><path fill="#CCCCCC" d="M166.4,217.9c1.8,0.1,2.6-1.6,2.2-2.4c-0.9-0.2-1.5,0.9-1.9,1.5C166.5,217.3,166.4,217.2,166.4,217.9L166.4,217.9z"/><rect x="125.8" y="300.7" fill="#CCCCCC" width="68.3" height="15.3"/><g><path d="M145.4,306.7c0.7-0.1,0.8,0.1,0.8,0.7s0,2.6,0,3.1c-0.1,0.8-0.5,0.7-0.8,0.7v0.2h2.2v-0.2c-0.2,0-0.3,0-0.5,0c-0.5-0.1-0.5-0.9-0.5-1.4c0-0.3,0-2.1,0-2.3c0.3,0.5,1.8,3.8,1.8,3.9h0.3c0.1-0.2,0.3-0.8,0.5-1l0.9-1.9c0.1-0.3,0.3-0.7,0.5-1c0,0.3,0,1.8,0,2.3c0,0.3,0,0.8-0.1,1c-0.1,0.5-0.3,0.5-0.8,0.3v0.2h2.9v-0.2c-0.7,0-0.8,0-0.9-0.6c0-0.3,0-2.9,0-3.2c0-0.7,0.2-0.8,0.9-0.7v-0.2h-1.8l-0.8,1.8c-0.1,0.3-0.2,0.6-0.5,0.9c-0.1,0.3-0.3,0.7-0.5,0.9l-1.4-2.7c-0.1-0.1-0.3-0.8-0.5-0.9h-1.8L145.4,306.7L145.4,306.7z"/><path d="M138.8,311.5l0.2-1.6h-0.5c-0.1,0.6-0.5,1.3-0.9,1.5c-1.4,1-3.9,0.3-4.1-2.4c-0.1-1.3,0.6-2.6,1.8-3.1c1.3-0.5,2.9,0.5,3,1.7l0.5-0.1l-0.3-1.7c-0.1-0.1-0.8-0.3-0.9-0.3c-1.1-0.3-2.4-0.3-3.4,0.1c-1.1,0.5-2.1,1.7-1.9,3.4c0.2,3.1,3.3,3.9,5.7,3C138.1,312,138.7,311.7,138.8,311.5L138.8,311.5z"/><path d="M161,306.8c0.8-0.3,1.6,0.1,1.6,0.9c0,0.5-0.1,0.8-0.5,0.9c-0.2,0.1-0.8,0.3-1.1,0.1V306.8L161,306.8z M159,306.5v0.2c0.6-0.1,0.9,0,1,0.6c0,0.3,0,3,0,3.3c-0.1,0.6-0.5,0.7-1.1,0.6v0.2h3.2v-0.2c-0.2,0-0.5,0.1-0.7,0s-0.2-0.2-0.3-0.5c-0.1-0.5,0-1.1,0-1.6c0.6,0,0.8,0.2,0.9,0.6c0.2,0.3,0.3,0.7,0.6,1c0.5,0.8,0.7,0.8,1.5,0.8c0.2,0,0.5,0,0.8,0v-0.2c-0.5,0-0.6,0-0.8-0.3c-0.2-0.2-0.3-0.5-0.5-0.7c-0.8-1.4-0.8-0.9-1-1.3c0.7-0.1,1-0.3,1.3-0.9c0.2-0.7-0.1-1.3-0.6-1.4c-0.6-0.2-1.3-0.2-1.9-0.1C160.4,306.5,159.7,306.5,159,306.5L159,306.5z"/><path d="M171.1,307c0-0.1,0.1-0.1,0.2-0.1s0.1,0,0.2,0c0.6-0.1,1,0,1.5,0.3c1,0.7,0.9,3.8-0.9,4.1c-0.2,0-0.8,0-1-0.1V307L171.1,307z M168.9,306.5v0.2c0.7,0,0.9-0.1,1,0.7c0,0.5,0,3,0,3.3c-0.1,0.7-0.5,0.6-1.1,0.6v0.2c0.7,0,1.4,0,2.1,0c0.8,0,1.3,0,1.9-0.1c1-0.3,1.8-1.1,1.8-2.4c0.1-1.5-0.6-2.3-1.7-2.5c-0.6-0.1-1.4-0.1-2.1-0.1C170.3,306.5,169.6,306.5,168.9,306.5L168.9,306.5z"/><path d="M155.3,309c0.9-0.1,1.8,0.1,1.7,1.1c0,0.5-0.2,0.8-0.5,0.9c-0.3,0.2-0.7,0.2-1.3,0.1V309H155.3z M155.3,306.8c0.3-0.1,0.7-0.2,1.1,0c0.2,0.1,0.5,0.5,0.5,0.8c0,0.7-0.8,1.3-1.6,1V306.8L155.3,306.8z M153.3,306.5v0.2c0.5,0,0.9-0.2,1,0.6c0,0.5,0,2.9,0,3.3c-0.1,0.7-0.5,0.6-1,0.6v0.2c0.8,0,1.5,0,2.3,0c0.7,0,1.4,0,1.9-0.3c0.6-0.3,0.8-0.9,0.7-1.6c-0.1-0.6-0.7-0.8-1.4-0.9c0.1,0,0.2-0.1,0.3-0.1s0.2-0.1,0.3-0.2c0.7-0.5,0.7-1.6-0.1-1.9c-0.6-0.2-1.3-0.1-1.9-0.1C154.7,306.5,153.9,306.5,153.3,306.5L153.3,306.5z"/><path d="M180.7,311.3v-1.4c0-0.6,0.1-0.7,0.8-0.7v-0.3H179v0.3c0.6,0,0.7,0,0.7,0.6c0,0.5,0,0.9,0,1.4c-0.9,0.3-1.8,0-2.3-0.6c-1-1.1-0.8-3.8,1.1-3.9c1.5-0.1,1.7,1,1.8,1.3c0.1,0,0.2,0,0.3-0.1c0-0.3-0.1-0.8-0.2-1.1c0-0.2,0-0.1-0.6-0.2c-0.7-0.1-1.3-0.2-1.9-0.1c-2.2,0.3-2.7,2.5-2.1,3.9c0.6,1.1,1.7,1.5,3,1.4c0.3,0,0.6-0.1,0.9-0.1c0.1,0,0.3-0.1,0.5-0.1C180.4,311.3,180.7,311.3,180.7,311.3L180.7,311.3z"/><path d="M181.9,306.7c0.5,0,0.9-0.2,1,0.6c0,0.5,0,2.9,0,3.3c-0.1,0.7-0.5,0.7-1.1,0.6v0.2h4.6l0.5-1.4l-0.3-0.1c-0.2,0.5-0.3,0.8-0.8,0.9c-0.3,0.1-1.4,0.1-1.7,0.1v-2.1c0.3,0,0.8,0,1.1,0c0.5,0,0.5,0.2,0.5,0.7h0.3V308h-0.3c0.1,0.5,0,0.6-0.3,0.7c-0.2,0-0.8,0-1.1,0V307c0.1,0,0,0,0,0c0.3-0.1,1-0.1,1.4,0c0.6,0.1,0.7,0.3,0.8,0.8c0.1,0,0.2,0,0.3,0l-0.2-1L181.9,306.7L181.9,306.7L181.9,306.7z"/><path d="M141.8,307.9c0.1,0,0.1,0.1,0.1,0.2l0.2,0.7c0.1,0.2,0.2,0.6,0.3,0.9H141L141.8,307.9L141.8,307.9z M139.2,311.3v0.2h2.2v-0.2c-1,0.1-0.8-0.3-0.6-0.9c0-0.1,0.1-0.5,0.2-0.5h1.7c0,0.1,0.3,0.8,0.3,0.9c0.1,0.5-0.2,0.5-0.7,0.5v0.2h2.9v-0.2c-0.6,0-0.8,0-1.1-0.8s-0.8-1.9-1.1-2.9l-0.6-1.5h-0.2c-0.1,0.1-0.2,0.6-0.3,0.7c-0.1,0.2-0.2,0.5-0.3,0.7c-0.2,0.6-1.3,3.1-1.5,3.4C139.7,311.3,139.5,311.3,139.2,311.3L139.2,311.3z"/><path d="M165.2,306.7c0.2,0,0.6-0.1,0.8,0s0.2,0.3,0.2,0.6c0,0.5,0,2.9,0,3.3c-0.1,0.7-0.5,0.6-1.1,0.6v0.2h3.3v-0.2c-0.6,0-1,0.1-1.1-0.6c0-0.5,0-3,0-3.3c0.1-0.7,0.5-0.7,1-0.6v-0.2H165L165.2,306.7L165.2,306.7z"/></g></g></svg>