<svg version="1.1" xmlns="http://www.w3.org/2000/svg" xmlns:xlink="http://www.w3.org/1999/xlink" x="0px" y="0px" width="640px" height="336px" viewBox="0 0 640 336" enable-background="new 0 0 640 336" xml:space="preserve"><rect fill="#EF6950" width="640" height="336"/><g><path fill="#FFFFFF" d="M283.4,194.3v-46.2h-27.5v46.2h-4.7v-50.4h36.8v50.4H283.4z"/><path fill="#FFFFFF" d="M315.2,195.2c-5.2,0-9.4-1.7-12.6-5c-3.1-3.4-4.7-7.9-4.7-13.5c0-5.9,1.6-10.6,4.8-14c3.2-3.4,7.6-5.1,13.1-5.1c5.3,0,9.4,1.7,12.4,5c3,3.3,4.5,7.9,4.5,13.8c0,5.7-1.6,10.2-4.7,13.7C324.8,193.5,320.5,195.2,315.2,195.2z M315.5,161.4c-4,0-7.1,1.3-9.5,4c-2.3,2.7-3.5,6.4-3.5,11.2c0,4.4,1.2,8,3.5,10.7c2.3,2.7,5.5,4,9.4,4s7-1.3,9.2-3.9c2.2-2.6,3.3-6.3,3.3-11.1c0-4.9-1.1-8.6-3.2-11.1C322.6,162.7,319.5,161.4,315.5,161.4z"/><path fill="#FFFFFF" d="M365.7,192.7c-2.7,1.7-6,2.5-9.7,2.5c-3.3,0-6.2-0.8-8.8-2.3c-2.6-1.5-4.5-3.6-5.9-6.4c-1.4-2.8-2.1-5.9-2.1-9.5c0-3.7,0.8-7.1,2.3-10.1c1.5-3,3.7-5.3,6.4-7c2.8-1.7,6-2.5,9.7-2.5c3,0,5.7,0.6,8.2,1.7v4.8c-2.6-1.7-5.5-2.6-8.5-2.6c-2.6,0-5,0.6-7,1.9s-3.6,3.1-4.7,5.5c-1.1,2.4-1.7,5-1.7,7.9c0,4.4,1.1,7.9,3.4,10.6c2.3,2.7,5.4,4,9.2,4c3.4,0,6.4-1,9.1-3L365.7,192.7L365.7,192.7z"/><path fill="#FFFFFF" d="M389,195.2c-5.2,0-9.4-1.7-12.6-5c-3.1-3.4-4.7-7.9-4.7-13.5c0-5.9,1.6-10.6,4.8-14c3.2-3.4,7.6-5.1,13.1-5.1c5.3,0,9.4,1.7,12.4,5c3,3.3,4.5,7.9,4.5,13.8c0,5.7-1.6,10.2-4.7,13.7S394.4,195.2,389,195.2z M389.4,161.4c-4,0-7.1,1.3-9.5,4c-2.3,2.7-3.5,6.4-3.5,11.2c0,4.4,1.2,8,3.5,10.7c2.3,2.7,5.5,4,9.4,4s7-1.3,9.2-3.9c2.2-2.6,3.3-6.3,3.3-11.1c0-4.9-1.1-8.6-3.2-11.1C396.5,162.7,393.4,161.4,389.4,161.4z"/><path fill="#FFFFFF" d="M447.1,177.1c0,3.5-0.7,6.6-2,9.4c-1.3,2.8-3.2,4.9-5.7,6.4s-5.3,2.3-8.6,2.3c-5.4,0-9.5-1.9-12.4-5.8c-2.9-3.9-4.3-9.4-4.3-16.7c0-11.1,1.9-18.8,5.8-23.2c1-1.2,2.2-2.1,3.4-2.9c1.2-0.7,2.6-1.4,4.2-1.9s4.7-1.2,9.3-2c2.6-0.5,4.7-1.1,6.2-2v4.4c-1.1,0.7-2.7,1.2-4.8,1.6c-6,1-9.9,1.9-11.7,2.7c-4.4,2-6.9,7.5-7.5,16.5h0.1c1.2-2.1,2.9-3.7,5.1-5c2.2-1.3,4.7-1.9,7.4-1.9c4.8,0,8.5,1.6,11.3,4.9C445.7,167.4,447.1,171.7,447.1,177.1z M442.4,177.5c0-4.5-1-8-3.1-10.5c-2.1-2.6-4.9-3.8-8.5-3.8c-2.5,0-4.8,0.7-6.8,2c-2,1.4-3.7,3.2-4.9,5.7l0,4.4c0,3,0.5,5.8,1.5,8.3c1,2.5,2.4,4.4,4.2,5.7c1.8,1.4,3.9,2,6.4,2c3.4,0,6.1-1.3,8.2-3.8C441.3,185,442.4,181.6,442.4,177.5z"/><path fill="#FFFFFF" d="M481.1,194.3V165l-1,1.6l-19.8,27.8h-4.1v-36h4.3v29.1c0.3-0.7,0.7-1.5,1.3-2.4l19.3-26.7h4.3v36L481.1,194.3L481.1,194.3z"/><path fill="#FFFFFF" d="M516.3,194.3v-15.3h-5.4c-1.5,0-2.8,0.5-4,1.6c-1.2,1.1-2.3,2.5-3.1,4.4l-4.4,9.3H494l5.3-10.5c1.5-2.9,3.3-4.8,5.6-5.8c-2.9-0.4-5-1.4-6.5-3.1c-1.5-1.7-2.2-3.8-2.2-6.4c0-3.1,1.1-5.6,3.4-7.5s5.3-2.7,9.2-2.7h12v36L516.3,194.3L516.3,194.3z M516.3,162.2H509c-5.3,0-7.9,2.1-7.9,6.4c0,4.4,2.6,6.6,7.7,6.6h7.5V162.2z"/></g><g><path fill="#FFFFFF" d="M183.3,182.3c0.6-0.6,0.7-1.4,0.4-2.2c-0.3-0.7-1-1.2-1.8-1.2h-60.5c-1.1,0-2,0.9-2,2v20.2c0,1.1,0.9,2,2,2h60.5c0,0,0,0,0,0c1.1,0,2-0.9,2-2c0-0.5-0.2-0.9-0.4-1.3C182.6,198.4,177,188.5,183.3,182.3z M122.1,199.5v-17h57c-1.2,2.3-1.7,4.7-1.7,7.1h-43c-0.8,0-1.4,0.6-1.4,1.4c0,0.8,0.6,1.4,1.4,1.4h43.3c0.4,2.8,1.3,5.2,2.2,7.1L122.1,199.5L122.1,199.5z M121.1,175.6h60.5c0,0,0,0,0,0c1.1,0,2-0.9,2-2c0-0.5-0.2-0.9-0.5-1.3c-0.9-1.4-6.4-11.3-0.2-17.6c0.6-0.6,0.7-1.4,0.4-2.2c-0.3-0.7-1-1.2-1.8-1.2h-60.5c-1.1,0-2,0.9-2,2v20.2C119.2,174.7,120,175.6,121.1,175.6z M121.9,155h57c-1.3,2.3-1.7,4.7-1.7,7.1h-43c-0.8,0-1.4,0.6-1.4,1.4c0,0.8,0.6,1.4,1.4,1.4h43.3c0.4,2.8,1.3,5.2,2.2,7.1h-57.6L121.9,155L121.9,155z M223.1,192.8l-16-58.3c0,0,0,0,0,0c-0.3-1.1-1.4-1.7-2.4-1.4c-0.5,0.1-0.8,0.4-1.1,0.8c-1.1,1.3-9.2,9.2-16.9,4.8c-0.7-0.4-1.6-0.3-2.2,0.2c-0.6,0.5-0.9,1.3-0.7,2.1l16,58.3c0.3,1.1,1.4,1.7,2.4,1.4l19.5-5.4C222.8,194.9,223.4,193.8,223.1,192.8z M203,197.5l-15.1-54.9c2.6,0.6,5,0.4,7.3-0.2l11.4,41.5c0.2,0.8,1,1.2,1.7,1c0.8-0.2,1.2-1,1-1.7l-11.5-41.7c2.6-1.1,4.7-2.7,6.3-4l15.3,55.6L203,197.5z"/></g></svg>