<svg version="1.1" xmlns="http://www.w3.org/2000/svg" xmlns:xlink="http://www.w3.org/1999/xlink" x="0px" y="0px" width="640px" height="336px" viewBox="0 0 640 336" enable-background="new 0 0 640 336" xml:space="preserve"><rect fill="#D8DDE6" width="640" height="336"/><g><path fill="#0071BC" d="M126.2,142.5c11.4,0.3,21.4,4.9,27.5,10.1c0,19.5-1.4,15.2,6,17.7c6,2,10.1,7.6,10.9,14.5c1,9.3,0.2,23.3,0.2,33.2c-16.2-0.7-25.9-4.2-27.2-20.6c-0.6-7.6,1.1-14.6-2.8-20.8c-5.5-8.8-13.2-7.5-13.8-8.9c-0.1-0.3-0.5-0.2-0.8-0.3L126.2,142.5L126.2,142.5z M196.2,220h-29.5c-9.9-0.9-18.3-3.7-22.5-11.7c-6.1-11.8,2.9-32.5-13.5-37.2c-5.3-1.5-6.7,0.1-7-3.5V155c0-0.5,0-1,0-1.6v-10.2c0.4-3.9,2.6-3.5,11.3-1.7c10.7,2.1,13.2,6.1,18,7.4c-0.5-4.1-1.5-3-5.3-5.4c-6.2-4-9.1-14.3-2.3-21.7c13.5-14.6,25.4,3.1,26.1,3.7c1.5-5.8,7.4-9.3,13.5-9.2c3.4,0.1,6.3,1.1,8.5,2.7c4.7,3.3,1.6,4,6.7,5.5c-1.9,6.8-2,8.3,0.5,14.6c-2.1-1.1-0.3-0.3-2.9-1c-2.9,11-23.4,11.8-26.3-1c-1.6,1.9-3.1,3-3.9,5.8c6.6,0.5,13.3,6.6,16.6,8.8l18.5-10.1c3.8,1.7,8.3-0.1,13.7-0.1c0.4,5.9-0.9,2.4,1.9,3.2c-1.3,2.7-2,2.6,0.3,4.1c-4.7,5.5-1.2,13.5-2.3,18.5c-1,4.3-15.6,0.8-17,17.5c-0.9,9.9-0.1,23.8-0.1,34.2l8.3-0.5c-1.7,1.6-0.1,0.8-3,1.4L196.2,220L196.2,220z M165,142.1c-5.6,0.1-5.7-1.4-10.5,0.3c-5.4,1.9,1.8,0.1-1.8,0.8c-2.4,0.5-5.6-2.7-6.9-4.7c-3.7-5.6-2.1-13.3,2.9-17.4C159.4,112.3,178.9,125.5,165,142.1L165,142.1z"/><path fill="#0071BC" d="M307.1,144.9v71.2c0,5.7,13,4,15.7,2c0.7-0.5,3.4-4.3,4.2-5.5c3-4.4,5.3-8,8.2-12.3c2.9-4.4,14.1-22.2,16.8-24.2c0,13.3-1.7,30.3,1,41.9c2.7,1.3,5,1.8,7,1.9h1.9c3.3-0.2,5.9-1.3,8.6-1.9v-61.4c0-12.5,2.6-15.6-8.8-15.6c-9,0-11.7,8.3-19.7,20.3c-3,4.4-13.5,21.5-16.4,23.6V144C317.9,138.8,307.1,140.6,307.1,144.9L307.1,144.9z"/><path fill="#0071BC" d="M441.6,206.4c0-9,4.8,2.3-1.8-17.7l-12.2-34.6C423,141,426.7,141,407.5,141c-7.9,0-7.1,6.9-11.4,17.8c-3,7.6-4.8,14.8-7.8,22.4c-2.9,7.4-4.8,14.1-7.5,21.8c-2.6,7.7-9.3,16.9,4.3,16.9c5.2,0,8.6-0.5,10.3-5.3c1-2.8,3.1-9.8,3.3-12.3H425c0.7,3,2.9,10.4,4.2,13.3c1.4,3.2,4,4,7.7,4.2h6.7C443,213.2,441.6,220.5,441.6,206.4z M403.6,186.9l8-23.3c0.7,1,0.2-0.1,1.4,2.3l3,8.7c1.4,4.1,2.7,9,4.3,12.3H403.6z"/><path fill="#0071BC" d="M473.8,141h-5.9c-14.6,0-25.3,10.9-25.3,25.3c0,27.9,23.5,28.4,36.1,22.4c-1.5,6.6-3,16.6-15.6,16.6c-12.2,0-17.5-9.8-17.5,5.8c0,4.9,5.3,8,12.5,8.8h7.8c7.9-0.8,16.4-4.1,21.9-10.5c4.2-4.8,7.5-15.3,8.5-26.8v-14C494.8,154,488.4,141,473.8,141z M462.1,175.2c-0.5-2.2-1-2.2-1-4.9c0-7.3-1.3-14.6,8.8-14.6c8,0,8.8,11.9,8.8,18.5C472.7,177.4,468.3,178.2,462.1,175.2z"/><path fill="#ED1C24" d="M218.7,148.8c-4.7,5.5-1.2,13.5-2.3,18.5c-1,4.3-15.6,0.8-17,17.5c-0.9,9.9-0.1,23.8-0.1,34.2l8.3-0.5c6.6,1.3,11.6-2.6,14.9-6c12.6-13-3-42.2,23.1-42.2l0.1-24.5c-0.1-4.9,1.3-8.8-16.6-2.7c-1.9,0.6-3.6,1.1-5.7,2.1L218.7,148.8L218.7,148.8z"/><path fill="#0071BC" d="M256.4,218c1.8,0.4,18.5,5.5,18.5-2.9v-57.5c23,0,30,4.2,25.3-15.6c-8.9-2.1-25.2-1-35.1-1c-12.2,0-8.8,7.9-8.8,34.1C256.4,189.5,256.4,203.8,256.4,218L256.4,218z"/><path fill="#FFFFFF" d="M126.2,167.4c0.3,0.1,0.7,0,0.8,0.3c0.6,1.4,8.3,0.1,13.8,8.9c3.9,6.2,2.2,13.2,2.8,20.8c1.3,16.4,11,19.9,27.2,20.6c0-9.8,0.8-23.8-0.2-33.2c-0.7-6.9-4.9-12.5-10.9-14.5c-7.4-2.5-6,1.7-6-17.7c-6.1-5.2-16.1-9.8-27.5-10.1L126.2,167.4L126.2,167.4z"/><path fill="#ED1C24" d="M200.3,124.5c-1.9,6.8-2,8.3,0.5,14.6c0.7,2.8,0,1.7,2,2.6c3.8,1.7,8.3-0.1,13.7-0.1c0.4,5.9-0.9,2.4,1.9,3.2c15.5-2.2,12.3-30.8-7.2-28.4C206.2,117,201.5,119.6,200.3,124.5L200.3,124.5z"/><path fill="#FFFFFF" d="M165,142.1c13.9-16.6-5.7-29.9-16.4-21.1c-5,4.1-6.6,11.8-2.9,17.4c1.3,2,4.5,5.2,6.9,4.7c3.6-0.7-3.6,1.1,1.8-0.8C159.3,140.7,159.4,142.2,165,142.1L165,142.1z"/></g></svg>