<svg version="1.1" xmlns="http://www.w3.org/2000/svg" x="0px" y="0px" width="640px" height="336px" viewBox="0 0 640 336" enable-background="new 0 0 640 336"><rect fill="#464646" width="640" height="336"/><path fill="#FFFFFF" d="M130.4,185.5c0.6-0.6,1.2-1.5,1.8-2.2c0.7-0.8,1.3-1.4,1.9-2.1l3.1-3c0.4-0.4,0.6-0.7,1-1.1c5-4.6,15.4-12.2,22-8.7c4.3,2.2,4.4,7.7,4.6,11.7c0.2,5.2,4.4,2.3,6.6,0.4l6.5-5.7c1.3-1.2,3-2.5,4.8-3.4c8.8-4.5,16.3-1,18.2,8.2c0.1,0.7,0,1.3,0.6,1.4c0-4.8,0.3-16.2-0.5-20.3c-2.5-13-14-12.7-21.9-6.2c-0.5,0.4-0.9,0.8-1.4,1.2l-4.2,3.7c-2.5,2.1-8.4,7.9-8.7,1.2c-0.1-3.2-0.3-6.1-1.7-8.6c-1.2-2.2-3.5-3.8-6.9-3.7c-9.1,0.2-19.5,10.3-25,17c-1.2,1.4-0.8,1.6-0.8,4.3L130.4,185.5L130.4,185.5z"/><path fill="#FFFFFF" d="M130.3,159.4l8-8.1l4.5-3.5c5.8-4,17.6-10.1,21,0.2c0.9,2.7,0.6,4.5,0.9,7.3c0.5,6,6.7-0.1,8.8-2l4.3-3.8c1.3-1.1,3-2.5,4.8-3.4c8.2-4,15.2-1.8,17.7,6.5c0.5,1.8,0.4,3,1.1,3.1c0-4.8,0.3-16.3-0.5-20.3c-1.1-5.6-4.3-10.2-10.4-10.5c-4.6-0.2-9.6,2.4-12.8,5.4c-0.6,0.6-0.9,0.7-1.4,1.3l-5.6,4.8c-8.6,6.5-4.5-3.3-7.4-9.2c-4.4-8.7-16.3-1.7-21.1,2c-4.3,3.3-7.2,6.3-10.6,10.3c-1.3,1.5-1.3,1.3-1.3,3.9V159.4L130.3,159.4z"/><path fill="#FFFFFF" d="M251.6,137.5c0-1.1,0.1-4-0.1-4.9l-3.8,0l0,31.9l4.2,0.1c0.3-3.6-0.1-13.6,0.1-18.4c0.2-5.6,2.4-10,7.7-10.7c8.2-1.1,7.9,5.7,7.9,10.6c0,4.5-0.2,14.8,0,18.5l4.2,0.1c0.2-2.5,0-14.7,0-18.4c0.1-5.8,2-10.4,7.7-10.8c8.1-0.5,7.9,5.1,7.9,10.6c0,4.5-0.2,14.8,0,18.5l4.2,0.1c0.2-1.8,0-12.1,0-14.7c0-8.1,1.4-18.7-11.4-18.1c-4,0.2-6.8,2-8.9,5.1c-0.1,0.1-0.1,0.2-0.2,0.3c-0.1,0.2-0.1,0.2-0.3,0.3c-1.7-6.1-11-7.1-15.7-3.9C253,135.1,252.5,136.5,251.6,137.5L251.6,137.5z"/><path fill="#FFFFFF" d="M366,137.4l0-4.7c-0.9-0.3-2.9-0.1-3.9-0.1v32l4.2,0c0.4-6-0.2-12.4,0-18.4c0.2-5.7,2.5-10.1,7.8-10.7c3.2-0.4,5.4,0.5,6.7,2.5c1.4,2.2,1.2,5.3,1.2,8.1c0,3.3-0.2,16.4,0,18.6l4.2,0c0.2-4.1,0-13.6,0-18.4c0-5.9,2.1-10.5,7.8-10.8c7.5-0.4,7.9,4.2,7.9,10.7c0,3.3-0.2,16.5,0,18.6l4.1,0c0.2-1.5,0-12.3,0-14.7c0-8.1,1.4-18.7-11.4-18.1c-2.8,0.1-5.9,1.5-7.6,3.4c-0.6,0.6-1,1.5-1.6,2.3c-0.9-1.8-1.3-3-3.4-4.2c-1.8-1.1-3.7-1.5-6.2-1.5c-2.3,0-4.5,0.6-6,1.7c-1.8,1.2-2.2,1.9-3.3,3.4L366,137.4L366,137.4z"/><path fill="#FFFFFF" d="M292,189.3c7.1-1.2,12.1,3.9,12.7,11.4c0.7,7.8-2.2,14-8.7,15.4c-7.8,1.6-11.9-4.4-12.6-11.3C282.8,198.4,284.8,190.5,292,189.3L292,189.3z M279,203.4c0,8.8,5.4,16.5,14,16.4h1.1c3.7,0,7.9-2.2,10-5.2c0.2-0.3,0.3-0.4,0.5-0.7l0.4-0.6l0,5.5h3.9l0-45c-1.3,0-3.1-0.1-4.3,0.1l0,17.7l-0.5-0.7c-0.1-0.3-0.3-0.5-0.4-0.7c-0.3-0.5-0.6-0.7-0.9-1.1c-0.6-0.7-1.4-1.4-2.4-2c-5.7-3.3-14-2-17.7,3C280,194.1,279,197.9,279,203.4L279,203.4z"/><path fill="#FFFFFF" d="M385.2,210c0-7.6,12.2-5.5,18-8.3l0,4.5C403.2,218.1,385.1,219.4,385.2,210L385.2,210z M386.4,196.6c0.6-2.1,0.3-3.5,1.7-5c1.2-1.2,2.2-1.9,4.3-2.3c1.9-0.4,4.2-0.3,6.1,0.1c4.9,1.1,5.4,6,4.3,8.3c-0.7,1.5-2.6,1.8-4.6,2c-6.8,0.8-16.5,1-17.3,9.2c-1,9.5,7.9,12.3,15.2,10.5c1.8-0.4,3.3-1.3,4.4-2.2c1.6-1.3,2.4-2.9,3.1-3.5c0.6,4.9,1.7,5.8,7.6,5l0-3.7c-4.1,1-3.6-1.3-3.6-4.7c0-2.9,0-5.9,0-8.8c0-6,0.5-11-3.6-13.9c-3.5-2.5-10-2.9-14.6-1.3c-4.5,1.6-7.4,5.9-7.1,10.2L386.4,196.6L386.4,196.6z"/><path fill="#FFFFFF" d="M250.6,200.2c1.9-15.3,19.6-14.4,20.5,0L250.6,200.2L250.6,200.2z M275.2,208l-4.2,0c-1.2,3.3-1.6,4.6-3.9,6.4c-5.3,4.1-16.5,1.9-16.5-10.4h24.8c0.5-8-3.1-17.2-12.3-18.4c-9.7-1.2-15.4,5.4-16.5,13.9c-1.3,9.6,2.4,18,10.3,19.9c4.5,1.1,9.6,0.4,12.8-1.8C272.4,215.7,275.1,211,275.2,208L275.2,208z"/><path fill="#FFFFFF" d="M301.1,155.8c0-7.9,15-5.5,17.6-8.1l0,4.8c0,5.6-4.9,9.5-10.6,9.5C304.3,161.9,301.1,159.5,301.1,155.8L301.1,155.8z M298.2,142.6c1.1,0,3.3,0.2,4.3-0.1c0-2.4,0.8-4.2,2.2-5.4c3.1-2.6,14.1-3.6,14.1,4.2c0,5.8-4.7,3.7-13,5.5c-5.3,1.2-8.9,3.4-8.9,9.3c0,10.3,12.2,10.6,17.3,8c2.3-1.2,3.3-2.8,4.9-4.6c0.2,1.5,0.2,2.8,1.1,3.8c1.7,1.8,4,1.3,6.4,1.1l0-3.7c-4.4,1.3-3.5-2.3-3.5-6.8c0-3.5,0.4-13.2-0.6-16c-0.3-0.8-0.5-1.2-0.9-1.8c-2.5-3.8-6.5-4.3-11.1-4.3C303.2,131.7,298.6,135.6,298.2,142.6L298.2,142.6z"/><path fill="#FFFFFF" d="M453.2,155.6c0-7.5,14.6-5.4,17.6-8l0,4.4C470.9,163.6,453.2,165.2,453.2,155.6L453.2,155.6z M450.3,142.6h4.3c0.2-5.3,3.4-7.3,8.5-7.3c4.1,0,7.1,1.2,7.8,4.9c0.9,5.5-2.3,5.2-6.5,5.8c-3.6,0.4-7.3,0.7-10.3,2.2c-3.4,1.6-4.9,3.8-4.9,8.3c0,10.3,14.5,11.4,20.1,5.5c0.5-0.5,0.6-0.7,1-1.2c0.3-0.5,0.7-0.9,1.1-1.3c0.3,5.9,3.6,5.3,7.4,4.9l0-3.7c-4.5,1.3-3.5-2.5-3.5-6.8c0-3.7,0-7.4,0-11.1c0-3.7-0.4-5.8-2.8-8.3c-2.3-2.4-6.1-2.7-9.8-2.7C455.2,131.7,450.7,135.6,450.3,142.6L450.3,142.6z"/><path fill="#FFFFFF" d="M460,189.3c7.6-1.2,12.1,4.9,12.7,11.6c0.7,7.4-2.9,14.2-9.3,15.2c-7.6,1.2-12.1-4.7-12.8-11.5C449.9,196.9,453.5,190.3,460,189.3L460,189.3z M462.4,219.9c19.4,0,20.2-34.5-0.6-34.5c-20.9,0-20.1,34.5-0.6,34.5H462.4L462.4,219.9z"/><path fill="#FFFFFF" d="M487,191.1l0-4.7c-0.9-0.3-3.2-0.1-4.3-0.1V219l4.3,0c0.4-6.2-0.2-12.9,0-19.2c0.2-5.7,3.5-10.1,8.9-10.6c7.2-0.7,9,3.8,9,10.4c0,3.9-0.2,16.6,0,19.3l4.2,0c0.2-1.8,0-12.5,0-15.2c0-4.9,0.5-9.9-1.7-13.7c-2.8-5-11.4-6-16.6-2.9c-1.2,0.7-2.3,1.7-3,2.8C487.6,190.4,487.4,190.8,487,191.1L487,191.1z"/><path fill="#FFFFFF" d="M316.3,186.4c0,5.2,0,10.4,0,15.6c0,4.7-0.4,10,1.9,13.5c2,3.1,6,4.9,11.3,4.3c6.6-0.8,8.3-5,9.3-6.1l0,5.2l4,0l0-32.6l-4.3,0.1c0,3.8,0.2,16.7-0.1,19.4c-0.6,5.5-3.5,10.1-8.9,10.4c-7.3,0.4-8.9-3.8-8.9-10.5c0-6.4,0-12.8,0-19.2C319.7,186.2,317.4,186.4,316.3,186.4L316.3,186.4z"/><path fill="#FFFFFF" d="M487.9,137.3l-0.1-4.7l-4.2,0l-0.1,31.9l4.2,0c0.4-4.6-0.2-13.4,0-18.9c0.2-5.5,3.4-9.8,8.7-10.3c7-0.6,8.8,3.7,8.8,10.1c0,3.3-0.2,16.9,0,19.1h4.2c0.2-1.4,0.1-12.5,0.1-14.9c0-8.8,1-18.3-12.3-18c-2.2,0.1-4.3,0.8-5.8,1.8C489.1,135,489.3,135.6,487.9,137.3L487.9,137.3z"/><path fill="#FFFFFF" d="M373.3,207c-0.5,0.3-0.1-0.1-0.3,0.5l-0.3,1.6c-1.3,4.8-5.7,7.9-11.1,6.8c-11.4-2.3-11.6-22.5-1.4-26.2c2.7-1,6.5-0.8,8.7,0.7c1.9,1.3,3.3,3.4,4,6.4l4.3-0.1c-0.9-9.2-9.3-12.8-17.2-10.9c-7.2,1.7-11.9,8.6-11.5,17.6c0.6,15.7,15.2,20.3,24.2,13.4c2.1-1.6,4.4-5.8,4.7-9.8L373.3,207L373.3,207z"/><path fill="#FFFFFF" d="M357.1,152.8c-5.4,0-3.9-0.5-4.6,2c-3,10.8-18.7,9.2-19.5-5.2c-0.7-12.2,9.2-16.9,15.6-13.2c2.3,1.3,3.3,3.9,4,6.4h4.2c0.1-1.7-0.9-4.1-1.6-5.4c-0.9-1.6-2-2.7-3.5-3.6c-8.4-5.4-23.4-1.3-23,15.5c0.3,11.9,9.7,18.1,18.9,15.6c1.8-0.5,3.7-1.5,4.8-2.4C355.1,160.1,356.8,156.6,357.1,152.8L357.1,152.8z"/><polygon fill="#FFFFFF" points="223,219.9 225.7,220 225.7,116 223,116 "/><path fill="#FFFFFF" d="M411.9,190h5.5c0,6.8,0,13.5,0,20.3c0,7.4,1.2,10,10.9,8.8v-3.6c-2.3-0.1-5.5,0.9-6.3-1.5c-0.5-1.6-0.3-21.4-0.3-23.9l6.6,0l0-3.6l-6.6,0l0-9.7l-4.3,0l0,9.7h-5.6L411.9,190L411.9,190z"/><polygon fill="#FFFFFF" points="426.9,163.9 426.9,164.5 431.1,164.5 431.1,163.9 431.1,120.5 426.9,120.5 "/><polygon fill="#FFFFFF" points="439.4,163.9 439.5,164.5 443.7,164.5 443.7,120.5 439.4,120.4 "/><path fill="#FFFFFF" d="M435.1,219l4.2-0.1v-32.4c-0.9-0.3-3.2-0.1-4.3-0.1L435.1,219L435.1,219z"/><polygon fill="#FFFFFF" points="414.4,163.9 414.4,164.5 418.5,164.5 418.6,163.9 418.6,132.6 414.4,132.6 "/><path fill="#FFFFFF" d="M415.8,120.4c-3.5,1.1-1.9,6.2,1.5,5.1C420.6,124.5,419.2,119.4,415.8,120.4L415.8,120.4z"/><path fill="#FFFFFF" d="M436.5,174.7c-3.6,1.2-1.6,6.3,1.7,5c1.1-0.4,2.1-1.8,1.6-3.4C439.4,175.2,438,174.2,436.5,174.7L436.5,174.7z"/></svg>