<svg version="1.1" xmlns="http://www.w3.org/2000/svg" x="0px" y="0px" width="640px" height="480px" viewBox="0 0 640 480" enable-background="new 0 0 640 480"><rect fill="#333333" width="640" height="480"/><path fill="#FFFFFF" d="M320,134c-58.6,0-106,47.4-106,106c0,58.6,47.4,106,106,106c58.6,0,106-47.4,106-106C426,181.4,378.6,134,320,134z M382.9,302.9c-8.2,8.2-17.7,14.6-28.3,19.1c-2.6,1.1-5.4,2.1-8.2,3.1v-15.9c0-8.4-2.9-14.5-8.6-18.4c3.6-0.3,6.8-0.8,9.9-1.4c3.1-0.6,6.1-1.5,9.5-2.6c3.3-1.1,6.4-2.5,9.1-4.2c2.7-1.7,5.2-3.8,7.7-6.3c2.5-2.7,4.5-5.6,6.1-8.8c1.7-3.2,2.9-7.3,3.9-11.9c1-4.6,1.4-9.6,1.4-15.2c0-10.7-3.5-19.8-10.5-27.3c3.2-8.2,2.8-17.3-1-27.1l-2.6-0.3c-1.8-0.1-5,0.6-9.6,2.2c-4.6,1.7-9.9,4.6-15.6,8.5c-8.2-2.2-16.7-3.3-25.5-3.3c-8.9,0-17.4,1.1-25.5,3.3c-3.6-2.5-7.1-4.6-10.5-6.1c-3.3-1.7-5.9-2.8-7.8-3.3c-2-0.6-3.8-1-5.4-1.1c-1.7-0.1-2.8-0.1-3.2-0.1c-0.4,0-0.8,0.1-1,0.1c-3.9,9.8-4.2,18.8-1,27.1c-7,7.5-10.5,16.6-10.5,27.3c0,5.6,0.4,10.6,1.4,15.2c1,4.6,2.2,8.5,3.9,11.9c1.7,3.3,3.8,6.3,6.1,8.8c2.5,2.7,5,4.7,7.7,6.3c2.6,1.7,5.7,3.1,9.1,4.2c3.3,1.1,6.6,2.1,9.5,2.7c2.9,0.6,6.3,1.1,9.9,1.4c-5.7,3.9-8.5,10-8.5,18.4v16.2c-3.1-1-6.3-2.1-9.2-3.3c-10.6-4.5-20.1-10.9-28.3-19.1c-8.2-8.2-14.6-17.7-19.1-28.3c-4.6-11-7-22.6-7-34.6c0-12,2.4-23.7,7-34.6c4.5-10.6,10.9-20.1,19.1-28.3c8.2-8.2,17.7-14.6,28.3-19.1c11-4.6,22.6-7,34.6-7c12,0,23.7,2.4,34.6,7c10.6,4.5,20.1,10.9,28.3,19.1c8.2,8.2,14.6,17.7,19.1,28.3c4.6,11,7,22.6,7,34.6c0,12-2.4,23.7-7,34.6C397.5,285.2,391.1,294.8,382.9,302.9z"/></svg>