<svg version="1.1" xmlns="http://www.w3.org/2000/svg" xmlns:xlink="http://www.w3.org/1999/xlink" x="0px" y="0px" viewBox="0 0 640 480" enable-background="new 0 0 640 480" xml:space="preserve"><rect fill="#E1306C" width="640" height="480"/><path fill="#FFFFFF" d="M320,153.1c28.3,0,31.6,0.1,42.8,0.6c10.3,0.5,15.9,2.2,19.7,3.7c5,1.9,8.5,4.2,12.2,7.9c3.7,3.7,6,7.2,7.9,12.2c1.4,3.7,3.2,9.3,3.7,19.7c0.5,11.2,0.6,14.5,0.6,42.8s-0.1,31.6-0.6,42.8c-0.5,10.3-2.2,15.9-3.7,19.7c-1.9,5-4.2,8.5-7.9,12.2c-3.7,3.7-7.2,6-12.2,7.9c-3.7,1.4-9.3,3.2-19.7,3.7c-11.2,0.5-14.5,0.6-42.8,0.6c-28.3,0-31.6-0.1-42.8-0.6c-10.3-0.5-15.9-2.2-19.7-3.7c-5-1.9-8.5-4.2-12.2-7.9c-3.7-3.7-6-7.2-7.9-12.2c-1.4-3.7-3.2-9.3-3.7-19.7c-0.5-11.2-0.6-14.5-0.6-42.8s0.1-31.6,0.6-42.8c0.5-10.3,2.2-15.9,3.7-19.7c1.9-5,4.2-8.5,7.9-12.2c3.7-3.7,7.2-6,12.2-7.9c3.7-1.4,9.3-3.2,19.7-3.7C288.3,153.2,291.6,153.1,320,153.1 M320,134c-28.8,0-32.4,0.1-43.7,0.6c-11.3,0.5-19,2.3-25.7,4.9c-7,2.7-12.9,6.4-18.8,12.2c-5.9,5.9-9.5,11.8-12.2,18.8c-2.6,6.7-4.4,14.4-4.9,25.7c-0.5,11.3-0.6,14.9-0.6,43.7s0.1,32.4,0.6,43.7c0.5,11.3,2.3,19,4.9,25.7c2.7,7,6.4,12.9,12.2,18.8c5.9,5.9,11.8,9.5,18.8,12.2c6.7,2.6,14.4,4.4,25.7,4.9c11.3,0.5,14.9,0.6,43.7,0.6c28.8,0,32.4-0.1,43.7-0.6c11.3-0.5,19-2.3,25.7-4.9c7-2.7,12.9-6.4,18.8-12.2c5.9-5.9,9.5-11.8,12.2-18.8c2.6-6.7,4.4-14.4,4.9-25.7c0.5-11.3,0.6-14.9,0.6-43.7s-0.1-32.4-0.6-43.7c-0.5-11.3-2.3-19-4.9-25.7c-2.7-7-6.4-12.9-12.2-18.8c-5.9-5.9-11.8-9.5-18.8-12.2c-6.7-2.6-14.4-4.4-25.7-4.9C352.3,134.1,348.7,134,320,134L320,134z"/><path fill="#FFFFFF" d="M320,185.5c-30,0-54.4,24.4-54.4,54.4s24.4,54.4,54.4,54.4c30,0,54.4-24.4,54.4-54.4S350,185.5,320,185.5z M320,275.3c-19.5,0-35.3-15.8-35.3-35.3s15.8-35.3,35.3-35.3s35.3,15.8,35.3,35.3S339.5,275.3,320,275.3z"/><ellipse fill="#FFFFFF" cx="376.5" cy="183.4" rx="12.7" ry="12.7"/></svg>
