<?xml version="1.0" encoding="utf-8"?> 
<!-- Generator: Adobe Illustrator 19.0.0, SVG Export Plug-In . SVG Version: 6.00 Build 0)  --> 
<svg version="1.1"  xmlns="http://www.w3.org/2000/svg" xmlns:xlink="http://www.w3.org/1999/xlink" x="0px" y="0px" 
	 viewBox="0 0 640 480" enable-background="new 0 0 640 480" xml:space="preserve"> 
<rect fill="#F03B4C" width="640" height="480"/> 
<path fill="#191919" d="M355.5,324c-2.6,0-5.1-0.4-7.7-1.3c-11-3.8-15.9-12.5-13.7-24.4c1.8-9.4,5.5-18.2,9.1-26.7l0.1-0.3 
	c2.5-5.9,5-11.9,7.4-17.7c1.8-4.2,3.4-8.3,5.2-12.5c0.3-0.8,0.5-1.5,0.8-2.4c0.1-0.3,0.1-0.6,0.2-0.9l0,0c-0.8,0.8-1.6,1.5-2.4,2.2 
	c-1.5,1.5-3.2,3-4.8,4.6c-4.1,4.3-8.2,8.7-12.3,13c-6.7,7.1-13.6,14.6-20.6,21.7c-4.9,5-10.9,10.6-18.4,14.1 
	c-4.5,2.2-8.5,2.7-12.4,1.7c-7-1.8-10.7-7.7-10.3-16.1c0.4-7.8,3-15,5.9-21.8c2.9-6.9,6-13.7,9.1-20.4c1.4-3.1,2.9-6.3,4.3-9.4 
	s2.9-6.4,4.4-9.5c4-8.7,8.1-17.8,11.9-26.7c1.2-2.7,2-5.7,2.7-8.6c0.4-1.3,0.7-2.6,1.1-3.8c0.1-0.5,0.1-1.1,0.2-1.7 
	c0-0.1,0-0.1,0-0.2c-0.3,0.3-0.6,0.5-0.8,0.8c-0.9,0.9-1.9,1.8-2.7,2.8c-5.5,7.7-11,15.4-16.4,23.1c-1.5,2.2-3.1,4.3-4.6,6.5 
	c-4.2,5.9-8.6,12.1-13.2,18c-2.5,3.1-5.8,6.1-9.6,8.3c-3.2,2-6.8,2.4-10.2,1.1c-3.6-1.4-6.4-4.6-7.7-8.9c-2-6.5,0.1-12.2,2.4-17 
	c2.2-4.5,4.6-9,6.9-13.4c1.9-3.6,3.9-7.3,5.7-11c2-4,3.9-8.3,3.6-13.2c-0.2-3-1.5-5.5-3.9-7.4c-1.5-1.1-3.1-1.1-5.5,0.1 
	c-3.8,1.7-7,4.6-10.5,9.4c-1.8,2.3-4.1,3-6.1,1.9c-1.3-0.8-2.2-1.9-2.5-3.1c-0.3-1.2,0-2.4,0.8-3.7c4.5-7,9.8-11.6,16.1-14.1 
	c7.4-2.9,14.2-0.3,19,7.3c3.4,5.3,4.1,11.1,2.2,17.2c-1.8,5.6-4.1,11-6.3,16c-1.5,3.3-3.2,6.6-4.8,9.9c-1.5,3-3.2,6.2-4.6,9.2 
	c-1,2.2-1.3,4.8-1.6,7.3c-0.1,0.7,0.4,1.7,1,2.3c0.4,0,1.3-0.4,1.7-0.8c0.7-0.7,1.4-1.5,2.1-2.2c2.5-2.6,5.1-5.2,7.1-8.1 
	c3.9-5.6,7.7-11.4,11.4-17.1c3-4.7,6.2-9.4,9.4-14.1c3.5-5.1,7.4-10.2,11.4-15.1c3.2-3.8,6.5-5.9,10.3-6.6c3-0.6,6,0.2,8.5,2.2 
	c2.8,2.2,4.6,5.6,4.8,9.4c0.4,5-0.2,9.8-1.8,14.2c-3.4,9.5-7,19.3-11.1,28.8c-3.1,7.3-6.4,14.7-9.6,21.8c-3.2,7.1-6.5,14.4-9.6,21.7 
	c-1.6,3.9-2.8,8-3.9,12.1c-0.4,1.5-0.8,2.9-1.2,4.3c-0.2,0.6-0.2,1.4-0.3,2.4c0,0.1,0,0.2,0,0.3c0.4-0.2,0.7-0.4,1.1-0.6 
	c1.3-0.7,2.3-1.3,3.2-2c7.3-5.5,13.6-12.4,19.1-18.5c8.8-9.7,19-20.8,29.3-31.7c3.8-4,7.8-6.9,12.1-8.6c4.2-1.7,8.5-1.6,12,0.3 
	c3.5,1.9,6,5.4,7,9.9c1,4.3,0.3,8.5-0.5,12c-1.8,8-4.9,15.7-8,23.2c-0.8,2.1-1.8,4.2-2.5,6.3c-3.3,8.3-6.5,16.8-9.9,26 
	c-0.5,1.5-0.8,3.1-1.1,4.7c-0.1,0.8-0.3,1.6-0.4,2.4c-0.1,0.4,0,0.8,0.1,1c0.2,0.2,0.5,0.3,0.7,0.3c2-0.1,4-0.1,5.7-0.8 
	c5.8-2.4,10.4-6.6,14.9-10.8c2.4-2.2,4.7-4.5,6.9-6.8c0.9-1,1.9-1.9,2.8-2.8c2.9-2.9,5.4-2.9,8.4-0.1c2,2,4.1,4.1,6.2,6.4 
	c1.2,1.1,1.9,2.4,1.9,3.7c0,1.3-0.5,2.5-1.6,3.6l-1.2,1.2c-7.9,7.9-16.2,16.1-26.3,21.6C365.5,322.5,360.3,324,355.5,324z"/> 
</svg> 
