<svg version="1.1" xmlns="http://www.w3.org/2000/svg" x="0px" y="0px" width="640px" height="480px" viewBox="0 0 640 480" enable-background="new 0 0 640 480"><rect y="0" fill="#2A333C" width="640" height="480"/><g><polygon fill="#FFFFFF" points="364.9,273.6 409.9,273.6 409.9,206.1 432.3,206.1 432.3,273.6 454.8,273.6 454.8,206.4 477.3,206.4 477.3,273.6 499.7,273.6 499.7,183.7 364.9,183.7 "/><polygon fill="#FFFFFF" points="140,274 184.8,274 184.8,206 207.4,206 207.4,274 229.7,274 229.7,184.1 140,184.1 "/><path fill="#FFFFFF" d="M252.3,297.1H297v-22.6h45.2v-90.8h-90.1L252.3,297.1z M296.5,205.6H320v46.2h-23.5V205.6z"/><path fill="#CB3837" d="M117,161v136.1h112.9V319H320v-21.9h203V161H117z M229.7,274h-22.3v-68h-22.5v68l-44.8,0v-89.9h89.7V274z M342.2,274.5H297v22.6h-44.7l-0.3-113.4h90.1V274.5z M499.7,273.6h-22.5v-67.3h-22.5v67.3h-22.4v-67.5h-22.5v67.5h-44.9v-89.9h134.8V273.6z"/><rect x="296.5" y="205.6" fill="#CB3837" width="23.5" height="46.2"/></g></svg>
