<svg version="1.1" xmlns="http://www.w3.org/2000/svg" xmlns:xlink="http://www.w3.org/1999/xlink" x="0px" y="0px" width="640px" height="336px" viewBox="0 0 640 336" enable-background="new 0 0 640 336" xml:space="preserve"><rect fill="#745785" width="640" height="336"/><g><path d="M547.5,293.4h-27.1c2.3-3.3,3.8-7.3,3.8-11.7V48.1c0-11.1-9-20.1-20.2-20.1H135.6c-11.1,0-20.1,9-20.1,20.1v233.5c0,4.4,1.5,8.5,3.9,11.8H92.1c0,0-1.2,1.3,2,4.5c9.2,9.2,29.8,10,29.8,10l0,0c0,0,387.1,0.1,387.5,0c21.6,0,28.5-6.5,34.3-10.2C549.8,293.6,547.5,293.4,547.5,293.4z M345.7,298.3h-51.9v-3.5h51.8L345.7,298.3L345.7,298.3z M509.3,277H129.8V41.5h379.6V277H509.3z"/><rect x="129.8" y="41.5" fill="#3E3E40" width="379.6" height="235.4"/><path fill="#FFFFFF" d="M175.2,135.2L175.2,135.2v1.2h-3.3v-15.7h3.3v6.7l0,0c0.8-1.2,1.9-1.9,3.4-1.9c1.4,0,2.4,0.5,3.1,1.4c0.7,0.9,1.1,2.2,1.1,3.9c0,1.8-0.4,3.2-1.3,4.2s-2,1.6-3.4,1.6C176.9,136.7,175.9,136.2,175.2,135.2z M175.1,130.8v1.1c0,0.7,0.2,1.2,0.6,1.7c0.4,0.4,0.9,0.7,1.5,0.7c0.8,0,1.3-0.3,1.7-0.9c0.4-0.6,0.6-1.4,0.6-2.4c0-0.9-0.2-1.6-0.6-2.1c-0.4-0.5-0.9-0.8-1.6-0.8c-0.7,0-1.2,0.3-1.6,0.8C175.3,129.3,175.1,130,175.1,130.8z"/><path fill="#FFFFFF" d="M194.6,132.1h-7c0.1,1.6,1.1,2.3,2.9,2.3c1.1,0,2.2-0.3,3.1-0.8v2.3c-1,0.5-2.3,0.8-3.8,0.8c-1.7,0-3.1-0.5-4-1.4s-1.4-2.3-1.4-4c0-1.8,0.5-3.1,1.6-4.2c1-1.1,2.3-1.6,3.8-1.6c1.6,0,2.7,0.4,3.6,1.4c0.8,0.9,1.3,2.2,1.3,3.8L194.6,132.1L194.6,132.1z M191.6,130.1c0-1.5-0.6-2.3-1.9-2.3c-0.5,0-1,0.2-1.4,0.7c-0.4,0.4-0.6,1-0.7,1.6H191.6z"/><path fill="#FFFFFF" d="M209.4,121.6l-7.1,17.3h-1.6l7.1-17.3C207.8,121.6,209.4,121.6,209.4,121.6z"/><path fill="#FFFFFF" d="M218.5,134.9L218.5,134.9v1.6h-1.7v-15.7h1.7v7l0,0c0.8-1.4,2.1-2.1,3.7-2.1c1.4,0,2.4,0.5,3.2,1.4c0.8,0.9,1.1,2.2,1.1,3.8c0,1.8-0.4,3.2-1.3,4.2c-0.8,1-2,1.6-3.5,1.6C220.3,136.7,219.2,136.1,218.5,134.9z M218.5,130.7v1.5c0,0.9,0.3,1.6,0.8,2.3c0.6,0.6,1.3,0.9,2.2,0.9c1,0,1.9-0.4,2.4-1.2c0.6-0.8,0.9-1.9,0.9-3.3c0-1.2-0.3-2.1-0.8-2.8c-0.6-0.7-1.3-1-2.2-1c-1,0-1.8,0.4-2.4,1C218.8,128.7,218.5,129.6,218.5,130.7z"/><path fill="#FFFFFF" d="M230.1,123.1c-0.3,0-0.6-0.1-0.8-0.3c-0.2-0.2-0.3-0.5-0.3-0.8s0.1-0.6,0.3-0.8c0.2-0.2,0.5-0.3,0.8-0.3s0.6,0.1,0.8,0.3c0.2,0.2,0.3,0.5,0.3,0.8s-0.1,0.6-0.3,0.8C230.7,123.1,230.4,123.1,230.1,123.1z M230.9,136.4h-1.6v-10.6h1.7L230.9,136.4L230.9,136.4z"/><path fill="#FFFFFF" d="M236.7,125.5l-0.9,2.1h-0.3l-0.9-2.1H236.7z M236.7,136.4h-2.1l0.9-2.1h0.3L236.7,136.4z"/><path fill="#FFFFFF" d="M252.8,121.6l-7.1,17.3h-1.6l7.1-17.3C251.2,121.6,252.8,121.6,252.8,121.6z"/><path fill="#FFFFFF" d="M187.3,157.7l-3.1,10.6h-3.4l-1.6-6.2c-0.1-0.4-0.2-0.9-0.2-1.4l0,0c0,0.5-0.1,1-0.2,1.3l-1.7,6.3h-3.4l-3-10.6h3.3l1.5,7c0.1,0.3,0.1,0.7,0.2,1.2l0,0c0-0.5,0.1-0.9,0.2-1.2l1.8-6.9h3.1l1.6,7c0,0.2,0.1,0.6,0.1,1.2h0.1c0-0.4,0.1-0.8,0.2-1.2l1.4-7L187.3,157.7L187.3,157.7z"/><path fill="#FFFFFF" d="M197.7,168.3h-3.1v-1.5l0,0c-0.7,1.2-1.8,1.8-3.1,1.8c-1,0-1.9-0.3-2.4-0.9c-0.6-0.6-0.9-1.4-0.9-2.3c0-2.1,1.2-3.2,3.7-3.6l2.9-0.4c0-1.1-0.6-1.7-1.9-1.7s-2.5,0.4-3.6,1.1v-2.4c0.4-0.2,1.1-0.4,1.9-0.6c0.8-0.2,1.5-0.3,2.2-0.3c3,0,4.6,1.5,4.6,4.5L197.7,168.3L197.7,168.3z M194.6,164v-0.7l-1.9,0.3c-1.1,0.1-1.6,0.6-1.6,1.5c0,0.4,0.1,0.7,0.4,0.9c0.3,0.3,0.6,0.4,1.1,0.4c0.6,0,1.1-0.2,1.5-0.6C194.4,165.2,194.6,164.6,194.6,164z"/><path fill="#FFFFFF" d="M199.5,168v-2.6c0.5,0.3,1.1,0.6,1.6,0.7c0.5,0.1,1.1,0.2,1.5,0.2c0.6,0,1-0.1,1.4-0.2c0.4-0.1,0.5-0.4,0.5-0.7c0-0.2-0.1-0.4-0.2-0.5c-0.1-0.1-0.4-0.3-0.6-0.4c-0.2-0.1-0.5-0.2-0.8-0.3s-0.6-0.2-0.8-0.3c-0.4-0.2-0.8-0.3-1.1-0.5s-0.6-0.4-0.8-0.6c-0.2-0.2-0.4-0.5-0.5-0.8s-0.2-0.7-0.2-1.1c0-0.6,0.1-1.1,0.4-1.6c0.3-0.4,0.6-0.8,1-1.1s0.9-0.5,1.5-0.6s1.1-0.2,1.7-0.2c0.5,0,0.9,0,1.4,0.1c0.5,0,1,0.2,1.4,0.3v2.5c-0.4-0.2-0.8-0.4-1.3-0.5s-0.9-0.2-1.4-0.2c-0.2,0-0.4,0-0.6,0c-0.2,0-0.4,0.1-0.5,0.2c-0.1,0.1-0.3,0.2-0.4,0.3c-0.1,0.1-0.1,0.3-0.1,0.4c0,0.2,0,0.4,0.2,0.5c0.1,0.1,0.3,0.3,0.5,0.4c0.2,0.1,0.4,0.2,0.7,0.3s0.5,0.2,0.8,0.3c0.4,0.1,0.8,0.3,1.2,0.5s0.7,0.4,0.9,0.6c0.2,0.2,0.4,0.5,0.6,0.8c0.1,0.3,0.2,0.7,0.2,1.1c0,0.6-0.1,1.1-0.4,1.6c-0.3,0.4-0.6,0.8-1.1,1.1s-1,0.5-1.6,0.6s-1.2,0.2-1.9,0.2C201.6,168.5,200.5,168.3,199.5,168z"/><path fill="#FFFFFF" d="M212.7,165.7l-1.5,5.3h-2.6l1.1-5.3H212.7L212.7,165.7z"/><path fill="#FFFFFF" d="M236.5,157.7l-3.1,10.6H230l-1.6-6.2c-0.1-0.4-0.2-0.9-0.2-1.4l0,0c0,0.5-0.1,1-0.2,1.3l-1.7,6.3h-3.4l-3-10.6h3.3l1.5,7c0.1,0.3,0.1,0.7,0.2,1.2l0,0c0-0.5,0.1-0.9,0.2-1.2l1.8-6.9h3.1l1.6,7c0,0.2,0.1,0.6,0.1,1.2h0.1c0-0.4,0.1-0.8,0.2-1.2l1.4-7L236.5,157.7L236.5,157.7z"/><path fill="#FFFFFF" d="M247.5,163.9h-7c0.1,1.6,1.1,2.3,2.9,2.3c1.1,0,2.2-0.3,3.1-0.8v2.3c-1,0.5-2.3,0.8-3.8,0.8c-1.7,0-3.1-0.5-4-1.4s-1.4-2.3-1.4-4c0-1.8,0.5-3.1,1.6-4.2c1-1.1,2.3-1.6,3.8-1.6c1.6,0,2.7,0.4,3.6,1.4s1.3,2.2,1.3,3.8v1.4H247.5z M244.5,161.9c0-1.5-0.6-2.3-1.9-2.3c-0.5,0-1,0.2-1.4,0.7c-0.4,0.4-0.6,1-0.7,1.6H244.5z"/><path fill="#FFFFFF" d="M256.4,160.6c-0.4-0.2-0.8-0.3-1.4-0.3c-0.7,0-1.3,0.3-1.7,0.8s-0.6,1.2-0.6,2.1v5.1h-3.3v-10.6h3.3v2l0,0c0.5-1.5,1.5-2.2,2.8-2.2c0.4,0,0.6,0,0.8,0.1L256.4,160.6L256.4,160.6z"/><path fill="#FFFFFF" d="M267.4,163.9h-7c0.1,1.6,1.1,2.3,2.9,2.3c1.1,0,2.2-0.3,3.1-0.8v2.3c-1,0.5-2.3,0.8-3.8,0.8c-1.7,0-3.1-0.5-4-1.4s-1.4-2.3-1.4-4c0-1.8,0.5-3.1,1.6-4.2c1-1.1,2.3-1.6,3.8-1.6c1.6,0,2.7,0.4,3.6,1.4s1.3,2.2,1.3,3.8v1.4H267.4z M264.3,161.9c0-1.5-0.6-2.3-1.9-2.3c-0.5,0-1,0.2-1.4,0.7s-0.6,1-0.7,1.6H264.3z"/><path fill="#FFFFFF" d="M282.2,153.4l-7.1,17.3h-1.6l7.1-17.3H282.2L282.2,153.4z"/><path fill="#FFFFFF" d="M302.9,157.7l-3.2,10.6h-1.8l-2.2-7.6c-0.1-0.3-0.1-0.6-0.2-1l0,0c0,0.3-0.1,0.6-0.2,1l-2.4,7.6h-1.6l-3.2-10.6h1.8l2.2,7.9c0.1,0.2,0.1,0.6,0.1,1h0.1c0-0.3,0.1-0.6,0.2-1l2.4-7.9h1.6l2.2,8c0.1,0.3,0.1,0.6,0.2,1h0.1c0-0.3,0.1-0.6,0.2-1l2.2-8H302.9z"/><path fill="#FFFFFF" d="M304.1,167.9v-1.7c0.8,0.6,1.7,0.9,2.6,0.9c1.1,0,1.9-0.4,2.6-1.1c0.7-0.8,1-1.8,1-3.1c0-1.2-0.3-2.2-1-3s-1.6-1.1-2.6-1.1c-0.9,0-1.8,0.3-2.6,0.9v-1.6c0.8-0.4,1.8-0.7,2.9-0.7c1.5,0,2.7,0.5,3.7,1.5c0.9,1,1.4,2.3,1.4,3.9c0,1.8-0.5,3.1-1.5,4.2c-1,1.1-2.3,1.6-3.9,1.6C305.7,168.5,304.9,168.3,304.1,167.9z"/><path fill="#FFFFFF" d="M322.2,158.1l-6.3,8.6h6.2v1.5h-8.7v-0.5l6.3-8.6H314v-1.5h8.2V158.1L322.2,158.1z"/><path fill="#FFFFFF" d="M325.9,165.9l-1.7,5.1H323l1.2-5.1H325.9z"/><path fill="#FFFFFF" d="M348.2,157.7l-3.2,10.6h-1.8l-2.2-7.6c-0.1-0.3-0.1-0.6-0.2-1l0,0c0,0.3-0.1,0.6-0.2,1l-2.4,7.6h-1.7l-3.2-10.6h1.8l2.2,7.9c0.1,0.2,0.1,0.6,0.1,1h0.1c0-0.3,0.1-0.6,0.2-1l2.4-7.9h1.6l2.2,8c0.1,0.3,0.1,0.6,0.2,1h0.1c0-0.3,0.1-0.6,0.2-1l2.2-8H348.2z"/><path fill="#FFFFFF" d="M349.3,168v-1.6c0.8,0.4,1.7,0.7,2.6,0.7c0.8,0,1.4-0.2,1.8-0.5s0.7-0.8,0.7-1.3c0-1.2-1-1.8-3-1.8h-0.9V162h0.8c0.8,0,1.5-0.1,2-0.4c0.5-0.3,0.7-0.7,0.7-1.2c0-1-0.7-1.6-2.1-1.6c-0.8,0-1.6,0.2-2.4,0.6v-1.6c0.8-0.3,1.6-0.5,2.5-0.5c1.1,0,2,0.3,2.7,0.8s1,1.2,1,2.1c0,1.1-0.6,1.9-1.9,2.4l0,0c1.5,0.4,2.3,1.2,2.3,2.6c0,0.9-0.4,1.7-1.1,2.3c-0.8,0.6-1.8,0.9-3.1,0.9C351,168.5,350.1,168.3,349.3,168z"/><path fill="#FFFFFF" d="M361.2,157.3l-0.9,2.1H360l-0.9-2.1H361.2z M361.2,168.3h-2.1l0.9-2.1h0.3L361.2,168.3z"/><path fill="#FFFFFF" d="M377.3,153.4l-7.1,17.3h-1.6l7.1-17.3H377.3L377.3,153.4z"/><path fill="#FFFFFF" d="M175.2,198.9L175.2,198.9v1.2h-3.3v-15.7h3.3v6.7l0,0c0.8-1.2,1.9-1.9,3.4-1.9c1.4,0,2.4,0.5,3.1,1.4c0.7,0.9,1.1,2.2,1.1,3.9c0,1.8-0.4,3.2-1.3,4.2c-0.8,1-2,1.6-3.4,1.6C176.9,200.4,175.9,199.9,175.2,198.9z M175.1,194.4v1.1c0,0.7,0.2,1.2,0.6,1.7c0.4,0.4,0.9,0.7,1.5,0.7c0.8,0,1.3-0.3,1.7-0.9c0.4-0.6,0.6-1.4,0.6-2.4c0-0.9-0.2-1.6-0.6-2.1c-0.4-0.5-0.9-0.8-1.6-0.8c-0.7,0-1.2,0.3-1.6,0.8C175.3,193,175.1,193.6,175.1,194.4z"/><path fill="#FFFFFF" d="M194.6,195.7h-7c0.1,1.6,1.1,2.3,2.9,2.3c1.1,0,2.2-0.3,3.1-0.8v2.3c-1,0.5-2.3,0.8-3.8,0.8c-1.7,0-3.1-0.5-4-1.4s-1.4-2.3-1.4-4c0-1.8,0.5-3.1,1.6-4.2c1-1.1,2.3-1.6,3.8-1.6c1.6,0,2.7,0.4,3.6,1.4c0.8,0.9,1.3,2.2,1.3,3.8L194.6,195.7L194.6,195.7z M191.6,193.7c0-1.5-0.6-2.3-1.9-2.3c-0.5,0-1,0.2-1.4,0.7c-0.4,0.4-0.6,1-0.7,1.6H191.6z"/><path fill="#FFFFFF" d="M206.1,195.7h-7c0.1,1.6,1.1,2.3,2.9,2.3c1.1,0,2.2-0.3,3.1-0.8v2.3c-1,0.5-2.3,0.8-3.8,0.8c-1.7,0-3.1-0.5-4-1.4s-1.4-2.3-1.4-4c0-1.8,0.5-3.1,1.6-4.2c1-1,2.3-1.6,3.8-1.6c1.6,0,2.7,0.4,3.6,1.4c0.8,0.9,1.3,2.2,1.3,3.8v1.4H206.1z M203,193.7c0-1.5-0.6-2.3-1.9-2.3c-0.5,0-1,0.2-1.4,0.7s-0.6,1-0.7,1.6H203z"/><path fill="#FFFFFF" d="M218.2,200.1H215v-5.9c0-1.6-0.6-2.5-1.8-2.5c-0.6,0-1,0.2-1.4,0.7c-0.4,0.4-0.5,1-0.5,1.7v6.1H208v-10.6h3.3v1.7l0,0c0.8-1.3,1.9-1.9,3.4-1.9c2.3,0,3.5,1.5,3.5,4.4V200.1L218.2,200.1z"/><path fill="#FFFFFF" d="M233.7,185.3l-7.1,17.3H225l7.1-17.3H233.7z"/><path fill="#FFFFFF" d="M243.5,187.9h-1.1v-3.8h1.1V187.9z"/><path fill="#FFFFFF" d="M249.9,198.6L249.9,198.6v1.6h-1.7v-15.7h1.7v7l0,0c0.8-1.4,2.1-2.1,3.7-2.1c1.4,0,2.4,0.5,3.2,1.4c0.8,0.9,1.1,2.2,1.1,3.8c0,1.8-0.4,3.2-1.3,4.2c-0.8,1.1-2,1.6-3.5,1.6C251.7,200.4,250.6,199.7,249.9,198.6z M249.9,194.3v1.5c0,0.9,0.3,1.6,0.8,2.3c0.6,0.6,1.3,0.9,2.2,0.9c1,0,1.9-0.4,2.4-1.2c0.6-0.8,0.9-1.9,0.9-3.3c0-1.2-0.3-2.1-0.8-2.8s-1.3-1-2.2-1c-1,0-1.8,0.4-2.4,1C250.2,192.4,249.9,193.2,249.9,194.3z"/><path fill="#FFFFFF" d="M261.5,186.8c-0.3,0-0.6-0.1-0.8-0.3c-0.2-0.2-0.3-0.5-0.3-0.8s0.1-0.6,0.3-0.8c0.2-0.2,0.5-0.3,0.8-0.3s0.6,0.1,0.8,0.3c0.2,0.2,0.3,0.5,0.3,0.8s-0.1,0.6-0.3,0.8S261.8,186.8,261.5,186.8z M262.3,200.1h-1.7v-10.6h1.7V200.1z"/><path fill="#FFFFFF" d="M268.1,189.2l-0.9,2.1h-0.3l-0.9-2.1H268.1z M268.1,200.1H266l0.9-2.1h0.3L268.1,200.1z"/><path fill="#FFFFFF" d="M280.5,200.1h-1.7V194c0-2.3-0.8-3.4-2.5-3.4c-0.8,0-1.6,0.3-2.1,1c-0.6,0.7-0.8,1.5-0.8,2.4v6.1h-1.7v-10.6h1.7v1.8l0,0c0.8-1.3,1.9-2,3.5-2c1.1,0,2,0.4,2.6,1.1s0.9,1.8,0.9,3.2L280.5,200.1L280.5,200.1z"/><path fill="#FFFFFF" d="M296.2,185.3l-7.1,17.3h-1.6l7.1-17.3H296.2z"/><path fill="#FFFFFF" d="M170.6,227.5l0.2-1.1h17.7l-0.2,1.1H170.6z"/><path fill="#FFFFFF" d="M202.9,220.2c-0.8,0-1.4,0.1-2,0.1s-1.1,0.1-1.6,0.2c-0.5,0.1-0.9,0.2-1.2,0.4c-0.4,0.2-0.7,0.4-0.9,0.7c-0.1,0.2-0.3,0.4-0.4,0.6c-0.1,0.2-0.3,0.5-0.4,0.8c-0.1,0.3-0.2,0.5-0.3,0.8s-0.2,0.6-0.2,0.8l0,0c0.4-0.5,0.9-0.8,1.4-1.1s1.1-0.4,1.8-0.4c0.4,0,0.8,0.1,1.2,0.2c0.4,0.1,0.7,0.4,1,0.6c0.3,0.3,0.5,0.6,0.6,1s0.2,0.9,0.2,1.5s0,1-0.1,1.5s-0.3,0.9-0.4,1.4c-0.2,0.4-0.4,0.8-0.7,1.1c-0.3,0.4-0.6,0.7-0.9,0.9c-0.4,0.3-0.8,0.4-1.1,0.6c-0.4,0.1-0.9,0.2-1.4,0.2c-0.6,0-1.1-0.1-1.5-0.3s-0.8-0.5-1.1-0.9s-0.5-0.8-0.6-1.4c-0.1-0.5-0.2-1.1-0.2-1.8c0-0.6,0-1.1,0.1-1.8s0.2-1.2,0.4-1.8s0.4-1.1,0.7-1.7c0.3-0.6,0.6-1,0.9-1.5c0.4-0.5,0.8-0.8,1.3-1.1s1-0.5,1.6-0.6s1.2-0.3,1.9-0.4c0.7-0.1,1.5-0.1,2.3-0.2L202.9,220.2z M200.6,226.6c0-0.4,0-0.8-0.1-1.1s-0.2-0.5-0.4-0.8c-0.2-0.2-0.4-0.3-0.6-0.4c-0.2-0.1-0.5-0.1-0.8-0.1s-0.6,0-0.9,0.1c-0.3,0.1-0.6,0.2-0.9,0.4c-0.3,0.2-0.5,0.4-0.8,0.6c-0.2,0.2-0.4,0.4-0.7,0.7c0,0.1,0,0.3-0.1,0.4c0,0.1,0,0.4,0,0.5s0,0.4,0,0.5s0,0.3,0,0.5c0,0.4,0,0.8,0.1,1.2s0.2,0.7,0.4,0.9c0.1,0.3,0.4,0.4,0.7,0.6s0.6,0.2,0.9,0.2c0.4,0,0.7,0,0.9-0.2c0.3-0.1,0.6-0.3,0.8-0.5s0.4-0.4,0.6-0.7c0.2-0.3,0.4-0.6,0.5-0.9c0.1-0.3,0.2-0.7,0.3-1C200.6,227.4,200.6,226.9,200.6,226.6z"/><path fill="#FFFFFF" d="M206.2,223.1l-0.8,3.8c0.3-0.1,0.7-0.2,1.1-0.3c0.4-0.1,0.8-0.1,1.1-0.1c0.9,0,1.6,0.2,2.1,0.6c0.5,0.4,0.7,1,0.7,1.8c0,0.4,0,0.8-0.2,1.1c-0.1,0.4-0.4,0.8-0.6,1.1c-0.3,0.3-0.7,0.6-1.1,0.8c-0.5,0.2-1.1,0.3-1.7,0.3c-1.1,0-1.8-0.2-2.3-0.7s-0.8-1.2-0.8-2.1c0-0.2,0-0.3,0-0.5s0-0.4,0-0.5s0-0.4,0.1-0.5c0-0.2,0-0.3,0.1-0.4c0,0,0-0.1,0-0.2s0-0.3,0.1-0.5c0-0.2,0.1-0.4,0.1-0.7s0.1-0.5,0.2-0.8c0.1-0.6,0.3-1.3,0.4-2.1L206.2,223.1L206.2,223.1z M209,229.1c0-0.4-0.1-0.8-0.4-1.1s-0.7-0.4-1.3-0.4c-0.4,0-0.8,0-1.1,0.1c-0.4,0.1-0.7,0.2-1,0.3c0,0.1,0,0.2,0,0.4c0,0.1,0,0.2,0,0.4s0,0.2,0,0.4c0,0.1,0,0.2,0,0.3c0,0.3,0,0.5,0.1,0.7c0,0.2,0.2,0.4,0.3,0.5s0.3,0.3,0.5,0.4s0.5,0.1,0.8,0.1c0.4,0,0.7,0,1-0.2c0.3-0.1,0.5-0.3,0.7-0.4c0.2-0.2,0.3-0.4,0.4-0.6C208.9,229.6,209,229.3,209,229.1z M212.8,231.9h-1.4l1.9-8.8h1.4L212.8,231.9z"/><path fill="#FFFFFF" d="M229.3,225.3c0,0.1,0,0.2,0,0.4s0,0.3-0.1,0.5c0,0.2,0,0.4-0.1,0.5c0,0.2,0,0.3-0.1,0.4l-1.1,4.9h-1.4l1.1-5.2c0-0.1,0-0.2,0.1-0.3c0-0.1,0-0.2,0-0.4s0-0.2,0-0.3s0-0.2,0-0.2c0-0.4-0.1-0.8-0.3-1.1s-0.5-0.4-0.9-0.4c-0.2,0-0.4,0-0.7,0.1c-0.2,0.1-0.4,0.2-0.7,0.4c-0.2,0.2-0.4,0.4-0.6,0.6c-0.2,0.3-0.4,0.5-0.6,0.8c-0.2,0.3-0.3,0.5-0.4,0.8s-0.2,0.5-0.3,0.8l-0.9,4.3h-1.4l1.1-5.2c0-0.1,0-0.2,0.1-0.3c0-0.1,0-0.2,0-0.4c0-0.1,0-0.2,0-0.3s0-0.2,0-0.2c0-0.4-0.1-0.8-0.3-1.1s-0.5-0.4-0.9-0.4c-0.2,0-0.4,0-0.7,0.1s-0.5,0.2-0.7,0.4c-0.2,0.1-0.4,0.4-0.7,0.6c-0.3,0.2-0.4,0.5-0.6,0.8c-0.2,0.3-0.3,0.5-0.4,0.8c-0.1,0.3-0.2,0.5-0.3,0.8l-0.9,4.3h-1.4l1.4-6.3c0-0.2,0.1-0.4,0.1-0.7s0.1-0.5,0.1-0.7s0.1-0.4,0.1-0.6c0-0.2,0-0.4,0.1-0.5h1.4c0,0.2,0,0.4-0.1,0.7c0,0.3-0.1,0.5-0.1,0.7s-0.1,0.5-0.1,0.7l0,0c0.2-0.4,0.4-0.7,0.7-0.9c0.2-0.3,0.5-0.5,0.8-0.8c0.3-0.2,0.6-0.4,0.8-0.5c0.3-0.1,0.6-0.2,0.9-0.2c0.4,0,0.7,0,0.9,0.2c0.3,0.1,0.5,0.3,0.7,0.4c0.2,0.2,0.3,0.4,0.4,0.7s0.1,0.6,0.2,0.9c0.2-0.3,0.4-0.6,0.7-0.9c0.3-0.3,0.5-0.5,0.8-0.7s0.6-0.4,0.9-0.5c0.3-0.1,0.7-0.2,1-0.2c0.8,0,1.3,0.2,1.7,0.7C229,224.1,229.3,224.5,229.3,225.3z"/><path fill="#FFFFFF" d="M233.7,223.1l-0.8,3.8c0.4-0.1,0.7-0.2,1.1-0.3c0.4-0.1,0.8-0.1,1.2-0.1c1,0,1.8,0.2,2.3,0.6c0.5,0.4,0.8,1,0.8,1.8c0,0.4-0.1,0.8-0.2,1.1c-0.1,0.4-0.4,0.8-0.7,1.1s-0.7,0.6-1.2,0.8s-1.1,0.3-1.8,0.3c-1.1,0-1.9-0.2-2.4-0.7s-0.8-1.2-0.8-2.1c0-0.2,0-0.3,0-0.5s0-0.4,0-0.5s0-0.4,0.1-0.5c0-0.2,0-0.3,0.1-0.4c0,0,0-0.1,0-0.2s0-0.3,0.1-0.5c0-0.1,0.1-0.4,0.1-0.7s0.1-0.5,0.2-0.8c0.1-0.6,0.3-1.3,0.4-2.1L233.7,223.1L233.7,223.1z M236.8,229.1c0-0.4-0.1-0.8-0.4-1.1c-0.3-0.3-0.8-0.4-1.4-0.4c-0.4,0-0.9,0-1.3,0.1c-0.4,0.1-0.8,0.2-1.1,0.3c0,0.1,0,0.2,0,0.4c0,0.1,0,0.2,0,0.4s0,0.2,0,0.4c0,0.1,0,0.2,0,0.3c0,0.3,0,0.5,0.1,0.7c0,0.2,0.2,0.4,0.4,0.5s0.4,0.3,0.6,0.4c0.2,0.1,0.5,0.1,0.9,0.1s0.8,0,1.1-0.2c0.3-0.1,0.5-0.3,0.8-0.4c0.2-0.2,0.3-0.4,0.4-0.6C236.7,229.6,236.8,229.3,236.8,229.1z"/><rect x="408.3" y="59.4" fill="none" width="65.8" height="26.3"/><rect x="382" y="59.4" fill="#D54848" width="26.3" height="26.3"/><path fill="#FFFFFF" d="M398.6,72.3c-0.2,0.2-0.5,0.4-0.7,0.7c-1,1.1-2,2.2-3.1,3.2c-0.5,0.5-1,1-1.7,1.3c-0.4,0.2-0.7,0.3-1.1,0.1c-0.6-0.1-0.9-0.7-0.9-1.4c0-0.7,0.3-1.4,0.6-2c0.4-0.9,0.8-1.8,1.3-2.7c0.5-1.1,1-2.2,1.5-3.3c0.1-0.4,0.2-0.8,0.4-1.1c0-0.1,0-0.1,0-0.2l0,0c-0.1,0.1-0.3,0.2-0.4,0.4c-0.5,0.7-1,1.4-1.6,2.1c-0.6,0.8-1.1,1.5-1.6,2.3c-0.2,0.3-0.6,0.6-0.9,0.8c-0.7,0.4-1.4,0-1.6-0.7c-0.2-0.6,0-1,0.2-1.5c0.4-0.8,0.8-1.5,1.2-2.3c0.2-0.4,0.4-0.8,0.3-1.2c0-0.3-0.1-0.5-0.4-0.7c-0.2-0.1-0.4-0.1-0.6,0c-0.4,0.2-0.7,0.5-1,0.9c-0.1,0.2-0.3,0.2-0.5,0.1s-0.3-0.3-0.1-0.6c0.4-0.6,0.8-1,1.5-1.3s1.3,0,1.7,0.7c0.3,0.5,0.4,1,0.2,1.6c-0.1,0.5-0.4,1-0.6,1.5c-0.3,0.6-0.6,1.2-0.9,1.7c-0.1,0.2-0.1,0.5-0.1,0.7c0,0.1,0,0.2,0.1,0.3c0,0,0.2,0,0.2-0.1c0.3-0.3,0.6-0.6,0.8-0.9c0.7-0.9,1.3-1.9,1.9-2.9c0.3-0.5,0.7-0.9,1.1-1.4c0.2-0.3,0.5-0.5,0.9-0.6c0.6-0.1,1.1,0.4,1.2,1c0,0.4,0,0.9-0.2,1.3c-0.3,0.9-0.7,1.8-1,2.6c-0.6,1.3-1.2,2.7-1.8,4c-0.2,0.5-0.3,1-0.5,1.5c0,0.1,0,0.2,0,0.4c0.2-0.1,0.4-0.2,0.5-0.3c0.7-0.5,1.2-1.1,1.8-1.7c0.9-1,1.8-2,2.7-2.9c0.3-0.3,0.7-0.6,1.1-0.8c0.8-0.3,1.5,0.1,1.7,0.9c0.1,0.4,0,0.7,0,1.1c-0.2,0.9-0.6,1.8-1,2.7c-0.3,0.8-0.6,1.6-0.9,2.4c-0.1,0.2-0.1,0.4-0.1,0.7c0,0.1,0,0.2,0.1,0.2c0.2,0,0.4,0,0.6-0.1c0.6-0.2,1-0.6,1.4-1c0.3-0.3,0.6-0.6,0.9-0.9c0.2-0.2,0.5-0.2,0.7,0s0.4,0.4,0.6,0.6s0.2,0.4,0,0.6c-0.8,0.8-1.6,1.6-2.5,2.1c-0.7,0.4-1.4,0.6-2.1,0.3c-1-0.3-1.5-1.1-1.2-2.2c0.2-0.8,0.5-1.6,0.8-2.5c0.4-0.9,0.8-1.8,1.2-2.8C398.5,72.5,398.5,72.4,398.6,72.3C398.6,72.4,398.6,72.3,398.6,72.3z"/><path fill="#FFFFFF" d="M418.1,70.7h-0.6v-0.6l0,0c-0.2,0.4-0.6,0.6-1.1,0.6c-0.3,0-0.6-0.1-0.8-0.3c-0.2-0.2-0.3-0.4-0.3-0.8c0-0.7,0.4-1,1.2-1.1l1-0.1c0-0.6-0.2-0.9-0.7-0.9c-0.4,0-0.8,0.1-1.1,0.4v-0.6c0.1-0.1,0.3-0.1,0.5-0.2s0.5-0.1,0.7-0.1c0.8,0,1.2,0.4,1.2,1.3L418.1,70.7L418.1,70.7z M417.6,69l-0.8,0.1c-0.3,0-0.5,0.1-0.6,0.2s-0.2,0.2-0.2,0.5c0,0.2,0,0.3,0.2,0.4c0.1,0.1,0.3,0.1,0.5,0.1c0.3,0,0.5-0.1,0.7-0.3c0.2-0.2,0.3-0.4,0.3-0.8V69H417.6z"/><path fill="#FFFFFF" d="M422.1,70.7h-0.6v-1.6h-1.8v1.6h-0.6v-3.5h0.6v1.5h1.8v-1.5h0.6V70.7z"/><path fill="#FFFFFF" d="M425.1,67.7h-1.4v3h-0.6v-3.5h1.9L425.1,67.7L425.1,67.7z"/><path fill="#FFFFFF" d="M428.1,70.7h-0.5v-3h-0.8c-0.1,1.1-0.2,1.8-0.5,2.3c-0.2,0.5-0.5,0.8-0.9,0.8c-0.1,0-0.2,0-0.3,0v-0.5c0.1,0,0.1,0,0.3,0c0.5,0,0.8-1,1-3.1h1.8C428.1,67.2,428.1,70.7,428.1,70.7z"/><path fill="#FFFFFF" d="M432.1,70.7h-0.5V68l-1.8,2.7h-0.6v-3.5h0.5v2.7l1.8-2.7h0.6V70.7L432.1,70.7z"/><path fill="#FFFFFF" d="M436.2,70.7h-0.5V68l-1.8,2.7h-0.6v-3.5h0.5v2.7l1.8-2.7h0.6V70.7L436.2,70.7z M435.9,65.5c0,0.1,0,0.3-0.1,0.4c0,0.1-0.1,0.2-0.2,0.3c-0.1,0.1-0.2,0.1-0.4,0.2c-0.1,0-0.3,0.1-0.5,0.1s-0.3,0-0.5-0.1c-0.1,0-0.3-0.1-0.4-0.2s-0.2-0.2-0.2-0.3c0-0.1-0.1-0.3-0.1-0.4h0.6c0,0.1,0,0.2,0,0.2c0,0.1,0,0.1,0.1,0.2s0.1,0.1,0.2,0.1s0.2,0,0.3,0s0.2,0,0.3,0c0.1,0,0.1-0.1,0.2-0.1c0,0,0.1-0.1,0.1-0.2s0-0.1,0-0.2H435.9L435.9,65.5z"/><path fill="#FFFFFF" d="M439.6,70.6c-0.3,0.1-0.6,0.2-0.9,0.2s-0.6-0.1-0.8-0.2c-0.2-0.1-0.5-0.4-0.6-0.6c-0.1-0.3-0.2-0.6-0.2-0.9c0-0.6,0.2-1,0.5-1.4s0.8-0.5,1.3-0.5c0.3,0,0.6,0,0.8,0.2V68c-0.3-0.2-0.5-0.3-0.8-0.3c-0.4,0-0.7,0.1-0.9,0.4c-0.2,0.2-0.3,0.6-0.3,1s0.1,0.8,0.3,1c0.2,0.2,0.5,0.4,0.8,0.4s0.6-0.1,0.8-0.3L439.6,70.6L439.6,70.6z"/><path fill="#FFFFFF" d="M443.3,70.7h-0.8L441,69l0,0v1.7h-0.6v-3.5h0.6v1.6l0,0l1.5-1.6h0.8l-1.6,1.7L443.3,70.7z"/><path fill="#FFFFFF" d="M446.8,70.7h-0.5V68l-1.8,2.7h-0.6v-3.5h0.5v2.7l1.8-2.7h0.6V70.7L446.8,70.7z"/><path fill="#FFFFFF" d="M450.8,70.7h-0.5V68l-1.8,2.7h-0.6v-3.5h0.5v2.7l1.8-2.7h0.6V70.7L450.8,70.7z M450.6,65.5c0,0.1,0,0.3-0.1,0.4c0,0.1-0.1,0.2-0.2,0.3c-0.1,0.1-0.2,0.1-0.4,0.2c-0.1,0-0.3,0.1-0.5,0.1s-0.3,0-0.5-0.1s-0.3-0.1-0.4-0.2s-0.2-0.2-0.2-0.3c0-0.1-0.1-0.3-0.1-0.4h0.6c0,0.1,0,0.2,0,0.2s0,0.1,0.1,0.2C449,66,449,66,449.1,66s0.2,0,0.3,0s0.2,0,0.3,0s0.1-0.1,0.2-0.1c0,0,0.1-0.1,0.1-0.2s0-0.1,0-0.2L450.6,65.5L450.6,65.5z"/><path fill="#FFFFFF" d="M418.8,76.7c0,0.3,0,0.7-0.2,0.9c-0.1,0.3-0.3,0.5-0.6,0.6c-0.2,0.1-0.5,0.2-0.8,0.2c-0.5,0-0.9-0.2-1.2-0.6c-0.3-0.4-0.4-0.9-0.4-1.6c0-1.4,0.3-2.3,1-2.6c0.1,0,0.3-0.1,0.4-0.1s0.3-0.1,0.5-0.1s0.3,0,0.5-0.1c0.1,0,0.3-0.1,0.4-0.1v0.5c-0.1,0-0.2,0.1-0.4,0.1c-0.1,0-0.3,0-0.5,0.1c-0.1,0-0.3,0-0.5,0.1c-0.1,0-0.3,0.1-0.4,0.1c-0.4,0.2-0.6,0.7-0.6,1.5l0,0c0.1-0.2,0.3-0.3,0.5-0.4s0.4-0.1,0.7-0.1c0.3,0,0.6,0.1,0.8,0.2c0.2,0.1,0.4,0.3,0.6,0.6C418.7,76.1,418.8,76.4,418.8,76.7z M418.2,76.8c0-0.4-0.1-0.7-0.3-0.9c-0.2-0.2-0.5-0.4-0.8-0.4c-0.5,0-0.8,0.2-1.1,0.7v0.3c0,0.5,0.1,0.8,0.3,1.1c0.2,0.3,0.5,0.4,0.8,0.4s0.6-0.1,0.8-0.3C418.1,77.4,418.2,77.1,418.2,76.8z"/><path fill="#FFFFFF" d="M422.4,76.8h-2.5c0,0.4,0.1,0.7,0.3,0.9c0.2,0.2,0.5,0.3,0.8,0.3s0.8-0.1,1.1-0.4v0.5c-0.3,0.2-0.7,0.3-1.2,0.3s-0.9-0.1-1.2-0.5c-0.3-0.4-0.4-0.8-0.4-1.3c0-0.3,0-0.7,0.2-0.9c0.1-0.3,0.3-0.5,0.6-0.7c0.2-0.1,0.5-0.2,0.8-0.2c0.5,0,0.8,0.1,1.1,0.4c0.2,0.3,0.4,0.7,0.4,1.2L422.4,76.8L422.4,76.8z M421.8,76.3c0-0.3-0.1-0.6-0.2-0.8c-0.1-0.2-0.4-0.3-0.7-0.3s-0.5,0.1-0.7,0.3c-0.2,0.2-0.3,0.4-0.3,0.8H421.8L421.8,76.3z"/><path fill="#FFFFFF" d="M425.5,77.5c0,0.3-0.1,0.6-0.4,0.8c-0.3,0.2-0.6,0.3-1,0.3c-0.5,0-0.8,0-1.1-0.2v-0.6c0.3,0.2,0.7,0.2,1.1,0.2c0.6,0,0.9-0.2,0.9-0.6s-0.3-0.6-1-0.6h-0.3v-0.5h0.3c0.6,0,0.9-0.2,0.9-0.6c0-0.1,0-0.3-0.2-0.4c-0.1-0.1-0.3-0.1-0.6-0.1c-0.3,0-0.7,0.1-1,0.2V75c0.4-0.1,0.8-0.2,1.1-0.2c0.8,0,1.3,0.3,1.3,0.9c0,0.2,0,0.4-0.2,0.5c-0.1,0.1-0.3,0.2-0.5,0.3l0,0c0.3,0,0.5,0.1,0.6,0.3C425.4,77.1,425.5,77.2,425.5,77.5z"/><path fill="#FFFFFF" d="M431.1,76.6c0,0.6-0.1,1.1-0.4,1.4s-0.7,0.5-1.2,0.5s-0.8-0.2-1-0.6l0,0V80h-0.6v-5.1h0.6v0.6l0,0c0.3-0.5,0.7-0.7,1.2-0.7c0.4,0,0.8,0.1,1,0.5C431,75.6,431.1,76,431.1,76.6z M430.5,76.5c0-0.4-0.1-0.7-0.3-0.9c-0.2-0.2-0.4-0.3-0.8-0.3c-0.3,0-0.6,0.1-0.8,0.3s-0.3,0.5-0.3,0.8V77c0,0.3,0.1,0.5,0.3,0.8c0.2,0.2,0.4,0.3,0.7,0.3c0.3,0,0.6-0.1,0.8-0.4C430.4,77.4,430.5,77,430.5,76.5z"/><path fill="#FFFFFF" d="M434.7,76.8h-2.5c0,0.4,0.1,0.7,0.3,0.9c0.2,0.2,0.5,0.3,0.8,0.3c0.4,0,0.8-0.1,1.1-0.4v0.5c-0.3,0.2-0.7,0.3-1.2,0.3s-0.9-0.1-1.2-0.5c-0.3-0.3-0.4-0.8-0.4-1.3c0-0.3,0-0.7,0.2-0.9c0.1-0.3,0.3-0.5,0.6-0.7c0.2-0.1,0.5-0.2,0.8-0.2c0.5,0,0.8,0.1,1.1,0.4s0.4,0.7,0.4,1.2L434.7,76.8L434.7,76.8z M434.1,76.3c0-0.3-0.1-0.6-0.2-0.8c-0.1-0.2-0.4-0.3-0.7-0.3c-0.3,0-0.5,0.1-0.7,0.3c-0.2,0.2-0.3,0.4-0.3,0.8H434.1L434.1,76.3z"/><path fill="#FFFFFF" d="M437.4,75.4H436v3h-0.6v-3.5h1.9L437.4,75.4L437.4,75.4z"/><path fill="#FFFFFF" d="M441.1,78.4h-0.5v-2.7l-1.8,2.7h-0.6v-3.5h0.5v2.7l1.8-2.7h0.6V78.4L441.1,78.4z"/><path fill="#FFFFFF" d="M444.5,78.3c-0.3,0.1-0.6,0.2-0.9,0.2s-0.6-0.1-0.8-0.2c-0.2-0.1-0.5-0.4-0.6-0.6c-0.1-0.3-0.2-0.6-0.2-0.9c0-0.6,0.2-1,0.5-1.4c0.3-0.3,0.8-0.5,1.3-0.5c0.3,0,0.6,0,0.8,0.2v0.6c-0.3-0.2-0.5-0.3-0.8-0.3c-0.4,0-0.7,0.1-0.9,0.4c-0.2,0.2-0.3,0.6-0.3,1s0.1,0.8,0.3,1c0.2,0.2,0.5,0.4,0.8,0.4s0.6-0.1,0.8-0.3L444.5,78.3L444.5,78.3z"/><path fill="#FFFFFF" d="M447.5,75.4h-1v3h-0.6v-3h-1v-0.5h2.7L447.5,75.4L447.5,75.4z"/><path fill="#FFFFFF" d="M451.4,76.6c0,0.6-0.1,1.1-0.4,1.4s-0.7,0.5-1.2,0.5s-0.8-0.2-1-0.6l0,0V80h-0.6v-5.1h0.6v0.6l0,0c0.3-0.5,0.7-0.7,1.2-0.7c0.4,0,0.8,0.1,1,0.5C451.3,75.6,451.4,76,451.4,76.6z M450.8,76.5c0-0.4-0.1-0.7-0.3-0.9c-0.2-0.2-0.4-0.3-0.8-0.3c-0.3,0-0.6,0.1-0.8,0.3s-0.3,0.5-0.3,0.8V77c0,0.3,0.1,0.5,0.3,0.8c0.2,0.2,0.4,0.3,0.7,0.3c0.3,0,0.6-0.1,0.8-0.4C450.7,77.4,450.8,77,450.8,76.5z"/><path fill="#FFFFFF" d="M454.6,78.4H454v-0.6l0,0c-0.2,0.4-0.6,0.6-1.1,0.6c-0.3,0-0.6-0.1-0.8-0.3c-0.2-0.2-0.3-0.4-0.3-0.8c0-0.7,0.4-1,1.2-1.1l1-0.1c0-0.6-0.2-0.9-0.7-0.9c-0.4,0-0.8,0.1-1.1,0.4V75c0.1-0.1,0.3-0.1,0.5-0.2s0.5-0.1,0.7-0.1c0.8,0,1.2,0.4,1.2,1.3L454.6,78.4L454.6,78.4z M454,76.6l-0.8,0.1c-0.3,0-0.5,0.1-0.6,0.2s-0.2,0.2-0.2,0.5c0,0.2,0,0.3,0.2,0.4c0.1,0.1,0.3,0.1,0.5,0.1c0.3,0,0.5-0.1,0.7-0.3c0.2-0.2,0.3-0.4,0.3-0.8v-0.2C454.1,76.6,454,76.6,454,76.6z"/><path fill="#FFFFFF" d="M459,79.7h-0.5v-1.3h-2.9v-3.5h0.6v3h1.8v-3h0.6v3h0.5L459,79.7L459,79.7z"/><path fill="#FFFFFF" d="M462.7,78.4h-0.5v-2.7l-1.8,2.7h-0.6v-3.5h0.5v2.7l1.8-2.7h0.6V78.4L462.7,78.4z"/><path fill="#FFFFFF" d="M466.7,78.4h-0.5v-2.7l-1.8,2.7h-0.6v-3.5h0.5v2.7l1.8-2.7h0.6V78.4L466.7,78.4z"/></g></svg>