<svg version="1.1" xmlns="http://www.w3.org/2000/svg" xmlns:xlink="http://www.w3.org/1999/xlink" x="0px" y="0px" viewBox="0 0 512 512" enable-background="new 0 0 512 512" xml:space="preserve"><rect id="XMLID_1_" fill="#34BC76" width="512" height="512"/><g><path fill="#FFFFFF" d="M329.1,279.7c3.6,0,7.2,0.7,10.6,2c3.4,1.4,6.3,3.4,8.9,6l27.5,27.5c2.6,2.6,4.6,5.6,6,8.9c1.4,3.4,2,6.8,2,10.6c0,3.6-0.7,7.2-2,10.6s-3.4,6.3-6,8.9c-4.8,4.8-9,9.1-13,12.8c-3.9,3.8-8,6.8-12.1,9.4s-8.9,4.4-13.8,5.8c-5.1,1.4-11.3,1.9-18.4,1.9c-10.4,0-21.1-1.7-32.1-5c-10.9-3.2-22-7.7-32.7-13.5c-10.9-5.8-21.5-12.6-32.1-20.5c-10.4-7.9-20.3-16.6-29.7-26c-9.2-9.4-17.9-19.3-25.8-29.7c-7.8-10.4-14.5-21.2-20.3-31.9c-5.6-10.9-10.1-21.7-13.3-32.6c-3.2-10.8-4.8-21.3-4.8-31.6c0-7.2,0.7-13.3,1.9-18.3c1.4-5.1,3.2-9.7,5.8-13.8c2.6-4.3,5.6-8.2,9.4-12.1c3.8-3.9,8-8.2,12.8-13c2.6-2.6,5.5-4.6,8.9-6s6.8-2,10.6-2c3.6,0,7.2,0.7,10.6,2s6.3,3.4,8.9,6l27.5,27.5c2.6,2.6,4.6,5.6,6,8.9c1.4,3.4,2,6.8,2,10.6c0,3.6-0.7,7-1.9,9.7c-1.2,2.9-2.7,5.5-4.6,7.9c-1.9,2.4-3.9,4.4-6.1,6.3s-4.3,3.8-6.1,5.6c-1.9,1.9-3.4,3.8-4.6,5.6s-1.9,3.9-1.9,6.1c0,3.2,1.2,5.8,3.4,8.2l68.9,69c2.2,2.2,4.9,3.4,8.2,3.4c2.2,0,4.3-0.7,6.1-1.9c1.9-1.2,3.8-2.7,5.6-4.6c1.9-1.9,3.8-3.9,5.6-6.1c1.9-2.2,4.1-4.3,6.3-6.1c2.4-1.9,4.9-3.4,7.8-4.6C322.1,280.3,325.3,279.7,329.1,279.7z M318.7,368.1c6,0,11.1-0.5,15-1.7c4.1-1.2,7.7-2.7,10.9-5c3.2-2,6.5-4.8,9.6-8s6.7-6.8,10.6-10.8c2.2-2.2,3.4-5,3.4-8.2c0-1.5-0.7-3.2-1.9-5.3c-1.2-2-2.7-4.3-4.6-6.5s-4.1-4.6-6.5-7s-4.8-4.6-7-6.8c-2.2-2-4.4-4.1-6.3-5.8c-1.9-1.7-3.4-3.2-4.6-4.3c-2.2-2.2-4.9-3.4-8.2-3.4c-2.2,0-4.1,0.7-6,1.9c-1.9,1.2-3.8,2.7-5.5,4.6c-1.9,1.9-3.8,3.9-5.6,6.1s-4.1,4.3-6.5,6.1c-2.4,1.9-4.9,3.4-7.8,4.6s-6.1,1.9-9.9,1.9s-7.2-0.7-10.6-2c-3.4-1.4-6.3-3.4-8.9-6l-68.9-69c-2.6-2.6-4.6-5.6-6-8.9c-1.4-3.4-2-6.8-2-10.6c0-3.6,0.7-7,1.9-9.7c1.2-2.9,2.7-5.5,4.6-7.9s3.9-4.4,6.1-6.5c2.2-1.9,4.3-3.9,6.1-5.6c1.9-1.9,3.4-3.6,4.6-5.5c1.2-1.9,1.9-3.8,1.9-6c0-3.2-1.2-6-3.4-8.2c-1-1-2.6-2.6-4.3-4.6c-1.9-1.9-3.8-4.1-5.8-6.3s-4.4-4.6-6.8-7s-4.6-4.4-7-6.5c-2.2-1.9-4.4-3.4-6.5-4.6c-2-1.2-3.8-1.9-5.3-1.9c-3.2,0-5.8,1.2-8.2,3.4c-3.9,3.9-7.5,7.5-10.7,10.6c-3.1,3.1-5.8,6.3-8,9.6c-2.2,3.2-3.9,6.8-4.9,10.9c-1.2,4.1-1.7,9.1-1.7,15c0,9.4,1.5,19,4.6,28.9s7.3,19.8,12.6,29.7c5.5,9.9,11.8,19.6,19.1,29.4c7.3,9.6,15.3,18.8,24,27.3s17.7,16.6,27.5,23.7c9.6,7.2,19.4,13.5,29.2,18.8c9.9,5.3,19.8,9.4,29.5,12.5C300.3,366.8,309.6,368.1,318.7,368.1z"/></g></svg>
