<svg version="1.1" xmlns="http://www.w3.org/2000/svg" xmlns:xlink="http://www.w3.org/1999/xlink" x="0px" y="0px" viewBox="0 0 512 512" enable-background="new 0 0 512 512" xml:space="preserve"><rect id="XMLID_1_" fill="#45668E" width="512" height="512"/><path fill="#FEFEFE" d="M364,305.7c0,12.6-2.4,23.9-7.1,33.6c-4.8,9.6-11.2,17.6-19.4,23.9c-9.7,7.5-20.2,13-31.6,16c-11.6,3.2-26,4.8-43.9,4.8H160V128h90.1c18.7,0,33,0.7,42.5,2.2c9.7,1.4,18.7,4.4,27.2,9c9.2,4.9,16,11.6,20.4,19.8c4.4,8.2,6.8,17.7,6.8,28.5c0,12.5-3.1,23.6-9.4,33.3c-6.1,9.7-14.8,16.9-25.8,21.5v1.4c15.8,3.4,28.2,10.1,37.7,20.3C359.2,274.3,363.8,288.3,364,305.7L364,305.7z M281.9,200.4c0-4.1-1-8.4-3.1-12.6c-2-4.3-5.3-7.5-9.9-9.4c-4.3-1.9-9.2-2.9-15-3.1c-5.8-0.2-14.3-0.3-25.8-0.3h-4.4v54.3h8.2c10.9,0,18.5-0.2,23-0.3c4.4-0.3,8.8-1.4,13.6-3.6c5.1-2.4,8.7-5.6,10.5-9.9c2-4.3,2.9-9.2,2.9-14.8h0V200.4z M298.2,304.6c0-8-1.5-14-4.8-18.6c-3.2-4.4-8-7.9-14.3-10.1c-3.9-1.5-9.2-2.4-16-2.6c-6.8-0.2-16-0.3-27.4-0.3h-11.7v64h3.4c16.7,0,28.2-0.2,34.5-0.3c6.5-0.3,12.9-1.7,19.5-4.6c5.8-2.6,10-6.1,12.8-11.1C296.9,316.2,298.2,310.8,298.2,304.6z"/></svg>
