<svg version="1.1" xmlns="http://www.w3.org/2000/svg" xmlns:xlink="http://www.w3.org/1999/xlink" x="0px" y="0px" width="417px" height="417px" viewBox="0 0 417 417" enable-background="new 0 0 417 417" xml:space="preserve"><path fill="#C1C1C3" d="M291,313.7c-3.7,0.3-7.8-1.5-7.9-5.7c-0.1-5,5.8-5.2,9.3-4.2c0.8,0.2,1.2-1,0.3-1.3c-4.2-1.2-10.4-0.6-10.9,4.9c-0.5,5.2,4.5,7.9,9.1,7.6C291.8,315,291.8,313.7,291,313.7L291,313.7z"/><path fill="#C1C1C3" d="M292.9,302.8c-0.8-2.8-2.2-5.3-0.8-8.4c0.9-2,3.4-3.1,5.4-3.7c3.8-1.1,8.4,0.2,11.3,2.8c0.6,0.5,1.6-0.4,0.9-0.9c-3.7-3.2-8.7-4.2-13.4-2.9c-2.3,0.6-4.1,2.2-5.4,4.1c-2,2.9-0.1,6.5,0.7,9.4C291.9,303.9,293.2,303.6,292.9,302.8L292.9,302.8z"/><path fill="#C1C1C3" d="M310.1,293.1c-1.3-4,4.6-6.7,7.6-7.6c4.4-1.4,9.8-0.9,11.5,4c0.3,0.8,1.5,0.5,1.3-0.3c-2-5.7-7.9-6.4-13.1-5c-3.7,1-10,4.5-8.5,9.2C309.1,294.3,310.4,293.9,310.1,293.1L310.1,293.1z"/><path fill="#C1C1C3" d="M330.3,289.6c4.1-3.4,10.1-5.3,15.3-4.1c4,0.9,12.2,4.7,6.7,9.2c-0.7,0.5,0.3,1.4,0.9,0.9c5.1-4.1,0.8-8.1-3.7-10.2c-6.7-3-14.6-1.4-20.1,3.2C328.7,289.2,329.7,290.1,330.3,289.6L330.3,289.6z"/><path fill="#C1C1C3" d="M353.2,296.3c3.6-0.6,8.5-1.2,11,2.1c2.7,3.6-3.8,6.9-6.4,7.6c-0.8,0.2-0.5,1.5,0.3,1.3c3.5-1,8.9-4,7.7-8.4c-1.4-5.2-9.1-4.4-13-3.8C352,295.1,352.4,296.4,353.2,296.3L353.2,296.3z"/><path fill="#C1C1C3" d="M290.1,314.2c-1.1,3.5,5.2,6.2,7.6,6.9c4.4,1.2,9.9,0.7,13-2.9c0.6-0.6-0.4-1.6-0.9-0.9c-2.4,2.7-5.8,3.2-9.1,3c-1.5-0.1-2.9-0.5-4.4-1c-1.4-0.5-5.6-2.8-5-4.7C291.6,313.8,290.4,313.4,290.1,314.2L290.1,314.2z"/><path fill="#C1C1C3" d="M309,318.2c5.7,4.6,23.8,7.8,25.3-2.6c0.1-0.8-1.1-1.2-1.3-0.3c-1.3,9.2-18.1,6.1-23.2,2.1C309.3,316.8,308.4,317.7,309,318.2L309,318.2z"/><path fill="#C1C1C3" d="M332.9,316c9.8,5.1,27.4,6.8,25.7-8.9c-0.1-0.8-1.4-0.8-1.3,0c1.5,14.7-15,12.3-23.8,7.8C332.8,314.5,332.1,315.6,332.9,316L332.9,316z"/><path fill="#C1C1C3" d="M98,303.8c6.9,7.6,10.7,17,13.9,26.6c0.3,0.8,1.5,0.5,1.3-0.3c-3.3-9.8-7.2-19.4-14.2-27.1C98.4,302.2,97.5,303.1,98,303.8L98,303.8z"/><path fill="#C1C1C3" d="M113.6,295.1c1.6,4.3,4,8.3,5.9,12.5c2.2,4.9,4.8,9.3,8.6,13c0.6,0.6,1.5-0.3,0.9-0.9c-3.8-3.7-6.2-8-8.4-12.7c-1.8-4-4.2-8-5.8-12.2C114.6,294,113.3,294.3,113.6,295.1L113.6,295.1z"/><path fill="#C1C1C3" d="M99.2,303.5c-3.1-3.2,4.6-5.8,6.3-6.6c2.7-1.2,8.1-4.3,9,0.4c0.2,0.8,1.4,0.5,1.3-0.3c-1.1-5.6-6.8-3.1-10.3-1.5c-3.1,1.4-11.5,4.4-7.2,8.9C98.9,305,99.8,304.1,99.2,303.5L99.2,303.5z"/><path fill="#C1C1C3" d="M111.8,330.6c2.8,4.4,9.2-1.3,12-3c2.7-1.7,10.6-5.4,5-8.7c-0.7-0.4-1.4,0.7-0.7,1.1c4,2.3-3.4,5.5-5.3,6.6c-2,1.2-7.8,6.4-9.9,3.3C112.4,329.2,111.3,329.9,111.8,330.6L111.8,330.6z"/><path fill="#C1C1C3" d="M98.5,299.3c-0.4-1-1.1-2.2-0.2-3.2c0.7-0.8,2.1-1.2,3-1.7c0.3-0.1,0.4-0.5,0.3-0.7c-0.5-1.7-1.9-3-2.9-4.5c-1.6-2.5,3.2-4.1,4.7-1.9c0.8,1.2,0.9,2.8,0.9,4.1c0,0.5,0.5,0.8,1,0.6c2.2-1.2,4.7-1.5,4.6,1.9c0,0.8,1.3,0.8,1.3,0c0.1-4.3-3.3-4.8-6.6-3c0.3,0.2,0.7,0.4,1,0.6c-0.1-2.3-0.5-5.2-2.8-6.3c-2-1-5.3,0.5-5.8,2.6c-0.2,0.9,0.4,1.9,0.8,2.7c0.7,1.1,3.1,2.9,1.4,3.7c-2.7,1.3-3.2,2.9-2.1,5.7C97.5,300.5,98.8,300.1,98.5,299.3L98.5,299.3z"/><path fill="#C1C1C3" d="M101.4,306.7c1.4-0.5,2.7-1.2,3.9-1.9c0.7-0.4,0.1-1.5-0.7-1.1c-1.2,0.6-2.4,1.3-3.6,1.8C100.3,305.7,100.6,307,101.4,306.7L101.4,306.7z"/><path fill="#C1C1C3" d="M103.4,309.5c1.1-0.3,2.1-0.8,3.1-1.2c0.8-0.3,0.4-1.6-0.3-1.3c-1,0.4-2,0.9-3.1,1.2C102.2,308.5,102.6,309.7,103.4,309.5L103.4,309.5z"/><path fill="#C1C1C3" d="M105.1,312.7c1-0.3,1.9-0.7,2.8-1.2c0.7-0.4,0.1-1.5-0.7-1.1c-0.8,0.4-1.6,0.8-2.4,1.1C103.9,311.6,104.3,312.9,105.1,312.7L105.1,312.7z"/><path fill="#C1C1C3" d="M107,316.5c0.9-0.4,1.8-0.9,2.7-1.4c0.7-0.4,0.1-1.5-0.7-1.1c-0.9,0.5-1.8,1-2.7,1.4C105.6,315.7,106.3,316.8,107,316.5L107,316.5z"/><path fill="#C1C1C3" d="M109.6,319.6c1.1-0.5,2.3-0.9,3.4-1.6c0.7-0.4,0.1-1.6-0.7-1.1c-1.1,0.6-2.2,1.1-3.4,1.6C108.2,318.8,108.9,320,109.6,319.6L109.6,319.6z"/><path fill="#C1C1C3" d="M110.7,323.5c0.9-0.6,2-1,3.1-1.4c0.8-0.3,0.4-1.5-0.3-1.3c-1.2,0.4-2.4,0.8-3.4,1.5C109.3,322.9,110,324,110.7,323.5L110.7,323.5z"/><path fill="#C1C1C3" d="M112,327.4c0.9-0.4,1.8-0.7,2.7-1c0.8-0.2,0.5-1.5-0.3-1.3c-1,0.3-2,0.7-3,1.1C110.6,326.7,111.2,327.8,112,327.4L112,327.4z"/><path fill="#C1C1C3" d="M98.6,303.5c4.5-3.8,10.5-6.8,16.4-7.4c0.8-0.1,0.8-1.4,0-1.3c-6.2,0.7-12.5,3.7-17.3,7.8C97,303.1,97.9,304,98.6,303.5L98.6,303.5z"/><path fill="#C1C1C3" d="M99,301.8c2.1-2.1,4.6-3.3,7.3-4.4c2.1-0.8,5.1-2.3,7.4-2.3c0.8,0,0.8-1.3,0-1.3c-2.7,0-6,1.7-8.6,2.7c-2.6,1-5,2.4-7,4.4C97.4,301.5,98.4,302.4,99,301.8L99,301.8z"/><path fill="#C1C1C3" d="M302.3,109.8c-3.6-0.2-5.6,3.4-4.8,6.6c0.9,3.8,6.2,4.8,8.9,2.3c2.4-2.1,3.4-6.5,0.4-8.5c-2.6-1.8-6.7-0.4-8.6,1.8c-0.5,0.6,0.4,1.6,0.9,0.9c1.4-1.6,3.6-2.5,5.7-2.1c2.9,0.5,2.9,3.7,1.6,5.8c-1.7,2.8-6.4,2.9-7.7-0.2c-1-2.5,0.6-5.5,3.4-5.3C303.1,111.2,303.1,109.9,302.3,109.8L302.3,109.8z"/><path fill="#C1C1C3" d="M308.3,114.4c-0.2,0-0.4,0-0.6,0c-0.8,0-0.8,1.3,0,1.3c5.4,0,10.8-0.4,16.2-0.5c0.8,0,0.8-1.3,0-1.3c-5.4,0-10.8,0.5-16.2,0.5c-0.8,0-0.8,1.3,0,1.3c0.2,0,0.4,0,0.6,0C309.2,115.7,309.2,114.4,308.3,114.4L308.3,114.4z"/><path fill="#C1C1C3" d="M328.1,109.8c-4-0.2-7.2,4.2-4.1,7.4c2.4,2.6,7.2,2.8,10,0.7c2.7-2.2,2.1-5.6-0.4-7.7c-2.7-2.3-6.5-2-8.8,0.7c-0.5,0.7,0.4,1.6,0.9,0.9c1.6-2.1,4-2.4,6.3-1.1c1.8,1,3.2,3.2,2,5.2c-1.4,2.4-4.7,2.4-7,1.6c-1.3-0.4-2.5-1.3-3-2.6c-0.7-2.3,2.2-3.9,4.1-3.8C328.9,111.2,328.9,109.9,328.1,109.8L328.1,109.8z"/><path fill="#C1C1C3" d="M296,113.5c-3.8-0.3-5.7-2.8-5.1-6.8c0.3-2.3,3.7-2.2,5.3-2.4c2.7-0.3,4.6-1.2,6.8-2.8c3.3-2.4,5.6-4.7,9.7-5.6c5.3-1.1,10.3-2.4,13.8,3c3,4.7,5.3,6.2,11,5.8c3.9-0.2,9.4-1.4,8.6,4.3c-0.6,4.5-9.9,2.3-13.3,2.9c-0.8,0.1-0.5,1.4,0.3,1.3c4.1-0.7,10.8,1.7,13.7-2.1c1.3-1.7,1.3-5.8-0.5-7.2c-2.7-2-8.6-0.4-11.7-0.4c-6.6,0.1-6.7-8.7-12.9-9.8c-3.6-0.7-10,0.3-13.2,2c-2.7,1.5-4.9,3.6-7.4,5.5c-2.4,1.8-5.3,1.8-8.2,2.3c-3.7,0.6-3.8,3.8-3.4,6.9c0.5,3.6,3.1,4.2,6.3,4.5C296.9,114.8,296.9,113.5,296,113.5L296,113.5z"/><path fill="#C1C1C3" d="M298.7,103.9c5.5-0.7,10.9,0,16.5,0.7c6.1,0.8,12.3,0,18.3-0.2c0.8,0,0.8-1.3,0-1.3c-5.5,0.2-11,0.7-16.5,0.4c-6.2-0.3-12.1-1.7-18.3-0.8C297.9,102.7,297.9,104,298.7,103.9L298.7,103.9z"/><path fill="#C1C1C3" d="M318.5,94.3c-5.4,4.5-5.1,14.8-5.8,21.2c-0.1,0.8,1.2,0.8,1.3,0c0.7-5.9,0.4-16.1,5.4-20.2C320,94.7,319.1,93.8,318.5,94.3L318.5,94.3z"/><path fill="#C1C1C3" d="M302.3,113.5c-0.7,0-1.4,0.1-1.7,0.8c-0.2,0.5,0.1,1.1,0.5,1.4c0.5,0.4,1.1,0.6,1.7,0.4c0.8-0.2,1.3-1,1.5-1.8c0.1-0.3-0.1-0.6-0.3-0.7c-0.9-0.5-1.7-0.4-2.5,0.2c-0.7,0.5,0,1.6,0.7,1.1c0.4-0.3,0.7-0.5,1.2-0.2c-0.1-0.2-0.2-0.5-0.3-0.7c-0.1,0.4-0.3,0.7-0.6,0.9c-0.1,0.1-0.3,0-0.5-0.1c0,0-0.2-0.2-0.1-0.1c0,0-0.1-0.2,0,0c-0.1-0.1,0,0.1,0,0c0,0.1,0,0.1-0.1,0.2c-0.1,0.1,0,0,0,0c0.2-0.1,0.4,0,0.6,0C303.1,114.8,303.1,113.5,302.3,113.5L302.3,113.5z"/><path fill="#C1C1C3" d="M328.7,114.6C328.8,114.6,328.8,114.6,328.7,114.6c0.4,0,0.8-0.3,0.7-0.7c0-0.4-0.2-0.5-0.5-0.7c-0.6-0.6-1.5,0.3-0.9,0.9c0.4,0.4,0.8,0.4,1.3,0.4c0.8,0,0.8-1.3,0-1.3c-0.1,0-0.3,0-0.4,0c-0.3,0.3-0.6,0.6-0.9,0.9c0.1,0.1,0.3,0.2,0.4,0.3c-0.1-0.2-0.2-0.4-0.3-0.6c0,0,0,0,0,0c0.2-0.2,0.4-0.4,0.7-0.7c0,0-0.1,0-0.1,0C327.9,113.3,327.9,114.6,328.7,114.6L328.7,114.6z"/><path fill="#C1C1C3" d="M328.5,113.9c0,0.7,0.4,1.1,1.1,1.1c0.8,0.1,0.8-1.2,0-1.3c0.2,0.3,0.3,0.4,0.2,0.2C329.8,113.1,328.5,113.1,328.5,113.9L328.5,113.9z"/><rect fill="none" width="417" height="417"/><path fill="#C1C1C3" d="M107.2,88.8c-0.6,1.8-2.2,3.3-3,5.1c-0.9,1.8-1.7,3.7-2.6,5.4c-0.3,0.6,0.6,1.2,0.9,0.6c1.1-2,2-4,2.9-6.1c0.8-1.7,2.2-3,2.8-4.7C108.4,88.4,107.4,88.1,107.2,88.8L107.2,88.8z"/><path fill="#C1C1C3" d="M102,99.2c-3.6,0.5-7.1,1-10.8,1.3c-0.7,0-0.7,1.1,0,1.1c3.8-0.3,7.3-0.8,11.1-1.3C103,100.1,102.7,99.1,102,99.2L102,99.2z"/><path fill="#C1C1C3" d="M91.1,101.3c-0.2,1.2,1.6,2.3,2.5,3c2,1.6,4.2,3,5.6,5.3c0.4,0.6,1.3,0,0.9-0.6c-1.2-1.9-2.8-3.3-4.6-4.6c-0.5-0.4-3.4-2.3-3.4-2.8C92.3,100.9,91.2,100.6,91.1,101.3L91.1,101.3z"/><path fill="#C1C1C3" d="M99,109.4c-0.2,3.7-0.5,7.7-1.7,11.3c-0.2,0.7,0.8,1,1.1,0.3c1.2-3.6,1.5-7.8,1.7-11.6C100.1,108.7,99,108.7,99,109.4L99,109.4z"/><path fill="#C1C1C3" d="M98,121.3c1.9-0.9,3.8-1.7,5.6-2.7c1.6-0.9,3.1-2.1,4.7-3c0.6-0.4,0.1-1.3-0.6-0.9c-1.6,0.9-3.1,2.1-4.7,3c-1.8,1-3.8,1.8-5.6,2.7C96.8,120.7,97.3,121.6,98,121.3L98,121.3z"/><path fill="#C1C1C3" d="M107.4,115.9c3.5,2.1,7.6,3.2,11.1,5.4c0.6,0.4,1.2-0.6,0.6-0.9c-3.5-2.2-7.6-3.2-11.1-5.4C107.4,114.6,106.8,115.5,107.4,115.9L107.4,115.9z"/><path fill="#C1C1C3" d="M115.8,109.5c0.1,3.9,1.3,7.6,2.2,11.3c0.2,0.7,1.2,0.4,1.1-0.3c-0.9-3.7-2.1-7.3-2.2-11.1C116.9,108.8,115.8,108.8,115.8,109.5L115.8,109.5z"/><path fill="#C1C1C3" d="M116.6,109.8c1-1.7,3-2.6,4.4-4c0.9-0.9,1.8-1.8,2.7-2.7c0.7-0.6,1.3-0.9,1.8-1.6c0.4-0.6-0.6-1.1-0.9-0.6c-0.6,0.8-1.8,1.6-2.6,2.3c-0.9,0.8-1.7,1.7-2.6,2.6c-1.3,1.2-2.9,1.9-3.8,3.5C115.3,109.8,116.2,110.4,116.6,109.8L116.6,109.8z"/><path fill="#C1C1C3" d="M124.9,100.5c-2.2,0-4.3,0-6.4-0.5c-1.7-0.4-3.3-0.9-5.1-1.1c-0.7-0.1-0.7,1,0,1.1c2.2,0.3,4.3,1.1,6.4,1.4c1.7,0.3,3.4,0.2,5,0.2C125.6,101.6,125.6,100.5,124.9,100.5L124.9,100.5z"/><path fill="#C1C1C3" d="M107.2,89.1c0.9,4,4.1,7.3,5.8,10.9c0.3,0.6,1.3,0.1,0.9-0.6c-1.7-3.5-4.9-6.8-5.7-10.7C108.1,88.1,107,88.4,107.2,89.1L107.2,89.1z"/><path fill="#C1C1C3" d="M106.8,91c0.8,2.1,0.9,4.3,1,6.5c0,0.7,1.1,0.7,1.1,0c0-2-0.3-3.9-0.6-5.9c-0.1-0.6-1.1-0.5-1.1,0.1c0.2,2.1,1,4,1.8,6c0.2,0.5,1.1,0.3,1-0.3c-0.2-1.6-0.8-3-1.2-4.6c-0.3,0.1-0.7,0.3-1,0.4c0.9,2,2,3.9,3,5.9c0.3,0.6,1.2,0.2,1-0.4c-0.5-1.7-1.8-3-2-4.7c-0.3,0.1-0.6,0.3-0.9,0.4c1.5,1.5,2.7,3.5,3.1,5.6c0.1,0.6,1.2,0.5,1.1-0.1c-0.2-1.5-0.9-2.8-1.6-4.1c-0.3-0.6-1.2-0.2-1,0.4c0.3,1,0.7,1.9,0.9,2.9c0.2-0.2,0.5-0.5,0.7-0.7c-1.5-0.6-1.9-3.1-2.3-4.4c-0.1-0.6-1.1-0.5-1.1,0.1c0,1.6,0.2,3.1,0.3,4.7c0.4,0,0.7-0.1,1.1-0.1c-0.2-1.3-0.6-2.6-0.8-3.8c-0.1-0.7-1.2-0.4-1.1,0.3c0.3,1.3,0.6,2.5,0.8,3.8c0.1,0.6,1.1,0.5,1.1-0.1c0-1.6-0.2-3.1-0.3-4.7c-0.4,0-0.7,0.1-1.1,0.1c0.5,1.9,1,4.5,3,5.2c0.4,0.2,0.8-0.3,0.7-0.7c-0.2-1-0.6-1.9-0.9-2.9c-0.3,0.1-0.7,0.3-1,0.4c0.6,1.2,1.3,2.2,1.5,3.6c0.4,0,0.7-0.1,1.1-0.1c-0.5-2.3-1.7-4.5-3.4-6.1c-0.3-0.3-1-0.1-0.9,0.4c0.2,1.9,1.6,3.2,2,5c0.3-0.1,0.7-0.3,1-0.4c-1-2-2.1-3.9-3-5.9c-0.3-0.6-1.2-0.2-1,0.4c0.4,1.4,1,2.8,1.1,4.3c0.3-0.1,0.7-0.2,1-0.3c-0.8-1.8-1.5-3.5-1.7-5.4c-0.4,0-0.7,0.1-1.1,0.1c0.3,1.9,0.6,3.7,0.6,5.6c0.4,0,0.7,0,1.1,0c-0.1-2.3-0.2-4.6-1-6.8C107.6,90,106.6,90.3,106.8,91L106.8,91z"/><path fill="#C1C1C3" d="M107.6,92.3c-0.4,1.8,0.2,3.6-0.4,5.4c0.4,0,0.7,0,1.1,0c-0.2-1-0.2-2.1-0.1-3.1c0-0.7-1.1-0.7-1.1,0c0,1.2-0.1,2.3,0.2,3.4c0.1,0.5,0.9,0.5,1.1,0c0.5-1.8,0-3.6,0.4-5.4C108.8,91.9,107.8,91.6,107.6,92.3L107.6,92.3z"/><path fill="#C1C1C3" d="M108.2,92.4c0-0.3,0-0.6-0.1-0.9c-0.1-0.5-0.7-0.5-1-0.1c-1.1,1.5-0.9,3.4-1.5,5.1c0.4,0,0.7,0.1,1.1,0.1c0-1.1,0.2-2.1,0.4-3.1c0.1-0.7-0.9-1-1.1-0.3c-0.2,1.1-0.4,2.3-0.4,3.4c0,0.6,0.9,0.7,1.1,0.1c0.5-1.6,0.4-3.5,1.4-4.9c-0.3,0-0.7-0.1-1-0.1c0.1,0.2,0.1,0.4,0,0.6C107,93.1,108.1,93.1,108.2,92.4L108.2,92.4z"/><path fill="#C1C1C3" d="M106.4,91.6c0.3,1.3-1.1,3.9-1.8,5c0.3,0.1,0.7,0.2,1,0.3c-0.2-1.7,0.9-3.4,1.4-5c0.2-0.6-0.7-0.9-1-0.4c-1.3,1.8-1.6,4.1-2.5,6.1c0.3,0.1,0.7,0.3,1,0.4c0.3-1.5,1.3-2.6,1.6-4.1c0.1-0.4-0.4-0.9-0.8-0.6c-0.7,0.5-1,1.1-1.3,1.8c-0.6,1.5-1.1,3.1-1.6,4.7c-0.2,0.6,0.7,0.9,1,0.4c1.4-1.8,2.7-3.8,3.1-6.1c0.1-0.7-0.8-1-1.1-0.3c-0.6,1.9-1.5,4.5-1.4,6.6c0,0.5,0.6,0.7,0.9,0.4c1.7-1.4,2.3-4,2.6-6.1c-0.4,0-0.7-0.1-1.1-0.1c-0.2,2.3-0.8,4.4-1.4,6.6c-0.2,0.7,0.8,1,1.1,0.3c0.4-1.1,0.6-2.3,0.8-3.5c0.1-0.7-1-1-1.1-0.3c-0.2,1.2-0.4,2.3-0.8,3.5c0.4,0.1,0.7,0.2,1.1,0.3c0.7-2.3,1.2-4.5,1.4-6.9c0.1-0.6-1-0.8-1.1-0.1c-0.3,1.9-0.7,4.3-2.3,5.6c0.3,0.1,0.6,0.3,0.9,0.4c-0.1-1.9,0.8-4.5,1.4-6.3c-0.4-0.1-0.7-0.2-1.1-0.3c-0.4,2.2-1.7,4.1-3,5.9c0.3,0.1,0.7,0.3,1,0.4c0.3-0.9,0.6-1.8,0.9-2.7c0.4-0.9,0.6-2.5,1.4-3.1c-0.3-0.2-0.5-0.4-0.8-0.6c-0.3,1.5-1.3,2.6-1.6,4.1c-0.1,0.6,0.7,1,1,0.4c0.9-2,1.2-4.3,2.5-6.1c-0.3-0.1-0.7-0.3-1-0.4c-0.5,1.7-1.6,3.4-1.4,5.2c0.1,0.5,0.7,0.8,1,0.3c0.9-1.4,2.3-4.1,1.9-5.9C107.3,90.6,106.2,90.9,106.4,91.6L106.4,91.6z"/><path fill="#C1C1C3" d="M107.2,94.1c0-0.1,0-0.1,0.1-0.2c-0.4,0-0.7-0.1-1.1-0.1c0.1,2.1,0.2,4.2-0.1,6.3c-0.1,0.7,0.8,1,1.1,0.3c0.6-1.4,0.9-2.9,1.1-4.4c0.2-1,0.4-2-0.1-2.9c-0.2-0.4-0.7-0.3-0.9,0c-1.3,1.9-0.2,4.3-0.7,6.3c0.4,0,0.7,0.1,1.1,0.1c0-1.9,0.3-3.8,0.4-5.8c0-0.4-0.5-0.7-0.8-0.5c-2,1.4-2.1,4.9-2.8,7.1c0.3-0.1,0.6-0.2,0.9-0.2c0,0.1,0.1,0.1,0.1,0.2c0-0.7-1.1-0.7-1.1,0c0,0.2,0.1,0.4,0.2,0.6c0.3,0.3,0.8,0.1,0.9-0.2c0.4-1.1,0.6-2.2,0.9-3.4c0.3-1,0.6-2.4,1.4-3.1c-0.3-0.2-0.6-0.3-0.8-0.5c0,1.9-0.4,3.8-0.4,5.8c0,0.6,1,0.8,1.1,0.1c0.4-1.9-0.6-4.4,0.5-6.1c-0.3,0-0.6,0-0.9,0c0.4,0.7,0,1.8-0.1,2.5c-0.2,1.3-0.6,2.7-1.1,3.9c0.4,0.1,0.7,0.2,1.1,0.3c0.3-2.2,0.3-4.4,0.2-6.6c0-0.6-0.9-0.8-1.1-0.1c0,0.1,0,0.1-0.1,0.2C105.9,94.5,107,94.8,107.2,94.1L107.2,94.1z"/><path fill="#C1C1C3" d="M102.1,102.4c-0.3,1.3-0.4,2.6-0.5,3.9c4.4,0,8.8,0,13.2,0c0-1.4,0-2.9-0.5-4.3c-0.8-2.8-3.4-4.8-6.4-4.8c-1.2,0-2.3,0.3-3.3,0.9c-1.6,1-2.3,2.3-3,3.9c-0.5,1.1-0.4,2.4-0.4,3.6c0.1,3.6,2.9,6.6,6.6,6.6c3.6,0,6.6-3,6.6-6.6c0-0.2,0-0.5,0-0.7c0-3.6-3-6.6-6.6-6.6c-3.7,0-6.5,3-6.6,6.6c0,1-0.2,2-0.2,3c0.6-1.6,1.3-3.1,1.9-4.7c-1.4,1.8-2.1,3.2-2.3,5.5c3.3-1.9,6.6-3.8,9.9-5.7c-0.2-0.1-0.3-0.2-0.5-0.3c0.4,0.3,0.9,0.7,1.3,1c0,0-0.1-0.1-0.1-0.1c0.3,0.4,0.7,0.9,1,1.3c0-0.1-0.1-0.1-0.1-0.2c0.2,0.5,0.4,1,0.7,1.6c0-0.1,0-0.2-0.1-0.2c-0.6-2.8-3.5-4.8-6.4-4.8c-1.7,0-3.4,0.7-4.7,1.9c-1.3,1.3-1.8,2.9-1.9,4.7c-0.1,1.3,0.4,2.8,1.1,3.9c1.3,2,3.3,3.3,5.7,3.3c1.2,0,2.3-0.3,3.3-0.9c1-0.6,1.8-1.4,2.4-2.4c0-0.1,0.1-0.1,0.1-0.2c-0.3,0.4-0.7,0.9-1,1.3c0.1-0.1,0.2-0.2,0.3-0.3c-0.4,0.3-0.9,0.7-1.3,1c0.3-0.2,0.6-0.3,0.8-0.4c-0.5,0.2-1,0.4-1.6,0.7c1.8-0.8,3.1-1.3,4.6-2.6c2.1-1.8,2.6-5.7,1-8c0-0.1-0.1-0.1-0.1-0.2c0.2,0.5,0.4,1,0.7,1.6c0-0.1,0-0.1,0-0.2c0.1,0.6,0.2,1.2,0.2,1.8c0-0.1,0-0.1,0-0.2c-0.1,0.6-0.2,1.2-0.2,1.8c0-0.1,0.1-0.3,0.1-0.4c-0.2,0.5-0.4,1-0.7,1.6c0.3-0.7,0.7-1.4,0.8-2.1c0.3-1.9,0.3-3.8-0.8-5.4c-1-1.5-2.2-2.5-3.9-3c-1.5-0.4-3.7-0.3-5.1,0.7c-0.1,0.1-0.2,0.1-0.3,0.2c-1.5,0.7-2.6,2.4-3,3.9c-0.5,1.7-0.2,3.6,0.7,5.1c0.9,1.5,2.3,2.6,3.9,3c1.9,0.5,3.4,0.1,5.1-0.7c0.1,0,0.2-0.1,0.3-0.2c-3-0.8-6-1.6-9-2.4c0,0.1,0.1,0.1,0.1,0.2c-0.2-0.5-0.4-1-0.7-1.6c0,0.1,0,0.1,0,0.2c0-1.2,0-2.3,0-3.5c0,0.1,0,0.2-0.1,0.3c0.2-0.5,0.4-1,0.7-1.6c-0.7,1.5-1,2.2-1.1,3.9c-0.1,1.3,0.4,2.9,1.1,3.9c0.3-2.7,0.7-5.3,1-8c-0.1,0-0.1,0.1-0.2,0.1c0.4-0.3,0.9-0.7,1.3-1c-0.3,0.2-0.5,0.3-0.8,0.5c0.5-0.2,1-0.4,1.6-0.7c-0.9,0.4-1.8,0.7-2.7,1.2c-1.4,0.7-2.3,1.8-3.2,3.1c3.8,0,7.6,0,11.4,0c0-0.1-0.1-0.1-0.1-0.2c0.2,0.5,0.4,1,0.7,1.6c0,0,0-0.1-0.1-0.1c0.1,0.6,0.2,1.2,0.2,1.7c0-0.1,0-0.2,0-0.2c-4.3,0.6-8.6,1.2-12.9,1.8c0.5,2.2,2,3.7,3.8,4.8c2,1.2,4.7,1.2,6.6,0c2.1-1.3,3.1-3.3,3.3-5.7c0-0.1,0-0.2,0-0.2c-0.1,0.6-0.2,1.2-0.2,1.8c0-0.1,0-0.1,0.1-0.2c-0.2,0.5-0.4,1-0.7,1.6c0-0.1,0.1-0.1,0.1-0.2c-0.3,0.4-0.7,0.9-1,1.3c0.9-1,1.5-1.8,1.8-3.1c0.3-0.9,0.2-1.6,0.2-2.5c0-0.7,0.1-1.5,0.2-2.2c-4.4,0-8.8,0-13.2,0c0,0.2,0,0.5,0,0.7c4.4,0,8.8,0,13.2,0c0-0.5,0-0.9,0-1.4c-0.1,0.6-0.2,1.2-0.2,1.7c0-0.2,0.1-0.3,0.2-0.5c-4.2,0-8.5,0-12.7,0c0.1,0.2,0.1,0.4,0.1,0.6c-0.1-0.6-0.2-1.2-0.2-1.8c0.1,0.6,0.1,1.3,0.1,1.9c0,3.6,3,6.6,6.6,6.6c3.6,0,6.5-3,6.6-6.6c0-0.5,0-1,0.1-1.5c-0.1,0.6-0.2,1.2-0.2,1.8c0-0.2,0.1-0.5,0.1-0.7c0.8-3.5-1-7.1-4.6-8.1C106.9,96.9,102.9,98.9,102.1,102.4L102.1,102.4z"/><path fill="#C1C1C3" d="M100.6,101c-0.4,0.5-0.7,1-1,1.5c-1.2,2.1,1.7,4.5,3.4,2.7c0.4-0.5,0.7-0.9,1.1-1.4c0.9-1.6-0.3-3.1-1.9-3.3c-2-0.2-4.5,0.4-6.5,0.5c-2.8,0.2-2.8,4.6,0,4.4c1.9-0.1,3.8-0.5,5.7-0.7c-0.5-1.3-1-2.5-1.6-3.7c-0.6,0.6-1.4,0.9-2.3,1.1c-2.2,0.5-2,3.6,0,4.2c1.1,0.4,1.9,1.1,2.9,1.7c0.7-1.3,1.5-2.5,2.2-3.8c-0.9-0.5-1.8-0.9-2.9-1.2c-2.1-0.5-3.8,2.1-2.1,3.7c2.2,2.1,2.1,3.9,1.3,6.7c-0.4,1.6-0.6,3,0.1,4.4c0.4,0.9,1.6,1.3,2.5,1c1.1-0.3,1.7-0.9,2.5-1.7c2.1-2.2,4-2.5,6.6-1c0.4-1.4,0.7-2.7,1.1-4.1c-0.6-0.1-1.3-0.2-1.9-0.4c-2.8-0.7-3.9,3.6-1.2,4.2c2,0.5,3.6,1.8,5.5,2.6c1.8,0.8,3.6-0.5,3.2-2.5c-0.2-1-2.3-4.4-1.8-5.2c-1.3,0-2.5,0-3.8,0c0.5,1.1,0.4,2.7,0.4,3.9c1.4-0.2,2.9-0.4,4.3-0.6c-0.1-0.3-0.2-0.5-0.3-0.8c-0.9-2.7-5.1-1.5-4.2,1.2c0.1,0.3,0.2,0.5,0.3,0.8c0.8,2.3,4.3,2,4.3-0.6c0-2.2,0-4.1-1-6.1c-0.7-1.6-3-1.2-3.8,0c-1.9,2.8,0.8,5.8,1.4,8.6c1.1-0.8,2.2-1.7,3.2-2.5c-2.2-1-4.1-2.5-6.5-3.1c-0.4,1.4-0.8,2.8-1.2,4.2c1.1,0.3,2,0.4,3.1,0.5c2.2,0.2,2.9-3.1,1.1-4.1c-2.2-1.2-4.5-2.5-7.1-1.7c-2.1,0.6-3.5,3.5-5.4,4c0.8,0.3,1.7,0.7,2.5,1c-0.5-0.9,1.2-4.8,1.2-6.1c-0.1-2.7-1.5-4.1-3.4-5.9c-0.7,1.2-1.4,2.4-2.1,3.7c0.7,0.1,1.3,0.4,1.8,0.7c2.5,1.4,4.6-2.3,2.2-3.8c-1.3-0.9-2.4-1.6-3.9-2.1c0,1.4,0,2.8,0,4.2c1.6-0.4,3.1-1.1,4.2-2.3c1.3-1.2,0.4-4-1.6-3.7c-1.9,0.2-3.8,0.5-5.7,0.7c0,1.5,0,2.9,0,4.4c2-0.1,4.6-0.8,6.5-0.5c-0.6-1.1-1.3-2.2-1.9-3.3c-0.1,0.2-0.2,0.4-0.4,0.5c1.1,0.9,2.3,1.8,3.4,2.7c0.3-0.6,0.6-1.1,1-1.5C106.1,100.9,102.2,98.7,100.6,101L100.6,101z"/><path fill="#C1C1C3" d="M115.9,109.5c1-2.2,3.1-3.6,5.2-4.7c1.9-1,1.1-4.2-1.1-4.1c-2.3,0.2-4.3-0.7-6.6-1c-1.2-0.1-2.2,1.1-2.2,2.2c0,1.3,1,2,2.2,2.2c1,0.1,2,0.5,2.9,0.7c1.2,0.3,2.4,0.3,3.6,0.2c-0.4-1.4-0.7-2.7-1.1-4.1c-2.7,1.4-5.5,3.4-6.8,6.3c-0.5,1.1-0.3,2.3,0.8,3C113.9,110.9,115.5,110.6,115.9,109.5L115.9,109.5z"/><path fill="#C1C1C3" d="M107,108.8c-2.1,1.1-3.2,3.1-4.8,4.8c1,1,2.1,2.1,3.1,3.1c0.3-0.4,0.7-0.8,1.1-1.1c-0.9-1.1-1.8-2.3-2.7-3.4c-1.2,1.3-2.5,2.5-4.1,3.4c0.7,1.3,1.5,2.5,2.2,3.8c0.1-0.1,0.1-0.1,0.2-0.2c1-0.7,1.4-1.9,0.8-3c-0.6-0.9-2-1.5-3-0.8c-0.1,0.1-0.1,0.1-0.2,0.2c-2.2,1.7-0.3,5.3,2.2,3.8c1.8-1.1,3.5-2.5,4.9-4.1c1.6-1.8-0.6-5-2.7-3.4c-0.7,0.5-1.5,1.1-2,1.8c-0.7,0.9-0.9,2.2,0,3.1c0.8,0.8,2.3,0.9,3.1,0c1.3-1.4,2.2-3.2,3.9-4.1C111.7,111.2,109.4,107.4,107,108.8L107,108.8z"/><path fill="#C1C1C3" d="M93.8,102.5c0.2,0.1,0.5,0.3,0.7,0.4c0.2-0.7,0.4-1.4,0.6-2c-0.4,0-0.7,0-1.1-0.1c-0.1,0.7-0.2,1.4-0.3,2.2c0,0,0.1,0,0.1,0c1.4,0,1.4-2.2,0-2.2c-0.2,0-0.3,0-0.5-0.1c-1.4-0.3-1.9,1.7-0.6,2.1c0.2,0.1,0.4,0.1,0.6,0.1c1.2,0.1,1.5-1.9,0.3-2.2c-0.2,0-0.4-0.1-0.5-0.1c-0.5-0.1-1,0.1-1.2,0.5c-0.3,0.5-0.2,1.3,0.4,1.5c0.9,0.4,1.6,1.1,2.6,1.4c1.4,0.4,2-1.8,0.6-2.1c-0.7-0.2-1.3-0.8-2-1.2c-0.3,0.7-0.6,1.3-0.8,2c0.2,0,0.4,0.1,0.5,0.1c0.1-0.7,0.2-1.4,0.3-2.2c0,0,0,0,0,0c-0.2,0.7-0.4,1.4-0.6,2.1c0.3,0.1,0.7,0.2,1,0.2c1.4,0,1.4-2.2,0-2.2c0,0-0.1,0-0.1,0c-0.5,0-0.9,0.3-1.1,0.8c-0.1,0.5,0.2,1.3,0.8,1.4c0.6,0.1,1.1,0.2,1.7,0.1c0.5,0,0.9-0.3,1.1-0.8c0.1-0.4-0.1-1-0.5-1.2c-0.2-0.1-0.5-0.3-0.7-0.4C93.6,99.9,92.5,101.8,93.8,102.5L93.8,102.5z"/><path fill="#C1C1C3" d="M115.4,116.4c-0.2,0.7,0,1.3,0.3,1.9c0.3,0.5,0.7,1,0.9,1.3c0.6-0.4,1.3-0.7,1.9-1.1c-0.1-0.2-0.2-0.3-0.4-0.4c-0.5-0.4-1.1-0.5-1.6,0c-0.4,0.4-0.5,1.2,0,1.6c0.1,0.1,0.1,0.1,0,0c0.4,0.5,0.9,0.7,1.5,0.4c0.5-0.3,0.7-1,0.4-1.5c-0.2-0.3-0.5-0.7-0.7-0.9c-0.1-0.2-0.2-0.3-0.3-0.5c0,0.1,0,0.1,0-0.1c0,0.1,0,0.3,0,0.1c0.2-0.6-0.2-1.2-0.8-1.4C116.1,115.5,115.6,115.8,115.4,116.4L115.4,116.4z"/></svg>