<svg version="1.1" xmlns="http://www.w3.org/2000/svg" xmlns:xlink="http://www.w3.org/1999/xlink" x="0px" y="0px" width="270px" height="40px" viewBox="0 0 270 40" enable-background="new 0 0 270 40" xml:space="preserve"><g><path fill="none" d="M270,40L270,40H0l0,0V0l0,0h270l0,0V40z"/></g><g><path fill="#FFFFFF" d="M21.2,25.2c0,0.1,0,0.1-0.1,0.2c-0.1,0-0.1,0.1-0.2,0.1s-0.2,0-0.4,0s-0.3,0-0.4,0s-0.2-0.1-0.2-0.1s-0.1-0.1-0.1-0.2v-0.9c-0.4,0.4-0.8,0.7-1.3,1c-0.5,0.2-1,0.3-1.5,0.3s-0.9-0.1-1.3-0.2c-0.4-0.1-0.7-0.3-1-0.5c-0.3-0.2-0.5-0.5-0.6-0.8C14,23.8,14,23.4,14,22.9s0.1-0.9,0.3-1.3c0.2-0.4,0.5-0.7,0.9-0.9c0.4-0.2,0.8-0.4,1.4-0.5c0.5-0.1,1.2-0.2,1.8-0.2h1.2v-0.7c0-0.3,0-0.6-0.1-0.9c-0.1-0.3-0.2-0.5-0.3-0.6c-0.2-0.2-0.4-0.3-0.6-0.4c-0.3-0.1-0.6-0.1-0.9-0.1c-0.4,0-0.8,0-1.1,0.1c-0.3,0.1-0.6,0.2-0.8,0.3c-0.2,0.1-0.4,0.2-0.6,0.3c-0.2,0.1-0.3,0.1-0.4,0.1c-0.1,0-0.1,0-0.1,0L14.6,18c0-0.1-0.1-0.1-0.1-0.2c0-0.1,0-0.2,0-0.3c0-0.2,0-0.3,0-0.4s0.1-0.2,0.2-0.3c0.1-0.1,0.2-0.2,0.5-0.3c0.2-0.1,0.5-0.2,0.7-0.3c0.3-0.1,0.6-0.2,0.9-0.2c0.3-0.1,0.7-0.1,1-0.1c0.6,0,1.2,0.1,1.6,0.2s0.8,0.4,1.1,0.6c0.3,0.3,0.5,0.6,0.6,1c0.1,0.4,0.2,0.9,0.2,1.4L21.2,25.2L21.2,25.2z M19.6,21.2h-1.4c-0.4,0-0.8,0-1.1,0.1c-0.3,0.1-0.6,0.2-0.8,0.3c-0.2,0.1-0.4,0.3-0.5,0.5c-0.1,0.2-0.1,0.4-0.1,0.7c0,0.5,0.1,0.8,0.4,1.1c0.3,0.3,0.7,0.4,1.2,0.4c0.4,0,0.8-0.1,1.2-0.3s0.7-0.5,1.1-1V21.2z"/><path fill="#FFFFFF" d="M31.9,25.2C31.9,25.3,31.9,25.3,31.9,25.2l-0.1,0.2c-0.1,0-0.1,0-0.2,0.1s-0.2,0-0.4,0c-0.2,0-0.3,0-0.4,0c-0.1,0-0.2,0-0.2-0.1c0-0.1-0.1-0.1-0.1-0.1v-0.1v-3.9H26v3.9c0,0.1,0,0.1,0,0.1l-0.1,0.1c0,0-0.1,0-0.2,0.1c-0.1,0-0.2,0-0.4,0c-0.2,0-0.3,0-0.4,0s-0.2,0-0.2-0.1c-0.1,0-0.1-0.1-0.1-0.1v-0.1v-8.8c0-0.1,0-0.1,0-0.1l0.1-0.1c0.1,0,0.1,0,0.2-0.1c0.1,0,0.2,0,0.4,0c0.2,0,0.3,0,0.4,0c0.1,0,0.2,0,0.2,0.1c0.1,0,0.1,0.1,0.1,0.1v0.1V20h4.5v-3.6c0-0.1,0-0.1,0-0.1l0.1-0.1c0,0,0.1,0,0.2-0.1c0.1,0,0.2,0,0.4,0c0.2,0,0.3,0,0.4,0s0.2,0,0.2,0.1c0.1,0,0.1,0.1,0.1,0.1v0.1V25.2z"/><path fill="#FFFFFF" d="M40.1,16.9c0,0.1,0,0.2,0,0.3c0,0.1,0,0.2-0.1,0.2c0,0.1-0.1,0.1-0.1,0.1h-0.1h-3.3v7.6c0,0.1,0,0.1,0,0.1l-0.1,0.1c-0.1,0-0.1,0-0.3,0.1c-0.1,0-0.2,0-0.4,0c-0.2,0-0.3,0-0.4,0c-0.1,0-0.2,0-0.2-0.1c-0.1,0-0.1-0.1-0.1-0.1v-0.1v-8.5c0-0.2,0-0.3,0.1-0.4c0.1-0.1,0.2-0.1,0.4-0.1h4.4c0.1,0,0.1,0,0.1,0l0.1,0.1c0,0.1,0.1,0.1,0.1,0.2C40.1,16.6,40.1,16.7,40.1,16.9z"/><path fill="#FFFFFF" d="M48.2,25.2C48.2,25.3,48.2,25.3,48.2,25.2l-0.1,0.2c0,0-0.1,0-0.2,0.1s-0.2,0-0.4,0s-0.3,0-0.4,0s-0.2,0-0.2-0.1c-0.1,0-0.1-0.1-0.1-0.1v-0.1v-7.7h-2.4c-0.1,1-0.2,2-0.4,2.8c-0.1,0.8-0.3,1.5-0.5,2.1c-0.2,0.6-0.4,1.1-0.6,1.5c-0.2,0.4-0.5,0.7-0.7,1c-0.3,0.3-0.6,0.4-0.9,0.5c-0.3,0.1-0.7,0.2-1,0.2c-0.1,0-0.1,0-0.2,0L40,25.5c0-0.1,0-0.1-0.1-0.2c0-0.1,0-0.2,0-0.4c0-0.2,0-0.3,0-0.4s0-0.2,0-0.2c0-0.1,0.1-0.1,0.1-0.1h0.1c0.2,0,0.4-0.1,0.6-0.2c0.2-0.1,0.4-0.3,0.5-0.5c0.2-0.2,0.3-0.5,0.5-0.9c0.2-0.4,0.3-0.8,0.4-1.4c0.1-0.5,0.2-1.2,0.3-1.9c0.1-0.7,0.2-1.6,0.3-2.5c0-0.2,0.1-0.3,0.1-0.4c0.1-0.1,0.2-0.1,0.3-0.1h4.5c0.2,0,0.3,0,0.4,0.1s0.1,0.2,0.1,0.4v8.4H48.2z"/><path fill="#FFFFFF" d="M59.1,25.2L59.1,25.2L59,25.4c-0.1,0-0.1,0-0.2,0.1c-0.1,0-0.2,0-0.4,0c-0.2,0-0.3,0-0.4,0s-0.2,0-0.3-0.1c-0.1,0-0.1-0.1-0.1-0.1v-0.1v-5.1c0-0.3,0-0.5,0-0.8c0-0.3,0-0.5,0.1-0.8c-0.2,0.3-0.3,0.5-0.5,0.8c-0.2,0.3-0.4,0.5-0.5,0.7L53,25.1c0,0.1-0.1,0.1-0.1,0.1l-0.1,0.1c-0.1,0-0.1,0-0.2,0.1c-0.1,0.1-0.2,0-0.3,0c-0.1,0-0.3,0-0.4,0s-0.2,0-0.2-0.1c-0.1,0-0.1-0.1-0.1-0.1v-0.1v-8.8v-0.1l0.1-0.1c0.1,0,0.1,0,0.2-0.1c0.1,0,0.2,0,0.4,0c0.3,0,0.5,0,0.6,0.1c0.1,0,0.2,0.1,0.2,0.2v5.1c0,0.3,0,0.5,0,0.8s0,0.5,0,0.8c0.1-0.2,0.3-0.5,0.5-0.7c0.2-0.2,0.3-0.5,0.5-0.7l3.8-5.2c0-0.1,0.1-0.1,0.1-0.1s0.1-0.1,0.2-0.1c0.1,0,0.1,0,0.2,0s0.2,0,0.3,0c0.1,0,0.3,0,0.3,0c0.1,0,0.2,0,0.2,0.1c0.1,0,0.1,0.1,0.1,0.1v0.1v8.7H59.1z"/><path fill="#FFFFFF" d="M69.9,25.2L69.9,25.2l-0.1,0.2c-0.1,0-0.1,0-0.2,0.1s-0.2,0-0.4,0c-0.2,0-0.3,0-0.4,0c-0.1,0-0.2,0-0.3-0.1c-0.1,0-0.1-0.1-0.1-0.1v-0.1v-5.1c0-0.3,0-0.5,0-0.8c0-0.3,0-0.5,0-0.8c-0.1,0.3-0.3,0.5-0.5,0.8c-0.2,0.3-0.4,0.5-0.5,0.7l-3.7,5.1c0,0.1-0.1,0.1-0.1,0.1l-0.1,0.1c-0.1,0-0.1,0-0.2,0.1c-0.1,0-0.2,0-0.3,0s-0.3,0-0.4,0s-0.2,0-0.2-0.1c-0.1,0-0.1-0.1-0.1-0.1v-0.1v-8.8v-0.1l0.1-0.1c0.1,0,0.1,0,0.2-0.1c0.1,0,0.2,0,0.4,0c0.3,0,0.5,0,0.6,0.1c0.1,0,0.2,0.1,0.2,0.2v5.1c0,0.3,0,0.5,0,0.8s0,0.5-0.1,0.8c0.2-0.2,0.3-0.5,0.5-0.7c0.2-0.2,0.3-0.5,0.5-0.7l3.8-5.2c0-0.1,0.1-0.1,0.1-0.1s0.1-0.1,0.2-0.1c0.1,0,0.1,0,0.2,0s0.2,0,0.3,0c0.1,0,0.2,0,0.3,0s0.2,0,0.2,0.1c0.1,0,0.1,0.1,0.1,0.1v0.1V25.2L69.9,25.2L69.9,25.2z M69,12.2c0,0.4-0.1,0.7-0.2,1c-0.1,0.3-0.3,0.6-0.5,0.9c-0.2,0.2-0.5,0.4-0.9,0.6c-0.4,0.1-0.8,0.2-1.4,0.2c-0.5,0-0.9-0.1-1.3-0.2c-0.4-0.1-0.7-0.3-0.9-0.5c-0.3-0.2-0.4-0.5-0.6-0.8C63.1,13,63,12.7,63,12.2c0-0.1,0-0.1,0-0.2l0.1-0.1c0.1,0,0.1,0,0.2-0.1c0.1,0,0.2,0,0.4,0c0.2,0,0.3,0,0.4,0s0.2,0,0.2,0.1c0.1,0,0.1,0.1,0.1,0.1c0,0.1,0,0.1,0,0.2c0,0.2,0,0.4,0.1,0.6c0.1,0.2,0.2,0.3,0.3,0.5c0.1,0.1,0.3,0.2,0.5,0.3c0.2,0.1,0.4,0.1,0.7,0.1c0.2,0,0.5,0,0.6-0.1s0.3-0.2,0.5-0.3c0.1-0.1,0.2-0.3,0.3-0.5c0.1-0.2,0.1-0.4,0.1-0.6c0-0.1,0-0.1,0-0.2l0.1-0.1c0,0,0.1-0.1,0.2-0.1c0.1,0,0.2,0,0.4,0c0.2,0,0.3,0,0.4,0s0.2,0,0.2,0.1c0.1,0,0.1,0.1,0.1,0.1C69,12.1,69,12.2,69,12.2z"/><path fill="#FFFFFF" d="M79.2,23.9c0,0.1,0,0.2,0,0.3c0,0.1,0,0.1,0,0.2c0,0.1,0,0.1-0.1,0.1c0,0-0.1,0.1-0.2,0.2c-0.1,0.1-0.2,0.2-0.4,0.3s-0.4,0.2-0.7,0.3c-0.2,0.1-0.5,0.2-0.8,0.2c-0.3,0.1-0.6,0.1-0.9,0.1c-0.6,0-1.2-0.1-1.7-0.3s-0.9-0.5-1.2-0.9c-0.3-0.4-0.6-0.9-0.8-1.5c-0.2-0.6-0.3-1.3-0.3-2c0-0.9,0.1-1.6,0.3-2.2c0.2-0.6,0.5-1.1,0.9-1.5c0.4-0.4,0.8-0.7,1.3-0.9c0.5-0.2,1-0.3,1.6-0.3c0.3,0,0.5,0,0.8,0.1s0.5,0.1,0.7,0.2c0.2,0.1,0.4,0.2,0.6,0.3c0.2,0.1,0.3,0.2,0.4,0.3c0.2,0,0.3,0.1,0.3,0.1s0.1,0.1,0.1,0.2c0,0.1,0,0.1,0,0.2s0,0.2,0,0.3c0,0.3,0,0.4-0.1,0.5c-0.1,0.1-0.1,0.2-0.2,0.2c-0.1,0-0.2-0.1-0.3-0.2c-0.1-0.1-0.3-0.2-0.5-0.4c-0.2-0.1-0.4-0.2-0.7-0.4c-0.3-0.1-0.6-0.2-1-0.2c-0.8,0-1.4,0.3-1.8,0.9s-0.6,1.5-0.6,2.6c0,0.6,0.1,1.1,0.2,1.5c0.1,0.4,0.3,0.8,0.5,1.1c0.2,0.3,0.5,0.5,0.8,0.6c0.3,0.1,0.7,0.2,1,0.2c0.4,0,0.7-0.1,1-0.2c0.3-0.1,0.5-0.2,0.7-0.4c0.2-0.1,0.4-0.3,0.5-0.4c0.1-0.1,0.2-0.2,0.3-0.2H79l0.1,0.1c0,0.1,0,0.1,0,0.2C79.2,23.6,79.2,23.7,79.2,23.9z"/><path fill="#FFFFFF" d="M88.5,25.3v0.1l-0.1,0.1c-0.1,0-0.1,0-0.2,0c-0.1,0-0.2,0-0.4,0c-0.2,0-0.3,0-0.4,0s-0.2,0-0.3-0.1c-0.1,0-0.1-0.1-0.2-0.1l-0.1-0.1l-0.9-2.3c-0.1-0.3-0.2-0.5-0.4-0.8c-0.1-0.2-0.3-0.4-0.5-0.5c-0.2-0.1-0.4-0.2-0.6-0.3c-0.2-0.1-0.5-0.1-0.8-0.1h-0.7v4c0,0,0,0.1-0.1,0.1l-0.1,0.1c-0.1,0-0.2,0-0.3,0s-0.2,0-0.4,0c-0.1,0-0.3,0-0.4,0s-0.2,0-0.3,0c-0.1,0-0.1,0-0.1-0.1v-0.1v-8.9v-0.1l0.1-0.1c0.1,0,0.2,0,0.3,0s0.2,0,0.4,0c0.1,0,0.3,0,0.4,0s0.2,0,0.3,0c0.1,0,0.1,0,0.1,0.1l0.1,0.1V20h0.7c0.2,0,0.5,0,0.7-0.1c0.2-0.1,0.4-0.1,0.6-0.3c0.2-0.1,0.3-0.3,0.5-0.5c0.1-0.2,0.3-0.4,0.4-0.7l0.8-2c0-0.1,0-0.1,0.1-0.1l0.1-0.1c0.1,0,0.1,0,0.3-0.1c0.1,0,0.2,0,0.4,0s0.3,0,0.4,0s0.2,0,0.2,0c0.1,0,0.1,0,0.1,0.1v0.1c0,0.1,0,0.1,0,0.2s0,0.1-0.1,0.2l-0.8,1.9c-0.1,0.3-0.3,0.6-0.4,0.8c-0.2,0.2-0.3,0.4-0.5,0.6c-0.2,0.1-0.3,0.3-0.5,0.3c-0.2,0.1-0.3,0.1-0.5,0.2l0,0c0.2,0.1,0.4,0.2,0.6,0.3c0.2,0.1,0.4,0.2,0.5,0.4c0.2,0.2,0.3,0.4,0.5,0.6c0.1,0.2,0.3,0.5,0.4,0.8l1,2.2c0,0,0,0.1,0.1,0.1V25C88.5,25.2,88.5,25.2,88.5,25.3C88.5,25.2,88.5,25.2,88.5,25.3z"/><path fill="#FFFFFF" d="M98.4,25.2L98.4,25.2l-0.1,0.2c-0.1,0-0.1,0-0.2,0.1c-0.1,0-0.2,0-0.4,0c-0.2,0-0.3,0-0.4,0c-0.1,0-0.2,0-0.3-0.1c-0.1,0-0.1-0.1-0.1-0.1v-0.1v-5.1c0-0.3,0-0.5,0-0.8c0-0.3,0-0.5,0.1-0.8c-0.1,0.3-0.3,0.5-0.5,0.8c-0.2,0.3-0.4,0.5-0.5,0.7l-3.7,5.1c0,0.1-0.1,0.1-0.1,0.1l-0.1,0.1c-0.1,0-0.1,0-0.2,0.1c-0.1,0-0.2,0-0.3,0s-0.3,0-0.4,0c-0.1,0-0.2,0-0.2-0.1c-0.1,0-0.1-0.1-0.1-0.1v-0.1v-8.8v-0.1l0.1-0.1c0.1,0,0.1,0,0.2-0.1c0.1,0,0.2,0,0.4,0c0.3,0,0.5,0,0.6,0.1c0.1,0,0.2,0.1,0.2,0.2v5.1c0,0.3,0,0.5,0,0.8s0,0.5,0,0.8c0.1-0.2,0.3-0.5,0.5-0.7c0.2-0.2,0.3-0.5,0.5-0.7l3.8-5.2c0-0.1,0.1-0.1,0.1-0.1s0.1-0.1,0.2-0.1s0.1,0,0.2,0c0.1,0,0.2,0,0.3,0s0.3,0,0.3,0c0.1,0,0.2,0,0.2,0.1c0.1,0,0.1,0.1,0.1,0.1v0.1v8.7H98.4z"/><path fill="#FFFFFF" d="M109.3,25.2L109.3,25.2l-0.1,0.2c-0.1,0-0.1,0-0.2,0.1c-0.1,0-0.2,0-0.4,0c-0.2,0-0.3,0-0.4,0c-0.1,0-0.2,0-0.3-0.1c-0.1,0-0.1-0.1-0.1-0.1v-0.1v-5.1c0-0.3,0-0.5,0-0.8c0-0.3,0-0.5,0-0.8c-0.1,0.3-0.3,0.5-0.5,0.8c-0.2,0.3-0.4,0.5-0.5,0.7l-3.7,5.1c0,0.1-0.1,0.1-0.1,0.1l-0.1,0.1c-0.1,0-0.1,0-0.2,0.1c-0.1,0-0.2,0-0.3,0s-0.3,0-0.4,0s-0.2,0-0.2-0.1c-0.1,0-0.1-0.1-0.1-0.1v-0.1v-8.8v-0.1l0.1-0.1c0.1,0,0.1,0,0.3-0.1c0.1,0,0.2,0,0.4,0c0.3,0,0.5,0,0.6,0.1c0.1,0,0.2,0.1,0.2,0.2v5.1c0,0.3,0,0.5,0,0.8s0,0.5-0.1,0.8c0.2-0.2,0.3-0.5,0.5-0.7c0.1-0.2,0.3-0.5,0.5-0.7l3.8-5.2c0-0.1,0.1-0.1,0.1-0.1s0.1-0.1,0.2-0.1c0.1,0,0.1,0,0.2,0s0.2,0,0.3,0c0.1,0,0.2,0,0.3,0s0.2,0,0.2,0.1c0.1,0,0.1,0.1,0.1,0.1v0.1L109.3,25.2L109.3,25.2L109.3,25.2z M108.4,12.2c0,0.4-0.1,0.7-0.2,1c-0.1,0.3-0.3,0.6-0.5,0.9c-0.2,0.2-0.5,0.4-0.9,0.6c-0.4,0.1-0.8,0.2-1.4,0.2c-0.5,0-0.9-0.1-1.3-0.2c-0.4-0.1-0.7-0.3-0.9-0.5c-0.3-0.2-0.4-0.5-0.6-0.8c-0.1-0.3-0.2-0.7-0.2-1.1c0-0.1,0-0.1,0-0.2l0.1-0.1c0.1,0,0.1,0,0.2-0.1c0.1,0,0.2,0,0.4,0c0.2,0,0.3,0,0.4,0s0.2,0,0.2,0.1c0.1,0,0.1,0.1,0.1,0.1c0,0.1,0,0.1,0,0.2c0,0.2,0,0.4,0.1,0.6c0.1,0.2,0.2,0.3,0.3,0.5c0.1,0.1,0.3,0.2,0.5,0.3c0.2,0.1,0.4,0.1,0.7,0.1c0.2,0,0.5,0,0.6-0.1c0.2-0.1,0.3-0.2,0.5-0.3c0.1-0.1,0.2-0.3,0.3-0.5c0.1-0.2,0.1-0.4,0.1-0.6c0-0.1,0-0.1,0-0.2L107,12c0,0,0.1-0.1,0.2-0.1c0.1,0,0.2,0,0.4,0c0.2,0,0.3,0,0.4,0s0.2,0,0.2,0.1c0.1,0,0.1,0.1,0.1,0.1C108.4,12.1,108.4,12.2,108.4,12.2z"/><path fill="#FFFFFF" d="M125.7,20.4c0,0.8-0.1,1.5-0.4,2.2c-0.2,0.6-0.6,1.2-1,1.7c-0.4,0.5-1,0.8-1.6,1.1c-0.6,0.2-1.3,0.4-2,0.4c-0.8,0-1.5-0.1-2.1-0.4c-0.6-0.2-1.1-0.6-1.4-1.1c-0.4-0.5-0.7-1.2-0.8-1.9c-0.2-0.8-0.3-1.7-0.3-2.7c0-0.8,0-1.5,0.1-2.1c0.1-0.7,0.2-1.3,0.4-1.8c0.2-0.6,0.3-1,0.6-1.5c0.2-0.4,0.5-0.8,0.7-1c0.2-0.3,0.5-0.5,0.7-0.6c0.2-0.2,0.5-0.3,0.7-0.4c0.3-0.1,0.6-0.2,0.9-0.3c0.3-0.1,0.7-0.2,1.1-0.2l3.3-0.5c0.1,0,0.2,0,0.3,0s0.1,0,0.2,0.1c0,0.1,0.1,0.2,0.1,0.3c0,0.2,0,0.4,0,0.6c0,0.2,0,0.4,0,0.5c0,0.1,0,0.3-0.1,0.4c0,0.1-0.1,0.2-0.2,0.2c-0.1,0.1-0.2,0.1-0.3,0.1l-3,0.5c-0.3,0-0.5,0.1-0.7,0.1c-0.2,0-0.4,0.1-0.6,0.2c-0.2,0.1-0.3,0.1-0.4,0.2s-0.2,0.2-0.4,0.3c-0.1,0.1-0.2,0.3-0.3,0.4c-0.1,0.2-0.2,0.4-0.2,0.6c-0.1,0.2-0.1,0.4-0.2,0.7c0,0.3-0.1,0.5-0.1,0.8c0.2-0.2,0.4-0.4,0.6-0.5c0.2-0.2,0.5-0.3,0.7-0.4c0.3-0.1,0.5-0.2,0.8-0.3c0.3-0.1,0.6-0.1,0.9-0.1c0.7,0,1.3,0.1,1.7,0.3c0.5,0.2,0.9,0.5,1.2,0.9c0.3,0.4,0.6,0.9,0.7,1.5C125.6,19.1,125.7,19.7,125.7,20.4z M123.1,20.6c0-0.4,0-0.7-0.1-1.1c-0.1-0.3-0.2-0.6-0.3-0.9c-0.2-0.2-0.3-0.4-0.6-0.6c-0.3-0.1-0.5-0.2-0.9-0.2c-0.2,0-0.4,0-0.6,0.1c-0.2,0.1-0.4,0.1-0.6,0.3c-0.2,0.1-0.4,0.3-0.6,0.4c-0.2,0.2-0.4,0.4-0.6,0.6c0,0.1,0,0.2,0,0.3s0,0.2,0,0.3c0,0.6,0,1.2,0.1,1.7s0.2,0.9,0.4,1.2c0.2,0.3,0.4,0.5,0.7,0.7c0.3,0.1,0.6,0.2,1,0.2c0.3,0,0.7-0.1,0.9-0.2c0.3-0.1,0.5-0.3,0.7-0.6c0.2-0.3,0.3-0.6,0.4-0.9C123,21.5,123.1,21,123.1,20.6z"/><path fill="#FFFFFF" d="M136.2,20.3c0,0.3-0.1,0.5-0.2,0.7c-0.1,0.1-0.3,0.2-0.6,0.2h-5.6c0,0.4,0,0.7,0.1,1.1c0.1,0.3,0.2,0.6,0.4,0.8c0.2,0.2,0.5,0.4,0.8,0.5c0.3,0.1,0.7,0.2,1.1,0.2c0.5,0,0.8,0,1.2-0.1c0.3-0.1,0.6-0.1,0.9-0.2c0.2-0.1,0.5-0.2,0.6-0.2c0.2-0.1,0.3-0.1,0.4-0.1c0.1,0,0.1,0,0.2,0l0.1,0.1c0,0.1,0,0.2,0.1,0.3c0,0.1,0,0.3,0,0.4c0,0.2,0,0.3,0,0.4c0,0.1,0,0.2,0,0.3c0,0.1,0,0.1-0.1,0.2c0,0.1-0.1,0.1-0.1,0.2c0,0-0.2,0.1-0.4,0.2c-0.2,0.1-0.4,0.2-0.8,0.2c-0.3,0.1-0.7,0.1-1.1,0.2c-0.4,0.1-0.8,0.1-1.3,0.1c-0.8,0-1.5-0.1-2.1-0.3c-0.6-0.2-1.1-0.5-1.5-0.9c-0.4-0.4-0.7-0.9-0.9-1.6c-0.2-0.6-0.3-1.4-0.3-2.2s0.1-1.5,0.3-2.2c0.2-0.7,0.5-1.2,0.9-1.7c0.4-0.5,0.9-0.8,1.5-1c0.6-0.2,1.2-0.4,2-0.4c0.8,0,1.4,0.1,2,0.3c0.5,0.2,1,0.5,1.3,0.9c0.3,0.4,0.6,0.9,0.8,1.4c0.2,0.5,0.2,1.1,0.2,1.8v0.4H136.2z M133.7,19.5c0-0.7-0.1-1.3-0.4-1.7c-0.3-0.4-0.8-0.6-1.4-0.6c-0.3,0-0.6,0.1-0.9,0.2c-0.2,0.1-0.4,0.3-0.6,0.5c-0.2,0.2-0.3,0.5-0.4,0.7c-0.1,0.3-0.1,0.6-0.2,0.9H133.7L133.7,19.5z"/><path fill="#FFFFFF" d="M145.3,22.6c0,0.5-0.1,1-0.3,1.3c-0.2,0.4-0.5,0.7-0.9,1c-0.4,0.3-0.8,0.5-1.4,0.6c-0.5,0.1-1.2,0.2-1.8,0.2c-0.4,0-0.7,0-1-0.1c-0.3-0.1-0.6-0.1-0.9-0.2c-0.3-0.1-0.5-0.2-0.7-0.2c-0.2-0.1-0.3-0.2-0.4-0.2c-0.1-0.1-0.1-0.1-0.2-0.2c0-0.1-0.1-0.1-0.1-0.2c0-0.1,0-0.2,0-0.3c0-0.1,0-0.3,0-0.4c0-0.2,0-0.3,0-0.4s0-0.2,0.1-0.2c0-0.1,0.1-0.1,0.1-0.1h0.1c0.1,0,0.2,0,0.3,0.1c0.1,0.1,0.3,0.2,0.5,0.3c0.2,0.1,0.5,0.2,0.8,0.3c0.3,0.1,0.7,0.1,1.1,0.1c0.3,0,0.6,0,0.8-0.1c0.2-0.1,0.4-0.1,0.6-0.3c0.2-0.1,0.3-0.2,0.3-0.4c0.1-0.2,0.1-0.3,0.1-0.6c0-0.2,0-0.4-0.1-0.5c-0.1-0.2-0.2-0.3-0.4-0.4c-0.2-0.1-0.4-0.2-0.7-0.2c-0.3-0.1-0.6-0.1-1-0.1h-1c-0.1,0-0.2,0-0.2,0c-0.1,0-0.1-0.1-0.1-0.1c0-0.1-0.1-0.2-0.1-0.3s0-0.3,0-0.4c0-0.2,0-0.3,0-0.4c0-0.1,0-0.2,0.1-0.3c0-0.1,0.1-0.1,0.1-0.1c0.1,0,0.1,0,0.2,0h1c0.4,0,0.7,0,1-0.1c0.3-0.1,0.5-0.1,0.7-0.2c0.2-0.1,0.3-0.2,0.4-0.4c0.1-0.2,0.1-0.3,0.1-0.5c0-0.2,0-0.3-0.1-0.5c-0.1-0.1-0.2-0.3-0.3-0.3c-0.1-0.1-0.3-0.2-0.5-0.2c-0.2,0-0.4-0.1-0.6-0.1c-0.4,0-0.7,0-1,0.1c-0.3,0.1-0.6,0.2-0.8,0.3c-0.2,0.1-0.4,0.2-0.6,0.3c-0.1,0.1-0.3,0.1-0.3,0.1h-0.1l-0.1-0.1c0-0.1-0.1-0.1-0.1-0.2s0-0.2,0-0.4c0-0.3,0-0.5,0.1-0.6c0-0.2,0.1-0.3,0.2-0.4c0.1-0.1,0.2-0.2,0.4-0.3c0.2-0.1,0.5-0.2,0.8-0.3c0.3-0.1,0.6-0.2,1-0.2c0.3-0.1,0.7-0.1,1.1-0.1c0.6,0,1.1,0.1,1.5,0.2c0.5,0.1,0.9,0.3,1.2,0.5c0.3,0.2,0.6,0.5,0.7,0.8c0.2,0.3,0.3,0.7,0.3,1.1c0,0.3,0,0.5-0.1,0.7c-0.1,0.2-0.2,0.5-0.3,0.6c-0.2,0.2-0.3,0.4-0.5,0.5s-0.5,0.3-0.7,0.3l0,0c0.3,0,0.6,0.1,0.8,0.2c0.3,0.1,0.5,0.3,0.7,0.5c0.2,0.2,0.4,0.4,0.5,0.7C145.2,22,145.3,22.3,145.3,22.6z"/><path fill="#FFFFFF" d="M160.1,20.7c0,0.8-0.1,1.5-0.2,2.1c-0.2,0.6-0.4,1.1-0.7,1.6c-0.3,0.4-0.7,0.8-1.2,1c-0.5,0.2-1,0.3-1.6,0.3c-0.3,0-0.5,0-0.7-0.1c-0.2-0.1-0.4-0.1-0.7-0.2c-0.2-0.1-0.4-0.3-0.6-0.4c-0.2-0.2-0.4-0.4-0.7-0.6v4.4c0,0.1,0,0.1,0,0.1l-0.1,0.1c-0.1,0-0.1,0-0.2,0.1c-0.1,0-0.2,0-0.4,0s-0.3,0-0.4,0c-0.1,0-0.2,0-0.3-0.1c-0.1,0-0.1-0.1-0.1-0.1v-0.1V16.4c0-0.1,0-0.1,0-0.1l0.1-0.1c0.1,0,0.1,0,0.2-0.1c0.1,0,0.2,0,0.3,0c0.1,0,0.3,0,0.3,0c0.1,0,0.2,0,0.2,0.1c0.1,0,0.1,0.1,0.1,0.1v0.1v1.2c0.3-0.3,0.5-0.5,0.8-0.7c0.2-0.2,0.5-0.4,0.8-0.5c0.2-0.1,0.5-0.2,0.8-0.3s0.5-0.1,0.8-0.1c0.6,0,1.2,0.1,1.6,0.4c0.5,0.2,0.8,0.6,1.1,1s0.5,0.9,0.6,1.5C160,19.4,160.1,20,160.1,20.7z M158.4,20.8c0-0.4,0-0.9-0.1-1.3c-0.1-0.4-0.2-0.8-0.4-1.1c-0.2-0.3-0.4-0.6-0.7-0.8c-0.3-0.2-0.6-0.3-1.1-0.3c-0.2,0-0.4,0-0.6,0.1s-0.4,0.2-0.6,0.3c-0.2,0.1-0.4,0.3-0.7,0.5c-0.2,0.2-0.5,0.5-0.7,0.8v3.5c0.4,0.5,0.9,1,1.3,1.2c0.4,0.3,0.8,0.4,1.3,0.4c0.4,0,0.8-0.1,1-0.3c0.3-0.2,0.5-0.5,0.7-0.8s0.3-0.7,0.4-1.1C158.3,21.7,158.4,21.3,158.4,20.8z"/><path fill="#FFFFFF" d="M170,20.4c0,0.3-0.1,0.4-0.2,0.5c-0.1,0.1-0.3,0.2-0.4,0.2h-5.8c0,0.5,0.1,0.9,0.1,1.3c0.1,0.4,0.3,0.7,0.5,1c0.2,0.3,0.5,0.5,0.9,0.6c0.4,0.2,0.8,0.2,1.4,0.2c0.4,0,0.8,0,1.1-0.1c0.3-0.1,0.6-0.1,0.8-0.2c0.2-0.1,0.4-0.2,0.6-0.2c0.2-0.1,0.3-0.1,0.3-0.1h0.1l0.1,0.1c0,0,0,0.1,0,0.2c0,0.1,0,0.2,0,0.3c0,0.1,0,0.2,0,0.2c0,0.1,0,0.1,0,0.2c0,0,0,0.1-0.1,0.1l-0.1,0.1c0,0-0.1,0.1-0.3,0.2s-0.4,0.2-0.7,0.2c-0.3,0.1-0.6,0.1-1,0.2c-0.4,0.1-0.8,0.1-1.2,0.1c-0.7,0-1.4-0.1-1.9-0.3s-1-0.5-1.4-0.9c-0.4-0.4-0.7-0.9-0.8-1.5c-0.2-0.6-0.3-1.3-0.3-2.1c0-0.8,0.1-1.4,0.3-2c0.2-0.6,0.5-1.1,0.8-1.5c0.4-0.4,0.8-0.7,1.3-1c0.5-0.2,1.1-0.3,1.7-0.3c0.7,0,1.3,0.1,1.8,0.3c0.5,0.2,0.9,0.5,1.2,0.9s0.5,0.8,0.7,1.3s0.2,1,0.2,1.6v0.4H170L170,20.4z M168.4,19.9c0-0.8-0.2-1.5-0.6-2c-0.4-0.5-1-0.7-1.8-0.7c-0.4,0-0.8,0.1-1,0.2c-0.3,0.2-0.6,0.4-0.8,0.6s-0.4,0.5-0.5,0.9c-0.1,0.3-0.2,0.7-0.2,1H168.4z"/><path fill="#FFFFFF" d="M177.7,16.9c0,0.1,0,0.2,0,0.3c0,0.1,0,0.2-0.1,0.2c0,0.1-0.1,0.1-0.1,0.1h-0.1h-3.3v7.6c0,0.1,0,0.1,0,0.1l-0.1,0.1c-0.1,0-0.1,0-0.2,0.1c-0.1,0-0.2,0-0.4,0c-0.2,0-0.3,0-0.4,0s-0.2,0-0.3-0.1c-0.1,0-0.1-0.1-0.1-0.1v-0.1v-8.5c0-0.2,0-0.3,0.1-0.4c0.1-0.1,0.2-0.1,0.4-0.1h4.4c0.1,0,0.1,0,0.1,0l0.1,0.1c0,0.1,0.1,0.1,0.1,0.2C177.7,16.6,177.7,16.7,177.7,16.9z"/><path fill="#FFFFFF" d="M187.2,25.2L187.2,25.2l-0.1,0.2c-0.1,0-0.1,0-0.2,0.1c-0.1,0.1-0.2,0-0.4,0s-0.3,0-0.4,0c-0.1,0-0.2,0-0.3-0.1c-0.1,0-0.1-0.1-0.1-0.1v-0.1v-5.1c0-0.3,0-0.5,0-0.8c0-0.3,0-0.5,0-0.8c-0.2,0.3-0.3,0.5-0.5,0.8c-0.2,0.3-0.4,0.5-0.5,0.7l-3.7,5.1c0,0.1-0.1,0.1-0.1,0.1l-0.1,0.1c-0.1,0-0.1,0-0.2,0.1c-0.1,0-0.2,0-0.3,0c-0.1,0-0.3,0-0.4,0c-0.1,0-0.2,0-0.2-0.1c-0.1,0-0.1-0.1-0.1-0.1v-0.1v-8.8v-0.1l0.1-0.1c0.1,0,0.1,0,0.2-0.1c0.1,0,0.2,0,0.4,0c0.3,0,0.5,0,0.6,0.1c0.1,0,0.2,0.1,0.2,0.2v5.1c0,0.3,0,0.5,0,0.8s0,0.5,0,0.8c0.2-0.2,0.3-0.5,0.5-0.7c0.2-0.2,0.3-0.5,0.5-0.7l3.8-5.2c0-0.1,0.1-0.1,0.1-0.1s0.1-0.1,0.2-0.1c0.1,0,0.1,0,0.2,0c0.1,0,0.2,0,0.3,0c0.1,0,0.3,0,0.4,0c0.1,0,0.2,0,0.2,0.1c0.1,0,0.1,0.1,0.1,0.1v0.1v8.7H187.2L187.2,25.2z"/><path fill="#FFFFFF" d="M196.5,23.9c0,0.1,0,0.2,0,0.3c0,0.1,0,0.1,0,0.2c0,0.1,0,0.1-0.1,0.1c0,0-0.1,0.1-0.2,0.2c-0.1,0.1-0.2,0.2-0.4,0.3s-0.4,0.2-0.7,0.3c-0.2,0.1-0.5,0.2-0.8,0.2c-0.3,0.1-0.6,0.1-0.9,0.1c-0.6,0-1.2-0.1-1.7-0.3s-0.9-0.5-1.2-0.9c-0.3-0.4-0.6-0.9-0.8-1.5c-0.2-0.6-0.3-1.3-0.3-2c0-0.9,0.1-1.6,0.3-2.2c0.2-0.6,0.5-1.1,0.9-1.5c0.4-0.4,0.8-0.7,1.3-0.9c0.5-0.2,1-0.3,1.6-0.3c0.3,0,0.6,0,0.8,0.1c0.3,0.1,0.5,0.1,0.7,0.2c0.2,0.1,0.4,0.2,0.6,0.3c0.2,0.1,0.3,0.2,0.4,0.3s0.1,0.1,0.2,0.2c0,0,0.1,0.1,0.1,0.2c0,0.1,0,0.1,0,0.2s0,0.2,0,0.3c0,0.3,0,0.4-0.1,0.5c-0.1,0.1-0.1,0.2-0.2,0.2s-0.2-0.1-0.3-0.2c-0.1-0.1-0.3-0.2-0.5-0.4c-0.2-0.1-0.4-0.2-0.7-0.4c-0.3-0.1-0.6-0.2-1-0.2c-0.8,0-1.4,0.3-1.8,0.9c-0.4,0.6-0.6,1.5-0.6,2.6c0,0.6,0.1,1.1,0.2,1.5c0.1,0.4,0.3,0.8,0.5,1.1c0.2,0.3,0.5,0.5,0.8,0.6c0.3,0.1,0.7,0.2,1,0.2c0.4,0,0.7-0.1,1-0.2c0.3-0.1,0.5-0.2,0.7-0.4c0.2-0.1,0.4-0.3,0.5-0.4c0.1-0.1,0.2-0.2,0.3-0.2h0.1l0.1,0.1c0,0.1,0,0.1,0,0.2C196.5,23.6,196.5,23.7,196.5,23.9z"/><path fill="#FFFFFF" d="M204.8,16.9c0,0.1,0,0.2,0,0.3c0,0.1,0,0.2-0.1,0.2c0,0.1-0.1,0.1-0.1,0.1h-0.1h-2.6v7.6c0,0.1,0,0.1,0,0.1l-0.1,0.1c-0.1,0-0.1,0-0.2,0.1c-0.1,0-0.2,0-0.4,0s-0.3,0-0.4,0c-0.1,0-0.2,0-0.2-0.1c-0.1,0-0.1-0.1-0.1-0.1v-0.1v-7.6h-2.6c-0.1,0-0.1,0-0.1,0l-0.1-0.1c0-0.1-0.1-0.1-0.1-0.2c0-0.1,0-0.2,0-0.3s0-0.2,0-0.3s0-0.2,0.1-0.2c0-0.1,0.1-0.1,0.1-0.1h0.1h6.9c0.1,0,0.1,0,0.1,0l0.1,0.1c0,0.1,0,0.1,0.1,0.2C204.8,16.6,204.8,16.8,204.8,16.9z"/><path fill="#FFFFFF" d="M214.5,20.7c0,0.8-0.1,1.5-0.2,2.1c-0.2,0.6-0.4,1.1-0.7,1.6c-0.3,0.4-0.7,0.8-1.2,1c-0.5,0.2-1,0.3-1.6,0.3c-0.3,0-0.5,0-0.7-0.1c-0.2-0.1-0.4-0.1-0.7-0.2c-0.2-0.1-0.4-0.3-0.6-0.4c-0.2-0.2-0.4-0.4-0.7-0.6v4.4c0,0.1,0,0.1,0,0.1L208,29c-0.1,0-0.1,0-0.2,0.1c-0.1,0-0.2,0-0.4,0c-0.2,0-0.3,0-0.4,0s-0.2,0-0.3-0.1c-0.1,0-0.1-0.1-0.1-0.1v-0.1V16.4c0-0.1,0-0.1,0-0.1l0.1-0.1c0.1,0,0.1,0,0.2-0.1c0.1,0,0.2,0,0.3,0c0.1,0,0.2,0,0.3,0s0.2,0,0.2,0.1c0.1,0,0.1,0.1,0.1,0.1v0.1v1.2c0.3-0.3,0.5-0.5,0.8-0.7c0.2-0.2,0.5-0.4,0.7-0.5s0.5-0.2,0.8-0.3c0.3-0.1,0.5-0.1,0.8-0.1c0.6,0,1.2,0.1,1.6,0.4c0.4,0.2,0.8,0.6,1.1,1c0.3,0.4,0.5,0.9,0.6,1.5C214.4,19.4,214.5,20,214.5,20.7z M212.8,20.8c0-0.4,0-0.9-0.1-1.3c-0.1-0.4-0.2-0.8-0.4-1.1c-0.2-0.3-0.4-0.6-0.7-0.8c-0.3-0.2-0.6-0.3-1.1-0.3c-0.2,0-0.4,0-0.6,0.1c-0.2,0.1-0.4,0.2-0.6,0.3c-0.2,0.1-0.4,0.3-0.7,0.5c-0.2,0.2-0.5,0.5-0.7,0.8v3.5c0.4,0.5,0.9,1,1.3,1.2c0.4,0.3,0.8,0.4,1.3,0.4c0.4,0,0.8-0.1,1-0.3c0.3-0.2,0.5-0.5,0.7-0.8s0.3-0.7,0.4-1.1C212.8,21.7,212.8,21.3,212.8,20.8z"/><path fill="#FFFFFF" d="M223.5,25.2c0,0.1,0,0.1-0.1,0.2c-0.1,0-0.1,0.1-0.2,0.1c-0.1,0-0.2,0-0.4,0s-0.3,0-0.4,0c-0.1,0-0.2-0.1-0.2-0.1s-0.1-0.1-0.1-0.2v-0.9c-0.4,0.4-0.8,0.7-1.3,1c-0.5,0.2-1,0.3-1.5,0.3s-0.9-0.1-1.3-0.2c-0.4-0.1-0.7-0.3-1-0.5c-0.3-0.2-0.5-0.5-0.6-0.8c-0.1-0.3-0.2-0.7-0.2-1.1c0-0.5,0.1-0.9,0.3-1.3c0.2-0.4,0.5-0.7,0.9-0.9c0.4-0.2,0.8-0.4,1.4-0.5c0.5-0.1,1.2-0.2,1.8-0.2h1.2v-0.7c0-0.3,0-0.6-0.1-0.9c-0.1-0.3-0.2-0.5-0.3-0.6c-0.2-0.2-0.4-0.3-0.6-0.4c-0.3-0.1-0.6-0.1-0.9-0.1c-0.4,0-0.8,0-1.1,0.1s-0.6,0.2-0.8,0.3c-0.2,0.1-0.4,0.2-0.6,0.3c-0.2,0.1-0.3,0.1-0.4,0.1s-0.1,0-0.1,0l-0.1-0.1c0-0.1-0.1-0.1-0.1-0.2s0-0.2,0-0.3c0-0.2,0-0.3,0-0.4c0-0.1,0.1-0.2,0.2-0.3c0.1-0.1,0.2-0.2,0.5-0.3c0.2-0.1,0.5-0.2,0.7-0.3c0.3-0.1,0.6-0.2,0.9-0.2c0.3-0.1,0.7-0.1,1-0.1c0.6,0,1.2,0.1,1.6,0.2c0.4,0.1,0.8,0.4,1.1,0.6c0.3,0.3,0.5,0.6,0.6,1c0.1,0.4,0.2,0.9,0.2,1.4V25.2L223.5,25.2L223.5,25.2z M221.9,21.2h-1.4c-0.4,0-0.8,0-1.2,0.1c-0.3,0.1-0.6,0.2-0.8,0.3c-0.2,0.1-0.4,0.3-0.5,0.5c-0.1,0.2-0.1,0.4-0.1,0.7c0,0.5,0.1,0.8,0.4,1.1c0.3,0.3,0.7,0.4,1.2,0.4c0.4,0,0.8-0.1,1.2-0.3c0.4-0.2,0.7-0.5,1.1-1v-1.8H221.9z"/><path fill="#FFFFFF" d="M235.6,28.4c0,0.1-0.1,0.1-0.2,0.2c-0.1,0-0.3,0.1-0.5,0.1c-0.2,0-0.4,0-0.5-0.1c-0.1,0-0.2-0.1-0.2-0.2v-3H227c-0.2,0-0.3,0-0.4-0.1c-0.1-0.1-0.1-0.2-0.1-0.4v-8.5c0-0.1,0-0.1,0-0.1l0.1-0.1c0.1,0,0.1,0,0.2-0.1c0.1,0,0.2,0,0.4,0s0.3,0,0.4,0c0.1,0,0.2,0,0.2,0.1c0.1,0,0.1,0.1,0.1,0.1v0.1V24h4.2v-7.7c0-0.1,0-0.1,0-0.1l0.1-0.1c0.1,0,0.1,0,0.2-0.1c0.1,0,0.2,0,0.4,0s0.3,0,0.4,0c0.1,0,0.2,0,0.2,0.1c0.1,0,0.1,0.1,0.1,0.1v0.1V24h1.2c0.2,0,0.3,0,0.3,0.1c0,0.1,0.1,0.2,0.1,0.3L235.6,28.4L235.6,28.4z"/><path fill="#FFFFFF" d="M245.2,25.2L245.2,25.2l-0.1,0.2c-0.1,0-0.1,0-0.2,0.1c-0.1,0-0.2,0-0.4,0s-0.3,0-0.4,0c-0.1,0-0.2,0-0.3-0.1c-0.1,0-0.1-0.1-0.1-0.1v-0.1v-5.1c0-0.3,0-0.5,0-0.8c0-0.3,0-0.5,0.1-0.8c-0.2,0.3-0.3,0.5-0.5,0.8c-0.2,0.3-0.4,0.5-0.5,0.7l-3.7,5.1c0,0.1-0.1,0.1-0.1,0.1l-0.1,0.1c-0.1,0-0.1,0-0.2,0.1c-0.1,0-0.2,0-0.3,0c-0.1,0-0.3,0-0.3,0s-0.2,0-0.2-0.1c-0.1,0-0.1-0.1-0.1-0.1v-0.1v-8.8v-0.1l0.1-0.1c0.1,0,0.1,0,0.3-0.1c0.1,0,0.2,0,0.4,0c0.3,0,0.5,0,0.6,0.1c0.1,0,0.2,0.1,0.2,0.2v5.1c0,0.3,0,0.5,0,0.8s0,0.5,0,0.8c0.1-0.2,0.3-0.5,0.5-0.7c0.2-0.2,0.3-0.5,0.5-0.7l3.8-5.2c0-0.1,0.1-0.1,0.1-0.1s0.1-0.1,0.2-0.1s0.1,0,0.2,0c0.1,0,0.2,0,0.3,0s0.2,0,0.3,0c0.1,0,0.2,0,0.2,0.1c0.1,0,0.1,0.1,0.1,0.1v0.1v8.7H245.2z"/><path fill="#FFFFFF" d="M256,25.2L256,25.2l-0.1,0.2c-0.1,0-0.1,0-0.2,0.1c-0.1,0.1-0.2,0-0.4,0s-0.3,0-0.4,0c-0.1,0-0.2,0-0.3-0.1c-0.1,0-0.1-0.1-0.1-0.1v-0.1v-5.1c0-0.3,0-0.5,0-0.8c0-0.3,0-0.5,0.1-0.8c-0.2,0.3-0.3,0.5-0.5,0.8c-0.2,0.3-0.4,0.5-0.5,0.7l-3.7,5.1c-0.1,0.1-0.1,0.1-0.1,0.1l-0.1,0.1c-0.1,0-0.1,0-0.2,0.1c-0.1,0.1-0.2,0-0.3,0c-0.1,0-0.3,0-0.4,0c-0.1,0-0.2,0-0.2-0.1c-0.1,0-0.1-0.1-0.1-0.1v-0.1v-8.8v-0.1l0.1-0.1c0.1,0,0.1,0,0.2-0.1c0.1,0,0.2,0,0.4,0c0.3,0,0.5,0,0.6,0.1c0.1,0,0.2,0.1,0.2,0.2v5.1c0,0.3,0,0.5,0,0.8s0,0.5-0.1,0.8c0.2-0.2,0.3-0.5,0.5-0.7c0.2-0.2,0.3-0.5,0.5-0.7l3.8-5.2c0-0.1,0.1-0.1,0.1-0.1s0.1-0.1,0.2-0.1s0.1,0,0.2,0c0.1,0,0.2,0,0.3,0s0.3,0,0.3,0c0.1,0,0.2,0,0.2,0.1c0.1,0,0.1,0.1,0.1,0.1v0.1L256,25.2L256,25.2L256,25.2z"/></g><g id="Layer_1_2_"></g></svg>