<svg version="1.1" xmlns="http://www.w3.org/2000/svg" x="0px" y="0px" viewBox="0 0 200 200" enable-background="new 0 0 200 200"><rect fill="none" width="200" height="200"/><circle opacity="1" fill="#F03B4C" enable-background="new  " cx="100" cy="100" r="100"/><g><path fill="#FFFFFF" d="M63.4,58.6h-9.8V42.3h9.4v3h-5.7v3.6h5.3v3h-5.3v3.7h6.1V58.6z"/><path fill="#FFFFFF" d="M80.6,58.6h-3.7l-7.5-11.4h0v11.4h-3.5V42.3h4l7.2,11.1h0V42.3h3.5V58.6z"/><path fill="#FFFFFF" d="M97.7,57.5c-1.6,0.9-3.6,1.4-5.9,1.4c-2.6,0-4.7-0.7-6.2-2.2c-1.5-1.5-2.3-3.5-2.3-6c0-1.7,0.4-3.2,1.1-4.5c0.8-1.3,1.8-2.4,3.2-3.1c1.4-0.7,3-1.1,4.7-1.1c1.7,0,3.2,0.2,4.6,0.7v3.5c-1.3-0.7-2.8-1.1-4.6-1.1c-1,0-1.9,0.2-2.7,0.7c-0.8,0.5-1.4,1.1-1.8,1.9c-0.4,0.8-0.6,1.8-0.6,2.9c0,1.7,0.4,3,1.3,3.9c0.9,0.9,2,1.4,3.5,1.4c0.9,0,1.6-0.1,2.1-0.4v-3.2h-3.3v-2.9h6.9V57.5z"/><path fill="#FFFFFF" d="M110.5,58.6h-9.7V42.3h3.7v13.4h6V58.6z"/><path fill="#FFFFFF" d="M116.2,58.6h-3.7V42.3h3.7V58.6z"/><path fill="#FFFFFF" d="M129.7,54c0,1.5-0.6,2.7-1.7,3.6s-2.7,1.3-4.7,1.3c-1.7,0-3.1-0.3-4.2-0.9v-3.6c1.3,1.1,2.7,1.7,4.3,1.7c0.8,0,1.3-0.2,1.8-0.5c0.4-0.3,0.6-0.7,0.6-1.2c0-0.5-0.2-0.9-0.6-1.3c-0.4-0.4-1.2-0.8-2.4-1.4c-2.5-1.2-3.7-2.8-3.7-4.8c0-1.5,0.5-2.6,1.6-3.5c1.1-0.9,2.5-1.3,4.3-1.3c1.6,0,2.9,0.2,4,0.6V46c-1.1-0.8-2.4-1.1-3.8-1.1c-0.7,0-1.3,0.1-1.7,0.4c-0.4,0.3-0.6,0.7-0.6,1.2c0,0.5,0.2,0.9,0.5,1.3c0.3,0.3,1,0.7,2,1.2c1.5,0.7,2.6,1.5,3.3,2.2C129.4,52,129.7,52.9,129.7,54z"/><path fill="#FFFFFF" d="M146.4,58.6h-3.7V52h-6.8v6.7h-3.7V42.3h3.7v6.5h6.8v-6.5h3.7V58.6z"/><path fill="#FFFFFF" d="M53.7,90.9c-1.6,0.9-3.6,1.4-5.9,1.4c-2.6,0-4.7-0.7-6.2-2.2c-1.5-1.5-2.3-3.5-2.3-6c0-1.7,0.4-3.2,1.1-4.5c0.8-1.3,1.8-2.4,3.2-3.1c1.4-0.7,3-1.1,4.7-1.1c1.7,0,3.2,0.2,4.6,0.7v3.5c-1.3-0.7-2.8-1.1-4.6-1.1c-1,0-1.9,0.2-2.7,0.7c-0.8,0.5-1.4,1.1-1.8,1.9c-0.4,0.8-0.6,1.8-0.6,2.9c0,1.7,0.4,3,1.3,3.9c0.9,0.9,2,1.4,3.5,1.4c0.9,0,1.6-0.1,2.1-0.4v-3.2h-3.3v-2.9h6.9V90.9z"/><path fill="#FFFFFF" d="M69.4,92h-4.2l-1.7-4.2c-0.5-1.4-1.3-2.1-2.2-2.1h-0.8V92h-3.7V75.6h5.8c4,0,5.9,1.5,5.9,4.4c0,1.1-0.3,2.1-1,2.9c-0.6,0.8-1.6,1.3-2.7,1.6v0c1,0.3,1.7,1.1,2.3,2.5L69.4,92z M64.7,80.5c0-1.4-0.9-2.1-2.6-2.1h-1.7v4.5h1.6c0.8,0,1.4-0.2,1.9-0.7S64.7,81.2,64.7,80.5z"/><path fill="#FFFFFF" d="M85.9,92h-4l-1.2-3.6h-5.8L73.8,92h-4l5.9-16.3h4.4L85.9,92z M79.9,85.5l-2-6.4h-0.1l-2.1,6.4H79.9z"/><path fill="#FFFFFF" d="M106.4,92h-3.6V79.8h-0.1L98.5,92h-3l-4.3-12h-0.1v12h-3.3V75.6h5.4l4,11.5h0.1l4-11.5h5.3V92z"/><path fill="#FFFFFF" d="M128.7,92H125V79.8h-0.1L120.7,92h-3l-4.3-12h-0.1v12H110V75.6h5.4l4,11.5h0.1l4-11.5h5.3V92z"/><path fill="#FFFFFF" d="M146.6,92h-4l-1.2-3.6h-5.8l-1.2,3.6h-4l5.9-16.3h4.4L146.6,92z M140.6,85.5l-2-6.4h-0.1l-2.1,6.4H140.6z"/><path fill="#FFFFFF" d="M161.1,92h-4.2l-1.7-4.2c-0.5-1.4-1.3-2.1-2.2-2.1h-0.8V92h-3.7V75.6h5.8c4,0,5.9,1.5,5.9,4.4c0,1.1-0.3,2.1-1,2.9c-0.6,0.8-1.6,1.3-2.7,1.6v0c1,0.3,1.7,1.1,2.3,2.5L161.1,92z M156.5,80.5c0-1.4-0.9-2.1-2.6-2.1h-1.7v4.5h1.6c0.8,0,1.4-0.2,1.9-0.7C156.2,81.8,156.5,81.2,156.5,80.5z"/><path fill="#191919" d="M40.3,110.7h-6.4v5.7h5.9v1.7h-5.9v7.2H32V109h8.3V110.7z"/><path fill="#191919" d="M57.6,116.9c0,1.7-0.3,3.3-1,4.6c-0.6,1.3-1.5,2.3-2.7,3c-1.2,0.7-2.6,1.1-4.1,1.1c-1.5,0-2.8-0.3-4-1s-2.1-1.7-2.7-2.9c-0.6-1.3-1-2.7-1-4.3c0-1.7,0.3-3.2,1-4.6c0.6-1.3,1.6-2.3,2.8-3c1.2-0.7,2.6-1.1,4.2-1.1c1.5,0,2.8,0.3,3.9,1c1.2,0.7,2,1.7,2.7,2.9C57.3,113.9,57.6,115.3,57.6,116.9z M55.6,117.2c0-2.1-0.5-3.8-1.5-5c-1-1.2-2.4-1.8-4.2-1.8c-1.1,0-2.1,0.3-3,0.8s-1.6,1.4-2.1,2.4c-0.5,1-0.7,2.2-0.7,3.5c0,1.3,0.2,2.5,0.7,3.5c0.5,1,1.1,1.8,2,2.4c0.9,0.6,1.8,0.8,3,0.8c1.8,0,3.2-0.6,4.2-1.8C55.1,120.9,55.6,119.3,55.6,117.2z"/><path fill="#191919" d="M71.2,125.3h-2.3l-2.1-4.9c-0.6-1.4-1.4-2-2.5-2h-1.7v7h-1.9V109h4.9c1.6,0,2.8,0.4,3.7,1.2c0.9,0.8,1.3,1.8,1.3,3.2c0,1.2-0.3,2.1-1,3c-0.7,0.8-1.5,1.3-2.6,1.6v0c0.6,0.2,1.2,0.9,1.7,1.9L71.2,125.3z M68.6,113.5c0-0.9-0.3-1.6-0.8-2s-1.4-0.7-2.5-0.7h-2.6v5.9h2.5c1,0,1.8-0.3,2.5-0.9S68.6,114.4,68.6,113.5z"/><path fill="#191919" d="M92.1,125.3h-2.3l-2.1-4.9c-0.6-1.4-1.4-2-2.5-2h-1.7v7h-1.9V109h4.9c1.6,0,2.8,0.4,3.7,1.2c0.9,0.8,1.3,1.8,1.3,3.2c0,1.2-0.3,2.1-1,3c-0.7,0.8-1.5,1.3-2.6,1.6v0c0.6,0.2,1.2,0.9,1.7,1.9L92.1,125.3z M89.5,113.5c0-0.9-0.3-1.6-0.8-2s-1.4-0.7-2.5-0.7h-2.6v5.9h2.5c1,0,1.8-0.3,2.5-0.9S89.5,114.4,89.5,113.5z"/><path fill="#191919" d="M106.9,118.7c0,4.6-2.1,6.9-6.2,6.9c-4,0-5.9-2.2-5.9-6.6v-10h1.9v9.9c0,3.3,1.4,5,4.2,5c2.7,0,4.1-1.6,4.1-4.9v-10h1.9V118.7z"/><path fill="#191919" d="M119.2,121.2c0,1.4-0.5,2.5-1.5,3.2c-1,0.8-2.3,1.2-4,1.2c-0.6,0-1.3-0.1-2.1-0.3c-0.8-0.2-1.3-0.4-1.6-0.6v-2.3c0.5,0.4,1.1,0.8,1.8,1s1.5,0.4,2.1,0.4c2.1,0,3.1-0.8,3.1-2.4c0-0.7-0.2-1.3-0.7-1.8c-0.4-0.5-1.4-1.1-2.8-1.9c-1.3-0.8-2.3-1.5-2.8-2.2s-0.8-1.5-0.8-2.5c0-1.3,0.5-2.3,1.4-3.1c1-0.8,2.2-1.2,3.7-1.2c1.5,0,2.5,0.2,3.2,0.6v2.1c-0.9-0.7-2-1-3.3-1c-0.9,0-1.6,0.2-2.2,0.7c-0.6,0.5-0.9,1-0.9,1.8c0,0.5,0.1,1,0.3,1.3c0.2,0.3,0.5,0.6,0.9,1s1.1,0.7,2.1,1.3c1.4,0.8,2.5,1.6,3,2.3S119.2,120.2,119.2,121.2z"/><path fill="#191919" d="M130.7,121.2c0,1.4-0.5,2.5-1.5,3.2c-1,0.8-2.3,1.2-4,1.2c-0.6,0-1.3-0.1-2.1-0.3c-0.8-0.2-1.3-0.4-1.6-0.6v-2.3c0.5,0.4,1.1,0.8,1.8,1s1.5,0.4,2.1,0.4c2.1,0,3.1-0.8,3.1-2.4c0-0.7-0.2-1.3-0.7-1.8c-0.4-0.5-1.4-1.1-2.8-1.9c-1.3-0.8-2.3-1.5-2.8-2.2s-0.8-1.5-0.8-2.5c0-1.3,0.5-2.3,1.4-3.1c1-0.8,2.2-1.2,3.7-1.2c1.5,0,2.5,0.2,3.2,0.6v2.1c-0.9-0.7-2-1-3.3-1c-0.9,0-1.6,0.2-2.2,0.7c-0.6,0.5-0.9,1-0.9,1.8c0,0.5,0.1,1,0.3,1.3c0.2,0.3,0.5,0.6,0.9,1s1.1,0.7,2.1,1.3c1.4,0.8,2.5,1.6,3,2.3S130.7,120.2,130.7,121.2z"/><path fill="#191919" d="M135.7,125.3h-1.9V109h1.9V125.3z"/><path fill="#191919" d="M152.6,125.3h-2.1l-1.7-4.6h-6.9l-1.6,4.6H138l6.2-16.3h2L152.6,125.3z M148.1,119l-2.8-7.6h0l-2.8,7.6H148.1z"/><path fill="#191919" d="M168,125.3h-2.3l-8.9-13.7h-0.1v13.7h-1.9V109h2.5l8.7,13.7h0V109h1.9V125.3z"/><path fill="#191919" d="M59.9,154.5c0,1.4-0.5,2.5-1.5,3.2s-2.3,1.2-4,1.2c-0.6,0-1.3-0.1-2.1-0.3c-0.8-0.2-1.3-0.4-1.6-0.6v-2.3c0.5,0.4,1.1,0.8,1.8,1c0.8,0.3,1.5,0.4,2.1,0.4c2.1,0,3.1-0.8,3.1-2.4c0-0.7-0.2-1.3-0.7-1.8c-0.4-0.5-1.4-1.1-2.8-1.9c-1.3-0.8-2.3-1.5-2.8-2.2c-0.5-0.7-0.8-1.5-0.8-2.5c0-1.3,0.5-2.3,1.4-3.1c1-0.8,2.2-1.2,3.7-1.2c1.5,0,2.5,0.2,3.2,0.6v2.1c-0.9-0.7-2-1-3.3-1c-0.9,0-1.6,0.2-2.2,0.7c-0.6,0.5-0.9,1-0.9,1.8c0,0.5,0.1,1,0.3,1.3c0.2,0.3,0.5,0.6,0.9,1s1.1,0.7,2.1,1.3c1.4,0.8,2.5,1.6,3,2.3C59.7,152.8,59.9,153.6,59.9,154.5z"/><path fill="#191919" d="M73.1,147.2c0,1.6-0.5,2.9-1.6,3.8c-1.1,1-2.5,1.5-4.3,1.5H65v6.2h-1.9v-16.3h4.5c1.7,0,3.1,0.4,4.1,1.3C72.6,144.4,73.1,145.6,73.1,147.2z M71.1,147.3c0-2.2-1.3-3.2-3.8-3.2H65v6.7h2c1.3,0,2.3-0.3,3-0.9C70.7,149.2,71.1,148.4,71.1,147.3z"/><path fill="#191919" d="M84.7,158.6H76v-16.3h8.3v1.7H78v5.4h5.9v1.7H78v5.7h6.7V158.6z"/><path fill="#191919" d="M100.4,158.6h-2.1l-1.7-4.6h-6.9l-1.6,4.6h-2.1l6.2-16.3h2L100.4,158.6z M95.9,152.3l-2.8-7.6h0l-2.8,7.6H95.9z"/><path fill="#191919" d="M114,158.6h-2.7l-6.7-8h0v8h-1.9v-16.3h1.9v7.6h0l6.5-7.6h2.4l-7,7.8L114,158.6z"/><path fill="#191919" d="M124.7,158.6h-8.7v-16.3h8.3v1.7H118v5.4h5.9v1.7H118v5.7h6.7V158.6z"/><path fill="#191919" d="M138.3,158.6H136l-2.1-4.9c-0.6-1.4-1.4-2-2.5-2h-1.7v7h-1.9v-16.3h4.9c1.6,0,2.8,0.4,3.7,1.2s1.3,1.8,1.3,3.2c0,1.2-0.3,2.1-1,3c-0.7,0.8-1.5,1.3-2.6,1.6v0c0.6,0.2,1.2,0.9,1.7,1.9L138.3,158.6z M135.6,146.8c0-0.9-0.3-1.6-0.8-2s-1.4-0.7-2.5-0.7h-2.6v5.9h2.5c1,0,1.8-0.3,2.5-0.9C135.3,148.5,135.6,147.7,135.6,146.8z"/><path fill="#191919" d="M149.4,154.5c0,1.4-0.5,2.5-1.5,3.2c-1,0.8-2.3,1.2-4,1.2c-0.6,0-1.3-0.1-2.1-0.3c-0.8-0.2-1.3-0.4-1.6-0.6v-2.3c0.5,0.4,1.1,0.8,1.8,1s1.5,0.4,2.1,0.4c2.1,0,3.1-0.8,3.1-2.4c0-0.7-0.2-1.3-0.7-1.8c-0.4-0.5-1.4-1.1-2.8-1.9c-1.3-0.8-2.3-1.5-2.8-2.2s-0.8-1.5-0.8-2.5c0-1.3,0.5-2.3,1.4-3.1c1-0.8,2.2-1.2,3.7-1.2c1.5,0,2.5,0.2,3.2,0.6v2.1c-0.9-0.7-2-1-3.3-1c-0.9,0-1.6,0.2-2.2,0.7c-0.6,0.5-0.9,1-0.9,1.8c0,0.5,0.1,1,0.3,1.3c0.2,0.3,0.5,0.6,0.9,1s1.1,0.7,2.1,1.3c1.4,0.8,2.5,1.6,3,2.3S149.4,153.6,149.4,154.5z"/></g></svg>
