<svg version="1.1" xmlns="http://www.w3.org/2000/svg" xmlns:xlink="http://www.w3.org/1999/xlink" x="0px" y="0px" width="646px" height="496px" viewBox="0 0 646 496" enable-background="new 0 0 646 496" xml:space="preserve"><g><path fill="#35373C" d="M579.4,266L172.5,455.6L66.9,229.3l392-182.8l11-5.2l4-1.6L579.4,266L579.4,266z M75.8,320.3c-15.9,12-31.9-13.3-17.4-23.7C74.7,285.1,92,308.1,75.8,320.3L75.8,320.3z M561.9,161.4c4.9,10.4-6.4,15.6-11.3,5.3l-19.4-41.6c-4.9-10.4,6.2-16.1,11.3-5.3L561.9,161.4L561.9,161.4z M115.2,357.2c3.1,6.7,3.1,10.5-4,13.8c-21.5,10-31.1,18.4-36.8,6.2c-10.6-22.8-18.1-30.5-5.1-36.5C105.3,323.8,98.5,321.3,115.2,357.2L115.2,357.2z M564.7,138.2c-3.2,6.3-10.4,0.3-7.5-4.1C560,129.8,567.4,132.7,564.7,138.2L564.7,138.2z M121.5,414.9c-15.7,13.5-33.7-11-18.8-22.7C118,380.3,136.1,402.3,121.5,414.9L121.5,414.9z M376.8,61.1c-0.1,0.2-1.1,4-1.2,4.1c-1.3,1.7-3.6,2.5-5.7,3.4c-4,1.8-7.9,3.6-11.8,5.5L18,232.6c-30,13.9-16.2,30.4-3,58.6l67.7,145.2c6.4,13.8,20.9,51.2,30.2,56.5c11.6,6.6,18.3,1.7,30.4-4L627.8,263c9.2-4.3,13.5-5.6,16.4-14c3-8.7,2.5-10.2-2.5-20.7L573.9,83.2c-8.1-17.4-25.9-57.6-34-72.9c-3.8-7.2-9.6-9.5-16.8-10.2l-3.9,0c-6.2,0.9-84.2,38.1-89.8,40.8l-2.8-1.9c-0.5-0.2-0.4-0.5-2.2-0.1L376.8,61.1L376.8,61.1z"/></g></svg>