<svg version="1.1" xmlns="http://www.w3.org/2000/svg" xmlns:xlink="http://www.w3.org/1999/xlink" x="0px" y="0px" width="469px" height="625px" viewBox="0 0 469 625" enable-background="new 0 0 469 625" xml:space="preserve"><path fill="#35373C" d="M266.9,508c0-46.4,59.5-39,59.5-5.3c0,10.8-0.7,15.9-8.9,24.1c-1.2,1.2-2.2,2.2-3.6,3.2C295.7,543.2,266.9,529.8,266.9,508L266.9,508z M48.6,166.3l63.7-19.6c5.5-1.7,10.9-3.6,15.9-5.3c40.2-13.5,87.6-26.8,127.7-40.2l48.1-15.3c2.4,4.1,5.2,14.9,6.8,19.6c2.2,6.7,4.3,14.1,6.6,21.1c2.3,6.8,4.3,13.7,6.6,21.1c2.1,6.7,4.7,13.3,6.9,20.8c2.3,7.7,3.9,13,6.3,20.1l59.5,187.4c2.1,6.7,4.7,13.3,6.9,20.8c1.8,6.1,5.7,16.3,6.1,21.6l-255.3,80.5c-3.7-5.3-5.2-13.7-7.4-20.3C119.9,397.8,94.9,310,68,230.1C64.9,221,48.8,172.2,48.6,166.3L48.6,166.3z M128,113.5c-12.8,0-23.5-20.8,2.6-27.7c13.2-3.5,61.3-21.1,70.1-21.1c12,0,23.5,20.3-2.9,27.4l-46.2,14.6C147.2,108.2,132.2,113.5,128,113.5L128,113.5z M1,130.6c0,21.3,1.3,23.1,8.1,43.4l115.1,361.5c7.2,21.2,11.8,44.9,24.7,61.1c22.3,27.9,55.7,33.9,89,23.7l129.3-41.2c36-11,70.3-16.4,89.9-46.2c18-27.3,14.6-51.2,4.7-80.8c-3-9-5.4-17.6-8.3-26.1c-28.1-83.5-54.8-176.4-82.7-259.3c-7-20.8-35.3-116.3-42.4-128C314.6,16,291.1,0,260.3,0c-17.7,0-57.6,14.7-75.9,20.6c-25.5,8.3-49.1,15-74.4,23.4c-16.4,5.4-61.1,17.8-72.5,25.3C25.9,77,20.3,82.5,12.9,93.7C7.2,102.2,1,116.5,1,130.6L1,130.6z"/></svg>