<svg version="1.1" xmlns="http://www.w3.org/2000/svg" x="0px" y="0px" viewBox="0 0 1792 1792" enable-background="new 0 0 1792 1792"><path d="M1512,1200.4c0,77.2-14.5,146.4-42.9,205.8c-29,58.8-67.6,107.8-117.2,146.4c-58.6,45.9-122,79.6-190.8,98c-70.1,19.6-157,29.4-265.1,29.4H280V112h544.1c112.9,0,199.3,4.3,256.7,13.5c58.6,8.6,112.9,27,164.3,55.1c55.6,30,96.6,71.1,123.2,121.3c26.6,50.2,41.1,108.4,41.1,174.6c0,76.6-18.7,144.5-56.8,204c-36.8,59.4-89.4,103.5-155.8,131.7v8.6c95.4,20.8,170.3,61.9,227.7,124.3C1483,1008.1,1510.8,1093.8,1512,1200.4L1512,1200.4z M1016.2,555.5c0-25.1-6-51.5-18.7-77.2c-12.1-26.3-32-45.9-59.8-57.6c-26-11.6-55.6-17.8-90.6-19s-86.4-1.8-155.8-1.8h-26.6v332.6h49.5c65.8,0,111.7-1.2,138.9-1.8c26.6-1.8,53.1-8.6,82.1-22c30.8-14.7,52.5-34.3,63.4-60.6c12.1-26.3,17.5-56.4,17.5-90.7l0,0L1016.2,555.5L1016.2,555.5z M1114.6,1193.7c0-49-9.1-85.8-29-113.9c-19.3-27-48.3-48.4-86.4-61.9c-23.6-9.2-55.6-14.7-96.6-15.9s-96.6-1.8-165.5-1.8h-70.7v392H687c100.9,0,170.3-1.2,208.4-1.8c39.3-1.8,77.9-10.4,117.8-28.2c35-15.9,60.4-37.4,77.3-68C1106.8,1264.7,1114.6,1231.7,1114.6,1193.7z"/></svg>
