<svg xmlns="http://www.w3.org/2000/svg" version="1.1" width="294" height="294"><desc>tel:+79260670857</desc><rect style="fill:rgb(255, 255, 255);fill-opacity:1" x="0" y="0" width="294" height="294"/><g id="elements"><path style="fill:rgb(54, 54, 54)" d="M 0,0 l 14,0 0,14 -14,0 z M 14,0 l 14,0 0,14 -14,0 z M 28,0 l 14,0 0,14 -14,0 z M 42,0 l 14,0 0,14 -14,0 z M 56,0 l 14,0 0,14 -14,0 z M 70,0 l 14,0 0,14 -14,0 z M 84,0 l 14,0 0,14 -14,0 z M 140,0 l 14,0 0,14 -14,0 z M 154,0 l 14,0 0,14 -14,0 z M 168,0 l 14,0 0,14 -14,0 z M 196,0 l 14,0 0,14 -14,0 z M 210,0 l 14,0 0,14 -14,0 z M 224,0 l 14,0 0,14 -14,0 z M 238,0 l 14,0 0,14 -14,0 z M 252,0 l 14,0 0,14 -14,0 z M 266,0 l 14,0 0,14 -14,0 z M 280,0 l 14,0 0,14 -14,0 z M 0,14 l 14,0 0,14 -14,0 z M 84,14 l 14,0 0,14 -14,0 z M 112,14 l 14,0 0,14 -14,0 z M 126,14 l 14,0 0,14 -14,0 z M 140,14 l 14,0 0,14 -14,0 z M 168,14 l 14,0 0,14 -14,0 z M 196,14 l 14,0 0,14 -14,0 z M 280,14 l 14,0 0,14 -14,0 z M 0,28 l 14,0 0,14 -14,0 z M 28,28 l 14,0 0,14 -14,0 z M 42,28 l 14,0 0,14 -14,0 z M 56,28 l 14,0 0,14 -14,0 z M 84,28 l 14,0 0,14 -14,0 z M 140,28 l 14,0 0,14 -14,0 z M 154,28 l 14,0 0,14 -14,0 z M 168,28 l 14,0 0,14 -14,0 z M 196,28 l 14,0 0,14 -14,0 z M 224,28 l 14,0 0,14 -14,0 z M 238,28 l 14,0 0,14 -14,0 z M 252,28 l 14,0 0,14 -14,0 z M 280,28 l 14,0 0,14 -14,0 z M 0,42 l 14,0 0,14 -14,0 z M 28,42 l 14,0 0,14 -14,0 z M 42,42 l 14,0 0,14 -14,0 z M 56,42 l 14,0 0,14 -14,0 z M 84,42 l 14,0 0,14 -14,0 z M 112,42 l 14,0 0,14 -14,0 z M 126,42 l 14,0 0,14 -14,0 z M 168,42 l 14,0 0,14 -14,0 z M 196,42 l 14,0 0,14 -14,0 z M 224,42 l 14,0 0,14 -14,0 z M 238,42 l 14,0 0,14 -14,0 z M 252,42 l 14,0 0,14 -14,0 z M 280,42 l 14,0 0,14 -14,0 z M 0,56 l 14,0 0,14 -14,0 z M 28,56 l 14,0 0,14 -14,0 z M 42,56 l 14,0 0,14 -14,0 z M 56,56 l 14,0 0,14 -14,0 z M 84,56 l 14,0 0,14 -14,0 z M 126,56 l 14,0 0,14 -14,0 z M 168,56 l 14,0 0,14 -14,0 z M 196,56 l 14,0 0,14 -14,0 z M 224,56 l 14,0 0,14 -14,0 z M 238,56 l 14,0 0,14 -14,0 z M 252,56 l 14,0 0,14 -14,0 z M 280,56 l 14,0 0,14 -14,0 z M 0,70 l 14,0 0,14 -14,0 z M 84,70 l 14,0 0,14 -14,0 z M 112,70 l 14,0 0,14 -14,0 z M 154,70 l 14,0 0,14 -14,0 z M 196,70 l 14,0 0,14 -14,0 z M 280,70 l 14,0 0,14 -14,0 z M 0,84 l 14,0 0,14 -14,0 z M 14,84 l 14,0 0,14 -14,0 z M 28,84 l 14,0 0,14 -14,0 z M 42,84 l 14,0 0,14 -14,0 z M 56,84 l 14,0 0,14 -14,0 z M 70,84 l 14,0 0,14 -14,0 z M 84,84 l 14,0 0,14 -14,0 z M 112,84 l 14,0 0,14 -14,0 z M 140,84 l 14,0 0,14 -14,0 z M 168,84 l 14,0 0,14 -14,0 z M 196,84 l 14,0 0,14 -14,0 z M 210,84 l 14,0 0,14 -14,0 z M 224,84 l 14,0 0,14 -14,0 z M 238,84 l 14,0 0,14 -14,0 z M 252,84 l 14,0 0,14 -14,0 z M 266,84 l 14,0 0,14 -14,0 z M 280,84 l 14,0 0,14 -14,0 z M 126,98 l 14,0 0,14 -14,0 z M 0,112 l 14,0 0,14 -14,0 z M 14,112 l 14,0 0,14 -14,0 z M 28,112 l 14,0 0,14 -14,0 z M 42,112 l 14,0 0,14 -14,0 z M 56,112 l 14,0 0,14 -14,0 z M 84,112 l 14,0 0,14 -14,0 z M 98,112 l 14,0 0,14 -14,0 z M 112,112 l 14,0 0,14 -14,0 z M 154,112 l 14,0 0,14 -14,0 z M 182,112 l 14,0 0,14 -14,0 z M 210,112 l 14,0 0,14 -14,0 z M 238,112 l 14,0 0,14 -14,0 z M 266,112 l 14,0 0,14 -14,0 z M 98,126 l 14,0 0,14 -14,0 z M 112,126 l 14,0 0,14 -14,0 z M 126,126 l 14,0 0,14 -14,0 z M 140,126 l 14,0 0,14 -14,0 z M 168,126 l 14,0 0,14 -14,0 z M 182,126 l 14,0 0,14 -14,0 z M 196,126 l 14,0 0,14 -14,0 z M 210,126 l 14,0 0,14 -14,0 z M 224,126 l 14,0 0,14 -14,0 z M 238,126 l 14,0 0,14 -14,0 z M 252,126 l 14,0 0,14 -14,0 z M 280,126 l 14,0 0,14 -14,0 z M 0,140 l 14,0 0,14 -14,0 z M 28,140 l 14,0 0,14 -14,0 z M 56,140 l 14,0 0,14 -14,0 z M 70,140 l 14,0 0,14 -14,0 z M 84,140 l 14,0 0,14 -14,0 z M 98,140 l 14,0 0,14 -14,0 z M 126,140 l 14,0 0,14 -14,0 z M 168,140 l 14,0 0,14 -14,0 z M 182,140 l 14,0 0,14 -14,0 z M 196,140 l 14,0 0,14 -14,0 z M 210,140 l 14,0 0,14 -14,0 z M 238,140 l 14,0 0,14 -14,0 z M 252,140 l 14,0 0,14 -14,0 z M 266,140 l 14,0 0,14 -14,0 z M 14,154 l 14,0 0,14 -14,0 z M 28,154 l 14,0 0,14 -14,0 z M 56,154 l 14,0 0,14 -14,0 z M 112,154 l 14,0 0,14 -14,0 z M 168,154 l 14,0 0,14 -14,0 z M 210,154 l 14,0 0,14 -14,0 z M 238,154 l 14,0 0,14 -14,0 z M 252,154 l 14,0 0,14 -14,0 z M 14,168 l 14,0 0,14 -14,0 z M 28,168 l 14,0 0,14 -14,0 z M 42,168 l 14,0 0,14 -14,0 z M 56,168 l 14,0 0,14 -14,0 z M 70,168 l 14,0 0,14 -14,0 z M 84,168 l 14,0 0,14 -14,0 z M 168,168 l 14,0 0,14 -14,0 z M 182,168 l 14,0 0,14 -14,0 z M 210,168 l 14,0 0,14 -14,0 z M 266,168 l 14,0 0,14 -14,0 z M 112,182 l 14,0 0,14 -14,0 z M 126,182 l 14,0 0,14 -14,0 z M 140,182 l 14,0 0,14 -14,0 z M 196,182 l 14,0 0,14 -14,0 z M 238,182 l 14,0 0,14 -14,0 z M 266,182 l 14,0 0,14 -14,0 z M 280,182 l 14,0 0,14 -14,0 z M 0,196 l 14,0 0,14 -14,0 z M 14,196 l 14,0 0,14 -14,0 z M 28,196 l 14,0 0,14 -14,0 z M 42,196 l 14,0 0,14 -14,0 z M 56,196 l 14,0 0,14 -14,0 z M 70,196 l 14,0 0,14 -14,0 z M 84,196 l 14,0 0,14 -14,0 z M 112,196 l 14,0 0,14 -14,0 z M 168,196 l 14,0 0,14 -14,0 z M 210,196 l 14,0 0,14 -14,0 z M 252,196 l 14,0 0,14 -14,0 z M 266,196 l 14,0 0,14 -14,0 z M 0,210 l 14,0 0,14 -14,0 z M 84,210 l 14,0 0,14 -14,0 z M 126,210 l 14,0 0,14 -14,0 z M 154,210 l 14,0 0,14 -14,0 z M 196,210 l 14,0 0,14 -14,0 z M 210,210 l 14,0 0,14 -14,0 z M 252,210 l 14,0 0,14 -14,0 z M 266,210 l 14,0 0,14 -14,0 z M 280,210 l 14,0 0,14 -14,0 z M 0,224 l 14,0 0,14 -14,0 z M 28,224 l 14,0 0,14 -14,0 z M 42,224 l 14,0 0,14 -14,0 z M 56,224 l 14,0 0,14 -14,0 z M 84,224 l 14,0 0,14 -14,0 z M 112,224 l 14,0 0,14 -14,0 z M 126,224 l 14,0 0,14 -14,0 z M 154,224 l 14,0 0,14 -14,0 z M 168,224 l 14,0 0,14 -14,0 z M 182,224 l 14,0 0,14 -14,0 z M 0,238 l 14,0 0,14 -14,0 z M 28,238 l 14,0 0,14 -14,0 z M 42,238 l 14,0 0,14 -14,0 z M 56,238 l 14,0 0,14 -14,0 z M 84,238 l 14,0 0,14 -14,0 z M 112,238 l 14,0 0,14 -14,0 z M 126,238 l 14,0 0,14 -14,0 z M 168,238 l 14,0 0,14 -14,0 z M 182,238 l 14,0 0,14 -14,0 z M 210,238 l 14,0 0,14 -14,0 z M 224,238 l 14,0 0,14 -14,0 z M 252,238 l 14,0 0,14 -14,0 z M 0,252 l 14,0 0,14 -14,0 z M 28,252 l 14,0 0,14 -14,0 z M 42,252 l 14,0 0,14 -14,0 z M 56,252 l 14,0 0,14 -14,0 z M 84,252 l 14,0 0,14 -14,0 z M 112,252 l 14,0 0,14 -14,0 z M 154,252 l 14,0 0,14 -14,0 z M 168,252 l 14,0 0,14 -14,0 z M 182,252 l 14,0 0,14 -14,0 z M 196,252 l 14,0 0,14 -14,0 z M 224,252 l 14,0 0,14 -14,0 z M 252,252 l 14,0 0,14 -14,0 z M 0,266 l 14,0 0,14 -14,0 z M 84,266 l 14,0 0,14 -14,0 z M 112,266 l 14,0 0,14 -14,0 z M 126,266 l 14,0 0,14 -14,0 z M 140,266 l 14,0 0,14 -14,0 z M 168,266 l 14,0 0,14 -14,0 z M 196,266 l 14,0 0,14 -14,0 z M 224,266 l 14,0 0,14 -14,0 z M 252,266 l 14,0 0,14 -14,0 z M 0,280 l 14,0 0,14 -14,0 z M 14,280 l 14,0 0,14 -14,0 z M 28,280 l 14,0 0,14 -14,0 z M 42,280 l 14,0 0,14 -14,0 z M 56,280 l 14,0 0,14 -14,0 z M 70,280 l 14,0 0,14 -14,0 z M 84,280 l 14,0 0,14 -14,0 z M 112,280 l 14,0 0,14 -14,0 z M 154,280 l 14,0 0,14 -14,0 z M 196,280 l 14,0 0,14 -14,0 z M 238,280 l 14,0 0,14 -14,0 z M 252,280 l 14,0 0,14 -14,0 z M 266,280 l 14,0 0,14 -14,0 z "/></g></svg>