<svg xmlns="http://www.w3.org/2000/svg" version="1.1" width="300" height="300"><desc>mailto:englishextra@mail.ru</desc><rect style="fill:rgb(255, 255, 255);fill-opacity:1" x="0" y="0" width="300" height="300"/><g id="elements"><path style="fill:rgb(54, 54, 54)" d="M 0,0 l 12,0 0,12 -12,0 z M 12,0 l 12,0 0,12 -12,0 z M 24,0 l 12,0 0,12 -12,0 z M 36,0 l 12,0 0,12 -12,0 z M 48,0 l 12,0 0,12 -12,0 z M 60,0 l 12,0 0,12 -12,0 z M 72,0 l 12,0 0,12 -12,0 z M 120,0 l 12,0 0,12 -12,0 z M 144,0 l 12,0 0,12 -12,0 z M 168,0 l 12,0 0,12 -12,0 z M 192,0 l 12,0 0,12 -12,0 z M 216,0 l 12,0 0,12 -12,0 z M 228,0 l 12,0 0,12 -12,0 z M 240,0 l 12,0 0,12 -12,0 z M 252,0 l 12,0 0,12 -12,0 z M 264,0 l 12,0 0,12 -12,0 z M 276,0 l 12,0 0,12 -12,0 z M 288,0 l 12,0 0,12 -12,0 z M 0,12 l 12,0 0,12 -12,0 z M 72,12 l 12,0 0,12 -12,0 z M 96,12 l 12,0 0,12 -12,0 z M 120,12 l 12,0 0,12 -12,0 z M 156,12 l 12,0 0,12 -12,0 z M 180,12 l 12,0 0,12 -12,0 z M 216,12 l 12,0 0,12 -12,0 z M 288,12 l 12,0 0,12 -12,0 z M 0,24 l 12,0 0,12 -12,0 z M 24,24 l 12,0 0,12 -12,0 z M 36,24 l 12,0 0,12 -12,0 z M 48,24 l 12,0 0,12 -12,0 z M 72,24 l 12,0 0,12 -12,0 z M 144,24 l 12,0 0,12 -12,0 z M 180,24 l 12,0 0,12 -12,0 z M 192,24 l 12,0 0,12 -12,0 z M 216,24 l 12,0 0,12 -12,0 z M 240,24 l 12,0 0,12 -12,0 z M 252,24 l 12,0 0,12 -12,0 z M 264,24 l 12,0 0,12 -12,0 z M 288,24 l 12,0 0,12 -12,0 z M 0,36 l 12,0 0,12 -12,0 z M 24,36 l 12,0 0,12 -12,0 z M 36,36 l 12,0 0,12 -12,0 z M 48,36 l 12,0 0,12 -12,0 z M 72,36 l 12,0 0,12 -12,0 z M 96,36 l 12,0 0,12 -12,0 z M 108,36 l 12,0 0,12 -12,0 z M 120,36 l 12,0 0,12 -12,0 z M 144,36 l 12,0 0,12 -12,0 z M 156,36 l 12,0 0,12 -12,0 z M 168,36 l 12,0 0,12 -12,0 z M 180,36 l 12,0 0,12 -12,0 z M 192,36 l 12,0 0,12 -12,0 z M 216,36 l 12,0 0,12 -12,0 z M 240,36 l 12,0 0,12 -12,0 z M 252,36 l 12,0 0,12 -12,0 z M 264,36 l 12,0 0,12 -12,0 z M 288,36 l 12,0 0,12 -12,0 z M 0,48 l 12,0 0,12 -12,0 z M 24,48 l 12,0 0,12 -12,0 z M 36,48 l 12,0 0,12 -12,0 z M 48,48 l 12,0 0,12 -12,0 z M 72,48 l 12,0 0,12 -12,0 z M 108,48 l 12,0 0,12 -12,0 z M 192,48 l 12,0 0,12 -12,0 z M 216,48 l 12,0 0,12 -12,0 z M 240,48 l 12,0 0,12 -12,0 z M 252,48 l 12,0 0,12 -12,0 z M 264,48 l 12,0 0,12 -12,0 z M 288,48 l 12,0 0,12 -12,0 z M 0,60 l 12,0 0,12 -12,0 z M 72,60 l 12,0 0,12 -12,0 z M 96,60 l 12,0 0,12 -12,0 z M 108,60 l 12,0 0,12 -12,0 z M 132,60 l 12,0 0,12 -12,0 z M 144,60 l 12,0 0,12 -12,0 z M 180,60 l 12,0 0,12 -12,0 z M 216,60 l 12,0 0,12 -12,0 z M 288,60 l 12,0 0,12 -12,0 z M 0,72 l 12,0 0,12 -12,0 z M 12,72 l 12,0 0,12 -12,0 z M 24,72 l 12,0 0,12 -12,0 z M 36,72 l 12,0 0,12 -12,0 z M 48,72 l 12,0 0,12 -12,0 z M 60,72 l 12,0 0,12 -12,0 z M 72,72 l 12,0 0,12 -12,0 z M 96,72 l 12,0 0,12 -12,0 z M 120,72 l 12,0 0,12 -12,0 z M 144,72 l 12,0 0,12 -12,0 z M 168,72 l 12,0 0,12 -12,0 z M 192,72 l 12,0 0,12 -12,0 z M 216,72 l 12,0 0,12 -12,0 z M 228,72 l 12,0 0,12 -12,0 z M 240,72 l 12,0 0,12 -12,0 z M 252,72 l 12,0 0,12 -12,0 z M 264,72 l 12,0 0,12 -12,0 z M 276,72 l 12,0 0,12 -12,0 z M 288,72 l 12,0 0,12 -12,0 z M 108,84 l 12,0 0,12 -12,0 z M 120,84 l 12,0 0,12 -12,0 z M 132,84 l 12,0 0,12 -12,0 z M 168,84 l 12,0 0,12 -12,0 z M 180,84 l 12,0 0,12 -12,0 z M 0,96 l 12,0 0,12 -12,0 z M 12,96 l 12,0 0,12 -12,0 z M 24,96 l 12,0 0,12 -12,0 z M 36,96 l 12,0 0,12 -12,0 z M 48,96 l 12,0 0,12 -12,0 z M 72,96 l 12,0 0,12 -12,0 z M 84,96 l 12,0 0,12 -12,0 z M 96,96 l 12,0 0,12 -12,0 z M 108,96 l 12,0 0,12 -12,0 z M 132,96 l 12,0 0,12 -12,0 z M 144,96 l 12,0 0,12 -12,0 z M 168,96 l 12,0 0,12 -12,0 z M 192,96 l 12,0 0,12 -12,0 z M 204,96 l 12,0 0,12 -12,0 z M 228,96 l 12,0 0,12 -12,0 z M 252,96 l 12,0 0,12 -12,0 z M 276,96 l 12,0 0,12 -12,0 z M 0,108 l 12,0 0,12 -12,0 z M 12,108 l 12,0 0,12 -12,0 z M 24,108 l 12,0 0,12 -12,0 z M 48,108 l 12,0 0,12 -12,0 z M 60,108 l 12,0 0,12 -12,0 z M 120,108 l 12,0 0,12 -12,0 z M 144,108 l 12,0 0,12 -12,0 z M 192,108 l 12,0 0,12 -12,0 z M 228,108 l 12,0 0,12 -12,0 z M 252,108 l 12,0 0,12 -12,0 z M 264,108 l 12,0 0,12 -12,0 z M 24,120 l 12,0 0,12 -12,0 z M 72,120 l 12,0 0,12 -12,0 z M 84,120 l 12,0 0,12 -12,0 z M 96,120 l 12,0 0,12 -12,0 z M 120,120 l 12,0 0,12 -12,0 z M 180,120 l 12,0 0,12 -12,0 z M 192,120 l 12,0 0,12 -12,0 z M 204,120 l 12,0 0,12 -12,0 z M 216,120 l 12,0 0,12 -12,0 z M 240,120 l 12,0 0,12 -12,0 z M 276,120 l 12,0 0,12 -12,0 z M 288,120 l 12,0 0,12 -12,0 z M 24,132 l 12,0 0,12 -12,0 z M 48,132 l 12,0 0,12 -12,0 z M 84,132 l 12,0 0,12 -12,0 z M 180,132 l 12,0 0,12 -12,0 z M 192,132 l 12,0 0,12 -12,0 z M 204,132 l 12,0 0,12 -12,0 z M 228,132 l 12,0 0,12 -12,0 z M 240,132 l 12,0 0,12 -12,0 z M 276,132 l 12,0 0,12 -12,0 z M 288,132 l 12,0 0,12 -12,0 z M 24,144 l 12,0 0,12 -12,0 z M 36,144 l 12,0 0,12 -12,0 z M 48,144 l 12,0 0,12 -12,0 z M 72,144 l 12,0 0,12 -12,0 z M 108,144 l 12,0 0,12 -12,0 z M 120,144 l 12,0 0,12 -12,0 z M 156,144 l 12,0 0,12 -12,0 z M 168,144 l 12,0 0,12 -12,0 z M 180,144 l 12,0 0,12 -12,0 z M 204,144 l 12,0 0,12 -12,0 z M 216,144 l 12,0 0,12 -12,0 z M 240,144 l 12,0 0,12 -12,0 z M 252,144 l 12,0 0,12 -12,0 z M 264,144 l 12,0 0,12 -12,0 z M 288,144 l 12,0 0,12 -12,0 z M 0,156 l 12,0 0,12 -12,0 z M 36,156 l 12,0 0,12 -12,0 z M 60,156 l 12,0 0,12 -12,0 z M 84,156 l 12,0 0,12 -12,0 z M 96,156 l 12,0 0,12 -12,0 z M 132,156 l 12,0 0,12 -12,0 z M 156,156 l 12,0 0,12 -12,0 z M 192,156 l 12,0 0,12 -12,0 z M 228,156 l 12,0 0,12 -12,0 z M 264,156 l 12,0 0,12 -12,0 z M 0,168 l 12,0 0,12 -12,0 z M 24,168 l 12,0 0,12 -12,0 z M 48,168 l 12,0 0,12 -12,0 z M 72,168 l 12,0 0,12 -12,0 z M 84,168 l 12,0 0,12 -12,0 z M 96,168 l 12,0 0,12 -12,0 z M 108,168 l 12,0 0,12 -12,0 z M 120,168 l 12,0 0,12 -12,0 z M 144,168 l 12,0 0,12 -12,0 z M 168,168 l 12,0 0,12 -12,0 z M 180,168 l 12,0 0,12 -12,0 z M 204,168 l 12,0 0,12 -12,0 z M 228,168 l 12,0 0,12 -12,0 z M 252,168 l 12,0 0,12 -12,0 z M 276,168 l 12,0 0,12 -12,0 z M 288,168 l 12,0 0,12 -12,0 z M 0,180 l 12,0 0,12 -12,0 z M 36,180 l 12,0 0,12 -12,0 z M 48,180 l 12,0 0,12 -12,0 z M 108,180 l 12,0 0,12 -12,0 z M 120,180 l 12,0 0,12 -12,0 z M 132,180 l 12,0 0,12 -12,0 z M 144,180 l 12,0 0,12 -12,0 z M 168,180 l 12,0 0,12 -12,0 z M 180,180 l 12,0 0,12 -12,0 z M 216,180 l 12,0 0,12 -12,0 z M 228,180 l 12,0 0,12 -12,0 z M 276,180 l 12,0 0,12 -12,0 z M 288,180 l 12,0 0,12 -12,0 z M 0,192 l 12,0 0,12 -12,0 z M 48,192 l 12,0 0,12 -12,0 z M 72,192 l 12,0 0,12 -12,0 z M 108,192 l 12,0 0,12 -12,0 z M 120,192 l 12,0 0,12 -12,0 z M 156,192 l 12,0 0,12 -12,0 z M 168,192 l 12,0 0,12 -12,0 z M 192,192 l 12,0 0,12 -12,0 z M 204,192 l 12,0 0,12 -12,0 z M 216,192 l 12,0 0,12 -12,0 z M 228,192 l 12,0 0,12 -12,0 z M 240,192 l 12,0 0,12 -12,0 z M 264,192 l 12,0 0,12 -12,0 z M 276,192 l 12,0 0,12 -12,0 z M 96,204 l 12,0 0,12 -12,0 z M 132,204 l 12,0 0,12 -12,0 z M 180,204 l 12,0 0,12 -12,0 z M 192,204 l 12,0 0,12 -12,0 z M 240,204 l 12,0 0,12 -12,0 z M 0,216 l 12,0 0,12 -12,0 z M 12,216 l 12,0 0,12 -12,0 z M 24,216 l 12,0 0,12 -12,0 z M 36,216 l 12,0 0,12 -12,0 z M 48,216 l 12,0 0,12 -12,0 z M 60,216 l 12,0 0,12 -12,0 z M 72,216 l 12,0 0,12 -12,0 z M 96,216 l 12,0 0,12 -12,0 z M 108,216 l 12,0 0,12 -12,0 z M 120,216 l 12,0 0,12 -12,0 z M 144,216 l 12,0 0,12 -12,0 z M 192,216 l 12,0 0,12 -12,0 z M 216,216 l 12,0 0,12 -12,0 z M 240,216 l 12,0 0,12 -12,0 z M 252,216 l 12,0 0,12 -12,0 z M 276,216 l 12,0 0,12 -12,0 z M 288,216 l 12,0 0,12 -12,0 z M 0,228 l 12,0 0,12 -12,0 z M 72,228 l 12,0 0,12 -12,0 z M 132,228 l 12,0 0,12 -12,0 z M 168,228 l 12,0 0,12 -12,0 z M 192,228 l 12,0 0,12 -12,0 z M 240,228 l 12,0 0,12 -12,0 z M 276,228 l 12,0 0,12 -12,0 z M 0,240 l 12,0 0,12 -12,0 z M 24,240 l 12,0 0,12 -12,0 z M 36,240 l 12,0 0,12 -12,0 z M 48,240 l 12,0 0,12 -12,0 z M 72,240 l 12,0 0,12 -12,0 z M 96,240 l 12,0 0,12 -12,0 z M 108,240 l 12,0 0,12 -12,0 z M 120,240 l 12,0 0,12 -12,0 z M 132,240 l 12,0 0,12 -12,0 z M 144,240 l 12,0 0,12 -12,0 z M 156,240 l 12,0 0,12 -12,0 z M 168,240 l 12,0 0,12 -12,0 z M 180,240 l 12,0 0,12 -12,0 z M 192,240 l 12,0 0,12 -12,0 z M 204,240 l 12,0 0,12 -12,0 z M 216,240 l 12,0 0,12 -12,0 z M 228,240 l 12,0 0,12 -12,0 z M 240,240 l 12,0 0,12 -12,0 z M 252,240 l 12,0 0,12 -12,0 z M 264,240 l 12,0 0,12 -12,0 z M 0,252 l 12,0 0,12 -12,0 z M 24,252 l 12,0 0,12 -12,0 z M 36,252 l 12,0 0,12 -12,0 z M 48,252 l 12,0 0,12 -12,0 z M 72,252 l 12,0 0,12 -12,0 z M 96,252 l 12,0 0,12 -12,0 z M 108,252 l 12,0 0,12 -12,0 z M 120,252 l 12,0 0,12 -12,0 z M 132,252 l 12,0 0,12 -12,0 z M 144,252 l 12,0 0,12 -12,0 z M 156,252 l 12,0 0,12 -12,0 z M 192,252 l 12,0 0,12 -12,0 z M 204,252 l 12,0 0,12 -12,0 z M 216,252 l 12,0 0,12 -12,0 z M 240,252 l 12,0 0,12 -12,0 z M 264,252 l 12,0 0,12 -12,0 z M 276,252 l 12,0 0,12 -12,0 z M 288,252 l 12,0 0,12 -12,0 z M 0,264 l 12,0 0,12 -12,0 z M 24,264 l 12,0 0,12 -12,0 z M 36,264 l 12,0 0,12 -12,0 z M 48,264 l 12,0 0,12 -12,0 z M 72,264 l 12,0 0,12 -12,0 z M 96,264 l 12,0 0,12 -12,0 z M 108,264 l 12,0 0,12 -12,0 z M 120,264 l 12,0 0,12 -12,0 z M 144,264 l 12,0 0,12 -12,0 z M 180,264 l 12,0 0,12 -12,0 z M 228,264 l 12,0 0,12 -12,0 z M 264,264 l 12,0 0,12 -12,0 z M 288,264 l 12,0 0,12 -12,0 z M 0,276 l 12,0 0,12 -12,0 z M 72,276 l 12,0 0,12 -12,0 z M 96,276 l 12,0 0,12 -12,0 z M 168,276 l 12,0 0,12 -12,0 z M 192,276 l 12,0 0,12 -12,0 z M 240,276 l 12,0 0,12 -12,0 z M 252,276 l 12,0 0,12 -12,0 z M 288,276 l 12,0 0,12 -12,0 z M 0,288 l 12,0 0,12 -12,0 z M 12,288 l 12,0 0,12 -12,0 z M 24,288 l 12,0 0,12 -12,0 z M 36,288 l 12,0 0,12 -12,0 z M 48,288 l 12,0 0,12 -12,0 z M 60,288 l 12,0 0,12 -12,0 z M 72,288 l 12,0 0,12 -12,0 z M 96,288 l 12,0 0,12 -12,0 z M 132,288 l 12,0 0,12 -12,0 z M 144,288 l 12,0 0,12 -12,0 z M 156,288 l 12,0 0,12 -12,0 z M 168,288 l 12,0 0,12 -12,0 z M 204,288 l 12,0 0,12 -12,0 z M 216,288 l 12,0 0,12 -12,0 z M 240,288 l 12,0 0,12 -12,0 z M 264,288 l 12,0 0,12 -12,0 z M 276,288 l 12,0 0,12 -12,0 z M 288,288 l 12,0 0,12 -12,0 z "/></g></svg>