<svg version="1.1" xmlns="http://www.w3.org/2000/svg" xmlns:xlink="http://www.w3.org/1999/xlink" x="0px" y="0px" viewBox="0 0 1920 270" style="enable-background:new 0 0 1920 270;" xml:space="preserve"><style type="text/css">.st0{fill:#1CAFF6;}.st1{fill:#FFFFFF;}.st2{fill:#081F2D;}.st3{fill:#FEFEFE;}.st4{fill:#7A4420;}.st5{fill:#BF2E1A;}.st6{fill:#CCCCCC;}</style><rect y="0" class="st0" width="480" height="270"/><g><path class="st1" d="M177.3,130.8c0,0.2,0,0.2,0,0.3c0,2.9-0.2,4.6-0.5,5.4c-0.5,1.2-1,2.1-2.1,2.7c-0.9,0.6-1.9,0.9-3.3,0.9c-1.4,0-2.4-0.3-3.3-0.9c-0.9-0.6-1.5-1.5-1.9-2.7c-0.5-1-0.6-2.9-0.6-5.5c0-0.2,0-0.3,0-0.6v-14.9h-7.9v13c0,0.9,0,1.8,0,2.6c0.2,3.6,0.5,6.2,0.9,7.8c0.9,2.7,2.4,4.8,4.5,6.5c2.1,1.5,5,2.2,8.2,2.2c3.1,0,5.7-0.6,7.8-1.9s3.6-3.1,4.6-5.7c0.7-1.7,1.2-4.6,1.2-8.9c0-0.7,0-1.5,0-2.4v-13.2h-7.8L177.3,130.8C177.1,130.8,177.3,130.8,177.3,130.8z M154.1,105h-7.8v12.2c-0.2,0-0.3-0.2-0.5-0.2c-2.6-1.5-5.4-2.2-8.2-2.2c-4.1,0-7.7,1.4-10.8,4.2c-3.6,3.3-5.4,7.4-5.4,12.2l0,0l0,0c0,4.5,1.7,8.4,4.8,11.5c3.1,3.1,7,4.8,11.4,4.8c3,0,5.8-0.7,8.4-2.1c2.6-1.5,4.5-3.4,6-6c1.4-2.2,1.9-4.6,2.1-7.2l0,0c0-0.3,0-0.7,0-1c0-0.3,0-0.7,0-1L154.1,105L154.1,105z M143.7,137.7c-1.7,1.7-3.6,2.6-6.2,2.6c-2.4,0-4.5-0.9-6-2.6c-1.7-1.7-2.4-3.9-2.4-6.6l0,0l0,0c0-2.6,0.7-4.8,2.4-6.5s3.6-2.6,6-2.6c2.6,0,4.5,0.9,6.2,2.6c1.7,1.7,2.4,3.9,2.4,6.5l0,0C146.1,133.8,145.4,136,143.7,137.7z M218.4,123c-1.5-2.6-3.4-4.5-6-6c-2.6-1.5-5.4-2.2-8.2-2.2c-4.1,0-7.7,1.4-10.8,4.2c-3.6,3.3-5.4,7.2-5.4,12.2l0,0c0,4.5,1.7,8.4,4.8,11.5s7,4.8,11.4,4.8c3,0,5.8-0.7,8.4-2.1c2.6-1.5,4.5-3.4,6-6c1.5-2.6,2.2-5.3,2.2-8.2C220.5,128.3,219.9,125.6,218.4,123z M210.3,137.7c-1.7,1.7-3.6,2.6-6.2,2.6s-4.5-0.9-6-2.6c-1.7-1.7-2.4-3.9-2.4-6.6l0,0c0-2.6,0.7-4.8,2.4-6.5c1.7-1.7,3.6-2.6,6-2.6c2.6,0,4.5,0.9,6.2,2.6c1.7,1.7,2.4,3.9,2.4,6.5l0,0C212.7,133.8,211.8,136,210.3,137.7z"/><path class="st1" d="M247.8,147h7.9v-30.2h-7.9V147z M234.3,138.9c-0.9-0.6-1.7-1.5-1.9-2.7c-0.3-0.9-0.5-2.7-0.5-5.4V105h-7.8v23.3c0,0.9,0,1.7,0,2.4c0.2,4.2,0.5,7,1.2,8.9c1,2.4,2.6,4.3,4.6,5.7c2.1,1.4,4.6,1.9,7.8,1.9h6v-7.4h-6.2C236.2,139.8,235.2,139.5,234.3,138.9z M286.6,122.7c-1-2.4-2.6-4.3-4.6-5.7c-2.1-1.4-4.6-1.9-7.8-1.9c-3.4,0-6.2,0.7-8.2,2.2c-2.1,1.5-3.6,3.6-4.5,6.5c-0.5,1.5-0.7,4.2-0.9,7.8c0,0.7,0,1.7,0,2.6v12.9h7.9v-15c0-0.2,0-0.3,0-0.6c0-2.6,0.2-4.5,0.6-5.5c0.5-1.2,1-1.9,1.9-2.7c0.9-0.6,1.9-0.9,3.3-0.9c1.4,0,2.4,0.3,3.3,0.9c0.9,0.6,1.7,1.5,2.1,2.7c0.3,0.9,0.5,2.7,0.5,5.4c0,0.2,0,0.2,0,0.3v15.4h7.8v-13.3c0-0.9,0-1.7,0-2.4C287.8,127.3,287.4,124.4,286.6,122.7z M251.5,105.6c-2.2,0-4.2,1.9-4.2,4.2c0,2.3,1.8,4.2,4.2,4.2c2.2,0,4.2-1.8,4.2-4.2C255.8,107.4,253.8,105.6,251.5,105.6z M356.4,123.3c-1.5-2.6-3.4-4.5-6-6c-2.6-1.5-5.3-2.1-8.4-2.1c-4.5,0-8.2,1.7-11.4,4.8c-3.1,3.1-4.8,7-4.8,11.5l0,0c0,4.8,1.8,8.9,5.4,12.2c3.1,2.9,6.7,4.2,10.8,4.2c3,0,5.7-0.7,8.2-2.2c2.6-1.5,4.6-3.4,6-6c1.5-2.6,2.2-5.3,2.2-8.1C358.6,128.5,357.9,125.9,356.4,123.3z M350.7,131.6c0,2.7-0.7,4.8-2.4,6.5c-1.7,1.7-3.6,2.6-6.2,2.6c-2.4,0-4.5-0.9-6-2.6c-1.7-1.7-2.4-3.9-2.4-6.5l0,0c0-2.7,0.7-5,2.4-6.6c1.7-1.7,3.6-2.6,6-2.6c2.4,0,4.5,0.9,6.2,2.6C349.9,126.6,350.7,128.8,350.7,131.6C350.7,131.4,350.7,131.4,350.7,131.6z M323.1,130.2c-0.2-2.6-0.9-4.8-2.1-7c-1.5-2.6-3.4-4.5-5.8-6c-2.6-1.5-5.3-2.1-8.2-2.1c-4.5,0-8.2,1.5-11.4,4.8c-3.1,3.1-4.6,7-4.6,11.5l0,0l0,0c0,4.8,1.8,8.9,5.3,12c3.1,2.9,6.6,4.2,10.6,4.2c2.9,0,5.7-0.7,8.2-2.2c0.2-0.2,0.3-0.2,0.5-0.3v3.6c0,2.7-0.9,4.8-2.4,6.5c-1.7,1.7-3.6,2.6-6,2.6s-4.3-0.7-6-2.4l-5.1,5.4l0.2,0.2c3.1,2.9,6.7,4.2,10.6,4.2c2.9,0,5.7-0.7,8.2-2.2c2.6-1.5,4.5-3.4,6-6s2.1-5.3,2.1-8.1v-16.3c0-0.3,0-0.6,0-1l0,0C323.3,130.9,323.3,130.5,323.1,130.2L323.1,130.2z M315.4,131.2L315.4,131.2c0,2.7-0.7,4.8-2.4,6.5c-1.7,1.7-3.6,2.6-6,2.6c-2.4,0-4.3-0.9-6-2.6c-1.7-1.7-2.4-3.8-2.4-6.5l0,0l0,0c0-2.7,0.7-4.8,2.4-6.6c1.7-1.7,3.6-2.6,6-2.6c2.4,0,4.5,0.9,6,2.6C314.6,126.4,315.4,128.5,315.4,131.2L315.4,131.2z"/></g><rect x="480" y="0" class="st2" width="480" height="270"/><g><path class="st3" d="M753.1,103.7c-1.4,0-1.2-0.2-2.2-0.6l-3.4-0.7c-1.4-0.2-4.8-0.6-5.5-1.2c-1.4-0.7-3.8-0.7-5.4-1.4c-1.7-0.6-3.6-1-5.4-1.4c-1.4-0.2-3-0.7-4.1-1.2c-6-1.2-3-0.2-7.4-0.2c-3.4,0-7.8-0.7-9.3-4.2c-1-1.9,0.2-3.1,1.7-4.6c0.5-0.5,1.4-1.2,1.9-1.4c1.7-0.6,4.1-1.2,5.5-1.2c2.9,0,5.8,0.6,7.9,1.9l1.8,1.7c0.5,0.2,0.7,0.2,1.4,0.5l3.8,1.2c0.7,0.2,1.8,0.5,2.6,0.7l2.6,0.7c1,0.5,1.8,0.5,2.6,0.7l7.8,2.6c1.7,0.6,3.6,1,5,1.7c0.6,0.2,0.7,0.2,1.4,0.5c0.6,0.2,0.2,0.2,1.2,0.6c1.2,0.5,3.1,1,4.3,0.6l3.1-1.8c2.4-1.2,8.2-3.4,6-7c-1-1.7-2.2-1.9-4.1-2.9l-24-13.4c-1.8-0.7-11.1-5.8-12.6-7c-1.2-0.7-5-3-6-3.1c-3-1-7.4-1-10.2,0.5l-5.4,3c-0.5,0.2-0.7,0.5-1.2,0.6L696,74.3c-0.2,0-0.5,0.2-0.5,0.2c-0.6,0.5-0.6,0.2-1.2,0.6c-1.2,0.6-2.2,1.2-3.4,1.8l-0.7,0.5c0,0,0,0-0.2,0l-2.4,1.4c-0.7,0.5-1.4,0.7-2.2,1.2l-7.9,4.3c-0.7,0.5-1.8,0.6-2.4,1.2l-0.5,0.5c-0.7,0.6-2.4,1.2-3.4,1.8c-3,1.8-5.3,3.8-1.8,7c0.7,0.7,3.4,1.8,4.3,2.4c2.2,1.2,4.2,2.6,6.6,3.6c0.6,0.5,1.7,0.7,2.4,1.2c0.6,0.2,0.5,0.2,1,0.6l7.2,3.8c0.7,0.7,5.8,3.1,7,4.1l13.2,7.4c2.2,1.2,1.7,1.2,4.6,2.2c1.8,0.6,4.2,0.6,6.5,0.5c2.9-0.5,1.7-0.5,2.4-0.7c0.6-0.2,0.6,0,1.2-0.5l14.1-7.8c2.4-1.2,5.3-3.1,7.8-4.2c1.2-0.5,0.2-0.2,0.7-0.7l3.1-1.8C752.7,104.4,752.9,104.3,753.1,103.7L753.1,103.7z"/><path class="st3" d="M687.4,114.6c-1.8-0.6-1-0.7-1.9-0.6c0,0.7,0.5,1.8,0.6,2.9c0.2,1.4,0,0.2,0.6,1.2l1,2.6c0.5,0.6,0.2,0.5,0.6,1c1.4,2.4,2.4,4.1,5,5.8c3.1,2.4,5.3,2.9,6,3.4l0.5,0.2c0.2,0.2,0.2,0.2,0.5,0.5l3.8,1.8c0.5,0.2,0.7,0.2,1.2,0.6l7,3.8c3,1.7,7,4.6,10.2,3.4c1-0.5,1.7-0.6,2.6-1l11.5-6c0.6-0.5,0.7-0.2,1.4-0.6l6-3c1-0.6,2.9-2.6,3.1-3.6c0.5-1.4,1.7-7.7,1.7-9c-0.7,0-1.9,0.5-2.4,0.7l-8.7,4.3c-1.4,0.7-4.1,1.7-4.2,1.8l-1.8,1c-0.5,0.2-0.6,0.5-1,0.5c-0.7,0.5-1.2,0.6-1.9,0.7c-0.5,0.2-0.6,0.5-1,0.5c-0.5,0.2-0.6,0.5-0.7,0.6l-6,2.9c-1.2,0.2-4.1-1.7-5-2.2l-3-1.4c-1-0.5-1.2-0.5-1.8-1l-5.5-2.9c-0.6-0.5-3.1-1.4-4.1-1.8c-1.2-0.7-2.6-1.2-4.1-1.8l-6.7-3.4c-0.5-0.2-0.5-0.2-0.7-0.5C689,115.2,687.9,114.8,687.4,114.6L687.4,114.6z"/><path class="st3" d="M675.1,177.6c1,0.5,1.4,1.2,1.8,1.9c1.8,3.4,1,2.6-6,2.6c-6,0-6.7-0.7-6.7,1.2c0,3.8-0.5,3.1,3.4,3.1c1.7,0,9.3-0.2,9.8,0.2c0.7,0.6-0.7,4.3-2.9,5c-1.9,1.7-5,1.9-7.9,1.2c-3.4-0.7-0.7,0-3.8-1.2c-0.2,0-0.5-0.2-0.6-0.2L660,190c-0.5,0,0,0-0.5,0c-0.5,0.5-0.2,5-0.2,5.4c0.5,1,1.2,0.5,2.4,1.2c1.2,0.7,0.6,0,2.6,0.7c2.6,1.2,7.9,0.7,10.5-0.2c0.5-0.2,0.6-0.2,1.2-0.5c0.5-0.2,0,0,0.6-0.2c0.5-0.2,0,0,0.5-0.2c0.6-0.2,0.5-0.2,1-0.5c2.2-1.4,1-0.5,2.2-1.7c1.4-1.7,2.4-2.9,3.1-5c0.2-0.6,0.5-1.4,0.6-1.9c0.6-2.9,0.2-7-1-9.3c-1.7-3-3.8-5.4-7.2-6.6c-1-0.5-0.7-0.6-1.9-0.6c-1.4-0.2-3.4-0.6-5-0.5c-2.4,0.2-6.7,1-8.7,2.2v5c1.7,0.2,3-1.8,7.7-2.2c2.2-0.2,2.4,0.2,3.4,0.5C674.4,176.4,673.5,176.7,675.1,177.6L675.1,177.6z"/><path class="st3" d="M721.4,185.4c1.7-1.4,2.6-1.8,5-1.2c0.7,0.2,1,0.5,1.4,0.7c1.4,1.4,1.9,5,0.6,6.7c-0.7,1-0.6,1.4-2.4,1.9c-1.4,0.5-2.6,0-3.8-0.5c-1.2-0.5-0.7-1.8-0.7-3.4C721.4,188.4,721.4,186.8,721.4,185.4L721.4,185.4z M721.7,197.1c1.7,0.2,1.4,1.4,5.3,1.2c1.4,0,3.8-0.6,4.8-1.4c2.6-1.9,3.8-5,3.6-8.6c0-2.9-0.7-5-2.6-6.6c-1.8-1.8-3.8-2.4-6.7-2.4c-2.6,0-3.1,1.7-4.3,1.7c-0.2-0.2-0.2-0.5-0.2-0.6l-0.2-0.5c0,0,0,0,0-0.2c-0.6,0-4.6-0.2-5,0.2c-0.5,0.5-0.2,21-0.2,24.6c0,3-0.7,2.4,3.8,2.4c1,0,1.4,0.2,1.8-0.2C721.8,206.1,721.7,198.8,721.7,197.1L721.7,197.1z"/><path class="st3" d="M618.2,197.7c0.7,0.2,15.9,0.2,17.4,0v-4.2c-2.9-0.2-6.5,0-9.3,0c-2.2,0-2.4,0-2.4-2.2c0-1.7,0-3.1,0-4.8l11-0.5v-4.2c-1.9-0.5-8.2,0.5-10.8-0.2v-5.8c2.6-0.5,9.8,0.2,11.4-0.2v-4.2c-1.4-0.2-15.9-0.2-17.4,0C618.2,174.6,617.8,196.9,618.2,197.7L618.2,197.7z"/><path class="st3" d="M808.3,186.3c0-1.4,0.2-1.9,1.4-2.2c3.4-0.7,6,0.6,6,4.2c0,2.9-0.2,4.1-2.2,5c-2.1,0.9-3.4,0.6-5.3-0.6L808.3,186.3L808.3,186.3z M808.3,196.9c1.2,0,5,3.1,9.6,0.2c0.5-0.2,1.2-1,1.8-1.4c0.2-0.2,0.2-0.2,0.5-0.5c1.2-1.2,1.9-4.3,1.9-6.5c0-5.5-3.4-9.6-9.1-9.6c-3.4,0-3.4,1.4-4.6,1.7c-0.5-0.5-0.5-0.6-0.6-1.2h-5.3v27.1c1.2,0,4.3,0.5,5.3-0.2L808.3,196.9L808.3,196.9z"/><path class="st3" d="M754.5,103.3c-0.2,1.4,0.6,1.7,1.4,4.1c0.5,1.4,0.7,2.4,1,4.1c0.7,7.4,0.5,12.2-0.5,19.4c-0.2,1.4-1,3.1,0.6,4.1c0.6,0.5,1.2,0.6,1.9,0.7c5,0.6,4.2-2.4,4.8-8.2c0.5-3.1,0.5-6.6,0.5-9.9c0-4.1-0.5-10.3-1.4-14.1c-0.2-0.6-0.5-1.2-0.6-1.9c-0.2-0.7-0.5-1-0.7-1.7c-1.2,0-2.6,1-3.6,1.7L754.5,103.3L754.5,103.3z"/><path class="st3" d="M640.6,197.7c1,0.5,5.5,0.2,6.6,0c0.5-5-0.5-18.6,0.2-21.6c1.8-0.2,9.6,0.2,10.3-0.2c0.5-0.6,0.2-3.6,0.2-4.6c-0.7-0.2-16.3-0.2-17.1,0L640.6,197.7L640.6,197.7z"/><path class="st3" d="M793.8,187.2c-1.4,0.2-3.6,0-5.3,0c-1,0-3,0.2-0.6-2.9c0.5-0.6,0.7-0.7,1.7-1c0.7-0.2,1.8-0.2,2.4,0.2C793,183.9,793.9,185.7,793.8,187.2L793.8,187.2z M798.9,192.8c-1,0.2-4.1,2.6-7.9,1.8c-0.6-0.2-0.7-0.5-1.2-0.6c-1.4-0.6-1.7-0.5-2.2-1.9c-0.5-0.7-1-0.6-0.6-1.7c0.2-0.6,0.2-0.5,1.2-0.5h9.8c1.2,0,2.2,0.5,1.9-1c-0.2-1.9-0.5-3.4-1.4-5c-1.8-3.4-4.3-4.6-8.2-4.6c-1.2,0-2.2,0.2-3.1,0.5c-1.7,0.5-4.2,2.6-5,4.3c-0.7,1.8-1,3-0.7,5.5c0.2,2.6,1.4,5.5,3.6,7l0.2,0.2c1.8,1.2,4.8,1.4,7,1.2c1.9,0,3.6-0.6,5.3-1.2c0.6-0.2,1.7-0.6,1.8-1.4v-2.9C798.9,192.9,798.9,192.9,798.9,192.8L798.9,192.8L798.9,192.8z"/><path class="st3" d="M743.5,187.2c-0.2-1,0.5-2.2,1-2.9c2.6-2.4,6.2-0.2,6,2.9H743.5L743.5,187.2z M754.6,192.8c-0.2,1,0,0.2-0.7,0.7c-1.2,0.7,0,0.2-1.4,0.6c-0.7,0.2-0.2,0.2-0.7,0.5c-1,0.5-3.1,0.2-4.3,0.2c-1.2,0-1-0.2-1.8-0.6c-0.6-0.2-0.5,0-0.7-0.5l-0.5-0.5c-0.5-0.5-0.6-0.7-1-1.4c-0.2-0.5-0.5-0.7-0.2-1.4c0.2-0.6,0.2-0.2,0.2-0.5c0.6-0.5,10.2,0,12.6-0.2c0.2-0.6-0.2-1.8,0-2.9c-0.5-3.1-3.4-6.6-6.2-7.2c-1.4-0.2-2.6-0.5-4.1-0.2c-2.4,0.2-4.6,1.2-6,2.9c-1.7,1.8-2.2,4.1-2.2,6.6c0,1.4,0.2,2.9,0.6,3.8c0.6,1.2,0.6,1.7,1.7,2.9c3.1,3.8,9.8,3.4,13.8,1.8c1.7-0.6,2.2-1,2.2-2.2c0-0.5,0-1.9,0-2.2C755.7,192.3,755.1,192.1,754.6,192.8L754.6,192.8z"/><path class="st3" d="M764.4,197.7c0.2-0.7,0-4.2,0-5.4s-0.2-1.8,0.7-1.9h5.8c1.4,0.2,0.2,4.3,0.7,7.7h5v-15.9c0-1.9,0.7-1.4-5-1.7c-0.5,1.8,0.2,5.5-0.5,6.7c-0.7,0.2-6,0.2-6.7,0c-0.7-1.4,0-4.8-0.5-6.7h-5c0,5.3-0.2,12.6,0,17.4C760.6,197.9,763.7,197.9,764.4,197.7L764.4,197.7z"/><path class="st3" d="M703.2,197.7h4.8v-12.9c0-1.2,0-0.6,0.6-1.4h5.3c0-0.6,0-1.2,0-1.7c0-0.6,0.2-1.4-0.5-1.4c-0.2,0-0.2,0-0.5,0h-15v3.1c6.5,0.5,5.5-1.9,5.5,7.2C703.2,192.3,702.9,196.1,703.2,197.7L703.2,197.7z"/></g><rect x="960" y="0" class="st4" width="480" height="270"/><rect x="1440" y="0" class="st5" width="480" height="270"/><g><g><path class="st1" d="M1611.4,125.2c0,0,0.3-4.8-6.2-5.1h-6.2v11.1h5.3C1604.4,131.2,1611.4,131.2,1611.4,125.2z"/><path class="st1" d="M1607.3,138.1h-8.1V150h8.1c0,0,8.1,0.5,8.1-6.2C1615.4,143.9,1615.7,138.1,1607.3,138.1z"/><path class="st1" d="M1574.7,105v60h63.6v-60H1574.7z M1623.4,144.4c0,12.2-14.6,12.2-14.6,12.2h-17.4v-43h15.1c13.7,1.2,12.7,11.5,12.7,11.5c0,6.3-5.5,8.7-5.5,8.7C1623.6,136,1623.4,144.4,1623.4,144.4z"/></g><g><path class="st1" d="M1685,125.2c0,0,0.3-4.8-6.2-5.1h-6.2v11.1h5.3C1677.9,131.2,1685,131.2,1685,125.2z"/><path class="st1" d="M1680.7,138.1h-8.1V150h8.1c0,0,8.1,0.5,8.1-6.2C1688.9,143.9,1689,138.1,1680.7,138.1z"/><path class="st1" d="M1648.2,105v60h63.6v-60H1648.2z M1696.6,144.4c0,12.2-14.6,12.2-14.6,12.2h-17.4v-43h15.4c13.7,1.2,12.7,11.5,12.7,11.5c0,6.3-5.5,8.7-5.5,8.7C1697.1,136,1696.6,144.4,1696.6,144.4z"/></g><path class="st1" d="M1721.7,105v60h63.6v-60H1721.7z M1772.7,153.2c0,0-13,7.8-28.2,1.8c0,0-12.7-4.6-13.2-19.9c0,0-0.6-15.8,16.5-20.9c0,0,4.5-1.8,12.7-0.9c0,0,5,0.5,12,3.4v7.9c0,0-7.8-4.8-16.3-5c0,0-16.1-0.3-16.8,15.3c0,0-0.6,14.4,16.5,15.3c0,0,7.2,0.9,17-5.4L1772.7,153.2L1772.7,153.2z"/></g><g><path class="st6" d="M1190.9,125.9c1-0.3,15.6-0.2,17.1,0c1.2,0.2,2.1,0.9,2.7,1.7c0.5,0.5,1.2,2.2,1.2,3.1c0,2.1,0.3,2.2-0.7,3.8c-1,1.5-0.9,1-2.2,2.1c-0.3,2.2,2.2,4.5,2.4,6.5c-0.7,0.3-2.2,0.3-3.1,0.3c-1.2,0-1.5,0-1.9-0.7c-0.2-0.3-0.2-0.2-0.2-0.5l-2.1-4.8c-1.4-0.2-8.4-0.3-9,0.2c-0.3,0.5,0,3.3-0.2,4.5c0,0.5,0,1-0.3,1.2c-0.5,0.2-3.3,0.2-3.8,0c-0.5-0.7-0.2-7.2-0.2-8.6C1190.7,132.7,1190.4,127.1,1190.9,125.9L1190.9,125.9z M1217.3,143.2c-0.3-1.9-0.3-16.2,0.2-17.5c1-0.2,14.6-0.2,16.6,0c1.2,0,2.4,0.3,3.3,0.9c1.7,1.2,1.2,1.4,1.7,2.4s0.5,2.1,0,3.3c-0.9,2.2-1.4,1.5-1.9,2.1c0.2,0.7,0.7,0.7,1.2,1c0.5,0.3,0.2,0,0.3,0.7c0.9,2.6,1,1.9,0.3,3.9c-0.2,0.5-0.3,1-0.7,1.5c-0.3,0.7-0.7,0.5-1.2,0.9c-1.2,0.7-1.5,0.7-3.3,0.9C1231.9,143.3,1218.6,143.7,1217.3,143.2L1217.3,143.2z M1164.5,125.9c5-0.2,13-0.2,18.3,0c1.7,0,2.4-0.2,2.4,0.5c0.2,0.7,0.2,2.2-0.2,2.9c-0.7,0.9-15.3-0.3-16.5,0.3l-0.2,2.9c1.5,0.3,5.5,0.2,7.4,0.2c2.4,0,4.8,0,7.2,0c0.2,0.7,0.5,2.9-0.2,3.3c-0.9,0.5-12.9-0.3-14.2,0.3c-0.2,0.5-0.2,1-0.2,1.7l0.2,1c0.2,0.2,0,0.2,0.2,0.3c1,0.5,15.6-0.3,16.6,0.3c0.3,0.3,0.2,0.2,0.3,0.7c0,0.2,0,0.7,0,1c0,0.7,0,1.2-0.2,1.9c-1.7,0.3-20.7,0.3-21.4,0c-0.5-0.9-0.2-7-0.2-8.6C1164.3,132.7,1164.2,127,1164.5,125.9L1164.5,125.9z M1260,136.7c-3.9-0.5-8.1-0.3-11.8-0.9c-2.2-0.3-3.1-1-4.1-2.2c-1.2-1.4-0.9-3.6,0.2-4.8c1.2-1.7,4.5-3.1,6.5-3.1c1.9-0.2,1.9-0.3,2.6-0.5c2.2-0.2,4.6,0.7,5.5,0.7c1.7,0,3.6,0.7,4.8,1.4c0,0.9-0.2,1-0.5,1.7c-0.3,0.7-0.3,0.9-0.5,1.5c-1.2,0.2-3.9-1.4-8.1-1.4c-2.9,0-3.8,0-6,1c-0.7,0.3-0.9,0.7-0.7,1.5c0.9,0.9,4.1,0.7,5.8,0.9c2.2,0.3,6.9,0,8.6,1c2.6,1.5,3.4,4.6,1.9,6.7c-1.9,2.4-3.9,2.7-6.7,3.3c-0.9,0.2-0.7,0.3-1.4,0.3c-0.5,0-1,0.2-1.4,0.2c-2.1,0.2-4.1-0.2-6-0.5c-0.7-0.2-0.9-0.3-1.2-0.3c-0.7-0.2-0.9,0-1.5-0.2c-0.3-0.2-0.7-0.5-1-0.7c-0.3-0.2-0.7-0.3-0.9-0.5c0.2-0.9,0.3-1,0.7-1.5c0.9-1.5-0.2-2.1,2.7-0.9c1.7,0.7,3.9,0.7,4.5,0.9c0.7,0.2,1.4,0.3,2.2,0.3s1.4-0.3,2.4-0.3c1,0,1.4-0.2,2.1-0.5C1259.5,139,1260.6,138.5,1260,136.7L1260,136.7z M1139.4,131.2l-1.5-2.9c-0.9-1.5-1.2-1.7-1-2.4c0.7-0.3,2.2-0.2,3.1-0.2c1.7,0,1.4,0,1.9,1.2c0.2,0.3,0.5,0.5,0.7,1c0.2,0.3,0.3,0.7,0.5,1c0.5,0.9,4.8,9.8,5.1,10.3c0.7,0,0.5-0.2,0.9-0.9c0.2-0.3,0.3-0.7,0.5-1c0.3-0.5,2.4-5,3.3-6.2c0.5-0.7,0.5-1.4,1-2.2c1.9-2.9,0.9-3.1,3.1-3.1c1,0,2.1,0,3.1,0c0,0.7-0.2,1-0.5,1.4c-0.3,0.5-0.3,0.7-0.5,1.2c-0.3,0.9-0.9,1.5-1.2,2.4l-2.6,4.6c-0.7,1.2-2.2,4.5-3.1,6c-0.2,0.3-0.5,0.9-0.7,1c-0.5,0.7-1.9,0.5-3.1,0.5c-2.1,0-2.6,0.2-3.1-0.9l-5-9.4c-0.3-0.7-0.3-0.7-0.5-1.4C1139.5,131.2,1139.5,131.5,1139.4,131.2L1139.4,131.2z M1270.2,100.9c0.7-0.2,3.8-0.3,4.1,0c0.3,0.3,0.2,3.6,0.2,4.3v7c0,0.3,0,0.7,0,1.2s0,0.7,0.2,1c0.7,0.3,8.2,0.2,9.8,0.2s3.3,0,4.8,0c0.9,0,0.7,0.7,0.7,1.5c0,0.9,0,1.4-0.2,2.1c-2.4,0.5-6.5,0.2-9.3,0.2c-3.1,0-6.3,0.2-9.4,0.2c-0.9,0-1.2-0.2-1.2-1.2c0-0.7,0-1.5,0-2.4C1270.1,111.5,1269.8,103.3,1270.2,100.9L1270.2,100.9z M1240.8,118.1c0-1.5,4.3-8.4,5.1-9.8l4.1-7.2c0.5-0.5,2.2-0.2,3.3-0.3c1.4-0.2,2.2-0.5,2.9,0.5c1,1.9,3.1,5.7,4.1,7l4.1,7.2c0.7,1.4,1,1.5,1.2,2.6h-4.5l-1.5-2.9c-0.9-1-2.2-0.5-3.8-0.5c-1.5-0.2-2.9,0-4.5,0c-1.4,0-3.3-0.2-4.5,0l-2.1,3.4C1243.9,118.3,1242,118.3,1240.8,118.1L1240.8,118.1z M1188.2,118c0-0.7,0.5-1,1-2.4c0.3-1,0.9-1.4,1.2-2.1c1-1.9,0.5-1.4,1.7-3.3c0.2-0.3,0.3-0.7,0.5-1c0.9-1.5,1.7-2.7,2.4-4.3c0.3-0.7,0.9-1.7,1.2-2.1c0.3-0.5,1-1.7,1.2-2.1h5.7l7.4,12.9c1.2,2.7,2.1,3.1,2.2,4.5h-4.3c-0.5-0.9-1-1.5-1.5-2.4c-0.9-1.2-0.9-1-2.7-1h-6.3c-2.6,0-3.6-0.5-4.5,1c-0.7,1.2-0.3,0.9-1.4,2.4C1191.6,118.3,1188.9,118.3,1188.2,118L1188.2,118z M1136.1,118.1c-0.3-2.2-0.2-11.1-0.2-14.1c0-0.9-0.3-2.7,0.3-3.1c0.3-0.2,2.9-0.2,3.4,0c1,0.2,0.5,2.1,0.5,2.9c0,1.2,0,2.2,0.2,3.4h12.3c0.9-1.2-0.3-5.3,0.5-6.2c0.5-0.5,3.3-0.3,3.9-0.2c0.2,0.9,0.2,16.3,0,17c-0.9,0.3-3.1,0.3-4.1,0c-0.5-1,0-5.1-0.2-6.7c-1-0.5-5.1-0.3-6.5-0.3c-1.9,0-5-0.2-6.5,0.3c0,2.1,0.3,5,0,6.9C1139.3,118.3,1137.1,118.5,1136.1,118.1L1136.1,118.1z M1163.1,101c1-0.3,16.2-0.3,17.5,0c0.9,0.2,2.1,1.2,2.6,1.9c0.9,1.4,1.7,3.6,0.9,5.1c-0.5,1.4-0.2,2.1-2.9,3.8c-0.2,1.2,1.2,2.7,2.1,4.8c0.5,1.4,0.5,0.7,0.7,1.5h-4.3c-0.5-0.5-1.4-2.2-1.7-2.9c-0.3-1.2-1-1.9-1.5-2.9c-1.5,0-7.8-0.3-8.7,0.2c0,0.2,0,0-0.2,0.3c-0.2,0.7,0,4.1,0,5.3c-0.7,0.5-3.4,0.3-4.5,0.2C1162.8,116.6,1162.8,101.7,1163.1,101L1163.1,101z M1114.2,118.3c-0.9,0.3-1.9,0.2-2.7,0.2c-2.1,0-1.5,0.3-1.5-6.7c0-1.9,0-9.6,0.2-10.8c3.9-0.3,8.6,0,12.7,0c2.1,0,3.9-0.2,5.7,0.7c3.4,1.7,3.9,5.8,2.1,8.4c-2.9,4.3-12.2,1.2-16.2,2.6C1114.2,113.9,1114.6,117.5,1114.2,118.3L1114.2,118.3z M1216.8,116.6c0-0.7,0.5-1.2,0.7-1.9c0.9-2.6,0.5-1.4,2.4-0.9c0.5,0.2,1.2,0.3,1.9,0.5c2.4,0.7,10.6,1.4,11.7-1.4c1.4-3.6-12.3-0.5-15.1-3.6l-0.7-0.5c-0.3-0.2-0.3-0.2-0.5-0.5c-2.1-3.9,1.9-5.8,3.9-6.9c2.6-1.4,7.4-1,10.5-0.9l5.7,1.5c0,0.9-0.3,1.2-0.5,1.9c-0.2,0.9,0,0.5-0.2,1l-0.3,0.5c-0.2,0.2-0.2,0.2-0.2,0.3c-1,0-2.4-1-3.8-1c-1.5-0.2-2.6-0.7-4.3-0.5c-1.4,0.2-2.7,0.5-4.1,0.5c-1.4,0.2-2.9,0.3-2.7,1.9c1,1.2,3.9,1,5.7,1c3.8,0,5.1-0.2,8.7,1c2.6,0.9,3.3,4.1,1.9,6.5c-1,1.9-4.3,3.1-6.5,3.4c-3.9,0.5-4.5,0.5-8.6-0.3C1220.4,118,1217.5,117.7,1216.8,116.6L1216.8,116.6z M1200.2,81.1c-1.7,0.2-3.9,3.4-4.8,4.8l-1.7,3.1l-1,1.4c-0.5,0.3-1.5,0.2-1.5-0.5l2.6-4.6c0.3-0.5,0.3-0.3,0.5-0.7c0.2-0.3,0.2-0.5,0.3-0.7c0.5-1,1.2-2.1,1.7-2.9c0.7-1,1.2-1.9,1.9-2.9c0.7-1,1.2-1.9,1.9-2.9c1.9-2.9,1.5-2.2,2.9-4.1c0.7-1,2.9-2.6,3.8-3.4c1.5-1.4,4.3-2.7,7.2-2.4c4.6,0.5,4.1,5,3.4,5.5c-0.9-0.3,0-1.4-2.1-2.7c-2.4-1.5-5.1-0.9-7.5,0.3c-1.4,0.7-4.3,3.3-5,4.3c-1.2,1.7-4.8,7.5-5,9c0.7,0,1.2-0.7,2.6-1.5c0.5-0.3,2.2-1.4,2.7-0.9c0.5,0.5-0.2,1.2-0.5,1.7c-1.7,2.7-1.4,2.2-2.7,5.1c-0.7,1.4-1.4,3.1,0.2,3.8c1.2,0.5,2.9-0.9,3.6-1.4l2.7-2.4c0.3-0.5,0.5-1.2,0.9-1.7c0.7-1,2.7-3.6,3.8-4.1c1.2-0.7,2.7-1,3.9-0.3c0.2,1.5-0.7,3.1-2.1,3.9c-0.7,0.3-1.4,0.5-2.1,0.9c-1,0.5-2.1,0.5-2.2,0.7c-0.5,1-0.9,3.4,0.2,4.3s3.3,0,4.1-0.5c1-0.7,2.1-1.5,3.1-2.2c1.7-1.4,1.7-2.4,2.7-2.4c0,1-0.5,1.2-1,1.9c-0.5,0.5-0.9,1-1.4,1.5s-1,0.9-1.7,1.2c-2.1,1.4-3.6,2.4-6.5,2.2c-1.7,0-2.2-0.7-2.2-2.1c0-0.3,0-0.9-0.2-1.4c-0.5,0.2-0.3,0.3-0.9,0.9c-1,0.9-3.9,2.9-5.3,3.1c-0.9,0.2-2.1,0-2.6-0.7c-0.5-1-0.3-1.5,0-2.6l2.1-4.5C1199.7,82.7,1200.3,82.1,1200.2,81.1L1200.2,81.1z M1181.4,68.1c4.6-0.2,9.6-0.2,14.4,0c1.4,0,2.1,0,3.3-0.3c0.3,0,1.4-0.2,1.5-0.2c0.9-0.3-0.3-0.2,1.2-0.5c1.7-0.3,2.2-1.4,2.6-2.1c0.3-0.5,0.2,0,0.3-0.5c0.2-0.7-0.2-0.9,0.3-1.4c0.7,0,1.5,1.4,1.5,2.1c0,0.5-0.9,1.9-1.4,2.2c-1.5,1-3.4,1.2-5.7,1.4c-3.9,0.2-3.6-0.7-5.3,1.7c-1.2,1.5-4.3,6.5-5.3,8.6c-0.9,1.4-1.5,2.9-2.6,4.5c-0.5,0.9-2.1,3.4-2.2,4.8c-0.2,1.9,1.7,2.1,3.4,2.1c0.7,0,1-0.2,1.2,0.3c-0.7,0.7-3.8,0.3-4.8,0.3c-1.4,0-3.3-0.2-3.3-1.9c0-1.2,2.9-5.7,3.6-6.9c0.5-1,7.5-12.3,7.5-13.2c-2.7-0.7-8.2,0.2-10.5,1.2c-1.7,0.7-3.4,3.3-4.3,4.8c-0.3,0.7-0.3,1.7-1,1.7c-0.3-1.2,1.4-3.9,1.9-5c0.3-0.9,1-1.2,1.5-1.9C1181.1,68.1,1180.6,69.1,1181.4,68.1L1181.4,68.1z M1149.3,154.5c3.8,0.2,7.9,0,11.7,0h81.9c1.9,0,3.9,0,5.8,0c2.2,0,1.5-1.4,2.9-2.9c0.7-0.9,2.2-1.9,3.6-2.4c1.7-0.5,3.1-0.7,5.1-0.7c7.8,0,15.4,0,23.3,0c2.6,0,12.6,0.3,14.4-0.2c0.7-0.2,2.9-1.5,3.6-2.4c2.7-4.1,3.6-4.6,3.6-11c0-5-0.3-8.6,1.7-12.9c0.3-0.7,1-1.4,1.2-1.7c0.3-0.7-0.5-1.2-0.9-1.7c-1-1.7-1.7-5-1.9-6.9c-0.2-3.4,0-7.9,0-11.7c0-1.5,0.2-4.1-0.5-5.3c-0.5-1-0.5-2.1-1.9-3.9c-3.6-5.1-6.5-4.5-13.2-4.5c-3.9,0-7.8,0.2-11.5,0.2h-29.3c-5.3,0-2.9,0.3-8.1-0.7c-0.7-0.2-1.4-0.7-1.9-1c-2.1-1.4-1.4-0.7-2.9-2.9c-1.4-1.9-0.7-8.2-0.7-11c0-1.7-0.2-3.8-0.5-5.3c-0.3-1.7-1.2-2.6-2.2-3.6c-1.4-1.5-3.3-2.7-5.3-3.4c-2.1-0.7-1.2-0.2-2.2-0.7c-1.2-0.7-7.9-1.9-9.8-1.9c-6,0-9.1,0.5-13-4.5c-0.3-0.5-0.7-1.2-1.2-1.7c-0.9-1.2-0.7-1.4-1-1.7c-0.7,0.2-0.5,0-0.9,0.7l-1.5,2.6c-1.7,2.6-3.4,3.4-6.3,4.6c-1,0.3-3.9,0.2-5.1,0.2c-0.7,0-5.8,0.3-6.3,0.7c-1.4,0.5-4.1,0.2-9.4,2.7c-1.2,0.5-3.6,2.7-4.3,3.9c-0.2,0.5-0.2,0.7-0.3,1c-0.5,1-0.7,0.7-1,2.9c-0.3,3.4-0.2,7.4-0.2,10.8c0,2.4-0.2,2.7-1.4,4.3c-0.5,0.5-0.7,1-1.4,1.5c-3.9,2.6-5.8,2.4-11.1,2.4c-7.4,0-14.6,0.2-21.8,0.2c-7.2,0-14.2,0-21.4-0.2c-1,0-4.1-0.3-5.1,0.3c-0.5,0.3-0.3,0.2-1,0.3c-0.5,0-0.5,0.2-0.9,0.5c-3.6,2.4-1,0.9-2.9,2.6c-0.7,0.5-0.5,1-1,1.7c-0.5,0.7-0.5,1.2-0.9,1.9c-0.7,0.9-0.5,0.9-0.5,2.1c-0.2,1-0.3,0.2-0.3,2.4c0,0.9,0,1.9,0,2.7v10.8c0,3.9-0.3,2.6-0.7,3.6c-0.2,0.3,0,0.9,0,1.2c-0.5,0.5-0.3,0-0.5,1c-0.2,0.5-0.2,0.7-0.3,1c-1.2,2.6-1.2,1.5,0,3.9c0.3,0.7,0.5,1.4,0.9,2.1c0.5,1.7,0.9,2.9,0.9,5c0,2.2-0.3,9.8,0.5,11.1c0.5,0.7,0.5,1.2,0.9,2.1c0.5,0.9,2.9,4.1,3.9,4.6c1.7,1,2.2,1.4,4.5,1.4c1.9,0,3.8,0,5.7,0c7.5,0,15.6-0.3,23.3,0c1.9,0,3.9,0,5.8,0c3.1-0.2,3.1,0.3,3.8,0.3c1.2,0.2,3.9,1.4,4.8,2.2C1147.7,151.4,1149.1,153.5,1149.3,154.5L1149.3,154.5z"/><path d="M1174.6,170.9l-0.2,0.7h-1.7c0-1.2,1.7-3.4,2.1-4.1l2.1-3.9c0.3-0.5,1.4-0.5,2.1-0.3c0.7,0,1,0.2,1.4,0.7c0.5,0.9,1,1.7,1.5,2.6l2.1,3.8c0.3,0.5,0.7,0.7,0.7,1.4c-0.7,0.3-1.2,0.2-1.9,0.2c-1.4-2.1-0.7-1.5-3.6-1.7c-0.9,0-1.7,0-2.6,0C1175,170.1,1175.7,170.3,1174.6,170.9L1174.6,170.9z M1215.1,171.5h-1.7c-0.2-0.9-0.3-7.9,0-8.2c0,0,1.7-0.7,1.9,0.5L1215.1,171.5L1215.1,171.5z M1210.5,172.1c-0.5,0.2-1.5,0.2-2.1-0.2c-0.3-0.9,0-2.1-0.2-3.1c-0.9-0.3-4.8-0.3-6,0c-0.5,1.5,0.9,3.6-1.9,3.1c-0.7-0.2-0.3,0-0.5-0.2c-0.3-0.3-0.2-4.6-0.2-5.5c0-1.2-0.5-3.4,1.9-2.9c1.4,0.3,0.2,2.4,0.7,2.9l0.2,0.2c0.7,0.2,4.3,0.3,5.1,0.2c1.7-0.3-0.2-2.7,1.2-3.3c1.5-0.5,1.9,0.3,1.9,1.5C1210.8,165.7,1210.6,171.5,1210.5,172.1L1210.5,172.1z M1220.2,172.1l-1.7-0.2c-0.3-0.9-0.5-7.5-0.2-8.6c2.2-0.5,2.7,0.7,3.4,1.5c0.9,0.9,2.1,1.7,3.6,3.4c0.3,0.3,0.3,0.5,1,0.7c0.2-1.5-0.2-4.3,0.2-5.3c0.5-0.2,1.2-0.2,1.9-0.2c0.2,1.2,0.7,8.1-0.3,8.6c-1.7,0.7-2.7-1.2-4.1-2.2l-1.9-1.5c-0.7-0.5-1-1.4-2.1-1.5L1220.2,172.1L1220.2,172.1z M1164.7,171.8h-2.2c-0.7-1.9-0.5-1.4-1.4-2.9c-0.7-1-0.7-2.4-1.7-2.9c0,1.9,0.5,5.7-0.5,6c-2.1,0.5-1.7-0.9-1.7-3.3l0.2-5.5c0.7-0.2,2.2-0.2,2.9,0c1.2,0.2,1,0.9,1.5,1.7c0.7,1,1.5,3.9,2.1,4.3c0.7-0.3,0.5-1.4,1.5-2.9c0.7-1.2,0.9-1.9,1.5-2.9c0.9,0,3.1-0.5,3.4,0.3c0.2,0.7,0.2,7.4,0,8.1c-0.5,0.2-1.4,0.2-2.1,0c-0.2-1.2,0.3-5-0.3-5.8C1166.9,166.6,1165.5,170.6,1164.7,171.8L1164.7,171.8z M1195.9,168.7c0.3,0.2,0.2,0.2,0.5,0.3c0.2,0.2,0.3,0.2,0.7,0.3c0,1.2-1,1.7-2.1,2.2c-2.2,1-9,0.5-9-4.1c0-2.6,2.2-3.9,4.6-4.5c1.7-0.3,4.5,0.2,5.5,1c0.5,0.3,1,0.7,1.2,1.2c-0.3,0.5-1.2,1.2-2.1,0.9c-0.5-0.2-0.3-0.9-2.1-1c-1.9-0.3-4.1,0.2-4.6,1.5c-1,2.7,2.7,4.3,5.3,3.1C1195,169.4,1195.2,168.9,1195.9,168.7L1195.9,168.7z M1241.8,165.3h-8.1v1.2c1.5,0.2,6.5-0.2,7.4,0.3c0.3,2.9-2.2,1.2-7.4,1.7c-0.2,1.2-0.2,1.5,1,1.5c1.4,0,6.9-0.3,7.2,0.2c0.3,0.5,0.3,1.2,0.2,1.9c-1.2,0.2-9.9,0.2-10.8,0c-0.2-1-0.3-7.8,0-8.4c0.3-0.3,8.7-0.3,9.8-0.2C1242.7,163.3,1242.3,164.8,1241.8,165.3L1241.8,165.3z M1149.3,154.5c-0.3-0.9-1.7-2.9-2.2-3.4c-0.9-0.9-3.4-2.1-4.8-2.2c-0.7,0-0.7-0.5-3.8-0.3c-1.9,0-3.9,0-5.8,0c-7.5-0.3-15.4,0.2-23.3,0c-1.9,0-3.8,0-5.7,0c-2.2,0-2.7-0.3-4.5-1.4c-1-0.7-3.4-3.8-3.9-4.6c-0.3-0.9-0.3-1.4-0.9-2.1c-0.9-1.4-0.5-9-0.5-11.1c0-2.1-0.2-3.3-0.9-5c-0.2-0.7-0.3-1.4-0.9-2.1c-1.4-2.4-1.2-1.4,0-3.9c0.2-0.5,0.2-0.5,0.3-1c0.2-0.9,0-0.3,0.5-1c0-0.3,0-0.9,0-1.2c0.3-0.9,0.5,0.5,0.7-3.6v-10.8c0-0.9,0-1.9,0-2.7c0-2.2,0.2-1.4,0.3-2.4c0.2-1.2-0.2-1.4,0.5-2.1c0.5-0.5,0.5-1.2,0.9-1.9c0.5-0.9,0.3-1.2,1-1.7c1.9-1.7-0.7-0.2,2.9-2.6c0.3-0.2,0.5-0.3,0.9-0.5c0.7-0.2,0.5,0.2,1-0.3c1-0.7,4.1-0.3,5.1-0.3c7,0,14.2,0.2,21.4,0.2c7.4,0,14.6-0.2,21.8-0.2c5.3,0,7.2,0.2,11.1-2.4c0.5-0.3,0.9-0.9,1.4-1.5c1.2-1.5,1.4-1.9,1.4-4.3c0-3.4-0.2-7.4,0.2-10.8c0.3-2.2,0.5-1.9,1-2.9c0.2-0.3,0.2-0.5,0.3-1c0.7-1.2,3.1-3.4,4.3-3.9c5.3-2.6,8.1-2.2,9.4-2.7c0.5-0.2,5.7-0.7,6.3-0.7c1.2,0,4.1,0.2,5.1-0.2c3.1-1,4.6-2.1,6.3-4.6l1.5-2.6c0.3-0.7,0.2-0.5,0.9-0.7c0.3,0.3,0.2,0.5,1,1.7c0.3,0.5,0.7,1.2,1.2,1.7c3.9,5,7,4.5,13,4.5c1.9,0,8.6,1.2,9.8,1.9c1,0.5,0.2,0,2.2,0.7c2.1,0.7,3.9,1.9,5.3,3.4c1,1,1.9,1.9,2.2,3.6c0.3,1.5,0.5,3.8,0.5,5.3c0,2.7-0.7,9.1,0.7,11c1.5,2.2,1,1.5,2.9,2.9c0.5,0.3,1.2,0.9,1.9,1c5.1,1,2.7,0.7,8.1,0.7h29.1c3.9,0,7.8-0.2,11.5-0.2c6.5,0,9.6-0.7,13.2,4.5c1.4,1.9,1.4,3.1,1.9,3.9c0.7,1.2,0.5,3.8,0.5,5.3c0,3.8-0.2,8.2,0,11.7c0.2,2.1,0.9,5.1,1.9,6.9c0.3,0.7,1.2,1,0.9,1.7c-0.2,0.3-0.9,1.2-1.2,1.7c-2.1,4.1-1.7,7.9-1.7,12.9c0,6.2-0.9,6.9-3.6,11c-0.5,0.9-2.7,2.1-3.6,2.4c-1.9,0.5-11.8,0.2-14.4,0.2c-7.8,0-15.4,0-23.3,0c-2.1,0-3.3,0.2-5.1,0.7c-1.4,0.3-2.7,1.5-3.6,2.4c-1.4,1.5-0.7,2.9-2.9,2.9c-1.9,0-3.9,0-5.8,0h-81.7C1157.3,154.5,1153.4,154.6,1149.3,154.5L1149.3,154.5z M1200.9,43.3c-1-0.2-1.9-0.2-2.4,0.5l-0.9,1.9c-0.3,1.9-1.9,4.1-3.1,5.5c-0.7,0.7-2.6,1.9-3.4,2.1c-1,0.2-1.4,0.3-2.4,0.3c-5.5,0-9.9,0.5-15,1.9c-0.9,0.3-3.3,1.2-3.9,1.5c-0.5,0.3-0.3,0.2-1,0.5c-0.3,0.2-0.5,0.3-0.9,0.5c-0.3,0.3-0.5,0.3-0.9,0.5c-0.9,0.5-2.7,2.9-3.3,3.8c-2.4,4.1-1.5,10.5-1.5,15.4c0,2.1-0.3,2.9-1.5,3.9c-2.2,1.9-2.4,1.2-3.8,1.9c-1,0.5-0.2,0.3-2.4,0.3h-14.2c-11.1,0-22.5-0.2-33.6-0.2c-5,0-5.3-0.5-9,2.4c-2.4,1.7-3.4,4.1-4.6,6.7c-0.5,1-1,3.4-0.7,4.6c0.2,0.7-0.2,11.7-0.2,13.8c0,1.9,0,1.4-0.5,2.2c0.7,1,0,1.2-0.3,2.2c-0.9,2.6-0.7,2.2-2.6,3.3c-0.7,0.3-0.7,1.4-0.2,2.1c1,0.5,1,0.2,1.7,1c1.2,1.5,1.7,3.8,2.1,5.8c0.2,1.2,0,3.9,0,5.3c0,5.1,0,8.2,3.1,12.6c2.2,3.3,2.7,2.6,4.5,4.1c0.2,0.2,0.2,0.2,0.3,0.3c0.3,0.3,0.5,0.2,1,0.2l0.2,0.5c1.4,0,2.7-0.2,4.3-0.2c1.5,0,3.1,0,4.6,0c3.1,0,6,0.5,9,0.2c5.8-0.5,12.2,0,18-0.3c1.4,0,3.3,0,4.5,0.2c1,0.2,0.7,0.3,1.9,0.5c0.7,0,1,0.3,1.5,0.7c2.1,1.5,2.6,3.1,3.1,6c0.7,4.1,0.7,8.7,0.7,13c0.2,4.8,1.4,5.8,5,8.7c0.5,0.3,0.9,0.7,1.4,1c0.5,0.5,0,0.2,0.7,0.3l2.6,1c1.5,0.7,2.7,0.9,3.4,1.2c1.7,0.7,3.6,0.9,5.5,1.4c1.4,0.3,2.6,0.3,3.8,0.7c2.4,0.7,10.2,1,12.7,1c2.9,0.2,6-0.2,8.2,0.9c0.3,0.2,0.5,0.2,0.9,0.3l1.7,1.5c5.1,6,2.2,8.1,6,7.5c0.7-1.2,0.7-2.6,1.4-3.8c1.2-2.2,2.4-4.3,4.6-5.7c1.5-0.9,1.7-1,3.9-1c6.5-0.2,12.7-0.3,18.9-1.4c1-0.2,3.4-0.5,4.3-0.9c0.9-0.3,2.7-0.5,4.1-0.9c3.8-1.4,7.2-2.6,9.9-5.3c1.9-1.9,2.6-3.4,2.6-6.2c0-1,0.2-0.2,0.2-0.9c0,0-0.2-1.9-0.2-2.2c0-1,0.2-1.4,0.3-2.2v-3.9c0-0.9,0.2-0.5,0.2-1.2c0-0.5-0.2-0.9,0-1.4l0.5-3.3c0.3-1.2,0.9-2.9,1.5-3.6c1.4-1.7,1.2-1.4,3.1-1.9c1.5-0.5,2.4-0.7,4.3-0.7h9.8c1.5,0.2,3.3,0.2,5,0.2c6.7,0,13.4,0,19.9,0.2c5.3,0,6.5-2.2,9.3-4.6c0.5-0.3,0.2-0.2,0.3-0.9c0.2-0.3,0.7-1,1-1.5c0.7-1,0.3-0.9,0.9-0.9c0.2,0,0.2,0,0.3,0c-0.3-0.5-0.7-0.7-0.2-1.5c0.5-0.7,0.2-0.7,0.3-1.5c0-0.5,0.3-0.9,0.3-1.4c0-0.5-0.2-0.9,0-1.5c0.3-1.7-0.2-1.5-0.2-3.1l0.3-7c1.4-6.2,3.1-4.5,3.3-5.7c0.5-1.9-0.7-1.7-1-2.1c-0.7-0.5-1.4-1.7-1.7-2.6c-1.7-4.3-0.5-14.4-0.9-19.5c-0.2-3.3-0.3-2.1-0.9-3.6c-0.2-0.3-0.2-0.7-0.3-1c-1.4-2.9-3.8-6.2-7-7.4c-2.1-0.7-2.9-0.7-5.3-0.5c-1.9,0-3.9,0-5.8,0c-3.9,0-7.8,0.2-11.5,0.2c-7.8,0-15.4,0-23.3,0c-1.9,0-3.9,0-5.8,0c-3.1,0.2-6.9-0.2-9.1-2.7c-1.4-1.5-1-2.4-1.2-4.6c-0.2-7.9,1.5-12.9-5.1-18.2c-3.9-3.3-12-4.8-18.3-4.8c-1.9,0-3.8,0-5.5-0.5c-1.5-0.5-2.4-1.5-3.4-2.4C1202.7,49,1201.9,45.7,1200.9,43.3L1200.9,43.3z"/><path class="st6" d="M1200.9,43.3c1,2.6,1.9,5.8,4.1,7.5c1,0.9,1.9,1.9,3.4,2.4c1.7,0.5,3.6,0.3,5.5,0.5c6.3,0.2,14.4,1.7,18.3,4.8c6.5,5.3,4.8,10.3,5.1,18.2c0,2.4-0.2,3.1,1.2,4.6c2.1,2.6,6,2.7,9.1,2.7c1.9,0,3.9,0,5.8,0c7.8,0,15.4,0,23.3,0c3.9,0,7.8-0.2,11.5-0.2c1.9,0,3.9,0.2,5.8,0c2.2,0,3.3-0.2,5.3,0.5c3.3,1.2,5.7,4.6,7,7.4c0.2,0.3,0.2,0.7,0.3,1c0.5,1.5,0.5,0.3,0.9,3.6c0.3,5.1-0.9,15.3,0.9,19.5c0.3,0.9,1,2.1,1.7,2.6c0.5,0.3,1.7,0.2,1,2.1c-0.3,1.2-2.1-0.5-3.3,5.7l-0.3,7c0,1.5,0.5,1.4,0.2,3.1c-0.2,0.7,0,1,0,1.5c0,0.5-0.3,0.9-0.3,1.4c-0.2,0.9,0.2,0.9-0.3,1.5c-0.5,0.7-0.2,1,0.2,1.5c-0.2,0.2-0.2,0-0.3,0c-0.5,0-0.2-0.2-0.9,0.9c-0.2,0.3-0.9,1.2-1,1.5c-0.3,0.7,0,0.3-0.3,0.9c-2.7,2.6-3.9,4.8-9.3,4.6c-6.5-0.2-13.2,0-19.9-0.2c-1.5,0-3.4,0-5-0.2h-9.8c-1.9,0-2.7,0.2-4.3,0.7c-1.9,0.7-1.7,0.3-3.1,1.9c-0.7,0.9-1.2,2.4-1.5,3.6l-0.5,3.3c-0.2,0.5,0,0.9,0,1.4c0,0.7-0.2,0.3-0.2,1.2v3.9c0,0.9-0.3,1.2-0.3,2.2c0,0.3,0.2,2.2,0.2,2.2c-0.2,0.7-0.3-0.2-0.2,0.9c0,2.7-0.7,4.3-2.6,6.2c-2.7,2.7-6.2,3.9-9.9,5.3c-1.2,0.5-3.3,0.5-4.1,0.9c-0.9,0.5-3.1,0.7-4.3,0.9c-6.2,1.2-12.3,1.4-18.9,1.4c-2.1,0-2.4,0.2-3.9,1c-2.2,1.2-3.4,3.4-4.6,5.7c-0.7,1.2-0.9,2.6-1.4,3.8c-3.8,0.5-0.9-1.5-6-7.5l-1.7-1.5c-0.3-0.2-0.5-0.3-0.9-0.3c-2.4-1.2-5.5-0.9-8.2-0.9c-2.6-0.2-10.3-0.3-12.7-1c-1.4-0.3-2.6-0.3-3.8-0.7c-1.9-0.5-3.8-0.5-5.5-1.4c-0.7-0.3-1.9-0.5-3.4-1.2l-2.6-1c-0.7-0.2-0.2,0-0.7-0.3c-0.3-0.3-0.9-0.7-1.4-1c-3.4-2.9-4.8-3.9-5-8.7c-0.2-4.3,0-9-0.7-13c-0.5-3.1-1.2-4.6-3.1-6c-0.5-0.3-0.9-0.7-1.5-0.7c-1-0.2-0.9-0.3-1.9-0.5c-1.2-0.2-3.1-0.2-4.5-0.2c-6,0.3-12.3-0.2-18,0.3c-2.9,0.2-5.8-0.2-9-0.2c-1.5,0-3.1,0-4.6,0s-2.9,0.2-4.3,0.2l-0.2-0.5c-0.7-0.2-0.7,0-1-0.2c0,0-0.2-0.2-0.3-0.3c-1.7-1.5-2.2-0.9-4.5-4.1c-3.1-4.3-3.1-7.2-3.1-12.6c0-1.4,0.2-4.1,0-5.3c-0.3-2.1-1-4.3-2.1-5.8c-0.7-0.9-0.7-0.5-1.7-1c-0.3-0.7-0.3-1.7,0.2-2.1c1.9-1,1.7-0.9,2.6-3.3c0.3-1,0.9-1.2,0.3-2.2c0.5-0.9,0.5-0.3,0.5-2.2c0-2.1,0.3-12.9,0.2-13.8c-0.3-1.2,0.2-3.6,0.7-4.6c1.2-2.6,2.2-4.8,4.6-6.7c3.8-2.9,4.1-2.4,9-2.4c11.1,0,22.5,0.2,33.6,0.2h14.2c2.2,0,1.4,0.2,2.4-0.3c1.4-0.7,1.7,0,3.8-1.9c1.2-1,1.5-1.9,1.5-3.9c0-4.8-0.9-11.4,1.5-15.4c0.5-0.9,2.4-3.3,3.3-3.8c0.3-0.2,0.5-0.3,0.9-0.5c0.3-0.3,0.3-0.3,0.9-0.5c0.7-0.3,0.5,0,1-0.5c0.7-0.5,3.1-1.4,3.9-1.5c5-1.5,9.6-1.9,15-1.9c1.2,0,1.4-0.2,2.4-0.3c1-0.2,2.7-1.4,3.4-2.1c1.4-1.4,2.7-3.6,3.1-5.5l0.9-1.9C1199,43.1,1199.8,43.1,1200.9,43.3L1200.9,43.3z M1197.3,202.5c1.2,0,2.6,0,3.8,0c1.4,0,2.2,0.2,3.3-0.7c0.7-0.5,1.2-1.2,1.9-2.1c0.7-1,0.7-1.5,1.2-2.7l1.4-2.4c2.4-3.1,5.5-2.4,9.1-2.4c1.4,0,2.4,0,3.6-0.2c1.2-0.2,2.4-0.2,3.8-0.2c5.8-0.3,14.2-2.1,19.2-4.1c3.9-1.5,6.3-3.8,9-6.7c0.9-1,2.4-3.3,2.6-5.3l0.2-7.8l0.7-7c0.5-2.7,0.9-3.8,3.3-4.5c3.1-0.9,11.5-0.2,15.1-0.2c5.1,0,10.3,0,15.4,0c4.1,0.2,10.2,0.7,13.5-1.7c2.4-1.7,5.7-5.1,7-8.4c1-2.6,1.4-3.1,1.5-6.3c0.2-2.9-0.2-5.7,0-7.5c0.3-8.1,2.7-5.1,7.2-8.2c0.9-0.5,1.2-1.2,1.2-2.7c0-1.5-0.7-1.9-1-2.9c-0.3-0.9-0.3-0.7-0.9-1c-1.2-0.9-1.5-0.7-2.6-1.2c-0.3-0.2-1-0.3-1.5-0.3c-1.4-0.2-2.1-0.2-2.2-1.7c-0.2-1.2,0.2-2.6,0-3.8c-0.9-5.8,1-13-0.9-18.6c-0.2-0.3-0.2-0.3-0.3-0.7c-0.2-0.5,0-0.5-0.2-0.9c-0.3-0.9-0.3,0.2-0.5-1.4c-0.3-0.2-0.9-0.7-1-1c-0.7-1.4-4.6-5.3-6-6.3l-0.5-0.3c-0.3-0.2,0,0-0.3-0.2c-3.4-2.1-7.9-1.4-12.2-1.4c-14.7,0-29.5,0.2-44.4,0c-1.2,0-2.1-0.2-2.9-0.7c-0.3-0.2-0.3-0.3-0.9-0.5l-0.2-11c0-2.1,0-1.7-0.3-3.6c-0.2-1-0.7-1.9-1-2.7c-0.2-0.5-0.2-0.3-0.5-0.9c-1.4-1.9-3.1-3.8-4.8-5.3c-0.9-0.7-3.4-2.4-4.6-2.9c-0.5-0.2-0.9-0.2-1.4-0.5c-0.7-0.3-0.9-0.3-1.5-0.5c-2.4-1-7-1.5-9.8-1.7c-4.1-0.3-7.9,1-10.6-2.6c-0.3-0.5-0.2-0.3-0.7-1.2l-0.3-0.9c-0.3-0.5-0.3-1-0.7-1.9c-0.3-0.5-0.5-0.7-0.7-1.2c-0.2-0.5-0.5-0.7-0.9-1c-0.5-0.5-1.2-1.5-2.2-1.5c-1,0-2.6,0-3.8,0c-1.5,0-2.2-0.3-3.1,0.7c-1.9,2.1-1.5,1.5-2.6,4.1c-0.5,1.4-1.2,3.1-2.4,4.1c-0.3,0.3-0.9,0.5-1.2,0.7c-2.6,1.4-7.4,0.5-10.5,1c-1.2,0.2-2.2,0.2-3.3,0.5c-0.7,0.2-0.9,0.2-1.5,0.3c-0.7,0-1,0.3-1.5,0.3c-2.2,0.3-7,2.6-9,4.3c-0.3,0.3-0.2,0.3-0.3,0.5c-0.5,0.7-2.7,2.1-3.9,4.5c-2.4,4.6-1.7,7.8-1.7,13.4c0,1.4,0.5,4.1-0.9,5c-0.5,0.3-0.5,0.5-1.2,0.5c-1,0-1,0.3-3.3,0.3l-11.4,0.2c-12.7,0.2-25.4,0-37.9,0c-1.7,0-3.9-0.2-5.3,0.9l-1,0.5c-2.7,2.2-5.7,4.8-7.2,8.1c-2.2,4.6-1.9,7.8-1.9,13.4c0,2.6,0,5,0,7.5c0,4.5-2.4,4.5-5.1,6.3c-2.9,1.9-1.7,1.5-2.6,2.1c-0.3,0.2-0.3,0.2-0.5,0.3c-0.3,0.3-0.5,0.9-0.5,1.4c-0.2,1.4,0.7,1.9,1.4,2.6c1.2,1.4,1.7,1.5,3.4,2.2c0.7,0.3,1.9,0.9,2.2,1.5c0.2,0.2,0.2,0.5,0.5,1.4c0.3,0.7,0.2,0.7,0.7,1.2c0.3,0.5,0.3,0.7,0.5,1.5c0.2,2.6-0.3,8.7,0.2,11c0.2,0.7,0.2,0.9,0.3,1.5c0.3,1.5,1.7,4.3,2.7,5.7c0.2,0.2,0.3,0.3,0.3,0.5c1,1.4,2.6,2.7,3.8,3.9c0.7,0.9,1.9,1.4,2.6,1.9c0.2,0.2,0,0,0.2,0.2c0.3,0.2,0,0,0.3,0.2c0.7,0.2,0.5,0.3,1.4,0.5c3.6,0.7,18.6,0.3,22.6,0.3c4.8,0,10.3-0.3,15.1-0.2c1.2,0,3.6,0.2,4.8,0.9c0.3,0.2,1.2,1.5,1.2,2.6c0.2,1.9,0.5,2.2,0.5,5.1l0.5,10.8c0,1.2,0.5,2.1,1,2.9c0.9,1.7,2.1,2.7,3.4,4.1l0.3,0.3c0.2,0.2,0,0,0.2,0.2l1.5,1.4c0.9,0.9,2.2,1.7,3.4,2.2c0.9,0.5,0.5,0.3,1.4,0.5c0.5,0.2,0.2,0.2,0.7,0.5c0.7,0.2,0.7,0.3,1,0.5c0.2,0.2,0.5,0,0.9,0.2c1.2,0.3,3.1,1.2,4.3,1.4c0.7,0.2,0.9,0,1.5,0.3c3.3,1.4,17,2.1,20.6,2.2c3.1,0,5.7,0,7.2,2.4c0.9,1.2,1.2,2.6,1.9,4.1c0.2,0.5,2.1,3.1,2.4,3.3c0.3,0.2,0.5,0.2,0.7,0.2C1197.3,202.3,1196.6,202.1,1197.3,202.5L1197.3,202.5z"/><path d="M1221.6,139.3c-0.3-0.5-0.2-1.9-0.2-2.7c3.3-0.2,7.2-0.2,10.6-0.2c1.4,0,2.6-0.2,2.4,1.4c0,1.9-0.2,1.5-2.1,1.7c-1.2,0-2.6,0-3.8,0.2l-6.7-0.2C1221.6,139.3,1221.8,139.3,1221.6,139.3L1221.6,139.3z M1221.6,129.7c1.4-0.2,11-0.5,12.3,0c1.2,0.5,1.2,2.1,0.5,2.9c-0.5,0.5-6.9,0.5-8.1,0.5C1221.4,133.1,1221,133.6,1221.6,129.7L1221.6,129.7z M1217.3,143.2c1.2,0.2,14.7,0.2,16.6,0c1.7-0.2,2.1-0.2,3.3-0.9c0.5-0.3,0.9-0.2,1.2-0.9c0.2-0.3,0.3-1,0.7-1.5c0.7-1.9,0.5-1.4-0.3-3.9c-0.2-0.7,0-0.3-0.3-0.7c-0.5-0.3-1-0.3-1.2-1c0.5-0.5,1,0.2,1.9-2.1c0.5-1.2,0.7-2.2,0-3.3c-0.5-1,0-1.2-1.7-2.4c-0.9-0.5-2.1-0.9-3.3-0.9c-2.1,0-15.4,0-16.6,0C1216.8,127.1,1216.8,141.3,1217.3,143.2L1217.3,143.2z"/><path d="M1164.5,125.9c-0.5,1-0.2,6.9-0.2,8.6c0,1.5-0.3,7.9,0.2,8.6c0.7,0.3,19.8,0.3,21.4,0c0.2-0.7,0.2-1.2,0.2-1.9c0-0.3,0-0.7,0-1c0-0.5,0-0.5-0.3-0.7c-1-0.5-15.6,0.3-16.6-0.3c-0.2-0.2,0,0-0.2-0.3l-0.2-1c0-0.7,0-1.2,0.2-1.7c1.4-0.7,13.2,0.2,14.2-0.3c0.5-0.3,0.3-2.6,0.2-3.3c-2.4,0-4.8,0-7.2,0c-1.9,0-5.7,0.2-7.4-0.2l0.2-2.9c1-0.7,15.6,0.5,16.5-0.3c0.3-0.5,0.2-2.1,0.2-2.9c-0.2-0.9-0.7-0.5-2.4-0.5C1177.7,125.8,1169.4,125.8,1164.5,125.9L1164.5,125.9z"/><path d="M1203.8,129.5c1.4,0,2.9-0.2,3.6,0.7c0.7,1,0.3,2.6-0.5,3.1c-1,0.5-11.1,0.3-11.7,0.2c-0.2-0.7-0.2-3.1,0-3.8L1203.8,129.5L1203.8,129.5z M1190.9,125.9c-0.5,1.2-0.2,6.9-0.2,8.6c0,1.4-0.2,7.9,0.2,8.6c0.5,0.2,3.3,0.2,3.8,0c0.3-0.2,0.3-0.5,0.3-1.2c0-1.2-0.3-4.1,0.2-4.5c0.7-0.5,7.5-0.3,9-0.2l2.1,4.8c0.2,0.3,0,0.3,0.2,0.5c0.3,0.7,0.7,0.7,1.9,0.7c1,0,2.4,0.2,3.1-0.3c-0.2-2.1-2.7-4.5-2.4-6.5c1.4-1,1.2-0.7,2.2-2.1c1-1.5,0.7-1.7,0.7-3.8c0-1-0.9-2.6-1.2-3.1c-0.7-0.9-1.5-1.5-2.7-1.7C1206.6,125.8,1191.9,125.5,1190.9,125.9L1190.9,125.9z"/><path d="M1167.4,104.6c1.7-0.5,6.2-0.2,8.2-0.2c1.2,0,2.9-0.2,3.8,0.5c0.9,0.7,0.9,2.1,0.2,2.9c-0.9,0.9-2.2,0.7-3.6,0.7c-1,0-7.9,0.2-8.4-0.2C1167,108.1,1167.1,105.3,1167.4,104.6L1167.4,104.6z M1163.1,101c-0.3,0.9-0.2,15.6,0,17.4c1.2,0,3.8,0.3,4.5-0.2c0.2-1.2,0-4.8,0-5.3c0.2-0.3,0-0.2,0.2-0.3c1-0.3,7.2-0.2,8.7-0.2c0.5,1,1,1.7,1.5,2.9c0.2,0.7,1.2,2.4,1.7,2.9h4.3c0-0.9-0.2-0.2-0.7-1.5c-0.7-2.1-2.1-3.6-2.1-4.8c2.7-1.5,2.4-2.4,2.9-3.8c0.7-1.5,0-3.9-0.9-5.1c-0.5-0.7-1.7-1.7-2.6-1.9C1179.3,100.6,1164.2,100.6,1163.1,101L1163.1,101z"/><path d="M1216.8,116.6c0.7,1,3.8,1.2,5,1.5c4.1,1,4.6,1,8.6,0.3c2.2-0.3,5.5-1.5,6.5-3.4c1.5-2.4,0.7-5.7-1.9-6.5c-3.6-1.2-5-1-8.7-1c-1.7,0-4.6,0.2-5.7-1c-0.2-1.5,1.4-1.9,2.7-1.9c1.4-0.2,2.7-0.5,4.1-0.5c1.7-0.2,2.7,0.3,4.3,0.5c1.4,0.2,2.6,1,3.8,1c0.2-0.2,0.2-0.2,0.2-0.3l0.3-0.5c0.2-0.5,0-0.2,0.2-1c0.2-0.7,0.5-1,0.5-1.9l-5.7-1.5c-3.1-0.3-7.9-0.5-10.5,0.9c-2.1,1.2-6,3.1-3.9,6.9c0.2,0.3,0.2,0.3,0.5,0.5l0.7,0.5c2.7,3.3,16.5,0.2,15.1,3.6c-1,2.7-9.3,2.1-11.7,1.4c-0.7-0.2-1.2-0.3-1.9-0.5c-1.9-0.5-1.5-1.7-2.4,0.9C1217.3,115.4,1216.8,116.1,1216.8,116.6L1216.8,116.6z"/><path d="M1260,136.7c0.7,1.9-0.3,2.2-1.7,2.9c-0.7,0.3-1,0.5-2.1,0.5s-1.5,0.2-2.4,0.3c-0.9,0-1.5,0-2.2-0.3c-0.5-0.2-2.7-0.2-4.5-0.9c-2.9-1-1.9-0.7-2.7,0.9c-0.3,0.5-0.5,0.9-0.7,1.5c0.3,0.2,0.5,0.3,0.9,0.5c0.5,0.2,0.7,0.5,1,0.7c0.5,0.3,0.9,0,1.5,0.2c0.5,0.2,0.5,0.3,1.2,0.3c1.9,0.3,3.9,0.7,6,0.5c0.5,0,0.9-0.2,1.4-0.2c0.7-0.2,0.5-0.2,1.4-0.3c2.7-0.3,4.8-0.7,6.7-3.3c1.5-2.1,0.7-5.1-1.9-6.7c-1.7-1-6.3-0.7-8.6-1c-1.7-0.2-4.8,0-5.8-0.9c-0.2-0.9,0.2-1.4,0.7-1.5c2.2-1,3.1-1,6-1c4.1,0,7,1.5,8.1,1.4c0.3-0.7,0.2-0.9,0.5-1.5c0.3-0.5,0.5-0.9,0.5-1.7c-1.2-0.7-3.3-1.4-4.8-1.4c-1,0-3.3-0.9-5.5-0.7c-0.7,0-0.7,0.3-2.6,0.5c-2.1,0.2-5.1,1.5-6.5,3.1c-0.9,1.2-1.2,3.4-0.2,4.8c1,1.2,2.1,1.9,4.1,2.2C1251.9,136.3,1255.9,136.1,1260,136.7L1260,136.7z"/><path d="M1114.3,108.4c-0.5-4.6-0.3-3.8,4.5-3.8c1.9,0,6.9-0.3,7.8,0.5c0.9,0.9,0.7,2.4-0.3,2.9C1125.1,108.9,1115.5,108.5,1114.3,108.4L1114.3,108.4z M1114.2,118.3c0.3-0.9,0-4.5,0.2-5.8c3.9-1.2,13.2,1.7,16.2-2.6c1.9-2.6,1.4-6.7-2.1-8.4c-1.9-0.9-3.6-0.7-5.7-0.7c-4.1,0-8.7-0.3-12.7,0c-0.3,1.2-0.2,9-0.2,10.8c0,7-0.5,6.7,1.5,6.7C1112.4,118.3,1113.3,118.5,1114.2,118.3L1114.2,118.3z"/><path d="M1136.1,118.1c0.9,0.3,3.1,0.2,4.1,0c0.5-1.9,0-4.8,0-6.9c1.4-0.5,4.6-0.3,6.5-0.3c1.4,0,5.5-0.3,6.5,0.3c0.3,1.5-0.3,5.8,0.2,6.7c0.9,0.3,3.3,0.3,4.1,0c0.2-0.7,0.2-16.2,0-17c-0.7-0.2-3.6-0.3-3.9,0.2c-1,0.9,0.3,4.8-0.5,6.2h-12.3c-0.2-1.2-0.2-2.2-0.2-3.4c0-0.9,0.5-2.7-0.5-2.9c-0.5-0.2-2.9-0.2-3.4,0c-0.7,0.3-0.3,2.4-0.3,3.1C1135.9,107,1135.8,115.9,1136.1,118.1L1136.1,118.1z"/><path d="M1198.3,111.3c-2.2,0-2.1,0-0.2-3.1c0.3-0.5,0.3-0.3,0.7-0.9c0.5-0.9,0.9-2.4,1.7-2.7c0.3,0.3,1.4,2.4,2.1,3.3l1.7,3.1c0,0.7,0,0.2-0.2,0.3C1203.8,111.5,1199.3,111.3,1198.3,111.3L1198.3,111.3z M1188.2,118c0.7,0.3,3.4,0.2,4.3,0c1-1.7,0.7-1.2,1.4-2.4c0.9-1.4,1.7-1,4.5-1h6.3c1.7,0,1.9-0.3,2.7,1c0.5,0.7,1,1.5,1.5,2.4h4.3c-0.2-1.5-1-1.9-2.2-4.5l-7.4-12.9h-5.7c-0.2,0.3-0.9,1.7-1.2,2.1c-0.3,0.5-0.9,1.4-1.2,2.1c-0.9,1.4-1.7,2.7-2.4,4.3c-0.2,0.3-0.3,0.9-0.5,1c-1.2,1.9-0.7,1.2-1.7,3.3c-0.3,0.7-0.9,1.2-1.2,2.1C1188.7,117.1,1188.2,117.5,1188.2,118L1188.2,118z"/><path d="M1257.1,111.1h-7.5c0-1,0.3-1.2,0.9-1.9c0.3-0.7,0-0.2,0.9-1.7c1.2-1.7,1.4-3.3,2.1-3.3c0.7,0,1.5,2.6,1.9,3.3C1255.8,108.2,1257,110.3,1257.1,111.1L1257.1,111.1z M1240.8,118.1c1.2,0.2,3.1,0.2,4.1,0l2.1-3.4c1.2-0.2,3.1,0,4.5,0c1.5,0,2.9-0.2,4.5,0c1.5,0.2,2.9-0.3,3.8,0.5l1.5,2.9h4.5c-0.2-0.9-0.5-1-1.2-2.6l-4.1-7.2c-0.9-1.4-3.1-5.1-4.1-7c-0.7-1-1.5-0.7-2.9-0.5c-1,0.2-2.7-0.3-3.3,0.3l-4.1,7.2C1245.3,109.7,1240.8,116.6,1240.8,118.1L1240.8,118.1z"/><path d="M1136.9,125.9c-0.2,0.5,0.3,0.7,1,2.4l1.5,2.9c0.2,0.3,0.2,0,0.3,0.5c0.2,0.5,0.2,0.7,0.5,1.4l5,9.4c0.3,1,1,0.9,3.1,0.9c1.2,0,2.6,0.2,3.1-0.5c0.2-0.2,0.5-0.9,0.7-1c0.9-1.5,2.2-4.8,3.1-6l2.6-4.6c0.3-0.9,0.9-1.5,1.2-2.4c0.2-0.5,0.2-0.7,0.5-1.2c0.3-0.5,0.5-0.7,0.5-1.4c-1,0-2.1,0-3.1,0c-2.2,0-1.2,0.2-3.1,3.1c-0.5,0.7-0.5,1.5-1,2.2c-0.9,1.2-2.9,5.7-3.3,6.2c-0.3,0.3-0.3,0.5-0.5,1c-0.2,0.5-0.2,0.7-0.9,0.9c-0.5-0.5-4.6-9.3-5.1-10.3c-0.2-0.3-0.3-0.7-0.5-1c-0.2-0.3-0.5-0.5-0.7-1c-0.5-1.2-0.2-1.2-1.9-1.2C1139,125.9,1137.4,125.8,1136.9,125.9L1136.9,125.9z"/><path d="M1270.2,100.9c-0.3,2.4,0,10.5-0.2,14.1c0,0.7,0,1.5,0,2.4c0,1,0.3,1.2,1.2,1.2c3.1,0.2,6.3-0.2,9.4-0.2c2.6,0,6.9,0.3,9.3-0.2c0.2-0.7,0.2-1.2,0.2-2.1s0.2-1.5-0.7-1.5c-1.5,0-3.3,0-4.8,0c-1.4,0-9.1,0.2-9.8-0.2c-0.2-0.2-0.2-0.5-0.2-1c0-0.3,0-0.7,0-1.2v-7c0-0.7,0.2-3.9-0.2-4.3C1273.9,100.5,1271,100.9,1270.2,100.9L1270.2,100.9z"/><path d="M1209.6,83.7c0-1,0-0.9,0.5-1.4c0.5-0.9,1.5-2.4,2.9-2.2C1213.5,81.3,1212.3,83.8,1209.6,83.7L1209.6,83.7z M1200.2,81.1c0.2,1-0.5,1.7-0.9,2.4l-2.1,4.5c-0.3,1-0.5,1.5,0,2.6c0.3,0.7,1.7,0.9,2.6,0.7c1.4-0.2,4.3-2.1,5.3-3.1c0.5-0.3,0.3-0.7,0.9-0.9c0.3,0.3,0.2,0.9,0.2,1.4c0,1.4,0.5,1.9,2.2,2.1c2.9,0.2,4.5-0.9,6.5-2.2c0.7-0.3,1.2-0.7,1.7-1.2c0.5-0.5,0.9-0.9,1.4-1.5c0.5-0.5,1.2-0.9,1-1.9c-1,0.2-1,1-2.7,2.4c-1,0.7-2.1,1.5-3.1,2.2c-0.9,0.5-3.1,1.4-4.1,0.5c-1-0.9-0.7-3.1-0.2-4.3c0.2-0.2,1.2-0.3,2.2-0.7c0.7-0.3,1.4-0.5,2.1-0.9c1.4-0.7,2.2-2.2,2.1-3.9c-1.2-0.5-2.7-0.2-3.9,0.3c-1,0.5-3.1,3.1-3.8,4.1c-0.3,0.5-0.5,1.4-0.9,1.7l-2.7,2.4c-0.7,0.5-2.6,1.9-3.6,1.4c-1.5-0.7-0.9-2.4-0.2-3.8c1.5-2.9,1-2.4,2.7-5.1c0.3-0.5,1-1.4,0.5-1.7c-0.5-0.5-2.2,0.5-2.7,0.9c-1.4,0.7-1.9,1.4-2.6,1.5c0.3-1.4,3.8-7.2,5-9c0.7-1,3.6-3.6,5-4.3c2.4-1.2,5.1-1.9,7.5-0.3c2.1,1.4,1.2,2.4,2.1,2.7c0.7-0.5,1.2-4.8-3.4-5.5c-2.9-0.3-5.7,1-7.2,2.4c-0.9,0.9-3.1,2.4-3.8,3.4c-1.4,1.9-1.2,1.4-2.9,4.1c-0.7,1-1.2,1.9-1.9,2.9c-0.7,1-1.2,1.9-1.9,2.9c-0.5,0.9-1.4,1.9-1.7,2.9c-0.2,0.2-0.2,0.5-0.3,0.7c-0.2,0.3-0.2,0.3-0.5,0.7l-2.6,4.6c0,0.7,1,1,1.5,0.5l1-1.4l1.7-3.1C1196.2,84.5,1198.5,81.1,1200.2,81.1L1200.2,81.1z"/><path d="M1181.4,68.1c-1,1-0.3,0-1.9,1.5c-0.7,0.7-1.2,1-1.5,1.9c-0.5,1-2.2,3.8-1.9,5c0.7,0,0.7-1,1-1.7c0.9-1.5,2.7-3.9,4.3-4.8c2.2-1,7.8-1.9,10.5-1.2c-0.2,0.9-7,12.2-7.5,13.2c-0.7,1-3.6,5.5-3.6,6.9c0,1.5,1.7,1.7,3.3,1.9c1.2,0,4.1,0.3,4.8-0.3c-0.3-0.5-0.5-0.3-1.2-0.3c-1.7,0-3.4,0-3.4-2.1c0-1.4,1.5-3.9,2.2-4.8c0.9-1.4,1.7-3.1,2.6-4.5c1.2-1.9,4.1-6.9,5.3-8.6c1.7-2.2,1.4-1.4,5.3-1.7c2.2-0.2,3.9-0.3,5.7-1.4c0.5-0.3,1.4-1.5,1.4-2.2c0-0.7-0.9-2.1-1.5-2.1c-0.5,0.7-0.2,0.7-0.3,1.4c-0.2,0.7,0,0.2-0.3,0.5c-0.3,0.7-0.9,1.7-2.6,2.1c-1.5,0.3-0.3,0.2-1.2,0.5c-0.2,0-1.2,0.2-1.5,0.2c-1.2,0.2-1.9,0.3-3.3,0.3C1191.1,67.9,1186.3,67.9,1181.4,68.1L1181.4,68.1z"/><path class="st6" d="M1164.7,171.8c0.9-1.2,2.2-5.3,2.9-5.8c0.5,0.7,0,4.5,0.3,5.8c0.7,0.2,1.5,0.2,2.1,0c0.2-0.7,0.3-7.4,0-8.1c-0.3-0.9-2.6-0.5-3.4-0.3c-0.7,0.9-0.9,1.7-1.5,2.9c-0.9,1.5-0.9,2.7-1.5,2.9c-0.5-0.3-1.4-3.1-2.1-4.3c-0.5-0.9-0.3-1.5-1.5-1.7c-0.9-0.2-2.2-0.2-2.9,0l-0.2,5.5c0,2.4-0.3,3.8,1.7,3.3c1.2-0.3,0.7-4.1,0.5-6c1,0.5,1,1.9,1.7,2.9c0.9,1.7,0.7,1.2,1.4,2.9L1164.7,171.8L1164.7,171.8z"/><path class="st6" d="M1241.8,165.3c0.2-0.3,0.9-1.9-0.5-2.1c-1-0.2-9.3-0.2-9.8,0.2c-0.3,0.7-0.3,7.4,0,8.4c0.9,0.3,9.4,0.2,10.8,0c0-0.7,0-1.4-0.2-1.9c-0.5-0.5-5.8-0.2-7.2-0.2c-1.2,0-1.2-0.3-1-1.5c5.1-0.5,7.8,1.2,7.4-1.7c-0.9-0.5-5.8-0.2-7.4-0.3V165L1241.8,165.3L1241.8,165.3z"/><path class="st6" d="M1210.5,172.1c0.2-0.5,0.2-6.2,0.2-7.2c0-1.4-0.3-2.1-1.9-1.5c-1.4,0.3,0.5,2.9-1.2,3.3c-0.7,0.2-4.3,0-5.1-0.2l-0.2-0.2c-0.5-0.7,0.7-2.7-0.7-2.9c-2.6-0.5-2.1,1.7-1.9,2.9c0,0.9,0,5.1,0.2,5.5c0.2,0.2-0.2,0.2,0.5,0.2c2.7,0.5,1.4-1.5,1.9-3.1c1-0.2,5-0.3,6,0c0.3,1-0.2,2.2,0.2,3.1C1209,172.1,1209.9,172.1,1210.5,172.1L1210.5,172.1z"/><path class="st6" d="M1220.4,166.5c1,0.2,1.4,1,2.1,1.5l1.9,1.5c1.4,1.2,2.4,3.1,4.1,2.2c1-0.5,0.5-7.4,0.3-8.6c-0.7,0-1.4,0-1.9,0.2c-0.3,1,0,3.9-0.2,5.3c-0.7,0-0.7-0.3-1-0.7c-1.7-1.7-2.7-2.6-3.6-3.4c-0.9-0.9-1.2-2.1-3.4-1.5c-0.3,1-0.3,7.8,0.2,8.6l1.7,0.2L1220.4,166.5L1220.4,166.5z"/><path class="st6" d="M1167.4,104.6c-0.2,0.7-0.3,3.4,0.2,3.8c0.3,0.3,7.2,0.2,8.4,0.2c1.4,0,2.7,0.2,3.6-0.7s0.7-2.2-0.2-2.9c-0.9-0.7-2.6-0.5-3.8-0.5C1173.6,104.5,1169.1,104.1,1167.4,104.6L1167.4,104.6z"/><path class="st6" d="M1114.3,108.4c1.2,0.2,10.8,0.5,12-0.3c0.9-0.7,1.2-2.1,0.3-2.9c-1-1-6-0.5-7.8-0.5C1114.2,104.6,1114.1,103.7,1114.3,108.4L1114.3,108.4z"/><path class="st6" d="M1195,129.5c-0.2,0.7-0.2,3.3,0,3.8c0.5,0.2,10.6,0.3,11.7-0.2c0.9-0.5,1.4-2.1,0.5-3.1c-0.7-0.9-2.2-0.7-3.6-0.7L1195,129.5L1195,129.5z"/><path class="st6" d="M1195.9,168.7c-0.9,0.2-0.9,0.9-1.9,1.2c-2.6,1.2-6.3-0.3-5.3-3.1c0.5-1.4,2.7-1.9,4.6-1.5c1.7,0.3,1.7,0.9,2.1,1c0.9,0.3,1.7-0.3,2.1-0.9c-0.3-0.5-0.9-0.9-1.2-1.2c-1-0.9-3.8-1.4-5.5-1c-2.4,0.3-4.6,1.9-4.6,4.5c-0.2,4.6,6.7,5.1,9,4.1c1-0.5,2.1-1,2.1-2.2c-0.3-0.2-0.5-0.2-0.7-0.3C1196.2,168.9,1196.4,168.9,1195.9,168.7L1195.9,168.7z"/><path class="st6" d="M1221.6,129.7c-0.5,3.9-0.2,3.4,4.6,3.4c1.2,0,7.5,0.2,8.1-0.5c0.9-0.9,0.7-2.4-0.5-2.9C1232.4,129.1,1222.8,129.3,1221.6,129.7L1221.6,129.7z"/><path class="st6" d="M1176.6,168.5c-0.2-1,0.9-2.1,1.2-2.9c0.3-0.5,0.2-0.5,0.7-0.5c0.2,0.2,0.7,1.4,1,1.7c0.3,0.5,0.9,1.2,0.9,1.5C1179.8,168.7,1177.5,168.5,1176.6,168.5L1176.6,168.5z M1174.6,170.9c1-0.5,0.3-0.7,1.9-0.7c0.9,0,1.7,0,2.6,0c2.9,0,2.2-0.3,3.6,1.7c0.7,0,1.2,0.2,1.9-0.2c0-0.7-0.3-0.9-0.7-1.4l-2.1-3.8c-0.5-0.9-1-1.7-1.5-2.6c-0.3-0.5-0.7-0.7-1.4-0.7c-0.7,0-1.5-0.2-2.1,0.3l-2.1,3.9c-0.3,0.7-2.1,2.9-2.1,4.1h1.7L1174.6,170.9L1174.6,170.9z"/><path class="st6" d="M1221.6,139.3c0.2,0.2,0,0,0.3,0.2l6.7,0.2c1.2,0,2.6,0,3.8-0.2c1.7,0,1.9,0.3,2.1-1.7c0-1.5-1-1.4-2.4-1.4c-3.4,0-7.4,0-10.6,0.2C1221.4,137.3,1221.3,138.5,1221.6,139.3L1221.6,139.3z"/><path class="st6" d="M1198.3,111.3c1,0,5.3,0.2,6-0.2c0.2-0.2,0.2,0.3,0.2-0.3l-1.7-3.1c-0.5-0.9-1.7-2.9-2.1-3.3c-0.9,0.3-1.2,1.9-1.7,2.7c-0.3,0.7-0.5,0.5-0.7,0.9C1196.2,111.3,1196.1,111.3,1198.3,111.3L1198.3,111.3z"/><path class="st6" d="M1257.1,111.1c-0.2-0.9-1.4-2.9-1.9-3.6c-0.5-0.7-1.2-3.3-1.9-3.3s-0.9,1.4-2.1,3.3c-1,1.5-0.5,1-0.9,1.7c-0.3,0.7-0.9,0.9-0.9,1.9H1257.1L1257.1,111.1z"/><path class="st6" d="M1215.4,164.1c-0.2-1.2-1.9-0.5-1.9-0.5c-0.3,0.3-0.2,7.4,0,8.2h1.7L1215.4,164.1L1215.4,164.1z"/><path d="M1176.6,168.5c0.9,0,3.1,0.2,3.6-0.2c0-0.5-0.5-1-0.9-1.5c-0.2-0.3-0.7-1.5-1-1.7c-0.5,0.2-0.3,0-0.7,0.5C1177.5,166.5,1176.5,167.3,1176.6,168.5L1176.6,168.5z"/><path class="st6" d="M1209.6,83.7c2.7,0.2,3.9-2.4,3.3-3.6c-1.4-0.3-2.2,1.4-2.9,2.2C1209.8,82.7,1209.6,82.6,1209.6,83.7L1209.6,83.7z"/><rect x="1148.7" y="207.8" class="st6" width="102.5" height="23"/><g><path d="M1178.1,216.9c1-0.2,1.2,0.2,1.2,1c0,0.9,0,3.9,0,4.6c-0.2,1.2-0.7,1-1.2,1v0.3h3.3v-0.3c-0.3,0-0.5,0-0.7,0c-0.7-0.2-0.7-1.4-0.7-2.1c0-0.5,0-3.1,0-3.4c0.5,0.7,2.7,5.7,2.7,5.8h0.5c0.2-0.3,0.5-1.2,0.7-1.5l1.4-2.9c0.2-0.5,0.5-1,0.7-1.5c0,0.5,0,2.7,0,3.4c0,0.5,0,1.2-0.2,1.5c-0.2,0.7-0.5,0.7-1.2,0.5v0.3h4.3v-0.3c-1,0-1.2,0-1.4-0.9c0-0.5,0-4.3,0-4.8c0-1,0.3-1.2,1.4-1v-0.3h-2.7l-1.2,2.7c-0.2,0.5-0.3,0.9-0.7,1.4c-0.2,0.5-0.5,1-0.7,1.4l-2.1-4.1c-0.2-0.2-0.5-1.2-0.7-1.4h-2.7L1178.1,216.9L1178.1,216.9z"/><path d="M1168.2,224.1l0.3-2.4h-0.7c-0.2,0.9-0.7,1.9-1.4,2.2c-2.1,1.5-5.8,0.5-6.2-3.6c-0.2-1.9,0.9-3.9,2.7-4.6c1.9-0.7,4.3,0.7,4.5,2.6l0.7-0.2l-0.5-2.6c-0.2-0.2-1.2-0.5-1.4-0.5c-1.7-0.5-3.6-0.5-5.1,0.2c-1.7,0.7-3.1,2.6-2.9,5.1c0.3,4.6,5,5.8,8.6,4.5C1167.1,224.8,1168.1,224.3,1168.2,224.1L1168.2,224.1z"/><path d="M1201.5,217c1.2-0.5,2.4,0.2,2.4,1.4c0,0.7-0.2,1.2-0.7,1.4c-0.3,0.2-1.2,0.5-1.7,0.2V217L1201.5,217z M1198.5,216.5v0.3c0.9-0.2,1.4,0,1.5,0.9c0,0.5,0,4.5,0,5c-0.2,0.9-0.7,1-1.7,0.9v0.3h4.8v-0.3c-0.3,0-0.7,0.2-1,0c-0.3-0.2-0.3-0.3-0.5-0.7c-0.2-0.7,0-1.7,0-2.4c0.9,0,1.2,0.3,1.4,0.9c0.3,0.5,0.5,1,0.9,1.5c0.7,1.2,1,1.2,2.2,1.2c0.3,0,0.7,0,1.2,0v-0.3c-0.7,0-0.9,0-1.2-0.5c-0.3-0.3-0.5-0.7-0.7-1c-1.2-2.1-1.2-1.4-1.5-1.9c1-0.2,1.5-0.5,1.9-1.4c0.3-1-0.2-1.9-0.9-2.1c-0.9-0.3-1.9-0.3-2.9-0.2C1200.6,216.5,1199.5,216.5,1198.5,216.5L1198.5,216.5z"/><path d="M1216.6,217.3c0-0.2,0.2-0.2,0.3-0.2c0.2,0,0.2,0,0.3,0c0.9-0.2,1.5,0,2.2,0.5c1.5,1,1.4,5.7-1.4,6.2c-0.3,0-1.2,0-1.5-0.2V217.3L1216.6,217.3z M1213.4,216.5v0.3c1,0,1.4-0.2,1.5,1c0,0.7,0,4.5,0,5c-0.2,1-0.7,0.9-1.7,0.9v0.3c1,0,2.1,0,3.1,0c1.2,0,1.9,0,2.9-0.2c1.5-0.5,2.7-1.7,2.7-3.6c0.2-2.2-0.9-3.4-2.6-3.8c-0.9-0.2-2.1-0.2-3.1-0.2C1215.4,216.5,1214.4,216.5,1213.4,216.5L1213.4,216.5z"/><path d="M1193,220.3c1.4-0.2,2.7,0.2,2.6,1.7c0,0.7-0.3,1.2-0.7,1.4c-0.5,0.3-1,0.3-1.9,0.2L1193,220.3L1193,220.3L1193,220.3z M1193,217c0.5-0.2,1-0.3,1.7,0c0.3,0.2,0.7,0.7,0.7,1.2c0,1-1.2,1.9-2.4,1.5V217L1193,217z M1189.9,216.5v0.3c0.7,0,1.4-0.3,1.5,0.9c0,0.7,0,4.3,0,5c-0.2,1-0.7,0.9-1.5,0.9v0.3c1.2,0,2.2,0,3.4,0c1,0,2.1,0,2.9-0.5c0.9-0.5,1.2-1.4,1-2.4c-0.2-0.9-1-1.2-2.1-1.4c0.2,0,0.3-0.2,0.5-0.2c0.2,0,0.3-0.2,0.5-0.3c1-0.7,1-2.4-0.2-2.9c-0.9-0.3-1.9-0.2-2.9-0.2C1192.1,216.5,1190.9,216.5,1189.9,216.5L1189.9,216.5z"/><path d="M1231,223.7v-2.1c0-0.9,0.2-1,1.2-1v-0.5h-3.8v0.5c0.9,0,1,0,1,0.9c0,0.7,0,1.4,0,2.1c-1.4,0.5-2.7,0-3.4-0.9c-1.5-1.7-1.2-5.7,1.7-5.8c2.2-0.2,2.6,1.5,2.7,1.9c0.2,0,0.3,0,0.5-0.2c0-0.5-0.2-1.2-0.3-1.7c0-0.3,0-0.2-0.9-0.3c-1-0.2-1.9-0.3-2.9-0.2c-3.3,0.5-4.1,3.8-3.1,5.8c0.9,1.7,2.6,2.2,4.5,2.1c0.5,0,0.9-0.2,1.4-0.2c0.2,0,0.5-0.2,0.7-0.2C1230.6,223.7,1231,223.7,1231,223.7L1231,223.7z"/><path d="M1232.9,216.9c0.7,0,1.4-0.3,1.5,0.9c0,0.7,0,4.3,0,5c-0.2,1-0.7,1-1.7,0.9v0.3h6.9l0.7-2.1l-0.5-0.2c-0.3,0.7-0.5,1.2-1.2,1.4c-0.5,0.2-2.1,0.2-2.6,0.2V220c0.5,0,1.2,0,1.7,0c0.7,0,0.7,0.3,0.7,1h0.5v-2.2h-0.5c0.2,0.7,0,0.9-0.5,1c-0.3,0-1.2,0-1.7,0v-2.6c0.2,0,0,0,0,0c0.5-0.2,1.5-0.2,2.1,0c0.9,0.2,1,0.5,1.2,1.2c0.2,0,0.3,0,0.5,0l-0.3-1.5L1232.9,216.9L1232.9,216.9L1232.9,216.9z"/><path d="M1172.7,218.6c0.2,0,0.2,0.2,0.2,0.3l0.3,1c0.2,0.3,0.3,0.9,0.5,1.4h-2.1L1172.7,218.6L1172.7,218.6z M1168.8,223.7v0.3h3.3v-0.3c-1.5,0.2-1.2-0.5-0.9-1.4c0-0.2,0.2-0.7,0.3-0.7h2.6c0,0.2,0.5,1.2,0.5,1.4c0.2,0.7-0.3,0.7-1,0.7v0.3h4.3v-0.3c-0.9,0-1.2,0-1.7-1.2c-0.5-1.2-1.2-2.9-1.7-4.3l-0.9-2.2h-0.3c-0.2,0.2-0.3,0.9-0.5,1c-0.2,0.3-0.3,0.7-0.5,1c-0.3,0.9-1.9,4.6-2.2,5.1C1169.5,223.7,1169.3,223.7,1168.8,223.7L1168.8,223.7z"/><path d="M1207.8,216.9c0.3,0,0.9-0.2,1.2,0c0.3,0.2,0.3,0.5,0.3,0.9c0,0.7,0,4.3,0,5c-0.2,1-0.7,0.9-1.7,0.9v0.3h5v-0.3c-0.9,0-1.5,0.2-1.7-0.9c0-0.7,0-4.5,0-5c0.2-1,0.7-1,1.5-0.9v-0.3h-5L1207.8,216.9L1207.8,216.9z"/></g></g></svg>