<svg version="1.1" xmlns="http://www.w3.org/2000/svg" xmlns:xlink="http://www.w3.org/1999/xlink" x="0px" y="0px" viewBox="0 0 1920 270" style="enable-background:new 0 0 1920 270;" xml:space="preserve"><style type="text/css">.st0{fill:#A23E48;}.st1{enable-background:new  ;}.st2{fill:#FFFFFF;}.st3{fill:#3E3E40;}.st4{fill:none;}.st5{fill:#F03B4C;}</style><rect class="st0" width="1920" height="270"/><g class="st1"><path class="st2" d="M874.2,155.4v-24.2h-28.9v24.2h-3.5V105h3.5v23.1h28.9V105h3.4v50.4H874.2z"/><path class="st2" d="M890.7,137.6c0,5,1.1,8.9,3.4,11.6c2.3,2.8,5.4,4.1,9.4,4.1c4.1,0,8-1.5,11.8-4.5v3.4c-3.8,2.6-7.9,4-12.5,4c-4.7,0-8.5-1.7-11.3-5.1s-4.2-8.1-4.2-14c0-3.5,0.7-6.6,2.1-9.5c1.4-2.9,3.3-5.1,5.8-6.7c2.5-1.6,5.2-2.4,8.2-2.4c4.4,0,7.8,1.5,10.2,4.6c2.4,3.1,3.7,7.4,3.7,12.9v1.4H890.7z M914,134.6c-0.1-4.2-1.1-7.4-3-9.7s-4.4-3.4-7.6-3.4c-3.4,0-6.2,1.1-8.4,3.4c-2.2,2.3-3.6,5.5-4.1,9.7H914z"/><path class="st2" d="M950.7,155.4v-33h-21.2v33h-3.2v-36H954v36H950.7z"/><path class="st2" d="M968.9,149h-0.1v23h-3.2v-52.6h3.2v7.4h0.1c1.3-2.6,3.2-4.7,5.6-6.1s5-2.2,7.9-2.2c4.5,0,8.1,1.6,10.7,4.7s3.9,7.4,3.9,12.9c0,3.9-0.7,7.4-2,10.5s-3.2,5.5-5.7,7.2s-5.3,2.5-8.3,2.5C975.4,156.3,971.4,153.9,968.9,149z M968.7,135.7v4.5c0,3.8,1.2,6.9,3.5,9.4s5.3,3.8,8.9,3.8c3.7,0,6.7-1.6,9-4.8s3.4-7.3,3.4-12.4c0-4.5-1.1-8-3.2-10.7s-4.9-4-8.4-4c-2.6,0-4.9,0.6-6.9,1.8s-3.6,2.9-4.7,5.1S968.7,133,968.7,135.7z"/><path class="st2" d="M1025.9,155.4v-7.2h-0.1c-1.1,2.5-2.8,4.4-5,5.9s-4.6,2.2-7.3,2.2c-3.3,0-6-0.9-8-2.8s-3.1-4.3-3.1-7.3c0-6.3,4.2-10.1,12.5-11.4l11.1-1.7c0-7.7-2.9-11.6-8.7-11.6c-4,0-7.8,1.6-11.6,4.8v-3.9c1.3-1,3.1-1.9,5.5-2.7s4.5-1.1,6.4-1.1c3.7,0,6.6,1.1,8.6,3.4s3,5.6,3,10v23.4H1025.9z M1005.8,146c0,2.3,0.7,4,2.2,5.4s3.4,2,5.9,2c3.5,0,6.4-1.3,8.7-3.9s3.4-5.9,3.4-9.9v-3.5l-9.9,1.4c-4,0.6-6.7,1.5-8.1,2.8S1005.8,143.4,1005.8,146z"/><path class="st2" d="M1065.5,145.1c0,3-1,5.5-3,7.4s-4.6,2.9-7.8,2.9H1040v-36h13.7c3.3,0,5.9,0.8,7.7,2.3s2.7,3.6,2.7,6.4c0,2.1-0.6,4-1.8,5.6s-2.8,2.6-4.9,3.1c2.6,0.3,4.6,1.1,6,2.7S1065.5,142.8,1065.5,145.1z M1060.6,128.6c0-2-0.7-3.6-2-4.6s-3.1-1.6-5.5-1.6h-10v13h9.1c2.7,0,4.8-0.6,6.2-1.8S1060.6,130.8,1060.6,128.6z M1062.1,145.4c0-2.3-0.8-4-2.4-5.2s-3.9-1.8-6.9-1.8h-9.6v14.1h10.8c2.7,0,4.7-0.7,6-2S1062.1,147.5,1062.1,145.4z"/><path class="st2" d="M1099.4,155.4v-30.1l-0.5,0.8l-22.1,29.3h-2.3v-36h3.2v29.8c0.3-0.6,0.6-1,0.9-1.4l21.4-28.4h2.6v36H1099.4z"/><path class="st2" d="M1135.4,155.4v-33h-10.5c-0.9,12.1-2.4,20.8-4.5,25.9s-5.1,7.7-8.9,7.7c-0.7,0-1.3-0.1-2-0.3v-2.9c0.5,0.2,1.1,0.3,1.9,0.3c2.9,0,5.2-2.6,6.9-7.9s3-13.8,3.7-25.7h16.6v36H1135.4z"/><path class="st2" d="M1174.9,144.7c0,2.2-0.5,4-1.4,5.7s-2.3,2.9-3.9,3.8s-3.5,1.3-5.5,1.3h-13.8v-36h3.2v14.8h10.3c3.5,0,6.3,0.9,8.2,2.8S1174.9,141.4,1174.9,144.7z M1171.5,144.7c0-2.3-0.8-4.2-2.3-5.5s-3.6-2-6.2-2h-9.6v15.3h9.7c2.7,0,4.8-0.7,6.2-2.1S1171.5,147.1,1171.5,144.7z"/><path class="st2" d="M1208,155.4v-17.2h-21.2v17.2h-3.2v-36h3.2v15.9h21.2v-15.9h3.2v36H1208z"/><path class="st2" d="M1247.4,144.7c0,2.2-0.5,4-1.4,5.7s-2.3,2.9-3.9,3.8s-3.5,1.3-5.5,1.3h-13.8v-36h3.2v14.8h10.3c3.5,0,6.3,0.9,8.2,2.8S1247.4,141.4,1247.4,144.7z M1244.1,144.7c0-2.3-0.8-4.2-2.3-5.5s-3.6-2-6.2-2h-9.6v15.3h9.7c2.7,0,4.8-0.7,6.2-2.1S1244.1,147.1,1244.1,144.7z M1255.3,155.4v-36h3.2v36H1255.3z"/><path class="st2" d="M1270.8,137.6c0,5,1.1,8.9,3.4,11.6s5.4,4.1,9.4,4.1c4.1,0,8-1.5,11.8-4.5v3.4c-3.8,2.6-7.9,4-12.5,4c-4.7,0-8.5-1.7-11.3-5.1s-4.2-8.1-4.2-14c0-3.5,0.7-6.6,2.1-9.5s3.3-5.1,5.8-6.7s5.2-2.4,8.2-2.4c4.4,0,7.8,1.5,10.2,4.6s3.7,7.4,3.7,12.9v1.4H1270.8z M1294.1,134.6c-0.1-4.2-1.1-7.4-3-9.7s-4.4-3.4-7.6-3.4c-3.4,0-6.2,1.1-8.4,3.4s-3.6,5.5-4.1,9.7H1294.1z"/><path class="st2" d="M1326.4,122.4v33h-3.2v-36h17.6v3H1326.4z"/><path class="st2" d="M1364.9,155.4v-33h-10.5c-0.9,12.1-2.4,20.8-4.5,25.9s-5.1,7.7-8.9,7.7c-0.7,0-1.3-0.1-2-0.3v-2.9c0.5,0.2,1.1,0.3,1.9,0.3c2.9,0,5.2-2.6,6.9-7.9s3-13.8,3.7-25.7h16.6v36H1364.9z"/><path class="st2" d="M1401.2,155.4v-7.2h-0.1c-1.1,2.5-2.8,4.4-5,5.9s-4.6,2.2-7.3,2.2c-3.3,0-6-0.9-8-2.8s-3.1-4.3-3.1-7.3c0-6.3,4.2-10.1,12.5-11.4l11.1-1.7c0-7.7-2.9-11.6-8.7-11.6c-4,0-7.8,1.6-11.6,4.8v-3.9c1.3-1,3.1-1.9,5.5-2.7s4.5-1.1,6.4-1.1c3.7,0,6.6,1.1,8.6,3.4s3,5.6,3,10v23.4H1401.2z M1381.1,146c0,2.3,0.7,4,2.2,5.4s3.4,2,5.9,2c3.5,0,6.4-1.3,8.7-3.9s3.4-5.9,3.4-9.9v-3.5l-9.9,1.4c-4,0.6-6.7,1.5-8.1,2.8S1381.1,143.4,1381.1,146z"/><path class="st2" d="M1418.5,122.4v33h-3.2v-36h17.6v3H1418.5z"/><path class="st2" d="M1452.2,156.3c-5.2,0-9.3-1.7-12.4-5.1s-4.6-7.9-4.6-13.5c0-5.9,1.6-10.5,4.7-14s7.4-5.1,12.7-5.1c5.1,0,9.2,1.7,12.2,5.1s4.5,8,4.5,13.9c0,5.6-1.5,10.2-4.6,13.6S1457.3,156.3,1452.2,156.3z M1452.4,121.5c-4.2,0-7.6,1.4-10.1,4.3s-3.8,6.8-3.8,11.9c0,4.8,1.2,8.6,3.7,11.4s5.8,4.3,10,4.3c4.3,0,7.6-1.4,10-4.2s3.6-6.7,3.6-11.7c0-5.2-1.2-9.1-3.5-11.8S1456.7,121.5,1452.4,121.5z"/><path class="st2" d="M1499.4,155.4v-33h-10.5c-0.9,12.1-2.4,20.8-4.5,25.9s-5.1,7.7-8.9,7.7c-0.7,0-1.3-0.1-2-0.3v-2.9c0.5,0.2,1.1,0.3,1.9,0.3c2.9,0,5.2-2.6,6.9-7.9s3-13.8,3.7-25.7h16.6v36H1499.4z"/><path class="st2" d="M1538.9,144.7c0,2.2-0.5,4-1.4,5.7s-2.3,2.9-3.9,3.8s-3.5,1.3-5.5,1.3h-13.8v-36h3.2v14.8h10.3c3.5,0,6.3,0.9,8.2,2.8S1538.9,141.4,1538.9,144.7z M1535.5,144.7c0-2.3-0.8-4.2-2.3-5.5s-3.6-2-6.2-2h-9.6v15.3h9.7c2.7,0,4.8-0.7,6.2-2.1S1535.5,147.1,1535.5,144.7z M1546.8,155.4v-36h3.2v36H1546.8z"/></g><g><path d="M754.9,242.5h-23.2c2-2.8,3.2-6.3,3.2-10V32.2c0-9.5-7.7-17.2-17.3-17.2H401.8c-9.5,0-17.2,7.7-17.2,17.2v200.2c0,3.8,1.3,7.3,3.3,10.1h-23.4c0,0-1.1,1.1,1.7,3.8c7.9,7.9,25.6,8.6,25.6,8.6l0,0c0,0,331.9,0.1,332.2,0c18.5,0,24.4-5.6,29.4-8.7C756.8,242.7,754.9,242.5,754.9,242.5z M581.9,246.7h-44.5v-3h44.4L581.9,246.7L581.9,246.7z M722.1,228.5H396.8V26.6h325.5v201.9H722.1z"/><rect x="396.8" y="26.6" class="st3" width="325.5" height="201.8"/><path class="st2" d="M435.7,106.9L435.7,106.9v1h-2.8V94.5h2.8v5.8l0,0c0.7-1,1.6-1.6,2.9-1.6c1.2,0,2.1,0.4,2.7,1.2c0.6,0.8,1,1.9,1,3.3c0,1.6-0.3,2.7-1.1,3.6c-0.8,0.9-1.7,1.4-2.9,1.4C437.1,108.2,436.3,107.8,435.7,106.9z M435.6,103.1v1c0,0.6,0.2,1.1,0.5,1.5c0.3,0.4,0.8,0.6,1.3,0.6c0.7,0,1.1-0.3,1.5-0.8c0.3-0.5,0.5-1.2,0.5-2.1c0-0.8-0.2-1.4-0.5-1.8c-0.4-0.4-0.8-0.7-1.4-0.7c-0.6,0-1,0.3-1.4,0.7C435.8,101.8,435.6,102.5,435.6,103.1z"/><path class="st2" d="M452.3,104.3h-6c0.1,1.4,1,2,2.5,2c1,0,1.9-0.3,2.7-0.7v2c-0.9,0.4-2,0.7-3.2,0.7c-1.5,0-2.7-0.4-3.4-1.2c-0.8-0.8-1.2-2-1.2-3.4c0-1.6,0.4-2.7,1.4-3.6c0.9-1,2-1.4,3.2-1.4c1.4,0,2.3,0.3,3.1,1.2c0.7,0.8,1.1,1.9,1.1,3.2L452.3,104.3L452.3,104.3z M449.8,102.5c0-1.3-0.5-2-1.6-2c-0.4,0-0.9,0.2-1.2,0.6c-0.3,0.3-0.5,0.9-0.6,1.4H449.8z"/><path class="st2" d="M465,95.2l-6.1,14.8h-1.4l6.1-14.8H465z"/><path class="st2" d="M472.8,106.6L472.8,106.6v1.4h-1.5V94.6h1.5v6l0,0c0.7-1.2,1.8-1.8,3.2-1.8c1.2,0,2.1,0.4,2.7,1.2c0.7,0.8,1,1.9,1,3.2c0,1.6-0.4,2.7-1.1,3.6c-0.7,0.9-1.7,1.4-3,1.4C474.4,108.2,473.4,107.7,472.8,106.6z M472.8,103.1v1.3c0,0.8,0.3,1.4,0.7,2c0.5,0.5,1.1,0.8,1.9,0.8c0.9,0,1.6-0.3,2.1-1c0.5-0.7,0.8-1.6,0.8-2.8c0-1-0.3-1.8-0.7-2.4c-0.5-0.6-1.1-0.9-1.9-0.9c-0.9,0-1.6,0.4-2.1,0.9C473,101.3,472.8,102.1,472.8,103.1z"/><path class="st2" d="M482.7,96.5c-0.3,0-0.5-0.1-0.7-0.3c-0.2-0.2-0.3-0.4-0.3-0.7s0.1-0.5,0.3-0.7s0.4-0.3,0.7-0.3s0.5,0.1,0.7,0.3c0.2,0.2,0.3,0.4,0.3,0.7s-0.1,0.5-0.3,0.7C483.3,96.5,483,96.5,482.7,96.5z M483.4,107.9H482v-9.1h1.5L483.4,107.9L483.4,107.9z"/><path class="st2" d="M488.4,98.6l-0.8,1.8h-0.3l-0.8-1.8H488.4z M488.4,107.9h-1.8l0.8-1.8h0.3L488.4,107.9z"/><path class="st2" d="M502.2,95.2l-6.1,14.8h-1.4l6.1-14.8H502.2z"/><path class="st2" d="M446.1,126.2l-2.7,9.1h-2.9l-1.4-5.3c-0.1-0.3-0.2-0.8-0.2-1.2l0,0c0,0.4-0.1,0.9-0.2,1.1l-1.5,5.4h-2.9l-2.6-9.1h2.8l1.3,6c0.1,0.3,0.1,0.6,0.2,1l0,0c0-0.4,0.1-0.8,0.2-1l1.6-5.9h2.7l1.4,6c0,0.2,0.1,0.5,0.1,1.1h0.1c0-0.4,0.1-0.7,0.2-1.1l1.2-6L446.1,126.2L446.1,126.2z"/><path class="st2" d="M455,135.3h-2.7V134l0,0c-0.6,1.1-1.6,1.6-2.7,1.6c-0.9,0-1.6-0.3-2.1-0.8c-0.5-0.5-0.8-1.2-0.8-2c0-1.8,1-2.7,3.2-3.1l2.5-0.4c0-1-0.5-1.5-1.6-1.5c-1.1,0-2.1,0.3-3.1,1v-2.1c0.4-0.2,1-0.3,1.6-0.5c0.7-0.2,1.3-0.3,1.9-0.3c2.6,0,3.9,1.3,3.9,3.8L455,135.3L455,135.3z M452.3,131.6V131l-1.6,0.3c-1,0.1-1.4,0.5-1.4,1.3c0,0.4,0.1,0.6,0.4,0.8c0.3,0.3,0.5,0.3,1,0.3c0.5,0,1-0.2,1.3-0.5C452.1,132.6,452.3,132.1,452.3,131.6z"/><path class="st2" d="M456.5,135v-2.2c0.4,0.3,1,0.5,1.4,0.6c0.4,0.1,1,0.2,1.3,0.2c0.5,0,0.9-0.1,1.2-0.2c0.4-0.1,0.4-0.3,0.4-0.6c0-0.2-0.1-0.3-0.2-0.4c-0.1-0.1-0.3-0.3-0.5-0.3c-0.2-0.1-0.4-0.2-0.7-0.3c-0.3-0.1-0.5-0.2-0.7-0.3c-0.3-0.2-0.7-0.3-1-0.4c-0.3-0.2-0.5-0.3-0.7-0.5c-0.2-0.2-0.4-0.4-0.4-0.7c-0.1-0.3-0.2-0.6-0.2-1c0-0.5,0.1-1,0.4-1.4c0.3-0.4,0.5-0.7,0.9-1c0.3-0.3,0.8-0.4,1.3-0.5s1-0.2,1.5-0.2c0.4,0,0.8,0,1.2,0.1c0.4,0,0.9,0.2,1.2,0.3v2.1c-0.4-0.2-0.7-0.4-1.1-0.4c-0.4-0.1-0.8-0.2-1.2-0.2c-0.2,0-0.4,0-0.5,0c-0.2,0-0.3,0.1-0.4,0.2c-0.1,0.1-0.3,0.2-0.3,0.3c-0.1,0.1-0.1,0.3-0.1,0.4c0,0.2,0,0.3,0.2,0.4c0.1,0.1,0.3,0.3,0.4,0.3c0.2,0.1,0.4,0.2,0.6,0.3c0.3,0.1,0.4,0.2,0.7,0.3c0.4,0.1,0.7,0.3,1.1,0.4c0.4,0.2,0.6,0.3,0.8,0.5s0.3,0.4,0.5,0.7c0.1,0.3,0.2,0.6,0.2,1c0,0.5-0.1,1-0.4,1.4c-0.3,0.4-0.5,0.7-1,1c-0.4,0.3-0.9,0.4-1.4,0.5c-0.5,0.1-1.1,0.2-1.6,0.2C458.3,135.4,457.4,135.3,456.5,135z"/><path class="st2" d="M467.8,133.1l-1.3,4.5h-2.2l1-4.5H467.8L467.8,133.1z"/><path class="st2" d="M488.2,126.2l-2.7,9.1h-2.9l-1.4-5.3c-0.1-0.3-0.2-0.8-0.2-1.2l0,0c0,0.4-0.1,0.9-0.2,1.1l-1.5,5.4h-2.9l-2.6-9.1h2.8l1.3,6c0.1,0.3,0.1,0.6,0.2,1l0,0c0-0.4,0.1-0.8,0.2-1l1.6-5.9h2.7l1.4,6c0,0.2,0.1,0.5,0.1,1.1h0.1c0-0.4,0.1-0.7,0.2-1.1l1.2-6L488.2,126.2L488.2,126.2z"/><path class="st2" d="M497.7,131.5h-6c0.1,1.4,1,2,2.5,2c1,0,1.9-0.3,2.7-0.7v2c-0.9,0.4-2,0.7-3.2,0.7c-1.5,0-2.7-0.4-3.4-1.2s-1.2-2-1.2-3.4c0-1.6,0.4-2.7,1.4-3.6c0.9-1,2-1.4,3.2-1.4c1.4,0,2.3,0.4,3.1,1.2c0.8,0.9,1.1,1.9,1.1,3.2L497.7,131.5L497.7,131.5L497.7,131.5z M495.1,129.8c0-1.3-0.5-2-1.6-2c-0.4,0-0.9,0.2-1.2,0.6c-0.4,0.4-0.5,0.9-0.6,1.4H495.1z"/><path class="st2" d="M505.3,128.7c-0.4-0.2-0.7-0.3-1.2-0.3c-0.6,0-1.1,0.3-1.5,0.7c-0.3,0.4-0.5,1.1-0.5,1.8v4.4h-2.8v-9.1h2.8v1.7l0,0c0.4-1.3,1.3-1.9,2.4-1.9c0.4,0,0.5,0,0.7,0.1L505.3,128.7L505.3,128.7z"/><path class="st2" d="M514.7,131.5h-6c0.1,1.4,1,2,2.5,2c1,0,1.9-0.3,2.7-0.7v2c-0.9,0.4-2,0.7-3.2,0.7c-1.5,0-2.7-0.4-3.4-1.2s-1.2-2-1.2-3.4c0-1.6,0.4-2.7,1.4-3.6c0.9-1,2-1.4,3.2-1.4c1.4,0,2.3,0.4,3.1,1.2c0.8,0.9,1.1,1.9,1.1,3.2L514.7,131.5L514.7,131.5L514.7,131.5z M512.1,129.8c0-1.3-0.5-2-1.6-2c-0.4,0-0.9,0.2-1.2,0.6s-0.5,0.9-0.6,1.4H512.1z"/><path class="st2" d="M527.4,122.5l-6.1,14.8H520l6.1-14.8H527.4L527.4,122.5z"/><path class="st2" d="M545.1,126.2l-2.7,9.1h-1.6l-1.9-6.5c-0.1-0.3-0.1-0.5-0.2-0.9l0,0c0,0.3-0.1,0.5-0.2,0.9l-2.1,6.5h-1.4l-2.7-9.1h1.6l1.9,6.8c0.1,0.2,0.1,0.5,0.1,0.9h0.1c0-0.3,0.1-0.5,0.2-0.9l2.1-6.8h1.4l1.9,6.9c0.1,0.3,0.1,0.5,0.2,0.9h0.1c0-0.3,0.1-0.5,0.2-0.9l1.9-6.9H545.1z"/><path class="st2" d="M546.2,134.9v-1.5c0.7,0.5,1.5,0.8,2.2,0.8c1,0,1.6-0.3,2.2-1c0.6-0.7,0.9-1.6,0.9-2.7c0-1-0.3-1.9-0.9-2.6c-0.6-0.7-1.4-1-2.2-1c-0.8,0-1.6,0.3-2.2,0.8v-1.4c0.7-0.4,1.6-0.6,2.5-0.6c1.3,0,2.3,0.4,3.2,1.3c0.8,0.9,1.2,2,1.2,3.3c0,1.6-0.4,2.7-1.3,3.6c-0.9,1-2,1.4-3.3,1.4C547.6,135.4,546.9,135.3,546.2,134.9z"/><path class="st2" d="M561.7,126.5l-5.4,7.4h5.3v1.3h-7.5v-0.4l5.4-7.4h-4.9v-1.3h7V126.5L561.7,126.5z"/><path class="st2" d="M564.9,133.2l-1.5,4.4h-1.1l1.1-4.4H564.9z"/><path class="st2" d="M584,126.2l-2.7,9.1h-1.6l-1.9-6.5c-0.1-0.3-0.1-0.5-0.2-0.9l0,0c0,0.3-0.1,0.5-0.2,0.9l-2.1,6.5H574l-2.7-9.1h1.6l1.9,6.8c0.1,0.2,0.1,0.5,0.1,0.9h0.1c0-0.3,0.1-0.5,0.2-0.9l2.1-6.8h1.4l1.9,6.9c0.1,0.3,0.1,0.5,0.2,0.9h0.1c0-0.3,0.1-0.5,0.2-0.9l1.9-6.9H584z"/><path class="st2" d="M584.9,135v-1.4c0.7,0.4,1.5,0.6,2.2,0.6c0.7,0,1.2-0.2,1.6-0.4c0.3-0.3,0.6-0.7,0.6-1.1c0-1.1-0.9-1.6-2.6-1.6H586v-1.3h0.7c0.7,0,1.3-0.1,1.7-0.4c0.4-0.3,0.6-0.6,0.6-1.1c0-0.9-0.6-1.4-1.8-1.4c-0.7,0-1.4,0.2-2.1,0.5v-1.4c0.7-0.3,1.4-0.4,2.1-0.4c1,0,1.7,0.3,2.3,0.7c0.6,0.4,0.9,1.1,0.9,1.8c0,1-0.5,1.6-1.6,2.1l0,0c1.3,0.4,2,1.1,2,2.2c0,0.8-0.3,1.5-1,2c-0.7,0.5-1.6,0.8-2.7,0.8C586.4,135.4,585.6,135.3,584.9,135z"/><path class="st2" d="M595.2,125.8l-0.8,1.8h-0.3l-0.8-1.8H595.2z M595.2,135.3h-1.8l0.8-1.8h0.3L595.2,135.3z"/><path class="st2" d="M608.9,122.5l-6.1,14.8h-1.4l6.1-14.8H608.9L608.9,122.5z"/><path class="st2" d="M435.7,161.5L435.7,161.5v1.1h-2.8v-13.4h2.8v5.8l0,0c0.7-1.1,1.6-1.6,2.9-1.6c1.2,0,2.1,0.4,2.7,1.2c0.6,0.8,1,1.9,1,3.3c0,1.6-0.3,2.7-1.1,3.6c-0.7,0.9-1.7,1.4-2.9,1.4C437.1,162.8,436.3,162.4,435.7,161.5z M435.6,157.7v1c0,0.6,0.2,1.1,0.5,1.5c0.3,0.3,0.8,0.6,1.3,0.6c0.7,0,1.1-0.3,1.5-0.8c0.3-0.5,0.5-1.2,0.5-2.1c0-0.8-0.2-1.4-0.5-1.8c-0.4-0.4-0.8-0.7-1.4-0.7c-0.6,0-1,0.3-1.4,0.7C435.8,156.5,435.6,157,435.6,157.7z"/><path class="st2" d="M452.3,158.8h-6c0.1,1.4,1,2,2.5,2c1,0,1.9-0.3,2.7-0.7v2c-0.9,0.4-2,0.7-3.2,0.7c-1.5,0-2.7-0.4-3.4-1.2s-1.2-2-1.2-3.4c0-1.6,0.4-2.7,1.4-3.6c0.9-1,2-1.4,3.2-1.4c1.4,0,2.3,0.4,3.1,1.2c0.7,0.8,1.1,1.9,1.1,3.2L452.3,158.8L452.3,158.8z M449.8,157.1c0-1.3-0.5-2-1.6-2c-0.4,0-0.9,0.2-1.2,0.6c-0.3,0.4-0.5,0.9-0.6,1.4H449.8z"/><path class="st2" d="M462.2,158.8h-6c0.1,1.4,1,2,2.5,2c1,0,1.9-0.3,2.7-0.7v2c-0.9,0.4-2,0.7-3.2,0.7c-1.5,0-2.7-0.4-3.4-1.2s-1.2-2-1.2-3.4c0-1.6,0.4-2.7,1.4-3.6c0.9-0.9,2-1.4,3.2-1.4c1.4,0,2.3,0.4,3.1,1.2c0.7,0.8,1.1,1.9,1.1,3.2L462.2,158.8L462.2,158.8L462.2,158.8z M459.5,157.1c0-1.3-0.5-2-1.6-2c-0.4,0-0.9,0.2-1.2,0.6c-0.4,0.4-0.5,0.9-0.6,1.4H459.5z"/><path class="st2" d="M472.5,162.6h-2.7v-5.1c0-1.4-0.5-2.1-1.6-2.1c-0.5,0-0.9,0.2-1.2,0.6c-0.3,0.4-0.4,0.9-0.4,1.5v5.2h-2.8v-9.1h2.8v1.5l0,0c0.7-1.1,1.6-1.6,2.9-1.6c2,0,3,1.3,3,3.8L472.5,162.6L472.5,162.6z"/><path class="st2" d="M485.8,149.8l-6.1,14.8h-1.4l6.1-14.8H485.8z"/><path class="st2" d="M494.3,152.1h-1v-3.2h1V152.1z"/><path class="st2" d="M499.7,161.3L499.7,161.3v1.4h-1.5v-13.4h1.5v6l0,0c0.7-1.2,1.8-1.8,3.2-1.8c1.2,0,2.1,0.4,2.7,1.2s1,1.9,1,3.2c0,1.6-0.4,2.7-1.1,3.6c-0.7,1-1.7,1.4-3,1.4C501.2,162.8,500.3,162.2,499.7,161.3z M499.7,157.6v1.3c0,0.8,0.3,1.4,0.7,2c0.5,0.5,1.1,0.8,1.9,0.8c0.9,0,1.6-0.4,2.1-1.1c0.5-0.7,0.8-1.6,0.8-2.8c0-1.1-0.3-1.8-0.7-2.4c-0.4-0.6-1.1-0.9-1.9-0.9c-0.9,0-1.6,0.3-2.1,0.9C500,155.9,499.7,156.7,499.7,157.6z"/><path class="st2" d="M509.7,151.2c-0.3,0-0.5-0.1-0.7-0.3s-0.3-0.4-0.3-0.7c0-0.3,0.1-0.5,0.3-0.7s0.4-0.3,0.7-0.3c0.3,0,0.5,0.1,0.7,0.3s0.3,0.4,0.3,0.7c0,0.3-0.1,0.5-0.3,0.7C510.2,151.1,509.9,151.2,509.7,151.2z M510.3,162.6h-1.5v-9.1h1.5V162.6z"/><path class="st2" d="M515.3,153.2l-0.8,1.8h-0.3l-0.8-1.8H515.3z M515.3,162.6h-1.8l0.8-1.8h0.3L515.3,162.6z"/><path class="st2" d="M525.9,162.6h-1.5v-5.2c0-2-0.7-2.9-2.1-2.9c-0.7,0-1.4,0.3-1.8,0.9c-0.5,0.6-0.7,1.3-0.7,2.1v5.2h-1.5v-9.1h1.5v1.6l0,0c0.7-1.1,1.6-1.7,3-1.7c1,0,1.7,0.4,2.2,1c0.5,0.6,0.8,1.6,0.8,2.7L525.9,162.6L525.9,162.6z"/><path class="st2" d="M539.4,149.8l-6.1,14.8H532l6.1-14.8H539.4z"/><path class="st2" d="M431.7,186.1l0.2-1h15.2l-0.2,1H431.7z"/><path class="st2" d="M459.4,179.8c-0.7,0-1.2,0.1-1.7,0.1c-0.5,0-1,0.1-1.4,0.2s-0.8,0.2-1,0.3c-0.3,0.2-0.6,0.4-0.8,0.6c-0.1,0.2-0.3,0.4-0.4,0.5c-0.1,0.2-0.3,0.4-0.3,0.7c-0.1,0.3-0.2,0.4-0.3,0.7c-0.1,0.3-0.2,0.5-0.2,0.7l0,0c0.3-0.4,0.8-0.7,1.2-1c0.4-0.3,1-0.4,1.6-0.4c0.4,0,0.7,0.1,1,0.2c0.4,0.1,0.6,0.4,0.9,0.5c0.3,0.3,0.4,0.5,0.5,0.9c0.1,0.4,0.2,0.8,0.2,1.3s0,0.9-0.1,1.3c-0.1,0.4-0.3,0.8-0.4,1.2c-0.2,0.4-0.3,0.7-0.6,1c-0.3,0.4-0.5,0.6-0.8,0.8c-0.4,0.3-0.7,0.4-1,0.5c-0.4,0.1-0.8,0.2-1.2,0.2c-0.5,0-1-0.1-1.3-0.3c-0.4-0.2-0.7-0.4-1-0.8c-0.3-0.3-0.4-0.7-0.5-1.2c-0.1-0.4-0.2-1-0.2-1.6c0-0.5,0-1,0.1-1.6c0.1-0.6,0.2-1,0.3-1.6c0.2-0.5,0.4-1,0.6-1.5c0.3-0.5,0.5-0.9,0.8-1.3c0.3-0.4,0.7-0.7,1.1-1c0.4-0.3,0.9-0.4,1.4-0.5c0.5-0.1,1-0.3,1.6-0.4c0.6-0.1,1.3-0.1,2-0.2L459.4,179.8z M457.4,185.3c0-0.3,0-0.7-0.1-1c-0.1-0.3-0.2-0.4-0.4-0.7c-0.2-0.2-0.3-0.3-0.5-0.4s-0.4-0.1-0.7-0.1s-0.5,0-0.8,0.1c-0.3,0.1-0.5,0.2-0.8,0.4s-0.4,0.3-0.7,0.5c-0.2,0.2-0.3,0.4-0.6,0.6c0,0.1,0,0.3-0.1,0.3c0,0.1,0,0.4,0,0.4c0,0.1,0,0.4,0,0.4c0,0.1,0,0.3,0,0.4c0,0.4,0,0.7,0.1,1.1s0.2,0.6,0.3,0.8c0.1,0.3,0.4,0.3,0.6,0.5c0.3,0.2,0.5,0.2,0.8,0.2c0.3,0,0.6,0,0.8-0.2c0.3-0.1,0.5-0.3,0.7-0.4c0.2-0.2,0.4-0.3,0.5-0.6c0.2-0.3,0.3-0.5,0.4-0.8c0.1-0.3,0.2-0.6,0.3-0.9C457.4,186,457.4,185.5,457.4,185.3z"/><path class="st2" d="M462.2,182.3l-0.7,3.2c0.3-0.1,0.6-0.2,1-0.3c0.4-0.1,0.7-0.1,1-0.1c0.8,0,1.4,0.2,1.8,0.5c0.4,0.4,0.6,0.9,0.6,1.6c0,0.4,0,0.7-0.2,1c-0.1,0.3-0.4,0.7-0.5,1c-0.3,0.3-0.6,0.5-1,0.7c-0.4,0.2-1,0.3-1.5,0.3c-1,0-1.6-0.2-2-0.6c-0.4-0.4-0.7-1.1-0.7-1.8c0-0.2,0-0.3,0-0.4c0-0.2,0-0.3,0-0.4s0-0.3,0.1-0.4c0-0.2,0-0.3,0.1-0.3c0,0,0-0.1,0-0.2s0-0.3,0.1-0.4c0-0.2,0.1-0.4,0.1-0.6c0-0.3,0.1-0.4,0.2-0.7c0.1-0.5,0.3-1.1,0.4-1.8L462.2,182.3L462.2,182.3z M464.7,187.4c0-0.3-0.1-0.7-0.4-1c-0.3-0.3-0.6-0.4-1.1-0.4c-0.3,0-0.7,0-1,0.1c-0.4,0.1-0.6,0.2-0.9,0.3c0,0.1,0,0.2,0,0.3c0,0.1,0,0.2,0,0.4s0,0.2,0,0.4c0,0.1,0,0.2,0,0.3c0,0.3,0,0.4,0.1,0.6c0,0.2,0.2,0.3,0.3,0.4s0.3,0.3,0.4,0.3c0.2,0.1,0.4,0.1,0.7,0.1c0.3,0,0.6,0,0.9-0.2c0.3-0.1,0.4-0.3,0.6-0.4c0.2-0.2,0.3-0.3,0.4-0.5C464.6,187.8,464.7,187.6,464.7,187.4z M467.9,189.8h-1.2l1.6-7.5h1.2L467.9,189.8z"/><path class="st2" d="M482,184.1c0,0.1,0,0.2,0,0.4s0,0.3-0.1,0.4c0,0.2,0,0.3-0.1,0.4c0,0.2,0,0.3-0.1,0.3l-1,4.2h-1.2l1-4.5c0-0.1,0-0.2,0.1-0.3c0-0.1,0-0.2,0-0.4c0-0.2,0-0.2,0-0.3c0-0.1,0-0.2,0-0.2c0-0.3-0.1-0.7-0.3-1c-0.2-0.3-0.4-0.4-0.8-0.4c-0.2,0-0.4,0-0.6,0.1c-0.2,0.1-0.3,0.2-0.6,0.3c-0.2,0.2-0.3,0.4-0.5,0.5c-0.2,0.3-0.4,0.4-0.5,0.7c-0.2,0.3-0.3,0.4-0.4,0.7c-0.1,0.3-0.2,0.4-0.3,0.7l-0.8,3.7h-1.2l1-4.4c0-0.1,0-0.2,0.1-0.3c0-0.1,0-0.2,0-0.3c0-0.1,0-0.2,0-0.3c0-0.1,0-0.2,0-0.2c0-0.4-0.1-0.7-0.3-1c-0.2-0.3-0.4-0.3-0.8-0.3c-0.2,0-0.4,0-0.6,0.1c-0.3,0.1-0.4,0.2-0.6,0.4c-0.2,0.1-0.4,0.3-0.6,0.5c-0.3,0.2-0.3,0.4-0.5,0.7c-0.2,0.3-0.3,0.4-0.4,0.7c-0.1,0.3-0.2,0.4-0.3,0.7l-0.8,3.7h-1.2l1.2-5.4c0-0.2,0.1-0.4,0.1-0.6c0-0.3,0.1-0.4,0.1-0.6s0.1-0.3,0.1-0.5s0-0.4,0.1-0.4h1.2c0,0.2,0,0.3-0.1,0.6c0,0.3-0.1,0.4-0.1,0.6s-0.1,0.4-0.1,0.6l0,0c0.2-0.3,0.4-0.6,0.6-0.8c0.2-0.3,0.4-0.4,0.7-0.7c0.3-0.2,0.5-0.3,0.7-0.4c0.3-0.1,0.5-0.2,0.8-0.2c0.4,0,0.6,0,0.8,0.2c0.3,0.1,0.4,0.3,0.6,0.4c0.2,0.2,0.3,0.4,0.3,0.6c0.1,0.3,0.1,0.5,0.2,0.8c0.2-0.3,0.4-0.5,0.6-0.8c0.3-0.3,0.4-0.4,0.7-0.6c0.3-0.2,0.5-0.4,0.8-0.4c0.3-0.1,0.6-0.2,0.9-0.2c0.7,0,1.1,0.2,1.5,0.6C481.8,183.1,482,183.4,482,184.1z"/><path class="st2" d="M485.8,182.3l-0.7,3.2c0.3-0.1,0.6-0.2,1-0.3c0.4-0.1,0.7-0.1,1.1-0.1c0.9,0,1.6,0.2,2,0.5c0.4,0.4,0.7,0.9,0.7,1.6c0,0.4-0.1,0.7-0.2,1c-0.1,0.3-0.3,0.7-0.6,1c-0.3,0.3-0.6,0.5-1,0.7c-0.4,0.2-1,0.3-1.6,0.3c-1,0-1.6-0.2-2.1-0.6c-0.4-0.4-0.7-1.1-0.7-1.8c0-0.2,0-0.3,0-0.4c0-0.2,0-0.3,0-0.4s0-0.3,0.1-0.4c0-0.2,0-0.3,0.1-0.3c0,0,0-0.1,0-0.2s0-0.3,0.1-0.4c0-0.1,0.1-0.4,0.1-0.6c0-0.3,0.1-0.4,0.2-0.7c0.1-0.5,0.3-1.1,0.4-1.8L485.8,182.3L485.8,182.3z M488.5,187.4c0-0.3-0.1-0.7-0.3-1c-0.3-0.3-0.7-0.4-1.2-0.4c-0.4,0-0.8,0-1.1,0.1c-0.4,0.1-0.7,0.2-1,0.3c0,0.1,0,0.2,0,0.3c0,0.1,0,0.2,0,0.4s0,0.2,0,0.4c0,0.1,0,0.2,0,0.3c0,0.3,0,0.4,0.1,0.6c0,0.2,0.2,0.3,0.3,0.4c0.2,0.1,0.4,0.3,0.5,0.3c0.2,0.1,0.4,0.1,0.8,0.1c0.4,0,0.7,0,1-0.2c0.3-0.1,0.4-0.3,0.7-0.4c0.2-0.2,0.3-0.3,0.4-0.5C488.4,187.8,488.5,187.6,488.5,187.4z"/><rect x="635.5" y="41.9" class="st4" width="56.4" height="22.5"/><rect x="613" y="41.9" class="st5" width="22.5" height="22.5"/><path class="st2" d="M627.2,53c-0.2,0.2-0.4,0.4-0.6,0.6c-0.9,1-1.7,1.9-2.7,2.7c-0.4,0.4-0.9,0.9-1.5,1.1c-0.3,0.2-0.6,0.3-1,0.1c-0.5-0.1-0.8-0.6-0.8-1.2c0-0.6,0.3-1.2,0.5-1.7c0.3-0.8,0.7-1.6,1.1-2.3c0.4-1,0.9-1.9,1.3-2.8c0.1-0.4,0.2-0.7,0.4-1c0-0.1,0-0.1,0-0.2l0,0c-0.1,0.1-0.3,0.2-0.4,0.4c-0.4,0.6-0.9,1.2-1.4,1.8c-0.5,0.7-1,1.3-1.4,2c-0.2,0.3-0.5,0.5-0.8,0.7c-0.6,0.3-1.2,0-1.4-0.6c-0.2-0.5,0-0.9,0.2-1.3c0.4-0.7,0.7-1.3,1.1-2c0.2-0.4,0.3-0.7,0.3-1.1c0-0.3-0.1-0.4-0.4-0.6c-0.2-0.1-0.3-0.1-0.5,0c-0.4,0.2-0.6,0.4-0.9,0.8c-0.1,0.2-0.3,0.2-0.4,0.1c-0.2-0.1-0.3-0.3-0.1-0.5c0.3-0.5,0.7-0.9,1.3-1.1c0.6-0.3,1.1,0,1.5,0.6c0.3,0.4,0.4,0.9,0.2,1.4c-0.1,0.4-0.3,0.9-0.5,1.3c-0.3,0.5-0.5,1.1-0.8,1.5c-0.1,0.2-0.1,0.4-0.1,0.6c0,0.1,0,0.2,0.1,0.3c0,0,0.2,0,0.2-0.1c0.3-0.3,0.5-0.5,0.7-0.8c0.6-0.8,1.1-1.6,1.6-2.5c0.3-0.4,0.6-0.8,1-1.2c0.2-0.3,0.4-0.4,0.8-0.5c0.5-0.1,1,0.4,1.1,0.9c0,0.4,0,0.8-0.2,1.1c-0.3,0.8-0.6,1.6-0.9,2.2c-0.5,1.1-1.1,2.3-1.6,3.4c-0.2,0.4-0.3,0.9-0.4,1.3c0,0.1,0,0.2,0,0.3c0.2-0.1,0.3-0.2,0.4-0.3c0.6-0.4,1-1,1.6-1.5c0.8-0.9,1.6-1.7,2.3-2.5c0.3-0.3,0.6-0.5,1-0.7c0.7-0.3,1.3,0.1,1.5,0.8c0.1,0.4,0,0.6,0,1c-0.2,0.8-0.5,1.6-0.9,2.3c-0.3,0.7-0.5,1.4-0.8,2.1c-0.1,0.2-0.1,0.3-0.1,0.6c0,0.1,0,0.2,0.1,0.2c0.2,0,0.4,0,0.5-0.1c0.5-0.2,0.9-0.5,1.2-0.9c0.3-0.3,0.5-0.5,0.8-0.8c0.2-0.2,0.4-0.2,0.6,0c0.2,0.2,0.3,0.4,0.5,0.5c0.2,0.1,0.2,0.3,0,0.5c-0.7,0.7-1.4,1.4-2.1,1.8c-0.6,0.3-1.2,0.5-1.8,0.3c-0.9-0.3-1.3-1-1.1-1.9c0.2-0.7,0.4-1.4,0.7-2.1c0.4-0.8,0.7-1.6,1.1-2.4C627.1,53.1,627.1,53,627.2,53C627.2,53,627.2,53,627.2,53z"/><path class="st2" d="M643.9,51.6h-0.5v-0.5l0,0c-0.2,0.4-0.5,0.5-1,0.5c-0.3,0-0.5-0.1-0.7-0.3c-0.2-0.2-0.3-0.3-0.3-0.7c0-0.6,0.4-0.9,1.1-1l0.9-0.1c0-0.5-0.2-0.8-0.6-0.8c-0.3,0-0.7,0.1-1,0.3v-0.5c0.1-0.1,0.3-0.1,0.4-0.2c0.2-0.1,0.4-0.1,0.6-0.1c0.7,0,1,0.3,1,1.1L643.9,51.6L643.9,51.6z M643.5,50.2l-0.7,0.1c-0.3,0-0.4,0.1-0.5,0.2c-0.1,0.1-0.2,0.2-0.2,0.4c0,0.2,0,0.3,0.2,0.4c0.1,0.1,0.3,0.1,0.4,0.1c0.3,0,0.4-0.1,0.6-0.3c0.2-0.2,0.3-0.4,0.3-0.7L643.5,50.2L643.5,50.2L643.5,50.2z"/><path class="st2" d="M647.3,51.6h-0.5v-1.4h-1.6v1.4h-0.5v-3h0.5v1.3h1.6v-1.3h0.5V51.6z"/><path class="st2" d="M649.9,49h-1.2v2.6h-0.5v-3h1.6L649.9,49L649.9,49z"/><path class="st2" d="M652.5,51.6h-0.4v-2.6h-0.7c-0.1,1-0.2,1.6-0.4,2c-0.2,0.4-0.4,0.7-0.8,0.7c-0.1,0-0.2,0-0.3,0v-0.4c0.1,0,0.1,0,0.3,0c0.4,0,0.7-0.9,0.9-2.7h1.6C652.5,48.6,652.5,51.6,652.5,51.6z"/><path class="st2" d="M655.9,51.6h-0.4v-2.3l-1.6,2.3h-0.5v-3h0.4v2.3l1.6-2.3h0.5V51.6L655.9,51.6z"/><path class="st2" d="M659.5,51.6H659v-2.3l-1.6,2.3H657v-3h0.4v2.3l1.6-2.3h0.5V51.6L659.5,51.6z M659.2,47.1c0,0.1,0,0.3-0.1,0.3c0,0.1-0.1,0.2-0.2,0.3c-0.1,0.1-0.2,0.1-0.3,0.2c-0.1,0-0.3,0.1-0.4,0.1c-0.2,0-0.3,0-0.4-0.1c-0.1,0-0.3-0.1-0.4-0.2c-0.1-0.1-0.2-0.2-0.2-0.3c0-0.1-0.1-0.3-0.1-0.3h0.5c0,0.1,0,0.2,0,0.2c0,0.1,0,0.1,0.1,0.2c0.1,0.1,0.1,0.1,0.2,0.1c0.1,0,0.2,0,0.3,0c0.1,0,0.2,0,0.3,0s0.1-0.1,0.2-0.1c0,0,0.1-0.1,0.1-0.2c0-0.1,0-0.1,0-0.2H659.2L659.2,47.1z"/><path class="st2" d="M662.3,51.5c-0.3,0.1-0.5,0.2-0.8,0.2s-0.5-0.1-0.7-0.2s-0.4-0.3-0.5-0.5c-0.1-0.3-0.2-0.5-0.2-0.8c0-0.5,0.2-0.9,0.4-1.2c0.3-0.4,0.7-0.4,1.1-0.4c0.3,0,0.5,0,0.7,0.2v0.5c-0.3-0.2-0.4-0.3-0.7-0.3c-0.4,0-0.6,0.1-0.8,0.3c-0.2,0.2-0.3,0.5-0.3,0.9c0,0.4,0.1,0.7,0.3,0.9c0.2,0.2,0.4,0.4,0.7,0.4c0.3,0,0.5-0.1,0.7-0.3L662.3,51.5L662.3,51.5z"/><path class="st2" d="M665.5,51.6h-0.7l-1.3-1.5l0,0v1.5h-0.5v-3h0.5V50l0,0l1.3-1.4h0.7l-1.4,1.5L665.5,51.6z"/><path class="st2" d="M668.6,51.6h-0.4v-2.3l-1.6,2.3h-0.5v-3h0.4v2.3l1.6-2.3h0.5V51.6L668.6,51.6z"/><path class="st2" d="M672,51.6h-0.4v-2.3l-1.6,2.3h-0.5v-3h0.4v2.3l1.6-2.3h0.5V51.6L672,51.6z M671.8,47.1c0,0.1,0,0.3-0.1,0.3c0,0.1-0.1,0.2-0.2,0.3c-0.1,0.1-0.2,0.1-0.3,0.2c-0.1,0-0.3,0.1-0.4,0.1c-0.2,0-0.3,0-0.4-0.1c-0.2-0.1-0.3-0.1-0.4-0.2c-0.1-0.1-0.2-0.2-0.2-0.3c0-0.1-0.1-0.3-0.1-0.3h0.5c0,0.1,0,0.2,0,0.2s0,0.1,0.1,0.2c0.1,0.1,0.1,0.1,0.2,0.1s0.2,0,0.3,0s0.2,0,0.3,0c0.1,0,0.1-0.1,0.2-0.1c0,0,0.1-0.1,0.1-0.2c0-0.1,0-0.1,0-0.2H671.8L671.8,47.1z"/><path class="st2" d="M644.5,56.7c0,0.3,0,0.6-0.2,0.8c-0.1,0.3-0.3,0.4-0.5,0.5c-0.2,0.1-0.4,0.2-0.7,0.2c-0.4,0-0.8-0.2-1.1-0.5c-0.3-0.4-0.4-0.8-0.4-1.4c0-1.2,0.3-2,0.9-2.2c0.1,0,0.3-0.1,0.4-0.1c0.1,0,0.3-0.1,0.4-0.1s0.3,0,0.4-0.1c0.1,0,0.3-0.1,0.4-0.1v0.4c-0.1,0-0.2,0.1-0.4,0.1c-0.1,0-0.3,0-0.4,0.1c-0.1,0-0.3,0-0.4,0.1c-0.1,0-0.3,0.1-0.4,0.1c-0.3,0.2-0.5,0.6-0.5,1.3l0,0c0.1-0.2,0.3-0.3,0.4-0.3c0.2-0.1,0.4-0.1,0.6-0.1c0.3,0,0.5,0.1,0.7,0.2c0.2,0.1,0.4,0.3,0.5,0.5C644.5,56.2,644.5,56.5,644.5,56.7z M644,56.8c0-0.4-0.1-0.6-0.3-0.8c-0.2-0.2-0.4-0.3-0.7-0.3c-0.4,0-0.7,0.2-1,0.6v0.3c0,0.4,0.1,0.7,0.3,1c0.2,0.3,0.4,0.4,0.7,0.4c0.3,0,0.5-0.1,0.7-0.3C643.9,57.3,644,57.1,644,56.8z"/><path class="st2" d="M647.6,56.8h-2.1c0,0.4,0.1,0.6,0.3,0.8c0.2,0.2,0.4,0.3,0.7,0.3s0.7-0.1,1-0.4v0.4c-0.3,0.2-0.6,0.3-1,0.3c-0.4,0-0.8-0.1-1.1-0.4c-0.3-0.3-0.4-0.7-0.4-1.1c0-0.3,0-0.6,0.2-0.8c0.1-0.3,0.3-0.4,0.5-0.6c0.2-0.1,0.4-0.2,0.7-0.2c0.4,0,0.7,0.1,1,0.4c0.2,0.3,0.4,0.6,0.4,1L647.6,56.8L647.6,56.8z M647.1,56.4c0-0.3-0.1-0.5-0.2-0.7c-0.1-0.2-0.3-0.3-0.6-0.3s-0.4,0.1-0.6,0.3c-0.2,0.2-0.3,0.3-0.3,0.7H647.1L647.1,56.4z"/><path class="st2" d="M650.3,57.4c0,0.3-0.1,0.5-0.4,0.7s-0.5,0.3-0.9,0.3c-0.4,0-0.7,0-1-0.2v-0.5c0.3,0.2,0.6,0.2,1,0.2c0.5,0,0.8-0.2,0.8-0.5c0-0.3-0.3-0.5-0.9-0.5h-0.3v-0.4h0.3c0.5,0,0.8-0.2,0.8-0.5c0-0.1,0-0.3-0.2-0.4c-0.1-0.1-0.3-0.1-0.5-0.1c-0.3,0-0.6,0.1-0.9,0.2v-0.3c0.4-0.1,0.7-0.2,1-0.2c0.7,0,1.1,0.3,1.1,0.8c0,0.2,0,0.3-0.2,0.4c-0.1,0.1-0.3,0.2-0.4,0.3l0,0c0.3,0,0.4,0.1,0.5,0.3C650.2,57.1,650.3,57.2,650.3,57.4z"/><path class="st2" d="M655.1,56.7c0,0.5-0.1,1-0.3,1.2c-0.3,0.3-0.6,0.4-1.1,0.4c-0.5,0-0.7-0.2-0.9-0.5l0,0v1.8h-0.5v-4.4h0.5v0.5l0,0c0.3-0.4,0.6-0.6,1.1-0.6c0.3,0,0.7,0.1,0.9,0.4C655,55.8,655.1,56.2,655.1,56.7z M654.6,56.6c0-0.4-0.1-0.6-0.3-0.8c-0.2-0.2-0.4-0.3-0.7-0.3c-0.3,0-0.5,0.1-0.7,0.3c-0.2,0.2-0.3,0.4-0.3,0.7V57c0,0.3,0.1,0.4,0.3,0.7c0.2,0.2,0.4,0.3,0.6,0.3c0.3,0,0.5-0.1,0.7-0.3C654.5,57.3,654.6,57,654.6,56.6z"/><path class="st2" d="M658.2,56.8H656c0,0.4,0.1,0.6,0.3,0.8c0.2,0.2,0.4,0.3,0.7,0.3c0.4,0,0.7-0.1,1-0.4v0.4c-0.3,0.2-0.6,0.3-1.1,0.3s-0.8-0.1-1.1-0.4c-0.3-0.3-0.4-0.7-0.4-1.1c0-0.3,0-0.6,0.2-0.8c0.1-0.3,0.3-0.4,0.5-0.6c0.2-0.1,0.4-0.2,0.7-0.2c0.4,0,0.7,0.1,1,0.4c0.3,0.3,0.4,0.6,0.4,1V56.8L658.2,56.8z M657.6,56.4c0-0.3-0.1-0.5-0.2-0.7c-0.1-0.2-0.4-0.3-0.6-0.3c-0.3,0-0.4,0.1-0.6,0.3c-0.2,0.2-0.3,0.3-0.3,0.7H657.6L657.6,56.4z"/><path class="st2" d="M660.5,55.6h-1.2v2.6h-0.5v-3h1.6L660.5,55.6L660.5,55.6z"/><path class="st2" d="M663.7,58.2h-0.4v-2.3l-1.6,2.3h-0.5v-3h0.4v2.3l1.6-2.3h0.5V58.2L663.7,58.2z"/><path class="st2" d="M666.5,58.1c-0.3,0.1-0.5,0.2-0.8,0.2s-0.5-0.1-0.7-0.2s-0.4-0.4-0.5-0.5c-0.1-0.3-0.2-0.5-0.2-0.8c0-0.5,0.2-0.9,0.4-1.2c0.3-0.3,0.7-0.4,1.1-0.4c0.3,0,0.5,0,0.7,0.2v0.5c-0.3-0.2-0.4-0.3-0.7-0.3c-0.3,0-0.6,0.1-0.8,0.4c-0.2,0.2-0.3,0.5-0.3,0.9c0,0.4,0.1,0.7,0.3,0.9c0.2,0.2,0.4,0.4,0.7,0.4c0.3,0,0.5-0.1,0.7-0.3L666.5,58.1L666.5,58.1z"/><path class="st2" d="M669.1,55.6h-0.9v2.6h-0.5v-2.6h-0.9v-0.4h2.3L669.1,55.6L669.1,55.6z"/><path class="st2" d="M672.5,56.7c0,0.5-0.1,1-0.4,1.2c-0.3,0.2-0.6,0.4-1.1,0.4c-0.5,0-0.7-0.2-0.9-0.5l0,0v1.8h-0.5v-4.4h0.5v0.5l0,0c0.3-0.4,0.6-0.6,1.1-0.6c0.4,0,0.7,0.1,0.9,0.4C672.4,55.8,672.5,56.2,672.5,56.7z M672,56.6c0-0.4-0.1-0.6-0.3-0.8c-0.2-0.2-0.4-0.3-0.7-0.3c-0.3,0-0.5,0.1-0.7,0.3c-0.2,0.2-0.3,0.4-0.3,0.7V57c0,0.3,0.1,0.4,0.3,0.7c0.2,0.2,0.3,0.3,0.6,0.3s0.5-0.1,0.7-0.3C671.9,57.3,672,57,672,56.6z"/><path class="st2" d="M675.2,58.2h-0.5v-0.5l0,0c-0.2,0.4-0.5,0.5-1,0.5c-0.3,0-0.5-0.1-0.7-0.3c-0.2-0.2-0.3-0.3-0.3-0.7c0-0.6,0.4-0.9,1.1-1l0.9-0.1c0-0.5-0.2-0.8-0.6-0.8c-0.3,0-0.7,0.1-1,0.3v-0.5c0.1-0.1,0.3-0.1,0.4-0.2c0.2-0.1,0.4-0.1,0.6-0.1c0.7,0,1,0.3,1,1.1L675.2,58.2L675.2,58.2z M674.7,56.7l-0.7,0.1c-0.3,0-0.4,0.1-0.5,0.2c-0.1,0.1-0.2,0.2-0.2,0.4c0,0.2,0,0.3,0.2,0.4c0.1,0.1,0.3,0.1,0.4,0.1c0.3,0,0.4-0.1,0.6-0.3c0.2-0.2,0.3-0.3,0.3-0.7L674.7,56.7L674.7,56.7L674.7,56.7z"/><path class="st2" d="M679,59.3h-0.4v-1.1h-2.5v-3h0.5v2.6h1.6v-2.6h0.5v2.6h0.4L679,59.3L679,59.3z"/><path class="st2" d="M682.2,58.2h-0.4v-2.3l-1.6,2.3h-0.5v-3h0.4v2.3l1.6-2.3h0.5V58.2L682.2,58.2z"/><path class="st2" d="M685.6,58.2h-0.4v-2.3l-1.6,2.3h-0.5v-3h0.4v2.3l1.6-2.3h0.5V58.2L685.6,58.2z"/></g></svg>
