<svg version="1.1" xmlns="http://www.w3.org/2000/svg" x="0px" y="0px" viewBox="0 0 96 96" enable-background="new 0 0 96 96"><rect fill="#F03B4C" width="96" height="96"/><path fill="#191919" d="M58,73c-0.7,0-1.6-0.2-2.4-0.5c-3.4-1.2-4.9-3.9-4.2-7.5c0.6-2.9,1.6-5.4,2.7-8c0.7-1.8,1.5-3.5,2.2-5.3c0.4-1.2,1-2.6,1.5-3.8l0,0c-0.4,0.5-0.9,0.9-1.3,1.4c-1.2,1.2-2.4,2.6-3.6,3.8c-1.9,2.1-4,4.4-6.1,6.5c-1.5,1.5-3.3,3.2-5.5,4.2c-1.3,0.6-2.7,0.9-3.9,0.5c-2.2-0.6-3.4-2.4-3.3-5c0.1-2.1,0.7-4.2,1.8-6.5c0.9-2,1.8-3.9,2.7-5.9c0.4-0.9,0.9-2,1.3-2.9l1-2.4c1.2-2.7,2.5-5.6,3.7-8.3c0.3-0.8,0.6-1.7,0.7-2.6c0.1-0.3,0.1-0.6,0.3-0.9c-0.1,0.2-0.3,0.3-0.4,0.6c-1.6,2.3-3.1,4.5-4.8,6.8c-0.4,0.8-1,1.4-1.5,2.1c-1.2,1.7-2.5,3.5-3.7,5.3c-0.7,1.1-1.8,1.8-2.8,2.6c-1,0.6-2.2,0.8-3.3,0.3c-1-0.5-1.9-1.5-2.4-2.7c-0.6-2,0-3.9,0.7-5.3c0.6-1.4,1.3-2.6,1.9-3.9c0.6-1.1,1.2-2.3,1.8-3.3c0.6-1.2,1.2-2.4,1-3.8c0-0.8-0.4-1.5-1-2c-0.3-0.3-0.7-0.3-1.3,0c-1.3,0.6-2.2,1.7-3,2.7c-0.6,0.8-1.3,1.1-2.1,0.6c-0.4-0.3-0.7-0.8-0.9-1.1c-0.1-0.5,0-0.9,0.3-1.4c1.3-2.1,3-3.5,4.9-4.2c2.2-0.9,4.5,0,6,2.3c1,1.7,1.2,3.5,0.7,5.3c-0.6,1.7-1.2,3.3-1.9,4.8c-0.4,0.9-0.9,2-1.3,2.9s-0.9,2-1.3,2.9c-0.3,0.6-0.3,1.2-0.4,2v0.2c0,0,0,0.2,0.1,0.3c0.1,0,0.1-0.2,0.3-0.2c0.3-0.3,0.4-0.5,0.7-0.8c0.7-0.8,1.3-1.5,1.9-2.3c1-1.7,2.2-3.3,3.3-4.8c0.9-1.5,1.9-2.9,2.8-4.4c1.2-1.7,2.2-3.2,3.4-4.5c1-1.2,2.1-1.8,3.1-2.1c1-0.2,1.9,0.2,2.8,0.8c0.9,0.8,1.3,1.8,1.5,2.9c0.1,1.5,0,2.9-0.6,4.4l-0.3,0.9c-0.9,2.6-1.9,5.1-3,7.7c-0.9,2.1-1.9,4.2-2.8,6.5c-0.9,2.1-1.9,4.2-2.8,6.5c-0.4,1.2-0.9,2.6-1.2,3.8c-0.1,0.3-0.1,0.8-0.3,1.1c0,0.2,0,0.2,0,0.3c0.3-0.2,0.6-0.3,0.9-0.6c2.1-1.5,3.9-3.5,5.7-5.4c2.7-3,5.7-6.3,8.6-9.3c1-1.2,2.4-2.1,3.7-2.6c1.3-0.6,2.7-0.5,3.7,0.2c1,0.6,1.8,1.7,2.1,3c0.3,1.4,0,2.7-0.1,3.6c-0.6,2.4-1.5,4.8-2.4,6.9c-0.3,0.6-0.4,1.2-0.7,1.8c-1.2,3-2.1,5.4-3,7.7c-0.1,0.5-0.1,0.9-0.3,1.4c0,0.3-0.1,0.5-0.1,0.8h0.1c0.4,0,1,0,1.3-0.2c1.6-0.6,3-2,4.3-3.2c0.9-0.9,1.8-1.8,2.7-2.6l0.1-0.2c0.9-0.9,1.8-0.9,2.8,0c0.7,0.6,1.3,1.2,1.9,1.8c0.4,0.5,0.6,0.9,0.6,1.4s-0.1,0.9-0.6,1.2l-0.3,0.3c-2.4,2.4-4.8,4.8-7.9,6.5C61,72.5,59.5,73,58,73z"/></svg>
