<svg version="1.1" xmlns="http://www.w3.org/2000/svg" x="0px" y="0px" viewBox="0 0 96 96" enable-background="new 0 0 96 96"><rect opacity="0.5" fill="#4B4B4B" enable-background="new  " width="96" height="96"/><path fill="#FFFFFF" d="M71,32v-4H47v4.3c0.7-0.2,1.3-0.4,2-0.4c0.7,0,1.5,0.1,2.1,0.4c0.7,0.3,1.3,0.7,1.9,1.1c0.5-0.5,1.1-0.8,1.9-1.1c0.7-0.3,1.4-0.4,2.1-0.4c0.7,0,1.3,0.1,1.9,0.4c0.6,0.2,1.2,0.5,1.7,0.9c0.5,0.4,1,0.9,1.3,1.4s0.7,1.1,0.8,1.8c0.7-0.3,1.5-0.4,2.2-0.4c0.8,0,1.6,0.2,2.4,0.5c0.7,0.3,1.4,0.7,1.9,1.3s1,1.2,1.3,1.9c0.3,0.7,0.5,1.5,0.5,2.3v18.2c0,2.6-0.5,4.9-1.6,6.9c-1,2-2.5,3.6-4.2,4.9c-1.8,1.3-3.7,2.3-6,3c-2.2,0.6-4.5,1-6.8,1c-1.3,0-2.5-0.1-3.6-0.1c-1-0.1-2-0.2-3-0.5c-1-0.2-1.9-0.5-2.8-1c-1-0.4-2-1-3.1-1.7c-0.3-0.2-0.9-0.7-1.7-1.4c-0.8-0.8-1.8-1.7-2.9-2.7c-1.1-1.1-2.2-2.3-3.5-3.5c-1.3-1.2-2.4-2.4-3.5-3.6s-2.1-2.1-3-3.1c-0.8-0.9-1.5-1.5-1.9-2c-0.8-0.9-1.1-1.9-1.1-3c0-0.7,0.1-1.4,0.4-2c0.3-0.7,0.7-1.2,1.1-1.7c0.5-0.5,1-0.9,1.7-1.1c0.7-0.3,1.3-0.4,2.1-0.4c1.3,0,2.5,0.2,3.7,0.6c1.3,0.4,2.4,0.8,3.6,1.3V28H19v-4h16.4c0.2-0.6,0.5-1.1,0.8-1.6s0.8-0.9,1.3-1.3c0.5-0.4,1-0.6,1.6-0.8c0.6-0.2,1.2-0.3,1.8-0.3c0.6,0,1.2,0.1,1.8,0.3c0.6,0.2,1.1,0.5,1.6,0.8c0.5,0.3,1,0.7,1.3,1.3c0.4,0.5,0.7,1,0.8,1.6H71v-4l6,6L71,32z M49,36c-0.5,0-1,0.2-1.3,0.5c-0.3,0.3-0.5,0.7-0.7,1.2c-0.1,0.5-0.2,1-0.2,1.7c0,0.6,0,1.2,0,1.8s0.1,1.1,0.1,1.7c0.1,0.5,0.1,1,0.1,1.2v4h-4V26c0-0.5-0.2-1-0.6-1.4S41.6,24,41.1,24c-0.5,0-1,0.2-1.4,0.6c-0.4,0.4-0.6,0.9-0.6,1.4v30.1c-0.6-0.3-1.4-0.7-2.4-1.1c-1-0.4-2.1-0.9-3.1-1.4c-1.1-0.5-2.1-0.8-3.1-1.1c-1-0.3-1.9-0.5-2.5-0.5c-1,0-1.4,0.5-1.4,1.4v0.2c1.3,1.4,2.7,2.7,4,4.1c1.3,1.3,2.7,2.6,4,4c1.1,1.1,2.1,2.1,2.9,3c0.8,1,1.6,1.8,2.4,2.6c0.8,0.8,1.5,1.4,2.3,2.1c0.8,0.6,1.6,1.1,2.6,1.5c1,0.4,2.1,0.7,3.3,0.9c1.3,0.2,2.7,0.3,4.5,0.3c1.8,0,3.5-0.2,5.3-0.7c1.8-0.5,3.3-1.2,4.7-2.1c1.4-1,2.5-2.2,3.3-3.7c0.8-1.5,1.3-3.2,1.3-5.2V42c0-0.5-0.2-1-0.6-1.4S65.6,40,65.1,40c-0.5,0-0.9,0.2-1.2,0.5c-0.3,0.3-0.5,0.7-0.7,1.2c-0.2,0.5-0.2,1-0.3,1.7c-0.1,0.6-0.1,1.2,0,1.8c0.1,0.6,0.1,1.1,0.1,1.7s0.1,1,0.1,1.3h-4v-6c0-0.4,0.1-1,0.1-1.7c0.1-0.7,0.1-1.3,0-2s-0.2-1.2-0.5-1.7c-0.3-0.5-0.8-0.7-1.5-0.7c-0.5,0-1,0.2-1.4,0.6c-0.4,0.4-0.6,0.9-0.6,1.4v10H51V38c0-0.5-0.2-1-0.6-1.4C50,36.2,49.6,36,49,36z"/></svg>
