<svg version="1.1" xmlns="http://www.w3.org/2000/svg" x="0px" y="0px" viewBox="0 0 120 72" enable-background="new 0 0 120 72"><path id="XMLID_2_" fill="#F03B4C" d="M12.4,0.9c-0.1,0.2-0.1,0.3-0.2,0.5c-0.4-0.9-2-1-2.5,0.2C9.6,1.9,9.5,2.2,9.4,2.4C8.6,2.6,8.1,3.7,8.7,4.5C7,9,5.4,13.5,3.7,18c-0.6,1.5-1.3,3-1.9,4.6c-0.1,0.2-0.1,0.5,0,0.7c-0.6,1.5-1.1,3.1-1.7,4.6c-0.4,1,0.5,1.6,1.3,1.6c0,0.2,0,0.3-0.1,0.5c0,0,0,0,0,0l0,0c0,0.1,0,0.2,0,0.3c-0.1,0.5,0.2,0.9,0.5,1.1c0,0,0,0.1,0,0.1c-0.5,1.7,2,2.3,2.6,0.7c1.2-3.3,2.3-6.6,3.5-9.9c0.3-0.3,0.4-0.4,0.8-1.4c0.1-0.3,0.1-0.6-0.1-0.8c0.7-2,1.4-4,2.1-6.1C15,32.2,28.3,47.5,44.9,56.4c4.3,2.3,8.8,4.2,13.4,5.6c18.3,9.6,41.4,14.2,60.3,4.9c0.7-0.3,0.2-1.5-0.5-1.2c-3.3,1.4-6.6,2.4-10,3c4-1.3,7.9-3.3,11.6-6.2c0.9-0.7,0.1-1.8-0.7-2c0.7-0.9-0.3-2.4-1.5-1.7c-2.4,1.4-4.9,2.5-7.5,3.4c-10.7,1.7-21.7,2.3-32.4,1.2c-2.2-0.4-4.4-0.9-6.6-1.5C65.6,60,60.7,57.5,56,54.7c-9.4-5.7-18.5-12.4-26.1-20.2c-1.2-1.2-2.3-2.5-3.4-3.8c-3-4.4-5.7-9-7.9-13.9c3.1,2.9,6.3,5.6,9.7,8.1c0.7,0.5,1.6,0,1.9-0.7c1.1,0.4,2.1-1.3,1.3-2.3c-0.9-1-1.7-2-2.6-3.1c0.5-0.5,0.7-1.2,0.1-1.9c-1-1-2-2-3.1-2.9c-4.2-4.1-7.9-8.6-11.2-13.6C14.2-0.3,12.8-0.1,12.4,0.9z M93.1,68.5c6.8,0,13.5-1.4,19.8-4.4c0.1,0,0.2,0,0.4-0.1C107,67.6,100.2,68.8,93.1,68.5z M13.9,4.7C13.9,4.6,14,4.4,14,4.2c0.3,0.4,0.6,0.8,0.9,1.3C14.6,5.2,14.2,5,13.9,4.7z M51.7,54.8c-1-0.5-2.1-1-3.1-1.6c-1.8-1.3-3.5-2.7-5.2-4.1C46.1,51.2,48.9,53,51.7,54.8z M33.4,45.6c-9.7-8.2-17.1-19-20.2-31.2c0.3,0.5,0.6,1.1,0.9,1.6C17.3,27.6,24.3,37.7,33.4,45.6z M24.4,31.9c1.3,1.9,2.6,3.7,4,5.4c-2-2.3-3.8-4.7-5.4-7.2C23.5,30.7,23.9,31.3,24.4,31.9z"/></svg>