<svg version="1.1" xmlns="http://www.w3.org/2000/svg" x="0px" y="0px" viewBox="0 0 96 96" width="96px" height="96px" enable-background="new 0 0 96 96"><path fill="#767676" d="M74,40c0.812,0,1.583,0.156,2.313,0.469s1.37,0.74,1.922,1.281c0.553,0.541,0.985,1.177,1.297,1.906C79.844,44.385,80,45.167,80,46c0,0.667-0.104,1.302-0.313,1.906l-8,24c-0.209,0.604-0.5,1.162-0.875,1.672c-0.375,0.51-0.812,0.943-1.313,1.297c-0.5,0.354-1.047,0.63-1.641,0.828C67.266,75.901,66.646,76,66,76H50c-3.729,0-7.323-0.719-10.781-2.156c-1.5-0.604-3.005-1.062-4.516-1.375C33.193,72.156,31.625,72,30,72H16V44h13.031c1.354,0,2.63-0.25,3.828-0.75c1.198-0.5,2.276-1.229,3.234-2.188L55.53,21.656c0.521-0.521,1.042-0.927,1.563-1.219C57.615,20.146,58.25,20,59,20c0.687,0,1.333,0.13,1.938,0.39c0.604,0.26,1.135,0.62,1.594,1.078c0.458,0.458,0.818,0.989,1.078,1.594C63.869,23.666,64,24.312,64,25c0,1.687-0.188,3.297-0.563,4.828c-0.375,1.531-0.927,3.047-1.656,4.547c-0.417,0.896-0.771,1.807-1.062,2.734C60.427,38.036,60.229,39,60.125,40H74z M66,72c0.417,0,0.802-0.125,1.156-0.375s0.604-0.583,0.75-1c0.104-0.292,0.297-0.854,0.578-1.687s0.62-1.838,1.015-3.015c0.396-1.177,0.834-2.469,1.313-3.875s0.958-2.828,1.437-4.266c0.479-1.437,0.943-2.838,1.39-4.203c0.447-1.365,0.849-2.594,1.203-3.687c0.354-1.094,0.635-1.989,0.844-2.687s0.313-1.099,0.313-1.203c0-0.542-0.198-1.011-0.594-1.406C75.01,44.198,74.541,44,73.999,44H56c0-1.104,0.026-2.13,0.078-3.078c0.052-0.948,0.156-1.87,0.313-2.766c0.156-0.896,0.38-1.791,0.672-2.687s0.677-1.844,1.156-2.844c0.583-1.209,1.026-2.443,1.328-3.703C59.849,27.662,60,26.355,60,25c0-0.292-0.094-0.531-0.281-0.719C59.532,24.093,59.292,24,59,24c-0.125,0-0.234,0.047-0.328,0.141l-0.266,0.266l-19.469,19.5c-0.667,0.667-1.38,1.25-2.141,1.75s-1.567,0.927-2.422,1.281C32.708,47.646,30.927,48,29.031,48H20v20h10c3.708,0,7.302,0.719,10.781,2.156C43.781,71.385,46.854,72,50,72H66z"></path></svg>
