<svg version="1.1" xmlns="http://www.w3.org/2000/svg" xmlns:xlink="http://www.w3.org/1999/xlink" x="0px" y="0px" viewBox="0 0 96 96" width="96px" height="96px" enable-background="new 0 0 96 96"><g><path id="SVGID_1_" fill="#4C4A48" d="M33.3,0c26.9,0,2.55,0,29.45,0S96,6.4,96,33.3s0,2.55,0,29.45S89.6,96,62.7,96s-2.55,0-29.45,0S0,89.6,0,62.7s0-14.45,0-29.45C0,6.4,6.4,0,33.3,0z"/></g><g><g><g><defs><path id="XMLID_3_" d="M33.3,0c26.9,0,2.55,0,29.45,0S96,6.4,96,33.3s0,2.55,0,29.45S89.6,96,62.7,96s-2.55,0-29.45,0S0,89.6,0,62.7s0-14.45,0-29.45C0,6.4,6.4,0,33.3,0z"/></defs><clipPath id="XMLID_5_"><use xlink:href="#XMLID_3_" overflow="visible"/></clipPath><rect id="XMLID_2_" x="-2.5" y="-2.5" clip-path="url(#XMLID_5_)" fill="#4C4A48" width="101" height="101"/></g></g></g><polygon id="XMLID_1_" fill="#FFFFFF" points="54.4,22.4 28.8,48 48,67.2 67.2,48 60.8,41.6 48,54.4 41.6,48 60.8,28.8 80,48 48,80 16,48 48,16 "/></svg>
