<svg version="1.1" xmlns="http://www.w3.org/2000/svg" xmlns:xlink="http://www.w3.org/1999/xlink" x="0px" y="0px" viewBox="0 0 96 96" width="96px" height="96px" enable-background="new 0 0 96 96"><g id="Base"><g><path id="SVGID_1_" fill="#5181B8" d="M33.3,0c26.9,0,2.55,0,29.45,0S96,6.4,96,33.3s0,2.55,0,29.45S89.6,96,62.7,96s-2.55,0-29.45,0S0,89.6,0,62.7s0-14.45,0-29.45C0,6.4,6.4,0,33.3,0z"/></g><g><defs><path id="XMLID_2_" d="M33.3,0c26.9,0,2.55,0,29.45,0S96,6.4,96,33.3s0,2.55,0,29.45S89.6,96,62.7,96s-2.55,0-29.45,0S0,89.6,0,62.7s0-14.45,0-29.45C0,6.4,6.4,0,33.3,0z"/></defs><clipPath id="XMLID_4_"><use xlink:href="#XMLID_2_" overflow="visible"/></clipPath><rect id="XMLID_1_" x="-2.5" y="-2.5" clip-path="url(#XMLID_4_)" fill="#5181B8" width="101" height="101"/></g></g><path id="Logo" fill="#FFFFFF" d="M78.6,33.05c0.45-1.5,0-2.55-2.1-2.55h-7c-1.8,0-2.6,0.95-3.05,2c0,0-3.55,8.7-8.6,14.3c-1.65,1.65-2.35,2.15-3.25,2.15c-0.45,0-1.1-0.5-1.1-2v-13.9c0-1.8-0.5-2.55-2-2.55h-11c-1.1,0-1.8,0.85-1.8,1.6c0,1.7,2.5,2.1,2.8,6.8v10.3c0,2.25-0.4,2.65-1.3,2.65c-2.35,0-8.15-8.7-11.55-18.7c-0.7-1.85-1.35-2.65-3.15-2.65h-7c-2,0-2.4,0.95-2.4,2c0,1.85,2.35,11.05,11.05,23.2C32.95,64,41.1,68.5,48.5,68.5c4.45,0,5-1,5-2.7v-6.3c0-2,0.4-2.4,1.85-2.4c1.05,0,2.8,0.5,6.95,4.5c4.75,4.75,5.55,6.9,8.2,6.9h7c2,0,3-1,2.4-2.95c-0.65-1.95-2.9-4.8-5.9-8.2c-1.65-1.95-4.1-4-4.8-5.05c-1.05-1.35-0.75-1.95,0-3.1C69.2,49.15,77.75,37.15,78.6,33.05z"/></svg>
