<svg version="1.1" xmlns="http://www.w3.org/2000/svg" x="0px" y="0px" viewBox="0 0 120 120" width="120px" height="120px" enable-background="new 0 0 120 120"><path fill="#DDF03B" d="M111.387,77.988c1.328,0.859,2.529,1.865,3.604,3.018s1.982,2.412,2.725,3.779s1.309,2.813,1.699,4.336S120,92.188,120,93.75c0,2.578-0.498,5-1.494,7.266s-2.344,4.248-4.043,5.947s-3.682,3.047-5.947,4.043s-4.688,1.494-7.266,1.494c-3.594,0-6.914-0.957-9.961-2.871c-4.492,3.398-9.424,5.977-14.795,7.734S65.625,120,60,120s-11.123-0.879-16.494-2.637s-10.303-4.336-14.795-7.734c-3.047,1.914-6.367,2.871-9.961,2.871c-2.578,0-5-0.498-7.266-1.494s-4.248-2.344-5.947-4.043s-3.047-3.682-4.043-5.947S0,96.328,0,93.75c0-1.563,0.195-3.105,0.586-4.629s0.957-2.969,1.699-4.336s1.65-2.627,2.725-3.779s2.275-2.158,3.604-3.018c-0.391-1.758-0.674-3.506-0.85-5.244S7.5,69.258,7.5,67.5c0-5.391,0.811-10.615,2.432-15.674s3.906-9.746,6.855-14.063s6.494-8.135,10.635-11.455s8.75-5.938,13.828-7.852c0.039-2.539,0.557-4.932,1.553-7.178s2.344-4.199,4.043-5.859s3.682-2.979,5.947-3.955S57.461,0,60,0c2.539,0,4.941,0.488,7.207,1.465s4.248,2.295,5.947,3.955s3.047,3.613,4.043,5.859s1.514,4.639,1.553,7.178c5.078,1.914,9.688,4.531,13.828,7.852s7.686,7.139,10.635,11.455s5.234,9.004,6.855,14.063S112.5,62.109,112.5,67.5c0,1.758-0.088,3.506-0.264,5.244S111.777,76.23,111.387,77.988z M60,7.5c-1.563,0-3.027,0.293-4.395,0.879s-2.559,1.387-3.574,2.402s-1.816,2.207-2.402,3.574s-0.879,2.832-0.879,4.395s0.293,3.027,0.879,4.395s1.387,2.559,2.402,3.574s2.207,1.816,3.574,2.402S58.438,30,60,30c1.562,0,3.027-0.293,4.395-0.879c1.367-0.586,2.559-1.387,3.574-2.402s1.816-2.207,2.402-3.574s0.879-2.832,0.879-4.395s-0.293-3.027-0.879-4.395s-1.387-2.559-2.402-3.574s-2.207-1.816-3.574-2.402C63.027,7.793,61.562,7.5,60,7.5z M7.5,93.75c0,1.563,0.293,3.027,0.879,4.395s1.387,2.559,2.402,3.574s2.207,1.816,3.574,2.402S17.188,105,18.75,105s3.027-0.293,4.395-0.879s2.559-1.387,3.574-2.402s1.816-2.207,2.402-3.574S30,95.313,30,93.75s-0.293-3.027-0.879-4.395s-1.387-2.559-2.402-3.574s-2.207-1.816-3.574-2.402S20.313,82.5,18.75,82.5s-3.027,0.293-4.395,0.879s-2.559,1.387-3.574,2.402s-1.816,2.207-2.402,3.574S7.5,92.188,7.5,93.75z M60,112.5c4.609,0,9.111-0.693,13.506-2.08s8.486-3.408,12.275-6.064c-1.055-1.563-1.865-3.252-2.432-5.068s-0.85-3.662-0.85-5.537c0-2.578,0.498-5,1.494-7.266s2.344-4.248,4.043-5.947s3.682-3.047,5.947-4.043S98.672,75,101.25,75c0.508,0,1.016,0.02,1.523,0.059s1.016,0.098,1.523,0.176C104.766,72.656,105,70.078,105,67.5c0-4.57-0.654-8.975-1.963-13.213s-3.164-8.164-5.566-11.777s-5.313-6.836-8.73-9.668s-7.236-5.127-11.455-6.885c-0.703,1.719-1.65,3.291-2.842,4.717s-2.549,2.646-4.072,3.662s-3.164,1.797-4.922,2.344S61.875,37.5,60,37.5s-3.691-0.273-5.449-0.82s-3.398-1.328-4.922-2.344s-2.881-2.236-4.072-3.662s-2.139-2.998-2.842-4.717c-4.219,1.758-8.037,4.053-11.455,6.885s-6.328,6.055-8.73,9.668s-4.258,7.539-5.566,11.777S15,62.93,15,67.5c0,2.578,0.234,5.156,0.703,7.734c2.813-0.469,5.537-0.313,8.174,0.469s4.961,2.041,6.973,3.779s3.623,3.838,4.834,6.299S37.5,90.898,37.5,93.75c0,1.875-0.283,3.721-0.85,5.537s-1.377,3.506-2.432,5.068c3.789,2.656,7.881,4.678,12.275,6.064S55.391,112.5,60,112.5z M101.25,105c1.563,0,3.027-0.293,4.395-0.879s2.559-1.387,3.574-2.402s1.816-2.207,2.402-3.574s0.879-2.832,0.879-4.395s-0.293-3.027-0.879-4.395s-1.387-2.559-2.402-3.574s-2.207-1.816-3.574-2.402s-2.832-0.879-4.395-0.879s-3.027,0.293-4.395,0.879s-2.559,1.387-3.574,2.402s-1.816,2.207-2.402,3.574S90,92.188,90,93.75s0.293,3.027,0.879,4.395s1.387,2.559,2.402,3.574s2.207,1.816,3.574,2.402S99.688,105,101.25,105z"/></svg>
