<svg version="1.1" xmlns="http://www.w3.org/2000/svg" x="0px" y="0px" viewBox="0 0 96 96" width="96px" height="96px" enable-background="new 0 0 96 96"><path fill="#767676" d="M75.406,57.594c0.708,0.458,1.349,0.995,1.922,1.61s1.057,1.286,1.453,2.015s0.698,1.5,0.906,2.313S80,65.167,80,66c0,1.375-0.266,2.667-0.797,3.875c-0.531,1.209-1.25,2.266-2.156,3.172s-1.964,1.625-3.172,2.156C72.667,75.734,71.375,76,70,76c-1.917,0-3.687-0.51-5.313-1.531c-2.396,1.812-5.026,3.188-7.891,4.125C53.932,79.531,51,80,48,80s-5.932-0.469-8.797-1.406c-2.865-0.938-5.495-2.313-7.891-4.125C29.687,75.49,27.917,76,26,76c-1.375,0-2.667-0.266-3.875-0.797c-1.209-0.531-2.266-1.25-3.172-2.156s-1.625-1.964-2.156-3.172S16,67.375,16,66c0-0.834,0.104-1.656,0.313-2.469c0.209-0.813,0.51-1.583,0.906-2.313c0.396-0.729,0.88-1.401,1.453-2.015s1.213-1.151,1.922-1.61c-0.209-0.938-0.359-1.87-0.453-2.797S20,52.938,20,52c0-2.875,0.433-5.661,1.297-8.359c0.865-2.698,2.083-5.198,3.656-7.5s3.463-4.339,5.672-6.109s4.667-3.167,7.375-4.188c0.021-1.354,0.297-2.63,0.828-3.828c0.531-1.198,1.25-2.239,2.156-3.125c0.906-0.885,1.964-1.589,3.172-2.109C45.364,16.26,46.646,16,48,16s2.635,0.26,3.844,0.781c1.209,0.521,2.266,1.224,3.172,2.109c0.906,0.885,1.625,1.927,2.156,3.125s0.807,2.474,0.828,3.828c2.708,1.021,5.167,2.417,7.375,4.188s4.099,3.807,5.672,6.109s2.791,4.802,3.656,7.5C75.567,46.339,76,49.125,76,52c0,0.938-0.047,1.87-0.141,2.797C75.765,55.724,75.614,56.656,75.406,57.594z M48,20c-0.834,0-1.614,0.156-2.344,0.469c-0.73,0.313-1.365,0.74-1.906,1.281s-0.969,1.177-1.281,1.906C42.156,24.385,42,25.166,42,26s0.156,1.614,0.469,2.344c0.313,0.73,0.74,1.365,1.281,1.906c0.541,0.541,1.177,0.969,1.906,1.281C46.385,31.844,47.167,32,48,32s1.614-0.156,2.344-0.469c0.729-0.313,1.365-0.74,1.906-1.281s0.969-1.177,1.281-1.906C53.844,27.615,54,26.834,54,26s-0.156-1.614-0.469-2.344c-0.313-0.73-0.74-1.365-1.281-1.906c-0.541-0.541-1.177-0.969-1.906-1.281C49.614,20.156,48.833,20,48,20z M20,66c0,0.834,0.156,1.614,0.469,2.344s0.74,1.365,1.281,1.906s1.177,0.969,1.906,1.281S25.167,72,26,72s1.614-0.156,2.344-0.469s1.365-0.74,1.906-1.281s0.969-1.177,1.281-1.906C31.844,67.615,32,66.834,32,66s-0.156-1.614-0.469-2.344c-0.313-0.73-0.74-1.365-1.281-1.906s-1.177-0.969-1.906-1.281C27.615,60.156,26.834,60,26,60s-1.614,0.156-2.344,0.469c-0.73,0.313-1.365,0.74-1.906,1.281c-0.541,0.541-0.969,1.177-1.281,1.906C20.156,64.385,20,65.167,20,66z M48,76c2.458,0,4.859-0.37,7.203-1.109c2.344-0.74,4.526-1.818,6.547-3.234c-0.563-0.834-0.995-1.734-1.297-2.703C60.151,67.985,60,67.001,60,66.001c0-1.375,0.266-2.667,0.797-3.875c0.531-1.209,1.25-2.266,2.156-3.172s1.964-1.625,3.172-2.156C67.332,56.266,68.625,56,70,56c0.271,0,0.542,0.011,0.812,0.031c0.27,0.021,0.542,0.052,0.812,0.094C71.875,54.75,72,53.375,72,52c0-2.437-0.349-4.787-1.047-7.047c-0.698-2.26-1.687-4.354-2.969-6.281c-1.281-1.927-2.834-3.646-4.656-5.156s-3.859-2.734-6.109-3.672c-0.375,0.917-0.88,1.755-1.516,2.516c-0.636,0.761-1.359,1.411-2.172,1.953c-0.812,0.542-1.687,0.958-2.625,1.25C49.969,35.854,49,36,48,36s-1.969-0.146-2.906-0.437c-0.938-0.292-1.812-0.708-2.625-1.25s-1.537-1.193-2.172-1.953c-0.635-0.761-1.141-1.599-1.516-2.516c-2.25,0.938-4.286,2.162-6.109,3.672c-1.823,1.51-3.375,3.229-4.656,5.156c-1.281,1.927-2.271,4.021-2.969,6.281C24.35,47.213,24,49.563,24,52c0,1.375,0.125,2.75,0.375,4.125c1.5-0.25,2.953-0.167,4.359,0.25c1.406,0.417,2.646,1.089,3.719,2.015c1.073,0.927,1.932,2.047,2.578,3.359C35.677,63.062,36,64.479,36,66c0,1-0.151,1.985-0.453,2.953c-0.302,0.969-0.734,1.87-1.297,2.703c2.021,1.417,4.203,2.495,6.547,3.234S45.542,76,48,76z M70,72c0.834,0,1.614-0.156,2.344-0.469s1.365-0.74,1.906-1.281s0.969-1.177,1.281-1.906S76,66.834,76,66s-0.156-1.614-0.469-2.344s-0.74-1.365-1.281-1.906s-1.177-0.969-1.906-1.281C71.615,60.156,70.834,60,70,60s-1.614,0.156-2.344,0.469c-0.73,0.313-1.365,0.74-1.906,1.281s-0.969,1.177-1.281,1.906S64,65.167,64,66s0.156,1.614,0.469,2.344s0.74,1.365,1.281,1.906s1.177,0.969,1.906,1.281S69.167,72,70,72z"></path></svg>