<svg version="1.1" xmlns="http://www.w3.org/2000/svg" x="0px" y="0px" viewBox="0 0 120 120" width="120px" height="120px" enable-background="new 0 0 120 120"><path fill="#F03B4C" d="M108.75,45c1.523,0,2.969,0.293,4.336,0.879s2.568,1.387,3.604,2.402s1.846,2.207,2.432,3.574S120,54.688,120,56.25c0,1.25-0.195,2.441-0.586,3.574l-15,45c-0.391,1.133-0.938,2.178-1.641,3.135s-1.523,1.768-2.461,2.432s-1.963,1.182-3.076,1.553s-2.275,0.557-3.486,0.557h-30c-6.992,0-13.73-1.348-20.215-4.043c-2.813-1.133-5.635-1.992-8.467-2.578S29.297,105,26.25,105H0V52.5h24.434c2.539,0,4.932-0.469,7.178-1.406s4.268-2.305,6.064-4.102l36.445-36.387c0.977-0.977,1.953-1.738,2.93-2.285s2.168-0.82,3.574-0.82c1.289,0,2.5,0.244,3.633,0.732s2.129,1.162,2.988,2.021s1.533,1.855,2.021,2.988S90,15.586,90,16.875c0,3.164-0.352,6.182-1.055,9.053s-1.738,5.713-3.105,8.525c-0.781,1.68-1.445,3.389-1.992,5.127S82.93,43.125,82.734,45H108.75z M93.75,105c0.781,0,1.504-0.234,2.168-0.703s1.133-1.094,1.406-1.875c0.195-0.547,0.557-1.602,1.084-3.164s1.162-3.447,1.904-5.654s1.563-4.629,2.461-7.266s1.797-5.303,2.695-7.998s1.768-5.322,2.607-7.881s1.592-4.863,2.256-6.914s1.191-3.73,1.582-5.039s0.586-2.061,0.586-2.256c0-1.016-0.371-1.895-1.113-2.637s-1.621-1.113-2.637-1.113H75c0-2.07,0.049-3.994,0.146-5.771s0.293-3.506,0.586-5.186s0.713-3.359,1.26-5.039s1.27-3.457,2.168-5.332c1.094-2.266,1.924-4.58,2.49-6.943s0.85-4.814,0.85-7.354c0-0.547-0.176-0.996-0.527-1.348S81.172,15,80.625,15c-0.234,0-0.439,0.088-0.615,0.264l-0.498,0.498L43.008,52.324c-1.25,1.25-2.588,2.344-4.014,3.281s-2.939,1.738-4.541,2.402C31.328,59.336,27.988,60,24.434,60H7.5v37.5h18.75c6.953,0,13.691,1.348,20.215,4.043C52.09,103.848,57.852,105,63.75,105H93.75z"></path></svg>
