<svg version="1.1" xmlns="http://www.w3.org/2000/svg" x="0px" y="0px" viewBox="0 0 120 120" width="120px" height="120px" enable-background="new 0 0 120 120"><path fill="#DDF03B" d="M60,2.5c-10.72,0-19.421,8.596-19.844,19.219C22.128,29.373,10,47.216,10,67.5c0,0.857-0.041,1.806,0,2.813C4.074,73.797,0,80.176,0,87.5c0,10.986,9.014,20,20,20c2.873,0,5.647-0.612,8.125-1.719C36.788,113.062,48.088,117.5,60,117.5s23.212-4.438,31.875-11.719c2.478,1.107,5.252,1.719,8.125,1.719c10.986,0,20-9.014,20-20c0-7.402-4.127-13.886-10.156-17.344c0.08-0.807,0.156-1.612,0.156-2.656c0-20.284-12.128-38.127-30.156-45.781C79.421,11.096,70.72,2.5,60,2.5z M60,12.5c5.582,0,10,4.418,10,10s-4.418,10-10,10c-5.582,0-10-4.418-10-10S54.418,12.5,60,12.5z M42.344,31.719C45.701,38.089,52.345,42.5,60,42.5s14.299-4.411,17.656-10.781C91.056,38.219,100,51.897,100,67.5c-10.986,0-20,9.014-20,20c0,4.474,1.549,8.531,4.063,11.875C77.374,104.433,68.78,107.5,60,107.5s-17.374-3.067-24.063-8.125C38.451,96.031,40,91.974,40,87.5c0-10.986-9.014-20-20-20C20,51.897,28.944,38.219,42.344,31.719z M20,77.5c5.582,0,10,4.418,10,10s-4.418,10-10,10s-10-4.418-10-10S14.418,77.5,20,77.5z M100,77.5c5.582,0,10,4.418,10,10s-4.418,10-10,10s-10-4.418-10-10S94.418,77.5,100,77.5z"/></svg>
