<svg version="1.1" xmlns="http://www.w3.org/2000/svg" x="0px" y="0px" viewBox="0 0 600 286" width="600px" height="286px" enable-background="new 0 0 600 286"><rect x="0" y="0" fill="none" width="600" height="286"/><g><path fill-rule="evenodd" clip-rule="evenodd" fill="#2B2B2B" d="M230.87,239.415c3.656-1.494,5.899-7.642,7.113-11.197c-4.287,1.701-2.304-0.361-4.948,4.979C231.577,236.141,231.236,235.84,230.87,239.415L230.87,239.415z"/><path fill-rule="evenodd" clip-rule="evenodd" fill="#2B2B2B" d="M288.311,44.488c4.211-1.085,4.877-1.828,6.879-5.401C290.444,39.86,290.751,40.415,288.311,44.488L288.311,44.488z"/><path fill-rule="evenodd" clip-rule="evenodd" fill="#2B2B2B" d="M283.847,42.143c3.785-1.349,3.279-0.665,5.389-4.538C285.411,38.351,284.91,38.446,283.847,42.143L283.847,42.143z"/><path fill-rule="evenodd" clip-rule="evenodd" fill="#2B2B2B" d="M247.219,51.943c-2.761,1.245-2.011,0.351-3.436,3.674C246.511,54.075,245.864,54.856,247.219,51.943L247.219,51.943z"/><path fill-rule="evenodd" clip-rule="evenodd" fill="#DEDEDE" d="M333.686,254.89c8.337-8.104,7.793-14.929,9.152-18.18c0.691-1.652,5.33-5.15,6.184-10.069c-9.849,3.375-9.892,26.576-20.499,27.111c1.45-3.825,2.239-2.448,4.719-5.886c1.814-2.515,8.897-18.229,8.741-20.989c-6.416,5.016-8.087,15.86-17.217,28.212L333.686,254.89L333.686,254.89z"/><path fill-rule="evenodd" clip-rule="evenodd" fill="#DEDEDE" d="M192.245,58.579c1.094-0.726,0.937-0.334,2.043-1.39c3.181-3.032,0.586-2.155,5.294-6.736l24.309-24.306c0.145-0.171,0.379-0.513,0.565-0.771C216.311,28.674,194.444,47.482,192.245,58.579L192.245,58.579z"/><path fill-rule="evenodd" clip-rule="evenodd" fill="#DEDEDE" d="M327.345,196.401c-0.46-0.794-3.449,2.294-0.418-5.215c0.725-1.794,4.046-5.52,5.433-11.94c-3.198,2.079-2.766,3.564-5.993,6.95l-1.915,1.825c0.109,6.252,0.436,9.417-0.393,15.124c4.115-4.503,10.913-16.692,12.086-20.451c1.313-4.208,0.154-2.073-0.032-2.823C331.852,180.697,328.917,191.58,327.345,196.401L327.345,196.401z"/><path fill-rule="evenodd" clip-rule="evenodd" fill="#DEDEDE" d="M286.661,178.302c3.005,2.736,27.769,7.348,32.553,7.368c-0.236-2.9-0.024-2.093-1.348-3.979l-1.707,3.194C309.679,181.401,296.642,176.634,286.661,178.302L286.661,178.302z"/><path fill-rule="evenodd" clip-rule="evenodd" fill="#DEDEDE" d="M114.598,255.279l-12.679-20.724c-0.257,4.394,2.856,8.691,4.679,11.867l5.494,10.547c1.304,0.154,3.556,0.585,4.767,0.5c5.269-0.368,2.543-0.648,3.947-1.475l-2.603-2.711c-0.24,0.067-1.116,0.467-1.358,0.579C116.783,253.89,115.279,254.948,114.598,255.279L114.598,255.279z"/><path fill-rule="evenodd" clip-rule="evenodd" fill="#DEDEDE" d="M254.994,148.576c-3.287,0.745-1.12-0.591-3.243,2.431c-0.22,0.314-1.283,2.387-1.947,3.508c-1.565,2.642-2.347,4.785-3.744,7.225c-2.655,4.634-6.583,6.987-8.228,11.476c4.642-2.308,5.659-4.012,10.571-10.301C250.571,160.139,254.29,152.754,254.994,148.576L254.994,148.576z"/><path fill-rule="evenodd" clip-rule="evenodd" fill="#DEDEDE" d="M278.527,123.697c0.854-3.23,1.303-3.041,1.824-4.713c1.585-5.083,0.209-2.538-0.341-3.668c-1.719,1.597-1.734,0.831-2.889,5.104c-0.661,2.446-0.971,3.256-0.869,5.554c4.501,0.544,14.914-5.601,14.325-11.052L278.527,123.697L278.527,123.697z"/><path fill-rule="evenodd" clip-rule="evenodd" fill="#DEDEDE" d="M361.072,160.993c4.791-1.362,12.181-7.928,16.096-11.711l4.015-5.527C377.752,145.026,363.504,157.055,361.072,160.993L361.072,160.993z"/><path fill-rule="evenodd" clip-rule="evenodd" fill="#DEDEDE" d="M272.106,270.912c5.888-2.038,15.786-13.718,16.201-20.057c-2.579,0.275-1.408-0.685-4.486,4.63C275.017,270.69,275.345,264.783,272.106,270.912L272.106,270.912z"/><path fill-rule="evenodd" clip-rule="evenodd" fill="#DEDEDE" d="M150.747,198.05c8.274-1.821,4.531-1.516,8.917-5.447c3.338-2.991,5.874-2.839,6.184-7.406C160.999,186.976,154.552,194.63,150.747,198.05L150.747,198.05z"/><path fill-rule="evenodd" clip-rule="evenodd" fill="#DEDEDE" d="M283.685,176.27c5.469-2.449,9.785-5.054,16.279-6.659C295.393,166.558,286.633,170.856,283.685,176.27L283.685,176.27z"/><path fill-rule="evenodd" clip-rule="evenodd" fill="#DEDEDE" d="M121.323,218.579c1.438-0.649,11.19-8.156,12.684-9.718c-3.279-0.16-6.544,1.542-8.532,3.201C123.31,213.868,121.914,215.931,121.323,218.579L121.323,218.579z"/><path fill-rule="evenodd" clip-rule="evenodd" fill="#DEDEDE" d="M122.183,199.073c2.853-1.471,4.182-2.7,5.925-5.255c1.559-2.285,2.716-3.791,3.629-6.506C129.463,188.636,123.631,195.508,122.183,199.073L122.183,199.073z"/><path fill-rule="evenodd" clip-rule="evenodd" fill="#DEDEDE" d="M356.298,138.978c2.273-0.924,3.657-1.56,5.574-2.87c3.604-2.465,2.202,0.477,2.021-3.558C359.815,133.889,358.219,134.831,356.298,138.978L356.298,138.978z"/><path fill-rule="evenodd" clip-rule="evenodd" fill="#DEDEDE" d="M340.725,278.743c3.512-0.229,6.93-4.295,7.752-6.818C345.424,273.115,342,276.441,340.725,278.743L340.725,278.743z"/><path fill-rule="evenodd" clip-rule="evenodd" fill="#DEDEDE" d="M326.635,180.765c0.981-2.213,0.693-1.462,0.95-3.088c-4.066,1.112-4.641,3.763-3.994,7.525L326.635,180.765L326.635,180.765z"/><path fill-rule="evenodd" clip-rule="evenodd" fill="#DEDEDE" d="M317.098,209.642c0.437,0.284-1.168,3.948,2.728-0.301c1.335-1.456,1.47-2.816,1.894-3.855C319.247,206.659,317.036,208.062,317.098,209.642L317.098,209.642z"/><path fill-rule="evenodd" clip-rule="evenodd" fill="#FFFFFF" d="M399.682,102.747c1.292-2.875,11.145-7.761,12.607-8.028C409.987,99.378,406.747,102.432,399.682,102.747L399.682,102.747z M311.705,91.573c0.837-4.77-0.38-1.991,2.264-3.332C315.87,92.499,314.324,90.499,311.705,91.573L311.705,91.573z M302.393,79.842c3.797,0.078,6.777,2.514,6.788,6.933C303.061,82.856,305.93,85.597,302.393,79.842L302.393,79.842z M247.219,51.943c-1.355,2.913-0.707,2.132-3.436,3.674C245.207,52.294,244.458,53.187,247.219,51.943L247.219,51.943z M288.311,44.488c2.439-4.073,2.132-4.628,6.879-5.401C293.188,42.66,292.523,43.403,288.311,44.488L288.311,44.488z M283.847,42.143c1.063-3.697,1.565-3.792,5.389-4.538C287.125,41.478,287.632,40.794,283.847,42.143L283.847,42.143z M267.549,47.832l6.389-7.378c2.028-1.884,5.061-4.235,7.925-2.698C277.714,41.801,273.404,45.367,267.549,47.832L267.549,47.832z M204.424,68.536c1.851-5.757,14.506-24.366,19.409-28.883c1.617-1.489,11.583-8.6,13.973-10.152c3.743-2.429,10.882-7.317,15.643-7.86c-1.767,5.627-16.297,10.244-20.365,15.2l-11.097,13.023c-2.767,3.139-8.692,7.833-11.534,12.593C208.397,65.898,208.853,66.587,204.424,68.536L204.424,68.536z M192.245,58.579c-5.952,5.304-11.162,17.759-16.329,25.17l-3.327,3.844c6.528-23.368,21.119-44.365,40.053-58.333c-5.522,1.176-15.729,10.341-18.681,14.493c-1.718,2.416-3.109,4.405-4.993,7.055c-9.316,13.11-7.255,8.008-12.747,21.233c-1.384,3.333-2.497,4.557-4.368,7.677l-29.864,62.506c4.555-2.964,10.208-13.538,12.822-19.228c2.443-5.317,7.85-18.623,11.278-21.628c-0.822,7.185-4.581,15.203-6.837,21.739c-2.337,6.768-7.628,12.198-9.936,18.98c7.558-4.927,9.506-16.973,15.268-17.275c0.18,5.787-7.055,11.403-8.764,17.617l6.717-8.41c2.234-3.62,2.268-4.875,5.196-7.974c3.219,4.45-2.25,10.397-5.111,14.639c-3.249,4.818-7.336,8.985-9.203,13.056c8.58-4.177,11.766-16.103,18.144-21.354c3.715,5.119-10.712,17.493-12.94,25.261c5.475-3.28,6.077-6.909,9.397-11.566c1.842-2.583,6.753-9.639,8.751-9.885c1.854,3.149-1.894,6.282-4.25,10.019c-2.309,3.663-3.771,7.606-6.025,10.684c5.116-3.272,12.213-16.089,14.042-18.004c2.862-2.997-0.699-1.159,3.284-2.155c-0.473,7.703-12.98,20.234-18.006,30.368c8.093-6.274,22.169-28.826,25.465-30.983c0.59,1.284,0.56,0.282,0.392,2.218c-0.059,0.685-0.462,2.042-0.884,2.978c-4.083,9.065-15.196,19.836-22.85,31.475c5.081-1.994,20.137-22.239,24.297-27.678c3.28-4.288,3.49-7.838,8.151-10.225c-2.358,8.186-7.897,15.292-12.151,21.581l-14.75,18.447c14.194-7.523,26.842-32.336,32.625-40.104c1.14-1.531,0.672-1.002,1.602-1.881c1.173,2.727,1.081,0.049,0.112,3.62l-8.724,18.69c2.093-3.024,3.419-5.025,5.404-7.732c3.013-4.109,7.435-12.689,10.949-15.232c-0.864,9.046-15.276,29.504-20.128,37.223c6.478-2.815,8.658-10.499,15.115-20.453c2.321-3.579,4.951-6.657,6.949-10.547c2.214-4.309,2.787-8.358,7.233-11.497c-2.942,11.03-18.638,33.563-18.622,38.659c3.951-7.514,9.145-13.395,14.191-22.202c4.046-7.06,10.376-20.195,13.338-22.975c-0.822,6.503-7.54,16.878-10.735,24.478c-4.347,10.343-8.372,14.666-12.412,22.828c9.585-4.417,26.939-48.468,32.046-52.035c-1.1,5.998-11.719,30.262-15.541,37.705c-2.568,5.001-6.064,7.252-7.326,11.451c5.853-2.365,21.675-32.185,23.965-38.647c1.19-3.358,4.297-14.005,5.813-15.788c0.008,0.012,1.761-0.5-0.018,6.087l-7.594,21.022c-4.157,9.333-9.012,16.431-13.265,25.059c5.632-3.795,10.819-15.41,15.207-23.044c1.816-3.159,4.985-9.07,6.641-13.131c1.661-4.072,1.181-11.658,5.601-14.003c3.214,6.666-17.82,42.152-18.686,46.065c6.347-5.426,17.691-26.102,19.429-34.262c0.861-4.046,2.283-11.21,5.83-12.763c1.784,3.263-7.958,25.319-9.033,29.543l2.878-3.07c0.95-1.392,1.288-2.352,1.873-3.589c4.725-9.995,6.119-20.03,10.859-21.721c0.22,7.437-11.709,28.299-14.065,35.898c3.395-1.525,3.928-4.565,5.425-7.61c3.566-7.254,10.484-18.375,10.553-28.763c8.171-0.389,20.168,1.411,26.697-1.783c-7.948-0.621-19.28,0.173-23.895-4.661c2.942-1.311,15.932,3.887,24.242,1.713c-3.25-0.314-6.852-0.441-9.89-1.029l-5.454-2.359c-1.897-1.686-0.173,0.402-1.709-2.099l19.129,3.269c-0.198-0.45-0.587-1.018-0.715-0.795l-4.251-2.868c-3.492-2.528-0.508-1.224-5.348-3.429c-5.971-2.72-5.48-1.61-8.267-7.35c3.457,0.487,29.239,18.68,45.548,15.342c6.818-1.396-3.473,1.414,1.772-0.596l1.535-0.894c-4.585-3.31-13.71-2.323-20.785-5.522c-4.196-1.897-13.365-7.745-15.267-10.866c10.218,1.99,6.502,5.707,14.549,5.99l3.43,0.131c0.294,0.037,0.643,0.106,0.912,0.147l5.823-6.256c1.619,1.938,1.157-0.856,0.83,2.043c-0.298,2.636-2.577,3.731-0.414,6.823c2.839-1.601,2.898-2.715,3.902-6.13c2.553,3.242,1.624,0.947-1.022,8.701c6.447-1.913,5.449-6.05,9.17-11.582c2.42,3.413-1.111,7.033-2.802,11.103c3.896-1.486,4.511-2.427,6.552-6.184c1.717-3.16,2.355-5.388,5.286-7.384l-4.937,14.381c9.194-7.081,4.107-8.313,10.415-11.091l-3.747,10.915c4.674-3.411,5.524-9.336,10.319-11.875c-0.38,6.559-2.01,6.256-3.56,11.443c5.499-2.416,6.5-10.332,11.712-12.888c1.635,2.557-1.438,5.386-2.675,10.151c2.145-2.451,2.265-1.542,4.527-4.772c1.802-2.573,2.195-4.088,3.553-6.197c0.265,0.309,3.118,0.96-0.217,6.103c-2.209,3.406-2.302,1.15-3.481,6.368c4.351-1.423,5.516-5.086,9.586-10.145c0.094,0.191,0.127,0.33,0.145,0.622l0.951,4.176c2.99-1.295,2.597-1.522,5.546-2.6c-0.083-0.122-1.133-2.333-1.608-3.153l5.785-3.291l1.553-16.115c2.704,0.613,2.796-3.418,1.798,9.489c-0.411,5.316,0.778,9.207,2.268,12.449l3.282-4.661l1.644,3.924c2.623-1.872,2.24-2.208,6.024-2.893c1.652,3.572-2.896,1.241,2.628,4.032c0.153,0.077,0.566,0.18,0.797,0.357l-5.886,5.822l10.554-4.463c-0.516,6.172-7.365,4.476-8.982,10.705l4.194,2.891c7.345-1.747,9.758-7.844,16.891-9.128c-2.946,6.441-6.236,5.507-9.717,10.826c5.676-1.063,5.486-3.745,11.84-6.165c-1.511,3.182-2.399,4.149-3.966,6.233c6.335-1.255,4.058-4.082,9.585-4.182c-0.722,4.196-5.573,5.838-9.654,7.207c7.681,4.878,6.962-5.745,16.432-5.356c-2.504,5.13-5.932,3.253-8.764,8.02c5.354,1.053,2.713-3.73,12.324-5.072c-2.112,4.153-2.628,1.469-5.751,6.653c13.061,1.454-2.169-1.618,8.005-3.121c1.081,2.794-1.551,0.169,0,3.459c9.021-1.509-2.397-3.13,8.924-0.485c12.606,2.945,40.211-4.532,33.794-28.503l-1.579,3.142c-1.945,4.979-4.508,19.251-16.013,19.965c-12.902,0.801-38.263-8.541-36.175-23.819c2.73-19.978,29.41-11.357,45.208-7.386c-3.008-3.532-7.086-4.466-11.639-5.321c-4.847-0.91-10.695-2.489-14.894-2.77c-9.465-0.634-4.495-0.539-11.556-4.827c-2.21-1.343-3.335-1.867-5.599-3.203c-6.139-3.623-26.446-8.737-33.018-9.599c-10.246-1.344-18.529-0.75-30.225-2.708c-16.099-2.695-26.013-5.405-43.242-7.259c-6.517-0.701-8.332-2.07-13.811-3.656c-9.606-2.781-19.393-5.53-30.126-3.833c-7.603,1.202-1.646,1.497-10.4,7.118c-2.527,1.623-8.639,6.083-10.333,6.728c1.734-4.334,3.925-2.566,6.914-8.775c-9.706,3.454-11.703,8.636-17.494,11.745c-0.178,0.096-0.578,0.259-0.726,0.334c-0.148,0.074-0.491,0.213-0.736,0.32c3.362-7.207,8.509-7.931,11.768-12.679c-5.318,1.503-20.981,16.862-25.127,19.199c1.787-4.198,5.971-8.059,9.584-11.178l4.177-4.314c-9.147,2.626-15.145,13.833-22.593,17.96c1.718-4.282,7.429-12.383,9.79-14.19c-8.503,2.585-11.259,11.598-18.481,15.694c6.491-14.218,17.19-23.482,29.202-30.666c4.623-2.765,7.847-5.953,14.136-7.311c-2.849,5.291-9.681,7.115-13.962,11.443c7.821-2.096,19.087-11.282,23.515-9.112c-1.866,3.439-0.013,0.214-2.088,2.452c-0.222,0.239-0.959,0.95-1.186,1.201c-1.591,1.754-0.26-0.392-1.755,2.1c14.064-2.697,12.848-4.748,34.173-1.119c10.441,1.777,19.981,4.915,30.932,7.122c1.32-1.962,1.522-3.292,3.903-4.696c-2.351-2.219-3.228-2.611-2.122-6.101c4.816,1.872,5.453,6.835,11.091,8.638c-1.405-5.224-3.216-4.405-4.245-11.105c8.898,3.729,2.1,8.826,17.111,14.871c-1.061-6.906-1.7-5.531-3.56-10.351c8.236,0.6,3.461,7.31,8.494,11.55c3.208-5.004-2.25-12.468,4.382-15.287c2.21,3.014,1.027,1.773,0.547,5.725l4.404-1.394l-1.078,6.051c4.238-2.605,5.132-6.055,7.633-6.92c0.143,4.184-1.579,6.352-3.012,9.872c3.018-1.807,4.756-4.501,7.941-5.895c-0.023,4.267-1.023,4.167-2.533,7.678c7.548-3.429,5.379-7.742,11.159-8.98c-1.179,3.994-2.644,5.138-3.423,8.843c7.343-3.575,1.588-6.435,9.996-7.472c-0.957,4.354-2.533,3.263-2.949,8.368c5.076-2.41,6.904-8.632,9.727-8.916c0.272,0.725,0.489,0.47,0.258,2.145c-0.455,3.303-2.57,4.41-3.276,7.731c6.553-0.405,4.9-8.118,10.48-10.356c0.252,5.239-1.903,5.025-3.696,10.008c5.769-1.797,4.348-1.931,6.824-7.284c3.672-7.944,8.747-8.041,2.755,1.641c-1.946,3.146-2.614,4.095-4.175,7.221c7.099-1.272,7.748-12.488,14.794-16.315c-1.096,8.702-6.511,11.658-9.453,18.509c6.491-1.698,11.36-11.441,13.511-17.733l2.161-5.5c1.069-1.62,0.385-0.783,1.513-1.65c5.048,4.898-8.326,21.36-9.65,25.711c9.313-4.583,7.387-13.952,12.804-17.074c1.173,14.978-6.351,13.018-7.326,20.364c3.257-2.461,4.044-4.34,6.296-7.245c1.851-2.388,4.727-5.049,6.097-7.087c2.301,5.716,0.203,5.616-1.443,10.558c3.404-3.896,1.522-6.491,8.426-6.581l-3.579,8.505c3.543-2.109,4.875-7.014,8.093-8.402c1.751,3.901-1.73,5.258-2.392,10.523c1.531-1.363,2.619-2.715,3.69-3.98c2.298-2.714,0.148-2.22,4.179-3.252c2.709,4.851-1.71,3.097-0.269,8.265c5.159-3.234,3.083-8.387,7.873-10.424c2.138,5.238-2.207,8.711-3.012,13.578c1.529-1.295,1.091-1.16,2.324-2.522l1.56-1.701c3.343-4.022,1.655-8.537,7.551-8.122c-0.675,4.906-5.432,9.122-5.551,15.43c2.457-2.774,8.152-12.942,11.434-15.116l0.72,2.526c0.008,0.233,0.041,0.599,0.026,0.858c-0.219,3.83-3.099,5.516-3.348,9.47l8.779-11.329c1.792-0.76,0.487-0.479,1.632-0.056c0.803,2.509-1.522,6.137-2.738,9.391c6.286-2.926,5.04-8.653,10.675-10.483l-3.205,10.187c5.504-2.138,4.046-7.545,8.272-10.121c1.183,1.802,0.763-1.138,0.505,2.005c-0.303,3.677-3.077,5.201-3.381,8.486c6.006-0.38,4.039-6.505,8.353-10.527c0.181,0.21,0.321,0.354,0.349,0.755l1.016,7.094c0.725-2.208,0.625-2.451,1.924-4.546c2.532-4.083,1.328,1.382,2.571-5.438c1.083-5.943-1.091-8.401,3.999-9.688c3.136,4.358,0.79,6.142,1.734,11.236c1.337,7.216,4.094,2.278,0.798,9.327c7.153-0.424-0.418-1.809,7.326-2.811c1.224,2.568,0.188,1.544,0.422,2.312c1.05,3.44-1.173,0.06,1.148,2.629c1.454-2.203,0.964-2.967,3.912-2.467c0.932,1.595,0.824,0.466,0.731,3.319c-0.006,0.17-0.663,2.969-0.8,3.6c3.507-2.391,3.153-4.502,6.637-5.925l2.191,5.996c3.235-3.285,1.055-2.152,4.382-3.496c3.624,3.179,3.919,1.312,6.819,3.131c3.424,2.148-0.771-1.773,1.945,2.386l3.997-2.809c2.977,2.513,1.199-0.201,2.297,4.562c2.427-2.066,0.704-1.143,3.564-3.188c1.799,2.238,0.364-0.156,1.373,2.638c0.288,0.798,0.373,2.063,0.609,2.881c2.365-3.09,0.798-4.041,4.375-4.15c6.154-0.187-1.456,3.145,6.788-0.893c3.433,2.823,0.837,0.878,2.944,4.015c1.35-3.624,1.593-4.708,4.724-6.792c3.905,4.007-0.332,0.972,1.096,4.97c2.303-2.183,3.731-5.726,6.718-6.508c0.085-0.023,0.434-0.054,0.502-0.068c0.064-0.013,0.33,0.024,0.478-0.035c2.345-14.803-14.636-18.39-25.254-23.051c-4.808-2.111-5.733-2.942-12.022-4.221c-8.996-1.828-19.218-3.615-28.466-4.291c-22.667-1.658-32.715-7.344-53.823-11.194c-9.137-1.666-21.241-1.794-29.177-3.571c-8.498-1.903-20.141-3.254-29.116-2.245c-8.997,1.011-75.082-3.372-93.846-2.614c-8.826,0.357-23.634-0.673-31.737,0.576c-6.247,0.963-40.583,13.609-47.219,17.625c-11.849,7.169-13.05,10.84-21.868,18.672L209.9,54.21c-4.542,4.627-10.321,14.819-14.997,17.21l5.714-14.256c-4.933,1.359-12.562,18.131-16.942,21.453C184.992,72.74,190.304,64.842,192.245,58.579L192.245,58.579z"/><path fill-rule="evenodd" clip-rule="evenodd" fill="#FFFFFF" d="M36.758,97.949c-2.453-1.552-14.645-23.09-10.69-30.24C29.846,70.786,36.881,95.64,36.758,97.949L36.758,97.949z M30.215,135.339c-0.586-5.522-7.174-15.988-5.443-20.844l1.911,2.537c5.947,10.579,21.171,44.434,30.884,51.177c0.078-8.679-23.11-39.552-31.455-57.239c-3.356-7.111-7.784-16.129-6.684-22.697c3.512,4.081,12.678,26.228,16.051,33.098c2.89,5.886,5.937,10.411,9.237,15.934c2.59,4.335,5.708,11.248,10.592,13.693c-0.789-8.132-7.165-14.872-10.838-21.095L23.384,89.588c-4.261-8.201-7.774-11.692-5.326-23.182c3.247,1.901,3.248,4.21,4.44,8.716l10.984,28.518c2.807,5.614,14.39,28.641,20.314,32.894c-0.4-6.038-4.846-10.887-7.557-16.048c-2.422-4.609-6.353-11.848-7.431-16.167c2.087,0.826,2.51,0.802,4.574,4.805c3.496,6.781,4.589,10.211,9.393,14.801c2.523-14.94-4.506-7.931-15.434-35.135c-0.984-2.451-2.024-4.335-2.744-6.231c-1.906-5.021,0.03-5.078,0.034-5.083c1.172,1.392,15.247,29.847,16.026,31.979c3.303-1.929,4.918-6.982,6.808-2.435c1.528,3.675-0.051,8.941,0.046,12.997c0.707,29.62,4.619,38.76,9.349,66.372l15.655,73.273c1.032,3.816,1.601,5.926,3.803,8.291l-5.878-58.842c-3.699-28.012-12.753-62.033-14.438-81.953c-0.724-8.566-2.208-22.041-1.647-30.197c1.429-20.769,8.958-31.219,15.254-48.03c-4.334,1.591-2.41,2.624-5.774,3.558c-1.849,0.514-2.218-0.271-6.078,0.813c-10.382,2.917-7.297,0.566-15.8-1.351c2.847,6.875,2.763,3.34,7.256,7.276c0.986,0.864,2.717,2.942,3.187,4.651c1.29,4.694,0.506,2.744-0.857,4.116c-3.589,4.071-11.762-2.531-15.405-4.182c3.769,6.232,13.62,7.585,11.908,14.806c-1.41,0.748,0.136,0.459-2.554,0.663c-0.279,0.021-0.583,0.028-0.882,0.028l-6.143-0.9c1.537,9.167,6.694,5.103,10.47,13.436c-8.85-1.66-16.788-12.47-18.131-22.021l9.848,3.783c-2.419-4.246-5.517-4.7-9.173-8.711c-5.38-5.903-6.674-4.676-6.58-10.347c4.121,0.026,1.571-0.032,5.588,2.529c5.582,3.558,9.952,5.999,16.116,7.896c-1.502-11.369-21.382-15.544-22.628-22.828c3.843-1.914,13.511,3.745,17.28,5.352c5.159,2.198,4.547,2.37,9.375,0.967c6.346-1.843,6.8-0.348,8.883-3.028c-3.35-2.067-14.226,2.635-26.234-5.352c-8.756-5.825-5.04-1.587-11.916-4.515c-3.254-1.385-9.602-6.779-13.486-0.421l-4.017,17.97c-1.608,15.827-1.047,19.288,0.469,33.727c0.847,8.069-0.342,4.326-1.736,8.557c-2.059,6.249,0.889,14.59,1.689,20.864l10.21,86.698c1.536-11.851,0.757-61.805-1.98-72.979c-1.297-5.297-4.968-15.637-4.113-20.663c4.718,4.768,3.322,11.191,8.051,21.075c0.986,2.061,0.311,1.144,1.547,2.836C29.975,135.934,29.125,134.587,30.215,135.339L30.215,135.339z"/><path fill-rule="evenodd" clip-rule="evenodd" fill="#FFFFFF" d="M230.87,239.415c0.366-3.575,0.707-3.274,2.165-6.218c2.644-5.339,0.661-3.277,4.948-4.979C236.769,231.774,234.527,237.922,230.87,239.415L230.87,239.415z M173.786,213.282c-3.196,8.256-21.971,19.861-23.103,26.285c8.16-0.739,9.08-6.832,16.158-9.529c-1.847,7.544-16.85,13.565-22.462,19.263c14.416-2.206,23.749-14.463,30.878-16.927c-2.579,5.47-11.021,10.797-16.327,14.287c-2.397,1.576-3.888,2.085-5.988,3.806c10.89-2.066,19.517-8.125,27.111-14.464c3.128-2.61,3.391-3.997,7.874-4.937c-4.473,9.316-25.691,16.417-28.55,22.695c16.105-2.345,25.813-16.188,38.473-24.335c-1.384,5.401-3.58,5.688-7.108,8.538c-5.609,4.531-9.905,9.872-17.05,13.597c-3.337,1.74-6.41,3.335-8.769,5.555c5.226-0.838,12.526-5.719,16.925-8.348c5.314-3.175,9.154-8.101,14.907-9.197c-4.158,8.125-23.69,18.608-33.818,23.719c7.839-0.932,21.36-9.951,28.854-14.428c6.806-4.066,19.896-15.937,24.754-17.796c-0.805,5.397-16.969,16.64-22.08,20.462l-8.044,6.136c25.608-10.332,36.029-28.989,42.17-32.831c-1.654,7.862-18.319,22.496-25.106,28.094l-9.054,7.753c5.908-2.179,13.431-8.133,17.635-12.351c3.003-3.014,5.381-4.535,8.36-6.971c3.452-2.823,3.697-5.377,7.002-7.544c-1.657,9.957-14.764,16.524-18.618,23.303c6.69-2.115,16.493-13.385,20.335-13.984c-2.867,7.555-10.601,13.429-17.127,18.267c-3.527,2.614-4.059,2.022-5.603,6c4.639-1.449,2.888-0.891,5.858-3.556c4.648-4.172,10.467-7.066,14.788-11.47c5.97-6.084,12.075-17.601,15.435-18.427c-1.315,3.513-4.037,8.52-6.034,11.379c-4.79,6.855-9.71,11.73-16.251,17.727c-2.808,2.575-5.641,6.173-7.571,7.779c4.212-1.139,7.15-4.853,10.337-8.303c9.134-9.889,17.113-8.111,26.22-31.804c0.918,1.61,0.427,3.858-0.546,5.841c-10.188,20.758-23.869,29.022-25.736,33.027c5.895-2.895,12.919-8.644,16.748-13.383c1.651-2.043,2.526-2.577,4.266-4.496c5.499-6.062,10.6-20.564,14.172-23.766c4.179,8.072-22.219,36.404-23.068,38.218c7.088-3.261,14.097-10.83,18.558-16.849c9.594-12.947,6.32-21.34,12.178-23.217c0.969,2.341-0.558,5.183-1.616,7.371c-6.957,14.38-13.47,24.605-25.197,35.169c-3.31,2.982-3.196,1.168-5.224,5.066c5.56-2.265,10.395-6.64,14.963-10.653c3.932-3.454,8.084-9.028,11.441-13.796c4.764-6.767,5.681-8.264,7.73-17.427c2.276-10.178,6.626-5.706,1.595-17.421c2.268-3.03,2.135-1.82,3.633-5.206c-4.479,1.429-5.213,4.733-9.314,2.948c0.909-5.645,3.404-2.272,5.891-7.331c-4.999,0.802-6.625,5.355-13.697,6.512c1.357-1.515,3.503-3.801,5.06-5.024c3.521-2.765,2.701-0.696,4.935-5.126c-5.033,0.539-6.968,2.316-9.582,4.907c-3.596,3.565-2.914,5.324-6.781,5.93c0.732-5.24,5.839-7.564,9.179-11.522c-6.76,2.108-7.579,5.459-12.872,8.638c2.596-5.987,3.407-3.683,5.747-8.152c-8.014,2.855-9.009,10.623-14.104,13.025c-2.22-5.501,4.875-9.469,8.872-12.482c4.564-3.441,7.884-6.39,12.29-9.867c-3.333,0.609-12.468,5.34-14.894,7.306c-2.552,2.068-8.436,10.853-10.991,9.901c-1.58-4.711,15.105-15.485,17.664-18.646c-11.025,2.686-17.861,15.831-24.779,18.092c3.18-5.386,9.581-9.326,12.113-14.807c-10.621,1.559-12.194,11.548-19.855,14.812c-0.349-4.227,2.074-5.432,4.84-8.441l6.936-7.806c-3.604,1.622-8.919,5.245-10.613,7.38c-3.377,4.257-2.746,7.804-9.579,8.862c2.313-5.728,12.171-14.816,12.867-17.412c-2.088,2.848-7.388,6.027-9.855,8.581c-1.97,2.041-7.2,8.713-10.069,9.659c1.529-7.062,7.212-9.742,11.023-15.766c-10.48,4.743-13.535,17.077-24.373,21.731c2.312-5.805,8.128-8.741,10.064-14.464c-3.753,1.884-4.225,3.247-6.92,5.949c-2.361,2.367-3.603,3.083-5.943,5.035c-4.663,3.89-5.2,9.116-12.264,10.061c1.563-3.126,4.627-5.628,7.163-8.604c2.799-3.286,4.791-5.535,7.01-8.534L173.786,213.282L173.786,213.282z"/><path fill-rule="evenodd" clip-rule="evenodd" fill="#FFFFFF" d="M345.892,204.464c2.879-0.717,2.449-2.006,10.135-6.235c1.833-1.008-0.109-0.162,2.722-1.849c1.494,11.344,2.541,2.164-0.137,13.641c8.403,4.232,10.556,0.512,11.476,0.081l2.962,4.105c0.769-2.163,1.664-3.653,2.73-5.517l3.436,2.981c2.257-10.726,4.817-3.716,6.574-1.761l2.668-5.134c3.239,1.14,2.369,4.808,2.881,3.568c0.077-0.185,0.223,0.595,0.4,0.853c0.233-2.667,0.044-5.05,1.869-6.111c3.205-1.862,2.388,3.993,3.325,2.101c0.108-0.219,0.351,0.585,0.336,0.802l1.453-5.567c0.244,0.027,0.527,0.317,0.629,0.383c3.056,1.967,1.049,3.18,2.477,0.538c0.008-0.016,1.344-6.84,8.822-6.692c3.774,0.075,19.607-19.388,10.872-35.972c-5.956-0.195-8.001,0.986-11.685,3.584c-22.325,15.744-21.004,10.344-45.277,16.257c-9.837,2.396-9.084,15.79-11.621,18.902C350.06,200.956,349.027,197.8,345.892,204.464L345.892,204.464z"/><path fill-rule="evenodd" clip-rule="evenodd" fill="#FFFFFF" d="M406.909,114.72c1.413,1.441,0.54,0.195,1.663,1.726l-14.974-3.005c0.25,0.172,0.617,0.331,0.803,0.426c3.98,2.04,4.154,1.456,5.825,3.755l-9.573-1.718c2.471,3.99,4.57,2.759,6.569,7.609c-4.947-1.903-7.108-5.047-13.758-5.274c3.877,1.289,4.675,1.318,5.902,5.234l-8.708-1.532l7.326,6.512c-5.04,1.184-4.168-0.965-9.654-1.851l7.668,6.435c-1.55,6.927-1.162,4.015-0.826,12.412c-4.125,1.444-6.759,5.877-10.343,10.179c-3.387,4.066-8.264,5.149-10.197,9.084c11.82-4.587,14.948-13.823,19.445-16.317c2.045,4.036-2.792,7.029-6.142,10.437c-2.559,2.604-6.892,6.263-7.826,9.172c6.509-2.877,9.344-9.471,14.794-12.001c-1.946,6.874-5.123,5.757-7.092,11.178c5.093,2.211,34.893-11.737,39.554-14.94c5.903-4.055,27.372-21.09,23.943-29.958c-2.808-5.08-11.581-5.058-17.816-5.312c-11.147-0.454-10.52-2.922-19.146-4.564L406.909,114.72L406.909,114.72z"/><path fill-rule="evenodd" clip-rule="evenodd" fill="#FFFFFF" d="M373.529,258.085c2.192-3.235,2.394-4.637,6.308-6.316C378.286,255.874,378.205,257.925,373.529,258.085L373.529,258.085z M366.751,258.908c0.511-4.017,3.645-6.882,7.061-6.865C371.794,255.396,371.166,258.684,366.751,258.908L366.751,258.908z M382.571,258.968c4.984-10.039,19.12-15.056,13.961-39.341c-7.487-0.629-12.868,2.133-19.439,4.149c-7.489,2.298-14.349,0.777-20.558,2.52c-6.682,1.876-7.66,8.354-8.553,14.421c-1.204,8.175-6.015,9.007-6.491,15.17c5.68-5.861,3.94-6.316,7.809-8.505c-0.71,4.626-2.41,6.883-4.587,9.464c7.302,0.307,0.138-1.742,8.69-5.278c1.415,2.358-0.075,3.321-0.548,5.069c3.055-1.181,0.663-1.376,5.003-2.537c-0.183,3.438-1.229,4.192-0.073,6.174c3.483-1.204-0.218-3.524,7.496-6.484l-3.047,6.525l9.792,0.026l0.685,3.151l7.869-7.335C384.579,257.57,382.4,255.094,382.571,258.968L382.571,258.968z"/><path fill-rule="evenodd" clip-rule="evenodd" fill="#FFFFFF" d="M86.044,163.818c1.515-4.904,1.876-39.369,2.422-46.992l3.059-45.201c-11.222,5.464-26.82-12.529-14.441,50.856c5.004-5.145,0.572-11.601,5.614-18.783C83.482,108.428,74.903,145.35,86.044,163.818L86.044,163.818z"/><path fill-rule="evenodd" clip-rule="evenodd" fill="#FFFFFF" d="M7.181,100.005c-5.864,31.265-2.782,61.619,3.624,92.066c1.248,5.932,3.08,9.624,4.141,15.625c1.941,10.977,2.297,24.443,6.403,33.379c1.121-13.534,1.394-22.148-0.446-35.848c-1.357-10.1-2.871-23.309-4.89-33.684C14.048,161.447,9.115,103.326,7.181,100.005L7.181,100.005z"/><path fill-rule="evenodd" clip-rule="evenodd" fill="#FFFFFF" d="M173.786,213.282l0.724-4.828c-6.2-3.197,3.418-1.972-17.467-4.868c2.883-6.13,12.855-9.347,17.047-16.594c-6.679,0.833-7.325,3.407-11.11,6.705c-1.756,1.529-2.676,1.953-4.689,4.091c-1.851,1.964-0.852,0.704-1.925,2.514l-1.235,2.805c-7.192-0.202-11.475,3.115-16.108,6.089c-5.658,3.631-7.189,6.472-11.689,10.222c0.803,2.252-0.81-1.527,1.109,1.014c0.07,0.093,0.286,0.355,0.353,0.464c1.565,2.529,0.768,3.873,1.222,4.893l8.413-4.593c-1.052,5.912-8.363,9.055-11.913,15.013c10.859-3.857,15.761-13.408,23.073-15.698c-2.532,5.354-5.656,3.694-8.079,10.556c8.466-3.34,12.212-13.573,18.691-13.093c-3.884,8.39-16.264,12.377-16.775,18.994c3.307-0.632,5.901-2.456,8.64-4.848C158.802,226.236,169.731,214.636,173.786,213.282L173.786,213.282z"/><path fill-rule="evenodd" clip-rule="evenodd" fill="#FFFFFF" d="M440.491,85.605c-5.303,4.027-5.357,1.024-6.264,0.411C436.137,84.657,431.054,82.889,440.491,85.605L440.491,85.605z M462.739,104.453c-2.433-5.371-8.44-2.265-12.46-7.404c10.341,2.666,13.736,3.241,17.052,7.712c4.298-3.071,4.145-2.41,7.105-7.306c1.961-3.243,3.068-5.874,2.065-9.446c-1.608-3.557-37.448-16.665-42.87-4.968c-0.63,1.358-0.898,4.284-0.876,5.786c3.265-1.756,2.899-0.828,6.952,0.609l19.448,7.527c0.155-0.248,0.59,0.305,0.775,0.786l-12.318-3.434l-3.782,3.365c-0.126-0.252-0.598,0.131-0.869,0.264c3.565,1.404,8.861,2.903,11.545,4.222c4.891,2.403-1.078,0.634,4.294,1.928L462.739,104.453L462.739,104.453z"/><path fill-rule="evenodd" clip-rule="evenodd" fill="#FFFFFF" d="M69.552,107.683c-3.689,24.593,12.809,77.552,15.606,103.572c2.015-1.168,1.466-1.761,3.643-1.152c3.601,1.008-1.956,0.425,2.383,1.636L69.552,107.683L69.552,107.683z"/><path fill-rule="evenodd" clip-rule="evenodd" fill="#FFFFFF" d="M136.114,140.39c4.379-2.897,5.796-6.847,7.286-11.314c0.088-0.263,0.154-0.574,0.247-0.833c2.404-6.655,6.775-8.517,9.436-15.8l16.903-36.848c1.375-2.598,2.456-4.223,3.827-7.114c4.735-9.985,18.493-31.598,26.701-35.584c-5.9-0.172-13.863,10.226-16.808,14.848c-8.387,13.162-7.836,10.768-16.173,27.674L136.114,140.39L136.114,140.39z"/><path fill-rule="evenodd" clip-rule="evenodd" fill="#FFFFFF" d="M132.198,137.293c6.784-7.334,28.159-58.473,37.48-74.016c2.259-3.768,4.505-7.979,6.956-11.678c2.928-4.419,5.344-6.208,7.383-11.028c-10.774,6.238-23.237,34.004-29.238,46.214c-2.31,4.7-4.046,8.281-6.143,12.483c-2.217,4.443-3.167,8.439-5.3,13.304C140.167,119.798,132.945,132.432,132.198,137.293L132.198,137.293z"/><path fill-rule="evenodd" clip-rule="evenodd" fill="#FFFFFF" d="M127.611,132.49c5.467-4.275,10.211-18.881,12.979-24.882l17.761-37.033c1.827-4.15,4.306-7.678,6.265-11.276c6.123-11.242,4.94-9.836,15.094-19.831c-8.731,1.301-16.719,16.511-20.615,25.365c-1.696,3.852-1.169,2.296-3.242,5.486C153.373,74.131,128.307,127.753,127.611,132.49L127.611,132.49z"/><path fill-rule="evenodd" clip-rule="evenodd" fill="#FFFFFF" d="M30.249,175.549c1.306,4.695,8.572,15.759,11.572,19.566c1.153,1.464,1.283,1.28,2.59,2.847c2.369,2.837,2.734,3.835,5.391,6.673l17.112,19.071c2.648,2.959,1.321,3.619,5.578,5.647c-0.481-10.706-24.27-32.448-31.309-40.206C37.12,184.669,35.798,178.532,30.249,175.549L30.249,175.549z"/><path fill-rule="evenodd" clip-rule="evenodd" fill="#FFFFFF" d="M30.523,186.928c1.532,3.151,1.774,5.572,3.947,8.934c6.031,9.327,16.014,19.898,19.683,25.264L69.64,238.54c3.002,3.032,3.277,2.167,5.312,6.173c-1.952-14.498-2.745-8.577-9.247-16.519c-3.717-4.54-6.637-7.923-11.878-13.333L30.523,186.928L30.523,186.928z"/><path fill-rule="evenodd" clip-rule="evenodd" fill="#FFFFFF" d="M30.588,162.303c-0.08-0.393-0.346-0.458-0.539-0.67c0.037,4.961,5.581,11.471,8.015,15.289c3.443,5.399,5.708,8.165,9.176,12.711c4.052,5.31,16.27,21.767,21.35,24.09c-0.637-5.447-5.567-11.639-8.654-14.854L30.588,162.303L30.588,162.303z"/><path fill-rule="evenodd" clip-rule="evenodd" fill="#FFFFFF" d="M56.202,183.961l-18.559-25.284c-2.376-3.626-5.349-10.922-8.485-13.086c-0.792,8.302,5.914,12.963,10.56,21.978c3.541,6.872,17.583,25.527,24.828,30.319C64.247,190.644,59.76,188.572,56.202,183.961L56.202,183.961z"/><path fill-rule="evenodd" clip-rule="evenodd" fill="#FFFFFF" d="M42.169,212.249c-3.444-4.118-8.068-10.995-11.715-14.216c0.603,7.999,44.275,56.948,46.557,57.648C72.655,242.822,50.164,221.81,42.169,212.249L42.169,212.249z"/><path fill-rule="evenodd" clip-rule="evenodd" fill="#FFFFFF" d="M98.645,138.248c3.426-1.703,15.101-33.993,18.692-39.636l19.576-39.326c-3.435,1.563-2.36,0.233-4.585,3.93l-7.626,14.249c-3.446,6.357-5.754,13.635-9.212,20.438C110.446,107.822,101.05,127.324,98.645,138.248L98.645,138.248z"/><path fill-rule="evenodd" clip-rule="evenodd" fill="#FFFFFF" d="M31.349,210.099c12.279,20.905,14.113,23.524,33.369,42.132c2.69,2.599,3.796,3.537,5.968,6.077c0.97,1.135,2.004,2.677,2.996,3.63c1.727,1.658,0.465,1.289,3.123,1.486c-8.69-13.215-10.481-14.235-22.715-26.891L31.349,210.099L31.349,210.099z"/><path fill-rule="evenodd" clip-rule="evenodd" fill="#FFFFFF" d="M121.557,133.505c0.138-0.187,0.3-0.482,0.436-0.678l4.529-8.563c5.093-13.148,26.869-58.808,33.471-69.551c2.226-3.625,4.57-5.457,6.776-9.276c-12.097,7.047-18.882,28.544-25.842,42.825l-21.052,47.106L121.557,133.505L121.557,133.505z"/><path fill-rule="evenodd" clip-rule="evenodd" fill="#FFFFFF" d="M30.215,135.339c-0.046,7.389,12.118,23.861,16.199,29.875l15.603,19.855c-0.957-5.034-4.364-9.559-7.458-13.689c-1.99-2.657-2.113-3.045-3.92-5.962l-8.478-12.38C36.658,146.163,36.28,137.328,30.215,135.339L30.215,135.339z"/><path fill-rule="evenodd" clip-rule="evenodd" fill="#FFFFFF" d="M246.74,270.757c7.912-5.635,11.903-6.415,18.636-16.223c3.715-5.412,9.78-18.091,8.883-24.625c-2.626,2.536-9.147,16.674-11.929,21.557C257.513,259.92,248.625,267.525,246.74,270.757L246.74,270.757z"/><path fill-rule="evenodd" clip-rule="evenodd" fill="#FFFFFF" d="M318.346,253.011c0.463-3.862-0.176-3.632,3.897-7.304c4.11-3.707,11.069-19.181,11.508-21.829l-3.233,3.806c-0.885,1.528-1.38,2.948-2.083,4.475c-2.822,6.123-2.59,2.407-5.19,6.853c-1.156,1.976-1.201,3.213-2.152,4.39c-1.533,1.899-1.879,0.772-3.527,3.049c-3.133,4.326,2.63-3.812-2.566,7.106c4.337,0.264,4.099,0.659,7.865,1.435c1.286-4.428,2.319-3.92,4.758-7.229l11.473-22.38C330.199,229.32,330.991,247.641,318.346,253.011L318.346,253.011z"/><path fill-rule="evenodd" clip-rule="evenodd" fill="#FFFFFF" d="M32.444,221.199c3.155,6.083,6.33,11.339,10.381,15.658c4.368,4.658,7.688,9.747,12.187,12.994c4.541,3.277,3.268,2.651,6.508,6.705c4.81,6.018,12.16,14.401,18.842,17.771c-2.387-4.319-14.064-16.804-18.352-20.476l-18.557-18.709C39.968,230.454,36.243,225.244,32.444,221.199L32.444,221.199z"/><path fill-rule="evenodd" clip-rule="evenodd" fill="#FFFFFF" d="M100.293,147.571c4.345-3.123,11.347-20.221,13.41-25.153c3.834-9.17,8.394-16.627,10.887-26.731C119.729,101.317,100.984,143.887,100.293,147.571L100.293,147.571z"/><path fill-rule="evenodd" clip-rule="evenodd" fill="#FFFFFF" d="M291.312,225.866c3.489,3.503,6.658,3.272,13.444,5.363c2.857,0.881,3.892,1.122,6.836,1.899c4.21,1.111,3.77,1.32,5.389,3.152c-0.27,0.091-0.636,0.245-0.814,0.261c-0.166,0.015-0.578,0.162-0.782,0.163c-0.202,0.001-0.567,0.022-0.792,0l-16.834-5.13c-6.547-1.863-4.511-0.654-5.968,0.589c14.456,2.117,17.392,7.599,24.849,6.792c2.634-6.945-2.558-7.105-8.458-8.921C301.967,228.121,298.698,226.615,291.312,225.866L291.312,225.866z"/><path fill-rule="evenodd" clip-rule="evenodd" fill="#FFFFFF" d="M259.954,266.786c8.718-4.008,10.908-9.071,17.348-20.054c1.579-2.693,2.083-3.478,0.396-7.016l-0.974-1.204c-2.823,4.735-4.66,10.409-7.673,15.304c-1.642,2.668-3.018,3.724-4.654,6.272C262.536,262.988,262.451,263.741,259.954,266.786L259.954,266.786z"/><path fill-rule="evenodd" clip-rule="evenodd" fill="#FFFFFF" d="M93.974,247.027c-1.882-1.258-0.727-1.767-3.744-3.612c0.63,3.954,4.549,15.535,12.07,14.145c1.095-0.203,1.762-0.615,2.726-1.175c1.856-1.076,1.48-1.083,1.934-1.458c-1.376-1.891-5.426-6.251-8.244-7.175C92.455,245.698,98.282,249.907,93.974,247.027L93.974,247.027z"/><path fill-rule="evenodd" clip-rule="evenodd" fill="#FFFFFF" d="M283.164,185.205c7.902-0.769,33.249,6.478,35.735,5.009c-4.716-3.841-11.375-4.935-17.805-5.843C284.611,182.045,285.284,180.186,283.164,185.205L283.164,185.205z"/><path fill-rule="evenodd" clip-rule="evenodd" fill="#FFFFFF" d="M202.306,54.341l22.847-22.159c4.546-4.281,5.844-3.868,8.227-8.063c-8.351,2.717-11.444,8.941-17.072,13.462c-4.175,3.353-4.68,2.28-7.962,7.418C206.322,48.168,204.01,50.644,202.306,54.341L202.306,54.341z"/><path fill-rule="evenodd" clip-rule="evenodd" fill="#FFFFFF" d="M330.428,210.028c12.953-13.241,6.647-11.673,13.3-22.934c2.098-3.552,4.42-4.603,5.427-8.807c-5.285,3.401-9.147,10.546-12.233,17.426c-6.401,14.267-7.75,11.094-10.63,17.394L330.428,210.028L330.428,210.028z"/><path fill-rule="evenodd" clip-rule="evenodd" fill="#FFFFFF" d="M280.284,279.053c6.179-2.174,13.384-12.595,16.848-16.896c2.759-3.426,3.362-3.296,0.405-6.131c-1.508,0.999-0.346-0.348-1.795,1.509c-0.185,0.238-0.621,1.06-0.781,1.345C286.858,273.325,290.497,263.895,280.284,279.053L280.284,279.053z"/><path fill-rule="evenodd" clip-rule="evenodd" fill="#FFFFFF" d="M321.367,211.324c6.403-1.777,9.556-10.116,12.478-15.451c2.547-4.65,9.086-12.916,9.764-17.788c-4.3,1.634-3.989,3.906-6.11,8.261l-10.237,17.219C325.502,206.467,323.075,208.829,321.367,211.324L321.367,211.324z"/><path fill-rule="evenodd" clip-rule="evenodd" fill="#FFFFFF" d="M47.302,249.036c4.177,3.45,10.691,17.237,27.445,27.348l-16.331-17.859c-2.318-2.517-1.79-1.417-3.607-2.991C51.277,252.471,53.301,252.024,47.302,249.036L47.302,249.036z"/><path fill-rule="evenodd" clip-rule="evenodd" fill="#FFFFFF" d="M356.285,157.374c7.388-1.439,17.858-10.45,21.899-16.923c-3.602,1.19-3.856,1.578-6.711,4.25C362.281,153.301,362.303,151.645,356.285,157.374L356.285,157.374z"/><path fill-rule="evenodd" clip-rule="evenodd" fill="#FFFFFF" d="M305.073,277.27c0.253-0.179,0.571-0.427,0.739-0.566c0.912-0.763,2.103-3.626,5.796-2.245l-2.787,6.329l4.185-1.256c0.796-5.385,1.105-7.541-1.027-11.644C308.724,269.414,306.034,273.359,305.073,277.27L305.073,277.27z"/><path fill-rule="evenodd" clip-rule="evenodd" fill="#FFFFFF" d="M167.389,199.812c5.712-1.036,13.313-8.539,16.085-13.912C180.726,186.923,168.483,195.928,167.389,199.812L167.389,199.812z"/><path fill-rule="evenodd" clip-rule="evenodd" fill="#FFFFFF" d="M288.109,264.17c2.473-2.998,3.836-6.675,5.046-11.638c-2.536,1.601-0.282-0.817-2.348,2.265l-12.299,18.018L288.109,264.17L288.109,264.17z"/><path fill-rule="evenodd" clip-rule="evenodd" fill="#FFFFFF" d="M289.942,277.55c2.501-1.131,5.988-4.68,8.054-6.819c2.772-2.872,4.634-5.182,5.288-10.726C300.797,261.696,290.575,275.959,289.942,277.55L289.942,277.55z"/><path fill-rule="evenodd" clip-rule="evenodd" fill="#FFFFFF" d="M295.898,279.19c3.567-1.537,4.948-3.214,8.107-6.785c2.32-2.623,5.149-4.538,4.144-9.458c-2.412,1.95-1.362,1.45-3.095,3.862c-1.645,2.288-1.763,1.855-3.067,3.537C299.971,272.946,297.975,276.164,295.898,279.19L295.898,279.19z"/><path fill-rule="evenodd" clip-rule="evenodd" fill="#FFFFFF" d="M324.654,281.52c6.034-1.779,11.268-6.556,12.451-13.158c-2.994,1.357-6.147,5.652-9.968,9.576C325.072,280.057,325.864,279.196,324.654,281.52L324.654,281.52z"/><path fill-rule="evenodd" clip-rule="evenodd" fill="#FFFFFF" d="M98.516,230.459c1.61,1.973-0.04,0.27,2.55,1.644l-7.829-18.307c-1.674,2.573-2.181,1.542-0.85,5.072L98.516,230.459L98.516,230.459z"/><path fill-rule="evenodd" clip-rule="evenodd" fill="#FFFFFF" d="M274.263,260.886c4.197-2.166,8.766-12.271,9.371-16.1c-4.291,1.624-1.533-1.534-5.287,7.427C276.741,256.046,275.591,256.772,274.263,260.886L274.263,260.886z"/><path fill-rule="evenodd" clip-rule="evenodd" fill="#FFFFFF" d="M45.59,255.068c5.642,6.611,2.682,8.782,13.41,14.319c-1.869-3.518-3.465-6.213-6.313-8.383C49.606,258.655,48.305,256.941,45.59,255.068L45.59,255.068z"/><path fill-rule="evenodd" clip-rule="evenodd" fill="#FFFFFF" d="M321.367,280.218c4.165-1.818,8.821-7.509,10.128-12.399c-3.047,1.531-3.617,2.293-5.641,5.594C324.111,276.256,322.923,277.276,321.367,280.218L321.367,280.218z"/><path fill-rule="evenodd" clip-rule="evenodd" fill="#FFFFFF" d="M378.668,90.266c0.223,1.925,0.489,3.855,1.441,5.105c1.718,2.257-1.353,1.807,5.196,1.545c-2.037-1.928-2.489-2.545-2.412-6.211L378.668,90.266L378.668,90.266z"/><path fill-rule="evenodd" clip-rule="evenodd" fill="#FFFFFF" d="M333.995,279.057c4.377-0.261,6.953-3.607,8.616-8.15c-3.818,1.14-3.214,1.011-5.464,4.009C335.876,276.61,335.11,277.545,333.995,279.057L333.995,279.057z"/><path fill-rule="evenodd" clip-rule="evenodd" fill="#FFFFFF" d="M345.892,204.464c-0.229,0.167-0.554,0.378-0.688,0.5l-8.236,12.045c2.423-0.895,1.308-0.163,3.003-1.839c1.527-1.511,1.971-4.06,6.038-7.089L345.892,204.464L345.892,204.464z"/><path fill-rule="evenodd" clip-rule="evenodd" fill="#2B2B2B" d="M340.725,278.743c1.275-2.302,4.699-5.628,7.752-6.818C347.655,274.448,344.238,278.513,340.725,278.743L340.725,278.743z M333.995,279.057c1.114-1.512,1.881-2.447,3.153-4.141c2.25-2.998,1.646-2.869,5.464-4.009C340.948,275.45,338.373,278.797,333.995,279.057L333.995,279.057z M305.073,277.27c0.961-3.911,3.651-7.856,6.906-9.382c2.132,4.104,1.822,6.26,1.027,11.644l-4.185,1.256l2.787-6.329c-3.694-1.381-4.884,1.482-5.796,2.245C305.644,276.843,305.326,277.09,305.073,277.27L305.073,277.27z M324.654,281.52c1.21-2.324,0.418-1.463,2.483-3.582c3.822-3.923,6.975-8.219,9.968-9.576C335.922,274.965,330.687,279.741,324.654,281.52L324.654,281.52z M321.367,280.218c1.556-2.942,2.744-3.961,4.487-6.805c2.024-3.301,2.594-4.063,5.641-5.594C330.188,272.709,325.532,278.4,321.367,280.218L321.367,280.218z M295.898,279.19c2.076-3.025,4.073-6.244,6.089-8.844c1.304-1.682,1.423-1.249,3.067-3.537c1.733-2.412,0.683-1.912,3.095-3.862c1.005,4.92-1.823,6.835-4.144,9.458C300.846,275.976,299.465,277.653,295.898,279.19L295.898,279.19z M289.942,277.55c0.633-1.591,10.855-15.853,13.342-17.545c-0.654,5.544-2.516,7.854-5.288,10.726C295.93,272.87,292.443,276.419,289.942,277.55L289.942,277.55z M280.284,279.053c10.213-15.158,6.575-5.727,14.677-20.172c0.16-0.285,0.596-1.108,0.781-1.345c1.448-1.857,0.287-0.51,1.795-1.509c2.957,2.835,2.354,2.705-0.405,6.131C293.668,266.458,286.463,276.879,280.284,279.053L280.284,279.053z M45.59,255.068c2.715,1.873,4.017,3.587,7.097,5.935c2.847,2.17,4.444,4.865,6.313,8.383C48.272,263.85,51.231,261.679,45.59,255.068L45.59,255.068z M278.508,272.814l12.299-18.018c2.066-3.082-0.188-0.664,2.348-2.265c-1.21,4.964-2.573,8.64-5.046,11.638L278.508,272.814L278.508,272.814z M272.106,270.912c3.239-6.128,2.911-0.222,11.715-15.427c3.077-5.315,1.907-4.354,4.486-4.63C287.892,257.193,277.994,268.874,272.106,270.912L272.106,270.912z M47.302,249.036c5.999,2.988,3.975,3.434,7.507,6.498c1.817,1.574,1.289,0.474,3.607,2.991l16.331,17.859C57.993,266.273,51.479,252.486,47.302,249.036L47.302,249.036z M274.263,260.886c1.328-4.115,2.478-4.84,4.084-8.674c3.754-8.961,0.996-5.802,5.287-7.427C283.029,248.615,278.461,258.721,274.263,260.886L274.263,260.886z M90.229,243.415c3.018,1.845,1.862,2.354,3.744,3.612c4.308,2.88-1.519-1.329,4.742,0.725c2.818,0.925,6.867,5.284,8.244,7.175c-0.454,0.374-0.077,0.382-1.934,1.458c-0.965,0.56-1.632,0.972-2.726,1.175C94.779,258.95,90.86,247.369,90.229,243.415L90.229,243.415z M259.954,266.786c2.496-3.045,2.582-3.798,4.443-6.698c1.635-2.548,3.011-3.604,4.654-6.272c3.013-4.895,4.85-10.569,7.673-15.304l0.974,1.204c1.688,3.537,1.184,4.322-0.396,7.016C270.862,257.715,268.672,262.778,259.954,266.786L259.954,266.786z M246.74,270.757c1.884-3.232,10.772-10.837,15.59-19.29c2.782-4.883,9.303-19.021,11.929-21.557c0.896,6.534-5.168,19.213-8.883,24.625C258.644,264.342,254.652,265.122,246.74,270.757L246.74,270.757z M101.919,234.554l12.679,20.724c0.68-0.331,2.185-1.388,2.247-1.417c0.243-0.112,1.118-0.512,1.358-0.579l2.603,2.711c-1.404,0.827,1.322,1.106-3.947,1.475c-1.211,0.085-3.463-0.346-4.767-0.5l-5.494-10.547C104.775,243.246,101.662,238.948,101.919,234.554L101.919,234.554z M382.571,258.968c-0.171-3.874,2.007-1.397-1.99-2.811l-7.869,7.335l-0.685-3.151l-9.792-0.026l3.047-6.525c-7.714,2.96-4.013,5.28-7.496,6.484c-1.156-1.982-0.11-2.736,0.073-6.174c-4.34,1.161-1.948,1.356-5.003,2.537c0.473-1.748,1.963-2.711,0.548-5.069c-8.552,3.536-1.389,5.586-8.69,5.278c2.177-2.581,3.877-4.839,4.587-9.464c-3.869,2.188-2.13,2.643-7.809,8.505c0.477-6.163,5.288-6.995,6.491-15.17c0.893-6.067,1.871-12.544,8.553-14.421c6.209-1.744,13.068-0.223,20.558-2.52c6.57-2.016,11.952-4.778,19.439-4.149C401.691,243.912,387.556,248.929,382.571,258.968L382.571,258.968z M333.686,254.89l-8.92,0.198c9.13-12.351,10.801-23.196,17.217-28.212c0.156,2.76-6.927,18.474-8.741,20.989c-2.48,3.438-3.269,2.061-4.719,5.886c10.607-0.535,10.65-23.736,20.499-27.111c-0.853,4.919-5.492,8.417-6.184,10.069C341.479,239.961,342.023,246.786,333.686,254.89L333.686,254.89z M318.346,253.011c12.645-5.37,11.853-23.691,20.749-27.63l-11.473,22.38c-2.439,3.31-3.472,2.801-4.758,7.229c-3.766-0.776-3.527-1.17-7.865-1.435c5.195-10.918-0.567-2.779,2.566-7.106c1.648-2.277,1.994-1.15,3.527-3.049c0.951-1.177,0.996-2.414,2.152-4.39c2.599-4.446,2.368-0.73,5.19-6.853c0.704-1.527,1.198-2.947,2.083-4.475l3.233-3.806c-0.44,2.648-7.398,18.123-11.508,21.829C318.17,249.379,318.809,249.149,318.346,253.011L318.346,253.011z M291.312,225.866c7.386,0.749,10.655,2.255,16.87,4.168c5.9,1.816,11.092,1.975,8.458,8.921c-7.457,0.808-10.393-4.674-24.849-6.792c1.457-1.243-0.58-2.452,5.968-0.589l16.834,5.13c0.225,0.022,0.59,0.001,0.792,0c0.204-0.001,0.616-0.147,0.782-0.163c0.177-0.017,0.544-0.17,0.814-0.261c-1.619-1.832-1.179-2.041-5.389-3.152c-2.944-0.777-3.978-1.019-6.836-1.899C297.97,229.139,294.801,229.369,291.312,225.866L291.312,225.866z M32.444,221.199c3.799,4.045,7.523,9.255,11.009,13.944l18.557,18.709c4.288,3.672,15.966,16.156,18.352,20.476c-6.682-3.37-14.032-11.752-18.842-17.771c-3.241-4.055-1.968-3.428-6.508-6.705c-4.498-3.247-7.818-8.336-12.187-12.994C38.774,232.538,35.599,227.282,32.444,221.199L32.444,221.199z M93.237,213.796l7.829,18.307c-2.59-1.374-0.941,0.329-2.55-1.644l-6.129-11.591C91.056,215.338,91.563,216.368,93.237,213.796L93.237,213.796z M31.349,210.099l22.741,26.434c12.234,12.656,14.026,13.675,22.715,26.891c-2.658-0.197-1.396,0.171-3.123-1.486c-0.992-0.953-2.026-2.494-2.996-3.63c-2.172-2.54-3.278-3.478-5.968-6.077C45.462,233.623,43.628,231.003,31.349,210.099L31.349,210.099z M121.323,218.579c0.591-2.648,1.987-4.712,4.152-6.518c1.989-1.659,5.253-3.361,8.532-3.201C132.513,210.423,122.76,217.93,121.323,218.579L121.323,218.579z M345.892,204.464l0.118,3.618c-4.067,3.029-4.511,5.578-6.038,7.089c-1.695,1.676-0.58,0.944-3.003,1.839l8.236-12.045C345.338,204.842,345.662,204.632,345.892,204.464L345.892,204.464z M317.098,209.642c-0.062-1.58,2.15-2.983,4.622-4.156c-0.424,1.039-0.56,2.399-1.894,3.855C315.93,213.59,317.535,209.926,317.098,209.642L317.098,209.642z M30.454,198.034c3.647,3.221,8.271,10.097,11.715,14.216c7.995,9.561,30.486,30.572,34.842,43.432C74.729,254.982,31.057,206.032,30.454,198.034L30.454,198.034z M173.786,213.282l14.476-8.736c-2.218,2.999-4.21,5.248-7.01,8.534c-2.535,2.976-5.6,5.478-7.163,8.604c7.064-0.945,7.601-6.171,12.264-10.061c2.34-1.952,3.583-2.668,5.943-5.035c2.695-2.702,3.167-4.065,6.92-5.949c-1.937,5.724-7.752,8.659-10.064,14.464c10.839-4.654,13.893-16.988,24.373-21.731c-3.811,6.024-9.494,8.704-11.023,15.766c2.87-0.946,8.099-7.618,10.069-9.659c2.466-2.554,7.767-5.733,9.855-8.581c-0.696,2.596-10.554,11.684-12.867,17.412c6.833-1.058,6.202-4.604,9.579-8.862c1.694-2.135,7.009-5.758,10.613-7.38l-6.936,7.806c-2.766,3.009-5.189,4.214-4.84,8.441c7.66-3.264,9.233-13.253,19.855-14.812c-2.532,5.48-8.933,9.42-12.113,14.807c6.919-2.262,13.754-15.406,24.779-18.092c-2.559,3.161-19.244,13.935-17.664,18.646c2.554,0.952,8.438-7.833,10.991-9.901c2.426-1.966,11.562-6.696,14.894-7.306c-4.406,3.477-7.725,6.426-12.29,9.867c-3.996,3.013-11.092,6.981-8.872,12.482c5.095-2.402,6.09-10.17,14.104-13.025c-2.34,4.47-3.151,2.166-5.747,8.152c5.293-3.178,6.112-6.529,12.872-8.638c-3.34,3.958-8.447,6.282-9.179,11.522c3.867-0.606,3.185-2.364,6.781-5.93c2.614-2.591,4.549-4.368,9.582-4.907c-2.234,4.43-1.414,2.361-4.935,5.126c-1.557,1.223-3.703,3.509-5.06,5.024c7.072-1.157,8.699-5.71,13.697-6.512c-2.486,5.06-4.981,1.686-5.891,7.331c4.1,1.785,4.835-1.519,9.314-2.948c-1.499,3.386-1.366,2.175-3.633,5.206c5.031,11.714,0.681,7.243-1.595,17.421c-2.049,9.163-2.966,10.66-7.73,17.427c-3.357,4.768-7.509,10.342-11.441,13.796c-4.568,4.013-9.403,8.388-14.963,10.653c2.027-3.898,1.914-2.085,5.224-5.066c11.727-10.564,18.24-20.789,25.197-35.169c1.058-2.188,2.585-5.03,1.616-7.371c-5.858,1.877-2.584,10.27-12.178,23.217c-4.461,6.019-11.47,13.587-18.558,16.849c0.849-1.814,27.248-30.146,23.068-38.218c-3.572,3.203-8.673,17.704-14.172,23.766c-1.74,1.919-2.615,2.453-4.266,4.496c-3.829,4.739-10.853,10.488-16.748,13.383c1.867-4.005,15.549-12.269,25.736-33.027c0.973-1.983,1.464-4.231,0.546-5.841c-9.107,23.694-17.086,21.915-26.22,31.804c-3.187,3.45-6.124,7.164-10.337,8.303c1.93-1.606,4.763-5.204,7.571-7.779c6.54-5.997,11.461-10.872,16.251-17.727c1.998-2.859,4.72-7.866,6.034-11.379c-3.36,0.826-9.465,12.343-15.435,18.427c-4.321,4.404-10.14,7.298-14.788,11.47c-2.97,2.666-1.219,2.107-5.858,3.556c1.544-3.978,2.077-3.385,5.603-6c6.526-4.838,14.261-10.713,17.127-18.267c-3.842,0.6-13.645,11.869-20.335,13.984c3.854-6.778,16.962-13.346,18.618-23.303c-3.304,2.167-3.55,4.721-7.002,7.544c-2.979,2.436-5.357,3.957-8.36,6.971c-4.203,4.218-11.727,10.172-17.635,12.351l9.054-7.753c6.787-5.598,23.452-20.232,25.106-28.094c-6.141,3.842-16.562,22.499-42.17,32.831l8.044-6.136c5.111-3.822,21.275-15.065,22.08-20.462c-4.858,1.859-17.947,13.73-24.754,17.796c-7.495,4.477-21.015,13.497-28.854,14.428c10.127-5.112,29.66-15.595,33.818-23.719c-5.753,1.096-9.593,6.021-14.907,9.197c-4.399,2.63-11.699,7.51-16.925,8.348c2.359-2.22,5.432-3.815,8.769-5.555c7.144-3.725,11.441-9.066,17.05-13.597c3.529-2.85,5.724-3.137,7.108-8.538c-12.66,8.147-22.368,21.991-38.473,24.335c2.859-6.278,24.077-13.379,28.55-22.695c-4.483,0.94-4.746,2.327-7.874,4.937c-7.595,6.339-16.221,12.397-27.111,14.464c2.099-1.721,3.591-2.23,5.988-3.806c5.307-3.49,13.749-8.816,16.327-14.287c-7.128,2.464-16.461,14.721-30.878,16.927c5.612-5.699,20.615-11.72,22.462-19.263c-7.079,2.697-7.999,8.791-16.158,9.529C151.815,233.143,170.59,221.538,173.786,213.282L173.786,213.282z M173.786,213.282c-4.055,1.354-14.984,12.954-21.72,18.837c-2.739,2.391-5.334,4.215-8.64,4.848c0.511-6.617,12.89-10.603,16.775-18.994c-6.479-0.48-10.225,9.753-18.691,13.093c2.423-6.863,5.546-5.203,8.079-10.556c-7.311,2.29-12.214,11.842-23.073,15.698c3.55-5.958,10.861-9.101,11.913-15.013l-8.413,4.593c-0.454-1.02,0.343-2.365-1.222-4.893c-0.068-0.109-0.283-0.371-0.353-0.464c-1.919-2.541-0.306,1.239-1.109-1.014c4.5-3.75,6.031-6.591,11.689-10.222c4.633-2.973,8.917-6.29,16.108-6.089l1.235-2.805c1.073-1.81,0.074-0.549,1.925-2.514c2.014-2.138,2.933-2.562,4.689-4.091c3.786-3.297,4.431-5.872,11.11-6.705c-4.192,7.247-14.164,10.464-17.047,16.594c20.885,2.896,11.267,1.671,17.467,4.868L173.786,213.282L173.786,213.282z M122.183,199.073c1.448-3.564,7.28-10.436,9.555-11.761c-0.914,2.715-2.07,4.221-3.629,6.506C126.365,196.373,125.036,197.602,122.183,199.073L122.183,199.073z M30.523,186.928l23.305,27.934c5.242,5.41,8.161,8.793,11.878,13.333c6.502,7.941,7.295,2.021,9.247,16.519c-2.036-4.006-2.311-3.142-5.312-6.173l-15.487-17.414c-3.669-5.367-13.652-15.937-19.683-25.264C32.297,192.5,32.055,190.079,30.523,186.928L30.523,186.928z M167.389,199.812c1.094-3.883,13.337-12.888,16.085-13.912C180.702,191.273,173.101,198.775,167.389,199.812L167.389,199.812z M150.747,198.05c3.805-3.42,10.251-11.074,15.101-12.853c-0.309,4.567-2.845,4.414-6.184,7.406C155.278,196.534,159.022,196.228,150.747,198.05L150.747,198.05z M318.899,190.214c-2.486,1.469-27.833-5.778-35.735-5.009c2.121-5.02,1.447-3.161,17.93-0.834C307.523,185.28,314.183,186.373,318.899,190.214L318.899,190.214z M321.367,211.324c1.707-2.495,4.135-4.857,5.895-7.759l10.237-17.219c2.122-4.356,1.81-6.627,6.11-8.261c-0.677,4.872-7.216,13.138-9.764,17.788C330.923,201.207,327.77,209.546,321.367,211.324L321.367,211.324z M327.345,196.401c1.572-4.822,4.507-15.705,8.768-16.53c0.186,0.75,1.345-1.385,0.032,2.823c-1.173,3.759-7.971,15.948-12.086,20.451c0.83-5.708,0.503-8.872,0.393-15.124l1.915-1.825c3.227-3.385,2.795-4.87,5.993-6.95c-1.387,6.42-4.708,10.146-5.433,11.94C323.895,198.695,326.885,195.607,327.345,196.401L327.345,196.401z M326.292,213.106c2.88-6.299,4.229-3.126,10.63-17.394c3.086-6.88,6.948-14.025,12.233-17.426c-1.007,4.205-3.329,5.256-5.427,8.807c-6.653,11.261-0.347,9.693-13.3,22.934L326.292,213.106L326.292,213.106z M323.592,185.202c-0.647-3.762-0.073-6.413,3.994-7.525c-0.258,1.626,0.03,0.874-0.95,3.088L323.592,185.202L323.592,185.202z M286.661,178.302c9.981-1.668,23.018,3.099,29.498,6.583l1.707-3.194c1.324,1.886,1.112,1.079,1.348,3.979C314.43,185.649,289.666,181.038,286.661,178.302L286.661,178.302z M30.249,175.549c5.549,2.983,6.871,9.119,10.935,13.598c7.039,7.758,30.828,29.5,31.309,40.206c-4.257-2.028-2.93-2.688-5.578-5.647l-17.112-19.071c-2.658-2.838-3.023-3.837-5.391-6.673c-1.308-1.567-1.437-1.383-2.59-2.847C38.821,191.309,31.555,180.245,30.249,175.549L30.249,175.549z M345.892,204.464c3.136-6.664,4.169-3.508,7.049-7.041c2.536-3.111,1.784-16.506,11.621-18.902c24.273-5.913,22.952-0.513,45.277-16.257c3.683-2.598,5.729-3.779,11.685-3.584c8.735,16.584-7.099,36.048-10.872,35.972c-7.478-0.148-8.813,6.676-8.822,6.692c-1.427,2.642,0.58,1.429-2.477-0.538c-0.102-0.066-0.385-0.356-0.629-0.383l-1.453,5.567c0.015-0.217-0.228-1.021-0.336-0.802c-0.936,1.892-0.119-3.963-3.325-2.101c-1.826,1.061-1.636,3.444-1.869,6.111c-0.177-0.259-0.323-1.038-0.4-0.853c-0.512,1.24,0.358-2.428-2.881-3.568l-2.668,5.134c-1.757-1.955-4.317-8.965-6.574,1.761l-3.436-2.981c-1.067,1.864-1.961,3.354-2.73,5.517l-2.962-4.105c-0.92,0.431-3.073,4.151-11.476-0.081c2.678-11.477,1.631-2.297,0.137-13.641c-2.831,1.688-0.889,0.841-2.722,1.849C348.341,202.458,348.77,203.747,345.892,204.464L345.892,204.464z M283.685,176.27c2.948-5.414,11.709-9.712,16.279-6.659C293.47,171.215,289.154,173.821,283.685,176.27L283.685,176.27z M30.049,161.633c0.193,0.212,0.459,0.277,0.539,0.67l29.347,36.566c3.088,3.215,8.018,9.407,8.654,14.854c-5.08-2.323-17.298-18.78-21.35-24.09c-3.468-4.546-5.733-7.311-9.176-12.711C35.629,173.103,30.086,166.594,30.049,161.633L30.049,161.633z M29.158,145.592c3.136,2.164,6.109,9.46,8.485,13.086l18.559,25.284c3.559,4.611,8.045,6.683,8.343,13.927c-7.245-4.791-21.286-23.447-24.828-30.319C35.072,158.554,28.366,153.893,29.158,145.592L29.158,145.592z M254.994,148.576c-0.705,4.178-4.423,11.563-6.591,14.339c-4.911,6.289-5.929,7.993-10.571,10.301c1.645-4.489,5.573-6.842,8.228-11.476c1.398-2.44,2.18-4.583,3.744-7.225c0.664-1.121,1.727-3.194,1.947-3.508C253.874,147.986,251.708,149.321,254.994,148.576L254.994,148.576z M7.181,100.005c1.934,3.321,6.867,61.442,8.832,71.539c2.019,10.375,3.533,23.584,4.89,33.684c1.84,13.7,1.567,22.314,0.446,35.848c-4.105-8.936-4.462-22.402-6.403-33.379c-1.061-6.001-2.892-9.693-4.141-15.625C4.399,161.624,1.317,131.269,7.181,100.005L7.181,100.005z M361.072,160.993c2.432-3.938,16.68-15.967,20.111-17.239l-4.015,5.527C373.253,153.065,365.863,159.631,361.072,160.993L361.072,160.993z M356.285,157.374c6.018-5.729,5.996-4.073,15.188-12.674c2.855-2.672,3.109-3.06,6.711-4.25C374.143,146.924,363.673,155.935,356.285,157.374L356.285,157.374z M30.215,135.339c6.065,1.989,6.443,10.824,11.946,17.698l8.478,12.38c1.808,2.917,1.93,3.305,3.92,5.962c3.093,4.131,6.5,8.656,7.458,13.689l-15.603-19.855C42.333,159.2,30.169,142.728,30.215,135.339L30.215,135.339z M356.298,138.978c1.921-4.148,3.517-5.089,7.595-6.428c0.181,4.035,1.583,1.093-2.021,3.558C359.955,137.419,358.571,138.054,356.298,138.978L356.298,138.978z M69.552,107.683L91.184,211.74c-4.339-1.211,1.218-0.628-2.383-1.636c-2.177-0.609-1.628-0.017-3.643,1.152C82.362,185.236,65.863,132.276,69.552,107.683L69.552,107.683z M278.527,123.697l12.05-8.775c0.589,5.451-9.824,11.597-14.325,11.052c-0.102-2.299,0.208-3.109,0.869-5.554c1.155-4.273,1.17-3.507,2.889-5.104c0.551,1.13,1.926-1.415,0.341,3.668C279.829,120.656,279.381,120.466,278.527,123.697L278.527,123.697z M404.347,112.408c8.626,1.642,7.999,4.109,19.146,4.564c6.234,0.254,15.008,0.232,17.816,5.312c3.429,8.868-18.041,25.903-23.943,29.958c-4.661,3.202-34.461,17.15-39.554,14.94c1.969-5.422,5.145-4.304,7.092-11.178c-5.45,2.53-8.285,9.125-14.794,12.001c0.933-2.909,5.267-6.568,7.826-9.172c3.35-3.408,8.187-6.401,6.142-10.437c-4.497,2.494-7.625,11.73-19.445,16.317c1.933-3.935,6.81-5.018,10.197-9.084c3.584-4.302,6.218-8.735,10.343-10.179c-0.337-8.397-0.724-5.484,0.826-12.412l-7.668-6.435c5.486,0.886,4.614,3.035,9.654,1.851l-7.326-6.512l8.708,1.532c-1.227-3.916-2.026-3.945-5.902-5.234c6.65,0.227,8.811,3.371,13.758,5.274c-1.998-4.85-4.098-3.618-6.569-7.609l9.573,1.718c-1.672-2.299-1.845-1.715-5.825-3.755c-0.186-0.096-0.553-0.255-0.803-0.426l14.974,3.005c-1.123-1.531-0.25-0.286-1.663-1.726L404.347,112.408L404.347,112.408z M100.293,147.571c0.691-3.684,19.436-46.254,24.297-51.884c-2.493,10.104-7.053,17.561-10.887,26.731C111.64,127.349,104.638,144.448,100.293,147.571L100.293,147.571z M378.668,90.266l4.225,0.439c-0.077,3.666,0.375,4.283,2.412,6.211c-6.549,0.262-3.478,0.712-5.196-1.545C379.157,94.121,378.891,92.192,378.668,90.266L378.668,90.266z M432.755,88.827c-0.022-1.502,0.246-4.428,0.876-5.786c5.422-11.698,41.261,1.41,42.87,4.968c1.003,3.572-0.103,6.202-2.065,9.446c-2.96,4.896-2.807,4.235-7.105,7.306c-3.316-4.471-6.711-5.046-17.052-7.712c4.02,5.14,10.027,2.033,12.46,7.404l-3.938-0.358c-5.373-1.293,0.597,0.475-4.294-1.928c-2.683-1.319-7.98-2.819-11.545-4.222c0.272-0.133,0.743-0.516,0.869-0.264l3.782-3.365l12.318,3.434c-0.185-0.481-0.62-1.035-0.775-0.786l-19.448-7.527C435.654,87.999,436.02,87.071,432.755,88.827L432.755,88.827z M86.044,163.818c-11.141-18.467-2.562-55.389-3.347-60.12c-5.042,7.182-0.609,13.638-5.614,18.783c-12.378-63.385,3.22-45.392,14.441-50.856l-3.059,45.201C87.92,124.449,87.559,158.914,86.044,163.818L86.044,163.818z M98.645,138.248c2.405-10.925,11.8-30.427,16.843-40.346c3.458-6.803,5.767-14.081,9.212-20.438l7.626-14.249c2.226-3.697,1.151-2.367,4.585-3.93l-19.576,39.326C113.746,104.256,102.071,136.545,98.645,138.248L98.645,138.248z M119.875,135.369l21.052-47.106c6.96-14.281,13.746-35.778,25.842-42.825c-2.206,3.819-4.549,5.651-6.776,9.276c-6.602,10.743-28.379,56.402-33.471,69.551l-4.529,8.563c-0.136,0.196-0.298,0.492-0.436,0.678L119.875,135.369L119.875,135.369z M132.198,137.293c0.747-4.861,7.969-17.495,11.138-24.721c2.133-4.865,3.083-8.862,5.3-13.304c2.097-4.201,3.833-7.783,6.143-12.483c6.001-12.21,18.464-39.976,29.238-46.214c-2.039,4.82-4.455,6.609-7.383,11.028c-2.451,3.699-4.697,7.91-6.956,11.678C160.357,78.82,138.982,129.959,132.198,137.293L132.198,137.293z M30.215,135.339c-1.09-0.752-0.24,0.595-2.216-2.11c-1.236-1.692-0.561-0.775-1.547-2.836c-4.729-9.884-3.333-16.307-8.051-21.075c-0.855,5.026,2.816,15.367,4.113,20.663c2.737,11.174,3.516,61.128,1.98,72.979l-10.21-86.698c-0.801-6.274-3.748-14.615-1.689-20.864c1.394-4.231,2.583-0.488,1.736-8.557c-1.516-14.439-2.077-17.901-0.469-33.727l4.017-17.97c3.884-6.358,10.232-0.964,13.486,0.421c6.876,2.927,3.16-1.31,11.916,4.515c12.008,7.987,22.884,3.285,26.234,5.352c-2.083,2.68-2.537,1.185-8.883,3.028c-4.828,1.403-4.217,1.231-9.375-0.967c-3.769-1.607-13.437-7.266-17.28-5.352c1.247,7.285,21.126,11.459,22.628,22.828c-6.164-1.897-10.535-4.338-16.116-7.896c-4.017-2.561-1.467-2.503-5.588-2.529c-0.095,5.671,1.199,4.444,6.58,10.347c3.656,4.011,6.754,4.465,9.173,8.711l-9.848-3.783c1.344,9.551,9.281,20.361,18.131,22.021c-3.776-8.333-8.933-4.269-10.47-13.436l6.143,0.9c0.299,0.001,0.603-0.006,0.882-0.028c2.691-0.204,1.144,0.086,2.554-0.663c1.713-7.221-8.138-8.574-11.908-14.806c3.643,1.651,11.816,8.253,15.405,4.182c1.363-1.372,2.148,0.578,0.857-4.116c-0.469-1.708-2.201-3.787-3.187-4.651c-4.494-3.935-4.409-0.401-7.256-7.276c8.503,1.917,5.418,4.267,15.8,1.351c3.859-1.084,4.228-0.299,6.078-0.813c3.363-0.934,1.439-1.967,5.774-3.558c-6.296,16.811-13.825,27.261-15.254,48.03c-0.561,8.156,0.923,21.631,1.647,30.197c1.684,19.92,10.739,53.942,14.438,81.953l5.878,58.842c-2.201-2.365-2.771-4.475-3.803-8.291L66.86,186.389c-4.73-27.611-8.642-36.751-9.349-66.372c-0.097-4.056,1.482-9.322-0.046-12.997c-1.891-4.547-3.505,0.507-6.808,2.435c-0.778-2.132-14.853-30.587-16.026-31.979c-0.004,0.005-1.94,0.062-0.034,5.083c0.72,1.896,1.76,3.779,2.744,6.231c10.927,27.204,17.957,20.195,15.434,35.135c-4.804-4.591-5.898-8.021-9.393-14.801c-2.064-4.003-2.487-3.979-4.574-4.805c1.079,4.319,5.01,11.558,7.431,16.167c2.711,5.161,7.157,10.011,7.557,16.048c-5.924-4.253-17.507-27.28-20.314-32.894L22.498,75.122c-1.192-4.506-1.193-6.815-4.44-8.716c-2.448,11.49,1.065,14.981,5.326,23.182l21.085,40.315c3.673,6.224,10.049,12.963,10.838,21.095c-4.884-2.445-8.002-9.358-10.592-13.693c-3.3-5.523-6.347-10.048-9.237-15.934c-3.373-6.869-12.54-29.017-16.051-33.098c-1.1,6.568,3.329,15.585,6.684,22.697c8.345,17.687,31.533,48.561,31.455,57.239c-9.713-6.743-24.937-40.598-30.884-51.177l-1.911-2.537C23.041,119.351,29.629,129.817,30.215,135.339L30.215,135.339z M127.611,132.49c0.697-4.737,25.763-58.358,28.241-62.17c2.073-3.189,1.547-1.634,3.242-5.486c3.897-8.854,11.884-24.064,20.615-25.365c-10.155,9.995-8.972,8.589-15.094,19.831c-1.959,3.597-4.438,7.125-6.265,11.276l-17.761,37.033C137.821,113.608,133.077,128.214,127.611,132.49L127.611,132.49z M136.114,140.39l31.419-64.971c8.337-16.906,7.786-14.512,16.173-27.674c2.945-4.622,10.909-15.02,16.808-14.848c-8.208,3.986-21.966,25.599-26.701,35.584c-1.371,2.891-2.452,4.517-3.827,7.114l-16.903,36.848c-2.661,7.283-7.032,9.145-9.436,15.8c-0.094,0.259-0.159,0.57-0.247,0.833C141.91,133.543,140.493,137.492,136.114,140.39L136.114,140.39z M192.245,58.579c2.2-11.097,24.066-29.904,32.212-33.202c-0.186,0.258-0.421,0.6-0.565,0.771l-24.309,24.306c-4.708,4.581-2.113,3.705-5.294,6.736C193.182,58.244,193.338,57.852,192.245,58.579L192.245,58.579z M202.306,54.341c1.704-3.697,4.016-6.173,6.04-9.342c3.282-5.138,3.787-4.065,7.962-7.418c5.628-4.52,8.721-10.745,17.072-13.462c-2.383,4.195-3.681,3.783-8.227,8.063L202.306,54.341L202.306,54.341z M247.219,51.943c0.245-0.107,0.588-0.247,0.736-0.32c0.148-0.075,0.547-0.238,0.726-0.334c5.791-3.11,7.788-8.292,17.494-11.745c-2.989,6.209-5.18,4.441-6.914,8.775c1.694-0.645,7.806-5.105,10.333-6.728c8.755-5.622,2.798-5.916,10.4-7.118c10.733-1.697,20.52,1.052,30.126,3.833c5.479,1.586,7.295,2.955,13.811,3.656c17.23,1.854,27.143,4.564,43.242,7.259c11.696,1.958,19.979,1.364,30.225,2.708c6.572,0.862,26.878,5.976,33.018,9.599c2.265,1.336,3.389,1.861,5.599,3.203c7.061,4.288,2.092,4.193,11.556,4.827c4.199,0.281,10.047,1.86,14.894,2.77c4.553,0.854,8.631,1.789,11.639,5.321c-15.799-3.972-42.478-12.593-45.208,7.386c-2.088,15.279,23.273,24.62,36.175,23.819c11.504-0.714,14.067-14.986,16.013-19.965l1.579-3.142c6.417,23.972-21.189,31.448-33.794,28.503c-11.322-2.644,0.096-1.024-8.924,0.485c-1.551-3.29,1.081-0.666,0-3.459c-10.174,1.503,5.056,4.575-8.005,3.121c3.122-5.184,3.638-2.5,5.751-6.653c-9.611,1.341-6.97,6.124-12.324,5.072c2.832-4.767,6.26-2.89,8.764-8.02c-9.47-0.389-8.751,10.233-16.432,5.356c4.081-1.369,8.933-3.011,9.654-7.207c-5.527,0.1-3.251,2.927-9.585,4.182c1.567-2.084,2.455-3.052,3.966-6.233c-6.354,2.421-6.164,5.102-11.84,6.165c3.481-5.318,6.772-4.385,9.717-10.826c-7.133,1.284-9.546,7.381-16.891,9.128l-4.194-2.891c1.617-6.229,8.466-4.533,8.982-10.705l-10.554,4.463l5.886-5.822c-0.231-0.178-0.645-0.28-0.797-0.357c-5.524-2.792-0.976-0.46-2.628-4.032c-3.785,0.685-3.401,1.022-6.024,2.893l-1.644-3.924l-3.282,4.661c-1.49-3.242-2.679-7.133-2.268-12.449c0.998-12.908,0.906-8.876-1.798-9.489l-1.553,16.115l-5.785,3.291c0.475,0.82,1.526,3.032,1.608,3.153c-2.949,1.078-2.556,1.305-5.546,2.6l-0.951-4.176c-0.017-0.292-0.05-0.432-0.145-0.622c-4.07,5.059-5.234,8.722-9.586,10.145c1.179-5.219,1.272-2.963,3.481-6.368c3.335-5.143,0.482-5.794,0.217-6.103c-1.358,2.108-1.751,3.624-3.553,6.197c-2.262,3.23-2.382,2.321-4.527,4.772c1.237-4.764,4.311-7.594,2.675-10.151c-5.212,2.555-6.214,10.472-11.712,12.888c1.55-5.187,3.18-4.884,3.56-11.443c-4.795,2.539-5.645,8.465-10.319,11.875l3.747-10.915c-6.308,2.778-1.221,4.01-10.415,11.091l4.937-14.381c-2.931,1.996-3.569,4.224-5.286,7.384c-2.042,3.757-2.656,4.699-6.552,6.184c1.691-4.07,5.222-7.69,2.802-11.103c-3.721,5.532-2.723,9.669-9.17,11.582c2.647-7.754,3.575-5.458,1.022-8.701c-1.005,3.416-1.064,4.53-3.902,6.13c-2.164-3.092,0.116-4.187,0.414-6.823c0.327-2.899,0.789-0.105-0.83-2.043l-5.823,6.256c-0.269-0.041-0.618-0.111-0.912-0.147l-3.43-0.131c-8.047-0.283-4.332-3.999-14.549-5.99c1.902,3.121,11.071,8.97,15.267,10.866c7.075,3.198,16.2,2.211,20.785,5.522l-1.535,0.894c-5.245,2.01,5.046-0.799-1.772,0.596c-16.31,3.337-42.092-14.855-45.548-15.342c2.787,5.74,2.296,4.63,8.267,7.35c4.84,2.206,1.856,0.901,5.348,3.429l4.251,2.868c0.128-0.223,0.517,0.346,0.715,0.795l-19.129-3.269c1.535,2.501-0.188,0.413,1.709,2.099l5.454,2.359c3.038,0.589,6.64,0.715,9.89,1.029c-8.31,2.174-21.301-3.024-24.242-1.713c4.615,4.834,15.947,4.04,23.895,4.661c-6.529,3.194-18.526,1.394-26.697,1.783c-0.069,10.388-6.987,21.509-10.553,28.763c-1.497,3.045-2.029,6.085-5.425,7.61c2.356-7.6,14.286-28.461,14.065-35.898c-4.74,1.691-6.134,11.726-10.859,21.721c-0.585,1.237-0.923,2.197-1.873,3.589l-2.878,3.07c1.075-4.225,10.817-26.28,9.033-29.543c-3.547,1.553-4.969,8.717-5.83,12.763c-1.738,8.16-13.082,28.836-19.429,34.262c0.866-3.913,21.9-39.399,18.686-46.065c-4.42,2.345-3.94,9.931-5.601,14.003c-1.656,4.061-4.825,9.972-6.641,13.131c-4.388,7.634-9.575,19.249-15.207,23.044c4.253-8.629,9.108-15.727,13.265-25.059l7.594-21.022c1.779-6.586,0.026-6.075,0.018-6.087c-1.516,1.783-4.623,12.429-5.813,15.788c-2.29,6.462-18.111,36.282-23.965,38.647c1.262-4.199,4.758-6.451,7.326-11.451c3.822-7.443,14.441-31.707,15.541-37.705c-5.107,3.567-22.462,47.618-32.046,52.035c4.04-8.162,8.065-12.485,12.412-22.828c3.194-7.6,9.913-17.975,10.735-24.478c-2.961,2.78-9.292,15.915-13.338,22.975c-5.046,8.806-10.24,14.688-14.191,22.202c-0.016-5.096,15.68-27.628,18.622-38.659c-4.446,3.139-5.019,7.188-7.233,11.497c-1.999,3.89-4.628,6.968-6.949,10.547c-6.457,9.954-8.637,17.638-15.115,20.453c4.852-7.719,19.264-28.178,20.128-37.223c-3.514,2.543-7.936,11.122-10.949,15.232c-1.985,2.707-3.311,4.708-5.404,7.732l8.724-18.69c0.968-3.571,1.061-0.894-0.112-3.62c-0.93,0.879-0.462,0.35-1.602,1.881c-5.783,7.768-18.431,32.581-32.625,40.104l14.75-18.447c4.255-6.29,9.794-13.396,12.151-21.581c-4.661,2.387-4.871,5.937-8.151,10.225c-4.16,5.439-19.216,25.684-24.297,27.678c7.653-11.64,18.766-22.411,22.85-31.475c0.422-0.937,0.825-2.293,0.884-2.978c0.168-1.937,0.198-0.934-0.392-2.218c-3.295,2.157-17.372,24.708-25.465,30.983c5.026-10.135,17.533-22.666,18.006-30.368c-3.983,0.996-0.422-0.842-3.284,2.155c-1.829,1.915-8.926,14.732-14.042,18.004c2.254-3.077,3.716-7.021,6.025-10.684c2.356-3.737,6.104-6.87,4.25-10.019c-1.998,0.246-6.908,7.302-8.751,9.885c-3.32,4.657-3.922,8.286-9.397,11.566c2.228-7.768,16.654-20.142,12.94-25.261c-6.378,5.251-9.563,17.177-18.144,21.354c1.867-4.071,5.954-8.239,9.203-13.056c2.861-4.242,8.33-10.189,5.111-14.639c-2.928,3.099-2.962,4.354-5.196,7.974l-6.717,8.41c1.709-6.214,8.943-11.83,8.764-17.617c-5.762,0.302-7.71,12.348-15.268,17.275c2.309-6.782,7.599-12.212,9.936-18.98c2.257-6.536,6.015-14.554,6.837-21.739c-3.428,3.005-8.835,16.311-11.278,21.628c-2.614,5.69-8.267,16.264-12.822,19.228l29.864-62.506c1.871-3.12,2.984-4.345,4.368-7.677c5.492-13.225,3.431-8.123,12.747-21.233c1.883-2.65,3.275-4.639,4.993-7.055c2.952-4.152,13.159-13.317,18.681-14.493c-18.934,13.968-33.525,34.965-40.053,58.333l3.327-3.844c5.168-7.411,10.378-19.867,16.329-25.17c-1.941,6.264-7.252,14.162-8.57,20.038c4.38-3.322,12.009-20.094,16.942-21.453l-5.714,14.256c4.676-2.391,10.454-12.583,14.997-17.21l12.004-13.22c8.818-7.832,10.019-11.503,21.868-18.672c6.637-4.015,40.972-16.661,47.219-17.625c8.103-1.249,22.911-0.219,31.737-0.576c18.764-0.758,84.849,3.626,93.846,2.614c8.974-1.01,20.617,0.342,29.116,2.245c7.936,1.777,20.04,1.904,29.177,3.571c21.108,3.85,31.156,9.536,53.823,11.194c9.248,0.677,19.47,2.464,28.466,4.291c6.289,1.278,7.214,2.11,12.022,4.221c10.617,4.661,27.599,8.248,25.254,23.051c-0.148,0.06-0.414,0.023-0.478,0.035c-0.068,0.014-0.416,0.045-0.502,0.068c-2.988,0.782-4.415,4.325-6.718,6.508c-1.427-3.998,2.809-0.963-1.096-4.97c-3.131,2.083-3.374,3.167-4.724,6.792c-2.107-3.137,0.489-1.192-2.944-4.015c-8.244,4.038-0.634,0.707-6.788,0.893c-3.577,0.109-2.011,1.06-4.375,4.15c-0.237-0.817-0.321-2.083-0.609-2.881c-1.008-2.794,0.426-0.4-1.373-2.638c-2.859,2.045-1.137,1.122-3.564,3.188c-1.098-4.763,0.679-2.049-2.297-4.562l-3.997,2.809c-2.716-4.159,1.48-0.238-1.945-2.386c-2.9-1.819-3.195,0.048-6.819-3.131c-3.327,1.344-1.146,0.212-4.382,3.496l-2.191-5.996c-3.484,1.423-3.13,3.534-6.637,5.925c0.137-0.631,0.794-3.43,0.8-3.6c0.092-2.853,0.201-1.724-0.731-3.319c-2.948-0.499-2.458,0.264-3.912,2.467c-2.321-2.569-0.098,0.811-1.148-2.629c-0.234-0.768,0.802,0.256-0.422-2.312c-7.744,1.002-0.173,2.387-7.326,2.811c3.296-7.05,0.539-2.111-0.798-9.327c-0.944-5.094,1.401-6.879-1.734-11.236c-5.09,1.287-2.916,3.745-3.999,9.688c-1.243,6.819-0.039,1.354-2.571,5.438c-1.299,2.095-1.199,2.339-1.924,4.546l-1.016-7.094c-0.028-0.401-0.168-0.545-0.349-0.755c-4.314,4.022-2.347,10.148-8.353,10.527c0.304-3.285,3.078-4.809,3.381-8.486c0.258-3.143,0.678-0.203-0.505-2.005c-4.226,2.576-2.768,7.983-8.272,10.121l3.205-10.187c-5.636,1.83-4.39,7.558-10.675,10.483c1.216-3.254,3.541-6.882,2.738-9.391c-1.145-0.424,0.16-0.704-1.632,0.056l-8.779,11.329c0.249-3.954,3.129-5.64,3.348-9.47c0.015-0.259-0.019-0.624-0.026-0.858l-0.72-2.526c-3.282,2.174-8.978,12.342-11.434,15.116c0.119-6.308,4.876-10.524,5.551-15.43c-5.896-0.415-4.208,4.1-7.551,8.122l-1.56,1.701c-1.232,1.362-0.795,1.228-2.324,2.522c0.806-4.867,5.15-8.34,3.012-13.578c-4.79,2.038-2.714,7.191-7.873,10.424c-1.441-5.168,2.978-3.414,0.269-8.265c-4.031,1.033-1.881,0.539-4.179,3.252c-1.071,1.266-2.159,2.617-3.69,3.98c0.662-5.265,4.143-6.622,2.392-10.523c-3.219,1.388-4.55,6.292-8.093,8.402l3.579-8.505c-6.903,0.091-5.022,2.686-8.426,6.581c1.646-4.942,3.744-4.842,1.443-10.558c-1.369,2.038-4.246,4.699-6.097,7.087c-2.252,2.905-3.039,4.784-6.296,7.245c0.975-7.346,8.5-5.386,7.326-20.364c-5.416,3.122-3.491,12.491-12.804,17.074c1.324-4.352,14.697-20.813,9.65-25.711c-1.128,0.867-0.444,0.03-1.513,1.65l-2.161,5.5c-2.151,6.292-7.02,16.035-13.511,17.733c2.942-6.85,8.358-9.807,9.453-18.509c-7.045,3.828-7.694,15.043-14.794,16.315c1.561-3.126,2.229-4.075,4.175-7.221c5.992-9.682,0.918-9.585-2.755-1.641c-2.475,5.352-1.055,5.487-6.824,7.284c1.794-4.983,3.948-4.769,3.696-10.008c-5.58,2.238-3.927,9.951-10.48,10.356c0.706-3.321,2.821-4.428,3.276-7.731c0.231-1.674,0.013-1.42-0.258-2.145c-2.823,0.284-4.651,6.505-9.727,8.916c0.416-5.105,1.991-4.013,2.949-8.368c-8.408,1.037-2.653,3.897-9.996,7.472c0.779-3.705,2.244-4.849,3.423-8.843c-5.78,1.238-3.611,5.551-11.159,8.98c1.509-3.51,2.509-3.411,2.533-7.678c-3.185,1.394-4.923,4.087-7.941,5.895c1.434-3.519,3.156-5.688,3.012-9.872c-2.501,0.865-3.395,4.315-7.633,6.92l1.078-6.051l-4.404,1.394c0.48-3.952,1.663-2.711-0.547-5.725c-6.632,2.819-1.173,10.283-4.382,15.287c-5.033-4.24-0.258-10.951-8.494-11.55c1.86,4.82,2.499,3.445,3.56,10.351c-15.011-6.045-8.213-11.142-17.111-14.871c1.029,6.7,2.84,5.881,4.245,11.105c-5.638-1.803-6.275-6.765-11.091-8.638c-1.106,3.49-0.229,3.882,2.122,6.101c-2.381,1.405-2.583,2.734-3.903,4.696c-10.951-2.207-20.491-5.345-30.932-7.122c-21.325-3.629-20.11-1.578-34.173,1.119c1.495-2.492,0.164-0.346,1.755-2.1c0.228-0.252,0.965-0.962,1.186-1.201c2.075-2.238,0.222,0.986,2.088-2.452c-4.427-2.17-15.694,7.017-23.515,9.112c4.281-4.328,11.112-6.152,13.962-11.443c-6.288,1.358-9.512,4.546-14.136,7.311c-12.013,7.184-22.712,16.447-29.202,30.666c7.222-4.096,9.979-13.109,18.481-15.694c-2.361,1.807-8.072,9.908-9.79,14.19c7.448-4.127,13.445-15.333,22.593-17.96l-4.177,4.314c-3.613,3.119-7.796,6.98-9.584,11.178c4.146-2.337,19.809-17.696,25.127-19.199C255.728,44.012,250.581,44.735,247.219,51.943L247.219,51.943z M452.55,63.539c22.8-1.232,47.158-0.506,68.97,4.45c13.398,3.044,58.943,6.91,67.165,3.487c10.513-4.377,13.286-14.393,10.025-23.838c-1.801-5.214-11.56-14.402-19.39-17.817c-18.911-8.248-40.113-8.584-60.816-12.488C456.559,5.653,449.849,3.071,387.217,1.989c-26.793-0.463-93.378-5.547-115.127,2.607l-27.334,9.821c-24.646,5.046-82.349,22.466-100.902,32.96l-33.076,15.973c-10.33-26.508-16.097-22.321-45.58-25.122c-17.892-1.699-45.951-22.692-52.794-8.452C2.701,49.964,7.297,70.364,4.269,92.99c-6.206,46.378-5.834,52.871,2.356,97.712c2.036,11.148,4.932,16.228,6.274,28.845c0.984,9.253,3.28,22.256,5.347,30.904c1.353,5.663,4.263,7.405,6.287,11.363c1.721,3.364,2.886,9.111,4.472,13.057c2.151,5.356,3.104,8.176,9.955,8.403c14.331,0.474,9.755-4.949,49.105-0.665c11.134,1.212,21.136,3.614,31.144-1.079c8.966-4.206,12.81-17.194,15.107-20.293c9.943,4.473,9.998,4.952,21.618,8.226c19.697,5.549,51.794,12.737,71.576,13.771c22.892,1.197,61.63,3.079,84.293,2.722l50.539-7.868c16.085-2.656,18.936-9.098,25.422-17.267c1.083-1.364,2.035-2.651,3.451-4.206c15.656-17.204,11.164-24.69,8.912-36.465c-1.69-8.835,8.945-6.594,18.907-22.349c6.401-10.123,9.789-21.004,8.079-33.414c-0.799-5.802-2.391-5.765-3.926-10.368c2.512-5.028,8.854-9.329,14.064-14.75c3.91-4.069,8.876-12.862,9.171-19.534c9.254,0.932,21.934-1.976,27.895-5.875c5.786-3.785,11.399-10.995,12.686-20.29C490.703,66.851,455.209,71.537,452.55,63.539L452.55,63.539z"/><path fill-rule="evenodd" clip-rule="evenodd" fill="#2B2B2B" d="M204.424,68.536c4.429-1.949,3.973-2.637,6.029-6.079c2.843-4.76,8.767-9.453,11.534-12.593l11.097-13.023c4.068-4.955,18.598-9.573,20.365-15.2c-4.762,0.542-11.9,5.43-15.643,7.86c-2.39,1.551-12.356,8.662-13.973,10.152C218.93,44.17,206.275,62.779,204.424,68.536L204.424,68.536z"/><path fill-rule="evenodd" clip-rule="evenodd" fill="#2B2B2B" d="M36.758,97.949c0.123-2.308-6.912-27.162-10.69-30.24C22.113,74.858,34.305,96.397,36.758,97.949L36.758,97.949z"/><path fill-rule="evenodd" clip-rule="evenodd" fill="#2B2B2B" d="M267.549,47.832c5.855-2.465,10.164-6.031,14.314-10.077c-2.864-1.536-5.897,0.814-7.925,2.698L267.549,47.832L267.549,47.832z"/><path fill-rule="evenodd" clip-rule="evenodd" fill="#2B2B2B" d="M399.682,102.747c7.065-0.315,10.305-3.369,12.607-8.028C410.827,94.986,400.974,99.871,399.682,102.747L399.682,102.747z"/><path fill-rule="evenodd" clip-rule="evenodd" fill="#2B2B2B" d="M366.751,258.908c4.415-0.224,5.044-3.512,7.061-6.865C370.396,252.026,367.262,254.891,366.751,258.908L366.751,258.908z"/><path fill-rule="evenodd" clip-rule="evenodd" fill="#2B2B2B" d="M302.393,79.842c3.537,5.756,0.668,3.015,6.788,6.933C309.17,82.356,306.19,79.919,302.393,79.842L302.393,79.842z"/><path fill-rule="evenodd" clip-rule="evenodd" fill="#2B2B2B" d="M373.529,258.085c4.676-0.16,4.758-2.211,6.308-6.316C375.923,253.448,375.721,254.85,373.529,258.085L373.529,258.085z"/><path fill-rule="evenodd" clip-rule="evenodd" fill="#2B2B2B" d="M434.228,86.016c0.907,0.613,0.961,3.616,6.264-0.411C431.054,82.889,436.137,84.657,434.228,86.016L434.228,86.016z"/><path fill-rule="evenodd" clip-rule="evenodd" fill="#2B2B2B" d="M311.705,91.573c2.619-1.074,4.165,0.926,2.264-3.332C311.324,89.582,312.541,86.804,311.705,91.573L311.705,91.573z"/></g></svg>
