<svg version="1.1" xmlns="http://www.w3.org/2000/svg" x="0px" y="0px" viewBox="0 0 200 96" width="200px" height="96px" enable-background="new 0 0 200 96"><rect id="XMLID_162_" x="0" y="0" fill="none" width="200" height="96"/><g><path id="XMLID_161_" fill="#2B2B2B" d="M76.957,80.363c1.219-0.501,1.966-2.565,2.371-3.758c-1.429,0.571-0.768-0.121-1.649,1.671C77.192,79.264,77.079,79.163,76.957,80.363L76.957,80.363z"/><path id="XMLID_160_" fill="#2B2B2B" d="M96.104,14.933c1.404-0.364,1.626-0.614,2.293-1.813C96.815,13.38,96.917,13.566,96.104,14.933L96.104,14.933z"/><path id="XMLID_159_" fill="#2B2B2B" d="M94.616,14.146c1.262-0.453,1.093-0.223,1.796-1.523C95.137,12.873,94.97,12.905,94.616,14.146L94.616,14.146z"/><path id="XMLID_158_" fill="#2B2B2B" d="M82.406,17.435c-0.92,0.418-0.67,0.118-1.145,1.233C82.17,18.151,81.955,18.413,82.406,17.435L82.406,17.435z"/><path id="XMLID_157_" fill="#DEDEDE" d="M111.229,85.557c2.779-2.72,2.598-5.011,3.051-6.102c0.23-0.555,1.777-1.729,2.061-3.38c-3.283,1.133-3.297,8.921-6.833,9.1c0.483-1.284,0.746-0.822,1.573-1.976c0.605-0.844,2.966-6.119,2.914-7.045c-2.139,1.684-2.696,5.324-5.739,9.47L111.229,85.557L111.229,85.557z"/><path id="XMLID_156_" fill="#DEDEDE" d="M64.082,19.663c0.365-0.244,0.312-0.112,0.681-0.467c1.06-1.018,0.195-0.723,1.765-2.261l8.103-8.159c0.048-0.057,0.126-0.172,0.188-0.259C72.104,9.625,64.815,15.938,64.082,19.663L64.082,19.663z"/><path id="XMLID_155_" fill="#DEDEDE" d="M109.115,65.925c-0.153-0.267-1.15,0.77-0.139-1.75c0.242-0.602,1.349-1.853,1.811-4.008c-1.066,0.698-0.922,1.196-1.998,2.333l-0.638,0.613c0.036,2.099,0.145,3.161-0.131,5.077c1.372-1.511,3.638-5.603,4.029-6.865c0.438-1.412,0.051-0.696-0.011-0.948C110.617,60.654,109.639,64.307,109.115,65.925L109.115,65.925z"/><path id="XMLID_154_" fill="#DEDEDE" d="M95.554,59.85c1.002,0.918,9.256,2.466,10.851,2.473c-0.079-0.973-0.008-0.703-0.449-1.336l-0.569,1.072C103.226,60.89,98.881,59.29,95.554,59.85L95.554,59.85z"/><path id="XMLID_153_" fill="#DEDEDE" d="M38.199,85.688l-4.226-6.956c-0.086,1.475,0.952,2.917,1.56,3.983l1.831,3.54c0.435,0.052,1.185,0.196,1.589,0.168c1.756-0.124,0.848-0.218,1.316-0.495l-0.868-0.91c-0.08,0.022-0.372,0.157-0.453,0.194C38.928,85.222,38.426,85.577,38.199,85.688L38.199,85.688z"/><path id="XMLID_152_" fill="#DEDEDE" d="M84.998,49.872c-1.096,0.25-0.373-0.198-1.081,0.816c-0.073,0.105-0.428,0.801-0.649,1.178c-0.522,0.887-0.782,1.606-1.248,2.425c-0.885,1.555-2.194,2.345-2.743,3.852c1.547-0.775,1.886-1.347,3.524-3.458C83.524,53.753,84.763,51.274,84.998,49.872L84.998,49.872z"/><path id="XMLID_151_" fill="#DEDEDE" d="M92.842,41.521c0.285-1.084,0.434-1.021,0.608-1.582c0.528-1.706,0.07-0.852-0.114-1.231c-0.573,0.536-0.578,0.279-0.963,1.713c-0.22,0.821-0.324,1.093-0.29,1.864c1.5,0.183,4.971-1.88,4.775-3.71L92.842,41.521L92.842,41.521z"/><path id="XMLID_150_" fill="#DEDEDE" d="M120.357,54.04c1.597-0.457,4.06-2.661,5.365-3.931l1.338-1.855C125.917,48.68,121.168,52.718,120.357,54.04L120.357,54.04z"/><path id="XMLID_149_" fill="#DEDEDE" d="M90.702,90.935c1.963-0.684,5.262-4.605,5.4-6.732c-0.86,0.092-0.469-0.23-1.495,1.554C91.672,90.861,91.782,88.878,90.702,90.935L90.702,90.935z"/><path id="XMLID_148_" fill="#DEDEDE" d="M50.249,66.478c2.758-0.611,1.51-0.509,2.972-1.828c1.113-1.004,1.958-0.953,2.061-2.486C53.666,62.761,51.517,65.33,50.249,66.478L50.249,66.478z"/><path id="XMLID_147_" fill="#DEDEDE" d="M94.562,59.168c1.823-0.822,3.262-1.696,5.426-2.235C98.464,55.908,95.544,57.35,94.562,59.168L94.562,59.168z"/><path id="XMLID_146_" fill="#DEDEDE" d="M40.441,73.369c0.479-0.218,3.73-2.738,4.228-3.262c-1.093-0.054-2.181,0.518-2.844,1.074C41.103,71.788,40.638,72.48,40.441,73.369L40.441,73.369z"/><path id="XMLID_145_" fill="#DEDEDE" d="M40.728,66.822c0.951-0.494,1.394-0.906,1.975-1.764c0.52-0.767,0.905-1.272,1.21-2.184C43.154,63.318,41.21,65.625,40.728,66.822L40.728,66.822z"/><path id="XMLID_144_" fill="#DEDEDE" d="M118.766,46.65c0.758-0.31,1.219-0.524,1.858-0.963c1.201-0.827,0.734,0.16,0.674-1.194C119.938,44.942,119.406,45.258,118.766,46.65L118.766,46.65z"/><path id="XMLID_143_" fill="#DEDEDE" d="M113.575,93.564c1.171-0.077,2.31-1.442,2.584-2.289C115.141,91.675,114,92.791,113.575,93.564L113.575,93.564z"/><path id="XMLID_142_" fill="#DEDEDE" d="M108.878,60.676c0.327-0.743,0.231-0.491,0.317-1.037c-1.355,0.373-1.547,1.263-1.331,2.526L108.878,60.676L108.878,60.676z"/><path id="XMLID_141_" fill="#DEDEDE" d="M105.699,70.369c0.146,0.095-0.389,1.325,0.909-0.101c0.445-0.489,0.49-0.945,0.631-1.294C106.416,69.368,105.679,69.839,105.699,70.369L105.699,70.369z"/><path fill="#FFFFFF" d="M133.227,34.489c0.431-0.965,3.715-2.605,4.202-2.695C136.662,33.358,135.582,34.383,133.227,34.489L133.227,34.489z M103.902,30.738c0.279-1.601-0.127-0.668,0.755-1.118C105.29,31.049,104.775,30.377,103.902,30.738L103.902,30.738z M100.798,26.8c1.266,0.026,2.259,0.844,2.263,2.327C101.02,27.812,101.977,28.732,100.798,26.8L100.798,26.8z M82.406,17.435c-0.452,0.978-0.236,0.716-1.145,1.233C81.736,17.553,81.486,17.853,82.406,17.435L82.406,17.435z M96.104,14.933c0.813-1.367,0.711-1.553,2.293-1.813C97.729,14.319,97.508,14.569,96.104,14.933L96.104,14.933z M94.616,14.146c0.354-1.241,0.522-1.273,1.796-1.523C95.708,13.923,95.877,13.693,94.616,14.146L94.616,14.146z M89.183,16.056l2.13-2.477c0.676-0.632,1.687-1.422,2.642-0.906C92.571,14.031,91.135,15.228,89.183,16.056L89.183,16.056z M68.141,23.005c0.617-1.932,4.835-8.179,6.47-9.695c0.539-0.5,3.861-2.887,4.658-3.408c1.248-0.815,3.627-2.456,5.214-2.638c-0.589,1.889-5.432,3.439-6.788,5.102l-3.699,4.371c-0.922,1.054-2.897,2.629-3.845,4.227C69.466,22.12,69.618,22.351,68.141,23.005L68.141,23.005z M64.082,19.663c-1.984,1.78-3.721,5.961-5.443,8.449l-1.109,1.29c2.176-7.844,7.04-14.892,13.351-19.58c-1.841,0.395-5.243,3.471-6.227,4.865c-0.573,0.811-1.036,1.479-1.664,2.368c-3.105,4.401-2.418,2.688-4.249,7.127c-0.461,1.119-0.832,1.53-1.456,2.577L47.33,47.74c1.518-0.995,3.403-4.544,4.274-6.454c0.814-1.785,2.617-6.251,3.759-7.26c-0.274,2.412-1.527,5.103-2.279,7.297c-0.779,2.272-2.543,4.094-3.312,6.371c2.519-1.654,3.169-5.697,5.089-5.799c0.06,1.942-2.352,3.828-2.921,5.913l2.239-2.823c0.745-1.215,0.756-1.636,1.732-2.677c1.073,1.494-0.75,3.49-1.704,4.914c-1.083,1.617-2.445,3.016-3.068,4.382c2.86-1.402,3.922-5.405,6.048-7.168c1.238,1.718-3.571,5.872-4.313,8.479c1.825-1.101,2.026-2.319,3.132-3.882c0.614-0.867,2.251-3.235,2.917-3.318c0.618,1.057-0.631,2.109-1.417,3.363c-0.77,1.23-1.257,2.553-2.008,3.586c1.705-1.098,4.071-5.4,4.681-6.043c0.954-1.006-0.233-0.389,1.095-0.723c-0.158,2.586-4.327,6.792-6.002,10.193c2.698-2.106,7.39-9.676,8.488-10.4c0.197,0.431,0.187,0.095,0.131,0.745c-0.02,0.23-0.154,0.685-0.295,1c-1.361,3.043-5.065,6.658-7.617,10.565c1.694-0.669,6.712-7.465,8.099-9.291c1.093-1.439,1.163-2.631,2.717-3.432c-0.786,2.748-2.632,5.133-4.05,7.244l-4.917,6.192c4.731-2.525,8.947-10.854,10.875-13.461c0.38-0.514,0.224-0.336,0.534-0.631c0.391,0.915,0.36,0.016,0.037,1.215l-2.908,6.274c0.698-1.015,1.14-1.687,1.801-2.595c1.004-1.379,2.478-4.259,3.65-5.113c-0.288,3.036-5.092,9.903-6.709,12.494c2.159-0.945,2.886-3.524,5.038-6.865c0.774-1.201,1.65-2.235,2.316-3.54c0.738-1.446,0.929-2.805,2.411-3.859c-0.981,3.702-6.213,11.266-6.207,12.976c1.317-2.522,3.048-4.496,4.73-7.452c1.349-2.37,3.459-6.779,4.446-7.712c-0.274,2.183-2.513,5.665-3.578,8.216c-1.449,3.472-2.791,4.923-4.137,7.663c3.195-1.483,8.98-16.269,10.682-17.466c-0.367,2.013-3.906,10.158-5.18,12.656c-0.856,1.679-2.021,2.434-2.442,3.844c1.951-0.794,7.225-10.803,7.988-12.972c0.397-1.127,1.432-4.701,1.938-5.299c0.003,0.004,0.587-0.168-0.006,2.043l-2.531,7.056c-1.386,3.133-3.004,5.515-4.422,8.411c1.877-1.274,3.606-5.173,5.069-7.735c0.605-1.06,1.662-3.044,2.214-4.408c0.554-1.367,0.394-3.913,1.867-4.7c1.071,2.238-5.94,14.149-6.229,15.462c2.116-1.821,5.897-8.761,6.476-11.501c0.287-1.358,0.761-3.763,1.943-4.284c0.595,1.095-2.653,8.499-3.011,9.917l0.959-1.03c0.317-0.467,0.429-0.789,0.624-1.205c1.575-3.355,2.04-6.723,3.62-7.291c0.073,2.496-3.903,9.499-4.688,12.05c1.132-0.512,1.309-1.532,1.808-2.554c1.189-2.435,3.495-6.168,3.518-9.655c2.724-0.131,6.723,0.474,8.899-0.598c-2.649-0.208-6.427,0.058-7.965-1.565c0.981-0.44,5.311,1.305,8.081,0.575c-1.083-0.105-2.284-0.148-3.297-0.345l-1.818-0.792c-0.632-0.566-0.058,0.135-0.57-0.705l6.376,1.097c-0.066-0.151-0.196-0.342-0.238-0.267l-1.417-0.963c-1.164-0.849-0.169-0.411-1.783-1.151c-1.99-0.913-1.827-0.54-2.756-2.467c1.152,0.163,9.746,6.27,15.183,5.15c2.273-0.469-1.158,0.475,0.591-0.2l0.512-0.3c-1.528-1.111-4.57-0.78-6.928-1.854c-1.399-0.637-4.455-2.6-5.089-3.647c3.406,0.668,2.167,1.916,4.85,2.011l1.143,0.044c0.098,0.012,0.214,0.036,0.304,0.049l1.941-2.1c0.54,0.651,0.386-0.287,0.277,0.686c-0.099,0.885-0.859,1.252-0.138,2.29c0.946-0.537,0.966-0.911,1.301-2.058c0.851,1.088,0.541,0.318-0.341,2.921c2.149-0.642,1.816-2.031,3.057-3.888c0.807,1.146-0.37,2.361-0.934,3.727c1.299-0.499,1.504-0.815,2.184-2.076c0.572-1.061,0.785-1.809,1.762-2.479l-1.646,4.827c3.065-2.377,1.369-2.79,3.472-3.723l-1.249,3.664c1.558-1.145,1.841-3.134,3.44-3.986c-0.127,2.202-0.67,2.1-1.187,3.841c1.833-0.811,2.167-3.468,3.904-4.326c0.545,0.858-0.479,1.808-0.892,3.407c0.715-0.823,0.755-0.518,1.509-1.602c0.601-0.864,0.732-1.372,1.184-2.08c0.088,0.104,1.039,0.322-0.072,2.049c-0.736,1.143-0.767,0.386-1.16,2.138c1.45-0.478,1.839-1.707,3.195-3.405c0.031,0.064,0.042,0.111,0.048,0.209l0.317,1.402c0.997-0.435,0.866-0.511,1.849-0.873c-0.028-0.041-0.378-0.783-0.536-1.058l1.928-1.105l0.518-5.409c0.901,0.206,0.932-1.147,0.599,3.185c-0.137,1.784,0.259,3.09,0.756,4.179l1.094-1.565l0.548,1.317c0.874-0.628,0.747-0.741,2.008-0.971c0.551,1.199-0.965,0.417,0.876,1.353c0.051,0.026,0.189,0.06,0.266,0.12l-1.962,1.954l3.518-1.498c-0.172,2.072-2.455,1.502-2.994,3.593l1.398,0.97c2.448-0.586,3.253-2.633,5.63-3.064c-0.982,2.162-2.079,1.849-3.239,3.634c1.892-0.357,1.829-1.257,3.947-2.069c-0.504,1.068-0.8,1.393-1.322,2.092c2.112-0.421,1.353-1.37,3.195-1.404c-0.241,1.408-1.858,1.96-3.218,2.419c2.56,1.637,2.321-1.928,5.477-1.798c-0.835,1.722-1.977,1.092-2.921,2.692c1.785,0.353,0.904-1.252,4.108-1.702c-0.704,1.394-0.876,0.493-1.917,2.233c4.354,0.488-0.723-0.543,2.668-1.048c0.36,0.938-0.517,0.057,0,1.161c3.007-0.507-0.799-1.051,2.975-0.163c4.202,0.989,13.404-1.521,11.265-9.567l-0.526,1.055c-0.648,1.671-1.503,6.462-5.338,6.702c-4.301,0.269-12.754-2.867-12.058-7.995c0.91-6.706,9.803-3.812,15.069-2.479c-1.003-1.186-2.362-1.499-3.88-1.786c-1.616-0.305-3.565-0.835-4.965-0.93c-3.155-0.213-1.498-0.181-3.852-1.62c-0.737-0.451-1.112-0.627-1.866-1.075c-2.046-1.216-8.815-2.933-11.006-3.222c-3.415-0.451-6.176-0.252-10.075-0.909c-5.366-0.905-8.671-1.814-14.414-2.437c-2.172-0.235-2.777-0.695-4.604-1.227c-3.202-0.933-6.464-1.856-10.042-1.287c-2.534,0.403-0.549,0.502-3.467,2.389c-0.842,0.545-2.88,2.042-3.444,2.258c0.578-1.455,1.308-0.861,2.305-2.945c-3.235,1.159-3.901,2.899-5.831,3.942c-0.059,0.032-0.193,0.087-0.242,0.112c-0.049,0.025-0.164,0.071-0.245,0.107c1.121-2.419,2.836-2.662,3.923-4.256c-1.773,0.505-6.994,5.66-8.376,6.444c0.596-1.409,1.99-2.705,3.195-3.752l1.392-1.448c-3.049,0.881-5.048,4.643-7.531,6.029c0.573-1.437,2.476-4.157,3.263-4.763c-2.834,0.868-3.753,3.893-6.16,5.268c2.164-4.772,5.73-7.882,9.734-10.293c1.541-0.928,2.616-1.998,4.712-2.454c-0.95,1.776-3.227,2.388-4.654,3.841c2.607-0.704,6.362-3.787,7.838-3.059c-0.622,1.154-0.004,0.072-0.696,0.823c-0.074,0.08-0.32,0.319-0.395,0.403c-0.53,0.589-0.087-0.132-0.585,0.705c4.688-0.905,4.283-1.594,11.391-0.376c3.48,0.596,6.66,1.65,10.311,2.391c0.44-0.659,0.507-1.105,1.301-1.576c-0.784-0.745-1.076-0.876-0.707-2.048c1.605,0.628,1.818,2.294,3.697,2.899c-0.468-1.754-1.072-1.479-1.415-3.728c2.966,1.252,0.7,2.963,5.704,4.992c-0.354-2.318-0.567-1.857-1.187-3.474c2.745,0.201,1.154,2.454,2.831,3.877c1.069-1.68-0.75-4.185,1.461-5.131c0.737,1.012,0.342,0.595,0.182,1.922l1.468-0.468l-0.359,2.031c1.413-0.874,1.711-2.032,2.544-2.323c0.048,1.404-0.526,2.132-1.004,3.314c1.006-0.607,1.585-1.511,2.647-1.979c-0.008,1.432-0.341,1.399-0.844,2.577c2.516-1.151,1.793-2.599,3.72-3.014c-0.393,1.341-0.881,1.725-1.141,2.968c2.448-1.2,0.529-2.16,3.332-2.508c-0.319,1.461-0.844,1.095-0.983,2.809c1.692-0.809,2.301-2.897,3.242-2.993c0.091,0.243,0.163,0.158,0.086,0.72c-0.152,1.109-0.857,1.48-1.092,2.595c2.184-0.136,1.633-2.725,3.493-3.476c0.084,1.759-0.634,1.687-1.232,3.359c1.923-0.603,1.449-0.648,2.275-2.445c1.224-2.667,2.916-2.699,0.918,0.551c-0.649,1.056-0.871,1.375-1.392,2.424c2.366-0.427,2.583-4.192,4.931-5.476c-0.365,2.921-2.17,3.913-3.151,6.213c2.164-0.57,3.787-3.84,4.504-5.952l0.72-1.846c0.356-0.544,0.128-0.263,0.504-0.554c1.683,1.644-2.775,7.17-3.217,8.63c3.104-1.538,2.462-4.683,4.268-5.731c0.391,5.028-2.117,4.37-2.442,6.835c1.086-0.826,1.348-1.457,2.099-2.432c0.617-0.802,1.576-1.695,2.032-2.379c0.767,1.919,0.068,1.885-0.481,3.544c1.135-1.308,0.507-2.179,2.809-2.209l-1.193,2.855c1.181-0.708,1.625-2.354,2.698-2.82c0.584,1.309-0.577,1.765-0.797,3.532c0.51-0.458,0.873-0.911,1.23-1.336c0.766-0.911,0.049-0.745,1.393-1.092c0.903,1.628-0.57,1.04-0.09,2.774c1.72-1.086,1.028-2.815,2.624-3.499c0.713,1.758-0.736,2.924-1.004,4.558c0.51-0.435,0.364-0.389,0.775-0.847l0.52-0.571c1.114-1.35,0.552-2.866,2.517-2.726c-0.225,1.647-1.811,3.062-1.85,5.179c0.819-0.931,2.717-4.344,3.811-5.074l0.24,0.848c0.003,0.078,0.014,0.201,0.009,0.288c-0.073,1.286-1.033,1.852-1.116,3.179l2.926-3.803c0.597-0.255,0.162-0.161,0.544-0.019c0.268,0.842-0.507,2.06-0.913,3.152c2.095-0.982,1.68-2.904,3.558-3.519l-1.068,3.419c1.835-0.718,1.349-2.533,2.757-3.397c0.394,0.605,0.254-0.382,0.168,0.673c-0.101,1.234-1.026,1.746-1.127,2.848c2.002-0.128,1.346-2.183,2.784-3.534c0.06,0.07,0.107,0.119,0.116,0.253l0.339,2.381c0.242-0.741,0.208-0.823,0.641-1.526c0.844-1.371,0.443,0.464,0.857-1.825c0.361-1.995-0.364-2.82,1.333-3.252c1.045,1.463,0.263,2.062,0.578,3.772c0.446,2.422,1.365,0.765,0.266,3.131c2.384-0.142-0.139-0.607,2.442-0.944c0.408,0.862,0.063,0.518,0.141,0.776c0.35,1.155-0.391,0.02,0.383,0.882c0.485-0.739,0.321-0.996,1.304-0.828c0.311,0.535,0.275,0.156,0.244,1.114c-0.002,0.057-0.221,0.997-0.267,1.208c1.169-0.803,1.051-1.511,2.212-1.989l0.73,2.013c1.078-1.103,0.352-0.722,1.461-1.173c1.208,1.067,1.306,0.44,2.273,1.051c1.141,0.721-0.257-0.595,0.648,0.801l1.332-0.943c0.992,0.844,0.4-0.067,0.766,1.531c0.809-0.693,0.235-0.384,1.188-1.07c0.6,0.751,0.121-0.052,0.458,0.885c0.096,0.268,0.124,0.692,0.203,0.967c0.788-1.037,0.266-1.356,1.458-1.393c2.051-0.063-0.485,1.056,2.263-0.3c1.144,0.948,0.279,0.295,0.981,1.348c0.45-1.216,0.531-1.58,1.575-2.28c1.302,1.345-0.111,0.326,0.365,1.668c0.768-0.733,1.244-1.922,2.239-2.184c0.028-0.008,0.145-0.018,0.167-0.023c0.021-0.004,0.11,0.008,0.159-0.012c0.782-4.969-4.879-6.173-8.418-7.737c-1.603-0.709-1.911-0.988-4.007-1.417c-2.999-0.614-6.406-1.213-9.489-1.44c-7.556-0.557-10.905-2.465-17.941-3.757c-3.046-0.559-7.08-0.602-9.726-1.199c-2.833-0.639-6.714-1.092-9.705-0.754c-2.999,0.339-25.027-1.132-31.282-0.877c-2.942,0.12-7.878-0.226-10.579,0.193c-2.082,0.323-13.528,4.568-15.74,5.916c-3.95,2.406-4.35,3.639-7.289,6.268l-4.001,4.435c-1.514,1.553-3.44,4.974-4.999,5.777l1.905-4.785c-1.644,0.456-4.187,6.086-5.647,7.201C61.664,24.416,63.435,21.765,64.082,19.663L64.082,19.663z"/><path fill="#FFFFFF" d="M12.253,32.878c-0.818-0.521-4.882-7.75-3.563-10.15C9.949,23.76,12.294,32.103,12.253,32.878L12.253,32.878z M10.072,45.428c-0.195-1.854-2.391-5.367-1.814-6.997l0.637,0.852c1.982,3.551,7.057,14.915,10.295,17.178c0.026-2.913-7.703-13.276-10.485-19.213c-1.119-2.387-2.595-5.414-2.228-7.619c1.171,1.37,4.226,8.804,5.35,11.11c0.963,1.976,1.979,3.495,3.079,5.348c0.863,1.455,1.903,3.776,3.531,4.596c-0.263-2.73-2.388-4.992-3.613-7.081L7.795,30.072c-1.42-2.753-2.591-3.925-1.775-7.781c1.082,0.638,1.083,1.413,1.48,2.926l3.661,9.572c0.936,1.884,4.797,9.614,6.771,11.041c-0.133-2.027-1.615-3.654-2.519-5.387c-0.807-1.547-2.118-3.977-2.477-5.427c0.696,0.277,0.837,0.269,1.525,1.613c1.165,2.276,1.53,3.427,3.131,4.968c0.841-5.015-1.502-2.662-5.145-11.794c-0.328-0.823-0.675-1.455-0.915-2.092c-0.635-1.685,0.01-1.705,0.011-1.706c0.391,0.467,5.082,10.019,5.342,10.734c1.101-0.647,1.639-2.344,2.269-0.817c0.509,1.234-0.017,3.001,0.015,4.363c0.236,9.942,1.54,13.01,3.116,22.279l5.218,24.595c0.344,1.281,0.534,1.989,1.268,2.783l-1.959-19.751c-1.233-9.403-4.251-20.822-4.813-27.509c-0.241-2.875-0.736-7.398-0.549-10.136c0.476-6.971,2.986-10.479,5.085-16.122c-1.445,0.534-0.803,0.881-1.925,1.194c-0.616,0.173-0.739-0.091-2.026,0.273c-3.461,0.979-2.432,0.19-5.267-0.453c0.949,2.308,0.921,1.121,2.419,2.442c0.329,0.29,0.906,0.988,1.062,1.561c0.43,1.576,0.169,0.921-0.286,1.382c-1.196,1.366-3.921-0.85-5.135-1.404c1.256,2.092,4.54,2.546,3.969,4.97c-0.47,0.251,0.045,0.154-0.851,0.223c-0.093,0.007-0.194,0.009-0.294,0.009l-2.048-0.302c0.512,3.077,2.231,1.713,3.49,4.51c-2.95-0.557-5.596-4.186-6.044-7.392l3.283,1.27c-0.806-1.425-1.839-1.578-3.058-2.924c-1.793-1.981-2.225-1.57-2.193-3.473c1.374,0.009,0.524-0.011,1.863,0.849c1.861,1.194,3.317,2.014,5.372,2.65c-0.501-3.816-7.127-5.218-7.543-7.663c1.281-0.642,4.504,1.257,5.76,1.796c1.72,0.738,1.516,0.796,3.125,0.325c2.115-0.619,2.267-0.117,2.961-1.016c-1.117-0.694-4.742,0.884-8.745-1.796c-2.919-1.955-1.68-0.533-3.972-1.516C9.37,11.475,7.254,9.664,5.96,11.798L4.621,17.83c-0.536,5.313-0.349,6.474,0.156,11.321c0.282,2.708-0.114,1.452-0.579,2.872c-0.686,2.098,0.296,4.897,0.563,7.003l3.403,29.101c0.512-3.978,0.252-20.746-0.66-24.496c-0.432-1.778-1.656-5.249-1.371-6.936c1.573,1.6,1.107,3.756,2.684,7.074c0.329,0.692,0.104,0.384,0.516,0.952C9.992,45.628,9.708,45.176,10.072,45.428L10.072,45.428z"/><path fill="#FFFFFF" d="M76.957,80.363c0.122-1.2,0.236-1.099,0.722-2.087c0.881-1.792,0.22-1.1,1.649-1.671C78.923,77.798,78.176,79.862,76.957,80.363L76.957,80.363z M57.929,71.591c-1.065,2.771-7.324,6.667-7.701,8.823c2.72-0.248,3.027-2.293,5.386-3.199c-0.616,2.532-5.617,4.553-7.487,6.466c4.805-0.74,7.916-4.855,10.293-5.682c-0.86,1.836-3.674,3.624-5.442,4.796c-0.799,0.529-1.296,0.7-1.996,1.278c3.63-0.693,6.506-2.727,9.037-4.855c1.043-0.876,1.13-1.342,2.625-1.657c-1.491,3.127-8.564,5.511-9.517,7.618c5.368-0.787,8.604-5.434,12.824-8.168c-0.461,1.813-1.193,1.909-2.369,2.866c-1.87,1.521-3.302,3.314-5.683,4.564c-1.112,0.584-2.137,1.119-2.923,1.865c1.742-0.281,4.175-1.92,5.642-2.802c1.771-1.066,3.051-2.719,4.969-3.087c-1.386,2.727-7.897,6.246-11.273,7.962c2.613-0.313,7.12-3.34,9.618-4.843c2.269-1.365,6.632-5.349,8.251-5.973c-0.268,1.812-5.656,5.585-7.36,6.868l-2.681,2.06c8.536-3.468,12.01-9.731,14.057-11.02c-0.551,2.639-6.106,7.551-8.369,9.43l-3.018,2.602c1.969-0.731,4.477-2.73,5.878-4.146c1.001-1.012,1.794-1.522,2.787-2.34c1.151-0.948,1.232-1.805,2.334-2.532c-0.552,3.342-4.921,5.547-6.206,7.822c2.23-0.71,5.498-4.493,6.778-4.694c-0.956,2.536-3.534,4.508-5.709,6.132c-1.176,0.877-1.353,0.679-1.868,2.014c1.546-0.486,0.963-0.299,1.953-1.194c1.549-1.4,3.489-2.372,4.929-3.85c1.99-2.042,4.025-5.908,5.145-6.185c-0.438,1.179-1.346,2.86-2.011,3.82c-1.597,2.301-3.237,3.937-5.417,5.95c-0.936,0.864-1.88,2.072-2.524,2.611c1.404-0.382,2.383-1.629,3.446-2.787c3.045-3.319,5.704-2.723,8.74-10.675c0.306,0.54,0.142,1.295-0.182,1.961c-3.396,6.968-7.956,9.742-8.579,11.086c1.965-0.972,4.306-2.901,5.583-4.492c0.55-0.686,0.842-0.865,1.422-1.509c1.833-2.035,3.533-6.903,4.724-7.977c1.393,2.709-7.406,12.22-7.689,12.828c2.363-1.095,4.699-3.635,6.186-5.656c3.198-4.346,2.107-7.163,4.059-7.793c0.323,0.786-0.186,1.74-0.539,2.474c-2.319,4.827-4.49,8.259-8.399,11.805c-1.103,1.001-1.065,0.392-1.741,1.7c1.853-0.76,3.465-2.229,4.988-3.576c1.311-1.159,2.695-3.03,3.814-4.631c1.588-2.271,1.894-2.774,2.577-5.85c0.759-3.416,2.209-1.915,0.532-5.848c0.756-1.017,0.712-0.611,1.211-1.747c-1.493,0.48-1.738,1.589-3.105,0.99c0.303-1.895,1.135-0.763,1.964-2.461c-1.666,0.269-2.208,1.797-4.566,2.186c0.452-0.509,1.168-1.276,1.687-1.686c1.174-0.928,0.9-0.234,1.645-1.721c-1.678,0.181-2.323,0.777-3.194,1.647c-1.199,1.197-0.971,1.787-2.26,1.99c0.244-1.759,1.946-2.539,3.06-3.868c-2.253,0.708-2.526,1.832-4.291,2.899c0.865-2.01,1.136-1.236,1.916-2.736c-2.671,0.958-3.003,3.566-4.701,4.372c-0.74-1.846,1.625-3.178,2.957-4.19c1.521-1.155,2.628-2.145,4.097-3.312c-1.111,0.204-4.156,1.792-4.965,2.452c-0.851,0.694-2.812,3.643-3.664,3.323c-0.527-1.581,5.035-5.198,5.888-6.259c-3.675,0.902-5.954,5.314-8.26,6.073c1.06-1.808,3.194-3.13,4.038-4.97c-3.54,0.523-4.065,3.876-6.618,4.972c-0.116-1.419,0.691-1.823,1.613-2.833l2.312-2.62c-1.201,0.544-2.973,1.761-3.538,2.477c-1.126,1.429-0.915,2.62-3.193,2.975c0.771-1.923,4.057-4.973,4.289-5.845c-0.696,0.956-2.463,2.023-3.285,2.88c-0.657,0.685-2.4,2.925-3.356,3.242c0.51-2.37,2.404-3.27,3.674-5.292c-3.493,1.592-4.512,5.732-8.124,7.294c0.771-1.949,2.709-2.934,3.355-4.855c-1.251,0.632-1.408,1.09-2.307,1.997c-0.787,0.795-1.201,1.035-1.981,1.69c-1.554,1.306-1.733,3.06-4.088,3.377c0.521-1.049,1.542-1.889,2.388-2.888c0.933-1.103,1.597-1.858,2.337-2.865L57.929,71.591L57.929,71.591z"/><path id="XMLID_127_" fill="#FFFFFF" d="M115.297,68.631c0.96-0.241,0.816-0.673,3.378-2.093c0.611-0.338-0.036-0.054,0.907-0.621c0.498,3.808,0.847,0.726-0.046,4.579c2.801,1.421,3.519,0.172,3.825,0.027l0.987,1.378c0.256-0.726,0.555-1.226,0.91-1.852l1.145,1.001c0.752-3.6,1.606-1.247,2.191-0.591l0.889-1.723c1.08,0.383,0.79,1.614,0.96,1.198c0.026-0.062,0.074,0.2,0.133,0.286c0.078-0.895,0.015-1.695,0.623-2.051c1.068-0.625,0.796,1.34,1.108,0.705c0.036-0.074,0.117,0.196,0.112,0.269l0.484-1.869c0.081,0.009,0.176,0.106,0.21,0.129c1.019,0.66,0.35,1.067,0.826,0.181c0.003-0.005,0.448-2.296,2.941-2.246c1.258,0.025,6.536-6.508,3.624-12.075c-1.985-0.065-2.667,0.331-3.895,1.203c-7.442,5.285-7.001,3.472-15.092,5.457c-3.279,0.804-3.028,5.3-3.874,6.345C116.687,67.454,116.342,66.394,115.297,68.631L115.297,68.631z"/><path id="XMLID_126_" fill="#FFFFFF" d="M135.636,38.507c0.471,0.484,0.18,0.065,0.554,0.579l-4.991-1.009c0.083,0.058,0.206,0.111,0.268,0.143c1.327,0.685,1.385,0.489,1.942,1.26l-3.191-0.577c0.824,1.339,1.523,0.926,2.19,2.554c-1.649-0.639-2.369-1.694-4.586-1.77c1.292,0.433,1.558,0.442,1.967,1.757l-2.903-0.514l2.442,2.186c-1.68,0.397-1.389-0.324-3.218-0.621l2.556,2.16c-0.517,2.325-0.387,1.348-0.275,4.166c-1.375,0.485-2.253,1.973-3.448,3.417c-1.129,1.365-2.755,1.728-3.399,3.049c3.94-1.54,4.983-4.64,6.482-5.477c0.682,1.355-0.931,2.359-2.047,3.503c-0.853,0.874-2.297,2.102-2.609,3.079c2.17-0.966,3.115-3.179,4.931-4.028c-0.649,2.307-1.708,1.932-2.364,3.752c1.698,0.742,11.631-3.94,13.185-5.015c1.968-1.361,9.124-7.079,7.981-10.056c-0.936-1.705-3.86-1.698-5.939-1.783c-3.716-0.152-3.507-0.981-6.382-1.532L135.636,38.507L135.636,38.507z"/><path fill="#FFFFFF" d="M124.51,86.63c0.731-1.086,0.798-1.556,2.103-2.12C126.095,85.888,126.068,86.576,124.51,86.63L124.51,86.63z M122.25,86.906c0.17-1.348,1.215-2.31,2.354-2.304C123.931,85.727,123.722,86.831,122.25,86.906L122.25,86.906z M127.524,86.926c1.661-3.37,6.373-5.054,4.654-13.205c-2.496-0.211-4.289,0.716-6.48,1.393c-2.496,0.771-4.783,0.261-6.853,0.846c-2.227,0.63-2.553,2.804-2.851,4.841c-0.401,2.744-2.005,3.023-2.164,5.092c1.893-1.967,1.313-2.12,2.603-2.855c-0.237,1.553-0.803,2.31-1.529,3.177c2.434,0.103,0.046-0.585,2.897-1.772c0.472,0.791-0.025,1.115-0.183,1.701c1.018-0.396,0.221-0.462,1.668-0.852c-0.061,1.154-0.41,1.407-0.024,2.072c1.161-0.404-0.073-1.183,2.499-2.176l-1.016,2.19l3.264,0.009l0.228,1.058l2.623-2.462C128.193,86.457,127.467,85.626,127.524,86.926L127.524,86.926z"/><path id="XMLID_122_" fill="#FFFFFF" d="M28.681,54.988c0.505-1.646,0.625-13.215,0.807-15.774l1.02-15.172c-3.741,1.834-8.94-4.206-4.814,17.071c1.668-1.727,0.191-3.894,1.871-6.305C27.827,36.395,24.968,48.789,28.681,54.988L28.681,54.988z"/><path id="XMLID_121_" fill="#FFFFFF" d="M2.394,33.568C0.439,44.063,1.466,54.251,3.602,64.471c0.416,1.991,1.027,3.23,1.38,5.245c0.647,3.685,0.766,8.205,2.134,11.204c0.374-4.543,0.465-7.434-0.149-12.033c-0.452-3.39-0.957-7.824-1.63-11.306C4.683,54.192,3.038,34.683,2.394,33.568L2.394,33.568z"/><path id="XMLID_120_" fill="#FFFFFF" d="M57.929,71.591l0.241-1.621c-2.067-1.073,1.139-0.662-5.822-1.634c0.961-2.058,4.285-3.137,5.682-5.57c-2.226,0.28-2.442,1.144-3.703,2.251c-0.585,0.513-0.892,0.656-1.563,1.373c-0.617,0.659-0.284,0.236-0.642,0.844l-0.412,0.942c-2.397-0.068-3.825,1.046-5.369,2.044c-1.886,1.219-2.396,2.172-3.896,3.431c0.268,0.756-0.27-0.513,0.37,0.34c0.023,0.031,0.095,0.119,0.118,0.156c0.522,0.849,0.256,1.3,0.407,1.642l2.804-1.542c-0.351,1.984-2.788,3.039-3.971,5.039c3.62-1.295,5.254-4.501,7.691-5.269c-0.844,1.797-1.885,1.24-2.693,3.543c2.822-1.121,4.071-4.556,6.23-4.395c-1.295,2.816-5.421,4.155-5.592,6.376c1.102-0.212,1.967-0.824,2.88-1.627C52.934,75.939,56.577,72.046,57.929,71.591L57.929,71.591z"/><path fill="#FFFFFF" d="M146.83,28.735c-1.768,1.352-1.786,0.344-2.088,0.138C145.379,28.416,143.685,27.823,146.83,28.735L146.83,28.735z M154.246,35.061c-0.811-1.803-2.813-0.76-4.153-2.485c3.447,0.895,4.579,1.088,5.684,2.589c1.433-1.031,1.382-0.809,2.368-2.452c0.654-1.089,1.023-1.972,0.688-3.171c-0.536-1.194-12.483-5.594-14.29-1.668c-0.21,0.456-0.299,1.438-0.292,1.942c1.088-0.589,0.966-0.278,2.317,0.204l6.483,2.527c0.052-0.083,0.197,0.102,0.258,0.264l-4.106-1.153l-1.261,1.13c-0.042-0.085-0.199,0.044-0.29,0.089c1.188,0.471,2.954,0.974,3.848,1.417c1.63,0.807-0.359,0.213,1.431,0.647L154.246,35.061L154.246,35.061z"/><path id="XMLID_117_" fill="#FFFFFF" d="M23.184,36.145c-1.23,8.255,4.27,26.031,5.202,34.765c0.672-0.392,0.489-0.591,1.214-0.387c1.2,0.338-0.652,0.143,0.794,0.549L23.184,36.145L23.184,36.145z"/><path id="XMLID_116_" fill="#FFFFFF" d="M45.371,47.124c1.46-0.972,1.932-2.298,2.429-3.798c0.029-0.088,0.051-0.193,0.082-0.28c0.801-2.234,2.258-2.859,3.145-5.303l5.634-12.369c0.458-0.872,0.819-1.418,1.276-2.388c1.578-3.352,6.164-10.606,8.9-11.944c-1.967-0.058-4.621,3.432-5.603,4.984c-2.796,4.418-2.612,3.614-5.391,9.289L45.371,47.124L45.371,47.124z"/><path id="XMLID_115_" fill="#FFFFFF" d="M44.066,46.084c2.261-2.462,9.386-19.627,12.493-24.844c0.753-1.265,1.502-2.678,2.319-3.92c0.976-1.483,1.781-2.084,2.461-3.702c-3.591,2.094-7.746,11.414-9.746,15.512c-0.77,1.578-1.349,2.78-2.048,4.19c-0.739,1.491-1.056,2.833-1.767,4.466C46.722,40.212,44.315,44.453,44.066,46.084L44.066,46.084z"/><path id="XMLID_114_" fill="#FFFFFF" d="M42.537,44.472c1.822-1.435,3.404-6.338,4.326-8.352l5.92-12.431c0.609-1.393,1.435-2.577,2.088-3.785c2.041-3.774,1.647-3.302,5.031-6.657c-2.91,0.437-5.573,5.542-6.872,8.514c-0.565,1.293-0.39,0.771-1.081,1.841C51.124,24.883,42.769,42.882,42.537,44.472L42.537,44.472z"/><path id="XMLID_113_" fill="#FFFFFF" d="M10.083,58.925c0.435,1.576,2.857,5.29,3.857,6.568c0.384,0.491,0.428,0.43,0.863,0.956c0.79,0.952,0.911,1.287,1.797,2.24l5.704,6.401c0.883,0.993,0.44,1.215,1.859,1.895c-0.16-3.594-8.09-10.892-10.436-13.496C12.373,61.987,11.933,59.927,10.083,58.925L10.083,58.925z"/><path id="XMLID_112_" fill="#FFFFFF" d="M10.174,62.745c0.511,1.058,0.591,1.87,1.316,2.999c2.01,3.131,5.338,6.679,6.561,8.48l5.162,5.845c1.001,1.018,1.092,0.727,1.771,2.072c-0.651-4.866-0.915-2.879-3.082-5.545c-1.239-1.524-2.212-2.659-3.959-4.475L10.174,62.745L10.174,62.745z"/><path id="XMLID_111_" fill="#FFFFFF" d="M10.196,54.479c-0.027-0.132-0.115-0.154-0.18-0.225c0.012,1.665,1.86,3.85,2.672,5.132c1.148,1.812,1.903,2.741,3.059,4.267c1.351,1.782,5.423,7.306,7.117,8.086c-0.212-1.828-1.856-3.907-2.885-4.986L10.196,54.479L10.196,54.479z"/><path id="XMLID_110_" fill="#FFFFFF" d="M18.734,61.749l-6.186-8.487c-0.792-1.217-1.783-3.666-2.828-4.392c-0.264,2.787,1.971,4.351,3.52,7.377c1.18,2.307,5.861,8.568,8.276,10.177C21.416,63.992,19.92,63.297,18.734,61.749L18.734,61.749z"/><path id="XMLID_109_" fill="#FFFFFF" d="M14.056,71.244c-1.148-1.382-2.689-3.691-3.905-4.772c0.201,2.685,14.758,19.115,15.519,19.35C24.218,81.507,16.721,74.454,14.056,71.244L14.056,71.244z"/><path id="XMLID_108_" fill="#FFFFFF" d="M32.882,46.405c1.142-0.572,5.034-11.41,6.231-13.304l6.525-13.2c-1.145,0.525-0.787,0.078-1.528,1.319l-2.542,4.783c-1.149,2.134-1.918,4.577-3.071,6.86C36.815,36.192,33.683,42.738,32.882,46.405L32.882,46.405z"/><path id="XMLID_107_" fill="#FFFFFF" d="M10.45,70.523c4.093,7.017,4.704,7.896,11.123,14.142c0.897,0.872,1.265,1.187,1.989,2.04c0.323,0.381,0.668,0.899,0.999,1.218c0.576,0.557,0.155,0.433,1.041,0.499c-2.897-4.436-3.494-4.778-7.572-9.026L10.45,70.523L10.45,70.523z"/><path id="XMLID_106_" fill="#FFFFFF" d="M40.519,44.813c0.046-0.063,0.1-0.162,0.145-0.228l1.51-2.874c1.698-4.413,8.956-19.74,11.157-23.346c0.742-1.217,1.523-1.832,2.259-3.114c-4.032,2.365-6.294,9.581-8.614,14.375l-7.017,15.812L40.519,44.813L40.519,44.813z"/><path id="XMLID_105_" fill="#FFFFFF" d="M10.072,45.428c-0.015,2.48,4.039,8.009,5.4,10.028l5.201,6.665c-0.319-1.69-1.455-3.209-2.486-4.595c-0.663-0.892-0.704-1.022-1.307-2.001l-2.826-4.156C12.219,49.062,12.093,46.096,10.072,45.428L10.072,45.428z"/><path id="XMLID_104_" fill="#FFFFFF" d="M82.247,90.883c2.637-1.891,3.968-2.153,6.212-5.445c1.238-1.817,3.26-6.072,2.961-8.266c-0.875,0.851-3.049,5.597-3.976,7.236C85.838,87.246,82.875,89.799,82.247,90.883L82.247,90.883z"/><path id="XMLID_103_" fill="#FFFFFF" d="M106.115,84.927c0.154-1.296-0.059-1.219,1.299-2.452c1.37-1.244,3.69-6.438,3.836-7.327l-1.078,1.278c-0.295,0.513-0.46,0.99-0.694,1.502c-0.941,2.055-0.863,0.808-1.73,2.3c-0.385,0.663-0.4,1.078-0.717,1.474c-0.511,0.637-0.626,0.259-1.176,1.023c-1.044,1.452,0.877-1.28-0.855,2.385c1.446,0.089,1.366,0.221,2.622,0.482c0.429-1.486,0.773-1.316,1.586-2.427l3.824-7.512C110.066,76.974,110.33,83.124,106.115,84.927L106.115,84.927z"/><path id="XMLID_102_" fill="#FFFFFF" d="M10.815,74.249c1.052,2.042,2.11,3.806,3.46,5.256c1.456,1.564,2.563,3.272,4.062,4.362c1.514,1.1,1.089,0.89,2.169,2.251c1.603,2.02,4.053,4.834,6.281,5.965c-0.796-1.45-4.688-5.64-6.117-6.873l-6.186-6.28C13.323,77.355,12.081,75.606,10.815,74.249L10.815,74.249z"/><path id="XMLID_101_" fill="#FFFFFF" d="M33.431,49.534c1.448-1.048,3.782-6.787,4.47-8.443c1.278-3.078,2.798-5.581,3.629-8.973C39.91,34.009,33.661,48.298,33.431,49.534L33.431,49.534z"/><path id="XMLID_100_" fill="#FFFFFF" d="M97.104,75.815c1.163,1.176,2.219,1.098,4.481,1.8c0.952,0.296,1.297,0.377,2.279,0.637c1.403,0.373,1.257,0.443,1.796,1.058c-0.09,0.031-0.212,0.082-0.271,0.088c-0.055,0.005-0.193,0.054-0.261,0.055c-0.067,0-0.189,0.007-0.264,0l-5.611-1.722c-2.182-0.625-1.504-0.22-1.989,0.198c4.819,0.711,5.797,2.551,8.283,2.28c0.878-2.331-0.853-2.385-2.819-2.994C100.656,76.572,99.566,76.067,97.104,75.815L97.104,75.815z"/><path id="XMLID_99_" fill="#FFFFFF" d="M86.651,89.55c2.906-1.345,3.636-3.045,5.783-6.731c0.526-0.904,0.694-1.167,0.132-2.355l-0.325-0.404c-0.941,1.589-1.553,3.494-2.558,5.137c-0.547,0.896-1.006,1.25-1.551,2.105C87.512,88.276,87.484,88.528,86.651,89.55L86.651,89.55z"/><path id="XMLID_98_" fill="#FFFFFF" d="M31.325,82.918c-0.627-0.422-0.242-0.593-1.248-1.212c0.21,1.327,1.516,5.215,4.023,4.748c0.365-0.068,0.587-0.206,0.909-0.394c0.619-0.361,0.493-0.364,0.645-0.489c-0.459-0.635-1.809-2.098-2.748-2.408C30.818,82.472,32.761,83.885,31.325,82.918L31.325,82.918z"/><path id="XMLID_97_" fill="#FFFFFF" d="M94.388,62.167c2.634-0.258,11.083,2.174,11.912,1.681c-1.572-1.289-3.792-1.657-5.935-1.961C94.87,61.106,95.095,60.482,94.388,62.167L94.388,62.167z"/><path id="XMLID_96_" fill="#FFFFFF" d="M67.435,18.24l7.616-7.438c1.515-1.437,1.948-1.298,2.742-2.706c-2.784,0.912-3.815,3.001-5.691,4.519c-1.392,1.125-1.56,0.765-2.654,2.49C68.774,16.168,68.003,16.999,67.435,18.24L67.435,18.24z"/><path id="XMLID_95_" fill="#FFFFFF" d="M110.143,70.499c4.318-4.445,2.216-3.918,4.433-7.698c0.699-1.192,1.473-1.545,1.809-2.956c-1.762,1.142-3.049,3.54-4.078,5.849c-2.134,4.789-2.583,3.724-3.543,5.839L110.143,70.499L110.143,70.499z"/><path id="XMLID_94_" fill="#FFFFFF" d="M93.428,93.668c2.06-0.73,4.461-4.228,5.616-5.671c0.92-1.15,1.121-1.106,0.135-2.058c-0.503,0.335-0.115-0.117-0.598,0.507c-0.062,0.08-0.207,0.356-0.26,0.451C95.619,91.745,96.832,88.58,93.428,93.668L93.428,93.668z"/><path id="XMLID_93_" fill="#FFFFFF" d="M107.122,70.934c2.134-0.596,3.185-3.396,4.159-5.186c0.849-1.561,3.029-4.335,3.255-5.971c-1.433,0.548-1.33,1.311-2.037,2.773l-3.412,5.78C108.501,69.304,107.692,70.096,107.122,70.934L107.122,70.934z"/><path id="XMLID_92_" fill="#FFFFFF" d="M15.767,83.592c1.392,1.158,3.564,5.786,9.148,9.18l-5.444-5.995c-0.773-0.845-0.597-0.476-1.202-1.004C17.092,84.745,17.767,84.595,15.767,83.592L15.767,83.592z"/><path id="XMLID_91_" fill="#FFFFFF" d="M118.762,52.825c2.463-0.483,5.953-3.508,7.3-5.68c-1.201,0.399-1.285,0.53-2.237,1.427C120.76,51.458,120.768,50.902,118.762,52.825L118.762,52.825z"/><path id="XMLID_90_" fill="#FFFFFF" d="M101.691,93.07c0.084-0.06,0.19-0.143,0.246-0.19c0.304-0.256,0.701-1.217,1.932-0.754l-0.929,2.124l1.395-0.422c0.265-1.808,0.368-2.531-0.342-3.908C102.908,90.433,102.011,91.757,101.691,93.07L101.691,93.07z"/><path id="XMLID_89_" fill="#FFFFFF" d="M55.796,67.07c1.904-0.348,4.438-2.866,5.362-4.67C60.242,62.743,56.161,65.766,55.796,67.07L55.796,67.07z"/><path id="XMLID_88_" fill="#FFFFFF" d="M96.036,88.672c0.824-1.006,1.279-2.241,1.682-3.906c-0.845,0.537-0.094-0.274-0.783,0.76l-4.1,6.048L96.036,88.672L96.036,88.672z"/><path id="XMLID_87_" fill="#FFFFFF" d="M96.647,93.164c0.834-0.38,1.996-1.571,2.685-2.289c0.924-0.964,1.545-1.739,1.763-3.6C100.266,87.842,96.858,92.63,96.647,93.164L96.647,93.164z"/><path id="XMLID_86_" fill="#FFFFFF" d="M98.633,93.714c1.189-0.516,1.649-1.079,2.702-2.277c0.773-0.88,1.716-1.523,1.381-3.175c-0.804,0.655-0.454,0.487-1.032,1.296c-0.548,0.768-0.588,0.623-1.022,1.187C99.99,91.618,99.325,92.698,98.633,93.714L98.633,93.714z"/><path id="XMLID_85_" fill="#FFFFFF" d="M108.218,94.496c2.011-0.597,3.756-2.201,4.15-4.417c-0.998,0.455-2.049,1.897-3.323,3.214C108.357,94.005,108.621,93.716,108.218,94.496L108.218,94.496z"/><path id="XMLID_84_" fill="#FFFFFF" d="M32.839,77.357c0.537,0.662-0.013,0.091,0.85,0.552l-2.61-6.145c-0.558,0.864-0.727,0.518-0.283,1.702L32.839,77.357L32.839,77.357z"/><path id="XMLID_83_" fill="#FFFFFF" d="M91.421,87.57c1.399-0.727,2.922-4.119,3.124-5.404c-1.43,0.545-0.511-0.515-1.762,2.493C92.247,85.945,91.864,86.189,91.421,87.57L91.421,87.57z"/><path id="XMLID_82_" fill="#FFFFFF" d="M15.197,85.617c1.881,2.219,0.894,2.948,4.47,4.806c-0.623-1.181-1.155-2.085-2.104-2.814C16.535,86.821,16.102,86.246,15.197,85.617L15.197,85.617z"/><path id="XMLID_81_" fill="#FFFFFF" d="M107.122,94.059c1.388-0.61,2.94-2.521,3.376-4.162c-1.016,0.514-1.206,0.77-1.88,1.878C108.037,92.729,107.641,93.072,107.122,94.059L107.122,94.059z"/><path id="XMLID_80_" fill="#FFFFFF" d="M126.223,30.299c0.074,0.646,0.163,1.294,0.48,1.714c0.573,0.758-0.451,0.607,1.732,0.519c-0.679-0.647-0.83-0.854-0.804-2.085L126.223,30.299L126.223,30.299z"/><path id="XMLID_79_" fill="#FFFFFF" d="M111.332,93.669c1.459-0.088,2.318-1.211,2.872-2.736c-1.273,0.383-1.071,0.339-1.821,1.346C111.959,92.848,111.703,93.162,111.332,93.669L111.332,93.669z"/><path id="XMLID_78_" fill="#FFFFFF" d="M115.297,68.631c-0.076,0.056-0.185,0.127-0.229,0.168l-2.745,4.043c0.808-0.3,0.436-0.055,1.001-0.617c0.509-0.507,0.657-1.363,2.013-2.38L115.297,68.631L115.297,68.631z"/><path fill="#2B2B2B" d="M113.575,93.564c0.425-0.773,1.566-1.889,2.584-2.289C115.885,92.122,114.746,93.487,113.575,93.564L113.575,93.564z M111.332,93.669c0.371-0.508,0.627-0.821,1.051-1.39c0.75-1.006,0.549-0.963,1.821-1.346C113.649,92.459,112.791,93.582,111.332,93.669L111.332,93.669z M101.691,93.07c0.32-1.313,1.217-2.637,2.302-3.149c0.711,1.378,0.607,2.101,0.342,3.908l-1.395,0.422l0.929-2.124c-1.231-0.464-1.628,0.497-1.932,0.754C101.881,92.926,101.775,93.009,101.691,93.07L101.691,93.07z M108.218,94.496c0.403-0.78,0.139-0.491,0.828-1.202c1.274-1.317,2.325-2.759,3.323-3.214C111.974,92.296,110.229,93.899,108.218,94.496L108.218,94.496z M107.122,94.059c0.519-0.988,0.915-1.33,1.496-2.284c0.675-1.108,0.865-1.364,1.88-1.878C110.063,91.539,108.511,93.449,107.122,94.059L107.122,94.059z M98.633,93.714c0.692-1.015,1.358-2.096,2.03-2.969c0.435-0.565,0.474-0.419,1.022-1.187c0.578-0.81,0.228-0.642,1.032-1.296c0.335,1.651-0.608,2.294-1.381,3.175C100.282,92.635,99.822,93.198,98.633,93.714L98.633,93.714z M96.647,93.164c0.211-0.534,3.618-5.321,4.447-5.889c-0.218,1.861-0.839,2.636-1.763,3.6C98.643,91.593,97.481,92.784,96.647,93.164L96.647,93.164z M93.428,93.668c3.404-5.088,2.192-1.922,4.892-6.771c0.053-0.096,0.199-0.372,0.26-0.451c0.483-0.623,0.096-0.171,0.598-0.507c0.986,0.952,0.785,0.908-0.135,2.058C97.889,89.44,95.488,92.938,93.428,93.668L93.428,93.668z M15.197,85.617c0.905,0.629,1.339,1.204,2.366,1.992c0.949,0.728,1.481,1.633,2.104,2.814C16.091,88.565,17.077,87.836,15.197,85.617L15.197,85.617z M92.836,91.574l4.1-6.048c0.689-1.035-0.063-0.223,0.783-0.76c-0.403,1.666-0.858,2.9-1.682,3.906L92.836,91.574L92.836,91.574z M90.702,90.935c1.08-2.057,0.97-0.075,3.905-5.178c1.026-1.784,0.636-1.461,1.495-1.554C95.964,86.33,92.665,90.251,90.702,90.935L90.702,90.935z M15.767,83.592c2,1.003,1.325,1.153,2.502,2.181c0.606,0.528,0.43,0.159,1.202,1.004l5.444,5.995C19.331,89.378,17.16,84.75,15.767,83.592L15.767,83.592z M91.421,87.57c0.443-1.381,0.826-1.625,1.361-2.912c1.251-3.008,0.332-1.948,1.762-2.493C94.343,83.451,92.82,86.843,91.421,87.57L91.421,87.57z M30.076,81.706c1.006,0.619,0.621,0.79,1.248,1.212c1.436,0.967-0.506-0.446,1.581,0.243c0.939,0.31,2.289,1.774,2.748,2.408c-0.151,0.126-0.026,0.128-0.645,0.489c-0.322,0.188-0.544,0.326-0.909,0.394C31.593,86.92,30.287,83.033,30.076,81.706L30.076,81.706z M86.651,89.55c0.832-1.022,0.861-1.275,1.481-2.248c0.545-0.855,1.004-1.21,1.551-2.105c1.004-1.643,1.617-3.548,2.558-5.137l0.325,0.404c0.563,1.187,0.395,1.451-0.132,2.355C90.287,86.506,89.557,88.205,86.651,89.55L86.651,89.55z M82.247,90.883c0.628-1.085,3.591-3.638,5.197-6.475c0.927-1.639,3.101-6.385,3.976-7.236c0.299,2.193-1.723,6.449-2.961,8.266C86.215,88.73,84.884,88.992,82.247,90.883L82.247,90.883z M33.973,78.731l4.226,6.956c0.227-0.111,0.728-0.466,0.749-0.476c0.081-0.038,0.373-0.172,0.453-0.194l0.868,0.91c-0.468,0.278,0.441,0.371-1.316,0.495c-0.404,0.029-1.154-0.116-1.589-0.168l-1.831-3.54C34.925,81.649,33.887,80.206,33.973,78.731L33.973,78.731z M127.524,86.926c-0.057-1.3,0.669-0.469-0.663-0.944l-2.623,2.462l-0.228-1.058l-3.264-0.009l1.016-2.19c-2.571,0.994-1.338,1.772-2.499,2.176c-0.385-0.665-0.037-0.918,0.024-2.072c-1.447,0.39-0.649,0.455-1.668,0.852c0.158-0.587,0.654-0.91,0.183-1.701c-2.851,1.187-0.463,1.875-2.897,1.772c0.726-0.866,1.292-1.624,1.529-3.177c-1.29,0.734-0.71,0.887-2.603,2.855c0.159-2.069,1.763-2.348,2.164-5.092c0.298-2.036,0.624-4.211,2.851-4.841c2.07-0.585,4.356-0.075,6.853-0.846c2.19-0.677,3.984-1.604,6.48-1.393C133.897,81.872,129.185,83.557,127.524,86.926L127.524,86.926z M111.229,85.557l-2.973,0.066c3.043-4.146,3.6-7.786,5.739-9.47c0.052,0.926-2.309,6.201-2.914,7.045c-0.827,1.154-1.09,0.692-1.573,1.976c3.536-0.18,3.55-7.967,6.833-9.1c-0.284,1.651-1.831,2.825-2.061,3.38C113.826,80.546,114.008,82.837,111.229,85.557L111.229,85.557z M106.115,84.927c4.215-1.803,3.951-7.952,6.916-9.274l-3.824,7.512c-0.813,1.111-1.157,0.94-1.586,2.427c-1.255-0.26-1.176-0.393-2.622-0.482c1.732-3.665-0.189-0.933,0.855-2.385c0.549-0.764,0.665-0.386,1.176-1.023c0.317-0.395,0.332-0.81,0.717-1.474c0.866-1.492,0.789-0.245,1.73-2.3c0.235-0.513,0.399-0.989,0.694-1.502l1.078-1.278c-0.147,0.889-2.466,6.083-3.836,7.327C106.057,83.708,106.27,83.63,106.115,84.927L106.115,84.927z M97.104,75.815c2.462,0.251,3.552,0.757,5.623,1.399c1.967,0.61,3.697,0.663,2.819,2.994c-2.486,0.271-3.464-1.569-8.283-2.28c0.486-0.417-0.193-0.823,1.989-0.198l5.611,1.722c0.075,0.007,0.197,0,0.264,0c0.068,0,0.205-0.049,0.261-0.055c0.059-0.006,0.181-0.057,0.271-0.088c-0.54-0.615-0.393-0.685-1.796-1.058c-0.981-0.261-1.326-0.342-2.279-0.637C99.323,76.914,98.267,76.991,97.104,75.815L97.104,75.815z M10.815,74.249c1.266,1.358,2.508,3.107,3.67,4.68l6.186,6.28c1.429,1.233,5.322,5.423,6.117,6.873c-2.227-1.131-4.677-3.945-6.281-5.965c-1.08-1.361-0.656-1.151-2.169-2.251c-1.499-1.09-2.606-2.798-4.062-4.362C12.925,78.055,11.866,76.29,10.815,74.249L10.815,74.249z M31.079,71.764l2.61,6.145c-0.863-0.461-0.314,0.11-0.85-0.552l-2.043-3.891C30.352,72.281,30.521,72.627,31.079,71.764L31.079,71.764z M10.45,70.523l7.58,8.873c4.078,4.248,4.675,4.59,7.572,9.026c-0.886-0.066-0.465,0.057-1.041-0.499c-0.331-0.32-0.675-0.837-0.999-1.218c-0.724-0.853-1.093-1.167-1.989-2.04C15.154,78.419,14.543,77.539,10.45,70.523L10.45,70.523z M40.441,73.369c0.197-0.889,0.662-1.582,1.384-2.188c0.663-0.557,1.751-1.128,2.844-1.074C44.171,70.631,40.92,73.151,40.441,73.369L40.441,73.369z M115.297,68.631l0.039,1.214c-1.356,1.017-1.504,1.872-2.013,2.38c-0.565,0.563-0.193,0.317-1.001,0.617l2.745-4.043C115.113,68.758,115.221,68.688,115.297,68.631L115.297,68.631z M105.699,70.369c-0.021-0.53,0.717-1.001,1.541-1.395c-0.141,0.349-0.187,0.805-0.631,1.294C105.31,71.694,105.845,70.465,105.699,70.369L105.699,70.369z M10.151,66.473c1.216,1.081,2.757,3.389,3.905,4.772c2.665,3.209,10.162,10.262,11.614,14.579C24.91,85.588,10.352,69.158,10.151,66.473L10.151,66.473z M57.929,71.591l4.825-2.932c-0.739,1.007-1.403,1.762-2.337,2.865c-0.845,0.999-1.867,1.839-2.388,2.888c2.355-0.317,2.534-2.071,4.088-3.377c0.78-0.655,1.194-0.896,1.981-1.69c0.898-0.907,1.056-1.364,2.307-1.997c-0.646,1.921-2.584,2.907-3.355,4.855c3.613-1.562,4.631-5.702,8.124-7.294c-1.27,2.022-3.165,2.922-3.674,5.292c0.957-0.318,2.7-2.557,3.356-3.242c0.822-0.857,2.589-1.924,3.285-2.88c-0.232,0.871-3.518,3.922-4.289,5.845c2.278-0.355,2.067-1.545,3.193-2.975c0.565-0.717,2.336-1.933,3.538-2.477l-2.312,2.62c-0.922,1.01-1.73,1.414-1.613,2.833c2.553-1.096,3.078-4.449,6.618-4.972c-0.844,1.839-2.978,3.162-4.038,4.97c2.306-0.759,4.585-5.171,8.26-6.073c-0.853,1.061-6.415,4.677-5.888,6.259c0.851,0.32,2.813-2.629,3.664-3.323c0.809-0.66,3.854-2.248,4.965-2.452c-1.469,1.167-2.575,2.157-4.097,3.312c-1.332,1.011-3.697,2.343-2.957,4.19c1.698-0.806,2.03-3.414,4.701-4.372c-0.78,1.5-1.05,0.727-1.916,2.736c1.764-1.067,2.037-2.192,4.291-2.899c-1.113,1.329-2.816,2.109-3.06,3.868c1.289-0.203,1.062-0.794,2.26-1.99c0.871-0.87,1.516-1.466,3.194-1.647c-0.745,1.487-0.471,0.793-1.645,1.721c-0.519,0.411-1.234,1.178-1.687,1.686c2.357-0.388,2.9-1.917,4.566-2.186c-0.829,1.698-1.66,0.566-1.964,2.461c1.367,0.599,1.612-0.51,3.105-0.99c-0.5,1.137-0.455,0.73-1.211,1.747c1.677,3.932,0.227,2.431-0.532,5.848c-0.683,3.076-0.989,3.578-2.577,5.85c-1.119,1.6-2.503,3.471-3.814,4.631c-1.523,1.347-3.134,2.816-4.988,3.576c0.676-1.308,0.638-0.7,1.741-1.7c3.909-3.546,6.08-6.978,8.399-11.805c0.353-0.734,0.862-1.688,0.539-2.474c-1.953,0.63-0.861,3.447-4.059,7.793c-1.487,2.02-3.823,4.561-6.186,5.656c0.283-0.609,9.083-10.119,7.689-12.828c-1.191,1.075-2.891,5.943-4.724,7.977c-0.58,0.644-0.872,0.823-1.422,1.509c-1.276,1.591-3.618,3.52-5.583,4.492c0.622-1.344,5.183-4.118,8.579-11.086c0.324-0.666,0.488-1.42,0.182-1.961c-3.036,7.953-5.695,7.356-8.74,10.675c-1.062,1.158-2.041,2.405-3.446,2.787c0.643-0.539,1.588-1.747,2.524-2.611c2.18-2.013,3.82-3.649,5.417-5.95c0.666-0.96,1.573-2.64,2.011-3.82c-1.12,0.277-3.155,4.143-5.145,6.185c-1.44,1.478-3.38,2.45-4.929,3.85c-0.99,0.895-0.406,0.707-1.953,1.194c0.515-1.335,0.692-1.136,1.868-2.014c2.175-1.624,4.754-3.596,5.709-6.132c-1.281,0.201-4.548,3.984-6.778,4.694c1.285-2.275,5.654-4.48,6.206-7.822c-1.101,0.727-1.183,1.585-2.334,2.532c-0.993,0.818-1.786,1.328-2.787,2.34c-1.401,1.416-3.909,3.414-5.878,4.146l3.018-2.602c2.262-1.879,7.817-6.791,8.369-9.43c-2.047,1.29-5.521,7.552-14.057,11.02l2.681-2.06c1.704-1.283,7.092-5.057,7.36-6.868c-1.619,0.624-5.982,4.609-8.251,5.973c-2.498,1.503-7.005,4.53-9.618,4.843c3.376-1.716,9.887-5.235,11.273-7.962c-1.918,0.368-3.198,2.021-4.969,3.087c-1.466,0.883-3.9,2.521-5.642,2.802c0.786-0.745,1.811-1.281,2.923-1.865c2.381-1.25,3.814-3.043,5.683-4.564c1.176-0.957,1.908-1.053,2.369-2.866c-4.22,2.735-7.456,7.382-12.824,8.168c0.953-2.107,8.026-4.491,9.517-7.618c-1.494,0.316-1.582,0.781-2.625,1.657c-2.532,2.128-5.407,4.161-9.037,4.855c0.7-0.578,1.197-0.749,1.996-1.278c1.769-1.171,4.583-2.959,5.442-4.796c-2.376,0.827-5.487,4.941-10.293,5.682c1.871-1.913,6.872-3.934,7.487-6.466c-2.36,0.905-2.666,2.951-5.386,3.199C50.605,78.258,56.863,74.362,57.929,71.591L57.929,71.591z M57.929,71.591c-1.352,0.454-4.995,4.348-7.24,6.323c-0.913,0.803-1.778,1.415-2.88,1.627c0.17-2.221,4.297-3.559,5.592-6.376c-2.16-0.161-3.408,3.274-6.23,4.395c0.808-2.304,1.849-1.746,2.693-3.543c-2.437,0.769-4.071,3.975-7.691,5.269c1.183-2,3.62-3.055,3.971-5.039l-2.804,1.542c-0.151-0.342,0.114-0.794-0.407-1.642c-0.023-0.037-0.094-0.125-0.118-0.156c-0.64-0.853-0.102,0.416-0.37-0.34c1.5-1.259,2.01-2.212,3.896-3.431c1.544-0.998,2.972-2.111,5.369-2.044l0.412-0.942c0.358-0.608,0.025-0.184,0.642-0.844c0.671-0.718,0.978-0.86,1.563-1.373c1.262-1.107,1.477-1.971,3.703-2.251c-1.397,2.433-4.721,3.512-5.682,5.57c6.962,0.972,3.756,0.561,5.822,1.634L57.929,71.591L57.929,71.591z M40.728,66.822c0.483-1.196,2.427-3.503,3.185-3.948c-0.305,0.911-0.69,1.417-1.21,2.184C42.122,65.915,41.679,66.328,40.728,66.822L40.728,66.822z M10.174,62.745l7.768,9.376c1.747,1.816,2.72,2.951,3.959,4.475c2.167,2.666,2.432,0.678,3.082,5.545c-0.679-1.345-0.77-1.055-1.771-2.072l-5.162-5.845c-1.223-1.802-4.551-5.349-6.561-8.48C10.766,64.615,10.685,63.803,10.174,62.745L10.174,62.745z M55.796,67.07c0.365-1.303,4.446-4.326,5.362-4.67C60.234,64.203,57.7,66.722,55.796,67.07L55.796,67.07z M50.249,66.478c1.268-1.148,3.417-3.717,5.034-4.314c-0.103,1.533-0.948,1.482-2.061,2.486C51.759,65.969,53.007,65.867,50.249,66.478L50.249,66.478z M106.3,63.848c-0.829,0.493-9.278-1.939-11.912-1.681c0.707-1.685,0.482-1.061,5.977-0.28C102.508,62.192,104.728,62.559,106.3,63.848L106.3,63.848z M107.122,70.934c0.569-0.837,1.378-1.63,1.965-2.604l3.412-5.78c0.707-1.462,0.603-2.224,2.037-2.773c-0.226,1.635-2.405,4.41-3.255,5.971C110.308,67.538,109.257,70.337,107.122,70.934L107.122,70.934z M109.115,65.925c0.524-1.619,1.502-5.272,2.923-5.549c0.062,0.252,0.448-0.465,0.011,0.948c-0.391,1.262-2.657,5.353-4.029,6.865c0.277-1.916,0.168-2.978,0.131-5.077l0.638-0.613c1.076-1.136,0.932-1.635,1.998-2.333c-0.462,2.155-1.569,3.406-1.811,4.008C107.965,66.695,108.962,65.658,109.115,65.925L109.115,65.925z M108.764,71.532c0.96-2.114,1.41-1.049,3.543-5.839c1.029-2.309,2.316-4.708,4.078-5.849c-0.336,1.411-1.11,1.764-1.809,2.956c-2.218,3.78-0.116,3.254-4.433,7.698L108.764,71.532L108.764,71.532z M107.864,62.166c-0.216-1.263-0.024-2.153,1.331-2.526c-0.086,0.546,0.01,0.293-0.317,1.037L107.864,62.166L107.864,62.166z M95.554,59.85c3.327-0.56,7.673,1.04,9.833,2.21l0.569-1.072c0.441,0.633,0.371,0.362,0.449,1.336C104.81,62.316,96.555,60.768,95.554,59.85L95.554,59.85z M10.083,58.925c1.85,1.001,2.29,3.061,3.645,4.564c2.346,2.604,10.276,9.902,10.436,13.496c-1.419-0.681-0.977-0.902-1.859-1.895l-5.704-6.401c-0.886-0.953-1.008-1.288-1.797-2.24c-0.436-0.526-0.479-0.464-0.863-0.956C12.94,64.216,10.518,60.502,10.083,58.925L10.083,58.925z M115.297,68.631c1.045-2.237,1.39-1.178,2.35-2.363c0.845-1.044,0.595-5.54,3.874-6.345c8.091-1.985,7.651-0.172,15.092-5.457c1.228-0.872,1.91-1.268,3.895-1.203c2.912,5.567-2.366,12.1-3.624,12.074c-2.493-0.05-2.938,2.241-2.941,2.246c-0.476,0.887,0.193,0.48-0.826-0.181c-0.034-0.022-0.128-0.119-0.21-0.129l-0.484,1.869c0.005-0.073-0.076-0.343-0.112-0.269c-0.312,0.635-0.04-1.33-1.108-0.705c-0.609,0.356-0.545,1.156-0.623,2.051c-0.059-0.087-0.108-0.348-0.133-0.286c-0.171,0.416,0.119-0.815-0.96-1.198l-0.889,1.723c-0.586-0.656-1.439-3.009-2.191,0.591l-1.145-1.001c-0.356,0.626-0.654,1.126-0.91,1.852l-0.987-1.378c-0.307,0.145-1.024,1.393-3.825-0.027c0.893-3.852,0.544-0.771,0.046-4.579c-0.944,0.567-0.296,0.282-0.907,0.621C116.114,67.958,116.257,68.391,115.297,68.631L115.297,68.631z M94.562,59.168c0.983-1.817,3.903-3.26,5.426-2.235C97.823,57.471,96.385,58.345,94.562,59.168L94.562,59.168z M10.016,54.254c0.064,0.071,0.153,0.093,0.18,0.225l9.782,12.274c1.029,1.079,2.673,3.158,2.885,4.986c-1.693-0.78-5.766-6.304-7.117-8.086c-1.156-1.526-1.911-2.454-3.059-4.267C11.876,58.104,10.029,55.92,10.016,54.254L10.016,54.254z M9.719,48.87c1.045,0.726,2.036,3.175,2.828,4.392l6.186,8.487c1.186,1.548,2.682,2.243,2.781,4.675c-2.415-1.608-7.095-7.87-8.276-10.177C11.691,53.221,9.455,51.656,9.719,48.87L9.719,48.87z M84.998,49.872c-0.235,1.402-1.474,3.881-2.197,4.813c-1.637,2.111-1.976,2.683-3.524,3.458c0.548-1.507,1.858-2.297,2.743-3.852c0.466-0.819,0.727-1.538,1.248-2.425c0.221-0.376,0.576-1.072,0.649-1.178C84.625,49.674,83.903,50.122,84.998,49.872L84.998,49.872z M2.394,33.568c0.645,1.115,2.289,20.624,2.944,24.013c0.673,3.483,1.178,7.916,1.63,11.306c0.613,4.599,0.522,7.49,0.149,12.033c-1.368-2.999-1.487-7.52-2.134-11.204c-0.354-2.014-0.964-3.254-1.38-5.245C1.466,54.251,0.439,44.062,2.394,33.568L2.394,33.568z M120.357,54.04c0.811-1.322,5.56-5.36,6.704-5.787l-1.338,1.855C124.418,51.378,121.954,53.582,120.357,54.04L120.357,54.04z M118.762,52.825c2.006-1.923,1.999-1.367,5.063-4.254c0.952-0.897,1.036-1.027,2.237-1.427C124.714,49.317,121.224,52.342,118.762,52.825L118.762,52.825z M10.072,45.428c2.022,0.668,2.148,3.633,3.982,5.941l2.826,4.156c0.603,0.979,0.643,1.109,1.307,2.001c1.031,1.387,2.167,2.906,2.486,4.595l-5.201-6.665C14.111,53.438,10.056,47.909,10.072,45.428L10.072,45.428z M118.766,46.65c0.64-1.392,1.172-1.708,2.532-2.158c0.06,1.354,0.528,0.367-0.674,1.194C119.985,46.127,119.524,46.34,118.766,46.65L118.766,46.65z M23.184,36.145l7.211,34.928c-1.446-0.406,0.406-0.211-0.794-0.549c-0.726-0.204-0.543-0.006-1.214,0.387C27.454,62.177,21.954,44.4,23.184,36.145L23.184,36.145z M92.842,41.521l4.017-2.945c0.196,1.83-3.275,3.893-4.775,3.71c-0.034-0.772,0.069-1.044,0.29-1.864c0.385-1.434,0.39-1.177,0.963-1.713c0.184,0.379,0.642-0.475,0.114,1.231C93.276,40.5,93.127,40.436,92.842,41.521L92.842,41.521z M134.782,37.731c2.875,0.551,2.666,1.379,6.382,1.532c2.078,0.085,5.003,0.078,5.939,1.783c1.143,2.977-6.014,8.695-7.981,10.056c-1.554,1.075-11.487,5.757-13.185,5.015c0.656-1.82,1.715-1.445,2.364-3.752c-1.817,0.849-2.762,3.063-4.931,4.028c0.311-0.976,1.756-2.205,2.609-3.079c1.117-1.144,2.729-2.149,2.047-3.503c-1.499,0.837-2.542,3.937-6.482,5.477c0.644-1.321,2.27-1.684,3.399-3.049c1.195-1.444,2.073-2.932,3.448-3.417c-0.112-2.819-0.241-1.841,0.275-4.166l-2.556-2.16c1.829,0.297,1.538,1.019,3.218,0.621l-2.442-2.186l2.903,0.514c-0.409-1.314-0.675-1.324-1.967-1.757c2.217,0.076,2.937,1.132,4.586,1.77c-0.666-1.628-1.366-1.214-2.19-2.554l3.191,0.577c-0.557-0.772-0.615-0.576-1.942-1.26c-0.062-0.032-0.184-0.086-0.268-0.143l4.991,1.009c-0.374-0.514-0.083-0.096-0.554-0.579L134.782,37.731L134.782,37.731z M33.431,49.534c0.23-1.237,6.479-15.526,8.099-17.416c-0.831,3.392-2.351,5.895-3.629,8.973C37.213,42.747,34.879,48.486,33.431,49.534L33.431,49.534z M126.223,30.299l1.408,0.147c-0.026,1.231,0.125,1.438,0.804,2.085c-2.183,0.088-1.159,0.239-1.732-0.519C126.386,31.593,126.297,30.946,126.223,30.299L126.223,30.299z M144.252,29.816c-0.007-0.504,0.082-1.486,0.292-1.942c1.807-3.927,13.754,0.473,14.29,1.668c0.334,1.199-0.034,2.082-0.688,3.171c-0.987,1.643-0.936,1.422-2.368,2.452c-1.105-1.501-2.237-1.694-5.684-2.589c1.34,1.725,3.342,0.682,4.153,2.485l-1.313-0.12c-1.791-0.434,0.199,0.159-1.431-0.647c-0.894-0.443-2.66-0.946-3.848-1.417c0.091-0.045,0.248-0.173,0.29-0.089l1.261-1.13l4.106,1.153c-0.062-0.161-0.207-0.347-0.258-0.264l-6.483-2.527C145.218,29.538,145.34,29.227,144.252,29.816L144.252,29.816z M28.681,54.988c-3.714-6.199-0.854-18.592-1.116-20.18c-1.681,2.411-0.203,4.578-1.871,6.305c-4.126-21.276,1.073-15.236,4.814-17.071l-1.02,15.172C29.307,41.773,29.186,53.342,28.681,54.988L28.681,54.988z M32.882,46.405c0.802-3.667,3.933-10.213,5.614-13.543c1.153-2.284,1.922-4.726,3.071-6.86l2.542-4.783c0.742-1.241,0.384-0.795,1.528-1.319l-6.525,13.2C37.915,34.995,34.024,45.833,32.882,46.405L32.882,46.405z M39.958,45.439l7.017-15.812c2.32-4.794,4.582-12.009,8.614-14.375c-0.735,1.282-1.516,1.897-2.259,3.114c-2.201,3.606-9.46,18.932-11.157,23.346l-1.51,2.874c-0.045,0.066-0.099,0.165-0.145,0.228L39.958,45.439L39.958,45.439z M44.066,46.084c0.249-1.632,2.656-5.872,3.713-8.298c0.711-1.633,1.028-2.975,1.767-4.466c0.699-1.41,1.278-2.612,2.048-4.19c2-4.098,6.155-13.418,9.746-15.512c-0.68,1.618-1.485,2.218-2.461,3.702c-0.817,1.242-1.566,2.655-2.319,3.92C53.452,26.457,46.327,43.623,44.066,46.084L44.066,46.084z M10.072,45.428c-0.363-0.252-0.08,0.2-0.739-0.708c-0.412-0.568-0.187-0.26-0.516-0.952c-1.576-3.318-1.111-5.474-2.684-7.074c-0.285,1.687,0.939,5.158,1.371,6.936c0.912,3.751,1.172,20.518,0.66,24.496L4.761,39.025c-0.267-2.106-1.249-4.906-0.563-7.003c0.465-1.42,0.861-0.164,0.579-2.872c-0.505-4.847-0.692-6.009-0.156-11.321l1.339-6.032c1.295-2.134,3.411-0.324,4.495,0.141c2.292,0.982,1.053-0.44,3.972,1.516c4.003,2.681,7.628,1.103,8.745,1.796c-0.694,0.9-0.846,0.398-2.961,1.016c-1.609,0.471-1.406,0.413-3.125-0.325c-1.256-0.539-4.479-2.439-5.76-1.796c0.416,2.445,7.042,3.846,7.543,7.663c-2.055-0.637-3.512-1.456-5.372-2.65c-1.339-0.86-0.489-0.84-1.863-0.849c-0.032,1.904,0.4,1.492,2.193,3.473c1.219,1.346,2.251,1.499,3.058,2.924l-3.283-1.27c0.448,3.206,3.094,6.834,6.044,7.392c-1.259-2.797-2.978-1.433-3.49-4.51l2.048,0.302c0.1,0,0.201-0.002,0.294-0.009c0.897-0.068,0.381,0.029,0.851-0.223c0.571-2.424-2.713-2.878-3.969-4.97c1.214,0.554,3.939,2.77,5.135,1.404c0.454-0.461,0.716,0.194,0.286-1.382c-0.156-0.573-0.734-1.271-1.062-1.561c-1.498-1.321-1.47-0.135-2.419-2.442c2.834,0.643,1.806,1.432,5.267,0.453c1.286-0.364,1.409-0.1,2.026-0.273c1.121-0.314,0.48-0.66,1.925-1.194c-2.099,5.643-4.608,9.151-5.085,16.122c-0.187,2.738,0.308,7.261,0.549,10.136c0.561,6.686,3.58,18.106,4.813,27.509l1.959,19.751c-0.734-0.794-0.924-1.502-1.268-2.783l-5.218-24.593c-1.577-9.268-2.881-12.336-3.116-22.279c-0.032-1.361,0.494-3.129-0.015-4.363c-0.63-1.526-1.168,0.17-2.269,0.817c-0.259-0.716-4.951-10.267-5.342-10.734c-0.001,0.002-0.647,0.021-0.011,1.706c0.24,0.636,0.587,1.268,0.915,2.092c3.642,9.131,5.986,6.779,5.145,11.794c-1.601-1.541-1.966-2.692-3.131-4.968c-0.688-1.344-0.829-1.336-1.525-1.613c0.36,1.45,1.67,3.88,2.477,5.427c0.904,1.732,2.386,3.36,2.519,5.387c-1.975-1.428-5.836-9.157-6.771-11.041l-3.661-9.572c-0.397-1.513-0.398-2.288-1.48-2.926c-0.816,3.857,0.355,5.029,1.775,7.781l7.028,13.532c1.224,2.089,3.35,4.351,3.613,7.081c-1.628-0.821-2.667-3.141-3.531-4.596c-1.1-1.854-2.116-3.373-3.079-5.348c-1.124-2.306-4.18-9.74-5.35-11.11c-0.367,2.205,1.11,5.231,2.228,7.619c2.782,5.937,10.511,16.3,10.485,19.213c-3.238-2.263-8.312-13.627-10.295-17.178l-0.637-0.852C7.68,40.062,9.876,43.575,10.072,45.428L10.072,45.428z M42.537,44.472c0.232-1.59,8.588-19.589,9.414-20.868c0.691-1.07,0.516-0.548,1.081-1.841c1.299-2.972,3.961-8.077,6.872-8.514c-3.385,3.355-2.991,2.883-5.031,6.657c-0.653,1.207-1.479,2.392-2.088,3.785l-5.92,12.431C45.94,38.134,44.359,43.037,42.537,44.472L42.537,44.472z M45.371,47.124l10.473-21.808c2.779-5.675,2.595-4.871,5.391-9.289c0.982-1.551,3.636-5.042,5.603-4.984c-2.736,1.338-7.322,8.593-8.9,11.944c-0.457,0.97-0.817,1.516-1.276,2.388l-5.634,12.369c-0.887,2.445-2.344,3.07-3.145,5.303c-0.031,0.087-0.053,0.191-0.082,0.28C47.303,44.826,46.831,46.151,45.371,47.124L45.371,47.124z M64.082,19.663c0.733-3.725,8.022-10.038,10.737-11.145c-0.062,0.087-0.14,0.201-0.188,0.259l-8.103,8.159c-1.569,1.538-0.704,1.244-1.765,2.261C64.394,19.55,64.446,19.419,64.082,19.663L64.082,19.663z M67.435,18.24c0.568-1.241,1.339-2.072,2.013-3.136c1.094-1.725,1.262-1.364,2.654-2.49c1.876-1.517,2.907-3.607,5.691-4.519c-0.794,1.408-1.227,1.27-2.742,2.706L67.435,18.24L67.435,18.24z M82.406,17.435c0.082-0.036,0.196-0.083,0.245-0.107c0.049-0.025,0.182-0.08,0.242-0.112c1.93-1.044,2.596-2.783,5.831-3.942c-0.996,2.084-1.727,1.491-2.305,2.945c0.565-0.217,2.602-1.714,3.444-2.258c2.918-1.887,0.933-1.986,3.467-2.389c3.578-0.57,6.84,0.353,10.042,1.287c1.826,0.532,2.432,0.992,4.604,1.227c5.743,0.622,9.048,1.532,14.414,2.437c3.899,0.657,6.66,0.458,10.075,0.909c2.191,0.289,8.959,2.006,11.006,3.222c0.755,0.448,1.13,0.625,1.866,1.075c2.354,1.439,0.697,1.407,3.852,1.62c1.4,0.094,3.349,0.624,4.965,0.93c1.518,0.287,2.877,0.601,3.88,1.786c-5.266-1.333-14.159-4.227-15.069,2.479c-0.696,5.129,7.758,8.264,12.058,7.995c3.835-0.24,4.689-5.03,5.338-6.702l0.526-1.055c2.139,8.047-7.063,10.556-11.265,9.567c-3.774-0.887,0.032-0.344-2.975,0.163c-0.517-1.104,0.36-0.224,0-1.161c-3.391,0.505,1.685,1.536-2.668,1.048c1.041-1.74,1.213-0.839,1.917-2.233c-3.204,0.45-2.323,2.056-4.108,1.702c0.944-1.6,2.087-0.97,2.921-2.692c-3.157-0.131-2.917,3.435-5.477,1.798c1.36-0.46,2.978-1.011,3.218-2.419c-1.842,0.034-1.084,0.982-3.195,1.404c0.522-0.7,0.818-1.024,1.322-2.092c-2.118,0.813-2.055,1.713-3.947,2.069c1.16-1.785,2.257-1.472,3.239-3.634c-2.378,0.431-3.182,2.478-5.63,3.064l-1.398-0.97c0.539-2.091,2.822-1.522,2.994-3.593l-3.518,1.498l1.962-1.954c-0.077-0.06-0.215-0.094-0.266-0.12c-1.841-0.937-0.325-0.154-0.876-1.353c-1.262,0.23-1.134,0.343-2.008,0.971l-0.548-1.317l-1.094,1.565c-0.497-1.088-0.893-2.394-0.756-4.179c0.333-4.333,0.302-2.979-0.599-3.185l-0.518,5.409l-1.928,1.105c0.158,0.275,0.509,1.018,0.536,1.058c-0.983,0.362-0.852,0.438-1.849,0.873l-0.317-1.402c-0.006-0.098-0.017-0.145-0.048-0.209c-1.357,1.698-1.745,2.928-3.195,3.405c0.393-1.752,0.424-0.995,1.16-2.138c1.112-1.726,0.161-1.945,0.072-2.049c-0.453,0.708-0.584,1.216-1.184,2.08c-0.754,1.084-0.794,0.779-1.509,1.602c0.412-1.599,1.437-2.549,0.892-3.407c-1.737,0.858-2.071,3.515-3.904,4.326c0.517-1.741,1.06-1.639,1.187-3.841c-1.598,0.852-1.882,2.841-3.44,3.986l1.249-3.664c-2.103,0.932-0.407,1.346-3.472,3.723l1.646-4.827c-0.977,0.67-1.19,1.418-1.762,2.479c-0.681,1.261-0.885,1.577-2.184,2.076c0.564-1.366,1.741-2.581,0.934-3.727c-1.24,1.857-0.908,3.246-3.057,3.888c0.882-2.603,1.192-1.832,0.341-2.921c-0.335,1.147-0.355,1.521-1.301,2.058c-0.721-1.038,0.039-1.405,0.138-2.29c0.109-0.973,0.263-0.035-0.277-0.686l-1.941,2.1c-0.09-0.014-0.206-0.037-0.304-0.049l-1.143-0.044c-2.682-0.095-1.444-1.342-4.85-2.011c0.634,1.048,3.69,3.011,5.089,3.647c2.358,1.073,5.4,0.742,6.928,1.854l-0.512,0.3c-1.748,0.675,1.682-0.268-0.591,0.2c-5.437,1.12-14.031-4.986-15.183-5.15c0.929,1.927,0.765,1.554,2.756,2.467c1.613,0.74,0.619,0.302,1.783,1.151l1.417,0.963c0.043-0.075,0.172,0.116,0.238,0.267l-6.376-1.097c0.512,0.839-0.063,0.139,0.57,0.705l1.818,0.792c1.013,0.198,2.213,0.24,3.297,0.345c-2.77,0.73-7.1-1.015-8.081-0.575c1.538,1.623,5.316,1.356,7.965,1.565c-2.176,1.072-6.175,0.468-8.899,0.598c-0.023,3.487-2.329,7.22-3.518,9.655c-0.499,1.022-0.676,2.043-1.808,2.554c0.785-2.551,4.762-9.553,4.688-12.05c-1.58,0.568-2.045,3.936-3.62,7.291c-0.195,0.415-0.308,0.737-0.624,1.205l-0.959,1.03c0.358-1.418,3.606-8.821,3.011-9.917c-1.182,0.521-1.656,2.926-1.943,4.284c-0.579,2.739-4.361,9.679-6.476,11.501c0.289-1.313,7.3-13.225,6.229-15.462c-1.473,0.787-1.313,3.333-1.867,4.7c-0.552,1.363-1.608,3.347-2.214,4.408c-1.463,2.562-3.192,6.461-5.069,7.735c1.418-2.896,3.036-5.279,4.422-8.411l2.531-7.056c0.593-2.211,0.009-2.039,0.006-2.043c-0.505,0.598-1.541,4.172-1.938,5.299c-0.763,2.169-6.037,12.179-7.988,12.972c0.421-1.409,1.586-2.165,2.442-3.844c1.274-2.498,4.814-10.643,5.18-12.656c-1.702,1.197-7.487,15.984-10.682,17.466c1.347-2.74,2.688-4.191,4.137-7.663c1.065-2.551,3.304-6.034,3.578-8.216c-0.987,0.933-3.097,5.342-4.446,7.712c-1.682,2.956-3.413,4.93-4.73,7.452c-0.005-1.711,5.227-9.274,6.207-12.976c-1.482,1.054-1.673,2.413-2.411,3.859c-0.666,1.306-1.543,2.339-2.316,3.54c-2.152,3.341-2.879,5.92-5.038,6.865c1.617-2.591,6.421-9.458,6.709-12.494c-1.171,0.854-2.645,3.733-3.65,5.113c-0.662,0.909-1.104,1.58-1.801,2.595l2.908-6.274c0.323-1.199,0.354-0.3-0.037-1.215c-0.31,0.295-0.154,0.117-0.534,0.631c-1.928,2.607-6.144,10.936-10.875,13.461l4.917-6.192c1.418-2.111,3.265-4.497,4.05-7.244c-1.554,0.801-1.624,1.993-2.717,3.432c-1.387,1.826-6.405,8.621-8.099,9.291c2.551-3.907,6.255-7.523,7.617-10.565c0.141-0.315,0.275-0.77,0.295-1c0.056-0.65,0.066-0.314-0.131-0.745c-1.098,0.724-5.791,8.294-8.488,10.4c1.675-3.402,5.844-7.608,6.002-10.193c-1.328,0.334-0.141-0.283-1.095,0.723c-0.61,0.643-2.975,4.945-4.681,6.043c0.751-1.033,1.239-2.357,2.008-3.586c0.785-1.254,2.035-2.306,1.417-3.363c-0.666,0.083-2.303,2.451-2.917,3.318c-1.107,1.563-1.307,2.781-3.132,3.882c0.743-2.607,5.551-6.761,4.313-8.479C55.061,46.2,54,50.204,51.139,51.606c0.622-1.366,1.985-2.766,3.068-4.382c0.954-1.424,2.777-3.42,1.704-4.914c-0.976,1.04-0.987,1.461-1.732,2.677l-2.239,2.823c0.57-2.086,2.981-3.971,2.921-5.913c-1.921,0.101-2.57,4.145-5.089,5.799c0.77-2.276,2.533-4.099,3.312-6.371c0.752-2.194,2.005-4.885,2.279-7.297c-1.143,1.009-2.945,5.475-3.759,7.26c-0.871,1.91-2.756,5.459-4.274,6.454l9.955-20.981c0.624-1.047,0.995-1.458,1.456-2.577c1.831-4.439,1.144-2.727,4.249-7.127c0.628-0.89,1.092-1.557,1.664-2.368c0.984-1.394,4.386-4.47,6.227-4.865c-6.311,4.689-11.175,11.736-13.351,19.58l1.109-1.29c1.723-2.488,3.459-6.669,5.443-8.449c-0.647,2.103-2.417,4.754-2.857,6.726c1.46-1.115,4.003-6.745,5.647-7.201l-1.905,4.785c1.559-0.803,3.485-4.224,4.999-5.777l4.001-4.437c2.939-2.629,3.34-3.861,7.289-6.268c2.212-1.348,13.657-5.592,15.74-5.916c2.701-0.419,7.637-0.074,10.579-0.193c6.255-0.254,28.283,1.217,31.282,0.877c2.991-0.339,6.872,0.115,9.705,0.754c2.645,0.596,6.68,0.639,9.726,1.199c7.036,1.292,10.385,3.201,17.941,3.757c3.083,0.227,6.49,0.827,9.489,1.44c2.096,0.429,2.405,0.708,4.007,1.417c3.539,1.565,9.2,2.769,8.418,7.737c-0.049,0.02-0.138,0.008-0.159,0.012c-0.023,0.005-0.139,0.015-0.167,0.023c-0.996,0.262-1.472,1.452-2.239,2.184c-0.476-1.342,0.936-0.323-0.365-1.668c-1.044,0.699-1.125,1.063-1.575,2.28c-0.702-1.053,0.163-0.4-0.981-1.348c-2.748,1.355-0.211,0.237-2.263,0.3c-1.192,0.037-0.67,0.356-1.458,1.393c-0.079-0.274-0.107-0.699-0.203-0.967c-0.336-0.938,0.142-0.134-0.458-0.885c-0.953,0.686-0.379,0.377-1.188,1.07c-0.366-1.599,0.226-0.688-0.766-1.531l-1.332,0.943c-0.905-1.396,0.493-0.08-0.648-0.801c-0.967-0.611-1.065,0.016-2.273-1.051c-1.109,0.451-0.382,0.071-1.461,1.173l-0.73-2.013c-1.161,0.478-1.043,1.186-2.212,1.989c0.046-0.212,0.265-1.151,0.267-1.208c0.031-0.958,0.067-0.579-0.244-1.114c-0.983-0.167-0.819,0.089-1.304,0.828c-0.774-0.862-0.033,0.272-0.383-0.882c-0.078-0.258,0.267,0.086-0.141-0.776c-2.581,0.336-0.058,0.801-2.442,0.944c1.099-2.366,0.18-0.709-0.266-3.131c-0.315-1.71,0.467-2.309-0.578-3.772c-1.697,0.432-0.972,1.257-1.333,3.252c-0.414,2.289-0.013,0.454-0.857,1.825c-0.433,0.703-0.4,0.785-0.641,1.526l-0.339-2.381c-0.009-0.135-0.056-0.183-0.116-0.253c-1.438,1.35-0.782,3.406-2.784,3.534c0.101-1.103,1.026-1.614,1.127-2.848c0.086-1.055,0.226-0.068-0.168-0.673c-1.409,0.865-0.923,2.68-2.757,3.397l1.068-3.419c-1.879,0.614-1.463,2.537-3.558,3.519c0.405-1.092,1.18-2.31,0.913-3.152c-0.382-0.142,0.053-0.236-0.544,0.019l-2.926,3.803c0.083-1.327,1.043-1.893,1.116-3.179c0.005-0.087-0.006-0.209-0.009-0.288l-0.24-0.848c-1.094,0.73-2.993,4.143-3.811,5.074c0.04-2.117,1.625-3.533,1.85-5.179c-1.965-0.139-1.403,1.376-2.517,2.726l-0.52,0.571c-0.411,0.457-0.265,0.412-0.775,0.847c0.269-1.634,1.717-2.799,1.004-4.558c-1.597,0.684-0.905,2.414-2.624,3.499c-0.48-1.735,0.993-1.146,0.09-2.774c-1.344,0.347-0.627,0.181-1.393,1.092c-0.357,0.425-0.72,0.878-1.23,1.336c0.221-1.767,1.381-2.223,0.797-3.532c-1.073,0.466-1.517,2.112-2.698,2.82l1.193-2.855c-2.301,0.031-1.674,0.902-2.809,2.209c0.549-1.659,1.248-1.625,0.481-3.544c-0.456,0.684-1.415,1.577-2.032,2.379c-0.751,0.975-1.013,1.606-2.099,2.432c0.325-2.466,2.833-1.808,2.442-6.835c-1.805,1.048-1.164,4.193-4.268,5.731c0.441-1.461,4.899-6.986,3.217-8.63c-0.376,0.291-0.148,0.01-0.504,0.554l-0.72,1.846c-0.717,2.112-2.34,5.382-4.504,5.952c0.981-2.299,2.786-3.292,3.151-6.213c-2.348,1.285-2.565,5.049-4.931,5.476c0.52-1.049,0.743-1.368,1.392-2.424c1.997-3.25,0.306-3.217-0.918-0.551c-0.825,1.796-0.352,1.842-2.275,2.445c0.598-1.673,1.316-1.601,1.232-3.359c-1.86,0.751-1.309,3.34-3.493,3.476c0.235-1.115,0.94-1.486,1.092-2.595c0.077-0.562,0.004-0.477-0.086-0.72c-0.941,0.095-1.55,2.183-3.242,2.993c0.139-1.714,0.664-1.347,0.983-2.809c-2.803,0.348-0.884,1.308-3.332,2.508c0.26-1.244,0.748-1.628,1.141-2.968c-1.927,0.416-1.204,1.863-3.72,3.014c0.503-1.178,0.836-1.145,0.844-2.577c-1.062,0.468-1.641,1.372-2.647,1.979c0.478-1.181,1.052-1.909,1.004-3.314c-0.834,0.29-1.132,1.448-2.544,2.323l0.359-2.031l-1.468,0.468c0.16-1.327,0.554-0.91-0.182-1.922c-2.211,0.946-0.391,3.452-1.461,5.131c-1.678-1.423-0.086-3.676-2.831-3.877c0.62,1.618,0.833,1.156,1.187,3.474c-5.004-2.029-2.738-3.74-5.704-4.992c0.343,2.249,0.947,1.974,1.415,3.728c-1.879-0.605-2.092-2.271-3.697-2.899c-0.369,1.171-0.076,1.303,0.707,2.048c-0.794,0.472-0.861,0.918-1.301,1.576c-3.65-0.741-6.83-1.794-10.311-2.391c-7.108-1.218-6.703-0.53-11.391,0.376c0.498-0.836,0.055-0.116,0.585-0.705c0.076-0.085,0.322-0.323,0.395-0.403c0.692-0.751,0.074,0.331,0.696-0.823c-1.476-0.728-5.231,2.355-7.838,3.059c1.427-1.453,3.704-2.065,4.654-3.841c-2.096,0.456-3.171,1.526-4.712,2.454c-4.004,2.411-7.571,5.521-9.734,10.293c2.407-1.375,3.326-4.4,6.16-5.268c-0.787,0.607-2.691,3.326-3.263,4.763c2.483-1.385,4.482-5.147,7.531-6.029l-1.392,1.448c-1.204,1.047-2.599,2.343-3.195,3.752c1.382-0.784,6.603-5.94,8.376-6.444C85.243,14.773,83.527,15.016,82.406,17.435L82.406,17.435z M150.85,21.328c7.6-0.414,15.719-0.17,22.99,1.494c4.466,1.022,19.648,2.319,22.388,1.17c3.504-1.469,4.429-4.831,3.342-8.002c-0.6-1.75-3.853-4.834-6.463-5.981c-6.304-2.769-13.371-2.881-20.272-4.192c-20.648-3.921-22.885-4.787-43.762-5.15c-8.931-0.155-31.126-1.862-38.376,0.875l-9.111,3.297c-8.215,1.694-27.45,7.541-33.634,11.063l-11.025,5.362c-3.443-8.898-5.366-7.492-15.193-8.433c-5.964-0.57-15.317-7.617-17.598-2.837C0.9,16.771,2.432,23.619,1.423,31.213C-0.646,46.781-0.522,48.96,2.208,64.012c0.679,3.742,1.644,5.447,2.091,9.682c0.328,3.106,1.093,7.471,1.782,10.373c0.451,1.901,1.421,2.486,2.096,3.814c0.574,1.129,0.962,3.058,1.491,4.383c0.717,1.798,1.035,2.744,3.318,2.821c4.777,0.159,3.252-1.661,16.368-0.223c3.711,0.407,7.045,1.213,10.381-0.362c2.989-1.412,4.27-5.771,5.036-6.812c3.314,1.501,3.333,1.662,7.206,2.761c6.566,1.863,17.265,4.275,23.859,4.622c7.631,0.402,20.543,1.034,28.098,0.914l16.846-2.641c5.362-0.892,6.312-3.054,8.474-5.796c0.361-0.458,0.678-0.89,1.15-1.412c5.219-5.775,3.721-8.288,2.971-12.24c-0.563-2.966,2.982-2.213,6.302-7.502c2.134-3.398,3.263-7.05,2.693-11.216c-0.266-1.948-0.797-1.935-1.309-3.48c0.837-1.688,2.951-3.131,4.688-4.951c1.303-1.366,2.959-4.317,3.057-6.557c3.085,0.313,7.311-0.663,9.298-1.972c1.929-1.27,3.8-3.691,4.229-6.811C163.568,22.44,151.736,24.012,150.85,21.328L150.85,21.328z"/><path id="XMLID_9_" fill="#2B2B2B" d="M68.141,23.005c1.476-0.654,1.324-0.885,2.01-2.04c0.948-1.598,2.922-3.173,3.845-4.227l3.699-4.371c1.356-1.663,6.199-3.213,6.788-5.102c-1.587,0.182-3.967,1.823-5.214,2.638c-0.797,0.521-4.119,2.908-4.658,3.408C72.977,14.826,68.758,21.073,68.141,23.005L68.141,23.005z"/><path id="XMLID_8_" fill="#2B2B2B" d="M12.253,32.878c0.041-0.775-2.304-9.117-3.563-10.15C7.371,25.127,11.435,32.357,12.253,32.878L12.253,32.878z"/><path id="XMLID_7_" fill="#2B2B2B" d="M89.183,16.056c1.952-0.827,3.388-2.024,4.771-3.382c-0.955-0.516-1.966,0.273-2.642,0.906L89.183,16.056L89.183,16.056z"/><path id="XMLID_6_" fill="#2B2B2B" d="M133.227,34.489c2.355-0.106,3.435-1.131,4.202-2.695C136.942,31.883,133.658,33.523,133.227,34.489L133.227,34.489z"/><path id="XMLID_5_" fill="#2B2B2B" d="M122.25,86.906c1.472-0.075,1.681-1.179,2.354-2.304C123.465,84.596,122.421,85.558,122.25,86.906L122.25,86.906z"/><path id="XMLID_4_" fill="#2B2B2B" d="M100.798,26.8c1.179,1.932,0.223,1.012,2.263,2.327C103.057,27.644,102.063,26.826,100.798,26.8L100.798,26.8z"/><path id="XMLID_3_" fill="#2B2B2B" d="M124.51,86.63c1.559-0.054,1.586-0.742,2.103-2.12C125.308,85.073,125.24,85.544,124.51,86.63L124.51,86.63z"/><path id="XMLID_2_" fill="#2B2B2B" d="M144.743,28.873c0.302,0.206,0.32,1.214,2.088-0.138C143.685,27.823,145.379,28.416,144.743,28.873L144.743,28.873z"/><path id="XMLID_1_" fill="#2B2B2B" d="M103.902,30.738c0.873-0.361,1.388,0.311,0.755-1.118C103.775,30.069,104.18,29.137,103.902,30.738L103.902,30.738z"/></g></svg>
