<svg version="1.1" xmlns="http://www.w3.org/2000/svg" x="0px" y="0px" viewBox="0 0 120 120" width="120" height="120" enable-background="new 0 0 120 120"><rect y="0" fill="none" width="120" height="120"/><g><path fill="#DDF03B" d="M71.122,7.6c10.592,0,19.331,8.667,19.331,19.467v54.667C90.453,98.667,76.815,112.4,60,112.4S29.547,98.667,29.547,81.733V27.067C29.547,16.4,38.153,7.6,48.878,7.6H71.122 M71.122,0H48.878C34.049,0,22,12.133,22,27.067v54.667C22,102.8,38.948,120,60,120l0,0c21.052,0,38-17.2,38-38.267V27.067C98,12.133,85.951,0,71.122,0L71.122,0z"/></g><g><path fill="#DDF03B" d="M60,62.5c-0.3,0-0.7-0.1-1-0.3L50.2,56c-0.8-0.5-1-1.6-0.4-2.4c0.5-0.8,1.6-1,2.4-0.4l7.8,5.5l7.8-5.5c0.8-0.5,1.8-0.4,2.4,0.4c0.5,0.8,0.4,1.8-0.4,2.4L61,62.2C60.7,62.4,60.3,62.5,60,62.5z"/></g><g><path fill="#DDF03B" d="M60.1,75.8c-0.3,0-0.7-0.1-1-0.3l-8.8-6.2c-0.8-0.5-1-1.6-0.4-2.4c0.5-0.8,1.6-1,2.4-0.4l7.8,5.5l7.8-5.5c0.8-0.5,1.8-0.4,2.4,0.4c0.5,0.8,0.4,1.8-0.4,2.4l-8.8,6.2C60.8,75.7,60.5,75.8,60.1,75.8z"/></g><g><path fill="#DDF03B" d="M60,88.8c-0.3,0-0.7-0.1-1-0.3l-8.8-6.2c-0.8-0.5-1-1.6-0.4-2.4c0.6-0.8,1.6-1,2.4-0.4L60,85l7.8-5.5c0.8-0.5,1.8-0.4,2.4,0.4c0.5,0.8,0.4,1.8-0.4,2.4L61,88.5C60.7,88.7,60.3,88.8,60,88.8z"/></g><path fill="#DDF03B" d="M60,46.3c-1.9,0-3.4-1.5-3.4-3.4v-7.5c0-1.9,1.5-3.4,3.4-3.4s3.4,1.5,3.4,3.4v7.5C63.4,44.8,61.9,46.3,60,46.3z"/></svg>
