<svg version="1.1" xmlns="http://www.w3.org/2000/svg" x="0px" y="0px" viewBox="0 0 256 512" width="256px" height="512px" enable-background="new 0 0 256 512"><g><path fill="#393939" d="M209.5,512c0,0,46.5,0,46.5-46.5V46.5C256,0,209.5,0,209.5,0H46.5C46.5,0,0,0,0,46.5v418.9C0,512,46.5,512,46.5,512H209.5z M128,492.6c-12.8,0-23.3-10.4-23.3-23.2c0-12.8,10.4-23.2,23.3-23.2c12.8,0,23.3,10.4,23.3,23.2S140.8,492.6,128,492.6z M93.1,28.4c0-2.9,1.4-5.1,3.1-5.1h63.6c1.7,0,3.1,2.3,3.1,5.1v1.4c0,2.9-1.4,5.1-3.1,5.1H96.2c-1.7,0-3.1-2.3-3.1-5.1C93.1,29.7,93.1,28.4,93.1,28.4z M23.3,58.1h209.5v371.8H23.3V58.1z"/></g></svg>
