<svg version="1.1" xmlns="http://www.w3.org/2000/svg" x="0px" y="0px" viewBox="0 0 600 244" width="600px" height="244px" enable-background="new 0 0 600 244"><path fill="#E6E6E6" d="M102.2,170.8c-9.8-28.8-7.7-62.3,4.7-89.9c10.2-22.6,31.5-43.7,50.5-59.4c13.3-11,27.6-16,44.7-14.6c0.7-2.3,1.4-4.6,2.1-6.8c-10.8,0.7-20.1,14.6-25.5,22.1c-33.3,46.2-46.1,102.7-72.9,152.2c-12.7,23.4-54.6,82.8-88.7,57.3c-15.9-11.8-3.3-34.3,8.3-43.7c25.1-20.1,59.9-28.6,87.5-45.1c5.5-3.3-2.4-6.5-6.3-4.2c-29,17.3-63.9,26.3-90.4,47.4c-11.8,9.6-21.1,27.8-13.4,42.6c13.9,26.9,51.3,12.7,69.3-0.6c52.7-38.7,66.4-113,94.2-168.2c8.1-16.1,17.1-32.5,29.2-45.9c2.1-2.3,4.7-4.9,7.4-6.5c1.8-1,1.7-0.6,0.5-0.5c4.1-0.2,8.1-6.4,2.1-6.8c-42.9-3.3-72,30.5-96.5,61.4c-23.9,30.1-28.5,75.9-16.4,111.8C94.1,177.6,103.6,175,102.2,170.8L102.2,170.8 M179.8,160c1.5-13.8,7.3-54.7,26.2-54.3c15.3,0.3,5.4,23.7,2,30.2c-4.3,8.1-17.9,28.7-29.2,22.2c-3-1.7-11.7,2.5-7.5,4.9c14.2,8.1,30.3-5.3,38.6-16c7.5-9.6,22.1-32.6,9.6-43.7c-12.9-11.4-30.4,2.9-36.7,13.9c-7.5,13-10.9,29.1-12.5,43.8C169.7,165.3,179.4,163.6,179.8,160 M292.7,80.2c9.9-8.1,19.2-18.3,23.2-30.6c4.8-14.9-9.8-22.4-22.1-18.9c-18.7,5.4-32.3,27.5-41.1,43.1c-6.9,12.3-11.3,26.2-15.2,39.7c-2.1,7.4-3.1,24.4-10.3,29c2.5,0.6,5,1.3,7.5,1.9c3.8-7.1,8.2-13.9,13-20.4c1-1.3,13.7-14.7,12.8-11c-0.8,3.5-3.1,7-4.7,10.2c-6.8,14-0.5,18.8,13.9,15.4c5.9-1.4,4.4-6.7-1.4-5.3c-16.8,4,14.2-28.4-4.1-28.2c-17.9,0.2-31.3,25.5-38.5,38.9c-2.3,4.3,5.8,3,7.5,1.9c7.2-4.7,8.7-13.8,10.7-21.5c5.3-20.6,11.7-40.4,22.8-58.7c5.4-8.9,12.2-16.9,19.9-23.9c13.9-12.7,23.7,0.5,17.7,13.9c-4,8.9-12,16.6-19.5,22.7C280.6,81.7,290.1,82.3,292.7,80.2L292.7,80.2 M285.2,111.8c1.7-1.3,6.9-4.5,8-4.6c1.3-0.1,0,6-0.2,6.8c-2.7,9.6-8.5,18.5-13.6,26.9c3.1-0.2,6.1-0.5,9.2-0.7c3-5.9,6.3-11.7,9.8-17.3c2.7-4.3,5.5-8.4,8.7-12.2c1.4-1.7,2.9-3.2,4.6-4.6c1.3-0.7,1-0.8-0.8-0.1c0.8,0.5,1.2,1.4,1.5,2.3c1.7,5.1-8.5,13.4-10.7,17.8c-4.8,9.5,11.3,12.2,17,13.2c2.7,0.5,11.2-3.9,6-4.8c-4.4-0.8-15.8-1.9-13.8-8.9c1.2-4.1,5.4-7.6,7.9-10.9c4.4-5.8,4.2-14.9-5.4-13.6c-9.9,1.3-16.2,10.6-21.4,18.2c-4.9,7.1-9.2,14.7-13,22.4c-1.3,2.5,7.9,1.5,9.2-0.7c2.5-4.1,24.9-36.8,10.3-38.4c-7.4-0.8-15.2,4.1-21,8.3C273.4,113.7,283,113.4,285.2,111.8L285.2,111.8 M393.6,84.2c15.2,1,31.7-1.8,45.8-7.4c21.4-8.5,51-29,53.3-54.3c1.6-17.2-26-0.7-30,3c-11.2,10.3-18.4,22.6-24.4,36.4c-8.7,19.8-20,38.6-33.1,55.8c-8.5,11.2-26.4,34.7-42.7,26.8c-0.7-3.6,0.8-4.4,4.5-2.4c4.9,1.4,7.9,6.8,9.9,11c1.7,3.6,2.4,7.4,4.3,10.9c8.2,15.2,26,25.8,41.2,32.8c16.3,7.5,35,10.4,52.1,4c20.7-7.8,26.8-31.6,28-51.3c0.3-4.8-9.4-3.3-9.7,0.8c-1.6,25.1-11.3,49.3-40.3,47.2c-19.6-1.5-39.3-12.9-53.3-26.2c-11.6-11.1-12.1-31.4-28.9-36.2c-6.8-1.9-25.9,3.1-17.5,12.8c11.3,13.1,33.3-0.2,42.5-8.5c24.1-21.9,41.1-51.7,54.1-81.2c6.1-13.9,15.4-28.1,29.1-35.6c7.7-4.2,3.1,6.5,1.7,9.5c-4.7,10.2-12.9,19-21.4,26.1c-16.2,13.5-40.7,20.6-61.8,19.1C392.5,77.2,387.1,83.7,393.6,84.2L393.6,84.2 M435.5,140.1c1.6-6.7,13.4-46.3,22.2-39.7c6.7,5.1,1.6,18.8-1,24.7c-3.6,8.4-11.6,21.7-21.5,14c-2.3-1.8-11,1.9-9,3.5c11.1,8.6,25.1,2.1,33.1-7.5c6.5-7.8,16.3-26.9,8.6-36.7c-8.5-10.9-23.6,1.1-28.7,9.1c-6.5,10.2-10.4,22.4-13.2,34.1C425.3,144.4,434.8,142.9,435.5,140.1 M507.4,104.3c0.1-5,0.3-14.1-4.4-17.3c-10.2-6.9-19.1,9.9-23.4,16.2c-5.1,7.5-13.5,17.2-12.3,26.9c1.4,11,21.2,9,28.2,8.4c5.3-0.4,7.4-7.4,0.9-6.9c-4.3,0.3-19.4,2.6-19.6-4.9c-0.1-6.1,5.3-12.7,8.5-17.5c2.2-3.3,4.5-6.6,6.8-9.9c1.6-2.3,3.2-4.8,5.3-6.7c-2-0.8-2.5-0.7-1.6,0.3c0.3,0.5,0.5,1,0.6,1.5c1.2,3.3,1.3,7.2,1.2,10.7C497.7,110,507.4,108.5,507.4,104.3L507.4,104.3 M569.1,75.8c9.5-7.5,21.7-17.6,24.8-29.8c2.8-11-14.6-11.5-20.8-9c-19.4,7.9-30.9,29.8-40.3,47c-6.1,11.1-11.5,22.7-16.5,34.3c-1.3,2.9-4.3,15.2-7.8,16.1c-5.8,1.4-4.5,6.1,1.3,4.6c5.4-1.3,8.6-4.3,10.8-9.3c7.7-17.2,15-34.4,24-51c5.8-10.7,12.6-21,21-29.8c3.8-4,19-14.3,18.7-1.6c-0.2,10.2-15.5,21.2-22.9,27.1C557.2,77.7,566.8,77.7,569.1,75.8L569.1,75.8 M540.4,89.5c3.5-3.2,8.3-2.5,5.9,3.3c-2.1,5-7.5,9.4-11.5,12.8c-4.8,4.1-10.1,7.7-15.5,11c-1.7,1-2.5,3.5-0.6,4.7c20.9,13.3,47.2,9.8,65.3-6.2c4.9-4.3,17.6-17.2,12.4-25.1c-3.8-5.9-12.6-4.8-18.2-2.7c-19.8,7.4-31.6,36.8-12.6,51.7c9.2,7.2,40.8,1.7,33.3-14.3c-1.9-4-11.3-1.2-9.6,2.6c2.1,4.6-1.6,7-5.7,8.2c-7.6,2.2-13.6-3.1-16.3-9.7c-5.2-12.9,2-29.4,15.5-33.2c7-2,4.3,5.7,2.6,8.9c-6.1,11.4-18.8,19.5-31.4,21.2c-9.3,1.2-20.1-1.8-27.9-6.8c-0.2,1.6-0.4,3.1-0.6,4.7c11.6-7.1,28.3-17.6,31.4-31.8c3.8-17.2-19.3-6.7-24.5-2C528.1,90.9,537.4,92.2,540.4,89.5L540.4,89.5z"/></svg>
