<svg version="1.1" xmlns="http://www.w3.org/2000/svg" x="0px" y="0px" viewBox="0 0 512 512" enable-background="new 0 0 512 512"><rect fill-rule="evenodd" clip-rule="evenodd" fill="none" width="512" height="512"/><path fill-rule="evenodd" clip-rule="evenodd" fill="none" d="M249.879,394.302c15.935-9.321,25.77,15.108,12.616,21.434C246.774,423.297,235.802,402.536,249.879,394.302L249.879,394.302z M298.384,386.126c13.903-5.639,23.044,17.259,8.462,22.95C291.624,415.017,280.534,393.366,298.384,386.126L298.384,386.126z M206.665,386.217c14.091-6.337,23.513,17.739,8.443,22.991C200.462,414.313,188.923,394.197,206.665,386.217L206.665,386.217z M338.283,365.34c15.639-7.119,25.203,17.312,8.977,22.938C332.155,393.515,323.658,371.998,338.283,365.34L338.283,365.34z M163.988,365.957c16.082-7.592,23.877,15.21,10.818,21.697c-9.301,4.62-21.737-3.734-17.479-15.594C159.74,365.339,159.847,367.912,163.988,365.957L163.988,365.957z M370,334.033c14.627-9.92,25.72,12.718,12.85,20.292C369.971,361.905,354.106,344.811,370,334.033L370,334.033z M130.378,333c15.75-8.391,24.6,16.116,11.486,22.03C126.617,361.906,116.003,340.66,130.378,333L130.378,333z M393.793,291.258c14.456-5.577,22.092,17.442,8.395,22.976C386.78,320.46,375.374,298.364,393.793,291.258L393.793,291.258z M111.747,291.574c15.515-6.23,21.32,18.535,8.175,22.844c-8.298,2.72-14.431-1.419-16.469-7.49C99.488,295.123,109.457,292.493,111.747,291.574L111.747,291.574z M237.862,148.18c66.302-11.566,117.649,36.169,126.759,90.428c10.958,65.257-36.611,116.829-90.744,125.561c-65.564,10.575-116.741-35.588-126.163-89.533C136.081,208.038,183.586,157.648,237.862,148.18L237.862,148.18z M410.652,245.724c3.606,4.844,8.248,9.543,4.943,17.252c-2.103,4.903-8.871,8.519-16.475,5.593C388.823,264.609,386.274,242.077,410.652,245.724L410.652,245.724z M101.506,245.737c24.564-3.743,21.954,18.963,11.522,22.859c-7.992,2.984-15.05-0.943-16.895-6.931C93.778,254.021,98.129,250.305,101.506,245.737L101.506,245.737z M390.848,200.92c15.855-9.636,26.514,16.175,11.422,22.017C386.224,229.147,378.069,208.686,390.848,200.92L390.848,200.92z M108.989,201.301c16.343-8.937,25.52,14.225,12.214,21.15C106.481,230.114,94.782,209.07,108.989,201.301L108.989,201.301z M372.724,158.677c16.034-4.747,21.808,19.173,7.512,23.519C364.22,187.064,355.51,163.772,372.724,158.677L372.724,158.677z M129.309,160.65c15.086-10.182,27.035,12.665,13.326,20.423C128.491,189.076,115.941,169.672,129.309,160.65L129.309,160.65z M338.682,126.553c15.904-7.346,23.857,17.763,8.742,22.92C332.245,154.651,323.279,133.667,338.682,126.553L338.682,126.553z M164.636,126.254c15.597-5.611,23.682,17.658,9.179,23.096C157.966,155.294,148.748,131.97,164.636,126.254L164.636,126.254z M295.971,106.251c16.066-9.016,25.153,15.05,12.512,21.428C292.921,135.53,281.396,114.431,295.971,106.251L295.971,106.251z M204.427,106.455c16.811-8.828,24.687,15.015,12.2,21.242c-8,3.99-15.568,0.115-17.825-5.594C195.541,113.852,199.239,109.179,204.427,106.455L204.427,106.455z M252.807,98.204c15.375-5.661,20.903,18.277,8.175,22.86C245.382,126.68,235.048,104.743,252.807,98.204L252.807,98.204z M238.826,67.21c-100.422,9.474-182.909,95.321-172.361,207.3c9.335,99.106,97.054,181.455,208.815,170.43c98.988-9.765,180.972-96.225,170.374-207.719C436.346,139.307,349.491,56.77,238.826,67.21L238.826,67.21z"/><path id="XMLID_45_" fill-rule="evenodd" clip-rule="evenodd" fill="#D83544" d="M238.826,67.21c110.665-10.44,197.52,72.097,206.827,170.012c10.598,111.494-71.386,197.953-170.374,207.719C163.518,455.966,75.8,373.617,66.465,274.511C55.917,162.532,138.404,76.685,238.826,67.21L238.826,67.21z M230.792,16.2c-6.184-7.751-16.164-13.377-29.308-10.472c-14.232,3.145-14.388,12.908-21.116,20.897c-8.054-5.743-17.43-10.383-29.887-3.979c-14.065,7.231-10.214,12.64-16.06,24.142c-24.521-7.976-42.007,3.682-40.245,30.046c-12.85-1.881-23.322,0.578-29.487,7.827c-7.673,9.023-6.032,17.058-5.07,29.903c-25.029,0.261-35.209,19.814-25.38,42.955c-10.431,5.386-30.024,12.074-22.757,36.083c2.031,6.712,5.305,8.544,7.755,13.217c-16.766,4.895-30.359,26.506-5.958,49.003c-5.685,6.351-14.164,13.094-12.884,26.9c1.437,15.497,9.685,17.143,18.222,23.946c-13.678,18.726-10.117,43.317,16.193,46.977c-9.91,24.867-2.223,43.847,25.303,44.01c-6.006,25.409,7.833,41.494,34.126,37.734c-1.056,12.601,1.956,20.863,9.68,27.085c10.822,8.716,17.898,6.202,31.52,2.898c2.01,25.521,23.316,33.576,44.918,20.704c0.176,0.208,17.065,36.907,45.028,14.707c4.097-3.252,1.782-2.123,6.409-4.742c8.127,21.196,40.549,21.364,48.581-0.008c1.324,0.735,30.366,27.513,47.558-3.321c0.774-1.389,0.987-2.008,1.779-3.384c0.188-0.326,0.483-0.806,0.657-1.098c0.174-0.291,0.548-0.841,0.693-1.076c0.145-0.235,0.439-0.739,0.709-1.071c20.725,14.444,43.06,3.133,44.959-20.735c13.551,3.319,20.718,5.831,31.538-2.823c7.734-6.186,10.69-14.576,9.658-27.151c27.139,3.966,39.191-12.524,34.146-37.725c27.263-0.104,35.334-19.392,25.287-43.997c25.758-3.564,30.019-28.517,16.255-46.982c8.357-6.789,15.965-7.861,18.027-22.467c2.346-16.628-7.27-20.099-13.133-28.814c18.942-12.986,18.497-41.588-5.552-48.585c4.829-8.756,12.658-16.355,7.438-30.779c-4.382-12.11-11.525-12.8-22.446-18.505c11.429-26.674-0.478-39.972-25.997-43.459c9.214-23.004-7.933-41.074-33.947-37.217c1.692-26.71-15.66-37.749-40.299-30.063c-5.869-11.96-1.852-16.086-14.941-23.564c-12.728-7.272-22.355-2.492-31.015,3.376c-6.686-8.098-6.859-17.753-21.097-20.876c-13.226-2.901-23.031,2.78-29.315,10.491c-5.761-8.779-11.108-15.889-24.468-16.197C242.274-0.326,237.017,7.076,230.792,16.2L230.792,16.2z"/><path id="XMLID_20_" fill-rule="evenodd" clip-rule="evenodd" fill="#D83544" d="M249.879,394.302c-14.077,8.233-3.105,28.994,12.616,21.434C275.649,409.411,265.814,384.982,249.879,394.302L249.879,394.302z"/><path id="XMLID_19_" fill-rule="evenodd" clip-rule="evenodd" fill="#D83544" d="M390.848,200.92c-12.779,7.766-4.624,28.227,11.422,22.017C417.362,217.096,406.703,191.284,390.848,200.92L390.848,200.92z"/><path id="XMLID_18_" fill-rule="evenodd" clip-rule="evenodd" fill="#D83544" d="M295.971,106.251c-14.576,8.18-3.05,29.278,12.512,21.428C321.124,121.301,312.037,97.235,295.971,106.251L295.971,106.251z"/><path id="XMLID_17_" fill-rule="evenodd" clip-rule="evenodd" fill="#D83544" d="M204.427,106.455c-5.188,2.725-8.886,7.398-5.625,15.648c2.256,5.709,9.824,9.583,17.825,5.594C229.114,121.469,221.238,97.626,204.427,106.455L204.427,106.455z"/><path id="XMLID_16_" fill-rule="evenodd" clip-rule="evenodd" fill="#D83544" d="M372.724,158.677c-17.214,5.095-8.504,28.387,7.512,23.519C394.533,177.85,388.758,153.93,372.724,158.677L372.724,158.677z"/><path id="XMLID_15_" fill-rule="evenodd" clip-rule="evenodd" fill="#D83544" d="M164.636,126.254c-15.888,5.715-6.67,29.04,9.179,23.096C188.318,143.912,180.234,120.643,164.636,126.254L164.636,126.254z"/><path id="XMLID_14_" fill-rule="evenodd" clip-rule="evenodd" fill="#D83544" d="M338.283,365.34c-14.625,6.657-6.128,28.175,8.977,22.938C363.486,382.652,353.922,358.221,338.283,365.34L338.283,365.34z"/><path id="XMLID_13_" fill-rule="evenodd" clip-rule="evenodd" fill="#D83544" d="M393.793,291.258c-18.419,7.105-7.013,29.201,8.395,22.976C415.885,308.7,408.249,285.681,393.793,291.258L393.793,291.258z"/><path id="XMLID_12_" fill-rule="evenodd" clip-rule="evenodd" fill="#D83544" d="M338.682,126.553c-15.404,7.114-6.438,28.099,8.742,22.92C362.54,144.316,354.586,119.206,338.682,126.553L338.682,126.553z"/><path id="XMLID_11_" fill-rule="evenodd" clip-rule="evenodd" fill="#D83544" d="M101.506,245.737c-3.377,4.568-7.729,8.284-5.373,15.928c1.846,5.988,8.903,9.915,16.895,6.931C123.46,264.7,126.07,241.994,101.506,245.737L101.506,245.737z"/><path id="XMLID_10_" fill-rule="evenodd" clip-rule="evenodd" fill="#D83544" d="M108.989,201.301c-14.207,7.769-2.509,28.813,12.214,21.15C134.509,215.526,125.332,192.364,108.989,201.301L108.989,201.301z"/><path id="XMLID_9_" fill-rule="evenodd" clip-rule="evenodd" fill="#D83544" d="M206.665,386.217c-17.742,7.98-6.204,28.096,8.443,22.991C230.179,403.956,220.756,379.88,206.665,386.217L206.665,386.217z"/><path id="XMLID_8_" fill-rule="evenodd" clip-rule="evenodd" fill="#D83544" d="M410.652,245.724c-24.378-3.648-21.829,18.884-11.532,22.845c7.604,2.925,14.372-0.69,16.475-5.593C418.9,255.267,414.258,250.568,410.652,245.724L410.652,245.724z"/><path id="XMLID_7_" fill-rule="evenodd" clip-rule="evenodd" fill="#D83544" d="M298.384,386.126c-17.85,7.241-6.76,28.892,8.462,22.95C321.428,403.385,312.287,380.487,298.384,386.126L298.384,386.126z"/><path id="XMLID_6_" fill-rule="evenodd" clip-rule="evenodd" fill="#D83544" d="M130.378,333c-14.375,7.659-3.76,28.906,11.486,22.03C154.978,349.116,146.127,324.609,130.378,333L130.378,333z"/><path id="XMLID_5_" fill-rule="evenodd" clip-rule="evenodd" fill="#D83544" d="M163.988,365.957c-4.141,1.955-4.247-0.619-6.66,6.103c-4.259,11.86,8.178,20.214,17.479,15.594C187.865,381.168,180.07,358.365,163.988,365.957L163.988,365.957z"/><path id="XMLID_4_" fill-rule="evenodd" clip-rule="evenodd" fill="#D83544" d="M129.309,160.65c-13.368,9.022-0.818,28.427,13.326,20.423C156.344,173.314,144.395,150.468,129.309,160.65L129.309,160.65z"/><path id="XMLID_3_" fill-rule="evenodd" clip-rule="evenodd" fill="#D83544" d="M111.747,291.574c-2.29,0.92-12.259,3.549-8.294,15.354c2.038,6.07,8.171,10.209,16.469,7.49C133.067,310.108,127.262,285.343,111.747,291.574L111.747,291.574z"/><path id="XMLID_2_" fill-rule="evenodd" clip-rule="evenodd" fill="#D83544" d="M370,334.033c-15.894,10.778-0.029,27.872,12.85,20.292C395.721,346.751,384.627,324.113,370,334.033L370,334.033z"/><path id="XMLID_1_" fill-rule="evenodd" clip-rule="evenodd" fill="#D83544" d="M252.807,98.204c-17.759,6.539-7.425,28.476,8.175,22.86C273.71,116.481,268.182,92.543,252.807,98.204L252.807,98.204z"/><path id="XMLID_47_" fill-rule="evenodd" clip-rule="evenodd" fill="#D83544" d="M237.787,148.117c66.302-11.566,117.649,36.169,126.759,90.428c10.958,65.257-36.611,116.829-90.744,125.561c-65.564,10.575-116.741-35.588-126.163-89.533C136.006,207.976,183.512,157.586,237.787,148.117L237.787,148.117z"/><g id="XMLID_50_"><path id="XMLID_51_" fill="#1F1F1F" d="M176.271,303.727c0-2.362,0.988-3.545,2.965-3.545c0.988,0,2.288,0.333,3.899,0.999c1.611,0.667,3.007,0.999,4.189,0.999c1.181,0,2.459-0.751,3.835-2.256c1.375-1.504,2.449-3.373,3.223-5.607c1.589-4.554,2.385-8.669,2.385-12.343s-0.645-7.615-1.934-11.827c-1.289-4.21-2.858-8.163-4.705-11.859c-1.848-3.694-3.717-7.39-5.607-11.085c-4.469-8.808-6.682-16.843-6.639-24.105c-0.043-6.875,2.127-12.267,6.51-16.178c2.32-2.063,5.048-3.094,8.186-3.094c1.589,0,3.136,0.441,4.641,1.321c1.503,0.881,2.556,2.03,3.158,3.448l-2.256,2.836c-2.191,0-3.911-0.429-5.156-1.289c-1.633,0.172-3.051,0.946-4.254,2.32c-2.191,2.536-3.287,5.662-3.287,9.378c0,3.717,0.472,7.337,1.418,10.86c0.945,3.524,2.127,6.682,3.545,9.475c1.418,2.793,2.943,5.823,4.576,9.088c1.676,3.266,3.223,6.403,4.641,9.41c3.308,6.961,4.963,14.481,4.963,22.559c0.042,5.672-1.397,11.129-4.318,16.371c-1.375,2.492-3.266,4.544-5.672,6.155c-2.407,1.611-5.092,2.417-8.057,2.417c-3.18,0-5.683-0.474-7.509-1.418C177.184,305.811,176.271,304.802,176.271,303.727z"/><path id="XMLID_53_" fill="#1F1F1F" d="M228.22,228.64l-0.258,17.016l1.16,30.357l1.096,23.719c0,4.297-1.268,6.445-3.803,6.445c-1.461,0-2.536-0.688-3.223-2.063c-0.688-1.375-1.031-2.9-1.031-4.576l1.031-21.076c0-4.554-0.301-11.408-0.902-20.561c-0.602-9.152-0.902-16.005-0.902-20.56l0.193-11.537c0-6.316-0.409-10.419-1.225-12.311l-7.154,0.709c-1.118,0-2.117-0.333-2.997-0.999c-0.881-0.666-1.321-1.525-1.321-2.578c0-1.052,1.052-1.944,3.158-2.675c2.148-0.773,4.726-1.332,7.734-1.676c5.285-0.601,9.732-0.902,13.342-0.902c1.074,0,2.051,0.354,2.933,1.063c0.88,0.709,1.321,1.601,1.321,2.675c0,1.075-0.387,1.923-1.16,2.546c-0.773,0.624-1.719,0.935-2.836,0.935l-4.705-0.258c-0.602,0-1.053,0.022-1.354,0.064C227.919,217.469,228.22,222.883,228.22,228.64z"/><path id="XMLID_55_" fill="#1F1F1F" d="M269.342,305.21c-2.707,0-4.061-1.138-4.061-3.416v-17.209c-1.248-0.858-3.492-1.589-6.736-2.191c-3.244-0.601-6.134-0.987-8.668-1.16c-0.902,1.547-1.644,3.781-2.224,6.703c-0.58,2.923-1.182,5.865-1.805,8.83c-0.624,2.965-1.45,5.308-2.481,7.025c-3.438,0-5.372-0.88-5.801-2.643c1.203-1.718,3.158-10.506,5.865-26.361s4.931-28.262,6.671-37.221s3.619-16.489,5.64-22.591c2.02-6.101,3.953-9.152,5.801-9.152c1.846,0,3.264,0.387,4.254,1.16c0,3.137,0.859,11.624,2.578,25.459c1.717,13.836,2.578,22.784,2.578,26.844s0.461,10.808,1.385,20.238c0.924,9.433,1.387,16.511,1.387,21.237C273.725,303.727,272.264,305.21,269.342,305.21z M263.799,262.123c-0.773-7.799-1.473-15.231-2.096-22.3c-0.623-7.068-0.934-11.344-0.934-12.826s0.021-2.331,0.064-2.546c-1.377,1.418-3.363,9.303-5.963,23.654c-2.6,14.352-3.985,23.44-4.157,27.263c3.651,0.989,6.713,1.482,9.184,1.482s4.223-0.129,5.254-0.387C265.024,274.703,264.573,269.922,263.799,262.123z"/><path id="XMLID_58_" fill="#1F1F1F" d="M282.684,301.407l0.516-77.408v-16.242c0-1.031,0.215-1.761,0.645-2.191c0.429-0.429,1.557-0.645,3.384-0.645c1.826,0,3.674,0.441,5.543,1.321c1.869,0.881,3.448,2.052,4.737,3.513c1.246,1.547,2.32,3.266,3.223,5.156c1.718,3.653,2.578,7.627,2.578,11.924c0,4.297-1.074,9.217-3.223,14.76c-0.258,0.602-0.773,1.869-1.547,3.803s-1.225,3.073-1.354,3.416c0.042,6.532,1.697,15.017,4.963,25.458c1.117,3.524,2.707,8.347,4.77,14.47s3.352,10.001,3.867,11.634v0.322c0,2.965-0.345,4.694-1.031,5.188c-0.688,0.493-1.418,0.741-2.191,0.741c-1.634,0-3.223-1.183-4.77-3.545v-0.451c-0.43-7.992-3.181-20.087-8.25-36.287c-2.32-7.39-3.932-12.868-4.834-16.435v52.013c0,1.332-0.236,2.363-0.709,3.094c-0.474,0.73-1.332,1.096-2.578,1.096c-1.247,0-2.182-0.354-2.804-1.063c-0.623-0.709-0.935-1.579-0.935-2.61V301.407z M289.967,210.98l-0.709,26.941c0,2.707,0.042,4.727,0.129,6.059c1.504-1.418,2.986-3.115,4.447-5.092l2.063-11.408c0.129-0.601,0.193-1.289,0.193-2.063c0-2.105-0.43-4.662-1.289-7.67C293.598,213.622,291.987,211.366,289.967,210.98z"/><path id="XMLID_61_" fill="#1F1F1F" d="M326.576,228.64l-0.258,17.016l1.16,30.357l1.096,23.719c0,4.297-1.268,6.445-3.803,6.445c-1.461,0-2.536-0.688-3.223-2.063c-0.688-1.375-1.031-2.9-1.031-4.576l1.031-21.076c0-4.554-0.301-11.408-0.902-20.561c-0.603-9.152-0.902-16.005-0.902-20.56l0.193-11.537c0-6.316-0.409-10.419-1.225-12.311l-7.154,0.709c-1.118,0-2.117-0.333-2.997-0.999c-0.881-0.666-1.321-1.525-1.321-2.578c0-1.052,1.053-1.944,3.158-2.675c2.148-0.773,4.727-1.332,7.734-1.676c5.285-0.601,9.732-0.902,13.342-0.902c1.073,0,2.052,0.354,2.933,1.063c0.88,0.709,1.321,1.601,1.321,2.675c0,1.075-0.387,1.923-1.16,2.546c-0.773,0.624-1.719,0.935-2.836,0.935l-4.705-0.258c-0.603,0-1.054,0.022-1.354,0.064C326.276,217.469,326.576,222.883,326.576,228.64z"/></g></svg>
