<svg version="1.1" xmlns="http://www.w3.org/2000/svg" xmlns:xlink="http://www.w3.org/1999/xlink" x="0px" y="0px" viewBox="0 0 1200 1200" enable-background="new 0 0 1200 1200" xml:space="preserve"><rect id="XMLID_164_" fill="none" width="1200" height="1200"/><g><g id="Capa_2"></g><g id="Capa_1"><g><path fill="#F0723B" d="M1015.637,583.857c0.101-2.136-0.572-4.15-1.203-6.101c-0.264-0.796-0.533-1.593-0.714-2.384l-0.435-1.68l-6.443,0.732l-0.264,1.444c-0.15,0.833-0.328,1.66-0.515,2.497c-0.418,1.89-0.836,3.85-0.909,5.869c-2.252,56.93-15.483,110.496-39.292,159.201c-67.678,138.331-177.378,218.219-326.035,237.412c-18.646,2.418-37.29,3.638-55.382,3.638c-95.258,0-180.612-32.917-253.669-97.84c-121.22-107.704-162.339-240.949-122.238-396.051C250.292,329.101,396.983,216.31,565.276,216.31c15.63,0,31.495,0.986,47.105,2.937c169.549,21.149,301.352,165.177,306.574,335.018c3.015,98.104-31.081,182.647-101.345,251.296c-60.844,59.44-141.122,92.18-226.06,92.18c-87.594,0-168.159-34.538-226.858-97.251c-73.88-78.924-99.271-172.866-75.429-279.216C317.671,394.457,433.502,302.41,564.659,302.41c16.727,0,33.521,1.555,49.94,4.625C758.87,334.009,852.99,466.257,828.861,608.121c-20.038,117.885-119.52,203.443-236.524,203.443c-47.541,0-93.631-14.901-133.27-43.095C404,729.29,370.573,668.695,367.38,602.214c-3.074-63.773,22.828-124.358,71.072-166.191c35.23-30.568,79.871-47.402,125.65-47.402c66.483,0,126.062,34.201,159.383,91.484c32.258,55.441,32.145,113.615-0.322,168.252c-32.032,53.904-80.918,79.438-145.02,75.717c-40.578-2.352-77.408-23.457-101.04-57.891c-23.386-34.063-29.78-75.516-17.544-113.711c14.594-45.596,57.857-77.446,105.228-77.446c19.401,0,38.27,5.481,54.546,15.84c23.818,15.157,39.037,40.687,40.744,68.307c1.584,25.849-8.686,49.896-28.182,65.992c-11.024,9.093-25.021,14.093-39.432,14.093c-23.998,0-44.182-13.134-51.43-33.459c-3.949-11.087-3.045-23.784,2.361-33.145c3.915-6.787,9.842-11.203,16.685-12.463c5.148-0.938,12.87,1.168,17.825,4.652c0.492,0.951-0.308,5.348-0.933,8.882c-0.568,3.079-1.188,6.575-1.581,10.312l-0.629,5.716l3.99-4.142c1.561-1.612,3.238-3.06,4.867-4.455c3.673-3.157,6.588-5.651,6.525-8.815c-0.083-5.525-2.418-13.551-7.29-18.104c-4.345-4.054-10.092-6.193-16.614-6.193c-10.895,0-22.056,5.89-29.123,15.386c-15.983,21.464-10.334,54.267,12.322,71.64c12.352,9.467,27.195,14.473,42.888,14.473c26.703-0.006,51.863-14.627,65.657-38.161c14.046-23.97,16.57-52.94,6.901-79.475c-10.299-28.296-32.854-50.447-61.877-60.784c-12.331-4.395-25.166-6.629-38.119-6.629c-65.139,0-119.94,54.464-122.161,121.422c-1.28,38.505,12.932,75.314,39.999,103.62c27.778,29.053,65.308,45.312,105.69,45.776l1.999,0.012c47.79-0.006,93.142-20.536,124.422-56.33c32.407-37.076,47.079-87.243,40.266-137.65c-12.764-94.514-92.481-163.109-189.563-163.109c-11.738,0-23.602,1.057-35.252,3.137c-56.607,10.113-105.342,41.794-137.273,89.209c-32.803,48.716-44.049,107.756-31.668,166.243c23.043,108.714,117.778,184.644,230.417,184.635c12.305,0,24.76-0.93,37.053-2.752c67.751-10.05,129.478-49.135,169.356-107.235c40.941-59.611,54.774-131.328,38.966-201.928C808.493,381.5,696.897,292.077,565.772,292.077c-19.591,0-39.423,2.011-58.966,5.982c-82.446,16.757-154.105,68.744-196.584,142.633c-43.27,75.273-52.135,165.495-24.33,247.545c45.239,133.414,164.732,219.625,304.418,219.619c18.409,0,37.149-1.517,55.672-4.514c157.537-25.465,273.736-156.146,282.581-317.767c6.413-117.405-36.78-216.646-128.405-294.964c-64.232-54.912-148.501-85.142-237.307-85.142c-58.23,0-115.228,13.496-164.863,39.019c-149.062,76.695-229.871,228.029-210.911,394.96c10.441,92.008,49.001,171.029,114.584,234.874c82.002,79.807,177.535,120.257,283.974,120.254c29.266,0,59.751-3.11,90.601-9.238C866.772,947.447,1006.331,782.367,1015.637,583.857z"/><animateTransform type="rotate" fill="freeze" to="360 600 600" additive="replace" repeatCount="indefinite" from="0 600 600" calcMode="linear" accumulate="none" restart="always" dur="2s" attributeName="transform" begin="0s"></animateTransform></g><g><path fill="#F0723B" d="M599.997,181.168c4.564,0,8.271-3.701,8.271-8.271V58.267c0-4.567-3.706-8.266-8.271-8.266s-8.268,3.698-8.268,8.266v114.629C591.733,177.467,595.432,181.168,599.997,181.168z"/><path fill="#F0723B" d="M599.997,1018.83c-4.564,0-8.268,3.702-8.268,8.264v114.639c0,4.555,3.703,8.267,8.268,8.267s8.271-3.712,8.271-8.267v-114.639C608.264,1022.532,604.561,1018.83,599.997,1018.83z"/><path fill="#F0723B" d="M1141.739,591.733h-114.642c-4.564,0-8.27,3.695-8.27,8.266c0,4.562,3.705,8.258,8.27,8.258h114.638c4.568,0,8.265-3.696,8.265-8.258C1149.994,595.431,1146.301,591.733,1141.739,591.733z"/><path fill="#F0723B" d="M181.169,599.999c0-4.567-3.711-8.266-8.27-8.266H58.264c-4.564,0-8.264,3.695-8.264,8.266c0,4.562,3.7,8.258,8.264,8.258h114.641C177.461,608.256,181.169,604.56,181.169,599.999z"/><path fill="#F0723B" d="M907.842,896.158c-3.226-3.22-8.454-3.22-11.691,0c-3.217,3.229-3.217,8.46,0,11.691l81.069,81.055c1.626,1.611,3.732,2.426,5.841,2.426c2.124,0,4.233-0.814,5.854-2.426c3.223-3.22,3.223-8.457,0-11.691L907.842,896.158z"/><path fill="#F0723B" d="M292.149,303.832c1.611,1.614,3.727,2.426,5.855,2.426c2.106,0,4.23-0.812,5.842-2.426c3.223-3.221,3.223-8.457,0-11.684l-81.063-81.059c-3.234-3.22-8.462-3.22-11.7,0c-3.22,3.226-3.22,8.459,0,11.691L292.149,303.832z"/><path fill="#F0723B" d="M896.15,303.832c1.617,1.614,3.738,2.42,5.856,2.42c2.115,0,4.232-0.806,5.841-2.42l81.066-81.062c3.223-3.228,3.223-8.458,0-11.684c-3.223-3.228-8.46-3.228-11.688,0l-81.069,81.062C892.936,295.373,892.936,300.605,896.15,303.832z"/><path fill="#F0723B" d="M303.841,896.158c-3.232-3.22-8.469-3.22-11.688,0L211.1,977.212c-3.223,3.229-3.223,8.459,0,11.691c1.615,1.611,3.727,2.426,5.845,2.426s4.233-0.814,5.845-2.426l81.059-81.055C307.063,904.612,307.063,899.38,303.841,896.158z"/><path fill="#F0723B" d="M766.275,215.585c1.075,0.461,2.187,0.676,3.273,0.676c3.205,0,6.25-1.865,7.598-4.986l45.507-105.215c1.812-4.188-0.113-9.051-4.311-10.862c-4.2-1.822-9.043,0.119-10.873,4.302l-45.495,105.214C760.159,208.904,762.087,213.769,766.275,215.585z"/><path fill="#F0723B" d="M433.727,984.41c-4.195-1.818-9.043,0.113-10.865,4.307L377.35,1093.93c-1.819,4.188,0.115,9.05,4.301,10.865c1.074,0.462,2.18,0.682,3.273,0.682c3.198,0,6.243-1.857,7.594-4.988l45.513-105.213C439.838,991.086,437.913,986.223,433.727,984.41z"/><path fill="#F0723B" d="M1100.492,807.468l-105.213-45.504c-4.191-1.824-9.061,0.125-10.868,4.301c-1.821,4.194,0.125,9.059,4.307,10.865l105.213,45.509c1.075,0.469,2.189,0.679,3.276,0.679c3.193,0,6.229-1.857,7.589-4.985C1106.611,814.15,1104.675,809.287,1100.492,807.468z"/><path fill="#F0723B" d="M99.514,392.513l105.207,45.506c1.075,0.464,2.192,0.689,3.285,0.689c3.187,0,6.231-1.869,7.585-4.987c1.825-4.192-0.123-9.049-4.312-10.868l-105.203-45.509c-4.207-1.826-9.058,0.11-10.883,4.304C93.394,385.831,95.317,390.702,99.514,392.513z"/><path fill="#F0723B" d="M764.972,994.034c-1.68-4.247-6.481-6.33-10.723-4.645c-4.239,1.686-6.327,6.479-4.636,10.729l42.219,106.578c1.288,3.247,4.39,5.226,7.68,5.226c1.014,0,2.053-0.187,3.049-0.581c4.241-1.688,6.32-6.486,4.632-10.726L764.972,994.034z"/><path fill="#F0723B" d="M435.027,205.952c1.286,3.249,4.396,5.229,7.678,5.229c1.017,0,2.053-0.191,3.042-0.579c4.244-1.681,6.327-6.485,4.636-10.732L408.178,93.293c-1.682-4.24-6.48-6.324-10.719-4.64c-4.242,1.684-6.336,6.483-4.65,10.726L435.027,205.952z"/><path fill="#F0723B" d="M210.606,754.24c-1.688-4.239-6.502-6.321-10.723-4.639L93.305,791.828c-4.236,1.674-6.327,6.487-4.642,10.717c1.282,3.247,4.396,5.231,7.687,5.231c1.019,0,2.044-0.189,3.045-0.581l106.569-42.221C210.21,763.286,212.286,758.481,210.606,754.24z"/><path fill="#F0723B" d="M989.396,445.744c1.279,3.246,4.398,5.223,7.695,5.223c1.007,0,2.035-0.187,3.039-0.579l106.575-42.218c4.239-1.677,6.321-6.481,4.639-10.728c-1.67-4.239-6.472-6.321-10.72-4.639L994.04,435.015C989.797,436.706,987.719,441.503,989.396,445.744z"/><path fill="#F0723B" d="M679.102,188.705c0.526,0.104,1.042,0.146,1.572,0.146c3.871,0,7.346-2.745,8.099-6.703l21.661-112.566c0.854-4.486-2.07-8.816-6.555-9.684c-4.487-0.871-8.818,2.075-9.671,6.555l-21.65,112.578C671.678,183.512,674.608,187.844,679.102,188.705z"/><path fill="#F0723B" d="M520.897,1011.299c-4.517-0.883-8.817,2.077-9.671,6.544l-21.649,112.573c-0.865,4.484,2.062,8.821,6.546,9.68c0.536,0.101,1.061,0.148,1.567,0.148c3.886,0,7.354-2.749,8.107-6.706l21.661-112.574C528.317,1016.483,525.382,1012.159,520.897,1011.299z"/><path fill="#F0723B" d="M1133.549,694.192l-112.579-21.646c-4.488-0.88-8.812,2.073-9.672,6.556c-0.855,4.476,2.076,8.806,6.556,9.665l112.573,21.658c0.524,0.106,1.058,0.154,1.579,0.154c3.874,0,7.34-2.755,8.104-6.7C1140.951,699.388,1138.018,695.054,1133.549,694.192z"/><path fill="#F0723B" d="M66.454,505.797l112.571,21.648c0.536,0.104,1.057,0.153,1.573,0.153c3.883,0,7.349-2.75,8.101-6.703c0.862-4.479-2.07-8.811-6.54-9.676l-112.57-21.646c-4.491-0.865-8.821,2.074-9.683,6.557C59.04,500.602,61.972,504.94,66.454,505.797z"/><path fill="#F0723B" d="M846.373,948.962c-2.56-3.776-7.689-4.771-11.478-2.203c-3.771,2.556-4.761,7.692-2.207,11.472l64.295,94.911c1.584,2.354,4.197,3.631,6.848,3.631c1.591,0,3.211-0.462,4.624-1.428c3.785-2.559,4.76-7.695,2.21-11.472L846.373,948.962z"/><path fill="#F0723B" d="M353.627,251.024c1.591,2.358,4.2,3.632,6.851,3.632c1.586,0,3.209-0.461,4.627-1.424c3.777-2.559,4.761-7.697,2.204-11.477l-64.292-94.911c-2.547-3.779-7.695-4.772-11.48-2.208c-3.773,2.556-4.76,7.701-2.195,11.477L353.627,251.024z"/><path fill="#F0723B" d="M946.76,365.093c1.588,2.355,4.197,3.63,6.86,3.63c1.593,0,3.204-0.46,4.636-1.423l94.893-64.287c3.782-2.562,4.757-7.699,2.209-11.48c-2.564-3.773-7.701-4.769-11.486-2.202l-94.901,64.29C945.187,356.181,944.207,361.314,946.76,365.093z"/><path fill="#F0723B" d="M253.236,834.89c-2.554-3.779-7.689-4.769-11.476-2.212l-94.907,64.294c-3.773,2.56-4.754,7.693-2.209,11.467c1.605,2.363,4.2,3.625,6.869,3.625c1.582,0,3.193-0.456,4.618-1.424l94.913-64.298C254.803,843.803,255.793,838.665,253.236,834.89z"/><path fill="#F0723B" d="M835.887,253.9c1.434,0.977,3.045,1.438,4.642,1.438c2.645,0,5.239-1.262,6.836-3.608l64.556-94.723c2.574-3.777,1.597-8.915-2.172-11.484c-3.776-2.57-8.912-1.595-11.486,2.174l-64.553,94.725C831.145,246.19,832.113,251.331,835.887,253.9z"/><path fill="#F0723B" d="M364.118,946.086c-3.779-2.571-8.91-1.584-11.475,2.175l-64.567,94.724c-2.583,3.771-1.603,8.913,2.171,11.484c1.438,0.978,3.051,1.434,4.643,1.434c2.653,0,5.242-1.256,6.842-3.603l64.564-94.721C368.866,953.8,367.889,948.661,364.118,946.086z"/><path fill="#F0723B" d="M1052.302,898.264L957.575,833.7c-3.771-2.568-8.91-1.588-11.469,2.175c-2.58,3.779-1.603,8.918,2.18,11.492l94.718,64.556c1.422,0.966,3.048,1.439,4.65,1.439c2.637,0,5.237-1.268,6.828-3.61C1057.044,905.974,1056.079,900.833,1052.302,898.264z"/><path fill="#F0723B" d="M147.698,301.721l94.724,64.565c1.434,0.972,3.048,1.436,4.65,1.436c2.634,0,5.233-1.262,6.833-3.609c2.572-3.773,1.6-8.914-2.183-11.484l-94.718-64.562c-3.771-2.578-8.913-1.597-11.469,2.172C142.955,294.011,143.933,299.152,147.698,301.721z"/><path fill="#F0723B" d="M687.585,1018.094c-0.844-4.484-5.124-7.44-9.65-6.578c-4.49,0.847-7.443,5.169-6.59,9.659l21.336,112.636c0.74,3.96,4.212,6.729,8.106,6.729c0.51,0,1.028-0.059,1.553-0.145c4.484-0.856,7.423-5.176,6.587-9.672L687.585,1018.094z"/><path fill="#F0723B" d="M512.411,181.892c0.753,3.962,4.228,6.729,8.113,6.729c0.513,0,1.031-0.046,1.543-0.15c4.488-0.843,7.438-5.17,6.588-9.65l-21.32-112.634c-0.854-4.486-5.157-7.436-9.66-6.584c-4.484,0.847-7.428,5.169-6.59,9.655L512.411,181.892z"/><path fill="#F0723B" d="M188.473,677.924c-0.847-4.487-5.145-7.44-9.659-6.581l-112.62,21.326c-4.485,0.848-7.435,5.178-6.582,9.663c0.75,3.963,4.209,6.721,8.11,6.721c0.503,0,1.022-0.051,1.54-0.151l112.639-21.321C186.383,686.734,189.329,682.404,188.473,677.924z"/><path fill="#F0723B" d="M1011.517,522.065c0.749,3.964,4.229,6.728,8.113,6.728c0.515,0,1.042-0.049,1.555-0.143l112.633-21.324c4.487-0.852,7.44-5.178,6.588-9.659c-0.845-4.483-5.148-7.426-9.65-6.587l-112.653,21.33C1013.623,513.255,1010.673,517.585,1011.517,522.065z"/><animateTransform type="rotate" fill="freeze" to="0 600 600" additive="replace" direction="-1" repeatCount="indefinite" from="360 600 600" calcMode="linear" accumulate="none" restart="always" dur="4s" attributeName="transform" begin="0s"></animateTransform></g></g></g></svg>
