<svg version="1.1" xmlns="http://www.w3.org/2000/svg" x="0px" y="0px" viewBox="0 0 360 360" width="360px" height="360px" enable-background="new 0 0 360 360"><rect fill="none" width="360" height="360"/><g><g><g><path fill="#F0723B" d="M304.691,175.157c0.03-0.641-0.172-1.245-0.361-1.83c-0.079-0.239-0.16-0.478-0.214-0.715l-0.13-0.504l-1.933,0.22l-0.079,0.433c-0.045,0.25-0.098,0.498-0.155,0.749c-0.125,0.567-0.251,1.155-0.273,1.761c-0.676,17.079-4.645,33.149-11.788,47.76c-20.303,41.499-53.213,65.466-97.811,71.224c-5.594,0.725-11.187,1.091-16.615,1.091c-28.577,0-54.184-9.875-76.101-29.352c-36.366-32.311-48.702-72.285-36.671-118.815c12.526-48.448,56.534-82.285,107.021-82.285c4.689,0,9.449,0.296,14.132,0.881c50.865,6.345,90.406,49.553,91.972,100.505c0.905,29.431-9.324,54.794-30.404,75.389c-18.253,17.832-42.337,27.654-67.818,27.654c-26.278,0-50.448-10.361-68.057-29.175c-22.164-23.677-29.781-51.86-22.629-83.765c8.522-38.045,43.272-65.659,82.619-65.659c5.018,0,10.056,0.466,14.982,1.388c43.281,8.092,71.517,47.767,64.279,90.326c-6.011,35.365-35.856,61.033-70.957,61.033c-14.262,0-28.089-4.47-39.981-12.928c-16.52-11.754-26.548-29.932-27.506-49.876c-0.922-19.132,6.848-37.307,21.322-49.857c10.569-9.17,23.961-14.221,37.695-14.221c19.945,0,37.819,10.26,47.815,27.445c9.677,16.632,9.643,34.085-0.097,50.476c-9.61,16.171-24.275,23.831-43.506,22.715c-12.173-0.706-23.222-7.037-30.312-17.367c-7.016-10.219-8.934-22.655-5.263-34.113c4.378-13.679,17.357-23.234,31.568-23.234c5.82,0,11.481,1.644,16.364,4.752c7.145,4.547,11.711,12.206,12.223,20.492c0.475,7.755-2.606,14.969-8.455,19.798c-3.307,2.728-7.506,4.228-11.83,4.228c-7.199,0-13.255-3.94-15.429-10.038c-1.185-3.326-0.913-7.135,0.708-9.943c1.174-2.036,2.953-3.361,5.006-3.739c1.544-0.281,3.861,0.35,5.348,1.396c0.148,0.285-0.092,1.604-0.28,2.665c-0.17,0.924-0.356,1.973-0.474,3.094l-0.189,1.715l1.197-1.243c0.468-0.484,0.971-0.918,1.46-1.337c1.102-0.947,1.976-1.695,1.958-2.645c-0.025-1.658-0.725-4.065-2.187-5.431c-1.303-1.216-3.028-1.858-4.984-1.858c-3.269,0-6.617,1.767-8.737,4.616c-4.795,6.439-3.1,16.28,3.697,21.492c3.706,2.84,8.158,4.342,12.866,4.342c8.011-0.002,15.559-4.388,19.697-11.448c4.214-7.191,4.971-15.882,2.07-23.842c-3.09-8.489-9.856-15.134-18.563-18.235c-3.699-1.318-7.55-1.989-11.436-1.989c-19.542,0-35.982,16.339-36.648,36.427c-0.384,11.551,3.88,22.594,12,31.086c8.333,8.716,19.592,13.594,31.707,13.733l0.6,0.004c14.337-0.002,27.943-6.161,37.327-16.899c9.722-11.123,14.124-26.173,12.08-41.295c-3.829-28.354-27.744-48.933-56.869-48.933c-3.521,0-7.081,0.317-10.576,0.941c-16.982,3.034-31.603,12.538-41.182,26.763c-9.841,14.615-13.215,32.327-9.5,49.873c6.913,32.614,35.333,55.393,69.125,55.391c3.691,0,7.428-0.279,11.116-0.826c20.325-3.015,38.843-14.741,50.807-32.171c12.282-17.883,16.432-39.398,11.69-60.578c-8.594-38.413-42.073-65.24-81.41-65.24c-5.877,0-11.827,0.603-17.69,1.795c-24.734,5.027-46.231,20.623-58.975,42.79c-12.981,22.582-15.641,49.649-7.299,74.264c13.572,40.024,49.42,65.888,91.325,65.886c5.523,0,11.145-0.455,16.702-1.354c47.261-7.64,82.121-46.844,84.774-95.33c1.924-35.221-11.034-64.994-38.522-88.489c-19.27-16.474-44.55-25.543-71.192-25.543c-17.469,0-34.568,4.049-49.459,11.706c-44.719,23.008-68.961,68.409-63.273,118.488c3.132,27.602,14.7,51.309,34.375,70.462c24.601,23.942,53.261,36.077,85.192,36.076c8.78,0,17.925-0.933,27.18-2.771C260.032,284.234,301.899,234.71,304.691,175.157z"/><animateTransform fill="freeze" type="rotate" to="360 180 180" additive="replace" repeatCount="indefinite" from="0 180 180" calcMode="linear" accumulate="none" restart="always" dur="2s" attributeName="transform" begin="0s"></animateTransform></g><g><path fill="#F0723B" d="M179.999,54.35c1.369,0,2.481-1.11,2.481-2.481V17.48c0-1.37-1.112-2.48-2.481-2.48c-1.369,0-2.48,1.109-2.48,2.48v34.389C177.52,53.24,178.63,54.35,179.999,54.35z"/><path fill="#F0723B" d="M179.999,305.649c-1.369,0-2.48,1.111-2.48,2.479v34.392c0,1.367,1.111,2.48,2.48,2.48c1.37,0,2.481-1.114,2.481-2.48v-34.392C182.479,306.76,181.368,305.649,179.999,305.649z"/><path fill="#F0723B" d="M342.522,177.52h-34.393c-1.369,0-2.481,1.108-2.481,2.48c0,1.369,1.112,2.477,2.481,2.477h34.391c1.37,0,2.479-1.109,2.479-2.477C344.998,178.629,343.89,177.52,342.522,177.52z"/><path fill="#F0723B" d="M54.351,180c0-1.37-1.113-2.48-2.481-2.48H17.479C16.11,177.52,15,178.628,15,180c0,1.369,1.11,2.477,2.479,2.477h34.392C53.238,182.477,54.351,181.368,54.351,180z"/><path fill="#F0723B" d="M272.353,268.847c-0.968-0.966-2.536-0.966-3.507,0c-0.965,0.969-0.965,2.538,0,3.507l24.321,24.316c0.488,0.483,1.12,0.728,1.752,0.728c0.637,0,1.27-0.244,1.756-0.728c0.967-0.966,0.967-2.537,0-3.507L272.353,268.847z"/><path fill="#F0723B" d="M87.645,91.15c0.483,0.484,1.118,0.728,1.757,0.728c0.632,0,1.269-0.244,1.753-0.728c0.967-0.966,0.967-2.537,0-3.505L66.835,63.327c-0.97-0.966-2.539-0.966-3.51,0c-0.966,0.968-0.966,2.538,0,3.507L87.645,91.15z"/><path fill="#F0723B" d="M268.845,91.15c0.485,0.484,1.121,0.726,1.757,0.726c0.634,0,1.27-0.242,1.752-0.726l24.32-24.319c0.967-0.968,0.967-2.537,0-3.505c-0.967-0.968-2.538-0.968-3.506,0l-24.321,24.319C267.881,88.612,267.881,90.182,268.845,91.15z"/><path fill="#F0723B" d="M91.152,268.847c-0.97-0.966-2.541-0.966-3.506,0L63.33,293.164c-0.967,0.969-0.967,2.538,0,3.507c0.485,0.483,1.118,0.728,1.754,0.728s1.27-0.244,1.754-0.728l24.318-24.316C92.119,271.384,92.119,269.814,91.152,268.847z"/><path fill="#F0723B" d="M229.883,64.675c0.323,0.138,0.656,0.203,0.982,0.203c0.962,0,1.875-0.56,2.279-1.496l13.652-31.565c0.544-1.256-0.034-2.715-1.293-3.259c-1.26-0.547-2.713,0.036-3.262,1.291l-13.648,31.564C228.048,62.671,228.626,64.131,229.883,64.675z"/><path fill="#F0723B" d="M130.118,295.323c-1.259-0.545-2.713,0.034-3.26,1.292l-13.654,31.564c-0.546,1.256,0.035,2.715,1.29,3.259c0.322,0.139,0.654,0.205,0.982,0.205c0.959,0,1.873-0.557,2.278-1.496l13.654-31.564C131.951,297.326,131.374,295.867,130.118,295.323z"/><path fill="#F0723B" d="M330.148,242.24l-31.564-13.651c-1.257-0.547-2.718,0.037-3.26,1.29c-0.546,1.258,0.038,2.718,1.292,3.26l31.564,13.653c0.323,0.141,0.657,0.204,0.983,0.204c0.958,0,1.869-0.557,2.277-1.495C331.983,244.245,331.403,242.786,330.148,242.24z"/><path fill="#F0723B" d="M29.854,117.754l31.562,13.652c0.322,0.139,0.658,0.207,0.986,0.207c0.956,0,1.869-0.561,2.276-1.496c0.548-1.258-0.037-2.715-1.294-3.26l-31.561-13.653c-1.262-0.548-2.717,0.033-3.265,1.291C28.018,115.749,28.595,117.211,29.854,117.754z"/><path fill="#F0723B" d="M229.492,298.21c-0.504-1.274-1.944-1.899-3.217-1.394c-1.272,0.506-1.898,1.944-1.391,3.219l12.666,31.973c0.386,0.974,1.317,1.568,2.304,1.568c0.304,0,0.616-0.056,0.915-0.174c1.272-0.506,1.896-1.946,1.39-3.218L229.492,298.21z"/><path fill="#F0723B" d="M130.508,61.786c0.386,0.975,1.319,1.569,2.303,1.569c0.305,0,0.616-0.057,0.913-0.174c1.273-0.504,1.898-1.946,1.391-3.22l-12.661-31.973c-0.505-1.272-1.944-1.897-3.216-1.392c-1.273,0.505-1.901,1.945-1.395,3.218L130.508,61.786z"/><path fill="#F0723B" d="M63.182,226.272c-0.506-1.272-1.951-1.896-3.217-1.392l-31.973,12.668c-1.271,0.502-1.898,1.946-1.393,3.215c0.385,0.974,1.319,1.569,2.306,1.569c0.306,0,0.613-0.057,0.913-0.174l31.971-12.666C63.063,228.986,63.686,227.544,63.182,226.272z"/><path fill="#F0723B" d="M296.819,133.723c0.384,0.974,1.319,1.567,2.309,1.567c0.302,0,0.611-0.056,0.912-0.174l31.972-12.665c1.272-0.503,1.896-1.944,1.392-3.218c-0.501-1.272-1.942-1.896-3.216-1.392l-31.975,12.664C296.939,131.012,296.316,132.451,296.819,133.723z"/><path fill="#F0723B" d="M203.731,56.611c0.158,0.031,0.313,0.044,0.472,0.044c1.161,0,2.204-0.823,2.43-2.011l6.498-33.77c0.256-1.346-0.621-2.645-1.966-2.905c-1.346-0.261-2.645,0.622-2.901,1.966l-6.495,33.773C201.503,55.054,202.382,56.353,203.731,56.611z"/><path fill="#F0723B" d="M156.269,303.39c-1.355-0.265-2.645,0.623-2.901,1.963l-6.495,33.772c-0.259,1.345,0.619,2.646,1.964,2.904c0.161,0.03,0.318,0.044,0.47,0.044c1.166,0,2.206-0.825,2.432-2.012l6.498-33.772C158.495,304.945,157.615,303.648,156.269,303.39z"/><path fill="#F0723B" d="M340.065,208.258l-33.774-6.494c-1.346-0.264-2.644,0.622-2.902,1.967c-0.257,1.343,0.623,2.642,1.967,2.899l33.772,6.497c0.157,0.032,0.317,0.046,0.474,0.046c1.162,0,2.202-0.826,2.431-2.01C342.285,209.816,341.405,208.516,340.065,208.258z"/><path fill="#F0723B" d="M19.936,151.739l33.771,6.494c0.161,0.031,0.317,0.046,0.472,0.046c1.165,0,2.205-0.825,2.43-2.011c0.259-1.344-0.621-2.643-1.962-2.903l-33.771-6.494c-1.347-0.259-2.646,0.622-2.905,1.967C17.712,150.181,18.592,151.482,19.936,151.739z"/><path fill="#F0723B" d="M253.912,284.689c-0.768-1.133-2.307-1.431-3.443-0.661c-1.131,0.767-1.428,2.308-0.662,3.442l19.288,28.473c0.475,0.706,1.259,1.089,2.054,1.089c0.477,0,0.963-0.139,1.387-0.428c1.135-0.768,1.428-2.308,0.663-3.442L253.912,284.689z"/><path fill="#F0723B" d="M106.088,75.307c0.477,0.707,1.26,1.09,2.055,1.09c0.476,0,0.963-0.138,1.388-0.427c1.133-0.768,1.428-2.309,0.661-3.443L90.905,44.053c-0.764-1.134-2.309-1.432-3.444-0.662c-1.132,0.767-1.428,2.31-0.659,3.443L106.088,75.307z"/><path fill="#F0723B" d="M284.028,109.528c0.476,0.707,1.259,1.089,2.058,1.089c0.478,0,0.961-0.138,1.391-0.427l28.468-19.286c1.135-0.769,1.427-2.31,0.663-3.444c-0.769-1.132-2.31-1.431-3.446-0.661l-28.47,19.287C283.556,106.854,283.262,108.394,284.028,109.528z"/><path fill="#F0723B" d="M75.971,250.467c-0.766-1.134-2.307-1.431-3.443-0.664l-28.472,19.288c-1.132,0.768-1.426,2.308-0.663,3.44c0.481,0.709,1.26,1.087,2.061,1.087c0.475,0,0.958-0.137,1.385-0.427l28.474-19.289C76.441,253.141,76.738,251.599,75.971,250.467z"/><path fill="#F0723B" d="M250.766,76.17c0.43,0.293,0.913,0.431,1.393,0.431c0.794,0,1.572-0.379,2.051-1.082l19.367-28.417c0.772-1.133,0.479-2.674-0.652-3.445c-1.133-0.771-2.674-0.479-3.446,0.652l-19.366,28.418C249.344,73.857,249.634,75.399,250.766,76.17z"/><path fill="#F0723B" d="M109.235,283.826c-1.134-0.771-2.673-0.475-3.443,0.652l-19.37,28.417c-0.775,1.131-0.481,2.674,0.651,3.445c0.431,0.293,0.915,0.43,1.393,0.43c0.796,0,1.573-0.377,2.053-1.081l19.369-28.416C110.66,286.14,110.367,284.598,109.235,283.826z"/><path fill="#F0723B" d="M315.691,269.479l-28.418-19.369c-1.131-0.77-2.673-0.476-3.441,0.652c-0.774,1.134-0.481,2.675,0.654,3.448l28.415,19.367c0.427,0.29,0.914,0.432,1.395,0.432c0.791,0,1.571-0.38,2.048-1.083C317.113,271.792,316.824,270.25,315.691,269.479z"/><path fill="#F0723B" d="M44.309,90.516l28.417,19.369c0.43,0.292,0.914,0.431,1.395,0.431c0.79,0,1.57-0.379,2.05-1.083c0.772-1.132,0.48-2.674-0.655-3.445L47.101,86.42c-1.131-0.773-2.674-0.479-3.441,0.652C42.887,88.203,43.18,89.746,44.309,90.516z"/><path fill="#F0723B" d="M206.276,305.428c-0.253-1.345-1.537-2.232-2.895-1.973c-1.347,0.254-2.233,1.551-1.977,2.898l6.401,33.791c0.222,1.188,1.264,2.019,2.432,2.019c0.153,0,0.308-0.018,0.466-0.044c1.345-0.257,2.227-1.553,1.976-2.902L206.276,305.428z"/><path fill="#F0723B" d="M153.723,54.568c0.226,1.189,1.268,2.019,2.434,2.019c0.154,0,0.309-0.014,0.463-0.045c1.346-0.253,2.231-1.551,1.976-2.895l-6.396-33.79c-0.256-1.346-1.547-2.231-2.898-1.975c-1.345,0.254-2.228,1.551-1.977,2.896L153.723,54.568z"/><path fill="#F0723B" d="M56.542,203.377c-0.254-1.346-1.543-2.232-2.898-1.974l-33.786,6.398c-1.345,0.254-2.23,1.553-1.975,2.899c0.225,1.189,1.263,2.016,2.433,2.016c0.151,0,0.307-0.015,0.462-0.045l33.792-6.396C55.915,206.02,56.799,204.721,56.542,203.377z"/><path fill="#F0723B" d="M303.455,156.62c0.225,1.189,1.269,2.018,2.434,2.018c0.155,0,0.313-0.015,0.466-0.043l33.79-6.397c1.346-0.256,2.232-1.553,1.976-2.898c-0.253-1.345-1.544-2.228-2.895-1.976l-33.796,6.399C304.087,153.977,303.202,155.276,303.455,156.62z"/><animateTransform fill="freeze" type="rotate" to="0 180 180" additive="replace" repeatCount="indefinite" from="360 180 180" calcMode="linear" accumulate="none" restart="always" dur="4s" attributeName="transform" begin="0s" direction="-1"></animateTransform></g></g></g></svg>
