<svg version="1.1" xmlns="http://www.w3.org/2000/svg" x="0px" y="0px" viewBox="0 0 120 120" width="120" height="120" enable-background="new 0 0 120 120"><rect fill="none" width="120" height="120"/><g><path fill="#DDF03B" d="M17.351,30.487c-1.732-3.02-3.35-6.171-4.843-9.45c-0.436-0.959-1.52-1.328-2.434-0.788c-3.111,1.843-6.187,3.85-9.213,6.02c-0.648,0.466-0.933,0.983-0.846,1.828c0.089,0.846,0.699,1.153,1.409,1.32c1.761,0.41,3.522,0.819,5.283,1.23c-5.056,22.236-4.31,45.479,2.24,67.417c0.388,1.309,1.951,2.229,3.095,1.848c1.143-0.383,1.886-2.007,1.515-3.258C7.254,75.533,6.534,53.153,11.403,31.74c1.369,0.319,2.738,0.638,4.107,0.957c0.713,0.166,1.384,0.174,1.816-0.439C17.756,31.645,17.722,31.135,17.351,30.487z"/><path fill="#DDF03B" d="M111.67,46.175c-5.78-6.181-32.83-16.193-33.979-16.616c-0.695-0.256-1.43-0.385-2.182-0.385c-3.112,0-6.174,2.234-7.281,5.311c-0.167,0.466-0.432,1.708-0.496,3.061c-0.742-0.211-1.506-0.318-2.276-0.318c-3.531,0-6.715,2.258-7.923,5.617c-0.665,1.848-0.682,3.827-0.063,5.662c-3.498-0.119-6.491,1.869-7.665,5.136c-0.771,2.14-0.646,4.421,0.348,6.425l-21.296-6.983c-1.139-0.419-2.304-0.633-3.462-0.633c-3.653,0-6.686,2.118-7.913,5.529c-1.643,4.574,0.766,9.369,5.642,11.165l36.528,12.57c0.166,1.108,0.57,2.848,1.536,5.239c2.563,6.336,11.746,12.891,22.674,12.891c2.167,0,4.329-0.261,6.428-0.774C104.74,95.54,113,88.208,117.911,74.552C123.113,60.083,117.68,52.6,111.67,46.175z M114.515,73.3c-4.505,12.528-11.769,18.965-25.075,22.216c-1.822,0.445-3.699,0.672-5.58,0.672c-9.286,0-17.265-5.512-19.33-10.62c-0.389-0.962-0.67-1.786-0.87-2.471l11.93,4.104c0.946,0.323,1.971-0.187,2.291-1.144c0.32-0.957-0.183-1.995-1.13-2.32L24.32,65.694c-2.998-1.103-4.414-3.762-3.444-6.463c0.947-2.632,3.678-3.834,6.805-2.689l32.103,10.53c0.877,0.288,1.837-0.144,2.21-1.002c0.373-0.86,0.043-1.864-0.762-2.329l-4.782-2.746c-0.088-0.05-0.179-0.093-0.275-0.127c-1.247-0.458-2.238-1.323-2.792-2.433c-0.546-1.096-0.612-2.353-0.185-3.54c0.626-1.739,2.07-2.736,3.964-2.736c0.662,0,1.339,0.126,2.014,0.374l3.387,1.247c0.002,0.001,0.006,0.001,0.008,0.002c0.938,0.346,1.974-0.144,2.315-1.094c0.341-0.949-0.142-1.998-1.079-2.343c-1.209-0.445-2.174-1.341-2.718-2.521c-0.543-1.181-0.601-2.505-0.161-3.728c0.69-1.92,2.51-3.211,4.529-3.211c0.56,0,1.114,0.1,1.648,0.296l7.356,2.71c0.933,0.344,1.974-0.143,2.315-1.092s-0.142-1.999-1.079-2.344l-4.322-1.592c-0.084-0.808-0.039-2.319,0.251-3.127c0.708-1.965,3.103-3.376,4.832-2.738c7.601,2.8,28.275,11.078,32.592,15.694C114.704,54.74,119.021,60.766,114.515,73.3z"/></g></svg>
