<svg version="1.1" xmlns="http://www.w3.org/2000/svg" xmlns:xlink="http://www.w3.org/1999/xlink" x="0px" y="0px" viewBox="0 0 192 192" width="192px" height="192px" enable-background="new 0 0 192 192"><g><path id="SVGID_1_" fill="#4C4A48" d="M66.6,0c53.8,0,5.1,0,58.9,0S192,12.8,192,66.6s0,5.1,0,58.9S179.2,192,125.4,192s-5.1,0-58.9,0S0,179.2,0,125.4s0-28.9,0-58.9C0,12.8,12.8,0,66.6,0z"/></g><g><g><defs><path id="SVGID_2_" d="M66.6,0c53.8,0,5.1,0,58.9,0S192,12.8,192,66.6s0,5.1,0,58.9S179.2,192,125.4,192s-5.1,0-58.9,0S0,179.2,0,125.4s0-28.9,0-58.9C0,12.8,12.8,0,66.6,0z"/></defs><clipPath id="SVGID_3_"><use xlink:href="#SVGID_2_" overflow="visible"/></clipPath><rect x="-5" y="-5" clip-path="url(#SVGID_3_)" fill="#4C4A48" width="202" height="202"/></g></g><polygon id="XMLID_1_" fill="#FFFFFF" points="108.8,44.8 57.6,96 96,134.4 134.4,96 121.6,83.2 96,108.8 83.2,96 121.6,57.6 160,96 96,160 32,96 96,32 "/></svg>
