<svg version="1.1" xmlns="http://www.w3.org/2000/svg" xmlns:xlink="http://www.w3.org/1999/xlink" x="0px" y="0px" viewBox="0 0 192 192" width="192px" height="192px" enable-background="new 0 0 192 192"><g id="Base"><defs><path id="SVGID_1_" d="M66.6,0c53.8,0,5.1,0,58.9,0S192,12.8,192,66.6s0,5.1,0,58.9S179.2,192,125.4,192s-5.1,0-58.9,0S0,179.2,0,125.4s0-28.9,0-58.9C0,12.8,12.8,0,66.6,0z"/></defs><use xlink:href="#SVGID_1_" overflow="visible" fill-rule="evenodd" clip-rule="evenodd" fill="#5181B8"/><clipPath id="SVGID_2_"><use xlink:href="#SVGID_1_" overflow="visible"/></clipPath><rect x="-5" y="-5" clip-path="url(#SVGID_2_)" fill="#5181B8" width="202" height="202"/></g><path id="Logo" fill-rule="evenodd" clip-rule="evenodd" fill="#FFFFFF" d="M157.2,66.1c0.9-3,0-5.1-4.2-5.1h-14c-3.6,0-5.2,1.9-6.1,4c0,0-7.1,17.4-17.2,28.6c-3.3,3.3-4.7,4.3-6.5,4.3c-0.9,0-2.2-1-2.2-4V66.1c0-3.6-1-5.1-4-5.1H81c-2.2,0-3.6,1.7-3.6,3.2c0,3.4,5,4.2,5.6,13.6v20.6c0,4.5-0.8,5.3-2.6,5.3c-4.7,0-16.3-17.4-23.1-37.4C55.9,62.6,54.6,61,51,61H37c-4,0-4.8,1.9-4.8,4c0,3.7,4.7,22.1,22.1,46.4C65.9,128,82.2,137,97,137c8.9,0,10-2,10-5.4V119c0-4,0.8-4.8,3.7-4.8c2.1,0,5.6,1,13.9,9c9.5,9.5,11.1,13.8,16.4,13.8h14c4,0,6-2,4.8-5.9c-1.3-3.9-5.8-9.6-11.8-16.4c-3.3-3.9-8.2-8-9.6-10.1c-2.1-2.7-1.5-3.9,0-6.2C138.4,98.3,155.5,74.3,157.2,66.1z"/></svg>
