<svg version="1.1" xmlns="http://www.w3.org/2000/svg" x="0px" y="0px" viewBox="0 0 640 360" enable-background="new 0 0 640 360"><rect fill="#1769FF" width="640" height="360"/><path fill="#FFFFFF" d="M436.894,115.535h-72.609V97.524h72.609V115.535L436.894,115.535z M315.879,189.405
		c4.681,7.296,7.078,16.073,7.078,26.333c0,10.716-2.626,20.291-7.992,28.727c-3.425,5.586-7.649,10.374-12.786,14.136
		c-5.708,4.446-12.558,7.41-20.321,9.006C273.981,269.202,265.533,270,256.4,270H175V90h87.108
		c21.92,0.342,37.56,6.726,46.693,19.151c5.48,7.638,8.22,16.871,8.22,27.473c0,11.058-2.74,19.835-8.334,26.561
		c-3.082,3.762-7.649,7.182-13.7,10.26C304.235,176.865,311.199,182.109,315.879,189.405z M216.556,161.02h38.131
		c7.877,0,14.156-1.482,19.066-4.446c4.909-2.964,7.307-8.208,7.307-15.845c0-8.322-3.197-13.908-9.704-16.643
		c-5.594-1.824-12.672-2.85-21.349-2.85h-33.564v39.785H216.556z M284.827,213.23c0-9.348-3.882-15.845-11.531-19.265
		c-4.224-1.938-10.275-2.964-18.038-3.078h-38.702v47.992h38.131c7.877,0,13.928-1.026,18.266-3.192
		C280.945,231.697,284.827,224.288,284.827,213.23z M463.837,183.819c0.913,5.928,1.256,14.478,1.142,25.649h-94.072
		c0.571,12.996,5.023,22.001,13.471,27.245c5.137,3.306,11.302,4.788,18.609,4.788c7.649,0,13.928-1.938,18.723-5.928
		c2.626-2.166,4.909-5.13,6.964-8.892h34.478c-0.913,7.638-5.023,15.389-12.558,23.369c-11.531,12.54-27.742,18.809-48.634,18.809
		c-17.239,0-32.423-5.358-45.552-15.845c-13.129-10.602-19.751-27.815-19.751-51.64c0-22.343,5.937-39.557,17.81-51.412
		c11.873-11.97,27.285-17.897,46.237-17.897c11.188,0,21.349,2.052,30.368,6.042s16.44,10.374,22.262,19.151
		C458.814,164.896,462.239,173.787,463.837,183.819z M429.93,187.239c-0.685-9.006-3.653-15.731-9.019-20.405
		c-5.366-4.674-12.102-6.954-19.979-6.954c-8.677,0-15.412,2.508-20.207,7.41c-4.795,4.902-7.763,11.514-9.019,19.949H429.93
		L429.93,187.239z"/></svg>
