<svg version="1.1" xmlns="http://www.w3.org/2000/svg" x="0px" y="0px" viewBox="0 0 640 360" enable-background="new 0 0 640 360"><rect y="0" fill="#00CB5E" width="640" height="360"/><path fill="#FFFFFF" d="M266.2,167.9c14.4,28.3,37.6,51.5,65.9,65.9l22-22c2.8-2.8,6.7-3.6,10.2-2.5c11.2,3.7,23.2,5.7,35.7,5.7c5.523,0,10,4.477,10,10v35c0,5.523-4.477,10-10,10c-93.888,0-170-76.112-170-170c0-5.523,4.477-10,10-10h35c5.523,0,10,4.477,10,10c0,12.5,2,24.5,5.7,35.7c1.1,3.5,0.3,7.4-2.5,10.2L266.2,167.9z"/></svg>