<svg version="1.1" xmlns="http://www.w3.org/2000/svg" x="0px" y="0px" viewBox="0 0 640 360" enable-background="new 0 0 640 360"><rect fill="#1DA1F2" width="640" height="360"/><path fill="#FFFFFF" d="M431,111.176c-8.171,3.706-16.979,6.141-26.105,7.306c9.338-5.612,16.555-14.506,19.95-25.2c-8.808,5.294-18.571,9-28.864,11.118c-8.383-9.106-20.163-14.4-33.533-14.4c-24.938,0-45.313,20.329-45.313,45.424c0,3.6,0.424,7.094,1.167,10.376c-37.778-1.906-71.418-20.012-93.809-47.435c-3.926,6.671-6.155,14.506-6.155,22.765c0,15.776,7.959,29.753,20.269,37.694c-7.534,0-14.538-2.118-20.693-5.294c0,0,0,0,0,0.318c0,22.024,15.706,40.447,36.505,44.576c-3.82,1.059-7.853,1.588-11.991,1.588c-2.865,0-5.73-0.318-8.489-0.847c5.73,17.894,22.391,31.235,42.447,31.553C260.892,243,241.26,250.2,219.824,250.2c-3.608,0-7.216-0.212-10.824-0.635C229.163,262.482,253.145,270,278.826,270c83.621,0,129.571-69.247,129.571-129.282c0-2.012,0-3.918-0.106-5.929C417.205,128.435,424.845,120.388,431,111.176z"/></svg>