<svg version="1.1" xmlns="http://www.w3.org/2000/svg" x="0px" y="0px" viewBox="0 0 640 360" enable-background="new 0 0 640 360"><rect fill="#45668E" width="640" height="360"/><path fill="#FFFFFF" d="M465.048,102.109c2.134-6.873,0-12.109-10.175-12.109h-33.151c-8.534,0-12.309,4.418-14.442,9.327c0,0-16.904,41.073-40.865,67.909c-7.878,7.691-11.324,10.145-15.591,10.145c-2.134,0-5.58-2.455-5.58-9.491v-65.782c0-8.345-1.969-12.109-9.026-12.109h-52.353c-5.252,0-8.37,3.927-8.37,7.691c0,7.855,12.309,9.818,13.129,32.236v48.764c0,10.8-1.969,12.764-6.072,12.764c-11.16,0-38.731-41.4-54.978-88.527C224.291,93.764,221.173,90,212.639,90h-33.315C169.969,90,168,94.418,168,99.327c0,8.836,11.324,52.364,52.517,109.964C247.924,248.727,286.655,270,321.94,270c21.171,0,23.797-4.745,23.797-12.927v-29.782c0-9.327,1.969-11.291,8.698-11.291c4.923,0,13.293,2.455,32.987,21.273C410.069,259.855,413.68,270,426.481,270h33.151c9.519,0,14.278-4.745,11.652-14.073c-2.954-9.327-13.786-22.909-28.064-38.945c-7.713-9-19.366-18.818-22.976-23.891c-4.923-6.218-3.446-9,0-14.727C420.245,178.364,460.781,121.582,465.048,102.109z"/></svg>