<svg version="1.1" xmlns="http://www.w3.org/2000/svg" x="0px" y="0px" viewBox="0 0 640 360" enable-background="new 0 0 640 360"><rect fill="#E1306C" width="640" height="360"/><path fill="#FFFFFF" d="M282.2,90h75.6c28.8,0,52.2,23.4,52.2,52.2v75.6c0,28.829-23.371,52.2-52.2,52.2h-75.6c-28.8,0-52.2-23.4-52.2-52.2v-75.6C230,113.371,253.371,90,282.2,90 M280.4,108c-17.894,0-32.4,14.506-32.4,32.4l0,0v79.2c0,17.91,14.49,32.4,32.4,32.4h79.2c17.894,0,32.4-14.506,32.4-32.4l0,0v-79.2c0-17.91-14.49-32.4-32.4-32.4L280.4,108 M367.25,121.5c6.213,0,11.25,5.037,11.25,11.25S373.463,144,367.25,144S356,138.963,356,132.75S361.037,121.5,367.25,121.5 M320,135c24.853,0,45,20.147,45,45s-20.147,45-45,45s-45-20.147-45-45S295.147,135,320,135 M320,153c-14.912,0-27,12.088-27,27s12.088,27,27,27s27-12.088,27-27S334.912,153,320,153z"/></svg>