<svg version="1.1" xmlns="http://www.w3.org/2000/svg" x="0px" y="0px" viewBox="0 0 640 360" enable-background="new 0 0 640 360"><rect fill="#25D366" width="640" height="360"/><path fill="#FFFFFF" d="M362.75,197.64c2.25,1.17,3.69,1.8,4.14,2.7c0.54,0.99,0.36,5.49-1.89,10.62c-1.8,5.04-11.16,9.9-15.3,10.08c-4.14,0.18-4.23,3.24-26.64-6.57s-35.91-33.75-36.99-35.28c-1.08-1.53-8.64-12.42-8.28-23.49c0.45-10.98,6.21-16.2,8.55-18.36c2.16-2.34,4.59-2.61,6.12-2.34h4.23c1.35,0,3.24-0.54,4.95,4.05l6.21,16.83c0.54,1.17,0.9,2.52,0.09,3.96l-2.43,3.69l-3.51,3.78c-1.08,1.08-2.34,2.25-1.08,4.5c1.08,2.34,5.58,9.81,11.88,16.02c8.19,7.92,15.39,10.53,17.55,11.7c2.16,1.26,3.51,1.08,4.86-0.36l7.29-8.46c1.71-2.25,3.15-1.71,5.22-0.99L362.75,197.64 M320,90c49.706,0,90,40.294,90,90s-40.294,90-90,90c-17.73,0-34.2-5.13-48.15-13.95L230,270l13.95-41.85C235.13,214.2,230,197.73,230,180C230,130.294,270.294,90,320,90 M320,108c-39.764,0-72,32.235-72,72c0,15.48,4.86,29.79,13.14,41.49l-8.64,26.01l26.01-8.64C290.21,247.14,304.52,252,320,252c39.764,0,72-32.236,72-72S359.764,108,320,108z"/></svg>