<svg version="1.1" xmlns="http://www.w3.org/2000/svg" x="0px" y="0px" viewBox="0 0 640 360" enable-background="new 0 0 640 360"><rect fill="#00AFF0" width="640" height="360"/><path fill="#FFFFFF" d="M320.3,225.3c-26.6,0-38.5-13.1-38.5-22.9c0-5,3.7-8.6,8.8-8.6c11.4,0,8.5,16.2,29.7,16.2c10.9,0,17-5.7,17-11.8c0-3.6-1.8-7.6-9-9.4l-23.7-5.9c-19.1-4.8-22.6-15.1-22.6-24.8c0-20.2,19-27.8,36.8-27.8c16.2,0,35.8,9.1,35.8,21.2c0,5.2-4.6,8.2-9.6,8.2c-10,0-8-13.5-27.6-13.5c-9.7,0-15.1,4.4-15.1,10.7c0,6.3,7.7,8.1,14.3,9.9l17.6,3.9c19.2,4.3,24.1,15.5,24.1,26C358.3,213.1,345.7,225.3,320.3,225.3 M380,120c20.7,20.4,28.5,48.9,23.6,75.5c4.1,7.2,6.4,15.6,6.4,24.5c0,27.614-22.386,50-50,50c-8.9,0-17.3-2.3-24.5-6.4c-26.6,4.9-55.1-2.9-75.5-23.6c-20.7-20.4-28.5-48.9-23.6-75.5c-4.1-7.2-6.4-15.6-6.4-24.5c0-27.614,22.386-50,50-50c8.9,0,17.3,2.3,24.5,6.4C331.1,91.5,359.6,99.3,380,120 M280,110c-16.569,0-30,13.431-30,30c0,7.9,3,15,8,20.4c-7,22.4-1.7,47.8,16,65.6c17.8,17.7,43.2,23,65.6,16c5.4,5,12.5,8,20.4,8c16.569,0,30-13.431,30-30c0-7.9-3-15-8-20.4c7-22.4,1.7-47.8-16-65.6c-17.8-17.7-43.2-23-65.6-16C295,113,287.9,110,280,110z"/></svg>