<svg version="1.1" xmlns="http://www.w3.org/2000/svg" x="0px" y="0px" viewBox="0 0 640 360" enable-background="new 0 0 640 360"><rect fill="#8F5DB7" width="640" height="360"/><path fill="#FFFFFF" d="M321.271,91.233C322.823,90,323.752,90,328.705,90c2.481,0,6.198,0.306,8.363,0.621c10.221,1.233,16.735,2.781,25.72,7.11c8.985,4.329,14.561,8.343,22.31,15.453c7.127,6.804,10.844,12.051,15.183,20.402c5.891,11.439,8.985,24.731,9.608,39.563c0.307,4.95,0,6.183-1.236,7.731c-2.165,2.781-7.127,2.475-8.985-0.927c-0.622-0.927-0.622-1.854-0.929-5.877c-0.307-6.183-0.622-10.197-1.552-15.147c-3.41-18.855-12.702-34.001-27.579-44.819c-12.396-8.964-23.239-12.366-39.965-13.599c-5.891,0-6.82,0-8.056-1.233C319.097,97.731,319.097,93.402,321.271,91.233"/><path fill="#FFFFFF" d="M351.944,129.869c-5.891-3.402-14.876-6.183-22.933-6.804c-2.788-0.306-4.646-0.927-5.575-2.16c-1.858-1.548-1.858-4.329-0.622-6.183c1.552-2.475,4.024-2.781,11.151-1.548c17.971,2.475,31.918,10.818,41.21,24.11c5.269,7.416,8.363,16.38,9.292,25.658c0.307,3.402,0.307,9.585,0,10.818c-0.307,0.927-1.552,2.475-2.788,2.781c-1.236,0.621-3.717,0.621-4.962-0.306c-2.165-1.233-3.094-2.781-3.094-7.731c0-7.416-1.858-15.453-5.575-21.635C364.34,139.769,358.764,133.892,351.944,129.869"/><path fill="#FFFFFF" d="M359.694,170.674c-1.858,1.548-4.962,1.548-6.82,0c-1.552-0.927-1.858-2.16-2.165-5.256c-0.307-4.014-1.236-6.804-2.165-9.27c-2.481-5.562-7.127-8.343-14.877-9.27c-3.717-0.306-4.646-0.927-5.891-2.16c-2.165-2.475-1.236-6.489,1.552-8.037c1.236-0.621,1.552-0.621,4.024-0.306c1.552,0,3.717,0.306,4.962,0.621c5.891,1.233,10.221,3.402,14.254,6.804c4.962,4.635,7.749,9.891,8.679,17.928C361.859,166.966,361.552,169.126,359.694,170.674"/><path fill="#FFFFFF" d="M409.574,236.516c0-2.781-0.929-4.95-2.788-7.11c-1.858-2.16-14.561-12.366-20.759-16.38c-4.646-3.087-11.773-7.416-14.877-8.964c-4.339-2.16-8.679-2.475-12.702-1.233c-0.929,0.306-1.552,0.621-2.165,0.927c-1.858,0.927-3.41,2.781-7.127,7.11c-2.481,3.087-4.646,5.877-4.962,5.877c0,0-0.307,0-0.307,0.306c-0.307,0.306-1.236,0.621-1.858,0.927l0,0l0,0c-4.024,1.854-9.292,0.621-17.971-3.402c-6.82-3.402-12.702-7.416-19.523-13.599c-5.891-5.256-11.773-11.745-14.877-17.001c-4.339-6.804-7.434-15.453-7.434-20.402c0-2.16,0.929-4.95,1.858-6.489l0,0l0.307-0.306c0,0,0,0,0.307-0.306c0.307-0.306,0.622-0.621,0.929-0.621c1.254-0.945,2.797-2.484,4.348-3.726c7.127-5.562,8.679-7.416,9.608-10.512c0.929-3.087,0-7.11-3.094-12.672c-5.584-10.197-21.074-29.672-26.65-33.38c-0.929-0.612-2.481-1.233-3.41-1.854c-2.481-0.621-5.891-0.927-7.749-0.621c-2.788,0.621-6.198,2.79-13.938,8.352c-4.646,3.402-10.844,9.27-12.396,11.745c-3.41,5.868-3.103,10.512,0.929,21.941c3.717,10.197,8.679,20.402,14.254,30.293l0,0l0.307,0.306c1.236,1.854,2.481,4.014,3.717,5.877c0,0.306,0.307,0.306,0.307,0.621c1.236,1.854,2.481,4.014,3.717,5.877c0.622,0.621,0.929,1.548,1.552,2.16c0.929,1.548,1.858,2.781,3.094,4.329c1.552,2.16,3.094,4.329,4.962,6.489c17.664,22.877,38.107,41.417,62.276,56.563c0.307,0.306,0.622,0.306,0.929,0.621c3.717,2.16,7.434,4.329,11.151,6.489c0.622,0.306,0.929,0.621,1.552,0.927c3.717,2.16,7.75,4.014,11.773,5.877c0.307,0.306,0.929,0.306,1.236,0.621c4.024,1.854,8.363,3.708,12.702,5.562c5.269,2.16,7.127,2.475,11.151,2.16c1.858,0,3.717-0.306,5.269-0.927c2.481-0.621,4.646-1.854,7.434-3.708c0.622-0.306,0.929-0.621,1.552-0.927c0.622-0.306,1.236-0.927,1.858-1.548c3.41-2.781,7.127-7.11,10.221-11.124c2.165-2.781,3.717-5.562,4.646-7.731C409.267,240.836,409.574,238.676,409.574,236.516"/></svg>