<svg version="1.1" xmlns="http://www.w3.org/2000/svg" x="0px" y="0px" viewBox="0 0 640 360" enable-background="new 0 0 640 360"><rect fill="#00CB5E" width="640" height="360"/><path fill="#FFFFFF" d="M265.4,110c0.6,8.9,2.1,17.6,4.5,25.9l-12,12c-4.1-12-6.7-24.7-7.6-37.9H265.4 M364,230.2c8.5,2.4,17.2,3.9,26,4.5v14.9c-13.2-0.9-25.9-3.5-38-7.5L364,230.2 M275,90h-35c-5.5,0-10,4.5-10,10c0,93.9,76.1,170,170,170c5.5,0,10-4.5,10-10v-34.9c0-5.5-4.5-10-10-10c-12.4,0-24.5-2-35.7-5.7c-1-0.4-2.1-0.5-3.1-0.5c-2.6,0-5.1,1-7.1,2.9l-22,22c-28.3-14.5-51.5-37.6-65.9-65.9l22-22c2.8-2.8,3.6-6.7,2.5-10.2c-3.7-11.2-5.7-23.2-5.7-35.7C285,94.5,280.5,90,275,90L275,90z"/></svg>