<svg version="1.1" xmlns="http://www.w3.org/2000/svg" x="0px" y="0px" width="1440px" height="810px" viewBox="0 0 1440 810" enable-background="new 0 0 1440 810"><path d="M1036.1,200H403.8c-13.2,0-24,10.7-24,24v404.1l0,0v61.6c0,7.8,6.3,14.1,14.1,14.1h250.4c-1.3,27.8-7.4,83.5-36.2,95.7c0,0-11.2,10.4,20.1,10.4h53.6h73.9h53.6c31.3,0,20.1-10.4,20.1-10.4c-28.8-12.2-35-68-36.2-95.7h253c7.8,0,13.8-6.3,13.8-14.1v-61c0-0.2,0.1-0.4,0.1-0.7V224C1060.1,210.8,1049.4,200,1036.1,200z M703.4,655.5c0-9.1,7.4-16.5,16.6-16.5c9.1,0,16.5,7.4,16.5,16.5S729,672,719.9,672C710.8,672,703.4,664.6,703.4,655.5z M1039.6,612.1H400.3V224c0-1.9,1.5-3.4,3.4-3.4h632.4c1.9,0,3.4,1.5,3.4,3.4L1039.6,612.1L1039.6,612.1z"/><rect x="400.3" y="220.6" fill="#F9F9F9" width="639.2" height="391.5"/><rect fill="none" width="1440" height="810"/><path fill="#464445" d="M617.5,312.9c0.1,0.4,0,0.6-0.2,0.8c-0.2,0.2-0.5,0.3-1,0.4c-0.5,0-1.1,0.1-2,0.1s-1.5,0-2-0.1c-0.5,0-0.8-0.1-1.1-0.2s-0.4-0.2-0.5-0.3c-0.1-0.1-0.2-0.3-0.3-0.5l-2.2-6.6h-12.3l-2,6.4c-0.1,0.2-0.2,0.4-0.3,0.6s-0.3,0.3-0.5,0.4c-0.3,0.1-0.6,0.2-1.1,0.2c-0.4,0-1,0.1-1.8,0.1s-1.4,0-1.8-0.1c-0.4-0.1-0.7-0.2-0.9-0.4c-0.2-0.2-0.2-0.5-0.2-0.8s0.2-0.8,0.4-1.4l10.1-29.1c0.1-0.3,0.2-0.5,0.4-0.7c0.1-0.2,0.4-0.3,0.7-0.4s0.7-0.2,1.2-0.2c0.5-0.1,1.2-0.1,2.1-0.1c1,0,1.8,0,2.4,0.1c0.6,0,1.1,0.1,1.4,0.2c0.4,0.1,0.6,0.3,0.7,0.4c0.2,0.2,0.3,0.4,0.4,0.8l10.2,29.1C617.3,312,617.4,312.5,617.5,312.9z M602,287.2l-4.6,14h9.3L602,287.2L602,287.2z"/><path fill="#464445" d="M643.1,313.5c-0.1,0.1-0.3,0.2-0.5,0.3c-0.2,0.1-0.6,0.2-1,0.2s-0.9,0.1-1.5,0.1s-1.1,0-1.5-0.1s-0.8-0.1-1-0.2s-0.4-0.2-0.5-0.3c-0.1-0.2-0.2-0.3-0.2-0.5v-8.9h-9.2v8.9c0,0.2-0.1,0.3-0.2,0.5c-0.1,0.1-0.3,0.2-0.5,0.3c-0.3,0.1-0.6,0.2-1,0.2s-0.9,0.1-1.5,0.1s-1.1,0-1.5-0.1s-0.7-0.1-1-0.2c-0.2-0.1-0.4-0.2-0.5-0.3c-0.1-0.2-0.2-0.3-0.2-0.5v-22.6c0-0.2,0.1-0.3,0.2-0.5c0.1-0.1,0.3-0.2,0.5-0.3c0.3-0.1,0.6-0.2,1-0.2s0.9-0.1,1.5-0.1s1.1,0,1.5,0.1s0.7,0.1,1,0.2c0.2,0.1,0.4,0.2,0.5,0.3c0.1,0.2,0.2,0.3,0.2,0.5v8.5h9.2v-8.5c0-0.2,0.1-0.3,0.2-0.5c0.1-0.1,0.3-0.2,0.5-0.3c0.2-0.1,0.6-0.2,1-0.2s0.9-0.1,1.5-0.1s1.1,0,1.5,0.1s0.7,0.1,1,0.2s0.4,0.2,0.5,0.3c0.1,0.2,0.2,0.3,0.2,0.5V313C643.3,313.2,643.2,313.3,643.1,313.5z"/><path fill="#464445" d="M664.4,293.6c-0.1,0.4-0.1,0.6-0.2,0.9c-0.1,0.3-0.2,0.4-0.3,0.5s-0.3,0.2-0.4,0.2h-7.4v17.9c0,0.2-0.1,0.3-0.2,0.5c-0.1,0.1-0.3,0.2-0.5,0.3c-0.3,0.1-0.6,0.2-1,0.2s-0.9,0.1-1.5,0.1s-1.1,0-1.5-0.1s-0.7-0.1-1-0.2c-0.2-0.1-0.4-0.2-0.5-0.3c-0.1-0.2-0.2-0.3-0.2-0.5v-21.5c0-0.7,0.2-1.2,0.4-1.5c0.3-0.3,0.7-0.5,1.3-0.5h12c0.2,0,0.3,0.1,0.4,0.2c0.1,0.1,0.2,0.2,0.3,0.5s0.2,0.5,0.2,0.9c0.1,0.4,0.1,0.8,0.1,1.3S664.4,293.2,664.4,293.6z"/><path fill="#464445" d="M688.9,313.5c-0.1,0.1-0.3,0.2-0.5,0.3c-0.2,0.1-0.6,0.2-1,0.2s-0.9,0.1-1.5,0.1s-1.1,0-1.6-0.1c-0.4-0.1-0.7-0.1-1-0.2s-0.4-0.2-0.5-0.3c-0.1-0.2-0.2-0.3-0.2-0.5v-18.3H678c-0.3,2.7-0.6,5-1,7s-0.9,3.8-1.4,5.2c-0.5,1.4-1.1,2.7-1.8,3.6c-0.6,0.9-1.3,1.7-2.1,2.3c-0.8,0.6-1.6,1-2.5,1.2s-1.8,0.4-2.8,0.4c-0.2,0-0.4,0-0.6-0.1s-0.3-0.2-0.4-0.4c-0.1-0.2-0.2-0.5-0.2-0.8s-0.1-0.9-0.1-1.5s0-1.1,0.1-1.5c0-0.4,0.1-0.7,0.1-0.9c0.1-0.2,0.2-0.4,0.3-0.4s0.3-0.1,0.4-0.1c0.5,0,0.9-0.1,1.3-0.3c0.5-0.2,0.9-0.6,1.2-1.1c0.4-0.5,0.8-1.1,1.1-2c0.3-0.8,0.7-1.9,0.9-3.1s0.6-2.7,0.8-4.5c0.3-1.8,0.5-3.8,0.7-6.1c0-0.7,0.2-1.2,0.4-1.5c0.3-0.3,0.7-0.5,1.3-0.5h13.1c0.6,0,1,0.2,1.3,0.5s0.4,0.9,0.4,1.5V313C689.1,313.2,689,313.3,688.9,313.5z"/><path fill="#464445" d="M717.9,313.5c-0.1,0.1-0.3,0.2-0.5,0.3c-0.2,0.1-0.6,0.1-0.9,0.2c-0.4,0-0.9,0.1-1.5,0.1s-1.1,0-1.5-0.1c-0.4,0-0.8-0.1-1-0.2c-0.3-0.1-0.5-0.2-0.6-0.3s-0.2-0.3-0.2-0.4V303c0-0.7,0-1.4,0.1-2.2c0-0.8,0.1-1.5,0.2-2.2c-0.4,0.7-0.8,1.4-1.3,2.1s-1,1.4-1.4,2.1l-7.6,10.4c-0.2,0.2-0.3,0.4-0.4,0.5c-0.1,0.2-0.3,0.3-0.5,0.3c-0.2,0.1-0.5,0.2-0.8,0.2c-0.3,0.1-0.7,0.1-1.2,0.1c-0.6,0-1.1,0-1.5-0.1c-0.4,0-0.7-0.1-0.9-0.2s-0.4-0.2-0.5-0.3c-0.1-0.2-0.2-0.3-0.2-0.5v-22.7c0-0.2,0.1-0.3,0.2-0.4c0.1-0.1,0.3-0.2,0.5-0.3c0.2-0.1,0.6-0.2,1-0.2s0.9-0.1,1.5-0.1c1.2,0,2.1,0.1,2.5,0.3c0.4,0.2,0.7,0.4,0.7,0.7v10.1c0,0.7,0,1.4-0.1,2.2c-0.1,0.8-0.1,1.5-0.2,2.2c0.4-0.7,0.8-1.3,1.2-2s0.9-1.3,1.3-2l7.7-10.4c0.1-0.2,0.3-0.3,0.4-0.5c0.2-0.1,0.4-0.2,0.6-0.3c0.3-0.1,0.5-0.1,0.9-0.2c0.3,0,0.7-0.1,1.3-0.1s1.1,0,1.5,0.1s0.7,0.1,0.9,0.2c0.3,0.1,0.4,0.2,0.5,0.3c0.1,0.1,0.1,0.3,0.1,0.5v22.7C718,313.3,718,313.4,717.9,313.5z"/><path fill="#464445" d="M746.9,313.5c-0.1,0.1-0.3,0.2-0.5,0.3c-0.2,0.1-0.6,0.1-0.9,0.2c-0.4,0-0.9,0.1-1.5,0.1s-1.1,0-1.5-0.1c-0.4,0-0.8-0.1-1-0.2c-0.3-0.1-0.5-0.2-0.6-0.3s-0.2-0.3-0.2-0.4V303c0-0.7,0-1.4,0.1-2.2c0-0.8,0.1-1.5,0.2-2.2c-0.4,0.7-0.8,1.4-1.3,2.1s-1,1.4-1.4,2.1l-7.6,10.4c-0.2,0.2-0.3,0.4-0.4,0.5c-0.1,0.2-0.3,0.3-0.5,0.3c-0.2,0.1-0.5,0.2-0.8,0.2c-0.3,0.1-0.7,0.1-1.2,0.1c-0.6,0-1.1,0-1.5-0.1c-0.4,0-0.7-0.1-0.9-0.2s-0.4-0.2-0.5-0.3c-0.1-0.2-0.2-0.3-0.2-0.5v-22.7c0-0.2,0.1-0.3,0.2-0.4c0.1-0.1,0.3-0.2,0.5-0.3c0.2-0.1,0.6-0.2,1-0.2s0.9-0.1,1.5-0.1c1.2,0,2.1,0.1,2.5,0.3c0.4,0.2,0.7,0.4,0.7,0.7v10.1c0,0.7,0,1.4-0.1,2.2c-0.1,0.8-0.1,1.5-0.2,2.2c0.4-0.7,0.8-1.3,1.2-2s0.9-1.3,1.3-2l7.7-10.4c0.1-0.2,0.3-0.3,0.4-0.5c0.2-0.1,0.4-0.2,0.6-0.3c0.3-0.1,0.5-0.1,0.9-0.2c0.3,0,0.7-0.1,1.3-0.1s1.1,0,1.5,0.1s0.7,0.1,0.9,0.2c0.3,0.1,0.4,0.2,0.5,0.3c0.1,0.1,0.1,0.3,0.1,0.5v22.7C747.1,313.3,747,313.4,746.9,313.5z M744.7,282.3c-0.3,0.9-0.8,1.7-1.5,2.3c-0.7,0.7-1.7,1.2-2.8,1.6c-1.2,0.4-2.6,0.6-4.3,0.6s-3.1-0.2-4.2-0.5c-1.1-0.3-2.1-0.8-2.8-1.5c-0.8-0.6-1.3-1.4-1.6-2.3s-0.5-1.9-0.5-3c0-0.3,0.1-0.5,0.2-0.6c0.1-0.2,0.2-0.3,0.5-0.4s0.5-0.2,0.9-0.2c0.4-0.1,0.8-0.1,1.4-0.1c0.5,0,1,0,1.3,0.1s0.6,0.1,0.8,0.3c0.2,0.1,0.3,0.2,0.4,0.4c0.1,0.2,0.1,0.3,0.1,0.6c0,0.5,0.1,0.9,0.2,1.3c0.2,0.4,0.4,0.7,0.7,1s0.7,0.5,1.2,0.7s1,0.2,1.5,0.2s1-0.1,1.5-0.2s0.8-0.4,1.1-0.7c0.3-0.3,0.6-0.6,0.7-1c0.2-0.4,0.3-0.8,0.3-1.3c0-0.2,0-0.4,0.1-0.5s0.2-0.3,0.4-0.4s0.5-0.2,0.8-0.3c0.4-0.1,0.8-0.1,1.3-0.1c0.6,0,1.1,0,1.5,0.1c0.4,0,0.7,0.1,0.9,0.2s0.4,0.2,0.5,0.4c0.1,0.2,0.2,0.4,0.2,0.6C745.2,280.5,745,281.4,744.7,282.3z"/><path fill="#464445" d="M770.6,310.5c-0.1,0.3-0.1,0.5-0.1,0.7c-0.1,0.2-0.1,0.4-0.2,0.5c-0.1,0.2-0.2,0.3-0.4,0.5s-0.6,0.4-1,0.7c-0.5,0.3-1,0.5-1.7,0.7s-1.3,0.4-2.1,0.5c-0.7,0.1-1.5,0.2-2.3,0.2c-1.8,0-3.3-0.3-4.6-0.8s-2.5-1.3-3.4-2.4s-1.6-2.4-2.1-3.9s-0.7-3.3-0.7-5.2c0-2.3,0.3-4.2,0.9-5.9c0.6-1.7,1.3-3,2.4-4.1c1.1-1.1,2.2-1.9,3.6-2.4c1.4-0.5,2.9-0.8,4.6-0.8c0.7,0,1.3,0.1,2,0.2c0.6,0.1,1.2,0.3,1.8,0.5s1.1,0.4,1.5,0.7s0.8,0.5,0.9,0.7c0.1,0.2,0.3,0.3,0.4,0.5c0.1,0.1,0.2,0.3,0.2,0.5s0.1,0.5,0.1,0.7c0,0.3,0,0.7,0,1.1c0,1-0.1,1.7-0.3,2.1s-0.4,0.6-0.7,0.6s-0.6-0.1-0.9-0.4c-0.3-0.3-0.7-0.5-1.1-0.8s-1-0.6-1.6-0.8c-0.6-0.2-1.3-0.4-2.2-0.4c-1.7,0-2.9,0.6-3.8,1.9s-1.3,3.1-1.3,5.6c0,1.2,0.1,2.3,0.3,3.2c0.2,0.9,0.5,1.7,1,2.3c0.4,0.6,1,1.1,1.6,1.4s1.4,0.5,2.3,0.5c0.9,0,1.7-0.1,2.3-0.4c0.7-0.3,1.2-0.5,1.7-0.9s0.9-0.6,1.2-0.9s0.6-0.4,0.8-0.4s0.3,0.1,0.4,0.1c0.1,0,0.2,0.2,0.3,0.5c0.1,0.2,0.1,0.5,0.1,0.9s0.1,0.8,0.1,1.4C770.6,309.9,770.6,310.2,770.6,310.5z"/><path fill="#464445" d="M796.3,313.6c-0.1,0.1-0.3,0.2-0.5,0.2c-0.2,0.1-0.6,0.1-1,0.2c-0.4,0-0.9,0.1-1.5,0.1c-0.7,0-1.3,0-1.8-0.1s-0.8-0.1-1.1-0.2s-0.5-0.1-0.6-0.3c-0.1-0.2-0.2-0.3-0.3-0.4l-2.1-5.4c-0.3-0.7-0.5-1.3-0.8-1.8s-0.6-0.9-1-1.2c-0.4-0.3-0.8-0.5-1.2-0.7c-0.5-0.1-1-0.2-1.6-0.2h-1.3v9.2c0,0.1-0.1,0.2-0.2,0.3c-0.1,0.1-0.3,0.2-0.6,0.3c-0.3,0.1-0.6,0.2-1,0.2s-0.9,0.1-1.5,0.1s-1.1,0-1.5-0.1s-0.7-0.1-1-0.2s-0.4-0.2-0.6-0.3c-0.1-0.1-0.2-0.2-0.2-0.3v-23c0-0.1,0.1-0.2,0.2-0.4c0.1-0.1,0.3-0.2,0.6-0.3c0.3-0.1,0.6-0.2,1-0.2s0.9-0.1,1.5-0.1s1.1,0,1.5,0.1s0.7,0.1,1,0.2s0.4,0.2,0.6,0.3c0.1,0.1,0.2,0.2,0.2,0.4v8.8h1.3c0.5,0,1-0.1,1.4-0.2c0.4-0.2,0.8-0.4,1.1-0.7c0.4-0.3,0.7-0.7,1-1.2s0.6-1.1,0.9-1.8l1.9-4.9c0.1-0.2,0.1-0.3,0.3-0.5c0.1-0.1,0.3-0.2,0.5-0.3c0.3-0.1,0.6-0.1,1-0.2c0.5,0,1-0.1,1.7-0.1c0.6,0,1.1,0,1.5,0.1c0.4,0,0.7,0.1,1,0.2c0.2,0.1,0.4,0.2,0.5,0.3c0.1,0.1,0.1,0.2,0.1,0.3c0,0.2,0,0.4-0.1,0.6s-0.2,0.6-0.4,1l-1.8,4.3c-0.4,0.9-0.7,1.6-1.1,2.2c-0.4,0.6-0.8,1.1-1.2,1.5s-0.8,0.7-1.3,0.9c-0.5,0.2-0.8,0.4-1.2,0.6v0.1c0.5,0.2,1,0.5,1.5,0.7s0.9,0.6,1.3,1c0.4,0.4,0.8,0.9,1.2,1.5s0.8,1.3,1.1,2.2l2.2,5.1c0.1,0.2,0.2,0.4,0.3,0.6s0.1,0.3,0.1,0.4c0,0.2,0.1,0.3,0.1,0.3v0.2C796.5,313.4,796.4,313.5,796.3,313.6z"/><path fill="#464445" d="M823.3,313.5c-0.1,0.1-0.3,0.2-0.5,0.3c-0.2,0.1-0.6,0.1-0.9,0.2c-0.4,0-0.9,0.1-1.5,0.1s-1.1,0-1.5-0.1c-0.4,0-0.8-0.1-1-0.2c-0.3-0.1-0.5-0.2-0.6-0.3s-0.2-0.3-0.2-0.4V303c0-0.7,0-1.4,0.1-2.2c0-0.8,0.1-1.5,0.2-2.2c-0.4,0.7-0.8,1.4-1.3,2.1s-1,1.4-1.4,2.1l-7.6,10.4c-0.2,0.2-0.3,0.4-0.4,0.5c-0.1,0.2-0.3,0.3-0.5,0.3c-0.2,0.1-0.5,0.2-0.8,0.2c-0.3,0.1-0.7,0.1-1.2,0.1c-0.6,0-1.1,0-1.5-0.1c-0.4,0-0.7-0.1-0.9-0.2s-0.4-0.2-0.5-0.3c-0.1-0.2-0.2-0.3-0.2-0.5v-22.7c0-0.2,0.1-0.3,0.2-0.4c0.1-0.1,0.3-0.2,0.5-0.3c0.2-0.1,0.6-0.2,1-0.2s0.9-0.1,1.5-0.1c1.2,0,2.1,0.1,2.5,0.3c0.4,0.2,0.7,0.4,0.7,0.7v10.1c0,0.7,0,1.4-0.1,2.2c-0.1,0.8-0.1,1.5-0.2,2.2c0.4-0.7,0.8-1.3,1.2-2s0.9-1.3,1.3-2l7.7-10.4c0.1-0.2,0.3-0.3,0.4-0.5c0.2-0.1,0.4-0.2,0.6-0.3c0.3-0.1,0.5-0.1,0.9-0.2c0.3,0,0.7-0.1,1.3-0.1s1.1,0,1.5,0.1s0.7,0.1,0.9,0.2c0.3,0.1,0.4,0.2,0.5,0.3c0.1,0.1,0.1,0.3,0.1,0.5v22.7C823.5,313.3,823.4,313.4,823.3,313.5z"/><path fill="#464445" d="M852.3,313.5c-0.1,0.1-0.3,0.2-0.5,0.3c-0.2,0.1-0.6,0.1-0.9,0.2c-0.4,0-0.9,0.1-1.5,0.1s-1.1,0-1.5-0.1c-0.4,0-0.8-0.1-1-0.2c-0.3-0.1-0.5-0.2-0.6-0.3s-0.2-0.3-0.2-0.4V303c0-0.7,0-1.4,0.1-2.2c0-0.8,0.1-1.5,0.2-2.2c-0.4,0.7-0.8,1.4-1.3,2.1s-1,1.4-1.4,2.1l-7.6,10.4c-0.2,0.2-0.3,0.4-0.4,0.5c-0.1,0.2-0.3,0.3-0.5,0.3c-0.2,0.1-0.5,0.2-0.8,0.2c-0.3,0.1-0.7,0.1-1.2,0.1c-0.6,0-1.1,0-1.5-0.1c-0.4,0-0.7-0.1-0.9-0.2s-0.4-0.2-0.5-0.3c-0.1-0.2-0.2-0.3-0.2-0.5v-22.7c0-0.2,0.1-0.3,0.2-0.4c0.1-0.1,0.3-0.2,0.5-0.3s0.6-0.2,1-0.2s0.9-0.1,1.5-0.1c1.2,0,2.1,0.1,2.5,0.3c0.4,0.2,0.7,0.4,0.7,0.7v10.1c0,0.7,0,1.4-0.1,2.2c-0.1,0.8-0.1,1.5-0.2,2.2c0.4-0.7,0.8-1.3,1.2-2s0.9-1.3,1.3-2l7.7-10.4c0.1-0.2,0.3-0.3,0.4-0.5c0.2-0.1,0.4-0.2,0.6-0.3c0.3-0.1,0.5-0.1,0.9-0.2c0.3,0,0.7-0.1,1.3-0.1s1.1,0,1.5,0.1s0.7,0.1,0.9,0.2c0.3,0.1,0.4,0.2,0.5,0.3c0.1,0.1,0.1,0.3,0.1,0.5v22.7C852.4,313.3,852.4,313.4,852.3,313.5z M850.1,282.3c-0.3,0.9-0.8,1.7-1.5,2.3c-0.7,0.7-1.7,1.2-2.8,1.6c-1.2,0.4-2.6,0.6-4.3,0.6s-3.1-0.2-4.2-0.5s-2.1-0.8-2.8-1.5c-0.8-0.6-1.3-1.4-1.6-2.3s-0.5-1.9-0.5-3c0-0.3,0.1-0.5,0.2-0.6c0.1-0.2,0.2-0.3,0.5-0.4s0.5-0.2,0.9-0.2c0.4-0.1,0.8-0.1,1.4-0.1c0.5,0,1,0,1.3,0.1s0.6,0.1,0.8,0.3c0.2,0.1,0.3,0.2,0.4,0.4c0.1,0.2,0.1,0.3,0.1,0.6c0,0.5,0.1,0.9,0.2,1.3c0.2,0.4,0.4,0.7,0.7,1s0.7,0.5,1.2,0.7s1,0.2,1.5,0.2s1-0.1,1.5-0.2s0.8-0.4,1.1-0.7s0.6-0.6,0.7-1c0.2-0.4,0.3-0.8,0.3-1.3c0-0.2,0-0.4,0.1-0.5s0.2-0.3,0.4-0.4s0.5-0.2,0.8-0.3c0.4-0.1,0.8-0.1,1.3-0.1c0.6,0,1.1,0,1.5,0.1c0.4,0,0.7,0.1,0.9,0.2s0.4,0.2,0.5,0.4c0.1,0.2,0.2,0.4,0.2,0.6C850.6,280.5,850.4,281.4,850.1,282.3z"/><path fill="#464445" d="M619.2,338.9c1.7-2.3,3.7-3.6,5.3-3.6c0.5,0,0.7,0.4,0.7,0.9c0,1-0.9,3.8-1.4,5.8c1.5,0,4.6-0.1,5.5-0.2c0.6-2.3,1.3-4.5,1.7-6.1c0.7,0,2-0.1,2.5-0.2c-0.2,0.4-0.5,1.3-1,3.3c-0.8,2.7-1.8,6-2.3,8.3c-0.2,0.9-0.2,1.2,0,1.2c0.4,0,1.4-0.7,3-2.9l0.6,0.6c-1.5,2.7-3.8,4.3-5.4,4.3c-1.2,0-1.1-1.3-0.5-3.4c0.5-1.8,0.8-2.9,1.2-4.1c-1.4,0.2-3.6,0.3-5.5,0.3l-2.1,7.1c-0.8,0-1.9-0.2-2.3-0.4c0.9-3,2.6-8.5,3.2-11.1c0.2-0.8,0.3-1.3,0-1.3c-0.4,0-1.2,0.5-2.6,2L619.2,338.9z"/><path fill="#464445" d="M650,346c-1.6,2.9-4,4.3-5.2,4.3c-0.7,0-1.2-0.5-1.2-1.2c0-0.8,0.4-2,1.4-5.6c-1.2,2.3-2.5,3.9-4.2,5.2c-1.1,0.9-2.3,1.5-3.3,1.5c-1.2,0-2-0.9-2-2.8c0-3.2,1.9-7.5,4.3-9.9c1.2-1.2,2.7-2.2,4.4-2.2c1.3,0,2.2,0.7,2.6,1.6l0.5-1.6h2.3c-0.8,2.6-2.6,8.8-3.5,12c-0.2,0.7-0.2,1,0.2,1s1.7-1,2.9-2.9L650,346z M644.5,336.4c-1.2,0-2.5,1.1-3.6,2.8c-1.5,2.3-2.7,5.6-2.7,7.8c0,1.1,0.3,1.5,0.9,1.5c1.7,0,4.9-4.1,6.3-7.3c0.5-1.2,0.7-2.3,0.7-2.8C646.1,336.7,645.2,336.4,644.5,336.4z"/><path fill="#464445" d="M668.6,345.8c-1.5,2.7-3.8,4.5-6.1,4.5c-2.1,0-3.4-1.3-3.4-4.2c0-2.7,1.2-6.4,3.6-8.7c1.4-1.4,3-2.1,4.6-2.1c2.3,0,3,1.2,3,1.9c0,1-0.8,1.6-1.4,1.6c-0.5,0-0.8-0.3-1.2-0.9c-0.5-0.8-0.8-1.2-1.1-1.3c-0.2-0.1-0.3-0.1-0.5-0.1c-2.3,0-4.5,5.3-4.5,9.1c0,2,0.8,2.9,2,2.9c1.1,0,2.5-0.7,4.3-3.3L668.6,345.8z"/><path fill="#464445" d="M671.3,338.9c1.4-2.2,3.6-3.6,5.2-3.6c0.6,0,0.8,0.5,0.8,1c0,1-1.3,5.4-1.9,7.3c1.4-1.8,2.8-3.4,4.8-5.5c2.2-2.4,3.5-2.8,4.3-2.8c0.9,0,1.3,0.5,1.3,1.1c0,1.1-1,2-1.6,2c-0.3,0-0.5-0.2-0.7-0.5s-0.4-0.5-0.8-0.5c-0.4,0-0.9,0.3-2.1,1.4c-0.9,0.9-1.8,1.9-2.5,2.8c0.6,0.3,1.1,1,1.6,2.4c0.4,0.9,0.5,1.5,0.8,2.4c0.6,1.8,0.8,2,1.2,2c0.6,0,1.4-1,2.3-2.4l0.5,0.7c-1.3,2.5-2.9,3.7-4.1,3.7c-0.9,0-1.4-0.4-2.1-2.8c-0.4-1.4-0.6-2.6-0.8-3.3c-0.3-1-0.4-1.3-0.7-1.3c-0.1,0-0.3,0.1-0.6,0.5c-1.2,1.6-1.8,2.8-2.2,4.1l-0.8,2.6c-0.8,0-1.9-0.2-2.3-0.4c0.9-3,2.6-8.7,3.3-11.2c0.2-0.8,0.3-1.3,0-1.3c-0.4,0-1.3,0.6-2.6,2.2L671.3,338.9z"/><path fill="#464445" d="M699.8,340c0,3-1.6,6.8-4.4,8.9c-1.2,0.9-2.6,1.4-4.2,1.4c-2.8,0-4.1-2-4.1-4.5c0-3.1,1.7-7.2,4.7-9.3c1.1-0.7,2.4-1.2,3.8-1.2C698.9,335.3,699.8,337.9,699.8,340z M697.2,339c0-1.6-0.4-2.7-1.8-2.7c-3,0-5.6,5.8-5.6,10.2c0,1.9,0.6,2.7,2,2.7C694.9,349.2,697.2,342.4,697.2,339z"/><path fill="#464445" d="M702,338.3c1.1-1,2.7-1.8,4.3-2.4c0.4-1.4,0.7-2.4,1-3.5c0.5,0,1.7-0.1,2.4-0.1c-0.2,0.6-0.6,1.7-0.9,3.1c0.4-0.1,0.8-0.1,1.6-0.1c3,0,5,1.3,5,4.2c0,5.2-5.1,10.8-8.9,10.8c-0.7,0-1.2-0.1-1.9-0.4c-0.4,1.2-0.9,3.1-1.3,4.8c-0.3,1.2-0.1,1.3,2.6,1.5l-0.3,0.9c-3,0-6.4,0.2-7.9,0.4l0.3-1c2-0.3,2.4-0.4,2.8-1.5c1.1-3.2,3.3-11.3,5.2-17.7c-1,0.3-2.6,1.2-3.6,2L702,338.3z M705.5,346.6c-0.1,0.4-0.2,0.8-0.2,1c0,1,0.9,1.6,1.5,1.6c2.7,0,5.9-5.9,5.9-9.2c0-2.5-0.9-3.4-3.3-3.4c-0.3,0-0.8,0.1-1,0.1C707.4,340.1,706.2,344.4,705.5,346.6z"/><path fill="#464445" d="M717.4,339.8c1.7-3.2,3.4-4.5,4.6-4.5c0.9,0,1.3,1,1.5,3c0.3,3.1,0.5,7.5,0.4,10.3c3.5-5.4,4.2-8.8,4.2-10.1c0-0.8-0.3-1.7-0.3-2s0.9-1.2,1.9-1.2c0.5,0,0.5,0.5,0.5,1.2c0,0.5-0.1,1.1-0.3,2c-0.9,4.4-5.3,11.2-8.2,14.6c-2.1,2.5-4.4,4.4-5.8,4.4c-1.1,0-1.8-0.6-1.8-1.6s1.1-2.1,1.7-2.1c0.3,0,0.5,0.1,0.8,0.5c0.5,0.6,0.7,0.8,1.1,0.8c0.4,0,1.2-0.5,2.2-1.7c1.4-1.8,1.7-2.9,1.7-6.5c0-1.7-0.1-5-0.6-7.8c-0.1-1-0.4-1.5-0.7-1.5c-0.6,0-1.3,0.9-2.4,2.8L717.4,339.8z"/><path fill="#464445" d="M732.4,338.9c1.7-2.2,3.6-3.6,5.3-3.6c0.5,0,0.7,0.4,0.7,0.9c0,1-0.9,3.8-1.4,5.8c1.1,0,2.6,0,3.4-0.1c0.7-2,2-4.1,3.9-5.4c1.1-0.8,2.4-1.2,3.8-1.2c3.2,0,4.1,2.7,4.1,4.7c0,3-1.6,6.8-4.2,8.8c-1.3,1-2.8,1.5-4.3,1.5c-2.8,0-4-2-4-4.4c0-0.8,0.1-2,0.4-2.8c-1,0.1-2.5,0.1-3.4,0.1l-2.1,7.1c-0.7,0-1.9-0.2-2.3-0.4c0.9-3,2.6-8.5,3.2-11.1c0.2-0.8,0.3-1.3,0-1.3c-0.4,0-1.2,0.5-2.6,2L732.4,338.9z M749.6,339c0-1.6-0.4-2.7-1.8-2.7c-3,0-5.5,5.7-5.5,10.1c0,1.8,0.6,2.8,2,2.8C747.3,349.3,749.6,342.4,749.6,339z"/><path fill="#464445" d="M761.3,338.3c1.1-1,2.7-1.8,4.3-2.4c0.4-1.4,0.7-2.4,1-3.5c0.5,0,1.7-0.1,2.4-0.1c-0.2,0.6-0.6,1.7-0.9,3.1c0.4-0.1,0.8-0.1,1.6-0.1c3,0,5,1.3,5,4.2c0,5.2-5.1,10.8-8.9,10.8c-0.7,0-1.2-0.1-1.9-0.4c-0.4,1.2-0.9,3.1-1.3,4.8c-0.3,1.2-0.1,1.3,2.6,1.5l-0.3,0.9c-3,0-6.4,0.2-7.9,0.4l0.3-1c2-0.3,2.4-0.4,2.8-1.5c1.1-3.2,3.3-11.3,5.2-17.7c-1,0.3-2.6,1.2-3.6,2L761.3,338.3z M764.7,346.6c-0.1,0.4-0.2,0.8-0.2,1c0,1,0.9,1.6,1.5,1.6c2.7,0,5.9-5.9,5.9-9.2c0-2.5-0.9-3.4-3.3-3.4c-0.3,0-0.8,0.1-1,0.1C766.6,340.1,765.4,344.4,764.7,346.6z"/><path fill="#464445" d="M776.6,339.8c1.7-3.2,3.4-4.5,4.6-4.5c0.9,0,1.3,1,1.5,3c0.3,3.1,0.5,7.5,0.4,10.3c3.5-5.4,4.2-8.8,4.2-10.1c0-0.8-0.3-1.7-0.3-2s0.9-1.2,1.9-1.2c0.5,0,0.5,0.5,0.5,1.2c0,0.5-0.1,1.1-0.3,2c-0.9,4.4-5.3,11.2-8.2,14.6c-2.1,2.5-4.4,4.4-5.8,4.4c-1.1,0-1.8-0.6-1.8-1.6s1.1-2.1,1.7-2.1c0.3,0,0.5,0.1,0.8,0.5c0.5,0.6,0.7,0.8,1.1,0.8c0.4,0,1.2-0.5,2.2-1.7c1.4-1.8,1.7-2.9,1.7-6.5c0-1.7-0.1-5-0.6-7.8c-0.1-1-0.4-1.5-0.7-1.5c-0.6,0-1.3,0.9-2.4,2.8L776.6,339.8z"/><path fill="#464445" d="M791.5,338.9c1.4-2.2,3.6-3.6,5.2-3.6c0.6,0,0.8,0.5,0.8,1c0,1-1.3,5.4-1.9,7.3c1.4-1.8,2.8-3.4,4.8-5.5c2.2-2.4,3.5-2.8,4.3-2.8c0.9,0,1.3,0.5,1.3,1.1c0,1.1-1,2-1.6,2c-0.3,0-0.5-0.2-0.7-0.5s-0.4-0.5-0.8-0.5c-0.4,0-0.9,0.3-2.1,1.4c-0.9,0.9-1.8,1.9-2.5,2.8c0.6,0.3,1.1,1,1.6,2.4c0.4,0.9,0.5,1.5,0.8,2.4c0.6,1.8,0.8,2,1.2,2c0.6,0,1.4-1,2.3-2.4l0.5,0.7c-1.3,2.5-2.9,3.7-4.1,3.7c-0.9,0-1.4-0.4-2.1-2.8c-0.4-1.4-0.6-2.6-0.8-3.3c-0.3-1-0.4-1.3-0.7-1.3c-0.1,0-0.3,0.1-0.6,0.5c-1.2,1.6-1.8,2.8-2.2,4.1l-0.8,2.6c-0.8,0-1.9-0.2-2.3-0.4c0.9-3,2.6-8.7,3.3-11.2c0.2-0.8,0.3-1.3,0-1.3c-0.4,0-1.3,0.6-2.6,2.2L791.5,338.9z"/><path fill="#464445" d="M807.7,339.8c1.7-3.2,3.4-4.5,4.6-4.5c0.9,0,1.3,1,1.5,3c0.3,3.1,0.5,7.5,0.4,10.3c3.5-5.4,4.2-8.8,4.2-10.1c0-0.8-0.3-1.7-0.3-2s0.9-1.2,1.9-1.2c0.5,0,0.5,0.5,0.5,1.2c0,0.5-0.1,1.1-0.3,2c-0.9,4.4-5.3,11.2-8.2,14.6c-2.1,2.5-4.4,4.4-5.8,4.4c-1.1,0-1.8-0.6-1.8-1.6s1.1-2.1,1.7-2.1c0.3,0,0.5,0.1,0.8,0.5c0.5,0.6,0.7,0.8,1.1,0.8c0.4,0,1.2-0.5,2.2-1.7c1.4-1.8,1.7-2.9,1.7-6.5c0-1.7-0.1-5-0.6-7.8c-0.1-1-0.4-1.5-0.7-1.5c-0.6,0-1.3,0.9-2.4,2.8L807.7,339.8z"/><path fill="#464445" d="M611.9,418c0,0.1,0,0.1,0,0.2s0,0.1-0.1,0.2s-0.1,0.1-0.1,0.2s-0.2,0.2-0.4,0.3s-0.5,0.3-0.8,0.4s-0.7,0.2-1.1,0.3c-0.4,0.1-0.8,0.1-1.3,0.1c-0.8,0-1.6-0.1-2.2-0.4c-0.7-0.3-1.2-0.7-1.7-1.2s-0.8-1.2-1.1-2s-0.4-1.7-0.4-2.7s0.1-2,0.4-2.8c0.3-0.8,0.7-1.5,1.1-2.1c0.5-0.6,1.1-1,1.7-1.3c0.7-0.3,1.4-0.4,2.3-0.4c0.4,0,0.7,0,1.1,0.1c0.3,0.1,0.7,0.2,1,0.3c0.3,0.1,0.6,0.2,0.8,0.4c0.2,0.2,0.4,0.3,0.5,0.3c0.1,0.1,0.1,0.2,0.2,0.2c0.1,0,0,0.1,0.1,0.2c0,0.1,0,0.1,0,0.2s0,0.2,0,0.3c0,0.1,0,0.2,0,0.3c0,0.1,0,0.2-0.1,0.2c0,0.1-0.1,0.1-0.1,0.1h-0.1c-0.1,0-0.2-0.1-0.4-0.2s-0.4-0.3-0.6-0.4c-0.3-0.1-0.6-0.3-0.9-0.4c-0.4-0.1-0.8-0.2-1.3-0.2c-0.6,0-1.1,0.1-1.5,0.3c-0.4,0.2-0.8,0.6-1.2,1s-0.6,1-0.8,1.6s-0.3,1.3-0.3,2.1s0.1,1.5,0.3,2.1s0.4,1.1,0.7,1.5s0.7,0.7,1.2,0.9c0.5,0.2,1,0.3,1.6,0.3c0.5,0,0.9-0.1,1.3-0.2c0.4-0.1,0.7-0.3,1-0.4s0.5-0.3,0.7-0.4s0.3-0.2,0.4-0.2h0.1l0.1,0.1c0,0,0,0.1,0,0.2s0,0.2,0,0.4C611.9,417.9,611.9,418,611.9,418z"/><path fill="#464445" d="M621.9,416.8c-0.2,0.6-0.5,1.1-0.9,1.6c-0.4,0.4-0.8,0.8-1.4,1s-1.2,0.4-1.9,0.4s-1.3-0.1-1.9-0.3c-0.5-0.2-1-0.6-1.3-1.1c-0.4-0.5-0.6-1-0.8-1.7s-0.2-1.5-0.2-2.5c0-0.8,0-1.5,0.1-2.2s0.2-1.3,0.3-1.8s0.3-1,0.5-1.4s0.4-0.7,0.6-0.9s0.4-0.4,0.6-0.5c0.2-0.1,0.4-0.3,0.6-0.4c0.2-0.1,0.5-0.2,0.8-0.3c0.3-0.1,0.6-0.2,1-0.2l3.1-0.5c0.1,0,0.2,0,0.3,0s0.1,0,0.2,0.1c0,0.1,0.1,0.1,0.1,0.2s0,0.3,0,0.5c0,0.1,0,0.2,0,0.3c0,0.1,0,0.2-0.1,0.2s-0.1,0.1-0.1,0.1s-0.1,0.1-0.3,0.1l-2.9,0.5c-0.3,0-0.5,0.1-0.8,0.2s-0.4,0.1-0.6,0.2c-0.2,0.1-0.3,0.1-0.5,0.2c-0.1,0.1-0.3,0.2-0.4,0.3c-0.1,0.1-0.2,0.3-0.4,0.5c-0.1,0.2-0.2,0.4-0.3,0.7c-0.1,0.3-0.1,0.5-0.2,0.8s-0.1,0.6-0.1,1c0.2-0.2,0.4-0.4,0.7-0.6c0.2-0.2,0.5-0.3,0.8-0.5s0.5-0.2,0.8-0.3c0.3-0.1,0.6-0.1,0.9-0.1c0.6,0,1.2,0.1,1.7,0.3c0.5,0.2,0.9,0.5,1.2,0.9s0.5,0.9,0.7,1.4s0.2,1.2,0.2,1.8C622.2,415.5,622.1,416.2,621.9,416.8z M620.4,413.7c-0.1-0.4-0.2-0.7-0.4-1s-0.4-0.5-0.7-0.7s-0.7-0.3-1.1-0.3c-0.3,0-0.5,0-0.8,0.1c-0.2,0.1-0.5,0.2-0.7,0.3c-0.2,0.1-0.5,0.3-0.7,0.5s-0.5,0.4-0.7,0.7c0,0.1,0,0.2,0,0.4v0.4c0,0.7,0,1.3,0.1,1.9c0.1,0.5,0.2,1,0.4,1.3s0.5,0.6,0.8,0.8c0.3,0.2,0.7,0.3,1.2,0.3c0.4,0,0.8-0.1,1.1-0.2c0.3-0.2,0.6-0.4,0.8-0.7c0.2-0.3,0.4-0.7,0.5-1.1s0.2-0.9,0.2-1.4C620.5,414.5,620.5,414.1,620.4,413.7z"/><path fill="#464445" d="M632.5,416.8c-0.2,0.6-0.5,1.1-0.8,1.6c-0.4,0.4-0.8,0.8-1.4,1c-0.6,0.2-1.2,0.4-2,0.4c-0.7,0-1.3-0.1-1.9-0.3c-0.5-0.2-1-0.5-1.3-0.9s-0.6-0.9-0.8-1.5s-0.3-1.3-0.3-2s0.1-1.4,0.3-2s0.5-1.1,0.8-1.6c0.4-0.4,0.8-0.8,1.4-1c0.6-0.2,1.2-0.4,2-0.4c0.7,0,1.4,0.1,1.9,0.3c0.5,0.2,1,0.5,1.3,0.9s0.6,0.9,0.8,1.5s0.3,1.3,0.3,2S632.7,416.2,632.5,416.8z M631,413.6c-0.1-0.4-0.2-0.8-0.4-1.1c-0.2-0.3-0.5-0.6-0.8-0.8c-0.3-0.2-0.8-0.3-1.3-0.3s-0.9,0.1-1.2,0.3s-0.6,0.4-0.8,0.7c-0.2,0.3-0.4,0.7-0.5,1.1s-0.2,0.9-0.2,1.4s0,0.9,0.1,1.4c0.1,0.4,0.2,0.8,0.4,1.1s0.5,0.6,0.8,0.8c0.3,0.2,0.8,0.3,1.3,0.3s0.9-0.1,1.2-0.3c0.3-0.2,0.6-0.4,0.8-0.7c0.2-0.3,0.4-0.7,0.5-1.1s0.2-0.9,0.2-1.4C631.1,414.4,631.1,414,631,413.6z"/><path fill="#464445" d="M643,416.8c-0.2,0.6-0.4,1.1-0.7,1.6c-0.3,0.4-0.7,0.8-1.2,1s-1,0.3-1.6,0.3c-0.3,0-0.5,0-0.7-0.1s-0.4-0.1-0.7-0.2c-0.2-0.1-0.4-0.3-0.6-0.4c-0.2-0.1-0.4-0.4-0.7-0.6v4.4v0.1l-0.1,0.1c0,0-0.1,0-0.2,0.1c-0.1,0.1-0.2,0-0.4,0s-0.3,0-0.4,0c-0.1,0-0.2,0-0.2-0.1c-0.1,0-0.1-0.1-0.1-0.1v-0.1v-12.3c0-0.1,0-0.1,0-0.1l0.1-0.1c0,0,0.1,0,0.2,0c0.1,0,0.2,0,0.3,0s0.2,0,0.3,0s0.2,0,0.2,0l0.1,0.1v0.1v1.2c0.3-0.3,0.5-0.5,0.8-0.7s0.5-0.4,0.8-0.5c0.2-0.1,0.5-0.2,0.8-0.3c0.3-0.1,0.5-0.1,0.8-0.1c0.6,0,1.2,0.1,1.6,0.4s0.8,0.6,1.1,1s0.5,0.9,0.6,1.5s0.2,1.2,0.2,1.8C643.2,415.5,643.2,416.2,643,416.8z M641.5,413.7c-0.1-0.4-0.2-0.8-0.4-1.1c-0.2-0.3-0.4-0.6-0.7-0.8c-0.3-0.2-0.6-0.3-1-0.3c-0.2,0-0.4,0-0.6,0.1c-0.2,0.1-0.4,0.2-0.6,0.3c-0.2,0.1-0.4,0.3-0.7,0.5c-0.2,0.2-0.5,0.5-0.7,0.8v3.5c0.4,0.5,0.9,1,1.3,1.2c0.4,0.2,0.8,0.4,1.3,0.4c0.4,0,0.8-0.1,1-0.3c0.3-0.2,0.5-0.5,0.7-0.8s0.3-0.7,0.4-1.1c0.1-0.4,0.1-0.8,0.1-1.2S641.5,414.1,641.5,413.7z"/><path fill="#464445" d="M653.2,419.4L653.2,419.4c-0.1,0.1-0.2,0.1-0.3,0.2s-0.2,0-0.4,0s-0.3,0-0.4,0c-0.1,0-0.2,0-0.2-0.1s-0.1-0.1-0.1-0.1v-0.1v-3.9h-4.5v3.9v0.1l-0.1,0.1c0,0-0.1,0-0.2,0.1c-0.1,0.1-0.2,0-0.4,0s-0.3,0-0.4,0c-0.1,0-0.2,0-0.2-0.1c-0.1,0-0.1-0.1-0.1-0.1v-0.1v-8.8v-0.1l0.1-0.1c0.1,0,0.1-0.1,0.2-0.1s0.2,0,0.4,0s0.3,0,0.4,0c0.1,0,0.2,0,0.2,0.1c0.1,0,0.1,0.1,0.1,0.1v0.1v3.6h4.5v-3.6v-0.1l0.1-0.1c0.1,0,0.1-0.1,0.2-0.1c0.1,0,0.2,0,0.4,0s0.3,0,0.4,0s0.2,0,0.2,0.1c0.1,0,0.1,0.1,0.1,0.1v0.1v8.8C653.4,419.4,653.4,419.4,653.2,419.4z"/><path fill="#464445" d="M664.2,419.4L664.2,419.4c-0.2,0.1-0.2,0.1-0.3,0.2s-0.2,0-0.4,0s-0.3,0-0.4,0s-0.2,0-0.3-0.1c-0.1,0-0.1,0-0.1-0.1s0-0.1,0-0.1v-5.1c0-0.3,0-0.5,0-0.8s0-0.5,0-0.8c-0.1,0.3-0.3,0.5-0.5,0.8c-0.2,0.2-0.4,0.5-0.5,0.7l-3.7,5.1l-0.1,0.1l-0.1,0.1c0,0-0.1,0-0.2,0c-0.1,0-0.2,0-0.3,0s-0.3,0-0.4,0s-0.2,0-0.2-0.1c0,0-0.1,0-0.1-0.1v-0.1v-8.8v-0.1l0.1-0.1c0.1,0,0.1,0,0.2,0c0.1,0,0.2,0,0.4,0c0.3,0,0.5,0,0.6,0.1c0.1,0,0.2,0.1,0.2,0.2v5.1c0,0.3,0,0.5,0,0.8s0,0.5,0,0.8c0.1-0.2,0.3-0.5,0.5-0.7c0.1-0.2,0.3-0.5,0.5-0.7l3.8-5.2l0.1-0.1c0,0,0.1-0.1,0.2-0.1c0.1,0,0.1,0,0.2,0c0.1,0,0.2,0,0.3,0s0.3,0,0.4,0s0.2,0,0.2,0c0.1,0,0.1,0.1,0.1,0.1v0.1v8.8C664.2,419.4,664.2,419.4,664.2,419.4z"/><path fill="#464445" d="M674.2,419.5l-0.1,0.1c-0.1,0-0.1,0-0.2,0s-0.2,0-0.4,0s-0.3,0-0.4,0s-0.2,0-0.3-0.1c-0.1,0-0.1,0-0.2-0.1l-0.1-0.1l-0.9-2.3c-0.1-0.3-0.2-0.5-0.4-0.8c-0.1-0.2-0.3-0.4-0.5-0.5s-0.4-0.2-0.6-0.3c-0.2-0.1-0.5-0.1-0.8-0.1h-0.7v4v0.1l-0.1,0.1c0,0-0.1,0-0.3,0s-0.2,0-0.4,0s-0.3,0-0.4,0c-0.1,0-0.2,0-0.3,0s-0.1,0-0.1-0.1v-0.1v-8.9v-0.1l0.1-0.1c0,0,0.1,0,0.3,0c0.1,0,0.2,0,0.4,0s0.3,0,0.4,0s0.2,0,0.3,0s0.1,0,0.1,0.1v0.1v3.7h0.7c0.2,0,0.5,0,0.7-0.1s0.4-0.2,0.6-0.3c0.2-0.1,0.3-0.3,0.5-0.5c0.1-0.2,0.3-0.4,0.4-0.7l0.8-2c0,0,0-0.1,0.1-0.1s0.1-0.1,0.1-0.1s0.1,0,0.3,0c0.1,0,0.2,0,0.4,0s0.3,0,0.4,0c0.1,0,0.2,0,0.2,0c0.1,0,0.1,0,0.1,0.1v0.1c0,0.1,0,0.1,0,0.2s0,0.1-0.1,0.2l-0.8,1.9c-0.1,0.3-0.3,0.6-0.4,0.8c-0.2,0.2-0.3,0.4-0.5,0.6c-0.2,0.1-0.3,0.3-0.5,0.3c-0.2,0.1-0.3,0.1-0.5,0.2l0,0c0.2,0.1,0.4,0.2,0.6,0.3c0.2,0.1,0.4,0.2,0.5,0.4c0.2,0.2,0.3,0.4,0.5,0.6c0.1,0.2,0.3,0.5,0.4,0.8l1,2.2c0,0,0,0.1,0.1,0.1s0,0.1,0,0.1v0.1C674.4,419.3,674.4,419.4,674.2,419.5C674.4,419.4,674.2,419.5,674.2,419.5z"/><path fill="#464445" d="M688.1,419.5l-0.1,0.1c-0.1,0-0.1,0-0.2,0s-0.2,0-0.4,0s-0.3,0-0.4,0c-0.1,0-0.2,0-0.3-0.1c-0.1,0-0.1,0-0.2-0.1l-0.1-0.1l-0.9-2.3c-0.1-0.3-0.2-0.5-0.4-0.8c-0.1-0.2-0.3-0.4-0.5-0.5s-0.4-0.2-0.6-0.3c-0.2-0.1-0.5-0.1-0.8-0.1h-0.7v4v0.1l-0.1,0.1c0,0-0.1,0-0.3,0s-0.2,0-0.4,0s-0.3,0-0.4,0c-0.1,0-0.2,0-0.3,0s-0.1,0-0.1-0.1v-0.1v-8.9v-0.1l0.1-0.1c0,0,0.1,0,0.3,0c0.1,0,0.2,0,0.4,0s0.3,0,0.4,0s0.2,0,0.3,0s0.1,0,0.1,0.1v0.1v3.7h0.7c0.2,0,0.5,0,0.7-0.1s0.4-0.2,0.6-0.3c0.2-0.1,0.3-0.3,0.5-0.5c0.1-0.2,0.3-0.4,0.4-0.7l0.8-2c0,0,0-0.1,0.1-0.1s0.1-0.1,0.1-0.1s0.1,0,0.3,0c0.1,0,0.2,0,0.4,0s0.3,0,0.4,0s0.2,0,0.2,0c0.1,0,0.1,0,0.1,0.1v0.1c0,0.1,0,0.1,0,0.2s0,0.1-0.1,0.2l-0.8,1.9c-0.1,0.3-0.3,0.6-0.4,0.8c-0.2,0.2-0.3,0.4-0.5,0.6c-0.2,0.1-0.3,0.3-0.5,0.3c-0.2,0.1-0.3,0.1-0.5,0.2l0,0c0.2,0.1,0.4,0.2,0.6,0.3c0.2,0.1,0.4,0.2,0.5,0.4c0.2,0.2,0.3,0.4,0.5,0.6c0.1,0.2,0.3,0.5,0.4,0.8l1,2.2c0,0,0,0.1,0.1,0.1s0,0.1,0,0.1v0.1C688.2,419.3,688.2,419.4,688.1,419.5C688.2,419.4,688.1,419.5,688.1,419.5z"/><path fill="#464445" d="M698.1,416.8c-0.2,0.6-0.4,1.1-0.7,1.6c-0.3,0.4-0.7,0.8-1.2,1s-1,0.3-1.6,0.3c-0.3,0-0.5,0-0.7-0.1s-0.4-0.1-0.7-0.2c-0.2-0.1-0.4-0.3-0.6-0.4c-0.2-0.1-0.4-0.4-0.7-0.6v4.4v0.1l-0.1,0.1c0,0-0.1,0-0.2,0.1c-0.1,0.1-0.2,0-0.4,0s-0.3,0-0.4,0c-0.1,0-0.2,0-0.2-0.1c-0.1,0-0.1-0.1-0.1-0.1v-0.1v-12.3c0-0.1,0-0.1,0-0.1l0.1-0.1c0,0,0.1,0,0.2,0s0.2,0,0.3,0s0.2,0,0.3,0s0.2,0,0.2,0l0.1,0.1v0.1v1.2c0.3-0.3,0.5-0.5,0.8-0.7s0.5-0.4,0.8-0.5c0.2-0.1,0.5-0.2,0.8-0.3c0.3-0.1,0.5-0.1,0.8-0.1c0.6,0,1.2,0.1,1.6,0.4c0.4,0.3,0.8,0.6,1.1,1s0.5,0.9,0.6,1.5s0.2,1.2,0.2,1.8C698.2,415.5,698.2,416.2,698.1,416.8z M696.5,413.7c-0.1-0.4-0.2-0.8-0.4-1.1c-0.2-0.3-0.4-0.6-0.7-0.8c-0.3-0.2-0.6-0.3-1-0.3c-0.2,0-0.4,0-0.6,0.1s-0.4,0.2-0.6,0.3c-0.2,0.1-0.4,0.3-0.7,0.5c-0.2,0.2-0.5,0.5-0.7,0.8v3.5c0.4,0.5,0.9,1,1.3,1.2c0.4,0.2,0.8,0.4,1.3,0.4c0.4,0,0.8-0.1,1-0.3c0.3-0.2,0.5-0.5,0.7-0.8s0.3-0.7,0.4-1.1c0.1-0.4,0.1-0.8,0.1-1.2S696.6,414.1,696.5,413.7z"/><path fill="#464445" d="M707.2,419.5c0,0-0.1,0.1-0.2,0.1s-0.2,0-0.4,0s-0.3,0-0.4,0s-0.2,0-0.2-0.1s-0.1-0.1-0.1-0.2v-0.9c-0.4,0.4-0.8,0.7-1.3,1c-0.5,0.2-1,0.3-1.5,0.3s-0.9-0.1-1.3-0.2c-0.4-0.1-0.7-0.3-1-0.5s-0.5-0.5-0.6-0.8s-0.2-0.7-0.2-1.1c0-0.5,0.1-0.9,0.3-1.3s0.5-0.7,0.9-0.9c0.4-0.2,0.8-0.4,1.4-0.5c0.5-0.1,1.2-0.2,1.8-0.2h1.2v-0.7c0-0.3,0-0.6-0.1-0.9s-0.2-0.5-0.4-0.6c-0.2-0.2-0.4-0.3-0.6-0.4c-0.3-0.1-0.6-0.1-0.9-0.1c-0.4,0-0.8,0-1.1,0.1s-0.6,0.2-0.8,0.3c-0.2,0.1-0.4,0.2-0.6,0.3c-0.2,0.1-0.3,0.1-0.4,0.1h-0.1l-0.1-0.1c0,0,0-0.1-0.1-0.2c0-0.1,0-0.2,0-0.3c0-0.2,0-0.3,0-0.4s0.1-0.2,0.2-0.3c0.1-0.1,0.2-0.2,0.5-0.3c0.2-0.1,0.5-0.2,0.7-0.3c0.3-0.1,0.6-0.2,0.9-0.2c0.3-0.1,0.7-0.1,1-0.1c0.6,0,1.2,0.1,1.6,0.2c0.4,0.1,0.8,0.4,1.1,0.6c0.3,0.3,0.5,0.6,0.6,1s0.2,0.9,0.2,1.4v5.9C707.4,419.4,707.4,419.5,707.2,419.5z M704.4,415.3c-0.4,0-0.8,0-1.2,0.1c-0.3,0.1-0.6,0.2-0.8,0.3c-0.2,0.2-0.4,0.3-0.5,0.5s-0.1,0.4-0.1,0.7c0,0.5,0.1,0.8,0.4,1.1c0.3,0.3,0.7,0.4,1.2,0.4c0.4,0,0.8-0.1,1.2-0.3c0.4-0.2,0.7-0.5,1.1-1v-1.9L704.4,415.3L704.4,415.3z"/><path fill="#464445" d="M716.5,411.3c0,0.1,0,0.2-0.1,0.2c0,0.1-0.1,0.1-0.1,0.1h-0.1h-2.6v7.6v0.1l-0.1,0.1c0,0-0.1,0-0.2,0.1c-0.1,0.1-0.2,0-0.4,0s-0.3,0-0.4,0c-0.1,0-0.2,0-0.3-0.1c-0.1,0-0.1-0.1-0.1-0.1v-0.1v-7.6h-2.6h-0.1l-0.1-0.1c0,0,0-0.1-0.1-0.2c0-0.1,0-0.2,0-0.3c0-0.1,0-0.2,0-0.3c0-0.1,0-0.2,0.1-0.2c0-0.1,0.1-0.1,0.1-0.1h0.1h6.9h0.1l0.1,0.1c0,0.1,0,0.1,0.1,0.2c0,0.1,0,0.2,0,0.3C716.5,411.1,716.5,411.2,716.5,411.3z"/><path fill="#464445" d="M725.3,419.5l-0.1,0.1c-0.1,0-0.1,0-0.2,0s-0.2,0-0.4,0s-0.3,0-0.4,0c-0.1,0-0.2,0-0.3-0.1c-0.1,0-0.1,0-0.2-0.1l-0.1-0.1l-0.9-2.3c-0.1-0.3-0.2-0.5-0.4-0.8c-0.1-0.2-0.3-0.4-0.5-0.5s-0.4-0.2-0.6-0.3c-0.2-0.1-0.5-0.1-0.8-0.1h-0.6v4v0.1l-0.1,0.1c0,0-0.1,0-0.3,0s-0.2,0-0.4,0s-0.3,0-0.4,0c-0.1,0-0.2,0-0.3,0s-0.1,0-0.1-0.1v-0.1v-8.9v-0.1l0.1-0.1c0,0,0.1,0,0.3,0c0.1,0,0.2,0,0.4,0s0.3,0,0.4,0c0.1,0,0.2,0,0.3,0s0.1,0,0.1,0.1v0.1v3.7h0.7c0.2,0,0.5,0,0.7-0.1s0.4-0.2,0.6-0.3c0.2-0.1,0.3-0.3,0.5-0.5c0.1-0.2,0.3-0.4,0.4-0.7l0.8-2c0,0,0-0.1,0.1-0.1s0.1-0.1,0.1-0.1s0.1,0,0.3,0c0.1,0,0.2,0,0.4,0s0.3,0,0.4,0s0.2,0,0.2,0c0.1,0,0.1,0,0.1,0.1v0.1c0,0.1,0,0.1,0,0.2s0,0.1-0.1,0.2l-0.8,1.9c-0.1,0.3-0.3,0.6-0.4,0.8c-0.2,0.2-0.3,0.4-0.5,0.6c-0.2,0.1-0.3,0.3-0.5,0.3c-0.2,0.1-0.3,0.1-0.5,0.2l0,0c0.2,0.1,0.4,0.2,0.6,0.3c0.2,0.1,0.4,0.2,0.5,0.4c0.2,0.2,0.3,0.4,0.5,0.6c0.1,0.2,0.3,0.5,0.4,0.8l1,2.2c0,0,0,0.1,0.1,0.1s0,0.1,0,0.1v0.1C725.3,419.3,725.3,419.4,725.3,419.5C725.3,419.4,725.3,419.5,725.3,419.5z"/><path fill="#464445" d="M735.3,419.4L735.3,419.4c-0.2,0.1-0.2,0.1-0.3,0.2s-0.2,0-0.4,0s-0.3,0-0.4,0c-0.1,0-0.2,0-0.3-0.1c-0.1,0-0.1,0-0.1-0.1s0-0.1,0-0.1v-5.1c0-0.3,0-0.5,0-0.8s0-0.5,0-0.8c-0.1,0.3-0.3,0.5-0.5,0.8c-0.2,0.2-0.4,0.5-0.5,0.7l-3.7,5.1l-0.1,0.1l-0.1,0.1c0,0-0.1,0-0.2,0c-0.1,0-0.2,0-0.3,0s-0.3,0-0.4,0c-0.1,0-0.2,0-0.2-0.1c0,0-0.1,0-0.1-0.1v-0.1v-8.8v-0.1l0.1-0.1c0.1,0,0.1,0,0.2,0c0.1,0,0.2,0,0.4,0c0.3,0,0.5,0,0.6,0.1c0.1,0,0.2,0.1,0.2,0.2v5.1c0,0.3,0,0.5,0,0.8s0,0.5,0,0.8c0.1-0.2,0.3-0.5,0.5-0.7c0.1-0.2,0.3-0.5,0.5-0.7l3.8-5.2l0.1-0.1c0,0,0.1-0.1,0.2-0.1s0.1,0,0.2,0c0.1,0,0.2,0,0.3,0s0.3,0,0.4,0s0.2,0,0.2,0c0.1,0,0.1,0.1,0.1,0.1v0.1v8.8C735.3,419.4,735.3,419.4,735.3,419.4z"/><path fill="#464445" d="M745,419.4C745,419.5,745,419.5,745,419.4c-0.2,0.1-0.3,0.2-0.4,0.2s-0.3,0-0.5,0s-0.4,0-0.5,0s-0.2,0-0.3,0s-0.1-0.1-0.2-0.1l-0.1-0.1l-2.1-3.5l-2.1,3.5l-0.1,0.1c0,0-0.1,0.1-0.2,0.1s-0.2,0-0.3,0s-0.3,0-0.4,0c-0.1,0-0.3,0-0.5,0c-0.1,0-0.2,0-0.3-0.1c-0.1,0-0.1-0.1-0.1-0.1c0-0.1,0-0.1,0.1-0.2l2.7-4.3l-2.6-4.1c0-0.1-0.1-0.2-0.1-0.2c0-0.1,0-0.1,0.1-0.2c0.1,0,0.2-0.1,0.3-0.1s0.3,0,0.5,0s0.3,0,0.5,0c0.1,0,0.2,0,0.3,0s0.1,0,0.1,0.1s0.1,0.1,0.1,0.1l2,3.3l2-3.3l0.1-0.1l0.1-0.1c0.1,0,0.1,0,0.2,0s0.2,0,0.4,0s0.3,0,0.5,0c0.1,0,0.2,0,0.3,0.1c0.1,0,0.1,0.1,0.1,0.1s0,0.1-0.1,0.2l-2.6,4.1l2.7,4.3C745,419.2,745,419.3,745,419.4z"/><path fill="#464445" d="M758.8,419.4L758.8,419.4c-0.1,0.1-0.2,0.1-0.3,0.2s-0.2,0-0.4,0s-0.3,0-0.4,0s-0.2,0-0.3-0.1c-0.1,0-0.1-0.1-0.1-0.1v-0.1v-7.7h-4.2v7.7v0.1l-0.1,0.1c-0.1,0-0.1,0-0.2,0.1c-0.1,0.1-0.2,0-0.4,0s-0.3,0-0.4,0s-0.2,0-0.2-0.1c-0.1,0-0.1-0.1-0.1-0.1v-0.1v-8.5c0-0.2,0-0.3,0.1-0.4s0.2-0.1,0.4-0.1h6.4c0.2,0,0.3,0,0.4,0.1c0.1,0.1,0.1,0.2,0.1,0.4v8.5C758.8,419.4,758.8,419.4,758.8,419.4z"/><path fill="#464445" d="M769.8,416.8c-0.2,0.6-0.5,1.1-0.8,1.6c-0.4,0.4-0.8,0.8-1.4,1c-0.6,0.2-1.2,0.4-2,0.4c-0.7,0-1.3-0.1-1.9-0.3c-0.5-0.2-1-0.5-1.3-0.9s-0.6-0.9-0.8-1.5s-0.3-1.3-0.3-2s0.1-1.4,0.3-2s0.5-1.1,0.8-1.6c0.4-0.4,0.8-0.8,1.4-1c0.6-0.2,1.2-0.4,2-0.4c0.7,0,1.4,0.1,1.9,0.3c0.5,0.2,1,0.5,1.3,0.9s0.6,0.9,0.8,1.5s0.3,1.3,0.3,2C770,415.5,770,416.2,769.8,416.8z M768.2,413.6c-0.1-0.4-0.2-0.8-0.4-1.1c-0.2-0.3-0.5-0.6-0.8-0.8c-0.3-0.2-0.8-0.3-1.3-0.3s-0.9,0.1-1.2,0.3c-0.3,0.2-0.6,0.4-0.8,0.7c-0.2,0.3-0.4,0.7-0.5,1.1s-0.2,0.9-0.2,1.4s0,0.9,0.1,1.4c0.1,0.4,0.2,0.8,0.4,1.1c0.2,0.3,0.5,0.6,0.8,0.8c0.3,0.2,0.8,0.3,1.3,0.3s0.9-0.1,1.2-0.3s0.6-0.4,0.8-0.7c0.2-0.3,0.4-0.7,0.5-1.1s0.2-0.9,0.2-1.4C768.3,414.4,768.3,414,768.2,413.6z"/><path fill="#464445" d="M772.5,422.6c0,0-0.1,0-0.1,0.1c0,0-0.1,0-0.2,0c-0.1,0-0.2,0-0.3,0s-0.2,0-0.3,0s-0.2,0-0.2,0s-0.1,0-0.1-0.1v-0.1v-3.9c0-0.2,0-0.3,0.1-0.3s0.2-0.1,0.3-0.1h0.6c0.2-0.3,0.5-0.6,0.7-1s0.4-0.8,0.6-1.4c0.2-0.6,0.4-1.3,0.5-2.1c0.1-0.8,0.3-1.8,0.4-2.9c0-0.1,0-0.2,0-0.2c0-0.1,0.1-0.1,0.1-0.2c0,0,0.1-0.1,0.2-0.1s0.1,0,0.2,0h4.9c0.2,0,0.3,0,0.4,0.1c0.1,0.1,0.1,0.2,0.1,0.4v7.3h1.2c0.1,0,0.2,0,0.3,0.1s0.1,0.2,0.1,0.3v3.9v0.1c0,0-0.1,0-0.1,0.1c-0.1,0-0.1,0-0.2,0c-0.1,0-0.2,0-0.3,0s-0.2,0-0.3,0s-0.2,0-0.2,0c-0.1,0-0.1,0-0.1-0.1v-0.1v-2.9h-7.9v2.9C772.5,422.6,772.5,422.6,772.5,422.6z M775.8,411.6c-0.1,1.1-0.3,2-0.4,2.7c-0.2,0.7-0.3,1.3-0.5,1.8s-0.3,0.9-0.5,1.2c-0.2,0.3-0.4,0.6-0.6,0.8h4.8v-6.6L775.8,411.6L775.8,411.6z"/><path fill="#464445" d="M789.8,418.3c0,0.1,0,0.1,0,0.2s0,0.1-0.1,0.2c0,0-0.1,0.1-0.2,0.2c-0.1,0.1-0.2,0.2-0.4,0.3c-0.2,0.1-0.4,0.2-0.7,0.3c-0.3,0.1-0.5,0.2-0.8,0.2s-0.6,0.1-0.9,0.1c-0.6,0-1.2-0.1-1.7-0.3s-0.9-0.5-1.2-0.9s-0.6-0.9-0.8-1.5s-0.3-1.3-0.3-2c0-0.9,0.1-1.6,0.3-2.2s0.5-1.1,0.9-1.5s0.8-0.7,1.3-0.9c0.5-0.2,1-0.3,1.6-0.3c0.3,0,0.5,0,0.8,0.1c0.3,0,0.5,0.1,0.7,0.2s0.4,0.2,0.6,0.3c0.2,0.1,0.3,0.2,0.4,0.3c0.1,0.1,0.1,0.1,0.2,0.2c0,0,0,0.1,0.1,0.2c0,0.1,0,0.1,0,0.2s0,0.2,0,0.3c0,0.3,0,0.4-0.1,0.5s-0.1,0.2-0.2,0.2c-0.1,0-0.2-0.1-0.3-0.2s-0.3-0.2-0.5-0.4c-0.2-0.2-0.4-0.2-0.7-0.4c-0.3-0.1-0.6-0.2-1-0.2c-0.8,0-1.4,0.3-1.8,0.9c-0.4,0.6-0.6,1.5-0.6,2.6c0,0.6,0.1,1.1,0.2,1.5s0.3,0.8,0.5,1.1c0.2,0.3,0.5,0.5,0.8,0.6s0.6,0.2,1,0.2s0.7-0.1,1-0.2s0.5-0.2,0.7-0.4c0.2-0.1,0.4-0.3,0.5-0.4s0.2-0.2,0.3-0.2h0.1l0.1,0.1c0,0.1,0,0.1,0,0.2s0,0.2,0,0.3C789.8,418.1,789.8,418.2,789.8,418.3z"/><path fill="#464445" d="M799.2,419.5l-0.1,0.1c-0.1,0-0.1,0-0.2,0s-0.2,0-0.4,0s-0.3,0-0.4,0s-0.2,0-0.3-0.1c-0.1,0-0.1,0-0.2-0.1l-0.1-0.1l-0.9-2.3c-0.1-0.3-0.2-0.5-0.4-0.8c-0.1-0.2-0.3-0.4-0.5-0.5s-0.4-0.2-0.6-0.3c-0.2-0.1-0.5-0.1-0.8-0.1h-0.7v4v0.1l-0.1,0.1c0,0-0.1,0-0.3,0s-0.2,0-0.4,0s-0.3,0-0.4,0c-0.1,0-0.2,0-0.3,0s-0.1,0-0.1-0.1v-0.1v-8.9v-0.1l0.1-0.1c0,0,0.1,0,0.3,0c0.1,0,0.2,0,0.4,0s0.3,0,0.4,0s0.2,0,0.3,0s0.1,0,0.1,0.1v0.1v3.7h0.7c0.2,0,0.5,0,0.7-0.1s0.4-0.2,0.6-0.3c0.2-0.1,0.3-0.3,0.5-0.5c0.1-0.2,0.3-0.4,0.4-0.7l0.8-2c0,0,0-0.1,0.1-0.1s0.1-0.1,0.1-0.1s0.1,0,0.3,0c0.1,0,0.2,0,0.4,0s0.3,0,0.4,0s0.2,0,0.2,0c0.1,0,0.1,0,0.1,0.1v0.1c0,0.1,0,0.1,0,0.2s0,0.1-0.1,0.2l-0.8,1.9c-0.1,0.3-0.3,0.6-0.4,0.8c-0.2,0.2-0.3,0.4-0.5,0.6c-0.2,0.1-0.3,0.3-0.5,0.3c-0.2,0.1-0.3,0.1-0.5,0.2l0,0c0.2,0.1,0.4,0.2,0.6,0.3c0.2,0.1,0.4,0.2,0.5,0.4c0.2,0.2,0.3,0.4,0.5,0.6c0.1,0.2,0.3,0.5,0.4,0.8l1,2.2c0,0,0,0.1,0.1,0.1s0,0.1,0,0.1v0.1C799.2,419.3,799.2,419.4,799.2,419.5C799.2,419.4,799.2,419.5,799.2,419.5z"/><path fill="#464445" d="M807.8,419.5c0,0-0.1,0.1-0.2,0.1c-0.1,0-0.2,0-0.4,0s-0.3,0-0.4,0c-0.1,0-0.2,0-0.2-0.1s-0.1-0.1-0.1-0.2v-0.9c-0.4,0.4-0.8,0.7-1.3,1c-0.5,0.2-1,0.3-1.5,0.3s-0.9-0.1-1.3-0.2c-0.4-0.1-0.7-0.3-1-0.5s-0.5-0.5-0.6-0.8s-0.2-0.7-0.2-1.1c0-0.5,0.1-0.9,0.3-1.3s0.5-0.7,0.9-0.9c0.4-0.2,0.8-0.4,1.4-0.5c0.5-0.1,1.2-0.2,1.8-0.2h1.2v-0.7c0-0.3,0-0.6-0.1-0.9s-0.2-0.5-0.4-0.6c-0.2-0.2-0.4-0.3-0.6-0.4c-0.3-0.1-0.6-0.1-0.9-0.1c-0.4,0-0.8,0-1.1,0.1s-0.6,0.2-0.8,0.3c-0.2,0.1-0.4,0.2-0.6,0.3s-0.3,0.1-0.4,0.1h-0.1l-0.1-0.1c0,0,0-0.1-0.1-0.2c0-0.1,0-0.2,0-0.3c0-0.2,0-0.3,0-0.4s0.1-0.2,0.2-0.3c0.1-0.1,0.2-0.2,0.5-0.3c0.2-0.1,0.5-0.2,0.7-0.3c0.3-0.1,0.6-0.2,0.9-0.2c0.3-0.1,0.7-0.1,1-0.1c0.6,0,1.2,0.1,1.6,0.2c0.4,0.1,0.8,0.4,1.1,0.6c0.3,0.3,0.5,0.6,0.6,1s0.2,0.9,0.2,1.4v5.9C807.8,419.4,807.8,419.5,807.8,419.5z M805,415.3c-0.4,0-0.8,0-1.2,0.1c-0.3,0.1-0.6,0.2-0.8,0.3c-0.2,0.2-0.4,0.3-0.5,0.5s-0.1,0.4-0.1,0.7c0,0.5,0.1,0.8,0.4,1.1c0.3,0.3,0.7,0.4,1.2,0.4c0.4,0,0.8-0.1,1.2-0.3c0.4-0.2,0.7-0.5,1.1-1v-1.9L805,415.3L805,415.3z"/><path fill="#464445" d="M816.7,418.1c-0.2,0.4-0.4,0.7-0.8,0.9c-0.3,0.3-0.7,0.4-1.2,0.6s-1,0.2-1.6,0.2c-0.3,0-0.7,0-1-0.1s-0.6-0.1-0.8-0.2c-0.3-0.1-0.4-0.2-0.6-0.2c-0.2-0.1-0.3-0.2-0.4-0.2c-0.1-0.1-0.1-0.1-0.1-0.2c0,0-0.1-0.1-0.1-0.2s0-0.1,0-0.2s0-0.2,0-0.3s0-0.2,0-0.3c0-0.1,0-0.1,0-0.2s0-0.1,0.1-0.1h0.1c0.1,0,0.2,0,0.3,0.1s0.3,0.2,0.5,0.3c0.2,0.1,0.5,0.2,0.8,0.3c0.3,0.1,0.7,0.1,1.2,0.1c0.3,0,0.6,0,0.9-0.1s0.5-0.2,0.7-0.3c0.2-0.1,0.3-0.3,0.4-0.5s0.1-0.4,0.1-0.7c0-0.2,0-0.4-0.1-0.6s-0.3-0.3-0.5-0.5c-0.2-0.1-0.5-0.2-0.8-0.3c-0.3-0.1-0.7-0.1-1.2-0.1h-1c-0.1,0-0.1,0-0.2,0l-0.1-0.1c0,0-0.1-0.1-0.1-0.2s0-0.2,0-0.3s0-0.2,0-0.3c0-0.1,0-0.1,0.1-0.2s0.1-0.1,0.1-0.1h0.1h0.9c0.4,0,0.8,0,1.1-0.1s0.5-0.2,0.7-0.3c0.2-0.1,0.4-0.3,0.4-0.5c0.1-0.2,0.1-0.4,0.1-0.6s0-0.4-0.1-0.6s-0.2-0.3-0.4-0.4c-0.1-0.1-0.3-0.2-0.6-0.3c-0.2,0-0.5-0.1-0.7-0.1c-0.4,0-0.8,0-1.1,0.1s-0.6,0.2-0.8,0.3c-0.2,0.1-0.4,0.2-0.6,0.3c-0.1,0.1-0.2,0.1-0.3,0.1H810c0,0,0,0-0.1-0.1c0,0,0-0.1,0-0.2s0-0.2,0-0.3c0-0.2,0-0.3,0-0.4s0.1-0.2,0.2-0.3c0.1-0.1,0.2-0.2,0.4-0.3c0.2-0.1,0.4-0.2,0.7-0.3c0.3-0.1,0.5-0.2,0.9-0.2c0.3,0,0.6-0.1,0.9-0.1c0.5,0,0.9,0,1.3,0.2c0.4,0.1,0.7,0.3,1,0.4c0.3,0.2,0.5,0.5,0.7,0.8s0.2,0.7,0.2,1.1c0,0.2,0,0.5-0.1,0.7s-0.2,0.4-0.3,0.6s-0.3,0.3-0.5,0.5s-0.4,0.3-0.7,0.3l0,0c0.3,0,0.5,0.1,0.8,0.2c0.2,0.1,0.5,0.3,0.7,0.5s0.4,0.4,0.5,0.7c0.1,0.3,0.2,0.6,0.2,0.9C817,417.3,816.8,417.7,816.7,418.1z"/><path fill="#464445" d="M827.2,416.8c-0.2,0.6-0.5,1.1-0.8,1.6c-0.4,0.4-0.8,0.8-1.4,1s-1.2,0.4-2,0.4c-0.7,0-1.3-0.1-1.9-0.3c-0.5-0.2-1-0.5-1.3-0.9s-0.6-0.9-0.8-1.5s-0.3-1.3-0.3-2s0.1-1.4,0.3-2s0.5-1.1,0.8-1.6c0.4-0.4,0.8-0.8,1.4-1c0.6-0.2,1.2-0.4,2-0.4c0.7,0,1.4,0.1,1.9,0.3c0.5,0.2,1,0.5,1.3,0.9s0.6,0.9,0.8,1.5s0.3,1.3,0.3,2S827.3,416.2,827.2,416.8z M825.7,413.6c-0.1-0.4-0.2-0.8-0.4-1.1c-0.2-0.3-0.5-0.6-0.8-0.8c-0.3-0.2-0.8-0.3-1.3-0.3s-0.9,0.1-1.2,0.3s-0.6,0.4-0.8,0.7c-0.2,0.3-0.4,0.7-0.5,1.1s-0.2,0.9-0.2,1.4s0,0.9,0.1,1.4c0.1,0.4,0.2,0.8,0.4,1.1s0.5,0.6,0.8,0.8c0.3,0.2,0.8,0.3,1.3,0.3s0.9-0.1,1.2-0.3c0.3-0.2,0.6-0.4,0.8-0.7c0.2-0.3,0.4-0.7,0.5-1.1s0.2-0.9,0.2-1.4C825.8,414.4,825.8,414,825.7,413.6z"/><path fill="#464445" d="M837,419.5l-0.1,0.1c-0.1,0-0.1,0-0.2,0c-0.1,0-0.2,0-0.4,0s-0.3,0-0.4,0c-0.1,0-0.2,0-0.3-0.1c-0.1,0-0.1,0-0.2-0.1l-0.1-0.1l-0.9-2.3c-0.1-0.3-0.2-0.5-0.4-0.8c-0.1-0.2-0.3-0.4-0.5-0.5s-0.4-0.2-0.6-0.3c-0.2-0.1-0.5-0.1-0.8-0.1h-0.7v4v0.1l-0.1,0.1c0,0-0.1,0-0.3,0s-0.2,0-0.4,0s-0.3,0-0.4,0c-0.1,0-0.2,0-0.3,0s-0.1,0-0.1-0.1v-0.1v-8.9v-0.1l0.1-0.1c0,0,0.1,0,0.3,0c0.1,0,0.2,0,0.4,0s0.3,0,0.4,0c0.1,0,0.2,0,0.3,0s0.1,0,0.1,0.1v0.1v3.7h0.7c0.2,0,0.5,0,0.7-0.1s0.4-0.2,0.6-0.3c0.2-0.1,0.3-0.3,0.5-0.5c0.1-0.2,0.3-0.4,0.4-0.7l0.8-2c0,0,0-0.1,0.1-0.1s0.1-0.1,0.1-0.1s0.1,0,0.3,0c0.1,0,0.2,0,0.4,0s0.3,0,0.4,0s0.2,0,0.2,0c0.1,0,0.1,0,0.1,0.1v0.1c0,0.1,0,0.1,0,0.2s0,0.1-0.1,0.2l-0.8,1.9c-0.1,0.3-0.3,0.6-0.4,0.8c-0.2,0.2-0.3,0.4-0.5,0.6c-0.2,0.1-0.3,0.3-0.5,0.3c-0.2,0.1-0.3,0.1-0.5,0.2l0,0c0.2,0.1,0.4,0.2,0.6,0.3s0.4,0.2,0.5,0.4c0.2,0.2,0.3,0.4,0.5,0.6c0.1,0.2,0.3,0.5,0.4,0.8l1,2.2c0,0,0,0.1,0.1,0.1s0,0.1,0,0.1v0.1C837.1,419.3,837.1,419.4,837,419.5C837.1,419.4,837.1,419.5,837,419.5z"/><path fill="#464445" d="M600,440.4L600,440.4c-0.1,0.1-0.2,0.1-0.3,0.2s-0.2,0-0.4,0s-0.3,0-0.4,0c-0.1,0-0.2,0-0.3-0.1c-0.1,0-0.1-0.1-0.1-0.1v-0.1v-7.7h-4.2v7.7v0.1l-0.1,0.1c-0.1,0-0.1,0-0.2,0.1c-0.1,0.1-0.2,0-0.4,0s-0.3,0-0.4,0c-0.1,0-0.2,0-0.2-0.1c-0.1,0-0.1-0.1-0.1-0.1v-0.1v-8.5c0-0.2,0-0.3,0.1-0.4s0.2-0.1,0.4-0.1h6.4c0.2,0,0.3,0,0.4,0.1c0.1,0.1,0.1,0.2,0.1,0.4v8.5C600,440.4,600,440.4,600,440.4z"/><path fill="#464445" d="M610.9,437.8c-0.2,0.6-0.5,1.1-0.8,1.6c-0.4,0.4-0.8,0.8-1.4,1c-0.6,0.2-1.2,0.4-2,0.4c-0.7,0-1.3-0.1-1.9-0.3c-0.5-0.2-1-0.5-1.3-0.9s-0.6-0.9-0.8-1.5s-0.3-1.3-0.3-2s0.1-1.4,0.3-2s0.5-1.1,0.8-1.6c0.4-0.4,0.8-0.8,1.4-1s1.2-0.4,2-0.4c0.7,0,1.4,0.1,1.9,0.3s1,0.5,1.3,0.9s0.6,0.9,0.8,1.5s0.3,1.3,0.3,2S611.1,437.2,610.9,437.8z M609.2,434.6c-0.1-0.4-0.2-0.8-0.4-1.1c-0.2-0.3-0.5-0.6-0.8-0.8c-0.3-0.2-0.8-0.3-1.3-0.3s-0.9,0.1-1.2,0.3c-0.3,0.2-0.6,0.4-0.8,0.7c-0.2,0.3-0.4,0.7-0.5,1.1s-0.2,0.9-0.2,1.4s0,0.9,0.1,1.4c0.1,0.4,0.2,0.8,0.4,1.1c0.2,0.3,0.5,0.6,0.8,0.8c0.3,0.2,0.8,0.3,1.3,0.3s0.9-0.1,1.2-0.3c0.3-0.2,0.6-0.4,0.8-0.7c0.2-0.3,0.4-0.7,0.5-1.1s0.2-0.9,0.2-1.4C609.5,435.4,609.4,435,609.2,434.6z"/><path fill="#464445" d="M620.9,443.8c0,0.1-0.1,0.2-0.3,0.2s-0.4,0.1-0.7,0.1c-0.2,0-0.3,0-0.4,0s-0.2,0-0.2-0.1c-0.1,0-0.1-0.1-0.1-0.2s0-0.1,0-0.2l1.2-3.1c-0.1,0-0.1-0.1-0.2-0.1c-0.1,0-0.1-0.1-0.1-0.2l-3.1-8.4c0-0.1-0.1-0.2-0.1-0.3c0-0.1,0-0.1,0.1-0.2s0.1-0.1,0.3-0.1c0.1,0,0.3,0,0.5,0s0.4,0,0.5,0s0.2,0,0.3,0s0.1,0.1,0.1,0.1c0,0.1,0.1,0.1,0.1,0.2l2.5,7.1l0,0l2.4-7.1c0-0.1,0.1-0.2,0.1-0.2c0.1,0,0.1-0.1,0.3-0.1c0.1,0,0.3,0,0.5,0s0.3,0,0.4,0s0.2,0,0.3,0.1c0,0,0.1,0.1,0.1,0.2s0,0.2-0.1,0.3l-3.2,8.7L620.9,443.8z"/><path fill="#464445" d="M634.5,440.4L634.5,440.4c-0.1,0.1-0.2,0.1-0.3,0.2s-0.2,0-0.4,0s-0.3,0-0.4,0c-0.1,0-0.2,0-0.3-0.1c-0.1,0-0.1-0.1-0.1-0.1v-0.1v-7.7h-4.3v7.7v0.1l-0.1,0.1c-0.1,0-0.1,0-0.2,0.1c-0.1,0.1-0.2,0-0.4,0s-0.3,0-0.4,0c-0.1,0-0.2,0-0.2-0.1c-0.1,0-0.1-0.1-0.1-0.1v-0.1v-8.5c0-0.2,0-0.3,0.1-0.4s0.2-0.1,0.4-0.1h6.4c0.2,0,0.3,0,0.4,0.1c0.1,0.1,0.1,0.2,0.1,0.4v8.5C634.5,440.4,634.5,440.4,634.5,440.4z"/><path fill="#464445" d="M645.4,437.8c-0.2,0.6-0.5,1.1-0.8,1.6c-0.4,0.4-0.8,0.8-1.4,1c-0.6,0.2-1.2,0.4-2,0.4c-0.7,0-1.3-0.1-1.9-0.3c-0.5-0.2-1-0.5-1.3-0.9s-0.6-0.9-0.8-1.5s-0.3-1.3-0.3-2s0.1-1.4,0.3-2s0.5-1.1,0.8-1.6c0.4-0.4,0.8-0.8,1.4-1c0.6-0.2,1.2-0.4,2-0.4c0.7,0,1.4,0.1,1.9,0.3s1,0.5,1.3,0.9s0.6,0.9,0.8,1.5s0.3,1.3,0.3,2S645.6,437.2,645.4,437.8z M643.9,434.6c-0.1-0.4-0.2-0.8-0.4-1.1c-0.2-0.3-0.5-0.6-0.8-0.8c-0.3-0.2-0.8-0.3-1.3-0.3s-0.9,0.1-1.2,0.3c-0.3,0.2-0.6,0.4-0.8,0.7c-0.2,0.3-0.4,0.7-0.5,1.1s-0.2,0.9-0.2,1.4s0,0.9,0.1,1.4c0.1,0.4,0.2,0.8,0.4,1.1c0.2,0.3,0.5,0.6,0.8,0.8c0.3,0.2,0.8,0.3,1.3,0.3s0.9-0.1,1.2-0.3c0.3-0.2,0.6-0.4,0.8-0.7c0.2-0.3,0.4-0.7,0.5-1.1s0.2-0.9,0.2-1.4C644,435.4,644,435,643.9,434.6z"/><path fill="#464445" d="M654.2,432.3c0,0.1,0,0.2-0.1,0.2c0,0.1-0.1,0.1-0.1,0.1h-0.1h-2.6v7.6v0.1l-0.1,0.1c0,0-0.1,0-0.2,0.1c-0.1,0.1-0.2,0-0.4,0s-0.3,0-0.4,0s-0.2,0-0.3-0.1c-0.1,0-0.1-0.1-0.1-0.1v-0.1v-7.6h-2.6h-0.1l-0.1-0.1c0,0,0-0.1-0.1-0.2c0-0.1,0-0.2,0-0.3s0-0.2,0-0.3s0-0.2,0.1-0.2c0-0.1,0.1-0.1,0.1-0.1h0.1h6.9h0.1l0.1,0.1c0,0.1,0,0.1,0.1,0.2c0,0.1,0,0.2,0,0.3C654.2,432.1,654.2,432.2,654.2,432.3z"/><path fill="#464445" d="M663.7,437.8c-0.2,0.6-0.4,1.1-0.7,1.6c-0.3,0.4-0.7,0.8-1.2,1s-1,0.3-1.6,0.3c-0.3,0-0.5,0-0.7-0.1s-0.4-0.1-0.7-0.2c-0.2-0.1-0.4-0.3-0.6-0.4s-0.4-0.4-0.7-0.6v4.4v0.1l-0.1,0.1c0,0-0.1,0-0.2,0.1c-0.1,0.1-0.2,0-0.4,0s-0.3,0-0.4,0s-0.2,0-0.2-0.1c-0.1,0-0.1-0.1-0.1-0.1v-0.1v-12.3c0-0.1,0-0.1,0-0.1l0.1-0.1c0,0,0.1,0,0.2,0c0.1,0,0.2,0,0.3,0s0.2,0,0.3,0s0.2,0,0.2,0l0.1,0.1v0.1v1.2c0.3-0.3,0.5-0.5,0.8-0.7s0.5-0.4,0.8-0.5c0.2-0.1,0.5-0.2,0.8-0.3c0.3-0.1,0.5-0.1,0.8-0.1c0.6,0,1.2,0.1,1.6,0.4s0.8,0.6,1.1,1s0.5,0.9,0.6,1.5s0.2,1.2,0.2,1.8C663.9,436.5,663.7,437.2,663.7,437.8z M662.1,434.7c-0.1-0.4-0.2-0.8-0.4-1.1c-0.2-0.3-0.4-0.6-0.7-0.8c-0.3-0.2-0.6-0.3-1-0.3c-0.2,0-0.4,0-0.6,0.1c-0.2,0.1-0.4,0.2-0.6,0.3c-0.2,0.1-0.4,0.3-0.7,0.5c-0.2,0.2-0.5,0.5-0.7,0.8v3.5c0.4,0.5,0.9,1,1.3,1.2c0.4,0.2,0.8,0.4,1.3,0.4c0.4,0,0.8-0.1,1-0.3c0.3-0.2,0.5-0.5,0.7-0.8s0.3-0.7,0.4-1.1c0.1-0.4,0.1-0.8,0.1-1.2C662.2,435.5,662.2,435.1,662.1,434.7z"/><path fill="#464445" d="M673.6,436.1c-0.1,0.1-0.3,0.2-0.4,0.2h-5.8c0,0.5,0,0.9,0.1,1.3s0.3,0.7,0.5,1s0.5,0.5,0.9,0.6s0.8,0.2,1.3,0.2c0.4,0,0.8,0,1.1-0.1s0.6-0.1,0.8-0.2s0.4-0.2,0.6-0.2c0.2-0.1,0.3-0.1,0.4-0.1h0.1l0.1,0.1c0,0,0,0.1,0,0.2s0,0.2,0,0.3c0,0.1,0,0.2,0,0.2c0,0.1,0,0.1,0,0.2s0,0.1-0.1,0.1c0,0,0,0.1-0.1,0.1c0,0-0.1,0.1-0.3,0.2s-0.4,0.2-0.7,0.2s-0.6,0.1-1,0.2s-0.8,0.1-1.2,0.1c-0.7,0-1.4-0.1-1.9-0.3s-1-0.5-1.4-0.9s-0.7-0.9-0.8-1.5s-0.3-1.3-0.3-2.1s0.1-1.4,0.3-2s0.5-1.1,0.8-1.5c0.4-0.4,0.8-0.7,1.3-1c0.5-0.2,1.1-0.3,1.7-0.3c0.7,0,1.3,0.1,1.8,0.3s0.9,0.5,1.2,0.9s0.5,0.8,0.7,1.3s0.2,1,0.2,1.6v0.3C673.7,435.8,673.7,436,673.6,436.1z M671.6,433.1c-0.4-0.5-1-0.7-1.8-0.7c-0.4,0-0.7,0.1-1,0.2s-0.5,0.4-0.8,0.6s-0.4,0.5-0.5,0.9c-0.1,0.3-0.2,0.7-0.2,1h4.8C672.2,434.2,672,433.5,671.6,433.1z"/><path fill="#464445" d="M684.2,437.8c-0.2,0.6-0.5,1.1-0.9,1.6c-0.4,0.4-0.8,0.8-1.4,1c-0.6,0.2-1.2,0.4-1.9,0.4s-1.3-0.1-1.9-0.3c-0.5-0.2-1-0.6-1.3-1.1c-0.4-0.5-0.6-1-0.8-1.7s-0.2-1.5-0.2-2.5c0-0.8,0-1.5,0.1-2.2s0.2-1.3,0.3-1.8s0.3-1,0.5-1.4s0.4-0.7,0.6-0.9c0.2-0.2,0.4-0.4,0.6-0.5c0.2-0.1,0.4-0.3,0.6-0.4c0.2-0.1,0.5-0.2,0.8-0.3c0.3-0.1,0.6-0.2,1-0.2l3.1-0.5c0.1,0,0.2,0,0.3,0s0.1,0,0.2,0.1c0,0.1,0.1,0.1,0.1,0.2s0,0.3,0,0.5c0,0.1,0,0.2,0,0.3s0,0.2-0.1,0.2s-0.1,0.1-0.1,0.1s-0.1,0.1-0.3,0.1l-2.9,0.5c-0.3,0-0.5,0.1-0.8,0.2s-0.4,0.1-0.6,0.2s-0.3,0.1-0.5,0.2c-0.1,0.1-0.3,0.2-0.4,0.3c-0.1,0.1-0.2,0.3-0.4,0.5c-0.1,0.2-0.2,0.4-0.3,0.7c-0.1,0.3-0.1,0.5-0.2,0.8s-0.1,0.6-0.1,1c0.2-0.2,0.4-0.4,0.7-0.6c0.2-0.2,0.5-0.3,0.8-0.5s0.5-0.2,0.8-0.3c0.3-0.1,0.6-0.1,0.9-0.1c0.6,0,1.2,0.1,1.7,0.3s0.9,0.5,1.2,0.9s0.5,0.9,0.7,1.4s0.2,1.2,0.2,1.8C684.5,436.5,684.4,437.2,684.2,437.8z M682.7,434.7c-0.1-0.4-0.2-0.7-0.4-1s-0.4-0.5-0.7-0.7s-0.7-0.3-1.1-0.3c-0.3,0-0.5,0-0.8,0.1c-0.2,0.1-0.5,0.2-0.7,0.3c-0.2,0.1-0.5,0.3-0.7,0.5s-0.5,0.4-0.7,0.7c0,0.1,0,0.2,0,0.4v0.4c0,0.7,0,1.3,0.1,1.9c0.1,0.5,0.2,1,0.4,1.3s0.5,0.6,0.8,0.8c0.3,0.2,0.7,0.3,1.2,0.3c0.4,0,0.8-0.1,1.1-0.2c0.3-0.2,0.6-0.4,0.8-0.7c0.2-0.3,0.4-0.7,0.5-1.1s0.2-0.9,0.2-1.4C682.7,435.5,682.7,435.1,682.7,434.7z"/><path fill="#464445" d="M694.1,440.4L694.1,440.4c-0.1,0.1-0.2,0.1-0.3,0.2s-0.2,0-0.4,0s-0.3,0-0.4,0c-0.1,0-0.2,0-0.2-0.1c-0.1,0-0.1-0.1-0.1-0.1v-0.1v-7.7h-2.4c-0.1,1-0.2,2-0.4,2.8s-0.3,1.5-0.5,2.1s-0.4,1.1-0.6,1.5c-0.2,0.4-0.5,0.7-0.7,1c-0.3,0.3-0.6,0.4-0.9,0.5c-0.3,0.1-0.7,0.2-1,0.2c-0.1,0-0.1,0-0.2,0l-0.1-0.1c0,0,0-0.1-0.1-0.2c0-0.1,0-0.2,0-0.4c0-0.2,0-0.3,0-0.4s0-0.2,0-0.2c0-0.1,0.1-0.1,0.1-0.1h0.1c0.2,0,0.4,0,0.6-0.1c0.2-0.1,0.4-0.3,0.5-0.5c0.2-0.2,0.3-0.5,0.5-0.9c0.1-0.4,0.3-0.8,0.4-1.4s0.2-1.2,0.4-1.9c0.1-0.7,0.2-1.6,0.3-2.5c0-0.2,0.1-0.3,0.1-0.4c0.1-0.1,0.2-0.1,0.3-0.1h4.5c0.2,0,0.3,0,0.4,0.1c0.1,0.1,0.1,0.2,0.1,0.4L694.1,440.4L694.1,440.4z"/><path fill="#464445" d="M704.4,436.1c-0.1,0.1-0.3,0.2-0.4,0.2h-5.8c0,0.5,0,0.9,0.1,1.3s0.3,0.7,0.5,1s0.5,0.5,0.9,0.6s0.8,0.2,1.3,0.2c0.4,0,0.8,0,1.1-0.1s0.6-0.1,0.8-0.2s0.4-0.2,0.6-0.2c0.2-0.1,0.3-0.1,0.4-0.1h0.1l0.1,0.1c0,0,0,0.1,0,0.2s0,0.2,0,0.3c0,0.1,0,0.2,0,0.2c0,0.1,0,0.1,0,0.2s0,0.1-0.1,0.1c0,0,0,0.1-0.1,0.1c0,0-0.1,0.1-0.3,0.2s-0.4,0.2-0.7,0.2s-0.6,0.1-1,0.2s-0.8,0.1-1.2,0.1c-0.7,0-1.4-0.1-1.9-0.3c-0.5-0.2-1-0.5-1.4-0.9s-0.7-0.9-0.8-1.5s-0.3-1.3-0.3-2.1s0.1-1.4,0.3-2s0.5-1.1,0.8-1.5c0.4-0.4,0.8-0.7,1.3-1c0.5-0.2,1.1-0.3,1.7-0.3c0.7,0,1.3,0.1,1.8,0.3s0.9,0.5,1.2,0.9s0.5,0.8,0.7,1.3s0.2,1,0.2,1.6v0.3C704.6,435.8,704.6,436,704.4,436.1z M702.4,433.1c-0.4-0.5-1-0.7-1.8-0.7c-0.4,0-0.7,0.1-1,0.2s-0.5,0.4-0.8,0.6s-0.4,0.5-0.5,0.9c-0.1,0.3-0.2,0.7-0.2,1h4.8C703,434.2,702.7,433.5,702.4,433.1z"/><path fill="#464445" d="M714.7,440.4L714.7,440.4c-0.1,0.1-0.2,0.1-0.3,0.2s-0.2,0-0.4,0s-0.3,0-0.4,0c-0.1,0-0.2,0-0.2-0.1s-0.1-0.1-0.1-0.1v-0.1v-3.9h-4.6v3.9v0.1l-0.1,0.1c0,0-0.1,0-0.2,0.1c-0.1,0.1-0.2,0-0.4,0s-0.3,0-0.4,0c-0.1,0-0.2,0-0.2-0.1c-0.1,0-0.1-0.1-0.1-0.1v-0.1v-8.8v-0.1l0.1-0.1c0.1,0,0.1-0.1,0.2-0.1s0.2,0,0.4,0s0.3,0,0.4,0c0.1,0,0.2,0,0.2,0.1c0.1,0,0.1,0.1,0.1,0.1v0.1v3.6h4.5v-3.6v-0.1l0.1-0.1c0.1,0,0.1-0.1,0.2-0.1c0.1,0,0.2,0,0.4,0s0.3,0,0.4,0s0.2,0,0.2,0.1c0.1,0,0.1,0.1,0.1,0.1v0.1v8.8C714.7,440.4,714.7,440.4,714.7,440.4z"/><path fill="#464445" d="M725.7,440.4L725.7,440.4c-0.2,0.1-0.2,0.1-0.3,0.2s-0.2,0-0.4,0s-0.3,0-0.4,0s-0.2,0-0.3-0.1c-0.1,0-0.1,0-0.1-0.1s0-0.1,0-0.1v-5.1c0-0.3,0-0.5,0-0.8s0-0.5,0-0.8c-0.1,0.3-0.3,0.5-0.5,0.8c-0.2,0.2-0.4,0.5-0.5,0.7l-3.7,5.1l-0.1,0.1l-0.1,0.1c0,0-0.1,0-0.2,0c-0.1,0-0.2,0-0.3,0s-0.3,0-0.4,0c-0.1,0-0.2,0-0.2-0.1c0,0-0.1,0-0.1-0.1v-0.1v-8.8v-0.1l0.1-0.1c0.1,0,0.1,0,0.2,0c0.1,0,0.2,0,0.4,0c0.3,0,0.5,0,0.6,0.1c0.1,0,0.2,0.1,0.2,0.2v5.1c0,0.3,0,0.5,0,0.8s0,0.5,0,0.8c0.1-0.2,0.3-0.5,0.5-0.7c0.1-0.2,0.3-0.5,0.5-0.7l3.8-5.2l0.1-0.1c0,0,0.1-0.1,0.2-0.1c0.1,0,0.1,0,0.2,0c0.1,0,0.2,0,0.3,0s0.3,0,0.4,0s0.2,0,0.2,0c0.1,0,0.1,0.1,0.1,0.1v0.1v8.8C725.7,440.4,725.7,440.4,725.7,440.4z"/><path fill="#464445" d="M740.3,437.8c-0.2,0.6-0.5,1.1-0.8,1.6c-0.4,0.4-0.8,0.8-1.3,1s-1.1,0.4-1.8,0.4s-1.3-0.1-1.8-0.3s-0.9-0.5-1.3-0.8c-0.3-0.4-0.6-0.8-0.8-1.4c-0.2-0.5-0.3-1.2-0.3-1.8h-2v3.9v0.1l-0.1,0.1c0,0-0.1,0-0.2,0.1c-0.1,0.1-0.2,0-0.4,0s-0.3,0-0.4,0c-0.1,0-0.2,0-0.2-0.1c-0.1,0-0.1-0.1-0.1-0.1v-0.1v-8.8v-0.1l0.1-0.1c0.1,0,0.1-0.1,0.2-0.1s0.2,0,0.4,0s0.3,0,0.4,0c0.1,0,0.2,0,0.2,0.1c0.1,0,0.1,0.1,0.1,0.1v0.1v3.6h2c0.1-0.6,0.2-1.1,0.4-1.6s0.5-0.9,0.8-1.3c0.4-0.4,0.8-0.6,1.3-0.8s1.1-0.3,1.8-0.3s1.3,0.1,1.8,0.3c0.5,0.2,1,0.5,1.3,0.9s0.6,0.9,0.8,1.5s0.3,1.2,0.3,1.9C740.8,436.5,740.6,437.2,740.3,437.8z M738.8,434.6c-0.1-0.4-0.2-0.8-0.4-1.1c-0.2-0.3-0.5-0.6-0.8-0.8c-0.3-0.2-0.8-0.3-1.3-0.3c-0.4,0-0.8,0.1-1.2,0.3c-0.4,0.2-0.6,0.4-0.8,0.7s-0.4,0.7-0.5,1.1s-0.2,0.9-0.2,1.4s0,1,0.1,1.4s0.2,0.8,0.4,1.1c0.2,0.3,0.4,0.6,0.8,0.7c0.3,0.2,0.7,0.3,1.3,0.3c0.4,0,0.8-0.1,1.1-0.2s0.6-0.4,0.8-0.7c0.2-0.3,0.4-0.7,0.5-1.1s0.2-0.9,0.2-1.5C739.1,435.4,739,435,738.8,434.6z"/><path fill="#464445" d="M752.8,432.3c0,0.1,0,0.2-0.1,0.2c0,0.1-0.1,0.1-0.1,0.1h-0.1h-3.3v7.6v0.1l-0.1,0.1c0,0-0.1,0-0.2,0.1s-0.2,0-0.4,0s-0.3,0-0.4,0c-0.1,0-0.2,0-0.2-0.1c-0.1,0-0.1-0.1-0.1-0.1v-0.1v-8.4c0-0.2,0-0.3,0.1-0.4s0.2-0.1,0.4-0.1h4.4h0.1l0.1,0.1c0,0.1,0.1,0.1,0.1,0.2s0,0.2,0,0.3S752.8,432.2,752.8,432.3z"/><path fill="#464445" d="M762.3,437.8c-0.2,0.6-0.4,1.1-0.7,1.6c-0.3,0.4-0.7,0.8-1.2,1s-1,0.3-1.6,0.3c-0.3,0-0.5,0-0.7-0.1s-0.4-0.1-0.7-0.2c-0.2-0.1-0.4-0.3-0.6-0.4s-0.4-0.4-0.7-0.6v4.4v0.1L756,444c0,0-0.1,0-0.2,0.1c-0.1,0.1-0.2,0-0.4,0s-0.3,0-0.4,0c-0.1,0-0.2,0-0.2-0.1c-0.1,0-0.1-0.1-0.1-0.1v-0.1v-12.3c0-0.1,0-0.1,0-0.1l0.1-0.1c0,0,0.1,0,0.2,0s0.2,0,0.3,0s0.2,0,0.3,0s0.2,0,0.2,0l0.1,0.1v0.1v1.2c0.3-0.3,0.5-0.5,0.8-0.7s0.5-0.4,0.8-0.5c0.2-0.1,0.5-0.2,0.8-0.3c0.3-0.1,0.5-0.1,0.8-0.1c0.6,0,1.2,0.1,1.6,0.4c0.4,0.3,0.8,0.6,1.1,1s0.5,0.9,0.6,1.5s0.2,1.2,0.2,1.8C762.6,436.5,762.5,437.2,762.3,437.8z M760.8,434.7c-0.1-0.4-0.2-0.8-0.4-1.1c-0.2-0.3-0.4-0.6-0.7-0.8c-0.3-0.2-0.6-0.3-1-0.3c-0.2,0-0.4,0-0.6,0.1c-0.2,0.1-0.4,0.2-0.6,0.3c-0.2,0.1-0.4,0.3-0.7,0.5c-0.2,0.2-0.5,0.5-0.7,0.8v3.5c0.4,0.5,0.9,1,1.3,1.2c0.4,0.2,0.8,0.4,1.3,0.4c0.4,0,0.8-0.1,1-0.3c0.3-0.2,0.5-0.5,0.7-0.8s0.3-0.7,0.4-1.1c0.1-0.4,0.1-0.8,0.1-1.2C760.9,435.5,760.8,435.1,760.8,434.7z"/><path fill="#464445" d="M771.6,440.5c0,0-0.1,0.1-0.2,0.1c-0.1,0-0.2,0-0.4,0s-0.3,0-0.4,0s-0.2,0-0.2-0.1s-0.1-0.1-0.1-0.2v-0.9c-0.4,0.4-0.8,0.7-1.3,1c-0.5,0.2-1,0.3-1.5,0.3s-0.9-0.1-1.3-0.2c-0.4-0.1-0.7-0.3-1-0.5s-0.5-0.5-0.6-0.8s-0.2-0.7-0.2-1.1c0-0.5,0.1-0.9,0.3-1.3s0.5-0.7,0.9-0.9c0.4-0.2,0.8-0.4,1.4-0.5c0.5-0.1,1.2-0.2,1.8-0.2h1.2v-0.7c0-0.3,0-0.6-0.1-0.9s-0.2-0.5-0.4-0.6c-0.2-0.2-0.4-0.3-0.6-0.4c-0.3-0.1-0.6-0.1-0.9-0.1c-0.4,0-0.8,0-1.1,0.1s-0.6,0.2-0.8,0.3c-0.2,0.1-0.4,0.2-0.6,0.3c-0.2,0.1-0.3,0.1-0.4,0.1H765l-0.1-0.1c0,0,0-0.1-0.1-0.2c0-0.1,0-0.2,0-0.3c0-0.2,0-0.3,0-0.4s0.1-0.2,0.2-0.3c0.1-0.1,0.2-0.2,0.5-0.3c0.2-0.1,0.5-0.2,0.7-0.3c0.3-0.1,0.6-0.2,0.9-0.2c0.3-0.1,0.7-0.1,1-0.1c0.6,0,1.2,0.1,1.6,0.2c0.4,0.1,0.8,0.4,1.1,0.6c0.3,0.3,0.5,0.6,0.6,1s0.2,0.9,0.2,1.4v5.9C771.7,440.4,771.7,440.5,771.6,440.5z M768.7,436.3c-0.4,0-0.8,0-1.2,0.1c-0.3,0.1-0.6,0.2-0.8,0.3c-0.2,0.2-0.4,0.3-0.5,0.5s-0.1,0.4-0.1,0.7c0,0.5,0.1,0.8,0.4,1.1c0.3,0.3,0.7,0.4,1.2,0.4c0.4,0,0.8-0.1,1.2-0.3s0.7-0.5,1.1-1v-1.9L768.7,436.3L768.7,436.3z"/><path fill="#464445" d="M785.6,440.5c-0.1,0.1-0.3,0.1-0.6,0.1c-0.2,0-0.3,0-0.4,0c-0.1,0-0.2,0-0.2,0s-0.1,0-0.1-0.1v-0.1l-0.6-5.1c0-0.2,0-0.4-0.1-0.6s0-0.4-0.1-0.6l-0.1-0.6c0-0.2,0-0.4,0-0.6v-0.2c-0.1,0.2-0.1,0.4-0.2,0.6c-0.1,0.2-0.1,0.4-0.2,0.6c-0.1,0.2-0.2,0.4-0.2,0.6c-0.1,0.2-0.1,0.4-0.2,0.6l-1.8,5.2c0,0.1-0.1,0.1-0.1,0.2c0,0-0.1,0.1-0.2,0.1c-0.1,0-0.1,0.1-0.2,0.1s-0.2,0-0.3,0s-0.3,0-0.3,0s-0.2,0-0.2-0.1c-0.1,0-0.1-0.1-0.1-0.1s-0.1-0.1-0.1-0.2l-1.8-5.2c-0.1-0.2-0.1-0.4-0.2-0.6s-0.1-0.4-0.2-0.6c-0.1-0.2-0.1-0.4-0.2-0.7c-0.1-0.3-0.1-0.4-0.2-0.6v0.2c0,0.2,0,0.4-0.1,0.6s0,0.4-0.1,0.6c0,0.2,0,0.4-0.1,0.6c0,0.2,0,0.4-0.1,0.6l-0.6,5c0,0.1,0,0.1,0,0.2s-0.1,0.1-0.1,0.1c-0.1,0-0.1,0-0.3,0c-0.1,0-0.2,0-0.4,0s-0.3,0-0.4,0c-0.1,0-0.2,0-0.2-0.1l-0.1-0.1c0,0,0-0.1,0-0.2l1-8.3c0-0.2,0.1-0.4,0.2-0.5c0.1-0.1,0.3-0.2,0.5-0.2h0.8c0.2,0,0.4,0,0.5,0s0.2,0.1,0.3,0.1c0.1,0.1,0.2,0.2,0.2,0.3c0.1,0.1,0.1,0.3,0.2,0.5l1.3,3.7c0.1,0.2,0.1,0.5,0.2,0.7c0.1,0.2,0.2,0.5,0.2,0.7c0.1,0.2,0.1,0.4,0.2,0.7c0.1,0.2,0.1,0.4,0.2,0.6l0,0c0.1-0.2,0.1-0.4,0.2-0.6c0.1-0.2,0.1-0.5,0.2-0.7c0.1-0.2,0.1-0.5,0.2-0.7s0.1-0.4,0.2-0.7l1.3-3.7c0-0.2,0.1-0.3,0.2-0.4c0.1-0.1,0.1-0.2,0.2-0.3c0.1-0.1,0.2-0.1,0.3-0.2c0.1,0,0.3,0,0.5,0h0.8c0.2,0,0.4,0,0.5,0.1s0.2,0.3,0.2,0.5l1,8.3C785.7,440.4,785.7,440.5,785.6,440.5z"/><path fill="#464445" d="M799.1,440.5c-0.1,0.1-0.3,0.1-0.6,0.1c-0.2,0-0.3,0-0.4,0c-0.1,0-0.2,0-0.2,0s-0.1,0-0.1-0.1v-0.1l-0.6-5.1c0-0.2,0-0.4-0.1-0.6s0-0.4-0.1-0.6l-0.1-0.6c0-0.2,0-0.4,0-0.6v-0.2c-0.1,0.2-0.1,0.4-0.2,0.6c-0.1,0.2-0.1,0.4-0.2,0.6c-0.1,0.2-0.2,0.4-0.2,0.6c-0.1,0.2-0.1,0.4-0.2,0.6l-1.8,5.2c0,0.1-0.1,0.1-0.1,0.2c0,0-0.1,0.1-0.2,0.1c-0.1,0-0.1,0.1-0.2,0.1c-0.1,0-0.2,0-0.3,0s-0.3,0-0.3,0s-0.2,0-0.2-0.1c-0.1,0-0.1-0.1-0.1-0.1s-0.1-0.1-0.1-0.2l-1.8-5.2c-0.1-0.2-0.1-0.4-0.2-0.6c-0.1-0.2-0.1-0.4-0.2-0.6c-0.1-0.2-0.1-0.4-0.2-0.7c-0.1-0.3-0.1-0.4-0.2-0.6v0.2c0,0.2,0,0.4-0.1,0.6s0,0.4-0.1,0.6c0,0.2,0,0.4-0.1,0.6c0,0.2,0,0.4-0.1,0.6l-0.6,5c0,0.1,0,0.1,0,0.2s-0.1,0.1-0.1,0.1c-0.1,0-0.1,0-0.3,0c-0.1,0-0.2,0-0.4,0s-0.3,0-0.4,0c-0.1,0-0.2,0-0.2-0.1l-0.1-0.1c0,0,0-0.1,0-0.2l1-8.3c0-0.2,0.1-0.4,0.2-0.5c0.1-0.1,0.3-0.2,0.5-0.2h0.8c0.2,0,0.4,0,0.5,0s0.2,0.1,0.3,0.1c0.1,0.1,0.2,0.2,0.2,0.3c0.1,0.1,0.1,0.3,0.2,0.5l1.3,3.7c0.1,0.2,0.1,0.5,0.2,0.7c0.1,0.2,0.2,0.5,0.2,0.7c0.1,0.2,0.1,0.4,0.2,0.7c0.1,0.2,0.1,0.4,0.2,0.6l0,0c0.1-0.2,0.1-0.4,0.2-0.6c0.1-0.2,0.1-0.5,0.2-0.7s0.1-0.5,0.2-0.7s0.1-0.4,0.2-0.7l1.3-3.7c0-0.2,0.1-0.3,0.2-0.4c0.1-0.1,0.1-0.2,0.2-0.3c0.1-0.1,0.2-0.1,0.3-0.2c0.1,0,0.3,0,0.5,0h0.8c0.2,0,0.4,0,0.5,0.1s0.2,0.3,0.2,0.5l1,8.3C799.3,440.4,799.2,440.5,799.1,440.5z"/><path fill="#464445" d="M808.2,440.5c0,0-0.1,0.1-0.2,0.1c-0.1,0-0.2,0-0.4,0s-0.3,0-0.4,0c-0.1,0-0.2,0-0.2-0.1s-0.1-0.1-0.1-0.2v-0.9c-0.4,0.4-0.8,0.7-1.3,1c-0.5,0.2-1,0.3-1.5,0.3s-0.9-0.1-1.3-0.2c-0.4-0.1-0.7-0.3-1-0.5s-0.5-0.5-0.6-0.8s-0.2-0.7-0.2-1.1c0-0.5,0.1-0.9,0.3-1.3s0.5-0.7,0.9-0.9c0.4-0.2,0.8-0.4,1.4-0.5c0.5-0.1,1.2-0.2,1.8-0.2h1.2v-0.7c0-0.3,0-0.6-0.1-0.9s-0.2-0.5-0.4-0.6c-0.2-0.2-0.4-0.3-0.6-0.4c-0.3-0.1-0.6-0.1-0.9-0.1c-0.4,0-0.8,0-1.1,0.1s-0.6,0.2-0.8,0.3c-0.2,0.1-0.4,0.2-0.6,0.3c-0.2,0.1-0.3,0.1-0.4,0.1h-0.1l-0.1-0.1c0,0,0-0.1-0.1-0.2c0-0.1,0-0.2,0-0.3c0-0.2,0-0.3,0-0.4s0.1-0.2,0.2-0.3c0.1-0.1,0.2-0.2,0.5-0.3c0.2-0.1,0.5-0.2,0.7-0.3c0.3-0.1,0.6-0.2,0.9-0.2c0.3-0.1,0.7-0.1,1-0.1c0.6,0,1.2,0.1,1.6,0.2c0.4,0.1,0.8,0.4,1.1,0.6c0.3,0.3,0.5,0.6,0.6,1s0.2,0.9,0.2,1.4v5.9C808.3,440.4,808.3,440.5,808.2,440.5z M805.3,436.3c-0.4,0-0.8,0-1.2,0.1c-0.3,0.1-0.6,0.2-0.8,0.3c-0.2,0.2-0.4,0.3-0.5,0.5s-0.1,0.4-0.1,0.7c0,0.5,0.1,0.8,0.4,1.1c0.3,0.3,0.7,0.4,1.2,0.4c0.4,0,0.8-0.1,1.2-0.3s0.7-0.5,1.1-1v-1.9L805.3,436.3L805.3,436.3z"/><path fill="#464445" d="M817.3,432.3c0,0.1,0,0.2-0.1,0.2c0,0.1-0.1,0.1-0.1,0.1H817h-2.6v7.6v0.1l-0.1,0.1c0,0-0.1,0-0.2,0.1c-0.1,0.1-0.2,0-0.4,0s-0.3,0-0.4,0c-0.1,0-0.2,0-0.3-0.1c-0.1,0-0.1-0.1-0.1-0.1v-0.1v-7.6h-2.6h-0.1l-0.1-0.1c0,0,0-0.1-0.1-0.2c0-0.1,0-0.2,0-0.3s0-0.2,0-0.3s0-0.2,0.1-0.2c0-0.1,0.1-0.1,0.1-0.1h0.1h6.9h0.1l0.1,0.1c0,0.1,0,0.1,0.1,0.2c0,0.1,0,0.2,0,0.3C817.3,432.1,817.3,432.2,817.3,432.3z"/><path fill="#464445" d="M826.8,440.4L826.8,440.4c-0.2,0.1-0.2,0.1-0.3,0.2s-0.2,0-0.4,0s-0.3,0-0.4,0c-0.1,0-0.2,0-0.3-0.1c-0.1,0-0.1,0-0.1-0.1s0-0.1,0-0.1v-5.1c0-0.3,0-0.5,0-0.8s0-0.5,0-0.8c-0.1,0.3-0.3,0.5-0.5,0.8c-0.2,0.2-0.4,0.5-0.5,0.7l-3.7,5.1l-0.1,0.1l-0.1,0.1c0,0-0.1,0-0.2,0c-0.1,0-0.2,0-0.3,0s-0.3,0-0.4,0c-0.1,0-0.2,0-0.2-0.1c0,0-0.1,0-0.1-0.1v-0.1v-8.8v-0.1l0.1-0.1c0.1,0,0.1,0,0.2,0c0.1,0,0.2,0,0.4,0c0.3,0,0.5,0,0.6,0.1c0.1,0,0.2,0.1,0.2,0.2v5.1c0,0.3,0,0.5,0,0.8s0,0.5,0,0.8c0.1-0.2,0.3-0.5,0.5-0.7c0.1-0.2,0.3-0.5,0.5-0.7l3.8-5.2l0.1-0.1c0,0,0.1-0.1,0.2-0.1c0.1,0,0.1,0,0.2,0c0.1,0,0.2,0,0.3,0s0.3,0,0.4,0s0.2,0,0.2,0c0.1,0,0.1,0.1,0.1,0.1v0.1v8.8C826.8,440.4,826.8,440.4,826.8,440.4z"/><path fill="#464445" d="M837,440.5l-0.1,0.1c-0.1,0-0.1,0-0.2,0c-0.1,0-0.2,0-0.4,0s-0.3,0-0.4,0c-0.1,0-0.2,0-0.3-0.1c-0.1,0-0.1,0-0.2-0.1l-0.1-0.1l-0.9-2.3c-0.1-0.3-0.2-0.5-0.4-0.8c-0.1-0.2-0.3-0.4-0.5-0.5s-0.4-0.2-0.6-0.3c-0.2-0.1-0.5-0.1-0.8-0.1h-0.7v4v0.1l-0.1,0.1c0,0-0.1,0-0.3,0s-0.2,0-0.4,0s-0.3,0-0.4,0c-0.1,0-0.2,0-0.3,0s-0.1,0-0.1-0.1v-0.1v-8.9v-0.1l0.1-0.1c0,0,0.1,0,0.3,0c0.1,0,0.2,0,0.4,0s0.3,0,0.4,0c0.1,0,0.2,0,0.3,0s0.1,0,0.1,0.1v0.1v3.7h0.7c0.2,0,0.5,0,0.7-0.1s0.4-0.2,0.6-0.3c0.2-0.1,0.3-0.3,0.5-0.5c0.1-0.2,0.3-0.4,0.4-0.7l0.8-2c0,0,0-0.1,0.1-0.1s0.1-0.1,0.1-0.1s0.1,0,0.3,0c0.1,0,0.2,0,0.4,0s0.3,0,0.4,0s0.2,0,0.2,0c0.1,0,0.1,0,0.1,0.1v0.1c0,0.1,0,0.1,0,0.2s0,0.1-0.1,0.2l-0.8,1.9c-0.1,0.3-0.3,0.6-0.4,0.8c-0.2,0.2-0.3,0.4-0.5,0.6c-0.2,0.1-0.3,0.3-0.5,0.3c-0.2,0.1-0.3,0.1-0.5,0.2l0,0c0.2,0.1,0.4,0.2,0.6,0.3c0.2,0.1,0.4,0.2,0.5,0.4c0.2,0.2,0.3,0.4,0.5,0.6c0.1,0.2,0.3,0.5,0.4,0.8l1,2.2c0,0,0,0.1,0.1,0.1s0,0.1,0,0.1v0.1C837,440.3,837,440.4,837,440.5C837,440.4,837,440.5,837,440.5z"/><path fill="#464445" d="M846.8,440.4L846.8,440.4c-0.2,0.1-0.2,0.1-0.3,0.2s-0.2,0-0.4,0s-0.3,0-0.4,0c-0.1,0-0.2,0-0.3-0.1c-0.1,0-0.1,0-0.1-0.1s0-0.1,0-0.1v-5.1c0-0.3,0-0.5,0-0.8s0-0.5,0-0.8c-0.1,0.3-0.3,0.5-0.5,0.8c-0.2,0.2-0.4,0.5-0.5,0.7l-3.7,5.1l-0.1,0.1l-0.1,0.1c0,0-0.1,0-0.2,0c-0.1,0-0.2,0-0.3,0s-0.3,0-0.4,0c-0.1,0-0.2,0-0.2-0.1c0,0-0.1,0-0.1-0.1v-0.1v-8.8v-0.1l0.1-0.1c0.1,0,0.1,0,0.2,0c0.1,0,0.2,0,0.4,0c0.3,0,0.5,0,0.6,0.1c0.1,0,0.2,0.1,0.2,0.2v5.1c0,0.3,0,0.5,0,0.8s0,0.5,0,0.8c0.1-0.2,0.3-0.5,0.5-0.7c0.1-0.2,0.3-0.5,0.5-0.7l3.8-5.2l0.1-0.1c0,0,0.1-0.1,0.2-0.1s0.1,0,0.2,0s0.2,0,0.3,0s0.3,0,0.4,0s0.2,0,0.2,0c0.1,0,0.1,0.1,0.1,0.1v0.1v8.8C846.8,440.4,846.8,440.4,846.8,440.4z"/><path fill="#464445" d="M650.2,461.5c0,0-0.1,0.1-0.2,0.1c-0.1,0-0.2,0-0.4,0s-0.3,0-0.4,0c-0.1,0-0.2,0-0.2-0.1s-0.1-0.1-0.1-0.2v-0.9c-0.4,0.4-0.8,0.7-1.3,1c-0.5,0.2-1,0.3-1.5,0.3s-0.9-0.1-1.3-0.2c-0.4-0.1-0.7-0.3-1-0.5s-0.5-0.5-0.6-0.8s-0.2-0.7-0.2-1.1c0-0.5,0.1-0.9,0.3-1.3s0.5-0.7,0.9-0.9s0.8-0.4,1.4-0.5c0.5-0.1,1.2-0.2,1.8-0.2h1.2v-0.7c0-0.3,0-0.6-0.1-0.9s-0.2-0.5-0.4-0.6c-0.2-0.2-0.4-0.3-0.6-0.4c-0.3-0.1-0.6-0.1-0.9-0.1c-0.4,0-0.8,0-1.1,0.1s-0.6,0.2-0.8,0.3c-0.2,0.1-0.4,0.2-0.6,0.3c-0.2,0.1-0.3,0.1-0.4,0.1h-0.1l-0.1-0.1c0,0,0-0.1-0.1-0.2c0-0.1,0-0.2,0-0.3c0-0.2,0-0.3,0-0.4s0.1-0.2,0.2-0.3c0.1-0.1,0.2-0.2,0.5-0.3c0.2-0.1,0.5-0.2,0.7-0.3c0.3-0.1,0.6-0.2,0.9-0.2c0.3-0.1,0.7-0.1,1-0.1c0.6,0,1.2,0.1,1.6,0.2c0.4,0.1,0.8,0.4,1.1,0.6c0.3,0.3,0.5,0.6,0.6,1s0.2,0.9,0.2,1.4v5.9C650.4,461.4,650.2,461.5,650.2,461.5z M647.4,457.3c-0.4,0-0.8,0-1.2,0.1c-0.3,0.1-0.6,0.2-0.8,0.3c-0.2,0.2-0.4,0.3-0.5,0.5s-0.1,0.4-0.1,0.7c0,0.5,0.1,0.8,0.4,1.1s0.7,0.4,1.2,0.4c0.4,0,0.8-0.1,1.2-0.3c0.4-0.2,0.7-0.5,1.1-1v-1.9L647.4,457.3L647.4,457.3z"/><path fill="#464445" d="M661,461.4L661,461.4c-0.1,0.1-0.2,0.1-0.3,0.2s-0.2,0-0.4,0s-0.3,0-0.4,0c-0.1,0-0.2,0-0.2-0.1s-0.1-0.1-0.1-0.1v-0.1v-3.9h-4.5v3.9v0.1l-0.1,0.1c0,0-0.1,0-0.2,0.1c-0.1,0.1-0.2,0-0.4,0s-0.3,0-0.4,0c-0.1,0-0.2,0-0.2-0.1c-0.1,0-0.1-0.1-0.1-0.1v-0.1v-8.8v-0.1l0.1-0.1c0.1,0,0.1-0.1,0.2-0.1s0.2,0,0.4,0s0.3,0,0.4,0s0.2,0,0.2,0.1c0.1,0,0.1,0.1,0.1,0.1v0.1v3.6h4.5v-3.6v-0.1l0.1-0.1c0.1,0,0.1-0.1,0.2-0.1s0.2,0,0.4,0s0.3,0,0.4,0s0.2,0,0.2,0.1c0.1,0,0.1,0.1,0.1,0.1v0.1v8.8C661,461.4,661,461.4,661,461.4z"/><path fill="#464445" d="M669.2,453.3c0,0.1,0,0.2-0.1,0.2c0,0.1-0.1,0.1-0.1,0.1h-0.1h-3.3v7.6v0.1l-0.1,0.1c0,0-0.1,0-0.2,0.1c-0.1,0.1-0.2,0-0.4,0s-0.3,0-0.4,0c-0.1,0-0.2,0-0.2-0.1c-0.1,0-0.1-0.1-0.1-0.1v-0.1v-8.4c0-0.2,0-0.3,0.1-0.4s0.2-0.1,0.4-0.1h4.4h0.1l0.1,0.1c0,0.1,0.1,0.1,0.1,0.2s0,0.2,0,0.3S669.2,453.2,669.2,453.3z"/><path fill="#464445" d="M678.1,461.4L678.1,461.4c-0.1,0.1-0.2,0.1-0.3,0.2s-0.2,0-0.4,0s-0.3,0-0.4,0c-0.1,0-0.2,0-0.2-0.1c-0.1,0-0.1-0.1-0.1-0.1v-0.1v-7.7h-2.4c-0.1,1-0.2,2-0.4,2.8s-0.3,1.5-0.5,2.1s-0.4,1.1-0.6,1.5c-0.2,0.4-0.5,0.7-0.7,1c-0.3,0.3-0.6,0.4-0.9,0.5c-0.3,0.1-0.7,0.2-1,0.2c-0.1,0-0.1,0-0.2,0l-0.1-0.1c0,0,0-0.1-0.1-0.2c0-0.1,0-0.2,0-0.4c0-0.2,0-0.3,0-0.4s0-0.2,0-0.2c0-0.1,0.1-0.1,0.1-0.1h0.1c0.2,0,0.4,0,0.6-0.1c0.2-0.1,0.4-0.3,0.5-0.5c0.2-0.2,0.3-0.5,0.5-0.9c0.1-0.4,0.3-0.8,0.4-1.4c0.1-0.6,0.2-1.2,0.4-1.9c0.1-0.7,0.2-1.6,0.3-2.5c0-0.2,0.1-0.3,0.1-0.4c0.1-0.1,0.2-0.1,0.3-0.1h4.5c0.2,0,0.3,0,0.4,0.1c0.1,0.1,0.1,0.2,0.1,0.4L678.1,461.4C678.2,461.4,678.2,461.4,678.1,461.4z"/><path fill="#464445" d="M688.9,461.4L688.9,461.4c-0.2,0.1-0.2,0.1-0.3,0.2s-0.2,0-0.4,0s-0.3,0-0.4,0c-0.1,0-0.2,0-0.3-0.1c-0.1,0-0.1,0-0.1-0.1s0-0.1,0-0.1v-5.1c0-0.3,0-0.5,0-0.8s0-0.5,0-0.8c-0.1,0.3-0.3,0.5-0.5,0.8c-0.2,0.2-0.4,0.5-0.5,0.7l-3.7,5.1l-0.1,0.1l-0.1,0.1c0,0-0.1,0-0.2,0c-0.1,0-0.2,0-0.3,0s-0.3,0-0.4,0c-0.1,0-0.2,0-0.2-0.1c0,0-0.1,0-0.1-0.1v-0.1v-8.8v-0.1l0.1-0.1c0.1,0,0.1,0,0.2,0s0.2,0,0.4,0c0.3,0,0.5,0,0.6,0.1c0.1,0,0.2,0.1,0.2,0.2v5.1c0,0.3,0,0.5,0,0.8s0,0.5,0,0.8c0.1-0.2,0.3-0.5,0.5-0.7c0.1-0.2,0.3-0.5,0.5-0.7l3.8-5.2l0.1-0.1c0,0,0.1-0.1,0.2-0.1c0.1,0,0.1,0,0.2,0s0.2,0,0.3,0s0.3,0,0.4,0c0.1,0,0.2,0,0.2,0c0.1,0,0.1,0.1,0.1,0.1v0.1v8.8C689,461.4,689,461.4,688.9,461.4z"/><path fill="#464445" d="M699.7,461.4L699.7,461.4c-0.2,0.1-0.2,0.1-0.3,0.2s-0.2,0-0.4,0s-0.3,0-0.4,0c-0.1,0-0.2,0-0.3-0.1c-0.1,0-0.1,0-0.1-0.1s0-0.1,0-0.1v-5.1c0-0.3,0-0.5,0-0.8s0-0.5,0-0.8c-0.1,0.3-0.3,0.5-0.5,0.8c-0.2,0.2-0.4,0.5-0.5,0.7l-3.7,5.1l-0.1,0.1l-0.1,0.1c0,0-0.1,0-0.2,0s-0.2,0-0.3,0s-0.3,0-0.4,0c-0.1,0-0.2,0-0.2-0.1c0,0-0.1,0-0.1-0.1v-0.1v-8.8v-0.1l0.1-0.1c0.1,0,0.1,0,0.2,0c0.1,0,0.2,0,0.4,0c0.3,0,0.5,0,0.6,0.1c0.1,0,0.2,0.1,0.2,0.2v5.1c0,0.3,0,0.5,0,0.8s0,0.5,0,0.8c0.1-0.2,0.3-0.5,0.5-0.7c0.1-0.2,0.3-0.5,0.5-0.7l3.8-5.2l0.1-0.1c0,0,0.1-0.1,0.2-0.1c0.1,0,0.1,0,0.2,0c0.1,0,0.2,0,0.3,0s0.3,0,0.4,0s0.2,0,0.2,0c0.1,0,0.1,0.1,0.1,0.1v0.1v8.8C699.7,461.4,699.7,461.4,699.7,461.4z M698.7,449.4c-0.1,0.3-0.3,0.6-0.5,0.8c-0.2,0.3-0.5,0.4-0.9,0.6c-0.4,0.1-0.8,0.2-1.4,0.2c-0.5,0-0.9-0.1-1.3-0.2c-0.4-0.1-0.7-0.3-0.9-0.5c-0.3-0.2-0.4-0.5-0.6-0.8c-0.1-0.3-0.2-0.7-0.2-1.1c0-0.1,0-0.1,0-0.2l0.1-0.1c0.1,0,0.1,0,0.3-0.1c0.1,0,0.2,0,0.4,0s0.3,0,0.4,0c0.1,0,0.2,0,0.2,0.1c0.1,0,0.1,0.1,0.1,0.1s0,0.1,0,0.2c0,0.2,0,0.4,0.1,0.6s0.2,0.3,0.3,0.5c0.1,0.1,0.3,0.2,0.5,0.3c0.2,0.1,0.4,0.1,0.7,0.1s0.4,0,0.6-0.1s0.3-0.2,0.5-0.3c0.2-0.1,0.2-0.3,0.3-0.5s0.1-0.4,0.1-0.6c0-0.1,0-0.1,0-0.2l0.1-0.1c0.1,0,0.1-0.1,0.2-0.1c0.1,0,0.2,0,0.4,0s0.3,0,0.4,0s0.2,0,0.2,0.1c0.1,0,0.1,0.1,0.1,0.1s0,0.1,0,0.2C698.9,448.7,698.9,449.1,698.7,449.4z"/><path fill="#464445" d="M709.1,460.3c0,0.1,0,0.1,0,0.2s0,0.1-0.1,0.2c0,0-0.1,0.1-0.2,0.2c-0.1,0.1-0.2,0.2-0.4,0.3c-0.2,0.1-0.4,0.2-0.7,0.3c-0.3,0.1-0.5,0.2-0.8,0.2s-0.6,0.1-0.9,0.1c-0.6,0-1.2-0.1-1.7-0.3c-0.5-0.2-0.9-0.5-1.2-0.9s-0.6-0.9-0.8-1.5s-0.3-1.3-0.3-2c0-0.9,0.1-1.6,0.3-2.2s0.5-1.1,0.9-1.5s0.8-0.7,1.3-0.9s1-0.3,1.6-0.3c0.3,0,0.5,0,0.8,0.1c0.3,0,0.5,0.1,0.7,0.2s0.4,0.2,0.6,0.3c0.2,0.1,0.3,0.2,0.4,0.3c0.1,0.1,0.1,0.1,0.2,0.2c0,0,0,0.1,0.1,0.2c0,0.1,0,0.1,0,0.2s0,0.2,0,0.3c0,0.3,0,0.4-0.1,0.5s-0.1,0.2-0.2,0.2c-0.1,0-0.2-0.1-0.3-0.2s-0.3-0.2-0.5-0.4s-0.4-0.2-0.7-0.4c-0.3-0.1-0.6-0.2-1-0.2c-0.8,0-1.4,0.3-1.8,0.9c-0.4,0.6-0.6,1.5-0.6,2.6c0,0.6,0.1,1.1,0.2,1.5c0.1,0.4,0.3,0.8,0.5,1.1c0.2,0.3,0.5,0.5,0.8,0.6s0.6,0.2,1,0.2s0.7-0.1,1-0.2s0.5-0.2,0.7-0.4c0.2-0.1,0.4-0.3,0.5-0.4s0.2-0.2,0.3-0.2h0.1l0.1,0.1c0,0.1,0,0.1,0,0.2s0,0.2,0,0.3C709.1,460.1,709.1,460.2,709.1,460.3z"/><path fill="#464445" d="M718.4,461.5l-0.1,0.1c-0.1,0-0.1,0-0.2,0c-0.1,0-0.2,0-0.4,0s-0.3,0-0.4,0s-0.2,0-0.3-0.1c-0.1,0-0.1,0-0.2-0.1l-0.1-0.1l-0.9-2.3c-0.1-0.3-0.2-0.5-0.4-0.8c-0.1-0.2-0.3-0.4-0.5-0.5s-0.4-0.2-0.6-0.3c-0.2-0.1-0.5-0.1-0.8-0.1h-0.7v4v0.1l-0.1,0.1c0,0-0.1,0-0.3,0s-0.2,0-0.4,0s-0.3,0-0.4,0s-0.2,0-0.3,0s-0.1,0-0.1-0.1v-0.1v-8.9v-0.1l0.1-0.1c0,0,0.1,0,0.3,0c0.1,0,0.2,0,0.4,0s0.3,0,0.4,0c0.1,0,0.2,0,0.3,0s0.1,0,0.1,0.1v0.1v3.7h0.7c0.2,0,0.5,0,0.7-0.1s0.4-0.2,0.6-0.3c0.2-0.1,0.3-0.3,0.5-0.5c0.1-0.2,0.3-0.4,0.4-0.7l0.8-2c0,0,0-0.1,0.1-0.1s0.1-0.1,0.1-0.1s0.1,0,0.3,0c0.1,0,0.2,0,0.4,0s0.3,0,0.4,0c0.1,0,0.2,0,0.2,0c0.1,0,0.1,0,0.1,0.1v0.1c0,0.1,0,0.1,0,0.2s0,0.1-0.1,0.2l-0.8,1.9c-0.1,0.3-0.3,0.6-0.4,0.8c-0.2,0.2-0.3,0.4-0.5,0.6c-0.2,0.1-0.3,0.3-0.5,0.3c-0.2,0.1-0.3,0.1-0.5,0.2l0,0c0.2,0.1,0.4,0.2,0.6,0.3c0.2,0.1,0.4,0.2,0.5,0.4c0.2,0.2,0.3,0.4,0.5,0.6c0.1,0.2,0.3,0.5,0.4,0.8l1,2.2c0,0,0,0.1,0.1,0.1s0,0.1,0,0.1v0.1C718.4,461.3,718.4,461.4,718.4,461.5C718.4,461.4,718.4,461.5,718.4,461.5z"/><path fill="#464445" d="M728.5,458.8c-0.2,0.6-0.5,1.1-0.8,1.6c-0.4,0.4-0.8,0.8-1.4,1c-0.6,0.2-1.2,0.4-2,0.4c-0.7,0-1.3-0.1-1.9-0.3c-0.5-0.2-1-0.5-1.3-0.9s-0.6-0.9-0.8-1.5s-0.3-1.3-0.3-2s0.1-1.4,0.3-2s0.5-1.1,0.8-1.6c0.4-0.4,0.8-0.8,1.4-1c0.6-0.2,1.2-0.4,2-0.4c0.7,0,1.4,0.1,1.9,0.3s1,0.5,1.3,0.9s0.6,0.9,0.8,1.5s0.3,1.3,0.3,2S728.7,458.2,728.5,458.8z M726.8,455.6c-0.1-0.4-0.2-0.8-0.4-1.1c-0.2-0.3-0.5-0.6-0.8-0.8c-0.3-0.2-0.8-0.3-1.3-0.3s-0.9,0.1-1.2,0.3c-0.3,0.2-0.6,0.4-0.8,0.7c-0.2,0.3-0.4,0.7-0.5,1.1s-0.2,0.9-0.2,1.4s0,0.9,0.1,1.4c0.1,0.4,0.2,0.8,0.4,1.1c0.2,0.3,0.5,0.6,0.8,0.8s0.8,0.3,1.3,0.3s0.9-0.1,1.2-0.3c0.3-0.2,0.6-0.4,0.8-0.7c0.2-0.3,0.4-0.7,0.5-1.1s0.2-0.9,0.2-1.4C727.1,456.4,727,456,726.8,455.6z"/><path fill="#464445" d="M736.3,453.3c0,0.1,0,0.2-0.1,0.2c0,0.1-0.1,0.1-0.1,0.1H736h-3.3v7.6v0.1l-0.1,0.1c0,0-0.1,0-0.2,0.1c-0.1,0.1-0.2,0-0.4,0s-0.3,0-0.4,0c-0.1,0-0.2,0-0.2-0.1c-0.1,0-0.1-0.1-0.1-0.1v-0.1v-8.4c0-0.2,0-0.3,0.1-0.4s0.2-0.1,0.4-0.1h4.4h0.1l0.1,0.1c0,0.1,0.1,0.1,0.1,0.2s0,0.2,0,0.3S736.3,453.2,736.3,453.3z"/><path fill="#464445" d="M746,458.8c-0.2,0.6-0.5,1.1-0.8,1.6c-0.4,0.4-0.8,0.8-1.4,1c-0.6,0.2-1.2,0.4-2,0.4c-0.7,0-1.3-0.1-1.9-0.3c-0.5-0.2-1-0.5-1.3-0.9s-0.6-0.9-0.8-1.5s-0.3-1.3-0.3-2s0.1-1.4,0.3-2s0.5-1.1,0.8-1.6c0.4-0.4,0.8-0.8,1.4-1c0.6-0.2,1.2-0.4,2-0.4c0.7,0,1.4,0.1,1.9,0.3s1,0.5,1.3,0.9s0.6,0.9,0.8,1.5s0.3,1.3,0.3,2C746.2,457.5,746.1,458.2,746,458.8z M744.3,455.6c-0.1-0.4-0.2-0.8-0.4-1.1c-0.2-0.3-0.5-0.6-0.8-0.8c-0.3-0.2-0.8-0.3-1.3-0.3s-0.9,0.1-1.2,0.3c-0.3,0.2-0.6,0.4-0.8,0.7c-0.2,0.3-0.4,0.7-0.5,1.1s-0.2,0.9-0.2,1.4s0,0.9,0.1,1.4c0.1,0.4,0.2,0.8,0.4,1.1c0.2,0.3,0.5,0.6,0.8,0.8s0.8,0.3,1.3,0.3s0.9-0.1,1.2-0.3c0.3-0.2,0.6-0.4,0.8-0.7c0.2-0.3,0.4-0.7,0.5-1.1s0.2-0.9,0.2-1.4C744.5,456.4,744.5,456,744.3,455.6z"/><path fill="#464445" d="M759.6,461.4L759.6,461.4c-0.2,0.1-0.2,0.1-0.3,0.2s-0.2,0-0.4,0s-0.3,0-0.4,0c-0.1,0-0.2,0-0.2-0.1c-0.1,0-0.1,0-0.1-0.1v-0.1v-3.7h-0.9c-0.4,0-0.7,0-0.9,0.1s-0.4,0.2-0.6,0.3c-0.2,0.1-0.3,0.3-0.5,0.6c-0.1,0.2-0.3,0.5-0.4,0.9l-0.7,1.7c0,0.1-0.1,0.2-0.1,0.2s-0.1,0.1-0.2,0.1s-0.2,0.1-0.3,0.1s-0.3,0-0.4,0c-0.1,0-0.2,0-0.3,0s-0.2,0-0.2,0c-0.1,0-0.1,0-0.1-0.1v-0.1c0,0,0-0.1,0.1-0.2c0-0.1,0.1-0.3,0.2-0.5l0.7-1.7c0.2-0.4,0.4-0.8,0.7-1.1c0.3-0.3,0.6-0.5,0.9-0.7c-0.6-0.1-1.1-0.4-1.5-0.8s-0.6-0.9-0.6-1.5c0-0.4,0.1-0.8,0.3-1.2c0.2-0.3,0.4-0.6,0.8-0.9c0.3-0.2,0.8-0.4,1.3-0.5s1.1-0.2,1.7-0.2c0.2,0,0.3,0,0.5,0s0.4,0,0.6,0c0.2,0,0.4,0,0.6,0c0.2,0,0.4,0,0.5,0c0.2,0,0.3,0.1,0.4,0.2c0.1,0.1,0.1,0.3,0.1,0.5v8.3C759.6,461.4,759.6,461.4,759.6,461.4z M757.3,453.4c-0.2,0-0.5,0-0.7,0c-0.4,0-0.8,0-1.1,0.1s-0.5,0.2-0.7,0.3c-0.2,0.1-0.3,0.3-0.4,0.5c-0.1,0.2-0.1,0.4-0.1,0.6s0,0.4,0.1,0.6s0.2,0.4,0.4,0.5s0.4,0.2,0.7,0.3c0.3,0.1,0.7,0.1,1.2,0.1h1.3v-3C757.8,453.4,757.5,453.4,757.3,453.4z"/><path fill="#464445" d="M768.3,460.1c-0.2,0.4-0.4,0.7-0.8,0.9c-0.3,0.3-0.7,0.4-1.2,0.6s-1,0.2-1.6,0.2c-0.3,0-0.7,0-1-0.1s-0.6-0.1-0.8-0.2c-0.3-0.1-0.4-0.2-0.6-0.2c-0.2-0.1-0.3-0.2-0.4-0.2c-0.1-0.1-0.1-0.1-0.1-0.2c0,0-0.1-0.1-0.1-0.2s0-0.1,0-0.2s0-0.2,0-0.3c0-0.1,0-0.2,0-0.3c0-0.1,0-0.1,0-0.2s0-0.1,0.1-0.1h0.1c0.1,0,0.2,0,0.3,0.1s0.3,0.2,0.5,0.3c0.2,0.1,0.5,0.2,0.8,0.3c0.3,0.1,0.7,0.1,1.2,0.1c0.3,0,0.6,0,0.9-0.1c0.3-0.1,0.5-0.2,0.7-0.3s0.3-0.3,0.4-0.5c0.1-0.2,0.1-0.4,0.1-0.7c0-0.2,0-0.4-0.1-0.6s-0.3-0.3-0.5-0.5c-0.2-0.1-0.5-0.2-0.8-0.3c-0.3-0.1-0.7-0.1-1.2-0.1h-1c-0.1,0-0.1,0-0.2,0l-0.1-0.1c0,0-0.1-0.1-0.1-0.2s0-0.2,0-0.3c0-0.1,0-0.2,0-0.3c0-0.1,0-0.1,0.1-0.2s0.1-0.1,0.1-0.1h0.1h0.9c0.4,0,0.8,0,1.1-0.1s0.5-0.2,0.7-0.3c0.2-0.1,0.4-0.3,0.4-0.5c0.1-0.2,0.1-0.4,0.1-0.6s0-0.4-0.1-0.6s-0.2-0.3-0.4-0.4c-0.1-0.1-0.3-0.2-0.6-0.3c-0.2,0-0.5-0.1-0.7-0.1c-0.4,0-0.8,0-1.1,0.1s-0.6,0.2-0.8,0.3c-0.2,0.1-0.4,0.2-0.6,0.3c-0.1,0.1-0.2,0.1-0.3,0.1h-0.1c0,0,0,0-0.1-0.1c0,0,0-0.1,0-0.2s0-0.2,0-0.3c0-0.2,0-0.3,0-0.4s0.1-0.2,0.2-0.3c0.1-0.1,0.2-0.2,0.4-0.3c0.2-0.1,0.4-0.2,0.7-0.3c0.3-0.1,0.5-0.2,0.9-0.2c0.3,0,0.6-0.1,0.9-0.1c0.5,0,0.9,0,1.3,0.2c0.4,0.1,0.7,0.3,1,0.4c0.3,0.2,0.5,0.5,0.7,0.8s0.2,0.7,0.2,1.1c0,0.2,0,0.5-0.1,0.7s-0.2,0.4-0.3,0.6s-0.3,0.3-0.5,0.5s-0.4,0.3-0.7,0.3l0,0c0.3,0,0.5,0.1,0.8,0.2c0.2,0.1,0.5,0.3,0.7,0.5s0.4,0.4,0.5,0.7s0.2,0.6,0.2,0.9C768.7,459.3,768.6,459.7,768.3,460.1z"/><path fill="#464445" d="M773.3,455.6c0.3,0,0.5,0,0.8,0c0.7,0,1.3,0.1,1.8,0.2s0.9,0.3,1.2,0.6s0.6,0.6,0.7,0.9c0.1,0.4,0.2,0.8,0.2,1.2c0,0.4-0.1,0.9-0.2,1.3c-0.2,0.4-0.4,0.7-0.8,1c-0.3,0.3-0.8,0.5-1.3,0.7s-1.2,0.2-1.9,0.2c-0.2,0-0.4,0-0.5,0c-0.2,0-0.4,0-0.5,0c-0.2,0-0.3,0-0.5,0s-0.3,0-0.5,0c-0.3,0-0.5-0.1-0.6-0.3c-0.1-0.2-0.2-0.4-0.2-0.7v-8.2v-0.1l0.1-0.1c0.1,0,0.1-0.1,0.2-0.1s0.2,0,0.4,0c0.3,0,0.5,0,0.7,0.1c0.1,0,0.2,0.1,0.2,0.2v3.1C772.8,455.6,773.2,455.6,773.3,455.6z M776.3,457.9c-0.1-0.2-0.2-0.4-0.4-0.6c-0.2-0.1-0.4-0.3-0.7-0.4s-0.7-0.1-1.1-0.1c-0.3,0-0.5,0-0.7,0s-0.4,0-0.7,0v3.4c0.2,0,0.4,0,0.7,0.1s0.5,0,0.8,0c0.8,0,1.4-0.2,1.7-0.5c0.4-0.3,0.6-0.8,0.6-1.3C776.5,458.4,776.3,458.1,776.3,457.9z M781.3,461.4L781.3,461.4c-0.1,0.1-0.2,0.1-0.3,0.2s-0.2,0-0.4,0s-0.3,0-0.4,0c-0.1,0-0.2,0-0.3-0.1c-0.1,0-0.1-0.1-0.1-0.1v-0.1v-8.8v-0.1l0.1-0.1c0.1,0,0.1-0.1,0.3-0.1c0.1,0,0.2,0,0.4,0s0.3,0,0.4,0s0.2,0,0.2,0.1c0.1,0,0.1,0.1,0.1,0.1v0.1v8.8C781.3,461.4,781.3,461.4,781.3,461.4z"/><path fill="#464445" d="M791.5,461.5l-0.1,0.1c-0.1,0-0.1,0-0.2,0s-0.2,0-0.4,0s-0.3,0-0.4,0c-0.1,0-0.2,0-0.3-0.1c-0.1,0-0.1,0-0.2-0.1l-0.1-0.1l-0.9-2.3c-0.1-0.3-0.2-0.5-0.4-0.8c-0.1-0.2-0.3-0.4-0.5-0.5s-0.4-0.2-0.6-0.3c-0.2-0.1-0.5-0.1-0.8-0.1h-0.7v4v0.1l-0.1,0.1c0,0-0.1,0-0.3,0s-0.2,0-0.4,0s-0.3,0-0.4,0c-0.1,0-0.2,0-0.3,0s-0.1,0-0.1-0.1v-0.1v-8.9v-0.1l0.1-0.1c0,0,0.1,0,0.3,0c0.1,0,0.2,0,0.4,0s0.3,0,0.4,0c0.1,0,0.2,0,0.3,0s0.1,0,0.1,0.1v0.1v3.7h0.7c0.2,0,0.5,0,0.7-0.1s0.4-0.2,0.6-0.3c0.2-0.1,0.3-0.3,0.5-0.5c0.1-0.2,0.3-0.4,0.4-0.7l0.8-2c0,0,0-0.1,0.1-0.1s0.1-0.1,0.1-0.1s0.1,0,0.3,0c0.1,0,0.2,0,0.4,0s0.3,0,0.4,0s0.2,0,0.2,0c0.1,0,0.1,0,0.1,0.1v0.1c0,0.1,0,0.1,0,0.2s0,0.1-0.1,0.2l-0.8,1.9c-0.1,0.3-0.3,0.6-0.4,0.8c-0.2,0.2-0.3,0.4-0.5,0.6c-0.2,0.1-0.3,0.3-0.5,0.3c-0.2,0.1-0.3,0.1-0.5,0.2l0,0c0.2,0.1,0.4,0.2,0.6,0.3c0.2,0.1,0.4,0.2,0.5,0.4c0.2,0.2,0.3,0.4,0.5,0.6c0.1,0.2,0.3,0.5,0.4,0.8l1,2.2c0,0,0,0.1,0.1,0.1s0,0.1,0,0.1v0.1C791.6,461.3,791.6,461.4,791.5,461.5C791.6,461.4,791.6,461.5,791.5,461.5z"/><path fill="#464445" d="M800.2,461.5c0,0-0.1,0.1-0.2,0.1s-0.2,0-0.4,0s-0.3,0-0.4,0s-0.2,0-0.2-0.1s-0.1-0.1-0.1-0.2v-0.9c-0.4,0.4-0.8,0.7-1.3,1c-0.5,0.2-1,0.3-1.5,0.3s-0.9-0.1-1.3-0.2c-0.4-0.1-0.7-0.3-1-0.5s-0.5-0.5-0.6-0.8s-0.2-0.7-0.2-1.1c0-0.5,0.1-0.9,0.3-1.3s0.5-0.7,0.9-0.9s0.8-0.4,1.4-0.5c0.5-0.1,1.2-0.2,1.8-0.2h1.2v-0.7c0-0.3,0-0.6-0.1-0.9s-0.2-0.5-0.4-0.6c-0.2-0.2-0.4-0.3-0.6-0.4c-0.3-0.1-0.6-0.1-0.9-0.1c-0.4,0-0.8,0-1.1,0.1s-0.6,0.2-0.8,0.3c-0.2,0.1-0.4,0.2-0.6,0.3c-0.2,0.1-0.3,0.1-0.4,0.1h-0.1l-0.1-0.1c0,0,0-0.1-0.1-0.2c0-0.1,0-0.2,0-0.3c0-0.2,0-0.3,0-0.4s0.1-0.2,0.2-0.3c0.1-0.1,0.2-0.2,0.5-0.3c0.2-0.1,0.5-0.2,0.7-0.3c0.3-0.1,0.6-0.2,0.9-0.2c0.3-0.1,0.7-0.1,1-0.1c0.6,0,1.2,0.1,1.6,0.2c0.4,0.1,0.8,0.4,1.1,0.6c0.3,0.3,0.5,0.6,0.6,1s0.2,0.9,0.2,1.4v5.9C800.3,461.4,800.3,461.5,800.2,461.5z M797.3,457.3c-0.4,0-0.8,0-1.2,0.1c-0.3,0.1-0.6,0.2-0.8,0.3c-0.2,0.2-0.4,0.3-0.5,0.5s-0.1,0.4-0.1,0.7c0,0.5,0.1,0.8,0.4,1.1c0.3,0.3,0.7,0.4,1.2,0.4c0.4,0,0.8-0.1,1.2-0.3c0.4-0.2,0.7-0.5,1.1-1v-1.9L797.3,457.3L797.3,457.3z"/><rect x="650.8" y="524" fill="#F03B4C" width="32" height="32"/><path fill="#FFFFFF" d="M670.5,539.3c-0.3,0.3-0.6,0.5-0.8,0.8c-1.2,1.3-2.4,2.5-3.6,3.7c-0.6,0.6-1.2,1.2-2,1.5c-0.4,0.2-0.8,0.3-1.3,0.2c-0.7-0.2-1.1-0.8-1.1-1.7c0.1-0.8,0.3-1.6,0.7-2.3c0.4-1.1,1-2.1,1.5-3.2c0.6-1.3,1.2-2.6,1.8-3.9c0.2-0.4,0.3-0.9,0.4-1.3c0-0.1,0-0.2,0-0.3l-0.1-0.1c-0.2,0.2-0.3,0.3-0.4,0.4c-0.6,0.8-1.2,1.7-1.8,2.5c-0.7,0.9-1.3,1.8-1.9,2.6c-0.3,0.3-0.7,0.7-1,0.9c-0.8,0.4-1.6,0.1-1.9-0.8c-0.2-0.7,0-1.2,0.3-1.8c0.4-0.9,0.9-1.8,1.4-2.6c0.2-0.4,0.4-0.9,0.4-1.4c0-0.3-0.2-0.6-0.4-0.8s-0.4-0.1-0.7,0c-0.5,0.2-0.8,0.6-1.2,1c-0.2,0.2-0.4,0.3-0.6,0.2c-0.2-0.2-0.3-0.4-0.2-0.7c0.4-0.7,1-1.2,1.7-1.5c0.8-0.3,1.5,0.1,2,0.8c0.4,0.6,0.4,1.2,0.2,1.8s-0.4,1.2-0.7,1.7c-0.3,0.7-0.7,1.4-1,2c-0.1,0.3-0.2,0.6-0.2,0.8c0,0.1,0.1,0.2,0.2,0.3c0.1,0.1,0.2-0.1,0.3-0.1c0.3-0.4,0.7-0.7,1-1.1c0.8-1.1,1.5-2.3,2.3-3.4c0.4-0.6,0.8-1.1,1.3-1.6c0.3-0.3,0.6-0.6,1.1-0.7c0.7-0.1,1.3,0.4,1.4,1.2c0.1,0.5,0,1-0.2,1.5c-0.4,1-0.8,2.1-1.2,3.1c-0.7,1.5-1.4,3.1-2.1,4.7c-0.2,0.6-0.4,1.2-0.6,1.8c-0.1,0.1,0,0.2-0.1,0.4c0.2-0.1,0.4-0.2,0.6-0.3c0.8-0.6,1.4-1.3,2.1-2c1-1.2,2.1-2.3,3.2-3.4c0.4-0.4,0.8-0.7,1.3-0.9c0.9-0.4,1.8,0.1,2,1c0.1,0.4,0.1,0.8-0.1,1.3c-0.2,1.1-0.7,2.1-1.2,3.1c-0.4,0.9-0.7,1.9-1.1,2.8c-0.1,0.2-0.1,0.5-0.2,0.8c0,0.1,0.1,0.2,0.2,0.2c0.2,0,0.4,0,0.7-0.1c0.7-0.3,1.2-0.7,1.7-1.2c0.4-0.3,0.7-0.7,1-1s0.6-0.3,0.8,0c0.2,0.2,0.4,0.4,0.7,0.7c0.2,0.2,0.2,0.5,0,0.7c-0.9,0.9-1.8,1.8-3,2.4c-0.8,0.4-1.6,0.7-2.5,0.3c-1.2-0.4-1.7-1.3-1.4-2.5c0.2-1,0.6-1.9,1-2.9c0.4-1.1,0.9-2.1,1.4-3.3C670.4,539.6,670.4,539.4,670.5,539.3C670.5,539.4,670.5,539.3,670.5,539.3z"/><path fill="#454545" d="M700.4,536.2h-1v-1l0,0c-0.4,0.8-1.1,1.1-2,1.1c-0.6,0-1.1-0.2-1.5-0.5c-0.3-0.3-0.5-0.8-0.5-1.4c0-1.2,0.7-1.9,2.1-2.1l1.9-0.3c0-1.1-0.4-1.6-1.3-1.6c-0.8,0-1.5,0.3-2.1,0.8v-1c0.2-0.2,0.5-0.3,0.9-0.4c0.4-0.1,0.9-0.2,1.2-0.2c1.5,0,2.2,0.8,2.2,2.4L700.4,536.2L700.4,536.2z M699.4,533l-1.5,0.3c-0.5,0.1-0.9,0.2-1.1,0.3c-0.2,0.2-0.3,0.4-0.3,0.9c0,0.3,0.1,0.6,0.3,0.8c0.3,0.2,0.5,0.3,0.9,0.3c0.5,0,0.9-0.2,1.3-0.5c0.3-0.3,0.5-0.8,0.5-1.4V533H699.4z"/><path fill="#454545" d="M707.6,536.2h-1v-2.9h-3.3v2.9h-1v-6.3h1v2.7h3.3v-2.7h1V536.2z"/><path fill="#454545" d="M713.2,530.7h-2.5v5.5h-1v-6.3h3.5V530.7L713.2,530.7z"/><path fill="#454545" d="M718.6,536.2h-0.9v-5.5h-1.5c-0.2,2-0.4,3.3-0.9,4.3c-0.4,0.9-0.9,1.4-1.7,1.4c-0.2,0-0.4,0-0.5-0.1v-0.9c0.2,0.1,0.3,0.1,0.5,0.1c0.9,0,1.5-1.9,1.8-5.6h3.3C718.6,529.8,718.6,536.2,718.6,536.2z"/><path fill="#454545" d="M726,536.2h-0.9v-5l-3.3,5h-1v-6.3h0.9v4.9l3.3-4.9h1V536.2L726,536.2z"/><path fill="#454545" d="M733.4,536.2h-0.9v-5l-3.3,5h-1v-6.3h0.9v4.9l3.3-4.9h1V536.2L733.4,536.2z M733,526.8c0,0.3-0.1,0.5-0.3,0.8c-0.1,0.3-0.3,0.4-0.4,0.6c-0.2,0.2-0.4,0.3-0.7,0.4c-0.3,0.1-0.5,0.2-0.9,0.2c-0.3,0-0.6-0.1-0.9-0.2c-0.3-0.1-0.5-0.3-0.7-0.3c-0.2-0.2-0.3-0.3-0.4-0.6c-0.1-0.3-0.2-0.5-0.2-0.8h1c0,0.2,0,0.3,0.1,0.4c0.1,0.2,0.1,0.3,0.2,0.3c0.1,0.1,0.2,0.2,0.3,0.3c0.2,0.1,0.3,0.1,0.5,0.1s0.3,0,0.5-0.1s0.3-0.2,0.3-0.3c0.1-0.1,0.2-0.3,0.3-0.3c0.1-0.2,0.1-0.3,0.1-0.4L733,526.8L733,526.8z"/><path fill="#454545" d="M739.7,535.9c-0.5,0.3-1.1,0.4-1.7,0.4c-0.6,0-1.1-0.2-1.5-0.4c-0.4-0.3-0.9-0.7-1.1-1.1c-0.3-0.5-0.4-1-0.4-1.6c0-1,0.3-1.9,0.9-2.6s1.4-0.9,2.4-0.9c0.5,0,1,0.1,1.5,0.3v1c-0.5-0.3-0.9-0.5-1.5-0.5c-0.7,0-1.2,0.3-1.6,0.7c-0.4,0.4-0.6,1.1-0.6,1.8c0,0.8,0.2,1.4,0.6,1.8c0.4,0.4,0.9,0.7,1.5,0.7c0.5,0,1.1-0.2,1.5-0.5L739.7,535.9L739.7,535.9z"/><path fill="#454545" d="M746.4,536.2H745l-2.8-3.1l0,0v3.1h-1v-6.3h1v2.9l0,0l2.7-2.9h1.4l-3,3.1L746.4,536.2z"/><path fill="#454545" d="M752.8,536.2h-0.9v-5l-3.3,5h-1v-6.3h0.9v4.9l3.3-4.9h1V536.2L752.8,536.2z"/><path fill="#454545" d="M760.2,536.2h-0.9v-5l-3.3,5h-1v-6.3h0.9v4.9l3.3-4.9h1V536.2L760.2,536.2z M759.7,526.8c0,0.3-0.1,0.5-0.3,0.8c-0.1,0.3-0.3,0.4-0.4,0.6c-0.1,0.2-0.4,0.3-0.7,0.4c-0.3,0.1-0.5,0.2-0.9,0.2s-0.6-0.1-0.9-0.2c-0.3-0.1-0.5-0.3-0.7-0.3c-0.2-0.2-0.3-0.3-0.4-0.6c-0.1-0.3-0.2-0.5-0.2-0.8h1c0,0.2,0,0.3,0.1,0.4c0.1,0.1,0.1,0.3,0.2,0.3c0.1,0.1,0.3,0.2,0.3,0.3c0.2,0.1,0.3,0.1,0.5,0.1s0.3,0,0.5-0.1s0.3-0.2,0.3-0.3s0.2-0.3,0.3-0.3c0.1-0.2,0.1-0.3,0.1-0.4L759.7,526.8L759.7,526.8z"/><path fill="#454545" d="M701.6,547.2c0,0.6-0.1,1.2-0.3,1.7c-0.3,0.5-0.6,0.9-1,1.1c-0.4,0.3-0.9,0.4-1.5,0.4c-0.9,0-1.7-0.3-2.2-1s-0.8-1.7-0.8-3c0-2.6,0.6-4.1,1.9-4.7c0.3-0.1,0.5-0.2,0.8-0.3s0.6-0.2,0.9-0.2c0.3-0.1,0.6-0.1,0.9-0.2c0.3-0.1,0.6-0.2,0.8-0.3v0.9c-0.2,0.1-0.4,0.2-0.7,0.3s-0.5,0.1-0.9,0.2c-0.3,0.1-0.5,0.1-0.9,0.2c-0.3,0.1-0.5,0.2-0.7,0.3c-0.7,0.3-1,1.2-1.1,2.7l0,0c0.3-0.3,0.5-0.6,0.9-0.8s0.8-0.3,1.2-0.3c0.5,0,1,0.2,1.5,0.4c0.4,0.3,0.8,0.6,1,1.1C701.5,546,701.6,546.6,701.6,547.2z M700.6,547.2c0-0.8-0.2-1.3-0.5-1.7s-0.9-0.7-1.5-0.7c-0.9,0-1.5,0.4-2,1.2v0.6c0,0.9,0.2,1.5,0.5,2.1c0.3,0.5,0.9,0.8,1.5,0.8s1-0.2,1.4-0.6C700.4,548.4,700.6,547.9,700.6,547.2z"/><path fill="#454545" d="M708.2,547.3h-4.5c0,0.7,0.2,1.3,0.6,1.6c0.3,0.3,0.9,0.6,1.5,0.6s1.4-0.3,2-0.7v0.9c-0.5,0.4-1.3,0.6-2.2,0.6s-1.6-0.3-2.1-0.9c-0.5-0.6-0.8-1.4-0.8-2.4c0-0.6,0.1-1.2,0.3-1.7c0.3-0.5,0.6-0.9,1-1.2s0.9-0.4,1.5-0.4c0.9,0,1.5,0.3,2,0.8c0.4,0.5,0.7,1.3,0.7,2.2V547.3L708.2,547.3z M707.2,546.5c0-0.6-0.2-1-0.4-1.4c-0.3-0.3-0.7-0.5-1.2-0.5s-0.9,0.2-1.2,0.5s-0.5,0.8-0.6,1.4H707.2L707.2,546.5z"/><path fill="#454545" d="M713.8,548.5c0,0.6-0.3,1-0.7,1.4c-0.5,0.3-1.1,0.5-1.9,0.5c-0.9,0-1.5-0.1-2-0.3v-1c0.5,0.3,1.2,0.4,2,0.4c1.1,0,1.7-0.3,1.7-1s-0.6-1-1.9-1h-0.6v-0.9h0.6c1.1,0,1.6-0.3,1.6-1c0-0.3-0.1-0.5-0.3-0.7s-0.6-0.3-1-0.3c-0.6,0-1.2,0.2-1.9,0.4v-0.9c0.7-0.3,1.4-0.4,2-0.4c1.5,0,2.3,0.6,2.3,1.7c0,0.3-0.1,0.7-0.3,0.9c-0.3,0.3-0.5,0.4-0.9,0.5l0,0c0.5,0,0.9,0.2,1.1,0.5C713.6,547.8,713.8,548.1,713.8,548.5z"/><path fill="#454545" d="M724.2,546.9c0,1.1-0.3,2-0.8,2.6s-1.2,0.9-2.1,0.9c-0.9,0-1.5-0.3-1.9-1l0,0v3.9h-1V544h1v1.1l0,0c0.5-0.9,1.2-1.3,2.2-1.3c0.8,0,1.5,0.3,1.9,0.9C723.9,545.1,724.2,545.9,724.2,546.9z M723.1,546.8c0-0.7-0.2-1.2-0.5-1.6c-0.3-0.4-0.8-0.6-1.4-0.6c-0.6,0-1,0.2-1.5,0.6c-0.4,0.4-0.5,0.9-0.5,1.5v0.9c0,0.5,0.2,0.9,0.5,1.4c0.3,0.3,0.8,0.5,1.3,0.5c0.6,0,1.1-0.3,1.5-0.7C723,548.4,723.1,547.7,723.1,546.8z"/><path fill="#454545" d="M730.8,547.3h-4.5c0,0.7,0.2,1.3,0.6,1.6c0.3,0.3,0.9,0.6,1.5,0.6s1.4-0.3,2-0.7v0.9c-0.5,0.4-1.3,0.6-2.2,0.6s-1.6-0.3-2.1-0.9c-0.5-0.6-0.8-1.4-0.8-2.4c0-0.6,0.1-1.2,0.3-1.7c0.3-0.5,0.6-0.9,1-1.2s0.9-0.4,1.5-0.4c0.9,0,1.5,0.3,2,0.8s0.7,1.3,0.7,2.2V547.3L730.8,547.3z M729.7,546.5c0-0.6-0.2-1-0.4-1.4c-0.3-0.3-0.7-0.5-1.2-0.5s-0.9,0.2-1.2,0.5s-0.5,0.8-0.6,1.4H729.7L729.7,546.5z"/><path fill="#454545" d="M735.7,544.8h-2.5v5.5h-1V544h3.5V544.8L735.7,544.8z"/><path fill="#454545" d="M742.3,550.2h-0.9v-5l-3.3,5h-1v-6.3h0.9v4.9l3.3-4.9h1V550.2L742.3,550.2z"/><path fill="#454545" d="M748.7,550c-0.5,0.3-1.1,0.4-1.7,0.4c-0.6,0-1.1-0.2-1.5-0.4c-0.4-0.3-0.9-0.7-1.1-1.1c-0.3-0.5-0.4-1-0.4-1.6c0-1,0.3-1.9,0.9-2.6c0.6-0.6,1.4-0.9,2.4-0.9c0.5,0,1,0.1,1.5,0.3v1c-0.5-0.3-0.9-0.5-1.5-0.5c-0.7,0-1.2,0.3-1.6,0.7c-0.4,0.4-0.6,1.1-0.6,1.8c0,0.8,0.2,1.4,0.6,1.8c0.4,0.4,0.9,0.7,1.5,0.7c0.5,0,1.1-0.2,1.5-0.5L748.7,550L748.7,550z"/><path fill="#454545" d="M754.2,544.8h-1.9v5.5h-1v-5.5h-1.9v-0.9h4.9L754.2,544.8L754.2,544.8z"/><path fill="#454545" d="M761.2,546.9c0,1.1-0.3,2-0.8,2.6s-1.2,0.9-2.1,0.9s-1.5-0.3-1.9-1l0,0v3.9h-1V544h1v1.1l0,0c0.5-0.9,1.2-1.3,2.2-1.3c0.8,0,1.5,0.3,1.9,0.9C760.9,545.1,761.2,545.9,761.2,546.9z M760.1,546.8c0-0.7-0.2-1.2-0.5-1.6c-0.3-0.4-0.8-0.6-1.4-0.6c-0.6,0-1,0.2-1.5,0.6c-0.3,0.4-0.5,0.9-0.5,1.5v0.9c0,0.5,0.2,0.9,0.5,1.4c0.3,0.3,0.8,0.5,1.3,0.5c0.6,0,1.1-0.3,1.5-0.7C759.9,548.4,760.1,547.7,760.1,546.8z"/><path fill="#454545" d="M767,550.2h-1v-1l0,0c-0.4,0.8-1.1,1.1-2,1.1c-0.6,0-1.1-0.2-1.5-0.5c-0.3-0.3-0.5-0.8-0.5-1.4c0-1.2,0.7-1.9,2.1-2.1l1.9-0.3c0-1.1-0.4-1.6-1.3-1.6c-0.8,0-1.5,0.3-2.1,0.8v-1c0.2-0.2,0.5-0.3,0.9-0.4c0.4-0.2,0.9-0.2,1.2-0.2c1.5,0,2.2,0.8,2.2,2.4L767,550.2L767,550.2z M766,547l-1.5,0.3c-0.5,0.1-0.9,0.2-1.1,0.3c-0.2,0.2-0.3,0.4-0.3,0.9c0,0.3,0.1,0.6,0.3,0.8s0.5,0.3,0.9,0.3c0.5,0,0.9-0.2,1.3-0.5c0.3-0.3,0.5-0.8,0.5-1.4L766,547L766,547z"/><path fill="#454545" d="M775.1,552.6h-0.9v-2.3h-5.3V544h1v5.5h3.3V544h1v5.5h0.9V552.6L775.1,552.6z"/><path fill="#454545" d="M781.8,550.2h-0.9v-5l-3.3,5h-1v-6.3h0.9v4.9l3.3-4.9h1V550.2L781.8,550.2z"/><path fill="#454545" d="M789.1,550.2h-0.9v-5l-3.3,5h-1v-6.3h0.9v4.9l3.3-4.9h1V550.2L789.1,550.2z"/></svg>