<svg version="1.1" xmlns="http://www.w3.org/2000/svg" x="0px" y="0px" width="1440px" height="810px" viewBox="0 0 1440 810" enable-background="new 0 0 1440 810"> 
	<path d="M536,154v656h368V154H536z M691.3,173.4h57.4v3.3h-57.4V173.4z M718.6,781.1l-12.1,2.7v-12.3l12.1-2.4V781.1z M718.6,766.2l-12.1,2.4v-11.8l12.1-2.7V766.2z M733.5,777.9l-12.1,2.7v-12l12.1-2.4V777.9z M733.5,763.3l-12.1,2.4v-12.1l12.1-2.7V763.3z M877.3,717.9H562.7V193.5h314.7v524.4H877.3z" /> 
	<rect fill="none" width="1440" height="810" /> 
	<rect x="562.3" y="193" fill="#F1F1F1" width="315.7" height="525" /> 
	<rect x="580" y="382.5" fill="#E74856" width="280" height="147" /> 
	<path fill="#FFFFFF" d="M717.5,466.2c-1.7,0.8-3.6,1.2-5.8,1.2c-2,0-3.8-0.5-5.4-1.4c-1.6-0.9-2.8-2.2-3.7-3.9c-0.9-1.7-1.3-3.6-1.3-5.7c0-2.3,0.5-4.3,1.4-6.1c0.9-1.8,2.2-3.2,3.9-4.2s3.6-1.5,5.8-1.5c1.9,0,3.6,0.3,5,0.9v2.2c-1.6-0.8-3.3-1.2-5.1-1.2s-3.4,0.4-4.7,1.2c-1.3,0.8-2.4,2-3.1,3.5c-0.7,1.5-1.1,3.2-1.1,5.1c0,1.8,0.3,3.4,1,4.8s1.7,2.5,2.9,3.3c1.3,0.8,2.7,1.2,4.4,1.2c2.1,0,4-0.4,5.6-1.3v1.9H717.5z" /> 
	<path fill="#FFFFFF" d="M725.9,453v14h-2v-14h-4.7v-1.7h11.4v1.7H725.9z" /> 
	<path fill="#FFFFFF" d="M742.6,467v-2.8h-0.1c-0.5,1-1.2,1.8-2.1,2.3c-0.9,0.6-1.9,0.8-3,0.8c-1.5,0-2.7-0.4-3.6-1.2s-1.3-1.9-1.3-3.3c0-2.9,1.8-4.5,5.3-5.1l4.8-0.7c0-3-1.2-4.5-3.5-4.5c-1.8,0-3.5,0.7-5.1,2v-2.2c0.6-0.5,1.4-0.8,2.4-1.1c1-0.3,1.9-0.4,2.9-0.4c1.8,0,3.1,0.5,4,1.5s1.3,2.5,1.3,4.4V467H742.6L742.6,467z M734.5,462.8c0,0.9,0.3,1.6,0.9,2.1c0.6,0.5,1.4,0.8,2.4,0.8c1.4,0,2.5-0.5,3.4-1.5s1.4-2.3,1.4-3.8v-1.6l-4.1,0.6c-1.5,0.2-2.6,0.6-3.2,1.1C734.8,461,734.5,461.7,734.5,462.8z" /> 
	<path fill="#FFFFFF" d="M753.9,453v14h-2v-14h-4.7v-1.7h11.4v1.7H753.9z" /> 
	<path fill="#FFFFFF" d="M773,462.2c0,1.4-0.5,2.6-1.4,3.5s-2.1,1.3-3.5,1.3h-6.5v-15.8h2v6.3h4.4c1.6,0,2.8,0.4,3.7,1.2C772.6,459.6,773,460.7,773,462.2z M771,462.2c0-0.9-0.3-1.6-0.9-2.2c-0.6-0.5-1.4-0.8-2.6-0.8h-4v6h4c1.1,0,1.9-0.3,2.5-0.8C770.7,464,771,463.2,771,462.2z" /> 
	<path fill="#FFFFFF" d="M787.7,467v-12.9l-0.4,0.7l-8.7,12.2h-1.8v-15.8h1.9V464c0.1-0.3,0.3-0.7,0.6-1.1l8.4-11.7h1.9V467H787.7L787.7,467z" /> 
	<path fill="#FFFFFF" d="M688.7,471.5c-0.5-0.8-3.8-6.7-0.1-10.4c0.3-0.3,0.4-0.8,0.2-1.3c-0.2-0.4-0.6-0.7-1.1-0.7h-36.1c-0.7,0-1.2,0.5-1.2,1.2v12c0,0.6,0.5,1.2,1.2,1.2h36.1l0,0c0.7,0,1.2-0.6,1.2-1.2C689,471.9,688.8,471.7,688.7,471.5z M652.4,471.2v-10.1h33.7c-0.7,1.4-1,2.8-1,4.2h-25.5c-0.5,0-0.8,0.4-0.8,0.8c0,0.5,0.4,0.8,0.8,0.8h25.6c0.2,1.6,0.8,3.1,1.3,4.2L652.4,471.2L652.4,471.2z" /> 
	<path fill="#FFFFFF" d="M656.9,456.1h11.2c0.3,0,0.5-0.2,0.5-0.5v-4.9h2.2v4.9c0,0.3,0.2,0.5,0.5,0.5h11.2c0.3,0,0.5-0.2,0.5-0.5v-7.1c0-0.1,0-0.2-0.1-0.2l-5.3-9.4c-0.1-0.2-0.3-0.3-0.5-0.2s-0.4,0.2-0.4,0.4l-0.3,1.7c0,0.1,0,0.2,0.1,0.4l3.7,6.8h-21l3.8-6.8c0.1-0.1,0.1-0.2,0.1-0.4l-0.4-1.7c0-0.2-0.2-0.4-0.4-0.4s-0.4,0.1-0.5,0.2l-5.3,9.4c0,0.1-0.1,0.2-0.1,0.2v7.1C656.4,455.9,656.6,456.1,656.9,456.1z M672.7,449.8h8.4v4.4h-8.4V449.8z M658.3,449.8h8.4v4.4h-8.4V449.8z" /> 
	<path fill="#363636" d="M671.6,296.5c-1.1,0.6-2.4,0.9-4.1,0.9c-1.4,0-2.6-0.3-3.6-0.9s-1.9-1.5-2.4-2.6c-0.6-1.1-0.9-2.4-0.9-3.8c0-1.5,0.3-2.8,1-4.1c0.6-1.2,1.5-2.1,2.7-2.8s2.4-1,3.9-1c1.4,0,2.5,0.2,3.5,0.6v1.8c-1.1-0.6-2.2-0.9-3.5-0.9c-1.1,0-2.1,0.3-3,0.8s-1.5,1.2-2,2.2s-0.7,2-0.7,3.3c0,1.2,0.2,2.2,0.7,3.1s1.1,1.6,1.9,2.1c0.8,0.5,1.7,0.7,2.8,0.7c1.5,0,2.7-0.3,3.8-1v1.6L671.6,296.5L671.6,296.5z" /> 
	<path fill="#363636" d="M683.9,291.8c0,1.7-0.5,3-1.4,4s-2.2,1.5-3.8,1.5s-2.8-0.5-3.7-1.5s-1.4-2.3-1.4-3.9c0-1.7,0.5-3.1,1.4-4.1c1-1,2.3-1.5,3.9-1.5c1.6,0,2.8,0.5,3.7,1.5C683.5,288.7,683.9,290.1,683.9,291.8z M682.2,291.8c0-1.3-0.3-2.3-0.9-3c-0.6-0.7-1.4-1.1-2.5-1.1s-1.9,0.4-2.6,1.1c-0.6,0.7-0.9,1.7-0.9,3.1c0,1.3,0.3,2.2,0.9,2.9c0.6,0.7,1.5,1.1,2.6,1.1s1.9-0.3,2.5-1S682.2,293.1,682.2,291.8z" /> 
	<path fill="#363636" d="M695.4,300.9H694v-3.8h-7.8v3.8h-1.4v-5.3h0.9c1.8-2.6,2.7-5.6,2.7-9.1h5.5v9.1h1.6L695.4,300.9L695.4,300.9z M692.2,295.6V288h-2.3c-0.2,2.8-1,5.4-2.4,7.6H692.2z" /> 
	<path fill="#363636" d="M706.1,292.2h-7.4c0,1.2,0.3,2.1,0.9,2.7c0.6,0.6,1.4,0.9,2.5,0.9c1.2,0,2.3-0.4,3.3-1.1v1.6c-0.9,0.7-2.1,1-3.7,1c-1.5,0-2.7-0.5-3.5-1.5s-1.3-2.3-1.3-4c0-1,0.2-2,0.6-2.8c0.4-0.9,1-1.5,1.7-2s1.6-0.7,2.5-0.7c1.4,0,2.4,0.4,3.2,1.3s1.1,2.1,1.1,3.7v0.9H706.1z M704.4,290.8c0-1-0.2-1.7-0.7-2.3c-0.5-0.5-1.1-0.8-1.9-0.8c-0.8,0-1.4,0.3-2,0.8s-0.9,1.3-1,2.2L704.4,290.8L704.4,290.8z" /> 
	<path fill="#363636" d="M718.2,291.5c0,1.8-0.4,3.2-1.3,4.2s-2,1.6-3.5,1.6c-1.4,0-2.4-0.6-3.1-1.8l0,0v6.3h-1.7v-15.3h1.7v1.8l0,0c0.8-1.4,2-2.1,3.6-2.1c1.3,0,2.4,0.5,3.1,1.4S718.2,289.9,718.2,291.5z M716.5,291.5c0-1.1-0.3-2-0.8-2.7s-1.3-1-2.2-1c-1,0-1.7,0.3-2.3,1s-0.9,1.5-0.9,2.6v1.5c0,0.9,0.3,1.6,0.9,2.2c0.6,0.6,1.3,0.9,2.1,0.9c1,0,1.8-0.4,2.4-1.2C716.2,293.9,716.5,292.9,716.5,291.5z" /> 
	<path fill="#363636" d="M734.4,297.1h-2.3l-4.7-5.2l0,0v5.2h-1.6v-5.2l0,0l-4.7,5.2h-2.2l5.2-5.4l-4.9-5.1h2.1l4.5,4.9l0,0v-4.9h1.6v4.9l0,0l4.5-4.9h2.2l-4.9,5.1L734.4,297.1z" /> 
	<path fill="#363636" d="M743.5,297.1h-1.7v-1.6l0,0c-0.7,1.3-1.8,1.9-3.2,1.9c-1,0-1.8-0.3-2.4-0.8c-0.6-0.5-0.9-1.3-0.9-2.2c0-2,1.2-3.1,3.5-3.4l3.1-0.4c0-1.8-0.7-2.7-2.2-2.7c-1.3,0-2.4,0.4-3.4,1.3v-1.7c0.3-0.2,0.8-0.5,1.6-0.7c0.7-0.2,1.4-0.3,2-0.3c2.5,0,3.7,1.3,3.7,3.9L743.5,297.1L743.5,297.1z M741.8,291.7l-2.5,0.4c-0.9,0.1-1.5,0.3-1.8,0.6s-0.5,0.8-0.5,1.4c0,0.5,0.2,0.9,0.6,1.3c0.4,0.3,0.9,0.5,1.4,0.5c0.8,0,1.5-0.3,2.1-0.9c0.5-0.6,0.8-1.3,0.8-2.2L741.8,291.7L741.8,291.7z" /> 
	<path fill="#363636" d="M755.4,297.1h-1.7v-4.8h-5.4v4.8h-1.7v-10.5h1.7v4.3h5.4v-4.3h1.7V297.1z" /> 
	<path fill="#363636" d="M767.6,297.1h-1.5v-8.4c-0.1,0.3-0.4,0.7-0.7,1.2l-4.8,7.1h-1.7v-10.5h1.5v8.3l0.6-1l5-7.3h1.7L767.6,297.1L767.6,297.1z" /> 
	<path fill="#363636" d="M779.4,292.2H772c0,1.2,0.3,2.1,0.9,2.7c0.6,0.6,1.4,0.9,2.5,0.9c1.2,0,2.3-0.4,3.3-1.1v1.6c-0.9,0.7-2.1,1-3.7,1c-1.5,0-2.7-0.5-3.5-1.5s-1.3-2.3-1.3-4c0-1,0.2-2,0.6-2.8c0.4-0.9,1-1.5,1.7-2s1.6-0.7,2.5-0.7c1.4,0,2.4,0.4,3.2,1.3s1.1,2.1,1.1,3.7v0.9H779.4z M777.6,290.8c0-1-0.2-1.7-0.7-2.3c-0.5-0.5-1.1-0.8-1.9-0.8c-0.8,0-1.4,0.3-2,0.8s-0.9,1.3-1,2.2L777.6,290.8L777.6,290.8z" /> 
	<rect x="580" y="552.5" fill="#744DA9" width="280" height="147" /> 
	<path fill="#FFFFFF" d="M710.8,616.7v20.2h-2v-20.2h-6.4v-1.9h14.8v1.9H710.8z" /> 
	<path fill="#FFFFFF" d="M718.2,629.3c0,1.9,0.5,3.5,1.5,4.6c0.9,1.1,2.3,1.6,3.9,1.6c1.8,0,3.5-0.6,5-1.9v1.9c-1.5,1.1-3.3,1.6-5.5,1.6s-3.9-0.7-5.1-2.2c-1.2-1.5-1.9-3.5-1.9-6.1c0-1.5,0.3-2.9,0.9-4.2c0.6-1.3,1.5-2.3,2.6-3s2.3-1.1,3.7-1.1c2,0,3.5,0.7,4.6,2s1.6,3.2,1.6,5.6v1L718.2,629.3L718.2,629.3z M727.5,627.6c0-1.6-0.4-2.9-1.2-3.8c-0.7-0.9-1.8-1.4-3.1-1.4s-2.5,0.5-3.3,1.4c-0.9,0.9-1.4,2.2-1.7,3.8H727.5L727.5,627.6z" /> 
	<path fill="#FFFFFF" d="M743.9,636.1c-1.2,0.7-2.6,1.1-4.2,1.1c-1.4,0-2.7-0.3-3.8-1s-2-1.6-2.6-2.8s-0.9-2.6-0.9-4.1c0-1.6,0.3-3.1,1-4.4c0.7-1.3,1.6-2.3,2.8-3.1c1.2-0.7,2.6-1.1,4.2-1.1c1.3,0,2.5,0.3,3.6,0.8v2.1c-1.2-0.8-2.4-1.1-3.7-1.1c-1.1,0-2.2,0.3-3.1,0.8c-0.9,0.6-1.6,1.4-2.1,2.4s-0.7,2.2-0.7,3.5c0,1.9,0.5,3.5,1.5,4.6c1,1.2,2.3,1.8,4,1.8c1.5,0,2.8-0.4,4-1.3V636.1L743.9,636.1z" /> 
	<path fill="#FFFFFF" d="M752.3,622.8v14h-2v-14h-4.7v-1.7H757v1.7H752.3L752.3,622.8z" /> 
	<path fill="#FFFFFF" d="M771.4,632c0,1.4-0.5,2.6-1.4,3.5s-2.1,1.3-3.5,1.3H760v-15.7h2v6.3h4.4c1.6,0,2.8,0.4,3.7,1.2C770.9,629.4,771.4,630.6,771.4,632z M769.3,632c0-0.9-0.3-1.6-0.9-2.2c-0.6-0.5-1.4-0.8-2.6-0.8h-4v6h4c1.1,0,1.9-0.3,2.5-0.8C769,633.8,769.3,633,769.3,632z M774.4,636.8V621h2v15.8H774.4z" /> 
	<path fill="#FFFFFF" d="M682.2,631.3c-2.4,1.9-4.3,4.2-6.3,6.4c-0.8-0.9-1.6-1.8-2.1-3c-0.6-1.3-2.7,0.6-2.2,1.8c0.7,1.6,1.9,2.9,3.1,4.1c0.5,0.5,1.3-0.1,1.7-0.5c2.2-2.5,4.2-5,6.8-7C684.4,632.1,683.6,630.1,682.2,631.3z" /> 
	<path fill="#FFFFFF" d="M689,609.5h-6c-0.4-0.5-1-0.8-1.7-0.8H679v-0.4c0-0.8-1.1-1.6-2.2-1.6c-1.1,0-2.2,0.8-2.2,1.6v0.4h-2.3c-0.7,0-1.3,0.3-1.7,0.8h-6c-0.6,0-1.1,0.5-1.1,1.1v33.5c0,0.6,0.5,1.1,1.1,1.1H689c0.6,0,1.1-0.5,1.1-1.1v-33.5C690.2,610,689.7,609.5,689,609.5z M687.9,643h-22v-31.2h3.3l0,0h1.1c0.3,0.9,1.2,1.6,2.2,1.6h4.5h4.5c1,0,1.8-0.7,2.2-1.6h1.1l0,0h3.3V643H687.9z" /> 
	<rect x="668" y="615.7" fill="#FFFFFF" width="17.7" height="1.8" /> 
	<rect x="668" y="619.6" fill="#FFFFFF" width="17.7" height="1.8" /> 
	<rect x="668" y="623.5" fill="#FFFFFF" width="17.7" height="1.8" /> 
	<rect x="668" y="627.4" fill="#FFFFFF" width="17.7" height="1.8" /> 
	<rect x="580" y="326" fill="#FFFFFF" width="280" height="30" /> 
	<path fill="#363636" d="M623.9,342.7c0,0.9-0.3,1.6-0.9,2.1c-0.6,0.5-1.3,0.8-2.3,0.8h-2.9v-9.8h5.2v1.1h-4v3.1h1.9c1,0,1.7,0.2,2.3,0.7C623.6,341.1,623.9,341.8,623.9,342.7z M622.7,342.7c0-1.2-0.7-1.8-2.1-1.8H619v3.6h1.6c0.7,0,1.2-0.2,1.6-0.5C622.5,343.8,622.7,343.3,622.7,342.7z" /> 
	<path fill="#363636" d="M631,343.4c0,0.6-0.2,1.2-0.6,1.6s-1,0.6-1.6,0.6h-3.1v-7h1.1v2.7h1.9c0.7,0,1.3,0.2,1.7,0.6S631,342.7,631,343.4z M629.9,343.4c0-0.8-0.5-1.2-1.4-1.2h-1.7v2.4h1.7C629.4,344.6,629.9,344.2,629.9,343.4z M633.3,345.6h-1.1v-7h1.1V345.6z" /> 
	<path fill="#363636" d="M640.3,345.3c-0.5,0.3-1.2,0.5-1.9,0.5c-0.6,0-1.2-0.1-1.7-0.4s-0.9-0.7-1.2-1.2s-0.4-1.1-0.4-1.8c0-1.2,0.3-2.1,1-2.8s1.5-1.1,2.6-1.1c0.6,0,1.2,0.1,1.6,0.4v1.1c-0.5-0.4-1.1-0.5-1.7-0.5c-0.7,0-1.3,0.3-1.8,0.8s-0.7,1.2-0.7,2s0.2,1.5,0.6,1.9s1,0.7,1.7,0.7c0.6,0,1.2-0.2,1.7-0.6v1H640.3z" /> 
	<path fill="#363636" d="M646.4,339.5h-2.1v6h-1.1v-6h-2.1v-1h5.3L646.4,339.5L646.4,339.5z" /> 
	<path fill="#363636" d="M654.2,341.9c0,1.2-0.3,2.1-0.9,2.8c-0.6,0.7-1.4,1.1-2.3,1.1c-0.9,0-1.6-0.4-2.1-1.2l0,0v4.2h-1.1v-10.2h1.1v1.2l0,0c0.6-0.9,1.4-1.4,2.4-1.4c0.9,0,1.6,0.3,2.1,0.9S654.2,340.8,654.2,341.9z M653.1,341.9c0-0.8-0.2-1.4-0.5-1.8s-0.8-0.7-1.5-0.7c-0.6,0-1.2,0.2-1.6,0.7c-0.4,0.4-0.6,1-0.6,1.7v1c0,0.6,0.2,1.1,0.6,1.5c0.4,0.4,0.9,0.6,1.4,0.6c0.7,0,1.2-0.3,1.6-0.8C652.9,343.5,653.1,342.8,653.1,341.9z" /> 
	<path fill="#363636" d="M661.3,343.4c0,0.6-0.2,1.2-0.6,1.6s-1,0.6-1.6,0.6H656v-7h1.1v2.7h1.9c0.7,0,1.3,0.2,1.7,0.6S661.3,342.7,661.3,343.4z M660.1,343.4c0-0.8-0.5-1.2-1.4-1.2H657v2.4h1.7C659.7,344.6,660.1,344.2,660.1,343.4z M663.6,345.6h-1.1v-7h1.1V345.6z" /> 
	<path fill="#363636" d="M671.7,345.6h-1V340c-0.1,0.2-0.2,0.4-0.5,0.8l-3.2,4.8h-1.2v-7h1v5.5l0.4-0.7l3.3-4.8h1.2V345.6z M671.3,335.2c0,0.3-0.1,0.6-0.2,0.8s-0.3,0.5-0.5,0.7s-0.5,0.3-0.8,0.4s-0.6,0.2-1,0.2s-0.7,0-1-0.1s-0.5-0.2-0.7-0.4c-0.2-0.2-0.4-0.4-0.5-0.7c-0.1-0.3-0.2-0.5-0.2-0.9h1.1c0,0.2,0,0.3,0.1,0.5s0.1,0.3,0.2,0.4s0.2,0.2,0.4,0.3c0.2,0.1,0.4,0.1,0.6,0.1c0.2,0,0.4,0,0.5-0.1s0.3-0.2,0.4-0.3s0.2-0.3,0.3-0.4s0.1-0.3,0.1-0.5H671.3z" /> 
	<path fill="#363636" d="M683.1,345.6H682v-6h-3.6v6h-1.1v-7h5.8L683.1,345.6L683.1,345.6z" /> 
	<path fill="#363636" d="M690.9,342.4H686c0,0.8,0.2,1.4,0.6,1.8c0.4,0.4,1,0.6,1.7,0.6c0.8,0,1.5-0.3,2.2-0.8v1c-0.6,0.5-1.4,0.7-2.4,0.7s-1.8-0.3-2.3-1s-0.8-1.5-0.8-2.7c0-0.7,0.1-1.3,0.4-1.9s0.7-1,1.2-1.3s1-0.5,1.6-0.5c0.9,0,1.6,0.3,2.1,0.9s0.8,1.4,0.8,2.5v0.7L690.9,342.4L690.9,342.4z M689.8,341.4c0-0.6-0.2-1.1-0.5-1.5s-0.7-0.5-1.3-0.5c-0.5,0-1,0.2-1.3,0.6s-0.6,0.9-0.7,1.5h3.8V341.4z" /> 
	<path fill="#363636" d="M699,341.9c0,1.2-0.3,2.1-0.9,2.8c-0.6,0.7-1.4,1.1-2.3,1.1c-0.9,0-1.6-0.4-2.1-1.2l0,0v4.2h-1.1v-10.2h1.1v1.2l0,0c0.6-0.9,1.4-1.4,2.4-1.4c0.9,0,1.6,0.3,2.1,0.9S699,340.8,699,341.9z M697.8,341.9c0-0.8-0.2-1.4-0.5-1.8s-0.8-0.7-1.5-0.7c-0.6,0-1.2,0.2-1.6,0.7c-0.4,0.4-0.6,1-0.6,1.7v1c0,0.6,0.2,1.1,0.6,1.5c0.4,0.4,0.9,0.6,1.4,0.6c0.7,0,1.2-0.3,1.6-0.8C697.7,343.5,697.8,342.8,697.8,341.9z" /> 
	<path fill="#363636" d="M706.3,342.4h-4.9c0,0.8,0.2,1.4,0.6,1.8c0.4,0.4,1,0.6,1.7,0.6c0.8,0,1.5-0.3,2.2-0.8v1c-0.6,0.5-1.4,0.7-2.4,0.7s-1.8-0.3-2.3-1s-0.8-1.5-0.8-2.7c0-0.7,0.1-1.3,0.4-1.9s0.7-1,1.2-1.3s1-0.5,1.6-0.5c0.9,0,1.6,0.3,2.1,0.9s0.8,1.4,0.8,2.5v0.7L706.3,342.4L706.3,342.4z M705.2,341.4c0-0.6-0.2-1.1-0.5-1.5s-0.7-0.5-1.3-0.5c-0.5,0-1,0.2-1.3,0.6s-0.6,0.9-0.7,1.5h3.8V341.4z" /> 
	<path fill="#363636" d="M713,338.6l-2.4,3.5l2.3,3.5h-1.3l-1.4-2.3l-0.3-0.5l0,0l-1.7,2.8H707l2.4-3.4l-2.3-3.6h1.3c1,1.7,1.5,2.7,1.7,2.9l0,0l1.8-2.9H713z" /> 
	<path fill="#363636" d="M720.6,342.1c0,1.1-0.3,2-0.9,2.7c-0.6,0.7-1.5,1-2.5,1s-1.9-0.3-2.5-1s-0.9-1.5-0.9-2.6c0-1.2,0.3-2.1,1-2.7c0.6-0.7,1.5-1,2.6-1c1,0,1.9,0.3,2.4,1S720.6,340.9,720.6,342.1z M719.5,342.1c0-0.9-0.2-1.6-0.6-2s-0.9-0.7-1.7-0.7c-0.7,0-1.3,0.2-1.7,0.7s-0.6,1.2-0.6,2s0.2,1.5,0.6,2c0.4,0.5,1,0.7,1.7,0.7s1.3-0.2,1.7-0.7C719.3,343.6,719.5,343,719.5,342.1z" /> 
	<path fill="#363636" d="M728.3,348.1h-1v-2.5h-5.2v2.5h-1v-3.5h0.6c1.2-1.7,1.8-3.7,1.8-6h3.6v6h1v3.5H728.3z M726.1,344.6v-5.1h-1.6c-0.1,1.9-0.7,3.6-1.6,5.1H726.1z" /> 
	<path fill="#363636" d="M738.9,345.6h-1.6l-3.1-3.3l0,0v3.3h-1.1v-7h1.1v3.2l0,0l2.9-3.2h1.5l-3.3,3.4L738.9,345.6z" /> 
	<path fill="#363636" d="M748,345.3c-0.5,0.3-1.2,0.5-1.9,0.5c-0.6,0-1.2-0.1-1.7-0.4s-0.9-0.7-1.2-1.2s-0.4-1.1-0.4-1.8c0-1.2,0.3-2.1,1-2.8s1.5-1.1,2.6-1.1c0.6,0,1.2,0.1,1.6,0.4v1.1c-0.5-0.4-1.1-0.5-1.7-0.5c-0.7,0-1.3,0.3-1.8,0.8s-0.7,1.2-0.7,2s0.2,1.5,0.6,1.9s1,0.7,1.7,0.7c0.6,0,1.2-0.2,1.7-0.6v1H748z" /> 
	<path fill="#363636" d="M754.1,339.5H752v6h-1.1v-6h-2.1v-1h5.3L754.1,339.5L754.1,339.5z" /> 
	<path fill="#363636" d="M761.9,341.9c0,1.2-0.3,2.1-0.9,2.8c-0.6,0.7-1.4,1.1-2.3,1.1c-0.9,0-1.6-0.4-2.1-1.2l0,0v4.2h-1.1v-10.2h1.1v1.2l0,0c0.6-0.9,1.4-1.4,2.4-1.4c0.9,0,1.6,0.3,2.1,0.9S761.9,340.8,761.9,341.9z M760.7,341.9c0-0.8-0.2-1.4-0.5-1.8s-0.8-0.7-1.5-0.7c-0.6,0-1.2,0.2-1.6,0.7c-0.4,0.4-0.6,1-0.6,1.7v1c0,0.6,0.2,1.1,0.6,1.5c0.4,0.4,0.9,0.6,1.4,0.6c0.7,0,1.2-0.3,1.6-0.8C760.5,343.5,760.7,342.8,760.7,341.9z" /> 
	<path fill="#363636" d="M768.4,345.6h-1.1v-1.1l0,0c-0.5,0.8-1.2,1.3-2.2,1.3c-0.7,0-1.2-0.2-1.6-0.6c-0.4-0.4-0.6-0.9-0.6-1.5c0-1.3,0.8-2.1,2.3-2.3l2.1-0.3c0-1.2-0.5-1.8-1.4-1.8c-0.8,0-1.6,0.3-2.3,0.9v-1.1c0.2-0.2,0.6-0.3,1.1-0.4s0.9-0.2,1.3-0.2c1.6,0,2.5,0.9,2.5,2.6L768.4,345.6L768.4,345.6z M767.3,342.1l-1.7,0.2c-0.6,0.1-1,0.2-1.2,0.4s-0.3,0.5-0.3,0.9s0.1,0.6,0.4,0.8c0.3,0.2,0.6,0.3,1,0.3c0.6,0,1-0.2,1.4-0.6s0.5-0.9,0.5-1.5v-0.5L767.3,342.1L767.3,342.1z" /> 
	<path fill="#363636" d="M776.3,345.6h-1.1v-3.2h-3.6v3.2h-1.1v-7h1.1v2.9h3.6v-2.9h1.1V345.6z" /> 
	<path fill="#363636" d="M784.4,345.6h-1V340c-0.1,0.2-0.2,0.4-0.5,0.8l-3.2,4.8h-1.2v-7h1v5.5l0.4-0.7l3.3-4.8h1.2V345.6z" /> 
	<path fill="#363636" d="M793.5,348.1h-1v-2.5h-5.9v-7h1.1v6h3.6v-6h1.1v6h1v3.5H793.5z" /> 
	<path fill="#363636" d="M800.1,345.6H799v-1.1l0,0c-0.5,0.8-1.2,1.3-2.2,1.3c-0.7,0-1.2-0.2-1.6-0.6c-0.4-0.4-0.6-0.9-0.6-1.5c0-1.3,0.8-2.1,2.3-2.3l2.1-0.3c0-1.2-0.5-1.8-1.4-1.8c-0.8,0-1.6,0.3-2.3,0.9v-1.1c0.2-0.2,0.6-0.3,1.1-0.4s0.9-0.2,1.3-0.2c1.6,0,2.5,0.9,2.5,2.6L800.1,345.6L800.1,345.6z M798.9,342.1l-1.7,0.2c-0.6,0.1-1,0.2-1.2,0.4s-0.3,0.5-0.3,0.9s0.1,0.6,0.4,0.8c0.3,0.2,0.6,0.3,1,0.3c0.6,0,1-0.2,1.4-0.6s0.5-0.9,0.5-1.5v-0.5L798.9,342.1L798.9,342.1z" /> 
	<path fill="#363636" d="M809.7,345.6h-1.1v-5.8l-0.5,1.3l-1.8,4.5h-1l-1.8-4.5c-0.1-0.3-0.3-0.7-0.5-1.3v5.8h-1v-7h1.4l1.8,4.6c0.1,0.3,0.3,0.8,0.5,1.4l0.5-1.4l1.8-4.6h1.5v7H809.7z" /> 
	<path fill="#363636" d="M813.3,345c0,0.2-0.1,0.4-0.2,0.5c-0.1,0.1-0.3,0.2-0.5,0.2s-0.4-0.1-0.5-0.2s-0.2-0.3-0.2-0.5s0.1-0.4,0.2-0.5c0.1-0.2,0.3-0.2,0.5-0.2s0.4,0.1,0.5,0.2C813.2,344.6,813.3,344.8,813.3,345z M816.8,345c0,0.2-0.1,0.4-0.2,0.5c-0.1,0.1-0.3,0.2-0.5,0.2s-0.4-0.1-0.5-0.2s-0.2-0.3-0.2-0.5s0.1-0.4,0.2-0.5c0.1-0.2,0.3-0.2,0.5-0.2s0.4,0.1,0.5,0.2C816.7,344.6,816.8,344.8,816.8,345z M820.2,345c0,0.2-0.1,0.4-0.2,0.5c-0.1,0.1-0.3,0.2-0.5,0.2s-0.4-0.1-0.5-0.2s-0.2-0.3-0.2-0.5s0.1-0.4,0.2-0.5c0.1-0.2,0.3-0.2,0.5-0.2s0.4,0.1,0.5,0.2S820.2,344.8,820.2,345z" /> 
	<path fill="#565656" d="M842.4,339.4l0.4-0.4l3.1,3.1l3.1-3.1l0.4,0.4L846,343L842.4,339.4z" /> 
	<path fill="#848484" d="M591,336.5v-3h3v3H591z M591,340.5v-3h3v3H591z M591,344.5v-3h3v3H591z M591,348.5v-3h3v3H591z M592,334.5v1h1v-1H592z M592,338.5v1h1v-1H592z M592,342.5v1h1v-1H592z M592,346.5v1h1v-1H592z M596,334.5h11v1h-11V334.5z M596,339.5v-1h9v1H596z M603,342.5v1h-7v-1H603z M596,347.5v-1h9v1H596z" /> 
	<rect x="610.3" y="193" fill="#E3E3E3" width="48" height="48" /> 
	<path fill="#848484" d="M626.3,215.7c0.2,0,0.4,0,0.5,0.1c0.2,0.1,0.3,0.2,0.4,0.3c0.1,0.1,0.2,0.3,0.3,0.4c0.1,0.2,0.1,0.3,0.1,0.5s0,0.4-0.1,0.5s-0.2,0.3-0.3,0.4s-0.3,0.2-0.4,0.3c-0.2,0.1-0.3,0.1-0.5,0.1s-0.4,0-0.5-0.1c-0.2-0.1-0.3-0.2-0.4-0.3c-0.1-0.1-0.2-0.3-0.3-0.4s-0.1-0.3-0.1-0.5s0-0.4,0.1-0.5c0.1-0.2,0.2-0.3,0.3-0.4c0.1-0.1,0.3-0.2,0.4-0.3C626,215.7,626.2,215.7,626.3,215.7z M634.3,215.7c0.2,0,0.4,0,0.5,0.1c0.2,0.1,0.3,0.2,0.4,0.3c0.1,0.1,0.2,0.3,0.3,0.4c0.1,0.2,0.1,0.3,0.1,0.5s0,0.4-0.1,0.5c-0.1,0.2-0.2,0.3-0.3,0.4c-0.1,0.1-0.3,0.2-0.4,0.3c-0.2,0.1-0.3,0.1-0.5,0.1s-0.4,0-0.5-0.1c-0.2-0.1-0.3-0.2-0.4-0.3c-0.1-0.1-0.2-0.3-0.3-0.4c-0.1-0.2-0.1-0.3-0.1-0.5s0-0.4,0.1-0.5c0.1-0.2,0.2-0.3,0.3-0.4c0.1-0.1,0.3-0.2,0.4-0.3C634,215.7,634.2,215.7,634.3,215.7z M642.3,215.7c0.2,0,0.4,0,0.5,0.1c0.2,0.1,0.3,0.2,0.4,0.3c0.1,0.1,0.2,0.3,0.3,0.4c0.1,0.2,0.1,0.3,0.1,0.5s0,0.4-0.1,0.5c-0.1,0.2-0.2,0.3-0.3,0.4c-0.1,0.1-0.3,0.2-0.4,0.3c-0.2,0.1-0.3,0.1-0.5,0.1s-0.4,0-0.5-0.1c-0.2-0.1-0.3-0.2-0.4-0.3c-0.1-0.1-0.2-0.3-0.3-0.4c-0.1-0.2-0.1-0.3-0.1-0.5s0-0.4,0.1-0.5c0.1-0.2,0.2-0.3,0.3-0.4c0.1-0.1,0.3-0.2,0.4-0.3C642,215.7,642.2,215.7,642.3,215.7z" /> 
	<rect x="562.3" y="193" fill="#E3E3E3" width="48" height="48" /> 
	<path fill="#848484" d="M575.7,212.3V211H597v1.3H575.7z M575.7,217.7v-1.3H597v1.3H575.7z M575.7,223v-1.3H597v1.3H575.7z" /></svg> 
