<svg version="1.1" xmlns="http://www.w3.org/2000/svg" x="0px" y="0px" width="1440px" height="810px" viewBox="0 0 1440 810" enable-background="new 0 0 1440 810"> 
	<path d="M1204.3,778.7h-57.7c5-7,8-15.5,8-24.8v-497c0-23.6-19.2-42.8-42.9-42.8h-784c-23.6,0-42.8,19.2-42.8,42.8v497c0,9.4,3.2,18.1,8.4,25.2H235c0,0-2.6,2.7,4.3,9.6c19.6,19.6,63.5,21.3,63.5,21.3v-0.1c0,0,823.6,0.2,824.5,0.1c45.9,0,60.7-13.8,72.9-21.8C1209.1,779.2,1204.3,778.7,1204.3,778.7z M774.8,789.1H664.4v-7.5h110.3L774.8,789.1L774.8,789.1z M1123,744H315.2V242.9H1123V744z" /> 
	<rect x="315.2" y="242.9" fill="#3E3E40" width="807.8" height="501.1" /> 
	<rect fill="none" width="1440" height="810" /> 
	<path fill="#FFFFFF" d="M411.9,442.3L411.9,442.3l-0.1,2.6h-7v-33.4h7v14.2h0.1c1.7-2.6,4.1-4,7.3-4c2.9,0,5.2,1,6.7,3s2.4,4.7,2.4,8.2c0,3.8-0.9,6.8-2.7,9s-4.3,3.4-7.3,3.4C415.5,445.5,413.3,444.4,411.9,442.3z M411.7,432.8v2.4c0,1.4,0.4,2.6,1.2,3.6c0.8,0.9,1.9,1.4,3.2,1.4c1.6,0,2.8-0.7,3.7-1.9c0.8-1.2,1.3-3,1.3-5.2c0-1.9-0.4-3.3-1.2-4.4c-0.8-1.1-2-1.6-3.4-1.6s-2.5,0.6-3.5,1.6C412.1,429.6,411.7,431.1,411.7,432.8z" /> 
	<path fill="#FFFFFF" d="M453.1,435.6h-14.8c0.3,3.3,2.3,4.9,6.2,4.9c2.4,0,4.7-0.6,6.6-1.8v5c-2.1,1.1-4.8,1.7-8.1,1.7c-3.7,0-6.5-1-8.5-3s-3-4.8-3-8.5c0-3.8,1.1-6.7,3.3-8.9c2.2-2.3,4.9-3.3,8-3.3c3.3,0,5.8,0.9,7.6,2.9c1.8,2,2.7,4.6,2.7,8L453.1,435.6L453.1,435.6z M446.7,431.3c0-3.2-1.3-4.9-4-4.9c-1.1,0-2.1,0.5-2.9,1.4s-1.3,2.1-1.5,3.5H446.7z" /> 
	<path fill="#FFFFFF" d="M484.6,413.3l-15.1,36.9h-3.4l15.1-36.9H484.6z" /> 
	<path fill="#FFFFFF" d="M504.1,441.7L504.1,441.7L504,445h-3.6v-33.5h3.6v14.9h0.1c1.8-3,4.4-4.5,7.8-4.5c2.9,0,5.2,1,6.8,3c1.6,2,2.4,4.7,2.4,8.1c0,3.8-0.9,6.8-2.7,9s-4.3,3.4-7.5,3.4C507.9,445.5,505.6,444.1,504.1,441.7z M504,432.6v3.2c0,1.9,0.6,3.5,1.8,4.8c1.2,1.3,2.7,2,4.6,2c2.2,0,4-0.8,5.2-2.5c1.2-1.7,1.9-4,1.9-7c0-2.5-0.6-4.5-1.8-5.9S513,425,511,425c-2.1,0-3.8,0.8-5.1,2.2C504.6,428.5,504,430.3,504,432.6z" /> 
	<path fill="#FFFFFF" d="M528.7,416.6c-0.7,0-1.2-0.2-1.7-0.7s-0.7-1-0.7-1.7s0.2-1.2,0.7-1.7s1-0.7,1.7-0.7s1.2,0.2,1.7,0.7s0.7,1,0.7,1.7s-0.2,1.2-0.7,1.7C530,416.4,529.4,416.6,528.7,416.6z M530.5,444.9H527v-22.6h3.6L530.5,444.9L530.5,444.9z" /> 
	<path fill="#FFFFFF" d="M542.8,421.6l-2,4.5h-0.6l-2-4.5H542.8z M542.7,444.9h-4.5l2-4.5h0.6L542.7,444.9z" /> 
	<path fill="#FFFFFF" d="M577,413.3l-15.1,36.9h-3.4l15.1-36.9H577z" /> 
	<path fill="#FFFFFF" d="M437.6,490.1l-6.5,22.6h-7.3l-3.3-13.3c-0.2-0.8-0.4-1.9-0.4-2.9H420c-0.1,1.1-0.3,2.1-0.5,2.8l-3.6,13.4h-7.2l-6.4-22.6h7.1l3.1,14.8c0.2,0.7,0.3,1.5,0.4,2.5h0.1c0.1-1,0.2-1.9,0.4-2.6l3.9-14.7h6.7l3.5,14.8c0.1,0.4,0.2,1.2,0.3,2.5h0.2c0.1-0.8,0.2-1.7,0.4-2.5l2.9-14.8L437.6,490.1L437.6,490.1z" /> 
	<path fill="#FFFFFF" d="M459.7,512.6h-6.6v-3.2H453c-1.5,2.5-3.8,3.8-6.7,3.8c-2.2,0-4-0.7-5.2-1.9c-1.2-1.2-1.9-2.9-1.9-5c0-4.4,2.6-6.9,7.8-7.6l6.1-0.8c0-2.4-1.3-3.7-4-3.7s-5.3,0.8-7.7,2.4v-5.2c0.9-0.5,2.3-0.9,4-1.3s3.2-0.6,4.6-0.6c6.4,0,9.7,3.2,9.7,9.6L459.7,512.6L459.7,512.6z M453.1,503.5V502l-4.1,0.6c-2.3,0.3-3.4,1.3-3.4,3.1c0,0.8,0.3,1.4,0.8,2c0.6,0.6,1.3,0.8,2.3,0.8c1.3,0,2.4-0.5,3.2-1.3C452.7,506.2,453.1,504.8,453.1,503.5z" /> 
	<path fill="#FFFFFF" d="M463.7,512.1v-5.6c1.1,0.7,2.3,1.2,3.4,1.5s2.3,0.5,3.2,0.5c1.2,0,2.2-0.2,2.9-0.5s1-0.8,1-1.5c0-0.5-0.2-0.8-0.5-1.1c-0.3-0.3-0.8-0.6-1.2-0.8s-1-0.4-1.7-0.6s-1.2-0.4-1.8-0.6c-0.9-0.4-1.7-0.7-2.4-1.1s-1.2-0.8-1.7-1.3s-0.8-1.1-1-1.8c-0.2-0.7-0.4-1.5-0.4-2.4c0-1.2,0.3-2.4,0.8-3.3c0.6-0.9,1.3-1.7,2.2-2.3c0.8-0.6,2-1,3.2-1.3s2.4-0.4,3.7-0.4c1,0,2,0.1,3,0.2s2.1,0.4,3,0.7v5.4c-0.8-0.5-1.8-0.9-2.8-1.1s-2-0.4-3-0.4c-0.5,0-0.8,0-1.3,0.1s-0.8,0.2-1,0.4c-0.3,0.2-0.6,0.4-0.8,0.6c-0.2,0.2-0.3,0.6-0.3,0.8c0,0.4,0.1,0.8,0.4,1c0.3,0.3,0.6,0.6,1,0.8c0.5,0.2,0.9,0.4,1.4,0.6s1,0.4,1.6,0.6c0.9,0.3,1.8,0.7,2.5,1c0.8,0.4,1.4,0.8,2,1.3s0.9,1.1,1.2,1.8s0.5,1.5,0.5,2.4c0,1.3-0.3,2.4-0.8,3.4c-0.6,0.9-1.3,1.7-2.4,2.4c-1.1,0.7-2.1,1-3.3,1.3c-1.2,0.3-2.5,0.4-4,0.4C468.1,513.2,465.8,512.8,463.7,512.1z" /> 
	<path fill="#FFFFFF" d="M491.6,507.1l-3.2,11.2h-5.5l2.3-11.2L491.6,507.1L491.6,507.1z" /> 
	<path fill="#FFFFFF" d="M542.4,490.1l-6.5,22.6h-7.3l-3.3-13.3c-0.2-0.8-0.4-1.9-0.4-2.9h-0.1c-0.1,1.1-0.3,2.1-0.5,2.8l-3.6,13.4h-7.2l-6.4-22.6h7.1l3.1,14.8c0.2,0.7,0.3,1.5,0.4,2.5h0.1c0.1-1,0.2-1.9,0.4-2.6l3.9-14.7h6.7l3.5,14.8c0.1,0.4,0.2,1.2,0.3,2.5h0.2c0.1-0.8,0.2-1.7,0.4-2.5l2.9-14.8L542.4,490.1L542.4,490.1z" /> 
	<path fill="#FFFFFF" d="M565.8,503.3H551c0.3,3.3,2.3,4.9,6.2,4.9c2.4,0,4.7-0.6,6.6-1.8v5c-2.1,1.1-4.8,1.7-8.1,1.7c-3.7,0-6.5-1-8.5-3s-3-4.8-3-8.5c0-3.8,1.1-6.7,3.3-8.9c2.2-2.3,4.9-3.3,8-3.3c3.3,0,5.8,0.9,7.6,2.9s2.7,4.6,2.7,8V503.3L565.8,503.3z M559.3,499.1c0-3.2-1.3-4.9-4-4.9c-1.1,0-2.1,0.5-2.9,1.4c-0.8,0.9-1.3,2.1-1.5,3.5H559.3z" /> 
	<path fill="#FFFFFF" d="M584.7,496.4c-0.8-0.5-1.8-0.7-2.9-0.7c-1.5,0-2.7,0.6-3.6,1.7c-0.8,1.1-1.3,2.6-1.3,4.5v10.8h-7v-22.6h7v4.2h0.1c1.1-3.1,3.1-4.6,5.9-4.6c0.8,0,1.3,0.1,1.7,0.3L584.7,496.4L584.7,496.4z" /> 
	<path fill="#FFFFFF" d="M608.1,503.3h-14.8c0.3,3.3,2.3,4.9,6.2,4.9c2.4,0,4.7-0.6,6.6-1.8v5c-2.1,1.1-4.8,1.7-8.1,1.7c-3.7,0-6.5-1-8.5-3s-3-4.8-3-8.5c0-3.8,1.1-6.7,3.3-8.9c2.2-2.3,4.9-3.3,8-3.3c3.3,0,5.8,0.9,7.6,2.9s2.7,4.6,2.7,8V503.3L608.1,503.3z M601.6,499.1c0-3.2-1.3-4.9-4-4.9c-1.1,0-2.1,0.5-2.9,1.4c-0.8,0.9-1.3,2.1-1.5,3.5H601.6z" /> 
	<path fill="#FFFFFF" d="M639.6,481l-15.1,36.9h-3.4l15.1-36.9L639.6,481L639.6,481z" /> 
	<path fill="#FFFFFF" d="M683.7,490.1l-6.8,22.6h-3.8l-4.6-16.2c-0.2-0.7-0.3-1.3-0.4-2.1H668c0,0.6-0.2,1.2-0.5,2.1l-5.1,16.2H659l-6.9-22.6h3.8l4.7,16.9c0.2,0.5,0.3,1.2,0.3,2.1h0.2c0-0.7,0.2-1.3,0.4-2.1l5.2-16.9h3.3l4.7,17c0.2,0.6,0.3,1.2,0.4,2.1h0.2c0-0.6,0.2-1.2,0.4-2.1l4.6-17H683.7z" /> 
	<path fill="#FFFFFF" d="M686.3,511.9v-3.7c1.8,1.2,3.6,1.9,5.6,1.9c2.3,0,4-0.8,5.5-2.4s2.2-3.8,2.2-6.5c0-2.6-0.7-4.7-2.1-6.3c-1.4-1.6-3.3-2.4-5.6-2.4c-1.9,0-3.8,0.7-5.6,1.9V491c1.8-0.9,3.8-1.5,6.1-1.5c3.2,0,5.8,1,7.8,3.1s3,4.8,3,8.2c0,3.8-1,6.7-3.1,8.9c-2.1,2.3-4.8,3.4-8.3,3.4C689.7,513.2,687.9,512.7,686.3,511.9z" /> 
	<path fill="#FFFFFF" d="M724.7,491.1l-13.4,18.4h13.3v3.1H706v-1.1l13.4-18.3h-12.1v-3.1h17.4L724.7,491.1L724.7,491.1z" /> 
	<path fill="#FFFFFF" d="M732.7,507.7l-3.6,10.8h-2.5l2.5-10.8H732.7z" /> 
	<path fill="#FFFFFF" d="M780,490.1l-6.8,22.6h-3.8l-4.6-16.2c-0.2-0.7-0.3-1.3-0.4-2.1h-0.1c0,0.6-0.2,1.2-0.5,2.1l-5.1,16.2h-3.6l-6.9-22.6h3.8l4.7,16.9c0.2,0.5,0.3,1.2,0.3,2.1h0.2c0-0.7,0.2-1.3,0.4-2.1l5.2-16.9h3.3l4.7,17c0.2,0.6,0.3,1.2,0.4,2.1h0.2c0-0.6,0.2-1.2,0.4-2.1l4.6-17H780z" /> 
	<path fill="#FFFFFF" d="M782.5,512.1v-3.4c1.7,0.9,3.6,1.4,5.6,1.4c1.6,0,2.9-0.4,3.9-1s1.4-1.6,1.4-2.7c0-2.5-2.2-3.8-6.4-3.8h-1.9v-3.1h1.8c1.8,0,3.2-0.3,4.2-0.9c1-0.7,1.5-1.5,1.5-2.6c0-2.2-1.5-3.3-4.4-3.3c-1.7,0-3.5,0.5-5.1,1.3v-3.4c1.7-0.7,3.5-1,5.4-1c2.4,0,4.3,0.6,5.7,1.7s2.2,2.5,2.2,4.4c0,2.4-1.3,4.1-4,5.2v0.1c3.2,0.8,4.9,2.6,4.9,5.6c0,2-0.8,3.7-2.4,4.9c-1.6,1.2-3.8,1.9-6.5,1.9C786,513.2,784.1,512.8,782.5,512.1z" /> 
	<path fill="#FFFFFF" d="M807.7,489.3l-2,4.5h-0.6l-2-4.5H807.7z M807.7,512.6h-4.5l2-4.5h0.6L807.7,512.6z" /> 
	<path fill="#FFFFFF" d="M842,481l-15.1,36.9h-3.4l15.1-36.9L842,481L842,481z" /> 
	<path fill="#FFFFFF" d="M411.9,577.8L411.9,577.8l-0.1,2.6h-7V547h7v14.2h0.1c1.7-2.6,4.1-4,7.3-4c2.9,0,5.2,1,6.7,3s2.4,4.7,2.4,8.2c0,3.8-0.9,6.8-2.7,9s-4.3,3.4-7.3,3.4C415.5,581,413.3,579.9,411.9,577.8z M411.7,568.3v2.4c0,1.4,0.4,2.6,1.2,3.6c0.8,0.9,1.9,1.4,3.2,1.4c1.6,0,2.8-0.7,3.7-1.9s1.3-3,1.3-5.2c0-1.9-0.4-3.3-1.2-4.4c-0.8-1.1-2-1.6-3.4-1.6s-2.5,0.6-3.5,1.6S411.7,566.6,411.7,568.3z" /> 
	<path fill="#FFFFFF" d="M453.1,571.1h-14.8c0.3,3.3,2.3,4.9,6.2,4.9c2.4,0,4.7-0.6,6.6-1.8v5c-2.1,1.1-4.8,1.7-8.1,1.7c-3.7,0-6.5-1-8.5-3s-3-4.8-3-8.5c0-3.8,1.1-6.7,3.3-8.9c2.2-2.3,4.9-3.3,8-3.3c3.3,0,5.8,0.9,7.6,2.9c1.8,2,2.7,4.6,2.7,8L453.1,571.1L453.1,571.1z M446.7,566.8c0-3.2-1.3-4.9-4-4.9c-1.1,0-2.1,0.5-2.9,1.4s-1.3,2.1-1.5,3.5H446.7z" /> 
	<path fill="#FFFFFF" d="M477.6,571.1h-14.8c0.3,3.3,2.3,4.9,6.2,4.9c2.4,0,4.7-0.6,6.6-1.8v5c-2.1,1.1-4.8,1.7-8.1,1.7c-3.7,0-6.5-1-8.5-3s-3-4.8-3-8.5c0-3.8,1.1-6.7,3.3-8.9s4.9-3.3,8-3.3c3.3,0,5.8,0.9,7.6,2.9c1.8,2,2.7,4.6,2.7,8L477.6,571.1L477.6,571.1z M471.1,566.8c0-3.2-1.3-4.9-4-4.9c-1.1,0-2.1,0.5-2.9,1.4s-1.3,2.1-1.5,3.5H471.1z" /> 
	<path fill="#FFFFFF" d="M503.5,580.4h-7v-12.5c0-3.5-1.2-5.3-3.8-5.3c-1.2,0-2.2,0.5-3,1.4s-1.1,2.1-1.1,3.6v12.9h-7v-22.6h7v3.6h0.1c1.7-2.7,4-4.1,7.2-4.1c5,0,7.5,3.1,7.5,9.3L503.5,580.4L503.5,580.4z" /> 
	<path fill="#FFFFFF" d="M536.4,548.8l-15.1,36.9h-3.4l15.1-36.9H536.4z" /> 
	<path fill="#FFFFFF" d="M557.2,554.5h-2.4v-8h2.4V554.5z" /> 
	<path fill="#FFFFFF" d="M570.9,577.2L570.9,577.2l-0.1,3.3h-3.6V547h3.6v14.9h0.1c1.8-3,4.4-4.5,7.8-4.5c2.9,0,5.2,1,6.8,3s2.4,4.7,2.4,8.1c0,3.8-0.9,6.8-2.7,9c-1.8,2.3-4.3,3.4-7.5,3.4C574.7,581,572.4,579.6,570.9,577.2z M570.8,568.1v3.2c0,1.9,0.6,3.5,1.8,4.8s2.7,2,4.6,2c2.2,0,4-0.8,5.2-2.5s1.9-4,1.9-7c0-2.5-0.6-4.5-1.8-5.9s-2.7-2.2-4.7-2.2c-2.1,0-3.8,0.8-5.1,2.2C571.4,564,570.8,565.8,570.8,568.1z" /> 
	<path fill="#FFFFFF" d="M595.6,552.1c-0.7,0-1.2-0.2-1.7-0.7s-0.7-1-0.7-1.7s0.2-1.2,0.7-1.7s1-0.7,1.7-0.7s1.2,0.2,1.7,0.7s0.7,1,0.7,1.7s-0.2,1.2-0.7,1.7C596.8,551.9,596.2,552.1,595.6,552.1z M597.3,580.4h-3.6v-22.6h3.6V580.4z" /> 
	<path fill="#FFFFFF" d="M609.5,557.1l-2,4.5h-0.6l-2-4.5H609.5z M609.5,580.4H605l2-4.5h0.6L609.5,580.4z" /> 
	<path fill="#FFFFFF" d="M635.9,580.4h-3.6v-12.9c0-4.8-1.8-7.2-5.3-7.2c-1.8,0-3.3,0.7-4.5,2.1c-1.2,1.4-1.8,3.1-1.8,5.2v12.9h-3.6v-22.6h3.6v3.8h0.1c1.7-2.8,4.1-4.2,7.4-4.2c2.4,0,4.3,0.8,5.6,2.4s2,3.9,2,6.9L635.9,580.4L635.9,580.4z" /> 
	<path fill="#FFFFFF" d="M669.4,548.8l-15.1,36.9h-3.4l15.1-36.9H669.4z" /> 
	<path fill="#FFFFFF" d="M402,638.8l0.5-2.4h37.6l-0.5,2.4H402z" /> 
	<path fill="#FFFFFF" d="M470.8,623.1c-1.6,0.1-3,0.2-4.3,0.3s-2.4,0.3-3.5,0.5c-1,0.2-1.9,0.5-2.6,0.8c-0.8,0.4-1.4,0.8-1.9,1.4c-0.3,0.4-0.6,0.8-0.8,1.2c-0.3,0.5-0.6,1-0.8,1.6c-0.2,0.6-0.5,1.1-0.7,1.8s-0.4,1.2-0.5,1.7h0.1c0.8-1,1.9-1.8,3-2.4s2.4-0.8,3.9-0.8c0.9,0,1.8,0.2,2.5,0.5s1.5,0.8,2.1,1.3c0.6,0.6,1,1.3,1.3,2.2c0.3,0.8,0.5,2,0.5,3.1s-0.1,2.2-0.3,3.2c-0.2,1-0.6,2-0.9,2.9c-0.4,0.9-0.9,1.7-1.5,2.4c-0.6,0.8-1.2,1.4-2,2s-1.6,0.9-2.4,1.2s-1.9,0.5-2.9,0.5c-1.2,0-2.4-0.2-3.2-0.7c-0.8-0.5-1.6-1-2.3-1.9c-0.7-0.8-1-1.8-1.3-2.9c-0.3-1.1-0.4-2.4-0.4-3.8c0-1.2,0.1-2.4,0.3-3.8s0.5-2.6,0.8-3.9c0.4-1.2,0.8-2.4,1.4-3.7c0.6-1.2,1.2-2.2,2-3.1c0.8-1,1.8-1.8,2.8-2.4c1-0.6,2.2-1,3.4-1.3c1.2-0.3,2.6-0.6,4.1-0.8s3.1-0.3,4.9-0.5L470.8,623.1z M465.9,636.8c0-0.8-0.1-1.6-0.3-2.3s-0.5-1.1-0.8-1.6c-0.4-0.5-0.8-0.7-1.2-0.8c-0.5-0.2-1-0.3-1.6-0.3c-0.7,0-1.3,0.1-2,0.3s-1.2,0.5-1.9,0.8s-1.1,0.8-1.6,1.2c-0.5,0.5-0.9,0.9-1.4,1.5c-0.1,0.3-0.1,0.7-0.2,0.9c-0.1,0.3-0.1,0.8-0.1,1c0,0.3-0.1,0.8-0.1,1.1s0,0.7,0,1c0,0.9,0.1,1.8,0.3,2.5c0.2,0.8,0.5,1.4,0.8,2s0.8,0.9,1.4,1.3c0.6,0.4,1.2,0.5,2,0.5s1.4-0.1,2-0.4c0.6-0.3,1.2-0.6,1.7-1c0.5-0.5,0.9-0.9,1.3-1.5s0.8-1.2,1-1.9c0.3-0.7,0.5-1.4,0.7-2.2C466,638.4,465.9,637.5,465.9,636.8z" /> 
	<path fill="#FFFFFF" d="M477.8,629.3l-1.7,8c0.7-0.3,1.4-0.5,2.3-0.7c0.8-0.2,1.6-0.3,2.4-0.3c2,0,3.5,0.5,4.5,1.3s1.5,2.2,1.5,3.9c0,0.8-0.1,1.6-0.4,2.4c-0.3,0.8-0.8,1.6-1.3,2.3c-0.6,0.7-1.4,1.2-2.4,1.6c-1,0.4-2.3,0.7-3.7,0.7c-2.3,0-3.9-0.5-4.9-1.5s-1.6-2.5-1.6-4.5c0-0.4,0-0.7,0-1c0-0.4,0.1-0.8,0.1-1.1s0.1-0.8,0.2-1.1c0.1-0.4,0.1-0.7,0.2-0.9c0,0,0-0.2,0.1-0.5s0.1-0.7,0.2-1c0.1-0.4,0.2-0.9,0.3-1.5c0.1-0.6,0.2-1.1,0.4-1.6c0.3-1.3,0.6-2.7,0.9-4.4L477.8,629.3L477.8,629.3z M483.8,642c0-0.9-0.3-1.7-0.8-2.3c-0.6-0.6-1.5-0.8-2.7-0.8c-0.8,0-1.7,0.1-2.4,0.3c-0.8,0.2-1.4,0.4-2.1,0.6c0,0.2-0.1,0.5-0.1,0.8s-0.1,0.5-0.1,0.8s0,0.5,0,0.8s0,0.5,0,0.7c0,0.6,0.1,1,0.2,1.5s0.4,0.8,0.7,1.1c0.3,0.3,0.7,0.6,1.1,0.8c0.5,0.2,1,0.3,1.8,0.3s1.5-0.1,2.2-0.4s1-0.6,1.4-0.9c0.4-0.4,0.7-0.8,0.8-1.3C483.7,643.2,483.8,642.5,483.8,642z M491.8,648.1h-3l4-18.8h3L491.8,648.1z" /> 
	<path fill="#FFFFFF" d="M527,634.1c0,0.2,0,0.4-0.1,0.8s-0.1,0.7-0.2,1c-0.1,0.4-0.1,0.8-0.2,1.1c-0.1,0.4-0.1,0.7-0.2,0.9l-2.3,10.4h-3l2.3-11c0.1-0.2,0.1-0.5,0.2-0.7c0.1-0.2,0.1-0.5,0.1-0.8s0.1-0.5,0.1-0.7s0-0.4,0-0.5c0-0.9-0.2-1.7-0.7-2.3s-1-0.8-2-0.8c-0.5,0-0.9,0.1-1.4,0.3s-0.9,0.5-1.4,0.8c-0.5,0.4-0.9,0.8-1.3,1.3c-0.4,0.6-0.8,1-1.2,1.6s-0.7,1.1-0.9,1.7c-0.3,0.6-0.5,1.1-0.6,1.7l-2,9.2h-3l2.4-11c0.1-0.2,0.1-0.5,0.2-0.7s0.1-0.5,0.1-0.8s0.1-0.5,0.1-0.7s0-0.4,0-0.5c0-0.9-0.2-1.7-0.7-2.3s-1-0.8-2-0.8c-0.5,0-0.9,0.1-1.5,0.3s-1,0.5-1.5,0.8s-0.9,0.8-1.4,1.3s-0.8,1-1.2,1.6c-0.4,0.6-0.7,1.1-0.9,1.7c-0.3,0.6-0.5,1.1-0.6,1.7l-2,9.2h-3l2.9-13.5c0.1-0.5,0.2-0.9,0.3-1.5c0.1-0.6,0.2-1,0.3-1.5c0.1-0.5,0.2-0.9,0.2-1.3s0.1-0.8,0.2-1h2.9c-0.1,0.5-0.1,0.9-0.2,1.5s-0.2,1-0.2,1.4c-0.1,0.5-0.2,1-0.3,1.5h0.1c0.5-0.8,0.9-1.4,1.4-2s1-1.1,1.6-1.6s1.2-0.8,1.8-1c0.6-0.3,1.3-0.4,2-0.4c0.8,0,1.4,0.1,2,0.4c0.6,0.3,1,0.6,1.4,0.9c0.4,0.4,0.7,0.9,0.8,1.5c0.2,0.6,0.3,1.2,0.4,2c0.5-0.7,0.9-1.3,1.5-1.9c0.6-0.6,1-1.1,1.7-1.5s1.2-0.8,1.9-1s1.4-0.4,2.2-0.4c1.6,0,2.7,0.5,3.6,1.4C526.4,631.5,527,632.4,527,634.1z" /> 
	<path fill="#FFFFFF" d="M536.3,629.3l-1.7,8c0.8-0.3,1.5-0.5,2.4-0.7s1.8-0.3,2.6-0.3c2.2,0,3.8,0.5,4.8,1.3s1.6,2.2,1.6,3.9c0,0.8-0.2,1.6-0.5,2.4c-0.3,0.8-0.8,1.6-1.4,2.3s-1.5,1.2-2.5,1.6c-1,0.4-2.4,0.7-3.9,0.7c-2.4,0-4-0.5-5.2-1.5c-1.1-1-1.7-2.5-1.7-4.5c0-0.4,0-0.7,0-1c0-0.4,0.1-0.8,0.1-1.1s0.1-0.8,0.2-1.1c0.1-0.4,0.1-0.7,0.2-0.9c0,0,0-0.2,0.1-0.5s0.1-0.7,0.2-1s0.2-0.9,0.3-1.5s0.2-1.1,0.4-1.6c0.3-1.3,0.6-2.7,0.9-4.4L536.3,629.3L536.3,629.3z M543,642c0-0.9-0.3-1.7-0.9-2.3c-0.7-0.6-1.6-0.8-3-0.8c-0.9,0-1.9,0.1-2.7,0.3s-1.6,0.4-2.3,0.6c-0.1,0.2-0.1,0.5-0.1,0.8s-0.1,0.5-0.1,0.8s0,0.5-0.1,0.8s0,0.5,0,0.7c0,0.6,0.1,1,0.2,1.5c0.1,0.5,0.4,0.8,0.8,1.1c0.4,0.3,0.8,0.6,1.2,0.8c0.5,0.2,1.1,0.3,1.9,0.3c0.9,0,1.7-0.1,2.4-0.4s1.1-0.6,1.6-0.9c0.5-0.4,0.7-0.8,0.8-1.3C542.8,643.2,543,642.5,543,642z" /> 
	<rect x="908" y="281" fill="none" width="140" height="56" /> 
	<rect x="852" y="281" fill="#F03B4C" width="56" height="56" /> 
	<path fill="#191919" d="M887.3,308.4c-0.5,0.5-1,0.9-1.5,1.4c-2.2,2.3-4.3,4.6-6.5,6.8c-1.1,1.1-2.2,2.1-3.6,2.7c-0.8,0.4-1.5,0.6-2.4,0.3c-1.3-0.3-2-1.5-2-3c0.1-1.5,0.6-2.9,1.2-4.2c0.8-2,1.8-3.9,2.7-5.8c1.1-2.4,2.2-4.7,3.2-7.1c0.3-0.8,0.5-1.6,0.8-2.4c0-0.2,0-0.3,0-0.5l-0.1-0.1c-0.3,0.3-0.6,0.5-0.8,0.8c-1.1,1.5-2.2,3-3.3,4.5c-1.2,1.6-2.3,3.2-3.5,4.8c-0.5,0.6-1.2,1.2-1.9,1.6c-1.4,0.8-2.9,0.1-3.4-1.5c-0.4-1.2,0-2.2,0.5-3.2c0.8-1.6,1.7-3.2,2.5-4.8c0.4-0.8,0.8-1.7,0.7-2.6c0-0.6-0.3-1.1-0.8-1.5c-0.4-0.3-0.8-0.2-1.2,0c-0.9,0.4-1.5,1.1-2.1,1.9c-0.3,0.4-0.7,0.5-1.1,0.3c-0.4-0.3-0.6-0.7-0.3-1.2c0.8-1.2,1.8-2.2,3.1-2.7c1.5-0.6,2.8,0.1,3.6,1.4c0.7,1,0.8,2.1,0.4,3.3c-0.3,1.1-0.8,2.1-1.3,3.1c-0.6,1.3-1.3,2.5-1.9,3.7c-0.2,0.5-0.3,1-0.3,1.5c0,0.2,0.1,0.4,0.3,0.6c0.1,0.1,0.4-0.1,0.5-0.2c0.6-0.7,1.3-1.3,1.8-2c1.4-2,2.7-4.1,4.1-6.1c0.7-1,1.5-2,2.3-2.9c0.5-0.6,1.1-1.1,2-1.3c1.2-0.2,2.4,0.8,2.5,2.1c0.1,0.9,0,1.9-0.4,2.7c-0.7,1.9-1.4,3.8-2.2,5.6c-1.2,2.8-2.6,5.7-3.8,8.5c-0.4,1-0.7,2.1-1,3.2c-0.1,0.2,0,0.4-0.1,0.8c0.4-0.2,0.8-0.4,1.1-0.6c1.4-1,2.6-2.3,3.8-3.6c1.9-2.1,3.8-4.2,5.8-6.2c0.7-0.7,1.4-1.3,2.4-1.7c1.7-0.7,3.2,0.2,3.6,1.9c0.2,0.8,0.1,1.5-0.1,2.3c-0.4,2-1.3,3.9-2.1,5.7c-0.7,1.7-1.3,3.4-2,5.1c-0.2,0.4-0.2,0.9-0.3,1.4c0,0.2,0.1,0.4,0.3,0.4c0.4,0,0.8,0,1.2-0.2c1.2-0.5,2.1-1.3,3-2.1c0.7-0.6,1.3-1.3,1.9-1.9c0.5-0.5,1-0.5,1.5,0c0.4,0.4,0.8,0.8,1.2,1.2c0.4,0.4,0.4,0.9,0,1.3c-1.7,1.6-3.3,3.3-5.4,4.4c-1.4,0.8-2.9,1.2-4.5,0.6c-2.1-0.7-3.1-2.4-2.6-4.6c0.4-1.8,1.1-3.5,1.8-5.3c0.8-2,1.7-3.9,2.5-5.9C887.2,308.9,887.2,308.6,887.3,308.4C887.4,308.5,887.3,308.4,887.3,308.4z" /> 
	<path fill="#FFFFFF" d="M928.9,305h-1.2v-1.2l0,0c-0.5,0.9-1.3,1.3-2.3,1.3c-0.7,0-1.3-0.2-1.7-0.6s-0.6-0.9-0.6-1.6c0-1.4,0.8-2.2,2.5-2.4l2.2-0.3c0-1.3-0.5-1.9-1.5-1.9c-0.9,0-1.7,0.3-2.4,0.9V298c0.2-0.2,0.6-0.3,1.1-0.5s1-0.2,1.4-0.2c1.7,0,2.6,0.9,2.6,2.8L928.9,305L928.9,305z M927.7,301.3l-1.8,0.3c-0.6,0.1-1,0.2-1.3,0.4c-0.2,0.2-0.4,0.5-0.4,1c0,0.4,0.1,0.7,0.4,0.9c0.3,0.2,0.6,0.3,1,0.3c0.6,0,1.1-0.2,1.5-0.6s0.6-0.9,0.6-1.6V301.3L927.7,301.3z" /> 
	<path fill="#FFFFFF" d="M937.3,305h-1.2v-3.4h-3.8v3.4h-1.2v-7.4h1.2v3.1h3.8v-3.1h1.2V305z" /> 
	<path fill="#FFFFFF" d="M943.8,298.6h-2.9v6.4h-1.2v-7.4h4.1L943.8,298.6L943.8,298.6z" /> 
	<path fill="#FFFFFF" d="M950.1,305H949v-6.4h-1.7c-0.2,2.3-0.5,3.9-1,5c-0.5,1-1.1,1.6-2,1.6c-0.2,0-0.5,0-0.6-0.1v-1c0.2,0.1,0.3,0.1,0.6,0.1c1.1,0,1.8-2.2,2.1-6.5h3.9C950.1,297.6,950.1,305,950.1,305z" /> 
	<path fill="#FFFFFF" d="M958.7,305h-1.1v-5.8l-3.9,5.8h-1.2v-7.4h1.1v5.7l3.9-5.7h1.2V305L958.7,305z" /> 
	<path fill="#FFFFFF" d="M967.3,305h-1.1v-5.8l-3.9,5.8h-1.2v-7.4h1.1v5.7l3.9-5.7h1.2V305L967.3,305z M966.8,294c0,0.3-0.1,0.6-0.3,0.9c-0.1,0.3-0.3,0.5-0.5,0.7s-0.5,0.3-0.8,0.5c-0.3,0.1-0.6,0.2-1,0.2s-0.7-0.1-1-0.2s-0.6-0.3-0.8-0.4c-0.2-0.2-0.4-0.4-0.5-0.7c-0.1-0.3-0.2-0.6-0.2-0.9h1.2c0,0.2,0,0.4,0.1,0.5c0.1,0.2,0.1,0.3,0.2,0.4c0.1,0.1,0.2,0.2,0.4,0.3c0.2,0.1,0.4,0.1,0.6,0.1c0.2,0,0.4,0,0.6-0.1c0.2-0.1,0.3-0.2,0.4-0.3c0.1-0.1,0.2-0.3,0.3-0.4c0.1-0.2,0.1-0.3,0.1-0.5h1.2V294z" /> 
	<path fill="#FFFFFF" d="M974.6,304.7c-0.6,0.3-1.3,0.5-2,0.5s-1.3-0.2-1.8-0.5s-1-0.8-1.3-1.3c-0.3-0.6-0.5-1.2-0.5-1.9c0-1.2,0.4-2.2,1.1-3s1.6-1.1,2.8-1.1c0.6,0,1.2,0.1,1.7,0.4v1.2c-0.6-0.4-1.1-0.6-1.8-0.6c-0.8,0-1.4,0.3-1.9,0.8s-0.7,1.3-0.7,2.1c0,0.9,0.2,1.6,0.7,2.1s1.1,0.8,1.8,0.8c0.6,0,1.3-0.2,1.8-0.6v1.1H974.6z" /> 
	<path fill="#FFFFFF" d="M982.5,305h-1.7l-3.3-3.6l0,0v3.6h-1.2v-7.4h1.2v3.4l0,0l3.1-3.4h1.6l-3.5,3.6L982.5,305z" /> 
	<path fill="#FFFFFF" d="M989.9,305h-1.1v-5.8l-3.9,5.8h-1.2v-7.4h1.1v5.7l3.9-5.7h1.2V305L989.9,305z" /> 
	<path fill="#FFFFFF" d="M998.5,305h-1.1v-5.8l-3.9,5.8h-1.2v-7.4h1.1v5.7l3.9-5.7h1.2V305L998.5,305z M998,294c0,0.3-0.1,0.6-0.3,0.9c-0.1,0.3-0.3,0.5-0.5,0.7s-0.5,0.3-0.8,0.5c-0.3,0.1-0.6,0.2-1,0.2s-0.7-0.1-1-0.2s-0.6-0.3-0.8-0.4c-0.2-0.2-0.4-0.4-0.5-0.7c-0.1-0.3-0.2-0.6-0.2-0.9h1.2c0,0.2,0,0.4,0.1,0.5s0.1,0.3,0.2,0.4s0.3,0.2,0.4,0.3c0.2,0.1,0.4,0.1,0.6,0.1s0.4,0,0.6-0.1s0.3-0.2,0.4-0.3c0.1-0.1,0.2-0.3,0.3-0.4c0.1-0.2,0.1-0.3,0.1-0.5h1.2V294z" /> 
	<path fill="#FFFFFF" d="M930.3,317.8c0,0.7-0.1,1.4-0.4,2c-0.3,0.6-0.7,1-1.2,1.3s-1.1,0.5-1.8,0.5c-1.1,0-2-0.4-2.6-1.2s-0.9-2-0.9-3.5c0-3,0.7-4.8,2.2-5.5c0.3-0.1,0.6-0.2,0.9-0.3c0.3-0.1,0.7-0.2,1.1-0.2c0.4-0.1,0.7-0.1,1.1-0.2c0.3-0.1,0.7-0.2,0.9-0.3v1.1c-0.2,0.1-0.5,0.2-0.8,0.3c-0.3,0.1-0.6,0.1-1,0.2c-0.3,0.1-0.6,0.1-1,0.2c-0.3,0.1-0.6,0.2-0.8,0.3c-0.8,0.4-1.2,1.4-1.3,3.1l0,0c0.3-0.4,0.6-0.7,1.1-0.9c0.5-0.2,0.9-0.3,1.4-0.3c0.6,0,1.2,0.2,1.7,0.5s0.9,0.7,1.2,1.3C930.2,316.5,930.3,317.1,930.3,317.8z M929.1,317.9c0-0.9-0.2-1.5-0.6-2c-0.4-0.5-1-0.8-1.7-0.8c-1,0-1.8,0.5-2.3,1.4v0.7c0,1,0.2,1.8,0.6,2.4c0.4,0.6,1,0.9,1.7,0.9s1.2-0.2,1.6-0.7C928.9,319.3,929.1,318.7,929.1,317.9z" /> 
	<path fill="#FFFFFF" d="M938,318h-5.3c0,0.8,0.2,1.5,0.7,1.9c0.4,0.4,1,0.7,1.8,0.7s1.6-0.3,2.3-0.8v1.1c-0.6,0.5-1.5,0.7-2.6,0.7s-1.9-0.3-2.5-1s-0.9-1.6-0.9-2.8c0-0.7,0.1-1.4,0.4-2c0.3-0.6,0.7-1.1,1.2-1.4s1.1-0.5,1.7-0.5c1,0,1.7,0.3,2.3,0.9c0.5,0.6,0.8,1.5,0.8,2.6L938,318L938,318z M936.8,317c0-0.7-0.2-1.2-0.5-1.6s-0.8-0.6-1.4-0.6c-0.6,0-1,0.2-1.4,0.6s-0.6,0.9-0.7,1.6H936.8L936.8,317z" /> 
	<path fill="#FFFFFF" d="M944.5,319.4c0,0.7-0.3,1.2-0.8,1.6c-0.6,0.4-1.3,0.6-2.2,0.6c-1,0-1.8-0.1-2.3-0.4V320c0.6,0.4,1.4,0.5,2.3,0.5c1.3,0,2-0.4,2-1.2c0-0.8-0.7-1.2-2.2-1.2h-0.7v-1h0.7c1.3,0,1.9-0.4,1.9-1.2c0-0.3-0.1-0.6-0.4-0.8c-0.3-0.2-0.7-0.3-1.2-0.3c-0.7,0-1.4,0.2-2.2,0.5v-1.1c0.8-0.3,1.6-0.5,2.3-0.5c1.8,0,2.7,0.7,2.7,2c0,0.4-0.1,0.8-0.4,1.1c-0.3,0.3-0.6,0.5-1.1,0.6l0,0c0.6,0,1,0.2,1.3,0.6C944.3,318.5,944.5,318.9,944.5,319.4z" /> 
	<path fill="#FFFFFF" d="M956.5,317.5c0,1.3-0.3,2.3-0.9,3c-0.6,0.7-1.4,1.1-2.5,1.1c-1,0-1.7-0.4-2.2-1.2l0,0v4.5h-1.2V314h1.2v1.3l0,0c0.6-1,1.4-1.5,2.6-1.5c0.9,0,1.7,0.3,2.2,1C956.2,315.4,956.5,316.3,956.5,317.5z M955.3,317.4c0-0.8-0.2-1.4-0.6-1.9c-0.4-0.5-0.9-0.7-1.6-0.7c-0.7,0-1.2,0.2-1.7,0.7s-0.6,1.1-0.6,1.8v1c0,0.6,0.2,1.1,0.6,1.6c0.4,0.4,0.9,0.6,1.5,0.6c0.7,0,1.3-0.3,1.7-0.8C955.1,319.2,955.3,318.4,955.3,317.4z" /> 
	<path fill="#FFFFFF" d="M964.2,318h-5.3c0,0.8,0.2,1.5,0.7,1.9c0.4,0.4,1,0.7,1.8,0.7s1.6-0.3,2.3-0.8v1.1c-0.6,0.5-1.5,0.7-2.6,0.7s-1.9-0.3-2.5-1s-0.9-1.6-0.9-2.8c0-0.7,0.1-1.4,0.4-2s0.7-1.1,1.2-1.4s1.1-0.5,1.7-0.5c1,0,1.7,0.3,2.3,0.9s0.8,1.5,0.8,2.6L964.2,318L964.2,318z M963,317c0-0.7-0.2-1.2-0.5-1.6s-0.8-0.6-1.4-0.6c-0.6,0-1,0.2-1.4,0.6s-0.6,0.9-0.7,1.6H963L963,317z" /> 
	<path fill="#FFFFFF" d="M970,315h-2.9v6.4h-1.2V314h4.1L970,315L970,315z" /> 
	<path fill="#FFFFFF" d="M977.7,321.4h-1.1v-5.8l-3.9,5.8h-1.2V314h1.1v5.7l3.9-5.7h1.2V321.4L977.7,321.4z" /> 
	<path fill="#FFFFFF" d="M985.1,321.1c-0.6,0.3-1.3,0.5-2,0.5s-1.3-0.2-1.8-0.5s-1-0.8-1.3-1.3c-0.3-0.6-0.5-1.2-0.5-1.9c0-1.2,0.4-2.2,1.1-3c0.7-0.7,1.6-1.1,2.8-1.1c0.6,0,1.2,0.1,1.7,0.4v1.2c-0.6-0.4-1.1-0.6-1.8-0.6c-0.8,0-1.4,0.3-1.9,0.8s-0.7,1.3-0.7,2.1c0,0.9,0.2,1.6,0.7,2.1s1.1,0.8,1.8,0.8c0.6,0,1.3-0.2,1.8-0.6L985.1,321.1L985.1,321.1z" /> 
	<path fill="#FFFFFF" d="M991.5,315h-2.2v6.4h-1.2V315h-2.2v-1h5.7L991.5,315L991.5,315z" /> 
	<path fill="#FFFFFF" d="M999.7,317.5c0,1.3-0.3,2.3-0.9,3s-1.4,1.1-2.5,1.1c-1,0-1.7-0.4-2.2-1.2l0,0v4.5h-1.2V314h1.2v1.3l0,0c0.6-1,1.4-1.5,2.6-1.5c0.9,0,1.7,0.3,2.2,1C999.4,315.4,999.7,316.3,999.7,317.5z M998.4,317.4c0-0.8-0.2-1.4-0.6-1.9s-0.9-0.7-1.6-0.7s-1.2,0.2-1.7,0.7c-0.4,0.5-0.6,1.1-0.6,1.8v1c0,0.6,0.2,1.1,0.6,1.6c0.4,0.4,0.9,0.6,1.5,0.6c0.7,0,1.3-0.3,1.7-0.8C998.2,319.2,998.4,318.4,998.4,317.4z" /> 
	<path fill="#FFFFFF" d="M1006.5,321.4h-1.2v-1.2l0,0c-0.5,0.9-1.3,1.3-2.3,1.3c-0.7,0-1.3-0.2-1.7-0.6s-0.6-0.9-0.6-1.6c0-1.4,0.8-2.2,2.5-2.4l2.2-0.3c0-1.3-0.5-1.9-1.5-1.9c-0.9,0-1.7,0.3-2.4,0.9v-1.2c0.2-0.2,0.6-0.3,1.1-0.5s1-0.2,1.4-0.2c1.7,0,2.6,0.9,2.6,2.8L1006.5,321.4L1006.5,321.4z M1005.3,317.6l-1.8,0.3c-0.6,0.1-1,0.2-1.3,0.4c-0.2,0.2-0.4,0.5-0.4,1c0,0.4,0.1,0.7,0.4,0.9c0.3,0.2,0.6,0.3,1,0.3c0.6,0,1.1-0.2,1.5-0.6s0.6-0.9,0.6-1.6V317.6L1005.3,317.6z" /> 
	<path fill="#FFFFFF" d="M1015.9,324.1h-1v-2.7h-6.2V314h1.2v6.4h3.8V314h1.2v6.4h1.1L1015.9,324.1L1015.9,324.1z" /> 
	<path fill="#FFFFFF" d="M1023.8,321.4h-1.1v-5.8l-3.9,5.8h-1.2V314h1.1v5.7l3.9-5.7h1.2V321.4L1023.8,321.4z" /> 
	<path fill="#FFFFFF" d="M1032.3,321.4h-1.1v-5.8l-3.9,5.8h-1.2V314h1.1v5.7l3.9-5.7h1.2V321.4L1032.3,321.4z" /></svg> 
