<svg version="1.1" xmlns="http://www.w3.org/2000/svg" xmlns:xlink="http://www.w3.org/1999/xlink" x="0px" y="0px" width="144px" height="52px" viewBox="0 0 144 52" enable-background="new 0 0 144 52" xml:space="preserve"><rect fill="#A20025" width="144" height="52"/><g><path fill="#FFFFFF" d="M51.1,21.1h-1v-7.5h-4.3v7.5h-1v-8.4h6.3V21.1z"/><path fill="#FFFFFF" d="M58.7,17.9c0,1-0.2,1.8-0.7,2.4s-1.2,0.9-2,0.9c-0.8,0-1.4-0.3-1.8-1h0v3.6h-1v-8.8h1v1.1h0c0.5-0.8,1.2-1.2,2.1-1.2c0.8,0,1.3,0.3,1.8,0.8S58.7,17,58.7,17.9z M57.7,17.9c0-0.6-0.2-1.2-0.5-1.6s-0.7-0.6-1.3-0.6c-0.6,0-1,0.2-1.3,0.6s-0.5,0.9-0.5,1.5v0.8c0,0.5,0.2,0.9,0.5,1.3s0.7,0.5,1.2,0.5c0.6,0,1-0.2,1.4-0.7S57.7,18.7,57.7,17.9z"/><path fill="#FFFFFF" d="M65.2,21.1h-0.9v-4.8c-0.1,0.1-0.2,0.4-0.4,0.7l-2.8,4.1h-1v-6H61v4.7l0.3-0.6l2.8-4.2h1V21.1z"/><path fill="#FFFFFF" d="M71.5,21.1h-1v-5.2h-1.4c-0.2,1.8-0.4,3.2-0.8,4s-0.9,1.3-1.6,1.3c-0.2,0-0.4,0-0.5-0.1v-0.8c0.1,0.1,0.3,0.1,0.4,0.1c0.9,0,1.4-1.8,1.7-5.3h3.2V21.1z"/><path fill="#FFFFFF" d="M78.9,18c0,1-0.3,1.7-0.8,2.3s-1.3,0.9-2.2,0.9c-0.9,0-1.6-0.3-2.1-0.8S73,19.1,73,18.1c0-1,0.3-1.8,0.8-2.4s1.3-0.9,2.2-0.9c0.9,0,1.6,0.3,2.1,0.8S78.9,17.1,78.9,18z M77.9,18.1c0-0.8-0.2-1.3-0.5-1.7s-0.8-0.6-1.4-0.6c-0.6,0-1.1,0.2-1.5,0.6s-0.5,1-0.5,1.7c0,0.7,0.2,1.3,0.5,1.7s0.8,0.6,1.5,0.6c0.6,0,1.1-0.2,1.4-0.6S77.9,18.8,77.9,18.1z"/><path fill="#FFFFFF" d="M88.1,21.1h-1.3l-2.7-3h0v3h-0.9v-3h0l-2.7,3h-1.3l3-3.1l-2.8-2.9h1.2l2.6,2.8h0v-2.8h0.9v2.8h0l2.6-2.8h1.2L85.1,18L88.1,21.1z"/><path fill="#FFFFFF" d="M93.6,18.3h-4.2c0,0.7,0.2,1.2,0.5,1.5s0.8,0.5,1.4,0.5c0.7,0,1.3-0.2,1.9-0.7v0.9c-0.5,0.4-1.2,0.6-2.1,0.6c-0.9,0-1.5-0.3-2-0.8s-0.7-1.3-0.7-2.3c0-0.6,0.1-1.1,0.4-1.6s0.6-0.9,1-1.1s0.9-0.4,1.4-0.4c0.8,0,1.4,0.3,1.8,0.8s0.7,1.2,0.7,2.1V18.3z M92.6,17.5c0-0.6-0.1-1-0.4-1.3s-0.6-0.5-1.1-0.5c-0.4,0-0.8,0.2-1.1,0.5s-0.5,0.7-0.6,1.3H92.6z"/><path fill="#FFFFFF" d="M100,21.1h-1v-2.7H96v2.7h-1v-6h1v2.5H99v-2.5h1V21.1z"/><path fill="#FFFFFF" d="M107,21.1h-0.9v-4.8c-0.1,0.1-0.2,0.4-0.4,0.7l-2.8,4.1h-1v-6h0.9v4.7l0.3-0.6l2.8-4.2h1V21.1z"/><path fill="#FFFFFF" d="M113.7,18.3h-4.2c0,0.7,0.2,1.2,0.5,1.5s0.8,0.5,1.4,0.5c0.7,0,1.3-0.2,1.9-0.7v0.9c-0.5,0.4-1.2,0.6-2.1,0.6c-0.9,0-1.5-0.3-2-0.8s-0.7-1.3-0.7-2.3c0-0.6,0.1-1.1,0.4-1.6s0.6-0.9,1-1.1s0.9-0.4,1.4-0.4c0.8,0,1.4,0.3,1.8,0.8s0.7,1.2,0.7,2.1V18.3z M112.7,17.5c0-0.6-0.1-1-0.4-1.3s-0.6-0.5-1.1-0.5c-0.4,0-0.8,0.2-1.1,0.5s-0.5,0.7-0.6,1.3H112.7z"/><path fill="#FFFFFF" d="M123.1,23.3h-0.8v-2.2h-4.5v2.2H117v-3h0.5c1-1.5,1.5-3.2,1.6-5.2h3.1v5.2h0.9V23.3z M121.3,20.3v-4.4H120c-0.1,1.6-0.6,3.1-1.4,4.4H121.3z"/><path fill="#FFFFFF" d="M129,21.1h-1v-5.2h-1.4c-0.2,1.8-0.4,3.2-0.8,4s-0.9,1.3-1.6,1.3c-0.2,0-0.4,0-0.5-0.1v-0.8c0.1,0.1,0.3,0.1,0.4,0.1c0.9,0,1.4-1.8,1.7-5.3h3.2V21.1z"/><path fill="#FFFFFF" d="M135,21.1h-1v-2.5h-0.8c-0.4,0-0.7,0.3-1.1,0.9l-0.8,1.5h-1.1l1-1.8c0.2-0.4,0.5-0.7,0.9-0.9c-0.5-0.1-0.8-0.2-1.1-0.5s-0.4-0.6-0.4-1.1c0-0.5,0.2-1,0.6-1.3s0.9-0.5,1.6-0.5h2.1V21.1z M134,17.8v-1.9h-1.1c-0.8,0-1.2,0.3-1.2,0.9c0,0.6,0.4,1,1.2,1H134z"/></g><g><polygon fill="#FFFFFF" points="21.1,36.5 10.5,35 10.5,26.2 21.1,26.2 "/><polygon fill="#FFFFFF" points="21.1,25.4 10.5,25.4 10.5,17 21.1,15.5 "/><polygon fill="#FFFFFF" points="35.5,38.5 21.9,36.6 21.9,26.2 35.5,26.2 "/><polygon fill="#FFFFFF" points="35.5,25.4 21.9,25.4 21.9,15.4 35.5,13.5 "/></g><g><path fill="#FFFFFF" d="M54.1,38.8h-1.7l-1.6-6.1c-0.1-0.3-0.1-0.6-0.1-0.9h0c0,0.1,0,0.3-0.1,0.5c0,0.2-0.1,0.3-0.1,0.4l-1.6,6.1H47L44.6,30h1.6l1.6,6.3c0.1,0.2,0.1,0.5,0.1,0.9h0c0-0.2,0.1-0.6,0.2-1l1.8-6.3h1.6l1.7,6.4c0.1,0.2,0.1,0.5,0.1,0.9h0c0-0.3,0.1-0.6,0.1-0.9L55,30h1.5L54.1,38.8z"/><path fill="#FFFFFF" d="M59.1,30.3c0,0.2-0.1,0.4-0.3,0.6c-0.2,0.2-0.4,0.2-0.6,0.2s-0.4-0.1-0.6-0.2c-0.2-0.2-0.3-0.3-0.3-0.6c0-0.2,0.1-0.4,0.3-0.6c0.2-0.2,0.4-0.2,0.6-0.2c0.2,0,0.5,0.1,0.6,0.2C59.1,29.9,59.1,30.1,59.1,30.3z M57.6,38.8v-6.3H59v6.3H57.6z"/><path fill="#FFFFFF" d="M65,38.8v-3.5c0-0.6-0.1-1-0.3-1.3c-0.2-0.3-0.5-0.4-1-0.4c-0.4,0-0.8,0.2-1.1,0.5c-0.3,0.3-0.4,0.7-0.4,1.2v3.6h-1.4v-6.3h1.4v1h0c0.5-0.8,1.1-1.2,2-1.2c0.7,0,1.2,0.2,1.5,0.6c0.4,0.4,0.5,1.1,0.5,1.9v3.8H65z"/><path fill="#FFFFFF" d="M72.4,38.8v-1h0c-0.4,0.8-1.1,1.1-2.1,1.1c-0.8,0-1.4-0.3-1.9-0.8c-0.5-0.6-0.7-1.3-0.7-2.3c0-1,0.3-1.9,0.8-2.5c0.5-0.6,1.2-0.9,2.1-0.9c0.4,0,0.7,0.1,1,0.2c0.3,0.2,0.5,0.4,0.7,0.7h0v-3.8h1.4v9.3H72.4z M72.4,35.1c0-0.4-0.1-0.8-0.4-1.1c-0.3-0.3-0.7-0.5-1.1-0.5c-0.5,0-0.9,0.2-1.2,0.6c-0.3,0.4-0.4,0.9-0.4,1.6c0,0.6,0.1,1.1,0.4,1.5c0.3,0.4,0.7,0.5,1.2,0.5c0.5,0,0.8-0.2,1.1-0.5c0.3-0.4,0.5-0.8,0.5-1.4V35.1z"/><path fill="#FFFFFF" d="M81.7,35.6c0,1-0.3,1.8-0.9,2.4s-1.4,0.9-2.4,0.9c-1,0-1.7-0.3-2.3-0.9c-0.6-0.6-0.9-1.4-0.9-2.3c0-1,0.3-1.9,0.9-2.5c0.6-0.6,1.4-0.9,2.4-0.9c1,0,1.7,0.3,2.3,0.9S81.7,34.6,81.7,35.6z M80.2,35.6c0-0.7-0.2-1.2-0.5-1.6c-0.3-0.4-0.7-0.5-1.3-0.5c-0.6,0-1,0.2-1.3,0.6s-0.5,0.9-0.5,1.6c0,0.7,0.2,1.2,0.5,1.5c0.3,0.4,0.8,0.6,1.3,0.6c0.6,0,1-0.2,1.3-0.5S80.2,36.3,80.2,35.6z"/><path fill="#FFFFFF" d="M89.7,38.8h-1.5l-1.1-4.2c0-0.1,0-0.2-0.1-0.3s0-0.2,0-0.3h0c0,0.3-0.1,0.5-0.1,0.6l-1.2,4.2h-1.5l-1.8-6.3h1.5l1.1,4.4c0,0.1,0.1,0.3,0.1,0.6h0c0-0.3,0.1-0.5,0.1-0.6l1.3-4.4h1.3l1.2,4.4c0,0.1,0.1,0.3,0.1,0.6h0c0-0.3,0.1-0.5,0.1-0.6l1.1-4.4h1.4L89.7,38.8z"/><path fill="#FFFFFF" d="M96.4,37c0,0.6-0.2,1.1-0.7,1.4c-0.4,0.4-1.1,0.5-1.8,0.5c-0.2,0-0.5,0-0.8-0.1c-0.3-0.1-0.6-0.1-0.8-0.2v-1.3c0.3,0.2,0.5,0.3,0.9,0.4s0.6,0.2,0.8,0.2c0.7,0,1-0.2,1-0.7c0-0.2,0-0.3-0.1-0.4c-0.1-0.1-0.2-0.2-0.3-0.3c-0.2-0.1-0.4-0.2-0.8-0.4c-0.4-0.2-0.7-0.3-0.9-0.5c-0.2-0.2-0.3-0.4-0.4-0.6s-0.1-0.5-0.1-0.8c0-0.6,0.2-1,0.7-1.4c0.4-0.4,1-0.5,1.7-0.5c0.2,0,0.5,0,0.7,0.1s0.5,0.1,0.7,0.2v1.3c-0.2-0.1-0.4-0.2-0.7-0.3c-0.3-0.1-0.5-0.1-0.8-0.1c-0.3,0-0.5,0.1-0.7,0.2c-0.2,0.1-0.2,0.3-0.2,0.5c0,0.2,0.1,0.4,0.2,0.5c0.1,0.1,0.4,0.3,0.9,0.5c0.6,0.2,1,0.5,1.2,0.8S96.4,36.6,96.4,37z"/><path fill="#FFFFFF" d="M106.6,32.8c0,0.6-0.1,1.1-0.4,1.5c-0.3,0.4-0.7,0.8-1.2,1s-1.1,0.4-1.7,0.4h-1v3.1h-1.5V30h2.7c1,0,1.8,0.2,2.3,0.7S106.6,31.9,106.6,32.8z M105.1,32.8c0-0.5-0.2-0.9-0.5-1.1s-0.8-0.4-1.4-0.4h-1v3.1h0.9c0.6,0,1.1-0.1,1.4-0.4S105.1,33.3,105.1,32.8z"/><path fill="#FFFFFF" d="M112.1,38.8v-3.5c0-0.6-0.1-1-0.3-1.3s-0.5-0.4-0.9-0.4c-0.4,0-0.8,0.2-1.1,0.5c-0.3,0.3-0.4,0.7-0.4,1.2v3.6H108v-9.3h1.4v4h0c0.5-0.8,1.1-1.1,2-1.1c0.7,0,1.2,0.2,1.6,0.7c0.4,0.4,0.5,1.1,0.5,1.9v3.8H112.1z"/><path fill="#FFFFFF" d="M121.2,35.6c0,1-0.3,1.8-0.9,2.4s-1.4,0.9-2.4,0.9c-1,0-1.7-0.3-2.3-0.9c-0.6-0.6-0.9-1.4-0.9-2.3c0-1,0.3-1.9,0.9-2.5c0.6-0.6,1.4-0.9,2.4-0.9c1,0,1.7,0.3,2.3,0.9S121.2,34.6,121.2,35.6z M119.8,35.6c0-0.7-0.2-1.2-0.5-1.6c-0.3-0.4-0.7-0.5-1.3-0.5c-0.6,0-1,0.2-1.3,0.6s-0.5,0.9-0.5,1.6c0,0.7,0.2,1.2,0.5,1.5c0.3,0.4,0.8,0.6,1.3,0.6c0.6,0,1-0.2,1.3-0.5S119.8,36.3,119.8,35.6z"/><path fill="#FFFFFF" d="M126.8,38.8v-3.5c0-0.6-0.1-1-0.3-1.3c-0.2-0.3-0.5-0.4-1-0.4c-0.4,0-0.8,0.2-1.1,0.5c-0.3,0.3-0.4,0.7-0.4,1.2v3.6h-1.4v-6.3h1.4v1h0c0.5-0.8,1.1-1.2,2-1.2c0.7,0,1.2,0.2,1.5,0.6c0.4,0.4,0.5,1.1,0.5,1.9v3.8H126.8z"/><path fill="#FFFFFF" d="M131,36.1c0,0.6,0.2,1,0.5,1.3s0.8,0.4,1.4,0.4c0.4,0,0.7-0.1,1-0.2c0.3-0.1,0.6-0.3,0.9-0.4v1.2c-0.2,0.2-0.6,0.3-1,0.4c-0.4,0.1-0.8,0.1-1.3,0.1c-0.9,0-1.7-0.3-2.2-0.9c-0.5-0.6-0.8-1.4-0.8-2.4c0-0.7,0.1-1.3,0.4-1.8c0.3-0.5,0.6-0.9,1.1-1.2c0.5-0.3,1-0.4,1.5-0.4c0.9,0,1.5,0.3,2,0.8c0.5,0.5,0.7,1.3,0.7,2.2v0.7H131z M133.8,35c0-0.5-0.1-0.9-0.3-1.1c-0.2-0.3-0.6-0.4-1-0.4c-0.4,0-0.7,0.1-1,0.4c-0.3,0.3-0.5,0.7-0.5,1.1H133.8z"/></g></svg>