<svg version="1.1" xmlns="http://www.w3.org/2000/svg" xmlns:xlink="http://www.w3.org/1999/xlink" x="0px" y="0px" width="144px" height="52px" viewBox="0 0 144 52" enable-background="new 0 0 144 52" xml:space="preserve"><rect fill="#3C6EB4" width="144" height="52"/><g><path fill="#FFFFFF" d="M51.1,21.1h-1v-7.5h-4.3v7.5h-1v-8.4h6.3V21.1z"/><path fill="#FFFFFF" d="M58.7,17.9c0,1-0.2,1.8-0.7,2.4s-1.2,0.9-2,0.9c-0.8,0-1.4-0.3-1.8-1h0v3.6h-1v-8.8h1v1.1h0c0.5-0.8,1.2-1.2,2.1-1.2c0.8,0,1.3,0.3,1.8,0.8S58.7,17,58.7,17.9z M57.7,17.9c0-0.6-0.2-1.2-0.5-1.6s-0.7-0.6-1.3-0.6c-0.6,0-1,0.2-1.3,0.6s-0.5,0.9-0.5,1.5v0.8c0,0.5,0.2,0.9,0.5,1.3s0.7,0.5,1.2,0.5c0.6,0,1-0.2,1.4-0.7S57.7,18.7,57.7,17.9z"/><path fill="#FFFFFF" d="M65.2,21.1h-0.9v-4.8c-0.1,0.1-0.2,0.4-0.4,0.7l-2.8,4.1h-1v-6H61v4.7l0.3-0.6l2.8-4.2h1V21.1z"/><path fill="#FFFFFF" d="M71.5,21.1h-1v-5.2h-1.4c-0.2,1.8-0.4,3.2-0.8,4s-0.9,1.3-1.6,1.3c-0.2,0-0.4,0-0.5-0.1v-0.8c0.1,0.1,0.3,0.1,0.4,0.1c0.9,0,1.4-1.8,1.7-5.3h3.2V21.1z"/><path fill="#FFFFFF" d="M78.9,18c0,1-0.3,1.7-0.8,2.3s-1.3,0.9-2.2,0.9c-0.9,0-1.6-0.3-2.1-0.8S73,19.1,73,18.1c0-1,0.3-1.8,0.8-2.4s1.3-0.9,2.2-0.9c0.9,0,1.6,0.3,2.1,0.8S78.9,17.1,78.9,18z M77.9,18.1c0-0.8-0.2-1.3-0.5-1.7s-0.8-0.6-1.4-0.6c-0.6,0-1.1,0.2-1.5,0.6s-0.5,1-0.5,1.7c0,0.7,0.2,1.3,0.5,1.7s0.8,0.6,1.5,0.6c0.6,0,1.1-0.2,1.4-0.6S77.9,18.8,77.9,18.1z"/><path fill="#FFFFFF" d="M88.1,21.1h-1.3l-2.7-3h0v3h-0.9v-3h0l-2.7,3h-1.3l3-3.1l-2.8-2.9h1.2l2.6,2.8h0v-2.8h0.9v2.8h0l2.6-2.8h1.2L85.1,18L88.1,21.1z"/><path fill="#FFFFFF" d="M93.6,18.3h-4.2c0,0.7,0.2,1.2,0.5,1.5s0.8,0.5,1.4,0.5c0.7,0,1.3-0.2,1.9-0.7v0.9c-0.5,0.4-1.2,0.6-2.1,0.6c-0.9,0-1.5-0.3-2-0.8s-0.7-1.3-0.7-2.3c0-0.6,0.1-1.1,0.4-1.6s0.6-0.9,1-1.1s0.9-0.4,1.4-0.4c0.8,0,1.4,0.3,1.8,0.8s0.7,1.2,0.7,2.1V18.3z M92.6,17.5c0-0.6-0.1-1-0.4-1.3s-0.6-0.5-1.1-0.5c-0.4,0-0.8,0.2-1.1,0.5s-0.5,0.7-0.6,1.3H92.6z"/><path fill="#FFFFFF" d="M100,21.1h-1v-2.7H96v2.7h-1v-6h1v2.5H99v-2.5h1V21.1z"/><path fill="#FFFFFF" d="M107,21.1h-0.9v-4.8c-0.1,0.1-0.2,0.4-0.4,0.7l-2.8,4.1h-1v-6h0.9v4.7l0.3-0.6l2.8-4.2h1V21.1z"/><path fill="#FFFFFF" d="M113.7,18.3h-4.2c0,0.7,0.2,1.2,0.5,1.5s0.8,0.5,1.4,0.5c0.7,0,1.3-0.2,1.9-0.7v0.9c-0.5,0.4-1.2,0.6-2.1,0.6c-0.9,0-1.5-0.3-2-0.8s-0.7-1.3-0.7-2.3c0-0.6,0.1-1.1,0.4-1.6s0.6-0.9,1-1.1s0.9-0.4,1.4-0.4c0.8,0,1.4,0.3,1.8,0.8s0.7,1.2,0.7,2.1V18.3z M112.7,17.5c0-0.6-0.1-1-0.4-1.3s-0.6-0.5-1.1-0.5c-0.4,0-0.8,0.2-1.1,0.5s-0.5,0.7-0.6,1.3H112.7z"/><path fill="#FFFFFF" d="M123.1,23.3h-0.8v-2.2h-4.5v2.2H117v-3h0.5c1-1.5,1.5-3.2,1.6-5.2h3.1v5.2h0.9V23.3z M121.3,20.3v-4.4H120c-0.1,1.6-0.6,3.1-1.4,4.4H121.3z"/><path fill="#FFFFFF" d="M129,21.1h-1v-5.2h-1.4c-0.2,1.8-0.4,3.2-0.8,4s-0.9,1.3-1.6,1.3c-0.2,0-0.4,0-0.5-0.1v-0.8c0.1,0.1,0.3,0.1,0.4,0.1c0.9,0,1.4-1.8,1.7-5.3h3.2V21.1z"/><path fill="#FFFFFF" d="M135,21.1h-1v-2.5h-0.8c-0.4,0-0.7,0.3-1.1,0.9l-0.8,1.5h-1.1l1-1.8c0.2-0.4,0.5-0.7,0.9-0.9c-0.5-0.1-0.8-0.2-1.1-0.5s-0.4-0.6-0.4-1.1c0-0.5,0.2-1,0.6-1.3s0.9-0.5,1.6-0.5h2.1V21.1z M134,17.8v-1.9h-1.1c-0.8,0-1.2,0.3-1.2,0.9c0,0.6,0.4,1,1.2,1H134z"/></g><g><path fill="#294172" d="M26.2,28.3c-0.2-0.1-2.2,0-2.6,0c0,0.9,0,3.4-0.1,4.1c-0.5,3.1-3.3,5.4-6.5,5.2c-0.3,0-0.8-0.1-0.9-0.1c-0.5,0-1.6-0.6-2-0.8c-2.6-1.8-3.5-5.2-1.9-8.1c0.2-0.3,0.4-0.6,0.6-0.8c0.1-0.1,0.1-0.1,0.1-0.2c0.6-0.7,1.5-1.3,2.4-1.6c0.7-0.3,1.8-0.4,2.5-0.4h2.8c0.1-0.4-0.1-3.1,0.1-4.1c0.1-0.8,0.4-1.6,0.8-2.3c0.7-1.1,1.5-1.9,2.9-2.4c2-0.8,3.3-0.2,3.6-0.3c0.5,0,1.6,0.6,2,0.8c0.3,0.2,0.4,0.3,0.6,0.5l0.8,1c0.8,1.1,1.4,2.8,1.1,4.6c-0.2,1.4-1.1,2.9-2.2,3.7c-1.1,0.8-2.2,1.3-3.7,1.4C26.9,28.2,26.3,28.3,26.2,28.3z M36,26.6c0.1-3.1-0.9-6.2-2.7-8.6c-0.3-0.4-0.5-0.6-0.8-0.8c-0.2-0.2-0.4-0.4-0.6-0.6c-0.1-0.1-0.1-0.1-0.2-0.2c-1.2-1-1.5-1.2-2.9-2c-1.5-0.8-3.3-1.3-5.2-1.3c-2.8-0.1-5.4,0.6-7.6,2c-1.1,0.7-2,1.5-2.8,2.5c-1.8,2.1-2.9,4.9-3.1,7.8c-0.1,1.1,0,2.2,0,3.2v6.6c0,1.2,0,1.8,0.6,2.7c0.4,0.6,1.1,1.1,2,1.2c0.5,0.1,1.1,0,1.6,0h8.1c1.1,0,2-0.1,3-0.2c2.5-0.5,4.8-1.7,6.7-3.5c0.6-0.6,0.8-0.8,1.3-1.5C34.9,31.7,35.8,29.3,36,26.6z"/><path fill="#FEFEFE" d="M18,25.4c-0.1,0.1-0.3,0.1-0.4,0.2c-1,0.6-1,1.9,0,2.5c0.1,0,0.1,0.1,0.2,0.1c0.2,0.1,0.1,0,0.3,0.1l0,0c0.1,0,1.4,0,1.7,0c1.3,0,1.1-0.1,1.1,2.2c0,0.5,0.1,1.1-0.1,1.6c-0.2,0.9-0.8,1.6-1.3,2c-0.8,0.6-1.5,0.6-2.7,0.5c-0.5,0-0.8,0-1.2,0.3c-0.6,0.4-0.8,1.3-0.1,2c0.1,0.1,0.3,0.2,0.4,0.4c0.1,0.1,0.1,0.1,0.2,0.1c0.1,0,0.2,0.1,0.3,0.1c0.1,0,0.6,0.1,0.9,0.1c3.2,0.2,6-2,6.5-5.2c0.1-0.8,0.1-3.2,0.1-4.1c0.4,0,2.5,0,2.6,0c0,0,0,0,0.1,0c0.2-0.1,0.2,0,0.5-0.1c0.1-0.1,0.3-0.1,0.4-0.3c0.2-0.2,0.4-0.6,0.4-1c0-0.6-0.3-1.1-0.8-1.3c-0.1-0.1-0.4-0.1-0.5-0.2c-0.1,0-1.4,0-1.6,0c-1.3,0-1.1,0.1-1.1-2.2c0-0.5,0-1.1,0.1-1.6c0.1-1,0.8-1.6,1.3-2c0.8-0.5,1.5-0.7,2.7-0.6c0.5,0.1,0.8,0,1.2-0.2c0.3-0.1,0.5-0.5,0.6-0.9c0.1-0.8-0.4-1.3-1.1-1.6h-0.1l-0.1-0.1l0,0c-0.4,0-1.5-0.6-3.6,0.3c-1.3,0.5-2.2,1.4-2.9,2.4c-0.4,0.7-0.8,1.5-0.8,2.3c-0.1,1.1,0,3.7-0.1,4.1H18V25.4z"/><path fill="#294172" d="M16.7,34.6c1.2,0.1,1.9,0.1,2.7-0.5c0.6-0.4,1.1-1.1,1.3-2c0.1-0.5,0.1-1.1,0.1-1.6c0-2.4,0.2-2.2-1.1-2.2c-0.3,0-1.5,0-1.7,0c-0.6,0.1-0.8,0-1.4,0.1c-1.1,0.4-2,1.2-2.2,2.5c-0.3,1.5,0.5,2.9,1.8,3.6C16.2,34.5,16.6,34.6,16.7,34.6z"/><path fill="#294172" d="M26.3,25.4c0.6,0,0.9,0,1.4-0.1c0.4-0.1,0.7-0.3,1.1-0.5c1.8-1.3,1.7-4-0.1-5.2c-0.3-0.2-0.4-0.3-0.8-0.4c-0.1-0.1-0.2-0.1-0.3-0.1c-1.1-0.1-1.9,0-2.7,0.6c-0.6,0.4-1.1,1.1-1.3,2c-0.1,0.5-0.1,1.1-0.1,1.6c0,2.4-0.1,2.2,1.1,2.2C24.9,25.4,26.2,25.4,26.3,25.4z"/><path fill="#3C6EB4" d="M16.2,37.4c-0.1-0.1-0.2-0.1-0.3-0.1c-0.1-0.1-0.1-0.1-0.2-0.1c-0.1-0.1-0.3-0.2-0.4-0.4c-0.6-0.7-0.4-1.6,0.1-2c0.4-0.2,0.7-0.3,1.2-0.3c-0.1-0.1-0.4-0.1-0.6-0.2c-1.3-0.6-2-2-1.8-3.6c0.3-1.2,1.1-2.1,2.2-2.5c0.5-0.1,0.8-0.1,1.4-0.1l0,0c-0.1-0.1-0.1,0-0.3-0.1c-0.1,0-0.1-0.1-0.2-0.1c-1-0.6-1-1.9,0-2.5c0.2-0.1,0.4-0.1,0.4-0.2c-0.8-0.1-1.8,0.1-2.5,0.4c-0.9,0.4-1.8,1-2.4,1.6c-0.1,0.1-0.1,0.1-0.1,0.2c-0.2,0.2-0.4,0.6-0.6,0.8c-1.6,2.9-0.7,6.4,1.9,8.1C14.6,36.9,15.8,37.4,16.2,37.4z"/><path fill="#3C6EB4" d="M27.6,19c0.1,0.1,0.2,0.1,0.3,0.1c0.4,0.1,0.5,0.2,0.8,0.4c1.8,1.2,1.8,3.9,0.1,5.2c-0.4,0.2-0.6,0.4-1.1,0.5c-0.5,0.1-0.8,0.1-1.4,0.1c0.1,0.1,0.4,0.1,0.5,0.2c0.5,0.3,0.8,0.7,0.8,1.3c0,0.4-0.2,0.8-0.4,1c-0.1,0.1-0.2,0.2-0.4,0.3c-0.3,0.1-0.3,0.1-0.5,0.1c-0.1,0,0,0-0.1,0c0.1,0,0.6,0,0.8,0c1.5-0.1,2.6-0.6,3.7-1.4c1.1-0.8,1.9-2.3,2.2-3.7c0.3-1.8-0.3-3.4-1.1-4.6l-0.8-1c-0.2-0.2-0.4-0.3-0.6-0.5c-0.4-0.3-1.5-0.8-2-0.8l0,0l0.1,0.1h0.1c0.6,0.2,1.2,0.8,1.1,1.6c-0.1,0.4-0.3,0.7-0.6,0.9C28.5,19,28.1,19,27.6,19z"/></g><g><path fill="#FFFFFF" d="M44.7,38.8V26.2h2.1V37h4.9v1.8H44.7z"/><path fill="#FFFFFF" d="M55.5,26.6c0,0.3-0.1,0.6-0.4,0.8s-0.5,0.3-0.9,0.3s-0.6-0.1-0.9-0.3S53,26.9,53,26.6c0-0.3,0.1-0.6,0.4-0.9s0.5-0.3,0.9-0.3c0.4,0,0.7,0.1,0.9,0.4S55.5,26.3,55.5,26.6z M53.2,38.8v-9h2v9H53.2z"/><path fill="#FFFFFF" d="M64,38.8v-5.1c0-0.8-0.1-1.5-0.4-1.9c-0.3-0.4-0.7-0.6-1.4-0.6c-0.6,0-1.1,0.2-1.5,0.7c-0.4,0.5-0.6,1-0.6,1.7v5.1h-2v-9h2v1.4h0c0.7-1.1,1.6-1.7,2.9-1.7c1,0,1.7,0.3,2.2,0.9S66,32,66,33.3v5.5H64z"/><path fill="#FFFFFF" d="M74.3,38.8v-1.4h0c-0.3,0.5-0.7,0.9-1.1,1.2c-0.5,0.3-1,0.4-1.6,0.4c-1,0-1.8-0.3-2.4-0.9s-0.8-1.6-0.8-2.8v-5.5h2.1V35c0,1.6,0.6,2.4,1.9,2.4c0.6,0,1.1-0.2,1.5-0.7s0.6-1,0.6-1.7v-5.2h2v9H74.3z"/><path fill="#FFFFFF" d="M83.5,34.3l3,4.5h-2.4l-1.6-2.7l-0.4-0.7h0L82,35.7l-1.8,3h-2.3l3.1-4.4L78,29.8h2.4l1.5,2.9c0.2,0.3,0.3,0.5,0.3,0.7h0c0-0.1,0.1-0.1,0.1-0.2s0.7-1.2,1.9-3.4h2.2L83.5,34.3z"/></g></svg>