<svg version="1.1" xmlns="http://www.w3.org/2000/svg" xmlns:xlink="http://www.w3.org/1999/xlink" x="0px" y="0px" width="144px" height="52px" viewBox="0 0 144 52" enable-background="new 0 0 144 52" xml:space="preserve"><rect fill="#231F20" width="144" height="52"/><g><path fill="#FFFFFF" d="M51.1,21.1h-1v-7.5h-4.3v7.5h-1v-8.4h6.3V21.1z"/><path fill="#FFFFFF" d="M58.7,17.9c0,1-0.2,1.8-0.7,2.4s-1.2,0.9-2,0.9c-0.8,0-1.4-0.3-1.8-1h0v3.6h-1v-8.8h1v1.1h0c0.5-0.8,1.2-1.2,2.1-1.2c0.8,0,1.3,0.3,1.8,0.8S58.7,17,58.7,17.9z M57.7,17.9c0-0.6-0.2-1.2-0.5-1.6s-0.7-0.6-1.3-0.6c-0.6,0-1,0.2-1.3,0.6s-0.5,0.9-0.5,1.5v0.8c0,0.5,0.2,0.9,0.5,1.3s0.7,0.5,1.2,0.5c0.6,0,1-0.2,1.4-0.7S57.7,18.7,57.7,17.9z"/><path fill="#FFFFFF" d="M65.2,21.1h-0.9v-4.8c-0.1,0.1-0.2,0.4-0.4,0.7l-2.8,4.1h-1v-6H61v4.7l0.3-0.6l2.8-4.2h1V21.1z"/><path fill="#FFFFFF" d="M71.5,21.1h-1v-5.2h-1.4c-0.2,1.8-0.4,3.2-0.8,4s-0.9,1.3-1.6,1.3c-0.2,0-0.4,0-0.5-0.1v-0.8c0.1,0.1,0.3,0.1,0.4,0.1c0.9,0,1.4-1.8,1.7-5.3h3.2V21.1z"/><path fill="#FFFFFF" d="M78.9,18c0,1-0.3,1.7-0.8,2.3s-1.3,0.9-2.2,0.9c-0.9,0-1.6-0.3-2.1-0.8S73,19.1,73,18.1c0-1,0.3-1.8,0.8-2.4s1.3-0.9,2.2-0.9c0.9,0,1.6,0.3,2.1,0.8S78.9,17.1,78.9,18z M77.9,18.1c0-0.8-0.2-1.3-0.5-1.7s-0.8-0.6-1.4-0.6c-0.6,0-1.1,0.2-1.5,0.6s-0.5,1-0.5,1.7c0,0.7,0.2,1.3,0.5,1.7s0.8,0.6,1.5,0.6c0.6,0,1.1-0.2,1.4-0.6S77.9,18.8,77.9,18.1z"/><path fill="#FFFFFF" d="M88.1,21.1h-1.3l-2.7-3h0v3h-0.9v-3h0l-2.7,3h-1.3l3-3.1l-2.8-2.9h1.2l2.6,2.8h0v-2.8h0.9v2.8h0l2.6-2.8h1.2L85.1,18L88.1,21.1z"/><path fill="#FFFFFF" d="M93.6,18.3h-4.2c0,0.7,0.2,1.2,0.5,1.5s0.8,0.5,1.4,0.5c0.7,0,1.3-0.2,1.9-0.7v0.9c-0.5,0.4-1.2,0.6-2.1,0.6c-0.9,0-1.5-0.3-2-0.8s-0.7-1.3-0.7-2.3c0-0.6,0.1-1.1,0.4-1.6s0.6-0.9,1-1.1s0.9-0.4,1.4-0.4c0.8,0,1.4,0.3,1.8,0.8s0.7,1.2,0.7,2.1V18.3z M92.6,17.5c0-0.6-0.1-1-0.4-1.3s-0.6-0.5-1.1-0.5c-0.4,0-0.8,0.2-1.1,0.5s-0.5,0.7-0.6,1.3H92.6z"/><path fill="#FFFFFF" d="M100,21.1h-1v-2.7H96v2.7h-1v-6h1v2.5H99v-2.5h1V21.1z"/><path fill="#FFFFFF" d="M107,21.1h-0.9v-4.8c-0.1,0.1-0.2,0.4-0.4,0.7l-2.8,4.1h-1v-6h0.9v4.7l0.3-0.6l2.8-4.2h1V21.1z"/><path fill="#FFFFFF" d="M113.7,18.3h-4.2c0,0.7,0.2,1.2,0.5,1.5s0.8,0.5,1.4,0.5c0.7,0,1.3-0.2,1.9-0.7v0.9c-0.5,0.4-1.2,0.6-2.1,0.6c-0.9,0-1.5-0.3-2-0.8s-0.7-1.3-0.7-2.3c0-0.6,0.1-1.1,0.4-1.6s0.6-0.9,1-1.1s0.9-0.4,1.4-0.4c0.8,0,1.4,0.3,1.8,0.8s0.7,1.2,0.7,2.1V18.3z M112.7,17.5c0-0.6-0.1-1-0.4-1.3s-0.6-0.5-1.1-0.5c-0.4,0-0.8,0.2-1.1,0.5s-0.5,0.7-0.6,1.3H112.7z"/><path fill="#FFFFFF" d="M123.1,23.3h-0.8v-2.2h-4.5v2.2H117v-3h0.5c1-1.5,1.5-3.2,1.6-5.2h3.1v5.2h0.9V23.3z M121.3,20.3v-4.4H120c-0.1,1.6-0.6,3.1-1.4,4.4H121.3z"/><path fill="#FFFFFF" d="M129,21.1h-1v-5.2h-1.4c-0.2,1.8-0.4,3.2-0.8,4s-0.9,1.3-1.6,1.3c-0.2,0-0.4,0-0.5-0.1v-0.8c0.1,0.1,0.3,0.1,0.4,0.1c0.9,0,1.4-1.8,1.7-5.3h3.2V21.1z"/><path fill="#FFFFFF" d="M135,21.1h-1v-2.5h-0.8c-0.4,0-0.7,0.3-1.1,0.9l-0.8,1.5h-1.1l1-1.8c0.2-0.4,0.5-0.7,0.9-0.9c-0.5-0.1-0.8-0.2-1.1-0.5s-0.4-0.6-0.4-1.1c0-0.5,0.2-1,0.6-1.3s0.9-0.5,1.6-0.5h2.1V21.1z M134,17.8v-1.9h-1.1c-0.8,0-1.2,0.3-1.2,0.9c0,0.6,0.4,1,1.2,1H134z"/></g><path fill="#FFFFFF" d="M12.2,21.3c0.9,0,1.7,0.8,1.7,1.7v6.8c0,0.9-0.8,1.7-1.7,1.7c-0.9,0-1.7-0.8-1.7-1.7V23C10.5,22,11.3,21.3,12.2,21.3z M33.8,21.3c0.9,0,1.7,0.8,1.7,1.7v6.8c0,0.9-0.8,1.7-1.7,1.7c-0.9,0-1.7-0.8-1.7-1.7V23C32.1,22,32.9,21.3,33.8,21.3z M15,21.3H31v11.9c0,0.9-0.8,1.7-1.7,1.7h-1.7v3.4c0,0.9-0.8,1.7-1.7,1.7c-0.9,0-1.7-0.8-1.7-1.7v-3.4h-2.3v3.4c0,0.9-0.8,1.7-1.7,1.7c-0.9,0-1.7-0.8-1.7-1.7v-3.4h-1.7c-0.9,0-1.7-0.8-1.7-1.7V21.3L15,21.3z M17,12.2c0.2-0.2,0.6-0.2,0.8,0l1.9,1.9c1.1-0.5,2.2-0.7,3.3-0.7c1.1,0,2.3,0.3,3.3,0.7l1.9-1.9c0.2-0.2,0.6-0.2,0.8,0c0.2,0.2,0.2,0.6,0,0.8l-1.6,1.6c2,1.2,3.6,3.3,3.6,5.5H15c0-2.3,1.5-4.3,3.6-5.5L17,13C16.8,12.7,16.8,12.4,17,12.2z M20.2,16.1c-0.6,0-1.1,0.5-1.1,1.1c0,0.6,0.5,1.1,1.1,1.1s1.1-0.5,1.1-1.1S20.8,16.1,20.2,16.1z M25.8,16.1c-0.6,0-1.1,0.5-1.1,1.1c0,0.6,0.5,1.1,1.1,1.1c0.6,0,1.1-0.5,1.1-1.1S26.5,16.1,25.8,16.1z"/><g><path fill="#FFFFFF" d="M54.1,38.8L53,35.6h-5l-1.1,3.2h-2.3l4.8-12.6h2.3l4.8,12.6H54.1z M50.5,28.1L50.5,28.1c-0.1,0.4-0.2,0.7-0.2,0.9l-1.7,4.9h3.9L50.6,29C50.6,28.8,50.5,28.5,50.5,28.1z"/><path fill="#FFFFFF" d="M63.8,38.8v-5.1c0-0.8-0.1-1.5-0.4-1.9c-0.3-0.4-0.7-0.6-1.4-0.6c-0.6,0-1.1,0.2-1.5,0.7c-0.4,0.5-0.6,1-0.6,1.7v5.1h-2v-9h2v1.4h0c0.7-1.1,1.6-1.7,2.9-1.7c1,0,1.7,0.3,2.2,0.9s0.8,1.5,0.8,2.8v5.5H63.8z"/><path fill="#FFFFFF" d="M74.5,38.8v-1.4h0c-0.6,1.1-1.6,1.6-3,1.6c-1.1,0-2-0.4-2.7-1.2s-1-1.9-1-3.3c0-1.5,0.4-2.7,1.1-3.6c0.7-0.9,1.7-1.3,3-1.3c0.6,0,1.1,0.1,1.5,0.3c0.4,0.2,0.8,0.6,1,1h0v-5.4h2v13.3H74.5z M74.5,33.5c0-0.6-0.2-1.2-0.6-1.6c-0.4-0.5-1-0.7-1.6-0.7c-0.8,0-1.4,0.3-1.8,0.8c-0.4,0.6-0.6,1.4-0.6,2.4c0,0.9,0.2,1.6,0.6,2.1c0.4,0.5,1,0.8,1.7,0.8c0.7,0,1.2-0.3,1.7-0.8c0.4-0.5,0.7-1.2,0.7-2V33.5z"/><path fill="#FFFFFF" d="M84.5,31.8c-0.1-0.1-0.3-0.1-0.5-0.2s-0.5-0.1-0.7-0.1c-0.6,0-1.1,0.3-1.4,0.8s-0.5,1.2-0.5,2v4.6h-2v-9h2v1.7h0c0.2-0.6,0.5-1.1,0.9-1.4s0.9-0.5,1.4-0.5c0.4,0,0.6,0,0.8,0.1V31.8z"/><path fill="#FFFFFF" d="M94.2,34.2c0,1.5-0.4,2.6-1.3,3.5s-2,1.3-3.4,1.3c-1.4,0-2.5-0.4-3.3-1.2s-1.2-2-1.2-3.4c0-1.5,0.4-2.7,1.3-3.5s2-1.3,3.5-1.3c1.4,0,2.5,0.4,3.3,1.2S94.2,32.8,94.2,34.2z M92.1,34.3c0-1-0.2-1.8-0.7-2.3c-0.4-0.5-1.1-0.8-1.8-0.8c-0.8,0-1.4,0.3-1.9,0.8s-0.7,1.3-0.7,2.3c0,1,0.2,1.7,0.7,2.2s1.1,0.8,1.9,0.8c0.8,0,1.4-0.3,1.8-0.8S92.1,35.3,92.1,34.3z"/><path fill="#FFFFFF" d="M98.6,26.6c0,0.3-0.1,0.6-0.4,0.8s-0.5,0.3-0.9,0.3s-0.6-0.1-0.9-0.3s-0.4-0.5-0.4-0.8c0-0.3,0.1-0.6,0.4-0.9s0.5-0.3,0.9-0.3c0.4,0,0.7,0.1,0.9,0.4C98.5,26,98.6,26.3,98.6,26.6z M96.3,38.8v-9h2v9H96.3z"/><path fill="#FFFFFF" d="M107.1,38.8v-1.4h0c-0.6,1.1-1.6,1.6-3,1.6c-1.1,0-2-0.4-2.7-1.2s-1-1.9-1-3.3c0-1.5,0.4-2.7,1.1-3.6c0.7-0.9,1.7-1.3,3-1.3c0.6,0,1.1,0.1,1.5,0.3s0.8,0.6,1,1h0v-5.4h2v13.3H107.1z M107.2,33.5c0-0.6-0.2-1.2-0.6-1.6c-0.4-0.5-1-0.7-1.6-0.7c-0.8,0-1.4,0.3-1.8,0.8c-0.4,0.6-0.6,1.4-0.6,2.4c0,0.9,0.2,1.6,0.6,2.1c0.4,0.5,1,0.8,1.7,0.8c0.7,0,1.2-0.3,1.7-0.8c0.4-0.5,0.7-1.2,0.7-2V33.5z"/></g></svg>