<svg version="1.1" xmlns="http://www.w3.org/2000/svg" x="0px" y="0px" width="144px" height="52px" viewBox="0 0 144 52" enable-background="new 0 0 144 52"><rect fill="#0078D3" width="144" height="52"/><g><g><path fill="#FFFFFF" d="M21.1,36.6l-11-1.5v-9.2h11V36.6z M21.1,25h-11v-8.7l11-1.5V25z M36,38.7l-14.1-2V25.9H36V38.7z M36,25H21.9V14.7l14.1-2V25z"/></g></g><path fill="#FFFFFF" d="M61,26l-3.6,12.8h-1.8l-2.6-9.4c-0.1-0.4-0.2-0.8-0.2-1.3h0c0,0.4-0.1,0.9-0.2,1.3l-2.6,9.4h-1.7L44.5,26h1.6l2.7,9.8c0.1,0.4,0.2,0.9,0.2,1.3h0c0-0.4,0.1-0.8,0.3-1.3l2.8-9.8h1.4l2.7,9.9c0.1,0.4,0.2,0.8,0.2,1.2h0c0-0.3,0.1-0.7,0.2-1.2l2.6-9.9L61,26L61,26z"/><path fill="#FFFFFF" d="M64.1,26.3c0,0.3-0.1,0.5-0.3,0.7s-0.4,0.3-0.7,0.3c-0.3,0-0.5-0.1-0.7-0.3s-0.3-0.4-0.3-0.7c0-0.3,0.1-0.5,0.3-0.7s0.4-0.3,0.7-0.3c0.3,0,0.5,0.1,0.7,0.3C64,25.9,64.1,26.1,64.1,26.3z M63.8,38.8h-1.5v-9.2h1.5V38.8z"/><path fill="#FFFFFF" d="M73.7,38.8h-1.5v-5.2c0-1.9-0.7-2.9-2.1-2.9c-0.7,0-1.3,0.3-1.8,0.8s-0.7,1.2-0.7,2.1v5.2h-1.5v-9.2h1.5v1.5h0c0.7-1.2,1.7-1.7,3-1.7c1,0,1.8,0.3,2.3,1c0.5,0.7,0.8,1.6,0.8,2.8L73.7,38.8L73.7,38.8z"/><path fill="#FFFFFF" d="M84.1,38.8h-1.5v-1.6h0c-0.7,1.2-1.7,1.8-3.1,1.8c-1.2,0-2.1-0.4-2.7-1.2c-0.7-0.8-1-1.9-1-3.3c0-1.5,0.4-2.7,1.1-3.7c0.8-0.9,1.8-1.4,3-1.4c1.2,0,2.2,0.5,2.7,1.5h0v-5.7h1.5V38.8z M82.6,34.6v-1.4c0-0.8-0.3-1.4-0.8-1.9c-0.5-0.5-1.1-0.8-1.8-0.8c-0.9,0-1.6,0.3-2.1,1c-0.5,0.7-0.8,1.6-0.8,2.7c0,1,0.2,1.9,0.7,2.5s1.1,0.9,2,0.9c0.8,0,1.5-0.3,2-0.9C82.4,36.3,82.6,35.5,82.6,34.6z"/><path fill="#FFFFFF" d="M94.7,34.2c0,1.5-0.4,2.6-1.2,3.5c-0.8,0.9-1.9,1.3-3.3,1.3c-1.3,0-2.4-0.4-3.2-1.3c-0.8-0.9-1.2-2-1.2-3.4c0-1.5,0.4-2.7,1.2-3.6s2-1.3,3.4-1.3c1.4,0,2.4,0.4,3.2,1.3C94.4,31.5,94.7,32.7,94.7,34.2z M93.3,34.2c0-1.2-0.3-2-0.8-2.6s-1.2-0.9-2.2-0.9c-0.9,0-1.7,0.3-2.2,0.9c-0.5,0.6-0.8,1.5-0.8,2.7c0,1.1,0.3,2,0.8,2.6c0.5,0.6,1.3,0.9,2.2,0.9c0.9,0,1.7-0.3,2.2-0.9S93.3,35.4,93.3,34.2z"/><path fill="#FFFFFF" d="M107.9,29.6l-2.7,9.2h-1.5l-1.9-6.6c-0.1-0.2-0.1-0.5-0.1-0.8h0c0,0.2-0.1,0.5-0.2,0.8l-2,6.6h-1.5l-2.7-9.2h1.5l1.9,6.9c0.1,0.2,0.1,0.5,0.1,0.8h0.1c0-0.2,0.1-0.5,0.2-0.8l2.1-6.9h1.3l1.9,6.9c0.1,0.2,0.1,0.5,0.1,0.8h0.1c0-0.3,0.1-0.6,0.1-0.8l1.9-6.9L107.9,29.6L107.9,29.6z"/><path fill="#FFFFFF" d="M114.5,36.3c0,0.8-0.3,1.4-0.9,1.9s-1.4,0.7-2.4,0.7c-0.9,0-1.6-0.2-2.3-0.6v-1.6c0.7,0.6,1.5,0.9,2.4,0.9c1.2,0,1.7-0.4,1.7-1.3c0-0.3-0.1-0.6-0.3-0.8c-0.2-0.2-0.7-0.5-1.5-0.9c-0.8-0.3-1.4-0.7-1.7-1.1s-0.5-0.9-0.5-1.6c0-0.8,0.3-1.4,0.9-1.9c0.6-0.5,1.4-0.8,2.3-0.8c0.7,0,1.4,0.1,1.9,0.4v1.5c-0.6-0.4-1.3-0.7-2.1-0.7c-0.5,0-0.9,0.1-1.2,0.4c-0.3,0.2-0.4,0.5-0.4,0.9c0,0.4,0.1,0.7,0.3,0.9c0.2,0.2,0.7,0.5,1.4,0.8c0.9,0.4,1.5,0.8,1.8,1.2C114.3,35.2,114.5,35.7,114.5,36.3z"/><path fill="#FFFFFF" d="M121.6,38.8V27.7c-0.3,0.3-0.7,0.5-1.3,0.9c-0.6,0.3-1.2,0.5-1.7,0.7v-1.5c0.6-0.2,1.3-0.5,2.1-0.9c0.7-0.4,1.3-0.8,1.8-1.2h0.6v13.1H121.6z"/><path fill="#FFFFFF" d="M134,32.3c0,2.1-0.4,3.8-1.1,4.9c-0.7,1.2-1.8,1.8-3.2,1.8c-1.3,0-2.3-0.6-3-1.7c-0.7-1.1-1.1-2.7-1.1-4.7c0-2.2,0.4-3.9,1.1-5.1c0.7-1.2,1.8-1.8,3.2-1.8C132.6,25.7,134,27.9,134,32.3z M132.5,32.5c0-3.7-0.9-5.5-2.6-5.5c-1.8,0-2.7,1.9-2.7,5.6c0,3.5,0.9,5.2,2.7,5.2C131.6,37.8,132.5,36,132.5,32.5z"/><g><path fill="#FFFFFF" d="M51.1,21.1h-1v-7.5h-4.3v7.5h-1v-8.4h6.3V21.1z"/><path fill="#FFFFFF" d="M58.7,17.9c0,1-0.2,1.8-0.7,2.4s-1.2,0.9-2,0.9c-0.8,0-1.4-0.3-1.8-1h0v3.6h-1v-8.8h1v1.1h0c0.5-0.8,1.2-1.2,2.1-1.2c0.8,0,1.3,0.3,1.8,0.8S58.7,17,58.7,17.9z M57.7,17.9c0-0.6-0.2-1.2-0.5-1.6s-0.7-0.6-1.3-0.6c-0.6,0-1,0.2-1.3,0.6s-0.5,0.9-0.5,1.5v0.8c0,0.5,0.2,0.9,0.5,1.3s0.7,0.5,1.2,0.5c0.6,0,1-0.2,1.4-0.7S57.7,18.7,57.7,17.9z"/><path fill="#FFFFFF" d="M65.2,21.1h-0.9v-4.8c-0.1,0.1-0.2,0.4-0.4,0.7l-2.8,4.1h-1v-6H61v4.7l0.3-0.6l2.8-4.2h1V21.1z"/><path fill="#FFFFFF" d="M71.5,21.1h-1v-5.2h-1.4c-0.2,1.8-0.4,3.2-0.8,4s-0.9,1.3-1.6,1.3c-0.2,0-0.4,0-0.5-0.1v-0.8c0.1,0.1,0.3,0.1,0.4,0.1c0.9,0,1.4-1.8,1.7-5.3h3.2V21.1z"/><path fill="#FFFFFF" d="M78.9,18c0,1-0.3,1.7-0.8,2.3s-1.3,0.9-2.2,0.9c-0.9,0-1.6-0.3-2.1-0.8S73,19.1,73,18.1c0-1,0.3-1.8,0.8-2.4s1.3-0.9,2.2-0.9c0.9,0,1.6,0.3,2.1,0.8S78.9,17.1,78.9,18z M77.9,18.1c0-0.8-0.2-1.3-0.5-1.7s-0.8-0.6-1.4-0.6c-0.6,0-1.1,0.2-1.5,0.6s-0.5,1-0.5,1.7c0,0.7,0.2,1.3,0.5,1.7s0.8,0.6,1.5,0.6c0.6,0,1.1-0.2,1.4-0.6S77.9,18.8,77.9,18.1z"/><path fill="#FFFFFF" d="M88.1,21.1h-1.3l-2.7-3h0v3h-0.9v-3h0l-2.7,3h-1.3l3-3.1l-2.8-2.9h1.2l2.6,2.8h0v-2.8h0.9v2.8h0l2.6-2.8h1.2L85.1,18L88.1,21.1z"/><path fill="#FFFFFF" d="M93.6,18.3h-4.2c0,0.7,0.2,1.2,0.5,1.5s0.8,0.5,1.4,0.5c0.7,0,1.3-0.2,1.9-0.7v0.9c-0.5,0.4-1.2,0.6-2.1,0.6c-0.9,0-1.5-0.3-2-0.8s-0.7-1.3-0.7-2.3c0-0.6,0.1-1.1,0.4-1.6s0.6-0.9,1-1.1s0.9-0.4,1.4-0.4c0.8,0,1.4,0.3,1.8,0.8s0.7,1.2,0.7,2.1V18.3z M92.6,17.5c0-0.6-0.1-1-0.4-1.3s-0.6-0.5-1.1-0.5c-0.4,0-0.8,0.2-1.1,0.5s-0.5,0.7-0.6,1.3H92.6z"/><path fill="#FFFFFF" d="M100,21.1h-1v-2.7H96v2.7h-1v-6h1v2.5H99v-2.5h1V21.1z"/><path fill="#FFFFFF" d="M107,21.1h-0.9v-4.8c-0.1,0.1-0.2,0.4-0.4,0.7l-2.8,4.1h-1v-6h0.9v4.7l0.3-0.6l2.8-4.2h1V21.1z"/><path fill="#FFFFFF" d="M113.7,18.3h-4.2c0,0.7,0.2,1.2,0.5,1.5s0.8,0.5,1.4,0.5c0.7,0,1.3-0.2,1.9-0.7v0.9c-0.5,0.4-1.2,0.6-2.1,0.6c-0.9,0-1.5-0.3-2-0.8s-0.7-1.3-0.7-2.3c0-0.6,0.1-1.1,0.4-1.6s0.6-0.9,1-1.1s0.9-0.4,1.4-0.4c0.8,0,1.4,0.3,1.8,0.8s0.7,1.2,0.7,2.1V18.3z M112.7,17.5c0-0.6-0.1-1-0.4-1.3s-0.6-0.5-1.1-0.5c-0.4,0-0.8,0.2-1.1,0.5s-0.5,0.7-0.6,1.3H112.7z"/><path fill="#FFFFFF" d="M123.1,23.3h-0.8v-2.2h-4.5v2.2H117v-3h0.5c1-1.5,1.5-3.2,1.6-5.2h3.1v5.2h0.9V23.3z M121.3,20.3v-4.4H120c-0.1,1.6-0.6,3.1-1.4,4.4H121.3z"/><path fill="#FFFFFF" d="M129,21.1h-1v-5.2h-1.4c-0.2,1.8-0.4,3.2-0.8,4s-0.9,1.3-1.6,1.3c-0.2,0-0.4,0-0.5-0.1v-0.8c0.1,0.1,0.3,0.1,0.4,0.1c0.9,0,1.4-1.8,1.7-5.3h3.2V21.1z"/><path fill="#FFFFFF" d="M135,21.1h-1v-2.5h-0.8c-0.4,0-0.7,0.3-1.1,0.9l-0.8,1.5h-1.1l1-1.8c0.2-0.4,0.5-0.7,0.9-0.9c-0.5-0.1-0.8-0.2-1.1-0.5s-0.4-0.6-0.4-1.1c0-0.5,0.2-1,0.6-1.3s0.9-0.5,1.6-0.5h2.1V21.1z M134,17.8v-1.9h-1.1c-0.8,0-1.2,0.3-1.2,0.9c0,0.6,0.4,1,1.2,1H134z"/></g></svg>