<svg version="1.1" xmlns="http://www.w3.org/2000/svg" x="0px" y="0px" viewBox="0 0 210 46" enable-background="new 0 0 210 46"><rect x="46" fill="none" width="164" height="46"/><rect fill="#D54848" width="46" height="46"/><path fill="#FFFFFF" d="M28,22.6c-0.3,0.3-0.7,0.7-1,1c-1.5,1.6-3,3.2-4.6,4.8c-0.8,0.8-1.5,1.5-2.5,2c-0.5,0.3-1.1,0.4-1.7,0.3c-0.9-0.3-1.4-1-1.4-2.1c0.1-1,0.4-2.1,0.8-3c0.6-1.4,1.3-2.7,1.9-4.1c0.8-1.6,1.5-3.3,2.3-5c0.3-0.5,0.3-1.1,0.5-1.7c0-0.1,0-0.3,0-0.3s-0.1,0-0.1-0.1c-0.2,0.2-0.4,0.3-0.5,0.6c-0.8,1-1.5,2.1-2.3,3.2s-1.6,2.3-2.4,3.3c-0.3,0.4-0.8,0.9-1.3,1.1c-0.9,0.6-2,0.1-2.4-1c-0.3-0.9,0-1.5,0.3-2.3c0.5-1.1,1.2-2.2,1.8-3.3c0.3-0.6,0.5-1.2,0.5-1.9c0-0.4-0.3-0.8-0.6-1.1c-0.3-0.2-0.6-0.2-0.8,0c-0.6,0.3-1.1,0.8-1.4,1.3c-0.2,0.3-0.5,0.3-0.8,0.3c-0.3-0.2-0.4-0.5-0.3-0.9c0.5-0.9,1.3-1.5,2.2-1.9c1-0.4,1.9,0,2.5,1c0.4,0.7,0.5,1.5,0.3,2.3c-0.3,0.8-0.5,1.5-0.8,2.1c-0.4,0.9-0.9,1.7-1.3,2.6c-0.2,0.3-0.2,0.7-0.3,1c0,0.2,0.1,0.3,0.2,0.4c0,0,0.3-0.1,0.3-0.2c0.4-0.4,0.9-0.9,1.3-1.5c1-1.4,1.9-2.8,2.9-4.3c0.5-0.7,1-1.4,1.6-2.1c0.3-0.4,0.8-0.8,1.4-0.9c0.8-0.2,1.7,0.5,1.8,1.5c0.1,0.7,0,1.3-0.3,1.9c-0.5,1.4-1,2.6-1.5,3.9c-0.8,2-1.8,3.9-2.6,6c-0.3,0.7-0.5,1.5-0.7,2.2c-0.1,0.2,0,0.3-0.1,0.5c0.3-0.2,0.5-0.3,0.8-0.4c1-0.8,1.8-1.6,2.6-2.6c1.4-1.5,2.7-2.9,4.1-4.4c0.4-0.5,1-0.9,1.6-1.2c1.2-0.4,2.2,0.1,2.5,1.4c0.1,0.5,0.1,1.1-0.1,1.6c-0.3,1.4-0.9,2.7-1.4,4c-0.5,1.2-0.9,2.4-1.4,3.6c-0.1,0.3-0.2,0.7-0.2,1c0,0.2,0.1,0.3,0.2,0.3c0.3,0,0.6,0,0.8-0.1c0.8-0.3,1.4-0.9,2.1-1.5c0.4-0.4,0.9-0.9,1.4-1.3c0.3-0.3,0.7-0.3,1,0s0.6,0.6,0.8,0.9s0.3,0.6,0,0.9c-1.2,1.1-2.3,2.3-3.8,3.1c-1,0.5-2,0.9-3.1,0.4c-1.5-0.5-2.1-1.7-1.9-3.2c0.3-1.3,0.8-2.5,1.3-3.7c0.6-1.4,1.2-2.7,1.7-4.1c0.1-0.2,0.1-0.3,0.2-0.5C28,22.7,28,22.6,28,22.6z"/><g><path fill="#FFFFFF" d="M68.6,19.4v-1.2l0,0c-0.6,0.9-1.4,1.4-2.5,1.4c-0.8,0-1.5-0.2-2-0.7s-0.7-1.1-0.7-1.8c0-0.8,0.2-1.4,0.7-1.9s1.2-0.8,2.1-0.9l2.5-0.3c0-1.1-0.5-1.7-1.6-1.7c-0.5,0-1,0.1-1.5,0.3s-0.9,0.4-1.3,0.7v-1.7c0.3-0.2,0.8-0.4,1.4-0.5c0.6-0.2,1.2-0.2,1.6-0.2c1.1,0,1.9,0.3,2.4,0.8c0.5,0.6,0.8,1.4,0.8,2.5v5.3h-1.9V19.4z M65.3,16.9c0,0.4,0.1,0.7,0.4,0.9s0.6,0.3,1,0.3c0.6,0,1-0.2,1.4-0.6s0.6-0.9,0.6-1.5v-0.8l-1.8,0.2c-0.6,0.1-1,0.2-1.2,0.4C65.4,16.1,65.3,16.4,65.3,16.9z"/><path fill="#FFFFFF" d="M78.2,19.4v-3.6h-3.7v3.6h-1.9V11h1.9v3.3h3.7V11h1.9v8.4H78.2z"/><path fill="#FFFFFF" d="M84.6,12.5v6.9h-1.9V11h4.9v1.5H84.6z"/><path fill="#FFFFFF" d="M93.4,19.4v-6.9h-1.9c-0.2,1.8-0.4,3.2-0.7,4.2c-0.3,1-0.6,1.7-1.1,2.1c-0.4,0.4-1,0.7-1.8,0.7c-0.4,0-0.7,0-0.9-0.1V18c0.1,0,0.3,0.1,0.5,0.1c0.4,0,0.8-0.2,1.1-0.7c0.3-0.5,0.5-1.2,0.7-2.2s0.4-2.4,0.6-4.2h5.4v8.4H93.4z"/><path fill="#FFFFFF" d="M103.8,19.4v-5.9l-4.4,5.9h-1.6V11h1.8v5.7l4.2-5.7h1.7v8.4C105.5,19.4,103.8,19.4,103.8,19.4z"/><path fill="#FFFFFF" d="M114.1,19.4v-5.9l-4.4,5.9h-1.6V11h1.8v5.7l4.2-5.7h1.7v8.4C115.8,19.4,114.1,19.4,114.1,19.4z M115.2,7.3c0,0.3-0.1,0.7-0.3,1c-0.1,0.3-0.3,0.6-0.6,0.8c-0.3,0.2-0.6,0.4-0.9,0.5c-0.4,0.1-0.8,0.2-1.3,0.2s-0.9-0.1-1.3-0.2c-0.4-0.1-0.7-0.3-0.9-0.5s-0.5-0.5-0.6-0.8s-0.2-0.6-0.3-1h1.5c0.1,0.4,0.2,0.8,0.5,1s0.6,0.3,1.1,0.3l0,0c0.5,0,0.8-0.1,1.1-0.4s0.4-0.6,0.5-1L115.2,7.3L115.2,7.3z"/><path fill="#FFFFFF" d="M124.3,19c-0.6,0.4-1.4,0.6-2.4,0.6c-0.8,0-1.5-0.2-2.2-0.5c-0.6-0.4-1.1-0.9-1.5-1.5s-0.5-1.4-0.5-2.2c0-0.9,0.2-1.7,0.5-2.4s0.9-1.2,1.6-1.6s1.5-0.6,2.4-0.6c0.4,0,0.7,0,1.1,0.1s0.7,0.2,0.9,0.3V13c-0.6-0.5-1.3-0.7-1.9-0.7c-0.8,0-1.4,0.3-1.9,0.8s-0.7,1.2-0.7,2.1c0,0.9,0.2,1.6,0.7,2.1s1.1,0.7,1.9,0.7c0.3,0,0.6-0.1,1-0.2s0.7-0.3,1-0.5V19z"/><path fill="#FFFFFF" d="M131.5,19.4l-3.3-4.1l0,0v4.1h-1.9V11h1.9v3.8l0,0l3.1-3.8h2.4l-3.6,4l3.9,4.4H131.5z"/><path fill="#FFFFFF" d="M141.1,19.4v-5.9l-4.4,5.9h-1.6V11h1.8v5.7l4.2-5.7h1.7v8.4C142.8,19.4,141.1,19.4,141.1,19.4z"/><path fill="#FFFFFF" d="M151.4,19.4v-5.9l-4.4,5.9h-1.6V11h1.8v5.7l4.2-5.7h1.7v8.4C153.1,19.4,151.4,19.4,151.4,19.4z M152.5,7.3c0,0.3-0.1,0.7-0.3,1c-0.1,0.3-0.3,0.6-0.6,0.8s-0.6,0.4-0.9,0.5c-0.4,0.1-0.8,0.2-1.3,0.2s-0.9-0.1-1.3-0.2c-0.4-0.1-0.7-0.3-0.9-0.5c-0.3-0.2-0.5-0.5-0.6-0.8s-0.2-0.6-0.3-1h1.5c0.1,0.4,0.2,0.8,0.5,1s0.6,0.3,1.1,0.3l0,0c0.5,0,0.8-0.1,1.1-0.4c0.3-0.2,0.4-0.6,0.5-1L152.5,7.3L152.5,7.3z"/><path fill="#FFFFFF" d="M72.1,32c0,0.9-0.2,1.7-0.5,2.4s-0.9,1.2-1.5,1.6c-0.6,0.4-1.4,0.5-2.2,0.5c-1.4,0-2.4-0.5-3.1-1.4s-1.1-2.2-1.1-4c0-1.7,0.2-3,0.6-4c0.4-1,1-1.7,1.9-2.2c0.3-0.2,0.7-0.3,1.2-0.4s1.1-0.2,1.8-0.3c1-0.1,1.7-0.3,2-0.6v1.6c-0.4,0.3-1,0.4-1.8,0.5c-1,0.1-1.6,0.2-2,0.3c-0.3,0.1-0.6,0.3-0.9,0.5s-0.4,0.6-0.6,1c-0.1,0.4-0.2,1-0.3,1.6l0,0c0.3-0.4,0.7-0.8,1.2-1s1-0.4,1.6-0.4c1.1,0,2,0.4,2.7,1.1C71.8,29.6,72.1,30.7,72.1,32z M70.1,32.1c0-0.9-0.2-1.6-0.6-2.1s-0.9-0.7-1.6-0.7c-0.5,0-0.9,0.1-1.3,0.4s-0.7,0.6-0.9,1c0,0.3,0,0.6,0,1.1c0,1,0.2,1.8,0.6,2.3c0.4,0.6,1,0.8,1.7,0.8s1.2-0.3,1.6-0.8C69.9,33.6,70.1,32.9,70.1,32.1z"/><path fill="#FFFFFF" d="M75.3,32.6c0,0.8,0.3,1.4,0.7,1.8s1,0.6,1.8,0.6c0.5,0,0.9-0.1,1.4-0.2c0.4-0.2,0.8-0.3,1.2-0.6v1.6c-0.3,0.2-0.7,0.4-1.3,0.5c-0.5,0.1-1.1,0.2-1.7,0.2c-1.3,0-2.3-0.4-3-1.1c-0.7-0.8-1.1-1.8-1.1-3.2c0-0.9,0.2-1.7,0.5-2.4s0.8-1.2,1.4-1.6s1.3-0.6,2-0.6c1.2,0,2.1,0.4,2.7,1.1s1,1.7,1,3v0.9H75.3z M79.2,31.1c0-0.7-0.2-1.2-0.5-1.5c-0.3-0.4-0.8-0.5-1.3-0.5s-1,0.2-1.3,0.6c-0.4,0.4-0.6,0.9-0.7,1.5h3.8V31.1z"/><path fill="#FFFFFF" d="M82.2,36v-1.6c0.9,0.4,1.8,0.6,2.7,0.6c0.7,0,1.2-0.1,1.6-0.3s0.5-0.5,0.5-0.9c0-0.8-0.8-1.2-2.4-1.2c-0.6,0-1,0-1.3,0v-1.4c0.3,0,0.7,0,1.3,0c0.7,0,1.2-0.1,1.5-0.3s0.6-0.5,0.6-0.9c0-0.3-0.2-0.6-0.5-0.8c-0.3-0.2-0.7-0.3-1.3-0.3c-0.7,0-1.5,0.2-2.2,0.5v-1.6c0.8-0.2,1.6-0.4,2.5-0.4c1.1,0,1.9,0.2,2.6,0.6c0.6,0.4,1,1,1,1.7c0,0.5-0.2,0.9-0.5,1.2c-0.3,0.3-0.7,0.6-1.3,0.7l0,0c0.7,0.1,1.2,0.4,1.6,0.7s0.5,0.8,0.5,1.4c0,0.8-0.3,1.4-1,1.8c-0.7,0.5-1.6,0.7-2.8,0.7C84,36.4,83.1,36.3,82.2,36z"/><path fill="#FFFFFF" d="M102.9,31.8c0,1.4-0.3,2.5-1,3.4s-1.6,1.3-2.8,1.3c-1,0-1.8-0.4-2.4-1.3l0,0v4.9h-1.9V27.8h1.9v1.4l0,0c0.7-1,1.6-1.6,2.8-1.6c1.1,0,1.9,0.4,2.5,1.1C102.6,29.5,102.9,30.5,102.9,31.8z M100.9,31.8c0-0.8-0.2-1.5-0.6-1.9s-0.9-0.7-1.6-0.7s-1.2,0.2-1.6,0.7s-0.6,1.1-0.6,1.8v1.1c0,0.6,0.2,1.1,0.6,1.5s0.9,0.6,1.5,0.6c0.7,0,1.3-0.3,1.7-0.8C100.7,33.5,100.9,32.8,100.9,31.8z"/><path fill="#FFFFFF" d="M106.1,32.6c0,0.8,0.3,1.4,0.7,1.8s1,0.6,1.8,0.6c0.5,0,0.9-0.1,1.4-0.2c0.4-0.2,0.8-0.3,1.2-0.6v1.6c-0.3,0.2-0.7,0.4-1.3,0.5c-0.5,0.1-1.1,0.2-1.7,0.2c-1.3,0-2.3-0.4-3-1.1c-0.7-0.8-1.1-1.8-1.1-3.2c0-0.9,0.2-1.7,0.5-2.4s0.8-1.2,1.4-1.6s1.3-0.6,2-0.6c1.2,0,2.1,0.4,2.7,1.1s1,1.7,1,3v0.9H106.1z M110,31.1c0-0.7-0.2-1.2-0.5-1.5c-0.3-0.4-0.8-0.5-1.3-0.5s-1,0.2-1.3,0.6c-0.4,0.4-0.6,0.9-0.7,1.5h3.8V31.1z"/><path fill="#FFFFFF" d="M115.5,29.3v6.9h-1.9v-8.4h4.9v1.5C118.5,29.3,115.5,29.3,115.5,29.3z"/><path fill="#FFFFFF" d="M126,36.2v-5.9l-4.4,5.9H120v-8.4h1.8v5.7l4.2-5.7h1.7v8.4C127.7,36.2,126,36.2,126,36.2z"/><path fill="#FFFFFF" d="M136.3,35.9c-0.6,0.4-1.4,0.6-2.4,0.6c-0.8,0-1.5-0.2-2.2-0.5c-0.6-0.4-1.1-0.9-1.5-1.5s-0.5-1.4-0.5-2.2c0-0.9,0.2-1.7,0.5-2.4s0.9-1.2,1.6-1.6s1.5-0.6,2.4-0.6c0.4,0,0.7,0,1.1,0.1c0.4,0.1,0.7,0.2,0.9,0.3v1.8c-0.6-0.5-1.3-0.7-1.9-0.7c-0.8,0-1.4,0.3-1.9,0.8s-0.7,1.2-0.7,2.1c0,0.9,0.2,1.6,0.7,2.1s1.1,0.7,1.9,0.7c0.3,0,0.6-0.1,1-0.2s0.7-0.3,1-0.5L136.3,35.9L136.3,35.9z"/><path fill="#FFFFFF" d="M141.3,29.3v6.9h-1.9v-6.9h-2.3v-1.5h6.5v1.5C143.6,29.3,141.3,29.3,141.3,29.3z"/><path fill="#FFFFFF" d="M153.3,31.8c0,1.4-0.3,2.5-1,3.4s-1.6,1.3-2.8,1.3c-1,0-1.8-0.4-2.4-1.3l0,0v4.9h-1.9V27.8h1.9v1.4l0,0c0.7-1,1.6-1.6,2.8-1.6c1.1,0,1.9,0.4,2.5,1.1C153,29.5,153.3,30.5,153.3,31.8z M151.3,31.8c0-0.8-0.2-1.5-0.6-1.9c-0.4-0.5-0.9-0.7-1.6-0.7s-1.2,0.2-1.6,0.7c-0.4,0.5-0.6,1.1-0.6,1.8v1.1c0,0.6,0.2,1.1,0.6,1.5c0.4,0.4,0.9,0.6,1.5,0.6c0.7,0,1.3-0.3,1.7-0.8C151.1,33.5,151.3,32.8,151.3,31.8z"/><path fill="#FFFFFF" d="M159.3,36.2V35l0,0c-0.6,0.9-1.4,1.4-2.5,1.4c-0.8,0-1.5-0.2-2-0.7s-0.7-1.1-0.7-1.8c0-0.8,0.2-1.4,0.7-1.9s1.2-0.8,2.1-0.9l2.5-0.3c0-1.1-0.5-1.7-1.6-1.7c-0.5,0-1,0.1-1.5,0.3c-0.5,0.2-0.9,0.4-1.3,0.7v-1.7c0.3-0.2,0.8-0.4,1.4-0.5c0.6-0.2,1.2-0.2,1.6-0.2c1.1,0,1.9,0.3,2.4,0.8s0.8,1.4,0.8,2.5v5.3L159.3,36.2L159.3,36.2z M156,33.7c0,0.4,0.1,0.7,0.4,0.9s0.6,0.3,1,0.3c0.6,0,1-0.2,1.4-0.6s0.6-0.9,0.6-1.5V32l-1.8,0.2c-0.6,0.1-1,0.2-1.2,0.4C156.1,33,156,33.3,156,33.7z"/><path fill="#FFFFFF" d="M170.6,39.3v-3.1h-7.3v-8.4h1.9v6.9h3.7v-6.9h1.9v6.9h1.4v4.6H170.6z"/><path fill="#FFFFFF" d="M179.7,36.2v-5.9l-4.4,5.9h-1.6v-8.4h1.8v5.7l4.2-5.7h1.7v8.4C181.4,36.2,179.7,36.2,179.7,36.2z"/><path fill="#FFFFFF" d="M190,36.2v-5.9l-4.4,5.9H184v-8.4h1.8v5.7l4.2-5.7h1.7v8.4C191.7,36.2,190,36.2,190,36.2z"/></g></svg>