<svg version="1.1" xmlns="http://www.w3.org/2000/svg" x="0px" y="0px" width="640px" height="480px" viewBox="0 0 640 480" enable-background="new 0 0 640 480"><rect fill="#F03B4C" width="640" height="480"/><path fill="#FFFFFF" d="M353.054,319c-2.433,0-4.809-0.399-7.168-1.191c-10.363-3.53-14.911-11.693-12.811-22.986
	c1.677-8.819,5.186-17.125,8.579-25.158l0.12-0.283c2.355-5.545,4.687-11.202,6.941-16.673c1.616-3.919,3.229-7.834,4.863-11.741
	c0.294-0.711,0.491-1.474,0.698-2.279c0.071-0.277,0.142-0.554,0.218-0.828h-0.002c-0.746,0.718-1.503,1.425-2.26,2.134
	c-1.481,1.386-3.013,2.819-4.447,4.321c-3.849,4.069-7.677,8.165-11.506,12.261c-6.293,6.734-12.803,13.7-19.319,20.436
	c-4.59,4.744-10.229,10.035-17.261,13.314c-4.193,2.034-7.987,2.567-11.587,1.634c-6.566-1.722-10.085-7.24-9.659-15.136
	c0.359-7.349,2.861-14.177,5.511-20.462c2.74-6.456,5.689-12.927,8.539-19.184c1.349-2.96,2.698-5.92,4.029-8.886
	c1.345-2.984,2.698-5.964,4.051-8.942c3.728-8.211,7.583-16.701,11.183-25.11c1.117-2.568,1.861-5.368,2.581-8.076
	c0.323-1.217,0.647-2.432,1.002-3.631c0.146-0.485,0.163-1.044,0.18-1.635c0.003-0.076,0.005-0.153,0.007-0.228
	c-0.251,0.245-0.507,0.49-0.765,0.735c-0.875,0.832-1.779,1.692-2.473,2.636c-5.17,7.245-10.289,14.497-15.406,21.748
	c-1.463,2.047-2.911,4.097-4.359,6.149c-3.964,5.614-8.062,11.419-12.348,16.936c-2.35,2.991-5.457,5.708-8.987,7.861
	c-3.034,1.888-6.415,2.267-9.519,1.066c-3.381-1.311-6.012-4.349-7.219-8.336c-1.841-6.093,0.099-11.501,2.241-15.987
	c2.047-4.252,4.288-8.498,6.455-12.605c1.782-3.377,3.625-6.867,5.354-10.349c1.866-3.755,3.665-7.81,3.375-12.432
	c-0.166-2.844-1.386-5.187-3.628-6.963c-1.362-1.044-2.917-1.025-5.191,0.064c-3.524,1.65-6.562,4.366-9.858,8.808
	c-1.613,2.177-3.819,2.851-5.759,1.756c-1.239-0.738-2.068-1.793-2.344-2.979c-0.264-1.135-0.024-2.333,0.695-3.464
	c4.194-6.601,9.133-10.931,15.096-13.237c6.962-2.719,13.291-0.256,17.811,6.94c3.133,5.015,3.819,10.453,2.038,16.165
	c-1.625,5.29-3.835,10.305-5.957,14.988c-1.439,3.124-3.021,6.243-4.551,9.258c-1.444,2.843-2.937,5.784-4.291,8.697
	c-0.941,2.094-1.233,4.534-1.514,6.892c-0.086,0.666,0.351,1.623,0.941,2.174c0.329-0.015,1.246-0.372,1.591-0.764
	c0.649-0.691,1.297-1.362,1.945-2.033c2.325-2.408,4.729-4.898,6.62-7.663c3.624-5.295,7.188-10.756,10.635-16.038
	c2.856-4.379,5.811-8.906,8.79-13.324c3.285-4.831,6.896-9.607,10.736-14.195c3.054-3.569,6.109-5.553,9.616-6.248
	c2.804-0.54,5.639,0.184,7.986,2.036c2.63,2.074,4.281,5.288,4.529,8.817c0.36,4.687-0.218,9.187-1.721,13.371
	c-3.248,8.921-6.607,18.144-10.421,27.079c-2.913,6.88-5.995,13.813-8.974,20.518c-2.968,6.681-6.038,13.588-8.939,20.438
	c-1.535,3.662-2.616,7.589-3.661,11.386c-0.375,1.361-0.749,2.719-1.143,4.066c-0.184,0.602-0.216,1.326-0.255,2.243
	c-0.005,0.112-0.01,0.225-0.016,0.342c0.351-0.203,0.689-0.392,1.017-0.578c1.158-0.653,2.159-1.218,3.053-1.904
	c6.825-5.154,12.707-11.663,17.897-17.408c8.211-9.092,17.782-19.647,27.462-29.85c3.562-3.78,7.277-6.43,11.356-8.097
	c3.982-1.618,7.993-1.52,11.29,0.275c3.279,1.785,5.581,5.102,6.487,9.34c0.893,4.042,0.266,7.98-0.463,11.3
	c-1.651,7.583-4.631,14.821-7.512,21.819c-0.81,1.968-1.62,3.935-2.401,5.912c-3.075,7.825-6.118,15.832-9.302,24.476
	c-0.489,1.377-0.733,2.912-0.971,4.398c-0.123,0.771-0.246,1.54-0.402,2.298c-0.082,0.416-0.028,0.768,0.156,0.985
	c0.188,0.224,0.473,0.249,0.674,0.243c1.891-0.061,3.776-0.122,5.362-0.736c5.428-2.222,9.764-6.235,13.958-10.116
	c2.213-2.096,4.381-4.291,6.478-6.415c0.877-0.891,1.755-1.779,2.639-2.664c2.745-2.746,5.094-2.764,7.853-0.067
	c1.836,1.819,3.913,3.877,5.891,5.96c1.131,1.023,1.759,2.243,1.787,3.498c0.027,1.192-0.493,2.352-1.505,3.356l-1.144,1.145
	c-7.451,7.455-15.156,15.164-24.689,20.35C362.396,317.594,357.621,319,353.054,319z"/></svg>
