<svg version="1.1" xmlns="http://www.w3.org/2000/svg" x="0px" y="0px" width="640px" height="480px" viewBox="0 0 640 480" enable-background="new 0 0 640 480"><rect fill="#45668E" width="640" height="480"/><path fill="#FEFEFE" d="M288.3,253.9c27.1,0,62.6-6,61.8,26.7c-0.7,30.5-35.7,26.3-61.9,26.3L288.3,253.9L288.3,253.9z M288.3,172.9c20.9,0,49-4.3,48.5,21.9c-0.5,26-25.7,22.8-48.5,22.8V172.9L288.3,172.9z M361.7,229.4c0.8-1.5,3.7-2.3,5.3-3.3c13.6-8.1,22.1-20.9,23.6-37.6c2.2-23.7-8.6-37.7-23.4-45.7c-17.3-9.1-40.3-8.8-61.8-8.8H235v211.9c27.6,0.2,55.1,0,82.7,0c27.6,0,44.2-2.2,65.2-17.6c14.1-10.4,25.9-32.9,20.9-59.4c-3.2-16.7-14.1-28.5-27.6-34.4C374.1,233.5,362.3,229.7,361.7,229.4L361.7,229.4z"/></svg>