<svg version="1.1" xmlns="http://www.w3.org/2000/svg" x="0px" y="0px" viewBox="0 0 200 200" enable-background="new 0 0 200 200"><rect fill="none" width="200" height="200"/><circle opacity="0.9" fill="#F03B4C" enable-background="new  " cx="100" cy="100" r="100"/><g><path id="XMLID_5_" fill="#191919" d="M117.9,118.3c-1.3,0-2.5-0.2-3.8-0.6c-5.4-1.8-7.9-6.2-6.7-12c0.9-4.5,2.7-8.7,4.4-12.7c1.2-2.9,2.4-5.6,3.5-8.4c0.8-2,1.7-4,2.5-5.9v-0.1c-0.8,0.7-1.5,1.4-2.3,2.2c-1.9,2-3.9,4.1-5.8,6.1c-3.2,3.4-6.5,6.9-9.8,10.3c-2.3,2.4-5.2,5-8.9,6.7c-2.2,1.1-4.2,1.3-6.1,0.8c-3.6-0.9-5.4-3.9-5.2-8c0.2-3.5,1.2-6.7,2.8-10.4c1.4-3.2,2.8-6.4,4.3-9.4c0.7-1.5,1.4-3.1,2.1-4.6l1.7-3.8c2-4.4,4-8.8,6-13.3c0.6-1.3,0.9-2.7,1.3-4c0.1-0.5,0.3-1,0.4-1.4c-0.3,0.3-0.5,0.6-0.8,0.9c-2.6,3.7-5.2,7.3-7.8,10.9c-0.8,1.1-1.6,2.2-2.4,3.3c-2,2.7-4,5.6-6.1,8.3c-1.3,1.6-2.9,3-4.7,4c-1.7,1-3.5,1.2-5.2,0.5c-1.8-0.7-3.2-2.3-3.8-4.4c-1-3.2,0.1-6.1,1.1-8.3c1-2.1,2.1-4.2,3.2-6.2c0.9-1.8,1.9-3.5,2.8-5.3c0.9-1.9,1.8-3.8,1.7-6c-0.1-1.3-0.6-2.4-1.7-3.2c-0.5-0.4-1.2-0.4-2.2,0.1c-2.2,1-3.7,2.7-4.9,4.3c-0.9,1.3-2.2,1.6-3.4,1c-0.8-0.5-1.2-1.1-1.4-1.8c-0.2-0.7,0-1.4,0.4-2c2.1-3.3,4.7-5.6,7.8-6.8c3.7-1.4,7.2-0.1,9.5,3.7c1.6,2.6,2,5.5,1.1,8.5c-0.8,2.7-2,5.4-3.1,7.6c-0.7,1.5-1.5,3-2.2,4.5c-0.8,1.5-1.5,3-2.2,4.5c-0.4,0.9-0.5,1.9-0.7,3v0.3c0,0.1,0.1,0.3,0.2,0.5c0.1-0.1,0.3-0.1,0.4-0.2c0.4-0.4,0.7-0.8,1.1-1.2c1.1-1.2,2.3-2.4,3.2-3.7c1.8-2.6,3.5-5.2,5.2-7.8c1.5-2.3,3.1-4.6,4.6-6.9c1.8-2.6,3.6-5,5.5-7.1c1.7-1.9,3.3-2.9,5.1-3.2c1.6-0.3,3.2,0.1,4.4,1.2c1.4,1.1,2.2,2.8,2.4,4.6c0.2,2.4-0.1,4.7-0.9,6.9l-0.5,1.4c-1.5,4-3.1,8.2-4.8,12.1c-1.5,3.4-3,6.8-4.5,10.2c-1.5,3.4-3.1,6.8-4.6,10.3c-0.8,1.9-1.4,4-1.9,6c-0.2,0.6-0.3,1.1-0.5,1.7c0,0.1-0.1,0.3-0.1,0.4c0.5-0.3,1-0.6,1.4-0.8c3.3-2.5,6.2-5.6,9-8.7c4.4-4.8,9.1-10,13.9-15c1.8-1.9,3.8-3.3,5.9-4.1c2.2-0.9,4.3-0.8,6.1,0.2c1.7,1,2.9,2.7,3.4,4.9c0.5,2.1,0.1,4.2-0.2,5.8c-0.9,3.9-2.4,7.6-3.9,11.2c-0.4,0.9-0.8,1.9-1.2,2.8c-1.9,4.9-3.4,8.6-4.7,12.3c-0.2,0.6-0.3,1.3-0.5,2.1c-0.1,0.4-0.1,0.8-0.2,1.2l0.3,0.1c0.8,0,1.6-0.1,2.3-0.3c2.7-1.1,4.9-3.1,7-5c1.4-1.3,2.9-2.8,4.3-4.2l0.4-0.4c1.6-1.5,3-1.5,4.5,0c1.1,1.1,2.1,2,3,3c0.6,0.7,0.9,1.4,0.9,2.2c0,0.7-0.3,1.4-0.9,2l-0.6,0.6c-3.8,3.8-7.7,7.7-12.7,10.3C122.8,117.6,120.3,118.3,117.9,118.3z"/><g id="XMLID_3_"><path id="XMLID_4_" fill="#191919" d="M50.7,144.6c-0.1,0.1-0.2,0.1-0.4,0.1c-0.2,0-0.4,0-0.7,0c-0.4,0-0.6,0-0.8,0c-0.2,0-0.3-0.1-0.4-0.1c-0.1-0.1-0.1-0.2-0.1-0.3v-0.8c-0.4,0.5-0.9,0.8-1.5,1.1c-0.5,0.3-1.2,0.4-1.8,0.4c-0.6,0-1.1-0.1-1.5-0.2c-0.5-0.1-0.9-0.4-1.2-0.6c-0.3-0.3-0.6-0.6-0.8-1.1c-0.2-0.4-0.3-0.9-0.3-1.5s0.1-1.1,0.4-1.6c0.2-0.5,0.6-0.8,1.1-1.1s1.1-0.5,1.8-0.6c0.7-0.1,1.5-0.2,2.5-0.2h1v-0.6c0-0.3,0-0.6-0.1-0.9c-0.1-0.3-0.2-0.5-0.3-0.6c-0.1-0.2-0.4-0.3-0.6-0.4c-0.2-0.1-0.6-0.1-0.9-0.1c-0.5,0-0.9,0.1-1.3,0.2c-0.4,0.1-0.7,0.2-1,0.4s-0.5,0.3-0.8,0.4c-0.2,0.1-0.4,0.2-0.5,0.2s-0.2,0-0.2-0.1c-0.1-0.1-0.1-0.1-0.2-0.2c0-0.1-0.1-0.2-0.1-0.4s0-0.3,0-0.5s0-0.4,0.1-0.6c0-0.1,0.1-0.3,0.2-0.4c0.1-0.1,0.3-0.2,0.6-0.4c0.3-0.1,0.6-0.3,1-0.4s0.8-0.2,1.2-0.3c0.4-0.1,0.9-0.1,1.3-0.1c0.8,0,1.5,0.1,2.1,0.2c0.6,0.2,1.1,0.4,1.4,0.7c0.4,0.3,0.6,0.8,0.8,1.3c0.2,0.5,0.3,1.1,0.3,1.9v7C50.8,144.5,50.8,144.5,50.7,144.6z M46.8,139.9c-0.5,0-0.9,0-1.2,0.1c-0.3,0.1-0.6,0.2-0.8,0.3c-0.2,0.1-0.4,0.3-0.5,0.5s-0.2,0.4-0.2,0.7c0,0.4,0.1,0.8,0.4,1s0.7,0.4,1.2,0.4c0.4,0,0.8-0.1,1.1-0.3c0.4-0.2,0.7-0.5,1.1-0.9v-1.8H46.8z"/><path id="XMLID_8_" fill="#191919" d="M63.8,144.5c0,0-0.1,0.1-0.2,0.1s-0.3,0.1-0.4,0.1c-0.2,0-0.4,0-0.7,0c-0.3,0-0.5,0-0.7,0s-0.4-0.1-0.5-0.1s-0.2-0.1-0.2-0.1c0-0.1-0.1-0.1-0.1-0.2v-4.1h-4.2v4.1c0,0.1,0,0.1-0.1,0.2c0,0-0.1,0.1-0.2,0.1s-0.3,0.1-0.5,0.1s-0.4,0-0.7,0c-0.3,0-0.5,0-0.7,0s-0.3-0.1-0.5-0.1c-0.1,0-0.2-0.1-0.2-0.1c0-0.1-0.1-0.1-0.1-0.2v-10.5c0-0.1,0-0.1,0.1-0.2c0,0,0.1-0.1,0.2-0.1s0.3-0.1,0.5-0.1s0.4,0,0.7,0c0.3,0,0.5,0,0.7,0s0.3,0.1,0.5,0.1c0.1,0,0.2,0.1,0.2,0.1c0,0.1,0.1,0.1,0.1,0.2v3.9H61v-3.9c0-0.1,0-0.1,0.1-0.2c0,0,0.1-0.1,0.2-0.1s0.3-0.1,0.5-0.1s0.4,0,0.7,0c0.3,0,0.5,0,0.7,0s0.3,0.1,0.4,0.1s0.2,0.1,0.2,0.1c0,0.1,0.1,0.1,0.1,0.2v10.5C63.9,144.4,63.9,144.5,63.8,144.5z"/><path id="XMLID_10_" fill="#191919" d="M73.6,135.4c0,0.2-0.1,0.3-0.1,0.4s-0.1,0.2-0.1,0.2c-0.1,0-0.1,0.1-0.2,0.1h-3.4v8.3c0,0.1,0,0.1-0.1,0.2c0,0-0.1,0.1-0.2,0.1s-0.3,0.1-0.5,0.1s-0.4,0-0.7,0s-0.5,0-0.7,0s-0.3-0.1-0.5-0.1c-0.1,0-0.2-0.1-0.2-0.1c0-0.1-0.1-0.1-0.1-0.2v-9.9c0-0.3,0.1-0.6,0.2-0.7c0.1-0.2,0.3-0.2,0.6-0.2h5.5c0.1,0,0.1,0,0.2,0.1c0.1,0,0.1,0.1,0.1,0.2s0.1,0.2,0.1,0.4s0,0.4,0,0.6C73.7,135,73.7,135.2,73.6,135.4z"/><path id="XMLID_12_" fill="#191919" d="M85,144.5c0,0-0.1,0.1-0.2,0.1s-0.3,0.1-0.5,0.1s-0.4,0-0.7,0c-0.3,0-0.5,0-0.7,0s-0.3-0.1-0.4-0.1s-0.2-0.1-0.2-0.1c0-0.1-0.1-0.1-0.1-0.2v-8.5h-2.1c-0.1,1.2-0.3,2.3-0.5,3.2s-0.4,1.7-0.6,2.4s-0.5,1.2-0.8,1.7c-0.3,0.4-0.6,0.8-1,1c-0.4,0.3-0.7,0.4-1.1,0.6c-0.4,0.1-0.8,0.2-1.3,0.2c-0.1,0-0.2,0-0.3,0c-0.1,0-0.1-0.1-0.2-0.2c0-0.1-0.1-0.2-0.1-0.4s0-0.4,0-0.7s0-0.5,0-0.7s0-0.3,0.1-0.4c0-0.1,0.1-0.2,0.1-0.2c0.1,0,0.1,0,0.2,0c0.2,0,0.4,0,0.6-0.1s0.4-0.3,0.6-0.5s0.4-0.5,0.5-0.9c0.2-0.4,0.3-0.9,0.4-1.4c0.1-0.6,0.3-1.3,0.4-2.1s0.2-1.7,0.3-2.8c0-0.3,0.1-0.6,0.2-0.7c0.1-0.2,0.3-0.2,0.6-0.2h6.1c0.3,0,0.5,0.1,0.6,0.2c0.1,0.2,0.2,0.4,0.2,0.7v9.9C85,144.4,85,144.5,85,144.5z"/><path id="XMLID_14_" fill="#191919" d="M98.3,144.5c0,0.1-0.1,0.1-0.2,0.1s-0.3,0.1-0.4,0.1c-0.2,0-0.4,0-0.7,0s-0.5,0-0.7,0s-0.4,0-0.5-0.1c-0.1,0-0.2-0.1-0.3-0.1c-0.1-0.1-0.1-0.1-0.1-0.2v-4.7c0-0.3,0-0.7,0-1c0-0.4,0-0.7,0.1-1c-0.2,0.3-0.4,0.7-0.6,1s-0.4,0.6-0.7,1l-3.5,4.8c-0.1,0.1-0.1,0.2-0.2,0.2c-0.1,0.1-0.1,0.1-0.2,0.1s-0.2,0.1-0.4,0.1c-0.2,0-0.3,0-0.6,0c-0.3,0-0.5,0-0.7,0s-0.3,0-0.4-0.1c-0.1,0-0.2-0.1-0.2-0.1c0-0.1-0.1-0.1-0.1-0.2v-10.5c0-0.1,0-0.1,0.1-0.2c0,0,0.1-0.1,0.2-0.1s0.3-0.1,0.4-0.1c0.2,0,0.4,0,0.7,0c0.6,0,1,0,1.2,0.1s0.3,0.2,0.3,0.3v4.6c0,0.3,0,0.7,0,1s-0.1,0.7-0.1,1c0.2-0.3,0.4-0.6,0.6-0.9c0.2-0.3,0.4-0.6,0.6-0.9l3.6-4.8c0.1-0.1,0.1-0.2,0.2-0.2s0.2-0.1,0.3-0.1c0.1,0,0.2-0.1,0.4-0.1c0.1,0,0.3,0,0.6,0c0.3,0,0.5,0,0.7,0s0.3,0,0.4,0.1c0.1,0,0.2,0.1,0.2,0.2c0,0.1,0.1,0.1,0.1,0.2L98.3,144.5C98.4,144.4,98.4,144.5,98.3,144.5z"/><path id="XMLID_16_" fill="#191919" d="M111.7,144.5c0,0.1-0.1,0.1-0.2,0.1s-0.3,0.1-0.4,0.1c-0.2,0-0.4,0-0.7,0s-0.5,0-0.7,0s-0.4,0-0.5-0.1c-0.1,0-0.2-0.1-0.3-0.1c-0.1-0.1-0.1-0.1-0.1-0.2v-4.7c0-0.3,0-0.7,0-1c0-0.4,0-0.7,0.1-1c-0.2,0.3-0.4,0.7-0.6,1s-0.4,0.6-0.7,1l-3.5,4.8c-0.1,0.1-0.1,0.2-0.2,0.2c-0.1,0.1-0.1,0.1-0.2,0.1s-0.2,0.1-0.4,0.1c-0.2,0-0.3,0-0.6,0c-0.3,0-0.5,0-0.7,0s-0.3,0-0.4-0.1c-0.1,0-0.2-0.1-0.2-0.1c0-0.1-0.1-0.1-0.1-0.2v-10.5c0-0.1,0-0.1,0.1-0.2c0,0,0.1-0.1,0.2-0.1s0.3-0.1,0.4-0.1c0.2,0,0.4,0,0.7,0c0.6,0,1,0,1.2,0.1s0.3,0.2,0.3,0.3v4.6c0,0.3,0,0.7,0,1s-0.1,0.7-0.1,1c0.2-0.3,0.4-0.6,0.6-0.9c0.2-0.3,0.4-0.6,0.6-0.9l3.6-4.8c0.1-0.1,0.1-0.2,0.2-0.2s0.2-0.1,0.3-0.1c0.1,0,0.2-0.1,0.4-0.1c0.1,0,0.3,0,0.6,0c0.3,0,0.5,0,0.7,0s0.3,0,0.4,0.1c0.1,0,0.2,0.1,0.2,0.2c0,0.1,0.1,0.1,0.1,0.2L111.7,144.5C111.8,144.4,111.8,144.5,111.7,144.5z M110.7,130.2c-0.2,0.4-0.4,0.8-0.7,1.1c-0.3,0.3-0.8,0.6-1.3,0.7c-0.6,0.2-1.2,0.3-2,0.3s-1.4-0.1-2-0.2s-1-0.4-1.3-0.7c-0.4-0.3-0.6-0.6-0.8-1.1c-0.2-0.4-0.2-0.9-0.2-1.4c0-0.1,0-0.2,0.1-0.3c0-0.1,0.1-0.1,0.2-0.2s0.2-0.1,0.4-0.1c0.2,0,0.4,0,0.7,0c0.2,0,0.5,0,0.6,0c0.2,0,0.3,0.1,0.4,0.1s0.2,0.1,0.2,0.2c0,0.1,0.1,0.2,0.1,0.3c0,0.2,0,0.4,0.1,0.6c0.1,0.2,0.2,0.3,0.3,0.5c0.2,0.1,0.3,0.2,0.5,0.3s0.4,0.1,0.7,0.1c0.2,0,0.5,0,0.7-0.1s0.4-0.2,0.5-0.3c0.2-0.1,0.3-0.3,0.3-0.5c0.1-0.2,0.1-0.4,0.1-0.6c0-0.1,0-0.2,0-0.2c0-0.1,0.1-0.1,0.2-0.2c0.1-0.1,0.2-0.1,0.4-0.1c0.2,0,0.4,0,0.6,0c0.3,0,0.5,0,0.7,0s0.3,0,0.4,0.1c0.1,0,0.2,0.1,0.2,0.2c0,0.1,0.1,0.2,0.1,0.3C110.9,129.3,110.9,129.7,110.7,130.2z"/><path id="XMLID_19_" fill="#191919" d="M122.7,143.2c0,0.1,0,0.2,0,0.3s0,0.2-0.1,0.2c0,0.1-0.1,0.1-0.2,0.2c-0.1,0.1-0.3,0.2-0.5,0.3s-0.5,0.2-0.8,0.3s-0.6,0.2-1,0.2c-0.3,0.1-0.7,0.1-1,0.1c-0.8,0-1.5-0.1-2.1-0.4c-0.6-0.2-1.1-0.6-1.6-1.1c-0.4-0.5-0.7-1.1-1-1.8c-0.2-0.7-0.3-1.5-0.3-2.4c0-1,0.1-2,0.4-2.7c0.3-0.8,0.6-1.4,1.1-1.9s1-0.9,1.7-1.1c0.6-0.2,1.3-0.4,2.1-0.4c0.3,0,0.6,0,0.9,0.1s0.6,0.1,0.8,0.2c0.3,0.1,0.5,0.2,0.7,0.3s0.4,0.2,0.4,0.3c0.1,0.1,0.2,0.2,0.2,0.2s0.1,0.1,0.1,0.2c0,0.1,0,0.2,0,0.3s0,0.3,0,0.5c0,0.5,0,0.8-0.1,1s-0.2,0.3-0.3,0.3c-0.1,0-0.3-0.1-0.4-0.2c-0.2-0.1-0.3-0.2-0.5-0.4c-0.2-0.1-0.4-0.3-0.7-0.4c-0.3-0.1-0.6-0.2-1-0.2c-0.8,0-1.3,0.3-1.8,0.9c-0.4,0.6-0.6,1.5-0.6,2.6c0,0.6,0,1.1,0.2,1.5c0.1,0.4,0.2,0.8,0.5,1.1c0.2,0.3,0.4,0.5,0.8,0.7c0.3,0.1,0.6,0.2,1,0.2s0.8-0.1,1-0.2c0.3-0.1,0.6-0.2,0.8-0.4c0.2-0.2,0.4-0.3,0.6-0.4c0.2-0.1,0.3-0.2,0.4-0.2s0.1,0,0.2,0.1c0,0,0.1,0.1,0.1,0.2c0,0.1,0,0.2,0.1,0.4c0,0.2,0,0.4,0,0.6C122.7,142.8,122.7,143,122.7,143.2z"/><path id="XMLID_21_" fill="#191919" d="M134.6,144.6c0,0-0.1,0.1-0.2,0.1s-0.3,0.1-0.5,0.1s-0.4,0-0.7,0c-0.3,0-0.6,0-0.8,0c-0.2,0-0.4,0-0.5-0.1c-0.1,0-0.2-0.1-0.3-0.1s-0.1-0.1-0.1-0.2l-1-2.5c-0.1-0.3-0.2-0.6-0.4-0.8c-0.1-0.2-0.3-0.4-0.5-0.5s-0.4-0.2-0.6-0.3c-0.2,0-0.5-0.1-0.7-0.1h-0.6v4.3c0,0.1,0,0.1-0.1,0.2c-0.1,0.1-0.1,0.1-0.3,0.1c-0.1,0-0.3,0.1-0.5,0.1s-0.4,0-0.7,0c-0.3,0-0.5,0-0.7,0s-0.3-0.1-0.5-0.1c-0.1,0-0.2-0.1-0.3-0.1c0,0-0.1-0.1-0.1-0.2v-10.6c0-0.1,0-0.1,0.1-0.2c0.1,0,0.1-0.1,0.3-0.1c0.1,0,0.3-0.1,0.5-0.1s0.4,0,0.7,0c0.3,0,0.5,0,0.7,0s0.3,0,0.5,0.1c0.1,0,0.2,0.1,0.3,0.1c0.1,0.1,0.1,0.1,0.1,0.2v4.1h0.6c0.2,0,0.5,0,0.7-0.1s0.4-0.2,0.5-0.3c0.2-0.1,0.3-0.3,0.4-0.5s0.3-0.5,0.4-0.8l0.9-2.3c0-0.1,0.1-0.1,0.1-0.2c0.1,0,0.1-0.1,0.2-0.1s0.3-0.1,0.5-0.1s0.5,0,0.8,0s0.5,0,0.7,0s0.3,0,0.4,0.1c0.1,0,0.2,0.1,0.2,0.1s0.1,0.1,0.1,0.2c0,0.1,0,0.2,0,0.3s-0.1,0.3-0.2,0.4l-0.8,2c-0.2,0.4-0.3,0.7-0.5,1s-0.4,0.5-0.6,0.7s-0.4,0.3-0.6,0.4s-0.4,0.2-0.6,0.3l0,0c0.2,0.1,0.5,0.2,0.7,0.3s0.4,0.3,0.6,0.5s0.4,0.4,0.5,0.7c0.2,0.3,0.4,0.6,0.5,1l1,2.3c0,0.1,0.1,0.2,0.1,0.3s0,0.1,0.1,0.2c0,0.1,0,0.1,0,0.2v0.1C134.6,144.5,134.6,144.5,134.6,144.6z"/><path id="XMLID_23_" fill="#191919" d="M147,144.5c0,0.1-0.1,0.1-0.2,0.1s-0.3,0.1-0.4,0.1c-0.2,0-0.4,0-0.7,0c-0.3,0-0.5,0-0.7,0s-0.4,0-0.5-0.1c-0.1,0-0.2-0.1-0.3-0.1c-0.1-0.1-0.1-0.1-0.1-0.2v-4.7c0-0.3,0-0.7,0-1c0-0.4,0-0.7,0.1-1c-0.2,0.3-0.4,0.7-0.6,1s-0.4,0.6-0.7,1l-3.5,4.8c-0.1,0.1-0.1,0.2-0.2,0.2c-0.1,0.1-0.1,0.1-0.2,0.1s-0.2,0.1-0.4,0.1c-0.2,0-0.3,0-0.6,0c-0.3,0-0.5,0-0.7,0s-0.3,0-0.4-0.1c-0.1,0-0.2-0.1-0.2-0.1c0-0.1-0.1-0.1-0.1-0.2v-10.5c0-0.1,0-0.1,0.1-0.2c0,0,0.1-0.1,0.2-0.1s0.3-0.1,0.4-0.1c0.2,0,0.4,0,0.7,0c0.6,0,1,0,1.2,0.1s0.3,0.2,0.3,0.3v4.6c0,0.3,0,0.7,0,1s-0.1,0.7-0.1,1c0.2-0.3,0.4-0.6,0.6-0.9c0.2-0.3,0.4-0.6,0.6-0.9l3.6-4.8c0.1-0.1,0.1-0.2,0.2-0.2s0.2-0.1,0.3-0.1c0.1,0,0.2-0.1,0.4-0.1c0.1,0,0.3,0,0.6,0c0.3,0,0.5,0,0.7,0s0.3,0,0.4,0.1c0.1,0,0.2,0.1,0.2,0.2c0,0.1,0.1,0.1,0.1,0.2L147,144.5C147.1,144.4,147.1,144.5,147,144.5z"/><path id="XMLID_25_" fill="#191919" d="M160.4,144.5c0,0.1-0.1,0.1-0.2,0.1c-0.1,0-0.3,0.1-0.4,0.1c-0.2,0-0.4,0-0.7,0s-0.5,0-0.7,0s-0.4,0-0.5-0.1c-0.1,0-0.2-0.1-0.3-0.1c-0.1-0.1-0.1-0.1-0.1-0.2v-4.7c0-0.3,0-0.7,0-1c0-0.4,0-0.7,0.1-1c-0.2,0.3-0.4,0.7-0.6,1c-0.2,0.3-0.4,0.6-0.7,1l-3.5,4.8c-0.1,0.1-0.1,0.2-0.2,0.2c-0.1,0.1-0.1,0.1-0.2,0.1s-0.2,0.1-0.4,0.1c-0.2,0-0.3,0-0.6,0c-0.3,0-0.5,0-0.7,0s-0.3,0-0.4-0.1c-0.1,0-0.2-0.1-0.2-0.1c0-0.1-0.1-0.1-0.1-0.2v-10.5c0-0.1,0-0.1,0.1-0.2c0,0,0.1-0.1,0.2-0.1s0.3-0.1,0.4-0.1c0.2,0,0.4,0,0.7,0c0.6,0,1,0,1.2,0.1s0.3,0.2,0.3,0.3v4.6c0,0.3,0,0.7,0,1s-0.1,0.7-0.1,1c0.2-0.3,0.4-0.6,0.6-0.9c0.2-0.3,0.4-0.6,0.6-0.9l3.6-4.8c0.1-0.1,0.1-0.2,0.2-0.2c0.1,0,0.2-0.1,0.3-0.1s0.2-0.1,0.4-0.1c0.1,0,0.3,0,0.6,0s0.5,0,0.7,0s0.3,0,0.4,0.1c0.1,0,0.2,0.1,0.2,0.2c0,0.1,0.1,0.1,0.1,0.2L160.4,144.5C160.5,144.4,160.5,144.5,160.4,144.5z M159.4,130.2c-0.2,0.4-0.4,0.8-0.7,1.1s-0.8,0.6-1.3,0.7c-0.6,0.2-1.2,0.3-2,0.3c-0.8,0-1.4-0.1-2-0.2s-1-0.4-1.3-0.7c-0.4-0.3-0.6-0.6-0.8-1.1c-0.2-0.4-0.2-0.9-0.2-1.4c0-0.1,0-0.2,0.1-0.3c0-0.1,0.1-0.1,0.2-0.2c0.1,0,0.2-0.1,0.4-0.1c0.2,0,0.4,0,0.7,0c0.2,0,0.5,0,0.6,0c0.2,0,0.3,0.1,0.4,0.1s0.2,0.1,0.2,0.2c0,0.1,0.1,0.2,0.1,0.3c0,0.2,0,0.4,0.1,0.6c0.1,0.2,0.2,0.3,0.3,0.5c0.2,0.1,0.3,0.2,0.5,0.3s0.4,0.1,0.7,0.1c0.2,0,0.5,0,0.7-0.1s0.4-0.2,0.5-0.3c0.2-0.1,0.3-0.3,0.3-0.5c0.1-0.2,0.1-0.4,0.1-0.6c0-0.1,0-0.2,0-0.2c0-0.1,0.1-0.1,0.2-0.2c0.1-0.1,0.2-0.1,0.4-0.1s0.4,0,0.6,0c0.3,0,0.5,0,0.7,0s0.3,0,0.4,0.1c0.1,0,0.2,0.1,0.2,0.2c0,0.1,0.1,0.2,0.1,0.3C159.6,129.3,159.5,129.7,159.4,130.2z"/><path id="XMLID_28_" fill="#191919" d="M48.5,158.4c-0.2,0.5-0.5,1-0.8,1.3c-0.3,0.4-0.8,0.7-1.3,0.9s-1,0.3-1.6,0.3c-0.7,0-1.2-0.1-1.7-0.3s-0.9-0.5-1.2-0.9c-0.3-0.4-0.5-0.9-0.7-1.6c-0.1-0.6-0.2-1.4-0.2-2.2c0-0.6,0-1.2,0.1-1.7s0.2-1,0.3-1.5c0.1-0.5,0.3-0.8,0.5-1.2c0.2-0.3,0.4-0.6,0.6-0.8s0.4-0.4,0.6-0.5s0.4-0.2,0.6-0.3s0.5-0.2,0.7-0.2c0.3-0.1,0.6-0.1,0.9-0.2l2.6-0.4c0.1,0,0.2,0,0.2,0c0.1,0,0.1,0,0.1,0.1s0.1,0.1,0.1,0.3c0,0.1,0,0.3,0,0.5s0,0.3,0,0.4c0,0.1,0,0.2-0.1,0.3c0,0.1-0.1,0.1-0.1,0.2c-0.1,0-0.1,0.1-0.2,0.1l-2.4,0.4c-0.2,0-0.4,0.1-0.6,0.1s-0.3,0.1-0.5,0.1c-0.1,0.1-0.2,0.1-0.3,0.2c-0.1,0.1-0.2,0.1-0.3,0.2s-0.2,0.2-0.3,0.4c-0.1,0.1-0.1,0.3-0.2,0.5s-0.1,0.4-0.1,0.6c0,0.2-0.1,0.4-0.1,0.6c0.1-0.2,0.3-0.3,0.5-0.4c0.2-0.1,0.4-0.2,0.6-0.3s0.4-0.2,0.7-0.2c0.2,0,0.5-0.1,0.7-0.1c0.5,0,1,0.1,1.4,0.3s0.7,0.4,1,0.7s0.5,0.7,0.6,1.2s0.2,1,0.2,1.6C48.8,157.3,48.7,157.9,48.5,158.4z M46.6,155.9c-0.1-0.3-0.1-0.5-0.3-0.7c-0.1-0.2-0.3-0.3-0.5-0.5c-0.2-0.1-0.4-0.2-0.7-0.2c-0.2,0-0.4,0-0.5,0.1c-0.2,0-0.3,0.1-0.5,0.2c-0.1,0.1-0.3,0.2-0.4,0.3s-0.3,0.3-0.5,0.5c0,0.1,0,0.1,0,0.2v0.2c0,0.5,0,1,0.1,1.4s0.2,0.7,0.3,1c0.1,0.3,0.3,0.4,0.5,0.6c0.2,0.1,0.5,0.2,0.8,0.2s0.5-0.1,0.8-0.2c0.2-0.1,0.4-0.3,0.6-0.5c0.1-0.2,0.3-0.5,0.3-0.8c0.1-0.3,0.1-0.6,0.1-1C46.6,156.5,46.6,156.2,46.6,155.9z"/><path id="XMLID_31_" fill="#191919" d="M57.1,157.1c-0.1,0.1-0.3,0.2-0.5,0.2h-4.5c0,0.3,0,0.6,0.1,0.9c0.1,0.2,0.2,0.5,0.3,0.6c0.2,0.2,0.4,0.3,0.6,0.4c0.3,0.1,0.6,0.1,0.9,0.1c0.4,0,0.7,0,1-0.1s0.5-0.1,0.7-0.2c0.2-0.1,0.4-0.1,0.5-0.2c0.1-0.1,0.2-0.1,0.3-0.1h0.1c0,0,0.1,0,0.1,0.1s0,0.1,0,0.2c0,0.1,0,0.2,0,0.3s0,0.2,0,0.3s0,0.2,0,0.2s0,0.1,0,0.2c0,0,0,0.1-0.1,0.1c0,0-0.1,0.1-0.3,0.2c-0.2,0.1-0.4,0.1-0.6,0.2c-0.2,0.1-0.5,0.1-0.9,0.2c-0.3,0-0.7,0.1-1,0.1c-0.7,0-1.2-0.1-1.7-0.2c-0.5-0.2-0.9-0.4-1.2-0.8c-0.3-0.3-0.6-0.8-0.7-1.3c-0.2-0.5-0.2-1.1-0.2-1.8s0.1-1.3,0.3-1.8c0.2-0.5,0.4-1,0.7-1.3c0.3-0.4,0.7-0.7,1.2-0.8c0.5-0.2,1-0.3,1.6-0.3s1.2,0.1,1.6,0.3s0.8,0.4,1.1,0.8c0.3,0.3,0.5,0.7,0.6,1.1c0.1,0.4,0.2,0.9,0.2,1.4v0.3C57.3,156.8,57.2,157,57.1,157.1z M54.9,154.5c-0.3-0.3-0.6-0.5-1.2-0.5c-0.3,0-0.5,0-0.7,0.1s-0.4,0.2-0.5,0.4s-0.2,0.4-0.3,0.6c-0.1,0.2-0.1,0.5-0.1,0.7h3.1C55.3,155.3,55.1,154.9,54.9,154.5z"/><path id="XMLID_34_" fill="#191919" d="M64.4,159.5c-0.2,0.3-0.4,0.6-0.7,0.8s-0.7,0.4-1.1,0.5s-0.9,0.2-1.5,0.2c-0.3,0-0.6,0-0.8-0.1c-0.3,0-0.5-0.1-0.7-0.2c-0.2-0.1-0.4-0.1-0.5-0.2c-0.1-0.1-0.2-0.1-0.3-0.2c-0.1,0-0.1-0.1-0.1-0.1c0-0.1-0.1-0.1-0.1-0.2c0-0.1,0-0.1,0-0.2c0-0.1,0-0.2,0-0.3s0-0.2,0-0.3s0-0.1,0-0.2c0,0,0-0.1,0.1-0.1h0.1c0.1,0,0.2,0,0.3,0.1c0.1,0.1,0.2,0.1,0.4,0.2c0.2,0.1,0.4,0.1,0.6,0.2c0.3,0.1,0.6,0.1,0.9,0.1c0.2,0,0.5,0,0.6-0.1c0.2,0,0.3-0.1,0.5-0.2c0.1-0.1,0.2-0.2,0.3-0.3c0.1-0.1,0.1-0.3,0.1-0.4c0-0.2,0-0.3-0.1-0.4s-0.2-0.2-0.3-0.3c-0.1-0.1-0.3-0.2-0.6-0.2c-0.2,0-0.5-0.1-0.8-0.1h-0.8c-0.1,0-0.1,0-0.2,0l-0.1-0.1c0-0.1,0-0.1-0.1-0.2c0-0.1,0-0.2,0-0.3s0-0.2,0-0.3s0-0.1,0.1-0.2c0,0,0-0.1,0.1-0.1h0.1h0.8c0.3,0,0.6,0,0.8-0.1c0.2,0,0.4-0.1,0.5-0.2c0.1-0.1,0.2-0.2,0.3-0.3c0.1-0.1,0.1-0.3,0.1-0.4c0-0.1,0-0.3-0.1-0.4c-0.1-0.1-0.1-0.2-0.3-0.3c-0.1-0.1-0.2-0.1-0.4-0.2c-0.2,0-0.3,0-0.5,0c-0.3,0-0.6,0-0.8,0.1c-0.2,0.1-0.5,0.1-0.6,0.2c-0.2,0.1-0.3,0.2-0.4,0.2c-0.1,0.1-0.2,0.1-0.3,0.1h-0.1c0,0,0,0-0.1-0.1c0,0,0-0.1,0-0.2c0-0.1,0-0.2,0-0.3c0-0.2,0-0.4,0-0.5s0.1-0.2,0.1-0.3c0.1-0.1,0.2-0.1,0.4-0.2c0.2-0.1,0.4-0.2,0.6-0.2c0.2-0.1,0.5-0.1,0.8-0.2c0.3,0,0.6-0.1,0.9-0.1c0.5,0,0.9,0,1.2,0.1c0.4,0.1,0.7,0.2,1,0.4s0.5,0.4,0.6,0.7s0.2,0.6,0.2,0.9c0,0.2,0,0.4-0.1,0.6c-0.1,0.2-0.2,0.4-0.3,0.5c-0.1,0.1-0.3,0.3-0.4,0.4c-0.2,0.1-0.4,0.2-0.6,0.3l0,0c0.2,0,0.5,0.1,0.7,0.2c0.2,0.1,0.4,0.2,0.5,0.4c0.2,0.2,0.3,0.3,0.4,0.6c0.1,0.2,0.1,0.4,0.1,0.7C64.6,158.8,64.6,159.2,64.4,159.5z"/><path id="XMLID_36_" fill="#191919" d="M77.3,158.4c-0.1,0.5-0.3,1-0.6,1.3c-0.3,0.4-0.6,0.7-1,0.9s-0.9,0.3-1.4,0.3c-0.2,0-0.4,0-0.6-0.1c-0.2,0-0.4-0.1-0.5-0.2c-0.2-0.1-0.3-0.2-0.5-0.3s-0.3-0.3-0.5-0.4v3.5c0,0.1,0,0.1,0,0.1s-0.1,0.1-0.2,0.1s-0.2,0-0.3,0.1c-0.1,0-0.3,0-0.5,0s-0.4,0-0.5,0s-0.2,0-0.3-0.1c-0.1,0-0.1-0.1-0.2-0.1v-0.1V153c0-0.1,0-0.1,0-0.1l0.1-0.1c0.1,0,0.2,0,0.3-0.1c0.1,0,0.2,0,0.4,0c0.2,0,0.3,0,0.4,0s0.2,0,0.3,0.1c0.1,0,0.1,0.1,0.1,0.1v0.1v0.9c0.2-0.2,0.4-0.4,0.6-0.6c0.2-0.2,0.4-0.3,0.6-0.4c0.2-0.1,0.4-0.2,0.7-0.3c0.2-0.1,0.5-0.1,0.7-0.1c0.5,0,1,0.1,1.4,0.3s0.7,0.5,0.9,0.9c0.2,0.4,0.4,0.8,0.5,1.3s0.2,1,0.2,1.6C77.6,157.3,77.5,157.9,77.3,158.4z M75.3,155.9c0-0.3-0.1-0.6-0.2-0.8s-0.3-0.4-0.4-0.5c-0.2-0.1-0.4-0.2-0.7-0.2c-0.1,0-0.3,0-0.4,0.1c-0.1,0-0.3,0.1-0.4,0.2c-0.1,0.1-0.3,0.2-0.4,0.4c-0.1,0.1-0.3,0.3-0.5,0.6v2.4c0.3,0.4,0.6,0.7,0.8,0.9c0.3,0.2,0.5,0.3,0.8,0.3s0.5-0.1,0.7-0.2c0.2-0.1,0.3-0.3,0.5-0.5c0.1-0.2,0.2-0.5,0.3-0.8c0-0.3,0.1-0.6,0.1-0.8C75.4,156.5,75.4,156.2,75.3,155.9z"/><path id="XMLID_39_" fill="#191919" d="M85.9,157.1c-0.1,0.1-0.3,0.2-0.5,0.2h-4.5c0,0.3,0,0.6,0.1,0.9c0.1,0.2,0.2,0.5,0.3,0.6c0.2,0.2,0.4,0.3,0.6,0.4c0.3,0.1,0.6,0.1,0.9,0.1c0.4,0,0.7,0,1-0.1s0.5-0.1,0.7-0.2c0.2-0.1,0.4-0.1,0.5-0.2c0.1-0.1,0.2-0.1,0.3-0.1h0.1c0,0,0.1,0,0.1,0.1s0,0.1,0,0.2c0,0.1,0,0.2,0,0.3s0,0.2,0,0.3s0,0.2,0,0.2s0,0.1,0,0.2c0,0,0,0.1-0.1,0.1c0,0-0.1,0.1-0.3,0.2c-0.2,0.1-0.4,0.1-0.6,0.2c-0.2,0.1-0.5,0.1-0.9,0.2c-0.3,0-0.7,0.1-1,0.1c-0.7,0-1.2-0.1-1.7-0.2c-0.5-0.2-0.9-0.4-1.2-0.8s-0.6-0.8-0.7-1.3c-0.2-0.5-0.2-1.1-0.2-1.8s0.1-1.3,0.3-1.8c0.2-0.5,0.4-1,0.7-1.3c0.3-0.4,0.7-0.7,1.2-0.8c0.5-0.2,1-0.3,1.6-0.3s1.2,0.1,1.6,0.3s0.8,0.4,1.1,0.8c0.3,0.3,0.5,0.7,0.6,1.1c0.1,0.4,0.2,0.9,0.2,1.4v0.3C86.1,156.8,86,157,85.9,157.1z M83.7,154.5c-0.3-0.3-0.6-0.5-1.2-0.5c-0.3,0-0.5,0-0.7,0.1s-0.4,0.2-0.5,0.4s-0.2,0.4-0.3,0.6c-0.1,0.2-0.1,0.5-0.1,0.7H84C84.1,155.3,83.9,154.9,83.7,154.5z"/><path id="XMLID_42_" fill="#191919" d="M92.6,154.1c0,0.1,0,0.2-0.1,0.3c0,0.1-0.1,0.1-0.1,0.1h-0.1h-2.4v5.8c0,0.1,0,0.1,0,0.1s-0.1,0.1-0.2,0.1s-0.2,0-0.3,0.1c-0.1,0-0.3,0-0.5,0s-0.4,0-0.5,0s-0.2,0-0.3-0.1c-0.1,0-0.1-0.1-0.2-0.1v-0.1v-7c0-0.2,0-0.4,0.1-0.5s0.2-0.2,0.4-0.2h3.9c0.1,0,0.1,0,0.1,0l0.1,0.1c0,0,0,0.2,0.1,0.3c0,0.1,0,0.3,0,0.4C92.6,153.8,92.6,154,92.6,154.1z"/><path id="XMLID_44_" fill="#191919" d="M101.2,160.6c0,0-0.1,0.1-0.2,0.1s-0.2,0-0.3,0c-0.1,0-0.3,0-0.5,0s-0.4,0-0.5,0s-0.2,0-0.3,0c-0.1,0-0.1-0.1-0.2-0.1l-0.1-0.1v-3.3c0-0.2,0-0.5,0-0.7s0-0.5,0.1-0.7c-0.1,0.2-0.3,0.5-0.4,0.7c-0.2,0.2-0.3,0.4-0.5,0.7l-2.5,3.4c0,0.1-0.1,0.1-0.1,0.1s-0.1,0.1-0.2,0.1s-0.2,0-0.3,0c-0.1,0-0.2,0-0.4,0c-0.2,0-0.4,0-0.5,0s-0.2,0-0.3,0c-0.1,0-0.1-0.1-0.1-0.1v-0.1V153v-0.1c0,0,0.1-0.1,0.2-0.1s0.2,0,0.3-0.1c0.1,0,0.3,0,0.5,0c0.4,0,0.7,0,0.8,0.1c0.2,0.1,0.2,0.1,0.2,0.2v3.3c0,0.2,0,0.5,0,0.7s0,0.5-0.1,0.7c0.1-0.2,0.3-0.4,0.4-0.7c0.1-0.2,0.3-0.4,0.4-0.6l2.5-3.4c0-0.1,0.1-0.1,0.1-0.2c0,0,0.1-0.1,0.2-0.1s0.2,0,0.3,0c0.1,0,0.2,0,0.4,0c0.2,0,0.4,0,0.5,0s0.2,0,0.3,0.1c0.1,0,0.1,0.1,0.2,0.1v0.1v7.4C101.2,160.5,101.2,160.6,101.2,160.6z"/><path id="XMLID_46_" fill="#191919" d="M108.9,159.6c0,0.1,0,0.2,0,0.2c0,0.1,0,0.1,0,0.2c0,0-0.1,0.1-0.1,0.2c-0.1,0.1-0.2,0.1-0.3,0.2c-0.2,0.1-0.3,0.2-0.5,0.2c-0.2,0.1-0.4,0.1-0.7,0.2c-0.2,0-0.5,0.1-0.7,0.1c-0.6,0-1.1-0.1-1.5-0.3s-0.8-0.4-1.1-0.8c-0.3-0.3-0.5-0.8-0.7-1.3s-0.2-1.1-0.2-1.7c0-0.7,0.1-1.4,0.3-1.9c0.2-0.5,0.4-1,0.8-1.3c0.3-0.4,0.7-0.6,1.2-0.8s1-0.3,1.5-0.3c0.2,0,0.4,0,0.7,0.1c0.2,0,0.4,0.1,0.6,0.2c0.2,0.1,0.3,0.1,0.5,0.2c0.1,0.1,0.2,0.2,0.3,0.2s0.1,0.1,0.1,0.2c0,0,0,0.1,0.1,0.2c0,0.1,0,0.1,0,0.2c0,0.1,0,0.2,0,0.4c0,0.3,0,0.5-0.1,0.7c-0.1,0.1-0.1,0.2-0.2,0.2s-0.2,0-0.3-0.1s-0.2-0.2-0.4-0.3c-0.1-0.1-0.3-0.2-0.5-0.3s-0.4-0.1-0.7-0.1c-0.5,0-1,0.2-1.2,0.6c-0.3,0.4-0.4,1-0.4,1.8c0,0.4,0,0.7,0.1,1.1c0.1,0.3,0.2,0.6,0.3,0.8c0.1,0.2,0.3,0.4,0.5,0.5s0.5,0.1,0.7,0.1c0.3,0,0.5,0,0.7-0.1s0.4-0.2,0.5-0.3c0.2-0.1,0.3-0.2,0.4-0.3s0.2-0.1,0.3-0.1h0.1c0,0,0.1,0.1,0.1,0.2c0,0.1,0,0.2,0,0.3s0,0.3,0,0.4C108.9,159.4,108.9,159.5,108.9,159.6z"/><path id="XMLID_48_" fill="#191919" d="M115.9,154.1c0,0.1,0,0.2-0.1,0.3c0,0.1-0.1,0.1-0.1,0.1h-0.1h-1.9v5.8c0,0.1,0,0.1,0,0.1s-0.1,0.1-0.2,0.1s-0.2,0-0.3,0.1c-0.1,0-0.3,0-0.5,0s-0.4,0-0.5,0s-0.2,0-0.3-0.1c-0.1,0-0.1-0.1-0.2-0.1v-0.1v-5.8h-1.9c-0.1,0-0.1,0-0.1,0l-0.1-0.1c0-0.1,0-0.2-0.1-0.3c0-0.1,0-0.3,0-0.5s0-0.3,0-0.4c0-0.1,0-0.2,0.1-0.3c0-0.1,0.1-0.1,0.1-0.1h0.1h5.8h0.1l0.1,0.1c0,0,0,0.2,0.1,0.3c0,0.1,0,0.3,0,0.4C115.9,153.9,115.9,154,115.9,154.1z"/><path id="XMLID_50_" fill="#191919" d="M124.3,158.4c-0.1,0.5-0.3,1-0.6,1.3c-0.3,0.4-0.6,0.7-1,0.9s-0.9,0.3-1.4,0.3c-0.2,0-0.4,0-0.6-0.1c-0.2,0-0.4-0.1-0.5-0.2c-0.2-0.1-0.3-0.2-0.5-0.3s-0.3-0.3-0.5-0.4v3.5c0,0.1,0,0.1,0,0.1s-0.1,0.1-0.2,0.1s-0.2,0-0.3,0.1c-0.1,0-0.3,0-0.5,0s-0.4,0-0.5,0s-0.2,0-0.3-0.1c-0.1,0-0.1-0.1-0.2-0.1v-0.1V153c0-0.1,0-0.1,0-0.1l0.1-0.1c0.1,0,0.2,0,0.3-0.1c0.1,0,0.2,0,0.4,0c0.2,0,0.3,0,0.4,0s0.2,0,0.3,0.1c0.1,0,0.1,0.1,0.1,0.1v0.1v0.9c0.2-0.2,0.4-0.4,0.6-0.6c0.2-0.2,0.4-0.3,0.6-0.4c0.2-0.1,0.4-0.2,0.7-0.3c0.2-0.1,0.5-0.1,0.7-0.1c0.5,0,1,0.1,1.4,0.3s0.7,0.5,0.9,0.9c0.2,0.4,0.4,0.8,0.5,1.3s0.2,1,0.2,1.6C124.5,157.3,124.4,157.9,124.3,158.4z M122.3,155.9c0-0.3-0.1-0.6-0.2-0.8s-0.3-0.4-0.4-0.5c-0.2-0.1-0.4-0.2-0.7-0.2c-0.1,0-0.3,0-0.4,0.1c-0.1,0-0.3,0.1-0.4,0.2c-0.1,0.1-0.3,0.2-0.4,0.4c-0.1,0.1-0.3,0.3-0.5,0.6v2.4c0.3,0.4,0.6,0.7,0.8,0.9c0.3,0.2,0.5,0.3,0.8,0.3s0.5-0.1,0.7-0.2c0.2-0.1,0.3-0.3,0.5-0.5c0.1-0.2,0.2-0.5,0.3-0.8c0-0.3,0.1-0.6,0.1-0.8C122.3,156.5,122.3,156.2,122.3,155.9z"/><path id="XMLID_53_" fill="#191919" d="M132.4,160.7c-0.1,0-0.1,0.1-0.3,0.1c-0.1,0-0.3,0-0.5,0s-0.4,0-0.5,0s-0.2,0-0.2-0.1c0,0-0.1-0.1-0.1-0.2v-0.6c-0.3,0.3-0.6,0.6-1,0.8s-0.8,0.3-1.3,0.3c-0.4,0-0.8,0-1.1-0.2c-0.3-0.1-0.6-0.2-0.9-0.4c-0.2-0.2-0.4-0.5-0.6-0.8c-0.1-0.3-0.2-0.6-0.2-1s0.1-0.8,0.3-1.1c0.2-0.3,0.4-0.6,0.7-0.8c0.3-0.2,0.8-0.4,1.3-0.5s1.1-0.1,1.7-0.1h0.7v-0.4c0-0.2,0-0.4-0.1-0.6c0-0.2-0.1-0.3-0.2-0.4c-0.1-0.1-0.2-0.2-0.4-0.3c-0.2-0.1-0.4-0.1-0.7-0.1c-0.3,0-0.7,0-0.9,0.1c-0.3,0.1-0.5,0.2-0.7,0.3s-0.4,0.2-0.5,0.3s-0.2,0.1-0.3,0.1c-0.1,0-0.1,0-0.2-0.1c0,0-0.1-0.1-0.1-0.2c0-0.1-0.1-0.2-0.1-0.3s0-0.2,0-0.3c0-0.2,0-0.3,0-0.4s0.1-0.2,0.2-0.3s0.2-0.2,0.4-0.3c0.2-0.1,0.4-0.2,0.7-0.3c0.3-0.1,0.5-0.1,0.9-0.2c0.3,0,0.6-0.1,0.9-0.1c0.6,0,1.1,0.1,1.5,0.2c0.4,0.1,0.7,0.3,1,0.5s0.5,0.5,0.6,0.9s0.2,0.8,0.2,1.3v5C132.5,160.5,132.5,160.6,132.4,160.7z M129.6,157.3c-0.3,0-0.6,0-0.9,0.1c-0.2,0-0.4,0.1-0.6,0.2c-0.1,0.1-0.3,0.2-0.3,0.4c-0.1,0.1-0.1,0.3-0.1,0.5c0,0.3,0.1,0.6,0.3,0.7c0.2,0.2,0.5,0.3,0.8,0.3s0.6-0.1,0.8-0.2c0.2-0.1,0.5-0.4,0.8-0.7v-1.3H129.6z"/><path id="XMLID_56_" fill="#191919" d="M142.6,163.4c-0.1,0-0.4,0.1-0.7,0.1c-0.3,0-0.6,0-0.7-0.1s-0.2-0.1-0.2-0.2v-2.5h-5.9c-0.2,0-0.3-0.1-0.4-0.2c-0.1-0.1-0.1-0.3-0.1-0.5v-7c0-0.1,0-0.1,0-0.1s0.1-0.1,0.2-0.1s0.2,0,0.3-0.1c0.1,0,0.3,0,0.5,0s0.4,0,0.5,0s0.2,0,0.3,0.1c0.1,0,0.1,0.1,0.2,0.1v0.1v5.9h2.8V153c0-0.1,0-0.1,0-0.1s0.1-0.1,0.2-0.1s0.2,0,0.3-0.1c0.1,0,0.3,0,0.5,0s0.4,0,0.5,0s0.2,0,0.3,0.1c0.1,0,0.1,0.1,0.2,0.1v0.1v5.9h0.9c0.2,0,0.3,0,0.3,0.1c0.1,0.1,0.1,0.2,0.1,0.3v3.8C142.8,163.3,142.8,163.3,142.6,163.4z"/><path id="XMLID_58_" fill="#191919" d="M151.5,160.6c0,0-0.1,0.1-0.2,0.1s-0.2,0-0.3,0c-0.1,0-0.3,0-0.5,0s-0.4,0-0.5,0s-0.2,0-0.3,0c-0.1,0-0.1-0.1-0.2-0.1l-0.1-0.1v-3.3c0-0.2,0-0.5,0-0.7s0-0.5,0.1-0.7c-0.1,0.2-0.3,0.5-0.4,0.7c-0.2,0.2-0.3,0.4-0.5,0.7l-2.5,3.4c0,0.1-0.1,0.1-0.1,0.1s-0.1,0.1-0.2,0.1s-0.2,0-0.3,0c-0.1,0-0.2,0-0.4,0c-0.2,0-0.4,0-0.5,0s-0.2,0-0.3,0c-0.1,0-0.1-0.1-0.1-0.1v-0.1V153v-0.1c0,0,0.1-0.1,0.2-0.1s0.2,0,0.3-0.1c0.1,0,0.3,0,0.5,0c0.4,0,0.7,0,0.8,0.1s0.2,0.1,0.2,0.2v3.3c0,0.2,0,0.5,0,0.7s0,0.5-0.1,0.7c0.1-0.2,0.3-0.4,0.4-0.7c0.1-0.2,0.3-0.4,0.4-0.6l2.5-3.4c0-0.1,0.1-0.1,0.1-0.2c0,0,0.1-0.1,0.2-0.1s0.2,0,0.3,0c0.1,0,0.2,0,0.4,0c0.2,0,0.4,0,0.5,0s0.2,0,0.3,0.1c0.1,0,0.1,0.1,0.2,0.1v0.1v7.4C151.5,160.5,151.5,160.6,151.5,160.6z"/><path id="XMLID_60_" fill="#191919" d="M161,160.6c0,0-0.1,0.1-0.2,0.1c-0.1,0-0.2,0-0.3,0s-0.3,0-0.5,0s-0.4,0-0.5,0s-0.2,0-0.3,0s-0.1-0.1-0.2-0.1l-0.1-0.1v-3.3c0-0.2,0-0.5,0-0.7s0-0.5,0.1-0.7c-0.1,0.2-0.3,0.5-0.4,0.7c-0.2,0.2-0.3,0.4-0.5,0.7l-2.5,3.4c0,0.1-0.1,0.1-0.1,0.1s-0.1,0.1-0.2,0.1c-0.1,0-0.2,0-0.3,0s-0.2,0-0.4,0c-0.2,0-0.4,0-0.5,0s-0.2,0-0.3,0c-0.1,0-0.1-0.1-0.1-0.1v-0.1V153v-0.1c0,0,0.1-0.1,0.2-0.1s0.2,0,0.3-0.1c0.1,0,0.3,0,0.5,0c0.4,0,0.7,0,0.8,0.1c0.2,0.1,0.2,0.1,0.2,0.2v3.3c0,0.2,0,0.5,0,0.7s0,0.5-0.1,0.7c0.1-0.2,0.3-0.4,0.4-0.7c0.1-0.2,0.3-0.4,0.4-0.6l2.5-3.4c0-0.1,0.1-0.1,0.1-0.2c0,0,0.1-0.1,0.2-0.1c0.1,0,0.2,0,0.3,0s0.2,0,0.4,0s0.4,0,0.5,0s0.2,0,0.3,0.1c0.1,0,0.1,0.1,0.2,0.1v0.1v7.4C161,160.5,161,160.6,161,160.6z"/></g></g></svg>
