<svg version="1.1" xmlns="http://www.w3.org/2000/svg" xmlns:xlink="http://www.w3.org/1999/xlink" x="0px" y="0px" viewBox="0 0 200 200" enable-background="new 0 0 200 200" xml:space="preserve"><rect id="XMLID_14_" y="0" fill="none" width="200" height="200"/><circle id="XMLID_1_" opacity="0.9" fill="#BB3F3F" cx="100" cy="100" r="100"/><g id="XMLID_4_"><path id="XMLID_5_" fill="#FFFFFF" d="M69.5,39.9l-0.8,0c-0.3,0-0.6,0.1-0.7,0.2v10.5c1.2-0.1,1.8-0.1,1.9-0.1c1.3,0,1.9,0.3,1.9,0.9v0.1c-0.2,0.3-0.4,0.5-0.8,0.7c-0.4,0.2-0.7,0.3-1,0.3c-0.3,0-0.7,0-1.1,0h-1.1c-0.8,0-1.4-0.2-1.6-0.5c-0.1-0.2-0.1-0.4-0.1-0.6V31.6c0-0.4-0.1-1-0.2-1.7c-0.2-0.8-0.2-1.3-0.2-1.7V28c0.4-0.6,0.7-1,0.8-1.2l2.5-0.3c0.3,0,0.7,0.1,1,0.3c0.3,0.2,0.5,0.5,0.5,0.8c0,0.7-0.5,1-1.5,1l-1,0c-0.2,0-0.3,0-0.4,0l0.3,5.6c0,0.5,0,1.1-0.1,2c-0.1,0.9-0.1,1.5-0.1,1.9c0.1,0,0.3-0.1,0.5-0.1c0.5-0.1,0.8-0.2,1.1-0.2c0.3,0,0.5,0.1,0.7,0.3c0.2,0.2,0.3,0.4,0.3,0.7s-0.1,0.5-0.2,0.7C70,39.7,69.8,39.9,69.5,39.9z"/><path id="XMLID_7_" fill="#FFFFFF" d="M74.3,38.5l0.2-6.3c0-1.1,0.4-1.9,1.2-2.5v0.2c0.1-0.1,0.2-0.1,0.2-0.1c0.5,0,1.2,0.9,2,2.7c0.8,1.8,1.5,3.8,2.2,6c0.6,2.2,1.3,4.4,1.9,6.6c0.6,2.2,1,3.5,1.2,3.9c0.5-4.7,0.7-10.5,0.7-17.2l0-0.9c0-0.7,0.3-1,0.8-1c0.3,0,0.6,0.1,0.7,0.4c0.2,0.3,0.2,0.6,0.2,0.9v2.6c0,2.7-0.1,6.2-0.4,10.7c-0.2,4.5-0.5,7-0.9,7.5c-0.6,0.2-1,0.3-1.3,0.3c-0.2,0-0.4-0.1-0.5-0.2c-0.1-0.2-0.2-0.4-0.3-0.7c-0.1-0.3-0.1-0.6-0.2-0.7l0-0.1c0-0.8-0.8-3.5-2.4-8c-1.6-4.5-2.8-7.6-3.5-9.3v17.1c0,0,0.1,0.1,0.1,0.2c0.1,0.2,0.2,0.5,0.2,0.7c0,0.2-0.1,0.4-0.3,0.6c-0.2,0.2-0.4,0.3-0.7,0.3c-0.7,0-1.1-0.7-1.1-2.1L74.3,38.5z"/><path id="XMLID_9_" fill="#FFFFFF" d="M97.3,45.5l0.2,3.6c0,1.1-0.4,2-1.2,2.6c-0.8,0.6-1.7,0.9-2.7,0.9c-1.6,0-2.7-0.6-3.4-1.8c-0.5-0.8-0.8-1.6-1-2.3c-0.1-0.7-0.2-1.3-0.3-1.7c-0.1-0.4-0.1-0.9-0.1-1.6c0-0.9-0.1-1.7-0.1-2.3v-1.5c0-3.2,0.1-5.2,0.3-6.1c0.2-0.8,0.4-1.6,0.6-2.4c0.2-0.7,0.5-1.3,0.9-1.7c0.9-1,1.8-1.5,3-1.5c1.1,0,1.7,0.3,1.7,0.9c0,0.3-0.1,0.5-0.3,0.7c-0.2,0.2-0.5,0.3-0.7,0.3l-0.7-0.1c-0.8,0-1.4,0.8-1.8,2.3c-0.6,2.2-0.9,4.9-0.9,8c0,2.1,0.1,3.6,0.2,4.4c0.1,0.8,0.3,1.5,0.5,2c0.2,0.6,0.3,1,0.6,1.3c0.5,0.8,1.2,1.2,2,1.2c1.1,0,1.6-1.8,1.6-5.4v-1.6c-0.2-0.1-0.4-0.1-0.8-0.1l-0.7,0c-0.8,0-1.2-0.3-1.2-0.8c0-0.3,0.1-0.6,0.3-0.7c0.2-0.2,0.5-0.2,0.8-0.2v0h0.5c2,0,3.1,0.3,3.1,1L97.3,45.5z"/><path id="XMLID_11_" fill="#FFFFFF" d="M102.8,33.2l0.1,8.2c-0.1,0.3-0.2,0.7-0.2,1.2v0.7l-0.1,5.4c0,1.6,0.4,2.3,1.1,2.3l1.4,0c1.2,0,1.8,0.3,1.8,1c0,0.2-0.1,0.4-0.3,0.6c-0.2,0.2-0.4,0.3-0.7,0.3c-0.8-0.3-1.8-0.4-3-0.4c-0.4,0.2-0.7,0.3-1.1,0.3c-0.3,0-0.6-0.1-0.8-0.3c-0.2-0.2-0.3-0.5-0.3-0.8c0-1.7,0.1-4.2,0.2-7.6c0.1-3.4,0.2-5.9,0.2-7.6v-0.2c-0.1-1.4-0.2-2.5-0.2-3.2c0-2.1,0.4-3.2,1.2-3.2c0.2,0,0.4,0.1,0.6,0.2s0.3,0.4,0.3,0.6L102.8,33.2z"/><path id="XMLID_13_" fill="#FFFFFF" d="M113.1,41l0.2,7.2v1l0,0.9h0.4l1,0c0.9,0,1.4,0.3,1.4,0.8c0,0.3-0.1,0.5-0.3,0.7c-0.2,0.2-0.5,0.3-0.8,0.3h-1.5c-1,0-1.7,0-2-0.1c-0.2,0-0.3,0-0.4,0c-0.8,0-1.2-0.3-1.2-0.8c0-0.2,0.1-0.4,0.2-0.6c0.1-0.2,0.3-0.3,0.4-0.3h1l0.1-0.4l-0.2-7.2l0.2-7.6c0-1.3-0.1-2.5-0.2-3.7h-0.6l-0.8,0c-0.3,0-0.6-0.1-0.8-0.2c-0.2-0.1-0.3-0.4-0.3-0.7c0-0.5,0.6-0.8,1.7-0.8h4.1c0.9,0,1.4,0.2,1.4,0.7c0,0.2-0.1,0.4-0.3,0.6c-0.2,0.2-0.4,0.3-0.7,0.3h-1.7c0.1,0.9,0.1,2,0.1,3.2L113.1,41z"/><path id="XMLID_16_" fill="#FFFFFF" d="M118.9,50.9l1.4,0.2c0.4,0,0.8-0.2,1.1-0.6c0.3-0.4,0.6-0.8,0.7-1.4c0.3-1.1,0.4-2,0.4-2.9c0-0.8-0.1-1.7-0.4-2.5c-0.3-0.8-0.6-1.6-1-2.3c-0.4-0.7-0.8-1.4-1.2-2.1c-1-1.7-1.4-3.4-1.4-5.1c0-1,0.2-1.9,0.5-2.7c0.6-1.5,1.5-2.2,2.6-2.2c0.4,0,0.8,0.1,1.1,0.4c0.4,0.3,0.5,0.5,0.5,0.8c0,0.5-0.3,0.8-0.8,0.8c-0.2,0-0.5-0.1-0.7-0.2c-0.7,0-1.2,0.8-1.5,2.4c-0.1,0.3-0.1,0.7-0.1,1.2c0,0.5,0.1,1,0.3,1.7c0.2,0.7,0.5,1.3,0.8,1.8c0.3,0.5,0.6,1.1,1,1.7c0.3,0.6,0.7,1.3,1,1.9c0.7,1.4,1.1,3,1,4.7c0,1.4-0.3,2.7-0.9,3.9c-0.3,0.6-0.8,1.1-1.3,1.5s-1.2,0.6-2,0.6v0.1c-0.9-0.1-1.4-0.6-1.5-1.3L118.9,50.9z"/><path id="XMLID_18_" fill="#FFFFFF" d="M129.3,31.8l-0.1,8.5c0.4,0.1,1,0.2,1.9,0.2h1.2c0.1-0.1,0.1-0.5,0.1-1.1s-0.1-2-0.2-4.2s-0.2-3.8-0.2-4.8c0-0.3,0.1-0.5,0.3-0.6c0.2-0.2,0.4-0.3,0.6-0.3s0.3,0,0.4,0s0.2,0.1,0.4,0.1c0.1,0.1,0.2,0.1,0.3,0.1c0,2.9,0.1,7.2,0.3,12.9s0.3,8.6,0.3,8.8c0,0.2-0.1,0.4-0.4,0.6c-0.2,0.2-0.5,0.3-0.8,0.3c-0.3,0-0.5-0.2-0.7-0.6s-0.3-1.1-0.4-1.9c-0.1-0.8-0.1-1.6-0.1-2.2c0-0.3,0-0.6,0-0.9c0-0.5,0-1,0-1.6c0-1.1,0-1.7,0-1.8v-0.1l0-1l-0.2-0.3v0c-0.2,0-0.4,0.1-0.6,0.1l-2.2-0.3v3.9l0.2,5.6c0,0.3-0.1,0.6-0.2,0.9s-0.4,0.4-0.7,0.4c-0.5,0-0.8-0.4-0.9-1.2c-0.2-0.8-0.3-2-0.3-3.4l0.1-5.2c0-1.1,0-1.7,0-1.8v-0.2c0.1-1.2,0.1-1.8,0.1-2l-0.2-7.7c0-0.3,0.1-0.5,0.3-0.7c0.2-0.2,0.4-0.3,0.7-0.3C128.9,29.8,129.3,30.5,129.3,31.8z"/><path id="XMLID_20_" fill="#FFFFFF" d="M64.5,86.9l-1.3,0.1c-0.8,0-1.2-0.3-1.2-1c0-0.6,0.7-0.9,2.2-1.1c0.3,0,0.6,0,0.9,0c0.3,0,0.6,0.2,0.9,0.5c0.2,0.4,0.4,0.8,0.4,1.4c0,0.6,0.1,1.6,0.3,2.9c0.2,1.3,0.3,2.2,0.3,2.7c0,0.8-0.3,1.2-0.8,1.2c-0.6,0-0.9-0.2-1.1-0.7v0c-0.1,0.1-0.4,0.2-0.7,0.4c-0.7,0.4-1.4,0.6-2,0.6c-0.5,0-1-0.1-1.5-0.3c-1-0.4-1.8-1.1-2.4-2.1c-0.6-1-1-2-1.2-3c-0.2-0.9-0.3-1.7-0.4-2.2c-0.1-0.6-0.1-1.2-0.2-1.9c-0.1-0.9-0.1-2-0.1-3.2l0-2.5c0-2.2,0.1-3.8,0.2-4.7c0.1-1,0.3-1.7,0.4-2.3c0.1-0.6,0.3-1.1,0.5-1.6c0.2-0.5,0.4-0.9,0.7-1.4c0.3-0.5,0.6-0.8,1-1.1c0.8-0.6,1.7-1,2.8-1c1,0,1.6,0.3,1.6,1c0,0.2-0.1,0.4-0.3,0.6c-0.2,0.1-0.4,0.2-0.6,0.2l-1-0.2c-0.9,0-1.5,0.5-2,1.5c-0.5,1.1-0.9,2.2-1,3.2c-0.1,1-0.2,1.8-0.3,2.4c-0.1,0.6-0.1,1.3-0.2,2.1c0,1.1-0.1,2.1,0,3.2l0,2.1c0,2.2,0.1,3.7,0.3,4.6c0.2,0.9,0.4,1.6,0.6,2.2c0.2,0.6,0.4,1,0.7,1.4c0.9,0.7,1.8,1.1,2.5,1.2c1,0,1.8-0.5,2.5-1.4C65,88.8,64.8,87.5,64.5,86.9z"/><path id="XMLID_22_" fill="#FFFFFF" d="M71.6,81.7l0,3.7c0,3,0.2,5.4,0.6,7.1l-0.4,0.9h-0.9l-0.4-0.5c0-1,0-2.2,0-3.4c0-1.3-0.1-4-0.3-8.1c-0.2-4.2-0.3-7.2-0.3-9.3c0-1.1,0.4-1.6,1.1-1.6c1.2,0,2.2,0.3,3,0.9c0.8,0.6,1.2,1.5,1.2,2.7v2.4c0,0.7-0.1,1.2-0.4,1.8c-0.2,0.5-0.5,1.1-0.8,1.7c-0.3,0.6-0.5,0.9-0.5,1c0.1,0.6,0.3,1.6,0.6,3.3c0.7,3.5,1.4,6.1,2.2,7.6c0.2,0.4,0.3,0.8,0.3,1s-0.1,0.5-0.2,0.6c-0.1,0.2-0.3,0.3-0.6,0.3c-0.5,0-0.9-0.5-1.4-1.6c-0.4-1.1-0.8-2.3-1.1-3.6c-0.8-4.1-1.3-6.3-1.5-6.7H71.6z M71.7,71.7l-0.1,0.5c0,0.9,0,2.3,0.1,4c0,1.8,0.1,3,0.1,3.8c0.5-0.3,1-1,1.3-2.2c0.3-1.2,0.5-2.1,0.5-2.7c0-0.6,0-1.1,0-1.4c0-0.3-0.1-0.6-0.2-1C73,72.1,72.5,71.7,71.7,71.7z"/><path id="XMLID_25_" fill="#FFFFFF" d="M86.3,86.2l0.4,2.1c0,0.3,0.1,1,0.3,2c0.2,1.1,0.3,1.8,0.3,2.1v0c0,0.5-0.2,0.8-0.6,1c-0.5,0-0.8-0.1-1.1-0.2s-0.4-0.5-0.4-0.9c0-1-0.2-2.4-0.5-4.2l-3.4-0.5c-0.2,0.8-0.4,1.6-0.5,2.5c-0.1,0.9-0.2,1.5-0.3,2c-0.2,0.8-0.6,1.3-1.1,1.3c-0.3,0-0.5-0.1-0.7-0.3c-0.2-0.2-0.3-0.4-0.3-0.7l0.1-0.3c1.5-5.9,2.7-11.6,3.4-17.2c0-0.2,0.1-0.6,0.1-1.4c0.1-1.7,0.3-2.7,0.6-3.2h1.1c0.3,0,0.6,0.1,0.8,0.2c0.2,0.1,0.3,0.4,0.3,0.6c0,1.7,0.2,4.3,0.7,7.7C86.1,82.3,86.3,84.7,86.3,86.2z M84.6,86.9c-0.1-0.3-0.1-0.9-0.1-1.7c0-0.8,0-1.8-0.1-3.1c-0.1-1.2-0.2-2.6-0.4-4.3c-0.2-1.6-0.3-2.8-0.4-3.5c-1,5.7-1.7,9.7-2,12.1C81.9,86.6,82.9,86.8,84.6,86.9z"/><path id="XMLID_28_" fill="#FFFFFF" d="M102.7,92.8l0-4.3c0-1-0.1-2.5-0.2-4.4c-0.2-1.9-0.2-3.3-0.2-3.9c0-0.7,0-1.5,0.1-2.4c0-0.9,0.1-1.6,0.1-2.1c-0.1,0.3-0.5,1.9-1.1,4.7c-1.7,7.3-3,11-3.7,11c-0.4,0-0.8-0.1-1-0.4s-0.4-0.6-0.4-1.1c0-1.1-0.4-3.3-1.3-6.6c-0.8-3.3-1.6-5.9-2.1-7.7c-0.4,8-0.6,13.4-0.6,16.2l0,1c0,0.4-0.1,0.6-0.2,0.8c-0.2,0.2-0.4,0.3-0.7,0.3s-0.6-0.1-0.8-0.2C90.1,93.4,90,93.2,90,93c0-2.3,0.2-5.8,0.5-10.4s0.5-8.1,0.5-10.4c-0.1-0.2-0.2-0.4-0.2-0.7c0-0.3,0.1-0.5,0.4-0.6c0.3-0.1,0.6-0.2,0.9-0.2c0.5,0,1.4,2.3,2.9,6.8c1.4,4.6,2.3,7.7,2.7,9.5c0.1-0.3,0.3-1.2,0.6-2.5s0.6-2.7,1-4.2c0.4-1.5,0.7-2.9,1.2-4.4c1-3.4,1.8-5.1,2.4-5.1c0.3,0,0.6,0.1,0.8,0.2s0.4,0.4,0.4,0.7c0,1.6,0.1,4.1,0.2,7.3s0.2,5.6,0.2,7.1l-0.1,3.6v0c0,0.3,0.1,1.1,0.2,2.4l0.1,0.7c0.1,0.2,0.1,0.5,0.1,0.8c0,0.3-0.1,0.6-0.3,0.9c-0.2,0.3-0.5,0.5-0.8,0.5C103.1,94.9,102.7,94.2,102.7,92.8z"/><path id="XMLID_30_" fill="#FFFFFF" d="M120.6,92.8l0-4.3c0-1-0.1-2.5-0.2-4.4c-0.2-1.9-0.2-3.3-0.2-3.9c0-0.7,0-1.5,0.1-2.4c0-0.9,0.1-1.6,0.1-2.1c-0.1,0.3-0.5,1.9-1.1,4.7c-1.7,7.3-3,11-3.7,11c-0.4,0-0.8-0.1-1-0.4s-0.4-0.6-0.4-1.1c0-1.1-0.4-3.3-1.3-6.6c-0.8-3.3-1.6-5.9-2.1-7.7c-0.4,8-0.6,13.4-0.6,16.2l0,1c0,0.4-0.1,0.6-0.2,0.8c-0.2,0.2-0.4,0.3-0.7,0.3s-0.6-0.1-0.8-0.2c-0.2-0.2-0.3-0.4-0.3-0.6c0-2.3,0.2-5.8,0.5-10.4s0.5-8.1,0.5-10.4c-0.1-0.2-0.2-0.4-0.2-0.7c0-0.3,0.1-0.5,0.4-0.6c0.3-0.1,0.6-0.2,0.9-0.2c0.5,0,1.4,2.3,2.9,6.8c1.4,4.6,2.3,7.7,2.7,9.5c0.1-0.3,0.3-1.2,0.6-2.5s0.7-2.7,1-4.2c0.4-1.5,0.7-2.9,1.2-4.4c1-3.4,1.8-5.1,2.4-5.1c0.3,0,0.6,0.1,0.8,0.2s0.4,0.4,0.4,0.7c0,1.6,0.1,4.1,0.2,7.3c0.1,3.3,0.2,5.6,0.2,7.1l-0.1,3.6v0c0,0.3,0.1,1.1,0.2,2.4l0.1,0.7c0.1,0.2,0.1,0.5,0.1,0.8c0,0.3-0.1,0.6-0.3,0.9c-0.2,0.3-0.5,0.5-0.8,0.5C120.9,94.9,120.6,94.2,120.6,92.8z"/><path id="XMLID_32_" fill="#FFFFFF" d="M133.3,86.2l0.4,2.1c0,0.3,0.1,1,0.3,2c0.2,1.1,0.3,1.8,0.3,2.1v0c0,0.5-0.2,0.8-0.6,1c-0.5,0-0.8-0.1-1.1-0.2s-0.4-0.5-0.4-0.9c0-1-0.2-2.4-0.5-4.2l-3.4-0.5c-0.2,0.8-0.4,1.6-0.5,2.5s-0.2,1.5-0.3,2c-0.2,0.8-0.6,1.3-1.1,1.3c-0.3,0-0.5-0.1-0.7-0.3c-0.2-0.2-0.3-0.4-0.3-0.7l0.1-0.3c1.5-5.9,2.7-11.6,3.4-17.2c0-0.2,0.1-0.6,0.1-1.4c0.1-1.7,0.3-2.7,0.6-3.2h1.1c0.3,0,0.6,0.1,0.8,0.2c0.2,0.1,0.3,0.4,0.3,0.6c0,1.7,0.2,4.3,0.7,7.7C133.1,82.3,133.3,84.7,133.3,86.2z M131.6,86.9c-0.1-0.3-0.1-0.9-0.1-1.7c0-0.8,0-1.8-0.1-3.1c-0.1-1.2-0.2-2.6-0.4-4.3c-0.2-1.6-0.3-2.8-0.4-3.5c-1,5.7-1.7,9.7-2,12.1C128.9,86.6,129.9,86.8,131.6,86.9z"/><path id="XMLID_35_" fill="#FFFFFF" d="M138.8,81.7l0,3.7c0,3,0.2,5.4,0.6,7.1l-0.4,0.9h-0.9l-0.4-0.5c0-1,0-2.2,0-3.4c0-1.3-0.1-4-0.3-8.1s-0.3-7.2-0.3-9.3c0-1.1,0.4-1.6,1.1-1.6c1.2,0,2.2,0.3,3,0.9c0.8,0.6,1.2,1.5,1.2,2.7v2.4c0,0.7-0.1,1.2-0.4,1.8c-0.2,0.5-0.5,1.1-0.8,1.7c-0.3,0.6-0.5,0.9-0.5,1c0.1,0.6,0.3,1.6,0.6,3.3c0.7,3.5,1.4,6.1,2.2,7.6c0.2,0.4,0.3,0.8,0.3,1s-0.1,0.5-0.2,0.6c-0.1,0.2-0.3,0.3-0.6,0.3c-0.5,0-0.9-0.5-1.4-1.6c-0.4-1.1-0.8-2.3-1.1-3.6c-0.8-4.1-1.3-6.3-1.5-6.7H138.8z M139,71.7l-0.1,0.5c0,0.9,0,2.3,0.1,4c0,1.8,0.1,3,0.1,3.8c0.5-0.3,1-1,1.3-2.2c0.3-1.2,0.5-2.1,0.5-2.7c0-0.6,0-1.1,0-1.4c0-0.3-0.1-0.6-0.2-1C140.3,72.1,139.8,71.7,139,71.7z"/><path id="XMLID_38_" fill="#FFFFFF" d="M45.3,128.2l0.2,4.9c0,0.9-0.3,1.4-0.8,1.4l-0.7-0.5c0.2-2.2,0.3-4.5,0.3-6.9s0.1-5.2,0.2-8.2c0.2-3,0.2-5.3,0.2-6.8c0-0.2,0.1-0.4,0.3-0.5s0.5-0.2,0.9-0.2s1.2,0.1,2.2,0.2c1,0.2,1.6,0.4,1.6,0.7c0,0.4-0.4,0.6-1.2,0.6c-0.4-0.2-0.9-0.3-1.4-0.3c-0.5,0-0.8,0-0.9,0c-0.1,0-0.1,0-0.1,0.1c0,0,0,0.1-0.1,0.2c0,0.1-0.1,0.2-0.1,0.4l-0.3,7.2v1.2c0,0.1,0.2,0.1,0.6,0.1c1.1,0,1.7,0.1,1.7,0.5c0,0.2-0.1,0.3-0.3,0.5c-0.2,0.1-0.4,0.2-0.5,0.2l-1.1-0.2c-0.4,0-0.6,0.6-0.6,1.7V128.2z M44.2,117.1L44.2,117.1C44.2,117.1,44.2,117.1,44.2,117.1C44.2,117.1,44.1,117.1,44.2,117.1C44.1,117.1,44.2,117.1,44.2,117.1L44.2,117.1z"/><path id="XMLID_41_" fill="#FFFFFF" d="M61.4,120.8l0.1,4.1c0,5.1-0.8,8.2-2.5,9.3c-0.4,0.3-0.8,0.4-1.3,0.4c-2.7,0-4-4.2-4-12.5c0-3.2,0.2-6,0.7-8.4c0.3-1.7,0.8-2.6,1.5-2.6c0.2,0,0.3,0.1,0.4,0.2c0.1,0.1,0.3,0.2,0.6,0.3c0.2,0.1,0.6,0.2,1,0.2s0.7,0.1,0.9,0.2c0.5,0.1,0.9,0.5,1.3,1.3c1,1.6,1.4,4.1,1.4,7.3L61.4,120.8z M54.8,122l0.1,2.7c0,2.2,0.2,4.2,0.7,6.2c0.2,0.7,0.4,1.4,0.8,1.9s0.7,0.8,1.2,0.8s0.8-0.2,1.2-0.5c0.3-0.3,0.6-0.8,0.8-1.4c0.2-0.6,0.4-1.2,0.5-1.8c0.1-0.6,0.2-1.3,0.3-2.1c0.1-1.2,0.1-2.3,0.1-3.3l-0.4-8l-0.1-0.3l0.1-0.2c0-1-0.3-1.8-0.8-2.6c-0.6-0.7-1.2-1.1-2-1.1h-1.4c-0.2,0-0.4,1-0.5,3c-0.1,2-0.2,3.1-0.3,3.4L54.8,122z"/><path id="XMLID_44_" fill="#FFFFFF" d="M66,112.5c0-0.9,0.2-1.3,0.7-1.3c1.1,0,2,0.3,2.7,0.8c0.7,0.6,1.1,1.4,1.1,2.5v2.5c0,0.9-0.4,2.1-1.3,3.8c-0.3,0.5-0.4,0.8-0.4,0.9c0,0,0.4,1.8,1.3,5.4c0.9,3.5,1.3,5.4,1.4,5.5c0,0.1,0.2,0.3,0.3,0.7c0.2,0.4,0.3,0.7,0.3,0.9s-0.1,0.4-0.4,0.4l-0.5-0.2c-0.5-0.6-1.1-2.8-1.7-6.6c-0.6-3.7-1.1-5.5-1.6-5.5h-0.1c-0.5,0-0.7,0.2-0.7,0.5c0,1.2,0.1,3.3,0.2,6.2c0.1,2.9,0.3,4.5,0.4,4.8l-0.2,0.6h-0.5l-0.2-0.3C66.2,124.1,66,117,66,112.5z M67,113l0.1,8.2l0.1,0.1c0.4,0,0.8-0.2,1.2-0.7c0.3-0.4,0.6-1,0.8-1.6c0.4-1.3,0.5-2.3,0.5-3s0-1.2-0.1-1.6c0-0.3-0.1-0.7-0.3-1.1c-0.3-0.8-0.9-1.2-1.9-1.2c-0.1,0-0.2,0.1-0.3,0.3S67,112.8,67,113z"/><path id="XMLID_47_" fill="#FFFFFF" d="M82.3,109l-0.1-0.6c0-0.2,0.2-0.3,0.7-0.3c0.9,0,1.6,0.3,2.1,0.8c0.5,0.5,0.8,1.1,1,1.7c0.2,0.6,0.3,1.1,0.4,1.4c0.2,0.7,0.3,1.2,0.3,1.6c0,1.1-0.3,2.5-0.9,4.1c-0.4,1-0.6,1.6-0.6,1.7c0,1.1,0.4,3.3,1.3,6.7c0.9,3.4,1.6,5.7,2.2,7.1c0,0.7-0.1,1.1-0.4,1.1c-0.2,0-0.4-0.1-0.6-0.3c-0.1-0.2-0.2-0.3-0.3-0.4c-0.1-0.9-0.4-2.1-0.9-3.7c-0.5-1.6-0.8-2.6-0.9-3.2c-0.1-0.5-0.3-1.6-0.6-3.2s-0.6-2.9-0.8-3.7l-0.3-0.2l-0.6,0.3v12.8l0.1,0.8c0,0.5-0.2,0.7-0.6,0.7c-0.2,0-0.3-0.1-0.4-0.2c-0.1-0.1-0.2-0.2-0.2-0.4l0.1-0.2l0.1-20.6V109z M83.3,109.1l-0.2,7.4c0,1,0,1.7,0.1,2.2h0.1c0.2,0,0.5-0.2,0.9-0.7c0.4-0.5,0.7-0.8,0.9-1.1c0.2-0.3,0.3-0.7,0.4-1.4s0.1-1.2,0.1-1.6c0-0.4,0-0.9-0.1-1.3c-0.1-0.5-0.2-1-0.3-1.5s-0.3-1-0.6-1.4c-0.3-0.4-0.6-0.5-1-0.5v-0.1L83.3,109.1z"/><path id="XMLID_50_" fill="#FFFFFF" d="M99.8,118.6l0,0.7c0,0.6-0.1,1.4-0.1,2.3s0,1.9,0,2.8s0,1.8-0.1,2.8c0,1-0.1,1.9-0.3,2.7c-0.3,1.9-0.8,3.2-1.5,3.9c-0.8,0.7-1.6,0.8-2.6,0.2c-0.4-0.2-0.8-0.5-1.1-0.9c-0.3-0.4-0.5-1.5-0.7-3.5c-0.2-2-0.3-4.1-0.3-6.3c-0.1-6.6-0.2-10.4-0.3-11.3l0.2-0.5c0.5,0.1,0.8,0.7,0.8,1.9l0.1,9l0.4,7.2c0,2.6,0.9,3.9,2.6,3.9c1.1,0,1.7-2.4,2-7.1c0-0.3,0.1-1.9,0.2-4.6s0.1-6.1,0.1-9.9l-0.1-0.6c0-0.3,0.2-0.4,0.5-0.4c0.3,0,0.5,0.1,0.6,0.2c0.1,0.2,0.1,0.8,0.1,2c0,1.2-0.1,2.1-0.2,2.6c0,0,0,0.1,0,0.2L99.8,118.6z"/><path id="XMLID_52_" fill="#FFFFFF" d="M108,112.2l-0.7-0.2c-0.4,0-0.7,0.1-0.9,0.4c-0.3,0.3-0.5,0.6-0.6,1.1c-0.3,0.8-0.4,1.5-0.4,1.9s0,0.8,0,1s0.1,0.4,0.1,0.7c0.1,0.3,0.1,0.5,0.1,0.6s0.1,0.3,0.2,0.7c0.1,0.3,0.2,0.5,0.2,0.6l0.2,0.6c0.2,0.4,0.5,0.9,0.9,1.5c0.4,0.6,0.6,1.1,0.8,1.4s0.4,0.7,0.6,1.2c0.2,0.5,0.4,1,0.5,1.4c0.3,1.1,0.4,2,0.4,2.8c0,0.8,0,1.5-0.1,2c-0.1,0.5-0.2,1-0.4,1.6s-0.4,1-0.7,1.4c-0.6,0.9-1.5,1.4-2.6,1.4l-0.2,0.1c-0.7-0.1-1-0.4-1.1-0.8l0.2-0.3l1.2,0.2c0.5,0,1-0.2,1.3-0.6c0.4-0.4,0.7-0.9,0.8-1.5c0.3-1.2,0.5-2.2,0.5-3.2c0-1-0.1-1.9-0.4-2.8c-0.3-0.9-0.6-1.7-1-2.4s-0.8-1.4-1.2-2.2c-1-1.7-1.4-3.4-1.4-5.1c0-0.9,0.2-1.7,0.5-2.5c0.6-1.5,1.3-2.2,2.2-2.2c0.3,0,0.5,0.1,0.8,0.3c0.3,0.2,0.5,0.4,0.5,0.7C108.5,112.1,108.3,112.2,108,112.2z M108.2,112.1L108.2,112.1L108.2,112.1C108.3,112.1,108.3,112.1,108.2,112.1z"/><path id="XMLID_55_" fill="#FFFFFF" d="M117.1,112.2l-0.7-0.2c-0.4,0-0.7,0.1-0.9,0.4c-0.3,0.3-0.5,0.6-0.6,1.1c-0.3,0.8-0.4,1.5-0.4,1.9s0,0.8,0,1c0,0.2,0.1,0.4,0.1,0.7s0.1,0.5,0.1,0.6c0,0.1,0.1,0.3,0.2,0.7c0.1,0.3,0.2,0.5,0.2,0.6l0.2,0.6c0.2,0.4,0.5,0.9,0.9,1.5c0.4,0.6,0.6,1.1,0.8,1.4c0.2,0.3,0.4,0.7,0.6,1.2c0.2,0.5,0.4,1,0.5,1.4c0.3,1.1,0.4,2,0.4,2.8c0,0.8,0,1.5-0.1,2c-0.1,0.5-0.2,1-0.4,1.6s-0.4,1-0.7,1.4c-0.6,0.9-1.5,1.4-2.6,1.4l-0.2,0.1c-0.7-0.1-1-0.4-1.1-0.8l0.2-0.3l1.2,0.2c0.5,0,1-0.2,1.3-0.6c0.4-0.4,0.7-0.9,0.8-1.5c0.3-1.2,0.5-2.2,0.5-3.2c0-1-0.1-1.9-0.4-2.8c-0.3-0.9-0.6-1.7-1-2.4s-0.8-1.4-1.2-2.2c-1-1.7-1.4-3.4-1.4-5.1c0-0.9,0.2-1.7,0.5-2.5c0.6-1.5,1.3-2.2,2.2-2.2c0.3,0,0.5,0.1,0.8,0.3c0.3,0.2,0.5,0.4,0.5,0.7C117.6,112.1,117.4,112.2,117.1,112.2z M117.4,112.1L117.4,112.1L117.4,112.1C117.4,112.1,117.4,112.1,117.4,112.1z"/><path id="XMLID_58_" fill="#FFFFFF" d="M128.3,133.6l-1.1-0.1c-0.2,0-0.4,0.1-0.6,0.2c-0.2,0.1-0.5,0.2-0.9,0.2c-0.3,0-0.6-0.1-0.6-0.3l-0.6,0c-0.5,0-0.8-0.1-0.9-0.3c0-0.1,0.1-0.3,0.2-0.4c0.1-0.1,0.2-0.2,0.3-0.2h1l0.1-0.1l0.1-0.7l-0.2-7.4l0.2-7.9c0-1.5-0.1-2.8-0.2-3.9c-0.2-0.1-0.6-0.1-1-0.1l-0.8,0.1c-0.4,0-0.6-0.2-0.6-0.6c0-0.1,0.1-0.2,0.3-0.3c0.2-0.1,0.4-0.1,0.5-0.1c3.2,0,4.7,0.3,4.7,1c0,0.1,0,0.2-0.1,0.3l-0.8,0.1c-0.2-0.1-0.5-0.2-1-0.2l-0.2,0.1c0.1,0.2,0.1,0.8,0.1,1.8l-0.1,8.1l0.2,7.5l0,1c0,0.5,0,0.8,0.1,0.9l0,0.1c0,0.2,0.2,0.3,0.7,0.3l1,0c0.7,0,1,0.2,1,0.5c0,0.2-0.1,0.4-0.2,0.5C128.7,133.6,128.5,133.6,128.3,133.6z"/><path id="XMLID_60_" fill="#FFFFFF" d="M137.5,128.8l-0.9,0c-0.3-0.1-0.7-0.2-1.1-0.2c-0.4,0-0.6,0-0.6,0s-0.1,0.1-0.1,0.1c0,0.1,0,0.1,0,0.1l-0.1,0.7c0,0.6-0.1,1.3-0.3,2.1c-0.3,1.6-0.6,2.4-1,2.4c-0.1,0-0.3-0.1-0.4-0.2c-0.2-0.1-0.2-0.3-0.2-0.4c0.3-0.9,0.6-2.1,0.9-3.9c0.3-1.7,0.5-2.8,0.6-3.2c0.1-0.4,0.2-1.3,0.4-2.6c0.2-1.3,0.3-2.1,0.4-2.6s0.2-1.3,0.5-2.7s0.5-2.3,0.5-2.7s0.1-1,0.2-1.7c0.2-1.8,0.3-2.8,0.4-3l0.5,0c0.3,0,0.5-0.1,0.6-0.2c0.1,0,0.3,0,0.4,0.1c0.1,0.1,0.2,0.2,0.2,0.4c0,1.1,0.1,3.2,0.4,6.3c0.3,3.1,0.5,5.1,0.7,6c0.2,0.9,0.3,1.8,0.6,2.7c0.2,0.9,0.3,1.6,0.3,2l-0.2,0.5c0,0.5,0.1,1.3,0.3,2.2c0.2,1,0.3,1.7,0.3,2.1c0,0.4-0.1,0.7-0.3,0.8c-0.5,0-0.8-0.1-0.9-0.2c-0.1-0.1-0.2-0.3-0.2-0.6c0-0.3,0-0.7-0.1-1.1c0-0.4-0.1-0.8-0.1-1s-0.1-0.7-0.2-1.2c-0.1-0.5-0.2-0.9-0.2-1.1C138.6,128.9,138.1,128.8,137.5,128.8z M135.1,127.2c0,0.2,0.3,0.4,0.8,0.6c0.8,0.2,1.7,0.3,2.8,0.3h0.3c-0.1-0.4-0.2-1-0.2-1.5v-0.8c0-1.4-0.2-3.5-0.5-6.1s-0.5-4.7-0.6-6c-1.2,5.9-1.9,9.5-2.2,10.8C135.2,125.9,135.1,126.8,135.1,127.2z"/><path id="XMLID_63_" fill="#FFFFFF" d="M154.8,113.2l-0.1-0.8c0-0.5,0.2-0.7,0.5-0.7c0.2,0,0.4,0.1,0.5,0.3c0.1,0.2,0.2,0.4,0.2,0.7v2.3l-0.2,0.3c0,1.8-0.1,5.2-0.4,10.3c-0.2,5.1-0.5,7.9-0.7,8.3c-0.1,0-0.2,0.1-0.5,0.1c-0.3,0.1-0.5,0.1-0.6,0.1s-0.2-0.1-0.3-0.2c-0.1-0.1-0.2-0.3-0.2-0.6c-0.1-0.2-0.1-0.4-0.1-0.5l0-0.1c-0.1-0.9-0.4-2-0.9-3.2c-0.4-1.2-0.7-2-0.9-2.4c-0.1-0.1-0.4-0.9-0.9-2.5c-2-6.3-3.3-9.7-3.9-10.2c-0.2,0.7-0.3,1.5-0.3,2.4l0.1,2.7l-0.1,1.6c0,0.3,0,1,0.1,2.4h-0.1c0,3.8,0.1,5.9,0.2,6.3v3.1c0.1,0.2,0.1,0.4,0.1,0.6c0,0.5-0.2,0.8-0.6,0.8c-0.5,0-0.7-0.6-0.7-1.8l0.1-2.2l-0.2-9.8l0.2-6v-0.6c0-0.3,0-0.5,0-0.6c0-0.1,0-0.2,0.1-0.4c0-0.1,0-0.2,0.1-0.3s0.1-0.2,0.1-0.3c0.1-0.2,0.2-0.4,0.3-0.5l0.1,0.1l0.3-0.1c0.3,0.1,0.4,0.3,0.5,0.5c0,0,0,0.1,0,0.2c0,0.1,0,0.2,0,0.2c0.4,1.6,1.2,3.9,2.4,6.8s2,4.7,2.3,5.6c0.3,0.8,0.5,1.7,0.7,2.6c0.5,2,1,3.5,1.5,4.5l0.1-0.1C154.6,126.8,154.8,120.6,154.8,113.2z M154.1,133.9C154.1,133.9,154.1,133.9,154.1,133.9L154.1,133.9z"/><path id="XMLID_66_" fill="#FFFFFF" d="M66.1,163.2l0,0.1c0,0,0.3,0.9,0.8,2.6c0.3,1.4,0.5,2.4,0.5,3.1s-0.1,1.4-0.3,2.1c-0.2,0.7-0.4,1.4-0.7,2c-0.3,0.6-0.8,1.2-1.3,1.6c-0.6,0.4-1.1,0.6-1.6,0.6c-0.5,0-0.9,0-1.1,0c-0.7-0.1-1.1-0.3-1.4-0.8c0-0.3,0.1-0.4,0.4-0.4c0.2,0,0.6,0.1,1,0.3c0.4,0.2,0.8,0.3,1.2,0.3s0.8-0.2,1.2-0.6s0.7-0.9,1-1.6c0.4-1.3,0.7-2.4,0.7-3.5c0-1.1-0.2-2.2-0.5-3.4s-0.7-2.2-1.2-3.1s-1-1.9-1.4-2.8c-1.1-2.2-1.7-4.3-1.7-6.3c0-1.6,0.5-3,1.5-4c0.5-0.5,1.2-0.8,1.9-0.8c0.2,0,0.5,0.1,0.9,0.3c0.4,0.2,0.6,0.4,0.7,0.6l-0.2,0.4c-0.5,0-0.9-0.1-1.1-0.3c-0.5,0-1,0.2-1.4,0.6c-0.7,0.8-1.1,1.7-1.1,3c0,0.9,0.1,1.6,0.2,2.2c0.1,0.6,0.3,1,0.3,1.4c0.1,0.3,0.2,0.7,0.4,1.2s0.3,0.8,0.4,1.1c0.1,0.2,0.3,0.6,0.5,1.1c0.3,0.5,0.4,0.9,0.5,1s0.3,0.5,0.6,1.1C65.9,162.8,66,163.1,66.1,163.2z"/><path id="XMLID_68_" fill="#FFFFFF" d="M73,168.1l0.3,6.6c0,0.4-0.2,0.6-0.6,0.6l-0.5-0.3c-0.3-1.4-0.4-3-0.4-4.9l0.1-6.3c-0.1-0.3-0.2-0.6-0.2-0.8c0.2-0.4,0.3-1.4,0.3-3.1c0-4-0.1-6.2-0.2-6.6c0.2-0.6,0.4-0.8,0.5-0.8h1.5c0.3,0,0.6,0.1,1.1,0.4c0.5,0.2,0.8,0.5,1.1,0.7c0.6,0.5,0.8,1.9,0.8,4c0,1.9-0.1,3.1-0.2,3.5c-0.2,0.4-0.3,0.8-0.5,1.1c-0.2,0.3-0.4,0.6-0.7,0.8c-0.6,0.5-1.4,0.8-2.4,1.1V168.1z M73,154.5l0.2,4.9l-0.1,3.2l0.2,0.3c1.7,0,2.5-1.7,2.6-5.2c0-0.2,0-0.5,0-0.9s0-0.7,0-0.9c0-0.3-0.1-0.5-0.2-0.8s-0.2-0.6-0.3-0.7c-0.3-0.5-0.9-0.7-1.6-0.7c-0.3,0-0.5,0.1-0.6,0.2S73,154.2,73,154.5z"/><path id="XMLID_71_" fill="#FFFFFF" d="M81.5,174.4l0-0.9l-0.1-0.1c0.2-0.5,0.2-0.9,0.2-1.4l-0.2-4.5l0.2-10.2l-0.1-4.1c0-0.6,0.3-1,1-1c0.3,0,0.4,0.1,0.5,0.2c0.1,0,0.4,0.1,1,0.1c1.4,0.2,2.1,0.4,2.1,0.8c0,0.2-0.2,0.4-0.6,0.6c-1.3-0.4-2.2-0.6-2.8-0.6l-0.2,0.2c0,0.3,0,0.8,0,1.5l-0.1,5.3c0,0.6,0.2,0.9,0.5,0.9l1.1-0.1c0.9,0,1.3,0.2,1.3,0.6c0,0.2-0.1,0.4-0.2,0.6s-0.3,0.3-0.6,0.3s-0.5-0.1-0.7-0.3l-1.1-0.2h-0.1l-0.2,0.2v0.1c0,0.6,0.1,1.5,0.1,2.7l-0.1,4.8c0,2.3,0.2,3.5,0.5,3.8c0.2,0.2,0.6,0.2,1.1,0.2l1.3-0.1c0.7,0,1,0.1,1,0.4c0,0.4-0.5,0.6-1.5,0.6h-2.8C81.8,175.1,81.5,174.9,81.5,174.4z"/><path id="XMLID_73_" fill="#FFFFFF" d="M95,169.6l-0.9,0c-0.3-0.1-0.7-0.2-1.1-0.2c-0.4,0-0.6,0-0.6,0s-0.1,0.1-0.1,0.1c0,0.1,0,0.1,0,0.1l-0.1,0.7c0,0.6-0.1,1.3-0.3,2.1c-0.3,1.6-0.6,2.4-1,2.4c-0.1,0-0.3-0.1-0.4-0.2c-0.2-0.1-0.2-0.3-0.2-0.4c0.3-0.9,0.6-2.1,0.9-3.9c0.3-1.7,0.5-2.8,0.6-3.2c0.1-0.4,0.2-1.3,0.4-2.6c0.2-1.3,0.3-2.1,0.4-2.6s0.2-1.3,0.5-2.7c0.3-1.4,0.5-2.3,0.5-2.7c0.1-0.4,0.1-1,0.2-1.7c0.2-1.8,0.3-2.8,0.4-3l0.5,0c0.3,0,0.5-0.1,0.6-0.2c0.1,0,0.3,0,0.4,0.1c0.1,0.1,0.2,0.2,0.2,0.4c0,1.1,0.1,3.2,0.4,6.3c0.3,3.1,0.5,5.1,0.7,6c0.2,0.9,0.3,1.8,0.6,2.7c0.2,0.9,0.3,1.6,0.3,2l-0.2,0.5c0,0.5,0.1,1.3,0.3,2.2c0.2,1,0.3,1.7,0.3,2.1c0,0.4-0.1,0.7-0.3,0.8c-0.5,0-0.8-0.1-0.9-0.2c-0.1-0.1-0.2-0.3-0.2-0.6c0-0.3,0-0.7-0.1-1.1c0-0.4-0.1-0.8-0.1-1c0-0.3-0.1-0.7-0.2-1.2c-0.1-0.5-0.2-0.9-0.2-1.1C96.1,169.7,95.5,169.6,95,169.6z M92.6,168c0,0.2,0.3,0.4,0.8,0.6c0.8,0.2,1.7,0.3,2.8,0.3h0.3c-0.1-0.4-0.2-1-0.2-1.5v-0.8c0-1.4-0.2-3.5-0.5-6.1s-0.5-4.7-0.6-6c-1.2,5.9-1.9,9.5-2.2,10.8C92.7,166.7,92.6,167.6,92.6,168z"/><path id="XMLID_76_" fill="#FFFFFF" d="M106.6,159.3l-0.1,2.2c0,1,0.4,2.9,1.2,5.7c0.9,3.3,1.7,5.4,2.4,6.3c0.4,0.6,0.7,1,0.7,1.3c0,0.5-0.2,0.7-0.6,0.7c-0.5,0-1.2-1-1.9-3.1s-1.4-4.1-1.9-6.3c-0.5-2.2-0.8-3.7-0.8-4.4l-0.1-0.1c-0.1,0.2-0.3,0.5-0.5,1.1c-0.3,0.6-0.5,1-0.6,1.2c-0.3,0.8-0.5,1.6-0.5,2.4l-0.2,2.4v4.3l0.2,1.9c0,0.1-0.1,0.2-0.2,0.3s-0.3,0.1-0.5,0.1s-0.4,0-0.5-0.1c-0.1-0.1-0.2-0.3-0.2-0.6v-6.4l0.3-4.3l0.3-6.6v-4.7c0.1-0.3,0.3-0.4,0.5-0.4c0.2,0,0.4,0.1,0.6,0.2s0.2,0.3,0.2,0.4c-0.2,0.4-0.3,0.9-0.3,1.7s0,1.9-0.1,3.5s-0.1,2.8-0.1,3.6c0.2-0.1,1.1-1.7,2.6-4.7c1.5-3,2.4-4.6,2.5-4.6c0.6,0,0.9,0.2,0.9,0.6C108.9,155.1,107.6,157.1,106.6,159.3z"/><path id="XMLID_78_" fill="#FFFFFF" d="M115,174.4l0-0.9l-0.1-0.1c0.2-0.5,0.2-0.9,0.2-1.4l-0.2-4.5l0.2-10.2l-0.1-4.1c0-0.6,0.3-1,1-1c0.3,0,0.4,0.1,0.5,0.2c0.1,0,0.4,0.1,1,0.1c1.4,0.2,2.1,0.4,2.1,0.8c0,0.2-0.2,0.4-0.6,0.6c-1.3-0.4-2.2-0.6-2.8-0.6l-0.2,0.2c0,0.3,0,0.8,0,1.5l-0.1,5.3c0,0.6,0.2,0.9,0.5,0.9l1.1-0.1c0.9,0,1.3,0.2,1.3,0.6c0,0.2-0.1,0.4-0.2,0.6s-0.3,0.3-0.6,0.3s-0.5-0.1-0.7-0.3l-1.1-0.2h-0.1l-0.2,0.2v0.1c0,0.6,0.1,1.5,0.1,2.7l-0.1,4.8c0,2.3,0.2,3.5,0.5,3.8c0.2,0.2,0.6,0.2,1.1,0.2l1.3-0.1c0.7,0,1,0.1,1,0.4c0,0.4-0.5,0.6-1.5,0.6h-2.8C115.3,175.1,115.1,174.9,115,174.4z"/><path id="XMLID_80_" fill="#FFFFFF" d="M124.1,153.3c0-0.9,0.2-1.3,0.7-1.3c1.1,0,2,0.3,2.7,0.8c0.7,0.6,1.1,1.4,1.1,2.5v2.5c0,0.9-0.4,2.1-1.3,3.8c-0.3,0.5-0.4,0.8-0.4,0.9c0,0,0.4,1.8,1.3,5.4c0.9,3.5,1.3,5.4,1.4,5.5s0.2,0.3,0.3,0.7s0.3,0.7,0.3,0.9s-0.1,0.4-0.4,0.4l-0.5-0.2c-0.5-0.6-1.1-2.8-1.7-6.6c-0.6-3.7-1.1-5.5-1.6-5.5h-0.1c-0.5,0-0.7,0.2-0.7,0.5c0,1.2,0.1,3.3,0.2,6.2c0.1,2.9,0.3,4.5,0.4,4.8l-0.2,0.6h-0.5l-0.2-0.3C124.3,164.9,124.1,157.8,124.1,153.3z M125,153.8l0.1,8.2l0.1,0.1c0.4,0,0.8-0.2,1.2-0.7c0.3-0.4,0.6-1,0.8-1.6c0.4-1.3,0.5-2.3,0.5-3s0-1.2-0.1-1.6c0-0.3-0.1-0.7-0.3-1.1c-0.3-0.8-0.9-1.2-1.9-1.2c-0.1,0-0.2,0.1-0.3,0.3S125,153.6,125,153.8z"/><path id="XMLID_83_" fill="#FFFFFF" d="M137.6,153l-0.7-0.2c-0.4,0-0.7,0.1-0.9,0.4c-0.3,0.3-0.5,0.6-0.6,1.1c-0.3,0.8-0.4,1.5-0.4,1.9s0,0.8,0,1c0,0.2,0.1,0.4,0.1,0.7s0.1,0.5,0.1,0.6c0,0.1,0.1,0.3,0.2,0.7c0.1,0.3,0.2,0.5,0.2,0.6l0.2,0.6c0.2,0.4,0.5,0.9,0.9,1.5c0.4,0.6,0.6,1.1,0.8,1.4c0.2,0.3,0.4,0.7,0.6,1.2c0.2,0.5,0.4,1,0.5,1.4c0.3,1.1,0.4,2,0.4,2.8c0,0.8,0,1.5-0.1,2c-0.1,0.5-0.2,1-0.4,1.6s-0.4,1-0.7,1.4c-0.6,0.9-1.5,1.4-2.6,1.4l-0.2,0.1c-0.7-0.1-1-0.4-1.1-0.8l0.2-0.3l1.2,0.2c0.5,0,1-0.2,1.3-0.6c0.4-0.4,0.7-0.9,0.8-1.5c0.3-1.2,0.5-2.2,0.5-3.2c0-1-0.1-1.9-0.4-2.8c-0.3-0.9-0.6-1.7-1-2.4s-0.8-1.4-1.2-2.2c-1-1.7-1.4-3.4-1.4-5.1c0-0.9,0.2-1.7,0.5-2.5c0.6-1.5,1.3-2.2,2.2-2.2c0.3,0,0.5,0.1,0.8,0.3c0.3,0.2,0.5,0.4,0.5,0.7C138,152.9,137.9,153,137.6,153z M137.8,152.9L137.8,152.9L137.8,152.9C137.8,152.9,137.8,152.9,137.8,152.9z"/></g></svg>