<svg version="1.1" xmlns="http://www.w3.org/2000/svg" xmlns:xlink="http://www.w3.org/1999/xlink" x="0px" y="0px" viewBox="0 0 200 200" enable-background="new 0 0 200 200" xml:space="preserve"><rect id="XMLID_14_" y="0" fill="none" width="200" height="200"/><circle id="XMLID_1_" fill="#BB3F3F" cx="100" cy="100" r="100"/><g id="XMLID_3_"><path id="XMLID_4_" fill="#FFFFFF" d="M72.9,40.2l-0.8,0c-0.3,0-0.6,0.1-0.7,0.2v10.5c1.2-0.1,1.8-0.1,1.9-0.1c1.3,0,1.9,0.3,1.9,0.9v0.1c-0.2,0.3-0.4,0.5-0.8,0.7c-0.4,0.2-0.7,0.3-1,0.3c-0.3,0-0.7,0-1.1,0h-1.1c-0.8,0-1.4-0.2-1.6-0.5c-0.1-0.2-0.1-0.4-0.1-0.6V32c0-0.4-0.1-1-0.2-1.7c-0.2-0.8-0.2-1.3-0.2-1.7v-0.1c0.4-0.6,0.7-1,0.8-1.2l2.5-0.3c0.3,0,0.7,0.1,1,0.3c0.3,0.2,0.5,0.5,0.5,0.8c0,0.7-0.5,1-1.5,1l-1,0c-0.2,0-0.3,0-0.4,0l0.3,5.6c0,0.5,0,1.1-0.1,2c-0.1,0.9-0.1,1.5-0.1,1.9c0.1,0,0.3-0.1,0.5-0.1c0.5-0.1,0.8-0.2,1.1-0.2s0.5,0.1,0.7,0.3c0.2,0.2,0.3,0.4,0.3,0.7s-0.1,0.5-0.2,0.7C73.4,40.1,73.1,40.2,72.9,40.2z"/><path id="XMLID_6_" fill="#FFFFFF" d="M76.7,34.8l0.2-6.2v-0.2c0-1.1,0.2-1.7,0.7-1.7c0.5,0,1.1,1.1,1.8,3.2c1.4,3.8,3.1,10.1,5,18.9l0,0.2l0.1-11.9V27c0.1-0.6,0.5-0.8,1.1-0.8c0.6,0,0.9,0.4,0.9,1.3v0.2c-0.1,0.3-0.2,0.6-0.2,1l-0.2,12.6v10.4c0,0.3-0.1,0.7-0.3,1c-0.2,0.3-0.4,0.5-0.7,0.5c-0.5,0-1.4-2.3-2.8-7c-1.4-4.7-2.8-9.7-4.1-15v11.2c0,1.1,0.1,2.7,0.2,4.8c0.2,2.1,0.2,3.8,0.2,4.8c0,0.2-0.1,0.4-0.4,0.5c-0.3,0.1-0.6,0.2-1,0.2S77,52.5,77,52.2l0.2-2.4c0-1.2-0.1-3.1-0.2-5.7c-0.1-2.6-0.2-4.2-0.2-4.8V34.8z"/><path id="XMLID_8_" fill="#FFFFFF" d="M96.5,46.5l-1.3,0.1c-0.8,0-1.2-0.3-1.2-1c0-0.6,0.7-0.9,2.2-1.1c0.3,0,0.6,0,0.9,0c0.3,0,0.6,0.2,0.9,0.5c0.2,0.4,0.4,0.8,0.4,1.4c0,0.6,0.1,1.6,0.3,2.9c0.2,1.3,0.3,2.2,0.3,2.7c0,0.8-0.3,1.2-0.8,1.2s-0.9-0.2-1.1-0.7v0c-0.1,0.1-0.4,0.2-0.7,0.4c-0.7,0.4-1.4,0.6-2,0.6c-0.5,0-1-0.1-1.5-0.3c-1-0.4-1.8-1.1-2.4-2.1c-0.6-1-1-2-1.2-3C89.2,47.3,89,46.5,89,46c-0.1-0.6-0.1-1.2-0.2-1.9c-0.1-0.9-0.1-2-0.1-3.2l0-2.5c0-2.2,0.1-3.8,0.2-4.7c0.1-1,0.3-1.7,0.4-2.3c0.1-0.6,0.3-1.1,0.5-1.6c0.2-0.5,0.4-0.9,0.7-1.4c0.3-0.5,0.6-0.8,1-1.1c0.8-0.6,1.7-1,2.8-1c1,0,1.6,0.3,1.6,1c0,0.2-0.1,0.4-0.3,0.6C95.5,27.9,95.3,28,95,28l-1-0.2c-0.9,0-1.5,0.5-2,1.5c-0.5,1.1-0.9,2.2-1,3.2c-0.1,1-0.2,1.8-0.3,2.4c-0.1,0.6-0.1,1.3-0.2,2.1c0,1.1-0.1,2.1,0,3.2l0,2.1c0,2.2,0.1,3.7,0.3,4.6c0.2,0.9,0.4,1.6,0.6,2.2c0.2,0.6,0.4,1,0.7,1.4c0.9,0.7,1.8,1.1,2.5,1.2c1,0,1.8-0.5,2.5-1.4C97.1,48.4,96.9,47.1,96.5,46.5z"/><path id="XMLID_10_" fill="#FFFFFF" d="M103.1,39.8l0,1.1V41c0.1,2,0.1,4.9,0.1,8.9v0.9h2.6c0.5,0.3,0.7,0.6,0.7,0.9s-0.1,0.5-0.2,0.7c-0.2,0.2-0.3,0.3-0.5,0.3c-0.2,0-0.4,0-0.6-0.1c-0.2,0-0.4,0.1-0.6,0.1l-1.1,0c-0.2,0.3-0.5,0.4-0.9,0.4s-0.6-0.1-0.9-0.3s-0.4-0.5-0.4-0.8l0.2-1.5c0-2.6-0.1-6.4-0.3-11.6c-0.2-5.2-0.3-9-0.3-11.6c0-0.2,0.1-0.4,0.2-0.5c0.2-0.1,0.4-0.2,0.6-0.2s0.5,0.1,0.7,0.3c0.2,0.2,0.3,0.4,0.3,0.7L103.1,39.8z"/><path id="XMLID_12_" fill="#FFFFFF" d="M112,28.7l-0.6,0c-0.2,0-0.4,0-0.5,0.1c-0.1,0.1-0.2,0.3-0.2,0.6c0,2.2,0.1,5.5,0.4,9.9c0.3,4.4,0.4,7.7,0.4,9.9v1.3c0.2,0,0.5,0,0.7,0c0.9,0,1.4,0.4,1.4,1.2v0.2l-0.8,0.6l-2.3,0.1c-2,0-2.9-0.3-2.9-1c0-0.5,0.3-0.8,1-0.8l0.7,0c0.3,0,0.5-0.3,0.5-0.8c0-1.7-0.1-4.4-0.3-7.9c-0.2-3.5-0.3-6.1-0.3-7.9l0.1-3.5c0-0.7,0-1.4-0.1-1.9c-0.3,0.1-0.6,0.1-0.8,0.1c-0.5,0-0.8-0.3-0.8-0.8c0-0.3,0.2-0.5,0.5-0.7c0.3-0.2,0.8-0.4,1.3-0.4c1-0.2,1.7-0.2,2.1-0.2s0.8,0.1,1,0.3s0.3,0.4,0.3,0.6s-0.1,0.5-0.2,0.6S112.3,28.7,112,28.7z"/><path id="XMLID_15_" fill="#FFFFFF" d="M114.8,52.3c0-0.6,0.3-0.9,0.8-0.9c0.3,0,0.6,0.1,1,0.3c0.4,0.2,0.8,0.3,1.1,0.3s0.6-0.2,1-0.6c0.4-0.4,0.6-0.9,0.8-1.4c0.4-1.2,0.6-2.2,0.6-3.2s-0.2-2-0.5-3c-0.3-1.1-0.7-2.1-1.2-3.1c-0.5-1-1-1.9-1.4-2.9c-1.2-2.3-1.7-4.3-1.7-6.2c0-1.8,0.5-3.2,1.7-4.2c0.6-0.5,1.3-0.8,2.1-0.8c0.4,0,0.8,0.1,1.2,0.3c0.4,0.2,0.7,0.5,0.8,0.9l-0.6,0.7c-0.6,0-1-0.1-1.3-0.3c-0.4,0-0.8,0.2-1.1,0.6c-0.6,0.7-0.8,1.5-0.8,2.4c0,1,0.1,1.9,0.4,2.8c0.2,0.9,0.5,1.7,0.9,2.4c0.4,0.7,0.8,1.5,1.2,2.3c0.4,0.8,0.8,1.6,1.2,2.4c0.9,1.8,1.3,3.7,1.3,5.8c0,1.5-0.4,2.9-1.1,4.2c-0.4,0.6-0.8,1.2-1.5,1.6c-0.6,0.4-1.3,0.6-2.1,0.6c-0.8,0-1.5-0.1-1.9-0.4C115.1,52.8,114.8,52.5,114.8,52.3z"/><path id="XMLID_17_" fill="#FFFFFF" d="M130.2,53.2c-0.6,0-0.9-0.4-0.9-1.1c0-4.3-0.1-8.3-0.3-12c-0.6-0.1-1.2-0.2-1.7-0.2s-1,0.1-1.4,0.3c0,1.3,0.1,3.2,0.3,5.7c0.2,2.6,0.3,4.5,0.3,5.8c0,0.2-0.1,0.4-0.2,0.6c-0.1,0.2-0.3,0.3-0.5,0.3c-0.6,0-1.1-1.9-1.4-5.8c-0.4-5.3-0.6-11.7-0.6-19.2c0-0.4,0.2-0.6,0.6-0.6c0.2,0,0.4,0.1,0.7,0.2c0.2,0.1,0.4,0.2,0.5,0.4c-0.1,0.8-0.1,1.7-0.1,2.6l0.2,7l0,1.3c0,0.3,0,0.6,0.1,0.9L129,39l-0.1-11.2v-0.9c0.9,0,1.4,0.4,1.5,1.2c0.1,0.4,0.1,1.3,0.1,2.9c0,1.5,0.1,4.8,0.3,9.8c0.2,5,0.3,8.7,0.3,11.2c0,0.3-0.1,0.6-0.3,0.8C130.7,53,130.5,53.2,130.2,53.2z"/><path id="XMLID_19_" fill="#FFFFFF" d="M69.1,87.3l-1.3,0.1c-0.8,0-1.2-0.3-1.2-1c0-0.6,0.7-0.9,2.2-1.1c0.3,0,0.6,0,0.9,0s0.6,0.2,0.9,0.5c0.2,0.4,0.4,0.8,0.4,1.4c0,0.6,0.1,1.6,0.3,2.9c0.2,1.3,0.3,2.2,0.3,2.7c0,0.8-0.3,1.2-0.8,1.2c-0.6,0-0.9-0.2-1.1-0.7v0c-0.1,0.1-0.4,0.2-0.7,0.4c-0.7,0.4-1.4,0.6-2,0.6c-0.5,0-1-0.1-1.5-0.3c-1-0.4-1.8-1.1-2.4-2.1c-0.6-1-1-2-1.2-3c-0.2-0.9-0.3-1.7-0.4-2.2c-0.1-0.6-0.1-1.2-0.2-1.9c-0.1-0.9-0.1-2-0.1-3.2l0-2.5c0-2.2,0.1-3.8,0.2-4.7c0.1-1,0.3-1.7,0.4-2.3c0.1-0.6,0.3-1.1,0.5-1.6c0.2-0.5,0.4-0.9,0.7-1.4c0.3-0.5,0.6-0.8,1-1.1c0.8-0.6,1.7-1,2.8-1c1,0,1.6,0.3,1.6,1c0,0.2-0.1,0.4-0.3,0.6c-0.2,0.1-0.4,0.2-0.6,0.2l-1-0.2c-0.9,0-1.5,0.5-2,1.5c-0.5,1.1-0.9,2.2-1,3.2c-0.1,1-0.2,1.8-0.3,2.4c-0.1,0.6-0.1,1.3-0.2,2.1c0,1.1-0.1,2.1,0,3.2l0,2.1c0,2.2,0.1,3.7,0.3,4.6c0.2,0.9,0.4,1.6,0.6,2.2c0.2,0.6,0.4,1,0.7,1.4c0.9,0.7,1.8,1.1,2.5,1.2c1,0,1.8-0.5,2.5-1.4C69.6,89.2,69.4,87.9,69.1,87.3z"/><path id="XMLID_21_" fill="#FFFFFF" d="M73.8,92.5l0.1-19.9v-4.2c0-0.3,0.1-0.5,0.2-0.6c0.1-0.1,0.4-0.2,0.9-0.2c0.5,0,0.9,0.1,1.4,0.3c0.5,0.2,0.9,0.5,1.2,0.9c0.3,0.4,0.6,0.8,0.8,1.3c0.4,0.9,0.7,2,0.7,3.1c0,1.1-0.3,2.4-0.8,3.8c-0.1,0.2-0.2,0.5-0.4,1s-0.3,0.8-0.3,0.9c0,1.7,0.4,3.9,1.3,6.6c0.3,0.9,0.7,2.1,1.2,3.7s0.9,2.6,1,3v0.1c0,0.8-0.1,1.2-0.3,1.3c-0.2,0.1-0.4,0.2-0.6,0.2c-0.4,0-0.8-0.3-1.2-0.9v-0.1c-0.1-2.1-0.8-5.2-2.1-9.3c-0.6-1.9-1-3.3-1.2-4.2v13.4c0,0.3-0.1,0.6-0.2,0.8s-0.3,0.3-0.7,0.3s-0.6-0.1-0.7-0.3c-0.2-0.2-0.2-0.4-0.2-0.7V92.5z M75.6,69.2l-0.2,6.9c0,0.7,0,1.2,0,1.6c0.4-0.4,0.8-0.8,1.1-1.3l0.5-2.9c0-0.2,0-0.3,0-0.5c0-0.5-0.1-1.2-0.3-2C76.6,69.9,76.2,69.3,75.6,69.2z"/><path id="XMLID_24_" fill="#FFFFFF" d="M90.3,93.4c-0.7,0-1-0.3-1-0.9v-4.4c-0.3-0.2-0.9-0.4-1.7-0.6c-0.8-0.2-1.6-0.3-2.2-0.3c-0.2,0.4-0.4,1-0.6,1.7c-0.1,0.8-0.3,1.5-0.5,2.3c-0.2,0.8-0.4,1.4-0.6,1.8c-0.9,0-1.4-0.2-1.5-0.7c0.3-0.4,0.8-2.7,1.5-6.8s1.3-7.3,1.7-9.6s0.9-4.2,1.5-5.8c0.5-1.6,1-2.4,1.5-2.4s0.8,0.1,1.1,0.3c0,0.8,0.2,3,0.7,6.6c0.4,3.6,0.7,5.9,0.7,6.9s0.1,2.8,0.4,5.2c0.2,2.4,0.4,4.3,0.4,5.5C91.4,93.1,91.1,93.4,90.3,93.4z M88.9,82.3c-0.2-2-0.4-3.9-0.5-5.7c-0.2-1.8-0.2-2.9-0.2-3.3s0-0.6,0-0.7c-0.4,0.4-0.9,2.4-1.5,6.1c-0.7,3.7-1,6-1.1,7c0.9,0.3,1.7,0.4,2.4,0.4c0.6,0,1.1,0,1.4-0.1C89.2,85.6,89.1,84.4,88.9,82.3z"/><path id="XMLID_27_" fill="#FFFFFF" d="M93.8,85.8l-0.1-13.2c0-1.5,0-2.9,0-4.4l0.9-0.5c0.7,0,1.4,1.8,2.3,5.4c0.7,2.9,1.3,5.5,1.7,7.8c0.4,2.3,0.7,3.6,0.7,3.8c0.2-0.7,0.4-2,0.9-3.9c0.4-1.9,0.7-3.3,0.9-4.4c0.6-3,1-5.7,1.1-8.1v-0.2c0-0.3,0.2-0.5,0.4-0.7c0.2-0.2,0.5-0.3,0.7-0.3s0.5,0.1,0.6,0.3c0.2,0.2,0.2,0.4,0.2,0.6c0,2.7,0.1,6.8,0.3,12.2c0.2,5.4,0.3,9.5,0.3,12.2c0,0.5-0.1,1-0.4,1.4s-0.6,0.6-0.8,0.6c-0.6,0-0.8-0.4-0.8-1.3l-0.1-14.3V77c-0.2,0.9-0.5,2.4-1,4.6c-0.5,2.2-0.9,3.9-1,5v0.2c0,0.1-0.1,0.3-0.1,0.6s-0.1,0.6-0.1,0.8s-0.1,0.5-0.2,0.7c-0.2,0.5-0.6,0.8-1,0.8c-0.8,0-1.2-1.1-1.2-3.2c0-2.1-0.5-5-1.5-8.8c-0.5-1.9-0.8-3.2-1-3.8c0,1.8-0.1,3.2-0.1,4.1l0.3,14c0,0.5-0.2,0.9-0.5,1.3c-0.6,0-1-0.2-1.2-0.6c-0.2-0.4-0.3-0.9-0.3-1.5L93.8,85.8z"/><path id="XMLID_29_" fill="#FFFFFF" d="M107.5,85.8l-0.1-13.2c0-1.5,0-2.9,0-4.4l0.9-0.5c0.7,0,1.4,1.8,2.3,5.4c0.7,2.9,1.3,5.5,1.7,7.8c0.4,2.3,0.7,3.6,0.7,3.8c0.2-0.7,0.4-2,0.9-3.9c0.4-1.9,0.7-3.3,0.9-4.4c0.6-3,1-5.7,1.1-8.1v-0.2c0-0.3,0.2-0.5,0.4-0.7c0.2-0.2,0.5-0.3,0.7-0.3s0.5,0.1,0.6,0.3c0.2,0.2,0.2,0.4,0.2,0.6c0,2.7,0.1,6.8,0.3,12.2c0.2,5.4,0.3,9.5,0.3,12.2c0,0.5-0.1,1-0.4,1.4s-0.6,0.6-0.8,0.6c-0.6,0-0.8-0.4-0.8-1.3l-0.1-14.3V77c-0.2,0.9-0.5,2.4-1,4.6c-0.5,2.2-0.9,3.9-1,5v0.2c0,0.1-0.1,0.3-0.1,0.6s-0.1,0.6-0.1,0.8s-0.1,0.5-0.2,0.7c-0.2,0.5-0.6,0.8-1,0.8c-0.8,0-1.2-1.1-1.2-3.2c0-2.1-0.5-5-1.5-8.8c-0.5-1.9-0.8-3.2-1-3.8c0,1.8-0.1,3.2-0.1,4.1l0.3,14c0,0.5-0.2,0.9-0.5,1.3c-0.6,0-1-0.2-1.2-0.6c-0.2-0.4-0.3-0.9-0.3-1.5L107.5,85.8z"/><path id="XMLID_31_" fill="#FFFFFF" d="M128.6,93.4c-0.7,0-1-0.3-1-0.9v-4.4c-0.3-0.2-0.9-0.4-1.7-0.6c-0.8-0.2-1.6-0.3-2.2-0.3c-0.2,0.4-0.4,1-0.6,1.7c-0.1,0.8-0.3,1.5-0.5,2.3c-0.2,0.8-0.4,1.4-0.6,1.8c-0.9,0-1.4-0.2-1.5-0.7c0.3-0.4,0.8-2.7,1.5-6.8s1.3-7.3,1.7-9.6s0.9-4.2,1.5-5.8c0.5-1.6,1-2.4,1.5-2.4s0.8,0.1,1.1,0.3c0,0.8,0.2,3,0.7,6.6c0.4,3.6,0.7,5.9,0.7,6.9s0.1,2.8,0.4,5.2c0.2,2.4,0.4,4.3,0.4,5.5C129.7,93.1,129.3,93.4,128.6,93.4z M127.1,82.3c-0.2-2-0.4-3.9-0.5-5.7c-0.2-1.8-0.2-2.9-0.2-3.3s0-0.6,0-0.7c-0.4,0.4-0.9,2.4-1.5,6.1c-0.7,3.7-1,6-1.1,7c0.9,0.3,1.7,0.4,2.4,0.4c0.6,0,1.1,0,1.4-0.1C127.5,85.6,127.3,84.4,127.1,82.3z"/><path id="XMLID_34_" fill="#FFFFFF" d="M132,92.5l0.1-19.9v-4.2c0-0.3,0.1-0.5,0.2-0.6c0.1-0.1,0.4-0.2,0.9-0.2c0.5,0,0.9,0.1,1.4,0.3c0.5,0.2,0.9,0.5,1.2,0.9c0.3,0.4,0.6,0.8,0.8,1.3c0.4,0.9,0.7,2,0.7,3.1c0,1.1-0.3,2.4-0.8,3.8c-0.1,0.2-0.2,0.5-0.4,1s-0.3,0.8-0.3,0.9c0,1.7,0.4,3.9,1.3,6.6c0.3,0.9,0.7,2.1,1.2,3.7s0.9,2.6,1,3v0.1c0,0.8-0.1,1.2-0.3,1.3c-0.2,0.1-0.4,0.2-0.6,0.2c-0.4,0-0.8-0.3-1.2-0.9v-0.1c-0.1-2.1-0.8-5.2-2.1-9.3c-0.6-1.9-1-3.3-1.2-4.2v13.4c0,0.3-0.1,0.6-0.2,0.8s-0.3,0.3-0.7,0.3s-0.6-0.1-0.7-0.3c-0.2-0.2-0.2-0.4-0.2-0.7V92.5z M133.9,69.2l-0.2,6.9c0,0.7,0,1.2,0,1.6c0.4-0.4,0.8-0.8,1.1-1.3l0.5-2.9c0-0.2,0-0.3,0-0.5c0-0.5-0.1-1.2-0.3-2C134.8,69.9,134.4,69.3,133.9,69.2z"/><path id="XMLID_37_" fill="#FFFFFF" d="M49.4,128.5l0.2,4.9c0,0.9-0.3,1.4-0.8,1.4l-0.7-0.5c0.2-2.2,0.3-4.5,0.3-6.9s0.1-5.2,0.2-8.2c0.2-3,0.2-5.3,0.2-6.8c0-0.2,0.1-0.4,0.3-0.5s0.5-0.2,0.9-0.2s1.2,0.1,2.2,0.2s1.6,0.4,1.6,0.7c0,0.4-0.4,0.6-1.2,0.6c-0.4-0.2-0.9-0.3-1.4-0.3c-0.5,0-0.8,0-0.9,0c-0.1,0-0.1,0-0.1,0.1c0,0,0,0.1-0.1,0.2c0,0.1-0.1,0.2-0.1,0.4l-0.3,7.2v1.2c0,0.1,0.2,0.1,0.6,0.1c1.1,0,1.7,0.1,1.7,0.5c0,0.2-0.1,0.3-0.3,0.5c-0.2,0.1-0.4,0.2-0.5,0.2L50,123c-0.4,0-0.6,0.6-0.6,1.7V128.5z M48.4,117.4L48.4,117.4C48.4,117.5,48.3,117.5,48.4,117.4C48.3,117.5,48.3,117.5,48.4,117.4C48.3,117.4,48.3,117.4,48.4,117.4L48.4,117.4z"/><path id="XMLID_40_" fill="#FFFFFF" d="M64.5,121.1l0.1,4.1c0,5.1-0.8,8.2-2.5,9.3c-0.4,0.3-0.8,0.4-1.3,0.4c-2.7,0-4-4.2-4-12.5c0-3.2,0.2-6,0.7-8.4c0.3-1.7,0.8-2.6,1.5-2.6c0.2,0,0.3,0.1,0.4,0.2s0.3,0.2,0.6,0.3c0.2,0.1,0.6,0.2,1,0.2s0.7,0.1,0.9,0.2c0.5,0.1,0.9,0.5,1.3,1.3c1,1.6,1.4,4.1,1.4,7.3L64.5,121.1z M57.9,122.4l0.1,2.7c0,2.2,0.2,4.2,0.7,6.2c0.2,0.7,0.4,1.4,0.8,1.9s0.7,0.8,1.2,0.8s0.8-0.2,1.2-0.5s0.6-0.8,0.8-1.4c0.2-0.6,0.4-1.2,0.5-1.8c0.1-0.6,0.2-1.3,0.3-2.1c0.1-1.2,0.1-2.3,0.1-3.3l-0.4-8l-0.1-0.3l0.1-0.2c0-1-0.3-1.8-0.8-2.6c-0.6-0.7-1.2-1.1-2-1.1h-1.4c-0.2,0-0.4,1-0.5,3c-0.1,2-0.2,3.1-0.3,3.4L57.9,122.4z"/><path id="XMLID_43_" fill="#FFFFFF" d="M68.1,112.9c0-0.9,0.2-1.3,0.7-1.3c1.1,0,2,0.3,2.7,0.8c0.7,0.6,1.1,1.4,1.1,2.5v2.5c0,0.9-0.4,2.1-1.3,3.8c-0.3,0.5-0.4,0.8-0.4,0.9c0,0,0.4,1.8,1.3,5.4c0.9,3.5,1.3,5.4,1.4,5.5c0,0.1,0.2,0.3,0.3,0.7c0.2,0.4,0.3,0.7,0.3,0.9s-0.1,0.4-0.4,0.4l-0.5-0.2c-0.5-0.6-1.1-2.8-1.7-6.6c-0.6-3.7-1.1-5.5-1.6-5.5h-0.1c-0.5,0-0.7,0.2-0.7,0.5c0,1.2,0.1,3.3,0.2,6.2c0.1,2.9,0.3,4.5,0.4,4.8l-0.2,0.6h-0.5l-0.2-0.3C68.3,124.5,68.1,117.3,68.1,112.9z M69.1,113.3l0.1,8.2l0.1,0.1c0.4,0,0.8-0.2,1.2-0.7c0.3-0.4,0.6-1,0.8-1.6c0.4-1.3,0.5-2.3,0.5-3s0-1.2-0.1-1.6c0-0.3-0.1-0.7-0.3-1.1c-0.3-0.8-0.9-1.2-1.9-1.2c-0.1,0-0.2,0.1-0.3,0.3S69.1,113.2,69.1,113.3z"/><path id="XMLID_46_" fill="#FFFFFF" d="M82.4,109.3l-0.1-0.6c0-0.2,0.2-0.3,0.7-0.3c0.9,0,1.6,0.3,2.1,0.8s0.8,1.1,1,1.7s0.3,1.1,0.4,1.4c0.2,0.7,0.3,1.2,0.3,1.6c0,1.1-0.3,2.5-0.9,4.1c-0.4,1-0.6,1.6-0.6,1.7c0,1.1,0.4,3.3,1.3,6.7c0.9,3.4,1.6,5.7,2.2,7.1c0,0.7-0.1,1.1-0.4,1.1c-0.2,0-0.4-0.1-0.6-0.3c-0.1-0.2-0.2-0.3-0.3-0.4c-0.1-0.9-0.4-2.1-0.9-3.7c-0.5-1.6-0.8-2.6-0.9-3.2c-0.1-0.5-0.3-1.6-0.6-3.2s-0.6-2.9-0.8-3.7l-0.3-0.2l-0.6,0.3V133l0.1,0.8c0,0.5-0.2,0.7-0.6,0.7c-0.2,0-0.3-0.1-0.4-0.2c-0.1-0.1-0.2-0.2-0.2-0.4l0.1-0.2l0.1-20.6V109.3z M83.3,109.5l-0.2,7.4c0,1,0,1.7,0.1,2.2h0.1c0.2,0,0.5-0.2,0.9-0.7s0.7-0.8,0.9-1.1s0.3-0.7,0.4-1.4s0.1-1.2,0.1-1.6c0-0.4,0-0.9-0.1-1.3s-0.2-1-0.3-1.5s-0.3-1-0.6-1.4c-0.3-0.4-0.6-0.5-1-0.5v-0.1L83.3,109.5z"/><path id="XMLID_49_" fill="#FFFFFF" d="M100.6,127.2l0,2.1c0,1.9-0.2,3.3-0.7,4.2c-0.2,0.4-0.5,0.7-0.9,1c-0.4,0.3-0.9,0.4-1.5,0.4s-1.2-0.2-1.7-0.5c-0.5-0.3-0.9-0.8-1.2-1.3c-0.3-0.5-0.5-1.1-0.8-1.8s-0.4-1.3-0.5-1.9c-0.3-1.6-0.5-2.6-0.7-3c0-1.8-0.1-4.5-0.3-8.1c-0.2-3.6-0.3-6.3-0.3-8.1l-0.2-0.7c0-0.2,0.1-0.3,0.2-0.5c0.1-0.2,0.3-0.2,0.4-0.2c0.6,0,0.8,0.8,0.8,2.5l0.3,11.5c0.1,0.1,0.1,0.4,0.2,0.8c0.1,1.6,0.2,2.6,0.3,3c0,0.3-0.1,0.6-0.1,0.9s0.1,0.8,0.3,1.6s0.5,1.5,0.8,2.2s0.8,1.3,1.3,1.8c0.5,0.5,1,0.8,1.4,0.8c0.4,0,0.7,0,0.9-0.1s0.4-0.2,0.5-0.3c0.1-0.1,0.2-0.3,0.3-0.5s0.1-0.4,0.1-0.6c0-0.1,0-0.4,0.1-0.7c0-0.3,0-0.5,0-0.6c0-0.1,0-0.2,0-0.3l0.1-1.1v-3.9l-0.2-2l-0.2-6.1v-0.4L99,117c0.1-0.6,0.1-1.3,0.1-1.9l-0.3-5.8c0-0.2,0.1-0.3,0.2-0.4c0.2-0.1,0.3-0.1,0.5-0.1l0.6,0.5l-0.1,0.3l0.1,0.3l-0.2,2l0.3,6.1l0.2,5.9l0.1,0c0,0.2,0,0.4,0,0.7l0.1,2.4V127.2L100.6,127.2z"/><path id="XMLID_51_" fill="#FFFFFF" d="M109.1,122.8l0,0.1c0,0,0.3,0.9,0.8,2.6c0.3,1.4,0.5,2.4,0.5,3.1s-0.1,1.4-0.3,2.1s-0.4,1.4-0.7,2s-0.8,1.2-1.3,1.6c-0.6,0.4-1.1,0.6-1.6,0.6s-0.9,0-1.1,0c-0.7-0.1-1.1-0.3-1.4-0.8c0-0.3,0.1-0.4,0.4-0.4s0.6,0.1,1,0.3c0.4,0.2,0.8,0.3,1.2,0.3s0.8-0.2,1.2-0.6s0.7-0.9,1-1.6c0.4-1.3,0.7-2.4,0.7-3.5c0-1.1-0.2-2.2-0.5-3.4s-0.7-2.2-1.2-3.1s-1-1.9-1.4-2.8c-1.1-2.2-1.7-4.3-1.7-6.3c0-1.6,0.5-3,1.5-4c0.5-0.5,1.2-0.8,1.9-0.8c0.2,0,0.5,0.1,0.9,0.3c0.4,0.2,0.6,0.4,0.7,0.6l-0.2,0.4c-0.5,0-0.9-0.1-1.1-0.3c-0.5,0-1,0.2-1.4,0.6c-0.7,0.8-1.1,1.7-1.1,3c0,0.9,0.1,1.6,0.2,2.2c0.1,0.6,0.3,1,0.3,1.4c0.1,0.3,0.2,0.7,0.4,1.2s0.3,0.8,0.4,1.1s0.3,0.6,0.5,1.1s0.4,0.9,0.5,1s0.3,0.5,0.6,1.1C108.8,122.3,109,122.7,109.1,122.8z"/><path id="XMLID_53_" fill="#FFFFFF" d="M118.5,122.8l0,0.1c0,0,0.3,0.9,0.8,2.6c0.3,1.4,0.5,2.4,0.5,3.1s-0.1,1.4-0.3,2.1s-0.4,1.4-0.7,2s-0.8,1.2-1.3,1.6c-0.6,0.4-1.1,0.6-1.6,0.6s-0.9,0-1.1,0c-0.7-0.1-1.1-0.3-1.4-0.8c0-0.3,0.1-0.4,0.4-0.4s0.6,0.1,1,0.3c0.4,0.2,0.8,0.3,1.2,0.3s0.8-0.2,1.2-0.6s0.7-0.9,1-1.6c0.4-1.3,0.7-2.4,0.7-3.5c0-1.1-0.2-2.2-0.5-3.4s-0.7-2.2-1.2-3.1s-1-1.9-1.4-2.8c-1.1-2.2-1.7-4.3-1.7-6.3c0-1.6,0.5-3,1.5-4c0.5-0.5,1.2-0.8,1.9-0.8c0.2,0,0.5,0.1,0.9,0.3c0.4,0.2,0.6,0.4,0.7,0.6l-0.2,0.4c-0.5,0-0.9-0.1-1.1-0.3c-0.5,0-1,0.2-1.4,0.6c-0.7,0.8-1.1,1.7-1.1,3c0,0.9,0.1,1.6,0.2,2.2c0.1,0.6,0.3,1,0.3,1.4c0.1,0.3,0.2,0.7,0.4,1.2s0.3,0.8,0.4,1.1s0.3,0.6,0.5,1.1s0.4,0.9,0.5,1s0.3,0.5,0.6,1.1C118.3,122.3,118.5,122.7,118.5,122.8z"/><path id="XMLID_55_" fill="#FFFFFF" d="M127.4,134.1l-1.1-0.2c-0.3,0-0.5,0.1-0.8,0.4c-0.5,0-0.8-0.1-1-0.3h-0.1c-1,0-1.6-0.2-1.8-0.6c0-0.3,0.3-0.4,0.8-0.4l0.7,0c0.5,0,0.7-0.3,0.7-1c0-0.7,0-1.5-0.1-2.4s-0.1-1.9-0.1-2.8s-0.1-2.7-0.2-5.4c-0.1-2.7-0.2-4.6-0.2-5.8l0-4c0-1.1,0-1.8-0.1-2l-1.2,0.2c-0.2,0-0.4-0.2-0.4-0.5c0-0.3,0.5-0.6,1.5-0.8c1-0.2,1.7-0.3,2-0.3c0.6,0,0.9,0.2,0.9,0.6c0,0.4-0.1,0.6-0.4,0.6l-0.8,0c-0.4,0-0.6,0.2-0.7,0.5c-0.1,0.3-0.1,1.2-0.1,2.6s0.1,4.4,0.4,8.7s0.4,7.6,0.4,9.8l0,1.8l1.2-0.1c0.6,0,0.9,0.3,0.9,0.8L127.4,134.1z"/><path id="XMLID_57_" fill="#FFFFFF" d="M138.7,124.3l0.4,8.9v0.4c0,0.3,0,0.4-0.1,0.5c-0.2,0.2-0.4,0.2-0.6,0.2c-0.2,0-0.4-0.1-0.5-0.2s-0.2-0.2-0.2-0.4c0.1-0.1,0.1-0.3,0.1-0.4l-0.1-0.7v-3.4c0-0.3-0.6-0.6-1.8-0.8c-1.2-0.2-2.1-0.3-2.7-0.3c-0.2,0-0.4,0.4-0.6,1.2c-0.2,0.8-0.3,1.7-0.5,2.7s-0.3,1.6-0.5,1.8c-0.5,0-0.9-0.1-1-0.4c0.4-0.5,0.7-1.7,1-3.7s0.6-3.4,0.8-4.3c0.2-0.9,0.6-2.8,1.1-5.8s0.9-4.9,1-5.7c0.2-0.8,0.3-1.5,0.4-1.9s0.2-0.9,0.4-1.4c0.4-1.3,0.7-2,1-2c0.4,0,0.6,0.1,0.7,0.2c0.1,0.2,0.2,0.5,0.3,1.1c0.1,0.6,0.2,1.3,0.2,2.3c0.1,0.9,0.2,1.8,0.2,2.5c0.2,2.4,0.3,4,0.4,4.7s0.2,1.3,0.3,1.6c0,0.7-0.1,1.3-0.1,1.8C138.4,123.5,138.5,123.9,138.7,124.3z M133.2,127.2c1,0.3,2.1,0.5,3.4,0.5c0.3,0,0.5,0,0.6-0.1l0.2,0.1c0.2,0,0.3-0.1,0.3-0.3c0-4.7-0.4-9.8-1.3-15.3c0-0.1,0-0.2-0.1-0.4s-0.1-0.3-0.1-0.4c-0.3,0.8-0.4,1.3-0.4,1.5l0.1,0.2c-0.1,0.1-0.2,0.5-0.4,1.2c-0.2,0.7-0.4,2.2-0.7,4.3c-0.3,2.2-0.5,3.6-0.7,4.2c-0.1,0.6-0.3,1.2-0.4,1.7c-0.3,1.1-0.5,2-0.5,2.6V127.2z"/><path id="XMLID_60_" fill="#FFFFFF" d="M151.2,132.4l0.1,1.2c0,0.7-0.3,1-0.9,1c-0.4,0-0.7-0.4-0.8-1.3c-0.1-0.4-0.1-0.6-0.1-0.7c-2.2-7-3.6-12.1-4.2-15.3c0-0.1,0-0.3,0-0.5c0-0.5-0.1-0.8-0.3-1l0.1-0.2c-0.1-0.8-0.3-1.4-0.3-1.8c-0.1-0.3-0.2-0.7-0.2-1.1c-0.2-0.7-0.4-1.4-0.6-1.9c-0.1,0.5-0.1,0.8-0.1,1.1s0,0.4,0.1,0.6c-0.2,0.5-0.2,1.3-0.2,2.4v9.3c0,1.1,0.1,2.7,0.2,4.8s0.2,3.8,0.2,4.8l-0.2,0.3H143l-0.1-0.3c0-0.2,0.1-0.6,0.1-1.4l-0.4-11.8v-4.4l0.2-6.4l0-0.7c0-0.3,0.1-0.5,0.2-0.6c0.2-0.1,0.3-0.1,0.6-0.1c0.2,0,0.4,0.1,0.6,0.2c0.2,0.1,0.3,0.4,0.3,0.7s0,0.6,0.1,1s0.2,0.8,0.4,1.2c0.2,0.4,0.3,0.8,0.4,1.2c0.1,0.4,0.2,0.9,0.3,1.7c0.1,0.8,0.2,1.5,0.3,2.1s0.3,1.4,0.6,2.5s0.6,2.2,1,3.4c0.4,1.3,0.6,2.1,0.7,2.5c0.1,0.4,0.2,0.9,0.4,1.5c0.4,1.3,0.5,2.2,0.6,2.7c0.2,0.2,0.3,0.7,0.4,1.3c0.1,0.7,0.3,1.1,0.6,1.4c0.1-0.3,0.2-0.9,0.2-1.6l0.1-11.8l-0.1-5.3l0.1-1.3c0-0.2,0-0.4-0.1-0.4l0.1-0.3c0-1.4,0-2.3-0.1-2.8c0.1-0.3,0.4-0.5,0.8-0.5c0.4,0,0.5,0.4,0.5,1.1c-0.1,0.3-0.2,0.7-0.2,1.1l0,1.1c0,0.5,0,0.8-0.1,1l-0.1,10.7c0,0.2,0,0.5,0.1,0.9l-0.1,0.1v4.3l0.1,1.3C151.5,130.9,151.4,131.8,151.2,132.4L151.2,132.4z"/><path id="XMLID_62_" fill="#FFFFFF" d="M68.1,163.6l0,0.1c0,0,0.3,0.9,0.8,2.6c0.3,1.4,0.5,2.4,0.5,3.1s-0.1,1.4-0.3,2.1c-0.2,0.7-0.4,1.4-0.7,2c-0.3,0.6-0.8,1.2-1.3,1.6c-0.6,0.4-1.1,0.6-1.6,0.6c-0.5,0-0.9,0-1.1,0c-0.7-0.1-1.1-0.3-1.4-0.8c0-0.3,0.1-0.4,0.4-0.4c0.2,0,0.6,0.1,1,0.3c0.4,0.2,0.8,0.3,1.2,0.3s0.8-0.2,1.2-0.6s0.7-0.9,1-1.6c0.4-1.3,0.7-2.4,0.7-3.5c0-1.1-0.2-2.2-0.5-3.4s-0.7-2.2-1.2-3.1s-1-1.9-1.4-2.8c-1.1-2.2-1.7-4.3-1.7-6.3c0-1.6,0.5-3,1.5-4c0.5-0.5,1.2-0.8,1.9-0.8c0.2,0,0.5,0.1,0.9,0.3c0.4,0.2,0.6,0.4,0.7,0.6l-0.2,0.4c-0.5,0-0.9-0.1-1.1-0.3c-0.5,0-1,0.2-1.4,0.6c-0.7,0.8-1.1,1.7-1.1,3c0,0.9,0.1,1.6,0.2,2.2c0.1,0.6,0.3,1,0.3,1.4s0.2,0.7,0.4,1.2s0.3,0.8,0.4,1.1c0.1,0.2,0.3,0.6,0.5,1.1c0.3,0.5,0.4,0.9,0.5,1s0.3,0.5,0.6,1.1C67.8,163.1,68,163.5,68.1,163.6z"/><path id="XMLID_64_" fill="#FFFFFF" d="M74,163l0.3,11.2c0,0.3,0,0.6-0.1,0.8c-0.1,0.2-0.3,0.3-0.6,0.3c-0.3,0-0.4-0.4-0.4-1.2l0.1-6.1l-0.3-5.5c0-2.5,0-4.6-0.1-6.2c-0.1-1.6-0.1-2.7-0.1-3.3s0-1,0-1.2c-0.1-0.9-0.2-1.6-0.3-2.2c0.2-0.3,0.5-0.5,0.9-0.5c0.8,0,1.5,0.2,2.2,0.6s1.2,0.9,1.6,1.5c0.8,1.3,1.2,2.6,1.2,3.9s-0.2,2.7-0.7,4.1c-0.6,1.7-1.4,2.8-2.3,3.2c-0.3,0.1-0.5,0.2-0.6,0.4C74.5,162.8,74.2,163,74,163z M73.5,150.1l0.4,11.6l0.1,0.1c0.2,0,0.4-0.1,0.5-0.2c0.1-0.1,0.2-0.2,0.3-0.3s0.2-0.2,0.2-0.2c1.5-1.5,2.2-3.3,2.2-5.5c0-0.8,0-1.4-0.1-1.9s-0.3-0.9-0.6-1.3c-0.3-0.4-0.6-0.7-0.8-0.9c-0.2-0.2-0.5-0.4-1-0.7c-0.4-0.3-0.7-0.5-0.7-0.5H73.5z"/><path id="XMLID_67_" fill="#FFFFFF" d="M83.2,174l2-0.1c1.1,0,1.6,0.2,1.6,0.5c-0.2,0.3-0.5,0.5-1,0.6c-0.5,0.1-1,0.1-1.4,0.1h-0.8c-1,0-1.6-0.1-1.8-0.2c-0.2-0.2-0.2-0.3-0.2-0.5l0.3-1.3v-0.1c-0.1-0.5-0.1-1-0.1-1.5l0.2-3.5l-0.2-7.3l0.2-6.8c0-0.4-0.1-1-0.2-1.8c-0.1-0.8-0.2-1.4-0.2-1.8l0.6-0.9l2.4-0.3l0.1,0.1c0.5,0,0.8,0.1,0.9,0.2c0.1,0.1,0.1,0.3,0.1,0.4c0,0.4-0.4,0.6-1.2,0.6l-0.9-0.1c-0.5,0-0.7,0.1-0.7,0.4l0.3,5.8l-0.2,4.3l-0.1,0.1l0.2,0.1l1.9-0.3c0.1,0,0.3,0.1,0.4,0.2c0.1,0.1,0.2,0.3,0.2,0.4c0,0.5-0.2,0.7-0.5,0.7l-0.8,0c-0.9,0-1.3,0.2-1.3,0.6l0.2,2.9l-0.1,0.2v6.9c0.1,0.1,0.2,0.5,0.2,0.9V174z"/><path id="XMLID_69_" fill="#FFFFFF" d="M97.6,165.1L98,174v0.4c0,0.3,0,0.4-0.1,0.5c-0.2,0.2-0.4,0.2-0.6,0.2s-0.4-0.1-0.5-0.2s-0.2-0.2-0.2-0.4c0.1-0.1,0.1-0.3,0.1-0.4l-0.1-0.7V170c0-0.3-0.6-0.6-1.8-0.8c-1.2-0.2-2.1-0.3-2.7-0.3c-0.2,0-0.4,0.4-0.6,1.2c-0.2,0.8-0.3,1.7-0.5,2.7s-0.3,1.6-0.5,1.8c-0.5,0-0.9-0.1-1-0.4c0.4-0.5,0.7-1.7,1-3.7c0.3-2,0.6-3.4,0.8-4.3c0.2-0.9,0.6-2.8,1.1-5.8s0.9-4.9,1-5.7c0.2-0.8,0.3-1.5,0.4-1.9s0.2-0.9,0.4-1.4c0.4-1.3,0.7-2,1-2c0.4,0,0.6,0.1,0.7,0.2c0.1,0.2,0.2,0.5,0.3,1.1c0.1,0.6,0.2,1.3,0.2,2.3c0.1,0.9,0.2,1.8,0.2,2.5c0.2,2.4,0.3,4,0.4,4.7s0.2,1.3,0.3,1.6c0,0.7-0.1,1.3-0.1,1.8C97.3,164.3,97.4,164.7,97.6,165.1z M92,168c1,0.3,2.1,0.5,3.4,0.5c0.3,0,0.5,0,0.6-0.1l0.2,0.1c0.2,0,0.3-0.1,0.3-0.3c0-4.7-0.4-9.8-1.3-15.3c0-0.1,0-0.2-0.1-0.4c0-0.2-0.1-0.3-0.1-0.4c-0.3,0.8-0.4,1.3-0.4,1.5l0.1,0.2c-0.1,0.1-0.2,0.5-0.4,1.2c-0.2,0.7-0.4,2.2-0.7,4.3c-0.3,2.2-0.5,3.6-0.7,4.2c-0.1,0.6-0.3,1.2-0.4,1.7c-0.3,1.1-0.5,2-0.5,2.6V168z"/><path id="XMLID_72_" fill="#FFFFFF" d="M109.1,175.8l-0.5-0.1c-0.4-2.6-1.1-5.5-2-8.8c-0.9-3.2-1.7-5.5-2.5-7L104,160c-0.1,0.3-0.3,0.7-0.7,1.4s-0.6,1.2-0.7,1.7c0,0.4-0.1,1.2-0.1,2.4l0.2,7.5c0,1.4-0.2,2.1-0.7,2.1c-0.4,0-0.6-0.5-0.6-1.6c0-1,0.1-2.6,0.2-4.7c0.1-2.1,0.2-3.7,0.2-4.7l-0.1-12.2l-0.1-0.1l-0.2-1.6c0-0.5,0.2-0.7,0.6-0.7c0.2,0,0.3,0,0.4,0.1s0.2,0.2,0.2,0.5c0.1,0.4,0.2,1.5,0.2,3.4l-0.1,7.3h0c0.5-1,1.1-2.4,1.8-4.3c0.8-1.9,1.2-2.9,1.3-3.2c1.2-3.1,2-4.7,2.4-4.7c0.4,0,0.6,0.2,0.6,0.5c-0.1,0.4-0.2,0.8-0.4,1.2s-0.4,0.6-0.4,0.7s-0.2,0.5-0.6,1.2c-0.3,0.7-0.6,1.3-0.8,1.8c-0.2,0.5-0.5,1.1-0.8,1.8c-0.6,1.5-1,2.4-1,2.9l0.2,0.3l-0.1,0.1c0.8,1.9,1.7,4.8,2.7,8.4s1.8,6.3,2.3,7.8C109.8,175.6,109.5,175.8,109.1,175.8z"/><path id="XMLID_74_" fill="#FFFFFF" d="M114.5,174l2-0.1c1.1,0,1.6,0.2,1.6,0.5c-0.2,0.3-0.5,0.5-1,0.6c-0.5,0.1-1,0.1-1.4,0.1h-0.8c-1,0-1.6-0.1-1.8-0.2c-0.2-0.2-0.2-0.3-0.2-0.5l0.3-1.3v-0.1c-0.1-0.5-0.1-1-0.1-1.5l0.2-3.5l-0.2-7.3l0.2-6.8c0-0.4-0.1-1-0.2-1.8c-0.1-0.8-0.2-1.4-0.2-1.8l0.6-0.9l2.4-0.3l0.1,0.1c0.5,0,0.8,0.1,0.9,0.2c0.1,0.1,0.1,0.3,0.1,0.4c0,0.4-0.4,0.6-1.2,0.6l-0.9-0.1c-0.5,0-0.7,0.1-0.7,0.4l0.3,5.8l-0.2,4.3l-0.1,0.1l0.2,0.1l1.9-0.3c0.1,0,0.3,0.1,0.4,0.2c0.1,0.1,0.2,0.3,0.2,0.4c0,0.5-0.2,0.7-0.5,0.7l-0.8,0c-0.9,0-1.3,0.2-1.3,0.6l0.2,2.9l-0.1,0.2v6.9c0.1,0.1,0.2,0.5,0.2,0.9V174z"/><path id="XMLID_76_" fill="#FFFFFF" d="M121.4,150.1l-0.1-0.6c0-0.2,0.2-0.3,0.7-0.3c0.9,0,1.6,0.3,2.1,0.8c0.5,0.5,0.8,1.1,1,1.7c0.2,0.6,0.3,1.1,0.4,1.4c0.2,0.7,0.3,1.2,0.3,1.6c0,1.1-0.3,2.5-0.9,4.1c-0.4,1-0.6,1.6-0.6,1.7c0,1.1,0.4,3.3,1.3,6.7c0.9,3.4,1.6,5.7,2.2,7.1c0,0.7-0.1,1.1-0.4,1.1c-0.2,0-0.4-0.1-0.6-0.3c-0.1-0.2-0.2-0.3-0.3-0.4c-0.1-0.9-0.4-2.1-0.9-3.7c-0.5-1.6-0.8-2.6-0.9-3.2c-0.1-0.5-0.3-1.6-0.6-3.2s-0.6-2.9-0.8-3.7l-0.3-0.2l-0.6,0.3v12.8l0.1,0.8c0,0.5-0.2,0.7-0.6,0.7c-0.2,0-0.3-0.1-0.4-0.2c-0.1-0.1-0.2-0.2-0.2-0.4l0.1-0.2l0.1-20.6V150.1z M122.4,150.3l-0.2,7.4c0,1,0,1.7,0.1,2.2h0.1c0.2,0,0.5-0.2,0.9-0.7c0.4-0.5,0.7-0.8,0.9-1.1c0.2-0.3,0.3-0.7,0.4-1.4s0.1-1.2,0.1-1.6c0-0.4,0-0.9-0.1-1.3c-0.1-0.5-0.2-1-0.3-1.5s-0.3-1-0.6-1.4c-0.3-0.4-0.6-0.5-1-0.5v-0.1L122.4,150.3z"/><path id="XMLID_79_" fill="#FFFFFF" d="M135.8,163.6l0,0.1c0,0,0.3,0.9,0.8,2.6c0.3,1.4,0.5,2.4,0.5,3.1s-0.1,1.4-0.3,2.1c-0.2,0.7-0.4,1.4-0.7,2c-0.3,0.6-0.8,1.2-1.3,1.6c-0.6,0.4-1.1,0.6-1.6,0.6c-0.5,0-0.9,0-1.1,0c-0.7-0.1-1.1-0.3-1.4-0.8c0-0.3,0.1-0.4,0.4-0.4c0.2,0,0.6,0.1,1,0.3c0.4,0.2,0.8,0.3,1.2,0.3s0.8-0.2,1.2-0.6s0.7-0.9,1-1.6c0.4-1.3,0.7-2.4,0.7-3.5c0-1.1-0.2-2.2-0.5-3.4s-0.7-2.2-1.2-3.1s-1-1.9-1.4-2.8c-1.1-2.2-1.7-4.3-1.7-6.3c0-1.6,0.5-3,1.5-4c0.5-0.5,1.2-0.8,1.9-0.8c0.2,0,0.5,0.1,0.9,0.3c0.4,0.2,0.6,0.4,0.7,0.6l-0.2,0.4c-0.5,0-0.9-0.1-1.1-0.3c-0.5,0-1,0.2-1.4,0.6c-0.7,0.8-1.1,1.7-1.1,3c0,0.9,0.1,1.6,0.2,2.2c0.1,0.6,0.3,1,0.3,1.4s0.2,0.7,0.4,1.2s0.3,0.8,0.4,1.1c0.1,0.2,0.3,0.6,0.5,1.1c0.3,0.5,0.4,0.9,0.5,1s0.3,0.5,0.6,1.1C135.6,163.1,135.7,163.5,135.8,163.6z"/></g></svg>