<svg version="1.1" xmlns="http://www.w3.org/2000/svg" xmlns:xlink="http://www.w3.org/1999/xlink" x="0px" y="0px" viewBox="-859 441 200 200" enable-background="new -859 441 200 200" xml:space="preserve"><rect id="XMLID_14_" x="-859" y="441" fill="none" width="200" height="200"/><circle id="XMLID_1_" opacity="0.9" fill="#BB3F3F" enable-background="new  " cx="-759" cy="541" r="100"/><g><path fill="#FFFFFF" d="M-790.7,493h-9.1c0.1,2,1.4,3,3.8,3c1.5,0,2.9-0.4,4.1-1.1v3.1c-1.3,0.7-3,1-5,1c-2.3,0-4-0.6-5.3-1.9c-1.2-1.2-1.9-3-1.9-5.3c0-1.4,0.3-2.7,0.9-3.9s1.4-2,2.5-2.7c1.1-0.6,2.3-1,3.6-1c2,0,3.6,0.6,4.7,1.8s1.7,2.9,1.7,4.9V493z M-794.7,490.3c0-2-0.8-3-2.4-3c-0.7,0-1.3,0.3-1.8,0.9s-0.8,1.3-0.9,2.1H-794.7z"/><path fill="#FFFFFF" d="M-774.8,498.7h-4.3V491c0-2.2-0.8-3.3-2.3-3.3c-0.7,0-1.3,0.3-1.8,0.9s-0.7,1.3-0.7,2.2v8h-4.3v-14h4.3v2.2h0.1c1-1.7,2.5-2.6,4.5-2.6c3.1,0,4.6,1.9,4.6,5.8V498.7z"/><path fill="#FFFFFF" d="M-757.7,497.1c0,2.6-0.8,4.6-2.3,6c-1.5,1.4-3.7,2.1-6.5,2.1c-1.9,0-3.4-0.3-4.5-0.8v-3.6c1.4,0.8,2.9,1.3,4.4,1.3c1.4,0,2.6-0.4,3.4-1.1s1.2-1.8,1.2-3.1v-1.1h-0.1c-1,1.6-2.4,2.4-4.4,2.4c-1.8,0-3.2-0.6-4.2-1.9s-1.6-2.9-1.6-5.1c0-2.3,0.6-4.2,1.7-5.6s2.7-2.1,4.6-2.1c1.7,0,3,0.7,3.8,2h0.1v-1.6h4.3V497.1z M-762,492v-1.1c0-0.9-0.3-1.7-0.8-2.3s-1.2-0.9-2-0.9c-1,0-1.7,0.4-2.3,1.1c-0.5,0.7-0.8,1.8-0.8,3.2c0,1.2,0.3,2.1,0.8,2.8c0.5,0.7,1.2,1,2.1,1c0.9,0,1.6-0.3,2.2-1C-762.3,494.1-762,493.1-762,492z"/><path fill="#FFFFFF" d="M-749.9,498.7h-4.3V478h4.3V498.7z"/><path fill="#FFFFFF" d="M-741.8,480.3c0,0.7-0.2,1.2-0.7,1.6c-0.5,0.4-1.1,0.6-1.8,0.6s-1.3-0.2-1.8-0.6c-0.5-0.4-0.7-1-0.7-1.6c0-0.6,0.2-1.2,0.7-1.6c0.5-0.4,1.1-0.6,1.8-0.6c0.7,0,1.3,0.2,1.8,0.6S-741.8,479.7-741.8,480.3z M-742.1,498.7h-4.3v-14h4.3V498.7z"/><path fill="#FFFFFF" d="M-729,494.5c0,1.4-0.6,2.6-1.7,3.4s-2.6,1.2-4.5,1.2c-1.5,0-2.8-0.2-4.1-0.7v-3.5c1.4,0.8,2.7,1.3,4,1.3c1.4,0,2.1-0.4,2.1-1.3c0-0.3-0.1-0.5-0.2-0.7c-0.1-0.2-0.4-0.3-0.7-0.5c-0.3-0.2-0.9-0.4-1.7-0.7c-1.2-0.4-2.1-1-2.6-1.6s-0.8-1.5-0.8-2.5c0-1.3,0.5-2.4,1.6-3.2s2.5-1.2,4.3-1.2c1.1,0,2.3,0.2,3.5,0.6v3.3c-1.1-0.6-2.2-1-3.4-1c-1.1,0-1.7,0.4-1.7,1.2c0,0.3,0.1,0.5,0.2,0.7s0.3,0.3,0.6,0.5c0.3,0.2,0.8,0.4,1.4,0.6c1.4,0.5,2.3,1.1,2.9,1.7C-729.3,492.7-729,493.5-729,494.5z"/><path fill="#FFFFFF" d="M-713,498.7h-4.3v-8c0-2.1-0.7-3.1-2.2-3.1c-0.7,0-1.4,0.3-1.8,0.9s-0.7,1.3-0.7,2.2v8h-4.3V478h4.3v8.8h0.1c1-1.6,2.5-2.4,4.3-2.4c3.2,0,4.8,1.9,4.8,5.7V498.7z"/><path fill="#FFFFFF" d="M-802.8,530.7c0,2.6-0.8,4.6-2.3,6c-1.5,1.4-3.7,2.1-6.5,2.1c-1.9,0-3.4-0.3-4.5-0.8v-3.6c1.4,0.8,2.9,1.3,4.4,1.3c1.4,0,2.6-0.4,3.4-1.1s1.2-1.8,1.2-3.1v-1.1h-0.1c-1,1.6-2.4,2.4-4.4,2.4c-1.8,0-3.2-0.6-4.2-1.9s-1.6-2.9-1.6-5.1c0-2.3,0.6-4.2,1.7-5.6s2.7-2.1,4.6-2.1c1.7,0,3,0.7,3.8,2h0.1v-1.6h4.3V530.7z M-807.1,525.6v-1.1c0-0.9-0.3-1.7-0.8-2.3c-0.5-0.6-1.2-0.9-2-0.9c-1,0-1.7,0.4-2.3,1.1c-0.5,0.7-0.8,1.8-0.8,3.2c0,1.2,0.3,2.1,0.8,2.8c0.5,0.7,1.2,1,2.1,1c0.9,0,1.6-0.3,2.2-1C-807.4,527.7-807.1,526.7-807.1,525.6z"/><path fill="#FFFFFF" d="M-790.2,522.2c-0.5-0.3-1.1-0.4-1.8-0.4c-0.9,0-1.7,0.3-2.2,1c-0.5,0.7-0.8,1.6-0.8,2.8v6.7h-4.3v-14h4.3v2.6h0.1c0.7-1.9,1.9-2.8,3.7-2.8c0.4,0,0.8,0.1,1.1,0.2V522.2z"/><path fill="#FFFFFF" d="M-776.7,532.3h-4.1v-2h-0.1c-0.9,1.6-2.3,2.4-4.2,2.4c-1.3,0-2.4-0.4-3.2-1.2c-0.8-0.8-1.2-1.8-1.2-3.1c0-2.7,1.6-4.3,4.8-4.7l3.8-0.5c0-1.5-0.8-2.3-2.5-2.3c-1.7,0-3.3,0.5-4.8,1.5v-3.3c0.5-0.3,1.4-0.6,2.5-0.8c1.1-0.2,2.1-0.4,2.8-0.4c4,0,6,2,6,6V532.3z M-780.8,525.7l-2.5,0.3c-1.4,0.2-2.1,0.8-2.1,1.9c0,0.5,0.2,0.9,0.5,1.2c0.3,0.3,0.8,0.5,1.4,0.5c0.8,0,1.5-0.3,2-0.8c0.5-0.6,0.8-1.3,0.8-2.1V525.7z"/><path fill="#FFFFFF" d="M-751.2,532.3h-4.3v-8c0-2-0.7-3-2.2-3c-0.7,0-1.3,0.3-1.7,0.9c-0.4,0.6-0.7,1.4-0.7,2.3v7.8h-4.3v-8.1c0-2-0.7-3-2.2-3c-0.7,0-1.3,0.3-1.8,0.9c-0.4,0.6-0.7,1.4-0.7,2.4v7.8h-4.3v-14h4.3v2.2h0.1c0.4-0.8,1.1-1.4,1.9-1.8c0.8-0.5,1.7-0.7,2.6-0.7c2,0,3.3,0.9,4.1,2.6c1.1-1.7,2.6-2.6,4.7-2.6c3,0,4.6,1.9,4.6,5.6V532.3z"/><path fill="#FFFFFF" d="M-725.7,532.3h-4.3v-8c0-2-0.7-3-2.2-3c-0.7,0-1.3,0.3-1.7,0.9c-0.4,0.6-0.7,1.4-0.7,2.3v7.8h-4.3v-8.1c0-2-0.7-3-2.2-3c-0.7,0-1.3,0.3-1.8,0.9c-0.4,0.6-0.7,1.4-0.7,2.4v7.8h-4.3v-14h4.3v2.2h0.1c0.4-0.8,1.1-1.4,1.9-1.8c0.8-0.5,1.7-0.7,2.6-0.7c2,0,3.3,0.9,4.1,2.6c1.1-1.7,2.6-2.6,4.7-2.6c3,0,4.6,1.9,4.6,5.6V532.3z"/><path fill="#FFFFFF" d="M-710.7,532.3h-4.1v-2h-0.1c-0.9,1.6-2.3,2.4-4.2,2.4c-1.3,0-2.4-0.4-3.2-1.2c-0.8-0.8-1.2-1.8-1.2-3.1c0-2.7,1.6-4.3,4.8-4.7l3.8-0.5c0-1.5-0.8-2.3-2.5-2.3c-1.7,0-3.3,0.5-4.8,1.5v-3.3c0.5-0.3,1.4-0.6,2.5-0.8c1.1-0.2,2.1-0.4,2.8-0.4c4,0,6,2,6,6V532.3z M-714.8,525.7l-2.5,0.3c-1.4,0.2-2.1,0.8-2.1,1.9c0,0.5,0.2,0.9,0.5,1.2s0.8,0.5,1.4,0.5c0.8,0,1.5-0.3,2-0.8c0.5-0.6,0.8-1.3,0.8-2.1V525.7z"/><path fill="#FFFFFF" d="M-698.3,522.2c-0.5-0.3-1.1-0.4-1.8-0.4c-0.9,0-1.7,0.3-2.2,1c-0.5,0.7-0.8,1.6-0.8,2.8v6.7h-4.3v-14h4.3v2.6h0.1c0.7-1.9,1.9-2.8,3.7-2.8c0.4,0,0.8,0.1,1.1,0.2V522.2z"/><path fill="#FFFFFF" d="M-812.2,546.5c-0.3-0.3-0.9-0.4-1.5-0.4c-1.7,0-2.6,1.2-2.6,3.5v2.3h3.7v1.1h-3.7v12.9h-1.3v-12.9h-2.5v-1.1h2.5v-2.4c0-1.4,0.4-2.5,1.1-3.3c0.7-0.8,1.7-1.2,2.8-1.2c0.6,0,1.1,0.1,1.5,0.3V546.5z"/><path fill="#FFFFFF" d="M-805.1,566.3c-2,0-3.6-0.7-4.8-2c-1.2-1.3-1.8-3.1-1.8-5.3c0-2.3,0.6-4.1,1.8-5.4c1.2-1.3,2.9-2,4.9-2c2,0,3.6,0.7,4.7,2c1.2,1.3,1.7,3.1,1.7,5.4c0,2.2-0.6,4-1.8,5.3S-803.1,566.3-805.1,566.3z M-805,552.8c-1.6,0-3,0.6-3.9,1.7c-1,1.1-1.5,2.7-1.5,4.6c0,1.9,0.5,3.3,1.5,4.4s2.3,1.7,3.9,1.7c1.7,0,3-0.5,3.9-1.6c0.9-1.1,1.4-2.6,1.4-4.6c0-2-0.5-3.5-1.4-4.6S-803.4,552.8-805,552.8z"/><path fill="#FFFFFF" d="M-788.6,553.3c-0.4-0.3-0.9-0.5-1.5-0.5c-0.7,0-1.4,0.3-2,0.8c-0.6,0.5-1.1,1.3-1.4,2.3c-0.3,1-0.5,2.2-0.5,3.5v6.6h-1.2v-14h1.2v3.1h0.1c0.3-1.1,0.8-1.9,1.5-2.5c0.7-0.6,1.5-0.9,2.4-0.9c0.5,0,1,0.1,1.4,0.2V553.3z"/><path fill="#FFFFFF" d="M-769.4,565.9l-2.6-5.7c-0.5-1.1-1-1.9-1.6-2.4c-0.5-0.4-1.2-0.6-2.1-0.6h-2.4v8.7h-1.4v-19.6h5.4c1.7,0,3,0.5,4,1.4c1,0.9,1.5,2.2,1.5,3.7c0,1.4-0.4,2.6-1.2,3.5s-2,1.6-3.4,1.8v0.1c0.8,0.3,1.5,1.3,2.3,2.8l2.9,6.2H-769.4z M-778.1,547.6v8.4h3.4c1.5,0,2.7-0.4,3.6-1.2c0.9-0.8,1.3-1.9,1.3-3.2c0-1.3-0.4-2.2-1.2-2.9c-0.8-0.7-1.9-1.1-3.4-1.1H-778.1z"/><path fill="#FFFFFF" d="M-755,565.9v-2.5h-0.1c-1,1.9-2.5,2.9-4.5,2.9c-3.3,0-5-2.1-5-6.2v-8.1h1.3v7.8c0,1.9,0.3,3.2,0.9,4.1c0.6,0.9,1.6,1.3,3,1.3c1.3,0,2.4-0.5,3.2-1.5s1.2-2.2,1.2-3.8v-7.9h1.3v14H-755z"/><path fill="#FFFFFF" d="M-750.2,565.3v-1.5c0.4,0.4,1,0.7,1.7,0.9c0.7,0.3,1.3,0.4,1.8,0.4c2.2,0,3.3-0.9,3.3-2.7c0-0.6-0.2-1.1-0.7-1.5c-0.4-0.4-1.2-0.9-2.4-1.4c-1.3-0.5-2.2-1.1-2.8-1.7c-0.6-0.6-0.9-1.4-0.9-2.4c0-1.1,0.4-2,1.3-2.7s1.9-1.1,3.2-1.1c1.2,0,2.2,0.2,3.1,0.7v1.4c-1-0.7-2.1-1-3.2-1c-0.9,0-1.7,0.2-2.2,0.7c-0.6,0.5-0.9,1.1-0.9,1.9c0,0.5,0.1,1,0.3,1.3c0.2,0.3,0.5,0.6,0.9,0.9c0.4,0.3,1,0.6,1.8,0.9c1.5,0.7,2.5,1.3,3,1.8s0.8,1.3,0.8,2.2c0,1.1-0.4,2.1-1.3,2.8s-2,1.1-3.4,1.1C-748.1,566.3-749.3,566-750.2,565.3z"/><path fill="#FFFFFF" d="M-739.4,565.3v-1.5c0.4,0.4,1,0.7,1.7,0.9c0.7,0.3,1.3,0.4,1.8,0.4c2.2,0,3.3-0.9,3.3-2.7c0-0.6-0.2-1.1-0.7-1.5c-0.4-0.4-1.2-0.9-2.4-1.4c-1.3-0.5-2.2-1.1-2.8-1.7c-0.6-0.6-0.9-1.4-0.9-2.4c0-1.1,0.4-2,1.3-2.7s1.9-1.1,3.2-1.1c1.2,0,2.2,0.2,3.1,0.7v1.4c-1-0.7-2.1-1-3.2-1c-0.9,0-1.7,0.2-2.2,0.7c-0.6,0.5-0.9,1.1-0.9,1.9c0,0.5,0.1,1,0.3,1.3c0.2,0.3,0.5,0.6,0.9,0.9c0.4,0.3,1,0.6,1.8,0.9c1.5,0.7,2.5,1.3,3,1.8s0.8,1.3,0.8,2.2c0,1.1-0.4,2.1-1.3,2.8s-2,1.1-3.4,1.1C-737.4,566.3-738.5,566-739.4,565.3z"/><path fill="#FFFFFF" d="M-727.3,548.4c-0.3,0-0.5-0.1-0.7-0.3s-0.3-0.5-0.3-0.8c0-0.3,0.1-0.5,0.3-0.7c0.2-0.2,0.5-0.3,0.7-0.3c0.3,0,0.5,0.1,0.7,0.3c0.2,0.2,0.3,0.4,0.3,0.7c0,0.3-0.1,0.5-0.3,0.8S-727.1,548.4-727.3,548.4z M-728,565.9v-14h1.3v14H-728z"/><path fill="#FFFFFF" d="M-714,565.9v-2.8h-0.1c-0.4,1-1.1,1.7-2,2.3s-1.8,0.9-2.8,0.9c-1.3,0-2.3-0.4-3.1-1.1c-0.8-0.7-1.2-1.7-1.2-2.9c0-2.5,1.6-3.9,4.9-4.4l4.3-0.6c0-3-1.1-4.5-3.4-4.5c-1.5,0-3,0.6-4.5,1.9v-1.5c0.5-0.4,1.2-0.8,2.1-1s1.7-0.4,2.5-0.4c1.4,0,2.6,0.4,3.3,1.3s1.2,2.2,1.2,3.9v9.1H-714z M-721.8,562.3c0,0.9,0.3,1.6,0.8,2.1s1.3,0.8,2.3,0.8c1.4,0,2.5-0.5,3.4-1.5s1.3-2.3,1.3-3.8v-1.4l-3.9,0.6c-1.6,0.2-2.6,0.6-3.2,1.1S-721.8,561.3-721.8,562.3z"/><path fill="#FFFFFF" d="M-699.1,565.9v-8.1c0-3.4-1.2-5-3.6-5c-1.3,0-2.4,0.5-3.3,1.5s-1.3,2.2-1.3,3.7v8h-1.3v-14h1.3v2.5h0.1c1-1.9,2.6-2.9,4.8-2.9c1.5,0,2.7,0.5,3.5,1.5c0.8,1,1.2,2.4,1.2,4.3v8.5H-699.1z"/><path fill="#FFFFFF" d="M-807,598.9v-1.5c0.4,0.4,1,0.7,1.7,0.9c0.7,0.3,1.3,0.4,1.8,0.4c2.2,0,3.3-0.9,3.3-2.7c0-0.6-0.2-1.1-0.7-1.5c-0.4-0.4-1.2-0.9-2.4-1.4c-1.3-0.5-2.2-1.1-2.8-1.7c-0.6-0.6-0.9-1.4-0.9-2.4c0-1.1,0.4-2,1.3-2.7s1.9-1.1,3.2-1.1c1.2,0,2.2,0.2,3.1,0.7v1.4c-1-0.7-2.1-1-3.2-1c-0.9,0-1.7,0.2-2.2,0.7c-0.6,0.5-0.9,1.1-0.9,1.9c0,0.5,0.1,1,0.3,1.3c0.2,0.3,0.5,0.6,0.9,0.9c0.4,0.3,1,0.6,1.8,0.9c1.5,0.7,2.5,1.3,3,1.8c0.5,0.6,0.8,1.3,0.8,2.2c0,1.1-0.4,2.1-1.3,2.8c-0.9,0.7-2,1.1-3.4,1.1C-805,599.9-806.1,599.6-807,598.9z"/><path fill="#FFFFFF" d="M-794.2,597.1L-794.2,597.1l-0.1,8.9h-1.3v-20.4h1.3v2.9h0.1c0.5-1,1.2-1.8,2.2-2.4s2-0.8,3.1-0.8c1.8,0,3.1,0.6,4.1,1.8s1.5,2.9,1.5,5c0,1.5-0.3,2.9-0.8,4.1s-1.3,2.1-2.2,2.8c-1,0.7-2,1-3.2,1C-791.7,599.9-793.2,598.9-794.2,597.1z M-794.3,591.8v1.8c0,1.5,0.5,2.7,1.4,3.7c0.9,1,2.1,1.5,3.4,1.5c1.4,0,2.6-0.6,3.5-1.9s1.3-2.8,1.3-4.8c0-1.7-0.4-3.1-1.2-4.2s-1.9-1.6-3.3-1.6c-1,0-1.9,0.2-2.7,0.7s-1.4,1.1-1.8,2C-794.1,589.9-794.3,590.8-794.3,591.8z"/><path fill="#FFFFFF" d="M-779.7,592.6c0,1.9,0.4,3.5,1.3,4.5c0.9,1.1,2.1,1.6,3.7,1.6c1.6,0,3.1-0.6,4.6-1.7v1.3c-1.5,1-3.1,1.5-4.9,1.5c-1.8,0-3.3-0.7-4.4-2s-1.6-3.1-1.6-5.4c0-1.3,0.3-2.6,0.8-3.7c0.5-1.1,1.3-2,2.3-2.6c1-0.6,2-0.9,3.2-0.9c1.7,0,3,0.6,4,1.8c0.9,1.2,1.4,2.9,1.4,5v0.6H-779.7z M-770.6,591.4c-0.1-1.6-0.4-2.9-1.2-3.8s-1.7-1.3-3-1.3c-1.3,0-2.4,0.4-3.3,1.3c-0.9,0.9-1.4,2.1-1.6,3.8H-770.6z"/><path fill="#FFFFFF" d="M-757.6,599.5v-2.8h-0.1c-0.4,1-1.1,1.7-2,2.3s-1.8,0.9-2.8,0.9c-1.3,0-2.3-0.4-3.1-1.1c-0.8-0.7-1.2-1.7-1.2-2.9c0-2.5,1.6-3.9,4.9-4.4l4.3-0.6c0-3-1.1-4.5-3.4-4.5c-1.5,0-3,0.6-4.5,1.9v-1.5c0.5-0.4,1.2-0.8,2.1-1s1.7-0.4,2.5-0.4c1.4,0,2.6,0.4,3.3,1.3c0.8,0.9,1.2,2.2,1.2,3.9v9.1H-757.6z M-765.5,595.9c0,0.9,0.3,1.6,0.8,2.1c0.6,0.5,1.3,0.8,2.3,0.8c1.4,0,2.5-0.5,3.4-1.5s1.3-2.3,1.3-3.8V592l-3.9,0.6c-1.6,0.2-2.6,0.6-3.2,1.1S-765.5,594.9-765.5,595.9z"/><path fill="#FFFFFF" d="M-744.3,599.5l-6.7-6.9h-0.1v6.9h-1.3v-20.7h1.3v13.4h0.1l6.4-6.6h1.6l-6.6,6.8l7.2,7.2H-744.3z"/><path fill="#FFFFFF" d="M-739.7,592.6c0,1.9,0.4,3.5,1.3,4.5c0.9,1.1,2.1,1.6,3.7,1.6c1.6,0,3.1-0.6,4.6-1.7v1.3c-1.5,1-3.1,1.5-4.9,1.5c-1.8,0-3.3-0.7-4.4-2s-1.6-3.1-1.6-5.4c0-1.3,0.3-2.6,0.8-3.7s1.3-2,2.3-2.6s2-0.9,3.2-0.9c1.7,0,3,0.6,4,1.8c0.9,1.2,1.4,2.9,1.4,5v0.6H-739.7z M-730.7,591.4c-0.1-1.6-0.4-2.9-1.2-3.8s-1.7-1.3-3-1.3c-1.3,0-2.4,0.4-3.3,1.3c-0.9,0.9-1.4,2.1-1.6,3.8H-730.7z"/><path fill="#FFFFFF" d="M-719.4,586.9c-0.4-0.3-0.9-0.5-1.5-0.5c-0.7,0-1.4,0.3-2,0.8c-0.6,0.5-1.1,1.3-1.4,2.3s-0.5,2.2-0.5,3.5v6.6h-1.2v-14h1.2v3.1h0.1c0.3-1.1,0.8-1.9,1.5-2.5c0.7-0.6,1.5-0.9,2.4-0.9c0.5,0,1,0.1,1.4,0.2V586.9z"/><path fill="#FFFFFF" d="M-717.3,598.9v-1.5c0.4,0.4,1,0.7,1.7,0.9s1.3,0.4,1.8,0.4c2.2,0,3.3-0.9,3.3-2.7c0-0.6-0.2-1.1-0.7-1.5s-1.2-0.9-2.4-1.4c-1.3-0.5-2.2-1.1-2.8-1.7s-0.9-1.4-0.9-2.4c0-1.1,0.4-2,1.3-2.7s1.9-1.1,3.2-1.1c1.2,0,2.2,0.2,3.1,0.7v1.4c-1-0.7-2.1-1-3.2-1c-0.9,0-1.7,0.2-2.2,0.7s-0.9,1.1-0.9,1.9c0,0.5,0.1,1,0.3,1.3s0.5,0.6,0.9,0.9s1,0.6,1.8,0.9c1.5,0.7,2.5,1.3,3,1.8c0.5,0.6,0.8,1.3,0.8,2.2c0,1.1-0.4,2.1-1.3,2.8c-0.9,0.7-2,1.1-3.4,1.1C-715.3,599.9-716.5,599.6-717.3,598.9z"/></g></svg>
