<svg version="1.1" xmlns="http://www.w3.org/2000/svg" xmlns:xlink="http://www.w3.org/1999/xlink" x="0px" y="0px" viewBox="0 0 200 200" enable-background="new 0 0 200 200" xml:space="preserve"><rect id="XMLID_14_" y="0" fill="none" width="200" height="200"/><path id="XMLID_13_" fill="#D54848" d="M16.7,151.7c0.4-0.4,0.6,0.9,1,1.2c0.2-1-0.8-2.1-1.3-3c-0.6,0.5,0.5,0.8,0.3,1.5c-4.5-7.8-6-16.7-9.2-25.8c-0.4,0.4,0.2,1.1,0,1.8c-0.5-1.8-1-3.5-1.2-5.6c-0.4,0.1,0,1-0.3,1.2c-0.5-3.2-0.8-6.9-1.5-10.3c-0.4,0.3-0.1,1.3-0.2,1.8c-0.8-2-0.3-5.7-0.8-6.8c1.2-0.2,0.2,1.9,0.7,3c0.6-4.2-1-7.1-0.7-11.6c-0.5,0.2-0.1,0.3-0.3,0.8c-0.4-1.2-0.1-3.1-0.2-4.6c-1.2,0.5-0.3,3.2-1.3,4c0-1.8,0.7-3.3,0.8-5c0.2-3.3-1.4-6.6,0.2-9.3c0,0.5,0,1,0,1.5C2.9,86.2,3,85.7,3,85.2c1-0.2,0.7-4.1,0.8-6c0.4-7.1,2.3-12.6,4.3-18.4c0.6-1.8,1.2-3.7,2-5.3c1.2-2.4,3.2-4.4,4.2-7.3c2.1-6.4,5.2-9.2,10-13.1c4.3-7.8,10.8-16,21.5-20.7c4.8-2.1,10-4.1,15.5-5.6c5.4-1.5,10.4-4.2,15.7-5.5C80.1,2.6,82.6,2.4,86,2c8-1.1,17.9-3,27.2-1.3c3.5,0.6,6.9,1.6,10,2.8c3,1.2,5.9,2.9,9,3.8c0.2,0.1,0.6,0.2,0.7,0.2c7.8,1.3,13.9,4.9,20,8.4c7,4.1,12.8,9.6,18,15.6c2.8,3.2,4.9,7.1,7.7,10.1c0,0.2-0.3,0.1-0.3,0.3c1.2,1.6,1.6,4,3.3,5c0,0.5-0.3,0.3,0,0.7c5.2,5.8,8.8,14.7,11.7,23.5c0.8,2.4,2.4,4.7,2.8,7.3c1.3,6.9,2.1,14.2,2.2,22.5c0,2.5-0.4,4.5-1,7.1c-0.8-0.2-0.8,1-1,1.8c0.6-0.2,0.2-1.2,0.7-1.5c0.3,0.8-0.6,1.9-0.5,3.1c-0.3,0.1-0.1,0.5-0.5,0.2c-0.6,5.9-2.8,10.3-4,15.6c-0.6,0.2-1.2,2-1.3,2.8c0,0.2,0.3,0.4,0.3,0.3c-0.3,0.9-1.5,2.6-2,3.8c-0.3,0.6-0.4,1.3-0.5,2.3c-0.5,1-1.8,2.7-2.5,4c-0.6,1.1-0.9,1.8-0.8,2.8c-1.1,1.2-2,2.5-2.3,4.5c-0.4,0.6-1.3,0.8-1.2,2c-2.5,4.2-5.7,7.7-8.8,11.3c0,0.3,0,0.7,0,1c-1.1,0.8-1.1,0.6-2.3,1.2c-0.5,1-1.5,2.4-2.3,3.5c0.1-0.3,0.4-0.5,0.5-0.8c-1.9,0.5-1.7,3-3.5,3.6c0,0.2,0,0.4,0,0.7c-0.3-0.2-0.4-0.4-0.2-0.7c-0.2,0.1-0.6,0.1-0.5,0.7c-0.5,0.1-0.4-0.4-0.8-0.5c-0.4,0.4,0,1.4,0.3,0.7c-0.2,2.1-2.9,3.2-3.5,5.5c-1.7,1.3-3.1,2.9-4.7,4.3c0.2,0.5,0.1,0.6-0.2,1c-0.5-0.1,0.2-0.4,0-0.7c-0.9,0-1.4,1.3-1.7,1.3c-0.9-0.3,0.4-0.7,0.3-1.2c-1.1,0-1.7,2-2.5,2.8c-0.6,0.3-0.1-0.6-0.5-0.5c-0.9,1.4-2.2,2.4-3.7,3.3c0.1-0.8,1-0.8,1.3-1.3c-0.7-0.3-1.5,0.8-2.2,1.2c0.1-0.5-0.7-0.3-1,0.2c0.1,0.5,0.3-0.4,0.7-0.2c-0.5,0.7-0.1,0.1,0.3,0.5c-1.5,1.5-3.6,2.3-5.2,3.6c-0.5-0.4,0.4-0.9,0.5-1.3c-1.7,0.3-2.9,2.2-4.5,1.8c-1,0.4-1.3,1.6-2.5,1.8c1-0.9-1.1-0.1-0.5,0.5c-0.6-0.8-1.4,0.3-1.3,0.7c-2.5,0.3-4.3,2.3-7,2.8c1.4-1.1,3.5-1.5,4.5-3c-4.4,2.3-8.9,3.8-15.9,4.8c-7,1-14.2,2.2-22.5,1.5c0.1-0.3,0.8-0.1,0.8-0.5c1.2,0,2.8,0.6,4,0.3c0.3-0.1,0.4-0.5,0.5-0.5c1.2,0,2.8,0.8,4.2,0c2.4,0.3,5.2-0.2,8-0.7c3.7-0.5,7.6-1.3,10.5-2.6c1.5,0.5,3.2-0.7,4.7-1.2c-8.8,1.4-18.6,4.1-28.5,4.1c-4.1,0-8.4-0.5-12.4-0.8c2.3-0.4,4,0.3,6.3-0.2c-1-0.5-2.9-0.1-4-0.5c0-0.2,0.3-0.1,0.3-0.3c-1,0-3.9-0.4-6-0.5c-0.3,0.1,0,0.2,0.2,0.2c-0.6,0.5-1.4-0.2-2.2,0c-0.1-0.3,0.1-0.3,0.3-0.3c-1.5-0.5-3.3-0.7-5-1c0.3,0.2,0.7,0.3,1.2,0.3c-0.4,0.4-1.4,0.1-1.3-0.5c-1.2,0.6-1.8-0.5-3.3-0.5c0-0.3,0.2-0.3,0.2-0.5c-5.7-1.9-11.8-3.6-16.9-6.1c0.2-0.3,0.8,0.4,1.3,0.3c0.1-0.8-1.9-1-2.7-1.5c-0.5,0.6,0.8,0.5,1.2,0.8c-1.5,0-3.2-1.1-4.5-1.8c0.1-0.5,0.4,0.2,0.7,0c-0.6-0.4-0.8-0.5-1-1.2c-0.8,0.1-1.1,0.4-1.8,0c0.1-0.3,0.3,0,0.5,0c-0.2-0.8-2-1.4-2.8-2c-0.4,0.2,0.5,0.5,0.7,0.7c-0.6,0.3-1.6-1.6-1.2-1.3c-0.2-0.5-0.8-0.6-1.3-0.7c0-0.5-0.2-0.8-0.5-1.3c-1.3,0.2-1.4-0.8-2.8-1.2c0.1,0.4,0.4,0.6,0.7,0.8c-0.9,0.1-1.8-1.3-2.5-2c1,0,1.8,0.7,2.8,1.3c-1.2-1.8-2.9-2-4.5-3.3c0.3-0.4-0.2-1.1-0.8-1.2c-0.8,0.3,0.4,0.6,0.3,1.2c-1-0.7-1.7-1.8-2.7-2.5c0.7,0,1.5,1,2.3,1c-0.6-0.8-1.1-1.7-2-2.2c-0.2-1.3-1.2-2.5-2.2-2.5c-0.5-2.4-2.8-3.7-3.7-6.1c-0.6-0.4-1-1-1.7-1.3c0.1-0.2,0.4-0.2,0.3-0.5c-1.6-2-3.1-4.3-5-6.5c-0.4,0.9,1.1,1.2,1,2.3c-0.4-0.1-1.5-0.5-0.8-1.2c-2.1-1.6-2.5-4.8-4.3-6.6c0.7,1.6,1.4,3.4,2.3,5c1,1.6,2.6,4.3,3.7,5.8c0.6,0.9,0.6,0.8,0.8,1.5c-1.6-1.7-3.4-4.7-4.7-7.3c-0.4-0.3-0.6,0.1-1-0.3C17.7,153.4,17.2,152.6,16.7,151.7L16.7,151.7z M39.1,177.4c-0.1-0.9-0.8-1.1-1.3-1.7C37.8,176.7,38.7,176.8,39.1,177.4L39.1,177.4z M4.7,106.9c1-0.6,0.3-1.4,0.3-2.6C3.7,104.5,4.7,106.4,4.7,106.9L4.7,106.9z M15.9,146.3c1.4,0.8,1.5,3.7,3,3.8c-1.4-2-2.5-4.3-3.8-6.5C14.6,144.6,16,145,15.9,146.3L15.9,146.3z M20,152.1c-0.2-0.7-0.6-1.3-1.2-1.7c0.2,0.5-0.5,0.1-0.3,0.7C18.8,151.6,19.4,151.9,20,152.1L20,152.1z M21.5,84.5c-0.3,0.4-0.4,1-0.2,1.5c-0.2-0.1-0.3-0.2-0.5,0c0,0.4,0,0.9,0,1.3C21.5,87,22.1,84.9,21.5,84.5L21.5,84.5z M21.9,155.1c0.2-0.5-0.7-0.7-0.8-0.3C21.2,154.9,21.3,155.2,21.9,155.1L21.9,155.1z M21.7,87.3c-0.6-0.2-0.4,1.2-0.2,1.3C21.4,88,21.8,87.9,21.7,87.3L21.7,87.3z M23.7,79.7c-1.3,0.7-2,2.8-1.8,4.5C22.1,82.1,23.7,82.1,23.7,79.7L23.7,79.7z M36.7,172c-0.1,0.5,0.3,0.8-0.2,1.2c-0.1-0.7-1.1-0.6-1.5-1c-0.1,0.9,0.7,1,1.2,1.3c0.2-0.4-0.7-0.5-0.2-0.7c0.4,0.2,0.6,0.6,0.5,1.3c1,0,1.4,1.2,2.7,0.7c-0.5-0.3-1.1-0.6-1.3-1.2c0.8,0.6,1.4,0.7,2.2,1.5c0.2-1.4-1.8-1.2-1.3-2.3c-2.9,0.1-3.5-4.1-6.3-4.3C34,169.3,34.8,171.9,36.7,172L36.7,172z M37.2,175.1c-0.5-0.3-0.7-0.9-1.3-1c0.4,1.1,1.6,1.3,2.7,1.7c-0.1-0.6-0.6-0.7-1-1c0.1,0,0.2,0,0.2-0.2C37,174.5,37.5,175.1,37.2,175.1L37.2,175.1z M33.9,170.1c-0.4,0.2-0.4-0.8-0.7-0.2c0.2,0,0.2,0.3,0.2,0.5c-0.1,0-0.2,0-0.2,0.2C33.7,170.7,33.9,170.6,33.9,170.1L33.9,170.1z M36.9,57.2c0.3-1.1,1.4-1.4,1.5-2.7C37.5,55,36,55.9,36.9,57.2L36.9,57.2z M39.9,177.1c-0.3,0.1-0.5-0.8-0.2-0.8c0.4,0.9,1.4,1.1,2.2,1.5c-0.2,0-0.5,0-0.5,0.2c0.4,0.1,0.7,0.2,0.8,0.5c-0.3,0-0.6,0-0.8,0c0.9,0.9,1.8,1.9,3,2.5c-0.2-0.3-0.9-1.3-0.2-0.7c0-0.8-0.6-1-0.8-1.7c0.7,0.3,1.9,1.4,2.5,0.7c-1.1-0.6-1.3-1.1-2.7-1.2c-0.3,0.8,0.8,1.2,0,1.5c0.2-0.6-0.6-1.4-1.2-1.8c0-0.2,0.3-0.2,0.3-0.3c-1.3-0.8-2.5-2.3-3.8-2.2c0.3,0.2,0.5,0.5,0.8,0.7c-0.2,0-0.1,0.2,0,0.3c-0.4,0.2-0.6-0.4-0.7,0C39.2,176.4,39.4,177.6,39.9,177.1L39.9,177.1z M42.6,176.6c-0.5-0.2,0.3-0.2,0.3,0c-0.4-1-2-1.9-2.7-1.2c0.4,0.2,0.8,0.3,1,0.7c0.5,0.1,0.3-0.3,0.7-0.3c-0.3,0.3,0,0.4,0,0.8C42.3,176.4,42.5,177,42.6,176.6L42.6,176.6z M46.9,180.6c0.1-0.6-0.4-0.7-0.8-0.8c0,0.5,0.3,0.3,0,0.7c0.3,0,0.3-0.2,0.5-0.3C46.6,180.4,46.7,180.5,46.9,180.6L46.9,180.6z M48.4,182.2c0.1,0.8,0.6,1.1,1.5,1c0,0.8,2.5,1.3,3.3,0.8c-1.3-0.8-2.8-1.2-4-2.3c-0.4,1.2-1.6-0.2-2.2,0C47.5,181.9,47.9,182.7,48.4,182.2L48.4,182.2z M49.1,88.1c-0.1-0.3-0.1-0.7-0.3-0.8C48.5,87.6,48.5,88.3,49.1,88.1L49.1,88.1z M49.1,88.3c-0.1,0.7,0,0.7-0.2,1.3C49.8,89.7,49.3,88.6,49.1,88.3L49.1,88.3z M49.9,89c0.1,0.7,0.1,0.7,0,1.3C50.6,90.3,50.2,89,49.9,89L49.9,89z M54.4,185.2c-0.5-0.2-1.3-0.8-1.7-0.2C53.5,184.8,53.9,185.8,54.4,185.2L54.4,185.2z M56.6,54.2c-2,0-1.7,1.4-3.2,1.7C54.8,55.6,56.6,55.8,56.6,54.2L56.6,54.2z M55.1,186c0.2-0.5-0.7-0.7-0.8-0.3C54.6,185.8,54.7,186.1,55.1,186L55.1,186z M64.4,189c-1.3-0.5-2.5-1-3.8-1.5c0.2,0.6-0.5,0.3-0.3,0.8C62,188.5,63.1,189.7,64.4,189L64.4,189z M63.9,40.4c-0.4-0.2-0.7,0.5-0.8,0c0.3-0.1,0.6-0.3,0.7-0.7c-1,0.3-2.2,0.4-2.5,1.3C62.7,41,63.3,41.1,63.9,40.4L63.9,40.4z M64.4,130c0-0.4,0.1-1-0.3-1C63.7,129.4,64.2,129.8,64.4,130L64.4,130z M66.1,166c0-0.7-0.6-1-1.2-1.2C65.2,165.4,65.4,165.9,66.1,166L66.1,166z M66.6,163.2c0,0.2-0.1,0.2-0.2,0.3c1-0.1,0-0.8-0.3-1c0,0.2-0.1,0.4-0.2,0.5C66.2,163,66.6,163,66.6,163.2L66.6,163.2z M67.9,169.1c0-0.4-1-1-1-0.3C67.6,168.6,67.4,169.2,67.9,169.1L67.9,169.1z M72.1,28c-1.3,0.9-3.2,0.1-4.5,1.5C69.6,29.1,71.9,29.9,72.1,28L72.1,28z M70.5,170.5c0.3-1-1.9-1-1.7-0.8C69.4,169.9,69.6,170.5,70.5,170.5L70.5,170.5z M69.6,167c0-0.6-0.7-0.4-1-0.7C68.5,167,69.1,167,69.6,167L69.6,167z M72.6,192c-0.7-1-2.8-1.4-3.8-1.5C69.8,191.4,71.6,191.6,72.6,192L72.6,192z M71.3,57.5c0.6-0.1,1.1-0.2,1.8-0.2c0-0.6,0.5-0.6,0.5-1.2c-0.2,0-0.5,0-0.5-0.2c0.2-0.2,0.5-0.3,0.7-0.5c-0.9,0-0.9,0.8-1.7,0.8c0.2,0.1,0.4,0.2,0.5,0.3C72.2,57,71.5,57,71.3,57.5L71.3,57.5z M73,74.7c0.1-0.8-0.3-1.1-0.2-1.8c-0.9-0.1-0.3,1.3-0.8,1.5c-0.1,0-0.2,0-0.2,0.2C72.2,74.6,72.4,74.8,73,74.7L73,74.7z M75.1,175.4c-0.5-0.5,0.6,0.4,0.3-0.3c-0.7,0.2-1,0.2-1.5-0.2C73.9,175.4,75.1,175.6,75.1,175.4L75.1,175.4z M77.3,191.5c-0.1-0.5,0.3-0.3,0.3-0.7c-0.8-0.1-0.8-0.3-1.5-0.3C76.3,191.1,77.4,190.7,77.3,191.5L77.3,191.5z M77.3,193.5c0.2-0.6-0.7-0.2-0.8-0.5c0,0.1,0,0.2,0,0.3C76.4,193.7,77.1,193.4,77.3,193.5L77.3,193.5z M81.8,194.3c-0.4-0.7-2.2-1-3.2-0.7C79.5,194.1,80.8,194.1,81.8,194.3L81.8,194.3z M83,193.2c-0.6-0.5-1.8-0.4-2.2-1.2c-0.7,0.2-0.7,0.3-1.5,0.2c0,0.2-0.1,0.6,0.2,0.7C80.4,192.7,81.7,194.2,83,193.2L83,193.2z M91.2,42.6c-0.5,0.1-1.3-0.2-1.5,0.2C89.8,42.9,91.2,43.2,91.2,42.6L91.2,42.6z M94,44.4c-0.1,0-0.2-0.1-0.2-0.3c-1,0.2-2-0.8-2.3,0.2C92.4,44.3,93,45.2,94,44.4L94,44.4z M99.8,198c1.9,0.5,4-0.1,5.8-0.3c0.9-0.4,1.2,0.6,1.5-0.5c-4.2,0.3-9.1,0.8-13.2,0.7c-0.1,0-0.2,0.1-0.2,0.3C95.7,198.3,97.4,198.4,99.8,198L99.8,198z M101.8,84.5c-0.5-0.2,0.4-0.3,0.3-0.5c-0.9,0.2-0.3-0.8-1.3-0.8c0,0.5,0.5,0.4,0.5,0.8c-0.2,0-0.2,0.1-0.3,0.2c-0.3,0-0.2-0.5-0.7-0.3C100.5,84.2,101.3,85,101.8,84.5L101.8,84.5z M101.2,82.8c0.4-0.1,0.5-0.4,0.8-0.5c-0.5-0.2-0.4,0-1,0c0,0.1,0,0.2,0,0.3C101.1,82.7,101.2,82.7,101.2,82.8L101.2,82.8z M103.5,85.7c-0.1-0.7-0.9-0.6-1.3-1C102.3,85.3,103,85.3,103.5,85.7L103.5,85.7z M110.2,54.3c-0.8,0-1.1-0.2-1.5,0C109.2,54.5,109.9,54.9,110.2,54.3L110.2,54.3z M118.9,195.2c-2.4,0.3-5.5,0.9-7.7,1.3c-0.8,0.1-1.9,0-2.2,0.7C112.2,196.4,116,196.3,118.9,195.2L118.9,195.2z M113.9,147.1c-0.1-0.3,0.2-0.3,0.3-0.5c-0.6,0.2-0.8-0.2-1.2,0.2c0.1,0,0.3,0,0.3,0.2c-0.2,0-0.6,0-0.3,0.2C113.6,147.2,113.5,146.8,113.9,147.1L113.9,147.1z M117,67.4c-0.8,0.1-0.5-0.7-1.2-0.7c-0.1,0.5,0.4,0.4,0.5,0.8c-0.1,0-0.3,0-0.3,0.2C116.5,67.4,116.9,68,117,67.4L117,67.4z M117.5,66.4c0.1-0.6-0.3-0.8-0.7-1C117,65.8,116.9,66.5,117.5,66.4L117.5,66.4z M124.7,193.3c-1.2,0.5-2.8,0.6-3.7,1.3C122.5,194.4,124.1,193.8,124.7,193.3L124.7,193.3z M122.2,70.2c0,0.3-0.7-0.3-0.7,0.3c0.2,0,0.3,0.3,0.5,0.3C122,70.7,122.6,70.3,122.2,70.2L122.2,70.2z M122.9,68.8c-0.2,0-0.4,0.1-0.5,0.2c0-0.1,0-0.3-0.2-0.3c-0.1,0.3-0.5,0.3-0.5,0.7C122.3,69.3,122.7,69.1,122.9,68.8L122.9,68.8z M123,70.2c0,0.3-0.4,0.1-0.5,0c0,0.2,0,0.4,0,0.7C123,71.1,123.4,70.4,123,70.2L123,70.2z M126.4,91.1c-0.2-0.5-0.2-1.1-0.7-1.3C125.7,90.5,125.7,91.1,126.4,91.1L126.4,91.1z M127.9,135.7c0-0.6-0.7-0.4-1-0.7c-0.1,0.4-0.6,0.3-0.5,0.8C127.2,136,127.3,135.3,127.9,135.7L127.9,135.7z M130.9,190.3c-1.5,0.5-2.8,1.2-4,2C128.5,191.9,129.8,191.2,130.9,190.3L130.9,190.3z M128.5,134.5c0.1-0.3,0.6-0.7,0-0.8c0,0.1,0,0.3-0.2,0.3c-0.2,0-0.2-0.2-0.5-0.2c0,0.2,0,0.3,0,0.5C128.2,134.3,128.4,134.4,128.5,134.5L128.5,134.5z M133.7,192c-1,0-1.4,0.6-2,1C132.6,192.8,133.2,192.5,133.7,192L133.7,192z M138.6,85.2c0-0.1,0.1-0.2,0.3-0.2c-0.2-0.2-0.3-1.3-0.7-0.8C138.7,84.1,138.1,85.2,138.6,85.2L138.6,85.2z M141.4,91.1c0.6,0.1,0.1-1.1,0-1.3C141.3,90.4,141.1,90.6,141.4,91.1L141.4,91.1z M144.4,185.7c-0.3-0.7,1.2-1.1,0.7-1c-0.6,0.2-1,0.7-1.5,1C144,185.7,144.1,185.4,144.4,185.7L144.4,185.7z M147.2,62.5c0.3-0.3-0.1-0.4,0-1c-0.6-0.1-1.3-0.6-1.7,0C146.7,61.6,146.7,62.1,147.2,62.5L147.2,62.5z M146.6,124.6c-0.1-0.8,0.3-0.9,0-1.5c-0.3,0.1-0.7,0.1-0.7,0.5c0.4,0.2,0.4,0.6,0,0.8C146.1,124.5,146.2,124.6,146.6,124.6L146.6,124.6z M147.7,119.9c0.2-1.1-1-0.6-1,0C147.1,119.9,147.4,119.9,147.7,119.9L147.7,119.9z M148.2,123.3c-1.2,0-0.5,1-1,1.5C147.9,124.6,148.1,124,148.2,123.3L148.2,123.3z M148.4,114.8c-0.5,0.1-0.4,0.9-0.7,1.3C148.6,116.3,148.1,115.1,148.4,114.8L148.4,114.8z M151.1,182.2c-0.7,0.6-1.6,1.1-2.2,1.8C149.8,183.7,151,182.8,151.1,182.2L151.1,182.2z M149.9,71.2c0.3-0.4,0.1-1.4-0.5-1.3C149.4,70.6,149.4,71.1,149.9,71.2L149.9,71.2z M150.4,85.3c0.5-0.5,0.2-1.5-0.5-1.7C149.6,84.2,150.2,85.1,150.4,85.3L150.4,85.3z M151.6,89.1c-0.5-0.7,0-2.4-0.7-3.3c-0.2,0.3-0.5,0.6-0.7,1c0.4,0.2,0.5-0.7,0.7-0.2c-0.1,0.3-0.4,0.5-0.5,0.8C151,87.7,151.1,89.3,151.6,89.1L151.6,89.1z M152.1,179.1c-0.4,0.4-1.6,1.4-1.3,1.3C151.1,180,152.3,179.5,152.1,179.1L152.1,179.1z M151.9,72.6c-0.2-0.9,0.1-2.7-1.2-3C150.5,70.5,150.8,73,151.9,72.6L151.9,72.6z M154.4,179.9c0.4,0.2-0.3,0.6,0.2,0.8c0.4-0.6,1.2-0.8,1.5-1.5c-0.2-0.5-0.8,0.4-0.8-0.3c2.4-2.2,4.6-3.5,6-6.1c-2.6,3.3-6.2,5.6-9,8.6C153.4,181.3,153.4,180.1,154.4,179.9L154.4,179.9z M159.8,150.1c-1,0.3-1.9,1.5-1.7,2.5C158.8,151.9,159.4,151.1,159.8,150.1L159.8,150.1z M159.9,80.3c-0.1-0.8-0.3-1.6-1-1.8c-0.3,0.4,0.7,0.3,0.2,0.5c-0.4,0.1-0.2-0.5-0.5-0.5C158.9,79.3,159.5,79.7,159.9,80.3L159.9,80.3z M175.1,81.8c-0.2-1.2-0.2-2.4-0.8-3.1C174.4,79.9,174.5,81.1,175.1,81.8L175.1,81.8z M193.8,115.3c0.1,0.6-0.7,2-0.3,1.8C193.9,116.9,194.2,115.8,193.8,115.3L193.8,115.3z M194.7,112.2c0,0.8-0.8,1.8-0.3,2.5C194.4,113.9,195,112.7,194.7,112.2L194.7,112.2z M196.3,105.7c-0.3,1.6-1.2,3.5-1,5.1C195.8,109.1,196.5,107.2,196.3,105.7L196.3,105.7z"/><g id="XMLID_2_"><path id="XMLID_12_" fill="#FDF4F5" d="M73.3,43.1l-0.8,0c-0.3,0-0.5,0.1-0.6,0.2V53c1.1-0.1,1.6-0.1,1.7-0.1c1.2,0,1.8,0.3,1.8,0.8v0.1c-0.1,0.3-0.4,0.5-0.7,0.7c-0.3,0.2-0.7,0.2-0.9,0.3c-0.3,0-0.6,0-1,0h-1c-0.8,0-1.3-0.2-1.4-0.5c-0.1-0.1-0.1-0.3-0.1-0.6V35.6c0-0.4-0.1-0.9-0.2-1.6c-0.1-0.7-0.2-1.2-0.2-1.6v-0.1c0.3-0.6,0.6-0.9,0.8-1.1l2.3-0.3c0.3,0,0.6,0.1,1,0.3c0.3,0.2,0.5,0.4,0.5,0.7c0,0.6-0.5,0.9-1.4,0.9l-0.9,0c-0.2,0-0.3,0-0.3,0l0.2,5.2c0,0.4,0,1-0.1,1.8c-0.1,0.8-0.1,1.4-0.1,1.7c0.1,0,0.3-0.1,0.5-0.1c0.4-0.1,0.8-0.2,1-0.2s0.5,0.1,0.6,0.3c0.2,0.2,0.3,0.4,0.3,0.6c0,0.2-0.1,0.5-0.2,0.7C73.7,43,73.5,43.1,73.3,43.1z"/><path id="XMLID_88_" fill="#FDF4F5" d="M76.8,38.2l0.2-5.7v-0.2c0-1,0.2-1.6,0.7-1.6c0.4,0,1,1,1.7,2.9c1.3,3.5,2.8,9.3,4.6,17.4l0,0.2l0.1-10.9V31c0.1-0.5,0.5-0.8,1-0.8c0.6,0,0.8,0.4,0.8,1.2v0.2c-0.1,0.3-0.2,0.6-0.2,0.9l-0.2,11.6v9.6c0,0.3-0.1,0.6-0.3,0.9C85.2,54.9,85,55,84.7,55c-0.4,0-1.3-2.1-2.6-6.4c-1.3-4.3-2.5-8.9-3.8-13.8V45c0,1,0.1,2.5,0.2,4.5s0.2,3.5,0.2,4.5c0,0.2-0.1,0.4-0.4,0.5s-0.5,0.2-0.9,0.2c-0.4,0-0.5-0.2-0.5-0.5l0.2-2.2c0-1.1-0.1-2.8-0.2-5.2c-0.1-2.4-0.2-3.9-0.2-4.4L76.8,38.2L76.8,38.2z"/><path id="XMLID_90_" fill="#FDF4F5" d="M95,48.9L93.8,49c-0.7,0-1.1-0.3-1.1-0.9c0-0.5,0.7-0.8,2-1c0.3,0,0.6,0,0.9,0s0.6,0.2,0.8,0.5c0.2,0.3,0.3,0.8,0.3,1.3c0,0.5,0.1,1.4,0.3,2.7c0.2,1.2,0.3,2.1,0.3,2.5c0,0.8-0.3,1.1-0.8,1.1c-0.5,0-0.9-0.2-1-0.7v0c-0.1,0.1-0.4,0.2-0.7,0.4c-0.6,0.3-1.3,0.5-1.9,0.5c-0.4,0-0.9-0.1-1.3-0.3c-1-0.4-1.7-1-2.2-1.9c-0.5-0.9-0.9-1.9-1.1-2.7c-0.2-0.9-0.3-1.5-0.4-2c-0.1-0.5-0.1-1.1-0.2-1.7c-0.1-0.8-0.1-1.8-0.1-3l0-2.3c0-2,0.1-3.5,0.2-4.3s0.3-1.6,0.4-2.2c0.1-0.6,0.3-1.1,0.5-1.5c0.2-0.4,0.4-0.9,0.7-1.3c0.3-0.4,0.6-0.8,0.9-1c0.7-0.6,1.6-0.9,2.5-0.9c1,0,1.4,0.3,1.4,0.9c0,0.2-0.1,0.4-0.2,0.5c-0.2,0.1-0.4,0.2-0.6,0.2l-0.9-0.2c-0.8,0-1.4,0.5-1.8,1.4c-0.5,1-0.8,2-0.9,2.9c-0.1,0.9-0.2,1.7-0.3,2.2c-0.1,0.6-0.1,1.2-0.2,1.9c0,1-0.1,2,0,3l0,1.9c0,2,0.1,3.4,0.3,4.3c0.2,0.8,0.4,1.5,0.6,2c0.2,0.5,0.4,0.9,0.7,1.3c0.9,0.7,1.6,1,2.3,1.1c0.9,0,1.7-0.4,2.3-1.3C95.5,50.6,95.4,49.4,95,48.9z"/><path id="XMLID_92_" fill="#FDF4F5" d="M101,42.7l0,1v0.1c0.1,1.8,0.1,4.5,0.1,8.1v0.8h2.4c0.4,0.3,0.7,0.6,0.7,0.9c0,0.3-0.1,0.5-0.2,0.7c-0.2,0.2-0.3,0.3-0.5,0.3c-0.2,0-0.3,0-0.6-0.1c-0.2,0-0.4,0.1-0.6,0.1l-1,0c-0.2,0.3-0.5,0.4-0.8,0.4s-0.6-0.1-0.8-0.3c-0.2-0.2-0.3-0.4-0.3-0.7l0.2-1.4c0-2.4-0.1-5.9-0.3-10.7c-0.2-4.7-0.3-8.3-0.3-10.7c0-0.2,0.1-0.3,0.2-0.5c0.2-0.1,0.3-0.2,0.6-0.2c0.2,0,0.4,0.1,0.6,0.3c0.2,0.2,0.3,0.4,0.3,0.6L101,42.7z"/><path id="XMLID_94_" fill="#FDF4F5" d="M109.3,32.6l-0.5,0c-0.2,0-0.4,0-0.4,0.1s-0.1,0.3-0.1,0.5c0,2,0.1,5.1,0.4,9.1c0.3,4.1,0.4,7.1,0.4,9.1v1.2c0.2,0,0.4,0,0.6,0c0.9,0,1.3,0.4,1.3,1.1v0.2l-0.8,0.5l-2.1,0.1c-1.8,0-2.7-0.3-2.7-0.9c0-0.5,0.3-0.7,0.9-0.7l0.7,0c0.3,0,0.5-0.2,0.5-0.7c0-1.6-0.1-4-0.3-7.2c-0.2-3.2-0.3-5.6-0.3-7.2l0.1-3.2c0-0.7,0-1.3-0.1-1.7c-0.3,0.1-0.5,0.1-0.7,0.1c-0.5,0-0.7-0.2-0.7-0.7c0-0.3,0.2-0.5,0.5-0.7c0.3-0.2,0.7-0.3,1.2-0.4c0.9-0.2,1.5-0.2,1.9-0.2c0.4,0,0.7,0.1,0.9,0.3c0.2,0.2,0.3,0.4,0.3,0.6s-0.1,0.4-0.2,0.6C109.7,32.5,109.5,32.6,109.3,32.6z"/><path id="XMLID_96_" fill="#FDF4F5" d="M111.9,54.2c0-0.6,0.2-0.8,0.7-0.8c0.2,0,0.5,0.1,0.9,0.2c0.4,0.2,0.7,0.2,1,0.2c0.3,0,0.6-0.2,0.9-0.5c0.3-0.4,0.6-0.8,0.8-1.3c0.4-1.1,0.6-2.1,0.6-2.9c0-0.9-0.2-1.8-0.5-2.8c-0.3-1-0.7-1.9-1.1-2.8c-0.4-0.9-0.9-1.7-1.3-2.6c-1.1-2.1-1.6-4-1.6-5.7c0-1.6,0.5-2.9,1.5-3.8c0.5-0.5,1.2-0.7,1.9-0.7c0.4,0,0.7,0.1,1.1,0.3c0.4,0.2,0.6,0.5,0.7,0.8l-0.5,0.7c-0.5,0-0.9-0.1-1.2-0.3c-0.4,0-0.7,0.2-1,0.5c-0.5,0.6-0.8,1.3-0.8,2.2c0,0.9,0.1,1.7,0.3,2.6c0.2,0.8,0.5,1.6,0.8,2.2c0.3,0.7,0.7,1.4,1.1,2.2c0.4,0.8,0.8,1.5,1.1,2.2c0.8,1.6,1.2,3.4,1.2,5.3c0,1.3-0.3,2.6-1,3.9c-0.3,0.6-0.8,1.1-1.3,1.5c-0.6,0.4-1.2,0.6-1.9,0.6c-0.8,0-1.3-0.1-1.8-0.3C112.1,54.7,111.9,54.5,111.9,54.2z"/><path id="XMLID_98_" fill="#FDF4F5" d="M126,55c-0.5,0-0.8-0.3-0.8-1c0-4-0.1-7.6-0.3-11c-0.6-0.1-1.1-0.2-1.6-0.2s-0.9,0.1-1.3,0.2c0,1.2,0.1,2.9,0.3,5.3c0.2,2.3,0.3,4.1,0.3,5.3c0,0.2-0.1,0.4-0.2,0.6c-0.1,0.2-0.3,0.3-0.5,0.3c-0.6,0-1-1.8-1.3-5.4c-0.4-4.9-0.5-10.7-0.5-17.6c0-0.4,0.2-0.6,0.5-0.6c0.2,0,0.4,0.1,0.6,0.2c0.2,0.1,0.4,0.2,0.5,0.3c-0.1,0.7-0.1,1.5-0.1,2.3l0.2,6.4l0,1.2c0,0.3,0,0.6,0.1,0.8l3-0.2l-0.1-10.3v-0.8c0.8,0,1.3,0.4,1.4,1.1c0.1,0.3,0.1,1.2,0.1,2.6s0.1,4.4,0.3,9s0.3,8,0.3,10.3c0,0.3-0.1,0.5-0.3,0.8C126.5,54.9,126.2,55,126,55z"/><path id="XMLID_100_" fill="#FDF4F5" d="M71.6,86.4l-1.2,0.1c-0.7,0-1.1-0.3-1.1-0.9c0-0.5,0.7-0.8,2-1c0.3,0,0.6,0,0.9,0c0.3,0,0.6,0.2,0.8,0.5c0.2,0.3,0.3,0.8,0.3,1.3s0.1,1.4,0.3,2.7c0.2,1.2,0.3,2.1,0.3,2.5c0,0.8-0.3,1.1-0.8,1.1c-0.5,0-0.9-0.2-1-0.7v0c-0.1,0.1-0.4,0.2-0.7,0.4c-0.6,0.3-1.3,0.5-1.9,0.5c-0.4,0-0.9-0.1-1.3-0.3c-1-0.4-1.7-1-2.2-1.9c-0.5-0.9-0.9-1.9-1.1-2.7c-0.2-0.9-0.3-1.5-0.4-2c-0.1-0.5-0.1-1.1-0.2-1.7c-0.1-0.8-0.1-1.8-0.1-3l0-2.3c0-2,0.1-3.5,0.2-4.3s0.3-1.6,0.4-2.2c0.1-0.6,0.3-1.1,0.5-1.5c0.2-0.4,0.4-0.9,0.7-1.3c0.3-0.4,0.6-0.8,0.9-1c0.7-0.6,1.6-0.9,2.5-0.9c1,0,1.4,0.3,1.4,0.9c0,0.2-0.1,0.4-0.2,0.5c-0.2,0.1-0.4,0.2-0.6,0.2l-0.9-0.2c-0.8,0-1.4,0.5-1.8,1.4c-0.5,1-0.8,2-0.9,2.9c-0.1,0.9-0.2,1.7-0.3,2.2c-0.1,0.6-0.1,1.2-0.2,1.9c0,1-0.1,2,0,3l0,1.9c0,2,0.1,3.4,0.3,4.3c0.2,0.8,0.4,1.5,0.6,2c0.2,0.5,0.4,0.9,0.7,1.3c0.9,0.7,1.6,1,2.3,1.1c0.9,0,1.7-0.4,2.3-1.3C72.1,88.1,71.9,86.9,71.6,86.4z"/><path id="XMLID_102_" fill="#FDF4F5" d="M75.9,91.2L76,72.8V69c0-0.2,0.1-0.4,0.2-0.5s0.4-0.2,0.8-0.2s0.9,0.1,1.3,0.3c0.4,0.2,0.8,0.5,1.1,0.8c0.3,0.4,0.5,0.8,0.8,1.2c0.4,0.9,0.6,1.8,0.6,2.8c0,1-0.3,2.2-0.8,3.5c-0.1,0.1-0.2,0.4-0.4,0.9c-0.2,0.5-0.3,0.7-0.3,0.8c0,1.5,0.4,3.6,1.2,6c0.3,0.8,0.6,2,1.1,3.4c0.5,1.4,0.8,2.4,0.9,2.8V91c0,0.7-0.1,1.1-0.2,1.2c-0.2,0.1-0.3,0.2-0.5,0.2c-0.4,0-0.8-0.3-1.1-0.8v-0.1c-0.1-1.9-0.8-4.8-2-8.6c-0.5-1.7-0.9-3-1.1-3.9v12.3c0,0.3-0.1,0.6-0.2,0.7c-0.1,0.2-0.3,0.3-0.6,0.3s-0.5-0.1-0.7-0.3c-0.1-0.2-0.2-0.4-0.2-0.6V91.2z M77.6,69.7l-0.2,6.4c0,0.6,0,1.1,0,1.4c0.4-0.3,0.7-0.7,1.1-1.2l0.5-2.7c0-0.1,0-0.3,0-0.5c0-0.5-0.1-1.1-0.3-1.8C78.5,70.4,78.1,69.8,77.6,69.7z"/><path id="XMLID_11_" fill="#FDF4F5" d="M91.1,92.1c-0.6,0-1-0.3-1-0.8v-4.1c-0.3-0.2-0.8-0.4-1.6-0.5c-0.8-0.1-1.5-0.2-2.1-0.3c-0.2,0.4-0.4,0.9-0.5,1.6c-0.1,0.7-0.3,1.4-0.4,2.1c-0.1,0.7-0.3,1.3-0.6,1.7c-0.8,0-1.3-0.2-1.4-0.6c0.3-0.4,0.7-2.5,1.4-6.2s1.2-6.7,1.6-8.8c0.4-2.1,0.9-3.9,1.3-5.3c0.5-1.4,0.9-2.2,1.4-2.2s0.8,0.1,1,0.3c0,0.7,0.2,2.8,0.6,6c0.4,3.3,0.6,5.4,0.6,6.4c0,1,0.1,2.6,0.3,4.8c0.2,2.2,0.3,3.9,0.3,5C92.1,91.7,91.8,92.1,91.1,92.1z M89.8,81.9c-0.2-1.8-0.3-3.6-0.5-5.3c-0.1-1.7-0.2-2.7-0.2-3c0-0.4,0-0.6,0-0.6c-0.3,0.3-0.8,2.2-1.4,5.6c-0.6,3.4-0.9,5.5-1,6.5c0.9,0.2,1.6,0.4,2.2,0.4c0.6,0,1,0,1.2-0.1C90.1,84.8,90,83.7,89.8,81.9z"/><path id="XMLID_108_" fill="#FDF4F5" d="M94.3,85l-0.1-12.1c0-1.4,0-2.7,0-4l0.9-0.5c0.6,0,1.3,1.7,2.1,5c0.6,2.7,1.2,5.1,1.6,7.2c0.4,2.1,0.6,3.3,0.7,3.5c0.1-0.7,0.4-1.9,0.8-3.6c0.4-1.7,0.7-3.1,0.9-4c0.6-2.8,0.9-5.3,1.1-7.5v-0.2c0-0.3,0.2-0.5,0.4-0.6c0.2-0.2,0.4-0.2,0.7-0.2s0.4,0.1,0.6,0.3c0.1,0.2,0.2,0.3,0.2,0.5c0,2.5,0.1,6.2,0.3,11.2c0.2,5,0.3,8.7,0.3,11.2c0,0.5-0.1,0.9-0.4,1.3c-0.3,0.4-0.5,0.5-0.8,0.5c-0.5,0-0.8-0.4-0.8-1.2l-0.1-13.2v-1.6c-0.1,0.8-0.5,2.2-1,4.2c-0.5,2-0.8,3.5-1,4.6v0.2c0,0.1-0.1,0.3-0.1,0.6c0,0.3-0.1,0.6-0.1,0.8c0,0.2-0.1,0.4-0.2,0.7c-0.2,0.5-0.5,0.7-1,0.7c-0.7,0-1.1-1-1.1-2.9c0-1.9-0.5-4.6-1.4-8.1c-0.5-1.7-0.8-2.9-0.9-3.5c0,1.7-0.1,2.9-0.1,3.8L96,90.8c0,0.4-0.2,0.8-0.5,1.2c-0.5,0-0.9-0.2-1.1-0.5c-0.2-0.3-0.3-0.8-0.3-1.4L94.3,85z"/><path id="XMLID_10_" fill="#FDF4F5" d="M106.9,85l-0.1-12.1c0-1.4,0-2.7,0-4l0.9-0.5c0.6,0,1.3,1.7,2.1,5c0.6,2.7,1.2,5.1,1.6,7.2c0.4,2.1,0.6,3.3,0.7,3.5c0.1-0.7,0.4-1.9,0.8-3.6c0.4-1.7,0.7-3.1,0.9-4c0.6-2.8,0.9-5.3,1.1-7.5v-0.2c0-0.3,0.2-0.5,0.4-0.6c0.2-0.2,0.4-0.2,0.7-0.2c0.2,0,0.4,0.1,0.6,0.3c0.1,0.2,0.2,0.3,0.2,0.5c0,2.5,0.1,6.2,0.3,11.2c0.2,5,0.3,8.7,0.3,11.2c0,0.5-0.1,0.9-0.4,1.3c-0.3,0.4-0.5,0.5-0.8,0.5c-0.5,0-0.8-0.4-0.8-1.2l-0.1-13.2v-1.6c-0.1,0.8-0.5,2.2-1,4.2c-0.5,2-0.8,3.5-1,4.6v0.2c0,0.1-0.1,0.3-0.1,0.6c0,0.3-0.1,0.6-0.1,0.8c0,0.2-0.1,0.4-0.2,0.7c-0.2,0.5-0.5,0.7-1,0.7c-0.7,0-1.1-1-1.1-2.9c0-1.9-0.5-4.6-1.4-8.1c-0.5-1.7-0.8-2.9-0.9-3.5c0,1.7-0.1,2.9-0.1,3.8l0.3,12.8c0,0.4-0.2,0.8-0.5,1.2c-0.5,0-0.9-0.2-1.1-0.5c-0.2-0.3-0.3-0.8-0.3-1.4L106.9,85z"/><path id="XMLID_112_" fill="#FDF4F5" d="M126.3,92.1c-0.6,0-1-0.3-1-0.8v-4.1c-0.3-0.2-0.8-0.4-1.6-0.5c-0.8-0.1-1.5-0.2-2.1-0.3c-0.2,0.4-0.4,0.9-0.5,1.6c-0.1,0.7-0.3,1.4-0.4,2.1c-0.1,0.7-0.3,1.3-0.6,1.7c-0.8,0-1.3-0.2-1.4-0.6c0.3-0.4,0.7-2.5,1.4-6.2s1.2-6.7,1.6-8.8c0.4-2.1,0.9-3.9,1.3-5.3c0.5-1.4,0.9-2.2,1.4-2.2c0.4,0,0.8,0.1,1,0.3c0,0.7,0.2,2.8,0.6,6c0.4,3.3,0.6,5.4,0.6,6.4c0,1,0.1,2.6,0.3,4.8c0.2,2.2,0.3,3.9,0.3,5C127.3,91.7,126.9,92.1,126.3,92.1z M124.9,81.9c-0.2-1.8-0.3-3.6-0.5-5.3c-0.1-1.7-0.2-2.7-0.2-3c0-0.4,0-0.6,0-0.6c-0.3,0.3-0.8,2.2-1.4,5.6c-0.6,3.4-0.9,5.5-1,6.5c0.9,0.2,1.6,0.4,2.2,0.4c0.6,0,1,0,1.2-0.1C125.2,84.8,125.1,83.7,124.9,81.9z"/><path id="XMLID_115_" fill="#FDF4F5" d="M129.4,91.2l0.1-18.3V69c0-0.2,0.1-0.4,0.2-0.5c0.1-0.1,0.4-0.2,0.8-0.2c0.4,0,0.9,0.1,1.3,0.3c0.4,0.2,0.8,0.5,1.1,0.8c0.3,0.4,0.5,0.8,0.8,1.2c0.4,0.9,0.6,1.8,0.6,2.8c0,1-0.3,2.2-0.8,3.5c-0.1,0.1-0.2,0.4-0.4,0.9s-0.3,0.7-0.3,0.8c0,1.5,0.4,3.6,1.2,6c0.3,0.8,0.6,2,1.1,3.4c0.5,1.4,0.8,2.4,0.9,2.8V91c0,0.7-0.1,1.1-0.2,1.2c-0.2,0.1-0.3,0.2-0.5,0.2c-0.4,0-0.8-0.3-1.1-0.8v-0.1c-0.1-1.9-0.8-4.8-2-8.6c-0.5-1.7-0.9-3-1.1-3.9v12.3c0,0.3-0.1,0.6-0.2,0.7s-0.3,0.3-0.6,0.3c-0.3,0-0.5-0.1-0.7-0.3c-0.1-0.2-0.2-0.4-0.2-0.6L129.4,91.2L129.4,91.2z M131.1,69.7l-0.2,6.4c0,0.6,0,1.1,0,1.4c0.4-0.3,0.7-0.7,1.1-1.2l0.5-2.7c0-0.1,0-0.3,0-0.5c0-0.5-0.1-1.1-0.3-1.8C132,70.4,131.6,69.8,131.1,69.7z"/><path id="XMLID_118_" fill="#FDF4F5" d="M53.5,124.3l0.2,4.5c0,0.8-0.2,1.3-0.7,1.3l-0.6-0.5c0.2-2,0.3-4.1,0.3-6.3c0-2.2,0.1-4.7,0.2-7.5c0.1-2.8,0.2-4.9,0.2-6.3c0-0.2,0.1-0.3,0.3-0.4s0.5-0.2,0.9-0.2s1.1,0.1,2,0.2c1,0.2,1.4,0.4,1.4,0.7c0,0.4-0.4,0.5-1.1,0.5c-0.4-0.2-0.8-0.3-1.3-0.3s-0.8,0-0.8,0c-0.1,0-0.1,0-0.1,0.1c0,0,0,0.1-0.1,0.2c0,0.1-0.1,0.2-0.1,0.3l-0.3,6.6v1.1c0,0.1,0.2,0.1,0.5,0.1c1,0,1.6,0.1,1.6,0.5c0,0.2-0.1,0.3-0.2,0.4s-0.3,0.2-0.5,0.2l-1-0.2c-0.4,0-0.6,0.5-0.6,1.5L53.5,124.3L53.5,124.3z M52.5,114.1L52.5,114.1C52.5,114.1,52.5,114.2,52.5,114.1C52.5,114.2,52.5,114.1,52.5,114.1C52.5,114.1,52.5,114.1,52.5,114.1L52.5,114.1z"/><path id="XMLID_121_" fill="#FDF4F5" d="M67.4,117.5l0.1,3.7c0,4.7-0.8,7.5-2.3,8.6c-0.4,0.3-0.8,0.4-1.2,0.4c-2.4,0-3.7-3.8-3.7-11.5c0-3,0.2-5.5,0.6-7.7c0.3-1.6,0.8-2.4,1.4-2.4c0.1,0,0.3,0.1,0.4,0.2c0.1,0.1,0.3,0.2,0.5,0.3c0.2,0.1,0.5,0.2,0.9,0.2c0.4,0.1,0.7,0.1,0.8,0.2c0.4,0.1,0.8,0.5,1.2,1.2c0.9,1.5,1.3,3.7,1.3,6.7L67.4,117.5z M61.3,118.6l0.1,2.5c0,2,0.2,3.9,0.7,5.7c0.2,0.7,0.4,1.3,0.7,1.8c0.3,0.5,0.7,0.7,1.1,0.7s0.8-0.2,1.1-0.5c0.3-0.3,0.6-0.7,0.7-1.3c0.2-0.5,0.3-1.1,0.5-1.7c0.1-0.6,0.2-1.2,0.3-1.9c0.1-1.1,0.1-2.1,0.1-3l-0.4-7.4l-0.1-0.2l0.1-0.2c0-0.9-0.3-1.7-0.8-2.4c-0.5-0.7-1.1-1-1.9-1h-1.3c-0.2,0-0.3,0.9-0.5,2.8c-0.1,1.9-0.2,2.9-0.3,3.1L61.3,118.6z"/><path id="XMLID_124_" fill="#FDF4F5" d="M70.7,109.9c0-0.8,0.2-1.2,0.7-1.2c1,0,1.9,0.3,2.5,0.8c0.7,0.5,1,1.3,1,2.3v2.3c0,0.8-0.4,2-1.2,3.4c-0.3,0.5-0.4,0.8-0.4,0.8c0,0,0.4,1.7,1.2,4.9c0.8,3.2,1.2,4.9,1.2,5c0,0.1,0.1,0.3,0.3,0.6c0.2,0.3,0.2,0.6,0.2,0.8c0,0.2-0.1,0.4-0.4,0.4l-0.5-0.2c-0.5-0.5-1-2.6-1.6-6.1c-0.6-3.4-1-5.1-1.4-5.1h-0.1c-0.5,0-0.7,0.1-0.7,0.4c0,1.1,0.1,3,0.2,5.7c0.1,2.6,0.2,4.1,0.3,4.4l-0.2,0.5h-0.5l-0.2-0.2C70.9,120.6,70.7,114,70.7,109.9z M71.6,110.3l0.1,7.6l0.1,0.1c0.4,0,0.8-0.2,1.1-0.6c0.3-0.4,0.6-0.9,0.7-1.5c0.3-1.2,0.5-2.1,0.5-2.8s0-1.1-0.1-1.4c0-0.3-0.1-0.7-0.3-1c-0.3-0.7-0.9-1.1-1.8-1.1c-0.1,0-0.2,0.1-0.3,0.3C71.6,110,71.6,110.2,71.6,110.3z"/><path id="XMLID_127_" fill="#FDF4F5" d="M83.8,106.7l-0.1-0.6c0-0.2,0.2-0.3,0.6-0.3c0.9,0,1.5,0.2,2,0.7c0.5,0.5,0.8,1,0.9,1.5c0.1,0.5,0.3,1,0.3,1.3c0.2,0.6,0.3,1.1,0.3,1.4c0,1-0.3,2.3-0.9,3.8c-0.4,0.9-0.6,1.5-0.6,1.6c0,1,0.4,3.1,1.2,6.2c0.8,3.1,1.5,5.3,2,6.6c0,0.7-0.1,1-0.4,1c-0.2,0-0.4-0.1-0.5-0.3c-0.1-0.2-0.2-0.3-0.3-0.3c-0.1-0.8-0.3-1.9-0.8-3.4c-0.5-1.4-0.8-2.4-0.9-2.9c-0.1-0.5-0.3-1.5-0.6-3c-0.3-1.5-0.5-2.6-0.7-3.4l-0.2-0.2l-0.6,0.2v11.7l0.1,0.8c0,0.4-0.2,0.6-0.6,0.6c-0.2,0-0.3,0-0.4-0.1c-0.1-0.1-0.2-0.2-0.2-0.4l0.1-0.2l0.1-19L83.8,106.7L83.8,106.7z M84.7,106.8l-0.2,6.8c0,0.9,0,1.6,0.1,2h0.1c0.2,0,0.4-0.2,0.8-0.6c0.4-0.4,0.7-0.8,0.8-1c0.1-0.3,0.3-0.7,0.4-1.3s0.1-1.1,0.1-1.5c0-0.4,0-0.8-0.1-1.2c-0.1-0.4-0.1-0.9-0.3-1.4c-0.1-0.5-0.3-0.9-0.6-1.2s-0.6-0.5-0.9-0.5v-0.1L84.7,106.8z"/><path id="XMLID_9_" fill="#FDF4F5" d="M100.5,123.1l0,2c0,1.8-0.2,3.1-0.7,3.9c-0.2,0.3-0.5,0.6-0.8,0.9c-0.4,0.2-0.8,0.4-1.4,0.4c-0.6,0-1.1-0.2-1.6-0.5c-0.5-0.3-0.9-0.7-1.1-1.2c-0.3-0.5-0.5-1-0.7-1.6c-0.2-0.6-0.3-1.2-0.4-1.8c-0.2-1.4-0.5-2.4-0.7-2.8c0-1.7-0.1-4.1-0.3-7.4c-0.2-3.3-0.3-5.8-0.3-7.4l-0.2-0.7c0-0.1,0.1-0.3,0.2-0.4c0.1-0.1,0.2-0.2,0.4-0.2c0.5,0,0.8,0.8,0.8,2.3l0.3,10.6c0.1,0.1,0.1,0.4,0.2,0.7c0.1,1.4,0.2,2.4,0.3,2.8c0,0.2-0.1,0.5-0.1,0.8s0.1,0.8,0.3,1.4c0.2,0.7,0.5,1.3,0.8,2c0.3,0.7,0.7,1.2,1.2,1.7c0.5,0.5,0.9,0.7,1.3,0.7c0.4,0,0.7,0,0.8-0.1c0.2-0.1,0.3-0.2,0.4-0.3c0.1-0.1,0.2-0.3,0.3-0.5c0.1-0.2,0.1-0.4,0.1-0.5c0-0.1,0-0.3,0.1-0.6c0-0.3,0-0.5,0-0.5c0-0.1,0-0.2,0-0.3l0.1-1v-3.6l-0.2-1.9l-0.2-5.6v-0.4l-0.1-0.2c0.1-0.6,0.1-1.2,0.1-1.8l-0.3-5.3c0-0.2,0.1-0.3,0.2-0.4c0.1-0.1,0.3-0.1,0.5-0.1l0.5,0.5l-0.1,0.2l0.1,0.2l-0.2,1.9l0.3,5.6l0.2,5.4l0.1,0c0,0.1,0,0.4,0,0.7l0.1,2.2L100.5,123.1L100.5,123.1z"/><path id="XMLID_8_" fill="#FDF4F5" d="M108.3,119l0,0.1c0,0,0.2,0.8,0.7,2.4c0.3,1.2,0.5,2.2,0.5,2.9s-0.1,1.3-0.2,2c-0.2,0.6-0.4,1.3-0.7,1.8c-0.3,0.6-0.7,1.1-1.2,1.5c-0.5,0.4-1,0.6-1.5,0.6s-0.8,0-1,0c-0.6-0.1-1-0.3-1.3-0.7c0-0.3,0.1-0.4,0.3-0.4c0.2,0,0.5,0.1,0.9,0.2c0.4,0.2,0.7,0.2,1.1,0.2c0.3,0,0.7-0.2,1.1-0.6c0.4-0.4,0.7-0.9,0.9-1.4c0.4-1.2,0.6-2.2,0.6-3.3c0-1-0.2-2-0.5-3.1c-0.3-1-0.7-2-1.1-2.9c-0.4-0.9-0.9-1.7-1.3-2.6c-1-2.1-1.6-4-1.6-5.8c0-1.5,0.5-2.7,1.4-3.6c0.5-0.5,1.1-0.7,1.8-0.7c0.2,0,0.5,0.1,0.8,0.3c0.3,0.2,0.5,0.3,0.6,0.5l-0.2,0.4c-0.5,0-0.8-0.1-1-0.3c-0.5,0-0.9,0.2-1.3,0.6c-0.7,0.7-1,1.6-1,2.7c0,0.8,0.1,1.5,0.2,2.1c0.1,0.5,0.2,1,0.3,1.2c0.1,0.3,0.2,0.6,0.4,1.1c0.2,0.4,0.3,0.8,0.4,1c0.1,0.2,0.3,0.6,0.5,1.1c0.2,0.5,0.4,0.8,0.5,0.9c0.1,0.1,0.3,0.5,0.6,1C108.1,118.6,108.3,118.9,108.3,119z"/><path id="XMLID_7_" fill="#FDF4F5" d="M117,119l0,0.1c0,0,0.2,0.8,0.7,2.4c0.3,1.2,0.5,2.2,0.5,2.9s-0.1,1.3-0.2,2c-0.2,0.6-0.4,1.3-0.7,1.8c-0.3,0.6-0.7,1.1-1.2,1.5c-0.5,0.4-1,0.6-1.5,0.6c-0.5,0-0.8,0-1,0c-0.6-0.1-1-0.3-1.3-0.7c0-0.3,0.1-0.4,0.3-0.4c0.2,0,0.5,0.1,0.9,0.2c0.4,0.2,0.7,0.2,1.1,0.2c0.3,0,0.7-0.2,1.1-0.6c0.4-0.4,0.7-0.9,0.9-1.4c0.4-1.2,0.6-2.2,0.6-3.3c0-1-0.2-2-0.5-3.1c-0.3-1-0.7-2-1.1-2.9c-0.4-0.9-0.9-1.7-1.3-2.6c-1-2.1-1.6-4-1.6-5.8c0-1.5,0.5-2.7,1.4-3.6c0.5-0.5,1.1-0.7,1.8-0.7c0.2,0,0.5,0.1,0.8,0.3c0.3,0.2,0.5,0.3,0.6,0.5l-0.2,0.4c-0.5,0-0.8-0.1-1-0.3c-0.5,0-0.9,0.2-1.3,0.6c-0.7,0.7-1,1.6-1,2.7c0,0.8,0.1,1.5,0.2,2.1c0.1,0.5,0.2,1,0.3,1.2c0.1,0.3,0.2,0.6,0.4,1.1c0.2,0.4,0.3,0.8,0.4,1c0.1,0.2,0.3,0.6,0.5,1.1c0.2,0.5,0.4,0.8,0.5,0.9c0.1,0.1,0.3,0.5,0.6,1C116.8,118.6,117,118.9,117,119z"/><path id="XMLID_6_" fill="#FDF4F5" d="M125.2,129.4l-1-0.2c-0.2,0-0.5,0.1-0.7,0.4c-0.5,0-0.8-0.1-0.9-0.2h-0.1c-1,0-1.5-0.2-1.7-0.5c0-0.2,0.2-0.4,0.7-0.4l0.7,0c0.4,0,0.6-0.3,0.6-0.9c0-0.6,0-1.3-0.1-2.2c-0.1-0.9-0.1-1.7-0.1-2.6c0-0.9-0.1-2.5-0.2-5c-0.1-2.5-0.2-4.2-0.2-5.3l0-3.7c0-1,0-1.6-0.1-1.8l-1.1,0.2c-0.2,0-0.3-0.1-0.3-0.4c0-0.3,0.5-0.5,1.4-0.7c0.9-0.2,1.5-0.3,1.9-0.3c0.5,0,0.8,0.2,0.8,0.5c0,0.3-0.1,0.5-0.4,0.5l-0.7,0c-0.4,0-0.6,0.2-0.6,0.5c-0.1,0.3-0.1,1.1-0.1,2.4c0,1.3,0.1,4,0.4,8c0.3,4,0.4,7,0.4,9l0,1.6l1.1-0.1c0.5,0,0.8,0.3,0.8,0.8L125.2,129.4z"/><path id="XMLID_5_" fill="#FDF4F5" d="M135.6,120.4l0.4,8.1v0.3c0,0.2,0,0.4-0.1,0.5c-0.2,0.1-0.3,0.2-0.5,0.2c-0.2,0-0.4-0.1-0.5-0.2c-0.1-0.1-0.2-0.2-0.2-0.4c0.1-0.1,0.1-0.2,0.1-0.4l-0.1-0.6v-3.1c0-0.3-0.5-0.5-1.6-0.7s-1.9-0.3-2.4-0.3c-0.2,0-0.4,0.4-0.5,1.1c-0.2,0.8-0.3,1.6-0.5,2.5c-0.2,0.9-0.3,1.5-0.5,1.7c-0.5,0-0.8-0.1-1-0.4c0.3-0.5,0.6-1.6,0.9-3.4c0.3-1.8,0.5-3.1,0.7-3.9c0.2-0.8,0.5-2.6,1-5.3c0.5-2.7,0.8-4.5,1-5.3c0.2-0.8,0.3-1.3,0.4-1.7c0.1-0.4,0.2-0.8,0.4-1.3c0.3-1.2,0.6-1.8,0.9-1.8c0.3,0,0.5,0.1,0.6,0.2c0.1,0.1,0.2,0.5,0.3,1c0.1,0.5,0.2,1.2,0.2,2.1c0.1,0.8,0.1,1.6,0.2,2.3c0.2,2.2,0.3,3.6,0.4,4.3c0,0.7,0.1,1.2,0.3,1.5c0,0.6-0.1,1.2-0.1,1.6C135.3,119.7,135.4,120.1,135.6,120.4z M130.5,123.1c0.9,0.3,1.9,0.4,3.2,0.4c0.3,0,0.4,0,0.6-0.1l0.2,0.1c0.2,0,0.3-0.1,0.3-0.3c0-4.4-0.4-9-1.2-14.1c0-0.1,0-0.2-0.1-0.3c0-0.2-0.1-0.3-0.1-0.4c-0.3,0.7-0.4,1.2-0.4,1.4l0.1,0.2c-0.1,0.1-0.2,0.4-0.4,1.1c-0.2,0.6-0.4,2-0.7,4c-0.3,2-0.5,3.3-0.6,3.9c-0.1,0.6-0.3,1.1-0.4,1.6c-0.3,1-0.4,1.8-0.4,2.4L130.5,123.1L130.5,123.1z"/><path id="XMLID_4_" fill="#FDF4F5" d="M147,127.9l0.1,1.1c0,0.6-0.3,0.9-0.8,0.9c-0.4,0-0.6-0.4-0.7-1.2c-0.1-0.4-0.1-0.6-0.1-0.6c-2-6.4-3.3-11.1-3.8-14.1c0-0.1,0-0.2,0-0.4c0-0.4-0.1-0.7-0.3-0.9l0.1-0.2c-0.1-0.8-0.2-1.3-0.3-1.6c-0.1-0.3-0.1-0.6-0.2-1c-0.1-0.7-0.3-1.3-0.5-1.8c-0.1,0.4-0.1,0.8-0.1,1c0,0.2,0,0.4,0.1,0.5c-0.1,0.5-0.2,1.2-0.2,2.2v8.6c0,1,0.1,2.5,0.2,4.5c0.1,2,0.2,3.5,0.2,4.5l-0.2,0.2h-0.7l-0.1-0.2c0-0.2,0.1-0.6,0.1-1.3l-0.4-10.9v-4.1l0.2-5.9l0-0.7c0-0.3,0.1-0.4,0.2-0.5c0.1-0.1,0.3-0.1,0.5-0.1c0.2,0,0.4,0.1,0.6,0.2c0.2,0.1,0.2,0.3,0.2,0.6c0,0.3,0,0.6,0.1,0.9c0.1,0.3,0.2,0.7,0.4,1.1c0.2,0.4,0.3,0.8,0.4,1.1s0.2,0.9,0.3,1.6c0.1,0.7,0.2,1.4,0.3,1.9c0.1,0.6,0.3,1.3,0.5,2.3c0.3,0.9,0.5,2,0.9,3.1c0.3,1.1,0.5,1.9,0.6,2.3c0.1,0.4,0.2,0.8,0.4,1.4c0.3,1.2,0.5,2,0.5,2.5c0.1,0.2,0.3,0.6,0.3,1.2c0.1,0.6,0.2,1,0.5,1.3c0.1-0.3,0.2-0.8,0.2-1.5l0.1-10.9l-0.1-4.8l0.1-1.2c0-0.2,0-0.4-0.1-0.4l0.1-0.3c0-1.3,0-2.1-0.1-2.6c0.1-0.3,0.3-0.4,0.8-0.4c0.3,0,0.5,0.3,0.5,1c-0.1,0.3-0.2,0.6-0.2,1l0,1.1c0,0.4,0,0.8-0.1,0.9l-0.1,9.9c0,0.2,0,0.5,0.1,0.8l-0.1,0.1v3.9l0.1,1.2C147.3,126.5,147.2,127.3,147,127.9L147,127.9L147,127.9z"/><path id="XMLID_3_" fill="#FDF4F5" d="M70.7,156.5l0,0.1c0,0,0.2,0.8,0.7,2.4c0.3,1.2,0.5,2.2,0.5,2.9s-0.1,1.3-0.2,2c-0.2,0.6-0.4,1.3-0.7,1.8s-0.7,1.1-1.2,1.5c-0.5,0.4-1,0.6-1.5,0.6c-0.5,0-0.8,0-1,0c-0.6-0.1-1-0.3-1.3-0.7c0-0.3,0.1-0.4,0.3-0.4c0.2,0,0.5,0.1,0.9,0.2c0.4,0.2,0.7,0.2,1.1,0.2s0.7-0.2,1.1-0.6c0.4-0.4,0.7-0.9,0.9-1.4c0.4-1.2,0.6-2.2,0.6-3.3c0-1-0.2-2-0.5-3.1c-0.3-1-0.7-2-1.1-2.9s-0.9-1.7-1.3-2.6c-1-2.1-1.6-4-1.6-5.8c0-1.5,0.5-2.7,1.4-3.6c0.5-0.5,1.1-0.7,1.8-0.7c0.2,0,0.5,0.1,0.8,0.3c0.3,0.2,0.5,0.3,0.6,0.5l-0.2,0.4c-0.5,0-0.8-0.1-1-0.3c-0.5,0-0.9,0.2-1.3,0.6c-0.7,0.7-1,1.6-1,2.7c0,0.8,0.1,1.5,0.2,2.1c0.1,0.5,0.2,1,0.3,1.2c0.1,0.3,0.2,0.6,0.4,1.1c0.2,0.4,0.3,0.8,0.4,1c0.1,0.2,0.3,0.6,0.5,1.1c0.2,0.5,0.4,0.8,0.5,0.9c0.1,0.1,0.3,0.5,0.6,1C70.4,156.1,70.6,156.4,70.7,156.5z"/><path id="XMLID_1_" fill="#FDF4F5" d="M76.1,156l0.3,10.3c0,0.3,0,0.5-0.1,0.7c-0.1,0.2-0.3,0.3-0.5,0.3c-0.3,0-0.4-0.4-0.4-1.1l0.1-5.6l-0.2-5.1c0-2.3,0-4.2-0.1-5.7c-0.1-1.5-0.1-2.5-0.1-3c0-0.5,0-0.9,0-1.1c-0.1-0.8-0.1-1.5-0.3-2c0.2-0.3,0.5-0.4,0.8-0.4c0.7,0,1.4,0.2,2,0.5c0.6,0.3,1.1,0.8,1.4,1.4c0.7,1.2,1.1,2.4,1.1,3.6s-0.2,2.5-0.7,3.7c-0.5,1.6-1.3,2.6-2.1,2.9c-0.3,0.1-0.5,0.2-0.6,0.4C76.5,155.8,76.3,156,76.1,156z M75.7,144.1l0.4,10.7l0.1,0.1c0.2,0,0.4-0.1,0.5-0.2c0.1-0.1,0.2-0.2,0.3-0.3c0.1-0.1,0.2-0.2,0.2-0.2c1.4-1.4,2-3.1,2-5.1c0-0.7,0-1.3-0.1-1.7s-0.2-0.8-0.5-1.2c-0.3-0.4-0.5-0.7-0.7-0.8c-0.2-0.2-0.5-0.4-0.9-0.7c-0.4-0.3-0.6-0.4-0.6-0.5L75.7,144.1L75.7,144.1z"/><path id="XMLID_148_" fill="#FDF4F5" d="M84.6,166.1l1.9-0.1c1,0,1.5,0.2,1.5,0.5c-0.2,0.3-0.5,0.5-0.9,0.6c-0.4,0.1-0.9,0.1-1.3,0.1H85c-0.9,0-1.5-0.1-1.6-0.2c-0.1-0.1-0.2-0.3-0.2-0.5l0.3-1.2v-0.1c-0.1-0.4-0.1-0.9-0.1-1.4l0.2-3.2l-0.2-6.7l0.2-6.2c0-0.4-0.1-0.9-0.2-1.7c-0.1-0.7-0.2-1.3-0.2-1.6l0.6-0.9l2.2-0.3l0.1,0.1c0.5,0,0.8,0.1,0.8,0.2c0.1,0.1,0.1,0.3,0.1,0.4c0,0.4-0.4,0.6-1.1,0.6l-0.8-0.1c-0.5,0-0.7,0.1-0.7,0.4l0.2,5.3l-0.2,3.9l-0.1,0.1l0.2,0.1l1.7-0.3c0.1,0,0.2,0.1,0.4,0.2c0.1,0.1,0.2,0.2,0.2,0.4c0,0.4-0.2,0.6-0.5,0.6l-0.7,0c-0.8,0-1.2,0.2-1.2,0.6l0.2,2.6l-0.1,0.2v6.3c0.1,0.1,0.2,0.4,0.2,0.9L84.6,166.1L84.6,166.1z"/><path id="XMLID_150_" fill="#FDF4F5" d="M97.8,157.9l0.4,8.1v0.3c0,0.2,0,0.4-0.1,0.5c-0.2,0.1-0.3,0.2-0.5,0.2c-0.2,0-0.4-0.1-0.5-0.2c-0.1-0.1-0.2-0.2-0.2-0.4c0.1-0.1,0.1-0.2,0.1-0.4l-0.1-0.6v-3.1c0-0.3-0.5-0.5-1.6-0.7c-1.1-0.2-1.9-0.3-2.4-0.3c-0.2,0-0.4,0.4-0.5,1.1c-0.2,0.8-0.3,1.6-0.5,2.5c-0.2,0.9-0.3,1.5-0.5,1.7c-0.5,0-0.8-0.1-1-0.4c0.3-0.5,0.6-1.6,0.9-3.4s0.5-3.1,0.7-3.9c0.2-0.8,0.5-2.6,1-5.3c0.5-2.7,0.8-4.5,1-5.3c0.2-0.8,0.3-1.3,0.4-1.7c0.1-0.4,0.2-0.8,0.4-1.3c0.3-1.2,0.6-1.8,0.9-1.8c0.3,0,0.5,0.1,0.6,0.2c0.1,0.1,0.2,0.5,0.3,1c0.1,0.5,0.2,1.2,0.2,2.1c0.1,0.8,0.1,1.6,0.2,2.3c0.2,2.2,0.3,3.6,0.4,4.3c0,0.7,0.1,1.2,0.3,1.5c0,0.6-0.1,1.2-0.1,1.6S97.6,157.6,97.8,157.9z M92.7,160.6c0.9,0.3,1.9,0.4,3.2,0.4c0.3,0,0.4,0,0.6-0.1l0.2,0.1c0.2,0,0.3-0.1,0.3-0.3c0-4.4-0.4-9-1.2-14.1c0-0.1,0-0.2-0.1-0.3c0-0.2-0.1-0.3-0.1-0.4c-0.3,0.7-0.4,1.2-0.4,1.4l0.1,0.2c-0.1,0.1-0.2,0.4-0.4,1.1s-0.4,2-0.7,4c-0.3,2-0.5,3.3-0.6,3.9c-0.1,0.6-0.3,1.1-0.4,1.6c-0.3,1-0.4,1.8-0.4,2.4L92.7,160.6L92.7,160.6z"/><path id="XMLID_153_" fill="#FDF4F5" d="M108.4,167.8l-0.4-0.1c-0.4-2.4-1-5.1-1.9-8.1c-0.8-3-1.6-5.1-2.3-6.4l-0.1,0.1c-0.1,0.2-0.3,0.7-0.7,1.3c-0.4,0.6-0.6,1.1-0.6,1.5c0,0.4-0.1,1.1-0.1,2.2l0.2,6.9c0,1.3-0.2,2-0.7,2c-0.4,0-0.6-0.5-0.6-1.4c0-1,0.1-2.4,0.2-4.3c0.1-1.9,0.2-3.4,0.2-4.3l-0.1-11.2l-0.1-0.1l-0.2-1.5c0-0.4,0.2-0.7,0.5-0.7c0.2,0,0.3,0,0.4,0.1c0.1,0,0.1,0.2,0.2,0.4c0.1,0.4,0.2,1.4,0.2,3.1l-0.1,6.7h0c0.4-0.9,1-2.2,1.7-3.9c0.7-1.7,1.1-2.7,1.2-2.9c1.1-2.9,1.9-4.3,2.2-4.3c0.4,0,0.5,0.2,0.5,0.5c0,0.4-0.2,0.7-0.4,1.1c-0.2,0.3-0.3,0.6-0.4,0.7c0,0.1-0.2,0.5-0.5,1.1c-0.3,0.6-0.5,1.2-0.8,1.6c-0.2,0.5-0.5,1-0.7,1.6c-0.6,1.3-0.9,2.2-0.9,2.6l0.2,0.3l-0.1,0.1c0.7,1.8,1.5,4.4,2.5,7.8c0.9,3.4,1.6,5.8,2.1,7.2C109,167.6,108.8,167.8,108.4,167.8z"/><path id="XMLID_155_" fill="#FDF4F5" d="M113.3,166.1l1.9-0.1c1,0,1.5,0.2,1.5,0.5c-0.2,0.3-0.5,0.5-0.9,0.6c-0.4,0.1-0.9,0.1-1.3,0.1h-0.7c-0.9,0-1.5-0.1-1.6-0.2c-0.1-0.1-0.2-0.3-0.2-0.5l0.3-1.2v-0.1c-0.1-0.4-0.1-0.9-0.1-1.4l0.2-3.2l-0.2-6.7l0.2-6.2c0-0.4-0.1-0.9-0.2-1.7c-0.1-0.7-0.2-1.3-0.2-1.6l0.6-0.9l2.2-0.3l0.1,0.1c0.5,0,0.8,0.1,0.8,0.2c0.1,0.1,0.1,0.3,0.1,0.4c0,0.4-0.4,0.6-1.1,0.6l-0.8-0.1c-0.5,0-0.7,0.1-0.7,0.4l0.2,5.3l-0.2,3.9l-0.1,0.1l0.2,0.1l1.7-0.3c0.1,0,0.2,0.1,0.4,0.2c0.1,0.1,0.2,0.2,0.2,0.4c0,0.4-0.2,0.6-0.5,0.6l-0.7,0c-0.8,0-1.2,0.2-1.2,0.6l0.2,2.6l-0.1,0.2v6.3c0.1,0.1,0.2,0.4,0.2,0.9V166.1z"/><path id="XMLID_157_" fill="#FDF4F5" d="M119.7,144.2l-0.1-0.6c0-0.2,0.2-0.3,0.6-0.3c0.9,0,1.5,0.2,2,0.7c0.5,0.5,0.8,1,0.9,1.5c0.1,0.5,0.3,1,0.3,1.3c0.2,0.6,0.3,1.1,0.3,1.4c0,1-0.3,2.3-0.9,3.8c-0.4,0.9-0.6,1.5-0.6,1.6c0,1,0.4,3.1,1.2,6.2c0.8,3.1,1.5,5.3,2,6.6c0,0.7-0.1,1-0.4,1c-0.2,0-0.4-0.1-0.5-0.3c-0.1-0.2-0.2-0.3-0.3-0.3c-0.1-0.8-0.3-1.9-0.8-3.4c-0.5-1.4-0.8-2.4-0.9-2.9c-0.1-0.5-0.3-1.5-0.6-3c-0.3-1.5-0.5-2.6-0.7-3.4l-0.2-0.2l-0.6,0.2v11.7l0.1,0.8c0,0.4-0.2,0.6-0.6,0.6c-0.2,0-0.3,0-0.4-0.1c-0.1-0.1-0.2-0.2-0.2-0.4l0.1-0.2l0.1-19V144.2z M120.6,144.3l-0.2,6.8c0,0.9,0,1.6,0.1,2h0.1c0.2,0,0.4-0.2,0.8-0.6c0.4-0.4,0.7-0.8,0.8-1c0.1-0.3,0.3-0.7,0.4-1.3c0.1-0.6,0.1-1.1,0.1-1.5c0-0.4,0-0.8-0.1-1.2c-0.1-0.4-0.1-0.9-0.3-1.4c-0.1-0.5-0.3-0.9-0.6-1.2s-0.6-0.5-0.9-0.5v-0.1L120.6,144.3z"/><path id="XMLID_160_" fill="#FDF4F5" d="M132.9,156.5l0,0.1c0,0,0.2,0.8,0.7,2.4c0.3,1.2,0.5,2.2,0.5,2.9s-0.1,1.3-0.2,2c-0.2,0.6-0.4,1.3-0.7,1.8s-0.7,1.1-1.2,1.5c-0.5,0.4-1,0.6-1.5,0.6s-0.8,0-1,0c-0.6-0.1-1-0.3-1.3-0.7c0-0.3,0.1-0.4,0.3-0.4c0.2,0,0.5,0.1,0.9,0.2c0.4,0.2,0.7,0.2,1.1,0.2c0.3,0,0.7-0.2,1.1-0.6c0.4-0.4,0.7-0.9,0.9-1.4c0.4-1.2,0.6-2.2,0.6-3.3c0-1-0.2-2-0.5-3.1c-0.3-1-0.7-2-1.1-2.9c-0.4-0.9-0.9-1.7-1.3-2.6c-1-2.1-1.6-4-1.6-5.8c0-1.5,0.5-2.7,1.4-3.6c0.5-0.5,1.1-0.7,1.8-0.7c0.2,0,0.5,0.1,0.8,0.3c0.3,0.2,0.5,0.3,0.6,0.5l-0.2,0.4c-0.5,0-0.8-0.1-1-0.3c-0.5,0-0.9,0.2-1.3,0.6c-0.7,0.7-1,1.6-1,2.7c0,0.8,0.1,1.5,0.2,2.1c0.1,0.5,0.2,1,0.3,1.2c0.1,0.3,0.2,0.6,0.4,1.1c0.2,0.4,0.3,0.8,0.4,1c0.1,0.2,0.3,0.6,0.5,1.1c0.2,0.5,0.4,0.8,0.5,0.9c0.1,0.1,0.3,0.5,0.6,1C132.7,156.1,132.9,156.4,132.9,156.5z"/></g></svg>
