<svg version="1.1" xmlns="http://www.w3.org/2000/svg" xmlns:xlink="http://www.w3.org/1999/xlink" x="0px" y="0px" viewBox="0 0 168 168" enable-background="new 0 0 168 168" xml:space="preserve"><rect id="XMLID_1_" fill="none" width="168" height="168"/><path id="XMLID_6_" fill-rule="evenodd" clip-rule="evenodd" fill="#D54848" d="M14.021,127.471c0.36-0.302,0.515,0.782,0.842,0.974c0.168-0.819-0.712-1.796-1.122-2.505c-0.477,0.438,0.426,0.683,0.28,1.253c-3.818-6.588-5.064-14.065-7.712-21.708c-0.378,0.34,0.199,0.907,0,1.531c-0.412-1.492-0.829-2.981-0.982-4.731c-0.333,0.087,0.022,0.857-0.28,0.974c-0.427-2.65-0.647-5.769-1.262-8.627c-0.321,0.238-0.051,1.062-0.14,1.531c-0.713-1.72-0.238-4.792-0.702-5.705c0.99-0.164,0.168,1.61,0.562,2.504c0.519-3.556-0.801-5.964-0.562-9.74c-0.439,0.179-0.072,0.288-0.28,0.695c-0.326-1.022-0.048-2.643-0.14-3.896c-1.041,0.452-0.284,2.687-1.122,3.34c0.036-1.49,0.619-2.759,0.702-4.174c0.161-2.787-1.206-5.506,0.14-7.793c0,0.417,0,0.834,0,1.252c0.208-0.257,0.268-0.661,0.28-1.113c0.872-0.17,0.611-3.473,0.702-5.01c0.353-5.98,1.952-10.61,3.646-15.445c0.541-1.545,1.001-3.096,1.682-4.454c1.008-2.008,2.703-3.718,3.506-6.122c1.796-5.375,4.371-7.726,8.414-10.993c3.638-6.548,9.04-13.444,18.091-17.394c4.036-1.761,8.374-3.433,13.042-4.732c4.564-1.269,8.775-3.551,13.182-4.592c2.473-0.583,4.611-0.736,7.433-1.113c6.738-0.9,15.017-2.544,22.859-1.114c2.931,0.535,5.79,1.358,8.414,2.366c2.561,0.984,4.983,2.457,7.573,3.2c0.16,0.047,0.544,0.137,0.56,0.14c6.539,1.052,11.664,4.105,16.829,7.097c5.883,3.409,10.74,8.049,15.146,13.081c2.38,2.719,4.08,5.94,6.45,8.488c-0.034,0.152-0.278,0.095-0.28,0.279c1,1.326,1.305,3.344,2.804,4.175c0.013,0.38-0.233,0.28,0,0.556c4.361,4.849,7.416,12.378,9.816,19.76c0.664,2.041,1.977,3.958,2.384,6.123c1.088,5.782,1.788,11.938,1.823,18.924c0.011,2.104-0.298,3.754-0.841,5.984c-0.658-0.16-0.655,0.842-0.841,1.531c0.465-0.141,0.194-1.013,0.56-1.253c0.223,0.687-0.5,1.634-0.42,2.644c-0.265,0.105-0.098,0.416-0.421,0.139c-0.498,4.98-2.314,8.651-3.366,13.08c-0.496,0.131-1.035,1.653-1.122,2.365c-0.021,0.175,0.25,0.366,0.281,0.279c-0.265,0.773-1.261,2.146-1.682,3.2c-0.212,0.53-0.342,1.091-0.422,1.949c-0.461,0.85-1.547,2.286-2.104,3.34c-0.507,0.961-0.739,1.491-0.701,2.365c-0.909,1-1.701,2.115-1.963,3.757c-0.343,0.542-1.12,0.652-0.982,1.67c-2.105,3.524-4.802,6.46-7.432,9.463c0,0.278,0,0.556,0,0.835c-0.89,0.644-0.897,0.504-1.964,0.974c-0.382,0.818-1.247,2.01-1.963,2.923c0.082-0.29,0.295-0.45,0.421-0.697c-1.597,0.41-1.439,2.562-2.945,3.062c0,0.185,0,0.37,0,0.556c-0.226-0.136-0.323-0.371-0.14-0.556c-0.205,0.121-0.544,0.11-0.421,0.556c-0.44,0.065-0.37-0.374-0.701-0.417c-0.299,0.372,0.016,1.205,0.281,0.557c-0.168,1.783-2.404,2.717-2.945,4.592c-1.397,1.12-2.592,2.439-3.928,3.618c0.176,0.424,0.108,0.541-0.14,0.834c-0.42-0.092,0.134-0.297,0-0.556c-0.764-0.012-1.161,1.07-1.402,1.113c-0.787-0.212,0.376-0.557,0.281-0.975c-0.942-0.004-1.416,1.656-2.105,2.366c-0.498,0.216-0.085-0.473-0.421-0.417c-0.749,1.205-1.877,2.034-3.086,2.783c0.099-0.645,0.823-0.667,1.122-1.113c-0.63-0.251-1.253,0.702-1.824,0.975c0.054-0.437-0.586-0.223-0.841,0.139c0.122,0.41,0.21-0.323,0.561-0.139c-0.459,0.611-0.1,0.103,0.28,0.417c-1.221,1.247-3.03,1.91-4.347,3.062c-0.413-0.375,0.338-0.77,0.421-1.114c-1.413,0.28-2.467,1.882-3.786,1.53c-0.872,0.34-1.112,1.309-2.104,1.531c0.825-0.733-0.901-0.108-0.421,0.417c-0.471-0.696-1.177,0.243-1.122,0.556c-2.121,0.217-3.632,1.901-5.891,2.366c1.208-0.888,2.909-1.287,3.786-2.505c-3.736,1.947-7.501,3.193-13.322,4.036c-5.918,0.856-11.934,1.831-18.932,1.253c0.089-0.283,0.656-0.092,0.701-0.418c0.981,0.001,2.32,0.544,3.366,0.279c0.24-0.061,0.323-0.415,0.42-0.418c0.991-0.033,2.393,0.7,3.506,0c2.027,0.285,4.382-0.207,6.732-0.557c3.107-0.461,6.388-1.118,8.835-2.226c1.298,0.435,2.711-0.556,3.927-0.975c-7.352,1.195-15.666,3.411-23.981,3.479c-3.416,0.029-7.091-0.426-10.378-0.695c1.929-0.366,3.4,0.219,5.329-0.139c-0.848-0.41-2.412-0.111-3.365-0.417c0.035-0.151,0.28-0.095,0.281-0.278c-0.878-0.005-3.249-0.298-5.049-0.418c-0.216,0.074-0.008,0.145,0.14,0.14c-0.488,0.429-1.149-0.153-1.823,0c-0.051-0.237,0.109-0.263,0.28-0.279c-1.248-0.431-2.791-0.57-4.207-0.834c0.212,0.206,0.616,0.224,0.981,0.279c-0.298,0.331-1.192,0.077-1.121-0.418c-0.972,0.529-1.472-0.434-2.805-0.418c-0.039-0.224,0.132-0.239,0.14-0.417c-4.824-1.615-9.874-3.006-14.164-5.149c0.166-0.244,0.695,0.321,1.122,0.279c0.049-0.655-1.585-0.837-2.244-1.252c-0.408,0.507,0.698,0.44,0.982,0.696c-1.226,0.01-2.692-0.947-3.786-1.53c0.092-0.417,0.3,0.133,0.561,0c-0.536-0.363-0.673-0.428-0.842-0.974c-0.693,0.067-0.891,0.335-1.542,0c0.103-0.247,0.255-0.02,0.421,0c-0.134-0.658-1.649-1.146-2.384-1.67c-0.342,0.172,0.44,0.385,0.561,0.557c-0.534,0.289-1.369-1.378-0.981-1.113c-0.128-0.43-0.656-0.462-1.122-0.557c-0.033-0.381-0.132-0.686-0.421-1.113c-1.118,0.187-1.175-0.639-2.384-0.974c0.078,0.34,0.328,0.509,0.561,0.695c-0.778,0.074-1.491-1.117-2.104-1.668c0.804-0.03,1.495,0.622,2.385,1.113c-1.021-1.473-2.439-1.693-3.786-2.784c0.252-0.353-0.196-0.939-0.702-0.974c-0.693,0.281,0.363,0.462,0.28,0.974c-0.864-0.581-1.399-1.488-2.244-2.087c0.589-0.007,1.221,0.827,1.963,0.834c-0.466-0.697-0.917-1.408-1.683-1.809c-0.155-1.099-0.988-2.108-1.823-2.088c-0.427-1.991-2.322-3.101-3.086-5.148c-0.511-0.328-0.872-0.805-1.402-1.113c0.091-0.141,0.323-0.144,0.281-0.418c-1.375-1.718-2.623-3.607-4.207-5.427c-0.357,0.77,0.905,1.018,0.841,1.947c-0.316-0.042-1.273-0.434-0.701-0.974c-1.748-1.326-2.133-4.006-3.647-5.566c0.628,1.323,1.151,2.872,1.964,4.174c0.837,1.342,2.205,3.618,3.085,4.871c0.524,0.748,0.544,0.643,0.701,1.252c-1.353-1.44-2.84-3.953-3.926-6.123c-0.376-0.24-0.533,0.099-0.841-0.278C14.847,128.878,14.449,128.16,14.021,127.471L14.021,127.471z M32.812,149.04c-0.067-0.769-0.712-0.963-1.122-1.392C31.762,148.413,32.505,148.512,32.812,149.04L32.812,149.04z M3.924,89.76c0.824-0.516,0.26-1.149,0.28-2.226C3.125,87.741,3.934,89.401,3.924,89.76L3.924,89.76z M13.32,122.879c1.183,0.636,1.225,3.143,2.524,3.201c-1.213-1.673-2.129-3.639-3.226-5.428C12.284,121.442,13.48,121.809,13.32,122.879L13.32,122.879z M16.826,127.749c-0.167-0.622-0.507-1.073-0.982-1.391c0.173,0.45-0.454,0.106-0.28,0.557C15.81,127.365,16.292,127.583,16.826,127.749L16.826,127.749z M18.088,70.974c-0.256,0.331-0.328,0.843-0.14,1.253c-0.2-0.054-0.237-0.166-0.422,0c0,0.371,0,0.742,0,1.113C18.078,73.07,18.56,71.341,18.088,70.974L18.088,70.974z M18.369,130.254c0.167-0.413-0.591-0.598-0.701-0.279C17.836,130.133,17.922,130.373,18.369,130.254L18.369,130.254z M18.228,73.34c-0.48-0.141-0.334,1.045-0.14,1.113C17.988,73.937,18.327,73.856,18.228,73.34L18.228,73.34z M19.911,66.94c-1.071,0.608-1.713,2.38-1.542,3.756C18.588,68.929,19.899,68.998,19.911,66.94L19.911,66.94z M30.85,144.448c-0.098,0.383,0.224,0.708-0.14,0.974c-0.125-0.572-0.893-0.505-1.263-0.835c-0.048,0.743,0.588,0.807,0.982,1.114c0.185-0.349-0.554-0.436-0.14-0.558c0.347,0.165,0.52,0.505,0.421,1.114c0.86-0.016,1.147,1.021,2.243,0.557c-0.454-0.246-0.901-0.498-1.122-0.974c0.653,0.535,1.181,0.565,1.824,1.252c0.184-1.181-1.54-0.971-1.122-1.948c-2.477,0.125-2.923-3.422-5.329-3.619C28.588,142.245,29.216,144.436,30.85,144.448L30.85,144.448z M31.27,147.091c-0.408-0.245-0.554-0.749-1.122-0.835c0.305,0.903,1.347,1.075,2.244,1.392c-0.091-0.466-0.507-0.61-0.842-0.835c0.086-0.008,0.166-0.021,0.14-0.139C31.088,146.609,31.512,147.049,31.27,147.091L31.27,147.091z M28.465,142.917c-0.352,0.184-0.341-0.648-0.561-0.139c0.163,0.024,0.152,0.22,0.14,0.418c-0.085,0.007-0.166,0.02-0.14,0.139C28.272,143.374,28.508,143.284,28.465,142.917L28.465,142.917z M30.99,48.014c0.256-0.906,1.15-1.179,1.262-2.227C31.53,46.233,30.265,46.972,30.99,48.014L30.99,48.014z M33.514,148.761c-0.275,0.067-0.452-0.637-0.14-0.695c0.3,0.723,1.145,0.905,1.823,1.253c-0.165,0.021-0.398-0.025-0.421,0.138c0.327,0.046,0.604,0.143,0.701,0.417c-0.234,0-0.468,0-0.701,0c0.766,0.77,1.477,1.596,2.525,2.087c-0.192-0.247-0.726-1.104-0.141-0.556c-0.031-0.665-0.516-0.879-0.701-1.392c0.549,0.229,1.584,1.195,2.103,0.557c-0.893-0.479-1.053-0.954-2.244-0.974c-0.253,0.681,0.675,0.989,0,1.252c0.164-0.494-0.53-1.197-0.981-1.529c0.001-0.185,0.246-0.128,0.28-0.279c-1.132-0.659-2.095-1.918-3.225-1.809c0.249,0.17,0.406,0.432,0.701,0.557c-0.169,0.029-0.086,0.154,0,0.278c-0.32,0.191-0.527-0.359-0.561,0C32.899,148.173,33.091,149.172,33.514,148.761L33.514,148.761z M35.758,148.344c-0.401-0.162,0.226-0.162,0.28,0c-0.344-0.82-1.645-1.584-2.243-0.974c0.3,0.166,0.67,0.263,0.841,0.557c0.383,0.101,0.283-0.276,0.561-0.278c-0.263,0.265-0.016,0.35,0,0.696C35.517,148.153,35.724,148.703,35.758,148.344L35.758,148.344z M39.404,151.684c0.05-0.513-0.349-0.581-0.701-0.696c-0.013,0.38,0.234,0.281,0,0.557c0.275,0.041,0.278-0.188,0.421-0.278C39.116,151.505,39.232,151.623,39.404,151.684L39.404,151.684z M40.666,153.076c0.054,0.643,0.509,0.887,1.263,0.835c0.012,0.649,2.091,1.071,2.804,0.695c-1.059-0.657-2.328-0.992-3.366-1.948c-0.335,1.008-1.374-0.204-1.823,0C39.887,152.818,40.224,153.445,40.666,153.076L40.666,153.076z M41.227,74.036c-0.078-0.247-0.072-0.578-0.281-0.696C40.724,73.548,40.742,74.134,41.227,74.036L41.227,74.036z M41.227,74.175c-0.121,0.608-0.032,0.619-0.14,1.113C41.793,75.346,41.407,74.43,41.227,74.175L41.227,74.175z M41.929,74.731c0.102,0.554,0.102,0.56,0,1.114C42.489,75.885,42.184,74.768,41.929,74.731L41.929,74.731z M45.715,155.58c-0.41-0.171-1.087-0.671-1.402-0.139C44.93,155.253,45.278,156.049,45.715,155.58L45.715,155.58z M47.538,45.509c-1.651,0.011-1.445,1.154-2.664,1.391C46.047,46.721,47.581,46.898,47.538,45.509L47.538,45.509z M46.275,156.276c0.167-0.414-0.591-0.598-0.701-0.279C45.842,156.057,45.927,156.297,46.275,156.276L46.275,156.276z M54.129,158.781c-1.097-0.396-2.124-0.861-3.226-1.252c0.203,0.525-0.385,0.266-0.28,0.696C52.055,158.314,52.97,159.322,54.129,158.781L54.129,158.781z M53.709,33.96c-0.349-0.181-0.582,0.409-0.701,0c0.291-0.083,0.477-0.268,0.56-0.556c-0.808,0.265-1.816,0.331-2.104,1.114C52.662,34.475,53.169,34.498,53.709,33.96L53.709,33.96z M54.129,109.242c-0.002-0.369,0.078-0.819-0.28-0.834C53.529,108.722,53.944,109.018,54.129,109.242L54.129,109.242z M55.531,139.438c-0.033-0.616-0.483-0.819-0.981-0.974C54.754,138.911,54.946,139.37,55.531,139.438L55.531,139.438z M55.953,137.073c0,0.14-0.113,0.166-0.14,0.278c0.842-0.064-0.012-0.658-0.281-0.834c0.006,0.191-0.065,0.305-0.14,0.417C55.601,136.957,55.909,136.884,55.953,137.073L55.953,137.073z M57.074,142.082c0.033-0.323-0.874-0.841-0.842-0.279C56.756,141.656,56.633,142.149,57.074,142.082L57.074,142.082z M60.58,23.523c-1.079,0.755-2.708,0.092-3.787,1.252C58.424,24.425,60.398,25.149,60.58,23.523L60.58,23.523z M59.178,143.196c0.251-0.806-1.622-0.833-1.403-0.696C58.261,142.713,58.471,143.201,59.178,143.196L59.178,143.196z M58.476,140.273c0.039-0.503-0.614-0.318-0.841-0.557C57.541,140.273,58.006,140.276,58.476,140.273L58.476,140.273z M61.001,161.285c-0.59-0.807-2.353-1.189-3.226-1.253C58.604,160.749,60.174,160.967,61.001,161.285L61.001,161.285z M59.879,48.293c0.492-0.069,0.913-0.207,1.542-0.139c-0.035-0.499,0.421-0.51,0.421-0.974c-0.166-0.022-0.399,0.024-0.421-0.14c0.187-0.14,0.424-0.23,0.561-0.418c-0.743-0.041-0.722,0.675-1.402,0.697c0.166,0.067,0.318,0.148,0.421,0.278C60.649,47.851,60.077,47.886,59.879,48.293L59.879,48.293z M61.281,62.764c0.108-0.664-0.219-0.896-0.14-1.53c-0.723-0.068-0.239,1.061-0.701,1.252c-0.086,0.008-0.166,0.021-0.14,0.139C60.628,62.67,60.826,62.845,61.281,62.764L61.281,62.764z M63.104,147.37c-0.419-0.388,0.513,0.294,0.28-0.278c-0.55,0.127-0.875,0.169-1.262-0.139C62.107,147.348,63.059,147.495,63.104,147.37L63.104,147.37z M64.927,160.868c-0.102-0.38,0.279-0.281,0.28-0.557c-0.707-0.088-0.698-0.255-1.262-0.279C64.063,160.52,65.022,160.171,64.927,160.868L64.927,160.868z M64.927,162.537c0.135-0.504-0.605-0.141-0.701-0.417c0,0.092,0,0.185,0,0.278C64.203,162.7,64.724,162.461,64.927,162.537L64.927,162.537z M68.714,163.234c-0.36-0.62-1.867-0.835-2.665-0.557C66.767,163.031,67.836,163.038,68.714,163.234L68.714,163.234z M69.696,162.26c-0.477-0.455-1.505-0.361-1.823-0.974c-0.576,0.191-0.561,0.243-1.262,0.139c0.024,0.209-0.05,0.515,0.14,0.557C67.571,161.841,68.625,163.139,69.696,162.26L69.696,162.26z M76.567,35.769c-0.381,0.086-1.113-0.177-1.262,0.139C75.472,36.032,76.633,36.299,76.567,35.769L76.567,35.769z M78.951,37.299c-0.109-0.03-0.163-0.116-0.14-0.278c-0.881,0.189-1.659-0.691-1.963,0.139C77.585,37.191,78.146,38.01,78.951,37.299L78.951,37.299z M83.859,166.295c1.618,0.409,3.351-0.078,4.908-0.279c0.742-0.302,1.02,0.466,1.263-0.417c-3.513,0.279-7.669,0.638-11.079,0.557c-0.109,0.03-0.163,0.117-0.14,0.278C80.368,166.554,81.848,166.622,83.859,166.295L83.859,166.295z M85.542,70.974c-0.432-0.139,0.304-0.229,0.28-0.417c-0.761,0.18-0.266-0.704-1.122-0.695c-0.023,0.393,0.422,0.324,0.421,0.695c-0.141,0-0.167,0.113-0.28,0.139c-0.279-0.001-0.178-0.379-0.561-0.278C84.459,70.757,85.096,71.363,85.542,70.974L85.542,70.974z M84.981,69.583c0.314-0.059,0.447-0.299,0.701-0.417c-0.442-0.156-0.318-0.013-0.841,0c0,0.092,0,0.185,0,0.278C84.926,69.451,85.007,69.465,84.981,69.583L84.981,69.583z M86.945,71.949c-0.055-0.594-0.785-0.52-1.122-0.835C85.951,71.636,86.559,71.682,86.945,71.949L86.945,71.949z M92.554,45.649c-0.648-0.036-0.964-0.16-1.262,0C91.695,45.784,92.318,46.109,92.554,45.649L92.554,45.649z M99.846,163.929c-2.014,0.279-4.579,0.792-6.451,1.113c-0.697,0.12-1.588,0.038-1.823,0.557C94.246,164.958,97.46,164.854,99.846,163.929L99.846,163.929z M95.64,123.575c-0.043-0.274,0.189-0.277,0.28-0.418c-0.484,0.202-0.661-0.155-0.982,0.139c0.109,0.031,0.277,0.004,0.28,0.139c-0.196-0.01-0.536,0.031-0.28,0.14C95.385,123.658,95.372,123.313,95.64,123.575L95.64,123.575z M98.304,56.642c-0.632,0.117-0.459-0.565-0.981-0.557c-0.066,0.437,0.377,0.368,0.421,0.696c-0.109,0.031-0.277,0.004-0.281,0.139C97.879,56.651,98.155,57.106,98.304,56.642L98.304,56.642z M98.724,55.807c0.048-0.51-0.215-0.714-0.561-0.834C98.3,55.3,98.209,55.855,98.724,55.807L98.724,55.807z M104.755,162.398c-0.972,0.427-2.335,0.466-3.085,1.113C102.873,163.33,104.222,162.813,104.755,162.398L104.755,162.398z M102.652,59.008c-0.014,0.269-0.548-0.241-0.561,0.278c0.2,0.034,0.236,0.23,0.421,0.278C102.491,59.379,102.982,59.046,102.652,59.008L102.652,59.008z M103.213,57.756c-0.193-0.007-0.308,0.065-0.421,0.139c-0.031-0.108-0.004-0.275-0.14-0.278c-0.042,0.283-0.38,0.273-0.422,0.556C102.73,58.204,103.071,58.079,103.213,57.756L103.213,57.756z M103.352,59.008c-0.036,0.217-0.307,0.097-0.421,0c0,0.185,0,0.371,0,0.556C103.357,59.737,103.659,59.101,103.352,59.008L103.352,59.008z M106.158,76.541c-0.164-0.395-0.194-0.92-0.561-1.113C105.583,75.998,105.615,76.522,106.158,76.541L106.158,76.541z M107.42,113.973c0.039-0.502-0.615-0.318-0.842-0.557c-0.043,0.328-0.487,0.259-0.421,0.696C106.853,114.218,106.905,113.687,107.42,113.973L107.42,113.973z M109.943,159.894c-1.249,0.43-2.32,1.037-3.365,1.67C107.932,161.237,109.018,160.645,109.943,159.894L109.943,159.894z M107.98,112.999c0.094-0.277,0.484-0.594,0-0.696c-0.03,0.108-0.003,0.275-0.14,0.278c-0.179-0.007-0.194-0.178-0.42-0.139c0,0.139,0,0.277,0,0.417C107.664,112.85,107.856,112.891,107.98,112.999L107.98,112.999z M112.328,161.285c-0.802,0.039-1.206,0.474-1.683,0.835C111.36,161.995,111.922,161.717,112.328,161.285L112.328,161.285z M116.395,71.532c0.03-0.109,0.118-0.162,0.28-0.139c-0.195-0.142-0.277-1.102-0.56-0.696C116.511,70.673,115.997,71.554,116.395,71.532L116.395,71.532z M118.779,76.541c0.51,0.09,0.084-0.905,0-1.113C118.729,75.929,118.564,76.099,118.779,76.541L118.779,76.541z M121.303,155.997c-0.228-0.584,0.984-0.954,0.561-0.835c-0.531,0.169-0.847,0.552-1.263,0.835C120.951,155.983,121.036,155.737,121.303,155.997L121.303,155.997z M123.688,52.467c0.261-0.247-0.114-0.354,0-0.834c-0.488-0.073-1.089-0.535-1.402,0C123.201,51.707,123.233,52.19,123.688,52.467L123.688,52.467z M123.126,104.649c-0.071-0.635,0.243-0.788,0-1.252c-0.268,0.059-0.604,0.051-0.561,0.418c0.346,0.162,0.346,0.534,0,0.695C122.755,104.555,122.833,104.708,123.126,104.649L123.126,104.649z M124.108,100.753c0.131-0.883-0.868-0.535-0.842,0C123.547,100.753,123.827,100.753,124.108,100.753L124.108,100.753z M124.529,103.537c-1.004,0-0.399,0.856-0.841,1.252C124.225,104.628,124.444,104.148,124.529,103.537L124.529,103.537z M124.669,96.439c-0.459,0.102-0.338,0.778-0.56,1.113C124.842,97.725,124.38,96.71,124.669,96.439L124.669,96.439z M126.912,153.076c-0.615,0.502-1.309,0.928-1.823,1.53C125.793,154.282,126.815,153.538,126.912,153.076L126.912,153.076z M125.931,59.843c0.281-0.348,0.115-1.145-0.422-1.113C125.46,59.288,125.512,59.747,125.931,59.843L125.931,59.843z M126.352,71.671c0.451-0.394,0.193-1.29-0.421-1.392C125.705,70.737,126.192,71.512,126.352,71.671L126.352,71.671z M127.333,74.871c-0.389-0.585-0.013-2.036-0.561-2.784c-0.172,0.293-0.388,0.543-0.56,0.835c0.351,0.184,0.44-0.55,0.56-0.139c-0.126,0.245-0.338,0.406-0.421,0.695C126.821,73.712,126.923,75.041,127.333,74.871L127.333,74.871z M127.754,150.432c-0.301,0.299-1.367,1.183-1.122,1.113C126.963,151.219,127.928,150.795,127.754,150.432L127.754,150.432z M127.614,60.955c-0.204-0.794,0.094-2.247-0.982-2.504C126.436,59.244,126.666,61.31,127.614,60.955L127.614,60.955z M129.717,151.127c0.345,0.164-0.287,0.525,0.14,0.695c0.354-0.483,1.011-0.666,1.262-1.252c-0.18-0.437-0.668,0.303-0.701-0.278c2.052-1.84,3.904-2.959,5.049-5.149c-2.154,2.78-5.19,4.685-7.573,7.237C128.82,152.277,128.845,151.282,129.717,151.127L129.717,151.127z M134.205,126.08c-0.828,0.248-1.593,1.294-1.402,2.087C133.357,127.558,133.921,126.957,134.205,126.08L134.205,126.08z M134.345,67.495c-0.104-0.685-0.27-1.308-0.841-1.53c-0.25,0.374,0.617,0.269,0.14,0.417c-0.324,0.043-0.156-0.402-0.421-0.417C133.46,66.611,133.976,66.98,134.345,67.495L134.345,67.495z M147.107,68.748c-0.147-0.966-0.193-2.034-0.701-2.643C146.463,67.16,146.594,68.143,147.107,68.748L147.107,68.748z M162.814,96.858c0.058,0.531-0.552,1.694-0.281,1.53C162.843,98.179,163.156,97.253,162.814,96.858L162.814,96.858z M163.514,94.213c-0.003,0.697-0.637,1.497-0.28,2.088C163.327,95.693,163.771,94.705,163.514,94.213L163.514,94.213z M164.917,88.787c-0.255,1.371-1.045,2.951-0.842,4.313C164.465,91.621,165.046,90.059,164.917,88.787L164.917,88.787z"/><g id="XMLID_2_"><path id="XMLID_4_" fill="#FDF4F5" d="M61.563,36.064l-0.654-0.026c-0.256,0-0.436,0.064-0.538,0.192v8.101c0.897-0.051,1.384-0.077,1.461-0.077c1,0,1.5,0.231,1.5,0.692v0.09c-0.12,0.239-0.325,0.423-0.615,0.551c-0.291,0.129-0.547,0.201-0.769,0.218c-0.223,0.017-0.509,0.026-0.859,0.026h-0.82c-0.649,0-1.051-0.128-1.205-0.385c-0.068-0.12-0.103-0.278-0.103-0.474V29.719c0-0.299-0.06-0.743-0.179-1.333s-0.179-1.038-0.179-1.346v-0.09c0.291-0.479,0.508-0.786,0.654-0.923l1.948-0.231c0.265,0,0.532,0.079,0.801,0.237c0.269,0.158,0.404,0.365,0.404,0.621c0,0.522-0.398,0.782-1.192,0.782l-0.756-0.026c-0.128,0-0.223,0.004-0.282,0.013l0.205,4.333c0,0.35-0.022,0.861-0.064,1.532c-0.043,0.671-0.064,1.16-0.064,1.468c0.094-0.017,0.222-0.047,0.385-0.09c0.359-0.094,0.638-0.141,0.839-0.141c0.201,0,0.38,0.072,0.538,0.218c0.158,0.146,0.237,0.321,0.237,0.526s-0.064,0.389-0.192,0.551C61.935,35.983,61.768,36.064,61.563,36.064z"/><path id="XMLID_88_" fill="#FDF4F5" d="M64.524,31.924l0.179-4.819v-0.167c0-0.872,0.192-1.307,0.577-1.307c0.35,0,0.82,0.812,1.41,2.435c1.077,2.948,2.367,7.815,3.871,14.599l0.026,0.128l0.103-9.152v-7.767c0.103-0.436,0.389-0.654,0.859-0.654c0.47,0,0.705,0.342,0.705,1.025v0.154c-0.103,0.214-0.154,0.47-0.154,0.769l-0.166,9.703v8.024c0,0.265-0.073,0.526-0.218,0.782s-0.325,0.385-0.538,0.385c-0.367,0-1.085-1.801-2.153-5.402c-1.068-3.602-2.124-7.475-3.166-11.619v8.613c0,0.837,0.062,2.085,0.186,3.743c0.124,1.658,0.186,2.905,0.186,3.743c0,0.162-0.098,0.297-0.295,0.404c-0.197,0.107-0.447,0.16-0.75,0.16c-0.304,0-0.455-0.137-0.455-0.41l0.128-1.884c0-0.905-0.056-2.375-0.167-4.409c-0.111-2.033-0.166-3.277-0.166-3.73V31.924z"/><path id="XMLID_90_" fill="#FDF4F5" d="M79.841,40.922l-1.025,0.103c-0.598,0-0.897-0.247-0.897-0.743c0-0.427,0.564-0.705,1.692-0.833c0.222-0.026,0.466-0.039,0.73-0.039s0.492,0.137,0.679,0.41c0.188,0.274,0.282,0.639,0.282,1.096c0,0.457,0.088,1.203,0.262,2.236c0.175,1.034,0.263,1.731,0.263,2.089c0,0.641-0.216,0.961-0.647,0.961c-0.431,0-0.72-0.184-0.865-0.551v-0.026c-0.103,0.043-0.295,0.141-0.577,0.295c-0.53,0.29-1.055,0.436-1.577,0.436c-0.376,0-0.752-0.077-1.128-0.231c-0.803-0.317-1.418-0.85-1.846-1.602c-0.461-0.795-0.765-1.555-0.91-2.281c-0.146-0.726-0.244-1.299-0.295-1.718c-0.06-0.427-0.107-0.914-0.141-1.461c-0.043-0.692-0.064-1.525-0.064-2.5l-0.013-1.935c0-1.692,0.055-2.905,0.166-3.64s0.224-1.337,0.34-1.807c0.115-0.47,0.25-0.886,0.404-1.25c0.154-0.363,0.342-0.716,0.564-1.058c0.222-0.35,0.479-0.636,0.769-0.859c0.624-0.495,1.337-0.741,2.141-0.737c0.803,0.004,1.205,0.254,1.205,0.75c0,0.188-0.069,0.338-0.205,0.448c-0.137,0.111-0.299,0.167-0.487,0.167l-0.756-0.128c-0.658,0.009-1.175,0.406-1.551,1.192c-0.402,0.863-0.658,1.684-0.769,2.461c-0.111,0.778-0.192,1.405-0.244,1.884c-0.068,0.47-0.111,1.004-0.128,1.602c-0.034,0.829-0.047,1.658-0.038,2.487l-0.013,1.628c0,1.675,0.075,2.867,0.224,3.576c0.149,0.709,0.306,1.273,0.468,1.692c0.154,0.427,0.342,0.778,0.564,1.051c0.726,0.555,1.363,0.867,1.91,0.935c0.777,0,1.423-0.367,1.935-1.102C80.238,42.366,80.097,41.366,79.841,40.922z"/><path id="XMLID_92_" fill="#FDF4F5" d="M84.878,35.743l0.026,0.833v0.115c0.068,1.521,0.103,3.803,0.103,6.844v0.667h1.999c0.376,0.256,0.565,0.5,0.565,0.731s-0.064,0.421-0.193,0.57s-0.261,0.224-0.398,0.224s-0.294-0.03-0.473-0.09c-0.146,0.035-0.313,0.052-0.5,0.052l-0.846-0.039c-0.179,0.214-0.404,0.321-0.673,0.321c-0.269,0-0.496-0.083-0.679-0.25c-0.184-0.166-0.275-0.361-0.275-0.583l0.167-1.154c0-1.991-0.088-4.975-0.263-8.953c-0.175-3.977-0.263-6.962-0.263-8.953c0-0.162,0.064-0.293,0.192-0.391c0.128-0.098,0.288-0.147,0.481-0.147c0.192,0,0.367,0.073,0.525,0.218c0.158,0.146,0.237,0.325,0.237,0.538L84.878,35.743z"/><path id="XMLID_94_" fill="#FDF4F5" d="M91.799,27.194l-0.461-0.013c-0.171,0-0.297,0.037-0.378,0.109c-0.081,0.072-0.122,0.216-0.122,0.429c0,1.709,0.107,4.268,0.32,7.678c0.214,3.409,0.321,5.969,0.321,7.677v1.013c0.18-0.026,0.359-0.039,0.539-0.039c0.726,0,1.089,0.308,1.089,0.923v0.154l-0.654,0.449l-1.781,0.064c-1.513,0-2.269-0.26-2.269-0.782c0-0.419,0.265-0.628,0.795-0.628l0.551,0.039c0.256,0,0.384-0.205,0.384-0.615c0-1.35-0.081-3.373-0.243-6.069c-0.163-2.696-0.243-4.719-0.243-6.069l0.051-2.679c0-0.564-0.022-1.051-0.064-1.462c-0.23,0.077-0.435,0.116-0.615,0.116c-0.41,0-0.615-0.209-0.615-0.628c0-0.213,0.133-0.399,0.397-0.557c0.265-0.158,0.594-0.271,0.987-0.34c0.735-0.128,1.28-0.192,1.634-0.192c0.354,0,0.608,0.07,0.762,0.212c0.154,0.141,0.231,0.308,0.231,0.5c0,0.192-0.058,0.359-0.173,0.5C92.126,27.124,91.979,27.194,91.799,27.194z"/><path id="XMLID_96_" fill="#FDF4F5" d="M93.966,45.369c0-0.47,0.196-0.705,0.589-0.705c0.196,0,0.455,0.066,0.775,0.199c0.321,0.133,0.598,0.199,0.833,0.199c0.235,0,0.489-0.149,0.763-0.449c0.273-0.299,0.487-0.671,0.641-1.115c0.317-0.906,0.474-1.724,0.474-2.454c0-0.731-0.128-1.515-0.384-2.352c-0.256-0.837-0.569-1.623-0.936-2.358c-0.368-0.735-0.74-1.469-1.115-2.205c-0.889-1.751-1.329-3.35-1.321-4.794c-0.008-1.367,0.423-2.439,1.295-3.217c0.461-0.41,1.004-0.615,1.628-0.615c0.317,0,0.624,0.088,0.923,0.263c0.299,0.175,0.509,0.404,0.628,0.686l-0.448,0.564c-0.436,0-0.778-0.085-1.025-0.256c-0.325,0.035-0.607,0.188-0.846,0.461c-0.435,0.504-0.654,1.126-0.654,1.865c0,0.739,0.094,1.459,0.282,2.16c0.187,0.701,0.422,1.329,0.705,1.884c0.282,0.556,0.585,1.158,0.91,1.807c0.334,0.649,0.641,1.273,0.923,1.871c0.658,1.384,0.987,2.88,0.987,4.486c0.008,1.128-0.278,2.213-0.859,3.256c-0.274,0.496-0.65,0.904-1.128,1.224c-0.479,0.321-1.013,0.481-1.602,0.481c-0.632,0-1.13-0.094-1.494-0.282C94.147,45.784,93.966,45.583,93.966,45.369z"/><path id="XMLID_98_" fill="#FDF4F5" d="M105.822,46.074c-0.444,0-0.667-0.291-0.667-0.872c0-3.333-0.077-6.417-0.23-9.254c-0.47-0.085-0.911-0.128-1.321-0.128s-0.777,0.069-1.102,0.205c0,0.974,0.072,2.448,0.218,4.422c0.145,1.974,0.217,3.465,0.217,4.473c0,0.171-0.051,0.329-0.154,0.474s-0.239,0.218-0.41,0.218c-0.479,0.009-0.829-1.491-1.051-4.499c-0.299-4.076-0.448-9.006-0.448-14.792c0-0.316,0.149-0.474,0.448-0.474c0.162,0,0.337,0.045,0.526,0.135c0.187,0.09,0.32,0.186,0.397,0.288c-0.06,0.624-0.09,1.282-0.09,1.974l0.179,5.396l-0.025,0.987c0,0.248,0.016,0.474,0.051,0.679l2.55-0.192l-0.103-8.614V25.81c0.667,0,1.064,0.299,1.192,0.897c0.059,0.291,0.09,1.03,0.09,2.218s0.083,3.706,0.25,7.556c0.167,3.85,0.25,6.732,0.25,8.645c0,0.231-0.072,0.447-0.218,0.647C106.228,45.974,106.044,46.074,105.822,46.074z"/><path id="XMLID_100_" fill="#FDF4F5" d="M60.153,72.422l-1.025,0.103c-0.598,0-0.897-0.247-0.897-0.743c0-0.427,0.564-0.705,1.692-0.833c0.222-0.026,0.466-0.039,0.73-0.039s0.492,0.137,0.679,0.41c0.188,0.274,0.282,0.639,0.282,1.096c0,0.457,0.087,1.203,0.262,2.236c0.175,1.034,0.263,1.731,0.263,2.089c0,0.641-0.216,0.961-0.647,0.961c-0.431,0-0.72-0.184-0.865-0.551v-0.026c-0.103,0.043-0.295,0.141-0.577,0.295c-0.53,0.29-1.055,0.436-1.577,0.436c-0.376,0-0.752-0.077-1.128-0.231c-0.803-0.317-1.418-0.85-1.846-1.602c-0.461-0.795-0.765-1.555-0.91-2.281c-0.146-0.726-0.244-1.299-0.295-1.718c-0.06-0.427-0.107-0.914-0.141-1.461c-0.043-0.692-0.064-1.525-0.064-2.5l-0.013-1.935c0-1.692,0.055-2.905,0.166-3.64s0.224-1.337,0.34-1.807c0.115-0.47,0.25-0.886,0.404-1.25s0.342-0.716,0.564-1.058c0.222-0.35,0.479-0.636,0.769-0.859c0.624-0.495,1.337-0.741,2.141-0.737c0.803,0.004,1.205,0.254,1.205,0.75c0,0.188-0.069,0.338-0.205,0.448c-0.137,0.111-0.299,0.167-0.487,0.167l-0.756-0.128c-0.658,0.009-1.175,0.406-1.551,1.192c-0.402,0.863-0.658,1.684-0.769,2.461c-0.111,0.778-0.192,1.405-0.244,1.884c-0.068,0.47-0.111,1.004-0.128,1.602c-0.034,0.829-0.047,1.658-0.038,2.487l-0.013,1.628c0,1.675,0.075,2.867,0.224,3.576c0.149,0.709,0.306,1.273,0.468,1.692c0.154,0.427,0.342,0.778,0.564,1.051c0.726,0.555,1.363,0.867,1.91,0.935c0.777,0,1.423-0.367,1.935-1.102C60.55,73.866,60.41,72.867,60.153,72.422z"/><path id="XMLID_102_" fill="#FDF4F5" d="M63.742,76.408l0.103-15.394v-3.23c0-0.205,0.043-0.35,0.128-0.436s0.31-0.128,0.673-0.128c0.363,0,0.73,0.088,1.102,0.263c0.372,0.175,0.686,0.408,0.942,0.698c0.248,0.308,0.461,0.65,0.641,1.025c0.342,0.727,0.513,1.517,0.513,2.371s-0.214,1.833-0.641,2.935c-0.051,0.12-0.154,0.372-0.308,0.756s-0.243,0.611-0.269,0.679c0.008,1.299,0.337,2.986,0.987,5.063c0.222,0.701,0.538,1.66,0.948,2.878c0.41,1.218,0.667,1.989,0.769,2.314v0.064c0,0.59-0.068,0.934-0.205,1.032c-0.137,0.098-0.282,0.148-0.436,0.148c-0.325,0-0.641-0.235-0.948-0.705v-0.09c-0.085-1.589-0.632-3.995-1.641-7.216c-0.461-1.47-0.782-2.559-0.961-3.269v10.344c0,0.265-0.047,0.47-0.141,0.615s-0.265,0.218-0.513,0.218s-0.434-0.071-0.557-0.212c-0.124-0.141-0.186-0.314-0.186-0.519V76.408z M65.191,58.425l-0.141,5.358c0,0.538,0.009,0.94,0.026,1.205c0.299-0.282,0.594-0.619,0.885-1.012l0.41-2.269c0.026-0.12,0.038-0.256,0.038-0.41c0-0.419-0.085-0.927-0.256-1.525C65.912,58.951,65.592,58.502,65.191,58.425z"/><path id="XMLID_105_" fill="#FDF4F5" d="M76.521,77.164c-0.538,0-0.808-0.226-0.808-0.679v-3.422c-0.248-0.171-0.694-0.316-1.34-0.436c-0.645-0.119-1.22-0.196-1.724-0.231c-0.179,0.308-0.327,0.752-0.442,1.333c-0.116,0.581-0.235,1.167-0.359,1.756c-0.124,0.59-0.288,1.055-0.494,1.397c-0.684,0-1.068-0.175-1.154-0.525c0.239-0.342,0.628-2.089,1.167-5.242s0.98-5.621,1.327-7.402c0.346-1.782,0.72-3.279,1.121-4.493s0.786-1.82,1.154-1.82s0.649,0.077,0.846,0.231c0,0.624,0.171,2.312,0.513,5.063c0.342,2.751,0.513,4.531,0.513,5.338c0,0.808,0.092,2.149,0.275,4.025c0.184,1.876,0.276,3.283,0.276,4.223C77.393,76.87,77.102,77.164,76.521,77.164z M75.419,68.596c-0.154-1.551-0.293-3.029-0.417-4.435c-0.124-1.405-0.186-2.256-0.186-2.55c0-0.295,0.004-0.463,0.013-0.506c-0.274,0.282-0.669,1.85-1.186,4.704c-0.517,2.854-0.793,4.661-0.827,5.422c0.726,0.197,1.335,0.295,1.827,0.295c0.491,0,0.839-0.026,1.045-0.077C75.662,71.098,75.573,70.147,75.419,68.596z"/><path id="XMLID_108_" fill="#FDF4F5" d="M79.238,71.23l-0.09-10.164c0-1.136,0.013-2.269,0.039-3.397l0.73-0.41c0.521,0.035,1.115,1.427,1.782,4.179c0.538,2.247,0.974,4.266,1.307,6.056c0.333,1.79,0.517,2.762,0.551,2.916c0.12-0.564,0.342-1.572,0.667-3.025s0.568-2.581,0.73-3.384c0.479-2.35,0.774-4.439,0.885-6.268v-0.154c0.034-0.222,0.141-0.402,0.32-0.538c0.18-0.137,0.368-0.205,0.565-0.205s0.357,0.07,0.481,0.212c0.123,0.141,0.185,0.293,0.185,0.455c0,2.094,0.079,5.229,0.238,9.408c0.157,4.178,0.237,7.315,0.237,9.408c0,0.419-0.111,0.782-0.332,1.09c-0.223,0.308-0.436,0.461-0.641,0.461c-0.428,0-0.641-0.346-0.641-1.038l-0.103-11.049v-1.333c-0.12,0.675-0.388,1.857-0.808,3.544c-0.418,1.688-0.687,2.98-0.807,3.877v0.166c-0.017,0.069-0.043,0.231-0.077,0.487s-0.07,0.468-0.109,0.635c-0.038,0.166-0.096,0.352-0.173,0.557c-0.162,0.41-0.432,0.615-0.807,0.615c-0.624,0-0.936-0.816-0.936-2.448c0-1.615-0.393-3.875-1.179-6.78c-0.393-1.453-0.645-2.435-0.756-2.948c-0.035,1.401-0.051,2.456-0.051,3.166l0.218,10.792c0,0.376-0.133,0.705-0.397,0.987c-0.453,0-0.758-0.145-0.917-0.436c-0.158-0.291-0.237-0.684-0.237-1.179L79.238,71.23z"/><path id="XMLID_110_" fill="#FDF4F5" d="M89.8,71.23l-0.09-10.164c0-1.136,0.013-2.269,0.038-3.397l0.731-0.41c0.521,0.035,1.115,1.427,1.781,4.179c0.539,2.247,0.974,4.266,1.308,6.056c0.333,1.79,0.517,2.762,0.551,2.916c0.12-0.564,0.342-1.572,0.667-3.025s0.568-2.581,0.731-3.384c0.479-2.35,0.773-4.439,0.885-6.268v-0.154c0.034-0.222,0.141-0.402,0.32-0.538c0.18-0.137,0.368-0.205,0.564-0.205c0.197,0,0.357,0.07,0.481,0.212c0.124,0.141,0.185,0.293,0.185,0.455c0,2.094,0.079,5.229,0.237,9.408c0.158,4.178,0.237,7.315,0.237,9.408c0,0.419-0.111,0.782-0.333,1.09c-0.223,0.308-0.436,0.461-0.641,0.461c-0.427,0-0.641-0.346-0.641-1.038l-0.103-11.049v-1.333c-0.12,0.675-0.389,1.857-0.808,3.544c-0.418,1.688-0.688,2.98-0.807,3.877v0.166c-0.017,0.069-0.043,0.231-0.077,0.487c-0.035,0.256-0.071,0.468-0.109,0.635c-0.038,0.166-0.096,0.352-0.173,0.557c-0.163,0.41-0.431,0.615-0.807,0.615c-0.624,0-0.936-0.816-0.936-2.448c0-1.615-0.393-3.875-1.179-6.78c-0.393-1.453-0.645-2.435-0.756-2.948c-0.034,1.401-0.051,2.456-0.051,3.166l0.218,10.792c0,0.376-0.133,0.705-0.398,0.987c-0.453,0-0.758-0.145-0.916-0.436c-0.159-0.291-0.237-0.684-0.237-1.179L89.8,71.23z"/><path id="XMLID_112_" fill="#FDF4F5" d="M106.052,77.164c-0.538,0-0.807-0.226-0.807-0.679v-3.422c-0.248-0.171-0.695-0.316-1.339-0.436c-0.645-0.119-1.22-0.196-1.724-0.231c-0.18,0.308-0.327,0.752-0.442,1.333c-0.116,0.581-0.235,1.167-0.359,1.756c-0.124,0.59-0.288,1.055-0.494,1.397c-0.684,0-1.068-0.175-1.153-0.525c0.239-0.342,0.628-2.089,1.166-5.242c0.538-3.153,0.98-5.621,1.326-7.402c0.347-1.782,0.72-3.279,1.122-4.493c0.401-1.213,0.786-1.82,1.154-1.82c0.367,0,0.649,0.077,0.846,0.231c0,0.624,0.171,2.312,0.513,5.063c0.342,2.751,0.513,4.531,0.513,5.338c0,0.808,0.092,2.149,0.275,4.025c0.184,1.876,0.275,3.283,0.275,4.223C106.924,76.87,106.633,77.164,106.052,77.164z M104.95,68.596c-0.154-1.551-0.293-3.029-0.417-4.435c-0.124-1.405-0.185-2.256-0.185-2.55c0-0.295,0.004-0.463,0.012-0.506c-0.273,0.282-0.669,1.85-1.185,4.704c-0.517,2.854-0.793,4.661-0.826,5.422c0.726,0.197,1.334,0.295,1.826,0.295s0.84-0.026,1.045-0.077C105.194,71.098,105.104,70.147,104.95,68.596z"/><path id="XMLID_115_" fill="#FDF4F5" d="M108.706,76.408l0.103-15.394v-3.23c0-0.205,0.042-0.35,0.128-0.436s0.31-0.128,0.673-0.128c0.364,0,0.731,0.088,1.103,0.263c0.372,0.175,0.686,0.408,0.942,0.698c0.247,0.308,0.461,0.65,0.641,1.025c0.341,0.727,0.513,1.517,0.513,2.371s-0.214,1.833-0.641,2.935c-0.051,0.12-0.154,0.372-0.308,0.756s-0.243,0.611-0.269,0.679c0.009,1.299,0.338,2.986,0.987,5.063c0.222,0.701,0.539,1.66,0.949,2.878c0.41,1.218,0.667,1.989,0.769,2.314v0.064c0,0.59-0.069,0.934-0.205,1.032c-0.137,0.098-0.282,0.148-0.436,0.148c-0.325,0-0.641-0.235-0.948-0.705v-0.09c-0.086-1.589-0.633-3.995-1.641-7.216c-0.461-1.47-0.782-2.559-0.962-3.269v10.344c0,0.265-0.047,0.47-0.141,0.615c-0.094,0.145-0.265,0.218-0.513,0.218c-0.248,0-0.434-0.071-0.558-0.212c-0.124-0.141-0.185-0.314-0.185-0.519V76.408z M110.154,58.425l-0.141,5.358c0,0.538,0.008,0.94,0.026,1.205c0.299-0.282,0.593-0.619,0.884-1.012l0.41-2.269c0.026-0.12,0.039-0.256,0.039-0.41c0-0.419-0.086-0.927-0.256-1.525C110.876,58.951,110.556,58.502,110.154,58.425z"/><path id="XMLID_118_" fill="#FDF4F5" d="M44.958,104.243l0.154,3.756c0,0.701-0.21,1.051-0.628,1.051l-0.526-0.398c0.162-1.683,0.244-3.46,0.244-5.332c0-1.871,0.059-3.984,0.179-6.338c0.119-2.354,0.179-4.116,0.179-5.287c0-0.162,0.077-0.286,0.231-0.372s0.397-0.128,0.73-0.128s0.899,0.064,1.698,0.192c0.799,0.129,1.198,0.317,1.198,0.564c0,0.299-0.312,0.448-0.935,0.448c-0.317-0.171-0.675-0.256-1.077-0.256c-0.402,0-0.633,0.009-0.692,0.026c-0.06,0.017-0.098,0.038-0.116,0.064c-0.017,0.025-0.038,0.088-0.064,0.185c-0.026,0.098-0.06,0.191-0.103,0.276l-0.256,5.537v0.923c0,0.059,0.149,0.09,0.448,0.09c0.872-0.017,1.307,0.116,1.307,0.397c0,0.146-0.068,0.265-0.205,0.359c-0.137,0.094-0.278,0.141-0.423,0.141l-0.872-0.154c-0.317,0-0.474,0.428-0.474,1.282V104.243z M44.125,95.68v0.026c0,0.017-0.011,0.025-0.032,0.025c-0.022,0-0.032-0.008-0.032-0.025s0.013-0.026,0.039-0.026H44.125z"/><path id="XMLID_121_" fill="#FDF4F5" d="M56.609,98.539l0.051,3.127c0,3.939-0.633,6.336-1.897,7.191c-0.308,0.213-0.654,0.32-1.038,0.32c-2.051,0-3.076-3.221-3.076-9.664c0-2.487,0.171-4.644,0.513-6.473c0.256-1.333,0.645-2,1.167-2c0.119,0,0.232,0.047,0.339,0.141c0.107,0.094,0.252,0.173,0.436,0.237c0.184,0.064,0.436,0.126,0.756,0.186c0.32,0.059,0.549,0.103,0.686,0.128c0.35,0.06,0.688,0.398,1.013,1.013c0.735,1.248,1.102,3.136,1.102,5.665L56.609,98.539z M51.469,99.487l0.051,2.077c0,1.666,0.188,3.251,0.564,4.755c0.137,0.564,0.34,1.055,0.609,1.474c0.269,0.419,0.577,0.628,0.923,0.628c0.346,0,0.649-0.129,0.91-0.385c0.26-0.256,0.468-0.613,0.622-1.07c0.154-0.457,0.282-0.923,0.385-1.397c0.103-0.474,0.175-1.006,0.218-1.596c0.068-0.94,0.103-1.777,0.103-2.512l-0.295-6.204l-0.103-0.205l0.051-0.129c0-0.76-0.214-1.423-0.641-1.987c-0.428-0.564-0.948-0.846-1.564-0.846H52.2c-0.146,0-0.274,0.78-0.385,2.339c-0.111,1.56-0.184,2.425-0.218,2.596L51.469,99.487z"/><path id="XMLID_124_" fill="#FDF4F5" d="M59.378,92.169c0-0.667,0.192-1,0.577-1c0.854,0,1.559,0.216,2.115,0.647c0.555,0.431,0.833,1.066,0.833,1.904v1.909c0,0.675-0.342,1.641-1.025,2.897c-0.231,0.418-0.346,0.647-0.346,0.686c0,0.038,0.331,1.423,0.993,4.153c0.662,2.73,1.01,4.138,1.045,4.223c0.034,0.085,0.119,0.265,0.256,0.539c0.136,0.273,0.205,0.509,0.205,0.705c0,0.196-0.098,0.295-0.295,0.295l-0.385-0.128c-0.41-0.461-0.859-2.17-1.346-5.127c-0.47-2.854-0.872-4.281-1.205-4.281h-0.103c-0.385,0-0.577,0.124-0.577,0.372c0,0.957,0.055,2.548,0.167,4.774c0.111,2.226,0.205,3.472,0.282,3.737l-0.192,0.436h-0.385l-0.192-0.205C59.519,101.124,59.378,95.612,59.378,92.169z M60.121,92.528l0.103,6.357l0.051,0.051c0.333,0,0.632-0.173,0.897-0.52c0.265-0.346,0.466-0.766,0.603-1.262c0.282-1.025,0.423-1.803,0.423-2.333s-0.017-0.929-0.051-1.198c-0.034-0.269-0.107-0.553-0.218-0.852c-0.231-0.615-0.731-0.923-1.5-0.923c-0.103,0-0.179,0.081-0.231,0.243C60.147,92.254,60.121,92.399,60.121,92.528z"/><path id="XMLID_127_" fill="#FDF4F5" d="M70.388,89.439l-0.051-0.474c0-0.154,0.175-0.23,0.525-0.23c0.718,0,1.267,0.201,1.647,0.602c0.38,0.402,0.632,0.833,0.756,1.295c0.124,0.461,0.22,0.811,0.288,1.051c0.145,0.522,0.218,0.928,0.218,1.218c0,0.88-0.244,1.939-0.731,3.179c-0.316,0.786-0.474,1.222-0.474,1.307c0,0.854,0.341,2.579,1.025,5.172c0.683,2.594,1.243,4.432,1.679,5.518c0,0.572-0.115,0.859-0.346,0.859c-0.179,0-0.327-0.079-0.442-0.237c-0.116-0.158-0.186-0.25-0.212-0.275c-0.051-0.684-0.275-1.634-0.673-2.852c-0.397-1.217-0.641-2.03-0.73-2.435c-0.09-0.406-0.25-1.233-0.481-2.481c-0.231-1.248-0.436-2.205-0.615-2.871l-0.205-0.154l-0.5,0.205v9.844l0.051,0.654c0,0.35-0.158,0.526-0.474,0.526c-0.128,0-0.235-0.041-0.321-0.122c-0.085-0.081-0.128-0.186-0.128-0.314l0.09-0.141l0.103-15.933V89.439z M71.118,89.566l-0.128,5.73c0,0.752,0.026,1.312,0.077,1.679h0.051c0.128,0,0.357-0.179,0.686-0.538c0.329-0.359,0.555-0.645,0.679-0.859c0.124-0.213,0.224-0.568,0.301-1.064s0.116-0.908,0.116-1.237c0-0.329-0.024-0.673-0.071-1.032c-0.047-0.359-0.122-0.747-0.224-1.166c-0.103-0.418-0.265-0.767-0.487-1.045c-0.222-0.278-0.483-0.417-0.782-0.417v-0.077L71.118,89.566z"/><path id="XMLID_130_" fill="#FDF4F5" d="M84.449,103.217l0.026,1.654c0,1.479-0.192,2.568-0.577,3.268c-0.162,0.291-0.397,0.537-0.705,0.738c-0.308,0.2-0.705,0.301-1.192,0.301s-0.936-0.13-1.346-0.391c-0.41-0.26-0.727-0.587-0.948-0.98c-0.223-0.393-0.417-0.85-0.583-1.371c-0.166-0.522-0.284-1.013-0.352-1.475c-0.197-1.213-0.389-1.995-0.577-2.345c0-1.392-0.088-3.475-0.263-6.249c-0.175-2.773-0.263-4.856-0.263-6.248l-0.179-0.552c0-0.119,0.045-0.237,0.135-0.352c0.09-0.116,0.194-0.173,0.314-0.173c0.436,0,0.654,0.641,0.654,1.922l0.231,8.87c0.068,0.085,0.111,0.295,0.128,0.628c0.085,1.213,0.167,1.991,0.244,2.333c-0.035,0.205-0.051,0.427-0.051,0.667s0.083,0.641,0.25,1.204c0.166,0.564,0.385,1.12,0.654,1.667c0.269,0.547,0.605,1.017,1.006,1.41s0.76,0.59,1.077,0.59s0.551-0.034,0.705-0.103s0.273-0.143,0.359-0.224c0.085-0.081,0.156-0.216,0.211-0.404c0.056-0.188,0.092-0.331,0.109-0.429c0.017-0.098,0.034-0.273,0.051-0.526c0.017-0.252,0.024-0.405,0.019-0.461c-0.004-0.055-0.006-0.135-0.006-0.237l0.077-0.872v-2.987l-0.179-1.576l-0.154-4.704v-0.334l-0.116-0.154c0.077-0.496,0.116-0.995,0.116-1.499l-0.244-4.461c0-0.136,0.062-0.241,0.186-0.314c0.124-0.072,0.254-0.109,0.391-0.109l0.448,0.422l-0.077,0.205l0.077,0.205l-0.179,1.577l0.256,4.73l0.128,4.563l0.09,0.025c-0.017,0.12-0.026,0.304-0.026,0.551l0.077,1.846l0.077,0.077L84.449,103.217z"/><path id="XMLID_132_" fill="#FDF4F5" d="M90.998,99.808l-0.025,0.103c0,0.008,0.2,0.684,0.602,2.025c0.265,1.043,0.397,1.846,0.397,2.41s-0.066,1.116-0.198,1.654c-0.133,0.539-0.325,1.055-0.577,1.551c-0.252,0.496-0.598,0.904-1.038,1.224c-0.44,0.32-0.863,0.481-1.269,0.481c-0.406,0-0.695-0.009-0.865-0.026c-0.504-0.051-0.859-0.26-1.064-0.628c0-0.213,0.092-0.32,0.275-0.32c0.184,0,0.431,0.066,0.744,0.198c0.312,0.133,0.608,0.199,0.891,0.199c0.282,0,0.583-0.162,0.904-0.487c0.32-0.324,0.566-0.726,0.737-1.204c0.342-0.974,0.513-1.886,0.513-2.736c0-0.85-0.129-1.715-0.385-2.596c-0.256-0.88-0.57-1.684-0.942-2.41c-0.372-0.726-0.741-1.453-1.109-2.179c-0.88-1.725-1.32-3.358-1.32-4.896c0-1.274,0.385-2.29,1.154-3.051c0.418-0.401,0.91-0.602,1.474-0.602c0.179,0,0.41,0.07,0.692,0.211c0.282,0.142,0.453,0.288,0.513,0.442l-0.154,0.295c-0.393,0-0.679-0.09-0.859-0.269c-0.419,0-0.778,0.158-1.077,0.474c-0.564,0.582-0.846,1.342-0.846,2.282c0,0.692,0.055,1.267,0.166,1.724c0.111,0.457,0.197,0.805,0.256,1.045c0.06,0.239,0.167,0.543,0.321,0.91c0.154,0.368,0.267,0.641,0.34,0.82c0.072,0.18,0.213,0.474,0.423,0.885c0.209,0.41,0.346,0.675,0.41,0.795c0.064,0.12,0.222,0.408,0.474,0.865C90.808,99.451,90.956,99.723,90.998,99.808z"/><path id="XMLID_134_" fill="#FDF4F5" d="M98.292,99.808l-0.025,0.103c0,0.008,0.2,0.684,0.602,2.025c0.265,1.043,0.397,1.846,0.397,2.41s-0.066,1.116-0.198,1.654c-0.133,0.539-0.325,1.055-0.577,1.551s-0.598,0.904-1.038,1.224c-0.44,0.32-0.863,0.481-1.269,0.481c-0.406,0-0.695-0.009-0.865-0.026c-0.504-0.051-0.859-0.26-1.064-0.628c0-0.213,0.092-0.32,0.275-0.32c0.184,0,0.431,0.066,0.744,0.198c0.312,0.133,0.608,0.199,0.891,0.199c0.282,0,0.583-0.162,0.904-0.487c0.32-0.324,0.566-0.726,0.737-1.204c0.342-0.974,0.513-1.886,0.513-2.736c0-0.85-0.129-1.715-0.385-2.596c-0.256-0.88-0.57-1.684-0.942-2.41c-0.372-0.726-0.741-1.453-1.109-2.179c-0.88-1.725-1.32-3.358-1.32-4.896c0-1.274,0.385-2.29,1.154-3.051c0.418-0.401,0.91-0.602,1.474-0.602c0.179,0,0.41,0.07,0.692,0.211c0.282,0.142,0.453,0.288,0.513,0.442l-0.154,0.295c-0.393,0-0.679-0.09-0.859-0.269c-0.419,0-0.778,0.158-1.077,0.474c-0.564,0.582-0.846,1.342-0.846,2.282c0,0.692,0.055,1.267,0.166,1.724c0.111,0.457,0.197,0.805,0.256,1.045c0.06,0.239,0.167,0.543,0.321,0.91c0.154,0.368,0.267,0.641,0.34,0.82c0.072,0.18,0.213,0.474,0.423,0.885c0.209,0.41,0.346,0.675,0.41,0.795c0.064,0.12,0.222,0.408,0.474,0.865C98.102,99.451,98.249,99.723,98.292,99.808z"/><path id="XMLID_136_" fill="#FDF4F5" d="M105.136,108.575l-0.833-0.129c-0.196,0-0.397,0.103-0.602,0.308c-0.393,0-0.641-0.069-0.743-0.206h-0.064c-0.803,0-1.269-0.149-1.397-0.448c0-0.196,0.201-0.295,0.602-0.295l0.577,0.025c0.35,0,0.53-0.252,0.539-0.756c0.008-0.504-0.015-1.119-0.071-1.846c-0.055-0.726-0.09-1.449-0.103-2.166c-0.012-0.718-0.062-2.114-0.147-4.191c-0.085-2.076-0.141-3.568-0.167-4.473l0.026-3.076c0-0.846-0.026-1.354-0.077-1.525l-0.897,0.192c-0.189,0-0.282-0.122-0.282-0.365c0-0.243,0.385-0.444,1.154-0.602c0.769-0.159,1.29-0.237,1.563-0.237c0.461,0,0.692,0.143,0.692,0.429c0,0.286-0.107,0.429-0.321,0.429l-0.628-0.026c-0.299,0-0.479,0.142-0.538,0.423c-0.06,0.231-0.09,0.91-0.09,2.038c0,1.128,0.109,3.363,0.327,6.703c0.218,3.341,0.327,5.854,0.327,7.537l-0.026,1.358l0.949-0.077c0.453,0,0.679,0.218,0.679,0.654L105.136,108.575z"/><path id="XMLID_138_" fill="#FDF4F5" d="M113.903,100.987l0.295,6.844v0.282c0,0.205-0.026,0.333-0.077,0.384c-0.137,0.12-0.286,0.18-0.448,0.18c-0.163,0-0.295-0.042-0.397-0.129c-0.103-0.085-0.154-0.192-0.154-0.32c0.051-0.103,0.077-0.205,0.077-0.308l-0.077-0.526v-2.602c0-0.231-0.461-0.429-1.384-0.596c-0.923-0.167-1.607-0.25-2.051-0.25c-0.172,0-0.325,0.319-0.461,0.955c-0.137,0.636-0.269,1.335-0.398,2.096c-0.128,0.76-0.256,1.235-0.384,1.423c-0.41,0-0.679-0.107-0.807-0.321c0.273-0.393,0.536-1.35,0.788-2.871c0.252-1.521,0.455-2.625,0.608-3.313c0.154-0.688,0.429-2.181,0.827-4.48c0.397-2.298,0.667-3.77,0.807-4.415c0.141-0.645,0.25-1.122,0.327-1.429c0.077-0.308,0.175-0.671,0.295-1.09c0.282-1.008,0.534-1.512,0.757-1.512c0.273,0,0.455,0.062,0.544,0.186c0.09,0.124,0.167,0.414,0.231,0.872c0.064,0.457,0.128,1.038,0.192,1.743c0.064,0.705,0.122,1.352,0.173,1.941c0.163,1.846,0.263,3.059,0.301,3.64c0.038,0.582,0.118,1,0.237,1.256c-0.034,0.53-0.051,0.985-0.051,1.365C113.672,100.374,113.749,100.705,113.903,100.987z M109.596,103.217c0.735,0.248,1.619,0.372,2.654,0.372c0.213,0,0.371-0.017,0.474-0.051l0.129,0.051c0.162,0,0.243-0.081,0.243-0.243c0-3.657-0.342-7.601-1.025-11.83c-0.009-0.051-0.028-0.146-0.057-0.282c-0.03-0.137-0.045-0.243-0.045-0.321c-0.214,0.607-0.329,0.991-0.346,1.154l0.077,0.154c-0.059,0.059-0.158,0.361-0.295,0.904c-0.137,0.543-0.327,1.662-0.57,3.358c-0.244,1.697-0.419,2.786-0.526,3.268c-0.107,0.483-0.22,0.921-0.34,1.314c-0.248,0.872-0.372,1.538-0.372,2V103.217z"/><path id="XMLID_141_" fill="#FDF4F5" d="M123.516,107.255l0.077,0.948c0,0.513-0.222,0.769-0.667,0.769c-0.308,0-0.517-0.329-0.628-0.987c-0.06-0.308-0.094-0.478-0.103-0.513c-1.71-5.392-2.786-9.331-3.23-11.817c-0.018-0.077-0.03-0.197-0.039-0.359c-0.017-0.351-0.098-0.598-0.243-0.744l0.051-0.128c-0.111-0.649-0.194-1.1-0.25-1.352c-0.055-0.252-0.118-0.537-0.185-0.852c-0.12-0.556-0.274-1.055-0.461-1.5c-0.051,0.359-0.077,0.632-0.077,0.82s0.017,0.334,0.051,0.436c-0.12,0.41-0.179,1.017-0.179,1.82v7.191c0,0.837,0.059,2.085,0.179,3.743s0.18,2.905,0.18,3.743l-0.18,0.205h-0.602l-0.077-0.205c0.034-0.137,0.051-0.487,0.051-1.051l-0.295-9.138v-3.435l0.192-4.961l-0.025-0.551c0-0.222,0.057-0.37,0.173-0.442c0.116-0.072,0.265-0.109,0.448-0.109c0.184,0,0.344,0.053,0.481,0.16c0.137,0.107,0.205,0.275,0.205,0.507c0,0.23,0.039,0.483,0.116,0.756c0.077,0.273,0.188,0.579,0.334,0.917c0.145,0.338,0.258,0.645,0.339,0.923c0.081,0.278,0.156,0.722,0.225,1.333c0.068,0.611,0.149,1.151,0.243,1.621c0.094,0.47,0.247,1.102,0.461,1.897c0.213,0.794,0.459,1.675,0.737,2.64c0.278,0.966,0.455,1.6,0.532,1.904c0.077,0.303,0.18,0.69,0.308,1.159c0.273,0.974,0.418,1.662,0.436,2.064c0.119,0.18,0.211,0.526,0.275,1.038c0.064,0.513,0.207,0.863,0.429,1.051c0.111-0.247,0.167-0.667,0.167-1.256l0.103-9.139l-0.077-4.063l0.077-0.999c0-0.188-0.026-0.299-0.077-0.334l0.077-0.218c0-1.077-0.034-1.794-0.103-2.153c0.068-0.239,0.286-0.359,0.654-0.359c0.282,0,0.423,0.286,0.423,0.859c-0.111,0.222-0.167,0.513-0.167,0.872l0.025,0.884c0,0.377-0.034,0.641-0.103,0.795l-0.077,8.293c0,0.163,0.017,0.398,0.051,0.705l-0.051,0.115v3.307l0.051,0.987c0,1.042-0.085,1.76-0.256,2.153V107.255z"/><path id="XMLID_143_" fill="#FDF4F5" d="M59.346,131.308l-0.026,0.103c0,0.008,0.201,0.684,0.602,2.025c0.265,1.043,0.398,1.846,0.398,2.41s-0.066,1.116-0.199,1.654c-0.132,0.539-0.325,1.055-0.577,1.551c-0.252,0.496-0.598,0.904-1.038,1.224c-0.44,0.32-0.863,0.481-1.269,0.481c-0.406,0-0.695-0.009-0.865-0.026c-0.504-0.051-0.859-0.26-1.064-0.628c0-0.213,0.092-0.32,0.275-0.32c0.184,0,0.431,0.066,0.743,0.198c0.312,0.133,0.609,0.199,0.891,0.199s0.583-0.162,0.903-0.487c0.321-0.324,0.566-0.726,0.737-1.204c0.341-0.974,0.513-1.886,0.513-2.736s-0.128-1.715-0.385-2.596c-0.256-0.88-0.57-1.684-0.942-2.41c-0.372-0.726-0.741-1.453-1.108-2.179c-0.88-1.725-1.32-3.358-1.32-4.896c0-1.274,0.385-2.29,1.154-3.051c0.419-0.401,0.91-0.602,1.474-0.602c0.179,0,0.41,0.07,0.692,0.211c0.282,0.142,0.453,0.288,0.513,0.442l-0.154,0.295c-0.393,0-0.679-0.09-0.859-0.269c-0.419,0-0.778,0.158-1.077,0.474c-0.564,0.582-0.846,1.342-0.846,2.282c0,0.692,0.055,1.267,0.167,1.724c0.111,0.457,0.196,0.805,0.256,1.045c0.059,0.239,0.166,0.543,0.32,0.91c0.154,0.368,0.267,0.641,0.34,0.82c0.072,0.18,0.213,0.474,0.423,0.885c0.21,0.41,0.346,0.675,0.41,0.795c0.064,0.12,0.222,0.408,0.474,0.865C59.155,130.951,59.302,131.223,59.346,131.308z"/><path id="XMLID_145_" fill="#FDF4F5" d="M63.934,130.885l0.218,8.639c0,0.256-0.037,0.455-0.109,0.596c-0.073,0.141-0.223,0.211-0.449,0.211c-0.226,0-0.339-0.304-0.339-0.91l0.103-4.704l-0.205-4.255c0-1.948-0.024-3.552-0.071-4.813c-0.047-1.261-0.077-2.1-0.09-2.519c-0.013-0.418-0.024-0.735-0.032-0.948c-0.043-0.675-0.12-1.239-0.231-1.692c0.162-0.248,0.389-0.372,0.679-0.372c0.623,0,1.185,0.146,1.685,0.435c0.5,0.291,0.899,0.671,1.198,1.141c0.615,0.983,0.923,1.987,0.923,3.013s-0.184,2.068-0.551,3.127c-0.461,1.341-1.051,2.162-1.769,2.461c-0.231,0.094-0.389,0.192-0.474,0.295C64.276,130.744,64.114,130.842,63.934,130.885z M63.575,120.887l0.308,8.972l0.051,0.051c0.179-0.017,0.314-0.066,0.404-0.148c0.09-0.081,0.177-0.168,0.263-0.262c0.085-0.094,0.145-0.158,0.179-0.192c1.136-1.136,1.705-2.563,1.705-4.281c0-0.598-0.026-1.077-0.077-1.436s-0.199-0.703-0.442-1.032c-0.244-0.329-0.453-0.566-0.628-0.712c-0.175-0.145-0.423-0.335-0.743-0.57c-0.32-0.235-0.502-0.366-0.544-0.391H63.575z"/><path id="XMLID_148_" fill="#FDF4F5" d="M71.048,139.396l1.576-0.09c0.82,0,1.23,0.141,1.23,0.423c-0.145,0.256-0.406,0.421-0.782,0.494c-0.376,0.072-0.739,0.109-1.09,0.109h-0.615c-0.786,0-1.239-0.062-1.359-0.186c-0.12-0.124-0.179-0.254-0.179-0.391l0.244-0.974v-0.051c-0.069-0.35-0.103-0.735-0.103-1.153l0.128-2.679l-0.154-5.614l0.128-5.217c0-0.316-0.056-0.784-0.167-1.403c-0.111-0.619-0.171-1.075-0.179-1.365l0.474-0.731l1.833-0.23l0.09,0.077c0.41,0,0.647,0.053,0.711,0.161c0.064,0.107,0.096,0.22,0.096,0.339c0,0.334-0.316,0.5-0.948,0.5l-0.705-0.051c-0.385,0-0.577,0.103-0.577,0.308l0.205,4.46l-0.128,3.281l-0.051,0.051l0.154,0.09l1.449-0.269c0.094,0,0.196,0.049,0.308,0.148c0.111,0.098,0.166,0.199,0.166,0.301c0,0.35-0.133,0.525-0.397,0.525l-0.603-0.025c-0.667,0-1,0.167-1,0.5l0.192,2.205l-0.09,0.154v5.332c0.094,0.111,0.141,0.355,0.141,0.731V139.396z"/><path id="XMLID_150_" fill="#FDF4F5" d="M82.135,132.487l0.295,6.844v0.282c0,0.205-0.026,0.333-0.077,0.384c-0.137,0.12-0.286,0.18-0.448,0.18c-0.162,0-0.295-0.042-0.398-0.129c-0.103-0.085-0.154-0.192-0.154-0.32c0.051-0.103,0.077-0.205,0.077-0.308l-0.077-0.526v-2.602c0-0.231-0.461-0.429-1.384-0.596s-1.606-0.25-2.051-0.25c-0.171,0-0.325,0.319-0.461,0.955c-0.137,0.636-0.269,1.335-0.397,2.096c-0.128,0.76-0.256,1.235-0.385,1.423c-0.41,0-0.679-0.107-0.808-0.321c0.273-0.393,0.536-1.35,0.788-2.871c0.252-1.521,0.455-2.625,0.609-3.313c0.154-0.688,0.429-2.181,0.826-4.48c0.398-2.298,0.667-3.77,0.808-4.415c0.141-0.645,0.25-1.122,0.327-1.429s0.175-0.671,0.295-1.09c0.282-1.008,0.534-1.512,0.756-1.512c0.273,0,0.455,0.062,0.545,0.186c0.09,0.124,0.166,0.414,0.231,0.872c0.064,0.457,0.128,1.038,0.192,1.743c0.064,0.705,0.122,1.352,0.173,1.941c0.162,1.846,0.263,3.059,0.301,3.64c0.038,0.582,0.117,1,0.237,1.256c-0.034,0.53-0.051,0.985-0.051,1.365S81.981,132.205,82.135,132.487z M77.829,134.717c0.735,0.248,1.619,0.372,2.653,0.372c0.214,0,0.372-0.017,0.474-0.051l0.128,0.051c0.162,0,0.243-0.081,0.243-0.243c0-3.657-0.342-7.601-1.025-11.83c-0.009-0.051-0.028-0.146-0.058-0.282c-0.03-0.137-0.045-0.243-0.045-0.321c-0.214,0.607-0.329,0.991-0.346,1.154l0.077,0.154c-0.06,0.059-0.158,0.361-0.295,0.904c-0.137,0.543-0.327,1.662-0.57,3.358c-0.243,1.697-0.419,2.786-0.525,3.268c-0.107,0.483-0.22,0.921-0.34,1.314c-0.248,0.872-0.372,1.538-0.372,2V134.717z"/><path id="XMLID_153_" fill="#FDF4F5" d="M91.03,140.78l-0.359-0.103c-0.342-2.025-0.863-4.283-1.564-6.774s-1.337-4.283-1.909-5.377l-0.077,0.051c-0.051,0.205-0.235,0.577-0.551,1.115c-0.317,0.539-0.492,0.964-0.526,1.276c-0.034,0.312-0.051,0.925-0.051,1.84l0.129,5.793c0,1.102-0.184,1.654-0.552,1.654c-0.316,0-0.474-0.404-0.474-1.211c0-0.808,0.058-2.021,0.174-3.64c0.115-1.619,0.173-2.835,0.173-3.647l-0.103-9.434l-0.051-0.103l-0.193-1.23c0-0.367,0.15-0.551,0.449-0.551c0.154,0,0.263,0.017,0.327,0.051s0.122,0.154,0.173,0.359c0.085,0.308,0.129,1.183,0.129,2.628l-0.103,5.627h0.025c0.35-0.744,0.818-1.844,1.403-3.3c0.585-1.457,0.917-2.275,0.993-2.455c0.949-2.427,1.568-3.64,1.859-3.64c0.299,0,0.448,0.128,0.448,0.384c-0.042,0.317-0.154,0.62-0.333,0.911c-0.18,0.291-0.291,0.483-0.334,0.576c-0.042,0.094-0.188,0.404-0.435,0.93c-0.248,0.526-0.461,0.982-0.641,1.371c-0.179,0.389-0.38,0.844-0.602,1.365c-0.487,1.12-0.748,1.855-0.782,2.205l0.129,0.231l-0.103,0.077c0.598,1.504,1.288,3.674,2.07,6.511s1.378,4.841,1.788,6.012C91.53,140.614,91.355,140.78,91.03,140.78z"/><path id="XMLID_155_" fill="#FDF4F5" d="M95.183,139.396l1.577-0.09c0.82,0,1.23,0.141,1.23,0.423c-0.146,0.256-0.406,0.421-0.782,0.494s-0.74,0.109-1.09,0.109h-0.615c-0.786,0-1.239-0.062-1.358-0.186c-0.12-0.124-0.18-0.254-0.18-0.391l0.243-0.974v-0.051c-0.068-0.35-0.103-0.735-0.103-1.153l0.129-2.679l-0.154-5.614l0.128-5.217c0-0.316-0.055-0.784-0.166-1.403c-0.111-0.619-0.172-1.075-0.18-1.365l0.474-0.731l1.833-0.23l0.09,0.077c0.41,0,0.647,0.053,0.712,0.161c0.064,0.107,0.096,0.22,0.096,0.339c0,0.334-0.316,0.5-0.949,0.5l-0.705-0.051c-0.385,0-0.577,0.103-0.577,0.308l0.205,4.46l-0.128,3.281l-0.051,0.051l0.154,0.09l1.448-0.269c0.094,0,0.197,0.049,0.308,0.148c0.111,0.098,0.167,0.199,0.167,0.301c0,0.35-0.133,0.525-0.397,0.525l-0.602-0.025c-0.667,0-1,0.167-1,0.5l0.192,2.205l-0.09,0.154v5.332c0.094,0.111,0.141,0.355,0.141,0.731V139.396z"/><path id="XMLID_157_" fill="#FDF4F5" d="M100.554,120.939l-0.051-0.474c0-0.154,0.175-0.23,0.526-0.23c0.718,0,1.267,0.201,1.647,0.602c0.38,0.402,0.632,0.833,0.756,1.295c0.124,0.461,0.22,0.811,0.288,1.051c0.145,0.522,0.218,0.928,0.218,1.218c0,0.88-0.243,1.939-0.731,3.179c-0.316,0.786-0.474,1.222-0.474,1.307c0,0.854,0.342,2.579,1.025,5.172s1.243,4.432,1.68,5.518c0,0.572-0.116,0.859-0.347,0.859c-0.179,0-0.327-0.079-0.442-0.237c-0.115-0.158-0.185-0.25-0.211-0.275c-0.051-0.684-0.275-1.634-0.673-2.852c-0.398-1.217-0.641-2.03-0.731-2.435c-0.09-0.406-0.25-1.233-0.481-2.481c-0.231-1.248-0.436-2.205-0.615-2.871l-0.205-0.154l-0.5,0.205v9.844l0.051,0.654c0,0.35-0.159,0.526-0.474,0.526c-0.129,0-0.235-0.041-0.321-0.122c-0.085-0.081-0.128-0.186-0.128-0.314l0.09-0.141l0.103-15.933V120.939z M101.284,121.066l-0.129,5.73c0,0.752,0.026,1.312,0.077,1.679h0.051c0.128,0,0.356-0.179,0.686-0.538c0.329-0.359,0.555-0.645,0.679-0.859c0.124-0.213,0.225-0.568,0.301-1.064c0.077-0.496,0.116-0.908,0.116-1.237c0-0.329-0.024-0.673-0.07-1.032c-0.047-0.359-0.122-0.747-0.224-1.166c-0.103-0.418-0.265-0.767-0.487-1.045c-0.222-0.278-0.483-0.417-0.782-0.417v-0.077L101.284,121.066z"/><path id="XMLID_160_" fill="#FDF4F5" d="M111.641,131.308l-0.025,0.103c0,0.008,0.2,0.684,0.602,2.025c0.265,1.043,0.397,1.846,0.397,2.41s-0.066,1.116-0.198,1.654c-0.133,0.539-0.325,1.055-0.577,1.551c-0.252,0.496-0.598,0.904-1.038,1.224c-0.44,0.32-0.863,0.481-1.269,0.481c-0.406,0-0.695-0.009-0.865-0.026c-0.504-0.051-0.859-0.26-1.064-0.628c0-0.213,0.092-0.32,0.275-0.32c0.184,0,0.431,0.066,0.744,0.198c0.312,0.133,0.608,0.199,0.891,0.199c0.282,0,0.583-0.162,0.904-0.487c0.32-0.324,0.566-0.726,0.737-1.204c0.342-0.974,0.513-1.886,0.513-2.736s-0.129-1.715-0.385-2.596c-0.256-0.88-0.57-1.684-0.942-2.41c-0.372-0.726-0.741-1.453-1.109-2.179c-0.88-1.725-1.32-3.358-1.32-4.896c0-1.274,0.385-2.29,1.154-3.051c0.418-0.401,0.91-0.602,1.474-0.602c0.179,0,0.41,0.07,0.692,0.211c0.282,0.142,0.453,0.288,0.513,0.442l-0.154,0.295c-0.393,0-0.679-0.09-0.859-0.269c-0.419,0-0.778,0.158-1.077,0.474c-0.564,0.582-0.846,1.342-0.846,2.282c0,0.692,0.055,1.267,0.166,1.724c0.111,0.457,0.197,0.805,0.256,1.045c0.06,0.239,0.167,0.543,0.321,0.91c0.154,0.368,0.267,0.641,0.34,0.82c0.072,0.18,0.213,0.474,0.423,0.885c0.209,0.41,0.346,0.675,0.41,0.795c0.064,0.12,0.222,0.408,0.474,0.865C111.451,130.951,111.598,131.223,111.641,131.308z"/></g></svg>
