<svg version="1.1" xmlns="http://www.w3.org/2000/svg" xmlns:xlink="http://www.w3.org/1999/xlink" x="0px" y="0px" viewBox="0 0 200 200" enable-background="new 0 0 200 200" xml:space="preserve"><rect id="XMLID_14_" fill="none" width="200" height="200"/><circle id="XMLID_1_" opacity="0.9" fill="#C04141" enable-background="new  " cx="100" cy="100" r="100"/><g><path fill="#FFFFFF" d="M67.3,55H55.5V35.4h11.3V39h-6.9v4.4h6.4V47h-6.4v4.5h7.3V55H67.3z"/><path fill="#FFFFFF" d="M83.4,55h-4.3v-7.8c0-2.2-0.8-3.3-2.3-3.3c-0.7,0-1.3,0.3-1.8,0.9s-0.7,1.3-0.7,2.2v8H70V41h4.3v2.2h0.1c1-1.7,2.5-2.6,4.5-2.6c3.1,0,4.6,1.9,4.6,5.8L83.4,55L83.4,55z"/><path fill="#FFFFFF" d="M100.4,53.4c0,2.6-0.8,4.6-2.3,6s-3.7,2.1-6.5,2.1c-1.9,0-3.4-0.3-4.5-0.8v-3.6c1.4,0.8,2.9,1.3,4.4,1.3c1.4,0,2.6-0.4,3.4-1.1s1.2-1.8,1.2-3.1v-1.1H96c-1,1.6-2.4,2.4-4.4,2.4c-1.8,0-3.2-0.6-4.2-1.9s-1.6-2.9-1.6-5.1c0-2.3,0.6-4.2,1.7-5.6s2.7-2.1,4.6-2.1c1.7,0,3,0.7,3.8,2H96V41h4.3L100.4,53.4L100.4,53.4z M96.1,48.2v-1.1c0-0.9-0.3-1.7-0.8-2.3c-0.5-0.6-1.2-0.9-2-0.9c-1,0-1.7,0.4-2.3,1.1c-0.5,0.7-0.8,1.8-0.8,3.2c0,1.2,0.3,2.1,0.8,2.8c0.5,0.7,1.2,1,2.1,1c0.9,0,1.6-0.3,2.2-1C95.8,50.3,96.1,49.4,96.1,48.2z"/><path fill="#FFFFFF" d="M108.2,55h-4.3V34.3h4.3V55z"/><path fill="#FFFFFF" d="M116.4,36.5c0,0.7-0.2,1.2-0.7,1.6s-1.1,0.6-1.8,0.6s-1.3-0.2-1.8-0.6s-0.7-1-0.7-1.6s0.2-1.2,0.7-1.6s1.1-0.6,1.8-0.6s1.3,0.2,1.8,0.6S116.4,35.9,116.4,36.5z M116,55h-4.3V41h4.3V55z"/><path fill="#FFFFFF" d="M129.2,50.7c0,1.4-0.6,2.6-1.7,3.4s-2.6,1.2-4.5,1.2c-1.5,0-2.8-0.2-4.1-0.7v-3.5c1.4,0.8,2.7,1.3,4,1.3c1.4,0,2.1-0.4,2.1-1.3c0-0.3-0.1-0.5-0.2-0.7c-0.1-0.2-0.4-0.3-0.7-0.5s-0.9-0.4-1.7-0.7c-1.2-0.4-2.1-1-2.6-1.6s-0.8-1.5-0.8-2.5c0-1.3,0.5-2.4,1.6-3.2c1.1-0.8,2.5-1.2,4.3-1.2c1.1,0,2.3,0.2,3.5,0.6v3.3c-1.1-0.6-2.2-1-3.4-1c-1.1,0-1.7,0.4-1.7,1.2c0,0.3,0.1,0.5,0.2,0.7c0.1,0.2,0.3,0.3,0.6,0.5s0.8,0.4,1.4,0.6c1.4,0.5,2.3,1.1,2.9,1.7C128.9,48.9,129.2,49.7,129.2,50.7z"/><path fill="#FFFFFF" d="M145.1,55h-4.3v-8c0-2.1-0.7-3.1-2.2-3.1c-0.7,0-1.4,0.3-1.8,0.9s-0.7,1.3-0.7,2.2v8h-4.3V34.3h4.3v8.8h0.1c1-1.6,2.5-2.4,4.3-2.4c3.2,0,4.8,1.9,4.8,5.7V55H145.1z"/><path fill="#FFFFFF" d="M55.4,89.4c0,2.6-0.8,4.6-2.3,6s-3.7,2.1-6.5,2.1c-1.9,0-3.4-0.3-4.5-0.8v-3.6c1.4,0.8,2.9,1.3,4.4,1.3c1.4,0,2.6-0.4,3.4-1.1s1.2-1.8,1.2-3.1v-1.1H51c-1,1.6-2.4,2.4-4.4,2.4c-1.8,0-3.2-0.6-4.2-1.9s-1.6-2.9-1.6-5.1c0-2.3,0.6-4.2,1.7-5.6s2.7-2.1,4.6-2.1c1.7,0,3,0.7,3.8,2H51V77h4.3L55.4,89.4L55.4,89.4z M51.2,84.2v-1.1c0-0.9-0.3-1.7-0.8-2.3s-1.2-0.9-2-0.9c-1,0-1.7,0.4-2.3,1.1c-0.5,0.7-0.8,1.8-0.8,3.2c0,1.2,0.3,2.1,0.8,2.8s1.2,1,2.1,1c0.9,0,1.6-0.3,2.2-1C50.9,86.3,51.2,85.4,51.2,84.2z"/><path fill="#FFFFFF" d="M68,80.8c-0.5-0.3-1.1-0.4-1.8-0.4c-0.9,0-1.7,0.3-2.2,1s-0.8,1.6-0.8,2.8v6.7h-4.3v-14h4.3v2.6h0.1c0.7-1.9,1.9-2.8,3.7-2.8c0.4,0,0.8,0.1,1.1,0.2L68,80.8L68,80.8z"/><path fill="#FFFFFF" d="M81.6,91h-4.1v-2h-0.1c-0.9,1.6-2.3,2.4-4.2,2.4c-1.3,0-2.4-0.4-3.2-1.2s-1.2-1.8-1.2-3.1c0-2.7,1.6-4.3,4.8-4.7l3.8-0.5c0-1.5-0.8-2.3-2.5-2.3s-3.3,0.5-4.8,1.5v-3.3c0.5-0.3,1.4-0.6,2.5-0.8s2.1-0.4,2.8-0.4c4,0,6,2,6,6V91H81.6z M77.5,84.3L75,84.6c-1.4,0.2-2.1,0.8-2.1,1.9c0,0.5,0.2,0.9,0.5,1.2s0.8,0.5,1.4,0.5c0.8,0,1.5-0.3,2-0.8c0.5-0.6,0.8-1.3,0.8-2.1v-1H77.5z"/><path fill="#FFFFFF" d="M107.1,91h-4.3v-8c0-2-0.7-3-2.2-3c-0.7,0-1.3,0.3-1.7,0.9c-0.4,0.6-0.7,1.4-0.7,2.3V91h-4.3v-8.1c0-2-0.7-3-2.2-3c-0.7,0-1.3,0.3-1.8,0.9c-0.4,0.6-0.7,1.4-0.7,2.4V91h-4.3V77h4.3v2.2h0.1c0.4-0.8,1.1-1.4,1.9-1.8c0.8-0.5,1.7-0.7,2.6-0.7c2,0,3.3,0.9,4.1,2.6c1.1-1.7,2.6-2.6,4.7-2.6c3,0,4.6,1.9,4.6,5.6L107.1,91L107.1,91z"/><path fill="#FFFFFF" d="M132.6,91h-4.3v-8c0-2-0.7-3-2.2-3c-0.7,0-1.3,0.3-1.7,0.9c-0.4,0.6-0.7,1.4-0.7,2.3V91h-4.3v-8.1c0-2-0.7-3-2.2-3c-0.7,0-1.3,0.3-1.8,0.9c-0.4,0.6-0.7,1.4-0.7,2.4V91h-4.3V77h4.3v2.2h0.1c0.4-0.8,1.1-1.4,1.9-1.8c0.8-0.5,1.7-0.7,2.6-0.7c2,0,3.3,0.9,4.1,2.6c1.1-1.7,2.6-2.6,4.7-2.6c3,0,4.6,1.9,4.6,5.6L132.6,91L132.6,91z"/><path fill="#FFFFFF" d="M147.5,91h-4.1v-2h-0.1c-0.9,1.6-2.3,2.4-4.2,2.4c-1.3,0-2.4-0.4-3.2-1.2s-1.2-1.8-1.2-3.1c0-2.7,1.6-4.3,4.8-4.7l3.8-0.5c0-1.5-0.8-2.3-2.5-2.3s-3.3,0.5-4.8,1.5v-3.3c0.5-0.3,1.4-0.6,2.5-0.8s2.1-0.4,2.8-0.4c4,0,6,2,6,6V91H147.5z M143.4,84.3l-2.5,0.3c-1.4,0.2-2.1,0.8-2.1,1.9c0,0.5,0.2,0.9,0.5,1.2s0.8,0.5,1.4,0.5c0.8,0,1.5-0.3,2-0.8c0.5-0.6,0.8-1.3,0.8-2.1v-1H143.4z"/><path fill="#FFFFFF" d="M159.9,80.8c-0.5-0.3-1.1-0.4-1.8-0.4c-0.9,0-1.7,0.3-2.2,1s-0.8,1.6-0.8,2.8v6.7h-4.3v-14h4.3v2.6h0.1c0.7-1.9,1.9-2.8,3.7-2.8c0.4,0,0.8,0.1,1.1,0.2L159.9,80.8L159.9,80.8z"/><path fill="#FFFFFF" d="M46,107.5c-0.3-0.3-0.9-0.4-1.5-0.4c-1.7,0-2.6,1.2-2.6,3.5v2.3h3.7v1.1h-3.7v13h-1.3v-12.9h-2.5V113h2.5v-2.4c0-1.4,0.4-2.5,1.1-3.3c0.7-0.8,1.7-1.2,2.8-1.2c0.6,0,1.1,0.1,1.5,0.3V107.5z"/><path fill="#FFFFFF" d="M53.1,127.3c-2,0-3.6-0.7-4.8-2s-1.8-3.1-1.8-5.3c0-2.3,0.6-4.1,1.8-5.4c1.2-1.3,2.9-2,4.9-2s3.6,0.7,4.7,2c1.2,1.3,1.7,3.1,1.7,5.4c0,2.2-0.6,4-1.8,5.3S55.1,127.3,53.1,127.3z M53.2,113.8c-1.6,0-3,0.6-3.9,1.7c-1,1.1-1.5,2.7-1.5,4.6c0,1.9,0.5,3.3,1.5,4.4s2.3,1.7,3.9,1.7c1.7,0,3-0.5,3.9-1.6s1.4-2.6,1.4-4.6s-0.5-3.5-1.4-4.6S54.9,113.8,53.2,113.8z"/><path fill="#FFFFFF" d="M69.7,114.3c-0.4-0.3-0.9-0.5-1.5-0.5c-0.7,0-1.4,0.3-2,0.8s-1.1,1.3-1.4,2.3c-0.3,1-0.5,2.2-0.5,3.5v6.6h-1.2v-14h1.2v3.1h0.1c0.3-1.1,0.8-1.9,1.5-2.5s1.5-0.9,2.4-0.9c0.5,0,1,0.1,1.4,0.2V114.3z"/><path fill="#FFFFFF" d="M88.9,127l-2.6-5.7c-0.5-1.1-1-1.9-1.6-2.4c-0.5-0.4-1.2-0.6-2.1-0.6h-2.4v8.7h-1.4v-19.6h5.4c1.7,0,3,0.5,4,1.4s1.5,2.2,1.5,3.7c0,1.4-0.4,2.6-1.2,3.5s-2,1.6-3.4,1.8v0.1c0.8,0.3,1.5,1.3,2.3,2.8l2.9,6.2L88.9,127L88.9,127z M80.2,108.6v8.4h3.4c1.5,0,2.7-0.4,3.6-1.2c0.9-0.8,1.3-1.9,1.3-3.2s-0.4-2.2-1.2-2.9s-1.9-1.1-3.4-1.1H80.2z"/><path fill="#FFFFFF" d="M103.2,127v-2.5h-0.1c-1,1.9-2.5,2.9-4.5,2.9c-3.3,0-5-2.1-5-6.2V113h1.3v7.8c0,1.9,0.3,3.2,0.9,4.1c0.6,0.9,1.6,1.3,3,1.3c1.3,0,2.4-0.5,3.2-1.5s1.2-2.2,1.2-3.8V113h1.3v14H103.2z"/><path fill="#FFFFFF" d="M108.1,126.3v-1.5c0.4,0.4,1,0.7,1.7,0.9c0.7,0.3,1.3,0.4,1.8,0.4c2.2,0,3.3-0.9,3.3-2.7c0-0.6-0.2-1.1-0.7-1.5c-0.4-0.4-1.2-0.9-2.4-1.4c-1.3-0.5-2.2-1.1-2.8-1.7c-0.6-0.6-0.9-1.4-0.9-2.4c0-1.1,0.4-2,1.3-2.7s1.9-1.1,3.2-1.1c1.2,0,2.2,0.2,3.1,0.7v1.4c-1-0.7-2.1-1-3.2-1c-0.9,0-1.7,0.2-2.2,0.7c-0.6,0.5-0.9,1.1-0.9,1.9c0,0.5,0.1,1,0.3,1.3s0.5,0.6,0.9,0.9c0.4,0.3,1,0.6,1.8,0.9c1.5,0.7,2.5,1.3,3,1.8s0.8,1.3,0.8,2.2c0,1.1-0.4,2.1-1.3,2.8s-2,1.1-3.4,1.1C110.1,127.3,109,127,108.1,126.3z"/><path fill="#FFFFFF" d="M118.8,126.3v-1.5c0.4,0.4,1,0.7,1.7,0.9c0.7,0.3,1.3,0.4,1.8,0.4c2.2,0,3.3-0.9,3.3-2.7c0-0.6-0.2-1.1-0.7-1.5c-0.4-0.4-1.2-0.9-2.4-1.4c-1.3-0.5-2.2-1.1-2.8-1.7c-0.6-0.6-0.9-1.4-0.9-2.4c0-1.1,0.4-2,1.3-2.7s1.9-1.1,3.2-1.1c1.2,0,2.2,0.2,3.1,0.7v1.4c-1-0.7-2.1-1-3.2-1c-0.9,0-1.7,0.2-2.2,0.7c-0.6,0.5-0.9,1.1-0.9,1.9c0,0.5,0.1,1,0.3,1.3s0.5,0.6,0.9,0.9c0.4,0.3,1,0.6,1.8,0.9c1.5,0.7,2.5,1.3,3,1.8s0.8,1.3,0.8,2.2c0,1.1-0.4,2.1-1.3,2.8s-2,1.1-3.4,1.1C120.9,127.3,119.7,127,118.8,126.3z"/><path fill="#FFFFFF" d="M130.9,109.4c-0.3,0-0.5-0.1-0.7-0.3s-0.3-0.5-0.3-0.8s0.1-0.5,0.3-0.7s0.5-0.3,0.7-0.3c0.3,0,0.5,0.1,0.7,0.3s0.3,0.4,0.3,0.7s-0.1,0.5-0.3,0.8S131.2,109.4,130.9,109.4z M130.3,127v-14h1.3v14H130.3z"/><path fill="#FFFFFF" d="M144.3,127v-2.8h-0.1c-0.4,1-1.1,1.7-2,2.3s-1.8,0.9-2.8,0.9c-1.3,0-2.3-0.4-3.1-1.1c-0.8-0.7-1.2-1.7-1.2-2.9c0-2.5,1.6-3.9,4.9-4.4l4.3-0.6c0-3-1.1-4.5-3.4-4.5c-1.5,0-3,0.6-4.5,1.9v-1.5c0.5-0.4,1.2-0.8,2.1-1s1.7-0.4,2.5-0.4c1.4,0,2.6,0.4,3.3,1.3s1.2,2.2,1.2,3.9v9.1h-1.2V127z M136.4,123.3c0,0.9,0.3,1.6,0.8,2.1s1.3,0.8,2.3,0.8c1.4,0,2.5-0.5,3.4-1.5s1.3-2.3,1.3-3.8v-1.4l-3.9,0.6c-1.6,0.2-2.6,0.6-3.2,1.1S136.4,122.3,136.4,123.3z"/><path fill="#FFFFFF" d="M159.1,127v-8.1c0-3.4-1.2-5-3.6-5c-1.3,0-2.4,0.5-3.3,1.5s-1.3,2.2-1.3,3.7v8h-1.3v-14h1.3v2.5h0.1c1-1.9,2.6-2.9,4.8-2.9c1.5,0,2.7,0.5,3.5,1.5s1.2,2.4,1.2,4.3v8.5H159.1z"/><path fill="#FFFFFF" d="M51.3,162.3v-1.5c0.4,0.4,1,0.7,1.7,0.9c0.7,0.3,1.3,0.4,1.8,0.4c2.2,0,3.3-0.9,3.3-2.7c0-0.6-0.2-1.1-0.7-1.5c-0.4-0.4-1.2-0.9-2.4-1.4c-1.3-0.5-2.2-1.1-2.8-1.7c-0.6-0.6-0.9-1.4-0.9-2.4c0-1.1,0.4-2,1.3-2.7s1.9-1.1,3.2-1.1c1.2,0,2.2,0.2,3.1,0.7v1.4c-1-0.7-2.1-1-3.2-1c-0.9,0-1.7,0.2-2.2,0.7c-0.6,0.5-0.9,1.1-0.9,1.9c0,0.5,0.1,1,0.3,1.3s0.5,0.6,0.9,0.9c0.4,0.3,1,0.6,1.8,0.9c1.5,0.7,2.5,1.3,3,1.8c0.5,0.6,0.8,1.3,0.8,2.2c0,1.1-0.4,2.1-1.3,2.8c-0.9,0.7-2,1.1-3.4,1.1C53.3,163.3,52.2,163,51.3,162.3z"/><path fill="#FFFFFF" d="M64,160.5L64,160.5l-0.1,8.9h-1.3V149h1.3v2.9H64c0.5-1,1.2-1.8,2.2-2.4s2-0.8,3.1-0.8c1.8,0,3.1,0.6,4.1,1.8s1.5,2.9,1.5,5c0,1.5-0.3,2.9-0.8,4.1s-1.3,2.1-2.2,2.8c-1,0.7-2,1-3.2,1C66.6,163.3,65,162.3,64,160.5z M64,155.3v1.8c0,1.5,0.5,2.7,1.4,3.7s2.1,1.5,3.4,1.5c1.4,0,2.6-0.6,3.5-1.9s1.3-2.8,1.3-4.8c0-1.7-0.4-3.1-1.2-4.2s-1.9-1.6-3.3-1.6c-1,0-1.9,0.2-2.7,0.7s-1.4,1.1-1.8,2C64.2,153.3,64,154.2,64,155.3z"/><path fill="#FFFFFF" d="M78.6,156c0,1.9,0.4,3.5,1.3,4.5c0.9,1.1,2.1,1.6,3.7,1.6c1.6,0,3.1-0.6,4.6-1.7v1.3c-1.5,1-3.1,1.5-4.9,1.5c-1.8,0-3.3-0.7-4.4-2s-1.6-3.1-1.6-5.4c0-1.3,0.3-2.6,0.8-3.7c0.5-1.1,1.3-2,2.3-2.6s2-0.9,3.2-0.9c1.7,0,3,0.6,4,1.8c0.9,1.2,1.4,2.9,1.4,5v0.6L78.6,156L78.6,156z M87.6,154.9c-0.1-1.6-0.4-2.9-1.2-3.8s-1.7-1.3-3-1.3s-2.4,0.4-3.3,1.3c-0.9,0.9-1.4,2.1-1.6,3.8H87.6z"/><path fill="#FFFFFF" d="M100.6,163v-2.8h-0.1c-0.4,1-1.1,1.7-2,2.3s-1.8,0.9-2.8,0.9c-1.3,0-2.3-0.4-3.1-1.1c-0.8-0.7-1.2-1.7-1.2-2.9c0-2.5,1.6-3.9,4.9-4.4l4.3-0.6c0-3-1.1-4.5-3.4-4.5c-1.5,0-3,0.6-4.5,1.9v-1.5c0.5-0.4,1.2-0.8,2.1-1s1.7-0.4,2.5-0.4c1.4,0,2.6,0.4,3.3,1.3c0.8,0.9,1.2,2.2,1.2,3.9v9.1h-1.2V163z M92.8,159.3c0,0.9,0.3,1.6,0.8,2.1c0.6,0.5,1.3,0.8,2.3,0.8c1.4,0,2.5-0.5,3.4-1.5s1.3-2.3,1.3-3.8v-1.4l-3.9,0.6c-1.6,0.2-2.6,0.6-3.2,1.1S92.8,158.3,92.8,159.3z"/><path fill="#FFFFFF" d="M114,163l-6.7-6.9h-0.1v6.9h-1.3v-20.7h1.3v13.4h0.1l6.4-6.6h1.6l-6.6,6.8l7.2,7.2H114V163z"/><path fill="#FFFFFF" d="M118.6,156c0,1.9,0.4,3.5,1.3,4.5c0.9,1.1,2.1,1.6,3.7,1.6c1.6,0,3.1-0.6,4.6-1.7v1.3c-1.5,1-3.1,1.5-4.9,1.5c-1.8,0-3.3-0.7-4.4-2s-1.6-3.1-1.6-5.4c0-1.3,0.3-2.6,0.8-3.7s1.3-2,2.3-2.6s2-0.9,3.2-0.9c1.7,0,3,0.6,4,1.8c0.9,1.2,1.4,2.9,1.4,5v0.6L118.6,156L118.6,156z M127.6,154.9c-0.1-1.6-0.4-2.9-1.2-3.8s-1.7-1.3-3-1.3s-2.4,0.4-3.3,1.3c-0.9,0.9-1.4,2.1-1.6,3.8H127.6z"/><path fill="#FFFFFF" d="M138.9,150.3c-0.4-0.3-0.9-0.5-1.5-0.5c-0.7,0-1.4,0.3-2,0.8s-1.1,1.3-1.4,2.3s-0.5,2.2-0.5,3.5v6.6h-1.2v-14h1.2v3.1h0.1c0.3-1.1,0.8-1.9,1.5-2.5s1.5-0.9,2.4-0.9c0.5,0,1,0.1,1.4,0.2V150.3z"/><path fill="#FFFFFF" d="M140.9,162.3v-1.5c0.4,0.4,1,0.7,1.7,0.9s1.3,0.4,1.8,0.4c2.2,0,3.3-0.9,3.3-2.7c0-0.6-0.2-1.1-0.7-1.5s-1.2-0.9-2.4-1.4c-1.3-0.5-2.2-1.1-2.8-1.7s-0.9-1.4-0.9-2.4c0-1.1,0.4-2,1.3-2.7s1.9-1.1,3.2-1.1c1.2,0,2.2,0.2,3.1,0.7v1.4c-1-0.7-2.1-1-3.2-1c-0.9,0-1.7,0.2-2.2,0.7s-0.9,1.1-0.9,1.9c0,0.5,0.1,1,0.3,1.3s0.5,0.6,0.9,0.9s1,0.6,1.8,0.9c1.5,0.7,2.5,1.3,3,1.8c0.5,0.6,0.8,1.3,0.8,2.2c0,1.1-0.4,2.1-1.3,2.8c-0.9,0.7-2,1.1-3.4,1.1C142.9,163.3,141.8,163,140.9,162.3z"/></g></svg>
