<svg version="1.1" xmlns="http://www.w3.org/2000/svg" xmlns:xlink="http://www.w3.org/1999/xlink" x="0px" y="0px" viewBox="-859 441 200 200" enable-background="new -859 441 200 200" xml:space="preserve"><rect id="XMLID_14_" x="-859" y="441" fill="none" width="200" height="200"/><circle id="XMLID_1_" opacity="0.9" fill="#BB3F3F" enable-background="new  " cx="-759" cy="541" r="100"/><g><path fill="#FFFFFF" d="M-791.7,496h-11.8v-19.6h11.3v3.6h-6.9v4.4h6.4v3.6h-6.4v4.5h7.3V496z"/><path fill="#FFFFFF" d="M-775.6,496h-4.3v-7.8c0-2.2-0.8-3.3-2.3-3.3c-0.7,0-1.3,0.3-1.8,0.9c-0.5,0.6-0.7,1.3-0.7,2.2v8h-4.3v-14h4.3v2.2h0.1c1-1.7,2.5-2.6,4.5-2.6c3.1,0,4.6,1.9,4.6,5.8V496z"/><path fill="#FFFFFF" d="M-758.6,494.4c0,2.6-0.8,4.6-2.3,6c-1.5,1.4-3.7,2.1-6.5,2.1c-1.9,0-3.4-0.3-4.5-0.8v-3.6c1.4,0.8,2.9,1.3,4.4,1.3c1.4,0,2.6-0.4,3.4-1.1s1.2-1.8,1.2-3.1v-1.1h-0.1c-1,1.6-2.4,2.4-4.4,2.4c-1.8,0-3.2-0.6-4.2-1.9s-1.6-2.9-1.6-5.1c0-2.3,0.6-4.2,1.7-5.6s2.7-2.1,4.6-2.1c1.7,0,3,0.7,3.8,2h0.1V482h4.3V494.4z M-762.9,489.2v-1.1c0-0.9-0.3-1.7-0.8-2.3c-0.5-0.6-1.2-0.9-2-0.9c-1,0-1.7,0.4-2.3,1.1c-0.5,0.7-0.8,1.8-0.8,3.2c0,1.2,0.3,2.1,0.8,2.8c0.5,0.7,1.2,1,2.1,1c0.9,0,1.6-0.3,2.2-1C-763.2,491.3-762.9,490.4-762.9,489.2z"/><path fill="#FFFFFF" d="M-750.8,496h-4.3v-20.7h4.3V496z"/><path fill="#FFFFFF" d="M-742.6,477.5c0,0.7-0.2,1.2-0.7,1.6c-0.5,0.4-1.1,0.6-1.8,0.6s-1.3-0.2-1.8-0.6c-0.5-0.4-0.7-1-0.7-1.6c0-0.6,0.2-1.2,0.7-1.6c0.5-0.4,1.1-0.6,1.8-0.6c0.7,0,1.3,0.2,1.8,0.6S-742.6,476.9-742.6,477.5z M-743,496h-4.3v-14h4.3V496z"/><path fill="#FFFFFF" d="M-729.8,491.7c0,1.4-0.6,2.6-1.7,3.4s-2.6,1.2-4.5,1.2c-1.5,0-2.8-0.2-4.1-0.7v-3.5c1.4,0.8,2.7,1.3,4,1.3c1.4,0,2.1-0.4,2.1-1.3c0-0.3-0.1-0.5-0.2-0.7c-0.1-0.2-0.4-0.3-0.7-0.5c-0.3-0.2-0.9-0.4-1.7-0.7c-1.2-0.4-2.1-1-2.6-1.6c-0.5-0.6-0.8-1.5-0.8-2.5c0-1.3,0.5-2.4,1.6-3.2c1.1-0.8,2.5-1.2,4.3-1.2c1.1,0,2.3,0.2,3.5,0.6v3.3c-1.1-0.6-2.2-1-3.4-1c-1.1,0-1.7,0.4-1.7,1.2c0,0.3,0.1,0.5,0.2,0.7c0.1,0.2,0.3,0.3,0.6,0.5c0.3,0.2,0.8,0.4,1.4,0.6c1.4,0.5,2.3,1.1,2.9,1.7C-730.1,489.9-729.8,490.7-729.8,491.7z"/><path fill="#FFFFFF" d="M-713.9,496h-4.3v-8c0-2.1-0.7-3.1-2.2-3.1c-0.7,0-1.4,0.3-1.8,0.9s-0.7,1.3-0.7,2.2v8h-4.3v-20.7h4.3v8.8h0.1c1-1.6,2.5-2.4,4.3-2.4c3.2,0,4.8,1.9,4.8,5.7V496z"/><path fill="#FFFFFF" d="M-803.6,530.4c0,2.6-0.8,4.6-2.3,6c-1.5,1.4-3.7,2.1-6.5,2.1c-1.9,0-3.4-0.3-4.5-0.8v-3.6c1.4,0.8,2.9,1.3,4.4,1.3c1.4,0,2.6-0.4,3.4-1.1s1.2-1.8,1.2-3.1v-1.1h-0.1c-1,1.6-2.4,2.4-4.4,2.4c-1.8,0-3.2-0.6-4.2-1.9s-1.6-2.9-1.6-5.1c0-2.3,0.6-4.2,1.7-5.6s2.7-2.1,4.6-2.1c1.7,0,3,0.7,3.8,2h0.1V518h4.3V530.4z M-807.8,525.2v-1.1c0-0.9-0.3-1.7-0.8-2.3c-0.5-0.6-1.2-0.9-2-0.9c-1,0-1.7,0.4-2.3,1.1c-0.5,0.7-0.8,1.8-0.8,3.2c0,1.2,0.3,2.1,0.8,2.8c0.5,0.7,1.2,1,2.1,1c0.9,0,1.6-0.3,2.2-1C-808.1,527.3-807.8,526.4-807.8,525.2z"/><path fill="#FFFFFF" d="M-791,521.8c-0.5-0.3-1.1-0.4-1.8-0.4c-0.9,0-1.7,0.3-2.2,1c-0.5,0.7-0.8,1.6-0.8,2.8v6.7h-4.3v-14h4.3v2.6h0.1c0.7-1.9,1.9-2.8,3.7-2.8c0.4,0,0.8,0.1,1.1,0.2V521.8z"/><path fill="#FFFFFF" d="M-777.4,532h-4.1v-2h-0.1c-0.9,1.6-2.3,2.4-4.2,2.4c-1.3,0-2.4-0.4-3.2-1.2c-0.8-0.8-1.2-1.8-1.2-3.1c0-2.7,1.6-4.3,4.8-4.7l3.8-0.5c0-1.5-0.8-2.3-2.5-2.3c-1.7,0-3.3,0.5-4.8,1.5v-3.3c0.5-0.3,1.4-0.6,2.5-0.8c1.1-0.2,2.1-0.4,2.8-0.4c4,0,6,2,6,6V532z M-781.5,525.3l-2.5,0.3c-1.4,0.2-2.1,0.8-2.1,1.9c0,0.5,0.2,0.9,0.5,1.2c0.3,0.3,0.8,0.5,1.4,0.5c0.8,0,1.5-0.3,2-0.8c0.5-0.6,0.8-1.3,0.8-2.1V525.3z"/><path fill="#FFFFFF" d="M-751.9,532h-4.3v-8c0-2-0.7-3-2.2-3c-0.7,0-1.3,0.3-1.7,0.9c-0.4,0.6-0.7,1.4-0.7,2.3v7.8h-4.3v-8.1c0-2-0.7-3-2.2-3c-0.7,0-1.3,0.3-1.8,0.9c-0.4,0.6-0.7,1.4-0.7,2.4v7.8h-4.3v-14h4.3v2.2h0.1c0.4-0.8,1.1-1.4,1.9-1.8c0.8-0.5,1.7-0.7,2.6-0.7c2,0,3.3,0.9,4.1,2.6c1.1-1.7,2.6-2.6,4.7-2.6c3,0,4.6,1.9,4.6,5.6V532z"/><path fill="#FFFFFF" d="M-726.4,532h-4.3v-8c0-2-0.7-3-2.2-3c-0.7,0-1.3,0.3-1.7,0.9c-0.4,0.6-0.7,1.4-0.7,2.3v7.8h-4.3v-8.1c0-2-0.7-3-2.2-3c-0.7,0-1.3,0.3-1.8,0.9c-0.4,0.6-0.7,1.4-0.7,2.4v7.8h-4.3v-14h4.3v2.2h0.1c0.4-0.8,1.1-1.4,1.9-1.8c0.8-0.5,1.7-0.7,2.6-0.7c2,0,3.3,0.9,4.1,2.6c1.1-1.7,2.6-2.6,4.7-2.6c3,0,4.6,1.9,4.6,5.6V532z"/><path fill="#FFFFFF" d="M-711.5,532h-4.1v-2h-0.1c-0.9,1.6-2.3,2.4-4.2,2.4c-1.3,0-2.4-0.4-3.2-1.2c-0.8-0.8-1.2-1.8-1.2-3.1c0-2.7,1.6-4.3,4.8-4.7l3.8-0.5c0-1.5-0.8-2.3-2.5-2.3c-1.7,0-3.3,0.5-4.8,1.5v-3.3c0.5-0.3,1.4-0.6,2.5-0.8c1.1-0.2,2.1-0.4,2.8-0.4c4,0,6,2,6,6V532z M-715.6,525.3l-2.5,0.3c-1.4,0.2-2.1,0.8-2.1,1.9c0,0.5,0.2,0.9,0.5,1.2s0.8,0.5,1.4,0.5c0.8,0,1.5-0.3,2-0.8c0.5-0.6,0.8-1.3,0.8-2.1V525.3z"/><path fill="#FFFFFF" d="M-699.1,521.8c-0.5-0.3-1.1-0.4-1.8-0.4c-0.9,0-1.7,0.3-2.2,1c-0.5,0.7-0.8,1.6-0.8,2.8v6.7h-4.3v-14h4.3v2.6h0.1c0.7-1.9,1.9-2.8,3.7-2.8c0.4,0,0.8,0.1,1.1,0.2V521.8z"/><path fill="#FFFFFF" d="M-813,548.5c-0.3-0.3-0.9-0.4-1.5-0.4c-1.7,0-2.6,1.2-2.6,3.5v2.3h3.7v1.1h-3.7V568h-1.3v-12.9h-2.5V554h2.5v-2.4c0-1.4,0.4-2.5,1.1-3.3c0.7-0.8,1.7-1.2,2.8-1.2c0.6,0,1.1,0.1,1.5,0.3V548.5z"/><path fill="#FFFFFF" d="M-805.9,568.3c-2,0-3.6-0.7-4.8-2c-1.2-1.3-1.8-3.1-1.8-5.3c0-2.3,0.6-4.1,1.8-5.4c1.2-1.3,2.9-2,4.9-2c2,0,3.6,0.7,4.7,2c1.2,1.3,1.7,3.1,1.7,5.4c0,2.2-0.6,4-1.8,5.3S-803.9,568.3-805.9,568.3z M-805.8,554.8c-1.6,0-3,0.6-3.9,1.7c-1,1.1-1.5,2.7-1.5,4.6c0,1.9,0.5,3.3,1.5,4.4s2.3,1.7,3.9,1.7c1.7,0,3-0.5,3.9-1.6c0.9-1.1,1.4-2.6,1.4-4.6c0-2-0.5-3.5-1.4-4.6S-804.1,554.8-805.8,554.8z"/><path fill="#FFFFFF" d="M-789.3,555.3c-0.4-0.3-0.9-0.5-1.5-0.5c-0.7,0-1.4,0.3-2,0.8c-0.6,0.5-1.1,1.3-1.4,2.3c-0.3,1-0.5,2.2-0.5,3.5v6.6h-1.2v-14h1.2v3.1h0.1c0.3-1.1,0.8-1.9,1.5-2.5c0.7-0.6,1.5-0.9,2.4-0.9c0.5,0,1,0.1,1.4,0.2V555.3z"/><path fill="#FFFFFF" d="M-770.1,568l-2.6-5.7c-0.5-1.1-1-1.9-1.6-2.4c-0.5-0.4-1.2-0.6-2.1-0.6h-2.4v8.7h-1.4v-19.6h5.4c1.7,0,3,0.5,4,1.4c1,0.9,1.5,2.2,1.5,3.7c0,1.4-0.4,2.6-1.2,3.5s-2,1.6-3.4,1.8v0.1c0.8,0.3,1.5,1.3,2.3,2.8l2.9,6.2H-770.1z M-778.8,549.6v8.4h3.4c1.5,0,2.7-0.4,3.6-1.2c0.9-0.8,1.3-1.9,1.3-3.2c0-1.3-0.4-2.2-1.2-2.9c-0.8-0.7-1.9-1.1-3.4-1.1H-778.8z"/><path fill="#FFFFFF" d="M-755.8,568v-2.5h-0.1c-1,1.9-2.5,2.9-4.5,2.9c-3.3,0-5-2.1-5-6.2V554h1.3v7.8c0,1.9,0.3,3.2,0.9,4.1c0.6,0.9,1.6,1.3,3,1.3c1.3,0,2.4-0.5,3.2-1.5s1.2-2.2,1.2-3.8V554h1.3v14H-755.8z"/><path fill="#FFFFFF" d="M-750.9,567.3v-1.5c0.4,0.4,1,0.7,1.7,0.9c0.7,0.3,1.3,0.4,1.8,0.4c2.2,0,3.3-0.9,3.3-2.7c0-0.6-0.2-1.1-0.7-1.5c-0.4-0.4-1.2-0.9-2.4-1.4c-1.3-0.5-2.2-1.1-2.8-1.7c-0.6-0.6-0.9-1.4-0.9-2.4c0-1.1,0.4-2,1.3-2.7s1.9-1.1,3.2-1.1c1.2,0,2.2,0.2,3.1,0.7v1.4c-1-0.7-2.1-1-3.2-1c-0.9,0-1.7,0.2-2.2,0.7c-0.6,0.5-0.9,1.1-0.9,1.9c0,0.5,0.1,1,0.3,1.3c0.2,0.3,0.5,0.6,0.9,0.9c0.4,0.3,1,0.6,1.8,0.9c1.5,0.7,2.5,1.3,3,1.8s0.8,1.3,0.8,2.2c0,1.1-0.4,2.1-1.3,2.8s-2,1.1-3.4,1.1C-748.9,568.3-750,568-750.9,567.3z"/><path fill="#FFFFFF" d="M-740.2,567.3v-1.5c0.4,0.4,1,0.7,1.7,0.9c0.7,0.3,1.3,0.4,1.8,0.4c2.2,0,3.3-0.9,3.3-2.7c0-0.6-0.2-1.1-0.7-1.5c-0.4-0.4-1.2-0.9-2.4-1.4c-1.3-0.5-2.2-1.1-2.8-1.7c-0.6-0.6-0.9-1.4-0.9-2.4c0-1.1,0.4-2,1.3-2.7s1.9-1.1,3.2-1.1c1.2,0,2.2,0.2,3.1,0.7v1.4c-1-0.7-2.1-1-3.2-1c-0.9,0-1.7,0.2-2.2,0.7c-0.6,0.5-0.9,1.1-0.9,1.9c0,0.5,0.1,1,0.3,1.3c0.2,0.3,0.5,0.6,0.9,0.9c0.4,0.3,1,0.6,1.8,0.9c1.5,0.7,2.5,1.3,3,1.8s0.8,1.3,0.8,2.2c0,1.1-0.4,2.1-1.3,2.8s-2,1.1-3.4,1.1C-738.1,568.3-739.3,568-740.2,567.3z"/><path fill="#FFFFFF" d="M-728.1,550.4c-0.3,0-0.5-0.1-0.7-0.3s-0.3-0.5-0.3-0.8c0-0.3,0.1-0.5,0.3-0.7c0.2-0.2,0.5-0.3,0.7-0.3c0.3,0,0.5,0.1,0.7,0.3c0.2,0.2,0.3,0.4,0.3,0.7c0,0.3-0.1,0.5-0.3,0.8S-727.8,550.4-728.1,550.4z M-728.7,568v-14h1.3v14H-728.7z"/><path fill="#FFFFFF" d="M-714.7,568v-2.8h-0.1c-0.4,1-1.1,1.7-2,2.3s-1.8,0.9-2.8,0.9c-1.3,0-2.3-0.4-3.1-1.1c-0.8-0.7-1.2-1.7-1.2-2.9c0-2.5,1.6-3.9,4.9-4.4l4.3-0.6c0-3-1.1-4.5-3.4-4.5c-1.5,0-3,0.6-4.5,1.9v-1.5c0.5-0.4,1.2-0.8,2.1-1s1.7-0.4,2.5-0.4c1.4,0,2.6,0.4,3.3,1.3s1.2,2.2,1.2,3.9v9.1H-714.7z M-722.6,564.3c0,0.9,0.3,1.6,0.8,2.1s1.3,0.8,2.3,0.8c1.4,0,2.5-0.5,3.4-1.5s1.3-2.3,1.3-3.8v-1.4l-3.9,0.6c-1.6,0.2-2.6,0.6-3.2,1.1S-722.6,563.3-722.6,564.3z"/><path fill="#FFFFFF" d="M-699.9,568v-8.1c0-3.4-1.2-5-3.6-5c-1.3,0-2.4,0.5-3.3,1.5s-1.3,2.2-1.3,3.7v8h-1.3v-14h1.3v2.5h0.1c1-1.9,2.6-2.9,4.8-2.9c1.5,0,2.7,0.5,3.5,1.5c0.8,1,1.2,2.4,1.2,4.3v8.5H-699.9z"/><path fill="#FFFFFF" d="M-807.7,603.3v-1.5c0.4,0.4,1,0.7,1.7,0.9c0.7,0.3,1.3,0.4,1.8,0.4c2.2,0,3.3-0.9,3.3-2.7c0-0.6-0.2-1.1-0.7-1.5c-0.4-0.4-1.2-0.9-2.4-1.4c-1.3-0.5-2.2-1.1-2.8-1.7c-0.6-0.6-0.9-1.4-0.9-2.4c0-1.1,0.4-2,1.3-2.7s1.9-1.1,3.2-1.1c1.2,0,2.2,0.2,3.1,0.7v1.4c-1-0.7-2.1-1-3.2-1c-0.9,0-1.7,0.2-2.2,0.7c-0.6,0.5-0.9,1.1-0.9,1.9c0,0.5,0.1,1,0.3,1.3c0.2,0.3,0.5,0.6,0.9,0.9c0.4,0.3,1,0.6,1.8,0.9c1.5,0.7,2.5,1.3,3,1.8c0.5,0.6,0.8,1.3,0.8,2.2c0,1.1-0.4,2.1-1.3,2.8c-0.9,0.7-2,1.1-3.4,1.1C-805.7,604.3-806.8,604-807.7,603.3z"/><path fill="#FFFFFF" d="M-795,601.5L-795,601.5l-0.1,8.9h-1.3V590h1.3v2.9h0.1c0.5-1,1.2-1.8,2.2-2.4s2-0.8,3.1-0.8c1.8,0,3.1,0.6,4.1,1.8s1.5,2.9,1.5,5c0,1.5-0.3,2.9-0.8,4.1s-1.3,2.1-2.2,2.8c-1,0.7-2,1-3.2,1C-792.4,604.3-794,603.3-795,601.5z M-795,596.3v1.8c0,1.5,0.5,2.7,1.4,3.7c0.9,1,2.1,1.5,3.4,1.5c1.4,0,2.6-0.6,3.5-1.9s1.3-2.8,1.3-4.8c0-1.7-0.4-3.1-1.2-4.2s-1.9-1.6-3.3-1.6c-1,0-1.9,0.2-2.7,0.7s-1.4,1.1-1.8,2C-794.8,594.3-795,595.2-795,596.3z"/><path fill="#FFFFFF" d="M-780.4,597c0,1.9,0.4,3.5,1.3,4.5c0.9,1.1,2.1,1.6,3.7,1.6c1.6,0,3.1-0.6,4.6-1.7v1.3c-1.5,1-3.1,1.5-4.9,1.5c-1.8,0-3.3-0.7-4.4-2s-1.6-3.1-1.6-5.4c0-1.3,0.3-2.6,0.8-3.7c0.5-1.1,1.3-2,2.3-2.6c1-0.6,2-0.9,3.2-0.9c1.7,0,3,0.6,4,1.8c0.9,1.2,1.4,2.9,1.4,5v0.6H-780.4z M-771.4,595.9c-0.1-1.6-0.4-2.9-1.2-3.8s-1.7-1.3-3-1.3c-1.3,0-2.4,0.4-3.3,1.3c-0.9,0.9-1.4,2.1-1.6,3.8H-771.4z"/><path fill="#FFFFFF" d="M-758.4,604v-2.8h-0.1c-0.4,1-1.1,1.7-2,2.3s-1.8,0.9-2.8,0.9c-1.3,0-2.3-0.4-3.1-1.1c-0.8-0.7-1.2-1.7-1.2-2.9c0-2.5,1.6-3.9,4.9-4.4l4.3-0.6c0-3-1.1-4.5-3.4-4.5c-1.5,0-3,0.6-4.5,1.9v-1.5c0.5-0.4,1.2-0.8,2.1-1s1.7-0.4,2.5-0.4c1.4,0,2.6,0.4,3.3,1.3c0.8,0.9,1.2,2.2,1.2,3.9v9.1H-758.4z M-766.2,600.3c0,0.9,0.3,1.6,0.8,2.1c0.6,0.5,1.3,0.8,2.3,0.8c1.4,0,2.5-0.5,3.4-1.5s1.3-2.3,1.3-3.8v-1.4l-3.9,0.6c-1.6,0.2-2.6,0.6-3.2,1.1S-766.2,599.3-766.2,600.3z"/><path fill="#FFFFFF" d="M-745,604l-6.7-6.9h-0.1v6.9h-1.3v-20.7h1.3v13.4h0.1l6.4-6.6h1.6l-6.6,6.8l7.2,7.2H-745z"/><path fill="#FFFFFF" d="M-740.4,597c0,1.9,0.4,3.5,1.3,4.5c0.9,1.1,2.1,1.6,3.7,1.6c1.6,0,3.1-0.6,4.6-1.7v1.3c-1.5,1-3.1,1.5-4.9,1.5c-1.8,0-3.3-0.7-4.4-2s-1.6-3.1-1.6-5.4c0-1.3,0.3-2.6,0.8-3.7s1.3-2,2.3-2.6s2-0.9,3.2-0.9c1.7,0,3,0.6,4,1.8c0.9,1.2,1.4,2.9,1.4,5v0.6H-740.4z M-731.4,595.9c-0.1-1.6-0.4-2.9-1.2-3.8s-1.7-1.3-3-1.3c-1.3,0-2.4,0.4-3.3,1.3c-0.9,0.9-1.4,2.1-1.6,3.8H-731.4z"/><path fill="#FFFFFF" d="M-720.1,591.3c-0.4-0.3-0.9-0.5-1.5-0.5c-0.7,0-1.4,0.3-2,0.8c-0.6,0.5-1.1,1.3-1.4,2.3s-0.5,2.2-0.5,3.5v6.6h-1.2v-14h1.2v3.1h0.1c0.3-1.1,0.8-1.9,1.5-2.5c0.7-0.6,1.5-0.9,2.4-0.9c0.5,0,1,0.1,1.4,0.2V591.3z"/><path fill="#FFFFFF" d="M-718.1,603.3v-1.5c0.4,0.4,1,0.7,1.7,0.9s1.3,0.4,1.8,0.4c2.2,0,3.3-0.9,3.3-2.7c0-0.6-0.2-1.1-0.7-1.5s-1.2-0.9-2.4-1.4c-1.3-0.5-2.2-1.1-2.8-1.7s-0.9-1.4-0.9-2.4c0-1.1,0.4-2,1.3-2.7s1.9-1.1,3.2-1.1c1.2,0,2.2,0.2,3.1,0.7v1.4c-1-0.7-2.1-1-3.2-1c-0.9,0-1.7,0.2-2.2,0.7s-0.9,1.1-0.9,1.9c0,0.5,0.1,1,0.3,1.3s0.5,0.6,0.9,0.9s1,0.6,1.8,0.9c1.5,0.7,2.5,1.3,3,1.8c0.5,0.6,0.8,1.3,0.8,2.2c0,1.1-0.4,2.1-1.3,2.8c-0.9,0.7-2,1.1-3.4,1.1C-716.1,604.3-717.2,604-718.1,603.3z"/></g></svg>