<svg version="1.1" xmlns="http://www.w3.org/2000/svg" x="0px" y="0px" viewBox="0 0 200 200" enable-background="new 0 0 200 200"><rect fill="none" width="200" height="200"/><circle id="XMLID_2_" opacity="0.9" fill="#F03B4C" enable-background="new  " cx="100" cy="100" r="100"/><g><path fill="#FFFFFF" d="M64.9,61.4h-9.4V45.7h9v2.9H59V52h5.1v2.9H59v3.6h5.9V61.4z"/><path fill="#FFFFFF" d="M81.4,61.4h-3.6l-7.2-10.9l0,0v10.9h-3.3V45.7h3.8L78,56.3l0,0V45.7h3.3L81.4,61.4L81.4,61.4z"/><path fill="#FFFFFF" d="M97.8,60.3c-1.5,0.9-3.4,1.3-5.7,1.3c-2.5,0-4.5-0.7-6-2.1c-1.5-1.4-2.2-3.3-2.2-5.8c0-1.6,0.4-3.1,1.1-4.4c0.7-1.3,1.8-2.3,3.1-3c1.3-0.7,2.8-1,4.5-1c1.6,0,3.1,0.2,4.4,0.7v3.3c-1.2-0.7-2.7-1-4.4-1c-1,0-1.8,0.2-2.6,0.7c-0.8,0.4-1.3,1-1.8,1.8c-0.4,0.8-0.6,1.7-0.6,2.7c0,1.6,0.4,2.8,1.2,3.7c0.8,0.9,1.9,1.3,3.4,1.3c0.8,0,1.5-0.1,2-0.4V55h-3.1v-2.8h6.7V60.3z"/><path fill="#FFFFFF" d="M110,61.4h-9.3V45.7h3.5v12.8h5.8V61.4z"/><path fill="#FFFFFF" d="M115.6,61.4H112V45.7h3.5L115.6,61.4L115.6,61.4z"/><path fill="#FFFFFF" d="M128.6,57c0,1.5-0.5,2.6-1.6,3.5c-1.1,0.8-2.6,1.2-4.5,1.2c-1.6,0-3-0.3-4.1-0.9v-3.5c1.3,1.1,2.6,1.6,4.1,1.6c0.7,0,1.3-0.1,1.7-0.4c0.4-0.3,0.6-0.7,0.6-1.2s-0.2-0.9-0.6-1.2s-1.2-0.8-2.3-1.4c-2.4-1.1-3.6-2.7-3.6-4.6c0-1.4,0.5-2.5,1.6-3.4c1-0.8,2.4-1.3,4.2-1.3c1.5,0,2.8,0.2,3.8,0.6v3.3c-1.1-0.7-2.3-1.1-3.6-1.1c-0.7,0-1.2,0.1-1.6,0.4s-0.6,0.7-0.6,1.2s0.2,0.9,0.5,1.2s1,0.7,2,1.2c1.5,0.7,2.5,1.4,3.1,2.1C128.2,55,128.6,55.9,128.6,57z"/><path fill="#FFFFFF" d="M144.5,61.4H141V55h-6.5v6.4H131V45.7h3.5V52h6.5v-6.3h3.5V61.4z"/><path fill="#FFFFFF" d="M55.6,92.3c-1.5,0.9-3.4,1.3-5.7,1.3c-2.5,0-4.5-0.7-6-2.1s-2.2-3.3-2.2-5.8c0-1.6,0.4-3.1,1.1-4.4c0.7-1.3,1.8-2.3,3.1-3s2.8-1,4.5-1c1.6,0,3.1,0.2,4.4,0.7v3.3c-1.2-0.7-2.7-1-4.4-1c-1,0-1.8,0.2-2.6,0.7c-0.8,0.4-1.3,1-1.8,1.8c-0.4,0.8-0.6,1.7-0.6,2.7c0,1.6,0.4,2.8,1.2,3.7c0.8,0.9,1.9,1.3,3.4,1.3c0.8,0,1.5-0.1,2-0.4V87h-3.1v-2.8h6.7C55.6,84.2,55.6,92.3,55.6,92.3z"/><path fill="#FFFFFF" d="M70.6,93.4h-4.1l-1.6-4c-0.5-1.3-1.2-2-2.1-2H62v6h-3.5V77.7h5.6c3.8,0,5.7,1.4,5.7,4.3c0,1.1-0.3,2-0.9,2.8s-1.5,1.3-2.6,1.6l0,0c0.9,0.3,1.7,1.1,2.2,2.4L70.6,93.4z M66.1,82.4c0-1.4-0.8-2.1-2.5-2.1H62v4.4h1.5c0.7,0,1.3-0.2,1.8-0.6C65.9,83.6,66.1,83.1,66.1,82.4z"/><path fill="#FFFFFF" d="M86.5,93.4h-3.9l-1.1-3.5h-5.6l-1.1,3.5H71l5.7-15.7h4.2L86.5,93.4z M80.7,87.2l-2-6.1h-0.1l-2,6.1H80.7z"/><path fill="#FFFFFF" d="M106.2,93.4h-3.5V81.6h-0.1l-4,11.7h-2.9l-4.1-11.5h-0.1v11.5h-3.2V77.7h5.2l3.8,11h0.1l3.8-11h5C106.2,77.7,106.2,93.4,106.2,93.4z"/><path fill="#FFFFFF" d="M127.5,93.4H124V81.6h-0.1l-4,11.7H117l-4.1-11.5h-0.1v11.5h-3.2V77.7h5.2l3.8,11h0.1l3.8-11h5C127.5,77.7,127.5,93.4,127.5,93.4z"/><path fill="#FFFFFF" d="M144.8,93.4H141l-1.1-3.5h-5.6l-1.1,3.5h-3.8l5.7-15.7h4.2L144.8,93.4z M139,87.2l-2-6.1h-0.1l-2,6.1H139z"/><path fill="#FFFFFF" d="M158.7,93.4h-4.1l-1.6-4c-0.5-1.3-1.2-2-2.1-2h-0.8v6h-3.5V77.7h5.6c3.8,0,5.7,1.4,5.7,4.3c0,1.1-0.3,2-0.9,2.8s-1.5,1.3-2.6,1.6l0,0c0.9,0.3,1.7,1.1,2.2,2.4L158.7,93.4z M154.2,82.4c0-1.4-0.8-2.1-2.5-2.1h-1.6v4.4h1.5c0.7,0,1.3-0.2,1.8-0.6C154,83.6,154.2,83.1,154.2,82.4z"/><path fill="#191919" d="M42.6,111.3h-6.1v5.4h5.7v1.7h-5.7v6.9h-1.8v-15.7h8v1.7H42.6z"/><path fill="#191919" d="M59.3,117.3c0,1.7-0.3,3.1-0.9,4.4c-0.6,1.3-1.5,2.2-2.6,2.9c-1.1,0.7-2.5,1-3.9,1s-2.7-0.3-3.8-1s-2-1.6-2.6-2.8c-0.6-1.2-0.9-2.6-0.9-4.1c0-1.7,0.3-3.1,0.9-4.4c0.6-1.3,1.5-2.2,2.7-2.9c1.2-0.7,2.5-1,4-1c1.4,0,2.6,0.3,3.7,1c1.1,0.7,2,1.6,2.6,2.8S59.3,115.8,59.3,117.3z M57.4,117.6c0-2-0.5-3.6-1.4-4.8s-2.3-1.7-4-1.7c-1.1,0-2,0.3-2.9,0.8c-0.8,0.5-1.5,1.3-2,2.3s-0.7,2.1-0.7,3.3c0,1.3,0.2,2.4,0.7,3.4c0.4,1,1.1,1.7,1.9,2.3c0.8,0.5,1.8,0.8,2.8,0.8c1.7,0,3.1-0.6,4.1-1.7C56.9,121.1,57.4,119.6,57.4,117.6z"/><path fill="#191919" d="M72.4,125.4h-2.2l-2.1-4.7c-0.6-1.3-1.4-1.9-2.4-1.9h-1.6v6.7h-1.8v-15.7H67c1.5,0,2.7,0.4,3.5,1.1s1.3,1.8,1.3,3c0,1.1-0.3,2.1-1,2.8c-0.6,0.8-1.5,1.3-2.5,1.5l0,0c0.6,0.2,1.1,0.8,1.6,1.9L72.4,125.4z M69.8,114c0-0.8-0.3-1.5-0.8-2s-1.3-0.7-2.4-0.7h-2.5v5.7h2.4c1,0,1.8-0.3,2.4-0.8C69.5,115.6,69.8,114.9,69.8,114z"/><path fill="#191919" d="M92.5,125.4h-2.2l-2.1-4.7c-0.6-1.3-1.4-1.9-2.4-1.9h-1.6v6.7h-1.8v-15.7h4.7c1.5,0,2.7,0.4,3.5,1.1s1.3,1.8,1.3,3c0,1.1-0.3,2.1-1,2.8c-0.6,0.8-1.5,1.3-2.5,1.5l0,0c0.6,0.2,1.1,0.8,1.6,1.9L92.5,125.4z M89.9,114c0-0.8-0.3-1.5-0.8-2s-1.3-0.7-2.4-0.7h-2.5v5.7h2.4c1,0,1.8-0.3,2.4-0.8C89.6,115.6,89.9,114.9,89.9,114z"/><path fill="#191919" d="M106.6,119c0,4.4-2,6.6-6,6.6c-3.8,0-5.7-2.1-5.7-6.4v-9.6h1.8v9.5c0,3.2,1.4,4.8,4.1,4.8c2.6,0,3.9-1.6,3.9-4.7v-9.6h1.8L106.6,119L106.6,119z"/><path fill="#191919" d="M118.4,121.4c0,1.3-0.5,2.4-1.4,3.1c-0.9,0.8-2.2,1.1-3.8,1.1c-0.6,0-1.2-0.1-2-0.3c-0.7-0.2-1.3-0.4-1.6-0.6v-2.2c0.4,0.4,1,0.7,1.8,1c0.7,0.3,1.4,0.4,2,0.4c2,0,3-0.8,3-2.4c0-0.7-0.2-1.2-0.6-1.7s-1.3-1.1-2.6-1.9c-1.3-0.7-2.2-1.4-2.7-2.1s-0.8-1.5-0.8-2.4c0-1.2,0.5-2.2,1.4-3s2.1-1.2,3.6-1.2c1.4,0,2.4,0.2,3.1,0.6v2.1c-0.8-0.6-1.9-1-3.2-1c-0.9,0-1.6,0.2-2.1,0.7c-0.5,0.4-0.8,1-0.8,1.7c0,0.5,0.1,0.9,0.2,1.2s0.4,0.6,0.8,0.9s1,0.7,2,1.2c1.4,0.8,2.4,1.5,2.9,2.2C118.2,119.7,118.4,120.5,118.4,121.4z"/><path fill="#191919" d="M129.5,121.4c0,1.3-0.5,2.4-1.4,3.1c-0.9,0.8-2.2,1.1-3.8,1.1c-0.6,0-1.2-0.1-2-0.3c-0.7-0.2-1.3-0.4-1.6-0.6v-2.2c0.4,0.4,1,0.7,1.8,1c0.7,0.3,1.4,0.4,2,0.4c2,0,3-0.8,3-2.4c0-0.7-0.2-1.2-0.6-1.7s-1.3-1.1-2.6-1.9c-1.3-0.7-2.2-1.4-2.7-2.1s-0.8-1.5-0.8-2.4c0-1.2,0.5-2.2,1.4-3s2.1-1.2,3.6-1.2c1.4,0,2.4,0.2,3.1,0.6v2.1c-0.8-0.6-1.9-1-3.2-1c-0.9,0-1.6,0.2-2.1,0.7c-0.5,0.4-0.8,1-0.8,1.7c0,0.5,0.1,0.9,0.2,1.2s0.4,0.6,0.8,0.9s1,0.7,2,1.2c1.4,0.8,2.4,1.5,2.9,2.2C129.2,119.7,129.5,120.5,129.5,121.4z"/><path fill="#191919" d="M134.3,125.4h-1.8v-15.7h1.8V125.4z"/><path fill="#191919" d="M150.5,125.4h-2l-1.7-4.4h-6.7l-1.6,4.4h-2l6-15.7h1.9L150.5,125.4z M146.2,119.3l-2.7-7.3l0,0l-2.7,7.3H146.2z"/><path fill="#191919" d="M165.3,125.4h-2.2l-8.5-13.1h-0.1v13.1h-1.8v-15.7h2.4l8.4,13.1l0,0v-13.1h1.8L165.3,125.4L165.3,125.4z"/><path fill="#191919" d="M61.5,153.4c0,1.3-0.5,2.4-1.4,3.1c-0.9,0.8-2.2,1.1-3.8,1.1c-0.6,0-1.2-0.1-2-0.3c-0.7-0.2-1.3-0.4-1.6-0.6v-2.2c0.4,0.4,1,0.7,1.8,1c0.7,0.3,1.4,0.4,2,0.4c2,0,3-0.8,3-2.4c0-0.7-0.2-1.2-0.6-1.7c-0.4-0.5-1.3-1.1-2.6-1.9c-1.3-0.7-2.2-1.4-2.7-2.1c-0.5-0.7-0.8-1.5-0.8-2.4c0-1.2,0.5-2.2,1.4-3s2.1-1.2,3.6-1.2c1.4,0,2.4,0.2,3.1,0.6v2.1c-0.8-0.6-1.9-1-3.2-1c-0.9,0-1.6,0.2-2.1,0.7c-0.6,0.4-0.8,1-0.8,1.7c0,0.5,0.1,0.9,0.2,1.2s0.4,0.6,0.8,0.9c0.4,0.3,1,0.7,2,1.2c1.4,0.8,2.4,1.5,2.9,2.2C61.3,151.7,61.5,152.5,61.5,153.4z"/><path fill="#191919" d="M74.2,146.4c0,1.5-0.5,2.7-1.6,3.7c-1,0.9-2.4,1.4-4.1,1.4h-2.1v5.9h-1.8v-15.7h4.3c1.7,0,3,0.4,3.9,1.2S74.2,144.9,74.2,146.4z M72.2,146.5c0-2.1-1.2-3.1-3.7-3.1h-2.2v6.4h1.9c1.3,0,2.2-0.3,2.9-0.9S72.2,147.5,72.2,146.5z"/><path fill="#191919" d="M85.3,157.4H77v-15.7h8v1.7h-6.1v5.2h5.7v1.7h-5.7v5.5h6.5L85.3,157.4L85.3,157.4z"/><path fill="#191919" d="M100.4,157.4h-2l-1.7-4.4H90l-1.6,4.4h-2l6-15.7h1.9L100.4,157.4z M96.1,151.3l-2.7-7.3l0,0l-2.7,7.3H96.1z"/><path fill="#191919" d="M113.5,157.4h-2.6l-6.5-7.6l0,0v7.6h-1.8v-15.7h1.8v7.3l0,0l6.3-7.3h2.3l-6.7,7.5L113.5,157.4z"/><path fill="#191919" d="M123.8,157.4h-8.3v-15.7h8v1.7h-6.1v5.2h5.7v1.7h-5.7v5.5h6.5L123.8,157.4L123.8,157.4z"/><path fill="#191919" d="M136.8,157.4h-2.2l-2.1-4.7c-0.6-1.3-1.4-1.9-2.4-1.9h-1.6v6.7h-1.8v-15.7h4.7c1.5,0,2.7,0.4,3.5,1.1c0.8,0.7,1.3,1.8,1.3,3c0,1.1-0.3,2.1-1,2.8c-0.6,0.8-1.5,1.3-2.5,1.5l0,0c0.6,0.2,1.1,0.8,1.6,1.9L136.8,157.4z M134.2,146c0-0.8-0.3-1.5-0.8-2s-1.3-0.7-2.4-0.7h-2.5v5.7h2.4c1,0,1.8-0.3,2.4-0.8C133.9,147.6,134.2,146.9,134.2,146z"/><path fill="#191919" d="M147.4,153.4c0,1.3-0.5,2.4-1.4,3.1c-0.9,0.8-2.2,1.1-3.8,1.1c-0.6,0-1.2-0.1-2-0.3c-0.7-0.2-1.3-0.4-1.6-0.6v-2.2c0.4,0.4,1,0.7,1.8,1c0.7,0.3,1.4,0.4,2,0.4c2,0,3-0.8,3-2.4c0-0.7-0.2-1.2-0.6-1.7c-0.4-0.5-1.3-1.1-2.6-1.9c-1.3-0.7-2.2-1.4-2.7-2.1s-0.8-1.5-0.8-2.4c0-1.2,0.5-2.2,1.4-3s2.1-1.2,3.6-1.2c1.4,0,2.4,0.2,3.1,0.6v2.1c-0.8-0.6-1.9-1-3.2-1c-0.9,0-1.6,0.2-2.1,0.7c-0.5,0.4-0.8,1-0.8,1.7c0,0.5,0.1,0.9,0.2,1.2s0.4,0.6,0.8,0.9c0.4,0.3,1,0.7,2,1.2c1.4,0.8,2.4,1.5,2.9,2.2C147.2,151.7,147.4,152.5,147.4,153.4z"/></g></svg>
