<svg version="1.1" xmlns="http://www.w3.org/2000/svg" xmlns:xlink="http://www.w3.org/1999/xlink" x="0px" y="0px" viewBox="0 0 1920 270" style="enable-background:new 0 0 1920 270;" xml:space="preserve"><style type="text/css">.st0{fill:#52796F;}.st1{fill:#F1F1F1;}.st2{fill:#E74856;}.st3{fill:#FFFFFF;}.st4{fill:#363636;}.st5{fill:#744DA9;}.st6{fill:#565656;}.st7{fill:#848484;}.st8{fill:#E3E3E3;}</style><rect id="XMLID_1_" class="st0" width="1920" height="270"/><g id="XMLID_121_"><path id="XMLID_263_" d="M255.2,15v240h134V15H255.2z M311.8,22.1h20.9v1.2h-20.9V22.1z M321.6,244.4l-4.4,1v-4.5l4.4-0.9V244.4z M321.6,239l-4.4,0.9v-4.3l4.4-1.1V239z M327.2,243.3l-4.5,1.1v-4.4l4.5-0.9V243.3z M327.2,237.9l-4.5,0.9v-4.5l4.5-1V237.9z M379.3,221.3H265V29.5h114.5L379.3,221.3L379.3,221.3z"/><rect id="XMLID_112_" x="264.8" y="29.2" class="st1" width="114.9" height="192.1"/><rect id="XMLID_111_" x="271.3" y="98.6" class="st2" width="101.9" height="53.8"/><path id="XMLID_110_" class="st3" d="M321.2,129.2c-0.6,0.3-1.3,0.4-2.1,0.4c-0.8,0-1.4-0.2-2-0.5c-0.6-0.4-1-0.8-1.4-1.5c-0.4-0.6-0.5-1.3-0.5-2.1c0-0.9,0.2-1.6,0.5-2.2s0.8-1.2,1.5-1.6c0.6-0.4,1.3-0.5,2.1-0.5c0.7,0,1.3,0.1,1.8,0.4v0.8c-0.6-0.3-1.2-0.4-1.9-0.4s-1.3,0.2-1.7,0.4c-0.4,0.3-0.9,0.8-1.1,1.3c-0.3,0.5-0.4,1.2-0.4,1.9s0.1,1.3,0.3,1.7c0.3,0.5,0.6,1,1,1.2c0.5,0.3,1,0.4,1.6,0.4c0.8,0,1.5-0.2,2-0.5L321.2,129.2L321.2,129.2z"/><path id="XMLID_109_" class="st3" d="M324.4,124.3v5.2h-0.8v-5.2h-1.7v-0.6h4.2v0.6H324.4z"/><path id="XMLID_256_" class="st3" d="M330.3,129.5v-1.1l0,0c-0.2,0.4-0.4,0.7-0.8,0.9c-0.3,0.3-0.7,0.3-1.1,0.3c-0.5,0-1-0.2-1.3-0.4c-0.3-0.3-0.5-0.7-0.5-1.2c0-1.1,0.7-1.6,2-1.9l1.7-0.3c0-1.1-0.4-1.6-1.3-1.6c-0.7,0-1.3,0.3-1.9,0.8v-0.8c0.3-0.2,0.5-0.3,0.9-0.4c0.4-0.1,0.7-0.2,1-0.2c0.7,0,1.1,0.2,1.5,0.5c0.3,0.4,0.5,1,0.5,1.6v3.7L330.3,129.5L330.3,129.5z M327.6,128c0,0.4,0.1,0.6,0.4,0.8c0.3,0.2,0.5,0.3,0.9,0.3c0.5,0,1-0.2,1.3-0.5c0.3-0.3,0.5-0.9,0.5-1.4v-0.6l-1.5,0.2c-0.5,0.1-1,0.3-1.2,0.4C327.6,127.3,327.6,127.5,327.6,128z"/><path id="XMLID_106_" class="st3" d="M334.6,124.3v5.2h-0.8v-5.2h-1.7v-0.6h4.2v0.6H334.6z"/><path id="XMLID_252_" class="st3" d="M341.4,127.7c0,0.5-0.2,1-0.5,1.3c-0.4,0.3-0.8,0.5-1.3,0.5h-2.4v-5.8h0.8v2.3h1.6c0.6,0,1,0.2,1.4,0.4C341.4,126.8,341.4,127.2,341.4,127.7z M340.8,127.7c0-0.4-0.1-0.6-0.3-0.8c-0.3-0.2-0.5-0.3-1-0.3h-1.5v2.2h1.5c0.4,0,0.7-0.1,1-0.3C340.5,128.4,340.8,128.1,340.8,127.7z"/><path id="XMLID_103_" class="st3" d="M346.8,129.5v-4.7l-0.2,0.3l-3.1,4.5h-0.7v-5.8h0.7v4.7c0-0.1,0.1-0.3,0.3-0.4l3.1-4.3h0.7v5.7H346.8L346.8,129.5z"/><path id="XMLID_248_" class="st3" d="M310.7,131.2c-0.2-0.3-1.4-2.5,0-3.8c0.1-0.1,0.2-0.3,0.1-0.5c-0.1-0.2-0.3-0.3-0.4-0.3h-13.1c-0.3,0-0.4,0.2-0.4,0.4v4.4c0,0.3,0.2,0.4,0.4,0.4h13.1l0,0c0.3,0,0.4-0.3,0.4-0.4C310.9,131.3,310.9,131.2,310.7,131.2z M297.5,131.1v-3.7h12.3c-0.3,0.5-0.4,1.1-0.4,1.6h-9.3c-0.2,0-0.3,0.2-0.3,0.3c0,0.2,0.2,0.3,0.3,0.3h9.3c0.1,0.6,0.3,1.1,0.5,1.6L297.5,131.1L297.5,131.1z"/><path id="XMLID_244_" class="st3" d="M299.2,125.5h4.1c0.1,0,0.2-0.1,0.2-0.2v-1.8h0.8v1.8c0,0.1,0.1,0.2,0.2,0.2h4.1c0.1,0,0.2-0.1,0.2-0.2v-2.6v-0.1l-2-3.4c0-0.1-0.1-0.1-0.2-0.1c-0.1,0-0.2,0.1-0.2,0.2l-0.1,0.6c0,0,0,0.1,0,0.2l1.4,2.5H300l1.4-2.5c0,0,0-0.1,0-0.2l-0.2-0.6c0-0.1-0.1-0.2-0.2-0.2s-0.2,0-0.2,0.1l-2,3.4v0.1v2.6C299,125.5,299,125.5,299.2,125.5z M305,123.3h3.1v1.6H305V123.3z M299.9,123.3h3.1v1.6h-3.1V123.3z"/><path id="XMLID_97_" class="st4" d="M304.6,67.1c-0.4,0.3-0.9,0.4-1.5,0.4c-0.5,0-1-0.1-1.3-0.4c-0.3-0.3-0.7-0.5-0.9-1c-0.3-0.4-0.4-0.9-0.4-1.4s0.1-1.1,0.4-1.6c0.3-0.4,0.5-0.8,1-1.1c0.4-0.3,0.9-0.3,1.5-0.3c0.5,0,1,0.1,1.3,0.3v0.7c-0.4-0.3-0.8-0.4-1.3-0.4c-0.4,0-0.8,0.1-1.1,0.3c-0.3,0.2-0.5,0.4-0.8,0.8c-0.2,0.4-0.3,0.8-0.3,1.2c0,0.4,0.1,0.8,0.3,1.1c0.2,0.4,0.4,0.6,0.7,0.8c0.3,0.2,0.6,0.3,1,0.3c0.5,0,1-0.1,1.4-0.4L304.6,67.1L304.6,67.1z"/><path id="XMLID_240_" class="st4" d="M309,65.4c0,0.6-0.2,1.1-0.5,1.5c-0.4,0.3-0.8,0.5-1.4,0.5c-0.6,0-1-0.2-1.4-0.5c-0.4-0.4-0.5-0.9-0.5-1.5c0-0.6,0.2-1.1,0.5-1.6c0.3-0.4,0.9-0.5,1.5-0.5c0.6,0,1,0.2,1.4,0.5C308.8,64.3,309,64.8,309,65.4z M308.4,65.4c0-0.5-0.1-0.9-0.3-1.1c-0.3-0.3-0.5-0.4-1-0.4c-0.5,0-0.7,0.2-1,0.4c-0.3,0.3-0.4,0.6-0.4,1.1c0,0.5,0.1,0.8,0.4,1.1c0.3,0.3,0.5,0.4,1,0.4c0.5,0,0.7-0.1,1-0.4C308.4,66.2,308.4,65.9,308.4,65.4z"/><path id="XMLID_237_" class="st4" d="M313.3,68.8h-0.4v-1.4H310v1.4h-0.6v-2h0.4c0.7-1,1-2.1,1-3.3h2v3.3h0.6L313.3,68.8L313.3,68.8z M312,66.7V64h-0.9c-0.1,1-0.4,2-0.9,2.7H312z"/><path id="XMLID_234_" class="st4" d="M317.1,65.6h-2.7c0,0.4,0.1,0.8,0.4,1.1c0.3,0.3,0.5,0.3,1,0.3s0.9-0.2,1.2-0.4v0.6c-0.4,0.3-0.8,0.4-1.4,0.4c-0.5,0-1-0.2-1.3-0.5c-0.3-0.3-0.5-0.9-0.5-1.5c0-0.3,0.1-0.8,0.3-1c0.2-0.4,0.4-0.5,0.6-0.8c0.3-0.2,0.6-0.3,1-0.3c0.5,0,0.9,0.2,1.2,0.5c0.3,0.4,0.4,0.8,0.4,1.4L317.1,65.6L317.1,65.6z M316.5,65.1c0-0.3-0.1-0.6-0.3-0.9c-0.2-0.2-0.4-0.3-0.7-0.3c-0.3,0-0.5,0.1-0.8,0.3c-0.3,0.2-0.3,0.5-0.3,0.8L316.5,65.1L316.5,65.1z"/><path id="XMLID_231_" class="st4" d="M321.6,65.3c0,0.7-0.2,1.2-0.5,1.6c-0.4,0.3-0.8,0.6-1.3,0.6s-0.9-0.3-1.1-0.7l0,0v2.3H318v-5.6h0.6v0.7l0,0c0.3-0.5,0.8-0.8,1.3-0.8s0.9,0.2,1.1,0.5C321.3,64.2,321.6,64.7,321.6,65.3z M320.9,65.3c0-0.4-0.1-0.8-0.3-1.1c-0.2-0.3-0.5-0.4-0.8-0.4c-0.3,0-0.6,0.1-0.9,0.4c-0.3,0.3-0.3,0.5-0.3,1v0.5c0,0.3,0.1,0.6,0.3,0.8c0.3,0.3,0.5,0.4,0.8,0.4c0.3,0,0.7-0.2,0.9-0.4C320.8,66.2,320.9,65.8,320.9,65.3z"/><path id="XMLID_88_" class="st4" d="M327.4,67.4h-0.9l-1.7-1.9l0,0v1.9h-0.6v-1.9l0,0l-1.7,1.9h-0.8l1.9-2l-1.8-1.9h0.8l1.6,1.8l0,0v-1.8h0.6v1.8l0,0l1.6-1.8h0.8l-1.8,1.9L327.4,67.4z"/><path id="XMLID_227_" class="st4" d="M330.8,67.4h-0.6v-0.6l0,0c-0.3,0.5-0.7,0.7-1.2,0.7c-0.4,0-0.7-0.1-0.9-0.3c-0.3-0.2-0.4-0.5-0.4-0.8c0-0.8,0.4-1.1,1.3-1.3l1.1-0.2c0-0.7-0.3-1.1-0.8-1.1s-0.9,0.2-1.3,0.5v-0.6c0.1-0.1,0.3-0.2,0.6-0.3c0.3-0.1,0.5-0.1,0.8-0.1c1,0,1.4,0.5,1.4,1.5L330.8,67.4L330.8,67.4z M330.1,65.4l-1,0.2c-0.4,0-0.5,0.1-0.7,0.3c-0.2,0.2-0.2,0.3-0.2,0.5c0,0.2,0.1,0.4,0.3,0.5c0.2,0.1,0.4,0.2,0.5,0.2c0.3,0,0.5-0.1,0.8-0.4c0.2-0.3,0.3-0.5,0.3-0.8L330.1,65.4L330.1,65.4z"/><path id="XMLID_85_" class="st4" d="M335,67.4h-0.6v-1.7h-2v1.7h-0.6v-3.8h0.6v1.6h2v-1.6h0.6V67.4z"/><path id="XMLID_84_" class="st4" d="M339.5,67.4H339v-3.1c0,0.1-0.2,0.3-0.3,0.4l-1.7,2.6h-0.6v-3.8h0.5v3l0.3-0.4l1.8-2.7h0.6L339.5,67.4L339.5,67.4z"/><path id="XMLID_222_" class="st4" d="M343.8,65.6H341c0,0.4,0.1,0.8,0.4,1.1c0.3,0.3,0.5,0.3,1,0.3c0.5,0,0.9-0.2,1.2-0.4v0.6c-0.4,0.3-0.8,0.4-1.4,0.4c-0.5,0-1-0.2-1.3-0.5c-0.3-0.3-0.5-0.9-0.5-1.5c0-0.3,0.1-0.8,0.3-1c0.2-0.4,0.4-0.5,0.6-0.8c0.3-0.2,0.6-0.3,1-0.3c0.5,0,0.9,0.2,1.2,0.5c0.3,0.4,0.4,0.8,0.4,1.4L343.8,65.6L343.8,65.6z M343.1,65.1c0-0.3-0.1-0.6-0.3-0.9c-0.2-0.2-0.4-0.3-0.7-0.3s-0.5,0.1-0.8,0.3c-0.3,0.2-0.4,0.5-0.4,0.8L343.1,65.1L343.1,65.1z"/><rect id="XMLID_81_" x="271.3" y="160.8" class="st5" width="101.9" height="53.8"/><path id="XMLID_80_" class="st3" d="M318.8,184.3v7.4H318v-7.4h-2.3v-0.7h5.4v0.7H318.8z"/><path id="XMLID_217_" class="st3" d="M321.6,188.9c0,0.7,0.2,1.3,0.5,1.7c0.3,0.4,0.9,0.6,1.5,0.6c0.7,0,1.3-0.3,1.8-0.7v0.7c-0.5,0.4-1.2,0.6-2,0.6s-1.5-0.3-1.9-0.8c-0.4-0.5-0.7-1.3-0.7-2.2c0-0.5,0.1-1.1,0.3-1.6c0.3-0.5,0.5-0.9,1-1.1c0.4-0.3,0.9-0.4,1.4-0.4c0.8,0,1.3,0.3,1.7,0.8c0.4,0.5,0.6,1.2,0.6,2.1v0.3H321.6L321.6,188.9z M325,188.2c0-0.6-0.2-1.1-0.4-1.4c-0.3-0.4-0.7-0.5-1.1-0.5c-0.5,0-1,0.2-1.2,0.5c-0.3,0.3-0.5,0.8-0.6,1.4H325L325,188.2z"/><path id="XMLID_77_" class="st3" d="M331,191.4c-0.4,0.3-1,0.4-1.5,0.4c-0.5,0-1-0.1-1.4-0.4c-0.4-0.3-0.8-0.6-1-1c-0.3-0.4-0.3-1-0.3-1.5c0-0.6,0.1-1.1,0.3-1.6c0.3-0.5,0.6-0.9,1-1.1c0.4-0.3,1-0.4,1.5-0.4c0.5,0,1,0.1,1.3,0.3v0.8c-0.4-0.3-0.9-0.4-1.4-0.4c-0.4,0-0.8,0.1-1.1,0.3c-0.4,0.3-0.6,0.5-0.8,0.9c-0.2,0.4-0.3,0.8-0.3,1.3c0,0.7,0.2,1.3,0.5,1.7c0.4,0.4,0.9,0.7,1.5,0.7c0.5,0,1-0.2,1.5-0.5L331,191.4L331,191.4z"/><path id="XMLID_76_" class="st3" d="M334,186.5v5.2h-0.7v-5.2h-1.7v-0.6h4.2v0.6H334L334,186.5z"/><path id="XMLID_211_" class="st3" d="M340.8,189.9c0,0.5-0.2,1-0.5,1.3c-0.4,0.3-0.8,0.5-1.3,0.5h-2.3v-5.8h0.8v2.3h1.6c0.6,0,1,0.2,1.4,0.4C340.8,188.9,340.8,189.4,340.8,189.9z M340.1,189.9c0-0.4-0.1-0.6-0.4-0.8c-0.3-0.2-0.5-0.3-1-0.3h-1.5v2.2h1.5c0.4,0,0.7-0.1,1-0.3C340,190.5,340.1,190.3,340.1,189.9z M342.1,191.6v-5.8h0.8v5.8H342.1z"/><path id="XMLID_72_" class="st3" d="M308.4,189.6c-0.9,0.7-1.5,1.6-2.3,2.3c-0.3-0.3-0.6-0.7-0.8-1.1c-0.3-0.5-1,0.3-0.8,0.7c0.3,0.6,0.7,1.1,1.1,1.5c0.2,0.2,0.5,0,0.6-0.2c0.8-1,1.5-1.8,2.5-2.6C309.3,189.9,309,189.2,308.4,189.6z"/><path id="XMLID_207_" class="st3" d="M310.9,181.6h-2.2c-0.2-0.2-0.4-0.3-0.6-0.3h-0.9v-0.2c0-0.3-0.4-0.6-0.8-0.6c-0.3,0-0.8,0.3-0.8,0.6v0.2h-0.9c-0.3,0-0.5,0.1-0.6,0.3H302c-0.3,0-0.4,0.2-0.4,0.4v12.3c0,0.3,0.2,0.4,0.4,0.4h8.9c0.3,0,0.4-0.2,0.4-0.4V182C311.4,181.8,311.1,181.6,310.9,181.6z M310.5,193.9h-7.9v-11.4h1.2l0,0h0.4c0.1,0.4,0.4,0.6,0.8,0.6h1.6h1.6c0.4,0,0.7-0.3,0.8-0.6h0.4l0,0h1.2L310.5,193.9L310.5,193.9z"/><rect id="XMLID_69_" x="303.3" y="184" class="st3" width="6.5" height="0.7"/><rect id="XMLID_68_" x="303.3" y="185.3" class="st3" width="6.5" height="0.7"/><rect id="XMLID_67_" x="303.3" y="186.7" class="st3" width="6.5" height="0.7"/><rect id="XMLID_66_" x="303.3" y="188.2" class="st3" width="6.5" height="0.7"/><rect id="XMLID_65_" x="271.3" y="77.9" class="st3" width="101.9" height="11"/><path id="XMLID_199_" class="st4" d="M287.2,84c0,0.3-0.1,0.6-0.4,0.8c-0.3,0.2-0.5,0.3-0.9,0.3h-1v-3.6h1.9v0.4h-1.4v1.1h0.7c0.4,0,0.6,0.1,0.9,0.3C287.1,83.5,287.2,83.8,287.2,84z M286.8,84c0-0.4-0.3-0.7-0.8-0.7h-0.5v1.3h0.6c0.3,0,0.4-0.1,0.6-0.2C286.6,84.4,286.8,84.3,286.8,84z"/><path id="XMLID_195_" class="st4" d="M289.8,84.3c0,0.3-0.1,0.4-0.3,0.6c-0.2,0.2-0.4,0.3-0.6,0.3h-1.1v-2.6h0.4v1.1h0.7c0.3,0,0.5,0.1,0.6,0.3C289.6,83.9,289.8,84,289.8,84.3z M289.4,84.3c0-0.3-0.2-0.4-0.5-0.4h-0.6v0.9h0.6C289.2,84.8,289.4,84.6,289.4,84.3z M290.6,85.1h-0.4v-2.6h0.4V85.1z"/><path id="XMLID_59_" class="st4" d="M293.2,85c-0.2,0.1-0.4,0.2-0.7,0.2c-0.3,0-0.4,0-0.6-0.2c-0.2-0.2-0.4-0.3-0.4-0.4c-0.1-0.2-0.2-0.4-0.2-0.7c0-0.4,0.1-0.8,0.4-1c0.3-0.3,0.5-0.4,1-0.4c0.3,0,0.4,0,0.6,0.2v0.4c-0.2-0.2-0.4-0.2-0.6-0.2c-0.3,0-0.5,0.1-0.7,0.3s-0.3,0.4-0.3,0.8c0,0.3,0.1,0.5,0.3,0.7c0.2,0.2,0.4,0.3,0.6,0.3c0.3,0,0.4-0.1,0.6-0.3L293.2,85L293.2,85z"/><path id="XMLID_58_" class="st4" d="M295.3,82.9h-0.8v2.2h-0.4v-2.2h-0.8v-0.4h2V82.9L295.3,82.9z"/><path id="XMLID_190_" class="st4" d="M298.2,83.8c0,0.4-0.1,0.8-0.3,1c-0.3,0.3-0.5,0.4-0.9,0.4s-0.6-0.2-0.8-0.4l0,0v1.6h-0.4v-3.8h0.4v0.4l0,0c0.3-0.4,0.5-0.5,0.9-0.5c0.4,0,0.6,0.1,0.8,0.3C298.2,83,298.2,83.3,298.2,83.8z M297.7,83.8c0-0.3-0.1-0.5-0.2-0.7c-0.1-0.2-0.3-0.3-0.5-0.3s-0.4,0.1-0.6,0.3c-0.2,0.2-0.3,0.4-0.3,0.6V84c0,0.3,0.1,0.4,0.3,0.5c0.2,0.2,0.4,0.3,0.5,0.3c0.3,0,0.4-0.1,0.6-0.3S297.7,84.1,297.7,83.8z"/><path id="XMLID_186_" class="st4" d="M300.7,84.3c0,0.3-0.1,0.4-0.3,0.6c-0.2,0.2-0.4,0.3-0.6,0.3h-1.1v-2.6h0.4v1.1h0.7c0.3,0,0.5,0.1,0.6,0.3C300.7,83.9,300.7,84,300.7,84.3z M300.3,84.3c0-0.3-0.2-0.4-0.5-0.4h-0.6v0.9h0.6C300.3,84.8,300.3,84.6,300.3,84.3z M301.6,85.1h-0.4v-2.6h0.4V85.1z"/><path id="XMLID_183_" class="st4" d="M304.6,85.1h-0.3v-2.1c0,0.1-0.1,0.2-0.2,0.3l-1.2,1.7h-0.4v-2.6h0.4v2l0.2-0.3l1.2-1.7h0.4v2.7H304.6z M304.6,81.2c0,0.1,0,0.3-0.1,0.3c0,0.1-0.1,0.2-0.2,0.3c-0.1,0.1-0.2,0.1-0.3,0.2c-0.1,0-0.3,0.1-0.4,0.1c-0.1,0-0.3,0-0.3,0c-0.1,0-0.2-0.1-0.3-0.2c-0.1-0.1-0.2-0.2-0.2-0.3s-0.1-0.2-0.1-0.4h0.4c0,0.1,0,0.1,0,0.2s0,0.1,0.1,0.2c0,0,0.1,0.1,0.2,0.1s0.2,0,0.3,0s0.2,0,0.2,0s0.1-0.1,0.2-0.1c0,0,0.1-0.1,0.1-0.2s0-0.1,0-0.2H304.6z"/><path id="XMLID_50_" class="st4" d="M308.8,85.1h-0.4v-2.2h-1.3v2.2h-0.4v-2.6h2.1L308.8,85.1L308.8,85.1z"/><path id="XMLID_179_" class="st4" d="M311.6,83.9h-1.8c0,0.3,0.1,0.5,0.3,0.7c0.2,0.2,0.3,0.3,0.6,0.3c0.3,0,0.5-0.1,0.8-0.3v0.3c-0.3,0.2-0.5,0.3-0.9,0.3c-0.3,0-0.7-0.1-0.9-0.3c-0.2-0.3-0.3-0.5-0.3-1.1c0-0.3,0-0.5,0.2-0.7c0.1-0.3,0.3-0.4,0.4-0.5c0.2-0.2,0.3-0.2,0.6-0.2c0.3,0,0.6,0.1,0.8,0.3c0.2,0.3,0.3,0.5,0.3,1L311.6,83.9L311.6,83.9z M311.1,83.6c0-0.3-0.1-0.4-0.2-0.5c-0.1-0.1-0.3-0.2-0.5-0.2c-0.2,0-0.4,0.1-0.5,0.3c-0.2,0.2-0.3,0.3-0.3,0.5L311.1,83.6L311.1,83.6z"/><path id="XMLID_176_" class="st4" d="M314.5,83.8c0,0.4-0.1,0.8-0.4,1c-0.3,0.3-0.5,0.4-0.9,0.4c-0.3,0-0.6-0.2-0.8-0.4l0,0v1.6h-0.4v-3.8h0.4v0.4l0,0c0.3-0.4,0.5-0.5,0.9-0.5c0.3,0,0.6,0.1,0.8,0.3C314.3,83,314.5,83.3,314.5,83.8z M314.1,83.8c0-0.3-0.1-0.5-0.2-0.7c-0.1-0.2-0.3-0.3-0.5-0.3c-0.3,0-0.4,0.1-0.6,0.3c-0.2,0.2-0.3,0.4-0.3,0.6V84c0,0.3,0.1,0.4,0.3,0.5c0.2,0.1,0.4,0.3,0.5,0.3c0.3,0,0.4-0.1,0.6-0.3C314.1,84.3,314.1,84.1,314.1,83.8z"/><path id="XMLID_173_" class="st4" d="M317.3,83.9h-2c0,0.3,0.1,0.5,0.3,0.7c0.2,0.2,0.4,0.3,0.6,0.3c0.2,0,0.5-0.1,0.8-0.3v0.3c-0.3,0.2-0.5,0.3-0.9,0.3s-0.7-0.1-0.9-0.3c-0.2-0.3-0.3-0.5-0.3-1.1c0-0.3,0-0.5,0.2-0.7c0.1-0.3,0.3-0.4,0.4-0.5c0.2-0.2,0.4-0.2,0.6-0.2c0.4,0,0.6,0.1,0.8,0.3c0.2,0.3,0.3,0.5,0.3,1L317.3,83.9L317.3,83.9z M316.9,83.6c0-0.3-0.1-0.4-0.2-0.5c-0.1-0.1-0.3-0.2-0.5-0.2c-0.2,0-0.4,0.1-0.5,0.3c-0.2,0.2-0.3,0.3-0.3,0.5L316.9,83.6L316.9,83.6z"/><path id="XMLID_43_" class="st4" d="M319.7,82.5l-0.9,1.3l0.9,1.3h-0.5l-0.5-0.9l-0.1-0.2l0,0l-0.6,1.1h-0.4l0.9-1.3l-0.9-1.3h0.5c0.4,0.6,0.5,1.1,0.6,1.1l0,0l0.7-1.1L319.7,82.5L319.7,82.5z"/><path id="XMLID_169_" class="st4" d="M322.5,83.8c0,0.4-0.1,0.8-0.3,1.1c-0.3,0.3-0.5,0.3-1,0.3c-0.3,0-0.7-0.1-1-0.3c-0.3-0.3-0.4-0.5-0.4-1c0-0.5,0.1-0.8,0.4-1c0.3-0.3,0.5-0.4,1-0.4c0.4,0,0.7,0.1,0.9,0.4C322.2,83.2,322.5,83.4,322.5,83.8z M322,83.8c0-0.4-0.1-0.6-0.3-0.8c-0.2-0.2-0.4-0.3-0.6-0.3c-0.3,0-0.5,0.1-0.6,0.3c-0.2,0.2-0.3,0.4-0.3,0.8c0,0.3,0.1,0.5,0.3,0.8c0.2,0.2,0.4,0.3,0.6,0.3c0.3,0,0.5-0.1,0.6-0.3C322,84.3,322,84.2,322,83.8z"/><path id="XMLID_166_" class="st4" d="M325.2,85.9h-0.4v-1h-1.9v1h-0.3v-1.3h0.3c0.4-0.6,0.7-1.4,0.7-2.2h1.3v2.2h0.4L325.2,85.9L325.2,85.9z M324.4,84.8v-1.9h-0.6c0,0.7-0.3,1.3-0.6,1.9H324.4z"/><path id="XMLID_38_" class="st4" d="M329,85.1h-0.6l-1.1-1.2l0,0v1.2h-0.4v-2.6h0.4v1.2l0,0l1-1.2h0.5l-1.2,1.3L329,85.1z"/><path id="XMLID_37_" class="st4" d="M332.4,85c-0.2,0.1-0.4,0.2-0.7,0.2c-0.3,0-0.4,0-0.6-0.2s-0.4-0.3-0.4-0.4c-0.1-0.2-0.2-0.4-0.2-0.7c0-0.4,0.1-0.8,0.4-1c0.3-0.3,0.5-0.4,1-0.4c0.3,0,0.4,0,0.6,0.2v0.4c-0.2-0.2-0.4-0.2-0.6-0.2c-0.3,0-0.5,0.1-0.7,0.3c-0.2,0.2-0.3,0.4-0.3,0.8c0,0.3,0.1,0.5,0.3,0.7c0.2,0.2,0.4,0.3,0.6,0.3c0.3,0,0.4-0.1,0.6-0.3L332.4,85L332.4,85z"/><path id="XMLID_36_" class="st4" d="M334.6,82.9h-0.8v2.2h-0.4v-2.2h-0.8v-0.4h2L334.6,82.9L334.6,82.9z"/><path id="XMLID_160_" class="st4" d="M337.4,83.8c0,0.4-0.1,0.8-0.3,1c-0.3,0.3-0.5,0.4-0.9,0.4s-0.6-0.2-0.8-0.4l0,0v1.6H335v-3.8h0.4v0.4l0,0c0.3-0.4,0.5-0.5,0.9-0.5c0.4,0,0.6,0.1,0.8,0.3C337.4,83,337.4,83.3,337.4,83.8z M337,83.8c0-0.3-0.1-0.5-0.2-0.7c-0.1-0.2-0.3-0.3-0.5-0.3c-0.2,0-0.4,0.1-0.6,0.3c-0.2,0.2-0.3,0.4-0.3,0.6V84c0,0.3,0.1,0.4,0.3,0.5c0.2,0.2,0.4,0.3,0.5,0.3c0.3,0,0.4-0.1,0.6-0.3C337,84.3,337,84.1,337,83.8z"/><path id="XMLID_157_" class="st4" d="M340,85.1h-0.4v-0.4l0,0c-0.2,0.3-0.4,0.5-0.8,0.5c-0.3,0-0.4-0.1-0.6-0.3c-0.2-0.2-0.3-0.3-0.3-0.5c0-0.5,0.3-0.8,0.9-0.9l0.8-0.1c0-0.4-0.2-0.7-0.5-0.7c-0.3,0-0.6,0.1-0.9,0.4v-0.4c0.1-0.1,0.3-0.1,0.4-0.2c0.2,0,0.3-0.1,0.5-0.1c0.6,0,1,0.3,1,1L340,85.1L340,85.1z M339.5,83.8l-0.6,0.1c-0.3,0-0.3,0.1-0.4,0.2c-0.1,0.1-0.1,0.2-0.1,0.4s0,0.3,0.2,0.3c0.1,0.1,0.3,0.1,0.3,0.1c0.3,0,0.4-0.1,0.5-0.3c0.2-0.2,0.2-0.3,0.2-0.5L339.5,83.8L339.5,83.8z"/><path id="XMLID_31_" class="st4" d="M342.7,85.1h-0.4v-1.2H341v1.2h-0.4v-2.6h0.4v1.1h1.3v-1.1h0.4V85.1z"/><path id="XMLID_30_" class="st4" d="M345.7,85.1h-0.4v-2.1c0,0.1-0.1,0.2-0.2,0.3l-1.2,1.7h-0.4v-2.6h0.4v2l0.2-0.3l1.2-1.7h0.4V85.1z"/><path id="XMLID_29_" class="st4" d="M348.9,85.9h-0.3v-1h-2.1v-2.6h0.4v2.2h1.3v-2.2h0.4v2.2h0.4L348.9,85.9L348.9,85.9L348.9,85.9z"/><path id="XMLID_151_" class="st4" d="M351.5,85.1h-0.4v-0.4l0,0c-0.2,0.3-0.4,0.5-0.8,0.5c-0.3,0-0.4-0.1-0.6-0.3c-0.2-0.2-0.3-0.3-0.3-0.5c0-0.5,0.3-0.8,0.9-0.9l0.8-0.1c0-0.4-0.2-0.7-0.5-0.7c-0.3,0-0.6,0.1-0.9,0.4v-0.4c0.1-0.1,0.3-0.1,0.4-0.2c0.2-0.1,0.3-0.1,0.5-0.1c0.6,0,1,0.3,1,1L351.5,85.1L351.5,85.1z M351.1,83.8l-0.6,0.1c-0.3,0-0.3,0.1-0.4,0.2c-0.1,0.1-0.1,0.2-0.1,0.4s0,0.3,0.2,0.3c0.1,0.1,0.3,0.1,0.3,0.1c0.3,0,0.4-0.1,0.5-0.3c0.2-0.2,0.2-0.3,0.2-0.5L351.1,83.8L351.1,83.8z"/><path id="XMLID_26_" class="st4" d="M354.9,85.1h-0.4V83l-0.2,0.5l-0.7,1.6h-0.3l-0.7-1.6c0-0.1-0.1-0.3-0.2-0.5v2.1h-0.4v-2.6h0.5l0.7,1.7c0,0.1,0.1,0.3,0.2,0.5l0.2-0.5l0.7-1.7h0.5L354.9,85.1L354.9,85.1z"/><path id="XMLID_146_" class="st4" d="M356.1,84.9c0,0.1,0,0.2-0.1,0.2c0,0-0.1,0.1-0.2,0.1s-0.2,0-0.2-0.1c0,0-0.1-0.1-0.1-0.2c0-0.1,0-0.2,0.1-0.2c0-0.1,0.1-0.1,0.2-0.1s0.2,0,0.2,0.1C356.1,84.8,356.1,84.8,356.1,84.9z M357.4,84.9c0,0.1,0,0.2-0.1,0.2c0,0-0.1,0.1-0.2,0.1s-0.2,0-0.2-0.1c0,0-0.1-0.1-0.1-0.2c0-0.1,0-0.2,0.1-0.2c0-0.1,0.1-0.1,0.2-0.1s0.2,0,0.2,0.1C357.4,84.8,357.4,84.8,357.4,84.9z M358.7,84.9c0,0.1,0,0.2-0.1,0.2c0,0-0.1,0.1-0.2,0.1s-0.2,0-0.2-0.1c0,0-0.1-0.1-0.1-0.2c0-0.1,0-0.2,0.1-0.2c0-0.1,0.1-0.1,0.2-0.1s0.2,0,0.2,0.1C358.6,84.8,358.7,84.8,358.7,84.9z"/><path id="XMLID_22_" class="st6" d="M366.8,82.8l0.2-0.2l1.1,1.1l1.1-1.1l0.2,0.2l-1.3,1.3L366.8,82.8z"/><path id="XMLID_132_" class="st7" d="M275.1,81.8v-1.1h1.1v1.1H275.1z M275.1,83.2v-1.1h1.1v1.1H275.1z M275.1,84.7v-1.1h1.1v1.1H275.1z M275.1,86.1V85h1.1v1.1H275.1z M275.5,81v0.3h0.4V81H275.5z M275.5,82.5v0.4h0.4v-0.4H275.5z M275.5,84v0.3h0.4V84H275.5z M275.5,85.4v0.3h0.4v-0.3H275.5z M277,81h4v0.3h-4V81z M277,82.9v-0.4h3.2v0.4H277z M279.6,84v0.3H277V84H279.6z M277,85.8v-0.3h3.2v0.3H277z"/><rect id="XMLID_9_" x="282.4" y="29.2" class="st8" width="17.5" height="17.6"/><path id="XMLID_127_" class="st7" d="M288.1,37.5c0.1,0,0.2,0,0.2,0c0.1,0,0.1,0.1,0.2,0.1c0,0,0.1,0.1,0.1,0.2c0,0.1,0,0.1,0,0.2c0,0.1,0,0.2,0,0.2s-0.1,0.1-0.1,0.2c0,0-0.1,0.1-0.2,0.1s-0.1,0-0.2,0s-0.2,0-0.2,0c-0.1,0-0.1-0.1-0.2-0.1c-0.1,0-0.1-0.1-0.1-0.2c0,0,0-0.1,0-0.2c0-0.1,0-0.2,0-0.2c0-0.1,0.1-0.1,0.1-0.2c0,0,0.1-0.1,0.2-0.1H288.1z M290.9,37.5c0.1,0,0.2,0,0.2,0c0.1,0,0.1,0.1,0.2,0.1c0.1,0,0.1,0.1,0.1,0.2c0,0.1,0,0.1,0,0.2c0,0.1,0,0.2,0,0.2c0,0.1-0.1,0.1-0.1,0.2c0,0-0.1,0.1-0.2,0.1s-0.1,0-0.2,0s-0.2,0-0.2,0c-0.1,0-0.1-0.1-0.2-0.1c0,0-0.1-0.1-0.1-0.2c0-0.1,0-0.1,0-0.2c0-0.1,0-0.2,0-0.2c0-0.1,0.1-0.1,0.1-0.2c0,0,0.1-0.1,0.2-0.1C290.9,37.5,290.9,37.5,290.9,37.5z M293.9,37.5c0.1,0,0.2,0,0.2,0c0.1,0,0.1,0.1,0.2,0.1c0,0,0.1,0.1,0.1,0.2c0,0.1,0,0.1,0,0.2c0,0.1,0,0.2,0,0.2c0,0.1-0.1,0.1-0.1,0.2c0,0-0.1,0.1-0.2,0.1s-0.1,0-0.2,0c-0.1,0-0.2,0-0.2,0c-0.1,0-0.1-0.1-0.2-0.1c0,0-0.1-0.1-0.1-0.2c0-0.1,0-0.1,0-0.2c0-0.1,0-0.2,0-0.2c0-0.1,0.1-0.1,0.1-0.2c0,0,0.1-0.1,0.2-0.1C293.9,37.5,293.9,37.5,293.9,37.5z"/><rect id="XMLID_5_" x="264.8" y="29.2" class="st8" width="17.5" height="17.6"/><path id="XMLID_122_" class="st7" d="M269.6,36.3v-0.5h7.8v0.5H269.6z M269.6,38.3v-0.5h7.8v0.5H269.6z M269.6,40.3v-0.5h7.8v0.5H269.6z"/></g><g id="XMLID_123_"><path id="XMLID_124_" class="st3" d="M509.1,153.8c-4.1,1.7-8.3,2.5-12.8,2.5c-4.5,0-8.5-1-12.1-3.1c-3.6-2.1-6.3-5.1-8.3-8.9c-2-3.8-3-8.2-3-13c0-5.2,1-9.9,3.1-14c2.1-4.1,5.1-7.3,8.9-9.6s8.2-3.4,13-3.4c3.8,0,7.5,0.6,11.1,1.9v3.7c-3.6-1.6-7.3-2.4-11.2-2.4c-4.1,0-7.9,1-11.1,3c-3.3,2-5.8,4.8-7.6,8.3c-1.8,3.6-2.7,7.7-2.7,12.3c0,4.4,0.8,8.3,2.5,11.6s4.1,6,7.1,7.8s6.5,2.8,10.4,2.8c4.6,0,8.8-0.9,12.5-2.7V153.8z"/><path id="XMLID_126_" class="st3" d="M539.9,155.4L523,137.8h-0.1v17.6h-3.2v-36h3.2v17.2h0.1l16.7-17.2h4.2L526.5,137l18,18.4H539.9z"/><path id="XMLID_129_" class="st3" d="M572.5,155.4v-7.2h-0.1c-1.1,2.5-2.8,4.4-5,5.9s-4.6,2.2-7.3,2.2c-3.3,0-6-0.9-8-2.8c-2.1-1.9-3.1-4.3-3.1-7.3c0-6.3,4.2-10.1,12.5-11.4l11.1-1.7c0-7.7-2.9-11.6-8.7-11.6c-4,0-7.8,1.6-11.6,4.8v-3.9c1.3-1,3.1-1.9,5.5-2.7c2.4-0.8,4.5-1.1,6.4-1.1c3.7,0,6.6,1.1,8.6,3.4c2,2.3,3,5.6,3,10v23.4H572.5z M552.3,146c0,2.3,0.7,4,2.2,5.4c1.5,1.3,3.4,2,5.9,2c3.5,0,6.4-1.3,8.7-3.9s3.4-5.9,3.4-9.9v-3.5l-9.9,1.4c-4,0.6-6.7,1.5-8.1,2.8S552.3,143.4,552.3,146z"/><path id="XMLID_133_" class="st3" d="M608.1,155.4v-15.7c-4.7,2.5-9,3.8-12.8,3.8c-3.5,0-6.1-1.1-8-3.2c-1.9-2.1-2.8-5.2-2.8-9.2v-11.7h3.3v11.5c0,3.4,0.7,5.8,2,7.4c1.3,1.5,3.3,2.3,5.9,2.3c4,0,8.2-1.2,12.4-3.7v-17.5h3.2v36H608.1z"/><path id="XMLID_135_" class="st3" d="M644.4,155.4v-7.2h-0.1c-1.1,2.5-2.8,4.4-5,5.9s-4.6,2.2-7.3,2.2c-3.3,0-6-0.9-8-2.8c-2.1-1.9-3.1-4.3-3.1-7.3c0-6.3,4.2-10.1,12.5-11.4l11.1-1.7c0-7.7-2.9-11.6-8.7-11.6c-4,0-7.8,1.6-11.6,4.8v-3.9c1.3-1,3.1-1.9,5.5-2.7c2.4-0.8,4.5-1.1,6.4-1.1c3.7,0,6.6,1.1,8.6,3.4c2,2.3,3,5.6,3,10v23.4H644.4z M624.2,146c0,2.3,0.7,4,2.2,5.4c1.5,1.3,3.4,2,5.9,2c3.5,0,6.4-1.3,8.7-3.9s3.4-5.9,3.4-9.9v-3.5l-9.9,1.4c-4,0.6-6.7,1.5-8.1,2.8S624.2,143.4,624.2,146z"/><path id="XMLID_138_" class="st3" d="M667.6,122.4v33h-3.2v-33h-10.8v-3h24.8v3H667.6z"/><path id="XMLID_140_" class="st3" d="M709.7,144.7c0,2.2-0.5,4-1.4,5.7s-2.3,2.9-3.9,3.8s-3.5,1.3-5.5,1.3H685v-36h3.2v14.8h10.3c3.5,0,6.3,0.9,8.2,2.8C708.7,138.9,709.7,141.4,709.7,144.7z M706.3,144.7c0-2.3-0.8-4.2-2.3-5.5c-1.5-1.3-3.6-2-6.2-2h-9.6v15.3h9.7c2.7,0,4.8-0.7,6.2-2.1S706.3,147.1,706.3,144.7z"/><path id="XMLID_143_" class="st3" d="M735.9,137.6c0,5,1.1,8.9,3.4,11.6c2.3,2.8,5.4,4.1,9.4,4.1c4.1,0,8-1.5,11.8-4.5v3.4c-3.8,2.6-7.9,4-12.5,4c-4.7,0-8.5-1.7-11.3-5.1s-4.2-8.1-4.2-14c0-3.5,0.7-6.6,2.1-9.5c1.4-2.9,3.3-5.1,5.8-6.7c2.5-1.6,5.2-2.4,8.2-2.4c4.4,0,7.8,1.5,10.2,4.6c2.4,3.1,3.7,7.4,3.7,12.9v1.4H735.9z M759.1,134.6c-0.1-4.2-1.1-7.4-3-9.7s-4.4-3.4-7.6-3.4c-3.4,0-6.2,1.1-8.4,3.4c-2.2,2.3-3.6,5.5-4.1,9.7H759.1z"/><path id="XMLID_147_" class="st3" d="M770.8,135.9v-3.2H790v3.2H770.8z"/><path id="XMLID_149_" class="st3" d="M803.5,149h-0.1v6.4h-3.2v-53.3h3.2v24.7h0.1c1.3-2.6,3.2-4.7,5.6-6.1c2.4-1.5,5-2.2,7.9-2.2c4.5,0,8.1,1.6,10.7,4.7c2.6,3.1,3.9,7.4,3.9,12.9c0,3.9-0.7,7.4-2,10.5c-1.4,3.1-3.3,5.5-5.7,7.2s-5.2,2.5-8.3,2.5C810,156.3,806,153.9,803.5,149z M803.3,135.7v4.5c0,3.8,1.2,6.9,3.5,9.4c2.3,2.5,5.3,3.8,8.9,3.8c3.7,0,6.7-1.6,9-4.8s3.4-7.3,3.4-12.4c0-4.5-1.1-8-3.2-10.7s-4.9-4-8.4-4c-2.6,0-4.9,0.6-6.9,1.8c-2,1.2-3.6,2.9-4.7,5.1C803.9,130.6,803.3,133,803.3,135.7z"/><path id="XMLID_153_" class="st3" d="M854.9,156.3c-5.2,0-9.3-1.7-12.4-5.1c-3.1-3.4-4.6-7.9-4.6-13.5c0-5.9,1.6-10.5,4.7-14c3.2-3.4,7.4-5.1,12.7-5.1c5.1,0,9.2,1.7,12.2,5.1c3,3.4,4.5,8,4.5,13.9c0,5.6-1.5,10.2-4.6,13.6S860,156.3,854.9,156.3z M855.1,121.5c-4.2,0-7.6,1.4-10.1,4.3c-2.5,2.9-3.8,6.8-3.8,11.9c0,4.8,1.2,8.6,3.7,11.4s5.8,4.3,10,4.3c4.3,0,7.6-1.4,10-4.2c2.4-2.8,3.6-6.7,3.6-11.7c0-5.2-1.2-9.1-3.5-11.8C862.7,122.9,859.4,121.5,855.1,121.5z"/><path id="XMLID_156_" class="st3" d="M895.3,156.3c-5.2,0-9.3-1.7-12.4-5.1c-3.1-3.4-4.6-7.9-4.6-13.5c0-5.9,1.6-10.5,4.7-14c3.2-3.4,7.4-5.1,12.7-5.1c5.1,0,9.2,1.7,12.2,5.1c3,3.4,4.5,8,4.5,13.9c0,5.6-1.5,10.2-4.6,13.6S900.4,156.3,895.3,156.3z M895.5,121.5c-4.2,0-7.6,1.4-10.1,4.3c-2.5,2.9-3.8,6.8-3.8,11.9c0,4.8,1.2,8.6,3.7,11.4s5.8,4.3,10,4.3c4.3,0,7.6-1.4,10-4.2c2.4-2.8,3.6-6.7,3.6-11.7c0-5.2-1.2-9.1-3.5-11.8C903.1,122.9,899.8,121.5,895.5,121.5z"/><path id="XMLID_161_" class="st3" d="M941.8,155.4l-17.2-17.8h-0.1v17.8h-3.2v-53.3h3.2v34.3h0.1l16.3-17.1h4.2L928,136.9l18.5,18.6H941.8z"/><path id="XMLID_163_" class="st3" d="M951.8,164.2h-2.7l5.3-16.7h3.6L951.8,164.2z"/><path id="XMLID_165_" class="st3" d="M1010.4,155.4v-33h-21.2v33h-3.2v-36h27.7v36H1010.4z"/><path id="XMLID_168_" class="st3" d="M1028.5,149h-0.1v23h-3.2v-52.6h3.2v7.4h0.1c1.3-2.6,3.2-4.7,5.6-6.1c2.4-1.5,5-2.2,7.9-2.2c4.5,0,8.1,1.6,10.7,4.7c2.6,3.1,3.9,7.4,3.9,12.9c0,3.9-0.7,7.4-2,10.5s-3.2,5.5-5.7,7.2s-5.3,2.5-8.3,2.5C1035.1,156.3,1031.1,153.9,1028.5,149z M1028.4,135.7v4.5c0,3.8,1.2,6.9,3.5,9.4s5.3,3.8,8.9,3.8c3.7,0,6.7-1.6,9-4.8s3.4-7.3,3.4-12.4c0-4.5-1.1-8-3.2-10.7s-4.9-4-8.4-4c-2.6,0-4.9,0.6-6.9,1.8c-2,1.2-3.6,2.9-4.7,5.1C1028.9,130.6,1028.4,133,1028.4,135.7z"/><path id="XMLID_172_" class="st3" d="M1090.4,155.4v-30.1l-0.5,0.8l-22.1,29.3h-2.3v-36h3.2v29.8c0.3-0.6,0.6-1,0.9-1.4l21.4-28.4h2.6v36H1090.4z"/><path id="XMLID_175_" class="st3" d="M1126.4,155.4v-33h-10.5c-0.9,12.1-2.4,20.8-4.5,25.9s-5.1,7.7-8.9,7.7c-0.7,0-1.3-0.1-2-0.3v-2.9c0.5,0.2,1.1,0.3,1.9,0.3c2.9,0,5.2-2.6,6.9-7.9s3-13.8,3.7-25.7h16.6v36H1126.4z"/><path id="XMLID_178_" class="st3" d="M1155.7,156.3c-5.2,0-9.3-1.7-12.4-5.1s-4.6-7.9-4.6-13.5c0-5.9,1.6-10.5,4.7-14c3.2-3.4,7.4-5.1,12.7-5.1c5.1,0,9.2,1.7,12.2,5.1s4.5,8,4.5,13.9c0,5.6-1.5,10.2-4.6,13.6S1160.8,156.3,1155.7,156.3z M1155.9,121.5c-4.2,0-7.6,1.4-10.1,4.3c-2.5,2.9-3.8,6.8-3.8,11.9c0,4.8,1.2,8.6,3.7,11.4s5.8,4.3,10,4.3c4.3,0,7.6-1.4,10-4.2s3.6-6.7,3.6-11.7c0-5.2-1.2-9.1-3.5-11.8C1163.5,122.9,1160.2,121.5,1155.9,121.5z"/><path id="XMLID_182_" class="st3" d="M1216.3,155.4l-16.9-17.6h-0.1v17.6h-3.2v-17.6h-0.1l-16.9,17.6h-4.6l18-18.4l-17.4-17.6h4.2l16.7,17.2h0.1v-17.2h3.2v17.2h0.1l16.7-17.2h4.2l-17.4,17.6l18,18.4H1216.3z"/><path id="XMLID_185_" class="st3" d="M1226,137.6c0,5,1.1,8.9,3.4,11.6s5.4,4.1,9.4,4.1c4.1,0,8-1.5,11.8-4.5v3.4c-3.8,2.6-7.9,4-12.5,4c-4.7,0-8.5-1.7-11.3-5.1s-4.2-8.1-4.2-14c0-3.5,0.7-6.6,2.1-9.5c1.4-2.9,3.3-5.1,5.8-6.7s5.2-2.4,8.2-2.4c4.4,0,7.8,1.5,10.2,4.6s3.7,7.4,3.7,12.9v1.4H1226z M1249.3,134.6c-0.1-4.2-1.1-7.4-3-9.7s-4.4-3.4-7.6-3.4c-3.4,0-6.2,1.1-8.4,3.4c-2.2,2.3-3.6,5.5-4.1,9.7H1249.3z"/><path id="XMLID_189_" class="st3" d="M1286,155.4v-17.2h-21.2v17.2h-3.2v-36h3.2v15.9h21.2v-15.9h3.2v36H1286z"/><path id="XMLID_192_" class="st3" d="M1325.7,155.4v-30.1l-0.5,0.8l-22.1,29.3h-2.3v-36h3.2v29.8c0.3-0.6,0.6-1,0.9-1.4l21.4-28.4h2.6v36H1325.7z"/><path id="XMLID_194_" class="st3" d="M1341.2,137.6c0,5,1.1,8.9,3.4,11.6s5.4,4.1,9.4,4.1c4.1,0,8-1.5,11.8-4.5v3.4c-3.8,2.6-7.9,4-12.5,4c-4.7,0-8.5-1.7-11.3-5.1s-4.2-8.1-4.2-14c0-3.5,0.7-6.6,2.1-9.5c1.4-2.9,3.3-5.1,5.8-6.7s5.2-2.4,8.2-2.4c4.4,0,7.8,1.5,10.2,4.6s3.7,7.4,3.7,12.9v1.4H1341.2z M1364.5,134.6c-0.1-4.2-1.1-7.4-3-9.7s-4.4-3.4-7.6-3.4c-3.4,0-6.2,1.1-8.4,3.4c-2.2,2.3-3.6,5.5-4.1,9.7H1364.5z"/><path id="XMLID_198_" class="st3" d="M1375.4,164.2h-2.7l5.3-16.7h3.6L1375.4,164.2z"/><path id="XMLID_201_" class="st3" d="M1433.5,145.4c0,3.4-1.3,6.1-4,8s-6.4,2.9-11.3,2.9c-2,0-4-0.2-6.2-0.7s-3.9-1-5.1-1.7v-3.4c1.7,0.9,3.5,1.6,5.6,2.1s4,0.7,5.7,0.7c7.9,0,11.9-2.5,11.9-7.6c0-2.5-0.9-4.4-2.7-5.6s-4.8-1.9-9.1-1.9h-4.9v-3h4.5c3.5,0,6.2-0.6,7.9-1.7c1.7-1.1,2.6-2.9,2.6-5.4c0-2.1-0.8-3.8-2.4-4.9c-1.6-1.2-4-1.8-7.1-1.8c-3.7,0-7.4,0.9-11.3,2.7V121c4-1.6,7.9-2.5,11.7-2.5c3.9,0,6.9,0.8,9.2,2.5s3.3,3.9,3.3,6.8c0,2.3-0.6,4.3-1.9,5.8s-3.1,2.5-5.6,2.9v0.1c2.8,0.1,5,1,6.7,2.6S1433.5,142.8,1433.5,145.4z"/><path id="XMLID_203_" class="st3" d="M1464,155.4v-7.2h-0.1c-1.1,2.5-2.8,4.4-5,5.9s-4.6,2.2-7.3,2.2c-3.3,0-6-0.9-8-2.8s-3.1-4.3-3.1-7.3c0-6.3,4.2-10.1,12.5-11.4l11.1-1.7c0-7.7-2.9-11.6-8.7-11.6c-4,0-7.8,1.6-11.6,4.8v-3.9c1.3-1,3.1-1.9,5.5-2.7c2.4-0.8,4.5-1.1,6.4-1.1c3.7,0,6.6,1.1,8.6,3.4s3,5.6,3,10v23.4H1464z M1443.8,146c0,2.3,0.7,4,2.2,5.4s3.4,2,5.9,2c3.5,0,6.4-1.3,8.7-3.9s3.4-5.9,3.4-9.9v-3.5l-9.9,1.4c-4,0.6-6.7,1.5-8.1,2.8S1443.8,143.4,1443.8,146z"/><path id="XMLID_206_" class="st3" d="M1501.4,153.9c-2.6,1.6-5.8,2.5-9.6,2.5c-3.2,0-6-0.8-8.5-2.3s-4.4-3.7-5.8-6.5s-2-5.9-2-9.5c0-3.7,0.8-7,2.3-10c1.6-3,3.7-5.3,6.5-7s5.8-2.5,9.3-2.5c2.7,0,5.4,0.6,8,1.7v3.7c-2.6-1.6-5.4-2.4-8.5-2.4c-2.7,0-5.2,0.7-7.4,2.1c-2.2,1.4-3.9,3.3-5,5.8s-1.8,5.3-1.8,8.4c0,4.6,1.2,8.4,3.6,11.2s5.6,4.3,9.5,4.3c3.6,0,6.8-1,9.4-2.9V153.9z"/><path id="XMLID_209_" class="st3" d="M1519.2,122.4v33h-3.2v-33h-10.8v-3h24.8v3H1519.2z"/><path id="XMLID_212_" class="st3" d="M1558.1,155.4v-7.2h-0.1c-1.1,2.5-2.8,4.4-5,5.9s-4.6,2.2-7.3,2.2c-3.3,0-6-0.9-8-2.8s-3.1-4.3-3.1-7.3c0-6.3,4.2-10.1,12.5-11.4l11.1-1.7c0-7.7-2.9-11.6-8.7-11.6c-4,0-7.8,1.6-11.6,4.8v-3.9c1.3-1,3.1-1.9,5.5-2.7c2.4-0.8,4.5-1.1,6.4-1.1c3.7,0,6.6,1.1,8.6,3.4s3,5.6,3,10v23.4H1558.1z M1538,146c0,2.3,0.7,4,2.2,5.4s3.4,2,5.9,2c3.5,0,6.4-1.3,8.7-3.9s3.4-5.9,3.4-9.9v-3.5l-9.9,1.4c-4,0.6-6.7,1.5-8.1,2.8S1538,143.4,1538,146z"/><path id="XMLID_215_" class="st3" d="M1597.6,145.1c0,3-1,5.5-3,7.4s-4.6,2.9-7.8,2.9h-14.7v-36h13.7c3.3,0,5.9,0.8,7.7,2.3c1.8,1.5,2.7,3.6,2.7,6.4c0,2.1-0.6,4-1.8,5.6c-1.2,1.6-2.8,2.6-4.9,3.1c2.6,0.3,4.6,1.1,6,2.7S1597.6,142.8,1597.6,145.1z M1592.8,128.6c0-2-0.7-3.6-2-4.6c-1.3-1-3.1-1.6-5.5-1.6h-10v13h9.1c2.7,0,4.8-0.6,6.2-1.8S1592.8,130.8,1592.8,128.6z M1594.3,145.4c0-2.3-0.8-4-2.4-5.2s-3.9-1.8-6.9-1.8h-9.6v14.1h10.8c2.7,0,4.7-0.7,6-2S1594.3,147.5,1594.3,145.4z"/><path id="XMLID_220_" class="st3" d="M1626.9,155.4l-16.9-17.6h-0.1v17.6h-3.2v-36h3.2v17.2h0.1l16.7-17.2h4.2l-17.4,17.6l18,18.4H1626.9z"/><path id="XMLID_223_" class="st3" d="M1636.3,172.4c-1,0-2-0.2-2.8-0.5v-3.2c0.9,0.3,1.9,0.5,3,0.5c2.9,0,5.2-2,6.8-6l3.3-8l-13.6-35.7h3.6l10.9,29.3c0.3,0.8,0.6,1.7,0.8,2.6h0.1l0.8-2.4l11.6-29.5h3.5l-17.5,43.3c-1.4,3.5-2.9,5.9-4.6,7.4S1638.6,172.4,1636.3,172.4z"/></g></svg>