<svg version="1.1" xmlns="http://www.w3.org/2000/svg" xmlns:xlink="http://www.w3.org/1999/xlink" x="0px" y="0px" width="640px" height="336px" viewBox="0 0 640 336" enable-background="new 0 0 640 336" xml:space="preserve"><rect fill="#45668E" width="640" height="336"/><path fill="#FEFEFE" d="M300.8,176.4c16.3,0,37.7-3.6,37.2,16.1c-0.4,18.4-21.5,15.9-37.3,15.9L300.8,176.4L300.8,176.4z M300.8,127.5c12.6,0,29.5-2.6,29.2,13.2c-0.3,15.7-15.5,13.8-29.2,13.8V127.5L300.8,127.5z M345,161.6c0.5-0.9,2.2-1.4,3.2-2c8.2-4.9,13.3-12.6,14.2-22.7c1.3-14.3-5.2-22.8-14.1-27.6c-10.4-5.5-24.3-5.3-37.2-5.3l-42.4,0v128c16.6,0.1,33.2,0,49.8,0c16.6,0,26.6-1.3,39.3-10.6c8.5-6.3,15.6-19.9,12.6-35.9c-1.9-10.1-8.5-17.2-16.6-20.8C352.5,164.1,345.4,161.8,345,161.6L345,161.6z"/></svg>