<svg version="1.1" xmlns="http://www.w3.org/2000/svg" x="0px" y="0px" viewBox="0 0 640 360" enable-background="new 0 0 640 360"><rect id="XMLID_1_" fill="#585578" width="640" height="360"/><g><path d="M241,40v280h158V40H241z M307.8,48.3h24.6v1.4h-24.6V48.3z M319.3,307.7l-5.2,1.2v-5.3l5.2-1V307.7z M319.3,301.3l-5.2,1v-5l5.2-1.2V301.3z M325.9,306.3l-5.2,1.2v-5.1l5.2-1V306.3z M325.9,300.1l-5.2,1v-5.2l5.2-1.2V300.1z M387.4,280.7H252.6V56.9h135.1L387.4,280.7L387.4,280.7z"/><rect id="XMLID_112_" x="252.4" y="56.6" fill="#F1F1F1" width="135.6" height="224.1"/><rect id="XMLID_111_" x="260" y="137.5" fill="#E74856" width="120.2" height="62.7"/><path id="XMLID_110_" fill="#FFFFFF" d="M318.8,173.3c-0.7,0.3-1.5,0.5-2.5,0.5c-0.9,0-1.6-0.2-2.3-0.6c-0.7-0.4-1.2-0.9-1.6-1.7c-0.4-0.7-0.6-1.5-0.6-2.4c0-1,0.2-1.8,0.6-2.6s0.9-1.4,1.7-1.8c0.7-0.4,1.5-0.6,2.5-0.6c0.8,0,1.5,0.1,2.1,0.4v0.9c-0.7-0.3-1.4-0.5-2.2-0.5c-0.8,0-1.5,0.2-2,0.5c-0.5,0.3-1,0.9-1.3,1.5c-0.3,0.6-0.5,1.4-0.5,2.2s0.1,1.5,0.4,2c0.3,0.6,0.7,1.1,1.2,1.4c0.6,0.3,1.2,0.5,1.9,0.5c0.9,0,1.7-0.2,2.4-0.6L318.8,173.3L318.8,173.3z"/><path id="XMLID_109_" fill="#FFFFFF" d="M322.6,167.6v6h-0.9v-6h-2v-0.7h4.9v0.7H322.6z"/><path fill="#FFFFFF" d="M329.6,173.6v-1.2l0,0c-0.2,0.4-0.5,0.8-0.9,1c-0.4,0.3-0.8,0.3-1.3,0.3c-0.6,0-1.2-0.2-1.5-0.5c-0.4-0.3-0.6-0.8-0.6-1.4c0-1.2,0.8-1.9,2.3-2.2l2-0.3c0-1.3-0.5-1.9-1.5-1.9c-0.8,0-1.5,0.3-2.2,0.9v-0.9c0.3-0.2,0.6-0.3,1-0.5c0.4-0.1,0.8-0.2,1.2-0.2c0.8,0,1.3,0.2,1.7,0.6s0.6,1.1,0.6,1.9v4.4L329.6,173.6L329.6,173.6z M326.4,171.8c0,0.4,0.1,0.7,0.4,0.9c0.3,0.2,0.6,0.3,1,0.3c0.6,0,1.1-0.2,1.5-0.6c0.4-0.4,0.6-1,0.6-1.6v-0.7l-1.8,0.3c-0.6,0.1-1.1,0.3-1.4,0.5C326.4,171,326.4,171.3,326.4,171.8z"/><path id="XMLID_106_" fill="#FFFFFF" d="M334.6,167.6v6h-0.9v-6h-2v-0.7h4.9v0.7H334.6z"/><path fill="#FFFFFF" d="M342.7,171.5c0,0.6-0.2,1.1-0.6,1.5s-0.9,0.6-1.5,0.6h-2.8v-6.7h0.9v2.7h1.9c0.7,0,1.2,0.2,1.6,0.5C342.7,170.4,342.7,170.9,342.7,171.5z M342,171.5c0-0.4-0.1-0.7-0.4-0.9s-0.6-0.3-1.1-0.3h-1.7v2.6h1.7c0.5,0,0.8-0.1,1.1-0.3C341.7,172.3,342,172,342,171.5z"/><path id="XMLID_103_" fill="#FFFFFF" d="M349,173.6v-5.5l-0.2,0.3l-3.7,5.2h-0.8v-6.7h0.8v5.5c0-0.1,0.1-0.3,0.3-0.5l3.6-5h0.8v6.7H349L349,173.6z"/><path fill="#FFFFFF" d="M306.5,175.5c-0.2-0.3-1.6-2.9,0-4.4c0.1-0.1,0.2-0.3,0.1-0.6c-0.1-0.2-0.3-0.3-0.5-0.3h-15.5c-0.3,0-0.5,0.2-0.5,0.5v5.1c0,0.3,0.2,0.5,0.5,0.5h15.5l0,0c0.3,0,0.5-0.3,0.5-0.5C306.8,175.7,306.8,175.6,306.5,175.5z M290.9,175.4v-4.3h14.5c-0.3,0.6-0.4,1.2-0.4,1.8h-11c-0.2,0-0.3,0.2-0.3,0.3c0,0.2,0.2,0.3,0.3,0.3h11c0.1,0.7,0.3,1.3,0.6,1.8L290.9,175.4L290.9,175.4z"/><path fill="#FFFFFF" d="M292.9,168.9h4.8c0.1,0,0.2-0.1,0.2-0.2v-2.1h0.9v2.1c0,0.1,0.1,0.2,0.2,0.2h4.8c0.1,0,0.2-0.1,0.2-0.2v-3v-0.1l-2.3-4c0-0.1-0.1-0.1-0.2-0.1s-0.2,0.1-0.2,0.2l-0.1,0.7c0,0,0,0.1,0,0.2l1.6,2.9h-9.1l1.6-2.9c0,0,0-0.1,0-0.2l-0.2-0.7c0-0.1-0.1-0.2-0.2-0.2c-0.1,0-0.2,0-0.2,0.1l-2.3,4v0.1v3C292.7,168.9,292.7,168.9,292.9,168.9z M299.7,166.3h3.6v1.9h-3.6V166.3z M293.7,166.3h3.6v1.9h-3.6V166.3z"/><path id="XMLID_97_" fill="#363636" d="M299.2,100.8c-0.5,0.3-1,0.4-1.8,0.4c-0.6,0-1.1-0.1-1.5-0.4c-0.4-0.3-0.8-0.6-1-1.1c-0.3-0.5-0.4-1-0.4-1.6s0.1-1.2,0.4-1.8c0.3-0.5,0.6-0.9,1.2-1.2c0.5-0.3,1-0.4,1.7-0.4c0.6,0,1.1,0.1,1.5,0.3v0.8c-0.5-0.3-0.9-0.4-1.5-0.4c-0.5,0-0.9,0.1-1.3,0.3c-0.4,0.2-0.6,0.5-0.9,0.9c-0.2,0.4-0.3,0.9-0.3,1.4s0.1,0.9,0.3,1.3c0.2,0.4,0.5,0.7,0.8,0.9c0.3,0.2,0.7,0.3,1.2,0.3c0.6,0,1.2-0.1,1.6-0.4L299.2,100.8L299.2,100.8z"/><path fill="#363636" d="M304.5,98.8c0,0.7-0.2,1.3-0.6,1.7c-0.4,0.4-0.9,0.6-1.6,0.6c-0.7,0-1.2-0.2-1.6-0.6s-0.6-1-0.6-1.7s0.2-1.3,0.6-1.8c0.4-0.4,1-0.6,1.7-0.6s1.2,0.2,1.6,0.6C304.3,97.5,304.5,98.1,304.5,98.8z M303.8,98.8c0-0.6-0.1-1-0.4-1.3c-0.3-0.3-0.6-0.5-1.1-0.5s-0.8,0.2-1.1,0.5s-0.4,0.7-0.4,1.3c0,0.6,0.1,0.9,0.4,1.2c0.3,0.3,0.6,0.5,1.1,0.5s0.8-0.1,1.1-0.4C303.8,99.8,303.8,99.4,303.8,98.8z"/><path fill="#363636" d="M309.5,102.7H309v-1.6h-3.3v1.6H305v-2.3h0.4c0.8-1.1,1.2-2.4,1.2-3.9h2.3v3.9h0.7L309.5,102.7L309.5,102.7z M308,100.4v-3.2h-1c-0.1,1.2-0.4,2.3-1,3.2H308z"/><path fill="#363636" d="M314,99h-3.2c0,0.5,0.1,0.9,0.4,1.2c0.3,0.3,0.6,0.4,1.1,0.4c0.5,0,1-0.2,1.4-0.5v0.7c-0.4,0.3-0.9,0.4-1.6,0.4c-0.6,0-1.2-0.2-1.5-0.6c-0.3-0.4-0.6-1-0.6-1.7c0-0.4,0.1-0.9,0.3-1.2c0.2-0.4,0.4-0.6,0.7-0.9c0.3-0.2,0.7-0.3,1.1-0.3c0.6,0,1,0.2,1.4,0.6c0.3,0.4,0.5,0.9,0.5,1.6L314,99L314,99z M313.3,98.4c0-0.4-0.1-0.7-0.3-1c-0.2-0.2-0.5-0.3-0.8-0.3c-0.3,0-0.6,0.1-0.9,0.3c-0.3,0.2-0.4,0.6-0.4,0.9L313.3,98.4L313.3,98.4z"/><path fill="#363636" d="M319.3,98.7c0,0.8-0.2,1.4-0.6,1.8s-0.9,0.7-1.5,0.7c-0.6,0-1-0.3-1.3-0.8l0,0v2.7H315v-6.5h0.7v0.8l0,0c0.3-0.6,0.9-0.9,1.5-0.9c0.6,0,1,0.2,1.3,0.6C319,97.4,319.3,98,319.3,98.7z M318.5,98.7c0-0.5-0.1-0.9-0.3-1.2c-0.2-0.3-0.6-0.4-0.9-0.4c-0.4,0-0.7,0.1-1,0.4c-0.3,0.3-0.4,0.6-0.4,1.1v0.6c0,0.4,0.1,0.7,0.4,0.9c0.3,0.3,0.6,0.4,0.9,0.4c0.4,0,0.8-0.2,1-0.5C318.3,99.7,318.5,99.3,318.5,98.7z"/><path id="XMLID_88_" fill="#363636" d="M326.1,101.1h-1l-2-2.2l0,0v2.2h-0.7v-2.2l0,0l-2,2.2h-0.9l2.2-2.3l-2.1-2.2h0.9l1.9,2.1l0,0v-2.1h0.7v2.1l0,0l1.9-2.1h0.9l-2.1,2.2L326.1,101.1z"/><path fill="#363636" d="M330.1,101.1h-0.7v-0.7l0,0c-0.3,0.6-0.8,0.8-1.4,0.8c-0.4,0-0.8-0.1-1-0.3c-0.3-0.2-0.4-0.6-0.4-0.9c0-0.9,0.5-1.3,1.5-1.5l1.3-0.2c0-0.8-0.3-1.2-0.9-1.2c-0.6,0-1,0.2-1.5,0.6V97c0.1-0.1,0.3-0.2,0.7-0.3c0.3-0.1,0.6-0.1,0.9-0.1c1.1,0,1.6,0.6,1.6,1.7L330.1,101.1L330.1,101.1z M329.4,98.8l-1.1,0.2c-0.4,0-0.6,0.1-0.8,0.3c-0.2,0.2-0.2,0.3-0.2,0.6c0,0.2,0.1,0.4,0.3,0.6c0.2,0.1,0.4,0.2,0.6,0.2c0.3,0,0.6-0.1,0.9-0.4c0.2-0.3,0.3-0.6,0.3-0.9L329.4,98.8L329.4,98.8z"/><path id="XMLID_85_" fill="#363636" d="M335.1,101.1h-0.7v-2h-2.3v2h-0.7v-4.5h0.7v1.8h2.3v-1.8h0.7V101.1z"/><path id="XMLID_84_" fill="#363636" d="M340.5,101.1h-0.6v-3.6c0,0.1-0.2,0.3-0.3,0.5l-2,3h-0.7v-4.5h0.6v3.5l0.3-0.4l2.1-3.1h0.7L340.5,101.1L340.5,101.1z"/><path fill="#363636" d="M345.5,99h-3.2c0,0.5,0.1,0.9,0.4,1.2c0.3,0.3,0.6,0.4,1.1,0.4s1-0.2,1.4-0.5v0.7c-0.4,0.3-0.9,0.4-1.6,0.4c-0.6,0-1.2-0.2-1.5-0.6s-0.6-1-0.6-1.7c0-0.4,0.1-0.9,0.3-1.2c0.2-0.4,0.4-0.6,0.7-0.9c0.3-0.2,0.7-0.3,1.1-0.3c0.6,0,1,0.2,1.4,0.6c0.3,0.4,0.5,0.9,0.5,1.6L345.5,99L345.5,99z M344.7,98.4c0-0.4-0.1-0.7-0.3-1c-0.2-0.2-0.5-0.3-0.8-0.3c-0.3,0-0.6,0.1-0.9,0.3c-0.3,0.2-0.4,0.6-0.4,0.9L344.7,98.4L344.7,98.4z"/><rect id="XMLID_81_" x="260" y="210.1" fill="#744DA9" width="120.2" height="62.7"/><path id="XMLID_80_" fill="#FFFFFF" d="M316,237.5v8.6h-0.9v-8.6h-2.7v-0.8h6.3v0.8H316z"/><path fill="#FFFFFF" d="M319.3,242.9c0,0.8,0.2,1.5,0.6,2s1,0.7,1.7,0.7c0.8,0,1.5-0.3,2.1-0.8v0.8c-0.6,0.5-1.4,0.7-2.3,0.7s-1.7-0.3-2.2-0.9c-0.5-0.6-0.8-1.5-0.8-2.6c0-0.6,0.1-1.2,0.4-1.8c0.3-0.6,0.6-1,1.1-1.3s1-0.5,1.6-0.5c0.9,0,1.5,0.3,2,0.9c0.5,0.6,0.7,1.4,0.7,2.4v0.4L319.3,242.9L319.3,242.9z M323.4,242.1c0-0.7-0.2-1.2-0.5-1.6c-0.3-0.4-0.8-0.6-1.3-0.6c-0.6,0-1.1,0.2-1.4,0.6c-0.4,0.4-0.6,0.9-0.7,1.6H323.4L323.4,242.1z"/><path id="XMLID_77_" fill="#FFFFFF" d="M330.4,245.8c-0.5,0.3-1.1,0.5-1.8,0.5c-0.6,0-1.2-0.1-1.6-0.4c-0.5-0.3-0.9-0.7-1.1-1.2c-0.3-0.5-0.4-1.1-0.4-1.7c0-0.7,0.1-1.3,0.4-1.9c0.3-0.6,0.7-1,1.2-1.3s1.1-0.5,1.8-0.5c0.6,0,1.1,0.1,1.5,0.3v0.9c-0.5-0.3-1-0.5-1.6-0.5c-0.5,0-0.9,0.1-1.3,0.3c-0.4,0.3-0.7,0.6-0.9,1c-0.2,0.4-0.3,0.9-0.3,1.5c0,0.8,0.2,1.5,0.6,2s1,0.8,1.7,0.8c0.6,0,1.2-0.2,1.7-0.6L330.4,245.8L330.4,245.8z"/><path id="XMLID_76_" fill="#FFFFFF" d="M333.9,240.1v6h-0.8v-6h-2v-0.7h4.9v0.7H333.9L333.9,240.1z"/><path fill="#FFFFFF" d="M342,244c0,0.6-0.2,1.1-0.6,1.5c-0.4,0.4-0.9,0.6-1.5,0.6h-2.7v-6.7h0.9v2.7h1.9c0.7,0,1.2,0.2,1.6,0.5C342,242.9,342,243.4,342,244z M341.2,244c0-0.4-0.1-0.7-0.4-0.9s-0.6-0.3-1.1-0.3H338v2.6h1.7c0.5,0,0.8-0.1,1.1-0.3C341,244.8,341.2,244.5,341.2,244z M343.5,246.1v-6.7h0.9v6.7H343.5z"/><path id="XMLID_72_" fill="#FFFFFF" d="M303.8,243.7c-1,0.8-1.8,1.8-2.7,2.7c-0.3-0.4-0.7-0.8-0.9-1.3c-0.3-0.6-1.2,0.3-0.9,0.8c0.3,0.7,0.8,1.2,1.3,1.7c0.2,0.2,0.6,0,0.7-0.2c0.9-1.1,1.8-2.1,2.9-3C304.8,244.1,304.5,243.2,303.8,243.7z"/><path fill="#FFFFFF" d="M306.8,234.4h-2.6c-0.2-0.2-0.4-0.3-0.7-0.3h-1v-0.2c0-0.3-0.5-0.7-0.9-0.7s-0.9,0.3-0.9,0.7v0.2h-1c-0.3,0-0.6,0.1-0.7,0.3h-2.6c-0.3,0-0.5,0.2-0.5,0.5v14.3c0,0.3,0.2,0.5,0.5,0.5h10.5c0.3,0,0.5-0.2,0.5-0.5v-14.3C307.3,234.6,307,234.4,306.8,234.4z M306.3,248.7h-9.4v-13.3h1.4l0,0h0.5c0.1,0.4,0.5,0.7,0.9,0.7h1.9h1.9c0.4,0,0.8-0.3,0.9-0.7h0.5l0,0h1.4L306.3,248.7L306.3,248.7z"/><rect id="XMLID_69_" x="297.7" y="237.1" fill="#FFFFFF" width="7.6" height="0.8"/><rect id="XMLID_68_" x="297.7" y="238.7" fill="#FFFFFF" width="7.6" height="0.8"/><rect id="XMLID_67_" x="297.7" y="240.4" fill="#FFFFFF" width="7.6" height="0.8"/><rect id="XMLID_66_" x="297.7" y="242.1" fill="#FFFFFF" width="7.6" height="0.8"/><rect id="XMLID_65_" x="260" y="113.4" fill="#FFFFFF" width="120.2" height="12.8"/><path fill="#363636" d="M278.8,120.5c0,0.4-0.1,0.7-0.4,0.9c-0.3,0.2-0.6,0.3-1,0.3h-1.2v-4.2h2.2v0.5h-1.6v1.3h0.8c0.4,0,0.7,0.1,1,0.3C278.6,119.9,278.8,120.2,278.8,120.5z M278.3,120.5c0-0.5-0.3-0.8-0.9-0.8h-0.6v1.5h0.7c0.3,0,0.5-0.1,0.7-0.2C278.1,121,278.3,120.8,278.3,120.5z"/><path fill="#363636" d="M281.8,120.8c0,0.3-0.1,0.5-0.3,0.7c-0.2,0.2-0.4,0.3-0.7,0.3h-1.3v-3h0.5v1.2h0.8c0.3,0,0.6,0.1,0.7,0.3C281.6,120.4,281.8,120.5,281.8,120.8z M281.3,120.8c0-0.3-0.2-0.5-0.6-0.5H280v1h0.7C281.1,121.4,281.3,121.2,281.3,120.8z M282.8,121.8h-0.5v-3h0.5V121.8z"/><path id="XMLID_59_" fill="#363636" d="M285.9,121.7c-0.2,0.1-0.5,0.2-0.8,0.2c-0.3,0-0.5,0-0.7-0.2c-0.2-0.2-0.4-0.3-0.5-0.5s-0.2-0.5-0.2-0.8c0-0.5,0.1-0.9,0.4-1.2c0.3-0.3,0.6-0.5,1.1-0.5c0.3,0,0.5,0,0.7,0.2v0.5c-0.2-0.2-0.5-0.2-0.7-0.2c-0.3,0-0.6,0.1-0.8,0.3c-0.2,0.2-0.3,0.5-0.3,0.9c0,0.3,0.1,0.6,0.3,0.8c0.2,0.2,0.4,0.3,0.7,0.3c0.3,0,0.5-0.1,0.7-0.3L285.9,121.7L285.9,121.7z"/><path id="XMLID_58_" fill="#363636" d="M288.4,119.2h-0.9v2.6H287v-2.6h-0.9v-0.4h2.3V119.2L288.4,119.2z"/><path fill="#363636" d="M291.7,120.2c0,0.5-0.1,0.9-0.4,1.2c-0.3,0.3-0.6,0.5-1,0.5s-0.7-0.2-0.9-0.5l0,0v1.8h-0.5v-4.4h0.5v0.5l0,0c0.3-0.4,0.6-0.6,1-0.6s0.7,0.1,0.9,0.4C291.7,119.3,291.7,119.7,291.7,120.2z M291.2,120.2c0-0.3-0.1-0.6-0.2-0.8c-0.1-0.2-0.3-0.3-0.6-0.3c-0.3,0-0.5,0.1-0.7,0.3c-0.2,0.2-0.3,0.4-0.3,0.7v0.4c0,0.3,0.1,0.5,0.3,0.6c0.2,0.2,0.4,0.3,0.6,0.3c0.3,0,0.5-0.1,0.7-0.3C291.2,120.9,291.2,120.6,291.2,120.2z"/><path fill="#363636" d="M294.7,120.8c0,0.3-0.1,0.5-0.3,0.7s-0.4,0.3-0.7,0.3h-1.3v-3h0.5v1.2h0.8c0.3,0,0.6,0.1,0.7,0.3C294.7,120.4,294.7,120.5,294.7,120.8z M294.2,120.8c0-0.3-0.2-0.5-0.6-0.5h-0.7v1h0.7C294.2,121.4,294.2,121.2,294.2,120.8z M295.7,121.8h-0.5v-3h0.5V121.8z"/><path fill="#363636" d="M299.2,121.8h-0.3v-2.4c0,0.1-0.1,0.2-0.2,0.3l-1.4,2h-0.4v-3h0.4v2.3l0.2-0.3l1.4-2h0.5v3.1H299.2z M299.2,117.3c0,0.1,0,0.3-0.1,0.3c0,0.1-0.1,0.2-0.2,0.3c-0.1,0.1-0.2,0.1-0.3,0.2c-0.1,0-0.3,0.1-0.4,0.1c-0.1,0-0.3,0-0.4,0s-0.2-0.1-0.3-0.2s-0.2-0.2-0.2-0.3c0-0.1-0.1-0.2-0.1-0.4h0.5c0,0.1,0,0.1,0,0.2s0,0.1,0.1,0.2c0,0,0.1,0.1,0.2,0.1s0.2,0,0.3,0s0.2,0,0.2,0s0.1-0.1,0.2-0.1c0,0,0.1-0.1,0.1-0.2s0-0.1,0-0.2H299.2z"/><path id="XMLID_50_" fill="#363636" d="M304.3,121.8h-0.5v-2.6h-1.5v2.6h-0.5v-3h2.5V121.8L304.3,121.8z"/><path fill="#363636" d="M307.5,120.4h-2.1c0,0.3,0.1,0.6,0.3,0.8c0.2,0.2,0.4,0.3,0.7,0.3c0.3,0,0.6-0.1,0.9-0.3v0.4c-0.3,0.2-0.6,0.3-1,0.3s-0.8-0.1-1-0.4c-0.2-0.3-0.3-0.6-0.3-1.2c0-0.3,0-0.6,0.2-0.8c0.1-0.3,0.3-0.4,0.5-0.6c0.2-0.2,0.4-0.2,0.7-0.2c0.4,0,0.7,0.1,0.9,0.4s0.3,0.6,0.3,1.1L307.5,120.4L307.5,120.4z M307,120c0-0.3-0.1-0.5-0.2-0.6s-0.3-0.2-0.6-0.2c-0.2,0-0.4,0.1-0.6,0.3c-0.2,0.2-0.3,0.4-0.3,0.6L307,120L307,120z"/><path fill="#363636" d="M311,120.2c0,0.5-0.1,0.9-0.4,1.2c-0.3,0.3-0.6,0.5-1,0.5s-0.7-0.2-0.9-0.5l0,0v1.8h-0.5v-4.4h0.5v0.5l0,0c0.3-0.4,0.6-0.6,1-0.6s0.7,0.1,0.9,0.4C310.8,119.3,311,119.7,311,120.2z M310.5,120.2c0-0.3-0.1-0.6-0.2-0.8c-0.1-0.2-0.3-0.3-0.6-0.3c-0.3,0-0.5,0.1-0.7,0.3c-0.2,0.2-0.3,0.4-0.3,0.7v0.4c0,0.3,0.1,0.5,0.3,0.6c0.2,0.1,0.4,0.3,0.6,0.3c0.3,0,0.5-0.1,0.7-0.3C310.5,120.9,310.5,120.6,310.5,120.2z"/><path fill="#363636" d="M314.3,120.4H312c0,0.3,0.1,0.6,0.3,0.8c0.2,0.2,0.4,0.3,0.7,0.3c0.3,0,0.6-0.1,0.9-0.3v0.4c-0.3,0.2-0.6,0.3-1,0.3s-0.8-0.1-1-0.4c-0.2-0.3-0.3-0.6-0.3-1.2c0-0.3,0-0.6,0.2-0.8c0.1-0.3,0.3-0.4,0.5-0.6c0.2-0.2,0.4-0.2,0.7-0.2c0.4,0,0.7,0.1,0.9,0.4s0.3,0.6,0.3,1.1L314.3,120.4L314.3,120.4z M313.8,120c0-0.3-0.1-0.5-0.2-0.6c-0.1-0.1-0.3-0.2-0.6-0.2c-0.2,0-0.4,0.1-0.6,0.3c-0.2,0.2-0.3,0.4-0.3,0.6L313.8,120L313.8,120z"/><path id="XMLID_43_" fill="#363636" d="M317,118.8l-1,1.5l1,1.5h-0.6l-0.6-1l-0.1-0.2l0,0l-0.7,1.2h-0.5l1-1.5l-1-1.5h0.6c0.4,0.7,0.6,1.2,0.7,1.2l0,0l0.8-1.2H317z"/><path fill="#363636" d="M320.4,120.3c0,0.5-0.1,0.9-0.4,1.2c-0.3,0.3-0.6,0.4-1.1,0.4c-0.4,0-0.8-0.1-1.1-0.4s-0.4-0.6-0.4-1.1s0.1-0.9,0.4-1.2c0.3-0.3,0.6-0.4,1.1-0.4c0.4,0,0.8,0.1,1,0.4C320.1,119.5,320.4,119.8,320.4,120.3z M319.8,120.3c0-0.4-0.1-0.7-0.3-0.9c-0.2-0.2-0.4-0.3-0.7-0.3s-0.6,0.1-0.7,0.3c-0.2,0.2-0.3,0.5-0.3,0.9c0,0.3,0.1,0.6,0.3,0.9c0.2,0.2,0.4,0.3,0.7,0.3c0.3,0,0.6-0.1,0.7-0.3C319.8,120.9,319.8,120.7,319.8,120.3z"/><path fill="#363636" d="M323.6,122.8h-0.5v-1.1h-2.2v1.1h-0.4v-1.5h0.3c0.5-0.7,0.8-1.6,0.8-2.6h1.5v2.6h0.4L323.6,122.8L323.6,122.8z M322.6,121.4v-2.2h-0.7c0,0.8-0.3,1.5-0.7,2.2H322.6z"/><path id="XMLID_38_" fill="#363636" d="M328.1,121.8h-0.7l-1.3-1.4l0,0v1.4h-0.5v-3h0.5v1.4l0,0l1.2-1.4h0.6l-1.4,1.5L328.1,121.8z"/><path id="XMLID_37_" fill="#363636" d="M332.1,121.7c-0.2,0.1-0.5,0.2-0.8,0.2c-0.3,0-0.5,0-0.7-0.2s-0.4-0.3-0.5-0.5s-0.2-0.5-0.2-0.8c0-0.5,0.1-0.9,0.4-1.2c0.3-0.3,0.6-0.5,1.1-0.5c0.3,0,0.5,0,0.7,0.2v0.5c-0.2-0.2-0.5-0.2-0.7-0.2c-0.3,0-0.6,0.1-0.8,0.3c-0.2,0.2-0.3,0.5-0.3,0.9c0,0.3,0.1,0.6,0.3,0.8c0.2,0.2,0.4,0.3,0.7,0.3c0.3,0,0.5-0.1,0.7-0.3L332.1,121.7L332.1,121.7z"/><path id="XMLID_36_" fill="#363636" d="M334.6,119.2h-0.9v2.6h-0.5v-2.6h-0.9v-0.4h2.3V119.2L334.6,119.2z"/><path fill="#363636" d="M338,120.2c0,0.5-0.1,0.9-0.4,1.2c-0.3,0.3-0.6,0.5-1,0.5c-0.4,0-0.7-0.2-0.9-0.5l0,0v1.8h-0.5v-4.4h0.5v0.5l0,0c0.3-0.4,0.6-0.6,1-0.6s0.7,0.1,0.9,0.4C338,119.3,338,119.7,338,120.2z M337.4,120.2c0-0.3-0.1-0.6-0.2-0.8c-0.1-0.2-0.3-0.3-0.6-0.3c-0.3,0-0.5,0.1-0.7,0.3c-0.2,0.2-0.3,0.4-0.3,0.7v0.4c0,0.3,0.1,0.5,0.3,0.6c0.2,0.2,0.4,0.3,0.6,0.3c0.3,0,0.5-0.1,0.7-0.3C337.4,120.9,337.4,120.6,337.4,120.2z"/><path fill="#363636" d="M341,121.8h-0.5v-0.5l0,0c-0.2,0.3-0.5,0.6-0.9,0.6c-0.3,0-0.5-0.1-0.7-0.3c-0.2-0.2-0.3-0.4-0.3-0.6c0-0.6,0.3-0.9,1-1l0.9-0.1c0-0.5-0.2-0.8-0.6-0.8c-0.3,0-0.7,0.1-1,0.4V119c0.1-0.1,0.3-0.1,0.5-0.2c0.2,0,0.4-0.1,0.6-0.1c0.7,0,1.1,0.4,1.1,1.1L341,121.8L341,121.8z M340.5,120.3l-0.7,0.1c-0.3,0-0.4,0.1-0.5,0.2c-0.1,0.1-0.1,0.2-0.1,0.4s0,0.3,0.2,0.3c0.1,0.1,0.3,0.1,0.4,0.1c0.3,0,0.4-0.1,0.6-0.3c0.2-0.2,0.2-0.4,0.2-0.6L340.5,120.3L340.5,120.3z"/><path id="XMLID_31_" fill="#363636" d="M344.2,121.8h-0.5v-1.4h-1.5v1.4h-0.5v-3h0.5v1.2h1.5v-1.2h0.5V121.8z"/><path id="XMLID_30_" fill="#363636" d="M347.7,121.8h-0.5v-2.4c0,0.1-0.1,0.2-0.2,0.3l-1.4,2h-0.4v-3h0.4v2.3l0.2-0.3l1.4-2h0.5V121.8z"/><path id="XMLID_29_" fill="#363636" d="M351.5,122.8h-0.3v-1.1h-2.5v-3h0.5v2.6h1.5v-2.6h0.5v2.6h0.4v1.5H351.5z"/><path fill="#363636" d="M354.5,121.8H354v-0.5l0,0c-0.2,0.3-0.5,0.6-0.9,0.6c-0.3,0-0.5-0.1-0.7-0.3c-0.2-0.2-0.3-0.4-0.3-0.6c0-0.6,0.3-0.9,1-1l0.9-0.1c0-0.5-0.2-0.8-0.6-0.8c-0.3,0-0.7,0.1-1,0.4V119c0.1-0.1,0.3-0.1,0.5-0.2c0.2-0.1,0.4-0.1,0.6-0.1c0.7,0,1.1,0.4,1.1,1.1L354.5,121.8L354.5,121.8z M354,120.3l-0.7,0.1c-0.3,0-0.4,0.1-0.5,0.2c-0.1,0.1-0.1,0.2-0.1,0.4s0,0.3,0.2,0.3c0.1,0.1,0.3,0.1,0.4,0.1c0.3,0,0.4-0.1,0.6-0.3c0.2-0.2,0.2-0.4,0.2-0.6L354,120.3L354,120.3z"/><path id="XMLID_26_" fill="#363636" d="M358.6,121.8h-0.5v-2.5l-0.2,0.6l-0.8,1.9h-0.4l-0.8-1.9c0-0.1-0.1-0.3-0.2-0.6v2.5h-0.4v-3h0.6l0.8,2c0,0.1,0.1,0.3,0.2,0.6l0.2-0.6l0.8-2h0.6L358.6,121.8L358.6,121.8z"/><path fill="#363636" d="M360.1,121.5c0,0.1,0,0.2-0.1,0.2c0,0-0.1,0.1-0.2,0.1s-0.2,0-0.2-0.1c0,0-0.1-0.1-0.1-0.2s0-0.2,0.1-0.2c0-0.1,0.1-0.1,0.2-0.1s0.2,0,0.2,0.1C360.1,121.4,360.1,121.4,360.1,121.5z M361.6,121.5c0,0.1,0,0.2-0.1,0.2c0,0-0.1,0.1-0.2,0.1c-0.1,0-0.2,0-0.2-0.1c0,0-0.1-0.1-0.1-0.2s0-0.2,0.1-0.2c0-0.1,0.1-0.1,0.2-0.1c0.1,0,0.2,0,0.2,0.1C361.6,121.4,361.6,121.4,361.6,121.5z M363.1,121.5c0,0.1,0,0.2-0.1,0.2c0,0-0.1,0.1-0.2,0.1s-0.2,0-0.2-0.1c0,0-0.1-0.1-0.1-0.2s0-0.2,0.1-0.2c0-0.1,0.1-0.1,0.2-0.1s0.2,0,0.2,0.1S363.1,121.4,363.1,121.5z"/><path id="XMLID_22_" fill="#565656" d="M372.6,119.1l0.2-0.2l1.3,1.3l1.3-1.3l0.2,0.2l-1.5,1.5L372.6,119.1z"/><path fill="#848484" d="M264.5,117.9v-1.3h1.3v1.3H264.5z M264.5,119.6v-1.3h1.3v1.3H264.5z M264.5,121.3V120h1.3v1.3H264.5z M264.5,123v-1.3h1.3v1.3H264.5z M265,117v0.4h0.4V117H265z M265,118.8v0.4h0.4v-0.4H265z M265,120.5v0.4h0.4v-0.4H265z M265,122.2v0.4h0.4v-0.4H265z M266.7,117h4.7v0.4h-4.7V117z M266.7,119.2v-0.4h3.8v0.4H266.7z M269.8,120.5v0.4h-3v-0.4H269.8z M266.7,122.6v-0.4h3.8v0.4H266.7z"/><rect id="XMLID_9_" x="273.1" y="56.6" fill="#E3E3E3" width="20.6" height="20.5"/><path fill="#848484" d="M279.8,66.3c0.1,0,0.2,0,0.2,0c0.1,0,0.1,0.1,0.2,0.1c0,0,0.1,0.1,0.1,0.2s0,0.1,0,0.2c0,0.1,0,0.2,0,0.2s-0.1,0.1-0.1,0.2c0,0-0.1,0.1-0.2,0.1c-0.1,0-0.1,0-0.2,0s-0.2,0-0.2,0c-0.1,0-0.1-0.1-0.2-0.1s-0.1-0.1-0.1-0.2c0,0,0-0.1,0-0.2c0-0.1,0-0.2,0-0.2c0-0.1,0.1-0.1,0.1-0.2c0,0,0.1-0.1,0.2-0.1H279.8z M283.1,66.3c0.1,0,0.2,0,0.2,0c0.1,0,0.1,0.1,0.2,0.1c0.1,0,0.1,0.1,0.1,0.2s0,0.1,0,0.2c0,0.1,0,0.2,0,0.2c0,0.1-0.1,0.1-0.1,0.2c0,0-0.1,0.1-0.2,0.1s-0.1,0-0.2,0c-0.1,0-0.2,0-0.2,0c-0.1,0-0.1-0.1-0.2-0.1c0,0-0.1-0.1-0.1-0.2c0-0.1,0-0.1,0-0.2c0-0.1,0-0.2,0-0.2c0-0.1,0.1-0.1,0.1-0.2c0,0,0.1-0.1,0.2-0.1C283.1,66.3,283.1,66.3,283.1,66.3z M286.7,66.3c0.1,0,0.2,0,0.2,0c0.1,0,0.1,0.1,0.2,0.1c0,0,0.1,0.1,0.1,0.2s0,0.1,0,0.2c0,0.1,0,0.2,0,0.2c0,0.1-0.1,0.1-0.1,0.2c0,0-0.1,0.1-0.2,0.1s-0.1,0-0.2,0c-0.1,0-0.2,0-0.2,0c-0.1,0-0.1-0.1-0.2-0.1c0,0-0.1-0.1-0.1-0.2c0-0.1,0-0.1,0-0.2c0-0.1,0-0.2,0-0.2c0-0.1,0.1-0.1,0.1-0.2c0,0,0.1-0.1,0.2-0.1C286.7,66.3,286.7,66.3,286.7,66.3z"/><rect id="XMLID_5_" x="252.4" y="56.6" fill="#E3E3E3" width="20.6" height="20.5"/><path fill="#848484" d="M258,64.9v-0.6h9.2v0.6H258z M258,67.2v-0.6h9.2v0.6H258z M258,69.5v-0.6h9.2v0.6H258z"/></g></svg>
