<!-- Generated by IcoMoon.io -->
<svg version="1.1" xmlns="http://www.w3.org/2000/svg" width="32" height="32" viewBox="0 0 32 32">
<title>Like</title>
<path d="M29 10q0.609 0 1.156 0.234t0.961 0.641 0.648 0.953 0.234 1.172q0 0.5-0.156 0.953l-4 12q-0.156 0.453-0.438 0.836t-0.656 0.648-0.82 0.414-0.93 0.148h-8q-2.797 0-5.391-1.078-1.125-0.453-2.258-0.688t-2.352-0.234h-7v-14h6.516q1.016 0 1.914-0.375t1.617-1.094l9.719-9.703q0.391-0.391 0.781-0.609t0.953-0.219q0.516 0 0.969 0.195t0.797 0.539 0.539 0.797 0.195 0.969q0 1.266-0.281 2.414t-0.828 2.273q-0.313 0.672-0.531 1.367t-0.297 1.445h6.938zM25 26q0.313 0 0.578-0.188t0.375-0.5q0.078-0.219 0.289-0.844t0.508-1.508 0.656-1.938 0.719-2.133 0.695-2.102 0.602-1.844 0.422-1.344 0.156-0.602q0-0.406-0.297-0.703t-0.703-0.297h-9q0-0.828 0.039-1.539t0.156-1.383 0.336-1.344 0.578-1.422q0.438-0.906 0.664-1.852t0.227-1.961q0-0.219-0.141-0.359t-0.359-0.141q-0.094 0-0.164 0.070l-0.133 0.133-9.734 9.75q-0.5 0.5-1.070 0.875t-1.211 0.641q-1.25 0.531-2.672 0.531h-4.516v10h5q2.781 0 5.391 1.078 2.25 0.922 4.609 0.922h8z"></path>
</svg>
