<!-- Generated by IcoMoon.io -->
<svg version="1.1" xmlns="http://www.w3.org/2000/svg" width="32" height="32" viewBox="0 0 32 32">
<title>odnoklassniki</title>
<path d="M16 16.196c-2.238 0-4.148-0.791-5.732-2.375s-2.375-3.488-2.375-5.714c0-2.237 0.791-4.148 2.375-5.732s3.495-2.375 5.732-2.375 4.148 0.791 5.732 2.375 2.375 3.495 2.375 5.732c0 2.227-0.791 4.13-2.375 5.714s-3.495 2.375-5.732 2.375zM16 4.107c-1.095 0-2.032 0.389-2.813 1.17s-1.17 1.723-1.17 2.83c0 1.095 0.389 2.032 1.17 2.813s1.718 1.17 2.813 1.17 2.032-0.389 2.813-1.17c0.78-0.78 1.17-1.718 1.17-2.813 0-1.107-0.389-2.050-1.17-2.83s-1.718-1.17-2.813-1.17zM25.339 17.179c0.155 0.321 0.245 0.616 0.268 0.884s-0.004 0.509-0.080 0.723-0.236 0.443-0.473 0.688-0.491 0.464-0.759 0.661-0.634 0.443-1.098 0.741c-1.37 0.87-3.245 1.429-5.625 1.679l1.304 1.286 4.768 4.768c0.357 0.37 0.536 0.809 0.536 1.321s-0.179 0.946-0.536 1.304l-0.214 0.232c-0.37 0.357-0.809 0.536-1.321 0.536s-0.952-0.179-1.321-0.536c-0.798-0.809-2.387-2.405-4.768-4.786l-4.768 4.786c-0.37 0.357-0.809 0.536-1.321 0.536s-0.946-0.179-1.304-0.536l-0.214-0.232c-0.37-0.357-0.554-0.791-0.554-1.304s0.184-0.952 0.554-1.321l6.054-6.054c-2.416-0.25-4.304-0.809-5.661-1.679-0.464-0.298-0.83-0.545-1.098-0.741s-0.521-0.416-0.759-0.661-0.396-0.473-0.473-0.688-0.104-0.455-0.080-0.723 0.112-0.563 0.268-0.884c0.12-0.238 0.286-0.446 0.5-0.625s0.464-0.309 0.75-0.393 0.62-0.071 1 0.036c0.38 0.107 0.768 0.316 1.161 0.625 0.059 0.048 0.148 0.113 0.268 0.196s0.375 0.229 0.768 0.438 0.804 0.389 1.232 0.545 0.977 0.298 1.643 0.429 1.339 0.196 2.018 0.196c1.084 0 2.12-0.152 3.107-0.455s1.702-0.604 2.143-0.902l0.679-0.446c0.393-0.309 0.78-0.518 1.161-0.625s0.714-0.12 1-0.036 0.536 0.214 0.75 0.393 0.38 0.387 0.5 0.625z"></path>
</svg>
