<!-- Generated by IcoMoon.io -->
<svg version="1.1" xmlns="http://www.w3.org/2000/svg" width="32" height="32" viewBox="0 0 32 32">
<title>Search</title>
<path d="M21 0q1.516 0 2.922 0.391t2.625 1.109 2.227 1.727 1.727 2.227 1.109 2.625 0.391 2.922-0.391 2.922-1.109 2.625-1.727 2.227-2.227 1.727-2.625 1.109-2.922 0.391q-1.953 0-3.742-0.656t-3.289-1.891l-12.266 12.25q-0.297 0.297-0.703 0.297t-0.703-0.297-0.297-0.703 0.297-0.703l12.25-12.266q-1.234-1.5-1.891-3.289t-0.656-3.742q0-1.516 0.391-2.922t1.109-2.625 1.727-2.227 2.227-1.727 2.625-1.109 2.922-0.391zM21 20q1.859 0 3.5-0.711t2.859-1.93 1.93-2.859 0.711-3.5-0.711-3.5-1.93-2.859-2.859-1.93-3.5-0.711-3.5 0.711-2.859 1.93-1.93 2.859-0.711 3.5 0.711 3.5 1.93 2.859 2.859 1.93 3.5 0.711z"></path>
</svg>
