<svg version="1.1" xmlns="http://www.w3.org/2000/svg" x="0px" y="0px" viewBox="0 0 256 96" enable-background="new 0 0 256 96"><rect fill="#F03B4C" width="96" height="96"/><rect x="96" fill="#191919" enable-background="new  " width="160" height="96"/><g><path fill="#FFFFFF" d="M126.4,18.1c0,1-0.2,1.8-0.7,2.6c-0.5,0.8-1.2,1.4-2.1,1.8s-1.9,0.6-3.1,0.6h-1.8v5.5h-2.6V13.3h4.8c1.8,0,3.1,0.4,4.1,1.2C125.9,15.4,126.4,16.6,126.4,18.1z M123.7,18.2c0-0.9-0.3-1.5-0.8-2c-0.6-0.5-1.4-0.7-2.4-0.7h-1.8V21h1.6c1.1,0,1.9-0.2,2.5-0.7C123.4,19.8,123.7,19.1,123.7,18.2z"/><path fill="#FFFFFF" d="M129.2,23.9c0,1,0.4,1.8,0.9,2.3c0.6,0.5,1.4,0.8,2.4,0.8c0.6,0,1.2-0.1,1.8-0.3c0.6-0.2,1.1-0.4,1.5-0.8V28c-0.4,0.3-1,0.5-1.7,0.7s-1.4,0.3-2.2,0.3c-1.7,0-3-0.5-3.9-1.5s-1.4-2.4-1.4-4.2c0-1.2,0.2-2.2,0.7-3.1s1.1-1.6,1.9-2.1c0.8-0.5,1.7-0.7,2.7-0.7c1.5,0,2.7,0.5,3.5,1.4s1.3,2.2,1.3,3.9v1.2C136.7,23.9,129.2,23.9,129.2,23.9z M134.2,22.1c0-0.9-0.2-1.5-0.6-2c-0.4-0.5-1-0.7-1.7-0.7s-1.3,0.2-1.8,0.7s-0.8,1.1-0.9,1.9h5V22.1z"/><path id="XMLID_36_" fill="#FFFFFF" d="M146.3,28.7v-9h-4.9v9h-2.5v-11h9.8v11H146.3z"/><path fill="#FFFFFF" d="M153.8,23.9c0,1,0.4,1.8,0.9,2.3c0.6,0.5,1.4,0.8,2.4,0.8c0.6,0,1.2-0.1,1.8-0.3c0.6-0.2,1.1-0.4,1.5-0.8V28c-0.4,0.3-1,0.5-1.7,0.7s-1.4,0.3-2.2,0.3c-1.7,0-3-0.5-3.9-1.5s-1.4-2.4-1.4-4.2c0-1.2,0.2-2.2,0.7-3.1s1.1-1.6,1.9-2.1c0.8-0.5,1.7-0.7,2.7-0.7c1.5,0,2.7,0.5,3.5,1.4s1.3,2.2,1.3,3.9v1.2C161.3,23.9,153.8,23.9,153.8,23.9z M158.8,22.1c0-0.9-0.2-1.5-0.6-2c-0.4-0.5-1-0.7-1.7-0.7s-1.3,0.2-1.8,0.7s-0.8,1.1-0.9,1.9h5V22.1z"/><path id="XMLID_33_" fill="#FFFFFF" d="M167.6,19.7v9h-2.5v-9h-3v-2h8.5v2H167.6z"/><path id="XMLID_32_" fill="#FFFFFF" d="M180.4,28.7V21l-5.7,7.7h-2.1v-11h2.4v7.5l5.5-7.5h2.3v11H180.4z"/><path id="XMLID_31_" fill="#FFFFFF" d="M190.1,19.7v9h-2.5v-9h-3v-2h8.5v2H190.1z"/><path fill="#FFFFFF" d="M205,23.1c0,1.8-0.5,3.2-1.5,4.3s-2.4,1.6-4.2,1.6c-1.7,0-3-0.5-4.1-1.5c-1-1-1.5-2.4-1.5-4.1c0-1.8,0.5-3.3,1.5-4.3s2.5-1.6,4.3-1.6c1.7,0,3.1,0.5,4,1.5C204.5,20,205,21.3,205,23.1z M202.4,23.2c0-1.2-0.3-2.1-0.8-2.8c-0.5-0.6-1.3-0.9-2.2-0.9c-1,0-1.7,0.3-2.3,1s-0.8,1.6-0.8,2.8c0,1.2,0.3,2.1,0.8,2.7c0.6,0.6,1.3,1,2.3,1s1.7-0.3,2.3-1C202.1,25.4,202.4,24.4,202.4,23.2z"/><path fill="#FFFFFF" d="M218.1,22.9c0,1.8-0.5,3.3-1.4,4.4s-2.1,1.6-3.7,1.6c-1.3,0-2.4-0.6-3.1-1.7l0,0v6.4h-2.5V17.7h2.5v1.8l0,0c0.9-1.4,2.1-2,3.7-2c1.4,0,2.5,0.5,3.3,1.5C217.7,19.9,218.1,21.2,218.1,22.9z M215.5,22.9c0-1.1-0.2-1.9-0.7-2.5s-1.2-0.9-2-0.9s-1.6,0.3-2.1,0.9s-0.8,1.4-0.8,2.4v1.4c0,0.8,0.3,1.5,0.8,2s1.1,0.8,1.9,0.8c0.9,0,1.7-0.4,2.2-1.1C215.3,25.2,215.5,24.2,215.5,22.9z"/><path fill="#FFFFFF" d="M121.7,55.1v-1.5l0,0c-0.8,1.2-1.9,1.8-3.3,1.8c-1.1,0-1.9-0.3-2.6-0.9s-0.9-1.4-0.9-2.4s0.3-1.9,0.9-2.5s1.5-1,2.7-1.2l3.2-0.4c0-1.5-0.7-2.2-2.1-2.2c-0.7,0-1.3,0.1-2,0.3c-0.6,0.2-1.2,0.5-1.7,0.9v-2.2c0.4-0.3,1-0.5,1.8-0.7s1.5-0.3,2.1-0.3c1.4,0,2.5,0.4,3.2,1.1c0.7,0.7,1.1,1.8,1.1,3.2v7C124.1,55.1,121.7,55.1,121.7,55.1z M117.3,51.9c0,0.5,0.2,0.9,0.5,1.1c0.3,0.3,0.8,0.4,1.3,0.4c0.7,0,1.3-0.3,1.8-0.8s0.7-1.1,0.7-1.9v-1l-2.4,0.3c-0.8,0.1-1.3,0.3-1.6,0.6S117.3,51.3,117.3,51.9z"/><path id="XMLID_24_" fill="#FFFFFF" d="M134.2,55.1v-4.7h-4.9v4.7h-2.5v-11h2.5v4.3h4.9v-4.3h2.5v11H134.2z"/><path id="XMLID_23_" fill="#FFFFFF" d="M142.4,46.1v9H140v-11h6.4v2H142.4z"/><path id="XMLID_22_" fill="#FFFFFF" d="M153.9,55.1v-9h-2.5c-0.2,2.4-0.5,4.2-0.9,5.5s-0.8,2.2-1.4,2.8c-0.6,0.6-1.4,0.9-2.3,0.9c-0.5,0-0.9,0-1.1-0.1v-1.8c0.2,0.1,0.4,0.1,0.6,0.1c0.5,0,1-0.3,1.4-0.9c0.4-0.6,0.7-1.6,1-2.9s0.5-3.1,0.7-5.5h7v11L153.9,55.1L153.9,55.1z"/><path id="XMLID_21_" fill="#FFFFFF" d="M167.5,55.1v-7.7l-5.7,7.7h-2.1v-11h2.4v7.5l5.5-7.5h2.3v11H167.5z"/><path fill="#FFFFFF" d="M180.9,55.1v-7.7l-5.7,7.7h-2.1v-11h2.4v7.5l5.5-7.5h2.3v11H180.9z M182.4,39.4c-0.1,0.4-0.2,0.9-0.4,1.3c-0.2,0.4-0.4,0.7-0.8,1c-0.3,0.3-0.7,0.5-1.2,0.7s-1.1,0.3-1.7,0.3c-0.6,0-1.2-0.1-1.7-0.3s-0.9-0.4-1.2-0.7s-0.6-0.6-0.8-1s-0.3-0.8-0.3-1.3h2c0.1,0.6,0.3,1,0.6,1.3s0.8,0.4,1.5,0.4l0,0c0.6,0,1.1-0.2,1.5-0.5c0.3-0.3,0.5-0.7,0.6-1.3L182.4,39.4L182.4,39.4z"/><path id="XMLID_18_" fill="#FFFFFF" d="M194.3,54.7c-0.8,0.5-1.9,0.7-3.1,0.7c-1.1,0-2-0.2-2.8-0.7s-1.5-1.1-1.9-2c-0.5-0.8-0.7-1.8-0.7-2.8c0-1.2,0.2-2.3,0.7-3.2s1.2-1.6,2.1-2.1c0.9-0.5,2-0.8,3.2-0.8c0.5,0,0.9,0.1,1.5,0.2c0.5,0.1,0.9,0.2,1.2,0.4v2.4c-0.8-0.6-1.7-0.9-2.5-0.9c-1,0-1.9,0.3-2.5,1s-1,1.6-1,2.8c0,1.1,0.3,2,0.9,2.7s1.5,1,2.5,1c0.4,0,0.8-0.1,1.3-0.2s0.9-0.4,1.3-0.7v2.2H194.3z"/><path id="XMLID_17_" fill="#FFFFFF" d="M203.6,55.1l-4.3-5.3l0,0v5.3h-2.5v-11h2.5v5l0,0l4.1-5h3.1l-4.7,5.3l5.1,5.7H203.6z"/><path fill="#FFFFFF" d="M218.3,49.5c0,1.8-0.5,3.2-1.5,4.3s-2.4,1.6-4.2,1.6c-1.7,0-3-0.5-4.1-1.5c-1-1-1.5-2.4-1.5-4.1c0-1.8,0.5-3.3,1.5-4.3s2.5-1.6,4.3-1.6c1.7,0,3.1,0.5,4,1.5C217.8,46.4,218.3,47.8,218.3,49.5z M215.7,49.6c0-1.2-0.3-2.1-0.8-2.8c-0.5-0.6-1.3-0.9-2.2-0.9c-1,0-1.7,0.3-2.3,1s-0.8,1.6-0.8,2.8s0.3,2.1,0.8,2.7c0.6,0.6,1.3,1,2.3,1s1.7-0.3,2.3-1S215.7,50.8,215.7,49.6z"/><path id="XMLID_14_" fill="#FFFFFF" d="M223.2,46.1v9h-2.5v-11h6.4v2H223.2z"/><path fill="#FFFFFF" d="M239.1,49.5c0,1.8-0.5,3.2-1.5,4.3s-2.4,1.6-4.2,1.6c-1.7,0-3-0.5-4.1-1.5c-1-1-1.5-2.4-1.5-4.1c0-1.8,0.5-3.3,1.5-4.3s2.5-1.6,4.3-1.6c1.7,0,3.1,0.5,4,1.5C238.6,46.4,239.1,47.8,239.1,49.5z M236.5,49.6c0-1.2-0.3-2.1-0.8-2.8c-0.5-0.6-1.3-0.9-2.2-0.9c-1,0-1.7,0.3-2.3,1s-0.8,1.6-0.8,2.8s0.3,2.1,0.8,2.7c0.6,0.6,1.3,1,2.3,1s1.7-0.3,2.3-1S236.5,50.8,236.5,49.6z"/><path fill="#FFFFFF" d="M125.3,78.3c0,1-0.3,1.8-1,2.4s-1.6,0.9-2.7,0.9h-5.7v-11h5.4c1.2,0,2.1,0.2,2.7,0.7c0.6,0.4,0.9,1.1,0.9,2c0,0.6-0.2,1.2-0.6,1.6c-0.4,0.5-0.9,0.7-1.6,0.9c0.8,0.1,1.4,0.4,1.9,0.8C125,77,125.3,77.6,125.3,78.3z M122.3,73.5c0-0.4-0.1-0.7-0.4-1c-0.3-0.2-0.7-0.3-1.4-0.3h-2.1V75h2c0.6,0,1.1-0.1,1.4-0.4C122.1,74.4,122.3,74,122.3,73.5z M122.7,78.3c0-1-0.7-1.5-2.1-1.5h-2.2v3h2.4c0.7,0,1.1-0.1,1.5-0.3C122.5,79.2,122.7,78.8,122.7,78.3z"/><path id="XMLID_8_" fill="#FFFFFF" d="M138.7,68.3v13.2h-2.6V68.3h-4.4v-2.2h11.4v2.2H138.7z"/><path id="XMLID_7_" fill="#FFFFFF" d="M143.8,86.7c-0.6,0-1.1-0.1-1.5-0.2v-2.1c0.4,0.2,0.8,0.3,1.2,0.3c0.9,0,1.5-0.5,1.9-1.4l0.8-1.7l-4.4-11h2.8l2.8,8.5l0,0l2.9-8.5h2.5L148,82.9c-0.5,1.3-1.1,2.3-1.8,2.9S144.7,86.7,143.8,86.7z"/><path id="XMLID_6_" fill="#FFFFFF" d="M154.5,81.5v-11h2.5v9h3.7v-9h2.5v9h3.7v-9h2.5v11H154.5z"/><path id="XMLID_5_" fill="#FFFFFF" d="M180.6,81.5v-7.7l-5.7,7.7h-2.1v-11h2.4V78l5.5-7.5h2.3v11H180.6z"/><path id="XMLID_4_" fill="#FFFFFF" d="M193.5,81.5v-4.7h-4.9v4.7h-2.5v-11h2.5v4.3h4.9v-4.3h2.5v11H193.5z"/><path fill="#FFFFFF" d="M209.8,75.9c0,1.8-0.5,3.2-1.5,4.3s-2.4,1.6-4.2,1.6c-1.7,0-3-0.5-4.1-1.5c-1-1-1.5-2.4-1.5-4.1c0-1.8,0.5-3.3,1.5-4.3s2.5-1.6,4.3-1.6c1.7,0,3.1,0.5,4,1.5C209.3,72.8,209.8,74.1,209.8,75.9z M207.2,76c0-1.2-0.3-2.1-0.8-2.8c-0.5-0.6-1.3-0.9-2.2-0.9c-1,0-1.7,0.3-2.3,1s-0.8,1.6-0.8,2.8c0,1.2,0.3,2.1,0.8,2.7c0.6,0.6,1.3,1,2.3,1s1.7-0.3,2.3-1S207.2,77.2,207.2,76z"/></g><path id="XMLID_1_" fill="#191919" d="M58,73c-0.7,0-1.6-0.2-2.4-0.5c-3.4-1.2-4.9-3.9-4.2-7.5c0.6-2.9,1.6-5.4,2.7-8c0.7-1.8,1.5-3.5,2.2-5.3c0.4-1.2,1-2.6,1.5-3.8l0,0c-0.4,0.5-0.9,0.9-1.3,1.4c-1.2,1.2-2.4,2.6-3.6,3.8c-1.9,2.1-4,4.4-6.1,6.5c-1.5,1.5-3.3,3.2-5.5,4.2c-1.3,0.6-2.7,0.9-3.9,0.5c-2.2-0.6-3.4-2.4-3.3-5c0.1-2.1,0.7-4.2,1.8-6.5c0.9-2,1.8-3.9,2.7-5.9c0.4-0.9,0.9-2,1.3-2.9l1-2.4c1.2-2.7,2.5-5.6,3.7-8.3c0.3-0.8,0.6-1.7,0.7-2.6c0.1-0.3,0.1-0.6,0.3-0.9c-0.1,0.2-0.3,0.3-0.4,0.6c-1.6,2.3-3.1,4.5-4.8,6.8c-0.4,0.8-1,1.4-1.5,2.1c-1.2,1.7-2.5,3.5-3.7,5.3c-0.7,1.1-1.8,1.8-2.8,2.6c-1,0.6-2.2,0.8-3.3,0.3c-1-0.5-1.9-1.5-2.4-2.7c-0.6-2,0-3.9,0.7-5.3c0.6-1.4,1.3-2.6,1.9-3.9c0.6-1.1,1.2-2.3,1.8-3.3c0.6-1.2,1.2-2.4,1-3.8c0-0.8-0.4-1.5-1-2c-0.3-0.3-0.7-0.3-1.3,0c-1.3,0.6-2.2,1.7-3,2.7c-0.6,0.8-1.3,1.1-2.1,0.6c-0.4-0.3-0.7-0.8-0.9-1.1c-0.1-0.5,0-0.9,0.3-1.4c1.3-2.1,3-3.5,4.9-4.2c2.2-0.9,4.5,0,6,2.3c1,1.7,1.2,3.5,0.7,5.3c-0.6,1.7-1.2,3.3-1.9,4.8c-0.4,0.9-0.9,2-1.3,2.9s-0.9,2-1.3,2.9c-0.3,0.6-0.3,1.2-0.4,2v0.2c0,0,0,0.2,0.1,0.3c0.1,0,0.1-0.2,0.3-0.2c0.3-0.3,0.4-0.5,0.7-0.8c0.7-0.8,1.3-1.5,1.9-2.3c1-1.7,2.2-3.3,3.3-4.8c0.9-1.5,1.9-2.9,2.8-4.4c1.2-1.7,2.2-3.2,3.4-4.5c1-1.2,2.1-1.8,3.1-2.1c1-0.2,1.9,0.2,2.8,0.8c0.9,0.8,1.3,1.8,1.5,2.9c0.1,1.5,0,2.9-0.6,4.4l-0.3,0.9c-0.9,2.6-1.9,5.1-3,7.7c-0.9,2.1-1.9,4.2-2.8,6.5c-0.9,2.1-1.9,4.2-2.8,6.5c-0.4,1.2-0.9,2.6-1.2,3.8c-0.1,0.3-0.1,0.8-0.3,1.1c0,0.2,0,0.2,0,0.3c0.3-0.2,0.6-0.3,0.9-0.6c2.1-1.5,3.9-3.5,5.7-5.4c2.7-3,5.7-6.3,8.6-9.3c1-1.2,2.4-2.1,3.7-2.6c1.3-0.6,2.7-0.5,3.7,0.2c1,0.6,1.8,1.7,2.1,3c0.3,1.4,0,2.7-0.1,3.6c-0.6,2.4-1.5,4.8-2.4,6.9c-0.3,0.6-0.4,1.2-0.7,1.8c-1.2,3-2.1,5.4-3,7.7c-0.1,0.5-0.1,0.9-0.3,1.4c0,0.3-0.1,0.5-0.1,0.8h0.1c0.4,0,1,0,1.3-0.2c1.6-0.6,3-2,4.3-3.2c0.9-0.9,1.8-1.8,2.7-2.6l0.1-0.2c0.9-0.9,1.8-0.9,2.8,0c0.7,0.6,1.3,1.2,1.9,1.8c0.4,0.5,0.6,0.9,0.6,1.4s-0.1,0.9-0.6,1.2l-0.3,0.3c-2.4,2.4-4.8,4.8-7.9,6.5C61,72.5,59.5,73,58,73z"/></svg>
