<svg version="1.1" xmlns="http://www.w3.org/2000/svg" xmlns:xlink="http://www.w3.org/1999/xlink" x="0px" y="0px" viewBox="0 0 96 96" enable-background="new 0 0 96 96" xml:space="preserve"><rect id="XMLID_7_" fill="#2D7C9A" opacity="0.5" width="96" height="96"/><g id="XMLID_1_"><path id="XMLID_2_" fill="#FFFFFF" d="M62.4,45c-4.2,3-8.4,6-12,9.6c0-9.6,1.2-19.2,3.6-28.8c0.6-2.4-1.8-3.6-3.6-3c-2.4,0.6-4.2,3-4.8,5.4c-2.4,12-3.6,24.6-3.6,36.6c-6-0.6-9.6-4.2-10.2-9c0.6-1.8,0.6-3.6,0.6-6c1.2-1.2,2.4-3,1.8-4.8c-0.6-2.4-3-2.4-4.8-1.8c-7.8,4.2-16.2,9.6-19.8,18c-1.8,3.6-1.2,8.4,3.6,10.2c4.8,1.2,9.6-1.2,13.2-4.2c3,4.2,7.8,7.2,15,6.6c2.4,0,4.2-2.4,5.4-4.8c0.6,0,0.6,0,1.2-0.6c-0.6,2.4,0.6,4.2,3.6,3.6C64.8,69,70.8,58.8,69,46.2C67.8,43.2,64.2,43.8,62.4,45z M22.8,61.2c-0.6,0.6-2.4,1.2-3.6,1.2c-0.6,0-0.6-0.6-1.2-0.6c0,0,0,0,0.6-1.2c1.2-2.4,3.6-4.2,6-6c0,1.2,0,2.4,0,3.6C23.4,58.8,23.4,60,22.8,61.2z M52.2,62.4L52.2,62.4c2.4-3,5.4-6,8.4-8.4C60,58.2,57.6,62.4,52.2,62.4z"/><path id="XMLID_9_" fill="#FFFFFF" d="M88.2,59.4c-2.4,1.2-9,4.2-10.2,0s3-7.8,6-10.2c1.8-1.2,3-4.2,1.8-6s-4.2-1.2-5.4,0c-6,4.8-12.6,12.6-10.8,21c2.4,9,13.8,6,19.8,3C94.2,64.8,94.2,57,88.2,59.4z"/></g></svg>
