<svg version="1.1" xmlns="http://www.w3.org/2000/svg" xmlns:xlink="http://www.w3.org/1999/xlink" x="0px" y="0px" viewBox="0 0 16 16" enable-background="new 0 0 16 16" xml:space="preserve"><rect id="XMLID_7_" fill="#2D7C9A" width="16" height="16"/><g id="XMLID_1_"><path id="XMLID_2_" fill="#FFFFFF" d="M10.4,7.5C9.7,8,9,8.5,8.4,9.1c0-1.6,0.2-3.2,0.6-4.8c0.1-0.4-0.3-0.6-0.6-0.5C8,3.9,7.7,4.3,7.6,4.7C7.2,6.7,7,8.8,7,10.8c-1-0.1-1.6-0.7-1.7-1.5C5.4,9,5.4,8.7,5.4,8.3c0.2-0.2,0.4-0.5,0.3-0.8C5.6,7.1,5.2,7.1,4.9,7.2c-1.3,0.7-2.7,1.6-3.3,3c-0.3,0.6-0.2,1.4,0.6,1.7c0.8,0.2,1.6-0.2,2.2-0.7c0.5,0.7,1.3,1.2,2.5,1.1c0.4,0,0.7-0.4,0.9-0.8c0.1,0,0.1,0,0.2-0.1c-0.1,0.4,0.1,0.7,0.6,0.6c2.2-0.5,3.2-2.2,2.9-4.3C11.3,7.2,10.7,7.3,10.4,7.5z M3.8,10.2c-0.1,0.1-0.4,0.2-0.6,0.2c-0.1,0-0.1-0.1-0.2-0.1c0,0,0,0,0.1-0.2c0.2-0.4,0.6-0.7,1-1c0,0.2,0,0.4,0,0.6C3.9,9.8,3.9,10,3.8,10.2z M8.7,10.4L8.7,10.4c0.4-0.5,0.9-1,1.4-1.4C10,9.7,9.6,10.4,8.7,10.4z"/><path id="XMLID_9_" fill="#FFFFFF" d="M14.7,9.9c-0.4,0.2-1.5,0.7-1.7,0s0.5-1.3,1-1.7c0.3-0.2,0.5-0.7,0.3-1s-0.7-0.2-0.9,0c-1,0.8-2.1,2.1-1.8,3.5c0.4,1.5,2.3,1,3.3,0.5C15.7,10.8,15.7,9.5,14.7,9.9z"/></g></svg>
