<svg version="1.1" xmlns="http://www.w3.org/2000/svg" x="0px" y="0px" viewBox="0 0 96 96" enable-background="new 0 0 96 96"><rect fill="#737373" opacity="0.5" width="96" height="96"/><path fill="#FFFFFF" d="M59.3,92c-1.7,0-3.4-0.2-5.1-0.5c-6.7-1.4-21.5-11.6-23.8-13.2c-1.8-0.5-3.3-1.6-4.3-3.1c-0.9-1.5-1.3-3.2-0.9-4.9c0.5-2.3,2.3-4,4.4-4.8l-22-22c-2.3-2.3-2.3-6,0-8.2c1.1-1.1,2.6-1.7,4.1-1.7c0,0,0,0,0,0c1.6,0,3,0.6,4.1,1.7L28,47.4c-0.2-0.5-0.2-1.1-0.2-1.7c0-1.6,0.6-3,1.7-4.1c1.1-1.1,2.6-1.7,4.1-1.7c0,0,0,0,0,0c1.6,0,3,0.6,4.1,1.7l1.3,1.3c-0.6-2-0.1-4.3,1.4-5.8c2.3-2.3,6-2.3,8.2,0l2.5,2.5c-0.2-0.5-0.2-1.1-0.2-1.7c0-1.6,0.6-3,1.7-4.1l0,0c1.1-1.1,2.6-1.7,4.1-1.7c0,0,0,0,0,0c1.6,0,3,0.6,4.1,1.7l18.6,18.6c1.5,1.5,5,5.5,6.1,11.1c1.4,6.8-1.1,13.4-7.3,19.6C72.3,89,66.1,92,59.3,92z M32.1,68.5c-1.7,0-3.2,1-3.6,2.5c-0.2,0.8,0,1.6,0.4,2.3c0.5,0.8,1.4,1.5,2.5,1.7l0.3,0.1l0.3,0.2c4.5,3.2,17.5,11.7,22.8,12.8c7.7,1.6,14.3-0.8,21-7.5c5.4-5.4,7.5-10.9,6.4-16.5c-1-4.7-4-8.1-5.2-9.4L58.5,36.1c-0.4-0.4-1-0.7-1.7-0.7c0,0,0,0,0,0c-0.6,0-1.3,0.3-1.7,0.7l0,0c-0.4,0.4-0.7,1.1-0.7,1.7c0,0.6,0.2,1.2,0.7,1.7l5,5c1.2,1.2,1.2,3.2,0,4.4c-0.6,0.6-1.4,0.9-2.2,0.9h0c-0.8,0-1.6-0.3-2.2-0.9l-9.4-9.4c-0.9-0.9-2.5-0.9-3.4,0c-0.9,0.9-0.9,2.5,0,3.4l7.5,7.5c1.2,1.2,1.2,3.2,0,4.4c-1.2,1.2-3.2,1.2-4.4,0L35.3,44c-0.5-0.5-1.1-0.7-1.7-0.7c0,0,0,0,0,0c-0.6,0-1.2,0.2-1.7,0.7c-0.5,0.5-0.7,1.1-0.7,1.7c0,0.6,0.2,1.2,0.7,1.7l10.8,10.8c0.6,0.6,0.9,1.4,0.9,2.2c0,0.8-0.3,1.6-0.9,2.2c-0.6,0.6-1.3,0.9-2.2,0.9c0,0,0,0,0,0c-0.8,0-1.6-0.3-2.2-0.9L13.5,37.7c-0.5-0.5-1.1-0.7-1.7-0.7c0,0,0,0,0,0c-0.6,0-1.2,0.2-1.7,0.7c-0.9,0.9-0.9,2.5,0,3.4l34.5,34.4L42.2,78l-9.6-9.5C32.4,68.5,32.3,68.5,32.1,68.5z"/><path fill="#FFFFFF" d="M15.9,13.9c-1.1,2.5-4.6,6.8-0.4,8.2c4.7,1.5,9.1,0.3,13.4,0.9c1-0.9,1.2-2.3,0.3-2.9c-0.4-0.5-0.9,0.1-1.3,0.1c-3.4-0.2-6.8,0.3-10.2-0.6c4.3-5.8,11.1-11.1,17.8-11.9c3.3-0.4,8.1,0,10.8,1.8c1.3,0.8,1.5,2.2,3.1,2.6c0.8,0.2,1.2-1.5,1.2-2.2c-2.7-3.2-6.3-4.5-9.6-4.8c-8-0.7-16,3.1-22.8,10.4c0.5-2.8,2.2-5.6,3.5-8.4c-0.3-0.7,0-1.4-0.7-2.1C18,7.1,17.3,10.6,15.9,13.9L15.9,13.9z"/></svg>
