<svg version="1.1" xmlns="http://www.w3.org/2000/svg" xmlns:xlink="http://www.w3.org/1999/xlink" x="0px" y="0px" viewBox="0 0 32 32" enable-background="new 0 0 32 32" xml:space="preserve"><rect id="XMLID_7_" fill="none" width="32" height="32"/><g><path fill="#969696" d="M13.6,4.3h-1V0h1V4.3z M19.9,3.6l-0.6-0.8L16,5.4l0.6,0.8L19.9,3.6z M17,10.1l4,1l0.2-1l-4-1L17,10.1z M10.2,5.4L7,2.7L6.4,3.5l3.2,2.7L10.2,5.4z M9,8.9l-4,1l0.2,1l4-1L9,8.9z M25.5,13.9c-0.8,0-1.5,0.7-1.5,1.6v2.3v0.3h-1v-2.5v-1.3c0-0.9-0.7-1.6-1.5-1.6s-1.5,0.7-1.5,1.6v1.1v1.6h-1v-1.6v-2.1c0-0.9-0.7-1.6-1.5-1.6c-0.8,0-1.5,0.7-1.5,1.6v2v2.8h-1v-2.7V8c0-0.9-0.7-1.6-1.5-1.6S11.6,7.1,11.6,8v11c-2.2-2.3-4.9-4.9-6.1-3.7c-1.1,1.2,1.7,4.4,5.8,11.4c1.9,3.2,4.1,5.3,8,5.3c4.2,0,7.7-3.6,7.7-8v-3.5v-5C27,14.6,26.3,13.9,25.5,13.9z"/></g></svg>
